<?xml version="1.0" encoding="utf-8"?>
<!-- Generator: Adobe Illustrator 16.0.0, SVG Export Plug-In . SVG Version: 6.00 Build 0)  -->
<!DOCTYPE svg PUBLIC "-//W3C//DTD SVG 1.1//EN" "http://www.w3.org/Graphics/SVG/1.1/DTD/svg11.dtd">
<svg version="1.1" id="Capa_1" xmlns="http://www.w3.org/2000/svg" xmlns:xlink="http://www.w3.org/1999/xlink" x="0px" y="0px"
	 width="1279.966px" height="600.965px" viewBox="0 0 1279.966 600.965" enable-background="new 0 0 1279.966 600.965"
	 xml:space="preserve">
<rect fill="#A0C219" fill-opacity="0.9" width="1279.966" height="600.965"/>
<g>
	<g>
		<g>
			<g>
				<path fill="#FFFFFF" d="M719.863,167.538h7.7l1.357,60.237h-10.413L719.863,167.538z M718.651,149.357h10.129v8.611h-10.129
					V149.357L718.651,149.357z"/>
				<path fill="#FFFFFF" d="M746.894,149.357h13.836c7.132,0,11.959,0.742,14.477,2.231c2.521,1.489,3.779,4.166,3.779,8.027v17.757
					c0,3.264-0.829,5.566-2.494,6.911c-1.666,1.349-4.613,2.163-8.846,2.447c4.518,0.213,7.656,0.991,9.418,2.34
					c1.756,1.348,2.639,3.686,2.639,7.016v21.427c0,3.864-1.26,6.54-3.78,8.027c-2.522,1.488-7.348,2.232-14.478,2.232h-14.551
					V149.357z M755.951,155.153v28.656h3.211c4.136,0,6.892-0.54,8.274-1.622c1.376-1.081,2.066-3.483,2.066-7.205v-10.897
					c0-3.755-0.689-6.186-2.066-7.281c-1.381-1.101-4.137-1.65-8.274-1.65H755.951L755.951,155.153z M755.951,189.655v32.324h3.353
					c4.377,0,7.263-0.539,8.666-1.62c1.401-1.082,2.104-3.464,2.104-7.151v-14.727c0-3.687-0.702-6.08-2.104-7.179
					c-1.403-1.098-4.291-1.647-8.666-1.647H755.951L755.951,189.655z"/>
				<path fill="#FFFFFF" d="M794.037,173.121h8.771v41.895c0,3.226,0.466,5.448,1.393,6.672c0.927,1.225,2.507,1.835,4.741,1.835
					c2.188,0,3.734-0.63,4.637-1.888s1.354-3.464,1.354-6.619v-41.893h8.916v54.653h-8.203l-0.714-3.35
					c-1.189,1.524-2.663,2.669-4.421,3.43c-1.76,0.761-3.828,1.141-6.206,1.141c-3.756,0-6.407-0.921-7.952-2.765
					c-1.546-1.842-2.318-5.067-2.318-9.674v-43.438H794.037z"/>
				<path fill="#FFFFFF" d="M866.785,187.369v16.217h-20.754v11.535c0,3.261,0.429,5.475,1.285,6.645
					c0.854,1.173,2.375,1.757,4.564,1.757c2.091,0,3.564-0.604,4.421-1.81c0.858-1.204,1.285-3.402,1.285-6.592v-6.062h9.198v4.466
					c0,6.028-1.093,10.129-3.28,12.306c-2.188,2.183-6.062,3.272-11.624,3.272c-5.518,0-9.378-1.109-11.592-3.323
					c-2.21-2.215-3.315-6.335-3.315-12.361v-26.053c0-6.059,1.081-10.172,3.244-12.334c2.165-2.159,6.05-3.242,11.662-3.242
					c5.516,0,9.377,1.108,11.59,3.323C865.679,177.33,866.785,181.415,866.785,187.369z M857.584,185.723
					c0-3.227-0.426-5.425-1.282-6.593c-0.858-1.171-2.332-1.757-4.422-1.757c-2.141,0-3.652,0.621-4.527,1.861
					c-0.881,1.242-1.321,3.402-1.321,6.486v12.334h11.553V185.723z"/>
				<path fill="#FFFFFF" d="M909.72,184.339v43.437h-8.773v-42.053c0-3.12-0.462-5.291-1.391-6.514
					c-0.926-1.224-2.507-1.834-4.741-1.834c-2.189,0-3.756,0.629-4.708,1.887c-0.95,1.258-1.428,3.411-1.428,6.461v42.053h-8.771
					v-54.654h8.202l0.569,3.349c1.188-1.521,2.7-2.683,4.53-3.483c1.83-0.797,3.933-1.195,6.312-1.195
					c3.707,0,6.334,0.932,7.88,2.792S909.72,179.696,909.72,184.339z"/>
				<path fill="#FFFFFF" d="M691.834,289.053v14.729h6.706v5.527h-6.706v40.617c0,1.524,0.392,2.58,1.179,3.163
					c0.783,0.587,2.199,0.878,4.242,0.878h1.285v5.688c-0.524,0.036-1.059,0.062-1.605,0.081c-0.548,0.018-1.318,0.026-2.318,0.026
					c-4.469,0-7.512-0.806-9.129-2.418c-1.616-1.613-2.424-5.201-2.424-10.767v-37.27h-4.78v-5.529h4.778v-12.067L691.834,289.053z"
					/>
				<path fill="#FFFFFF" d="M727.922,302.561v6.644h-1.498c-3.756,0-6.42,0.7-7.988,2.1c-1.569,1.399-2.354,3.82-2.354,7.257v39.874
					h-8.771v-54.655h8.203l0.568,3.351c1.239-1.49,2.747-2.641,4.531-3.455c1.783-0.815,3.718-1.226,5.812-1.226
					c0.144,0,0.381,0.021,0.713,0.054C727.47,302.541,727.731,302.561,727.922,302.561z"/>
				<path fill="#FFFFFF" d="M762.87,316.54v41.895h-8.203l-0.57-3.35c-1.188,1.522-2.7,2.684-4.528,3.483
					c-1.829,0.797-3.935,1.194-6.312,1.194c-3.708,0-6.337-0.93-7.881-2.79c-1.545-1.861-2.318-5.112-2.318-9.754v-10.899
					c0-4.289,1.557-7.337,4.67-9.145c3.115-1.809,8.571-2.818,16.37-3.032v-7.763c0-3.296-0.414-5.511-1.247-6.646
					c-0.833-1.132-2.318-1.699-4.457-1.699c-2.046,0-3.507,0.522-4.385,1.567c-0.881,1.047-1.321,2.843-1.321,5.396v3.032h-8.773
					v-1.49c0-5.457,1.071-9.169,3.211-11.138c2.141-1.968,5.943-2.953,11.412-2.953c5.322,0,9.046,0.993,11.16,2.978
					C761.808,307.415,762.87,311.117,762.87,316.54z M754.025,329.46c-4.566,0.142-7.667,0.745-9.307,1.81
					c-1.64,1.063-2.46,2.978-2.46,5.742v8.771c0,3.262,0.428,5.477,1.284,6.645c0.855,1.171,2.377,1.755,4.565,1.755
					c2.139,0,3.672-0.629,4.601-1.885c0.925-1.259,1.39-3.429,1.39-6.514L754.025,329.46z"/>
				<path fill="#FFFFFF" d="M776.276,280.015h8.775v27.115c1.188-1.523,2.698-2.685,4.527-3.482c1.83-0.798,3.934-1.198,6.312-1.198
					c3.71,0,6.337,0.932,7.884,2.792c1.543,1.862,2.315,5.112,2.315,9.755v32.22c0,4.643-0.772,7.895-2.315,9.756
					c-1.547,1.86-4.174,2.791-7.884,2.791c-2.378,0-4.481-0.401-6.312-1.196c-1.829-0.798-3.34-1.957-4.527-3.481l-0.569,3.349
					h-8.206V280.015L776.276,280.015z M796.889,316.38c0-3.226-0.427-5.423-1.285-6.592c-0.855-1.172-2.378-1.756-4.565-1.756
					c-2.138,0-3.672,0.63-4.599,1.888s-1.392,3.411-1.392,6.46v29.4c0,3.119,0.453,5.298,1.357,6.54
					c0.901,1.239,2.448,1.859,4.633,1.859c2.186,0,3.71-0.584,4.565-1.755c0.858-1.168,1.285-3.383,1.285-6.645V316.38
					L796.889,316.38z"/>
				<path fill="#FFFFFF" d="M847.882,316.54v41.895h-8.201l-0.571-3.35c-1.189,1.522-2.699,2.684-4.529,3.483
					c-1.828,0.797-3.933,1.194-6.311,1.194c-3.708,0-6.338-0.93-7.881-2.79c-1.545-1.861-2.318-5.112-2.318-9.754v-10.899
					c0-4.289,1.558-7.337,4.671-9.145c3.114-1.809,8.571-2.818,16.368-3.032v-7.763c0-3.296-0.415-5.511-1.246-6.646
					c-0.833-1.132-2.318-1.699-4.458-1.699c-2.045,0-3.506,0.522-4.384,1.567c-0.881,1.047-1.319,2.843-1.319,5.396v3.032h-8.775
					v-1.49c0-5.457,1.071-9.169,3.211-11.138c2.141-1.968,5.943-2.953,11.412-2.953c5.322,0,9.044,0.993,11.16,2.978
					C846.825,307.415,847.882,311.117,847.882,316.54z M839.04,329.46c-4.564,0.142-7.664,0.745-9.306,1.81
					c-1.642,1.063-2.461,2.978-2.461,5.742v8.771c0,3.262,0.429,5.477,1.283,6.645c0.856,1.171,2.378,1.755,4.565,1.755
					c2.141,0,3.674-0.629,4.601-1.885c0.927-1.259,1.39-3.429,1.39-6.514L839.04,329.46z"/>
				<path fill="#FFFFFF" d="M861.292,303.779h8.773v62.947c0,5.529-0.82,9.127-2.461,10.792c-1.641,1.669-4.719,2.501-9.236,2.501
					c-0.997,0-1.77-0.018-2.318-0.052c-0.545-0.035-1.034-0.073-1.461-0.108v-5.634h1.285c2.042,0,3.459-0.303,4.244-0.904
					c0.784-0.604,1.177-1.685,1.177-3.243v-66.299H861.292z M860.865,280.015h9.769v8.294h-9.769V280.015z"/>
				<path fill="#FFFFFF" d="M913.143,318.03v26.157c0,6.026-1.094,10.127-3.281,12.309c-2.19,2.18-6.062,3.271-11.626,3.271
					c-5.515,0-9.377-1.108-11.59-3.325c-2.209-2.214-3.318-6.335-3.318-12.361v-26.05c0-6.062,1.082-10.172,3.247-12.334
					c2.163-2.163,6.05-3.243,11.661-3.243c5.517,0,9.379,1.107,11.592,3.321C912.036,307.99,913.143,312.076,913.143,318.03z
					 M903.94,316.38c0-3.226-0.428-5.423-1.281-6.592c-0.857-1.172-2.33-1.756-4.424-1.756c-2.141,0-3.648,0.62-4.527,1.86
					c-0.881,1.243-1.321,3.402-1.321,6.487v29.4c0,3.262,0.43,5.477,1.285,6.645c0.854,1.171,2.377,1.755,4.563,1.755
					c2.094,0,3.566-0.602,4.425-1.808c0.854-1.204,1.282-3.403,1.282-6.592v-29.4H903.94z"/>
				<path fill="#FFFFFF" d="M929.189,280.015h10.413l-1.355,60.237h-7.702L929.189,280.015z M929.333,349.822h10.127v8.612h-10.127
					V349.822z"/>
			</g>
		</g>
	</g>
	<polygon fill="#3C9E39" points="690.608,405.102 707.017,461.852 921.548,450.21 934.697,405.102 	"/>
	<g>
		<g>
			<path fill="#FFFFFF" d="M750.2,415.722h10.764v2.165h-3.78v25.157h-3.206v-25.157H750.2V415.722z"/>
			<path fill="#FFFFFF" d="M764.266,415.722h8.749v2.165h-5.59v9.837h5.342v2.148h-5.342v11.005h5.738v2.167h-8.897V415.722z"/>
			<path fill="#FFFFFF" d="M777.713,415.722h4.821c2.484,0,4.166,0.258,5.045,0.775c0.878,0.521,1.314,1.451,1.314,2.798v6.187
				c0,1.138-0.287,1.939-0.868,2.41c-0.579,0.469-1.608,0.751-3.082,0.853c1.575,0.072,2.669,0.345,3.281,0.813
				c0.612,0.468,0.921,1.285,0.921,2.446v11.04h-3.355v-10.208c0-1.283-0.244-2.117-0.732-2.501
				c-0.49-0.382-1.498-0.573-3.022-0.573h-1.168v13.282h-3.157v-27.322H777.713z M780.867,417.739v9.984h1.117
				c1.44,0,2.401-0.187,2.884-0.563c0.48-0.377,0.719-1.213,0.719-2.512v-3.799c0-1.31-0.238-2.153-0.719-2.537
				c-0.48-0.382-1.441-0.573-2.884-0.573H780.867z"/>
			<path fill="#FFFFFF" d="M794.66,415.722h5.49l3.554,25.155h0.248l3.479-25.155h5.344v27.322h-2.759v-25.268h-0.497l-3.579,25.268
				h-4.423l-3.704-25.268h-0.422v25.268h-2.731V415.722z"/>
			<path fill="#FFFFFF" d="M818.469,415.722h3.354v27.322h-3.354V415.722z"/>
			<path fill="#FFFFFF" d="M827.416,415.722h4.321l5.244,25.693h0.051l-0.475-25.693h2.857v27.322h-4.373l-5.194-25.343h-0.099
				l0.446,25.343h-2.782v-27.322H827.416z"/>
			<path fill="#FFFFFF" d="M848.19,415.722h4.622l5.292,27.322h-3.402l-1.267-7.596h-6.015l-1.369,7.596h-3.329L848.19,415.722z
				 M850.374,417.739l-2.656,15.708h5.294l-2.486-15.708H850.374z"/>
			<path fill="#FFFFFF" d="M861.461,415.722h4.821c2.485,0,4.166,0.258,5.044,0.775c0.879,0.521,1.316,1.451,1.316,2.798v6.187
				c0,1.138-0.289,1.939-0.867,2.41c-0.581,0.469-1.608,0.751-3.082,0.853c1.572,0.072,2.665,0.345,3.279,0.813
				c0.612,0.469,0.92,1.285,0.92,2.446v11.04h-3.354v-10.208c0-1.283-0.246-2.117-0.734-2.501c-0.488-0.382-1.498-0.573-3.021-0.573
				h-1.17v13.282h-3.153L861.461,415.722L861.461,415.722z M864.616,417.739v9.984h1.119c1.439,0,2.4-0.187,2.881-0.563
				c0.481-0.377,0.724-1.213,0.724-2.512v-3.799c0-1.31-0.242-2.153-0.724-2.537c-0.478-0.382-1.438-0.573-2.881-0.573H864.616z"/>
		</g>
	</g>
</g>
<path fill="#FFFFFF" d="M555.409,140.636l34.774-2.658l-0.792-10.358l2.463,10.148c5.083-0.929,9.639-1.381,13.927-1.381
	c5.4,0,10.21,0.724,14.631,2.208l0.716,1.764c0.637,1.569,0.64,3.5,0.005,4.701c-6.877,12.997-28.333,17.683-44.003,21.104
	c-7.226,1.58-14.831,2.77-22.936,3.585L555.409,140.636z M207.254,579.311c17.263-38.551,61.727-117.657,143.985-142.344l2.301-0.69
	l9.559,0.064l-0.02-2.928l0.002,0L362.2,303.521l0.276-20.32l-19.698,4.19c-0.36,0.049-1.637,0.203-3.491,0.203
	c-7.763,0-18.54-2.429-25.794-14c-7.605-12.133-6.967-29.401-4.287-36.866c0.022,0.02,0.044,0.039,0.065,0.059
	c5.8,5.235,11.22,9.908,16.108,13.889l27.454,22.358l-0.537-35.402c-0.034-2.247,0.056-4.766,0.143-7.202
	c0.145-4.037,0.269-7.523-0.088-10.689c-1.124-9.911-1.415-17.282-1.722-25.085l-0.801-20.083l-18.204,2.735
	c-12.21,1.834-28.262,3.941-44.143,3.941c-6.098,0-11.801-0.291-17.391-0.889l-0.896-0.242h-1.224
	c-2.613-0.316-5.062-0.679-7.46-1.104c-15.459-2.738-23.002-6.137-26.654-8.971c4.247-2.415,8.946-4.054,14.215-4.967l0.396-0.069
	c0.696-0.115,1.394-0.223,2.095-0.311l0.697-0.103c3.249-0.547,6.854-0.868,11.022-0.979l0.003-0.573l86.29-6.596l0.562-14.701
	c0.511-13.386,3.908-27.729,9.822-41.476l0.096-0.224c2.002-4.631,4.275-9.173,6.75-13.492
	c6.334-11.036,12.358-17.292,17.913-18.596c12.522-2.943,21.484-4.199,29.968-4.199c0.346,0,0.692,0.002,1.039,0.006l1.547,0.02
	l1.523-0.269c5.715-1.007,10.06-1.146,13.903-1.146c1.25,0,2.471,0.015,3.685,0.03c1.333,0.016,2.659,0.032,4,0.032
	c4.735,0,10.566-0.178,17.904-1.499c0.775-0.139,1.517-0.207,2.267-0.207c5.435,0,11.555,3.662,20.462,12.247
	c19.048,18.356,33.616,39.118,41.021,58.461l4.399,11.491l27.013-2.064l-8.375,29.695c-4.252,0.255-8.64,0.419-13.182,0.493
	l-17.865,0.29l1.708,17.786c2.205,22.97,2.866,51.428,1.859,80.132l-0.286,8.176c-0.028,0.277-0.058,0.559-0.088,0.846l-0.058,0.674
	c-0.388,6.037-1.233,12.03-2.513,17.814l-0.139,0.698c-3.058,17.336-9.175,42.206-20.953,62.234l-1.493,2.464
	c-0.912,1.458-1.758,2.748-2.588,3.944l-1.663,2.316c-8.234,11.099-17.884,18.441-28.681,21.822l-13.469,4.219l6.017,40.379
	l9.74,3.146c55.166,17.819,93.308,60.74,115.591,93.609c12.174,17.957,21.107,34.994,27.057,47.713H207.254z M549.068,281.411
	c0.77-7.31,0.96-11.88,0.97-12.08l2.771-66.319c11.12-0.92,21.5-2.45,31.36-4.61c20.75-4.53,52.09-11.37,66.13-37.9
	c4.87-9.19,5.63-20.48,2.14-30.6c-0.2-0.83-0.45-1.65-0.77-2.46c-2.23-5.75-5.57-10.5-9.92-14.11l-0.649-0.53l-0.7-0.48
	c-0.17-0.11-0.63-0.48-0.93-0.72l-2.58-2.03l-2.19-0.87c-8.82-3.53-18.55-5.31-28.92-5.31c-6.01,0-12.2,0.57-18.9,1.74l-39.97,3.06
	c-12.12-25.2-30.15-45.63-43.99-58.98c-10.38-10-24.69-21.48-43.36-21.48c-2.69,0-5.42,0.24-8.11,0.72
	c-4.51,0.82-8.09,0.98-12.07,0.98c-1.2,0-2.39-0.01-3.59-0.03c-1.35-0.01-2.7-0.03-4.09-0.03c-4.77,0-10.61,0.17-18.1,1.391
	c-14.01,0.01-26.78,2.569-37.43,5.069c-15.01,3.53-27.76,14.74-38.99,34.311c-3.11,5.42-5.95,11.1-8.45,16.89l12.66,5.47v0.21
	l-12.74-5.48c-5.41,12.57-9.16,25.65-11.09,38.49l-63.05,4.819l0.02,0.44c-2.94,0.24-5.73,0.58-8.41,1.02
	c-0.939,0.12-1.939,0.27-3.05,0.45l-0.64,0.11c-13.23,2.3-24.99,7.58-34.98,15.72c-1.68,1.2-3.18,2.61-4.5,4.22
	c-0.23,0.28-0.45,0.57-0.67,0.87c-2.33,3.16-3.82,6.811-4.31,10.59c-0.11,0.78-0.14,1.45-0.16,1.96l-0.021,0.31l0.01,0.49
	c-0.02,0.3-0.03,0.62-0.04,0.95l-0.05,1.45l0.26,1.61c5.1,31.62,44,38.51,56.79,40.78c3.13,0.55,6.31,1.02,9.69,1.42l11.37,2.229
	l0.64-1.2c2.561,0.13,5.141,0.22,7.75,0.26c-1.02,1.38-1.979,2.859-2.85,4.439c-10.85,19.601-9.01,51.42,4.17,72.46
	c9.16,14.601,23.08,24.351,39.4,27.94c-4.91,7.3-2.55,14.33-1.57,16.59c1.35,3.01,3.48,5.46,6.11,7.17l0.41,60.3l-14.11-0.1
	l6.06,9.46c-44.43,18.46-84.08,52.79-115.59,100.31c-26.93,40.641-38.53,76.5-39.01,78.01l-3.24,10.16h483.05l-3.57-10.47
	c-0.5-1.47-12.6-36.55-39.6-76.61c-32.21-47.79-72.25-82.42-116.6-101.09c5.4-3.41,10.5-7.49,15.28-12.229
	c1.27,0.28,2.57,0.42,3.89,0.42c3.7,0,7.21-1.16,10.19-3.38c1.67-1.25,3.24-2.96,4.46-5.04c2.66-1.04,5.04-2.74,6.9-5l0.07-0.09
	c1.479-1.83,8.11-11.21-0.88-22.7c10.189-21.29,15.779-44.37,18.77-61.23C547.528,296.331,548.578,288.891,549.068,281.411z"/>
<g>
	<g>
		<g>
			<path fill="#F7E2C0" d="M214.266,167.714c0.024-0.349,0.034-0.704,0.03-1.062c0.01-0.168,0-0.351,0.025-0.506
				c0.283-2.348,2.128-4.572,4.306-5.279c1.497-1.323,3.333-2.397,5.667-3.127c4.657-2.859,10.607-4.294,15.246-5.155
				c3.689-0.683,18.168-1.277,24.426,1.729c10.583-0.623,21.924,1.504,32.238,2.336c12.982,1.041,27.521,1.006,39.989,5.667
				c11.3-0.826,22.951,0.497,34.25,0.841c12.156,0.376,24.313,0.605,36.478,0.766c12.159,0.154,24.316,0.138,36.476,0.142
				c10.344,0.002,21.487-1.3,31.899,0.065c12.043-2.348,24.201-3.348,36.166-6.605c13.999-3.816,27.272-9.939,40.496-15.994
				c19.985-9.147,46.081-22.118,68.74-17.171c0.17-0.947,0.824-1.711,2.048-1.547c12.933,1.67,19.116,18.358,12.973,29.963
				c-10.299,19.466-35.821,25.305-55.065,29.507c-54.353,11.879-110.16,0.01-164.986,1.059
				c-53.107,1.019-104.715,21.365-158.033,11.92c-15.149-2.683-40.37-8.497-43.377-27.154
				C214.261,167.978,214.256,167.841,214.266,167.714z"/>
			<path opacity="0.5" fill="#F6DEBB" d="M214.266,167.714c0.024-0.349,0.034-0.704,0.03-1.062c0.01-0.168,0-0.351,0.025-0.506
				c0.283-2.348,2.128-4.572,4.306-5.279c1.497-1.323,3.333-2.397,5.667-3.127c4.657-2.859,10.607-4.294,15.246-5.155
				c3.689-0.683,18.168-1.277,24.426,1.729c10.583-0.623,21.924,1.504,32.238,2.336c12.982,1.041,27.521,1.006,39.989,5.667
				c11.3-0.826,22.951,0.497,34.25,0.841c12.156,0.376,24.313,0.605,36.478,0.766c12.159,0.154,24.316,0.138,36.476,0.142
				c10.344,0.002,21.487-1.3,31.899,0.065c12.043-2.348,24.201-3.348,36.166-6.605c13.999-3.816,27.272-9.939,40.496-15.994
				c19.985-9.147,46.081-22.118,68.74-17.171c0.17-0.947,0.824-1.711,2.048-1.547c12.933,1.67,19.116,18.358,12.973,29.963
				c-10.299,19.466-35.821,25.305-55.065,29.507c-54.353,11.879-110.16,0.01-164.986,1.059
				c-53.107,1.019-104.715,21.365-158.033,11.92c-15.149-2.683-40.37-8.497-43.377-27.154
				C214.261,167.978,214.256,167.841,214.266,167.714z"/>
			<path opacity="0.5" fill="#F6DEBB" d="M214.266,167.714c0.024-0.349,0.034-0.704,0.03-1.062c0.01-0.168,0-0.351,0.025-0.506
				c0.283-2.348,2.128-4.572,4.306-5.279c1.497-1.323,3.333-2.397,5.667-3.127c4.657-2.859,10.607-4.294,15.246-5.155
				c3.689-0.683,18.168-1.277,24.426,1.729c10.583-0.623,21.924,1.504,32.238,2.336c12.982,1.041,27.521,1.006,39.989,5.667
				c11.3-0.826,22.951,0.497,34.25,0.841c12.156,0.376,24.313,0.605,36.478,0.766c12.159,0.154,24.316,0.138,36.476,0.142
				c10.344,0.002,21.487-1.3,31.899,0.065c12.043-2.348,24.201-3.348,36.166-6.605c13.999-3.816,27.272-9.939,40.496-15.994
				c19.985-9.147,46.081-22.118,68.74-17.171c0.17-0.947,0.824-1.711,2.048-1.547c12.933,1.67,19.116,18.358,12.973,29.963
				c-10.299,19.466-35.821,25.305-55.065,29.507c-54.353,11.879-110.16,0.01-164.986,1.059
				c-53.107,1.019-104.715,21.365-158.033,11.92c-15.149-2.683-40.37-8.497-43.377-27.154
				C214.261,167.978,214.256,167.841,214.266,167.714z"/>
			<path opacity="0.5" fill="#F6DEBB" d="M254.005,160.202c4.982-5.897,11.462-5.485,18.671-5.165
				c6.407,0.292,12.797,0.715,19.192,1.204c1.461,0.153,2.911,0.296,4.336,0.41c1.999,0.162,4.041,0.298,6.101,0.426
				c3.595,0.301,7.189,0.615,10.78,0.926c2.617,0.224,5.228,0.453,7.833,0.681c5.26,0.733,10.421,1.823,15.275,3.634
				c11.3-0.826,22.951,0.497,34.25,0.841c2.182,0.069,4.372,0.111,6.555,0.168c5.295,0.608,10.509,1.537,15.456,3.256
				c4.008-0.329,7.977-0.609,11.823-0.963c6.028-0.551,12.064-1.07,18.097-1.589c7.01,0.022,14.018,0.03,21.023,0.035
				c10.344,0.002,21.487-1.3,31.899,0.065c12.043-2.348,24.201-3.348,36.166-6.605c8.398-2.29,16.535-5.418,24.565-8.854
				c0.112-0.037,0.222-0.077,0.336-0.111c0.066-0.04,0.131-0.077,0.2-0.118c5.167-2.223,10.287-4.567,15.394-6.912
				c9.973-4.562,21.461-10.077,33.291-13.844c10.926-2.605,29.178-3.081,26.154,12.856c-2.993,15.836-19.392,27.97-32.653,35.271
				c-11.431,6.29-26.938,10.851-40.624,9.215c-2.423,1.166-4.937,1.951-7.506,2.524c-38.245,0.563-76.838-4.944-114.952-4.213
				c-16.006,0.303-31.868,2.371-47.686,4.844c-3.774-0.778-7.576-1.465-11.444-1.928c-7.463-0.902-14.663,0.218-22.002,0.73
				c-16.999,6.485-35.172,5.362-52.591,0.032C274.552,184.76,243.285,172.904,254.005,160.202z"/>
		</g>
		<g>
			<path fill="#7B5340" d="M350.32,187.654c0,0-1.737,0.452-4.803,1.136c-3.07,0.666-7.466,1.586-12.795,2.403
				c-2.663,0.421-5.565,0.757-8.644,1.05c-3.081,0.26-6.347,0.424-9.735,0.291c-3.397-0.123-6.848-0.672-10.341-1.246
				c-3.492-0.592-7.02-1.293-10.531-2.069c-7.026-1.536-13.965-3.472-20.352-5.661c-3.187-1.111-6.244-2.284-9.023-3.687
				c-1.388-0.7-2.713-1.448-3.916-2.312c-0.598-0.436-1.167-0.899-1.669-1.429c-0.517-0.561-0.881-1.085-1.272-1.698
				c-1.433-2.396-1.775-5.005-1.669-7.198c0.1-2.214,0.557-4.093,1.011-5.599c0.463-1.507,0.953-2.646,1.304-3.411
				c0.354-0.765,0.574-1.156,0.574-1.156s-0.202,0.401-0.519,1.18c-0.315,0.779-0.743,1.937-1.157,3.446
				c-0.399,1.508-0.785,3.385-0.807,5.55c-0.018,2.145,0.374,4.642,1.77,6.872c1.339,2.29,3.972,3.716,6.694,5.053
				c2.768,1.301,5.792,2.472,8.967,3.546c6.351,2.159,13.299,3.94,20.273,5.566c3.492,0.796,7.001,1.52,10.471,2.132
				c1.735,0.307,3.46,0.585,5.168,0.821c1.708,0.246,3.396,0.443,5.062,0.532c3.333,0.182,6.58,0.07,9.646-0.143
				c3.066-0.243,5.962-0.542,8.625-0.91c5.333-0.683,9.747-1.494,12.83-2.083C348.569,188.047,350.32,187.654,350.32,187.654z"/>
		</g>
		<g>
			<path fill="#7B5340" d="M267.007,196.62c0,0-0.893-0.229-2.439-0.693c-1.544-0.467-3.748-1.152-6.345-2.109
				c-2.596-0.956-5.601-2.15-8.731-3.628c-1.562-0.744-3.169-1.532-4.755-2.42c-1.6-0.863-3.173-1.836-4.716-2.853
				c-1.523-1.045-3.008-2.153-4.368-3.365c-0.684-0.602-1.348-1.213-1.953-1.871c-0.643-0.622-1.183-1.322-1.738-1.988
				c-0.537-0.68-1.001-1.402-1.454-2.102c-0.373-0.748-0.84-1.43-1.088-2.192c-0.145-0.371-0.288-0.736-0.429-1.097
				c-0.113-0.37-0.188-0.745-0.281-1.107c-0.22-0.721-0.26-1.447-0.324-2.139c-0.091-1.384,0.041-2.667,0.317-3.758
				c0.059-0.275,0.116-0.542,0.171-0.799c0.09-0.248,0.177-0.486,0.26-0.715c0.168-0.457,0.323-0.876,0.462-1.256
				c0.343-0.729,0.661-1.281,0.854-1.667c0.201-0.383,0.308-0.587,0.308-0.587s-0.104,0.206-0.298,0.592
				c-0.188,0.389-0.495,0.945-0.826,1.678c-0.133,0.38-0.28,0.801-0.44,1.26c-0.079,0.229-0.162,0.467-0.247,0.715
				c-0.051,0.257-0.103,0.523-0.157,0.798c-0.09,0.552-0.274,1.127-0.261,1.76c-0.004,0.626-0.127,1.287-0.01,1.97
				c0.068,0.685,0.11,1.402,0.333,2.114c0.094,0.358,0.17,0.729,0.284,1.094c0.142,0.356,0.286,0.717,0.431,1.083
				c0.249,0.752,0.717,1.426,1.09,2.164c0.453,0.69,0.916,1.403,1.453,2.075c0.555,0.658,1.094,1.35,1.736,1.963
				c0.604,0.65,1.269,1.253,1.951,1.848c1.357,1.198,2.842,2.29,4.363,3.323c1.53,1.021,3.092,1.999,4.682,2.868
				c1.577,0.895,3.175,1.69,4.73,2.441c3.116,1.492,6.109,2.702,8.697,3.672C263.446,195.639,267.007,196.62,267.007,196.62z"/>
		</g>
		<polygon fill="#7B5340" points="254.186,157.069 246.3,162.548 252.003,167.31 		"/>
		<polygon fill="#7B5340" points="252.57,168.898 255.765,175.6 250.246,175.6 		"/>
		<polygon fill="#7B5340" points="258.593,178.445 267.007,184.752 258.593,184.752 		"/>
		<polygon fill="#7B5340" points="271.834,186.359 281.606,188.88 274.671,192.17 		"/>
		<polygon fill="#7B5340" points="284.127,190.26 294.847,191.445 287.596,196.62 		"/>
		<polygon fill="#7B5340" points="302.093,193.442 312.388,193.442 304.963,196.62 		"/>
		<polygon fill="#7B5340" points="225.729,164.611 225.729,168.898 222.034,166.75 		"/>
		<polygon fill="#7B5340" points="225.729,172.242 228.389,175.6 223.882,175.6 		"/>
		<polygon fill="#7B5340" points="229.597,178.445 233.062,182.578 229.597,182.578 		"/>
		<polygon fill="#7B5340" points="235.116,183.521 239.525,186.359 235.899,186.359 		"/>
		<polygon fill="#7B5340" points="241.575,187.622 245.36,190.26 241.575,190.26 		"/>
		<polygon fill="#7B5340" points="249.299,191.445 253.007,193.442 249.299,192.446 		"/>
	</g>
	<g>
		<path fill="#3C2713" d="M523.629,290.497c1.786-41.923,6.984-90.562,8.764-132.489c0.689-16.113,1.236-32.954-5.586-47.576
			c-5.942-12.747-17.043-22.532-29.36-29.323c-12.32-6.792-25.909-10.881-39.418-14.801c-10.308-2.997-20.839-5.956-31.568-5.571
			c-10.728,0.385-21.858,4.646-27.962,13.478c-6.104,8.831-5.359,22.558,3.294,28.905c-12.207-3.309-24.888-4.917-37.545-4.755
			c-5.613,0.076-11.67,0.676-15.885,4.383c-5.8,5.09-5.888,14.507-2.296,21.341c3.581,6.836,9.954,11.699,16.128,16.331
			c-10.957,0.473-24.045,2.291-28.709,12.216c-2.355,5.027-1.782,10.885-1.157,16.405c2.384,21.017,1.245,31.547,3.628,52.561
			c0.702,6.232-1.957,23.219,2.423,27.698c4.449,4.553,18.384,5.819,24.709,6.61c52.68,6.62,101.754,24.751,154.432,31.369"/>
		<path fill="#F4F3F3" d="M627.847,595.811c0,0-62.629-183.998-224.756-182.983c-162.123,1.021-220.144,182.983-220.144,182.983
			H627.847z"/>
		<path fill="#D1966C" d="M530.619,182.284c3.157,28.759,3.582,63.892,2.164,95.18c-1.979,43.483-24.778,86.367-67.607,94.152
			l-7.042,1.28l7.717,51.791l-119.344-2.047L345.7,303.633c0,0-29.417,5.474-46.188-21.275
			c-18.215-29.059-6.071-82.077,20.814-57.819c31.492,28.419,38.295,28.098,38.295,28.098c5.443-36.761-15.333-111.1,71.241-129.987
			C473.338,113.158,525.758,138.046,530.619,182.284z"/>
		<g>
			<path fill="#AB7C59" d="M335.957,275.174c-0.151-0.534-3.556,0.607-8.935-0.067c-5.273-0.566-12.663-3.678-16.732-10.787
				c-3.28-5.473-3.98-12.139-2.453-16.33c1.604-4.414,6.333-4.055,7.344-2.794l0.61-0.814c-1.116-0.31-1.677-0.373-1.756-0.206
				c-0.072,0.167,0.355,0.545,1.333,1.163l1.646,1.023l-1.031-1.837c-0.547-0.98-2.207-2.167-4.437-2.026
				c-2.186-0.022-4.938,1.653-6.151,4.383c-2.397,5.374-1.71,12.717,2.026,19.142c4.711,8.234,13.639,11.5,19.43,11.432
				C332.861,277.55,336.136,275.482,335.957,275.174z"/>
		</g>
		<g>
			<path fill="#AB7C59" d="M305.026,256.515c0.571,0.743,3.668-0.66,7.52,0.116c3.877,0.6,6.298,2.99,7.094,2.495
				c0.36-0.239,0.205-1.329-0.864-2.644c-1.047-1.311-3.093-2.683-5.65-3.134c-2.548-0.457-4.942,0.122-6.374,0.988
				C305.288,255.2,304.771,256.171,305.026,256.515z"/>
		</g>
		<path fill="#F0A67B" d="M469.785,324.306"/>
		<g>
			<path fill="#AB7C59" d="M419.364,366.703c-0.445,0.777,2.517,3.166,7.009,3.754c4.487,0.61,7.967-0.918,7.747-1.79
				c-0.193-0.924-3.467-0.974-7.307-1.512C422.967,366.666,419.793,365.858,419.364,366.703z"/>
		</g>
		<path fill="#FFFFFF" d="M428.123,249.299c0,0,3.86-22.588-20.292-28.353c-20.282-4.844-27.551,17.912-27.551,17.912
			L428.123,249.299z"/>
		<path fill="#3C2713" d="M410.168,221.601l-8.925,21.837l26.879,5.861C428.123,249.299,431.029,226.78,410.168,221.601z"/>
		<path fill="#FFFFFF" d="M517.522,241.845c0,0-6.37-22.02-30.611-16.687c-20.371,4.473-17.002,28.126-17.002,28.126
			L517.522,241.845z"/>
		<path fill="#3C2713" d="M489.292,224.731l1.479,23.54l26.75-6.426C517.522,241.845,510.326,220.307,489.292,224.731z"/>
		<path fill="#3C2713" d="M533.554,268.645c0,0-5.717,138.737-89.702,140.421c-83.971,1.695-98.152-105.434-98.152-105.434
			l-9.743-65.623l20.223,5.428c0,0,22.068,51.122,91.889,52.843C525.328,298.189,533.554,268.645,533.554,268.645z"/>
		<g>
			<path fill="#AB7C59" d="M448.069,290.497c0,0.3,3.48,0.694,9.388-0.139c5.852-0.832,14.186-3.108,22.687-8.405l2.812-1.758
				l-3.193-1.009c-6.094-1.938-12.574-3.999-19.372-6.153c-1.739-0.544-3.462-1.078-5.164-1.603
				c-0.761-0.31-0.732-0.353-0.781-0.511c-0.085-0.265,0.058-1.182,0.188-2.039c0.501-3.414,1.071-6.698,1.668-9.814
				c1.221-6.224,2.58-11.784,3.836-16.427c2.534-9.281,4.512-14.937,4.046-15.123c-0.388-0.154-3.157,5.21-6.299,14.433
				c-1.57,4.613-3.185,10.195-4.591,16.492c-0.692,3.147-1.334,6.475-1.892,9.944c-0.087,0.851-0.413,1.691-0.185,3.184
				c0.24,1.687,1.997,2.764,2.908,2.986c1.737,0.547,3.493,1.099,5.276,1.658c6.821,2.077,13.334,4.061,19.446,5.916l-0.38-2.769
				C462.337,289.86,447.82,289.578,448.069,290.497z"/>
		</g>
		<g>
			<path fill="#3C2713" d="M377.751,207.238c1.646,4.319,12.029,4.368,23.488,1.012c11.449-3.378,20.154-9.049,19.197-13.573
				c-0.945-4.486-11.762-6.009-23.909-2.428C384.386,195.814,376.116,202.952,377.751,207.238z"/>
		</g>
		<g>
			<path fill="#3C2713" d="M520.167,207.238c-1.643,4.319-12.029,4.368-23.486,1.012c-11.447-3.378-20.152-9.049-19.194-13.573
				c0.944-4.486,11.758-6.009,23.907-2.428C513.535,195.814,521.804,202.952,520.167,207.238z"/>
		</g>
		<path fill="#FFFFFF" d="M469.785,315.644c-10.771,4.208-22.881,4.919-34.068,2c-11.188-2.924-21.409-9.458-28.749-18.395"/>
		<g>
			<path fill="#3C2713" d="M498.963,363.797c-0.583,0.709,2.585,4.26,7.077,7.934c4.497,3.676,8.606,6.073,9.191,5.361
				c0.576-0.711-2.585-4.265-7.083-7.942C503.656,365.479,499.542,363.084,498.963,363.797z"/>
		</g>
		<g>
			<path fill="#3C2713" d="M497.674,372.336c-0.737,0.555,0.696,3.701,3.188,7.034c2.5,3.33,5.123,5.584,5.862,5.032
				c0.739-0.555-0.692-3.703-3.196-7.036C501.036,374.038,498.414,371.786,497.674,372.336z"/>
		</g>
		<g>
			<path fill="#3C2713" d="M346.328,330.847c0.422,0.819,3.608,0.007,7.117-1.818c3.499-1.819,5.997-3.957,5.576-4.774
				c-0.427-0.817-3.614-0.004-7.118,1.819C348.401,327.893,345.901,330.025,346.328,330.847z"/>
		</g>
		<g>
			<path fill="#3C2713" d="M338.412,328.891c0.367,0.817,5.075-0.583,9.767-4.233c4.714-3.629,7.258-7.826,6.566-8.389
				c-0.725-0.61-4.199,2.373-8.603,5.753C341.767,325.425,338.001,328.041,338.412,328.891z"/>
		</g>
		<g>
			<path fill="#3C2713" d="M371.081,77.289c-0.138,0.136,0.452,1.22,2.236,2.598c0.895,0.626,2.147,1.498,4.109,1.395
				c2.013-0.016,4.022-2.318,3.746-4.754c-0.039-2.481-2.202-4.75-4.542-5.598c-2.322-0.954-5.086-1.233-7.843-0.627
				c-2.7,0.577-5.759,2.203-7.188,5.426c-1.425,3.241-0.331,6.954,1.389,9.524c7.409,10.005,17.714,14.613,25.173,16.527
				c7.575,1.869,12.437,1.13,12.408,0.786c0.029-0.568-4.708-0.696-11.749-3.05c-6.86-2.28-16.549-7.291-23.018-16.056
				c-1.424-2.182-1.999-4.558-1.195-6.464c0.77-1.88,2.778-3.185,4.886-3.703c4.155-1.115,9.125,0.57,9.324,3.438
				c0.221,1.433-0.581,2.5-1.651,2.705c-1.08,0.225-2.299-0.229-3.175-0.658C372.192,77.869,371.258,77.097,371.081,77.289z"/>
		</g>
		<g>
			<path fill="#3C2713" d="M556.263,156.773c-0.178-0.187-1.017,0.814-2.739,0.375c-0.832-0.228-1.648-0.822-1.895-1.914
				c-0.266-1.055,0.06-2.521,1.065-3.48c1.795-1.987,7.447-2.562,8.67,0.726c0.647,1.591,0.276,3.955-0.855,5.781
				c-1.178,1.895-3.104,3.469-5.366,4.445c-4.596,1.963-9.914,1.513-13.958-0.157c-4.164-1.726-7.384-4.528-9.872-7.02
				c-4.909-5.141-7.438-8.962-7.884-8.65c-0.314,0.197,1.447,4.412,6.139,10.239c2.395,2.826,5.686,6.091,10.387,8.247
				c4.695,2.107,10.79,2.806,16.51,0.401c2.818-1.222,5.297-3.227,6.847-5.818c1.5-2.633,2.095-5.779,0.881-8.684
				c-1.284-3.057-4.708-4.125-7.047-3.894c-2.438,0.146-4.729,1.095-6.195,2.797c-1.48,1.736-1.729,3.977-1.092,5.648
				c0.624,1.753,2.322,2.597,3.472,2.613C555.886,158.509,556.5,156.749,556.263,156.773z"/>
		</g>
		<g>
			<path fill="#583B23" d="M450.688,340.551c0.066-0.199-2.197-1.326-6.546-2.768c-4.332-1.334-10.927-3.257-19.341-2.394
				c-4.161,0.452-8.775,1.875-12.921,4.708c-4.126,2.779-8.024,7.069-9.547,12.766c-1.637,5.678-0.115,12.26,3.623,17.265
				c3.657,5.122,9.796,8.641,16.31,9.486c6.546,0.876,13.033-0.396,18.546-3.273c5.413-2.752,10.218-8.333,9.707-14.718
				c-0.509-6.204-4.833-10.76-9.403-12.999c-4.723-2.272-9.955-2.14-13.965-0.156c-4.105,2.003-6.251,6.176-6.193,9.707
				c-0.064,3.671,2.37,6.447,4.614,7.328c2.254,1.021,4.293,0.81,5.453,0.338c1.185-0.482,1.611-1.027,1.556-1.091
				c-0.024-0.334-2.531,1.668-6.424-0.403c-1.85-0.967-3.527-3.2-3.335-6.134c0.127-2.867,1.997-6.148,5.355-7.622
				c3.3-1.511,7.869-1.496,11.704,0.509c3.826,1.952,7.311,5.998,7.562,10.71c0.343,4.725-3.329,9.197-8.17,11.653
				c-4.837,2.49-10.785,3.635-16.54,2.846c-11.733-1.167-20.16-13.016-17.42-22.67c1.185-4.789,4.478-8.672,8.14-11.269
				c3.708-2.662,7.8-4.077,11.66-4.639c7.809-1.115,14.322,0.357,18.682,1.305C448.181,340.068,450.609,340.789,450.688,340.551z"/>
		</g>
		<g>
			<path fill="#583B23" d="M439.394,77.703c0.058-0.053-0.259-0.596-1.341-0.974c-1.047-0.335-2.93-0.305-4.651,1.104
				c-1.835,1.327-2.624,4.617-1.268,7.434c1.212,2.93,4.518,5.107,8.111,5.832c3.607,0.764,7.568,0.89,11.801,0.292
				c4.113-0.793,8.821-1.495,12.756-5.401c1.944-1.981,2.694-5.338,1.828-8.058c-0.744-2.769-2.703-5.101-4.931-6.678
				c-4.551-3.03-9.46-4.857-14.885-6.155c-5.396-1.201-11.042-1.25-16.192,0.336c-5.117,1.642-9.514,4.823-12.342,8.927
				c-2.882,4.065-3.904,9.173-3.055,13.505c0.794,4.357,2.86,7.958,5.142,10.759c4.738,5.602,9.996,8.253,13.416,10.089
				c3.509,1.758,5.524,2.541,5.631,2.346c0.118-0.214-1.709-1.386-4.98-3.472c-3.185-2.137-8.118-5.101-12.201-10.421
				c-1.997-2.654-3.713-5.986-4.271-9.741c-0.61-3.75,0.321-7.849,2.828-11.292c2.462-3.457,6.359-6.203,10.794-7.579
				c4.478-1.339,9.548-1.312,14.512-0.198c4.9,1.131,9.895,3.037,13.69,5.549c3.769,2.42,5.373,7.303,2.721,10.05
				c-2.608,2.822-7.138,3.95-10.896,4.699c-3.861,0.676-7.654,0.681-10.891,0.13c-3.227-0.543-5.791-2.111-6.9-4.332
				c-1.183-2.179-0.806-4.511,0.454-5.661C437.024,76.245,439.432,77.968,439.394,77.703z"/>
		</g>
		<path fill="#D1966C" d="M465.175,420.596c0,0-44.327,53.616-45.859,72.126c-3.04,36.697-73.258-72.997-73.258-72.997
			L465.175,420.596z"/>
		<g>
			<path fill="#583B23" d="M419.521,471.357c0.028-0.08-0.918-0.555-2.749-1.164c-1.824-0.556-4.594-1.365-8.127-1.006
				c-1.75,0.196-3.687,0.788-5.429,1.979c-1.737,1.167-3.372,2.971-4.01,5.368c-0.692,2.386-0.051,5.153,1.517,7.254
				c1.539,2.153,4.118,3.631,6.854,3.986c2.751,0.368,5.476-0.168,7.794-1.376c2.273-1.158,4.291-3.502,4.077-6.183
				c-0.214-2.608-2.028-4.524-3.95-5.463c-1.986-0.958-4.183-0.9-5.869-0.069c-1.724,0.843-2.625,2.601-2.601,4.08
				c-0.026,1.546,0.994,2.711,1.938,3.083c0.951,0.428,1.807,0.34,2.288,0.138c0.5-0.199,0.681-0.428,0.658-0.456
				c-0.011-0.143-1.063,0.703-2.704-0.168c-0.775-0.408-1.479-1.35-1.396-2.584c0.056-1.201,0.837-2.58,2.248-3.194
				c1.389-0.634,3.306-0.626,4.918,0.211c1.607,0.823,3.078,2.521,3.177,4.5c0.147,1.986-1.397,3.867-3.43,4.897
				c-2.031,1.041-4.535,1.527-6.951,1.193c-4.928-0.488-8.47-5.466-7.321-9.526c0.498-2.013,1.882-3.642,3.421-4.734
				c1.555-1.12,3.277-1.711,4.892-1.954c3.289-0.463,6.029,0.155,7.859,0.552C418.467,471.157,419.491,471.46,419.521,471.357z"/>
		</g>
		<g>
			<path fill="#979696" d="M419.521,500.109c1.382-4.171,3.151-8.218,5.28-12.077c1.072-1.925,2.256-3.797,3.624-5.54
				c1.364-1.74,2.899-3.38,4.738-4.675c0.917-0.645,1.916-1.194,2.989-1.575c0.537-0.187,1.09-0.335,1.655-0.431
				c0.562-0.081,1.087-0.162,1.658-0.208c2.231-0.219,4.475-0.095,6.672,0.279c2.199,0.37,4.35,0.985,6.422,1.793
				c1.036,0.405,2.055,0.853,3.049,1.354c0.998,0.503,1.961,1.033,2.917,1.665l-0.75,0.33c0.603-4.704,1.259-9.401,1.91-14.099
				l1.955-14.093l2.05-14.08l1.066-7.035l1.093-7.031l-0.807,7.069l-0.833,7.066l-1.749,14.121l-1.844,14.108
				c-0.615,4.703-1.226,9.406-1.889,14.102l-0.107,0.762l-0.643-0.432c-0.872-0.586-1.832-1.126-2.792-1.617
				c-0.964-0.494-1.955-0.937-2.961-1.339c-2.014-0.801-4.104-1.414-6.235-1.788c-2.128-0.374-4.306-0.507-6.453-0.353
				c-0.525,0.03-1.088,0.104-1.614,0.169c-0.52,0.078-1.033,0.207-1.536,0.372c-1.004,0.337-1.958,0.838-2.846,1.44
				c-1.781,1.208-3.312,2.783-4.682,4.471c-1.368,1.696-2.582,3.521-3.705,5.397c-1.118,1.882-2.134,3.827-3.068,5.811
				C421.16,496.034,420.283,498.048,419.521,500.109z"/>
		</g>
		<g>
			<path fill="#979696" d="M409.225,504.318c-1.523-2.704-3.164-5.341-4.881-7.924c-1.722-2.58-3.529-5.103-5.469-7.518
				c-1.938-2.414-4.01-4.727-6.308-6.781c-1.15-1.022-2.365-1.977-3.676-2.76c-1.306-0.779-2.722-1.413-4.205-1.597
				c-1.477-0.202-2.989,0.152-4.192,1.019c-1.263,0.891-2.422,1.872-3.544,2.933c-2.234,2.115-4.232,4.479-6.075,6.954
				c-1.843,2.476-3.552,5.054-5.135,7.708c-1.581,2.652-3.067,5.379-4.386,8.155l-0.599,1.261l-0.255-1.369l-3.801-20.385
				l-3.723-20.399c-0.629-3.397-1.221-6.81-1.812-10.212c-0.598-3.404-1.154-6.815-1.676-10.235
				c-0.516-3.419-1.097-6.829-1.556-10.255l-1.426-10.272l3.636,20.415c0.308,1.7,0.59,3.403,0.918,5.1l0.949,5.097l1.871,10.195
				l3.794,20.388l3.715,20.402l-0.854-0.108c1.355-2.826,2.854-5.55,4.46-8.225c1.611-2.667,3.329-5.275,5.224-7.756
				c1.89-2.482,3.939-4.856,6.238-6.986c1.144-1.059,2.372-2.074,3.656-2.958c1.333-0.945,3.056-1.325,4.655-1.083
				c1.609,0.219,3.082,0.907,4.422,1.725c1.346,0.824,2.572,1.812,3.729,2.861c2.314,2.106,4.336,4.492,6.242,6.947
				c1.901,2.463,3.663,5.026,5.337,7.642C406.164,498.916,407.754,501.585,409.225,504.318z"/>
		</g>
	</g>
	<g>
		<path fill="#F7E2C0" d="M327.199,165.383c33.208,12.44,71.767,21.874,107.338,18.773c17.566-1.532,34.663-6.042,51.997-13.213
			c17.292-7.166,38.02-13.722,54.634-25.757c0.879-0.637,0.866-1.675,0.267-2.098c0.041-0.299,0.052-0.613-0.021-0.95
			c-6.555-30.758-27.77-59.671-49.949-81.045c-10.39-10.013-22.355-19.046-37.094-16.4c-15.259,2.746-22.606-0.393-39.438,2.573
			c-11.552,2.035-22.949,1.799-34.99,4.629c-12.581,2.953-21.663,14.623-28.448,26.444c-14.122,24.643-21.989,54.527-17.82,82.215
			c-1.857-0.445-3.713-0.887-5.573-1.315C324.43,158.4,323.666,164.054,327.199,165.383z"/>
		<path fill="#7B5340" d="M434.629,157.359c20.355-0.377,40.989-4.764,60.851-9.136c11.417-2.514,33.246-9.367,44.125-13.243
			c6.017,10.892,0.63,2.68,1.809,7.159c0.09,0.333,0.062,0.65,0.021,0.95c0.599,0.422,0.612,1.46-0.267,2.098
			c-16.615,12.035-37.342,18.591-54.634,25.757c-6.962,2.878-13.885,5.306-20.814,7.309c-3.838,0.047-7.659,0.03-11.443-0.056
			c-19.272-0.432-38.51-2.591-57.7-4.291c-18.088-1.612-37.1-1.76-54.641-6.846c-5.684-1.646-10.775-4.344-15.187-7.809
			c0.395-0.108,0.842-0.127,1.353-0.01c1.859,0.428,3.972,9.177,5.827,9.624c-1.643-10.903-1.678,2.919-1.357-17.963
			C363.951,160.799,401.511,157.979,434.629,157.359z"/>
		<path opacity="0.5" fill="#F6DEBB" d="M327.199,165.383c33.208,12.44,71.767,21.874,107.338,18.773
			c17.566-1.532,34.663-6.042,51.997-13.213c17.292-7.166,38.02-13.722,54.634-25.757c0.879-0.637,0.866-1.675,0.267-2.098
			c0.041-0.299,0.052-0.613-0.021-0.95c-6.555-30.758-27.77-59.671-49.949-81.045c-10.39-10.013-22.355-19.046-37.094-16.4
			c-15.259,2.746-24.05,2.766-39.438,2.573c-11.725-0.147-22.949,1.799-34.99,4.629c-12.581,2.953-21.663,14.623-28.448,26.444
			c-14.122,24.643-21.989,54.527-17.82,82.215c-1.857-0.445-3.713-0.887-5.573-1.315C324.43,158.4,323.666,164.054,327.199,165.383z
			"/>
		<path fill="#F7E2C0" d="M218.219,165.708c36.519-19.621,74.406-5.878,108.964,11.179c33.194,16.382,66.515,29.893,103.943,28.176
			c35.037-1.602,67.442-14.169,98.344-30.847c15.435-8.337,30.569-17.252,45.963-25.66c8.188-4.476,16.438-8.845,24.84-12.86
			c9.874-4.718,24.319-12.862,32.984-0.948c1.03,1.42,3.806,0.649,3.031-1.337c-1.278-3.294-3.024-5.676-5.077-7.378
			c-0.923-0.617-1.815-1.366-2.64-2.011c-28.248-11.292-61.077,3.108-87.872,12.399c-32.986,11.441-67.165,19.355-101.851,22.299
			c-35.207,2.983-70.165,1.379-105.089-4.027c-17.261-2.671-34.58-5.849-52.023-6.986c-10.599-0.692-22.265-1.228-33.22,0.618
			c-11.745,1.469-22.916,5.809-32.541,14.34C214.299,164.16,216.438,166.667,218.219,165.708z"/>
		<path opacity="0.5" fill="#F6DEBB" d="M248.518,148.325c10.955-1.846,22.621-1.31,33.22-0.618
			c17.443,1.137,34.762,4.315,52.023,6.986c34.924,5.406,69.882,7.01,105.089,4.027c34.686-2.944,68.864-10.857,101.851-22.299
			c25.632-8.892,56.792-22.436,84.173-13.706c-20.26,0.984-38.171,5.378-56.671,14.467c-18.116,8.906-34.799,20.506-52.608,29.997
			c-33.741,17.983-74.137,27.022-112.326,24.398c-2.479-0.172-4.16-3.967-1.405-5.189c8.419-3.726,16.932-7.369,25.515-10.881
			c-26.558,1.234-54.365-4.807-79.024-10.664c-26.231-6.229-52.345-13.156-79.406-14.342c-15.294-0.674-29.456,1.216-43.218,5.23
			C232.865,151.682,240.552,149.322,248.518,148.325z"/>
	</g>
	<g>
		<path fill="#7B5340" d="M333.47,140.376c0,0,0.787,0.053,2.263,0.153c1.476,0.1,3.642,0.222,6.4,0.352
			c2.757,0.156,6.109,0.242,9.952,0.395c3.845,0.064,8.182,0.238,12.915,0.242c2.367,0.017,4.832,0.034,7.383,0.053
			c2.551-0.022,5.188-0.046,7.9-0.07c5.424-0.006,11.139-0.234,17.053-0.392c2.958-0.054,5.959-0.27,9-0.401
			c3.04-0.162,6.119-0.283,9.218-0.482c3.098-0.227,6.22-0.455,9.354-0.685c3.135-0.222,6.282-0.446,9.419-0.791
			c6.278-0.634,12.571-1.131,18.724-1.992c3.081-0.389,6.138-0.775,9.158-1.157c1.513-0.171,3.006-0.414,4.489-0.655
			c1.483-0.237,2.956-0.473,4.416-0.706c2.921-0.467,5.793-0.926,8.604-1.375c1.41-0.204,2.79-0.485,4.153-0.759
			c1.365-0.271,2.713-0.538,4.042-0.801c2.66-0.527,5.247-1.04,7.75-1.536c1.25-0.258,2.486-0.47,3.685-0.753
			c1.196-0.29,2.37-0.575,3.52-0.854c4.6-1.116,8.816-2.14,12.553-3.046c3.709-1.011,6.91-2.014,9.563-2.778
			c5.297-1.562,8.324-2.454,8.324-2.454s-3.024,0.9-8.317,2.475c-2.651,0.77-5.851,1.781-9.558,2.802
			c-3.735,0.917-7.95,1.95-12.547,3.078c-1.149,0.282-2.323,0.57-3.519,0.863c-1.198,0.286-2.435,0.501-3.683,0.762
			c-2.502,0.502-5.089,1.021-7.748,1.556c-1.33,0.267-2.677,0.538-4.042,0.812c-1.364,0.277-2.743,0.562-4.152,0.77
			c-2.811,0.456-5.683,0.922-8.604,1.396c-1.46,0.237-2.933,0.477-4.416,0.717c-1.482,0.245-2.976,0.492-4.489,0.667
			c-3.02,0.389-6.077,0.783-9.158,1.18c-6.154,0.875-12.447,1.391-18.727,2.038c-3.139,0.336-6.288,0.553-9.424,0.768
			c-3.136,0.222-6.259,0.443-9.358,0.662c-3.101,0.191-6.181,0.305-9.222,0.459c-3.042,0.124-6.045,0.332-9.003,0.379
			c-5.916,0.143-11.633,0.357-17.058,0.35c-2.712,0.017-5.35,0.034-7.902,0.05c-2.551-0.024-5.017-0.048-7.383-0.071
			c-4.734-0.015-9.071-0.2-12.916-0.273c-3.842-0.162-7.194-0.257-9.951-0.419c-2.758-0.137-4.923-0.265-6.399-0.368
			C334.257,140.431,333.47,140.376,333.47,140.376z"/>
	</g>
	<g>
		<path fill="#7B5340" d="M336.681,114.492c0,0,11.504,1.712,28.899,2.832c4.346,0.294,9.061,0.529,14.048,0.73
			c4.988,0.171,10.25,0.333,15.695,0.353c5.445,0.057,11.072-0.016,16.787-0.144c5.714-0.175,11.519-0.397,17.313-0.786l4.346-0.273
			c1.446-0.115,2.89-0.23,4.332-0.345c2.885-0.211,5.751-0.499,8.595-0.787c5.688-0.57,11.271-1.279,16.659-2.064
			c5.386-0.796,10.576-1.676,15.475-2.634c2.458-0.435,4.823-0.989,7.12-1.473c1.147-0.25,2.275-0.495,3.382-0.736
			c1.101-0.269,2.181-0.533,3.238-0.791c4.245-0.984,8.082-2.095,11.496-3.029c3.395-0.999,6.334-1.94,8.762-2.691
			c4.802-1.666,7.546-2.617,7.546-2.617s-2.742,0.959-7.54,2.637c-2.426,0.757-5.363,1.707-8.756,2.715
			c-3.412,0.944-7.247,2.064-11.49,3.061c-1.057,0.261-2.137,0.528-3.237,0.8c-1.106,0.244-2.234,0.493-3.381,0.745
			c-2.297,0.491-4.661,1.051-7.119,1.492c-4.897,0.972-10.087,1.867-15.474,2.678c-5.388,0.799-10.971,1.524-16.661,2.11
			c-2.844,0.295-5.712,0.591-8.598,0.81c-1.442,0.119-2.887,0.237-4.333,0.356l-4.347,0.284c-5.799,0.374-11.606,0.58-17.323,0.74
			c-5.718,0.112-11.347,0.17-16.793,0.099c-5.447-0.035-10.71-0.21-15.699-0.395c-4.988-0.215-9.702-0.462-14.048-0.768
			C348.18,116.235,336.681,114.492,336.681,114.492z"/>
	</g>
	<g>
		<path fill="#7B5340" d="M342.761,93.686c0,0,2.585,0.171,7.114,0.337c4.529,0.186,11.002,0.355,18.772,0.417
			c3.885,0.004,8.094,0.045,12.544-0.041c2.226-0.033,4.511-0.066,6.848-0.1c2.336-0.071,4.722-0.143,7.149-0.215
			c4.855-0.1,9.863-0.438,14.957-0.662c5.089-0.303,10.254-0.692,15.418-1.079c2.578-0.239,5.157-0.478,7.725-0.716
			c2.567-0.247,5.13-0.441,7.658-0.78c2.53-0.306,5.041-0.61,7.521-0.91c1.24-0.15,2.473-0.299,3.697-0.447
			c1.219-0.186,2.429-0.37,3.629-0.552c2.399-0.369,4.759-0.732,7.068-1.088c1.155-0.178,2.297-0.353,3.426-0.527
			c1.121-0.216,2.229-0.429,3.322-0.639c2.185-0.421,4.311-0.83,6.367-1.226c2.053-0.413,4.053-0.731,5.934-1.222
			c3.778-0.901,7.242-1.728,10.312-2.46c1.544-0.333,2.95-0.789,4.262-1.168c1.311-0.386,2.514-0.74,3.601-1.06
			c4.348-1.28,6.833-2.011,6.833-2.011s-2.482,0.739-6.827,2.032c-1.086,0.323-2.289,0.681-3.598,1.071
			c-1.311,0.383-2.716,0.843-4.259,1.181c-3.069,0.742-6.531,1.579-10.308,2.492c-1.879,0.497-3.879,0.822-5.932,1.241
			c-2.056,0.402-4.181,0.818-6.365,1.245c-1.093,0.213-2.2,0.43-3.321,0.649c-1.128,0.177-2.27,0.356-3.425,0.538
			c-2.31,0.363-4.668,0.733-7.068,1.109c-1.2,0.187-2.41,0.375-3.628,0.564c-1.224,0.151-2.457,0.305-3.697,0.458
			c-2.481,0.308-4.991,0.619-7.522,0.933c-2.528,0.346-5.091,0.548-7.659,0.803c-2.569,0.246-5.148,0.492-7.727,0.738
			c-5.167,0.372-10.336,0.746-15.428,1.033c-5.096,0.209-10.106,0.532-14.963,0.617c-2.427,0.066-4.814,0.131-7.151,0.194
			c-2.337,0.027-4.624,0.054-6.85,0.08c-4.452,0.073-8.661,0.019-12.546,0.003c-7.771-0.084-14.244-0.273-18.772-0.473
			C345.345,93.865,342.761,93.687,342.761,93.686z"/>
	</g>
	<g>
		<path fill="#7B5340" d="M350.32,80.446c0,0,2.161-0.344,5.942-0.947c3.785-0.585,9.191-1.422,15.678-2.425
			c6.495-0.954,14.072-2.068,22.191-3.261c8.122-1.169,16.792-2.371,25.469-3.524c4.337-0.586,8.684-1.101,12.958-1.645
			c4.278-0.507,8.489-1.006,12.563-1.49c4.08-0.439,8.023-0.863,11.763-1.266c3.746-0.346,7.287-0.674,10.555-0.976
			c3.275-0.226,6.277-0.434,8.938-0.618c2.666-0.09,4.99-0.168,6.904-0.232c1.914-0.011,3.418,0.088,4.443,0.105
			c1.025,0.033,1.572,0.05,1.572,0.05s-0.547-0.014-1.572-0.039c-1.025-0.01-2.529-0.098-4.442-0.074
			c-1.913,0.078-4.235,0.172-6.899,0.28c-2.659,0.197-5.659,0.419-8.932,0.662c-3.267,0.31-6.807,0.646-10.55,1.001
			c-3.738,0.411-7.68,0.845-11.757,1.294c-4.073,0.493-8.282,1.002-12.558,1.52c-4.272,0.552-8.612,1.113-12.952,1.674
			c-8.679,1.133-17.351,2.313-25.476,3.463c-8.121,1.173-15.701,2.269-22.197,3.208C358.977,79.15,350.32,80.446,350.32,80.446z"/>
	</g>
	<path fill="#7B5340" d="M420.506,142.887c-3.232,0.513,0,13.071,0,13.071s35.727-0.335,42.343-3.641
		c6.623-3.313-2.359-14.188-2.359-14.188S428.527,141.624,420.506,142.887z"/>
	<path fill="#7B5340" d="M415.122,120.642c0,0-5.248,14.105,0.696,15.085c5.935,0.985,40.502-0.05,43.813-4.498
		c3.307-4.446,4.684-10.86-3.354-11.525C448.24,119.039,415.122,120.642,415.122,120.642z"/>
	<path fill="#7B5340" d="M412.193,97.47c0,0-3.67,12.42,2.739,16.29c6.41,3.863,38.46,0.561,42.716-2.664
		c4.255-3.229,0.948-17.648-3.309-16.585C450.084,95.575,420.671,94.511,412.193,97.47z"/>
	<path fill="#7B5340" d="M414.753,74.772c0,0-13.026,16.077-2.561,16.077c10.47,0,42.147-1.609,41.676-4.827
		c-0.477-3.213,7.561-14.569-3.181-16.368C439.953,67.851,419.136,73.352,414.753,74.772z"/>
	<path fill="#7B5340" d="M335.957,142.887v5.944c0,0,21.454,6.319,23.107,4.899c1.657-1.413,1.879-10.843,1.879-10.843
		S339.087,140.561,335.957,142.887z"/>
	<path fill="#7B5340" d="M338.38,118.518l-1.7,16.462c0,0,17.204,4.565,22.515,3.148c5.314-1.417,3.855-17.479,1.748-17.487
		C358.833,120.636,338.38,118.518,338.38,118.518z"/>
	<path fill="#7B5340" d="M342.761,111.096c0,0,17.018,7.654,20.089,3.396c3.072-4.257,6.854-16.551,2.604-16.551
		c-4.257,0-19.153-3.548-20.334-1.89C343.936,97.706,339.274,109.664,342.761,111.096z"/>
	<path fill="#7B5340" d="M351.978,82.699c0,0-5.438,6.493-4.492,8.15c0.946,1.652,19.173,2.837,19.866,0.944
		c0.699-1.891,0-11.724,0-11.724S355.286,80.934,351.978,82.699z"/>
	<path fill="#7B5340" d="M532.782,122.789c0,0-7.526,1.461-12.408,3.514c-4.882,2.055-3.626,12.374,0,12.1
		c3.63-0.274,16.234-5.004,16.234-5.004S536.83,126.36,532.782,122.789z"/>
	<path fill="#7B5340" d="M522.548,103c0,0,9.924,12.219,7.261,15.519c-2.658,3.299-16.84,4.271-16.84,4.271
		s-10.091-8.637-4.728-13.512C513.6,104.399,522.548,103,522.548,103z"/>
	<path fill="#7B5340" d="M506.67,80.446c0,0,13.522,13.496,10.856,16.206c-2.668,2.706-18.632,6.348-18.632,6.348
		s-10.137-11.599-5.282-15.344C498.471,83.914,506.67,80.446,506.67,80.446z"/>
	<path fill="#7B5340" d="M492.296,64.217c0,0,11.639,10.553,11.113,10.869c-0.528,0.319-16.288,7.759-17.866,4.984
		c-1.575-2.777-8.82-8.69-4.091-10.777C486.177,67.206,492.296,64.217,492.296,64.217z"/>
	<path fill="none" stroke="#7B5340" stroke-miterlimit="10" d="M611.737,131.984"/>
	<g>
		<g>
			<path fill="#7B5340" d="M606.185,131.229c0,0,0.26,0.345,0.652,1.053c0.391,0.707,0.917,1.78,1.354,3.232
				c0.448,1.446,0.788,3.277,0.792,5.399c0.013,2.119-0.396,4.52-1.302,6.974c-1.843,4.917-5.759,9.844-10.811,13.928
				c-2.521,2.056-5.288,3.973-8.204,5.736c-2.969,1.689-5.906,3.44-9.034,4.959c-1.543,0.786-3.093,1.557-4.674,2.235
				c-1.578,0.685-3.116,1.447-4.704,2.058c-1.579,0.63-3.146,1.255-4.693,1.873c-1.568,0.563-3.117,1.119-4.641,1.667
				c-3.069,1.03-6.059,1.956-8.926,2.72c-1.424,0.417-2.831,0.738-4.185,1.077c-1.351,0.348-2.668,0.636-3.934,0.906
				c-1.263,0.282-2.476,0.539-3.638,0.741c-1.16,0.214-2.258,0.42-3.298,0.575c-2.074,0.343-3.89,0.582-5.387,0.766
				c-2.996,0.357-4.719,0.427-4.719,0.427s1.716-0.159,4.693-0.62c1.488-0.232,3.292-0.53,5.348-0.939
				c1.031-0.188,2.12-0.429,3.269-0.68c1.151-0.239,2.356-0.509,3.608-0.818c1.255-0.293,2.561-0.607,3.9-0.98
				c1.341-0.365,2.735-0.713,4.145-1.156c2.838-0.817,5.79-1.809,8.841-2.837c1.512-0.554,3.048-1.118,4.604-1.688
				c1.535-0.624,3.087-1.256,4.653-1.893c1.573-0.618,3.097-1.385,4.661-2.076c0.774-0.361,1.564-0.696,2.329-1.081l2.29-1.164
				c3.083-1.469,6.08-3.228,9.014-4.871c2.896-1.726,5.64-3.601,8.136-5.609c2.487-2.016,4.74-4.157,6.588-6.43
				c1.85-2.269,3.297-4.659,4.247-7.028c0.918-2.378,1.397-4.701,1.455-6.778c0.063-2.079-0.211-3.896-0.609-5.339
				c-0.39-1.448-0.852-2.542-1.214-3.261C606.43,131.585,606.185,131.229,606.185,131.229z"/>
		</g>
		<g>
			<path fill="#7B5340" d="M580.653,182.284c0,0,4.534-1.723,11.188-4.65c3.328-1.46,7.185-3.225,11.24-5.272
				c4.051-2.051,8.314-4.372,12.339-7.062c2.001-1.356,3.96-2.788,5.7-4.408c1.717-1.616,3.303-3.45,3.879-5.658
				c1.417-4.315,2.333-8.462,3.031-12.026c1.353-7.143,1.794-11.978,1.794-11.978s-0.096,1.208-0.343,3.315
				c-0.251,2.106-0.647,5.112-1.313,8.689c-0.682,3.57-1.579,7.73-2.979,12.061c-0.578,2.25-2.193,4.135-3.913,5.764
				c-1.75,1.638-3.703,3.096-5.723,4.441c-4.049,2.683-8.328,4.988-12.391,7.024c-4.067,2.032-7.934,3.783-11.27,5.229
				C585.211,180.627,580.653,182.284,580.653,182.284z"/>
		</g>
		<polygon fill="#7B5340" points="611.737,131.984 613.206,135.727 615.095,132.769 		"/>
		<polygon fill="#7B5340" points="613.417,138.41 613.417,141.624 616.67,140.017 613.417,136.87 		"/>
		<polygon fill="#7B5340" points="613.417,143.488 612.588,147.425 615.729,145.458 		"/>
		<polygon fill="#7B5340" points="611.737,149.319 610.208,152.317 613.417,151.524 		"/>
		<polygon fill="#7B5340" points="608.792,154.204 606.427,157.069 610.208,157.987 		"/>
		<polygon fill="#7B5340" points="604.062,160.274 598.863,164.131 604.062,164.131 		"/>
		<polygon fill="#7B5340" points="596.971,166.339 591.299,170.122 596.182,170.122 		"/>
		<polygon fill="#7B5340" points="587.514,171.697 581.557,174.226 585.624,175.6 		"/>
		<polygon fill="#7B5340" points="578.018,176.212 571.604,179.28 576.169,179.28 		"/>
		<polygon fill="#7B5340" points="566.533,181.235 561.532,182.803 564.839,183.678 		"/>
		<polygon fill="#7B5340" points="631.01,133.853 630.541,138.41 632.43,136.87 		"/>
		<polygon fill="#7B5340" points="629.825,140.021 628.965,143.488 632.43,141.757 		"/>
		<polygon fill="#7B5340" points="628.965,145.458 627.703,149.952 631.485,148.373 		"/>
		<polygon fill="#7B5340" points="627.703,152.317 625.97,156.629 628.965,155.309 		"/>
		<polygon fill="#7B5340" points="624.873,158.872 621.715,162.203 624.873,162.548 		"/>
		<polygon fill="#7B5340" points="619.98,164.131 615.729,167.286 619.35,167.286 		"/>
		<polygon fill="#7B5340" points="613.417,168.23 607.373,171.697 611.811,171.697 		"/>
		<polygon fill="#7B5340" points="605.239,172.957 599.651,175.6 605.239,175.6 		"/>
		<polygon fill="#7B5340" points="595.869,176.899 592.714,178.277 595.869,178.65 		"/>
	</g>
	<g>
		<path fill="#7B5340" d="M220.754,158.872c0,0,1.513-0.689,4.487-1.605c2.99-0.844,7.422-1.975,13.18-2.749
			c5.752-0.737,12.794-1.384,20.883-1.238c1.011,0.006,2.038,0.012,3.081,0.018c0.521,0.004,1.047,0.007,1.576,0.011
			c0.528,0.031,1.061,0.062,1.597,0.093c2.145,0.124,4.35,0.252,6.614,0.383c2.269,0.078,4.575,0.404,6.943,0.645
			c2.366,0.267,4.792,0.504,7.261,0.811c2.457,0.392,4.965,0.792,7.522,1.199c2.555,0.413,5.169,0.778,7.785,1.38
			c2.626,0.548,5.296,1.106,8.008,1.672c1.352,0.3,2.731,0.531,4.089,0.894c1.361,0.35,2.732,0.703,4.113,1.059
			c2.761,0.711,5.56,1.431,8.393,2.161c0.708,0.184,1.418,0.368,2.13,0.553c0.704,0.215,1.41,0.431,2.117,0.646
			c1.416,0.432,2.84,0.867,4.271,1.304c2.863,0.874,5.757,1.757,8.68,2.649c1.47,0.418,2.907,0.962,4.363,1.468
			c1.454,0.513,2.915,1.027,4.381,1.544c5.862,2.079,11.822,4.192,17.855,6.331c1.5,0.558,3.027,1.051,4.56,1.539
			c1.531,0.495,3.066,0.99,4.605,1.487c3.079,0.99,6.227,1.815,9.357,2.736c3.161,0.812,6.335,1.629,9.538,2.365
			c3.22,0.656,6.426,1.433,9.691,1.939c6.492,1.223,13.094,1.946,19.703,2.427c13.222,0.873,26.592,0.045,39.312-2.911
			c12.741-2.914,24.64-8.072,35.523-14.06c2.726-1.498,5.428-2.982,8.105-4.453c2.684-1.458,5.352-2.898,8.106-4.084
			c1.387-0.562,2.767-1.122,4.138-1.678c1.364-0.573,2.748-1.087,4.025-1.799c1.288-0.688,2.617-1.279,3.85-2.033
			c1.247-0.729,2.485-1.453,3.715-2.171c4.846-3.001,9.47-6.064,13.986-8.96c2.266-1.435,4.5-2.837,6.711-4.183
			c2.244-1.291,4.395-2.646,6.594-3.811c4.353-2.415,8.637-4.519,12.781-6.36c2.094-0.871,4.134-1.719,6.118-2.544
			c2.028-0.709,3.997-1.398,5.906-2.065c1.89-0.724,3.808-1.147,5.618-1.686c0.909-0.254,1.802-0.504,2.679-0.75
			c0.875-0.248,1.733-0.498,2.595-0.654c1.712-0.358,3.355-0.702,4.925-1.03c1.57-0.325,3.061-0.674,4.506-0.831
			c2.875-0.399,5.442-0.756,7.675-1.066c2.246-0.192,4.161-0.3,5.711-0.417c3.103-0.216,4.757-0.332,4.757-0.332
			s-1.654,0.118-4.756,0.338c-1.55,0.118-3.466,0.229-5.711,0.423c-2.232,0.313-4.799,0.672-7.673,1.075
			c-1.445,0.158-2.935,0.509-4.504,0.836c-1.569,0.33-3.211,0.676-4.922,1.036c-0.862,0.157-1.718,0.408-2.593,0.657
			c-0.876,0.246-1.769,0.497-2.677,0.752c-1.809,0.54-3.725,0.965-5.614,1.691c-1.907,0.669-3.875,1.36-5.901,2.072
			c-1.982,0.827-4.02,1.677-6.112,2.55c-4.14,1.845-8.42,3.953-12.768,6.372c-2.197,1.167-4.346,2.525-6.587,3.817
			c-2.208,1.348-4.44,2.753-6.704,4.19c-4.512,2.901-9.132,5.97-13.978,8.978c-1.23,0.721-2.469,1.447-3.715,2.178
			c-1.232,0.756-2.566,1.353-3.857,2.043c-1.282,0.716-2.663,1.231-4.027,1.806c-1.37,0.558-2.749,1.118-4.134,1.682
			c-2.745,1.187-5.409,2.627-8.089,4.088c-2.676,1.474-5.377,2.962-8.101,4.463c-10.881,6.004-22.793,11.185-35.552,14.119
			c-12.738,2.976-26.131,3.823-39.374,2.961c-6.618-0.489-13.228-1.222-19.726-2.453c-3.268-0.511-6.477-1.292-9.699-1.953
			c-3.204-0.741-6.381-1.562-9.543-2.378c-3.132-0.926-6.28-1.755-9.362-2.75c-1.54-0.499-3.076-0.997-4.608-1.494
			c-1.534-0.491-3.062-0.985-4.561-1.545c-6.03-2.146-11.987-4.266-17.846-6.352c-1.466-0.519-2.925-1.035-4.378-1.548
			c-1.455-0.507-2.891-1.052-4.36-1.473c-2.92-0.895-5.812-1.782-8.673-2.659c-1.431-0.438-2.854-0.875-4.269-1.308
			c-0.708-0.217-1.413-0.433-2.116-0.649c-0.712-0.186-1.421-0.371-2.129-0.555c-2.832-0.732-5.628-1.456-8.388-2.169
			c-1.38-0.357-2.75-0.711-4.11-1.063c-1.358-0.364-2.736-0.596-4.087-0.898c-2.71-0.569-5.379-1.13-8.003-1.681
			c-2.615-0.604-5.227-0.973-7.781-1.389c-2.555-0.411-5.062-0.813-7.519-1.208c-2.467-0.309-4.892-0.55-7.257-0.819
			c-2.368-0.244-4.673-0.572-6.941-0.653c-2.263-0.134-4.468-0.264-6.612-0.391c-0.536-0.032-1.068-0.063-1.597-0.094
			c-0.529-0.004-1.054-0.009-1.575-0.014c-1.042-0.007-2.069-0.015-3.08-0.021c-8.086-0.155-15.128,0.483-20.88,1.214
			c-5.758,0.767-10.191,1.892-13.182,2.732C222.268,158.184,220.754,158.872,220.754,158.872z"/>
	</g>
	<g>
		<path fill="#7B5340" d="M588.925,121.526c0,0-1.313,0.415-3.776,1.191c-1.233,0.382-2.755,0.852-4.5,1.531
			c-1.75,0.661-3.789,1.35-5.991,2.33c-1.109,0.47-2.277,0.965-3.502,1.484c-1.202,0.569-2.46,1.166-3.772,1.787
			c-1.322,0.599-2.653,1.315-4.043,2.037c-1.394,0.716-2.831,1.47-4.282,2.311c-5.865,3.256-12.237,7.344-19.15,11.867
			c-3.47,2.244-7.056,4.63-10.914,6.88c-1.939,1.105-3.911,2.238-6.01,3.211c-0.522,0.248-1.036,0.518-1.57,0.749
			c-0.541,0.218-1.083,0.438-1.627,0.658c-1.084,0.433-2.177,0.869-3.276,1.307c-4.325,1.82-8.549,4.265-12.895,6.665
			c-4.343,2.42-8.813,4.853-13.485,7.084c-9.33,4.465-19.487,8.139-30.184,10.197c-5.339,1.034-10.78,1.828-16.279,2.146
			c-1.371,0.126-2.748,0.178-4.126,0.214c-1.378,0.036-2.757,0.112-4.137,0.115c-2.759-0.045-5.526,0.01-8.283-0.183
			c-11.04-0.56-21.996-2.251-32.58-4.699c-10.59-2.447-20.811-5.641-30.53-9.163c-4.862-1.739-9.643-3.449-14.322-5.123
			c-2.341-0.833-4.657-1.657-6.945-2.472c-2.315-0.723-4.603-1.436-6.86-2.14c-4.519-1.39-8.882-2.855-13.206-3.922
			c-2.15-0.574-4.264-1.138-6.338-1.692c-2.075-0.552-4.104-1.125-6.128-1.534c-4.031-0.889-7.894-1.741-11.568-2.552
			c-3.705-0.661-7.218-1.288-10.52-1.877c-1.646-0.329-3.263-0.492-4.815-0.707c-1.554-0.204-3.052-0.4-4.491-0.589
			c-1.44-0.177-2.818-0.396-4.143-0.517c-1.326-0.11-2.591-0.216-3.791-0.316c-2.401-0.189-4.543-0.402-6.411-0.509
			c-1.871-0.064-3.461-0.12-4.751-0.164c-2.581-0.089-3.957-0.137-3.957-0.137s1.377,0.032,3.958,0.093
			c1.291,0.03,2.883,0.067,4.755,0.111c1.87,0.086,4.015,0.276,6.42,0.438c1.203,0.086,2.469,0.178,3.798,0.274
			c1.328,0.106,2.708,0.31,4.152,0.471c1.443,0.173,2.945,0.354,4.502,0.541c1.557,0.198,3.178,0.343,4.829,0.654
			c3.313,0.553,6.839,1.143,10.556,1.763c3.69,0.76,7.557,1.63,11.6,2.499c2.029,0.402,4.063,0.968,6.144,1.513
			c2.08,0.547,4.199,1.104,6.355,1.67c4.334,1.052,8.713,2.503,13.248,3.88c2.265,0.697,4.561,1.404,6.885,2.12
			c2.292,0.806,4.61,1.621,6.955,2.445c4.687,1.656,9.476,3.349,14.345,5.069c9.709,3.477,19.912,6.622,30.47,9.018
			c10.552,2.4,21.462,4.034,32.433,4.556c2.74,0.203,5.487,0.157,8.229,0.213c1.371,0.003,2.74-0.068,4.109-0.099
			c1.369-0.031,2.737-0.076,4.099-0.197c5.462-0.294,10.866-1.063,16.171-2.069c10.628-2.003,20.727-5.611,30.029-10.02
			c4.658-2.202,9.123-4.61,13.472-7.012c4.36-2.384,8.584-4.813,13-6.652c8.95-3.124,16.389-8.222,23.337-12.661
			c6.919-4.516,13.355-8.537,19.27-11.731c1.463-0.826,2.912-1.565,4.316-2.267c1.401-0.708,2.741-1.411,4.072-1.997
			c1.321-0.607,2.587-1.19,3.798-1.747c1.232-0.506,2.407-0.989,3.523-1.448c2.214-0.957,4.265-1.624,6.024-2.266
			c1.754-0.66,3.28-1.113,4.518-1.481C587.607,121.926,588.925,121.526,588.925,121.526z"/>
	</g>
	<g>
		<path fill="#7B5340" d="M352.919,156.448c0,0,2.86,0.936,7.864,2.574c2.507,0.799,5.529,1.86,9.037,2.91
			c3.517,1.016,7.451,2.233,11.813,3.343c2.172,0.583,4.433,1.194,6.802,1.703c2.367,0.516,4.783,1.181,7.316,1.633
			c5.039,1.03,10.382,1.964,15.937,2.666c1.389,0.173,2.789,0.347,4.2,0.523c1.415,0.12,2.841,0.241,4.275,0.363
			c1.434,0.133,2.876,0.247,4.33,0.289c1.452,0.072,2.912,0.144,4.376,0.215c5.864,0.125,11.822-0.017,17.745-0.573
			c5.918-0.578,11.796-1.538,17.483-2.911c5.683-1.383,11.196-3.091,16.394-5.133c5.198-2.039,10.111-4.31,14.699-6.637
			c4.587-2.331,8.864-4.684,12.904-6.744c2.029-1.015,3.97-2.004,5.905-2.788c0.95-0.422,1.922-0.746,2.85-1.085
			c0.903-0.342,1.78-0.675,2.63-0.997c0.846-0.344,1.708-0.608,2.462-0.986c0.763-0.366,1.5-0.718,2.207-1.056
			c1.43-0.648,2.703-1.353,3.851-1.99c2.313-1.244,4.103-2.283,5.322-2.992c1.222-0.706,1.874-1.082,1.874-1.082
			s-0.622,0.424-1.787,1.22c-1.17,0.789-2.854,1.998-5.116,3.36c-1.116,0.704-2.352,1.482-3.775,2.227
			c-0.704,0.386-1.437,0.788-2.196,1.204c-0.757,0.432-1.585,0.736-2.416,1.129c-0.845,0.376-1.717,0.764-2.615,1.163
			c-0.881,0.38-1.794,0.74-2.701,1.206c-1.834,0.863-3.72,1.896-5.681,2.986c-3.911,2.207-8.104,4.739-12.676,7.208
			c-4.562,2.484-9.482,4.958-14.759,7.107c-5.271,2.154-10.864,4.076-16.688,5.494c-5.817,1.439-11.833,2.462-17.887,3.081
			c-6.063,0.535-12.148,0.644-18.125,0.481c-2.981-0.19-5.949-0.263-8.855-0.622c-1.455-0.149-2.902-0.298-4.338-0.445
			c-1.428-0.203-2.846-0.405-4.252-0.605c-5.626-0.784-11.001-1.913-16.06-3.097c-2.543-0.537-4.967-1.257-7.33-1.875
			c-2.366-0.609-4.617-1.315-6.778-1.99c-4.346-1.267-8.243-2.723-11.708-3.943c-3.455-1.248-6.405-2.473-8.866-3.411
			c-2.463-0.944-4.357-1.772-5.668-2.297C353.615,156.735,352.919,156.448,352.919,156.448z"/>
	</g>
</g>
</svg>
