<?xml version="1.0" encoding="utf-8"?>
<!-- Generator: Adobe Illustrator 16.0.0, SVG Export Plug-In . SVG Version: 6.00 Build 0)  -->
<!DOCTYPE svg PUBLIC "-//W3C//DTD SVG 1.1//EN" "http://www.w3.org/Graphics/SVG/1.1/DTD/svg11.dtd">
<svg version="1.1" id="Capa_1" xmlns="http://www.w3.org/2000/svg" xmlns:xlink="http://www.w3.org/1999/xlink" x="0px" y="0px"
	 width="1279.965px" height="600.965px" viewBox="0 0 1279.965 600.965" enable-background="new 0 0 1279.965 600.965"
	 xml:space="preserve">
<g>
	<rect fill="#ABC02F" fill-opacity="0.9" width="1279.965" height="600.965"/>
	<g>
		<defs>
			<polygon id="SVGID_1_" points="29.203,56.777 473.277,56.777 473.277,600.965 32.672,600.965 			"/>
		</defs>
		<clipPath id="SVGID_2_">
			<use xlink:href="#SVGID_1_"  overflow="visible"/>
		</clipPath>
		<g clip-path="url(#SVGID_2_)">
			<g>
				<path fill="#FFFFFF" d="M118.587,655.404c-1.354,0-2.702-0.1-4.012-0.296c-7.038-0.922-13.545-4.821-17.873-10.719
					c-3.269-4.491-5.169-9.688-5.381-14.676c-0.254-5.057,1.032-8.797,2.159-11.047c0.017-0.033,0.156-0.305,0.218-0.422
					c-2.989-1.816-5.828-3.802-8.484-5.944c-1.5-1.21-2.846-2.483-4.031-3.813c-1.561,0.112-3.054,0.168-4.496,0.168
					c-6.937,0-12.886-1.27-18.188-3.88c-6.038-2.913-10.823-7.303-13.839-12.699c-3.138-5.507-4.171-12.438-2.793-18.944
					c2.093-9.53,8.205-18.046,16.784-23.436c0.032-0.021,0.065-0.041,0.099-0.062c4.434-2.714,9.256-4.21,13.947-4.327
					c0.174-0.005,0.396-0.009,0.616-0.009c4.812,0,9.607,1.583,13.523,4.461c2.459,1.732,4.475,3.984,5.92,6.555
					c3.265-4.622,6.286-9.286,8.149-13.794c0.406-1.226,0.826-2.458,1.264-3.7c0.361-1.393,0.592-2.822,0.725-4.257
					c-3.04,0.654-5.997,1.187-8.796,1.689c-0.953,0.172-1.899,0.342-2.839,0.515c-5.832,1.038-10.306,1.495-14.569,1.495
					c-6.938,0-12.889-1.27-18.191-3.882c-6.039-2.913-10.824-7.303-13.839-12.697c-3.138-5.513-4.17-12.441-2.793-18.944
					c2.094-9.534,8.206-18.051,16.784-23.439c0.035-0.022,0.071-0.045,0.107-0.066c4.442-2.713,9.267-4.205,13.951-4.316
					c0.159-0.005,0.385-0.009,0.609-0.009c4.807,0,9.599,1.582,13.516,4.458c4.496,3.163,7.507,8.063,8.272,13.478
					c0.667,4.711-0.481,9.358-3.154,12.827c-3.533,4.907-9.026,7.826-14.764,7.826c-0.523,0-1.047-0.026-1.556-0.078
					c-0.119-0.012-0.237-0.026-0.356-0.043c-5.346-0.741-8.146-3.604-9.104-4.801c-0.821-1.029-1.417-2.188-1.777-3.408
					c-0.263,0.663-0.473,1.354-0.617,2.069c-0.229,1.185-0.074,2.415,0.439,3.297c0.774,1.354,2.236,2.578,4.05,3.43
					c0.047,0.021,0.093,0.044,0.14,0.066c2.062,1.007,4.68,1.496,8.002,1.496c2.922,0,6.337-0.378,10.749-1.188
					c0.919-0.173,1.88-0.35,2.845-0.526c3.617-0.665,7.123-1.309,10.485-2.122c-2.388-14.323-3.695-32.19,17.78-41.289
					c0.266-0.112,0.532-0.224,0.799-0.336c-1.515-15.563,3.146-31.333,12.785-43.387c0.312-5.656,2.136-10.639,5.444-14.856
					c2.694-3.44,5.988-5.914,9.544-7.803c-4.879-4.006-8.494-8.931-10.582-14.341c-4.634,2.48-9.746,3.874-14.913,3.874
					c-1.35,0-2.694-0.1-4.001-0.295c-7.05-0.918-13.561-4.818-17.885-10.721c-3.267-4.494-5.168-9.694-5.38-14.678
					c-0.245-5.029,1.028-8.761,2.142-11.008c0.029-0.059,0.06-0.117,0.089-0.175c0.922-1.772,3.728-7.165,10.077-7.165
					c1.02,0,2.029,0.156,2.994,0.458l0,0c0.26,0.081,0.515,0.173,0.766,0.274c0.671,0.272,1.314,0.617,1.916,1.031l-0.001,0.001
					c1.478,1.015,2.678,2.418,3.44,4.065c1.257,2.718,1.235,5.652-0.066,8.723c-0.233,0.553-0.436,1.03-0.313,2.168
					c0.074,0.698,0.512,1.938,1.51,3.196c0.398,0.494,1.612,1.793,3.303,1.955c0.108,0.01,0.216,0.021,0.323,0.036
					c0.201,0.025,0.416,0.039,0.64,0.039c2.253-0.001,5.05-1.22,7.369-3.379c-3.762-3.737-7.48-8.766-10.147-15.433
					c-4.33-10.856-4-23.914,0.809-36.452c-2.06-4.748-3.472-9.038-4.375-13.251c-3.116-14.561-0.38-31.066,7.705-46.48
					c7.266-13.858,17.782-25.279,27.11-34.623c1.164-1.166,2.352-2.338,3.558-3.512c-1.407-2.747-2.381-5.492-2.903-8.185
					c-1.695-8.63,1.149-16.761,7.814-22.363c5.225-4.954,13.029-8.328,20.53-10.339l-1.223-13.828
					c-1.255-14.161,1.066-28.258,6.714-40.765c10.936-24.246,33.421-40.279,58.68-41.839l18.643-1.137
					c1.377-0.085,2.78-0.128,4.165-0.128c26.949,0,51.987,16.031,65.344,41.839c5.069,9.787,8.136,20.389,9.114,31.506l1.271,14.356
					c6.841,0.848,15.72,2.858,22.382,7.576c6.864,4.283,10.876,10.979,11.312,18.899c0.144,2.631-0.12,5.378-0.785,8.167
					c-1.322,5.485-4.255,11.149-8.564,16.598c0.623,5.282,0.909,10.571,1.188,15.724c0.092,1.702,0.184,3.404,0.288,5.1
					c0.468,1.618,0.452,3.119,0.298,4.302c0.077,0.985,0.161,1.968,0.26,2.944c0.593,5.873,0.871,11.497,1.14,16.936
					c0.08,1.602,0.158,3.188,0.244,4.762c0.2,0.24,0.403,0.477,0.607,0.709c6.633,7.464,15.63,10.588,21.307,10.981
					c0.043,0.004,0.085,0.007,0.128,0.01c0.804,0.066,1.613,0.1,2.407,0.1c2.938,0,5.141-0.452,6.599-0.751
					c1.119-0.23,2.177-0.447,3.459-0.447c4.245,0,8.007,2.576,9.525,6.394c0,0,0.041,0.105,0.062,0.158
					c0.119,0.313,0.223,0.637,0.311,0.967h-0.001c0.597,2.253,0.394,4.678-0.592,6.809c-1.694,3.66-4.937,5.387-9.283,6.853
					c-1.487,0.513-3.607,1.094-6.316,1.48c8.231,4.543,16.615,9.311,23.542,15.498c9.143,7.865,15.2,18.158,16.645,28.276
					c1.98,12.163-2.077,20.759-3.918,23.897c-0.02,0.033-0.039,0.065-0.059,0.099c-1.403,2.329-3.008,4.375-4.641,5.915
					c-0.051,0.049-0.103,0.097-0.155,0.144c-1.492,1.35-3.99,3.608-8.021,3.609c-0.001,0-0.002,0-0.003,0
					c-2.552-0.001-5.026-0.985-6.88-2.729c0,0-0.164-0.157-0.22-0.213l0.001-0.001c-2.385-2.414-4.963-7.824-0.439-13.897
					c0.476-0.639,1.125-1.51,1.803-2.871c0.507-1.086,1.924-4.768,0.844-10.094c-0.017-0.084-0.032-0.167-0.047-0.251
					c-0.858-4.867-4.47-10.365-9.659-14.708c-0.05-0.041-0.1-0.083-0.148-0.126c-2.718-2.365-5.957-4.574-9.513-6.737
					c11.961,21.88,14.404,45.16,14.699,48.47c2.2,24.708-16.066,50.157-42.49,59.196c-8.572,2.936-18.013,4.424-28.056,4.424
					c-13.749,0-28.807-2.842-43.544-8.22c-1.015-0.37-1.679-0.521-2.065-0.582c-0.504,0.52-1.258,1.465-1.842,2.197
					c-1.329,1.667-2.945,3.692-5.116,5.665l0.231,3.209c6.941,1.986,13.638,4.504,19.991,7.519
					c34.224,10.228,59.79,40.863,73.965,88.654c10.397,35.058,11.127,66.883,11.152,68.221c0.052,2.685-0.979,5.278-2.858,7.195
					c-1.881,1.918-4.454,2.998-7.14,2.998H186.717c-2.132,3.103-5.408,6.102-10.428,8.279c-7.903,3.425-16.437,5.563-25.456,6.389
					C145.97,645.32,132.73,655.404,118.587,655.404z M112.386,626.771c-0.064,0.332-0.085,0.737-0.023,1.31
					c0.074,0.702,0.511,1.936,1.508,3.192c0.401,0.499,1.617,1.8,3.312,1.965c0.104,0.01,0.207,0.021,0.31,0.035
					c0.201,0.025,0.417,0.039,0.641,0.039c2.075-0.001,4.893-1.12,7.273-3.28C120.97,629.243,116.609,628.149,112.386,626.771z
					 M64.397,575.559c-0.263,0.663-0.474,1.355-0.618,2.072c-0.229,1.184-0.073,2.413,0.441,3.297
					c0.772,1.35,2.238,2.578,4.057,3.433c0.042,0.021,0.084,0.04,0.126,0.061c1.866,0.91,4.187,1.396,7.072,1.481
					c0.165-0.688,0.354-1.373,0.566-2.055c-0.134-0.01-0.267-0.021-0.397-0.035c-0.12-0.012-0.239-0.026-0.357-0.043
					c-5.368-0.738-8.176-3.625-9.134-4.832C65.343,577.916,64.755,576.767,64.397,575.559z"/>
			</g>
			<g>
				<g>
					<path fill="#090605" d="M270.986,436.023c16.975-2.842,13.064-19.918,29.232-14.023c20.436,7.457,44.352,10.777,64.936,3.729
						c20.584-7.041,37.695-27.182,35.766-48.848c-1.084-12.182-7.211-42.723-26.213-61.914
						c-18.287-18.475-14.588-41.35-17.203-67.209c-1.783-17.697-0.119-36.789-9.412-51.951
						c-6.65-10.842-18.086-17.973-30.008-22.404c-28.24-10.5-60.322-7.523-88.248,3.791c-27.928,11.305-52.096,30.389-73.389,51.711
						c-9.689,9.705-18.965,20.059-25.332,32.203c-6.371,12.146-9.652,26.332-6.783,39.738c4.469,20.861,23.1,38.076,22.045,59.389
						c-0.348,7.094-2.941,14.096-2,21.133c1.715,12.795,14.982,21.477,27.854,22.445c12.867,0.973,32.367,36.986,44.354,32.211"/>
					<g>
						<path fill="#090605" d="M106.396,359.512c-0.062-0.043-0.559,0.52-1.213,1.779c-0.631,1.271-1.252,3.369-1.113,6.111
							c0.109,2.727,1.156,6.059,3.457,9.223c2.275,3.105,6.174,6.104,11.203,6.727c9.936,1.551,22.334-6.047,25.875-18.818
							c1.881-6.221,2.014-13.148,0.811-19.975c-1.203-6.861-3.686-13.584-6.426-20.25c-5.564-13.184-11.082-25.979-10.16-38.205
							c0.707-12.176,6.498-22.178,11.93-29.619c5.531-7.514,10.875-12.967,14.492-16.775c3.66-3.773,5.689-5.873,5.549-6.027
							c-0.129-0.137-2.414,1.68-6.33,5.225c-3.871,3.578-9.473,8.844-15.336,16.357c-5.734,7.432-12.021,17.709-12.941,30.676
							c-1.109,13.051,4.643,26.391,10.141,39.459c2.719,6.611,5.135,13.139,6.311,19.652c1.184,6.486,1.096,12.986-0.578,18.727
							c-3.066,11.699-14.234,18.699-23.082,17.561c-4.451-0.428-7.953-2.924-10.186-5.697c-2.223-2.801-3.352-5.826-3.617-8.34
							C104.629,362.164,106.746,359.621,106.396,359.512z"/>
					</g>
					<g>
						<path fill="#090605" d="M103.631,621.361c-0.059-0.045-0.559,0.521-1.209,1.783c-0.633,1.266-1.256,3.361-1.111,6.107
							c0.107,2.727,1.152,6.059,3.453,9.223c2.279,3.104,6.172,6.104,11.203,6.73c9.938,1.549,22.336-6.049,25.875-18.822
							c1.881-6.221,2.014-13.145,0.809-19.973c-1.199-6.861-3.684-13.588-6.422-20.25c-5.566-13.188-11.082-25.98-10.158-38.207
							c0.701-12.172,6.494-22.182,11.924-29.619c5.535-7.514,10.875-12.967,14.496-16.777c3.662-3.773,5.688-5.875,5.545-6.027
							c-0.127-0.133-2.412,1.682-6.33,5.227c-3.869,3.582-9.473,8.846-15.332,16.361c-5.732,7.43-12.021,17.707-12.943,30.67
							c-1.107,13.051,4.643,26.396,10.143,39.461c2.715,6.615,5.135,13.137,6.311,19.65c1.182,6.488,1.094,12.988-0.58,18.729
							c-3.064,11.699-14.232,18.703-23.086,17.564c-4.447-0.432-7.949-2.926-10.18-5.699c-2.225-2.805-3.354-5.826-3.617-8.342
							C101.867,624.012,103.982,621.471,103.631,621.361z"/>
					</g>
					<g>
						<path fill="#090605" d="M357.225,242.23c-0.09-0.039-0.385,0.449-0.863,1.426c-0.514,0.965-1.109,2.451-1.76,4.426
							c-1.281,3.93-2.477,9.947-1.951,17.418c0.562,7.4,2.877,16.344,8.58,24.568c5.625,8.363,14.848,14.744,24.604,20.156
							c9.809,5.441,19.252,10.25,26.426,16.494c7.285,6.096,11.854,13.629,13.09,20.641c1.42,7.004,0.057,12.879-1.645,16.443
							c-1.77,3.586-3.492,5.148-3.289,5.34c0.072,0.072,0.521-0.273,1.34-1.016c0.797-0.748,1.852-2,2.938-3.801
							c2.111-3.596,3.902-9.824,2.656-17.326c-1.043-7.527-5.844-15.834-13.35-22.268c-7.406-6.639-17.07-11.631-26.756-17.008
							c-9.668-5.363-18.459-11.41-23.852-19.18c-5.502-7.67-7.928-16.139-8.723-23.227
							C353.195,250.846,357.93,242.355,357.225,242.23z"/>
					</g>
					<g>
						<path fill="#090605" d="M403.578,289.143c-0.146-0.549-5.174,1.662-13.518,0.977c-8.197-0.568-19.688-4.859-28.131-14.361
							c-8.42-9.578-11.955-21.078-13.51-29.27c-1.574-8.291-1.578-13.604-2.057-13.596c-0.311-0.02-1.037,5.318,0.055,13.922
							c1.074,8.471,4.414,20.648,13.363,30.848c9.039,10.178,21.465,14.416,30.164,14.482c4.395,0.086,7.92-0.592,10.225-1.383
							C402.475,289.98,403.639,289.295,403.578,289.143z"/>
					</g>
					<path fill="#937154" d="M380.168,602.578c0,0,2.004-157.332-137.1-156.461C103.959,446.994,99.852,600.24,99.852,600.24
						L380.168,602.578z"/>
					<path fill="#002B6F" d="M383.109,606.471L205.852,452.574c0,0-66.502,17.52-74.148,78.432s-12.236,75.465-12.236,75.465
						H383.109z"/>
					<path fill="#002B6F" d="M304.484,458.795c76.189,22.047,78.625,147.676,78.625,147.676L258.924,498.654L304.484,458.795"/>
					<path fill="#090605" d="M173.172,355.65c11.729,9.17,19.713,39.309,6.637,47.016c-10.881,6.412-27.271,5.914-34.643,15.326
						c-10.695,13.643,8.307,33.494-0.789,47.971c-4.404,7.012-13.898,10.125-22.207,13.646
						c-26.061,11.039-3.746,37.861-10.441,62.178c-6.693,24.314-41.428,45.641-20.236,62.732
						c21.188,17.09,54.875,22.301,80.816,11.057c21.703-9.408-6.418-40.373-0.551-60.666c5.869-20.287,34.789-34.674,31.08-55.336
						c-3.707-20.662,2.463-36.324,0.344-57.148c-3.234-31.73,1.812-64.455-8.713-94.994"/>
					<path fill="#937154" d="M335.029,194.613c0,0,14.049,71.258,12.352,133.117c-1.119,40.93-31.406,75.213-71.688,82.533
						l4.664,64.754l-71.217-22.443l-15.312-100.148c0,0-25.242,4.695-39.633-18.256c-15.633-24.93-5.209-70.424,17.854-49.607
						c27.023,24.379,32.861,24.104,32.861,24.104C210.682,269.73,182.148,181.635,335.029,194.613"/>
					<path fill="#7B5F45" d="M185.469,328.008c-0.131-0.455-3.055,0.518-7.67-0.062c-4.525-0.486-10.863-3.154-14.355-9.25
						c-2.814-4.695-3.418-10.414-2.102-14.016c1.375-3.781,5.428-3.475,6.295-2.396l0.527-0.695c-0.955-0.268-1.445-0.318-1.51-0.18
						c-0.061,0.143,0.307,0.469,1.146,0.998l1.412,0.885l-0.885-1.58c-0.475-0.84-1.891-1.861-3.807-1.74
						c-1.879-0.018-4.24,1.42-5.281,3.766c-2.051,4.609-1.467,10.906,1.738,16.414c4.045,7.072,11.701,9.873,16.67,9.816
						C182.807,330.045,185.617,328.271,185.469,328.008"/>
					<path fill="#7B5F45" d="M158.922,312c0.49,0.635,3.152-0.57,6.455,0.094c3.326,0.523,5.404,2.568,6.088,2.143
						c0.307-0.201,0.174-1.139-0.746-2.271c-0.891-1.123-2.645-2.295-4.838-2.688c-2.191-0.391-4.246,0.104-5.477,0.848
						C159.152,310.869,158.703,311.707,158.922,312"/>
					<path opacity="0.2" fill="#937154" d="M219.787,316.896c-0.572,3.912,8.02,8.406,19.189,10.039
						c11.168,1.635,20.693-0.217,21.26-4.125c0.572-3.908-8.018-8.404-19.189-10.033
						C229.875,311.145,220.357,312.986,219.787,316.896"/>
					<path opacity="0.2" fill="#937154" d="M314.551,322.318c0.66,3.895,7.723,5.953,15.783,4.594s14.059-5.621,13.406-9.518
						c-0.66-3.893-7.727-5.953-15.785-4.596C319.898,314.158,313.896,318.42,314.551,322.318"/>
					<path fill="#7B5F45" d="M257.029,406.539c-0.381,0.674,2.16,2.723,6.012,3.221c3.852,0.525,6.842-0.787,6.65-1.533
						c-0.17-0.795-2.979-0.84-6.273-1.303C260.125,406.51,257.395,405.816,257.029,406.539"/>
					<path fill="#7B5F45" d="M248.809,341.037c-0.316,0.082,0.084,3.262,2.676,7.668c2.51,4.348,7.6,9.787,14.99,12.672
						c7.395,2.863,14.826,2.295,19.623,0.781c4.879-1.496,7.328-3.576,7.146-3.848c-0.217-0.404-2.951,0.973-7.631,1.885
						c-4.633,0.928-11.406,1.105-18.1-1.484c-6.689-2.609-11.564-7.318-14.35-11.135
						C250.326,343.746,249.238,340.885,248.809,341.037"/>
					<path opacity="0.2" fill="#937154" d="M252.834,353.291c-2.264,3.18,2.441,10.299,11.652,13.064
						c9.217,2.773,17.066-0.568,16.936-4.473c-0.076-3.994-5.982-7.121-12.816-9.232C261.75,350.645,255.1,350.002,252.834,353.291"
						/>
					<path fill="#090605" d="M351.709,279.441c-1.441-2.863-58.119-52.396-51.414-86.041c0,0-13.219,29.158-101.689,83.932
						l11.764-83.932l89.926-14.893l51.414,23.074V279.441z"/>
					<path fill="#090605" d="M161.33,369.496c-0.004-0.361-4.121,0.879-11.076-1.072c-6.697-1.926-16.43-8.174-20.953-20.203
						c-4.488-11.914-1.205-28.641,9.652-41.59c10.785-13.215,28.346-21.66,47.055-27.705c9.41-3.113,18.779-5.768,27.693-8.871
						c8.889-3.02,17.502-6.691,24.666-11.771c14.375-10.061,24.596-22.203,32.502-32.584c7.898-10.461,13.418-19.516,17.098-25.83
						c1.816-3.168,3.193-5.652,4.061-7.371c0.879-1.709,1.303-2.633,1.217-2.678c-0.086-0.055-0.672,0.775-1.717,2.389
						c-1.203,1.895-2.695,4.229-4.512,7.082c-3.957,6.109-9.715,14.963-17.752,25.174c-8.029,10.141-18.322,21.982-32.377,31.633
						c-6.99,4.867-15.219,8.314-24.098,11.305c-8.828,3.039-18.186,5.666-27.682,8.801c-18.879,6.113-36.986,14.814-48.197,28.76
						c-11.244,13.633-14.547,31.322-9.504,43.969c5.078,12.697,15.484,18.877,22.549,20.564c3.629,0.92,6.561,0.76,8.488,0.643
						C160.369,369.822,161.352,369.594,161.33,369.496"/>
					<path fill="#090605" d="M343.014,365.475c-0.029,0.086,0.584,0.389,1.838,0.777c1.262,0.318,3.223,0.629,5.73,0.299
						c4.883-0.576,12.297-4.139,16.395-12.477c4.027-8.26,3.559-19.752-0.34-30.707c-3.635-11.139-9.754-22.461-16.807-33.773
						c-14.357-22.516-28.682-41.869-36.383-57.441c-2.092-3.807-3.547-7.432-4.99-10.559c-1.262-3.193-2.238-5.998-3.084-8.266
						c-1.277-4.666-2.082-7.25-2.281-7.217c-0.189,0.037,0.242,2.697,1.211,7.521c0.691,2.35,1.523,5.24,2.664,8.539
						c1.314,3.221,2.672,6.975,4.664,10.881c7.348,16.01,21.533,35.725,35.77,58.057c7.004,11.223,13.076,22.324,16.734,33.084
						c3.912,10.602,4.477,21.332,0.998,29.045c-3.486,7.691-10.223,11.367-14.734,12.213
						C345.709,366.355,343.062,365.16,343.014,365.475"/>
					<path fill="#090605" d="M73.986,502.332c0,0,0.691,0.865,2.664,1.139c1.893,0.193,5.104-0.633,7.291-3.787
						c2.496-3.049,1.555-9.096-2.941-12.193c-2.129-1.592-4.975-2.67-8.053-2.574c-3.047,0.07-6.162,1.133-8.977,2.854
						c-5.521,3.467-10.615,9.279-12.32,17.041c-0.812,3.838-0.393,8.252,1.738,11.994c2.092,3.744,5.535,6.686,9.49,8.588
						c8.088,4,17.684,3.121,26.568,1.541c8.914-1.643,18.492-2.998,27.508-7.371c8.857-4.295,16.578-12.217,17.938-22.008
						c1.379-9.646-1.873-18.283-2.959-26.363c-2.578-16.275,3.74-31.203,12.08-40.178c8.48-9.164,18.396-12.982,25.09-14.604
						c6.834-1.592,10.807-1.359,10.789-1.646c0.002-0.092-0.979-0.197-2.852-0.238c-1.869,0.008-4.654,0.127-8.172,0.799
						c-6.916,1.318-17.275,4.926-26.334,14.309c-8.898,9.184-15.77,24.748-13.209,41.939c1.111,8.379,4.125,16.924,2.797,25.545
						c-1.203,8.613-8.125,15.832-16.432,19.875c-8.441,4.113-17.82,5.51-26.725,7.18c-8.789,1.617-17.719,2.373-24.945-1.156
						c-3.58-1.68-6.627-4.273-8.443-7.447c-1.842-3.164-2.264-6.883-1.602-10.309c1.393-6.908,6.045-12.506,11.068-15.771
						c5.053-3.404,11.186-3.633,15.012-0.703c3.996,2.666,4.936,7.566,2.949,10.287c-1.781,2.877-4.621,3.826-6.332,3.82
						C74.893,502.834,74.055,502.184,73.986,502.332"/>
					<path fill="#090605" d="M73.986,572.723c0,0,0.691,0.869,2.664,1.141c1.893,0.191,5.104-0.635,7.291-3.787
						c2.496-3.045,1.555-9.094-2.941-12.195c-2.129-1.59-4.975-2.668-8.053-2.576c-3.047,0.076-6.162,1.137-8.977,2.859
						c-5.521,3.469-10.615,9.275-12.32,17.039c-0.812,3.838-0.393,8.256,1.738,11.994c2.092,3.742,5.535,6.688,9.49,8.588
						c8.088,4.002,17.684,3.123,26.568,1.541c8.914-1.646,18.492-2.998,27.508-7.371c8.857-4.295,16.578-12.217,17.938-22.006
						c1.379-9.648-1.873-18.283-2.959-26.361c-2.578-16.279,3.74-31.205,12.08-40.18c8.48-9.166,18.396-12.988,25.09-14.605
						c6.834-1.59,10.807-1.357,10.789-1.646c0.002-0.092-0.979-0.197-2.852-0.24c-1.869,0.01-4.654,0.129-8.172,0.797
						c-6.916,1.324-17.275,4.93-26.334,14.314c-8.898,9.184-15.77,24.748-13.209,41.938c1.111,8.383,4.125,16.922,2.797,25.545
						c-1.203,8.615-8.125,15.836-16.432,19.873c-8.441,4.115-17.82,5.512-26.725,7.186c-8.789,1.615-17.719,2.365-24.945-1.158
						c-3.58-1.684-6.627-4.279-8.443-7.451c-1.842-3.16-2.264-6.881-1.602-10.305c1.393-6.906,6.045-12.508,11.068-15.771
						c5.053-3.406,11.186-3.635,15.012-0.701c3.996,2.662,4.936,7.564,2.949,10.285c-1.781,2.875-4.621,3.826-6.332,3.82
						C74.893,573.229,74.055,572.576,73.986,572.723"/>
					<path fill="#7B5F45" d="M283.578,320.752"/>
					<path fill="#090605" d="M227.637,265.637c0.201,2.361,9.086,3.547,19.857,2.635c10.773-0.904,19.342-3.551,19.143-5.924
						c-0.203-2.357-9.092-3.535-19.867-2.631C236.006,260.627,227.434,263.275,227.637,265.637"/>
					<path fill="#090605" d="M311.1,270.867c1.273,2.059,7.344,0.689,14.24,2.105c5.105,0.842,9.193,2.746,11.812,3.268l10.18,2.029
						l-7.385-4.188c-0.934-0.527-1.701-0.654-2.252-0.344c-0.555,0.32-0.832,1.055-0.838,2.125l2.801-2.162
						c-0.666-2.834-5.432-7.955-12.805-9.18c-4.936-0.918-9.574,0.15-12.375,1.783C311.625,267.939,310.549,269.873,311.1,270.867"
						/>
					<path fill="#FFFFFF" d="M265.973,303.096c0,0,0.781-19.648-20.398-21.883c-17.793-1.877-21.471,18.285-21.471,18.285
						L265.973,303.096z"/>
					<path fill="#090605" d="M247.635,281.514l-5.184,19.566l23.521,2.016C265.973,303.096,265.949,283.617,247.635,281.514"/>
					<path fill="#090605" d="M223.371,296.172c0.471,0.191,1.533-3.293,5.477-7.084c3.756-3.75,11.113-7.627,19.166-6.145
						c8.041,1.627,13.416,7.979,15.5,12.852c2.246,4.994,1.934,8.619,2.447,8.615c0.256,0.098,1.379-3.658-0.568-9.367
						c-1.779-5.506-7.471-12.982-16.828-14.908c-9.4-1.701-17.471,3.105-21.176,7.551
						C223.457,292.256,223.092,296.156,223.371,296.172"/>
					<path fill="#FFFFFF" d="M344.537,304.459c0,0-0.848-19.65-22.143-20.121c-17.887-0.396-19.881,20.01-19.881,20.01
						L344.537,304.459z"/>
					<path fill="#090605" d="M324.473,284.467l-3.547,19.928l23.611,0.064C344.537,304.459,342.902,285.047,324.473,284.467"/>
					<path fill="#090605" d="M301.51,301.084c0.486,0.152,1.254-3.4,4.873-7.512c3.432-4.045,10.439-8.523,18.59-7.709
						c8.143,0.955,14.029,6.838,16.508,11.521c2.656,4.783,2.645,8.432,3.156,8.383c0.258,0.074,1.062-3.76-1.34-9.285
						c-2.229-5.344-8.523-12.324-18.012-13.463c-9.51-0.922-17.154,4.545-20.477,9.279
						C301.27,297.176,301.23,301.104,301.51,301.084"/>
					<g>
						<path fill="#090605" d="M215.729,556.699c0.062-0.045,0.557,0.518,1.209,1.779c0.633,1.266,1.254,3.365,1.115,6.109
							c-0.111,2.727-1.156,6.059-3.457,9.221c-2.275,3.107-6.17,6.105-11.203,6.727c-9.936,1.555-22.334-6.043-25.873-18.814
							c-1.881-6.223-2.012-13.15-0.811-19.977c1.197-6.859,3.684-13.584,6.422-20.25c5.564-13.188,11.084-25.979,10.162-38.207
							c-0.707-12.17-6.498-22.178-11.928-29.615c-5.533-7.516-10.875-12.969-14.494-16.775c-3.662-3.779-5.689-5.875-5.549-6.025
							c0.129-0.141,2.414,1.678,6.33,5.223c3.871,3.578,9.473,8.844,15.336,16.357c5.734,7.428,12.018,17.709,12.941,30.674
							c1.109,13.051-4.643,26.393-10.139,39.461c-2.723,6.609-5.137,13.143-6.312,19.65c-1.182,6.486-1.092,12.988,0.582,18.729
							c3.064,11.697,14.23,18.699,23.082,17.562c4.449-0.432,7.949-2.928,10.182-5.701c2.223-2.803,3.354-5.826,3.615-8.342
							C217.494,559.35,215.377,556.807,215.729,556.699z"/>
					</g>
					<g>
						<path fill="#7B5F45" d="M298.252,280.021c0,0-0.697,1.057-1.873,2.924c-1.178,1.863-2.828,4.543-4.709,7.795
							c-1.855,3.266-3.961,7.105-5.846,11.35c-0.951,2.117-1.797,4.354-2.543,6.637c-0.732,2.285-1.299,4.654-1.504,7.01
							c-0.225,2.338-0.125,4.707,0.682,6.74l0.311,0.752l0.062,0.154l0.107,0.205l0.215,0.408c0.277,0.549,0.557,1.094,0.832,1.635
							c0.275,0.543,0.578,1.006,0.861,1.51c0.283,0.494,0.57,0.986,0.898,1.449c1.244,1.904,2.602,3.619,4.113,5.014
							c1.514,1.422,3.162,2.402,4.768,3.703c0.783,0.654,1.516,1.537,1.809,2.516c0.113,0.486,0.242,0.924,0.256,1.412
							c0.008,0.205,0.016,0.406,0.023,0.604c0,0.209-0.033,0.451-0.053,0.668c-0.094,0.875-0.377,1.631-0.797,2.232
							c-0.393,0.615-0.893,1.057-1.355,1.398c-0.945,0.678-1.805,0.943-2.377,1.107c-0.578,0.154-0.893,0.188-0.893,0.188
							s0.305-0.09,0.838-0.34c0.525-0.25,1.285-0.686,2.047-1.412c0.746-0.717,1.43-1.871,1.391-3.221
							c-0.008-0.168,0.006-0.314-0.016-0.5c-0.031-0.195-0.064-0.395-0.098-0.596c-0.043-0.326-0.205-0.691-0.322-1.027
							c-0.299-0.658-0.807-1.182-1.514-1.672c-0.699-0.49-1.576-0.945-2.471-1.488c-0.9-0.527-1.799-1.18-2.697-1.875
							c-1.781-1.424-3.426-3.205-4.826-5.211c-0.375-0.484-0.711-1.008-1.047-1.541c-0.33-0.527-0.703-1.066-1-1.596
							c-0.299-0.529-0.6-1.062-0.9-1.598l-0.221-0.406l-0.111-0.203c-0.072-0.143-0.08-0.176-0.123-0.27l-0.412-0.955
							c-1.055-2.594-1.189-5.41-0.965-8.062c0.27-2.664,0.928-5.215,1.74-7.637c0.807-2.428,1.852-4.699,2.908-6.857
							c1.055-2.16,2.229-4.158,3.377-6.021c1.139-1.869,2.301-3.58,3.408-5.129c2.205-3.105,4.225-5.551,5.676-7.225
							C297.359,280.92,298.252,280.021,298.252,280.021z"/>
					</g>
					<g>
						<path fill="#7B5F45" d="M287.758,347.432c0,0-0.891,0.484-2.293,0.898c-0.699,0.219-1.523,0.422-2.418,0.578
							c-0.895,0.164-1.857,0.285-2.828,0.34c-0.971,0.053-1.951,0.033-2.871-0.053c-0.922-0.09-1.783-0.25-2.508-0.484
							c-0.365-0.127-0.689-0.227-0.973-0.383c-0.281-0.148-0.516-0.275-0.699-0.41c-0.352-0.311-0.506-0.486-0.506-0.486
							s0.268,0.043,0.658,0.117c0.201,0.027,0.465,0.012,0.736,0.039c0.273,0.02,0.611-0.025,0.947-0.014
							c0.342-0.004,0.729-0.057,1.119-0.057c0.396-0.021,0.82-0.078,1.252-0.084c0.871-0.068,1.799-0.131,2.736-0.182
							c0.936-0.055,1.877-0.08,2.766-0.092c0.889-0.014,1.723-0.002,2.445,0.035C286.764,347.254,287.758,347.432,287.758,347.432z"
							/>
					</g>
					<g>
						<g>
							<g>
								<path fill="none" stroke="#BA007C" stroke-width="3" stroke-linecap="round" stroke-linejoin="round" d="M209.092,458.457
									c0.086-0.068-5.357-6.441-5.271-6.51c0.607-0.492,22.002,22.055,22.609,21.562c0.439-0.355-17.201-20.342-16.762-20.697
									c0.959-0.777,33.137,36.527,34.098,35.75c0.439-0.355-17.238-20.383-16.797-20.74c0.904-0.732,31.355,34.211,32.26,33.479
									c0.383-0.311-15.342-18.158-14.957-18.469"/>
							</g>
						</g>
					</g>
					<g>
						<g>
							<g>
								<path fill="none" stroke="#BA007C" stroke-width="3" stroke-linecap="round" stroke-linejoin="round" d="M297.086,462.131
									c0.051,0.086,6.834-4.059,6.885-3.973c0.355,0.615-22.764,16.939-22.408,17.555c0.254,0.439,20.816-12.604,21.07-12.164
									c0.559,0.969-37.152,24.775-36.594,25.746c0.256,0.441,20.861-12.633,21.117-12.191
									c0.469,0.812-30.793,21.312-30.322,22.125c0.164,0.283,14.68-8.855,14.844-8.57"/>
							</g>
						</g>
					</g>
				</g>
				<g>
					<g>
						<g>
							<g>
								<path fill="#212020" d="M189.277,188.102l-0.232-2.613c-8.816,1.141-19.271,4.57-24.541,9.756
									c-4.16,3.367-5.656,7.934-4.662,12.994C165.768,197.363,176.793,188.465,189.277,188.102z"/>
								<path fill="#212020" d="M361.703,190.986c1.152,1.074,2.18,2.244,3.082,3.488c-0.254-4.619-2.531-8.512-6.869-11.121
									c-6.125-4.484-17.047-6.465-25.971-6.512l0.375,4.23C343.061,179.32,353.758,183.492,361.703,190.986z"/>
								<path fill="#413F3F" d="M278.211,242.094c-30.168,5.715-60.506,2.354-90.48-9.73c-10.27-4.182-17.928-10.992-25.561-17.949
									c9.754,17.762,46.41,37.963,104.355,35.02c60.213-4.34,93.168-30.668,97.732-49.664
									C346.211,227.676,309.449,236.098,278.211,242.094z"/>
								<path fill="#2D2B2B" d="M187.73,232.363c29.975,12.084,60.312,15.445,90.48,9.73c31.238-5.996,68-14.418,86.047-42.324
									c0.439-1.844,0.619-3.623,0.527-5.295c-0.902-1.244-1.93-2.414-3.082-3.488c-7.945-7.494-18.643-11.666-29.383-9.914
									l0.984,11.113c-19.053,12.588-41.328,21.5-69.773,23.242c-28.471,1.754-52.068-4.479-73.125-14.594l-1.129-12.732
									c-12.484,0.363-23.51,9.262-29.436,20.137c0.387,1.996,1.176,4.068,2.328,6.176
									C169.803,221.371,177.461,228.182,187.73,232.363z"/>
								<path fill="#2D2B2B" d="M298.391,103.797c-13.676-8.383-28.725-10.543-44.686-10.682
									c-26.217-0.195-47.135,13.984-60.73,33.848c-4.795,10.621-7.01,22.875-5.867,35.768l0.76,8.584l1.299,14.713
									c20.176,9.686,45.662,14.762,72.92,13.086c27.254-1.672,51.568-9.814,69.82-21.861l-1.303-14.697l-0.76-8.59
									c-0.883-10.033-3.709-19.436-8.033-27.785C314.357,117.973,308.25,109.463,298.391,103.797z"/>
								<path fill="#212020" d="M261.791,89.854l-18.635,1.137c-22.496,1.389-41.037,15.697-50.182,35.973
									c13.596-19.863,34.514-34.043,60.73-33.848c15.961,0.139,31.01,2.299,44.686,10.682c9.859,5.666,15.967,14.176,23.42,22.383
									C309.967,103.299,286.9,88.307,261.791,89.854z"/>
							</g>
						</g>
					</g>
					<g>
						<path d="M263.553,215.537c28.447-1.746,50.725-10.652,69.775-23.238l-1.324-15.004l-0.074-0.01l0.002,0.068
							c-18.258,12.059-42.564,20.197-69.82,21.869c-27.254,1.678-52.721-3.396-72.889-13.078l-0.096,0.045l1.309,14.754
							C211.488,211.062,235.088,217.283,263.553,215.537z"/>
					</g>
				</g>
			</g>
		</g>
	</g>
	<g>
		<g>
			<g>
				<g>
					<path fill="#FFFFFF" d="M719.863,167.539h7.699l1.357,60.236h-10.412L719.863,167.539z M718.65,149.357h10.129v8.611H718.65
						V149.357L718.65,149.357z"/>
					<path fill="#FFFFFF" d="M746.893,149.357h13.836c7.133,0,11.959,0.742,14.477,2.232c2.521,1.488,3.779,4.166,3.779,8.027
						v17.756c0,3.264-0.828,5.566-2.494,6.912c-1.666,1.348-4.613,2.162-8.846,2.447c4.518,0.213,7.656,0.99,9.418,2.34
						c1.756,1.348,2.639,3.686,2.639,7.016v21.426c0,3.865-1.26,6.541-3.779,8.027c-2.523,1.488-7.348,2.232-14.479,2.232h-14.551
						V149.357z M755.951,155.154v28.656h3.211c4.135,0,6.891-0.541,8.273-1.623c1.377-1.08,2.066-3.482,2.066-7.205v-10.896
						c0-3.756-0.689-6.186-2.066-7.281c-1.381-1.102-4.137-1.65-8.273-1.65H755.951L755.951,155.154z M755.951,189.656v32.324h3.352
						c4.377,0,7.264-0.539,8.666-1.621s2.104-3.463,2.104-7.15v-14.727c0-3.688-0.701-6.08-2.104-7.18
						c-1.402-1.098-4.291-1.646-8.666-1.646H755.951L755.951,189.656z"/>
					<path fill="#FFFFFF" d="M794.037,173.121h8.771v41.895c0,3.227,0.465,5.449,1.393,6.672c0.926,1.225,2.506,1.836,4.74,1.836
						c2.189,0,3.734-0.631,4.637-1.889s1.354-3.463,1.354-6.619v-41.893h8.916v54.654h-8.203l-0.713-3.35
						c-1.189,1.523-2.664,2.668-4.422,3.43c-1.76,0.76-3.828,1.141-6.205,1.141c-3.756,0-6.408-0.922-7.953-2.766
						c-1.545-1.842-2.318-5.066-2.318-9.674v-43.438H794.037z"/>
					<path fill="#FFFFFF" d="M866.785,187.369v16.217h-20.754v11.535c0,3.262,0.428,5.475,1.285,6.645
						c0.854,1.174,2.375,1.758,4.564,1.758c2.09,0,3.564-0.604,4.42-1.811c0.859-1.203,1.285-3.402,1.285-6.592v-6.061h9.199v4.465
						c0,6.029-1.094,10.129-3.281,12.307c-2.188,2.182-6.062,3.271-11.623,3.271c-5.518,0-9.379-1.109-11.592-3.322
						c-2.211-2.215-3.316-6.336-3.316-12.361v-26.053c0-6.059,1.082-10.172,3.244-12.334c2.166-2.16,6.051-3.242,11.662-3.242
						c5.516,0,9.377,1.107,11.59,3.322C865.678,177.33,866.785,181.416,866.785,187.369z M857.584,185.723
						c0-3.227-0.426-5.424-1.283-6.592c-0.857-1.172-2.332-1.758-4.422-1.758c-2.141,0-3.652,0.621-4.527,1.861
						c-0.881,1.242-1.32,3.402-1.32,6.486v12.334h11.553V185.723z"/>
					<path fill="#FFFFFF" d="M909.719,184.34v43.436h-8.773v-42.053c0-3.119-0.461-5.291-1.391-6.514
						c-0.926-1.223-2.506-1.834-4.74-1.834c-2.189,0-3.756,0.629-4.709,1.887c-0.949,1.258-1.428,3.412-1.428,6.461v42.053h-8.771
						v-54.654h8.203l0.568,3.35c1.188-1.521,2.701-2.684,4.531-3.484c1.83-0.797,3.932-1.195,6.311-1.195
						c3.707,0,6.334,0.932,7.881,2.793C908.945,176.443,909.719,179.697,909.719,184.34z"/>
					<path fill="#FFFFFF" d="M691.834,289.053v14.73h6.705v5.527h-6.705v40.617c0,1.523,0.391,2.58,1.178,3.162
						c0.783,0.588,2.199,0.879,4.242,0.879h1.285v5.688c-0.523,0.035-1.059,0.062-1.605,0.08s-1.318,0.027-2.318,0.027
						c-4.469,0-7.512-0.807-9.129-2.418c-1.615-1.613-2.424-5.201-2.424-10.768v-37.27h-4.779v-5.529h4.777v-12.066L691.834,289.053
						z"/>
					<path fill="#FFFFFF" d="M727.922,302.561v6.645h-1.498c-3.756,0-6.42,0.699-7.988,2.1c-1.57,1.398-2.355,3.82-2.355,7.256
						v39.875h-8.771v-54.656h8.203l0.568,3.352c1.24-1.49,2.748-2.641,4.531-3.455c1.783-0.816,3.719-1.227,5.812-1.227
						c0.143,0,0.381,0.021,0.713,0.055C727.469,302.541,727.73,302.561,727.922,302.561z"/>
					<path fill="#FFFFFF" d="M762.869,316.541v41.895h-8.203l-0.57-3.35c-1.188,1.521-2.699,2.684-4.527,3.482
						c-1.83,0.797-3.936,1.195-6.312,1.195c-3.709,0-6.338-0.93-7.881-2.791c-1.545-1.861-2.318-5.111-2.318-9.754V336.32
						c0-4.289,1.557-7.338,4.67-9.145c3.115-1.809,8.57-2.818,16.369-3.033v-7.762c0-3.297-0.414-5.512-1.246-6.646
						c-0.834-1.133-2.318-1.699-4.457-1.699c-2.047,0-3.508,0.521-4.385,1.566c-0.881,1.047-1.322,2.844-1.322,5.396v3.033h-8.773
						v-1.49c0-5.457,1.072-9.17,3.211-11.139c2.141-1.967,5.943-2.953,11.412-2.953c5.322,0,9.047,0.994,11.16,2.979
						C761.807,307.416,762.869,311.117,762.869,316.541z M754.025,329.461c-4.566,0.141-7.668,0.744-9.307,1.809
						c-1.641,1.064-2.461,2.979-2.461,5.742v8.771c0,3.262,0.428,5.477,1.285,6.645c0.855,1.172,2.377,1.756,4.564,1.756
						c2.139,0,3.672-0.629,4.602-1.885c0.924-1.26,1.389-3.43,1.389-6.514L754.025,329.461z"/>
					<path fill="#FFFFFF" d="M776.275,280.016h8.775v27.115c1.188-1.523,2.699-2.686,4.527-3.482
						c1.83-0.799,3.934-1.199,6.312-1.199c3.709,0,6.336,0.932,7.883,2.793c1.543,1.861,2.316,5.111,2.316,9.754v32.221
						c0,4.643-0.773,7.895-2.316,9.756c-1.547,1.859-4.174,2.791-7.883,2.791c-2.379,0-4.482-0.402-6.312-1.197
						c-1.828-0.797-3.34-1.957-4.527-3.48l-0.568,3.348h-8.207V280.016L776.275,280.016z M796.889,316.381
						c0-3.227-0.428-5.424-1.285-6.592c-0.855-1.172-2.379-1.756-4.566-1.756c-2.137,0-3.672,0.629-4.598,1.887
						c-0.928,1.258-1.393,3.412-1.393,6.461v29.4c0,3.119,0.453,5.297,1.357,6.539c0.902,1.24,2.449,1.859,4.633,1.859
						c2.186,0,3.711-0.584,4.566-1.754c0.857-1.168,1.285-3.383,1.285-6.645V316.381L796.889,316.381z"/>
					<path fill="#FFFFFF" d="M847.881,316.541v41.895h-8.201l-0.57-3.35c-1.189,1.521-2.699,2.684-4.529,3.482
						c-1.828,0.797-3.934,1.195-6.311,1.195c-3.709,0-6.338-0.93-7.881-2.791c-1.545-1.861-2.318-5.111-2.318-9.754V336.32
						c0-4.289,1.557-7.338,4.67-9.145c3.115-1.809,8.572-2.818,16.369-3.033v-7.762c0-3.297-0.416-5.512-1.246-6.646
						c-0.834-1.133-2.318-1.699-4.459-1.699c-2.045,0-3.506,0.521-4.383,1.566c-0.881,1.047-1.32,2.844-1.32,5.396v3.033h-8.775
						v-1.49c0-5.457,1.072-9.17,3.211-11.139c2.141-1.967,5.943-2.953,11.412-2.953c5.322,0,9.045,0.994,11.16,2.979
						C846.824,307.416,847.881,311.117,847.881,316.541z M839.039,329.461c-4.564,0.141-7.664,0.744-9.305,1.809
						c-1.643,1.064-2.461,2.979-2.461,5.742v8.771c0,3.262,0.428,5.477,1.283,6.645c0.855,1.172,2.377,1.756,4.564,1.756
						c2.141,0,3.674-0.629,4.602-1.885c0.926-1.26,1.389-3.43,1.389-6.514L839.039,329.461z"/>
					<path fill="#FFFFFF" d="M861.291,303.779h8.773v62.947c0,5.529-0.82,9.127-2.461,10.793c-1.641,1.668-4.719,2.5-9.236,2.5
						c-0.996,0-1.77-0.018-2.318-0.051c-0.545-0.035-1.033-0.074-1.461-0.109v-5.633h1.285c2.043,0,3.459-0.303,4.244-0.904
						c0.785-0.604,1.178-1.686,1.178-3.244v-66.299H861.291z M860.865,280.016h9.768v8.293h-9.768V280.016z"/>
					<path fill="#FFFFFF" d="M913.143,318.031v26.156c0,6.027-1.094,10.127-3.281,12.309c-2.191,2.18-6.062,3.271-11.627,3.271
						c-5.514,0-9.377-1.109-11.59-3.326c-2.209-2.213-3.318-6.334-3.318-12.361v-26.049c0-6.062,1.082-10.172,3.248-12.334
						c2.162-2.164,6.049-3.244,11.66-3.244c5.518,0,9.379,1.107,11.592,3.322C912.035,307.99,913.143,312.076,913.143,318.031z
						 M903.939,316.381c0-3.227-0.428-5.424-1.281-6.592c-0.857-1.172-2.33-1.756-4.424-1.756c-2.141,0-3.648,0.619-4.527,1.859
						c-0.881,1.244-1.32,3.402-1.32,6.488v29.4c0,3.262,0.43,5.477,1.285,6.645c0.854,1.17,2.377,1.754,4.562,1.754
						c2.094,0,3.566-0.602,4.426-1.807c0.854-1.205,1.281-3.404,1.281-6.592v-29.4H903.939z"/>
					<path fill="#FFFFFF" d="M929.189,280.016h10.412l-1.355,60.236h-7.701L929.189,280.016z M929.332,349.822h10.127v8.613h-10.127
						V349.822z"/>
				</g>
			</g>
		</g>
		<polygon fill="#6A9E3D" points="690.607,405.102 707.016,461.852 921.547,450.211 934.697,405.102 		"/>
		<g>
			<g>
				<path fill="#FFFFFF" d="M750.199,415.723h10.764v2.164h-3.779v25.158h-3.207v-25.158h-3.777V415.723z"/>
				<path fill="#FFFFFF" d="M764.266,415.723h8.748v2.164h-5.59v9.838h5.342v2.148h-5.342v11.004h5.738v2.168h-8.896V415.723z"/>
				<path fill="#FFFFFF" d="M777.713,415.723h4.82c2.484,0,4.166,0.258,5.045,0.775c0.879,0.521,1.314,1.451,1.314,2.797v6.188
					c0,1.137-0.287,1.939-0.867,2.41c-0.58,0.469-1.609,0.75-3.082,0.852c1.574,0.072,2.668,0.346,3.281,0.814
					c0.611,0.467,0.92,1.285,0.92,2.445v11.041h-3.355v-10.209c0-1.283-0.244-2.117-0.732-2.5c-0.49-0.383-1.498-0.574-3.021-0.574
					h-1.168v13.283h-3.158v-27.322H777.713z M780.867,417.74v9.984h1.117c1.439,0,2.4-0.188,2.883-0.564
					c0.48-0.377,0.719-1.213,0.719-2.512v-3.799c0-1.309-0.238-2.152-0.719-2.537c-0.48-0.381-1.441-0.572-2.883-0.572H780.867z"/>
				<path fill="#FFFFFF" d="M794.66,415.723h5.49l3.553,25.154h0.248l3.48-25.154h5.344v27.322h-2.76v-25.268h-0.496l-3.58,25.268
					h-4.422l-3.705-25.268h-0.422v25.268h-2.73V415.723z"/>
				<path fill="#FFFFFF" d="M818.469,415.723h3.354v27.322h-3.354V415.723z"/>
				<path fill="#FFFFFF" d="M827.416,415.723h4.32l5.244,25.693h0.051l-0.475-25.693h2.857v27.322h-4.373l-5.193-25.344h-0.1
					l0.447,25.344h-2.783v-27.322H827.416z"/>
				<path fill="#FFFFFF" d="M848.189,415.723h4.623l5.291,27.322h-3.402l-1.266-7.596h-6.016l-1.369,7.596h-3.328L848.189,415.723z
					 M850.373,417.74l-2.656,15.707h5.295l-2.486-15.707H850.373z"/>
				<path fill="#FFFFFF" d="M861.461,415.723h4.82c2.486,0,4.166,0.258,5.045,0.775c0.879,0.521,1.316,1.451,1.316,2.797v6.188
					c0,1.137-0.289,1.939-0.867,2.41c-0.582,0.469-1.609,0.75-3.082,0.852c1.572,0.072,2.664,0.346,3.279,0.814
					c0.611,0.469,0.92,1.285,0.92,2.445v11.041h-3.355v-10.209c0-1.283-0.246-2.117-0.734-2.5s-1.498-0.574-3.02-0.574h-1.17v13.283
					h-3.154v-27.322H861.461z M864.615,417.74v9.984h1.119c1.439,0,2.4-0.188,2.881-0.564c0.482-0.377,0.725-1.213,0.725-2.512
					v-3.799c0-1.309-0.242-2.152-0.725-2.537c-0.477-0.381-1.438-0.572-2.881-0.572H864.615z"/>
			</g>
		</g>
	</g>
</g>
</svg>
