<?xml version="1.0" encoding="utf-8"?>
<!-- Generator: Adobe Illustrator 16.0.0, SVG Export Plug-In . SVG Version: 6.00 Build 0)  -->
<!DOCTYPE svg PUBLIC "-//W3C//DTD SVG 1.1//EN" "http://www.w3.org/Graphics/SVG/1.1/DTD/svg11.dtd">
<svg version="1.1" id="Capa_1" xmlns="http://www.w3.org/2000/svg" xmlns:xlink="http://www.w3.org/1999/xlink" x="0px" y="0px"
	 width="156.299px" height="46.994px" viewBox="0 0 156.299 46.994" enable-background="new 0 0 156.299 46.994"
	 xml:space="preserve">
<g>
	<g>
		<g>
			<path fill="#3A2468" d="M9.086,25.079l6.798-0.341c-0.092,0.705-0.137,1.342-0.137,1.911c0,2.582,0.861,3.873,2.586,3.873h0.092
				c2.091-0.045,3.136-0.876,3.136-2.491v-0.153c-0.076-1.718-2.053-3.401-5.929-5.051c-3.769-1.593-5.653-4.22-5.653-7.883
				c0-0.113,0.008-0.228,0.022-0.342c0.107-3.833,2.991-5.784,8.652-5.853h0.184c5.112,0,7.668,2.429,7.668,7.286
				c0,0.387-0.016,0.797-0.046,1.229l-5.974,0.256c0.061-0.512,0.091-0.983,0.091-1.416c0-2.036-0.663-3.055-1.991-3.055
				c-1.603,0-2.479,0.609-2.632,1.826c-0.016,0.171-0.023,0.341-0.023,0.512c0,1.013,0.404,1.957,1.213,2.832
				c0.931,1.013,2.529,1.94,4.796,2.781c2.266,0.843,3.849,1.997,4.75,3.464c0.641,1.059,0.961,2.185,0.961,3.379
				c0,0.455-0.046,0.921-0.138,1.399c-0.351,1.718-1.327,3.143-2.93,4.273c-1.603,1.133-3.754,1.749-6.455,1.852
				c-0.183,0.012-0.366,0.018-0.549,0.018c-2.457,0-4.51-0.672-6.157-2.014c-1.588-1.285-2.381-3.623-2.381-7.013
				C9.04,25.949,9.055,25.523,9.086,25.079z"/>
			<path fill="#3A2468" d="M36.027,13.17c0,0.693-0.329,1.285-0.984,1.774c-0.656,0.489-1.45,0.733-2.381,0.733
				c-0.916,0-1.702-0.244-2.357-0.733c-0.656-0.489-0.984-1.081-0.984-1.774c0-0.683,0.328-1.269,0.984-1.758
				c0.655-0.489,1.441-0.733,2.357-0.733c0.931,0,1.725,0.244,2.381,0.733C35.698,11.901,36.027,12.487,36.027,13.17z
				 M29.893,34.703c-0.107-6.654-0.16-12.405-0.16-17.251l5.768-0.256c-0.183,4.642-0.274,9.254-0.274,13.838
				c0,1.229,0.008,2.451,0.023,3.669H29.893z"/>
			<path fill="#3A2468" d="M37.927,36.597l5.379-0.222c-0.016,0.137-0.022,0.273-0.022,0.409c0,1.24,0.663,1.917,1.991,2.031
				c0.213,0.022,0.412,0.034,0.595,0.034c1.145,0,1.961-0.342,2.449-1.024c0.427-0.614,0.642-1.763,0.642-3.446
				c0-0.455-0.016-0.956-0.046-1.502c-0.855,1.274-2.442,1.969-4.762,2.082c-4.532-0.034-6.798-2.906-6.798-8.617v-0.119
				c0.03-5.778,2.724-8.685,8.08-8.719c1.465,0,2.777,0.637,3.937,1.911l0.069-2.714l5.013,0.171c0,9.385-0.038,15.197-0.114,17.438
				c-0.077,2.24-0.53,4.038-1.362,5.392s-2.247,2.219-4.246,2.594c-1.053,0.205-2.099,0.307-3.136,0.307
				c-0.931,0-1.854-0.079-2.77-0.238c-1.954-0.342-3.296-0.984-4.028-1.929c-0.611-0.773-0.916-1.785-0.916-3.037
				C37.881,37.148,37.896,36.881,37.927,36.597z M48.868,29.84v-6.928c-0.748-1.126-1.694-1.688-2.839-1.688
				c-0.229,0-0.466,0.022-0.709,0.068c-1.48,0.262-2.297,1.78-2.449,4.556c-0.016,0.296-0.023,0.58-0.023,0.853
				c0,2.264,0.564,3.651,1.694,4.163c0.381,0.183,0.785,0.273,1.213,0.273C46.701,31.137,47.738,30.704,48.868,29.84z"/>
			<path fill="#3A2468" d="M68.095,34.617l-0.229-2.781c-0.641,1.479-2.365,2.225-5.173,2.235c-0.031,0.012-0.054,0.018-0.068,0.018
				c-2.778,0-4.616-0.933-5.517-2.799c-0.61-1.239-0.916-3.805-0.916-7.695c0-2.002,0.084-4.362,0.252-7.081h5.562
				c-0.306,3.822-0.458,6.763-0.458,8.821c0,1.036,0.038,1.843,0.114,2.424c0.229,1.774,0.999,2.661,2.312,2.661
				s2.137-0.461,2.473-1.382l-0.229-11.842l5.38-0.034c0,4.892,0.236,10.591,0.709,17.097L68.095,34.617z"/>
			<path fill="#3A2468" d="M80.616,13.17c0,0.693-0.329,1.285-0.984,1.774c-0.656,0.489-1.45,0.733-2.381,0.733
				c-0.916,0-1.702-0.244-2.357-0.733c-0.656-0.489-0.984-1.081-0.984-1.774c0-0.683,0.328-1.269,0.984-1.758
				c0.655-0.489,1.441-0.733,2.357-0.733c0.931,0,1.725,0.244,2.381,0.733C80.287,11.901,80.616,12.487,80.616,13.17z
				 M74.481,34.703c-0.107-6.654-0.16-12.405-0.16-17.251l5.768-0.256c-0.183,4.642-0.274,9.254-0.274,13.838
				c0,1.229,0.008,2.451,0.023,3.669H74.481z"/>
			<path fill="#3A2468" d="M89.314,17.094c5.295,0,7.943,2.622,7.943,7.866c0,0.638-0.039,1.319-0.115,2.048H86.911
				c0,2.924,0.756,4.385,2.267,4.385h0.16c1.327-0.079,1.991-0.836,1.991-2.27c0-0.307-0.031-0.648-0.092-1.023l5.448-0.085
				c0,4.334-2.541,6.529-7.623,6.586c-0.061,0.012-0.114,0.017-0.16,0.017c-4.837,0-7.256-2.735-7.256-8.207v-0.512
				C81.799,20.029,84.355,17.094,89.314,17.094z M86.362,23.868h5.173v-0.41c0-2.069-0.786-3.104-2.357-3.104
				C87.483,20.354,86.545,21.524,86.362,23.868z"/>
			<path fill="#3A2468" d="M103.186,16.65l0.229,2.781c0.641-1.479,2.326-2.229,5.059-2.252h0.092c2.686,0,4.517,0.784,5.493,2.354
				c0.671,1.069,1.007,3.572,1.007,7.508c0,1.934-0.084,4.22-0.252,6.859h-5.539c0.198-3.516,0.298-6.239,0.298-8.174
				c0-0.967-0.023-1.74-0.068-2.32c-0.153-1.706-0.886-2.56-2.198-2.56s-2.136,0.455-2.472,1.365l0.229,12.37l-5.379,0.034
				c0-5.232-0.236-11.107-0.709-17.626L103.186,16.65z"/>
			<path fill="#3A2468" d="M120.788,11.651l5.196-0.256v5.647l4.371-0.085l0.069,3.225l-4.44,0.153V28.1
				c0,1.809,1.029,2.713,3.09,2.713c0.427,0,0.893-0.04,1.396-0.119l-0.206,3.754c-0.732,0.068-1.428,0.102-2.083,0.102
				c-4.822,0-7.279-1.854-7.371-5.562v-8.344l-3.754,0.17l-0.091-3.805l3.845,0.034L120.788,11.651z"/>
			<path fill="#3A2468" d="M139.763,17.094c5.295,0,7.943,2.622,7.943,7.866c0,0.638-0.039,1.319-0.115,2.048h-10.231
				c0,2.924,0.756,4.385,2.267,4.385h0.16c1.327-0.079,1.991-0.836,1.991-2.27c0-0.307-0.031-0.648-0.092-1.023l5.448-0.085
				c0,4.334-2.541,6.529-7.623,6.586c-0.061,0.012-0.114,0.017-0.16,0.017c-4.837,0-7.256-2.735-7.256-8.207v-0.512
				C132.247,20.029,134.804,17.094,139.763,17.094z M136.811,23.868h5.173v-0.41c0-2.069-0.786-3.104-2.357-3.104
				C137.932,20.354,136.993,21.524,136.811,23.868z"/>
		</g>
	</g>
	<path fill-rule="evenodd" clip-rule="evenodd" fill="none" stroke="#7764A1" stroke-miterlimit="10" d="M155.799,34.494
		c0,6.628-5.372,12-12,12H12.5c-6.628,0-12-5.372-12-12V12.5c0-6.628,5.372-12,12-12h131.299c6.628,0,12,5.372,12,12V34.494z"/>
</g>
</svg>
