<?xml version="1.0" encoding="utf-8"?>
<!-- Generator: Adobe Illustrator 16.0.0, SVG Export Plug-In . SVG Version: 6.00 Build 0)  -->
<!DOCTYPE svg PUBLIC "-//W3C//DTD SVG 1.1//EN" "http://www.w3.org/Graphics/SVG/1.1/DTD/svg11.dtd">
<svg version="1.1" id="Capa_1" xmlns="http://www.w3.org/2000/svg" xmlns:xlink="http://www.w3.org/1999/xlink" x="0px" y="0px"
	 width="48.68px" height="206.119px" viewBox="0 0 48.68 206.119" enable-background="new 0 0 48.68 206.119" xml:space="preserve">
<g>
	<g>
		<polygon opacity="0.9" fill="#ABC02F" points="48.68,0 48.68,140.779 3.891,167.199 0,13.85 4.77,12.488 		"/>
	</g>
	<g>
		<polygon opacity="0.8" fill="#2B1C48" points="48.68,140.779 48.68,197.559 4.77,206.119 3.891,167.199 		"/>
	</g>
	<g>
		<g>
			<path fill="#FFFFFF" d="M34.323,135.212l0.236,3.426c-5.018,0-9.727,0.11-14.129,0.33l-0.246-3.921
				C24.825,135.148,29.54,135.203,34.323,135.212z"/>
			<path fill="#FFFFFF" d="M24.315,131.306l1.672-0.138c-0.889-0.385-1.34-1.398-1.354-3.04v-0.055c0-1.614,0.473-2.715,1.416-3.302
				c0.643-0.403,2.146-0.605,4.512-0.605c1.162,0,2.535,0.051,4.121,0.151v3.329c-2.111-0.119-3.748-0.179-4.912-0.179
				c-0.58,0-1.045,0.014-1.395,0.041c-1.025,0.092-1.537,0.532-1.537,1.32c0,0.789,0.273,1.284,0.82,1.486l7.434-0.138l0.021,3.232
				c-3.145,0-6.676,0.143-10.594,0.427L24.315,131.306z"/>
			<path fill="#FFFFFF" d="M31.474,123.19l-0.113-3.15h0.133c1.055,0,1.588-0.436,1.6-1.307v-0.056c0-0.843-0.303-1.265-0.912-1.265
				h-0.072c-0.668,0.036-1.209,0.868-1.619,2.496s-1.1,2.606-2.072,2.937c-0.34,0.12-0.668,0.18-0.984,0.18
				c-0.574,0-1.107-0.197-1.6-0.592c-0.75-0.605-1.182-1.522-1.291-2.751c-0.027-0.33-0.041-0.651-0.041-0.963
				c0-0.816,0.105-1.536,0.318-2.16c0.293-0.853,0.715-1.444,1.26-1.774c0.377-0.22,0.795-0.33,1.252-0.33
				c0.219,0,0.445,0.023,0.676,0.069l0.053,2.943c-0.172-0.027-0.328-0.041-0.473-0.041c-0.684,0-1.049,0.293-1.098,0.88
				c-0.006,0.064-0.01,0.129-0.01,0.192c0,0.605,0.23,1.014,0.688,1.225c0.158,0.073,0.301,0.11,0.43,0.11
				c0.322,0,0.6-0.202,0.832-0.605c0.328-0.568,0.66-1.41,1-2.524c0.338-1.114,0.914-1.863,1.727-2.249
				c0.309-0.138,0.615-0.206,0.924-0.206c0.52,0,1.043,0.202,1.568,0.605c0.84,0.642,1.33,1.637,1.467,2.984
				c0.033,0.294,0.051,0.583,0.051,0.867c0,1.009-0.195,1.944-0.584,2.806C34.081,122.612,33.046,123.172,31.474,123.19z"/>
			<path fill="#FFFFFF" d="M21.312,110.961l-0.154-3.122h3.395l-0.051-2.628l1.938-0.041l0.092,2.669h4.666
				c1.088,0,1.631-0.619,1.631-1.857c0-0.257-0.023-0.536-0.072-0.839l2.256,0.124c0.041,0.439,0.062,0.857,0.062,1.252
				c0,2.897-1.115,4.374-3.344,4.429h-5.014l0.102,2.256l-2.285,0.056l0.02-2.312L21.312,110.961z"/>
			<path fill="#FFFFFF" d="M27.761,100.37l7.436-0.138l0.02,3.37c-3.145,0-6.676,0.143-10.592,0.427l-0.205-2.531l1.672-0.138
				c-0.82-0.385-1.289-1.284-1.406-2.696c-0.012-0.211-0.02-0.412-0.02-0.605c0-1.109,0.27-1.953,0.811-2.53
				c0.643-0.67,1.664-1.009,3.064-1.019l0.227,3.054c-0.115-0.009-0.229-0.014-0.338-0.014c-1.094,0-1.641,0.381-1.641,1.142v0.056
				C26.821,99.627,27.146,100.168,27.761,100.37z"/>
			<path fill="#FFFFFF" d="M35.114,86.448l-1.672,0.138c0.889,0.385,1.336,1.422,1.344,3.108c0.006,0.019,0.01,0.032,0.01,0.042
				c0,1.669-0.561,2.773-1.682,3.314c-0.744,0.367-2.287,0.551-4.625,0.551c-1.203,0-2.621-0.051-4.256-0.151v-3.343
				c2.297,0.184,4.064,0.275,5.303,0.275c0.621,0,1.107-0.023,1.455-0.069c1.066-0.138,1.6-0.601,1.6-1.389
				c0-0.789-0.277-1.284-0.83-1.486l-7.117,0.138l-0.02-3.232c2.939,0,6.365-0.143,10.273-0.427L35.114,86.448z"/>
			<path fill="#FFFFFF" d="M30.89,77.149l0.152-3.273c2.469,0,3.721,1.527,3.754,4.581c0.008,0.036,0.01,0.068,0.01,0.096
				c0,2.907-1.643,4.36-4.932,4.36h-0.309c-3.527-0.091-5.307-1.641-5.342-4.649v-0.109c0-2.77,1.184-4.154,3.549-4.154
				c0.137,0,0.273,0.005,0.41,0.014l0.164,2.957h-0.246c-1.244,0-1.867,0.473-1.867,1.417c0,0.963,1.01,1.444,3.025,1.444h0.338
				c2.182-0.055,3.271-0.541,3.271-1.458v-0.082c-0.047-0.798-0.502-1.197-1.363-1.197C31.319,77.095,31.114,77.113,30.89,77.149z"
				/>
			<path fill="#FFFFFF" d="M30.89,67.107l0.152-3.273c2.469,0,3.721,1.527,3.754,4.581c0.008,0.036,0.01,0.068,0.01,0.096
				c0,2.907-1.643,4.36-4.932,4.36h-0.309c-3.527-0.091-5.307-1.641-5.342-4.649v-0.109c0-2.77,1.184-4.154,3.549-4.154
				c0.137,0,0.273,0.005,0.41,0.014l0.164,2.957h-0.246c-1.244,0-1.867,0.473-1.867,1.417c0,0.963,1.01,1.444,3.025,1.444h0.338
				c2.182-0.055,3.271-0.541,3.271-1.458V68.25c-0.047-0.798-0.502-1.197-1.363-1.197C31.319,67.053,31.114,67.071,30.89,67.107z"/>
			<path fill="#FFFFFF" d="M22.224,58.842c0.418,0,0.773,0.197,1.066,0.591c0.295,0.395,0.441,0.871,0.441,1.431
				c0,0.551-0.146,1.022-0.441,1.417c-0.293,0.395-0.648,0.592-1.066,0.592c-0.41,0-0.762-0.197-1.055-0.592
				c-0.295-0.395-0.441-0.866-0.441-1.417c0-0.56,0.146-1.036,0.441-1.431C21.462,59.039,21.813,58.842,22.224,58.842z
				 M35.165,62.528c-4,0.063-7.455,0.096-10.367,0.096l-0.154-3.466c2.789,0.109,5.562,0.165,8.316,0.165
				c0.738,0,1.475-0.005,2.205-0.015V62.528z"/>
			<path fill="#FFFFFF" d="M24.583,53.242c0-3.117,1.613-4.677,4.84-4.677c0.131,0,0.26,0.005,0.389,0.014
				c3.494,0.129,5.258,1.788,5.291,4.979c0.008,0.037,0.012,0.074,0.012,0.11c0,3.035-1.652,4.553-4.953,4.553h-0.287
				C26.347,58.131,24.583,56.471,24.583,53.242z M26.921,53.696c0.15,0.578,0.707,0.973,1.672,1.184
				c0.574,0.128,1.152,0.192,1.732,0.192c0.389,0,0.783-0.027,1.18-0.083c0.984-0.146,1.494-0.619,1.527-1.417v-0.096
				c0-0.743-0.365-1.252-1.098-1.527c-0.607-0.229-1.328-0.344-2.164-0.344c-0.205,0-0.412,0.005-0.625,0.014
				c-1.1,0.074-1.787,0.294-2.061,0.66c-0.164,0.229-0.246,0.505-0.246,0.826C26.839,53.288,26.866,53.485,26.921,53.696z"/>
			<path fill="#FFFFFF" d="M24.315,45.278l1.672-0.138c-0.889-0.385-1.34-1.398-1.354-3.04v-0.055c0-1.614,0.473-2.715,1.416-3.302
				c0.643-0.403,2.146-0.605,4.512-0.605c1.162,0,2.535,0.051,4.121,0.151v3.329c-2.111-0.119-3.748-0.179-4.912-0.179
				c-0.58,0-1.045,0.014-1.395,0.041c-1.025,0.092-1.537,0.532-1.537,1.32c0,0.789,0.273,1.284,0.82,1.486l7.434-0.138l0.021,3.232
				c-3.145,0-6.676,0.143-10.594,0.427L24.315,45.278z"/>
			<path fill="#FFFFFF" d="M24.583,32.527c0-3.183,1.576-4.773,4.727-4.773c0.383,0,0.793,0.022,1.23,0.068v6.149
				c1.758,0,2.635-0.454,2.635-1.362v-0.096c-0.047-0.798-0.502-1.197-1.363-1.197c-0.184,0-0.389,0.019-0.615,0.055l-0.051-3.273
				c2.604,0,3.924,1.527,3.957,4.581c0.008,0.036,0.012,0.068,0.012,0.096c0,2.907-1.645,4.36-4.934,4.36h-0.307
				C26.347,37.044,24.583,35.508,24.583,32.527z M28.653,34.302v-3.109h-0.246c-1.244,0-1.865,0.473-1.865,1.417
				C26.542,33.628,27.245,34.191,28.653,34.302z"/>
			<path fill="#FFFFFF" d="M31.474,26.888l-0.113-3.15h0.133c1.055,0,1.588-0.436,1.6-1.307v-0.056c0-0.843-0.303-1.265-0.912-1.265
				h-0.072c-0.668,0.036-1.209,0.868-1.619,2.496s-1.1,2.606-2.072,2.937c-0.34,0.12-0.668,0.18-0.984,0.18
				c-0.574,0-1.107-0.197-1.6-0.592c-0.75-0.605-1.182-1.522-1.291-2.751c-0.027-0.33-0.041-0.651-0.041-0.963
				c0-0.816,0.105-1.536,0.318-2.16c0.293-0.853,0.715-1.444,1.26-1.774c0.377-0.22,0.795-0.33,1.252-0.33
				c0.219,0,0.445,0.023,0.676,0.069l0.053,2.943c-0.172-0.027-0.328-0.041-0.473-0.041c-0.684,0-1.049,0.293-1.098,0.88
				c-0.006,0.064-0.01,0.129-0.01,0.192c0,0.605,0.23,1.014,0.688,1.225c0.158,0.073,0.301,0.11,0.43,0.11
				c0.322,0,0.6-0.202,0.832-0.605c0.328-0.568,0.66-1.41,1-2.524c0.338-1.114,0.914-1.863,1.727-2.249
				c0.309-0.138,0.615-0.206,0.924-0.206c0.52,0,1.043,0.202,1.568,0.605c0.84,0.642,1.33,1.637,1.467,2.984
				c0.033,0.294,0.051,0.583,0.051,0.867c0,1.009-0.195,1.944-0.584,2.806C34.081,26.31,33.046,26.869,31.474,26.888z"/>
		</g>
	</g>
	<g>
		<path fill-rule="evenodd" clip-rule="evenodd" fill="#FFFFFF" d="M11.75,188.374c0.051-0.222,0.084-0.448,0.156-0.662
			c0.391-1.175,1.264-1.833,2.402-2.194c0.092-0.029,0.189-0.051,0.303-0.08c0-1.047,0-2.089,0-3.131
			c0-0.209-0.006-0.418,0.002-0.626c0.018-0.528,0.424-0.968,0.953-1.001c0.365-0.021,0.73-0.004,1.09-0.004
			c0.113-0.682,0.277-0.885,0.703-0.898c0.459-0.015,0.641,0.184,0.783,0.871c0.318,0,0.641,0,0.98,0
			c-0.113-0.512-0.068-0.992,0.355-1.312c0.225-0.167,0.535-0.308,0.807-0.31c4.947-0.018,9.895-0.016,14.842-0.012
			c0.77,0.001,1.332,0.685,1.199,1.438c-0.01,0.058-0.01,0.115-0.016,0.212c0.121,0,0.229,0,0.336,0c0.982,0,1.965-0.003,2.949,0
			c0.797,0.002,1.217,0.407,1.219,1.209c0.008,1.897,0.008,3.796,0,5.691c-0.002,0.807-0.416,1.21-1.217,1.212
			c-7.93,0-15.857,0-23.785-0.002c-0.801,0-1.199-0.408-1.201-1.216c0-0.179,0-0.356,0-0.537c-0.613,0.067-1.217,0.767-1.254,1.44
			c-0.053,0.921,0.521,1.666,1.516,1.937c0.76,0.206,1.535,0.284,2.326,0.271c1.051-0.018,2.111-0.074,3.152,0.047
			c2.154,0.249,3.904,1.307,5.283,2.973c0.375,0.449,0.242,0.893-0.352,1.302c-0.119,0-0.238,0-0.359,0
			c-0.139-0.124-0.277-0.248-0.418-0.371c-0.525-0.466-1.012-0.989-1.588-1.38c-1.363-0.926-2.918-1.146-4.537-1.129
			c-1.076,0.012-2.164,0.008-3.23-0.123c-1.299-0.157-2.328-0.847-2.961-2.009c-0.232-0.429-0.299-0.948-0.439-1.427
			C11.75,188.492,11.75,188.434,11.75,188.374z"/>
		<path fill-rule="evenodd" clip-rule="evenodd" fill="#FFFFFF" d="M25.818,161.129c0.287,0.066,0.586,0.107,0.861,0.207
			c1.652,0.605,2.705,1.758,2.992,3.504c0.291,1.76-0.34,3.195-1.752,4.276c-0.168,0.128-0.221,0.241-0.18,0.443
			c0.42,1.976,0.828,3.952,1.242,5.929c0.018,0.078,0.043,0.152,0.074,0.261c0.102,0,0.209,0,0.316,0
			c0.785,0,1.568-0.008,2.355,0.003c0.625,0.009,1.016,0.521,0.816,1.051c-0.057,0.152-0.139,0.234-0.326,0.234
			c-3-0.006-6-0.008-9,0c-0.271,0.002-0.344-0.154-0.375-0.36c-0.086-0.531,0.271-0.918,0.861-0.925
			c0.654-0.01,1.309-0.003,1.965-0.003c0.107,0,0.217,0,0.371,0c-0.117-0.566-0.227-1.104-0.338-1.644
			c-0.271-1.297-0.553-2.594-0.811-3.896c-0.039-0.205-0.123-0.269-0.314-0.299c-1.822-0.306-3.215-1.657-3.596-3.476
			c-0.52-2.486,1.172-4.893,3.689-5.252c0.045-0.006,0.088-0.035,0.135-0.055C25.143,161.129,25.48,161.129,25.818,161.129z
			 M28.076,165.365c-0.047-1.047-0.4-1.788-1.201-2.27c-0.393-0.234-0.742-0.154-0.951,0.191c-0.203,0.333-0.111,0.576,0.309,0.841
			c0.521,0.325,0.744,0.896,0.586,1.491c-0.025,0.095-0.061,0.189-0.07,0.287c-0.033,0.299,0.203,0.631,0.484,0.701
			c0.279,0.069,0.551-0.086,0.652-0.42C27.98,165.879,28.033,165.555,28.076,165.365z"/>
		<path fill-rule="evenodd" clip-rule="evenodd" fill="#FFFFFF" d="M27.703,178.652c-2.246,0-4.49,0-6.734,0
			c-0.301,0-0.357-0.064-0.328-0.367c0.045-0.48,0.41-0.844,0.891-0.888c0.098-0.009,0.197-0.011,0.295-0.011
			c3.926,0,7.85,0.002,11.771-0.004c0.408,0,0.773,0.066,1.01,0.438c0.062,0.101,0.117,0.211,0.143,0.325
			c0.096,0.421,0.021,0.507-0.402,0.507C32.133,178.652,29.918,178.652,27.703,178.652z"/>
	</g>
</g>
</svg>
