<?xml version="1.0" encoding="utf-8"?>
<!-- Generator: Adobe Illustrator 16.0.0, SVG Export Plug-In . SVG Version: 6.00 Build 0)  -->
<!DOCTYPE svg PUBLIC "-//W3C//DTD SVG 1.1//EN" "http://www.w3.org/Graphics/SVG/1.1/DTD/svg11.dtd">
<svg version="1.1" id="Capa_1" xmlns="http://www.w3.org/2000/svg" xmlns:xlink="http://www.w3.org/1999/xlink" x="0px" y="0px"
	 width="289.579px" height="272.522px" viewBox="0 0 289.579 272.522" enable-background="new 0 0 289.579 272.522"
	 xml:space="preserve">
<path fill-rule="evenodd" clip-rule="evenodd" fill="#2B1C48" d="M289.579,13.102c0,6.918-6.244,12.526-13.945,12.526h-9.379
	c-7.701,0-9.26-1.104-9.26-1.104l-2.259-12.209L252.273-1h23.36c7.701,0,13.945,5.61,13.945,12.528V13.102z"/>
<g>
	<path fill="#FFFFFF" d="M269.649,17.461c0-3.43,0-6.861,0-10.289c0.02-0.039,0.047-0.078,0.055-0.119
		c0.219-1.363,1.371-2.389,2.762-2.392c3.236-0.02,6.471-0.02,9.705,0c1.537,0.007,2.795,1.264,2.803,2.8
		c0.018,3.236,0.012,6.471,0,9.703c-0.002,0.703-0.254,1.322-0.732,1.854c-0.482,0.539-1.09,0.825-1.781,0.965
		c-3.43,0-6.859,0-10.289,0c-0.541-0.123-1.051-0.303-1.486-0.673C270.108,18.818,269.792,18.192,269.649,17.461z M277.315,17.447
		c1.523,0,3.043,0,4.564-0.002c0.455,0,0.562-0.105,0.562-0.557c0.004-3.043,0.004-6.086,0-9.127c0-0.468-0.104-0.572-0.582-0.572
		c-3.031-0.002-6.061-0.002-9.092,0c-0.475,0-0.58,0.104-0.58,0.574c-0.002,3.03-0.002,6.061,0,9.092c0,0.492,0.1,0.59,0.6,0.59
		C274.298,17.447,275.806,17.447,277.315,17.447z"/>
	<path fill-rule="evenodd" clip-rule="evenodd" fill="#FFFFFF" d="M277.341,9.764c1.02,0,2.041,0,3.062-0.003
		c0.281,0,0.512,0.067,0.658,0.328c0.156,0.275,0.088,0.512-0.084,0.752c-1.039,1.443-2.07,2.895-3.109,4.34
		c-0.324,0.453-0.787,0.446-1.117-0.012c-1.029-1.436-2.055-2.879-3.086-4.312c-0.172-0.236-0.26-0.473-0.105-0.754
		c0.148-0.274,0.391-0.343,0.684-0.341C275.274,9.766,276.308,9.764,277.341,9.764z"/>
</g>
<g>
	<g>
		<polygon opacity="0.8" fill="#2B1C48" points="278.212,271.522 0,216.289 0,-1 252.273,-1 274.321,118.173 		"/>
	</g>
</g>
</svg>
