<?xml version="1.0" encoding="utf-8"?>
<!-- Generator: Adobe Illustrator 16.0.0, SVG Export Plug-In . SVG Version: 6.00 Build 0)  -->
<!DOCTYPE svg PUBLIC "-//W3C//DTD SVG 1.1//EN" "http://www.w3.org/Graphics/SVG/1.1/DTD/svg11.dtd">
<svg version="1.1" id="Capa_1" xmlns="http://www.w3.org/2000/svg" xmlns:xlink="http://www.w3.org/1999/xlink" x="0px" y="0px"
	 width="289.579px" height="278.772px" viewBox="0 0 289.579 278.772" enable-background="new 0 0 289.579 278.772"
	 xml:space="preserve">
<path fill-rule="evenodd" clip-rule="evenodd" fill="#2B1C48" d="M289.579,14.102c0,6.918-6.244,12.526-13.945,12.526h-9.379
	c-7.701,0-9.26-1.104-9.26-1.104l-2.259-12.209L252.273,0h23.36c7.701,0,13.945,5.61,13.945,12.528V14.102z"/>
<g>
	<path fill="#FFFFFF" d="M269.649,18.461c0-3.43,0-6.861,0-10.289c0.02-0.039,0.047-0.078,0.055-0.119
		c0.219-1.363,1.371-2.389,2.762-2.392c3.236-0.02,6.471-0.02,9.705,0c1.537,0.007,2.795,1.264,2.803,2.8
		c0.018,3.236,0.012,6.471,0,9.703c-0.002,0.703-0.254,1.322-0.732,1.854c-0.482,0.539-1.09,0.825-1.781,0.965
		c-3.43,0-6.859,0-10.289,0c-0.541-0.123-1.051-0.303-1.486-0.673C270.108,19.818,269.792,19.192,269.649,18.461z M277.315,18.447
		c1.523,0,3.043,0,4.564-0.002c0.455,0,0.562-0.105,0.562-0.557c0.004-3.043,0.004-6.086,0-9.127c0-0.468-0.104-0.572-0.582-0.572
		c-3.031-0.002-6.061-0.002-9.092,0c-0.475,0-0.58,0.104-0.58,0.574c-0.002,3.03-0.002,6.061,0,9.092c0,0.492,0.1,0.59,0.6,0.59
		C274.298,18.447,275.806,18.447,277.315,18.447z"/>
	<path fill-rule="evenodd" clip-rule="evenodd" fill="#FFFFFF" d="M277.341,10.764c1.02,0,2.041,0,3.062-0.003
		c0.281,0,0.512,0.067,0.658,0.328c0.156,0.275,0.088,0.512-0.084,0.752c-1.039,1.443-2.07,2.895-3.109,4.34
		c-0.324,0.453-0.787,0.446-1.117-0.012c-1.029-1.436-2.055-2.879-3.086-4.312c-0.172-0.236-0.26-0.473-0.105-0.754
		c0.148-0.274,0.391-0.343,0.684-0.341C275.274,10.766,276.308,10.764,277.341,10.764z"/>
</g>
<g>
	<g>
		<polygon opacity="0.8" fill="#2B1C48" points="278.212,272.522 0,217.289 0,0 252.273,0 274.321,119.173 		"/>
	</g>
	<g>
		<rect x="12.935" y="11.244" fill="none" width="237.42" height="301.502"/>
		<path fill="#FFFFFF" d="M16.449,20.707l-1.33,4.027h-1.71l4.37-12.804h1.976l4.369,12.804h-1.767l-1.368-4.027H16.449z
			 M20.666,19.415l-1.272-3.686c-0.285-0.836-0.475-1.596-0.665-2.337H18.69c-0.189,0.741-0.38,1.539-0.646,2.318l-1.254,3.704
			H20.666z"/>
		<path fill="#FFFFFF" d="M41.399,24.411c-0.437,0.209-1.405,0.532-2.641,0.532c-2.773,0-4.578-1.881-4.578-4.692
			c0-2.83,1.938-4.901,4.939-4.901c0.988,0,1.861,0.247,2.317,0.494l-0.38,1.272c-0.398-0.209-1.025-0.437-1.938-0.437
			c-2.108,0-3.248,1.576-3.248,3.477c0,2.128,1.367,3.438,3.191,3.438c0.949,0,1.576-0.229,2.052-0.438L41.399,24.411z"/>
		<path fill="#FFFFFF" d="M50.558,20.062c0,3.4-2.375,4.882-4.579,4.882c-2.47,0-4.407-1.824-4.407-4.73
			c0-3.059,2.033-4.863,4.56-4.863C48.771,15.35,50.558,17.269,50.558,20.062z M43.281,20.156c0,2.014,1.14,3.533,2.773,3.533
			c1.596,0,2.793-1.501,2.793-3.571c0-1.558-0.779-3.515-2.755-3.515C44.136,16.604,43.281,18.428,43.281,20.156z"/>
		<path fill="#FFFFFF" d="M51.659,18.028c0-0.969-0.019-1.729-0.076-2.488h1.482l0.095,1.52h0.038c0.456-0.854,1.52-1.71,3.039-1.71
			c1.273,0,3.249,0.76,3.249,3.914v5.471h-1.672v-5.3c0-1.482-0.551-2.717-2.128-2.717c-1.083,0-1.938,0.778-2.241,1.71
			c-0.076,0.209-0.114,0.493-0.114,0.778v5.528h-1.672V18.028z"/>
		<path fill="#FFFFFF" d="M63.136,13.336v2.204h2.394v1.272h-2.394v4.958c0,1.14,0.323,1.786,1.254,1.786
			c0.456,0,0.722-0.038,0.969-0.114l0.076,1.273c-0.323,0.113-0.836,0.228-1.481,0.228c-0.779,0-1.406-0.266-1.805-0.703
			c-0.456-0.513-0.646-1.33-0.646-2.412v-5.016h-1.425V15.54h1.425v-1.71L63.136,13.336z"/>
		<path fill="#FFFFFF" d="M68.266,12.956c0,0.57-0.398,1.026-1.063,1.026c-0.607,0-1.007-0.456-1.007-1.026s0.418-1.045,1.045-1.045
			C67.849,11.911,68.266,12.367,68.266,12.956z M66.404,24.734V15.54h1.672v9.194H66.404z"/>
		<path fill="#FFFFFF" d="M69.844,18.028c0-0.969-0.019-1.729-0.076-2.488h1.482l0.095,1.52h0.038c0.456-0.854,1.52-1.71,3.039-1.71
			c1.273,0,3.249,0.76,3.249,3.914v5.471h-1.672v-5.3c0-1.482-0.551-2.717-2.128-2.717c-1.083,0-1.938,0.778-2.241,1.71
			c-0.076,0.209-0.114,0.493-0.114,0.778v5.528h-1.672V18.028z"/>
		<path fill="#FFFFFF" d="M87.076,22.208c0,0.969,0.019,1.805,0.075,2.526H85.67l-0.095-1.501h-0.038
			c-0.418,0.741-1.406,1.71-3.04,1.71c-1.443,0-3.172-0.816-3.172-4.027V15.54h1.672v5.072c0,1.747,0.551,2.944,2.052,2.944
			c1.12,0,1.899-0.779,2.203-1.539c0.095-0.228,0.152-0.531,0.152-0.854V15.54h1.672V22.208z"/>
		<path fill="#FFFFFF" d="M95.303,22.53c0,0.798,0.038,1.577,0.133,2.204h-1.5l-0.134-1.159h-0.057
			c-0.513,0.723-1.501,1.368-2.812,1.368c-1.861,0-2.812-1.311-2.812-2.641c0-2.223,1.976-3.438,5.528-3.42v-0.189
			c0-0.741-0.209-2.128-2.09-2.108c-0.874,0-1.767,0.247-2.413,0.684l-0.38-1.121c0.76-0.475,1.881-0.798,3.04-0.798
			c2.812,0,3.495,1.919,3.495,3.742V22.53z M93.688,20.042c-1.824-0.038-3.895,0.285-3.895,2.07c0,1.103,0.722,1.597,1.558,1.597
			c1.216,0,1.994-0.761,2.261-1.539c0.057-0.19,0.076-0.38,0.076-0.532V20.042z"/>
		<path fill="#FFFFFF" d="M103.548,24.411c-0.437,0.209-1.405,0.532-2.641,0.532c-2.773,0-4.578-1.881-4.578-4.692
			c0-2.83,1.938-4.901,4.939-4.901c0.988,0,1.861,0.247,2.317,0.494l-0.38,1.272c-0.398-0.209-1.025-0.437-1.938-0.437
			c-2.108,0-3.248,1.576-3.248,3.477c0,2.128,1.367,3.438,3.191,3.438c0.949,0,1.576-0.229,2.052-0.438L103.548,24.411z"/>
		<path fill="#FFFFFF" d="M106.36,12.956c0,0.57-0.398,1.026-1.063,1.026c-0.607,0-1.007-0.456-1.007-1.026s0.418-1.045,1.045-1.045
			C105.943,11.911,106.36,12.367,106.36,12.956z M104.499,24.734V15.54h1.672v9.194H104.499z"/>
		<path fill="#FFFFFF" d="M116.26,20.062c0,3.4-2.375,4.882-4.579,4.882c-2.47,0-4.407-1.824-4.407-4.73
			c0-3.059,2.033-4.863,4.56-4.863C114.474,15.35,116.26,17.269,116.26,20.062z M108.983,20.156c0,2.014,1.14,3.533,2.773,3.533
			c1.596,0,2.793-1.501,2.793-3.571c0-1.558-0.779-3.515-2.755-3.515C109.838,16.604,108.983,18.428,108.983,20.156z
			 M114.265,11.569l-2.317,2.717h-1.178l1.652-2.717H114.265z"/>
		<path fill="#FFFFFF" d="M117.362,18.028c0-0.969-0.019-1.729-0.076-2.488h1.482l0.095,1.52h0.038
			c0.456-0.854,1.52-1.71,3.039-1.71c1.273,0,3.249,0.76,3.249,3.914v5.471h-1.672v-5.3c0-1.482-0.551-2.717-2.128-2.717
			c-1.083,0-1.938,0.778-2.241,1.71c-0.076,0.209-0.114,0.493-0.114,0.778v5.528h-1.672V18.028z"/>
		<path fill="#FFFFFF" d="M136.804,11.246h1.672v13.488h-1.672V11.246z"/>
		<path fill="#FFFFFF" d="M141.211,20.441c0.038,2.261,1.463,3.191,3.153,3.191c1.197,0,1.938-0.209,2.546-0.476l0.304,1.197
			c-0.589,0.266-1.614,0.589-3.077,0.589c-2.83,0-4.521-1.881-4.521-4.654s1.634-4.939,4.312-4.939c3.021,0,3.8,2.622,3.8,4.312
			c0,0.342-0.02,0.589-0.058,0.779H141.211z M146.112,19.244c0.02-1.045-0.437-2.697-2.317-2.697c-1.71,0-2.432,1.538-2.564,2.697
			H146.112z"/>
		<path fill="#FFFFFF" d="M158.694,18.541c0-1.178-0.038-2.127-0.076-3.001h1.482l0.095,1.576h0.038
			c0.665-1.12,1.767-1.767,3.268-1.767c2.241,0,3.913,1.881,3.913,4.654c0,3.306-2.032,4.939-4.198,4.939
			c-1.216,0-2.279-0.532-2.831-1.443h-0.038v4.996h-1.652V18.541z M160.347,20.992c0,0.247,0.02,0.475,0.076,0.684
			c0.305,1.159,1.312,1.957,2.508,1.957c1.767,0,2.793-1.444,2.793-3.553c0-1.824-0.969-3.4-2.736-3.4
			c-1.14,0-2.223,0.798-2.526,2.052c-0.057,0.209-0.114,0.456-0.114,0.665V20.992z"/>
		<path fill="#FFFFFF" d="M168.498,18.408c0-1.083-0.019-2.014-0.076-2.868h1.463l0.076,1.823h0.057
			c0.418-1.234,1.444-2.014,2.565-2.014c0.171,0,0.304,0.02,0.455,0.038v1.577c-0.171-0.038-0.342-0.038-0.569-0.038
			c-1.178,0-2.014,0.874-2.242,2.128c-0.038,0.228-0.057,0.513-0.057,0.778v4.901h-1.672V18.408z"/>
		<path fill="#FFFFFF" d="M174.444,20.441c0.038,2.261,1.463,3.191,3.154,3.191c1.196,0,1.938-0.209,2.545-0.476l0.304,1.197
			c-0.589,0.266-1.614,0.589-3.077,0.589c-2.83,0-4.521-1.881-4.521-4.654s1.634-4.939,4.312-4.939c3.021,0,3.8,2.622,3.8,4.312
			c0,0.342-0.02,0.589-0.058,0.779H174.444z M179.346,19.244c0.02-1.045-0.437-2.697-2.317-2.697c-1.71,0-2.432,1.538-2.564,2.697
			H179.346z"/>
		<path fill="#FFFFFF" d="M181.798,23.044c0.513,0.304,1.387,0.646,2.223,0.646c1.196,0,1.767-0.589,1.767-1.368
			c0-0.798-0.476-1.216-1.691-1.671c-1.671-0.608-2.45-1.501-2.45-2.604c0-1.481,1.216-2.697,3.173-2.697
			c0.931,0,1.747,0.247,2.241,0.57l-0.398,1.216c-0.361-0.229-1.026-0.551-1.881-0.551c-0.988,0-1.52,0.569-1.52,1.254
			c0,0.76,0.531,1.102,1.729,1.576c1.576,0.589,2.412,1.387,2.412,2.755c0,1.634-1.272,2.773-3.419,2.773
			c-1.007,0-1.938-0.266-2.584-0.646L181.798,23.044z"/>
		<path fill="#FFFFFF" d="M189.473,20.441c0.038,2.261,1.463,3.191,3.153,3.191c1.197,0,1.938-0.209,2.546-0.476l0.304,1.197
			c-0.589,0.266-1.614,0.589-3.077,0.589c-2.83,0-4.521-1.881-4.521-4.654s1.634-4.939,4.312-4.939c3.021,0,3.8,2.622,3.8,4.312
			c0,0.342-0.02,0.589-0.058,0.779H189.473z M194.374,19.244c0.02-1.045-0.437-2.697-2.317-2.697c-1.71,0-2.432,1.538-2.564,2.697
			H194.374z"/>
		<path fill="#FFFFFF" d="M197.054,18.028c0-0.969-0.019-1.729-0.076-2.488h1.482l0.095,1.52h0.038
			c0.456-0.854,1.52-1.71,3.039-1.71c1.273,0,3.249,0.76,3.249,3.914v5.471h-1.672v-5.3c0-1.482-0.551-2.717-2.128-2.717
			c-1.083,0-1.938,0.778-2.241,1.71c-0.076,0.209-0.114,0.493-0.114,0.778v5.528h-1.672V18.028z"/>
		<path fill="#FFFFFF" d="M208.528,13.336v2.204h2.394v1.272h-2.394v4.958c0,1.14,0.323,1.786,1.254,1.786
			c0.456,0,0.722-0.038,0.969-0.114l0.076,1.273c-0.323,0.113-0.836,0.228-1.481,0.228c-0.779,0-1.406-0.266-1.805-0.703
			c-0.456-0.513-0.646-1.33-0.646-2.412v-5.016h-1.425V15.54h1.425v-1.71L208.528,13.336z"/>
		<path fill="#FFFFFF" d="M218.256,22.53c0,0.798,0.038,1.577,0.133,2.204h-1.5l-0.134-1.159h-0.057
			c-0.513,0.723-1.501,1.368-2.812,1.368c-1.861,0-2.812-1.311-2.812-2.641c0-2.223,1.976-3.438,5.528-3.42v-0.189
			c0-0.741-0.209-2.128-2.09-2.108c-0.874,0-1.767,0.247-2.413,0.684l-0.38-1.121c0.76-0.475,1.881-0.798,3.04-0.798
			c2.812,0,3.495,1.919,3.495,3.742V22.53z M216.642,20.042c-1.824-0.038-3.895,0.285-3.895,2.07c0,1.103,0.722,1.597,1.558,1.597
			c1.216,0,1.994-0.761,2.261-1.539c0.057-0.19,0.076-0.38,0.076-0.532V20.042z"/>
		<path fill="#FFFFFF" d="M219.948,18.028c0-0.969-0.038-1.729-0.076-2.488h1.463l0.076,1.5h0.057
			c0.514-0.873,1.368-1.69,2.907-1.69c1.234,0,2.185,0.76,2.583,1.843h0.038c0.285-0.532,0.665-0.912,1.045-1.196
			c0.551-0.418,1.14-0.646,2.014-0.646c1.235,0,3.04,0.798,3.04,3.989v5.396h-1.634v-5.187c0-1.785-0.665-2.83-1.995-2.83
			c-0.969,0-1.69,0.703-1.994,1.501c-0.076,0.246-0.134,0.531-0.134,0.836v5.68h-1.634v-5.509c0-1.463-0.646-2.508-1.918-2.508
			c-1.026,0-1.805,0.836-2.071,1.672c-0.095,0.228-0.133,0.531-0.133,0.816v5.528h-1.634V18.028z"/>
		<path fill="#FFFFFF" d="M243.108,20.062c0,3.4-2.375,4.882-4.579,4.882c-2.47,0-4.407-1.824-4.407-4.73
			c0-3.059,2.033-4.863,4.56-4.863C241.322,15.35,243.108,17.269,243.108,20.062z M235.832,20.156c0,2.014,1.14,3.533,2.773,3.533
			c1.596,0,2.793-1.501,2.793-3.571c0-1.558-0.779-3.515-2.755-3.515C236.687,16.604,235.832,18.428,235.832,20.156z"/>
		<path fill="#FFFFFF" d="M243.983,23.044c0.513,0.304,1.387,0.646,2.223,0.646c1.196,0,1.767-0.589,1.767-1.368
			c0-0.798-0.476-1.216-1.691-1.671c-1.671-0.608-2.45-1.501-2.45-2.604c0-1.481,1.216-2.697,3.173-2.697
			c0.931,0,1.747,0.247,2.241,0.57l-0.398,1.216c-0.361-0.229-1.026-0.551-1.881-0.551c-0.988,0-1.52,0.569-1.52,1.254
			c0,0.76,0.531,1.102,1.729,1.576c1.576,0.589,2.412,1.387,2.412,2.755c0,1.634-1.272,2.773-3.419,2.773
			c-1.007,0-1.938-0.266-2.584-0.646L243.983,23.044z"/>
		<path fill="#FFFFFF" d="M22.243,34.046v11.113c0,0.817,0.038,1.748,0.076,2.375h-1.482l-0.075-1.596h-0.058
			c-0.493,1.025-1.596,1.805-3.097,1.805c-2.223,0-3.951-1.881-3.951-4.673c-0.019-3.059,1.9-4.921,4.123-4.921
			c1.425,0,2.355,0.665,2.773,1.387h0.038v-5.49H22.243z M20.591,42.082c0-0.209-0.02-0.494-0.076-0.703
			c-0.247-1.045-1.159-1.919-2.413-1.919c-1.729,0-2.754,1.521-2.754,3.534c0,1.861,0.931,3.4,2.716,3.4
			c1.121,0,2.147-0.76,2.451-1.995c0.057-0.228,0.076-0.456,0.076-0.722V42.082z"/>
		<path fill="#FFFFFF" d="M32.352,42.861c0,3.4-2.375,4.882-4.579,4.882c-2.47,0-4.407-1.824-4.407-4.73
			c0-3.059,2.033-4.863,4.56-4.863C30.565,38.149,32.352,40.068,32.352,42.861z M25.075,42.956c0,2.014,1.14,3.533,2.773,3.533
			c1.596,0,2.793-1.501,2.793-3.571c0-1.558-0.779-3.515-2.755-3.515C25.93,39.403,25.075,41.228,25.075,42.956z"/>
		<path fill="#FFFFFF" d="M33.227,45.844c0.513,0.304,1.387,0.646,2.223,0.646c1.196,0,1.767-0.589,1.767-1.368
			c0-0.798-0.476-1.216-1.691-1.671c-1.671-0.608-2.45-1.501-2.45-2.603c0-1.482,1.216-2.698,3.173-2.698
			c0.931,0,1.747,0.247,2.241,0.57l-0.398,1.216c-0.361-0.229-1.026-0.551-1.881-0.551c-0.988,0-1.52,0.569-1.52,1.254
			c0,0.76,0.531,1.102,1.729,1.576c1.576,0.589,2.412,1.387,2.412,2.755c0,1.634-1.272,2.773-3.419,2.773
			c-1.007,0-1.938-0.266-2.584-0.646L33.227,45.844z"/>
		<path fill="#FFFFFF" d="M44.586,40.828c0-0.969-0.038-1.729-0.076-2.488h1.463l0.076,1.5h0.057c0.514-0.873,1.368-1.69,2.907-1.69
			c1.234,0,2.185,0.76,2.583,1.843h0.038c0.285-0.532,0.665-0.912,1.045-1.196c0.551-0.418,1.14-0.646,2.014-0.646
			c1.235,0,3.04,0.798,3.04,3.989v5.396h-1.634v-5.187c0-1.785-0.665-2.83-1.995-2.83c-0.969,0-1.69,0.703-1.994,1.501
			c-0.076,0.246-0.134,0.531-0.134,0.836v5.68h-1.634v-5.509c0-1.463-0.646-2.508-1.918-2.508c-1.026,0-1.805,0.836-2.071,1.672
			c-0.095,0.228-0.133,0.531-0.133,0.816v5.528h-1.634V40.828z"/>
		<path fill="#FFFFFF" d="M65.884,45.33c0,0.798,0.038,1.577,0.133,2.204h-1.5l-0.134-1.159h-0.057
			c-0.513,0.723-1.501,1.368-2.812,1.368c-1.861,0-2.812-1.311-2.812-2.641c0-2.223,1.976-3.438,5.528-3.42v-0.189
			c0-0.741-0.209-2.128-2.09-2.108c-0.874,0-1.767,0.246-2.413,0.684l-0.38-1.121c0.76-0.475,1.881-0.798,3.04-0.798
			c2.812,0,3.495,1.919,3.495,3.742V45.33z M64.27,42.842c-1.824-0.038-3.895,0.285-3.895,2.07c0,1.103,0.722,1.597,1.558,1.597
			c1.216,0,1.994-0.761,2.261-1.539c0.057-0.19,0.076-0.38,0.076-0.532V42.842z"/>
		<path fill="#FFFFFF" d="M67.576,40.828c0-0.969-0.019-1.729-0.076-2.488h1.482l0.095,1.52h0.038c0.456-0.854,1.52-1.71,3.039-1.71
			c1.273,0,3.249,0.76,3.249,3.913v5.472h-1.672v-5.3c0-1.482-0.551-2.717-2.128-2.717c-1.083,0-1.938,0.778-2.241,1.71
			c-0.076,0.209-0.114,0.493-0.114,0.778v5.528h-1.672V40.828z"/>
		<path fill="#FFFFFF" d="M78.045,43.241c0.038,2.261,1.463,3.191,3.153,3.191c1.197,0,1.938-0.209,2.546-0.476l0.304,1.197
			c-0.589,0.266-1.614,0.589-3.077,0.589c-2.83,0-4.521-1.881-4.521-4.654s1.634-4.939,4.312-4.939c3.021,0,3.8,2.622,3.8,4.312
			c0,0.342-0.02,0.589-0.058,0.779H78.045z M82.946,42.044c0.02-1.045-0.437-2.697-2.317-2.697c-1.71,0-2.432,1.538-2.564,2.697
			H82.946z"/>
		<path fill="#FFFFFF" d="M85.626,41.208c0-1.083-0.019-2.014-0.076-2.868h1.463l0.076,1.823h0.057
			c0.418-1.234,1.444-2.014,2.564-2.014c0.172,0,0.305,0.02,0.456,0.038v1.577c-0.171-0.038-0.342-0.038-0.569-0.038
			c-1.178,0-2.014,0.874-2.242,2.128c-0.038,0.228-0.057,0.513-0.057,0.778v4.901h-1.672V41.208z"/>
		<path fill="#FFFFFF" d="M97.195,45.33c0,0.798,0.038,1.577,0.133,2.204h-1.5l-0.134-1.159h-0.057
			c-0.513,0.723-1.501,1.368-2.812,1.368c-1.861,0-2.812-1.311-2.812-2.641c0-2.223,1.976-3.438,5.528-3.42v-0.189
			c0-0.741-0.209-2.128-2.09-2.108c-0.874,0-1.767,0.246-2.413,0.684l-0.38-1.121c0.76-0.475,1.881-0.798,3.04-0.798
			c2.812,0,3.495,1.919,3.495,3.742V45.33z M95.581,42.842c-1.824-0.038-3.895,0.285-3.895,2.07c0,1.103,0.722,1.597,1.558,1.597
			c1.216,0,1.994-0.761,2.261-1.539c0.057-0.19,0.076-0.38,0.076-0.532V42.842z"/>
		<path fill="#FFFFFF" d="M98.66,45.844c0.513,0.304,1.387,0.646,2.223,0.646c1.196,0,1.767-0.589,1.767-1.368
			c0-0.798-0.476-1.216-1.691-1.671c-1.671-0.608-2.45-1.501-2.45-2.603c0-1.482,1.216-2.698,3.173-2.698
			c0.931,0,1.747,0.247,2.241,0.57l-0.398,1.216c-0.361-0.229-1.026-0.551-1.881-0.551c-0.988,0-1.52,0.569-1.52,1.254
			c0,0.76,0.531,1.102,1.729,1.576c1.576,0.589,2.412,1.387,2.412,2.755c0,1.634-1.272,2.773-3.419,2.773
			c-1.007,0-1.938-0.266-2.584-0.646L98.66,45.844z"/>
		<path fill="#FFFFFF" d="M117.943,34.046v11.113c0,0.817,0.038,1.748,0.076,2.375h-1.481l-0.076-1.596h-0.058
			c-0.493,1.025-1.596,1.805-3.097,1.805c-2.223,0-3.951-1.881-3.951-4.673c-0.019-3.059,1.9-4.921,4.123-4.921
			c1.425,0,2.355,0.665,2.773,1.387h0.038v-5.49H117.943z M116.291,42.082c0-0.209-0.02-0.494-0.076-0.703
			c-0.247-1.045-1.159-1.919-2.413-1.919c-1.729,0-2.754,1.521-2.754,3.534c0,1.861,0.931,3.4,2.716,3.4
			c1.121,0,2.147-0.76,2.451-1.995c0.057-0.228,0.076-0.456,0.076-0.722V42.082z"/>
		<path fill="#FFFFFF" d="M121.592,35.756c0,0.57-0.398,1.026-1.063,1.026c-0.607,0-1.007-0.456-1.007-1.026
			s0.418-1.045,1.045-1.045C121.175,34.711,121.592,35.167,121.592,35.756z M119.73,47.534V38.34h1.672v9.194H119.73z"/>
		<path fill="#FFFFFF" d="M122.941,45.844c0.513,0.304,1.387,0.646,2.223,0.646c1.196,0,1.767-0.589,1.767-1.368
			c0-0.798-0.476-1.216-1.691-1.671c-1.671-0.608-2.45-1.501-2.45-2.603c0-1.482,1.216-2.698,3.173-2.698
			c0.931,0,1.747,0.247,2.241,0.57l-0.398,1.216c-0.361-0.229-1.026-0.551-1.881-0.551c-0.988,0-1.52,0.569-1.52,1.254
			c0,0.76,0.531,1.102,1.729,1.576c1.576,0.589,2.412,1.387,2.412,2.755c0,1.634-1.272,2.773-3.419,2.773
			c-1.007,0-1.938-0.266-2.584-0.646L122.941,45.844z"/>
		<path fill="#FFFFFF" d="M131.699,36.136v2.204h2.394v1.272h-2.394v4.958c0,1.141,0.323,1.786,1.254,1.786
			c0.456,0,0.722-0.038,0.969-0.114l0.076,1.273c-0.323,0.113-0.836,0.228-1.481,0.228c-0.779,0-1.406-0.266-1.805-0.703
			c-0.456-0.513-0.646-1.329-0.646-2.412v-5.016h-1.425V38.34h1.425v-1.71L131.699,36.136z"/>
		<path fill="#FFFFFF" d="M136.829,35.756c0,0.57-0.398,1.026-1.063,1.026c-0.607,0-1.007-0.456-1.007-1.026
			s0.418-1.045,1.045-1.045C136.412,34.711,136.829,35.167,136.829,35.756z M134.968,47.534V38.34h1.672v9.194H134.968z"/>
		<path fill="#FFFFFF" d="M138.407,40.828c0-0.969-0.019-1.729-0.076-2.488h1.482l0.095,1.52h0.038
			c0.456-0.854,1.52-1.71,3.039-1.71c1.273,0,3.249,0.76,3.249,3.913v5.472h-1.672v-5.3c0-1.482-0.551-2.717-2.128-2.717
			c-1.083,0-1.938,0.778-2.241,1.71c-0.076,0.209-0.114,0.493-0.114,0.778v5.528h-1.672V40.828z"/>
		<path fill="#FFFFFF" d="M149.883,36.136v2.204h2.394v1.272h-2.394v4.958c0,1.141,0.323,1.786,1.254,1.786
			c0.456,0,0.722-0.038,0.969-0.114l0.076,1.273c-0.323,0.113-0.836,0.228-1.481,0.228c-0.779,0-1.406-0.266-1.805-0.703
			c-0.456-0.513-0.646-1.329-0.646-2.412v-5.016h-1.425V38.34h1.425v-1.71L149.883,36.136z"/>
		<path fill="#FFFFFF" d="M159.61,45.33c0,0.798,0.038,1.577,0.133,2.204h-1.5l-0.134-1.159h-0.057
			c-0.513,0.723-1.501,1.368-2.812,1.368c-1.861,0-2.812-1.311-2.812-2.641c0-2.223,1.976-3.438,5.528-3.42v-0.189
			c0-0.741-0.209-2.128-2.09-2.108c-0.874,0-1.767,0.246-2.413,0.684l-0.38-1.121c0.76-0.475,1.881-0.798,3.04-0.798
			c2.812,0,3.495,1.919,3.495,3.742V45.33z M157.996,42.842c-1.824-0.038-3.895,0.285-3.895,2.07c0,1.103,0.722,1.597,1.558,1.597
			c1.216,0,1.994-0.761,2.261-1.539c0.057-0.19,0.076-0.38,0.076-0.532V42.842z"/>
		<path fill="#FFFFFF" d="M161.074,45.844c0.513,0.304,1.387,0.646,2.223,0.646c1.196,0,1.767-0.589,1.767-1.368
			c0-0.798-0.476-1.216-1.691-1.671c-1.671-0.608-2.45-1.501-2.45-2.603c0-1.482,1.216-2.698,3.173-2.698
			c0.931,0,1.747,0.247,2.241,0.57l-0.398,1.216c-0.361-0.229-1.026-0.551-1.881-0.551c-0.988,0-1.52,0.569-1.52,1.254
			c0,0.76,0.531,1.102,1.729,1.576c1.576,0.589,2.412,1.387,2.412,2.755c0,1.634-1.272,2.773-3.419,2.773
			c-1.007,0-1.938-0.266-2.584-0.646L161.074,45.844z"/>
		<path fill="#FFFFFF" d="M180.357,34.046v11.113c0,0.817,0.038,1.748,0.076,2.375h-1.481l-0.076-1.596h-0.058
			c-0.493,1.025-1.596,1.805-3.097,1.805c-2.223,0-3.951-1.881-3.951-4.673c-0.019-3.059,1.9-4.921,4.123-4.921
			c1.425,0,2.355,0.665,2.773,1.387h0.038v-5.49H180.357z M178.705,42.082c0-0.209-0.02-0.494-0.076-0.703
			c-0.247-1.045-1.159-1.919-2.413-1.919c-1.729,0-2.754,1.521-2.754,3.534c0,1.861,0.931,3.4,2.716,3.4
			c1.121,0,2.147-0.76,2.451-1.995c0.057-0.228,0.076-0.456,0.076-0.722V42.082z"/>
		<path fill="#FFFFFF" d="M183.075,43.241c0.038,2.261,1.463,3.191,3.154,3.191c1.196,0,1.938-0.209,2.545-0.476l0.304,1.197
			c-0.589,0.266-1.614,0.589-3.077,0.589c-2.83,0-4.521-1.881-4.521-4.654s1.634-4.939,4.312-4.939c3.021,0,3.8,2.622,3.8,4.312
			c0,0.342-0.02,0.589-0.058,0.779H183.075z M187.977,42.044c0.02-1.045-0.437-2.697-2.317-2.697c-1.71,0-2.432,1.538-2.564,2.697
			H187.977z"/>
		<path fill="#FFFFFF" d="M201.73,45.33c0,0.798,0.038,1.577,0.133,2.204h-1.5l-0.134-1.159h-0.057
			c-0.513,0.723-1.501,1.368-2.812,1.368c-1.861,0-2.812-1.311-2.812-2.641c0-2.223,1.976-3.438,5.528-3.42v-0.189
			c0-0.741-0.209-2.128-2.09-2.108c-0.874,0-1.767,0.246-2.413,0.684l-0.38-1.121c0.76-0.475,1.881-0.798,3.04-0.798
			c2.812,0,3.495,1.919,3.495,3.742V45.33z M200.116,42.842c-1.824-0.038-3.895,0.285-3.895,2.07c0,1.103,0.722,1.597,1.558,1.597
			c1.216,0,1.994-0.761,2.261-1.539c0.057-0.19,0.076-0.38,0.076-0.532V42.842z"/>
		<path fill="#FFFFFF" d="M203.423,34.046h1.652v5.775h0.038c0.589-1.025,1.653-1.672,3.135-1.672c2.299,0,3.895,1.899,3.895,4.674
			c0,3.286-2.09,4.92-4.142,4.92c-1.329,0-2.394-0.513-3.097-1.71h-0.037l-0.096,1.501h-1.425c0.038-0.627,0.076-1.558,0.076-2.375
			V34.046z M205.075,43.849c0,0.209,0.02,0.418,0.076,0.608c0.305,1.158,1.292,1.956,2.508,1.956c1.767,0,2.793-1.425,2.793-3.533
			c0-1.843-0.95-3.42-2.755-3.42c-1.121,0-2.185,0.798-2.526,2.052c-0.058,0.209-0.096,0.438-0.096,0.703V43.849z"/>
		<path fill="#FFFFFF" d="M221.548,42.861c0,3.4-2.375,4.882-4.579,4.882c-2.47,0-4.407-1.824-4.407-4.73
			c0-3.059,2.033-4.863,4.56-4.863C219.762,38.149,221.548,40.068,221.548,42.861z M214.271,42.956c0,2.014,1.14,3.533,2.773,3.533
			c1.596,0,2.793-1.501,2.793-3.571c0-1.558-0.779-3.515-2.755-3.515C215.126,39.403,214.271,41.228,214.271,42.956z"/>
		<path fill="#FFFFFF" d="M222.65,41.208c0-1.083-0.019-2.014-0.076-2.868h1.463l0.076,1.823h0.057
			c0.418-1.234,1.444-2.014,2.565-2.014c0.171,0,0.304,0.02,0.455,0.038v1.577c-0.171-0.038-0.342-0.038-0.569-0.038
			c-1.178,0-2.014,0.874-2.242,2.128c-0.038,0.228-0.057,0.513-0.057,0.778v4.901h-1.672V41.208z"/>
		<path fill="#FFFFFF" d="M235.589,34.046v11.113c0,0.817,0.038,1.748,0.076,2.375h-1.482l-0.075-1.596h-0.058
			c-0.493,1.025-1.596,1.805-3.097,1.805c-2.223,0-3.951-1.881-3.951-4.673c-0.019-3.059,1.9-4.921,4.123-4.921
			c1.425,0,2.355,0.665,2.773,1.387h0.038v-5.49H235.589z M233.937,42.082c0-0.209-0.02-0.494-0.076-0.703
			c-0.247-1.045-1.159-1.919-2.413-1.919c-1.729,0-2.754,1.521-2.754,3.534c0,1.861,0.931,3.4,2.716,3.4
			c1.121,0,2.147-0.76,2.451-1.995c0.057-0.228,0.076-0.456,0.076-0.722V42.082z"/>
		<path fill="#FFFFFF" d="M243.834,45.33c0,0.798,0.038,1.577,0.133,2.204h-1.5l-0.134-1.159h-0.057
			c-0.513,0.723-1.501,1.368-2.812,1.368c-1.861,0-2.812-1.311-2.812-2.641c0-2.223,1.976-3.438,5.528-3.42v-0.189
			c0-0.741-0.209-2.128-2.09-2.108c-0.874,0-1.767,0.246-2.413,0.684l-0.38-1.121c0.76-0.475,1.881-0.798,3.04-0.798
			c2.812,0,3.495,1.919,3.495,3.742V45.33z M242.22,42.842c-1.824-0.038-3.895,0.285-3.895,2.07c0,1.103,0.722,1.597,1.558,1.597
			c1.216,0,1.994-0.761,2.261-1.539c0.057-0.19,0.076-0.38,0.076-0.532V42.842z"/>
		<path fill="#FFFFFF" d="M245.526,41.208c0-1.083-0.019-2.014-0.076-2.868h1.463l0.076,1.823h0.057
			c0.418-1.234,1.444-2.014,2.564-2.014c0.172,0,0.305,0.02,0.456,0.038v1.577c-0.171-0.038-0.342-0.038-0.569-0.038
			c-1.178,0-2.014,0.874-2.242,2.128c-0.038,0.228-0.057,0.513-0.057,0.778v4.901h-1.672V41.208z"/>
		<path fill="#FFFFFF" d="M14.321,56.846h1.672v13.488h-1.672V56.846z"/>
		<path fill="#FFFFFF" d="M24.257,68.13c0,0.798,0.038,1.577,0.133,2.204h-1.5l-0.134-1.159h-0.057
			c-0.513,0.723-1.501,1.368-2.812,1.368c-1.861,0-2.812-1.311-2.812-2.641c0-2.223,1.976-3.438,5.528-3.42v-0.189
			c0-0.741-0.209-2.128-2.09-2.108c-0.874,0-1.767,0.247-2.413,0.684l-0.38-1.121c0.76-0.475,1.881-0.798,3.04-0.798
			c2.812,0,3.495,1.919,3.495,3.742V68.13z M22.643,65.642c-1.824-0.038-3.895,0.285-3.895,2.07c0,1.103,0.722,1.597,1.558,1.597
			c1.216,0,1.994-0.761,2.261-1.539c0.057-0.19,0.076-0.38,0.076-0.532V65.642z"/>
		<path fill="#FFFFFF" d="M46.337,68.13c0,0.798,0.038,1.577,0.133,2.204h-1.5l-0.134-1.159h-0.057
			c-0.513,0.723-1.501,1.368-2.812,1.368c-1.861,0-2.812-1.311-2.812-2.641c0-2.223,1.976-3.438,5.528-3.42v-0.189
			c0-0.741-0.209-2.128-2.09-2.108c-0.874,0-1.767,0.247-2.413,0.684l-0.38-1.121c0.76-0.475,1.881-0.798,3.04-0.798
			c2.812,0,3.495,1.919,3.495,3.742V68.13z M44.723,65.642c-1.824-0.038-3.895,0.285-3.895,2.07c0,1.103,0.722,1.597,1.558,1.597
			c1.216,0,1.994-0.761,2.261-1.539c0.057-0.19,0.076-0.38,0.076-0.532V65.642z"/>
		<path fill="#FFFFFF" d="M49.967,58.936v2.204h2.394v1.272h-2.394v4.958c0,1.14,0.323,1.786,1.254,1.786
			c0.456,0,0.722-0.038,0.969-0.114l0.076,1.273c-0.323,0.113-0.836,0.228-1.481,0.228c-0.779,0-1.406-0.266-1.805-0.703
			c-0.456-0.513-0.646-1.33-0.646-2.412v-5.016h-1.425V61.14h1.425v-1.71L49.967,58.936z"/>
		<path fill="#FFFFFF" d="M54.053,66.041c0.038,2.261,1.463,3.191,3.153,3.191c1.197,0,1.938-0.209,2.546-0.476l0.304,1.197
			c-0.589,0.266-1.614,0.589-3.077,0.589c-2.83,0-4.521-1.881-4.521-4.654s1.634-4.939,4.312-4.939c3.021,0,3.8,2.622,3.8,4.312
			c0,0.342-0.02,0.589-0.058,0.779H54.053z M58.954,64.844c0.02-1.045-0.437-2.697-2.317-2.697c-1.71,0-2.432,1.538-2.564,2.697
			H58.954z"/>
		<path fill="#FFFFFF" d="M61.634,63.628c0-0.969-0.019-1.729-0.076-2.488h1.482l0.095,1.52h0.038c0.456-0.854,1.52-1.71,3.039-1.71
			c1.273,0,3.249,0.76,3.249,3.914v5.471h-1.672v-5.3c0-1.482-0.551-2.717-2.128-2.717c-1.083,0-1.938,0.778-2.241,1.71
			c-0.076,0.209-0.114,0.493-0.114,0.778v5.528h-1.672V63.628z"/>
		<path fill="#FFFFFF" d="M77.726,70.011c-0.437,0.209-1.405,0.532-2.641,0.532c-2.773,0-4.578-1.881-4.578-4.692
			c0-2.83,1.938-4.901,4.939-4.901c0.988,0,1.861,0.247,2.317,0.494l-0.38,1.272c-0.398-0.209-1.025-0.437-1.938-0.437
			c-2.108,0-3.248,1.576-3.248,3.477c0,2.128,1.367,3.438,3.191,3.438c0.949,0,1.576-0.229,2.052-0.438L77.726,70.011z"/>
		<path fill="#FFFFFF" d="M80.537,58.556c0,0.57-0.398,1.026-1.063,1.026c-0.607,0-1.007-0.456-1.007-1.026s0.418-1.045,1.045-1.045
			C80.12,57.511,80.537,57.967,80.537,58.556z M78.676,70.334V61.14h1.672v9.194H78.676z"/>
		<path fill="#FFFFFF" d="M90.437,65.661c0,3.4-2.375,4.882-4.579,4.882c-2.47,0-4.407-1.824-4.407-4.73
			c0-3.059,2.033-4.863,4.56-4.863C88.65,60.949,90.437,62.868,90.437,65.661z M83.16,65.756c0,2.014,1.14,3.533,2.773,3.533
			c1.596,0,2.793-1.501,2.793-3.571c0-1.558-0.779-3.515-2.755-3.515C84.015,62.203,83.16,64.027,83.16,65.756z M88.441,57.169
			l-2.317,2.717h-1.178l1.652-2.717H88.441z"/>
		<path fill="#FFFFFF" d="M91.539,63.628c0-0.969-0.019-1.729-0.076-2.488h1.482l0.095,1.52h0.038c0.456-0.854,1.52-1.71,3.039-1.71
			c1.273,0,3.249,0.76,3.249,3.914v5.471h-1.672v-5.3c0-1.482-0.551-2.717-2.128-2.717c-1.083,0-1.938,0.778-2.241,1.71
			c-0.076,0.209-0.114,0.493-0.114,0.778v5.528h-1.672V63.628z"/>
		<path fill="#FFFFFF" d="M115.006,64.141c0-1.178-0.038-2.127-0.076-3.001h1.482l0.095,1.576h0.038
			c0.665-1.12,1.767-1.767,3.268-1.767c2.241,0,3.913,1.881,3.913,4.654c0,3.306-2.032,4.939-4.198,4.939
			c-1.216,0-2.279-0.532-2.831-1.443h-0.037v4.996h-1.653V64.141z M116.659,66.592c0,0.247,0.019,0.475,0.075,0.684
			c0.305,1.159,1.312,1.957,2.508,1.957c1.767,0,2.793-1.444,2.793-3.553c0-1.824-0.969-3.4-2.736-3.4
			c-1.14,0-2.223,0.798-2.526,2.052c-0.057,0.209-0.113,0.456-0.113,0.665V66.592z"/>
		<path fill="#FFFFFF" d="M124.582,68.644c0.513,0.304,1.387,0.646,2.223,0.646c1.196,0,1.767-0.589,1.767-1.368
			c0-0.798-0.476-1.216-1.691-1.671c-1.671-0.608-2.45-1.501-2.45-2.604c0-1.481,1.216-2.697,3.173-2.697
			c0.931,0,1.747,0.247,2.241,0.57l-0.398,1.216c-0.361-0.229-1.026-0.551-1.881-0.551c-0.988,0-1.52,0.569-1.52,1.254
			c0,0.76,0.531,1.102,1.729,1.576c1.576,0.589,2.412,1.387,2.412,2.755c0,1.634-1.272,2.773-3.419,2.773
			c-1.007,0-1.938-0.266-2.584-0.646L124.582,68.644z"/>
		<path fill="#FFFFFF" d="M133.188,58.556c0,0.57-0.398,1.026-1.063,1.026c-0.607,0-1.007-0.456-1.007-1.026
			s0.418-1.045,1.045-1.045C132.771,57.511,133.188,57.967,133.188,58.556z M131.326,70.334V61.14h1.672v9.194H131.326z"/>
		<path fill="#FFFFFF" d="M141.319,70.011c-0.437,0.209-1.405,0.532-2.641,0.532c-2.773,0-4.578-1.881-4.578-4.692
			c0-2.83,1.938-4.901,4.939-4.901c0.988,0,1.861,0.247,2.317,0.494l-0.38,1.272c-0.398-0.209-1.025-0.437-1.938-0.437
			c-2.108,0-3.248,1.576-3.248,3.477c0,2.128,1.367,3.438,3.191,3.438c0.949,0,1.576-0.229,2.052-0.438L141.319,70.011z"/>
		<path fill="#FFFFFF" d="M150.478,65.661c0,3.4-2.375,4.882-4.579,4.882c-2.47,0-4.407-1.824-4.407-4.73
			c0-3.059,2.033-4.863,4.56-4.863C148.691,60.949,150.478,62.868,150.478,65.661z M143.201,65.756c0,2.014,1.14,3.533,2.773,3.533
			c1.596,0,2.793-1.501,2.793-3.571c0-1.558-0.779-3.515-2.755-3.515C144.056,62.203,143.201,64.027,143.201,65.756z"/>
		<path fill="#FFFFFF" d="M151.353,68.644c0.513,0.304,1.387,0.646,2.223,0.646c1.196,0,1.767-0.589,1.767-1.368
			c0-0.798-0.476-1.216-1.691-1.671c-1.671-0.608-2.45-1.501-2.45-2.604c0-1.481,1.216-2.697,3.173-2.697
			c0.931,0,1.747,0.247,2.241,0.57l-0.398,1.216c-0.361-0.229-1.026-0.551-1.881-0.551c-0.988,0-1.52,0.569-1.52,1.254
			c0,0.76,0.531,1.102,1.729,1.576c1.576,0.589,2.412,1.387,2.412,2.755c0,1.634-1.272,2.773-3.419,2.773
			c-1.007,0-1.938-0.266-2.584-0.646L151.353,68.644z"/>
		<path fill="#FFFFFF" d="M166.417,65.661c0,3.4-2.375,4.882-4.579,4.882c-2.47,0-4.407-1.824-4.407-4.73
			c0-3.059,2.033-4.863,4.56-4.863C164.631,60.949,166.417,62.868,166.417,65.661z M159.141,65.756c0,2.014,1.14,3.533,2.773,3.533
			c1.596,0,2.793-1.501,2.793-3.571c0-1.558-0.779-3.515-2.755-3.515C159.995,62.203,159.141,64.027,159.141,65.756z"/>
		<path fill="#FFFFFF" d="M174.073,70.011c-0.437,0.209-1.405,0.532-2.641,0.532c-2.773,0-4.578-1.881-4.578-4.692
			c0-2.83,1.938-4.901,4.939-4.901c0.988,0,1.861,0.247,2.317,0.494l-0.38,1.272c-0.398-0.209-1.025-0.437-1.938-0.437
			c-2.108,0-3.248,1.576-3.248,3.477c0,2.128,1.367,3.438,3.191,3.438c0.949,0,1.576-0.229,2.052-0.438L174.073,70.011z"/>
		<path fill="#FFFFFF" d="M176.886,58.556c0,0.57-0.398,1.026-1.063,1.026c-0.607,0-1.007-0.456-1.007-1.026
			s0.418-1.045,1.045-1.045C176.469,57.511,176.886,57.967,176.886,58.556z M175.024,70.334V61.14h1.672v9.194H175.024z"/>
		<path fill="#FFFFFF" d="M184.923,68.13c0,0.798,0.038,1.577,0.133,2.204h-1.5l-0.134-1.159h-0.057
			c-0.513,0.723-1.501,1.368-2.812,1.368c-1.861,0-2.812-1.311-2.812-2.641c0-2.223,1.976-3.438,5.528-3.42v-0.189
			c0-0.741-0.209-2.128-2.09-2.108c-0.874,0-1.767,0.247-2.413,0.684l-0.38-1.121c0.76-0.475,1.881-0.798,3.04-0.798
			c2.812,0,3.495,1.919,3.495,3.742V68.13z M183.309,65.642c-1.824-0.038-3.895,0.285-3.895,2.07c0,1.103,0.722,1.597,1.558,1.597
			c1.216,0,1.994-0.761,2.261-1.539c0.057-0.19,0.076-0.38,0.076-0.532V65.642z"/>
		<path fill="#FFFFFF" d="M186.615,56.846h1.672v13.488h-1.672V56.846z"/>
		<path fill="#FFFFFF" d="M189.712,62.659c0-0.703,0.475-1.197,1.121-1.197c0.684,0,1.12,0.494,1.12,1.197
			c0,0.665-0.437,1.178-1.14,1.178C190.168,63.837,189.712,63.324,189.712,62.659z M189.712,69.365c0-0.703,0.475-1.197,1.121-1.197
			c0.684,0,1.12,0.494,1.12,1.197c0,0.665-0.437,1.178-1.14,1.178C190.168,70.543,189.712,70.03,189.712,69.365z"/>
		<path fill="#FFFFFF" d="M206.946,56.846h1.672v13.488h-1.672V56.846z"/>
		<path fill="#FFFFFF" d="M216.882,68.13c0,0.798,0.038,1.577,0.133,2.204h-1.5l-0.134-1.159h-0.057
			c-0.513,0.723-1.501,1.368-2.812,1.368c-1.861,0-2.812-1.311-2.812-2.641c0-2.223,1.976-3.438,5.528-3.42v-0.189
			c0-0.741-0.209-2.128-2.09-2.108c-0.874,0-1.767,0.247-2.413,0.684l-0.38-1.121c0.76-0.475,1.881-0.798,3.04-0.798
			c2.812,0,3.495,1.919,3.495,3.742V68.13z M215.268,65.642c-1.824-0.038-3.895,0.285-3.895,2.07c0,1.103,0.722,1.597,1.558,1.597
			c1.216,0,1.994-0.761,2.261-1.539c0.057-0.19,0.076-0.38,0.076-0.532V65.642z"/>
		<path fill="#FFFFFF" d="M240.425,56.846v11.113c0,0.817,0.038,1.748,0.076,2.375h-1.482l-0.075-1.596h-0.058
			c-0.493,1.025-1.596,1.805-3.097,1.805c-2.223,0-3.951-1.881-3.951-4.673c-0.019-3.059,1.9-4.921,4.123-4.921
			c1.425,0,2.355,0.665,2.773,1.387h0.038v-5.49H240.425z M238.772,64.882c0-0.209-0.02-0.494-0.076-0.703
			c-0.247-1.045-1.159-1.919-2.413-1.919c-1.729,0-2.754,1.521-2.754,3.534c0,1.861,0.931,3.4,2.716,3.4
			c1.121,0,2.147-0.76,2.451-1.995c0.057-0.228,0.076-0.456,0.076-0.722V64.882z"/>
		<path fill="#FFFFFF" d="M243.143,66.041c0.038,2.261,1.463,3.191,3.153,3.191c1.197,0,1.938-0.209,2.546-0.476l0.304,1.197
			c-0.589,0.266-1.614,0.589-3.077,0.589c-2.83,0-4.521-1.881-4.521-4.654s1.634-4.939,4.312-4.939c3.021,0,3.8,2.622,3.8,4.312
			c0,0.342-0.02,0.589-0.058,0.779H243.143z M248.044,64.844c0.02-1.045-0.437-2.697-2.317-2.697c-1.71,0-2.432,1.538-2.564,2.697
			H248.044z"/>
		<path fill="#FFFFFF" d="M16.449,89.106l-1.33,4.027h-1.71l4.37-12.804h1.976l4.369,12.804h-1.767l-1.368-4.027H16.449z
			 M20.666,87.814l-1.272-3.686c-0.285-0.836-0.475-1.596-0.665-2.337H18.69c-0.189,0.741-0.38,1.539-0.646,2.318l-1.254,3.704
			H20.666z"/>
		<path fill="#FFFFFF" d="M24.886,86.808c0-1.083-0.019-2.014-0.076-2.868h1.463l0.076,1.823h0.057
			c0.418-1.234,1.444-2.014,2.564-2.014c0.172,0,0.305,0.02,0.456,0.038v1.577c-0.171-0.038-0.342-0.038-0.569-0.038
			c-1.178,0-2.014,0.874-2.242,2.128c-0.038,0.228-0.057,0.513-0.057,0.778v4.901h-1.672V86.808z"/>
		<path fill="#FFFFFF" d="M32.562,81.735v2.204h2.394v1.272h-2.394v4.958c0,1.141,0.323,1.786,1.254,1.786
			c0.456,0,0.722-0.038,0.969-0.114l0.076,1.273c-0.323,0.113-0.836,0.228-1.481,0.228c-0.779,0-1.406-0.266-1.805-0.703
			c-0.456-0.513-0.646-1.329-0.646-2.412v-5.016h-1.425v-1.272h1.425v-1.71L32.562,81.735z"/>
		<path fill="#FFFFFF" d="M43.523,90.607c0,0.969,0.019,1.805,0.075,2.526h-1.481l-0.095-1.501h-0.038
			c-0.418,0.741-1.406,1.71-3.04,1.71c-1.443,0-3.172-0.817-3.172-4.027v-5.376h1.672v5.072c0,1.747,0.551,2.944,2.052,2.944
			c1.12,0,1.899-0.779,2.203-1.539c0.095-0.228,0.152-0.531,0.152-0.854v-5.623h1.672V90.607z"/>
		<path fill="#FFFFFF" d="M45.291,86.808c0-1.083-0.019-2.014-0.076-2.868h1.463l0.076,1.823h0.057
			c0.418-1.234,1.444-2.014,2.565-2.014c0.171,0,0.304,0.02,0.455,0.038v1.577c-0.171-0.038-0.342-0.038-0.569-0.038
			c-1.178,0-2.014,0.874-2.242,2.128c-0.038,0.228-0.057,0.513-0.057,0.778v4.901h-1.672V86.808z"/>
		<path fill="#FFFFFF" d="M58.628,88.461c0,3.4-2.375,4.882-4.579,4.882c-2.47,0-4.407-1.824-4.407-4.73
			c0-3.059,2.033-4.863,4.56-4.863C56.842,83.749,58.628,85.668,58.628,88.461z M51.352,88.556c0,2.014,1.14,3.533,2.773,3.533
			c1.596,0,2.793-1.501,2.793-3.571c0-1.558-0.779-3.515-2.755-3.515C52.206,85.003,51.352,86.827,51.352,88.556z"/>
		<path fill="#FFFFFF" d="M67.342,83.939l1.994,5.433c0.229,0.608,0.456,1.33,0.608,1.881h0.038c0.171-0.551,0.36-1.254,0.589-1.919
			l1.823-5.395h1.767l-2.508,6.554c-1.196,3.153-2.014,4.749-3.153,5.756c-0.836,0.703-1.634,0.988-2.052,1.064l-0.418-1.387
			c0.418-0.134,0.969-0.399,1.463-0.817c0.456-0.36,1.007-1.007,1.406-1.861c0.076-0.171,0.133-0.305,0.133-0.399
			s-0.038-0.228-0.133-0.437l-3.382-8.473H67.342z"/>
		<path fill="#FFFFFF" d="M81.68,79.646h1.672v13.488H81.68V79.646z"/>
		<path fill="#FFFFFF" d="M91.615,90.93c0,0.798,0.038,1.577,0.133,2.204h-1.5l-0.134-1.159h-0.057
			c-0.513,0.723-1.501,1.368-2.812,1.368c-1.861,0-2.812-1.311-2.812-2.641c0-2.223,1.976-3.438,5.528-3.42v-0.189
			c0-0.741-0.209-2.128-2.09-2.108c-0.874,0-1.767,0.246-2.413,0.684l-0.38-1.121c0.76-0.475,1.881-0.798,3.04-0.798
			c2.812,0,3.495,1.919,3.495,3.742V90.93z M90.001,88.441c-1.824-0.038-3.895,0.285-3.895,2.07c0,1.103,0.722,1.597,1.558,1.597
			c1.216,0,1.994-0.761,2.261-1.539c0.057-0.19,0.076-0.38,0.076-0.532V88.441z"/>
		<path fill="#FFFFFF" d="M108.232,79.646v11.113c0,0.817,0.038,1.748,0.076,2.375h-1.481l-0.076-1.596h-0.058
			c-0.493,1.025-1.596,1.805-3.097,1.805c-2.223,0-3.951-1.881-3.951-4.673c-0.019-3.059,1.9-4.921,4.123-4.921
			c1.425,0,2.355,0.665,2.773,1.387h0.038v-5.49H108.232z M106.58,87.682c0-0.209-0.02-0.494-0.076-0.703
			c-0.247-1.045-1.159-1.919-2.413-1.919c-1.729,0-2.754,1.521-2.754,3.534c0,1.861,0.931,3.4,2.716,3.4
			c1.121,0,2.147-0.76,2.451-1.995c0.057-0.228,0.076-0.456,0.076-0.722V87.682z"/>
		<path fill="#FFFFFF" d="M110.95,88.841c0.038,2.261,1.463,3.191,3.154,3.191c1.196,0,1.938-0.209,2.545-0.476l0.304,1.197
			c-0.589,0.266-1.614,0.589-3.077,0.589c-2.83,0-4.521-1.881-4.521-4.654s1.634-4.939,4.312-4.939c3.021,0,3.8,2.622,3.8,4.312
			c0,0.342-0.02,0.589-0.058,0.779H110.95z M115.852,87.644c0.02-1.045-0.437-2.697-2.317-2.697c-1.71,0-2.432,1.538-2.564,2.697
			H115.852z"/>
		<path fill="#FFFFFF" d="M128.194,80.33h1.671v8.567c0,3.4-1.671,4.445-3.875,4.445c-0.627,0-1.368-0.133-1.767-0.304l0.228-1.349
			c0.342,0.133,0.836,0.246,1.406,0.246c1.481,0,2.337-0.664,2.337-3.172V80.33z"/>
		<path fill="#FFFFFF" d="M139.879,88.461c0,3.4-2.375,4.882-4.579,4.882c-2.47,0-4.407-1.824-4.407-4.73
			c0-3.059,2.033-4.863,4.56-4.863C138.093,83.749,139.879,85.668,139.879,88.461z M132.603,88.556c0,2.014,1.14,3.533,2.773,3.533
			c1.596,0,2.793-1.501,2.793-3.571c0-1.558-0.779-3.515-2.755-3.515C133.457,85.003,132.603,86.827,132.603,88.556z"/>
		<path fill="#FFFFFF" d="M140.754,91.443c0.513,0.304,1.387,0.646,2.223,0.646c1.196,0,1.767-0.589,1.767-1.368
			c0-0.798-0.476-1.216-1.691-1.671c-1.671-0.608-2.45-1.501-2.45-2.603c0-1.482,1.216-2.698,3.173-2.698
			c0.931,0,1.747,0.247,2.241,0.57l-0.398,1.216c-0.361-0.229-1.026-0.551-1.881-0.551c-0.988,0-1.52,0.569-1.52,1.254
			c0,0.76,0.531,1.102,1.729,1.576c1.576,0.589,2.412,1.387,2.412,2.755c0,1.634-1.272,2.773-3.419,2.773
			c-1.007,0-1.938-0.266-2.584-0.646L140.754,91.443z"/>
		<path fill="#FFFFFF" d="M148.429,88.841c0.038,2.261,1.463,3.191,3.154,3.191c1.196,0,1.938-0.209,2.545-0.476l0.304,1.197
			c-0.589,0.266-1.614,0.589-3.077,0.589c-2.83,0-4.521-1.881-4.521-4.654s1.634-4.939,4.312-4.939c3.021,0,3.8,2.622,3.8,4.312
			c0,0.342-0.02,0.589-0.058,0.779H148.429z M153.33,87.644c0.02-1.045-0.437-2.697-2.317-2.697c-1.71,0-2.432,1.538-2.564,2.697
			H153.33z M153.71,79.969l-2.317,2.717h-1.178l1.672-2.717H153.71z"/>
		<path fill="#FFFFFF" d="M155.384,92.146c0-0.684,0.475-1.196,1.14-1.196s1.12,0.494,1.12,1.196c0,0.685-0.455,1.197-1.158,1.197
			C155.839,93.343,155.384,92.83,155.384,92.146z"/>
		<path fill="#FFFFFF" d="M165.768,80.52c1.007-0.171,2.204-0.285,3.515-0.285c2.375,0,4.065,0.57,5.187,1.596
			c1.159,1.045,1.823,2.527,1.823,4.598c0,2.09-0.664,3.8-1.842,4.978c-1.216,1.196-3.192,1.843-5.681,1.843
			c-1.197,0-2.166-0.058-3.002-0.152V80.52z M167.421,91.842c0.418,0.058,1.025,0.076,1.672,0.076c3.552,0,5.452-1.976,5.452-5.434
			c0.019-3.021-1.691-4.938-5.187-4.938c-0.854,0-1.501,0.075-1.938,0.171V91.842z"/>
		<path fill="#FFFFFF" d="M178.363,88.841c0.038,2.261,1.463,3.191,3.153,3.191c1.197,0,1.938-0.209,2.546-0.476l0.304,1.197
			c-0.589,0.266-1.614,0.589-3.077,0.589c-2.83,0-4.521-1.881-4.521-4.654s1.634-4.939,4.312-4.939c3.021,0,3.8,2.622,3.8,4.312
			c0,0.342-0.02,0.589-0.058,0.779H178.363z M183.265,87.644c0.02-1.045-0.437-2.697-2.317-2.697c-1.71,0-2.432,1.538-2.564,2.697
			H183.265z"/>
		<path fill="#FFFFFF" d="M199.407,90.93c0,0.798,0.038,1.577,0.133,2.204h-1.5l-0.134-1.159h-0.057
			c-0.513,0.723-1.501,1.368-2.812,1.368c-1.861,0-2.812-1.311-2.812-2.641c0-2.223,1.976-3.438,5.528-3.42v-0.189
			c0-0.741-0.209-2.128-2.09-2.108c-0.874,0-1.767,0.246-2.413,0.684l-0.38-1.121c0.76-0.475,1.881-0.798,3.04-0.798
			c2.812,0,3.495,1.919,3.495,3.742V90.93z M197.793,88.441c-1.824-0.038-3.895,0.285-3.895,2.07c0,1.103,0.722,1.597,1.558,1.597
			c1.216,0,1.994-0.761,2.261-1.539c0.057-0.19,0.076-0.38,0.076-0.532V88.441z"/>
		<path fill="#FFFFFF" d="M207.652,92.811c-0.437,0.209-1.405,0.532-2.641,0.532c-2.773,0-4.578-1.881-4.578-4.692
			c0-2.83,1.938-4.901,4.939-4.901c0.988,0,1.861,0.247,2.317,0.494l-0.38,1.272c-0.398-0.209-1.025-0.437-1.938-0.437
			c-2.108,0-3.248,1.576-3.248,3.477c0,2.128,1.367,3.438,3.191,3.438c0.949,0,1.576-0.229,2.052-0.438L207.652,92.811z"/>
		<path fill="#FFFFFF" d="M216.298,90.607c0,0.969,0.019,1.805,0.075,2.526h-1.481l-0.095-1.501h-0.038
			c-0.418,0.741-1.406,1.71-3.04,1.71c-1.443,0-3.172-0.817-3.172-4.027v-5.376h1.672v5.072c0,1.747,0.551,2.944,2.052,2.944
			c1.12,0,1.899-0.779,2.203-1.539c0.095-0.228,0.152-0.531,0.152-0.854v-5.623h1.672V90.607z"/>
		<path fill="#FFFFFF" d="M218.996,88.841c0.038,2.261,1.463,3.191,3.153,3.191c1.197,0,1.938-0.209,2.546-0.476l0.304,1.197
			c-0.589,0.266-1.614,0.589-3.077,0.589c-2.83,0-4.521-1.881-4.521-4.654s1.634-4.939,4.312-4.939c3.021,0,3.8,2.622,3.8,4.312
			c0,0.342-0.02,0.589-0.058,0.779H218.996z M223.897,87.644c0.02-1.045-0.437-2.697-2.317-2.697c-1.71,0-2.432,1.538-2.564,2.697
			H223.897z"/>
		<path fill="#FFFFFF" d="M226.577,86.808c0-1.083-0.019-2.014-0.076-2.868h1.463l0.076,1.823h0.057
			c0.418-1.234,1.444-2.014,2.564-2.014c0.172,0,0.305,0.02,0.456,0.038v1.577c-0.171-0.038-0.342-0.038-0.569-0.038
			c-1.178,0-2.014,0.874-2.242,2.128c-0.038,0.228-0.057,0.513-0.057,0.778v4.901h-1.672V86.808z"/>
		<path fill="#FFFFFF" d="M239.516,79.646v11.113c0,0.817,0.038,1.748,0.076,2.375h-1.481l-0.076-1.596h-0.058
			c-0.493,1.025-1.596,1.805-3.097,1.805c-2.223,0-3.951-1.881-3.951-4.673c-0.019-3.059,1.9-4.921,4.123-4.921
			c1.425,0,2.355,0.665,2.773,1.387h0.038v-5.49H239.516z M237.863,87.682c0-0.209-0.02-0.494-0.076-0.703
			c-0.247-1.045-1.159-1.919-2.413-1.919c-1.729,0-2.754,1.521-2.754,3.534c0,1.861,0.931,3.4,2.716,3.4
			c1.121,0,2.147-0.76,2.451-1.995c0.057-0.228,0.076-0.456,0.076-0.722V87.682z"/>
		<path fill="#FFFFFF" d="M249.624,88.461c0,3.4-2.375,4.882-4.579,4.882c-2.47,0-4.407-1.824-4.407-4.73
			c0-3.059,2.033-4.863,4.56-4.863C247.838,83.749,249.624,85.668,249.624,88.461z M242.348,88.556c0,2.014,1.14,3.533,2.773,3.533
			c1.596,0,2.793-1.501,2.793-3.571c0-1.558-0.779-3.515-2.755-3.515C243.202,85.003,242.348,86.827,242.348,88.556z"/>
		<path fill="#FFFFFF" d="M20.875,115.61c-0.437,0.209-1.405,0.532-2.641,0.532c-2.773,0-4.578-1.881-4.578-4.692
			c0-2.83,1.938-4.901,4.939-4.901c0.988,0,1.861,0.247,2.317,0.494l-0.38,1.272c-0.398-0.209-1.025-0.437-1.938-0.437
			c-2.108,0-3.248,1.576-3.248,3.477c0,2.128,1.367,3.438,3.191,3.438c0.949,0,1.576-0.229,2.052-0.438L20.875,115.61z"/>
		<path fill="#FFFFFF" d="M30.033,111.261c0,3.4-2.375,4.882-4.579,4.882c-2.47,0-4.407-1.824-4.407-4.73
			c0-3.059,2.033-4.863,4.56-4.863C28.247,106.549,30.033,108.468,30.033,111.261z M22.757,111.355c0,2.014,1.14,3.533,2.773,3.533
			c1.596,0,2.793-1.501,2.793-3.571c0-1.558-0.779-3.515-2.755-3.515C23.611,107.803,22.757,109.627,22.757,111.355z"/>
		<path fill="#FFFFFF" d="M31.136,109.228c0-0.969-0.019-1.729-0.076-2.488h1.482l0.095,1.52h0.038
			c0.456-0.854,1.52-1.71,3.039-1.71c1.273,0,3.249,0.76,3.249,3.914v5.471h-1.672v-5.3c0-1.482-0.551-2.717-2.128-2.717
			c-1.083,0-1.938,0.778-2.241,1.71c-0.076,0.209-0.114,0.493-0.114,0.778v5.528h-1.672V109.228z"/>
		<path fill="#FFFFFF" d="M46.296,102.445h1.672v13.488h-1.672V102.445z"/>
		<path fill="#FFFFFF" d="M58.094,111.261c0,3.4-2.375,4.882-4.579,4.882c-2.47,0-4.407-1.824-4.407-4.73
			c0-3.059,2.033-4.863,4.56-4.863C56.308,106.549,58.094,108.468,58.094,111.261z M50.817,111.355c0,2.014,1.14,3.533,2.773,3.533
			c1.596,0,2.793-1.501,2.793-3.571c0-1.558-0.779-3.515-2.755-3.515C51.672,107.803,50.817,109.627,50.817,111.355z"/>
		<path fill="#FFFFFF" d="M65.465,106.739l1.806,5.147c0.304,0.855,0.551,1.615,0.74,2.375h0.058c0.209-0.76,0.475-1.52,0.778-2.375
			l1.786-5.147h1.747l-3.609,9.194h-1.596l-3.495-9.194H65.465z"/>
		<path fill="#FFFFFF" d="M74.812,104.155c0,0.57-0.398,1.026-1.063,1.026c-0.607,0-1.007-0.456-1.007-1.026
			s0.418-1.045,1.045-1.045C74.396,103.11,74.812,103.566,74.812,104.155z M72.951,115.934v-9.194h1.672v9.194H72.951z"/>
		<path fill="#FFFFFF" d="M76.163,114.243c0.513,0.304,1.387,0.646,2.223,0.646c1.196,0,1.767-0.589,1.767-1.368
			c0-0.798-0.476-1.216-1.691-1.671c-1.671-0.608-2.45-1.501-2.45-2.604c0-1.481,1.216-2.697,3.173-2.697
			c0.931,0,1.747,0.247,2.241,0.57l-0.398,1.216c-0.361-0.229-1.026-0.551-1.881-0.551c-0.988,0-1.52,0.569-1.52,1.254
			c0,0.76,0.531,1.102,1.729,1.576c1.576,0.589,2.412,1.387,2.412,2.755c0,1.634-1.272,2.773-3.419,2.773
			c-1.007,0-1.938-0.266-2.584-0.646L76.163,114.243z"/>
		<path fill="#FFFFFF" d="M84.92,104.535v2.204h2.394v1.272H84.92v4.958c0,1.14,0.323,1.786,1.254,1.786
			c0.456,0,0.722-0.038,0.969-0.114l0.076,1.273c-0.323,0.113-0.836,0.228-1.481,0.228c-0.779,0-1.406-0.266-1.805-0.703
			c-0.456-0.513-0.646-1.33-0.646-2.412v-5.016h-1.425v-1.272h1.425v-1.71L84.92,104.535z"/>
		<path fill="#FFFFFF" d="M96.396,111.261c0,3.4-2.375,4.882-4.579,4.882c-2.47,0-4.407-1.824-4.407-4.73
			c0-3.059,2.033-4.863,4.56-4.863C94.61,106.549,96.396,108.468,96.396,111.261z M89.12,111.355c0,2.014,1.14,3.533,2.773,3.533
			c1.596,0,2.793-1.501,2.793-3.571c0-1.558-0.779-3.515-2.755-3.515C89.975,107.803,89.12,109.627,89.12,111.355z"/>
		<path fill="#FFFFFF" d="M104.053,111.641c0.038,2.261,1.463,3.191,3.153,3.191c1.197,0,1.938-0.209,2.546-0.476l0.304,1.197
			c-0.589,0.266-1.614,0.589-3.077,0.589c-2.83,0-4.521-1.881-4.521-4.654s1.634-4.939,4.312-4.939c3.021,0,3.8,2.622,3.8,4.312
			c0,0.342-0.02,0.589-0.058,0.779H104.053z M108.954,110.443c0.02-1.045-0.437-2.697-2.317-2.697c-1.71,0-2.432,1.538-2.564,2.697
			H108.954z"/>
		<path fill="#FFFFFF" d="M111.634,109.228c0-0.969-0.019-1.729-0.076-2.488h1.482l0.095,1.52h0.038
			c0.456-0.854,1.52-1.71,3.039-1.71c1.273,0,3.249,0.76,3.249,3.914v5.471h-1.672v-5.3c0-1.482-0.551-2.717-2.128-2.717
			c-1.083,0-1.938,0.778-2.241,1.71c-0.076,0.209-0.114,0.493-0.114,0.778v5.528h-1.672V109.228z"/>
		<path fill="#FFFFFF" d="M127.725,111.641c0.038,2.261,1.463,3.191,3.153,3.191c1.197,0,1.938-0.209,2.546-0.476l0.304,1.197
			c-0.589,0.266-1.614,0.589-3.077,0.589c-2.83,0-4.521-1.881-4.521-4.654s1.634-4.939,4.312-4.939c3.021,0,3.8,2.622,3.8,4.312
			c0,0.342-0.02,0.589-0.058,0.779H127.725z M132.626,110.443c0.02-1.045-0.437-2.697-2.317-2.697c-1.71,0-2.432,1.538-2.564,2.697
			H132.626z"/>
		<path fill="#FFFFFF" d="M135.078,114.243c0.513,0.304,1.387,0.646,2.223,0.646c1.196,0,1.767-0.589,1.767-1.368
			c0-0.798-0.476-1.216-1.691-1.671c-1.671-0.608-2.45-1.501-2.45-2.604c0-1.481,1.216-2.697,3.173-2.697
			c0.931,0,1.747,0.247,2.241,0.57l-0.398,1.216c-0.361-0.229-1.026-0.551-1.881-0.551c-0.988,0-1.52,0.569-1.52,1.254
			c0,0.76,0.531,1.102,1.729,1.576c1.576,0.589,2.412,1.387,2.412,2.755c0,1.634-1.272,2.773-3.419,2.773
			c-1.007,0-1.938-0.266-2.584-0.646L135.078,114.243z"/>
		<path fill="#FFFFFF" d="M143.837,104.535v2.204h2.394v1.272h-2.394v4.958c0,1.14,0.323,1.786,1.254,1.786
			c0.456,0,0.722-0.038,0.969-0.114l0.076,1.273c-0.323,0.113-0.836,0.228-1.481,0.228c-0.779,0-1.406-0.266-1.805-0.703
			c-0.456-0.513-0.646-1.33-0.646-2.412v-5.016h-1.425v-1.272h1.425v-1.71L143.837,104.535z"/>
		<path fill="#FFFFFF" d="M153.564,113.729c0,0.798,0.038,1.577,0.133,2.204h-1.5l-0.134-1.159h-0.057
			c-0.513,0.723-1.501,1.368-2.812,1.368c-1.861,0-2.812-1.311-2.812-2.641c0-2.223,1.976-3.438,5.528-3.42v-0.189
			c0-0.741-0.209-2.128-2.09-2.108c-0.874,0-1.767,0.247-2.413,0.684l-0.38-1.121c0.76-0.475,1.881-0.798,3.04-0.798
			c2.812,0,3.495,1.919,3.495,3.742V113.729z M151.95,111.241c-1.824-0.038-3.895,0.285-3.895,2.07c0,1.103,0.722,1.597,1.558,1.597
			c1.216,0,1.994-0.761,2.261-1.539c0.057-0.19,0.076-0.38,0.076-0.532V111.241z"/>
		<path fill="#FFFFFF" d="M163.008,111.906l-1.33,4.027h-1.71l4.37-12.804h1.976l4.369,12.804h-1.767l-1.368-4.027H163.008z
			 M167.225,110.614l-1.272-3.686c-0.285-0.836-0.475-1.596-0.665-2.337h-0.038c-0.189,0.741-0.38,1.539-0.646,2.318l-1.254,3.704
			H167.225z"/>
		<path fill="#FFFFFF" d="M177.825,115.61c-0.437,0.209-1.405,0.532-2.641,0.532c-2.773,0-4.578-1.881-4.578-4.692
			c0-2.83,1.938-4.901,4.939-4.901c0.988,0,1.861,0.247,2.317,0.494l-0.38,1.272c-0.398-0.209-1.025-0.437-1.938-0.437
			c-2.108,0-3.248,1.576-3.248,3.477c0,2.128,1.367,3.438,3.191,3.438c0.949,0,1.576-0.229,2.052-0.438L177.825,115.61z"/>
		<path fill="#FFFFFF" d="M181.037,104.535v2.204h2.394v1.272h-2.394v4.958c0,1.14,0.323,1.786,1.254,1.786
			c0.456,0,0.722-0.038,0.969-0.114l0.076,1.273c-0.323,0.113-0.836,0.228-1.481,0.228c-0.779,0-1.406-0.266-1.805-0.703
			c-0.456-0.513-0.646-1.33-0.646-2.412v-5.016h-1.425v-1.272h1.425v-1.71L181.037,104.535z"/>
		<path fill="#FFFFFF" d="M186.167,104.155c0,0.57-0.398,1.026-1.063,1.026c-0.607,0-1.007-0.456-1.007-1.026
			s0.418-1.045,1.045-1.045C185.75,103.11,186.167,103.566,186.167,104.155z M184.306,115.934v-9.194h1.672v9.194H184.306z"/>
		<path fill="#FFFFFF" d="M188.391,106.739l1.806,5.147c0.304,0.855,0.551,1.615,0.74,2.375h0.058
			c0.209-0.76,0.475-1.52,0.778-2.375l1.786-5.147h1.747l-3.609,9.194h-1.596l-3.495-9.194H188.391z"/>
		<path fill="#FFFFFF" d="M197.738,104.155c0,0.57-0.398,1.026-1.063,1.026c-0.607,0-1.007-0.456-1.007-1.026
			s0.418-1.045,1.045-1.045C197.321,103.11,197.738,103.566,197.738,104.155z M195.877,115.934v-9.194h1.672v9.194H195.877z"/>
		<path fill="#FFFFFF" d="M207.238,102.445v11.113c0,0.817,0.038,1.748,0.076,2.375h-1.481l-0.076-1.596h-0.058
			c-0.493,1.025-1.596,1.805-3.097,1.805c-2.223,0-3.951-1.881-3.951-4.673c-0.019-3.059,1.9-4.921,4.123-4.921
			c1.425,0,2.355,0.665,2.773,1.387h0.038v-5.49H207.238z M205.586,110.481c0-0.209-0.02-0.494-0.076-0.703
			c-0.247-1.045-1.159-1.919-2.413-1.919c-1.729,0-2.754,1.521-2.754,3.534c0,1.861,0.931,3.4,2.716,3.4
			c1.121,0,2.147-0.76,2.451-1.995c0.057-0.228,0.076-0.456,0.076-0.722V110.481z"/>
		<path fill="#FFFFFF" d="M215.483,113.729c0,0.798,0.038,1.577,0.133,2.204h-1.5l-0.134-1.159h-0.057
			c-0.513,0.723-1.501,1.368-2.812,1.368c-1.861,0-2.812-1.311-2.812-2.641c0-2.223,1.976-3.438,5.528-3.42v-0.189
			c0-0.741-0.209-2.128-2.09-2.108c-0.874,0-1.767,0.247-2.413,0.684l-0.38-1.121c0.76-0.475,1.881-0.798,3.04-0.798
			c2.812,0,3.495,1.919,3.495,3.742V113.729z M213.869,111.241c-1.824-0.038-3.895,0.285-3.895,2.07
			c0,1.103,0.722,1.597,1.558,1.597c1.216,0,1.994-0.761,2.261-1.539c0.057-0.19,0.076-0.38,0.076-0.532V111.241z"/>
		<path fill="#FFFFFF" d="M225.098,102.445v11.113c0,0.817,0.038,1.748,0.076,2.375h-1.481l-0.076-1.596h-0.058
			c-0.493,1.025-1.596,1.805-3.097,1.805c-2.223,0-3.951-1.881-3.951-4.673c-0.019-3.059,1.9-4.921,4.123-4.921
			c1.425,0,2.355,0.665,2.773,1.387h0.038v-5.49H225.098z M223.445,110.481c0-0.209-0.02-0.494-0.076-0.703
			c-0.247-1.045-1.159-1.919-2.413-1.919c-1.729,0-2.754,1.521-2.754,3.534c0,1.861,0.931,3.4,2.716,3.4
			c1.121,0,2.147-0.76,2.451-1.995c0.057-0.228,0.076-0.456,0.076-0.722V110.481z"/>
		<path fill="#FFFFFF" d="M240.43,102.445v11.113c0,0.817,0.038,1.748,0.076,2.375h-1.481l-0.076-1.596h-0.058
			c-0.493,1.025-1.596,1.805-3.097,1.805c-2.223,0-3.951-1.881-3.951-4.673c-0.019-3.059,1.9-4.921,4.123-4.921
			c1.425,0,2.355,0.665,2.773,1.387h0.038v-5.49H240.43z M238.777,110.481c0-0.209-0.02-0.494-0.076-0.703
			c-0.247-1.045-1.159-1.919-2.413-1.919c-1.729,0-2.754,1.521-2.754,3.534c0,1.861,0.931,3.4,2.716,3.4
			c1.121,0,2.147-0.76,2.451-1.995c0.057-0.228,0.076-0.456,0.076-0.722V110.481z"/>
		<path fill="#FFFFFF" d="M243.147,111.641c0.038,2.261,1.463,3.191,3.154,3.191c1.196,0,1.938-0.209,2.545-0.476l0.304,1.197
			c-0.589,0.266-1.614,0.589-3.077,0.589c-2.83,0-4.521-1.881-4.521-4.654s1.634-4.939,4.312-4.939c3.021,0,3.8,2.622,3.8,4.312
			c0,0.342-0.02,0.589-0.058,0.779H243.147z M248.049,110.443c0.02-1.045-0.437-2.697-2.317-2.697c-1.71,0-2.432,1.538-2.564,2.697
			H248.049z"/>
		<path fill="#FFFFFF" d="M16.449,134.707l-1.33,4.027h-1.71l4.37-12.804h1.976l4.369,12.804h-1.767l-1.368-4.027H16.449z
			 M20.666,133.415l-1.272-3.686c-0.285-0.836-0.475-1.596-0.665-2.337H18.69c-0.189,0.741-0.38,1.539-0.646,2.318l-1.254,3.704
			H20.666z"/>
		<path fill="#FFFFFF" d="M24.886,132.541c0-1.178-0.038-2.127-0.076-3.001h1.482l0.095,1.576h0.038
			c0.665-1.12,1.767-1.767,3.268-1.767c2.241,0,3.913,1.881,3.913,4.654c0,3.306-2.032,4.939-4.198,4.939
			c-1.216,0-2.279-0.532-2.831-1.443h-0.038v4.996h-1.652V132.541z M26.538,134.992c0,0.247,0.02,0.475,0.076,0.684
			c0.305,1.159,1.312,1.957,2.508,1.957c1.767,0,2.793-1.444,2.793-3.553c0-1.824-0.969-3.4-2.736-3.4
			c-1.14,0-2.223,0.798-2.526,2.052c-0.057,0.209-0.114,0.456-0.114,0.665V134.992z"/>
		<path fill="#FFFFFF" d="M34.689,132.408c0-1.083-0.019-2.014-0.076-2.868h1.463l0.076,1.823h0.057
			c0.418-1.234,1.444-2.014,2.565-2.014c0.171,0,0.304,0.02,0.455,0.038v1.577c-0.171-0.038-0.342-0.038-0.569-0.038
			c-1.178,0-2.014,0.874-2.242,2.128c-0.038,0.228-0.057,0.513-0.057,0.778v4.901h-1.672V132.408z"/>
		<path fill="#FFFFFF" d="M40.635,134.441c0.038,2.261,1.463,3.191,3.153,3.191c1.197,0,1.938-0.209,2.546-0.476l0.304,1.197
			c-0.589,0.266-1.614,0.589-3.077,0.589c-2.83,0-4.521-1.881-4.521-4.654s1.634-4.939,4.312-4.939c3.021,0,3.8,2.622,3.8,4.312
			c0,0.342-0.02,0.589-0.058,0.779H40.635z M45.536,133.244c0.02-1.045-0.437-2.697-2.317-2.697c-1.71,0-2.432,1.538-2.564,2.697
			H45.536z"/>
		<path fill="#FFFFFF" d="M48.216,132.028c0-0.969-0.019-1.729-0.076-2.488h1.482l0.095,1.52h0.038
			c0.456-0.854,1.52-1.71,3.039-1.71c1.273,0,3.249,0.76,3.249,3.914v5.471h-1.672v-5.3c0-1.482-0.551-2.717-2.128-2.717
			c-1.083,0-1.938,0.778-2.241,1.71c-0.076,0.209-0.114,0.493-0.114,0.778v5.528h-1.672V132.028z"/>
		<path fill="#FFFFFF" d="M65.676,125.246v11.113c0,0.817,0.038,1.748,0.076,2.375h-1.481l-0.076-1.596h-0.058
			c-0.493,1.025-1.596,1.805-3.097,1.805c-2.223,0-3.951-1.881-3.951-4.673c-0.019-3.059,1.9-4.921,4.123-4.921
			c1.425,0,2.355,0.665,2.773,1.387h0.038v-5.49H65.676z M64.023,133.282c0-0.209-0.02-0.494-0.076-0.703
			c-0.247-1.045-1.159-1.919-2.413-1.919c-1.729,0-2.754,1.521-2.754,3.534c0,1.861,0.931,3.4,2.716,3.4
			c1.121,0,2.147-0.76,2.451-1.995c0.057-0.228,0.076-0.456,0.076-0.722V133.282z"/>
		<path fill="#FFFFFF" d="M69.324,126.956c0,0.57-0.398,1.026-1.063,1.026c-0.607,0-1.007-0.456-1.007-1.026
			s0.418-1.045,1.045-1.045C68.907,125.911,69.324,126.367,69.324,126.956z M67.463,138.734v-9.194h1.672v9.194H67.463z"/>
		<path fill="#FFFFFF" d="M69.857,137.766l4.142-5.414c0.418-0.513,0.798-0.95,1.216-1.444v-0.038h-4.978v-1.329h6.991v1.045
			l-4.104,5.338c-0.398,0.513-0.76,0.987-1.178,1.443v0.038h5.357v1.33h-7.447V137.766z"/>
		<path fill="#FFFFFF" d="M84.486,136.53c0,0.798,0.038,1.577,0.133,2.204h-1.5l-0.134-1.159h-0.057
			c-0.513,0.723-1.501,1.368-2.812,1.368c-1.861,0-2.812-1.311-2.812-2.641c0-2.223,1.976-3.438,5.528-3.42v-0.189
			c0-0.741-0.209-2.128-2.09-2.108c-0.874,0-1.767,0.247-2.413,0.684l-0.38-1.121c0.76-0.475,1.881-0.798,3.04-0.798
			c2.812,0,3.495,1.919,3.495,3.742V136.53z M82.872,134.042c-1.824-0.038-3.895,0.285-3.895,2.07c0,1.103,0.722,1.597,1.558,1.597
			c1.216,0,1.994-0.761,2.261-1.539c0.057-0.19,0.076-0.38,0.076-0.532V134.042z"/>
		<path fill="#FFFFFF" d="M83.917,141.432c0.779-0.057,1.425-0.266,1.824-0.722c0.456-0.513,0.646-1.234,0.646-3.438v-7.731h1.672
			v8.378c0,1.785-0.285,2.944-1.102,3.78c-0.741,0.74-1.957,1.045-2.85,1.045L83.917,141.432z M88.248,126.956
			c0,0.551-0.38,1.026-1.063,1.026c-0.607,0-1.007-0.476-1.007-1.026c0-0.57,0.418-1.045,1.045-1.045S88.248,126.386,88.248,126.956
			z"/>
		<path fill="#FFFFFF" d="M90.719,134.441c0.038,2.261,1.463,3.191,3.153,3.191c1.197,0,1.938-0.209,2.546-0.476l0.304,1.197
			c-0.589,0.266-1.614,0.589-3.077,0.589c-2.83,0-4.521-1.881-4.521-4.654s1.634-4.939,4.312-4.939c3.021,0,3.8,2.622,3.8,4.312
			c0,0.342-0.02,0.589-0.058,0.779H90.719z M95.62,133.244c0.02-1.045-0.437-2.697-2.317-2.697c-1.71,0-2.432,1.538-2.564,2.697
			H95.62z"/>
		<path fill="#FFFFFF" d="M96.989,141.09c0.418-1.14,0.931-3.172,1.14-4.56l1.862-0.189c-0.456,1.614-1.292,3.724-1.824,4.616
			L96.989,141.09z"/>
		<path fill="#FFFFFF" d="M110.104,126.956c0,0.57-0.398,1.026-1.063,1.026c-0.607,0-1.007-0.456-1.007-1.026
			s0.418-1.045,1.045-1.045C109.687,125.911,110.104,126.367,110.104,126.956z M108.242,138.734v-9.194h1.672v9.194H108.242z"/>
		<path fill="#FFFFFF" d="M119.604,125.246v11.113c0,0.817,0.038,1.748,0.076,2.375h-1.481l-0.076-1.596h-0.058
			c-0.493,1.025-1.596,1.805-3.097,1.805c-2.223,0-3.951-1.881-3.951-4.673c-0.019-3.059,1.9-4.921,4.123-4.921
			c1.425,0,2.355,0.665,2.773,1.387h0.038v-5.49H119.604z M117.951,133.282c0-0.209-0.02-0.494-0.076-0.703
			c-0.247-1.045-1.159-1.919-2.413-1.919c-1.729,0-2.754,1.521-2.754,3.534c0,1.861,0.931,3.4,2.716,3.4
			c1.121,0,2.147-0.76,2.451-1.995c0.057-0.228,0.076-0.456,0.076-0.722V133.282z"/>
		<path fill="#FFFFFF" d="M122.321,134.441c0.038,2.261,1.463,3.191,3.154,3.191c1.196,0,1.938-0.209,2.545-0.476l0.304,1.197
			c-0.589,0.266-1.614,0.589-3.077,0.589c-2.83,0-4.521-1.881-4.521-4.654s1.634-4.939,4.312-4.939c3.021,0,3.8,2.622,3.8,4.312
			c0,0.342-0.02,0.589-0.058,0.779H122.321z M127.223,133.244c0.02-1.045-0.437-2.697-2.317-2.697c-1.71,0-2.432,1.538-2.564,2.697
			H127.223z"/>
		<path fill="#FFFFFF" d="M129.901,132.028c0-0.969-0.019-1.729-0.076-2.488h1.482l0.095,1.52h0.038
			c0.456-0.854,1.52-1.71,3.039-1.71c1.273,0,3.249,0.76,3.249,3.914v5.471h-1.672v-5.3c0-1.482-0.551-2.717-2.128-2.717
			c-1.083,0-1.938,0.778-2.241,1.71c-0.076,0.209-0.114,0.493-0.114,0.778v5.528h-1.672V132.028z"/>
		<path fill="#FFFFFF" d="M141.377,127.336v2.204h2.394v1.272h-2.394v4.958c0,1.14,0.323,1.786,1.254,1.786
			c0.456,0,0.722-0.038,0.969-0.114l0.076,1.273c-0.323,0.113-0.836,0.228-1.481,0.228c-0.779,0-1.406-0.266-1.805-0.703
			c-0.456-0.513-0.646-1.33-0.646-2.412v-5.016h-1.425v-1.272h1.425v-1.71L141.377,127.336z"/>
		<path fill="#FFFFFF" d="M146.507,126.956c0,0.57-0.398,1.026-1.063,1.026c-0.607,0-1.007-0.456-1.007-1.026
			s0.418-1.045,1.045-1.045C146.09,125.911,146.507,126.367,146.507,126.956z M144.646,138.734v-9.194h1.672v9.194H144.646z"/>
		<path fill="#FFFFFF" d="M148.256,138.734v-7.922h-1.272v-1.272h1.272v-0.514c0-2.412,1.425-3.989,4.009-3.989
			c0.854,0,1.861,0.267,2.336,0.608l-0.475,1.272c-0.418-0.285-1.121-0.532-1.938-0.532c-1.767,0-2.279,1.235-2.279,2.698v0.456
			h5.338v9.194h-1.672v-7.922h-3.666v7.922H148.256z"/>
		<path fill="#FFFFFF" d="M163.284,137.328h-0.038c-0.514,0.894-1.521,1.615-3.002,1.615c-2.146,0-3.895-1.843-3.895-4.636
			c0-3.457,2.223-4.958,4.16-4.958c1.425,0,2.375,0.703,2.831,1.577h0.038l0.057-1.387h1.577c-0.038,0.76-0.076,1.576-0.076,2.526
			v10.43h-1.652V137.328z M163.284,133.264c0-0.229-0.02-0.476-0.076-0.685c-0.267-1.025-1.14-1.899-2.394-1.899
			c-1.729,0-2.773,1.463-2.773,3.515c0,1.843,0.873,3.419,2.716,3.419c1.083,0,2.014-0.665,2.394-1.805
			c0.076-0.247,0.134-0.569,0.134-0.816V133.264z"/>
		<path fill="#FFFFFF" d="M174.399,136.208c0,0.969,0.019,1.805,0.075,2.526h-1.481l-0.095-1.501h-0.038
			c-0.418,0.741-1.406,1.71-3.04,1.71c-1.443,0-3.172-0.816-3.172-4.027v-5.376h1.672v5.072c0,1.747,0.551,2.944,2.052,2.944
			c1.12,0,1.899-0.779,2.203-1.539c0.095-0.228,0.152-0.531,0.152-0.854v-5.623h1.672V136.208z"/>
		<path fill="#FFFFFF" d="M177.097,134.441c0.038,2.261,1.463,3.191,3.154,3.191c1.196,0,1.938-0.209,2.545-0.476l0.304,1.197
			c-0.589,0.266-1.614,0.589-3.077,0.589c-2.83,0-4.521-1.881-4.521-4.654s1.634-4.939,4.312-4.939c3.021,0,3.8,2.622,3.8,4.312
			c0,0.342-0.02,0.589-0.058,0.779H177.097z M181.998,133.244c0.02-1.045-0.437-2.697-2.317-2.697c-1.71,0-2.432,1.538-2.564,2.697
			H181.998z"/>
		<path fill="#FFFFFF" d="M192.853,134.441c0.038,2.261,1.463,3.191,3.154,3.191c1.196,0,1.938-0.209,2.545-0.476l0.304,1.197
			c-0.589,0.266-1.614,0.589-3.077,0.589c-2.83,0-4.521-1.881-4.521-4.654s1.634-4.939,4.312-4.939c3.021,0,3.8,2.622,3.8,4.312
			c0,0.342-0.02,0.589-0.058,0.779H192.853z M197.754,133.244c0.02-1.045-0.437-2.697-2.317-2.697c-1.71,0-2.432,1.538-2.564,2.697
			H197.754z"/>
		<path fill="#FFFFFF" d="M200.434,132.028c0-0.969-0.019-1.729-0.076-2.488h1.482l0.095,1.52h0.038
			c0.456-0.854,1.52-1.71,3.039-1.71c1.273,0,3.249,0.76,3.249,3.914v5.471h-1.672v-5.3c0-1.482-0.551-2.717-2.128-2.717
			c-1.083,0-1.938,0.778-2.241,1.71c-0.076,0.209-0.114,0.493-0.114,0.778v5.528h-1.672V132.028z"/>
		<path fill="#FFFFFF" d="M223.77,138.411c-0.437,0.209-1.405,0.532-2.641,0.532c-2.773,0-4.578-1.881-4.578-4.692
			c0-2.83,1.938-4.901,4.939-4.901c0.988,0,1.861,0.247,2.317,0.494l-0.38,1.272c-0.398-0.209-1.025-0.437-1.938-0.437
			c-2.108,0-3.248,1.576-3.248,3.477c0,2.128,1.367,3.438,3.191,3.438c0.949,0,1.576-0.229,2.052-0.438L223.77,138.411z"/>
		<path fill="#FFFFFF" d="M231.179,136.53c0,0.798,0.038,1.577,0.133,2.204h-1.5l-0.134-1.159h-0.057
			c-0.513,0.723-1.501,1.368-2.812,1.368c-1.861,0-2.812-1.311-2.812-2.641c0-2.223,1.976-3.438,5.528-3.42v-0.189
			c0-0.741-0.209-2.128-2.09-2.108c-0.874,0-1.767,0.247-2.413,0.684l-0.38-1.121c0.76-0.475,1.881-0.798,3.04-0.798
			c2.812,0,3.495,1.919,3.495,3.742V136.53z M229.564,134.042c-1.824-0.038-3.895,0.285-3.895,2.07c0,1.103,0.722,1.597,1.558,1.597
			c1.216,0,1.994-0.761,2.261-1.539c0.057-0.19,0.076-0.38,0.076-0.532V134.042z"/>
		<path fill="#FFFFFF" d="M240.793,125.246v11.113c0,0.817,0.038,1.748,0.076,2.375h-1.481l-0.076-1.596h-0.058
			c-0.493,1.025-1.596,1.805-3.097,1.805c-2.223,0-3.951-1.881-3.951-4.673c-0.019-3.059,1.9-4.921,4.123-4.921
			c1.425,0,2.355,0.665,2.773,1.387h0.038v-5.49H240.793z M239.141,133.282c0-0.209-0.02-0.494-0.076-0.703
			c-0.247-1.045-1.159-1.919-2.413-1.919c-1.729,0-2.754,1.521-2.754,3.534c0,1.861,0.931,3.4,2.716,3.4
			c1.121,0,2.147-0.76,2.451-1.995c0.057-0.228,0.076-0.456,0.076-0.722V133.282z"/>
		<path fill="#FFFFFF" d="M249.039,136.53c0,0.798,0.038,1.577,0.133,2.204h-1.5l-0.134-1.159h-0.057
			c-0.513,0.723-1.501,1.368-2.812,1.368c-1.861,0-2.812-1.311-2.812-2.641c0-2.223,1.976-3.438,5.528-3.42v-0.189
			c0-0.741-0.209-2.128-2.09-2.108c-0.874,0-1.767,0.247-2.413,0.684l-0.38-1.121c0.76-0.475,1.881-0.798,3.04-0.798
			c2.812,0,3.495,1.919,3.495,3.742V136.53z M247.425,134.042c-1.824-0.038-3.895,0.285-3.895,2.07c0,1.103,0.722,1.597,1.558,1.597
			c1.216,0,1.994-0.761,2.261-1.539c0.057-0.19,0.076-0.38,0.076-0.532V134.042z"/>
		<path fill="#FFFFFF" d="M20.875,161.211c-0.437,0.209-1.405,0.532-2.641,0.532c-2.773,0-4.578-1.881-4.578-4.692
			c0-2.83,1.938-4.901,4.939-4.901c0.988,0,1.861,0.247,2.317,0.494l-0.38,1.272c-0.398-0.209-1.025-0.437-1.938-0.437
			c-2.108,0-3.248,1.576-3.248,3.477c0,2.128,1.367,3.438,3.191,3.438c0.949,0,1.576-0.229,2.052-0.438L20.875,161.211z"/>
		<path fill="#FFFFFF" d="M28.285,159.33c0,0.798,0.038,1.577,0.133,2.204h-1.5l-0.134-1.159h-0.057
			c-0.513,0.723-1.501,1.368-2.812,1.368c-1.861,0-2.812-1.311-2.812-2.641c0-2.223,1.976-3.438,5.528-3.42v-0.189
			c0-0.741-0.209-2.128-2.09-2.108c-0.874,0-1.767,0.246-2.413,0.684l-0.38-1.121c0.76-0.475,1.881-0.798,3.04-0.798
			c2.812,0,3.495,1.919,3.495,3.742V159.33z M26.671,156.842c-1.824-0.038-3.895,0.285-3.895,2.07c0,1.103,0.722,1.597,1.558,1.597
			c1.216,0,1.994-0.761,2.261-1.539c0.057-0.19,0.076-0.38,0.076-0.532V156.842z"/>
		<path fill="#FFFFFF" d="M29.75,159.844c0.513,0.304,1.387,0.646,2.223,0.646c1.196,0,1.767-0.589,1.767-1.368
			c0-0.798-0.476-1.216-1.691-1.671c-1.671-0.608-2.45-1.501-2.45-2.603c0-1.482,1.216-2.698,3.173-2.698
			c0.931,0,1.747,0.247,2.241,0.57l-0.398,1.216c-0.361-0.229-1.026-0.551-1.881-0.551c-0.988,0-1.52,0.569-1.52,1.254
			c0,0.76,0.531,1.102,1.729,1.576c1.576,0.589,2.412,1.387,2.412,2.755c0,1.634-1.272,2.773-3.419,2.773
			c-1.007,0-1.938-0.266-2.584-0.646L29.75,159.844z"/>
		<path fill="#FFFFFF" d="M44.814,156.861c0,3.4-2.375,4.882-4.579,4.882c-2.47,0-4.407-1.824-4.407-4.73
			c0-3.059,2.033-4.863,4.56-4.863C43.028,152.149,44.814,154.068,44.814,156.861z M37.538,156.956c0,2.014,1.14,3.533,2.773,3.533
			c1.596,0,2.793-1.501,2.793-3.571c0-1.558-0.779-3.515-2.755-3.515C38.393,153.403,37.538,155.228,37.538,156.956z"/>
		<path fill="#FFFFFF" d="M52.034,148.046h1.672v13.488h-1.672V148.046z"/>
		<path fill="#FFFFFF" d="M61.97,159.33c0,0.798,0.038,1.577,0.133,2.204h-1.5l-0.134-1.159h-0.057
			c-0.513,0.723-1.501,1.368-2.812,1.368c-1.861,0-2.812-1.311-2.812-2.641c0-2.223,1.976-3.438,5.528-3.42v-0.189
			c0-0.741-0.209-2.128-2.09-2.108c-0.874,0-1.767,0.246-2.413,0.684l-0.38-1.121c0.76-0.475,1.881-0.798,3.04-0.798
			c2.812,0,3.495,1.919,3.495,3.742V159.33z M60.355,156.842c-1.824-0.038-3.895,0.285-3.895,2.07c0,1.103,0.722,1.597,1.558,1.597
			c1.216,0,1.994-0.761,2.261-1.539c0.057-0.19,0.076-0.38,0.076-0.532V156.842z"/>
		<path fill="#FFFFFF" d="M63.435,159.844c0.513,0.304,1.387,0.646,2.223,0.646c1.196,0,1.767-0.589,1.767-1.368
			c0-0.798-0.476-1.216-1.691-1.671c-1.671-0.608-2.45-1.501-2.45-2.603c0-1.482,1.216-2.698,3.173-2.698
			c0.931,0,1.747,0.247,2.241,0.57l-0.398,1.216c-0.361-0.229-1.026-0.551-1.881-0.551c-0.988,0-1.52,0.569-1.52,1.254
			c0,0.76,0.531,1.102,1.729,1.576c1.576,0.589,2.412,1.387,2.412,2.755c0,1.634-1.272,2.773-3.419,2.773
			c-1.007,0-1.938-0.266-2.584-0.646L63.435,159.844z"/>
		<path fill="#FFFFFF" d="M76.295,148.046h1.672v5.757h0.038c0.266-0.476,0.684-0.912,1.196-1.197
			c0.494-0.285,1.083-0.456,1.71-0.456c1.235,0,3.211,0.76,3.211,3.913v5.472H82.45v-5.281c0-1.481-0.551-2.717-2.128-2.717
			c-1.083,0-1.919,0.76-2.241,1.653c-0.096,0.247-0.114,0.493-0.114,0.798v5.547h-1.672V148.046z"/>
		<path fill="#FFFFFF" d="M92.292,159.33c0,0.798,0.038,1.577,0.133,2.204h-1.5l-0.134-1.159h-0.057
			c-0.513,0.723-1.501,1.368-2.812,1.368c-1.861,0-2.812-1.311-2.812-2.641c0-2.223,1.976-3.438,5.528-3.42v-0.189
			c0-0.741-0.209-2.128-2.09-2.108c-0.874,0-1.767,0.246-2.413,0.684l-0.38-1.121c0.76-0.475,1.881-0.798,3.04-0.798
			c2.812,0,3.495,1.919,3.495,3.742V159.33z M90.678,156.842c-1.824-0.038-3.895,0.285-3.895,2.07c0,1.103,0.722,1.597,1.558,1.597
			c1.216,0,1.994-0.761,2.261-1.539c0.057-0.19,0.076-0.38,0.076-0.532V156.842z"/>
		<path fill="#FFFFFF" d="M93.984,148.046h1.653v5.775h0.037c0.589-1.025,1.653-1.672,3.135-1.672c2.299,0,3.895,1.899,3.895,4.674
			c0,3.286-2.09,4.92-4.142,4.92c-1.329,0-2.394-0.513-3.097-1.71h-0.037l-0.096,1.501h-1.425c0.038-0.627,0.076-1.558,0.076-2.375
			V148.046z M95.638,157.849c0,0.209,0.019,0.418,0.075,0.608c0.305,1.158,1.292,1.956,2.508,1.956c1.767,0,2.793-1.425,2.793-3.533
			c0-1.843-0.95-3.42-2.755-3.42c-1.121,0-2.185,0.798-2.526,2.052c-0.058,0.209-0.095,0.438-0.095,0.703V157.849z"/>
		<path fill="#FFFFFF" d="M105.648,149.756c0,0.57-0.398,1.026-1.063,1.026c-0.607,0-1.007-0.456-1.007-1.026
			s0.418-1.045,1.045-1.045C105.231,148.711,105.648,149.167,105.648,149.756z M103.787,161.534v-9.194h1.672v9.194H103.787z"/>
		<path fill="#FFFFFF" d="M107.227,148.046h1.672v13.488h-1.672V148.046z"/>
		<path fill="#FFFFFF" d="M112.564,149.756c0,0.57-0.398,1.026-1.063,1.026c-0.607,0-1.007-0.456-1.007-1.026
			s0.418-1.045,1.045-1.045C112.147,148.711,112.564,149.167,112.564,149.756z M110.703,161.534v-9.194h1.672v9.194H110.703z"/>
		<path fill="#FFFFFF" d="M122.064,148.046v11.113c0,0.817,0.038,1.748,0.076,2.375h-1.481l-0.076-1.596h-0.058
			c-0.493,1.025-1.596,1.805-3.097,1.805c-2.223,0-3.951-1.881-3.951-4.673c-0.019-3.059,1.9-4.921,4.123-4.921
			c1.425,0,2.355,0.665,2.773,1.387h0.038v-5.49H122.064z M120.412,156.082c0-0.209-0.02-0.494-0.076-0.703
			c-0.247-1.045-1.159-1.919-2.413-1.919c-1.729,0-2.754,1.521-2.754,3.534c0,1.861,0.931,3.4,2.716,3.4
			c1.121,0,2.147-0.76,2.451-1.995c0.057-0.228,0.076-0.456,0.076-0.722V156.082z"/>
		<path fill="#FFFFFF" d="M130.311,159.33c0,0.798,0.038,1.577,0.133,2.204h-1.5l-0.134-1.159h-0.057
			c-0.513,0.723-1.501,1.368-2.812,1.368c-1.861,0-2.812-1.311-2.812-2.641c0-2.223,1.976-3.438,5.528-3.42v-0.189
			c0-0.741-0.209-2.128-2.09-2.108c-0.874,0-1.767,0.246-2.413,0.684l-0.38-1.121c0.76-0.475,1.881-0.798,3.04-0.798
			c2.812,0,3.495,1.919,3.495,3.742V159.33z M128.696,156.842c-1.824-0.038-3.895,0.285-3.895,2.07c0,1.103,0.722,1.597,1.558,1.597
			c1.216,0,1.994-0.761,2.261-1.539c0.057-0.19,0.076-0.38,0.076-0.532V156.842z"/>
		<path fill="#FFFFFF" d="M139.925,148.046v11.113c0,0.817,0.038,1.748,0.076,2.375h-1.482l-0.075-1.596h-0.058
			c-0.493,1.025-1.596,1.805-3.097,1.805c-2.223,0-3.951-1.881-3.951-4.673c-0.019-3.059,1.9-4.921,4.123-4.921
			c1.425,0,2.355,0.665,2.773,1.387h0.038v-5.49H139.925z M138.272,156.082c0-0.209-0.02-0.494-0.076-0.703
			c-0.247-1.045-1.159-1.919-2.413-1.919c-1.729,0-2.754,1.521-2.754,3.534c0,1.861,0.931,3.4,2.716,3.4
			c1.121,0,2.147-0.76,2.451-1.995c0.057-0.228,0.076-0.456,0.076-0.722V156.082z"/>
		<path fill="#FFFFFF" d="M142.642,157.241c0.038,2.261,1.463,3.191,3.154,3.191c1.196,0,1.938-0.209,2.545-0.476l0.304,1.197
			c-0.589,0.266-1.614,0.589-3.077,0.589c-2.83,0-4.521-1.881-4.521-4.654s1.634-4.939,4.312-4.939c3.021,0,3.8,2.622,3.8,4.312
			c0,0.342-0.02,0.589-0.058,0.779H142.642z M147.543,156.044c0.02-1.045-0.437-2.697-2.317-2.697c-1.71,0-2.432,1.538-2.564,2.697
			H147.543z"/>
		<path fill="#FFFFFF" d="M149.995,159.844c0.513,0.304,1.387,0.646,2.223,0.646c1.196,0,1.767-0.589,1.767-1.368
			c0-0.798-0.476-1.216-1.691-1.671c-1.671-0.608-2.45-1.501-2.45-2.603c0-1.482,1.216-2.698,3.173-2.698
			c0.931,0,1.747,0.247,2.241,0.57l-0.398,1.216c-0.361-0.229-1.026-0.551-1.881-0.551c-0.988,0-1.52,0.569-1.52,1.254
			c0,0.76,0.531,1.102,1.729,1.576c1.576,0.589,2.412,1.387,2.412,2.755c0,1.634-1.272,2.773-3.419,2.773
			c-1.007,0-1.938-0.266-2.584-0.646L149.995,159.844z"/>
		<path fill="#FFFFFF" d="M163.465,152.34l1.994,5.433c0.229,0.608,0.456,1.33,0.608,1.881h0.038
			c0.171-0.551,0.36-1.254,0.589-1.919l1.823-5.395h1.767l-2.508,6.554c-1.196,3.153-2.014,4.749-3.153,5.756
			c-0.836,0.703-1.634,0.988-2.052,1.064l-0.418-1.387c0.418-0.134,0.969-0.399,1.463-0.817c0.456-0.36,1.007-1.007,1.406-1.861
			c0.076-0.171,0.133-0.305,0.133-0.399s-0.038-0.228-0.133-0.437l-3.382-8.473H163.465z"/>
		<path fill="#FFFFFF" d="M176.915,148.046h1.672v13.488h-1.672V148.046z"/>
		<path fill="#FFFFFF" d="M188.713,156.861c0,3.4-2.375,4.882-4.579,4.882c-2.47,0-4.407-1.824-4.407-4.73
			c0-3.059,2.033-4.863,4.56-4.863C186.927,152.149,188.713,154.068,188.713,156.861z M181.437,156.956
			c0,2.014,1.14,3.533,2.773,3.533c1.596,0,2.793-1.501,2.793-3.571c0-1.558-0.779-3.515-2.755-3.515
			C182.291,153.403,181.437,155.228,181.437,156.956z"/>
		<path fill="#FFFFFF" d="M189.588,159.844c0.513,0.304,1.387,0.646,2.223,0.646c1.196,0,1.767-0.589,1.767-1.368
			c0-0.798-0.476-1.216-1.691-1.671c-1.671-0.608-2.45-1.501-2.45-2.603c0-1.482,1.216-2.698,3.173-2.698
			c0.931,0,1.747,0.247,2.241,0.57l-0.398,1.216c-0.361-0.229-1.026-0.551-1.881-0.551c-0.988,0-1.52,0.569-1.52,1.254
			c0,0.76,0.531,1.102,1.729,1.576c1.576,0.589,2.412,1.387,2.412,2.755c0,1.634-1.272,2.773-3.419,2.773
			c-1.007,0-1.938-0.266-2.584-0.646L189.588,159.844z"/>
		<path fill="#FFFFFF" d="M203.379,157.241c0.038,2.261,1.463,3.191,3.153,3.191c1.197,0,1.938-0.209,2.546-0.476l0.304,1.197
			c-0.589,0.266-1.614,0.589-3.077,0.589c-2.83,0-4.521-1.881-4.521-4.654s1.634-4.939,4.312-4.939c3.021,0,3.8,2.622,3.8,4.312
			c0,0.342-0.02,0.589-0.058,0.779H203.379z M208.28,156.044c0.02-1.045-0.437-2.697-2.317-2.697c-1.71,0-2.432,1.538-2.564,2.697
			H208.28z"/>
		<path fill="#FFFFFF" d="M210.96,155.208c0-1.083-0.019-2.014-0.076-2.868h1.463l0.076,1.823h0.057
			c0.418-1.234,1.444-2.014,2.564-2.014c0.172,0,0.305,0.02,0.456,0.038v1.577c-0.171-0.038-0.342-0.038-0.569-0.038
			c-1.178,0-2.014,0.874-2.242,2.128c-0.038,0.228-0.057,0.513-0.057,0.778v4.901h-1.672V155.208z"/>
		<path fill="#FFFFFF" d="M216.242,155.208c0-1.083-0.019-2.014-0.076-2.868h1.463l0.076,1.823h0.057
			c0.418-1.234,1.444-2.014,2.565-2.014c0.171,0,0.304,0.02,0.455,0.038v1.577c-0.171-0.038-0.342-0.038-0.569-0.038
			c-1.178,0-2.014,0.874-2.242,2.128c-0.038,0.228-0.057,0.513-0.057,0.778v4.901h-1.672V155.208z"/>
		<path fill="#FFFFFF" d="M229.579,156.861c0,3.4-2.375,4.882-4.579,4.882c-2.47,0-4.407-1.824-4.407-4.73
			c0-3.059,2.033-4.863,4.56-4.863C227.793,152.149,229.579,154.068,229.579,156.861z M222.303,156.956
			c0,2.014,1.14,3.533,2.773,3.533c1.596,0,2.793-1.501,2.793-3.571c0-1.558-0.779-3.515-2.755-3.515
			C223.157,153.403,222.303,155.228,222.303,156.956z"/>
		<path fill="#FFFFFF" d="M230.682,155.208c0-1.083-0.019-2.014-0.076-2.868h1.463l0.076,1.823h0.057
			c0.418-1.234,1.444-2.014,2.565-2.014c0.171,0,0.304,0.02,0.455,0.038v1.577c-0.171-0.038-0.342-0.038-0.569-0.038
			c-1.178,0-2.014,0.874-2.242,2.128c-0.038,0.228-0.057,0.513-0.057,0.778v4.901h-1.672V155.208z"/>
		<path fill="#FFFFFF" d="M236.628,157.241c0.038,2.261,1.463,3.191,3.154,3.191c1.196,0,1.938-0.209,2.545-0.476l0.304,1.197
			c-0.589,0.266-1.614,0.589-3.077,0.589c-2.83,0-4.521-1.881-4.521-4.654s1.634-4.939,4.312-4.939c3.021,0,3.8,2.622,3.8,4.312
			c0,0.342-0.02,0.589-0.058,0.779H236.628z M241.529,156.044c0.02-1.045-0.437-2.697-2.317-2.697c-1.71,0-2.432,1.538-2.564,2.697
			H241.529z"/>
		<path fill="#FFFFFF" d="M243.981,159.844c0.513,0.304,1.387,0.646,2.223,0.646c1.196,0,1.767-0.589,1.767-1.368
			c0-0.798-0.476-1.216-1.691-1.671c-1.671-0.608-2.45-1.501-2.45-2.603c0-1.482,1.216-2.698,3.173-2.698
			c0.931,0,1.747,0.247,2.241,0.57l-0.398,1.216c-0.361-0.229-1.026-0.551-1.881-0.551c-0.988,0-1.52,0.569-1.52,1.254
			c0,0.76,0.531,1.102,1.729,1.576c1.576,0.589,2.412,1.387,2.412,2.755c0,1.634-1.272,2.773-3.419,2.773
			c-1.007,0-1.938-0.266-2.584-0.646L243.981,159.844z"/>
		<path fill="#FFFFFF" d="M22.243,170.846v11.113c0,0.817,0.038,1.748,0.076,2.375h-1.482l-0.075-1.596h-0.058
			c-0.493,1.025-1.596,1.805-3.097,1.805c-2.223,0-3.951-1.881-3.951-4.673c-0.019-3.059,1.9-4.921,4.123-4.921
			c1.425,0,2.355,0.665,2.773,1.387h0.038v-5.49H22.243z M20.591,178.882c0-0.209-0.02-0.494-0.076-0.703
			c-0.247-1.045-1.159-1.919-2.413-1.919c-1.729,0-2.754,1.521-2.754,3.534c0,1.861,0.931,3.4,2.716,3.4
			c1.121,0,2.147-0.76,2.451-1.995c0.057-0.228,0.076-0.456,0.076-0.722V178.882z"/>
		<path fill="#FFFFFF" d="M24.961,180.041c0.038,2.261,1.463,3.191,3.153,3.191c1.197,0,1.938-0.209,2.546-0.476l0.304,1.197
			c-0.589,0.266-1.614,0.589-3.077,0.589c-2.83,0-4.521-1.881-4.521-4.654s1.634-4.939,4.312-4.939c3.021,0,3.8,2.622,3.8,4.312
			c0,0.342-0.02,0.589-0.058,0.779H24.961z M29.862,178.844c0.02-1.045-0.437-2.697-2.317-2.697c-1.71,0-2.432,1.538-2.564,2.697
			H29.862z"/>
		<path fill="#FFFFFF" d="M32.542,170.846h1.672v13.488h-1.672V170.846z"/>
		<path fill="#FFFFFF" d="M40.894,178.141c0-1.178-0.038-2.127-0.076-3.001H42.3l0.095,1.576h0.038
			c0.665-1.12,1.767-1.767,3.268-1.767c2.241,0,3.913,1.881,3.913,4.654c0,3.306-2.032,4.939-4.198,4.939
			c-1.216,0-2.279-0.532-2.831-1.443h-0.038v4.996h-1.652V178.141z M42.546,180.592c0,0.247,0.02,0.475,0.076,0.684
			c0.305,1.159,1.312,1.957,2.508,1.957c1.767,0,2.793-1.444,2.793-3.553c0-1.824-0.969-3.4-2.736-3.4
			c-1.14,0-2.223,0.798-2.526,2.052c-0.057,0.209-0.114,0.456-0.114,0.665V180.592z"/>
		<path fill="#FFFFFF" d="M50.697,178.008c0-1.083-0.019-2.014-0.076-2.868h1.463l0.076,1.823h0.057
			c0.418-1.234,1.444-2.014,2.565-2.014c0.171,0,0.304,0.02,0.455,0.038v1.577c-0.171-0.038-0.342-0.038-0.569-0.038
			c-1.178,0-2.014,0.874-2.242,2.128c-0.038,0.228-0.057,0.513-0.057,0.778v4.901h-1.672V178.008z"/>
		<path fill="#FFFFFF" d="M64.035,179.661c0,3.4-2.375,4.882-4.579,4.882c-2.47,0-4.407-1.824-4.407-4.73
			c0-3.059,2.033-4.863,4.56-4.863C62.249,174.949,64.035,176.868,64.035,179.661z M56.759,179.756c0,2.014,1.14,3.533,2.773,3.533
			c1.596,0,2.793-1.501,2.793-3.571c0-1.558-0.779-3.515-2.755-3.515C57.613,176.203,56.759,178.027,56.759,179.756z"/>
		<path fill="#FFFFFF" d="M65.309,184.334v-7.922h-1.272v-1.272h1.272v-0.438c0-1.292,0.304-2.47,1.064-3.21
			c0.626-0.608,1.462-0.855,2.241-0.855c0.607,0,1.102,0.133,1.425,0.267l-0.228,1.291c-0.247-0.113-0.57-0.209-1.064-0.209
			c-1.425,0-1.785,1.235-1.785,2.66v0.494h2.223v1.272h-2.223v7.922H65.309z"/>
		<path fill="#FFFFFF" d="M70.362,180.041c0.038,2.261,1.463,3.191,3.154,3.191c1.196,0,1.938-0.209,2.545-0.476l0.304,1.197
			c-0.589,0.266-1.614,0.589-3.077,0.589c-2.83,0-4.521-1.881-4.521-4.654s1.634-4.939,4.312-4.939c3.021,0,3.8,2.622,3.8,4.312
			c0,0.342-0.02,0.589-0.058,0.779H70.362z M75.264,178.844c0.02-1.045-0.437-2.697-2.317-2.697c-1.71,0-2.432,1.538-2.564,2.697
			H75.264z"/>
		<path fill="#FFFFFF" d="M77.716,182.644c0.513,0.304,1.387,0.646,2.223,0.646c1.196,0,1.767-0.589,1.767-1.368
			c0-0.798-0.476-1.216-1.691-1.671c-1.671-0.608-2.45-1.501-2.45-2.604c0-1.481,1.216-2.697,3.173-2.697
			c0.931,0,1.747,0.247,2.241,0.57l-0.398,1.216c-0.361-0.229-1.026-0.551-1.881-0.551c-0.988,0-1.52,0.569-1.52,1.254
			c0,0.76,0.531,1.102,1.729,1.576c1.576,0.589,2.412,1.387,2.412,2.755c0,1.634-1.272,2.773-3.419,2.773
			c-1.007,0-1.938-0.266-2.584-0.646L77.716,182.644z"/>
		<path fill="#FFFFFF" d="M86.32,172.556c0,0.57-0.398,1.026-1.063,1.026c-0.607,0-1.007-0.456-1.007-1.026s0.418-1.045,1.045-1.045
			C85.903,171.511,86.32,171.967,86.32,172.556z M84.459,184.334v-9.194h1.672v9.194H84.459z"/>
		<path fill="#FFFFFF" d="M96.22,179.661c0,3.4-2.375,4.882-4.579,4.882c-2.47,0-4.407-1.824-4.407-4.73
			c0-3.059,2.033-4.863,4.56-4.863C94.434,174.949,96.22,176.868,96.22,179.661z M88.943,179.756c0,2.014,1.14,3.533,2.773,3.533
			c1.596,0,2.793-1.501,2.793-3.571c0-1.558-0.779-3.515-2.755-3.515C89.798,176.203,88.943,178.027,88.943,179.756z"/>
		<path fill="#FFFFFF" d="M97.322,177.628c0-0.969-0.019-1.729-0.076-2.488h1.482l0.095,1.52h0.038
			c0.456-0.854,1.52-1.71,3.039-1.71c1.273,0,3.249,0.76,3.249,3.914v5.471h-1.672v-5.3c0-1.482-0.551-2.717-2.128-2.717
			c-1.083,0-1.938,0.778-2.241,1.71c-0.076,0.209-0.114,0.493-0.114,0.778v5.528h-1.672V177.628z"/>
		<path fill="#FFFFFF" d="M113.319,182.13c0,0.798,0.038,1.577,0.133,2.204h-1.5l-0.134-1.159h-0.057
			c-0.513,0.723-1.501,1.368-2.812,1.368c-1.861,0-2.812-1.311-2.812-2.641c0-2.223,1.976-3.438,5.528-3.42v-0.189
			c0-0.741-0.209-2.128-2.09-2.108c-0.874,0-1.767,0.247-2.413,0.684l-0.38-1.121c0.76-0.475,1.881-0.798,3.04-0.798
			c2.812,0,3.495,1.919,3.495,3.742V182.13z M111.705,179.642c-1.824-0.038-3.895,0.285-3.895,2.07c0,1.103,0.722,1.597,1.558,1.597
			c1.216,0,1.994-0.761,2.261-1.539c0.057-0.19,0.076-0.38,0.076-0.532V179.642z"/>
		<path fill="#FFFFFF" d="M115.012,170.846h1.672v13.488h-1.672V170.846z"/>
		<path fill="#FFFFFF" d="M117.899,183.346c0-0.684,0.475-1.196,1.14-1.196s1.12,0.494,1.12,1.196c0,0.685-0.455,1.197-1.158,1.197
			C118.354,184.543,117.899,184.03,117.899,183.346z"/>
		<path fill="#FFFFFF" d="M134.021,170.846v11.113c0,0.817,0.038,1.748,0.076,2.375h-1.482l-0.075-1.596h-0.058
			c-0.493,1.025-1.596,1.805-3.097,1.805c-2.223,0-3.951-1.881-3.951-4.673c-0.019-3.059,1.9-4.921,4.123-4.921
			c1.425,0,2.355,0.665,2.773,1.387h0.038v-5.49H134.021z M132.368,178.882c0-0.209-0.02-0.494-0.076-0.703
			c-0.247-1.045-1.159-1.919-2.413-1.919c-1.729,0-2.754,1.521-2.754,3.534c0,1.861,0.931,3.4,2.716,3.4
			c1.121,0,2.147-0.76,2.451-1.995c0.057-0.228,0.076-0.456,0.076-0.722V178.882z"/>
		<path fill="#FFFFFF" d="M136.738,180.041c0.038,2.261,1.463,3.191,3.153,3.191c1.197,0,1.938-0.209,2.546-0.476l0.304,1.197
			c-0.589,0.266-1.614,0.589-3.077,0.589c-2.83,0-4.521-1.881-4.521-4.654s1.634-4.939,4.312-4.939c3.021,0,3.8,2.622,3.8,4.312
			c0,0.342-0.02,0.589-0.058,0.779H136.738z M141.64,178.844c0.02-1.045-0.437-2.697-2.317-2.697c-1.71,0-2.432,1.538-2.564,2.697
			H141.64z"/>
		<path fill="#FFFFFF" d="M155.749,184.011c-0.437,0.209-1.405,0.532-2.641,0.532c-2.773,0-4.578-1.881-4.578-4.692
			c0-2.83,1.938-4.901,4.939-4.901c0.988,0,1.861,0.247,2.317,0.494l-0.38,1.272c-0.398-0.209-1.025-0.437-1.938-0.437
			c-2.108,0-3.248,1.576-3.248,3.477c0,2.128,1.367,3.438,3.191,3.438c0.949,0,1.576-0.229,2.052-0.438L155.749,184.011z"/>
		<path fill="#FFFFFF" d="M156.7,170.846h1.672v13.488H156.7V170.846z"/>
		<path fill="#FFFFFF" d="M162.037,172.556c0,0.57-0.398,1.026-1.063,1.026c-0.607,0-1.007-0.456-1.007-1.026
			s0.418-1.045,1.045-1.045C161.62,171.511,162.037,171.967,162.037,172.556z M160.176,184.334v-9.194h1.672v9.194H160.176z"/>
		<path fill="#FFFFFF" d="M170.169,184.011c-0.437,0.209-1.405,0.532-2.641,0.532c-2.773,0-4.578-1.881-4.578-4.692
			c0-2.83,1.938-4.901,4.939-4.901c0.988,0,1.861,0.247,2.317,0.494l-0.38,1.272c-0.398-0.209-1.025-0.437-1.938-0.437
			c-2.108,0-3.248,1.576-3.248,3.477c0,2.128,1.367,3.438,3.191,3.438c0.949,0,1.576-0.229,2.052-0.438L170.169,184.011z"/>
		<path fill="#FFFFFF" d="M172.772,179.356h0.038c0.229-0.322,0.532-0.722,0.798-1.045l2.717-3.172h1.995l-3.533,3.78l4.046,5.414
			h-2.052l-3.153-4.407l-0.855,0.95v3.457h-1.652v-13.488h1.652V179.356z"/>
		<path fill="#FFFFFF" d="M190.359,182.13c0,0.798,0.038,1.577,0.133,2.204h-1.5l-0.134-1.159h-0.057
			c-0.513,0.723-1.501,1.368-2.812,1.368c-1.861,0-2.812-1.311-2.812-2.641c0-2.223,1.976-3.438,5.528-3.42v-0.189
			c0-0.741-0.209-2.128-2.09-2.108c-0.874,0-1.767,0.247-2.413,0.684l-0.38-1.121c0.76-0.475,1.881-0.798,3.04-0.798
			c2.812,0,3.495,1.919,3.495,3.742V182.13z M188.745,179.642c-1.824-0.038-3.895,0.285-3.895,2.07c0,1.103,0.722,1.597,1.558,1.597
			c1.216,0,1.994-0.761,2.261-1.539c0.057-0.19,0.076-0.38,0.076-0.532V179.642z"/>
		<path fill="#FFFFFF" d="M196.928,170.846h1.672v13.488h-1.672V170.846z"/>
		<path fill="#FFFFFF" d="M206.862,182.13c0,0.798,0.038,1.577,0.133,2.204h-1.5l-0.134-1.159h-0.057
			c-0.513,0.723-1.501,1.368-2.812,1.368c-1.861,0-2.812-1.311-2.812-2.641c0-2.223,1.976-3.438,5.528-3.42v-0.189
			c0-0.741-0.209-2.128-2.09-2.108c-0.874,0-1.767,0.247-2.413,0.684l-0.38-1.121c0.76-0.475,1.881-0.798,3.04-0.798
			c2.812,0,3.495,1.919,3.495,3.742V182.13z M205.248,179.642c-1.824-0.038-3.895,0.285-3.895,2.07c0,1.103,0.722,1.597,1.558,1.597
			c1.216,0,1.994-0.761,2.261-1.539c0.057-0.19,0.076-0.38,0.076-0.532V179.642z"/>
		<path fill="#FFFFFF" d="M213.431,178.141c0-1.178-0.038-2.127-0.076-3.001h1.482l0.095,1.576h0.038
			c0.665-1.12,1.767-1.767,3.268-1.767c2.241,0,3.913,1.881,3.913,4.654c0,3.306-2.032,4.939-4.198,4.939
			c-1.216,0-2.279-0.532-2.831-1.443h-0.038v4.996h-1.652V178.141z M215.083,180.592c0,0.247,0.02,0.475,0.076,0.684
			c0.305,1.159,1.312,1.957,2.508,1.957c1.767,0,2.793-1.444,2.793-3.553c0-1.824-0.969-3.4-2.736-3.4
			c-1.14,0-2.223,0.798-2.526,2.052c-0.057,0.209-0.114,0.456-0.114,0.665V180.592z"/>
		<path fill="#FFFFFF" d="M229.693,182.13c0,0.798,0.038,1.577,0.133,2.204h-1.5l-0.134-1.159h-0.057
			c-0.513,0.723-1.501,1.368-2.812,1.368c-1.861,0-2.812-1.311-2.812-2.641c0-2.223,1.976-3.438,5.528-3.42v-0.189
			c0-0.741-0.209-2.128-2.09-2.108c-0.874,0-1.767,0.247-2.413,0.684l-0.38-1.121c0.76-0.475,1.881-0.798,3.04-0.798
			c2.812,0,3.495,1.919,3.495,3.742V182.13z M228.079,179.642c-1.824-0.038-3.895,0.285-3.895,2.07c0,1.103,0.722,1.597,1.558,1.597
			c1.216,0,1.994-0.761,2.261-1.539c0.057-0.19,0.076-0.38,0.076-0.532V179.642z"/>
		<path fill="#FFFFFF" d="M231.386,178.008c0-1.083-0.019-2.014-0.076-2.868h1.463l0.076,1.823h0.057
			c0.418-1.234,1.444-2.014,2.564-2.014c0.172,0,0.305,0.02,0.456,0.038v1.577c-0.171-0.038-0.342-0.038-0.569-0.038
			c-1.178,0-2.014,0.874-2.242,2.128c-0.038,0.228-0.057,0.513-0.057,0.778v4.901h-1.672V178.008z"/>
		<path fill="#FFFFFF" d="M239.062,172.936v2.204h2.394v1.272h-2.394v4.958c0,1.14,0.323,1.786,1.254,1.786
			c0.456,0,0.722-0.038,0.969-0.114l0.076,1.273c-0.323,0.113-0.836,0.228-1.481,0.228c-0.779,0-1.406-0.266-1.805-0.703
			c-0.456-0.513-0.646-1.33-0.646-2.412v-5.016h-1.425v-1.272h1.425v-1.71L239.062,172.936z"/>
		<path fill="#FFFFFF" d="M243.146,180.041c0.038,2.261,1.463,3.191,3.154,3.191c1.196,0,1.938-0.209,2.545-0.476l0.304,1.197
			c-0.589,0.266-1.614,0.589-3.077,0.589c-2.83,0-4.521-1.881-4.521-4.654s1.634-4.939,4.312-4.939c3.021,0,3.8,2.622,3.8,4.312
			c0,0.342-0.02,0.589-0.058,0.779H243.146z M248.047,178.844c0.02-1.045-0.437-2.697-2.317-2.697c-1.71,0-2.432,1.538-2.564,2.697
			H248.047z"/>
		<path fill="#FFFFFF" d="M22.243,193.646v11.113c0,0.817,0.038,1.748,0.076,2.375h-1.482l-0.075-1.596h-0.058
			c-0.493,1.025-1.596,1.805-3.097,1.805c-2.223,0-3.951-1.881-3.951-4.673c-0.019-3.059,1.9-4.921,4.123-4.921
			c1.425,0,2.355,0.665,2.773,1.387h0.038v-5.49H22.243z M20.591,201.682c0-0.209-0.02-0.494-0.076-0.703
			c-0.247-1.045-1.159-1.919-2.413-1.919c-1.729,0-2.754,1.521-2.754,3.534c0,1.861,0.931,3.4,2.716,3.4
			c1.121,0,2.147-0.76,2.451-1.995c0.057-0.228,0.076-0.456,0.076-0.722V201.682z"/>
		<path fill="#FFFFFF" d="M24.961,202.841c0.038,2.261,1.463,3.191,3.153,3.191c1.197,0,1.938-0.209,2.546-0.476l0.304,1.197
			c-0.589,0.266-1.614,0.589-3.077,0.589c-2.83,0-4.521-1.881-4.521-4.654s1.634-4.939,4.312-4.939c3.021,0,3.8,2.622,3.8,4.312
			c0,0.342-0.02,0.589-0.058,0.779H24.961z M29.862,201.644c0.02-1.045-0.437-2.697-2.317-2.697c-1.71,0-2.432,1.538-2.564,2.697
			H29.862z"/>
		<path fill="#FFFFFF" d="M35.562,193.646h1.672v13.488h-1.672V193.646z"/>
		<path fill="#FFFFFF" d="M45.497,204.93c0,0.798,0.038,1.577,0.133,2.204h-1.5l-0.134-1.159h-0.057
			c-0.513,0.723-1.501,1.368-2.812,1.368c-1.861,0-2.812-1.311-2.812-2.641c0-2.223,1.976-3.438,5.528-3.42v-0.189
			c0-0.741-0.209-2.128-2.09-2.108c-0.874,0-1.767,0.246-2.413,0.684l-0.38-1.121c0.76-0.475,1.881-0.798,3.04-0.798
			c2.812,0,3.495,1.919,3.495,3.742V204.93z M43.883,202.441c-1.824-0.038-3.895,0.285-3.895,2.07c0,1.103,0.722,1.597,1.558,1.597
			c1.216,0,1.994-0.761,2.261-1.539c0.057-0.19,0.076-0.38,0.076-0.532V202.441z"/>
		<path fill="#FFFFFF" d="M58.531,202.461c0,3.4-2.375,4.882-4.579,4.882c-2.47,0-4.407-1.824-4.407-4.73
			c0-3.059,2.033-4.863,4.56-4.863C56.745,197.749,58.531,199.668,58.531,202.461z M51.255,202.556c0,2.014,1.14,3.533,2.773,3.533
			c1.596,0,2.793-1.501,2.793-3.571c0-1.558-0.779-3.515-2.755-3.515C52.109,199.003,51.255,200.827,51.255,202.556z"/>
		<path fill="#FFFFFF" d="M59.634,200.808c0-1.083-0.019-2.014-0.076-2.868h1.463l0.076,1.823h0.057
			c0.418-1.234,1.444-2.014,2.564-2.014c0.172,0,0.305,0.02,0.456,0.038v1.577c-0.171-0.038-0.342-0.038-0.569-0.038
			c-1.178,0-2.014,0.874-2.242,2.128c-0.038,0.228-0.057,0.513-0.057,0.778v4.901h-1.672V200.808z"/>
		<path fill="#FFFFFF" d="M71.204,204.93c0,0.798,0.038,1.577,0.133,2.204h-1.5l-0.134-1.159h-0.057
			c-0.513,0.723-1.501,1.368-2.812,1.368c-1.861,0-2.812-1.311-2.812-2.641c0-2.223,1.976-3.438,5.528-3.42v-0.189
			c0-0.741-0.209-2.128-2.09-2.108c-0.874,0-1.767,0.246-2.413,0.684l-0.38-1.121c0.76-0.475,1.881-0.798,3.04-0.798
			c2.812,0,3.495,1.919,3.495,3.742V204.93z M69.59,202.441c-1.824-0.038-3.895,0.285-3.895,2.07c0,1.103,0.722,1.597,1.558,1.597
			c1.216,0,1.994-0.761,2.261-1.539c0.057-0.19,0.076-0.38,0.076-0.532V202.441z"/>
		<path fill="#FFFFFF" d="M79.449,206.811c-0.437,0.209-1.405,0.532-2.641,0.532c-2.773,0-4.578-1.881-4.578-4.692
			c0-2.83,1.938-4.901,4.939-4.901c0.988,0,1.861,0.247,2.317,0.494l-0.38,1.272c-0.398-0.209-1.025-0.437-1.938-0.437
			c-2.108,0-3.248,1.576-3.248,3.477c0,2.128,1.367,3.438,3.191,3.438c0.949,0,1.576-0.229,2.052-0.438L79.449,206.811z"/>
		<path fill="#FFFFFF" d="M82.262,195.355c0,0.57-0.398,1.026-1.063,1.026c-0.607,0-1.007-0.456-1.007-1.026
			s0.418-1.045,1.045-1.045C81.845,194.311,82.262,194.767,82.262,195.355z M80.4,207.134v-9.194h1.672v9.194H80.4z"/>
		<path fill="#FFFFFF" d="M92.161,202.461c0,3.4-2.375,4.882-4.579,4.882c-2.47,0-4.407-1.824-4.407-4.73
			c0-3.059,2.033-4.863,4.56-4.863C90.375,197.749,92.161,199.668,92.161,202.461z M84.885,202.556c0,2.014,1.14,3.533,2.773,3.533
			c1.596,0,2.793-1.501,2.793-3.571c0-1.558-0.779-3.515-2.755-3.515C85.739,199.003,84.885,200.827,84.885,202.556z
			 M90.166,193.969l-2.317,2.717h-1.178l1.652-2.717H90.166z"/>
		<path fill="#FFFFFF" d="M93.264,200.428c0-0.969-0.019-1.729-0.076-2.488h1.482l0.095,1.52h0.038
			c0.456-0.854,1.52-1.71,3.039-1.71c1.273,0,3.249,0.76,3.249,3.913v5.472h-1.672v-5.3c0-1.482-0.551-2.717-2.128-2.717
			c-1.083,0-1.938,0.778-2.241,1.71c-0.076,0.209-0.114,0.493-0.114,0.778v5.528h-1.672V200.428z"/>
		<path fill="#FFFFFF" d="M112.092,205.728h-0.038c-0.514,0.894-1.521,1.615-3.002,1.615c-2.146,0-3.895-1.843-3.895-4.636
			c0-3.457,2.223-4.958,4.16-4.958c1.425,0,2.375,0.703,2.831,1.577h0.038l0.057-1.387h1.577c-0.038,0.76-0.076,1.576-0.076,2.526
			v10.43h-1.652V205.728z M112.092,201.662c0-0.228-0.02-0.475-0.076-0.684c-0.267-1.025-1.14-1.899-2.394-1.899
			c-1.729,0-2.773,1.463-2.773,3.515c0,1.843,0.873,3.419,2.716,3.419c1.083,0,2.014-0.665,2.394-1.805
			c0.076-0.247,0.134-0.569,0.134-0.816V201.662z"/>
		<path fill="#FFFFFF" d="M123.206,204.607c0,0.969,0.019,1.805,0.075,2.526H121.8l-0.095-1.501h-0.038
			c-0.418,0.741-1.406,1.71-3.04,1.71c-1.443,0-3.172-0.817-3.172-4.027v-5.376h1.672v5.072c0,1.747,0.551,2.944,2.052,2.944
			c1.12,0,1.899-0.779,2.203-1.539c0.095-0.228,0.152-0.531,0.152-0.854v-5.623h1.672V204.607z"/>
		<path fill="#FFFFFF" d="M125.904,202.841c0.038,2.261,1.463,3.191,3.153,3.191c1.197,0,1.938-0.209,2.546-0.476l0.304,1.197
			c-0.589,0.266-1.614,0.589-3.077,0.589c-2.83,0-4.521-1.881-4.521-4.654s1.634-4.939,4.312-4.939c3.021,0,3.8,2.622,3.8,4.312
			c0,0.342-0.02,0.589-0.058,0.779H125.904z M130.806,201.644c0.02-1.045-0.437-2.697-2.317-2.697c-1.71,0-2.432,1.538-2.564,2.697
			H130.806z"/>
		<path fill="#FFFFFF" d="M143.06,206.811c-0.437,0.209-1.405,0.532-2.641,0.532c-2.773,0-4.578-1.881-4.578-4.692
			c0-2.83,1.938-4.901,4.939-4.901c0.988,0,1.861,0.247,2.317,0.494l-0.38,1.272c-0.398-0.209-1.025-0.437-1.938-0.437
			c-2.108,0-3.248,1.576-3.248,3.477c0,2.128,1.367,3.438,3.191,3.438c0.949,0,1.576-0.229,2.052-0.438L143.06,206.811z"/>
		<path fill="#FFFFFF" d="M152.218,202.461c0,3.4-2.375,4.882-4.579,4.882c-2.47,0-4.407-1.824-4.407-4.73
			c0-3.059,2.033-4.863,4.56-4.863C150.432,197.749,152.218,199.668,152.218,202.461z M144.941,202.556
			c0,2.014,1.14,3.533,2.773,3.533c1.596,0,2.793-1.501,2.793-3.571c0-1.558-0.779-3.515-2.755-3.515
			C145.796,199.003,144.941,200.827,144.941,202.556z"/>
		<path fill="#FFFFFF" d="M153.32,200.808c0-1.083-0.019-2.014-0.076-2.868h1.463l0.076,1.823h0.057
			c0.418-1.234,1.444-2.014,2.565-2.014c0.171,0,0.304,0.02,0.455,0.038v1.577c-0.171-0.038-0.342-0.038-0.569-0.038
			c-1.178,0-2.014,0.874-2.242,2.128c-0.038,0.228-0.057,0.513-0.057,0.778v4.901h-1.672V200.808z"/>
		<path fill="#FFFFFF" d="M158.602,200.808c0-1.083-0.019-2.014-0.076-2.868h1.463l0.076,1.823h0.057
			c0.418-1.234,1.444-2.014,2.565-2.014c0.171,0,0.304,0.02,0.455,0.038v1.577c-0.171-0.038-0.342-0.038-0.569-0.038
			c-1.178,0-2.014,0.874-2.242,2.128c-0.038,0.228-0.057,0.513-0.057,0.778v4.901h-1.672V200.808z"/>
		<path fill="#FFFFFF" d="M164.549,202.841c0.038,2.261,1.463,3.191,3.153,3.191c1.197,0,1.938-0.209,2.546-0.476l0.304,1.197
			c-0.589,0.266-1.614,0.589-3.077,0.589c-2.83,0-4.521-1.881-4.521-4.654s1.634-4.939,4.312-4.939c3.021,0,3.8,2.622,3.8,4.312
			c0,0.342-0.02,0.589-0.058,0.779H164.549z M169.45,201.644c0.02-1.045-0.437-2.697-2.317-2.697c-1.71,0-2.432,1.538-2.564,2.697
			H169.45z"/>
		<path fill="#FFFFFF" d="M171.902,205.443c0.513,0.304,1.387,0.646,2.223,0.646c1.196,0,1.767-0.589,1.767-1.368
			c0-0.798-0.476-1.216-1.691-1.671c-1.671-0.608-2.45-1.501-2.45-2.603c0-1.482,1.216-2.698,3.173-2.698
			c0.931,0,1.747,0.247,2.241,0.57l-0.398,1.216c-0.361-0.229-1.026-0.551-1.881-0.551c-0.988,0-1.52,0.569-1.52,1.254
			c0,0.76,0.531,1.102,1.729,1.576c1.576,0.589,2.412,1.387,2.412,2.755c0,1.634-1.272,2.773-3.419,2.773
			c-1.007,0-1.938-0.266-2.584-0.646L171.902,205.443z"/>
		<path fill="#FFFFFF" d="M178.647,200.94c0-1.178-0.038-2.127-0.076-3.001h1.482l0.095,1.576h0.038
			c0.665-1.12,1.767-1.767,3.268-1.767c2.241,0,3.913,1.881,3.913,4.654c0,3.306-2.032,4.939-4.198,4.939
			c-1.216,0-2.279-0.532-2.831-1.443H180.3v4.996h-1.652V200.94z M180.3,203.392c0,0.247,0.02,0.475,0.076,0.684
			c0.305,1.159,1.312,1.957,2.508,1.957c1.767,0,2.793-1.444,2.793-3.553c0-1.824-0.969-3.4-2.736-3.4
			c-1.14,0-2.223,0.798-2.526,2.052c-0.057,0.209-0.114,0.456-0.114,0.665V203.392z"/>
		<path fill="#FFFFFF" d="M196.772,202.461c0,3.4-2.375,4.882-4.579,4.882c-2.47,0-4.407-1.824-4.407-4.73
			c0-3.059,2.033-4.863,4.56-4.863C194.986,197.749,196.772,199.668,196.772,202.461z M189.496,202.556
			c0,2.014,1.14,3.533,2.773,3.533c1.596,0,2.793-1.501,2.793-3.571c0-1.558-0.779-3.515-2.755-3.515
			C190.351,199.003,189.496,200.827,189.496,202.556z"/>
		<path fill="#FFFFFF" d="M197.875,200.428c0-0.969-0.019-1.729-0.076-2.488h1.482l0.095,1.52h0.038
			c0.456-0.854,1.52-1.71,3.039-1.71c1.273,0,3.249,0.76,3.249,3.913v5.472h-1.672v-5.3c0-1.482-0.551-2.717-2.128-2.717
			c-1.083,0-1.938,0.778-2.241,1.71c-0.076,0.209-0.114,0.493-0.114,0.778v5.528h-1.672V200.428z"/>
		<path fill="#FFFFFF" d="M215.334,193.646v11.113c0,0.817,0.038,1.748,0.076,2.375h-1.481l-0.076-1.596h-0.058
			c-0.493,1.025-1.596,1.805-3.097,1.805c-2.223,0-3.951-1.881-3.951-4.673c-0.019-3.059,1.9-4.921,4.123-4.921
			c1.425,0,2.355,0.665,2.773,1.387h0.038v-5.49H215.334z M213.682,201.682c0-0.209-0.02-0.494-0.076-0.703
			c-0.247-1.045-1.159-1.919-2.413-1.919c-1.729,0-2.754,1.521-2.754,3.534c0,1.861,0.931,3.4,2.716,3.4
			c1.121,0,2.147-0.76,2.451-1.995c0.057-0.228,0.076-0.456,0.076-0.722V201.682z"/>
		<path fill="#FFFFFF" d="M223.58,204.93c0,0.798,0.038,1.577,0.133,2.204h-1.5l-0.134-1.159h-0.057
			c-0.513,0.723-1.501,1.368-2.812,1.368c-1.861,0-2.812-1.311-2.812-2.641c0-2.223,1.976-3.438,5.528-3.42v-0.189
			c0-0.741-0.209-2.128-2.09-2.108c-0.874,0-1.767,0.246-2.413,0.684l-0.38-1.121c0.76-0.475,1.881-0.798,3.04-0.798
			c2.812,0,3.495,1.919,3.495,3.742V204.93z M221.966,202.441c-1.824-0.038-3.895,0.285-3.895,2.07c0,1.103,0.722,1.597,1.558,1.597
			c1.216,0,1.994-0.761,2.261-1.539c0.057-0.19,0.076-0.38,0.076-0.532V202.441z"/>
		<path fill="#FFFFFF" d="M224.874,206.146c0-0.684,0.475-1.196,1.14-1.196s1.12,0.494,1.12,1.196c0,0.685-0.455,1.197-1.158,1.197
			C225.329,207.343,224.874,206.83,224.874,206.146z"/>
	</g>
</g>
</svg>
