<?xml version="1.0" encoding="utf-8"?>
<!-- Generator: Adobe Illustrator 16.0.0, SVG Export Plug-In . SVG Version: 6.00 Build 0)  -->
<!DOCTYPE svg PUBLIC "-//W3C//DTD SVG 1.1//EN" "http://www.w3.org/Graphics/SVG/1.1/DTD/svg11.dtd">
<svg version="1.1" id="Capa_1" xmlns="http://www.w3.org/2000/svg" xmlns:xlink="http://www.w3.org/1999/xlink" x="0px" y="0px"
	 width="750.2px" height="547.128px" viewBox="0 0 750.2 547.128" enable-background="new 0 0 750.2 547.128" xml:space="preserve">
<g>
	<g>
		<g>
			<path fill="#FFFFFF" d="M669.063,165.019c83.99,21.947,122.491,171.947,17.503,171.947
				c30.809,12.762,37.812,62.156,16.815,102.396c-21,40.24-62.32,47.592-93.815,32.957c-13.995,73.172-150.48,109.75-174.973,29.27
				c-29.682,45.756-145.274,70.346-165.585-4.682c-69.996,7.32-133.122-16.668-164.618-93.494
				c-20.996-51.215-12.766-146.936,50.229-146.936C94.045,198.8,88.13,117.464,165.119,66.241
				c45.489-29.266,132.988-54.873,157.481,21.949C312.102-21.558,448.589-28.874,476.59,66.241
				c76.987-58.527,200.634-28.064,193.632,89L669.063,165.019z"/>
		</g>
		<g>
			<path fill="#FFFFFF" d="M22.295,307.569c3.369,13.936-20.937,18.713-22.252,4.615C-1.054,300.472,19.188,294.71,22.295,307.569z"
				/>
		</g>
		<g>
			<path fill="#FFFFFF" d="M67.109,288.263c4.87,20.15-30.273,27.055-32.178,6.676C33.349,277.999,62.616,269.673,67.109,288.263z"
				/>
		</g>
		<g id="W9flO2.tif_7_">
			<g>
				<path fill-rule="evenodd" clip-rule="evenodd" fill="#A191BE" d="M109.444,442.632c-3.032-1.93-5.964-3.797-8.895-5.662
					c-1.19-0.762-2.223-1.682-2.753-3.025c-0.895-2.277,0.009-4.697,2.315-6.203c6.803-4.443,13.615-8.877,20.421-13.311
					c6.61-4.305,13.212-8.623,19.844-12.895c0.832-0.537,1.796-0.973,2.758-1.197c1.581-0.365,2.852,0.504,3.12,2.111
					c0.163,0.982,0.171,2.033,0.015,3.018c-2.461,15.375-4.961,30.744-7.451,46.115c-0.312,1.938-0.988,3.662-2.793,4.707
					c-1.613,0.932-3.287,0.822-4.863,0.014c-1.525-0.785-2.955-1.754-4.416-2.668c-2.088-1.307-4.158-2.635-6.283-3.988
					c-2.789,4.391-5.559,8.705-8.281,13.049c-0.996,1.594-2.168,2.934-4.016,3.525c-2.721,0.875-5.457,0.02-7.244-2.258
					c-1.655-2.113-1.808-5.033-0.311-7.414c2.696-4.289,5.432-8.549,8.149-12.824C108.978,443.388,109.188,443.044,109.444,442.632z
					"/>
				<path fill-rule="evenodd" clip-rule="evenodd" fill="#A191BE" d="M133.42,382.751c0.754,1.162,1.527,2.311,2.264,3.484
					c0.766,1.223,0.522,2.479-0.578,3.188c-1.082,0.695-2.348,0.393-3.141-0.809c-1.511-2.281-3.002-4.574-4.482-6.879
					c-0.803-1.254-0.549-2.533,0.602-3.256c1.086-0.68,2.305-0.34,3.122,0.875c0.376,0.561,0.737,1.131,1.106,1.699
					C132.683,381.62,133.05,382.185,133.42,382.751z"/>
				<path fill-rule="evenodd" clip-rule="evenodd" fill="#A191BE" d="M157.084,419.077c0.743,1.131,1.485,2.26,2.217,3.4
					c0.764,1.193,0.573,2.521-0.451,3.23c-1.078,0.74-2.431,0.438-3.244-0.787c-1.508-2.281-2.998-4.574-4.477-6.877
					c-0.764-1.188-0.526-2.549,0.516-3.229c1.047-0.693,2.375-0.383,3.169,0.785C155.591,416.745,156.33,417.917,157.084,419.077z"
					/>
				<path fill-rule="evenodd" clip-rule="evenodd" fill="#A191BE" d="M162.766,392.13c-1.132,0.738-2.254,1.494-3.398,2.209
					c-1.295,0.809-2.574,0.596-3.279-0.51c-0.712-1.119-0.365-2.311,0.943-3.164c2.289-1.498,4.58-2.99,6.875-4.477
					c1.094-0.709,2.351-0.527,3.062,0.426c0.72,0.961,0.507,2.352-0.567,3.119c-1.185,0.84-2.427,1.598-3.644,2.389
					C162.762,392.126,162.762,392.128,162.766,392.13z"/>
				<path fill-rule="evenodd" clip-rule="evenodd" fill="#A191BE" d="M116.314,398.194c-0.666-0.988-0.691-1.768-0.25-2.535
					c0.463-0.807,1.215-1.236,2.12-1.059c2.984,0.586,5.958,1.209,8.917,1.885c1.07,0.242,1.686,1.395,1.492,2.445
					c-0.208,1.105-1.229,1.984-2.342,1.771c-3.017-0.572-6.018-1.229-9.012-1.904C116.82,398.698,116.471,398.3,116.314,398.194z"/>
				<path fill-rule="evenodd" clip-rule="evenodd" fill="#A191BE" d="M170.751,406.233c0.429,0.867,0.408,1.645-0.042,2.402
					c-0.447,0.771-1.184,1.193-2.041,1.027c-3.014-0.59-6.026-1.215-9.013-1.918c-1.112-0.26-1.673-1.471-1.405-2.578
					c0.266-1.086,1.227-1.834,2.346-1.619c2.985,0.578,5.956,1.219,8.922,1.893C169.965,405.542,170.342,405.958,170.751,406.233z"
					/>
				<path fill-rule="evenodd" clip-rule="evenodd" fill="#A191BE" d="M148.412,386.835c-0.998,0.623-1.775,0.664-2.531,0.195
					c-0.75-0.453-1.221-1.168-1.055-2.027c0.579-3.016,1.199-6.025,1.891-9.018c0.258-1.117,1.444-1.688,2.555-1.43
					c1.04,0.238,1.863,1.264,1.658,2.33c-0.569,2.982-1.217,5.953-1.885,8.916C148.941,386.251,148.542,386.634,148.412,386.835z"/>
			</g>
		</g>
	</g>
</g>
</svg>
