<?xml version="1.0" encoding="utf-8"?>
<!-- Generator: Adobe Illustrator 16.0.0, SVG Export Plug-In . SVG Version: 6.00 Build 0)  -->
<!DOCTYPE svg PUBLIC "-//W3C//DTD SVG 1.1//EN" "http://www.w3.org/Graphics/SVG/1.1/DTD/svg11.dtd">
<svg version="1.1" id="Capa_1" xmlns="http://www.w3.org/2000/svg" xmlns:xlink="http://www.w3.org/1999/xlink" x="0px" y="0px"
	 width="151.646px" height="422.398px" viewBox="0 0 151.646 422.398" enable-background="new 0 0 151.646 422.398"
	 xml:space="preserve">
<g>
	<g>
		<g>
			<g>
				<path fill="#B58880" d="M132.839,226.207c0.061-1.014,0.108-2.026,0.145-3.037c0.312-9.025-1.836-19.769-7.552-27.044
					c-4.889-6.248-15.213-15.247-22.819-17.689c-18.746-6.251-41.566-3.772-58.953,4.106c-12.771,5.705-23.363,17.656-23.363,39.119
					c0,13.585,3.531,18.204,5.977,27.439c-7.336-0.542-11.683,6.521-9.51,13.312c1.087,3.261,4.618,7.336,7.879,8.966
					c3.805,2.445,7.605,1.901,11.139,2.988c2.987,1.088,4.889,5.979,8.422,8.423c2.99,1.9,6.518,3.803,10.051,5.433
					c4.892,2.174,12.77,5.435,18.203,5.435c0,2.715,0,5.704,0,8.422c-0.271,1.629,0,4.891-0.814,6.248
					c-1.358,1.902-1.358,1.088-3.804,1.631c-4.074,1.086-7.607-2.446-4.619,5.16c1.831,4.663,4.619,8.966,7.609,12.498
					c2.171,2.444,8.147,10.865,11.952,10.051c3.26-0.542,7.605-10.051,8.693-13.04c2.174-4.89,7.955-15.61,2.98-15.945
					c-4.9-0.331-9.23,4.535-10.317-0.084c-1.085-4.347,0.249-14.518,0.249-14.518c5.185-0.423,7.359-1.241,9.804-1.783
					c3.261-1.086,7.587-3.362,10.575-4.993c3.26-1.902,5.727-5.059,8.715-7.504c4.617-4.618,4.347-2.988,10.324-2.988
					c15.484,0,21.189-24.992,4.074-23.635c1.109-0.088,3.15-12.445,3.428-13.988C132.071,234.896,132.575,230.559,132.839,226.207z"
					/>
			</g>
			<polygon fill="#EDEBEA" points="82.431,309.814 88.017,314.172 79.296,328.964 69.598,315.837 74.888,310.741 78.808,311.772 			
				"/>
			<g>
				<path fill="#906C68" d="M80.062,266.217c0,0-0.143-0.176-0.393-0.484c-0.113-0.164-0.28-0.338-0.463-0.528
					c-0.176-0.198-0.386-0.407-0.636-0.62c-0.231-0.229-0.521-0.432-0.812-0.657c-0.293-0.223-0.635-0.415-0.973-0.627
					c-0.353-0.196-0.72-0.384-1.107-0.552c-0.376-0.189-0.79-0.316-1.192-0.463c-0.812-0.283-1.66-0.462-2.459-0.621
					c-0.404-0.044-0.793-0.136-1.168-0.164c-0.373-0.038-0.729-0.081-1.059-0.097c-0.66-0.05-1.219-0.062-1.611-0.063
					c-0.396-0.007-0.623-0.011-0.623-0.011s0.217-0.068,0.596-0.187c0.383-0.109,0.941-0.245,1.625-0.313
					c0.341-0.048,0.713-0.071,1.107-0.074c0.396-0.022,0.813,0.013,1.246,0.036c0.428,0.062,0.879,0.081,1.322,0.196
					c0.449,0.084,0.895,0.218,1.342,0.351c0.434,0.17,0.877,0.319,1.284,0.537c0.421,0.188,0.798,0.445,1.167,0.683
					c0.713,0.511,1.324,1.069,1.734,1.638c0.225,0.266,0.395,0.54,0.529,0.793c0.149,0.243,0.256,0.458,0.322,0.646
					C79.981,266.005,80.062,266.217,80.062,266.217z"/>
			</g>
			<g>
				<path fill="#9C7671" d="M82.235,236.062c0.222,0.664,0.451,1.324,0.607,2.013c0.186,0.681,0.295,1.375,0.424,2.067
					c0.098,0.696,0.21,1.395,0.254,2.099c0.079,0.703,0.067,1.41,0.08,2.118c-0.017,0.707-0.039,1.417-0.117,2.123
					c-0.08,0.707-0.169,1.414-0.342,2.111c-0.119,0.707-0.391,1.383-0.609,2.07c-0.314,0.655-0.596,1.33-1.049,1.919
					c-0.201,0.308-0.407,0.612-0.685,0.865c-0.267,0.257-0.496,0.558-0.799,0.774l-0.922,0.639c-0.319,0.192-0.68,0.307-1.02,0.461
					c-0.174,0.067-0.343,0.156-0.521,0.204l-0.545,0.111c-0.377,0.064-0.699,0.164-1.123,0.195
					c-0.671,0.041-1.474,0.006-2.196-0.123c-0.735-0.146-1.466-0.411-2.112-0.842c-0.646-0.426-1.205-1.019-1.555-1.716
					c-0.357-0.692-0.531-1.45-0.59-2.197c-0.065-0.751,0.036-1.485,0.151-2.206l0.005-0.028l0.005-0.013l0.569-1.429l0.729-1.31
					l0.781-1.24l0.732-1.229l-0.014,0.028l0.536-1.452l0.403-1.501l0.281-1.534l0.182-1.558c0.093-1.043,0.156-2.094,0.191-3.147
					l0.112-3.164l0.146,3.164c0.038,1.057,0.048,2.115,0.026,3.179l-0.109,1.594l-0.223,1.589l-0.352,1.572l-0.494,1.539
					l-0.004,0.011l-0.01,0.019c-0.467,0.889-0.944,1.751-1.453,2.568l-0.676,1.253l-0.495,1.294l0.01-0.04
					c-0.095,0.658-0.178,1.324-0.109,1.971c0.06,0.644,0.216,1.271,0.509,1.82c0.579,1.124,1.758,1.766,3.017,2.037
					c0.655,0.117,1.257,0.163,1.983,0.134c0.271-0.018,0.631-0.11,0.942-0.16l0.485-0.088c0.158-0.04,0.303-0.118,0.455-0.175
					c0.296-0.133,0.616-0.222,0.896-0.387l0.811-0.545c0.269-0.185,0.472-0.453,0.712-0.674c0.25-0.217,0.438-0.489,0.623-0.767
					c0.418-0.519,0.678-1.144,0.988-1.739c0.229-0.635,0.514-1.255,0.654-1.927c0.193-0.656,0.308-1.333,0.414-2.013
					c0.104-0.68,0.155-1.371,0.201-2.06c0.056-1.382,0.031-2.771-0.089-4.159c-0.08-0.688-0.143-1.387-0.278-2.068
					C82.555,237.428,82.399,236.743,82.235,236.062z"/>
			</g>
			<g>
				<path fill="#030104" d="M64.561,231.288c-0.745-2.035-0.329-4.591,0.94-6.259c0.566-0.746,1.51-0.91,2.404-0.561
					c1.574,0.617,1.312,3.117,1.108,4.423c-0.209,1.329-0.272,3.043-1.289,4.11c-0.854,0.898-1.752,0.511-2.423-0.354
					C64.985,232.237,64.741,231.777,64.561,231.288z"/>
			</g>
			<g>
				<path fill="#030104" d="M90.187,234.017c1.172-1.822,1.33-4.406,0.457-6.312c-0.389-0.853-1.273-1.22-2.222-1.075
					c-1.671,0.258-1.968,2.753-2.052,4.07c-0.091,1.344-0.404,3.029,0.355,4.293c0.637,1.066,1.597,0.883,2.44,0.187
					C89.564,234.849,89.904,234.454,90.187,234.017z"/>
			</g>
			<g>
				<path fill="#343434" d="M103.632,218.383c-5.555,1.388-12.037-0.929-17.594-2.778
					C87.427,222.088,99.948,224.049,103.632,218.383"/>
			</g>
			<g>
				<path fill="#343434" d="M76.724,204.756c-5.9,0-11.797,3.93-15.235,8.352c0.312-0.401,0.077-2.176,0.173-2.742
					c0.15-0.889,0.396-1.748,0.809-2.553c0.854-1.672,2.296-2.98,3.875-3.949c2.517-1.541,7.021-2.691,9.624-0.639
					C76.1,203.329,77.216,204.756,76.724,204.756z"/>
			</g>
			<g>
				<path fill="#343434" d="M8.339,223.564c0.303-6.221,0.645-15.192,6.008-19.441c6.08-4.818,12.65-0.156,15.475,5.538
					c1.901,3.839,3.516,7.853,4.598,12.001c1.631,7.607-2.443,11.14-7.877,15.758c3.26,3.803,5.434,11.141,4.89,16.301
					c-0.543,3.804-1.903,6.521-4.348,2.99c-1.358-1.901-1.085-5.435-1.63-7.609c-4.348-0.813-4.889,3.533-8.422,1.632
					C9.427,246.93,7.795,229.27,8.339,223.564z"/>
			</g>
			<g>
				<path fill="#343434" d="M134.396,195.793c-3.803-9.78-11.409-17.115-19.288-23.907c-11.683-10.323-26.081-13.04-41.294-10.866
					c-14.672,2.171-27.711,10.594-40.75,16.843c-9.511,4.618-24.996,8.15-31.246,16.844c-8.146,11.333,13.361,13.592,19.746,10.88
					c6.961-2.957,14.623-3.287,21.674-5.954c7.178-2.713,14.213-3.028,21.652-4.729c5.359-1.225,10.5-2.487,15.979-2.987
					c6.875-0.632,14.258-0.497,20.928,1.366c4.929,1.376,8.623,3.918,13.041,6.3c3.055,1.646,11.701,6.936,11.701,6.936
					c-2.374,6.178-1.768,5.237-3.199,7.445c-4.846,7.484-5.749,19.518,3.449,24.211c-2.173,4.075-9.238,14.942-5.16,19.832
					c4.89,5.706,3.67-7.407,11.953-4.347c3.26-4.346,5.432-9.235,8.693-13.583c3.26-4.347,8.15-9.78,9.237-15.486
					c1.358-8.421-7.88-18.201-15.214-20.103C136.298,204.487,135.481,197.968,134.396,195.793z"/>
			</g>
			<g>
				<path fill="#5095CF" d="M88.21,311.859c2.385-3.338,3.834-4.07,8.152-4.107c3.23-0.025,6.25,0.094,7.626,3.18
					c1.519,3.407,2.29,7.153,2.896,10.818c1.052,6.373,1.349,12.824,1.574,19.268c0.318,9.023,2.473,39.275,2.574,44.735
					c0.109,5.864-11.546,5.163-12.227,0.734c-2.443-15.867-2.008-27.484-3.91-48.763c0,15.484-0.164,25.751,0.379,41.237
					c0.545,13.854,0.426,29.853,0.426,43.437c-13.582-0.272-28.141,0-42.264,0c-0.542-13.312,4.347-71.907,7.062-84.674
					c0.271,5.704-14.716,42.138-16.889,48.114c-0.814,1.903-3.213,2.179-5.656,2.179c-3.261,0-2.947-9.353-2.947-11.798
					c0.271-6.521,5.494-16.651,7.019-22.824c3.187-12.894,6.522-20.38,9.163-33.013c1.283-6.132,8.497-14.5,15.016-10.698
					c5.436,3.26,9.782,13.041,12.77,18.475C81.419,325.442,88.21,311.859,88.21,311.859z"/>
			</g>
			<g>
				<path fill="none" d="M85.541,318.619"/>
			</g>
			<g>
				<path fill="none" d="M78.401,332.239"/>
			</g>
			<g>
				<path fill="none" d="M79.194,328.272"/>
			</g>
			<polygon fill="#FFFFFF" points="93.307,307.117 85.175,305.354 79.2,311.525 70.283,306.038 62.464,308.737 67.835,318.677 
				79.2,311.525 89.584,317.834 			"/>
		</g>
		<g>
			<g>
				<path fill="#387092" d="M50.228,396.658c1.014-0.792,1.555-5.096,1.551-7.205c-0.002-1.564,0.43-3.151-0.15-4.63
					c-0.611-1.551-1.893-3.226-2.82-1.674c-1.396,2.326-0.928,6.472-1.148,9.123C47.659,394.174,47.512,398.017,50.228,396.658z"/>
			</g>
			<g>
				<path fill="#B58880" d="M38.966,384.395c-6.249,1.086-7.879,8.421-8.968,13.855c-1.087,5.705-3.53,13.584,2.448,16.299
					c1.629,0.817,2.442,0,4.344,1.087c1.359,0.816,2.445,3.532,4.076,3.803c3.532,0.545,7.064-5.16,8.693-7.876
					c1.087-1.36,2.174-2.447,2.447-4.346c-3.807-1.633-6.795,2.985-9.238,5.431c2.987-7.063,4.076-13.581,3.259-21.188
					c2.718,0.542,7.337,2.172,9.237,0.271c1.188-1.188,1.275-3.087,0.839-4.618c-0.227-0.788-0.601-1.562-1.146-2.181
					c-0.77-0.869-1.491-0.925-2.554-0.893c-1.477,0.043-2.963-0.069-4.44-0.108C44.959,383.849,41.933,383.87,38.966,384.395z"/>
			</g>
			<g>
				<path fill="#906C68" d="M46.228,388.018c0,0,0.135,0.355,0.207,0.876c0.041,0.261,0.066,0.563,0.073,0.885
					c0.017,0.321-0.019,0.663-0.022,1c-0.01,0.668-0.1,1.33-0.232,1.832c-0.125,0.501-0.298,0.842-0.298,0.842
					s-0.164-0.34-0.276-0.859c-0.121-0.52-0.194-1.219-0.188-1.912c0.05-0.682,0.205-1.349,0.375-1.845
					C46.03,388.34,46.228,388.018,46.228,388.018z"/>
			</g>
			<g>
				<path fill="#906C68" d="M44.126,411.018c0,0-0.029,0.346-0.184,0.793c-0.148,0.45-0.418,1.006-0.754,1.518
					c-0.341,0.504-0.748,0.965-1.109,1.279c-0.355,0.318-0.67,0.486-0.67,0.486s0.025-0.341,0.18-0.787
					c0.148-0.45,0.42-1.008,0.76-1.522c0.344-0.508,0.753-0.972,1.113-1.285C43.816,411.182,44.126,411.018,44.126,411.018z"/>
			</g>
			<g>
				<path fill="#906C68" d="M37.877,416.723c0,0-0.237-0.436-0.464-1.108c-0.233-0.672-0.459-1.581-0.609-2.502
					c-0.19-0.903-0.302-1.821-0.322-2.527c-0.029-0.703,0.038-1.196,0.038-1.196s0.261,0.419,0.524,1.084
					c0.271,0.662,0.549,1.569,0.748,2.489c0.143,0.922,0.203,1.856,0.188,2.566C37.97,416.236,37.877,416.723,37.877,416.723z"/>
			</g>
			<g>
				<path fill="#906C68" d="M33.803,415.094c0,0-0.252-0.205-0.508-0.562c-0.255-0.362-0.554-0.841-0.715-1.41
					c-0.155-0.57-0.233-1.167-0.224-1.619c0-0.451,0.09-0.758,0.09-0.758s0.24,0.243,0.466,0.616
					c0.233,0.373,0.456,0.876,0.602,1.404c0.05,0.268,0.153,0.54,0.203,0.807c0.058,0.265,0.095,0.52,0.107,0.744
					C33.86,414.763,33.803,415.094,33.803,415.094z"/>
			</g>
			<g>
				<path fill="#4585B3" d="M78.357,380.319c-9.508,1.359-19.288,2.174-29.069,2.445c2.719,5.976,1.902,7.606,0.271,13.854
					c12.226,0.814,24.995-2.172,36.948-4.075c6.249-0.814,12.771-1.085,19.019-1.9c4.074-0.544,6.247,0,6.247-4.891
					c0-2.296-1.065-4.358-2.647-5.972c-3.855-3.928-9.29-3.953-14.377-3.136C89.216,377.536,83.909,379.526,78.357,380.319z"/>
			</g>
		</g>
		<g>
			<g>
				<path fill="#387092" d="M34.042,328.874c0.62,2.265,5.324,2.685,7.32,2.614c2.475-0.088,5.284-0.867,5.284-3.875
					c0-2.281-3.185-2.532-5.256-2.121C38.675,326.035,33.003,325.067,34.042,328.874z"/>
			</g>
			<g>
				<path fill="#CDA19D" d="M44.202,334.677c-7.064,1.632-6.521-2.172-5.979-7.605c0.544-4.618,0.271-8.693,0-13.312
					c-0.27-5.434-0.814-11.953,0.816-17.116c1.629-6.248,7.878-12.496,11.68-17.659c3.803-5.433,7.336-12.497,14.945-10.323
					c2.715,0.815,16.842,9.237,9.508,10.868c-3.261,0.814-5.162-3.804-8.422-4.347c-2.99-0.546-6.248-1.145-9.238,3.261
					c-1.191,1.754-4.818,6.415-4.547,8.862c0.273,2.171,3.34,1.814,5.727,7.49c0.707,1.679,0.949,2.059,0.993,2.936
					c0.024,0.44,2.989-0.271,3.805,1.358c1.63,2.445-1.632,6.792-3.262,8.693c-3.53,4.89-6.247,10.596-12.768,11.681l0,0l0,0
					c-1.629,2.99-3.532,7.065-3.532,9.781L44.202,334.677z"/>
			</g>
			<g>
				<path fill="#AA8482" d="M43.115,294.471c0,0,0.323,0.272,0.907,0.711c0.571,0.456,1.445,1.033,2.435,1.821
					c0.974,0.799,2.153,1.754,3.067,3.141c0.441,0.695,0.819,1.488,1.016,2.352c0.043,0.229,0.09,0.406,0.126,0.681l0.048,0.622
					c0.016,0.441,0.013,0.898-0.027,1.335c-0.092,0.88-0.309,1.764-0.715,2.562c-0.393,0.802-0.994,1.512-1.771,1.969
					c-0.394,0.217-0.839,0.372-1.303,0.369c-0.461,0.005-0.926-0.156-1.267-0.433c-0.702-0.568-0.866-1.376-0.944-2.019
					c-0.105-1.332,0.248-2.364,0.457-3.064c0.102-0.355,0.232-0.618,0.301-0.803c0.074-0.182,0.113-0.279,0.113-0.279
					s-0.096,0.411-0.225,1.129c-0.133,0.709-0.271,1.769-0.089,2.94c0.108,0.564,0.337,1.202,0.821,1.51
					c0.467,0.322,1.117,0.241,1.686-0.108c0.572-0.362,1.027-0.963,1.354-1.639c0.335-0.676,0.515-1.449,0.586-2.231
					c0.042-0.397,0.048-0.778,0.042-1.171l-0.039-0.622l-0.096-0.539c-0.166-0.745-0.443-1.456-0.82-2.099
					c-0.768-1.279-1.782-2.326-2.688-3.178c-0.917-0.847-1.675-1.581-2.196-2.102c-0.264-0.259-0.451-0.479-0.58-0.628
					S43.115,294.471,43.115,294.471z"/>
			</g>
			<g>
				<path fill="#AA8482" d="M45.288,309.018c0,0,0.09,0.114,0.234,0.32c0.068,0.105,0.152,0.231,0.249,0.377
					c0.097,0.144,0.155,0.342,0.235,0.549c0.074,0.209,0.173,0.445,0.23,0.693c0.049,0.243,0.106,0.502,0.146,0.772
					c0.11,0.54,0.09,1.117,0.115,1.696c-0.051,0.575-0.056,1.153-0.183,1.684c-0.088,0.532-0.222,1.022-0.381,1.43
					c-0.128,0.412-0.316,0.735-0.44,0.956c-0.126,0.22-0.206,0.339-0.206,0.339s0.001-0.15,0.017-0.4
					c0.011-0.122,0.023-0.271,0.038-0.442c0.025-0.165,0.01-0.365,0.029-0.571c0.01-0.209,0.021-0.433,0.045-0.666
					c0.004-0.238,0.004-0.489,0.023-0.745c0.039-0.512,0.029-1.062,0.059-1.606c0.002-0.272,0.004-0.545,0.007-0.812
					c0.002-0.27,0.022-0.534,0.002-0.787c-0.015-0.253-0.008-0.502-0.007-0.738c-0.016-0.227-0.029-0.441-0.042-0.639
					c-0.022-0.2,0.001-0.394-0.04-0.565c-0.03-0.173-0.057-0.322-0.08-0.446C45.302,309.164,45.288,309.018,45.288,309.018z"/>
			</g>
			<g>
				<path fill="#AA8482" d="M57.241,308.596c0,0-0.069,0.062-0.199,0.178c-0.136,0.111-0.307,0.301-0.597,0.468
					c-0.274,0.192-0.634,0.377-1.069,0.548c-0.439,0.152-0.963,0.31-1.557,0.299c-0.586,0.008-1.252-0.072-1.881-0.388
					c-0.631-0.298-1.236-0.795-1.637-1.469c-0.415-0.665-0.613-1.476-0.605-2.268l-0.002-0.299l-0.001-0.075l0.012-0.108l0.02-0.136
					l0.077-0.547c0.109-0.379,0.213-0.839,0.402-1.181c0.326-0.748,0.857-1.35,1.371-1.921c0.549-0.535,1.141-1.001,1.746-1.383
					c0.597-0.4,1.215-0.709,1.809-0.976c0.59-0.273,1.166-0.484,1.705-0.651c0.533-0.184,1.039-0.295,1.484-0.391
					c0.447-0.096,0.838-0.161,1.162-0.203c0.321-0.058,0.582-0.055,0.755-0.072c0.173-0.012,0.267-0.019,0.267-0.019
					s-0.362,0.093-0.979,0.28c-0.31,0.09-0.682,0.212-1.101,0.371c-0.417,0.161-0.887,0.344-1.385,0.57
					c-0.5,0.22-1.031,0.483-1.576,0.782c-0.545,0.298-1.103,0.643-1.645,1.035c-0.555,0.379-1.056,0.85-1.55,1.328
					c-0.445,0.515-0.903,1.05-1.159,1.673c-0.172,0.305-0.224,0.584-0.336,0.901l-0.086,0.545l-0.021,0.136
					c0,0.004-0.013,0.085-0.004,0.026v0.062v0.248c-0.012,0.657,0.098,1.304,0.402,1.832c0.291,0.53,0.72,0.96,1.215,1.245
					c0.494,0.295,1.047,0.426,1.561,0.478c0.52,0.061,1.006-0.007,1.434-0.083c0.424-0.096,0.792-0.219,1.074-0.358
					c0.293-0.119,0.513-0.261,0.663-0.346C57.161,308.643,57.241,308.596,57.241,308.596z"/>
			</g>
			<g>
				<path fill="#AA8482" d="M54.253,300.718c0,0-0.018-0.231-0.049-0.636c-0.01-0.201-0.02-0.45-0.077-0.715
					c-0.059-0.269-0.071-0.564-0.185-0.881c-0.088-0.318-0.188-0.657-0.348-0.995c-0.123-0.352-0.354-0.677-0.537-1.033
					c-0.451-0.673-1.007-1.341-1.646-1.948c-0.637-0.611-1.337-1.169-1.997-1.698c-0.676-0.525-1.305-1.017-1.845-1.437
					c-1.086-0.854-1.738-1.523-1.738-1.523s0.843,0.392,2.056,1.044c0.608,0.323,1.309,0.727,2.039,1.2
					c0.357,0.251,0.744,0.486,1.101,0.783c0.369,0.276,0.72,0.597,1.075,0.909c0.328,0.349,0.669,0.682,0.952,1.065
					c0.312,0.356,0.528,0.783,0.765,1.168c0.189,0.416,0.385,0.811,0.476,1.222c0.136,0.396,0.179,0.787,0.212,1.146
					c0.062,0.352,0.007,0.694,0,0.981c0,0.293-0.061,0.528-0.105,0.727C54.308,300.492,54.253,300.718,54.253,300.718z"/>
			</g>
			<g>
				<path fill="#4585B3" d="M46.646,327.613c-0.814,11.139,0,33.029-1.146,50.424c-0.178,2.683-0.722,5.34-1.891,7.802
					c-0.87,1.835-2.998,4.8-5.285,4.894c-2.385,0.097-2.957-3.058-3.186-4.81c-0.584-4.504,0.068-9.042-0.164-13.558
					c-0.004-0.064-0.008-0.131-0.012-0.197c-0.271-4.891-0.543-10.051-0.271-14.942c0.271-5.433-0.027-10.597-0.146-16.693
					c-0.082-4.381-0.396-8.571-0.396-13.189C38.224,328.7,42.222,328.706,46.646,327.613"/>
			</g>
		</g>
	</g>
	<g id="_x35_GdfFM.tif_41_">
		<g>
			<g>
				<path fill="#7764A1" d="M74.987,127.878c-3.201,0.047-6.594,1.086-9.781,3.284c-6.465,4.457-6.913,12.705-0.965,17.776
					c6.711,5.723,18.146,5.374,24.539-0.747c4.911-4.701,4.73-11.804-0.443-16.209C84.779,128.955,80.617,127.67,74.987,127.878z"/>
				<path fill-rule="evenodd" clip-rule="evenodd" fill="#7764A1" d="M77.897,0c2.193,0.213,4.393,0.381,6.58,0.645
					c11.115,1.336,21.88,3.807,31.278,10.299c10.281,7.104,16.6,16.848,18.734,29.176c1.807,10.433,0.04,20.326-5.325,29.447
					c-3.323,5.649-7.938,10.197-13.254,14.034c-5.553,4.007-11.123,7.992-16.599,12.103c-5.892,4.422-8.196,10.635-8.321,17.771
					c-0.025,1.454-0.482,1.752-1.832,1.76c-8.607,0.043-17.215,0.145-25.82,0.307c-1.289,0.024-1.83-0.352-1.91-1.62
					c-0.812-13.109,2.447-24.504,13.49-32.762c4.715-3.527,9.479-7.034,13.865-10.947c5.82-5.19,9.342-11.749,9.079-19.749
					c-0.245-7.449-3.247-13.582-11.343-16.911c-9.172-3.771-18.096-2.992-26.326,2.789c-4.991,3.505-7.508,8.534-8.305,14.482
					c-0.261,1.938-0.418,3.892-0.566,5.843c-0.092,1.199-0.402,1.901-1.863,1.913c-10.254,0.079-20.508,0.228-30.762,0.392
					c-1.127,0.018-1.318-0.599-1.402-1.473c-0.088-0.875-0.226-1.745-0.341-2.617c0-2.021,0-4.041,0-6.062
					c0.226-1.67,0.491-3.335,0.67-5.009c1.014-9.476,4.706-17.809,10.862-25.023C38.569,6.967,51.804,1.716,66.964,0.567
					C69.228,0.396,71.487,0.19,73.749,0C75.132,0,76.515,0,77.897,0z"/>
				<path fill-rule="evenodd" clip-rule="evenodd" fill="#7764A1" d="M74.987,127.878c5.63-0.208,9.792,1.077,13.35,4.104
					c5.174,4.405,5.354,11.508,0.443,16.209c-6.394,6.121-17.828,6.47-24.539,0.747c-5.948-5.071-5.5-13.319,0.965-17.776
					C68.394,128.964,71.786,127.925,74.987,127.878z"/>
			</g>
		</g>
	</g>
</g>
</svg>
