<?xml version="1.0" encoding="utf-8"?>
<!-- Generator: Adobe Illustrator 16.0.0, SVG Export Plug-In . SVG Version: 6.00 Build 0)  -->
<!DOCTYPE svg PUBLIC "-//W3C//DTD SVG 1.1//EN" "http://www.w3.org/Graphics/SVG/1.1/DTD/svg11.dtd">
<svg version="1.1" id="Capa_1" xmlns="http://www.w3.org/2000/svg" xmlns:xlink="http://www.w3.org/1999/xlink" x="0px" y="0px"
	 width="741.74px" height="135.447px" viewBox="0 0 741.74 135.447" enable-background="new 0 0 741.74 135.447"
	 xml:space="preserve">
<g>
	<g>
		<rect y="89.08" fill="#EBE760" fill-opacity="0.4" width="133.904" height="30.812"/>
		<rect y="53.874" fill="#EBE760" fill-opacity="0.4" width="469.896" height="35.206"/>
	</g>
	<g>
		<g>
			<g>
				<path fill-rule="evenodd" clip-rule="evenodd" fill="#C15921" d="M736.369,123.447c0,6.628-5.373,12-12,12H528.428
					c-6.627,0-12-5.372-12-12V12c0-6.628,5.373-12,12-12h195.941c6.627,0,12,5.372,12,12V123.447z"/>
				<g>
					<g>
						<path fill="#FFFFFF" d="M542.471,17.254c0.98-0.16,2.42-0.28,4.061-0.28c2,0,3.4,0.3,4.361,1.061
							c0.82,0.64,1.26,1.601,1.26,2.841c0,1.7-1.221,2.88-2.381,3.3v0.061c0.941,0.38,1.461,1.26,1.801,2.5
							c0.42,1.541,0.82,3.301,1.08,3.821h-3.121c-0.199-0.4-0.539-1.48-0.92-3.141c-0.381-1.7-0.961-2.141-2.221-2.16h-0.9v5.301
							h-3.02V17.254z M545.49,23.055h1.201c1.52,0,2.42-0.76,2.42-1.94c0-1.22-0.84-1.86-2.24-1.86c-0.74,0-1.16,0.04-1.381,0.101
							V23.055z"/>
						<path fill="#FFFFFF" d="M556.57,26.636c0.08,1.261,1.34,1.86,2.76,1.86c1.041,0,1.881-0.14,2.701-0.42l0.4,2.061
							c-1,0.42-2.221,0.62-3.541,0.62c-3.32,0-5.221-1.921-5.221-4.981c0-2.48,1.539-5.221,4.941-5.221
							c3.16,0,4.359,2.46,4.359,4.881c0,0.521-0.059,0.98-0.1,1.2H556.57z M560.15,24.556c0-0.74-0.32-1.98-1.721-1.98
							c-1.279,0-1.799,1.18-1.879,1.98H560.15z"/>
						<path fill="#FFFFFF" d="M568.189,18.134v2.641h2.182v2.24h-2.182v3.541c0,1.181,0.301,1.721,1.201,1.721
							c0.42,0,0.619-0.021,0.9-0.08l0.02,2.301c-0.381,0.14-1.121,0.26-1.961,0.26c-0.98,0-1.801-0.34-2.301-0.84
							c-0.559-0.581-0.84-1.521-0.84-2.901v-4.001h-1.301v-2.24h1.301v-1.82L568.189,18.134z"/>
						<path fill="#FFFFFF" d="M572.129,23.995c0-1.44-0.02-2.381-0.08-3.221h2.602l0.119,1.801h0.08
							c0.5-1.44,1.68-2.041,2.641-2.041c0.279,0,0.42,0.021,0.641,0.061v2.86c-0.24-0.04-0.48-0.08-0.82-0.08
							c-1.121,0-1.881,0.601-2.08,1.54c-0.041,0.2-0.061,0.44-0.061,0.681v4.961h-3.041V23.995z"/>
						<path fill="#FFFFFF" d="M589.23,25.556c0,3.581-2.541,5.221-5.16,5.221c-2.861,0-5.062-1.88-5.062-5.041
							c0-3.181,2.08-5.201,5.242-5.201C587.23,20.534,589.23,22.595,589.23,25.556z M582.148,25.655c0,1.681,0.701,2.941,2,2.941
							c1.201,0,1.941-1.181,1.941-2.961c0-1.44-0.561-2.921-1.941-2.921C582.709,22.715,582.148,24.215,582.148,25.655z"/>
						<path fill="#FFFFFF" d="M599.25,28.196c0,0.92,0.041,1.82,0.16,2.36h-2.74l-0.18-0.98h-0.061c-0.641,0.78-1.641,1.2-2.801,1.2
							c-1.98,0-3.16-1.44-3.16-3c0-2.541,2.279-3.741,5.74-3.741v-0.12c0-0.54-0.279-1.28-1.779-1.28c-1,0-2.061,0.34-2.701,0.74
							l-0.561-1.96c0.68-0.381,2.021-0.881,3.801-0.881c3.262,0,4.281,1.921,4.281,4.241V28.196z M596.309,25.936
							c-1.6,0-2.84,0.38-2.84,1.54c0,0.78,0.52,1.16,1.201,1.16c0.74,0,1.379-0.5,1.58-1.12c0.039-0.159,0.059-0.34,0.059-0.52
							V25.936z"/>
						<path fill="#FFFFFF" d="M601.668,16.354h3.041v14.203h-3.041V16.354z"/>
						<path fill="#FFFFFF" d="M610.309,18.054c0,0.841-0.619,1.521-1.641,1.521c-0.959,0-1.58-0.68-1.58-1.521
							c0-0.86,0.641-1.521,1.621-1.521S610.289,17.193,610.309,18.054z M607.168,30.557v-9.782h3.041v9.782H607.168z"/>
						<path fill="#FFFFFF" d="M612.648,23.896c0-1.221-0.041-2.241-0.08-3.121h2.58l0.119,1.32h0.061
							c0.42-0.64,1.301-1.561,2.961-1.561c1.279,0,2.26,0.66,2.68,1.681h0.041c0.379-0.521,0.799-0.92,1.279-1.2
							c0.541-0.3,1.141-0.48,1.861-0.48c1.881,0,3.301,1.32,3.301,4.262v5.761h-2.961v-5.321c0-1.42-0.461-2.24-1.441-2.24
							c-0.719,0-1.199,0.48-1.42,1.061c-0.059,0.22-0.1,0.52-0.1,0.779v5.722h-2.961v-5.501c0-1.221-0.439-2.061-1.42-2.061
							c-0.779,0-1.24,0.6-1.42,1.08c-0.1,0.24-0.121,0.521-0.121,0.78v5.701h-2.959V23.896z"/>
						<path fill="#FFFFFF" d="M632.188,26.636c0.08,1.261,1.34,1.86,2.76,1.86c1.041,0,1.881-0.14,2.701-0.42l0.4,2.061
							c-1,0.42-2.221,0.62-3.541,0.62c-3.32,0-5.221-1.921-5.221-4.981c0-2.48,1.539-5.221,4.941-5.221
							c3.16,0,4.359,2.46,4.359,4.881c0,0.521-0.059,0.98-0.1,1.2H632.188z M635.768,24.556c0-0.74-0.32-1.98-1.721-1.98
							c-1.279,0-1.799,1.18-1.879,1.98H635.768z"/>
						<path fill="#FFFFFF" d="M640.406,23.896c0-1.221-0.039-2.241-0.08-3.121h2.641l0.141,1.36h0.059
							c0.4-0.64,1.381-1.58,3.021-1.58c2,0,3.5,1.34,3.5,4.221v5.781h-3.039v-5.421c0-1.261-0.441-2.121-1.541-2.121
							c-0.84,0-1.34,0.58-1.561,1.141c-0.08,0.2-0.1,0.48-0.1,0.76v5.642h-3.041V23.896z"/>
						<path fill="#FFFFFF" d="M655.406,18.134v2.641h2.182v2.24h-2.182v3.541c0,1.181,0.301,1.721,1.201,1.721
							c0.42,0,0.619-0.021,0.9-0.08l0.02,2.301c-0.381,0.14-1.121,0.26-1.961,0.26c-0.98,0-1.801-0.34-2.301-0.84
							c-0.559-0.581-0.84-1.521-0.84-2.901v-4.001h-1.301v-2.24h1.301v-1.82L655.406,18.134z"/>
						<path fill="#FFFFFF" d="M667.488,28.196c0,0.92,0.039,1.82,0.16,2.36h-2.742l-0.18-0.98h-0.061
							c-0.639,0.78-1.639,1.2-2.799,1.2c-1.98,0-3.162-1.44-3.162-3c0-2.541,2.281-3.741,5.742-3.741v-0.12
							c0-0.54-0.281-1.28-1.781-1.28c-1,0-2.061,0.34-2.699,0.74l-0.561-1.96c0.68-0.381,2.02-0.881,3.801-0.881
							c3.26,0,4.281,1.921,4.281,4.241V28.196z M664.547,25.936c-1.6,0-2.84,0.38-2.84,1.54c0,0.78,0.52,1.16,1.199,1.16
							c0.74,0,1.381-0.5,1.58-1.12c0.041-0.159,0.061-0.34,0.061-0.52V25.936z"/>
						<path fill="#FFFFFF" d="M677.246,30.297c-0.539,0.26-1.559,0.46-2.721,0.46c-3.16,0-5.18-1.94-5.18-5.001
							c0-2.861,1.959-5.201,5.602-5.201c0.799,0,1.68,0.14,2.32,0.38l-0.48,2.261c-0.361-0.16-0.9-0.301-1.701-0.301
							c-1.6,0-2.641,1.141-2.619,2.741c0,1.78,1.199,2.74,2.68,2.74c0.721,0,1.279-0.12,1.74-0.32L677.246,30.297z"/>
						<path fill="#FFFFFF" d="M682.066,18.054c0,0.841-0.621,1.521-1.641,1.521c-0.961,0-1.58-0.68-1.58-1.521
							c0-0.86,0.639-1.521,1.619-1.521S682.045,17.193,682.066,18.054z M678.926,30.557v-9.782h3.039v9.782H678.926z"/>
						<path fill="#FFFFFF" d="M694.066,25.556c0,3.581-2.541,5.221-5.16,5.221c-2.861,0-5.062-1.88-5.062-5.041
							c0-3.181,2.08-5.201,5.242-5.201C692.066,20.534,694.066,22.595,694.066,25.556z M686.984,25.655c0,1.681,0.701,2.941,2,2.941
							c1.201,0,1.941-1.181,1.941-2.961c0-1.44-0.561-2.921-1.941-2.921C687.545,22.715,686.984,24.215,686.984,25.655z
							 M692.127,16.514l-2.441,3.041h-2.08l1.721-3.041H692.127z"/>
						<path fill="#FFFFFF" d="M695.945,23.896c0-1.221-0.041-2.241-0.08-3.121h2.641l0.139,1.36h0.061
							c0.4-0.64,1.381-1.58,3.021-1.58c2,0,3.5,1.34,3.5,4.221v5.781h-3.041v-5.421c0-1.261-0.439-2.121-1.541-2.121
							c-0.84,0-1.34,0.58-1.559,1.141c-0.08,0.2-0.102,0.48-0.102,0.76v5.642h-3.039V23.896z"/>
						<path fill="#FFFFFF" d="M707.465,22.495c0-1.08,0.74-1.841,1.779-1.841c1.061,0,1.76,0.74,1.781,1.841
							c0,1.04-0.701,1.82-1.801,1.82C708.184,24.315,707.465,23.535,707.465,22.495z M707.465,28.956c0-1.08,0.74-1.84,1.779-1.84
							c1.061,0,1.76,0.74,1.781,1.84c0,1.04-0.701,1.82-1.801,1.82C708.184,30.776,707.465,29.996,707.465,28.956z"/>
						<path fill="#FFFFFF" d="M539.201,39.074v8.001c0,3.001,1.34,4.281,3.141,4.281c1.98,0,3.279-1.32,3.279-4.281v-8.001h1.762
							v7.881c0,4.142-2.182,5.821-5.102,5.821c-2.76,0-4.842-1.56-4.842-5.761v-7.941H539.201z"/>
						<path fill="#FFFFFF" d="M549.98,50.776c0.539,0.32,1.459,0.68,2.34,0.68c1.26,0,1.859-0.62,1.859-1.44
							c0-0.84-0.5-1.28-1.779-1.76c-1.76-0.641-2.58-1.58-2.58-2.741c0-1.56,1.279-2.84,3.34-2.84c0.98,0,1.84,0.26,2.361,0.6
							l-0.42,1.28c-0.381-0.24-1.082-0.58-1.98-0.58c-1.041,0-1.602,0.601-1.602,1.32c0,0.801,0.561,1.16,1.82,1.66
							c1.66,0.62,2.541,1.461,2.541,2.901c0,1.72-1.34,2.92-3.602,2.92c-1.059,0-2.039-0.279-2.721-0.68L549.98,50.776z"/>
						<path fill="#FFFFFF" d="M560.26,40.554v2.321h2.521v1.34h-2.521v5.221c0,1.2,0.34,1.881,1.32,1.881
							c0.48,0,0.76-0.04,1.02-0.12l0.08,1.341c-0.34,0.119-0.879,0.239-1.559,0.239c-0.82,0-1.48-0.279-1.9-0.74
							c-0.48-0.54-0.682-1.4-0.682-2.54v-5.281h-1.5v-1.34h1.5v-1.801L560.26,40.554z"/>
						<path fill="#FFFFFF" d="M565.619,48.036c0.041,2.38,1.541,3.36,3.322,3.36c1.26,0,2.039-0.22,2.68-0.5l0.32,1.26
							c-0.621,0.28-1.701,0.62-3.24,0.62c-2.98,0-4.762-1.98-4.762-4.9c0-2.921,1.721-5.201,4.541-5.201c3.18,0,4,2.761,4,4.541
							c0,0.359-0.02,0.62-0.059,0.82H565.619z M570.781,46.775c0.02-1.101-0.461-2.841-2.441-2.841c-1.801,0-2.561,1.62-2.699,2.841
							H570.781z"/>
						<path fill="#FFFFFF" d="M583,38.354v11.702c0,0.86,0.041,1.841,0.08,2.501h-1.559l-0.08-1.681h-0.061
							c-0.52,1.08-1.682,1.9-3.262,1.9c-2.34,0-4.16-1.98-4.16-4.921c-0.02-3.221,2-5.181,4.342-5.181c1.5,0,2.48,0.7,2.92,1.46
							h0.039v-5.781H583z M581.26,46.815c0-0.22-0.02-0.521-0.08-0.74c-0.26-1.101-1.219-2.021-2.539-2.021
							c-1.82,0-2.9,1.601-2.9,3.721c0,1.961,0.979,3.581,2.859,3.581c1.18,0,2.262-0.8,2.58-2.101c0.061-0.24,0.08-0.48,0.08-0.76
							V46.815z"/>
						<path fill="#FFFFFF" d="M590.18,45.495c0-1.021-0.02-1.82-0.08-2.62h1.561l0.1,1.6h0.041c0.479-0.899,1.6-1.8,3.199-1.8
							c1.342,0,3.422,0.8,3.422,4.121v5.761h-1.762v-5.581c0-1.561-0.58-2.86-2.24-2.86c-1.141,0-2.039,0.819-2.359,1.8
							c-0.08,0.221-0.121,0.521-0.121,0.82v5.821h-1.76V45.495z"/>
						<path fill="#FFFFFF" d="M610.041,47.636c0,3.581-2.5,5.141-4.82,5.141c-2.602,0-4.643-1.92-4.643-4.98
							c0-3.221,2.141-5.121,4.803-5.121C608.16,42.675,610.041,44.695,610.041,47.636z M602.379,47.735
							c0,2.121,1.201,3.721,2.922,3.721c1.68,0,2.939-1.58,2.939-3.761c0-1.64-0.82-3.7-2.9-3.7
							C603.279,43.995,602.379,45.915,602.379,47.735z"/>
						<path fill="#FFFFFF" d="M624.84,38.354v11.702c0,0.86,0.041,1.841,0.08,2.501h-1.559l-0.08-1.681h-0.061
							c-0.52,1.08-1.682,1.9-3.262,1.9c-2.34,0-4.16-1.98-4.16-4.921c-0.02-3.221,2-5.181,4.342-5.181c1.5,0,2.48,0.7,2.92,1.46
							h0.039v-5.781H624.84z M623.1,46.815c0-0.22-0.02-0.521-0.08-0.74c-0.26-1.101-1.219-2.021-2.539-2.021
							c-1.82,0-2.9,1.601-2.9,3.721c0,1.961,0.979,3.581,2.859,3.581c1.18,0,2.262-0.8,2.58-2.101c0.061-0.24,0.08-0.48,0.08-0.76
							V46.815z"/>
						<path fill="#FFFFFF" d="M628.76,48.036c0.039,2.38,1.539,3.36,3.32,3.36c1.26,0,2.041-0.22,2.68-0.5l0.32,1.26
							c-0.619,0.28-1.699,0.62-3.24,0.62c-2.98,0-4.762-1.98-4.762-4.9c0-2.921,1.721-5.201,4.541-5.201
							c3.182,0,4.002,2.761,4.002,4.541c0,0.359-0.02,0.62-0.061,0.82H628.76z M633.92,46.775c0.021-1.101-0.459-2.841-2.439-2.841
							c-1.801,0-2.561,1.62-2.701,2.841H633.92z"/>
						<path fill="#FFFFFF" d="M637.799,38.354h1.74v6.081h0.039c0.621-1.08,1.742-1.76,3.301-1.76c2.422,0,4.102,2,4.102,4.921
							c0,3.461-2.201,5.181-4.361,5.181c-1.4,0-2.52-0.54-3.26-1.8h-0.041l-0.1,1.58h-1.5c0.039-0.66,0.08-1.641,0.08-2.501V38.354z
							 M639.539,48.676c0,0.22,0.02,0.44,0.08,0.641c0.32,1.22,1.359,2.06,2.641,2.06c1.859,0,2.941-1.5,2.941-3.721
							c0-1.94-1.002-3.601-2.902-3.601c-1.18,0-2.299,0.84-2.66,2.16c-0.061,0.221-0.1,0.461-0.1,0.74V48.676z"/>
						<path fill="#FFFFFF" d="M650.158,48.036c0.041,2.38,1.541,3.36,3.322,3.36c1.26,0,2.039-0.22,2.68-0.5l0.32,1.26
							c-0.621,0.28-1.701,0.62-3.24,0.62c-2.98,0-4.762-1.98-4.762-4.9c0-2.921,1.721-5.201,4.541-5.201c3.18,0,4,2.761,4,4.541
							c0,0.359-0.02,0.62-0.059,0.82H650.158z M655.32,46.775c0.02-1.101-0.461-2.841-2.441-2.841c-1.801,0-2.561,1.62-2.699,2.841
							H655.32z"/>
						<path fill="#FFFFFF" d="M661.059,55.397c0.82-0.061,1.5-0.28,1.92-0.761c0.48-0.54,0.68-1.3,0.68-3.62v-8.142h1.76v8.821
							c0,1.881-0.299,3.101-1.16,3.981c-0.779,0.779-2.061,1.1-3,1.1L661.059,55.397z M665.619,40.154c0,0.58-0.4,1.08-1.121,1.08
							c-0.639,0-1.061-0.5-1.061-1.08c0-0.601,0.441-1.101,1.102-1.101S665.619,39.554,665.619,40.154z"/>
						<path fill="#FFFFFF" d="M676.4,49.896c0,1.02,0.02,1.9,0.08,2.66h-1.561l-0.1-1.58h-0.041c-0.439,0.78-1.48,1.8-3.199,1.8
							c-1.521,0-3.342-0.859-3.342-4.24v-5.661H670v5.341c0,1.84,0.58,3.101,2.16,3.101c1.18,0,2-0.82,2.32-1.62
							c0.1-0.24,0.16-0.561,0.16-0.9v-5.921h1.76V49.896z"/>
						<path fill="#FFFFFF" d="M678.219,51.536l4.359-5.701c0.441-0.54,0.842-1,1.281-1.521v-0.04h-5.242v-1.399h7.363v1.1
							l-4.322,5.621c-0.42,0.54-0.799,1.04-1.24,1.521v0.04h5.643v1.4h-7.842V51.536z"/>
						<path fill="#FFFFFF" d="M696.16,51.137c0,2.24-0.461,3.58-1.381,4.44c-0.961,0.86-2.32,1.16-3.541,1.16
							c-1.16,0-2.439-0.28-3.221-0.8l0.439-1.36c0.641,0.42,1.641,0.78,2.842,0.78c1.801,0,3.121-0.94,3.121-3.401v-1.06h-0.041
							c-0.52,0.9-1.58,1.62-3.08,1.62c-2.4,0-4.121-2.04-4.121-4.721c0-3.281,2.141-5.121,4.381-5.121c1.68,0,2.58,0.86,3.021,1.66
							h0.039l0.061-1.46h1.561c-0.061,0.68-0.08,1.479-0.08,2.64V51.137z M694.398,46.695c0-0.3-0.02-0.56-0.1-0.78
							c-0.32-1.04-1.16-1.88-2.461-1.88c-1.68,0-2.879,1.42-2.879,3.66c0,1.9,0.979,3.481,2.859,3.481c1.1,0,2.08-0.681,2.441-1.801
							c0.1-0.3,0.139-0.641,0.139-0.94V46.695z"/>
						<path fill="#FFFFFF" d="M705.859,50.236c0,0.84,0.039,1.66,0.139,2.32h-1.58l-0.139-1.221h-0.061
							c-0.541,0.761-1.58,1.44-2.961,1.44c-1.961,0-2.961-1.38-2.961-2.78c0-2.341,2.08-3.621,5.822-3.601v-0.2
							c0-0.78-0.221-2.24-2.201-2.221c-0.92,0-1.859,0.261-2.541,0.721l-0.4-1.181c0.801-0.5,1.98-0.84,3.201-0.84
							c2.961,0,3.682,2.021,3.682,3.94V50.236z M704.158,47.615c-1.92-0.04-4.1,0.301-4.1,2.181c0,1.16,0.76,1.681,1.639,1.681
							c1.281,0,2.102-0.801,2.381-1.62c0.061-0.2,0.08-0.4,0.08-0.561V47.615z"/>
						<path fill="#FFFFFF" d="M708.697,45.896c0-1.141-0.02-2.121-0.08-3.021h1.541l0.08,1.92h0.059
							c0.441-1.3,1.521-2.12,2.701-2.12c0.18,0,0.32,0.02,0.48,0.04v1.66c-0.18-0.04-0.361-0.04-0.6-0.04
							c-1.24,0-2.121,0.92-2.361,2.24c-0.041,0.24-0.061,0.54-0.061,0.82v5.161h-1.76V45.896z"/>
						<path fill="#FFFFFF" d="M713.037,55.037c0.439-1.2,0.98-3.341,1.201-4.801l1.959-0.2c-0.479,1.7-1.359,3.921-1.92,4.861
							L713.037,55.037z"/>
						<path fill="#FFFFFF" d="M544.992,74.217c-0.461,0.22-1.48,0.56-2.781,0.56c-2.92,0-4.82-1.98-4.82-4.94
							c0-2.98,2.041-5.161,5.201-5.161c1.041,0,1.961,0.26,2.439,0.52l-0.398,1.341c-0.42-0.221-1.08-0.46-2.041-0.46
							c-2.221,0-3.42,1.66-3.42,3.66c0,2.241,1.439,3.621,3.359,3.621c1,0,1.66-0.24,2.16-0.46L544.992,74.217z"/>
						<path fill="#FFFFFF" d="M555.152,71.896c0,1.02,0.02,1.9,0.08,2.66h-1.561l-0.1-1.58h-0.041c-0.439,0.78-1.48,1.8-3.199,1.8
							c-1.521,0-3.342-0.859-3.342-4.24v-5.661h1.762v5.341c0,1.84,0.58,3.101,2.16,3.101c1.18,0,2-0.82,2.32-1.62
							c0.1-0.24,0.16-0.561,0.16-0.9v-5.921h1.76V71.896z"/>
						<path fill="#FFFFFF" d="M558.07,60.354h1.76v14.203h-1.76V60.354z"/>
						<path fill="#FFFFFF" d="M562.789,68.035c0-1.24-0.039-2.24-0.08-3.16h1.561l0.102,1.66h0.039
							c0.701-1.181,1.861-1.86,3.441-1.86c2.359,0,4.121,1.98,4.121,4.9c0,3.481-2.141,5.201-4.422,5.201
							c-1.279,0-2.4-0.56-2.98-1.52h-0.039v5.261h-1.742V68.035z M564.531,70.616c0,0.26,0.02,0.5,0.078,0.72
							c0.32,1.221,1.381,2.061,2.641,2.061c1.861,0,2.941-1.521,2.941-3.741c0-1.92-1.02-3.58-2.881-3.58
							c-1.199,0-2.34,0.84-2.66,2.16c-0.061,0.22-0.119,0.48-0.119,0.7V70.616z"/>
						<path fill="#FFFFFF" d="M580.971,72.236c0,0.84,0.041,1.66,0.141,2.32h-1.58l-0.141-1.221h-0.061
							c-0.539,0.761-1.58,1.44-2.959,1.44c-1.961,0-2.961-1.38-2.961-2.78c0-2.341,2.08-3.621,5.82-3.601v-0.2
							c0-0.78-0.219-2.24-2.199-2.221c-0.922,0-1.861,0.261-2.541,0.721l-0.4-1.181c0.801-0.5,1.98-0.84,3.201-0.84
							c2.961,0,3.68,2.021,3.68,3.94V72.236z M579.271,69.615c-1.922-0.04-4.102,0.301-4.102,2.181c0,1.16,0.76,1.681,1.641,1.681
							c1.279,0,2.1-0.801,2.381-1.62c0.059-0.2,0.08-0.4,0.08-0.561V69.615z"/>
						<path fill="#FFFFFF" d="M583.809,67.896c0-1.141-0.02-2.121-0.08-3.021h1.541l0.08,1.92h0.061c0.439-1.3,1.52-2.12,2.701-2.12
							c0.18,0,0.318,0.02,0.479,0.04v1.66c-0.18-0.04-0.359-0.04-0.6-0.04c-1.24,0-2.121,0.92-2.361,2.24
							c-0.039,0.24-0.059,0.54-0.059,0.82v5.161h-1.762V67.896z"/>
						<path fill="#FFFFFF" d="M588.15,77.037c0.439-1.2,0.979-3.341,1.199-4.801l1.961-0.2c-0.48,1.7-1.361,3.921-1.92,4.861
							L588.15,77.037z"/>
						<path fill="#FFFFFF" d="M604.57,74.217c-0.459,0.22-1.479,0.56-2.779,0.56c-2.922,0-4.822-1.98-4.822-4.94
							c0-2.98,2.041-5.161,5.201-5.161c1.041,0,1.961,0.26,2.441,0.52l-0.4,1.341c-0.42-0.221-1.08-0.46-2.041-0.46
							c-2.219,0-3.42,1.66-3.42,3.66c0,2.241,1.439,3.621,3.361,3.621c1,0,1.66-0.24,2.16-0.46L604.57,74.217z"/>
						<path fill="#FFFFFF" d="M614.732,71.896c0,1.02,0.02,1.9,0.078,2.66h-1.559l-0.102-1.58h-0.039
							c-0.439,0.78-1.48,1.8-3.201,1.8c-1.52,0-3.34-0.859-3.34-4.24v-5.661h1.76v5.341c0,1.84,0.58,3.101,2.16,3.101
							c1.18,0,2-0.82,2.32-1.62c0.1-0.24,0.16-0.561,0.16-0.9v-5.921h1.762V71.896z"/>
						<path fill="#FFFFFF" d="M618.629,70.036c0.041,2.38,1.541,3.36,3.322,3.36c1.26,0,2.039-0.22,2.68-0.5l0.32,1.26
							c-0.621,0.28-1.701,0.62-3.24,0.62c-2.98,0-4.762-1.98-4.762-4.9c0-2.921,1.721-5.201,4.541-5.201c3.18,0,4,2.761,4,4.541
							c0,0.359-0.02,0.62-0.059,0.82H618.629z M623.791,68.775c0.02-1.101-0.461-2.841-2.441-2.841c-1.801,0-2.561,1.62-2.699,2.841
							H623.791z"/>
						<path fill="#FFFFFF" d="M627.43,72.776c0.539,0.32,1.459,0.68,2.34,0.68c1.26,0,1.859-0.62,1.859-1.44
							c0-0.84-0.5-1.28-1.779-1.76c-1.76-0.641-2.58-1.58-2.58-2.741c0-1.56,1.279-2.84,3.34-2.84c0.98,0,1.84,0.26,2.361,0.6
							l-0.42,1.28c-0.381-0.24-1.082-0.58-1.98-0.58c-1.041,0-1.602,0.601-1.602,1.32c0,0.801,0.561,1.16,1.82,1.66
							c1.66,0.62,2.541,1.461,2.541,2.901c0,1.72-1.34,2.92-3.602,2.92c-1.059,0-2.039-0.279-2.721-0.68L627.43,72.776z"/>
						<path fill="#FFFFFF" d="M637.709,62.554v2.321h2.521v1.34h-2.521v5.221c0,1.2,0.34,1.881,1.32,1.881
							c0.48,0,0.76-0.04,1.02-0.12l0.08,1.341c-0.34,0.119-0.879,0.239-1.559,0.239c-0.82,0-1.48-0.279-1.9-0.74
							c-0.48-0.54-0.682-1.4-0.682-2.54v-5.281h-1.5v-1.34h1.5v-1.801L637.709,62.554z"/>
						<path fill="#FFFFFF" d="M644.17,62.154c0,0.6-0.42,1.08-1.121,1.08c-0.641,0-1.061-0.48-1.061-1.08
							c0-0.601,0.441-1.101,1.102-1.101C643.729,61.054,644.17,61.534,644.17,62.154z M642.209,74.557v-9.682h1.76v9.682H642.209z"
							/>
						<path fill="#FFFFFF" d="M655.65,69.636c0,3.581-2.5,5.141-4.82,5.141c-2.602,0-4.643-1.92-4.643-4.98
							c0-3.221,2.141-5.121,4.803-5.121C653.77,64.675,655.65,66.695,655.65,69.636z M647.988,69.735
							c0,2.121,1.201,3.721,2.922,3.721c1.68,0,2.939-1.58,2.939-3.761c0-1.64-0.82-3.7-2.9-3.7
							C648.889,65.995,647.988,67.915,647.988,69.735z"/>
						<path fill="#FFFFFF" d="M657.867,67.495c0-1.021-0.02-1.82-0.08-2.62h1.561l0.102,1.6h0.039c0.48-0.899,1.6-1.8,3.201-1.8
							c1.34,0,3.42,0.8,3.42,4.121v5.761h-1.76v-5.581c0-1.561-0.58-2.86-2.24-2.86c-1.141,0-2.041,0.819-2.361,1.8
							c-0.08,0.221-0.119,0.521-0.119,0.82v5.821h-1.762V67.495z"/>
						<path fill="#FFFFFF" d="M675.77,72.236c0,0.84,0.039,1.66,0.139,2.32h-1.58l-0.139-1.221h-0.061
							c-0.541,0.761-1.58,1.44-2.961,1.44c-1.961,0-2.961-1.38-2.961-2.78c0-2.341,2.08-3.621,5.822-3.601v-0.2
							c0-0.78-0.221-2.24-2.201-2.221c-0.92,0-1.859,0.261-2.541,0.721l-0.4-1.181c0.801-0.5,1.98-0.84,3.201-0.84
							c2.961,0,3.682,2.021,3.682,3.94V72.236z M674.068,69.615c-1.92-0.04-4.1,0.301-4.1,2.181c0,1.16,0.76,1.681,1.639,1.681
							c1.281,0,2.102-0.801,2.381-1.62c0.061-0.2,0.08-0.4,0.08-0.561V69.615z"/>
						<path fill="#FFFFFF" d="M678.607,67.896c0-1.141-0.02-2.121-0.08-3.021h1.541l0.08,1.92h0.059
							c0.441-1.3,1.521-2.12,2.701-2.12c0.18,0,0.32,0.02,0.48,0.04v1.66c-0.18-0.04-0.361-0.04-0.6-0.04
							c-1.24,0-2.121,0.92-2.361,2.24c-0.041,0.24-0.061,0.54-0.061,0.82v5.161h-1.76V67.896z"/>
						<path fill="#FFFFFF" d="M696.189,72.236c0,0.84,0.039,1.66,0.139,2.32h-1.58l-0.139-1.221h-0.061
							c-0.541,0.761-1.58,1.44-2.961,1.44c-1.961,0-2.961-1.38-2.961-2.78c0-2.341,2.08-3.621,5.822-3.601v-0.2
							c0-0.78-0.221-2.24-2.201-2.221c-0.92,0-1.859,0.261-2.541,0.721l-0.4-1.181c0.801-0.5,1.98-0.84,3.201-0.84
							c2.961,0,3.682,2.021,3.682,3.94V72.236z M694.488,69.615c-1.92-0.04-4.1,0.301-4.1,2.181c0,1.16,0.76,1.681,1.639,1.681
							c1.281,0,2.102-0.801,2.381-1.62c0.061-0.2,0.08-0.4,0.08-0.561V69.615z"/>
						<path fill="#FFFFFF" d="M703.268,60.354h1.76v14.203h-1.76V60.354z"/>
						<path fill="#FFFFFF" d="M714.789,72.236c0,0.84,0.039,1.66,0.139,2.32h-1.58l-0.139-1.221h-0.061
							c-0.541,0.761-1.58,1.44-2.961,1.44c-1.961,0-2.961-1.38-2.961-2.78c0-2.341,2.08-3.621,5.822-3.601v-0.2
							c0-0.78-0.221-2.24-2.201-2.221c-0.92,0-1.859,0.261-2.541,0.721l-0.4-1.181c0.801-0.5,1.98-0.84,3.201-0.84
							c2.961,0,3.682,2.021,3.682,3.94V72.236z M713.088,69.615c-1.92-0.04-4.1,0.301-4.1,2.181c0,1.16,0.76,1.681,1.639,1.681
							c1.281,0,2.102-0.801,2.381-1.62c0.061-0.2,0.08-0.4,0.08-0.561V69.615z"/>
						<path fill="#FFFFFF" d="M537.801,90.035c0-1.24-0.041-2.24-0.08-3.16h1.561l0.1,1.66h0.041c0.699-1.181,1.859-1.86,3.439-1.86
							c2.361,0,4.121,1.98,4.121,4.9c0,3.481-2.141,5.201-4.42,5.201c-1.281,0-2.4-0.56-2.982-1.52h-0.039v5.261h-1.74V90.035z
							 M539.541,92.616c0,0.26,0.02,0.5,0.08,0.72c0.32,1.221,1.381,2.061,2.641,2.061c1.859,0,2.941-1.521,2.941-3.741
							c0-1.92-1.021-3.58-2.881-3.58c-1.201,0-2.342,0.84-2.662,2.16c-0.059,0.22-0.119,0.48-0.119,0.7V92.616z"/>
						<path fill="#FFFFFF" d="M550.16,92.036c0.041,2.38,1.541,3.36,3.322,3.36c1.26,0,2.039-0.22,2.68-0.5l0.32,1.26
							c-0.621,0.28-1.701,0.62-3.24,0.62c-2.98,0-4.762-1.98-4.762-4.9c0-2.921,1.721-5.201,4.541-5.201c3.18,0,4,2.761,4,4.541
							c0,0.359-0.02,0.62-0.059,0.82H550.16z M555.322,90.775c0.02-1.101-0.461-2.841-2.441-2.841c-1.801,0-2.561,1.62-2.699,2.841
							H555.322z"/>
						<path fill="#FFFFFF" d="M559.199,89.896c0-1.141-0.02-2.121-0.08-3.021h1.541l0.08,1.92h0.061c0.439-1.3,1.52-2.12,2.701-2.12
							c0.18,0,0.318,0.02,0.479,0.04v1.66c-0.18-0.04-0.359-0.04-0.6-0.04c-1.24,0-2.121,0.92-2.361,2.24
							c-0.039,0.24-0.059,0.54-0.059,0.82v5.161h-1.762V89.896z"/>
						<path fill="#FFFFFF" d="M565.5,94.776c0.541,0.32,1.461,0.68,2.34,0.68c1.262,0,1.861-0.62,1.861-1.44
							c0-0.84-0.5-1.28-1.781-1.76c-1.76-0.641-2.58-1.58-2.58-2.741c0-1.56,1.281-2.84,3.342-2.84c0.979,0,1.84,0.26,2.359,0.6
							l-0.42,1.28c-0.381-0.24-1.08-0.58-1.98-0.58c-1.041,0-1.6,0.601-1.6,1.32c0,0.801,0.559,1.16,1.82,1.66
							c1.66,0.62,2.539,1.461,2.539,2.901c0,1.72-1.34,2.92-3.6,2.92c-1.061,0-2.041-0.279-2.721-0.68L565.5,94.776z"/>
						<path fill="#FFFFFF" d="M582.422,91.636c0,3.581-2.5,5.141-4.82,5.141c-2.602,0-4.643-1.92-4.643-4.98
							c0-3.221,2.141-5.121,4.803-5.121C580.541,86.675,582.422,88.695,582.422,91.636z M574.76,91.735
							c0,2.121,1.201,3.721,2.922,3.721c1.68,0,2.939-1.58,2.939-3.761c0-1.64-0.82-3.7-2.9-3.7
							C575.66,87.995,574.76,89.915,574.76,91.735z"/>
						<path fill="#FFFFFF" d="M584.639,89.495c0-1.021-0.02-1.82-0.08-2.62h1.561l0.102,1.6h0.039c0.48-0.899,1.6-1.8,3.201-1.8
							c1.34,0,3.42,0.8,3.42,4.121v5.761h-1.76v-5.581c0-1.561-0.58-2.86-2.24-2.86c-1.141,0-2.041,0.819-2.361,1.8
							c-0.08,0.221-0.119,0.521-0.119,0.82v5.821h-1.762V89.495z"/>
						<path fill="#FFFFFF" d="M602.541,94.236c0,0.84,0.039,1.66,0.139,2.32h-1.58l-0.139-1.221H600.9
							c-0.541,0.761-1.58,1.44-2.961,1.44c-1.961,0-2.961-1.38-2.961-2.78c0-2.341,2.08-3.621,5.822-3.601v-0.2
							c0-0.78-0.221-2.24-2.201-2.221c-0.92,0-1.859,0.261-2.541,0.721l-0.4-1.181c0.801-0.5,1.98-0.84,3.201-0.84
							c2.961,0,3.682,2.021,3.682,3.94V94.236z M600.84,91.615c-1.92-0.04-4.1,0.301-4.1,2.181c0,1.16,0.76,1.681,1.639,1.681
							c1.281,0,2.102-0.801,2.381-1.62c0.061-0.2,0.08-0.4,0.08-0.561V91.615z"/>
						<path fill="#FFFFFF" d="M616.221,95.076h-0.041c-0.539,0.94-1.6,1.7-3.16,1.7c-2.26,0-4.102-1.94-4.102-4.881
							c0-3.641,2.342-5.221,4.381-5.221c1.502,0,2.502,0.74,2.982,1.66h0.039l0.061-1.46h1.66c-0.041,0.8-0.08,1.66-0.08,2.66
							v10.982h-1.74V95.076z M616.221,90.796c0-0.24-0.02-0.501-0.08-0.721c-0.281-1.08-1.201-2-2.521-2c-1.82,0-2.92,1.54-2.92,3.7
							c0,1.94,0.92,3.601,2.861,3.601c1.139,0,2.119-0.7,2.52-1.9c0.08-0.26,0.141-0.6,0.141-0.859V90.796z"/>
						<path fill="#FFFFFF" d="M628.98,93.896c0,1.02,0.02,1.9,0.08,2.66H627.5l-0.1-1.58h-0.041c-0.439,0.78-1.48,1.8-3.199,1.8
							c-1.521,0-3.342-0.859-3.342-4.24v-5.661h1.762v5.341c0,1.84,0.58,3.101,2.16,3.101c1.18,0,2-0.82,2.32-1.62
							c0.1-0.24,0.16-0.561,0.16-0.9v-5.921h1.76V93.896z"/>
						<path fill="#FFFFFF" d="M632.879,92.036c0.039,2.38,1.539,3.36,3.32,3.36c1.26,0,2.041-0.22,2.68-0.5l0.32,1.26
							c-0.619,0.28-1.699,0.62-3.24,0.62c-2.98,0-4.762-1.98-4.762-4.9c0-2.921,1.721-5.201,4.541-5.201
							c3.182,0,4.002,2.761,4.002,4.541c0,0.359-0.02,0.62-0.061,0.82H632.879z M638.039,90.775
							c0.021-1.101-0.459-2.841-2.439-2.841c-1.801,0-2.561,1.62-2.701,2.841H638.039z"/>
						<path fill="#FFFFFF" d="M647.139,92.036c0.039,2.38,1.539,3.36,3.32,3.36c1.26,0,2.041-0.22,2.68-0.5l0.32,1.26
							c-0.619,0.28-1.699,0.62-3.24,0.62c-2.98,0-4.762-1.98-4.762-4.9c0-2.921,1.721-5.201,4.541-5.201
							c3.182,0,4.002,2.761,4.002,4.541c0,0.359-0.02,0.62-0.061,0.82H647.139z M652.299,90.775
							c0.021-1.101-0.459-2.841-2.439-2.841c-1.801,0-2.561,1.62-2.701,2.841H652.299z"/>
						<path fill="#FFFFFF" d="M655.938,94.776c0.541,0.32,1.461,0.68,2.34,0.68c1.262,0,1.861-0.62,1.861-1.44
							c0-0.84-0.5-1.28-1.781-1.76c-1.76-0.641-2.58-1.58-2.58-2.741c0-1.56,1.281-2.84,3.342-2.84c0.979,0,1.84,0.26,2.359,0.6
							l-0.42,1.28c-0.381-0.24-1.08-0.58-1.98-0.58c-1.041,0-1.6,0.601-1.6,1.32c0,0.801,0.559,1.16,1.82,1.66
							c1.66,0.62,2.539,1.461,2.539,2.901c0,1.72-1.34,2.92-3.6,2.92c-1.061,0-2.041-0.279-2.721-0.68L655.938,94.776z"/>
						<path fill="#FFFFFF" d="M670.998,96.217c-0.459,0.22-1.479,0.56-2.779,0.56c-2.922,0-4.822-1.98-4.822-4.94
							c0-2.98,2.041-5.161,5.201-5.161c1.041,0,1.961,0.26,2.441,0.52l-0.4,1.341c-0.42-0.221-1.08-0.46-2.041-0.46
							c-2.219,0-3.42,1.66-3.42,3.66c0,2.241,1.439,3.621,3.361,3.621c1,0,1.66-0.24,2.16-0.46L670.998,96.217z"/>
						<path fill="#FFFFFF" d="M681.16,93.896c0,1.02,0.02,1.9,0.078,2.66h-1.559l-0.102-1.58h-0.039c-0.439,0.78-1.48,1.8-3.201,1.8
							c-1.52,0-3.34-0.859-3.34-4.24v-5.661h1.76v5.341c0,1.84,0.58,3.101,2.16,3.101c1.18,0,2-0.82,2.32-1.62
							c0.1-0.24,0.16-0.561,0.16-0.9v-5.921h1.762V93.896z"/>
						<path fill="#FFFFFF" d="M690.979,96.217c-0.461,0.22-1.48,0.56-2.781,0.56c-2.92,0-4.82-1.98-4.82-4.94
							c0-2.98,2.041-5.161,5.201-5.161c1.041,0,1.961,0.26,2.439,0.52l-0.398,1.341c-0.42-0.221-1.08-0.46-2.041-0.46
							c-2.221,0-3.42,1.66-3.42,3.66c0,2.241,1.439,3.621,3.359,3.621c1,0,1.66-0.24,2.16-0.46L690.979,96.217z"/>
						<path fill="#FFFFFF" d="M693.037,82.354h1.76v6.062h0.041c0.279-0.5,0.719-0.96,1.26-1.261c0.52-0.3,1.141-0.479,1.801-0.479
							c1.301,0,3.381,0.8,3.381,4.121v5.761h-1.762v-5.562c0-1.56-0.58-2.86-2.24-2.86c-1.141,0-2.02,0.8-2.359,1.74
							c-0.102,0.261-0.121,0.521-0.121,0.841v5.841h-1.76V82.354z"/>
						<path fill="#FFFFFF" d="M710.938,94.236c0,0.84,0.041,1.66,0.141,2.32h-1.58l-0.141-1.221h-0.061
							c-0.539,0.761-1.58,1.44-2.959,1.44c-1.961,0-2.961-1.38-2.961-2.78c0-2.341,2.08-3.621,5.82-3.601v-0.2
							c0-0.78-0.219-2.24-2.199-2.221c-0.922,0-1.861,0.261-2.541,0.721l-0.4-1.181c0.801-0.5,1.98-0.84,3.201-0.84
							c2.961,0,3.68,2.021,3.68,3.94V94.236z M709.238,91.615c-1.922-0.04-4.102,0.301-4.102,2.181c0,1.16,0.76,1.681,1.641,1.681
							c1.279,0,2.1-0.801,2.381-1.62c0.059-0.2,0.08-0.4,0.08-0.561V91.615z"/>
						<path fill="#FFFFFF" d="M713.355,95.517c0-0.721,0.5-1.261,1.201-1.261c0.699,0,1.18,0.521,1.18,1.261
							c0,0.72-0.48,1.26-1.221,1.26C713.836,96.776,713.355,96.236,713.355,95.517z"/>
					</g>
				</g>
			</g>
		</g>
		<path fill="none" stroke="#C15921" stroke-width="5" stroke-miterlimit="10" stroke-dasharray="4" d="M525.977,35.364
			c0,0-8.762,16.96-22.783,27.918c-14.02,10.958-33.297,8.958-33.297,8.958"/>
	</g>
</g>
</svg>
