<?xml version="1.0" encoding="utf-8"?>
<!-- Generator: Adobe Illustrator 16.0.0, SVG Export Plug-In . SVG Version: 6.00 Build 0)  -->
<!DOCTYPE svg PUBLIC "-//W3C//DTD SVG 1.1//EN" "http://www.w3.org/Graphics/SVG/1.1/DTD/svg11.dtd">
<svg version="1.1" id="Capa_1" xmlns="http://www.w3.org/2000/svg" xmlns:xlink="http://www.w3.org/1999/xlink" x="0px" y="0px"
	 width="700.262px" height="204.429px" viewBox="0 0 700.262 204.429" enable-background="new 0 0 700.262 204.429"
	 xml:space="preserve">
<g>
	<g>
		<rect x="381.081" y="97.805" fill="#EBE760" fill-opacity="0.4" width="34.975" height="35.206"/>
		<rect y="169.223" fill="#EBE760" fill-opacity="0.4" width="102.095" height="35.206"/>
		<rect y="133.41" fill="#EBE760" fill-opacity="0.4" width="416.056" height="35.206"/>
	</g>
	<g>
		<g>
			<g>
				<path fill-rule="evenodd" clip-rule="evenodd" fill="#C15921" d="M694.891,123.447c0,6.628-5.373,12-12,12H486.948
					c-6.627,0-12-5.372-12-12V12c0-6.628,5.373-12,12-12h195.942c6.627,0,12,5.372,12,12V123.447z"/>
				<g>
					<g>
						<path fill="#FFFFFF" d="M500.991,17.254c0.98-0.16,2.421-0.28,4.061-0.28c2.001,0,3.401,0.3,4.361,1.061
							c0.82,0.64,1.26,1.601,1.26,2.841c0,1.7-1.22,2.88-2.38,3.3v0.061c0.94,0.38,1.46,1.26,1.8,2.5
							c0.421,1.541,0.82,3.301,1.081,3.821h-3.121c-0.2-0.4-0.54-1.48-0.92-3.141c-0.381-1.7-0.961-2.141-2.221-2.16h-0.9v5.301
							h-3.021V17.254z M504.012,23.055h1.2c1.521,0,2.421-0.76,2.421-1.94c0-1.22-0.841-1.86-2.24-1.86
							c-0.74,0-1.161,0.04-1.381,0.101V23.055z"/>
						<path fill="#FFFFFF" d="M515.091,26.636c0.08,1.261,1.341,1.86,2.761,1.86c1.04,0,1.881-0.14,2.7-0.42l0.4,2.061
							c-1,0.42-2.221,0.62-3.541,0.62c-3.32,0-5.221-1.921-5.221-4.981c0-2.48,1.54-5.221,4.941-5.221c3.16,0,4.36,2.46,4.36,4.881
							c0,0.521-0.06,0.98-0.1,1.2H515.091z M518.672,24.556c0-0.74-0.32-1.98-1.721-1.98c-1.28,0-1.8,1.18-1.88,1.98H518.672z"/>
						<path fill="#FFFFFF" d="M526.711,18.134v2.641h2.181v2.24h-2.181v3.541c0,1.181,0.3,1.721,1.2,1.721
							c0.42,0,0.62-0.021,0.9-0.08l0.02,2.301c-0.38,0.14-1.12,0.26-1.96,0.26c-0.98,0-1.801-0.34-2.301-0.84
							c-0.56-0.581-0.84-1.521-0.84-2.901v-4.001h-1.301v-2.24h1.301v-1.82L526.711,18.134z"/>
						<path fill="#FFFFFF" d="M530.65,23.995c0-1.44-0.021-2.381-0.08-3.221h2.601l0.119,1.801h0.08
							c0.501-1.44,1.681-2.041,2.641-2.041c0.28,0,0.421,0.021,0.641,0.061v2.86c-0.24-0.04-0.48-0.08-0.82-0.08
							c-1.12,0-1.881,0.601-2.08,1.54c-0.04,0.2-0.061,0.44-0.061,0.681v4.961h-3.04V23.995z"/>
						<path fill="#FFFFFF" d="M547.751,25.556c0,3.581-2.54,5.221-5.16,5.221c-2.861,0-5.062-1.88-5.062-5.041
							c0-3.181,2.08-5.201,5.241-5.201C545.751,20.534,547.751,22.595,547.751,25.556z M540.67,25.655c0,1.681,0.7,2.941,2,2.941
							c1.201,0,1.94-1.181,1.94-2.961c0-1.44-0.56-2.921-1.94-2.921C541.23,22.715,540.67,24.215,540.67,25.655z"/>
						<path fill="#FFFFFF" d="M557.771,28.196c0,0.92,0.04,1.82,0.16,2.36h-2.741l-0.18-0.98h-0.061c-0.64,0.78-1.64,1.2-2.8,1.2
							c-1.98,0-3.161-1.44-3.161-3c0-2.541,2.28-3.741,5.741-3.741v-0.12c0-0.54-0.28-1.28-1.78-1.28c-1,0-2.061,0.34-2.7,0.74
							l-0.561-1.96c0.68-0.381,2.021-0.881,3.801-0.881c3.261,0,4.281,1.921,4.281,4.241V28.196z M554.83,25.936
							c-1.6,0-2.84,0.38-2.84,1.54c0,0.78,0.52,1.16,1.2,1.16c0.74,0,1.38-0.5,1.58-1.12c0.04-0.159,0.06-0.34,0.06-0.52V25.936z"/>
						<path fill="#FFFFFF" d="M560.189,16.354h3.04v14.203h-3.04V16.354z"/>
						<path fill="#FFFFFF" d="M568.83,18.054c0,0.841-0.62,1.521-1.641,1.521c-0.96,0-1.58-0.68-1.58-1.521
							c0-0.86,0.64-1.521,1.62-1.521S568.81,17.193,568.83,18.054z M565.689,30.557v-9.782h3.04v9.782H565.689z"/>
						<path fill="#FFFFFF" d="M571.169,23.896c0-1.221-0.04-2.241-0.08-3.121h2.58l0.12,1.32h0.06
							c0.421-0.64,1.301-1.561,2.961-1.561c1.28,0,2.261,0.66,2.681,1.681h0.04c0.38-0.521,0.8-0.92,1.28-1.2
							c0.54-0.3,1.141-0.48,1.86-0.48c1.881,0,3.301,1.32,3.301,4.262v5.761h-2.961v-5.321c0-1.42-0.46-2.24-1.44-2.24
							c-0.72,0-1.2,0.48-1.42,1.061c-0.06,0.22-0.1,0.52-0.1,0.779v5.722h-2.961v-5.501c0-1.221-0.44-2.061-1.42-2.061
							c-0.78,0-1.241,0.6-1.421,1.08c-0.1,0.24-0.12,0.521-0.12,0.78v5.701h-2.96V23.896z"/>
						<path fill="#FFFFFF" d="M590.708,26.636c0.08,1.261,1.341,1.86,2.761,1.86c1.04,0,1.881-0.14,2.7-0.42l0.4,2.061
							c-1,0.42-2.221,0.62-3.541,0.62c-3.32,0-5.221-1.921-5.221-4.981c0-2.48,1.54-5.221,4.941-5.221c3.16,0,4.36,2.46,4.36,4.881
							c0,0.521-0.06,0.98-0.1,1.2H590.708z M594.289,24.556c0-0.74-0.32-1.98-1.721-1.98c-1.28,0-1.8,1.18-1.88,1.98H594.289z"/>
						<path fill="#FFFFFF" d="M598.928,23.896c0-1.221-0.04-2.241-0.08-3.121h2.641l0.14,1.36h0.06c0.4-0.64,1.381-1.58,3.021-1.58
							c2,0,3.5,1.34,3.5,4.221v5.781h-3.04v-5.421c0-1.261-0.44-2.121-1.541-2.121c-0.84,0-1.34,0.58-1.56,1.141
							c-0.08,0.2-0.101,0.48-0.101,0.76v5.642h-3.04V23.896z"/>
						<path fill="#FFFFFF" d="M613.928,18.134v2.641h2.181v2.24h-2.181v3.541c0,1.181,0.3,1.721,1.2,1.721
							c0.42,0,0.62-0.021,0.9-0.08l0.02,2.301c-0.38,0.14-1.12,0.26-1.96,0.26c-0.98,0-1.801-0.34-2.301-0.84
							c-0.56-0.581-0.84-1.521-0.84-2.901v-4.001h-1.301v-2.24h1.301v-1.82L613.928,18.134z"/>
						<path fill="#FFFFFF" d="M626.009,28.196c0,0.92,0.04,1.82,0.16,2.36h-2.741l-0.18-0.98h-0.061c-0.64,0.78-1.64,1.2-2.8,1.2
							c-1.98,0-3.161-1.44-3.161-3c0-2.541,2.28-3.741,5.741-3.741v-0.12c0-0.54-0.28-1.28-1.78-1.28c-1,0-2.061,0.34-2.7,0.74
							l-0.561-1.96c0.68-0.381,2.021-0.881,3.801-0.881c3.261,0,4.281,1.921,4.281,4.241V28.196z M623.067,25.936
							c-1.6,0-2.84,0.38-2.84,1.54c0,0.78,0.52,1.16,1.2,1.16c0.74,0,1.38-0.5,1.58-1.12c0.04-0.159,0.06-0.34,0.06-0.52V25.936z"/>
						<path fill="#FFFFFF" d="M635.768,30.297c-0.54,0.26-1.56,0.46-2.721,0.46c-3.16,0-5.181-1.94-5.181-5.001
							c0-2.861,1.96-5.201,5.602-5.201c0.8,0,1.68,0.14,2.32,0.38l-0.48,2.261c-0.36-0.16-0.9-0.301-1.7-0.301
							c-1.601,0-2.641,1.141-2.62,2.741c0,1.78,1.2,2.74,2.68,2.74c0.721,0,1.28-0.12,1.741-0.32L635.768,30.297z"/>
						<path fill="#FFFFFF" d="M640.587,18.054c0,0.841-0.62,1.521-1.641,1.521c-0.96,0-1.58-0.68-1.58-1.521
							c0-0.86,0.64-1.521,1.62-1.521S640.566,17.193,640.587,18.054z M637.446,30.557v-9.782h3.04v9.782H637.446z"/>
						<path fill="#FFFFFF" d="M652.587,25.556c0,3.581-2.54,5.221-5.16,5.221c-2.861,0-5.062-1.88-5.062-5.041
							c0-3.181,2.08-5.201,5.241-5.201C650.587,20.534,652.587,22.595,652.587,25.556z M645.506,25.655c0,1.681,0.7,2.941,2,2.941
							c1.201,0,1.94-1.181,1.94-2.961c0-1.44-0.56-2.921-1.94-2.921C646.066,22.715,645.506,24.215,645.506,25.655z M650.647,16.514
							l-2.441,3.041h-2.08l1.721-3.041H650.647z"/>
						<path fill="#FFFFFF" d="M654.466,23.896c0-1.221-0.04-2.241-0.08-3.121h2.641l0.14,1.36h0.06c0.4-0.64,1.381-1.58,3.021-1.58
							c2,0,3.5,1.34,3.5,4.221v5.781h-3.04v-5.421c0-1.261-0.44-2.121-1.541-2.121c-0.84,0-1.34,0.58-1.56,1.141
							c-0.08,0.2-0.101,0.48-0.101,0.76v5.642h-3.04V23.896z"/>
						<path fill="#FFFFFF" d="M665.985,22.495c0-1.08,0.74-1.841,1.78-1.841c1.06,0,1.76,0.74,1.78,1.841
							c0,1.04-0.7,1.82-1.801,1.82C666.705,24.315,665.985,23.535,665.985,22.495z M665.985,28.956c0-1.08,0.74-1.84,1.78-1.84
							c1.06,0,1.76,0.74,1.78,1.84c0,1.04-0.7,1.82-1.801,1.82C666.705,30.776,665.985,29.996,665.985,28.956z"/>
						<path fill="#FFFFFF" d="M505.442,46.235h-5.221v4.861h5.841v1.46h-7.602V39.074h7.302v1.46h-5.541v4.261h5.221V46.235z"/>
						<path fill="#FFFFFF" d="M508.021,50.776c0.54,0.32,1.46,0.68,2.34,0.68c1.261,0,1.86-0.62,1.86-1.44
							c0-0.84-0.5-1.28-1.78-1.76c-1.76-0.641-2.58-1.58-2.58-2.741c0-1.56,1.28-2.84,3.341-2.84c0.979,0,1.84,0.26,2.36,0.6
							l-0.42,1.28c-0.381-0.24-1.081-0.58-1.98-0.58c-1.041,0-1.601,0.601-1.601,1.32c0,0.801,0.56,1.16,1.82,1.66
							c1.66,0.62,2.54,1.461,2.54,2.901c0,1.72-1.34,2.92-3.601,2.92c-1.06,0-2.04-0.279-2.721-0.68L508.021,50.776z"/>
						<path fill="#FFFFFF" d="M518.302,40.554v2.321h2.521v1.34h-2.521v5.221c0,1.2,0.34,1.881,1.32,1.881
							c0.479,0,0.76-0.04,1.02-0.12l0.08,1.341c-0.34,0.119-0.88,0.239-1.56,0.239c-0.82,0-1.48-0.279-1.9-0.74
							c-0.48-0.54-0.681-1.4-0.681-2.54v-5.281h-1.5v-1.34h1.5v-1.801L518.302,40.554z"/>
						<path fill="#FFFFFF" d="M529.603,50.236c0,0.84,0.04,1.66,0.14,2.32h-1.58l-0.14-1.221h-0.061
							c-0.54,0.761-1.58,1.44-2.96,1.44c-1.961,0-2.961-1.38-2.961-2.78c0-2.341,2.08-3.621,5.821-3.601v-0.2
							c0-0.78-0.22-2.24-2.2-2.221c-0.921,0-1.86,0.261-2.541,0.721l-0.4-1.181c0.801-0.5,1.98-0.84,3.201-0.84
							c2.961,0,3.681,2.021,3.681,3.94V50.236z M527.902,47.615c-1.921-0.04-4.101,0.301-4.101,2.181c0,1.16,0.76,1.681,1.64,1.681
							c1.28,0,2.101-0.801,2.381-1.62c0.06-0.2,0.08-0.4,0.08-0.561V47.615z"/>
						<path fill="#FFFFFF" d="M536.681,45.495c0-1.021-0.02-1.82-0.08-2.62h1.561l0.101,1.6h0.04c0.479-0.899,1.6-1.8,3.2-1.8
							c1.341,0,3.421,0.8,3.421,4.121v5.761h-1.761v-5.581c0-1.561-0.58-2.86-2.24-2.86c-1.141,0-2.04,0.819-2.36,1.8
							c-0.08,0.221-0.12,0.521-0.12,0.82v5.821h-1.761V45.495z"/>
						<path fill="#FFFFFF" d="M556.543,47.636c0,3.581-2.501,5.141-4.821,5.141c-2.601,0-4.642-1.92-4.642-4.98
							c0-3.221,2.141-5.121,4.802-5.121C554.662,42.675,556.543,44.695,556.543,47.636z M548.881,47.735
							c0,2.121,1.2,3.721,2.921,3.721c1.68,0,2.94-1.58,2.94-3.761c0-1.64-0.82-3.7-2.9-3.7
							C549.781,43.995,548.881,45.915,548.881,47.735z"/>
						<path fill="#FFFFFF" d="M563.98,48.036c0.04,2.38,1.54,3.36,3.321,3.36c1.26,0,2.04-0.22,2.68-0.5l0.32,1.26
							c-0.62,0.28-1.7,0.62-3.24,0.62c-2.98,0-4.762-1.98-4.762-4.9c0-2.921,1.721-5.201,4.541-5.201
							c3.181,0,4.001,2.761,4.001,4.541c0,0.359-0.02,0.62-0.06,0.82H563.98z M569.142,46.775c0.021-1.101-0.46-2.841-2.44-2.841
							c-1.801,0-2.561,1.62-2.7,2.841H569.142z"/>
						<path fill="#FFFFFF" d="M572.78,50.776c0.54,0.32,1.46,0.68,2.34,0.68c1.261,0,1.86-0.62,1.86-1.44c0-0.84-0.5-1.28-1.78-1.76
							c-1.76-0.641-2.58-1.58-2.58-2.741c0-1.56,1.28-2.84,3.341-2.84c0.979,0,1.84,0.26,2.36,0.6l-0.42,1.28
							c-0.381-0.24-1.081-0.58-1.98-0.58c-1.041,0-1.601,0.601-1.601,1.32c0,0.801,0.56,1.16,1.82,1.66
							c1.66,0.62,2.54,1.461,2.54,2.901c0,1.72-1.34,2.92-3.601,2.92c-1.06,0-2.04-0.279-2.721-0.68L572.78,50.776z"/>
						<path fill="#FFFFFF" d="M593.282,49.896c0,1.02,0.02,1.9,0.079,2.66h-1.56l-0.101-1.58h-0.04c-0.439,0.78-1.48,1.8-3.2,1.8
							c-1.521,0-3.341-0.859-3.341-4.24v-5.661h1.761v5.341c0,1.84,0.58,3.101,2.16,3.101c1.18,0,2-0.82,2.32-1.62
							c0.1-0.24,0.16-0.561,0.16-0.9v-5.921h1.761V49.896z"/>
						<path fill="#FFFFFF" d="M596.199,45.495c0-1.021-0.02-1.82-0.08-2.62h1.561l0.101,1.6h0.04c0.479-0.899,1.6-1.8,3.2-1.8
							c1.341,0,3.421,0.8,3.421,4.121v5.761h-1.761v-5.581c0-1.561-0.58-2.86-2.24-2.86c-1.141,0-2.04,0.819-2.36,1.8
							c-0.08,0.221-0.12,0.521-0.12,0.82v5.821h-1.761V45.495z"/>
						<path fill="#FFFFFF" d="M614.101,50.236c0,0.84,0.04,1.66,0.14,2.32h-1.58l-0.14-1.221h-0.061
							c-0.54,0.761-1.58,1.44-2.96,1.44c-1.961,0-2.961-1.38-2.961-2.78c0-2.341,2.08-3.621,5.821-3.601v-0.2
							c0-0.78-0.22-2.24-2.2-2.221c-0.921,0-1.86,0.261-2.541,0.721l-0.4-1.181c0.801-0.5,1.98-0.84,3.201-0.84
							c2.961,0,3.681,2.021,3.681,3.94V50.236z M612.4,47.615c-1.921-0.04-4.101,0.301-4.101,2.181c0,1.16,0.76,1.681,1.64,1.681
							c1.28,0,2.101-0.801,2.381-1.62c0.06-0.2,0.08-0.4,0.08-0.561V47.615z"/>
						<path fill="#FFFFFF" d="M621.179,38.354h1.74v6.081h0.04c0.62-1.08,1.741-1.76,3.301-1.76c2.421,0,4.102,2,4.102,4.921
							c0,3.461-2.201,5.181-4.361,5.181c-1.4,0-2.521-0.54-3.261-1.8h-0.04l-0.1,1.58h-1.501c0.04-0.66,0.08-1.641,0.08-2.501
							V38.354z M622.919,48.676c0,0.22,0.021,0.44,0.08,0.641c0.32,1.22,1.36,2.06,2.641,2.06c1.86,0,2.941-1.5,2.941-3.721
							c0-1.94-1.001-3.601-2.901-3.601c-1.18,0-2.3,0.84-2.66,2.16c-0.061,0.221-0.101,0.461-0.101,0.74V48.676z"/>
						<path fill="#FFFFFF" d="M640.661,49.896c0,1.02,0.02,1.9,0.079,2.66h-1.56l-0.101-1.58h-0.04c-0.439,0.78-1.48,1.8-3.2,1.8
							c-1.521,0-3.341-0.859-3.341-4.24v-5.661h1.761v5.341c0,1.84,0.58,3.101,2.16,3.101c1.18,0,2-0.82,2.32-1.62
							c0.1-0.24,0.16-0.561,0.16-0.9v-5.921h1.761V49.896z"/>
						<path fill="#FFFFFF" d="M644.559,48.036c0.04,2.38,1.54,3.36,3.321,3.36c1.26,0,2.04-0.22,2.68-0.5l0.32,1.26
							c-0.62,0.28-1.7,0.62-3.24,0.62c-2.98,0-4.762-1.98-4.762-4.9c0-2.921,1.721-5.201,4.541-5.201
							c3.181,0,4.001,2.761,4.001,4.541c0,0.359-0.02,0.62-0.06,0.82H644.559z M649.72,46.775c0.021-1.101-0.46-2.841-2.44-2.841
							c-1.801,0-2.561,1.62-2.7,2.841H649.72z"/>
						<path fill="#FFFFFF" d="M653.598,45.495c0-1.021-0.02-1.82-0.08-2.62h1.561l0.101,1.6h0.04c0.479-0.899,1.6-1.8,3.2-1.8
							c1.341,0,3.421,0.8,3.421,4.121v5.761h-1.761v-5.581c0-1.561-0.58-2.86-2.24-2.86c-1.141,0-2.04,0.819-2.36,1.8
							c-0.08,0.221-0.12,0.521-0.12,0.82v5.821h-1.761V45.495z"/>
						<path fill="#FFFFFF" d="M671.499,50.236c0,0.84,0.04,1.66,0.14,2.32h-1.58l-0.14-1.221h-0.061
							c-0.54,0.761-1.58,1.44-2.96,1.44c-1.961,0-2.961-1.38-2.961-2.78c0-2.341,2.08-3.621,5.821-3.601v-0.2
							c0-0.78-0.22-2.24-2.2-2.221c-0.921,0-1.86,0.261-2.541,0.721l-0.4-1.181c0.801-0.5,1.98-0.84,3.201-0.84
							c2.961,0,3.681,2.021,3.681,3.94V50.236z M669.799,47.615c-1.921-0.04-4.101,0.301-4.101,2.181c0,1.16,0.76,1.681,1.64,1.681
							c1.28,0,2.101-0.801,2.381-1.62c0.06-0.2,0.08-0.4,0.08-0.561V47.615z"/>
						<path fill="#FFFFFF" d="M487.961,68.035c0-1.24-0.04-2.24-0.08-3.16h1.561l0.101,1.66h0.04c0.7-1.181,1.86-1.86,3.44-1.86
							c2.36,0,4.121,1.98,4.121,4.9c0,3.481-2.141,5.201-4.421,5.201c-1.28,0-2.4-0.56-2.981-1.52h-0.039v5.261h-1.741V68.035z
							 M489.702,70.616c0,0.26,0.02,0.5,0.079,0.72c0.32,1.221,1.381,2.061,2.641,2.061c1.86,0,2.941-1.521,2.941-3.741
							c0-1.92-1.021-3.58-2.881-3.58c-1.2,0-2.341,0.84-2.661,2.16c-0.06,0.22-0.119,0.48-0.119,0.7V70.616z"/>
						<path fill="#FFFFFF" d="M508.104,69.636c0,3.581-2.501,5.141-4.821,5.141c-2.601,0-4.642-1.92-4.642-4.98
							c0-3.221,2.141-5.121,4.802-5.121C506.223,64.675,508.104,66.695,508.104,69.636z M500.441,69.735
							c0,2.121,1.2,3.721,2.921,3.721c1.68,0,2.94-1.58,2.94-3.761c0-1.64-0.82-3.7-2.9-3.7
							C501.342,65.995,500.441,67.915,500.441,69.735z"/>
						<path fill="#FFFFFF" d="M510.081,72.776c0.54,0.32,1.46,0.68,2.34,0.68c1.261,0,1.86-0.62,1.86-1.44
							c0-0.84-0.5-1.28-1.78-1.76c-1.76-0.641-2.58-1.58-2.58-2.741c0-1.56,1.28-2.84,3.341-2.84c0.979,0,1.84,0.26,2.36,0.6
							l-0.42,1.28c-0.381-0.24-1.081-0.58-1.98-0.58c-1.041,0-1.601,0.601-1.601,1.32c0,0.801,0.56,1.16,1.82,1.66
							c1.66,0.62,2.54,1.461,2.54,2.901c0,1.72-1.34,2.92-3.601,2.92c-1.06,0-2.04-0.279-2.721-0.68L510.081,72.776z"/>
						<path fill="#FFFFFF" d="M520.361,62.554v2.321h2.521v1.34h-2.521v5.221c0,1.2,0.34,1.881,1.32,1.881
							c0.479,0,0.76-0.04,1.02-0.12l0.08,1.341c-0.34,0.119-0.88,0.239-1.56,0.239c-0.82,0-1.48-0.279-1.9-0.74
							c-0.48-0.54-0.681-1.4-0.681-2.54v-5.281h-1.5v-1.34h1.5v-1.801L520.361,62.554z"/>
						<path fill="#FFFFFF" d="M532.963,71.896c0,1.02,0.02,1.9,0.079,2.66h-1.56l-0.101-1.58h-0.04c-0.439,0.78-1.48,1.8-3.2,1.8
							c-1.521,0-3.341-0.859-3.341-4.24v-5.661h1.761v5.341c0,1.84,0.58,3.101,2.16,3.101c1.18,0,2-0.82,2.32-1.62
							c0.1-0.24,0.16-0.561,0.16-0.9v-5.921h1.761V71.896z"/>
						<path fill="#FFFFFF" d="M535.88,67.896c0-1.141-0.02-2.121-0.08-3.021h1.541l0.08,1.92h0.06c0.44-1.3,1.521-2.12,2.7-2.12
							c0.181,0,0.32,0.02,0.48,0.04v1.66c-0.18-0.04-0.36-0.04-0.6-0.04c-1.24,0-2.121,0.92-2.361,2.24
							c-0.04,0.24-0.06,0.54-0.06,0.82v5.161h-1.761V67.896z"/>
						<path fill="#FFFFFF" d="M549.122,72.236c0,0.84,0.04,1.66,0.14,2.32h-1.58l-0.14-1.221h-0.061
							c-0.54,0.761-1.58,1.44-2.96,1.44c-1.961,0-2.961-1.38-2.961-2.78c0-2.341,2.08-3.621,5.821-3.601v-0.2
							c0-0.78-0.22-2.24-2.2-2.221c-0.921,0-1.86,0.261-2.541,0.721l-0.4-1.181c0.801-0.5,1.98-0.84,3.201-0.84
							c2.961,0,3.681,2.021,3.681,3.94V72.236z M547.422,69.615c-1.921-0.04-4.101,0.301-4.101,2.181c0,1.16,0.76,1.681,1.64,1.681
							c1.28,0,2.101-0.801,2.381-1.62c0.06-0.2,0.08-0.4,0.08-0.561V69.615z"/>
						<path fill="#FFFFFF" d="M556.381,74.557v-8.342h-1.341v-1.34h1.341v-0.461c0-1.36,0.319-2.601,1.12-3.38
							c0.66-0.641,1.54-0.9,2.36-0.9c0.64,0,1.16,0.14,1.5,0.28l-0.239,1.359c-0.261-0.119-0.601-0.22-1.121-0.22
							c-1.5,0-1.88,1.301-1.88,2.801v0.521h2.341v1.34h-2.341v8.342H556.381z"/>
						<path fill="#FFFFFF" d="M565.621,60.693l-2.44,2.861h-1.24l1.761-2.861H565.621z M562.04,74.557v-9.682h1.761v9.682H562.04z"
							/>
						<path fill="#FFFFFF" d="M566.48,72.776c0.54,0.32,1.46,0.68,2.34,0.68c1.261,0,1.86-0.62,1.86-1.44c0-0.84-0.5-1.28-1.78-1.76
							c-1.76-0.641-2.58-1.58-2.58-2.741c0-1.56,1.28-2.84,3.341-2.84c0.979,0,1.84,0.26,2.36,0.6l-0.42,1.28
							c-0.381-0.24-1.081-0.58-1.98-0.58c-1.041,0-1.601,0.601-1.601,1.32c0,0.801,0.56,1.16,1.82,1.66
							c1.66,0.62,2.54,1.461,2.54,2.901c0,1.72-1.34,2.92-3.601,2.92c-1.06,0-2.04-0.279-2.721-0.68L566.48,72.776z"/>
						<path fill="#FFFFFF" d="M576.601,62.154c0,0.6-0.42,1.08-1.12,1.08c-0.641,0-1.061-0.48-1.061-1.08
							c0-0.601,0.44-1.101,1.101-1.101C576.16,61.054,576.601,61.534,576.601,62.154z M574.64,74.557v-9.682h1.761v9.682H574.64z"/>
						<path fill="#FFFFFF" d="M586.221,74.217c-0.46,0.22-1.479,0.56-2.78,0.56c-2.921,0-4.821-1.98-4.821-4.94
							c0-2.98,2.041-5.161,5.201-5.161c1.041,0,1.961,0.26,2.44,0.52l-0.399,1.341c-0.42-0.221-1.08-0.46-2.041-0.46
							c-2.22,0-3.42,1.66-3.42,3.66c0,2.241,1.439,3.621,3.36,3.621c1,0,1.66-0.24,2.16-0.46L586.221,74.217z"/>
						<path fill="#FFFFFF" d="M595.081,72.236c0,0.84,0.04,1.66,0.14,2.32h-1.58l-0.14-1.221h-0.061
							c-0.54,0.761-1.58,1.44-2.96,1.44c-1.961,0-2.961-1.38-2.961-2.78c0-2.341,2.08-3.621,5.821-3.601v-0.2
							c0-0.78-0.22-2.24-2.2-2.221c-0.921,0-1.86,0.261-2.541,0.721l-0.4-1.181c0.801-0.5,1.98-0.84,3.201-0.84
							c2.961,0,3.681,2.021,3.681,3.94V72.236z M593.381,69.615c-1.921-0.04-4.101,0.301-4.101,2.181c0,1.16,0.76,1.681,1.64,1.681
							c1.28,0,2.101-0.801,2.381-1.62c0.06-0.2,0.08-0.4,0.08-0.561V69.615z"/>
						<path fill="#FFFFFF" d="M597.499,73.517c0-0.721,0.5-1.261,1.2-1.261s1.181,0.521,1.181,1.261c0,0.72-0.48,1.26-1.221,1.26
							C597.979,74.776,597.499,74.236,597.499,73.517z"/>
						<path fill="#FFFFFF" d="M606.359,61.254c0.88-0.16,2.16-0.28,3.341-0.28c1.86,0,3.08,0.36,3.9,1.101
							c0.66,0.6,1.061,1.521,1.061,2.58c0,1.761-1.12,2.94-2.521,3.421v0.061c1.021,0.359,1.641,1.319,1.96,2.72
							c0.44,1.881,0.761,3.181,1.04,3.701h-1.8c-0.22-0.4-0.521-1.54-0.88-3.221c-0.4-1.86-1.141-2.561-2.721-2.62H608.1v5.841
							h-1.74V61.254z M608.1,67.396h1.78c1.86,0,3.041-1.021,3.041-2.561c0-1.741-1.261-2.501-3.101-2.501
							c-0.841,0-1.421,0.06-1.721,0.14V67.396z"/>
						<path fill="#FFFFFF" d="M618.119,70.036c0.04,2.38,1.54,3.36,3.321,3.36c1.26,0,2.04-0.22,2.68-0.5l0.32,1.26
							c-0.62,0.28-1.7,0.62-3.24,0.62c-2.98,0-4.762-1.98-4.762-4.9c0-2.921,1.721-5.201,4.541-5.201
							c3.181,0,4.001,2.761,4.001,4.541c0,0.359-0.02,0.62-0.06,0.82H618.119z M623.28,68.775c0.021-1.101-0.46-2.841-2.44-2.841
							c-1.801,0-2.561,1.62-2.7,2.841H623.28z"/>
						<path fill="#FFFFFF" d="M634.06,74.217c-0.46,0.22-1.479,0.56-2.78,0.56c-2.921,0-4.821-1.98-4.821-4.94
							c0-2.98,2.041-5.161,5.201-5.161c1.041,0,1.961,0.26,2.44,0.52l-0.399,1.341c-0.42-0.221-1.08-0.46-2.041-0.46
							c-2.22,0-3.42,1.66-3.42,3.66c0,2.241,1.439,3.621,3.36,3.621c1,0,1.66-0.24,2.16-0.46L634.06,74.217z"/>
						<path fill="#FFFFFF" d="M644.221,71.896c0,1.02,0.02,1.9,0.079,2.66h-1.56l-0.101-1.58h-0.04c-0.439,0.78-1.48,1.8-3.2,1.8
							c-1.521,0-3.341-0.859-3.341-4.24v-5.661h1.761v5.341c0,1.84,0.58,3.101,2.16,3.101c1.18,0,2-0.82,2.32-1.62
							c0.1-0.24,0.16-0.561,0.16-0.9v-5.921h1.761V71.896z"/>
						<path fill="#FFFFFF" d="M648.118,70.036c0.04,2.38,1.54,3.36,3.32,3.36c1.261,0,2.041-0.22,2.681-0.5l0.32,1.26
							c-0.62,0.28-1.7,0.62-3.24,0.62c-2.98,0-4.762-1.98-4.762-4.9c0-2.921,1.721-5.201,4.541-5.201
							c3.181,0,4.001,2.761,4.001,4.541c0,0.359-0.02,0.62-0.06,0.82H648.118z M653.279,68.775c0.021-1.101-0.46-2.841-2.44-2.841
							c-1.801,0-2.561,1.62-2.7,2.841H653.279z"/>
						<path fill="#FFFFFF" d="M657.157,67.896c0-1.141-0.02-2.121-0.08-3.021h1.541l0.08,1.92h0.06c0.44-1.3,1.521-2.12,2.7-2.12
							c0.181,0,0.32,0.02,0.48,0.04v1.66c-0.18-0.04-0.36-0.04-0.6-0.04c-1.24,0-2.121,0.92-2.361,2.24
							c-0.04,0.24-0.06,0.54-0.06,0.82v5.161h-1.761V67.896z"/>
						<path fill="#FFFFFF" d="M671.839,60.354v11.702c0,0.86,0.04,1.841,0.08,2.501h-1.561l-0.079-1.681h-0.061
							c-0.52,1.08-1.681,1.9-3.261,1.9c-2.341,0-4.161-1.98-4.161-4.921c-0.02-3.221,2.001-5.181,4.342-5.181
							c1.5,0,2.48,0.7,2.92,1.46h0.04v-5.781H671.839z M670.099,68.815c0-0.22-0.02-0.521-0.08-0.74
							c-0.26-1.101-1.22-2.021-2.54-2.021c-1.82,0-2.9,1.601-2.9,3.721c0,1.961,0.979,3.581,2.86,3.581c1.18,0,2.261-0.8,2.58-2.101
							c0.061-0.24,0.08-0.48,0.08-0.76V68.815z"/>
						<path fill="#FFFFFF" d="M675.758,70.036c0.04,2.38,1.54,3.36,3.321,3.36c1.26,0,2.04-0.22,2.68-0.5l0.32,1.26
							c-0.62,0.28-1.7,0.62-3.24,0.62c-2.98,0-4.762-1.98-4.762-4.9c0-2.921,1.721-5.201,4.541-5.201
							c3.181,0,4.001,2.761,4.001,4.541c0,0.359-0.02,0.62-0.06,0.82H675.758z M680.919,68.775c0.021-1.101-0.46-2.841-2.44-2.841
							c-1.801,0-2.561,1.62-2.7,2.841H680.919z"/>
						<path fill="#FFFFFF" d="M486.952,92.036c0.04,2.38,1.54,3.36,3.32,3.36c1.261,0,2.041-0.22,2.681-0.5l0.32,1.26
							c-0.62,0.28-1.7,0.62-3.24,0.62c-2.98,0-4.762-1.98-4.762-4.9c0-2.921,1.721-5.201,4.541-5.201
							c3.181,0,4.001,2.761,4.001,4.541c0,0.359-0.02,0.62-0.06,0.82H486.952z M492.113,90.775c0.021-1.101-0.46-2.841-2.44-2.841
							c-1.801,0-2.561,1.62-2.7,2.841H492.113z"/>
						<path fill="#FFFFFF" d="M495.991,82.354h1.761v14.203h-1.761V82.354z"/>
						<path fill="#FFFFFF" d="M511.753,94.236c0,0.84,0.04,1.66,0.14,2.32h-1.58l-0.14-1.221h-0.061
							c-0.54,0.761-1.58,1.44-2.96,1.44c-1.961,0-2.961-1.38-2.961-2.78c0-2.341,2.08-3.621,5.821-3.601v-0.2
							c0-0.78-0.22-2.24-2.2-2.221c-0.921,0-1.86,0.261-2.541,0.721l-0.4-1.181c0.801-0.5,1.98-0.84,3.201-0.84
							c2.961,0,3.681,2.021,3.681,3.94V94.236z M510.053,91.615c-1.921-0.04-4.101,0.301-4.101,2.181c0,1.16,0.76,1.681,1.64,1.681
							c1.28,0,2.101-0.801,2.381-1.62c0.06-0.2,0.08-0.4,0.08-0.561V91.615z M510.933,82.693l-2.44,2.861h-1.24l1.74-2.861H510.933z
							"/>
						<path fill="#FFFFFF" d="M514.591,89.495c0-1.021-0.02-1.82-0.08-2.62h1.561l0.101,1.6h0.04c0.479-0.899,1.6-1.8,3.2-1.8
							c1.341,0,3.421,0.8,3.421,4.121v5.761h-1.761v-5.581c0-1.561-0.58-2.86-2.24-2.86c-1.141,0-2.04,0.819-2.36,1.8
							c-0.08,0.221-0.12,0.521-0.12,0.82v5.821h-1.761V89.495z"/>
						<path fill="#FFFFFF" d="M533.973,95.137c0,2.24-0.46,3.58-1.381,4.44c-0.96,0.86-2.32,1.16-3.54,1.16
							c-1.16,0-2.44-0.28-3.221-0.8l0.439-1.36c0.641,0.42,1.641,0.78,2.841,0.78c1.801,0,3.121-0.94,3.121-3.401v-1.06h-0.04
							c-0.521,0.9-1.58,1.62-3.081,1.62c-2.4,0-4.121-2.04-4.121-4.721c0-3.281,2.141-5.121,4.381-5.121
							c1.681,0,2.581,0.86,3.021,1.66h0.04l0.06-1.46h1.561c-0.061,0.68-0.08,1.479-0.08,2.64V95.137z M532.212,90.695
							c0-0.3-0.02-0.56-0.1-0.78c-0.32-1.04-1.16-1.88-2.461-1.88c-1.68,0-2.88,1.42-2.88,3.66c0,1.9,0.979,3.481,2.86,3.481
							c1.1,0,2.08-0.681,2.44-1.801c0.1-0.3,0.14-0.641,0.14-0.94V90.695z"/>
						<path fill="#FFFFFF" d="M544.973,93.896c0,1.02,0.02,1.9,0.079,2.66h-1.56l-0.101-1.58h-0.04c-0.439,0.78-1.48,1.8-3.2,1.8
							c-1.521,0-3.341-0.859-3.341-4.24v-5.661h1.761v5.341c0,1.84,0.58,3.101,2.16,3.101c1.18,0,2-0.82,2.32-1.62
							c0.1-0.24,0.16-0.561,0.16-0.9v-5.921h1.761V93.896z"/>
						<path fill="#FFFFFF" d="M547.89,82.354h1.761v14.203h-1.761V82.354z"/>
						<path fill="#FFFFFF" d="M561.372,91.636c0,3.581-2.501,5.141-4.821,5.141c-2.601,0-4.642-1.92-4.642-4.98
							c0-3.221,2.141-5.121,4.802-5.121C559.491,86.675,561.372,88.695,561.372,91.636z M553.71,91.735
							c0,2.121,1.2,3.721,2.921,3.721c1.68,0,2.94-1.58,2.94-3.761c0-1.64-0.82-3.7-2.9-3.7
							C554.61,87.995,553.71,89.915,553.71,91.735z"/>
						<path fill="#FFFFFF" d="M567.97,90.516v1.28h-4.94v-1.28H567.97z"/>
						<path fill="#FFFFFF" d="M570.209,96.557v-8.342h-1.341v-1.34h1.341v-0.461c0-1.36,0.319-2.601,1.12-3.38
							c0.66-0.641,1.54-0.9,2.36-0.9c0.64,0,1.16,0.14,1.5,0.28l-0.239,1.359c-0.261-0.119-0.601-0.22-1.121-0.22
							c-1.5,0-1.88,1.301-1.88,2.801v0.521h2.341v1.34h-2.341v8.342H570.209z"/>
						<path fill="#FFFFFF" d="M575.868,89.896c0-1.141-0.02-2.121-0.08-3.021h1.541l0.08,1.92h0.06c0.44-1.3,1.521-2.12,2.7-2.12
							c0.181,0,0.32,0.02,0.48,0.04v1.66c-0.18-0.04-0.36-0.04-0.6-0.04c-1.24,0-2.121,0.92-2.361,2.24
							c-0.04,0.24-0.06,0.54-0.06,0.82v5.161h-1.761V89.896z"/>
						<path fill="#FFFFFF" d="M583.189,92.036c0.04,2.38,1.54,3.36,3.321,3.36c1.26,0,2.04-0.22,2.68-0.5l0.32,1.26
							c-0.62,0.28-1.7,0.62-3.24,0.62c-2.98,0-4.762-1.98-4.762-4.9c0-2.921,1.721-5.201,4.541-5.201
							c3.181,0,4.001,2.761,4.001,4.541c0,0.359-0.02,0.62-0.06,0.82H583.189z M588.351,90.775c0.021-1.101-0.46-2.841-2.44-2.841
							c-1.801,0-2.561,1.62-2.7,2.841H588.351z"/>
						<path fill="#FFFFFF" d="M592.229,89.495c0-1.021-0.02-1.82-0.08-2.62h1.561l0.101,1.6h0.04c0.479-0.899,1.6-1.8,3.2-1.8
							c1.341,0,3.421,0.8,3.421,4.121v5.761h-1.761v-5.581c0-1.561-0.58-2.86-2.24-2.86c-1.141,0-2.04,0.819-2.36,1.8
							c-0.08,0.221-0.12,0.521-0.12,0.82v5.821h-1.761V89.495z"/>
						<path fill="#FFFFFF" d="M605.369,84.554v2.321h2.521v1.34h-2.521v5.221c0,1.2,0.34,1.881,1.32,1.881
							c0.479,0,0.76-0.04,1.02-0.12l0.08,1.341c-0.34,0.119-0.88,0.239-1.56,0.239c-0.82,0-1.48-0.279-1.9-0.74
							c-0.48-0.54-0.681-1.4-0.681-2.54v-5.281h-1.5v-1.34h1.5v-1.801L605.369,84.554z"/>
						<path fill="#FFFFFF" d="M610.729,92.036c0.04,2.38,1.54,3.36,3.321,3.36c1.26,0,2.04-0.22,2.68-0.5l0.32,1.26
							c-0.62,0.28-1.7,0.62-3.24,0.62c-2.98,0-4.762-1.98-4.762-4.9c0-2.921,1.721-5.201,4.541-5.201
							c3.181,0,4.001,2.761,4.001,4.541c0,0.359-0.02,0.62-0.06,0.82H610.729z M615.89,90.775c0.021-1.101-0.46-2.841-2.44-2.841
							c-1.801,0-2.561,1.62-2.7,2.841H615.89z"/>
						<path fill="#FFFFFF" d="M619.368,88.475c0-0.74,0.5-1.26,1.18-1.26c0.721,0,1.181,0.52,1.181,1.26c0,0.7-0.46,1.24-1.2,1.24
							C619.848,89.715,619.368,89.175,619.368,88.475z M619.368,95.536c0-0.74,0.5-1.26,1.18-1.26c0.721,0,1.181,0.52,1.181,1.26
							c0,0.7-0.46,1.24-1.2,1.24C619.848,96.776,619.368,96.236,619.368,95.536z"/>
						<path fill="#FFFFFF" d="M634.949,94.236c0,0.84,0.04,1.66,0.14,2.32h-1.58l-0.14-1.221h-0.061
							c-0.54,0.761-1.58,1.44-2.96,1.44c-1.961,0-2.961-1.38-2.961-2.78c0-2.341,2.08-3.621,5.821-3.601v-0.2
							c0-0.78-0.22-2.24-2.2-2.221c-0.921,0-1.86,0.261-2.541,0.721l-0.4-1.181c0.801-0.5,1.98-0.84,3.201-0.84
							c2.961,0,3.681,2.021,3.681,3.94V94.236z M633.249,91.615c-1.921-0.04-4.101,0.301-4.101,2.181c0,1.16,0.76,1.681,1.64,1.681
							c1.28,0,2.101-0.801,2.381-1.62c0.06-0.2,0.08-0.4,0.08-0.561V91.615z M634.129,82.693l-2.44,2.861h-1.24l1.74-2.861H634.129z
							"/>
						<path fill="#FFFFFF" d="M637.787,89.495c0-1.021-0.02-1.82-0.08-2.62h1.561l0.101,1.6h0.04c0.479-0.899,1.6-1.8,3.2-1.8
							c1.341,0,3.421,0.8,3.421,4.121v5.761h-1.761v-5.581c0-1.561-0.58-2.86-2.24-2.86c-1.141,0-2.04,0.819-2.36,1.8
							c-0.08,0.221-0.12,0.521-0.12,0.82v5.821h-1.761V89.495z"/>
						<path fill="#FFFFFF" d="M657.169,95.137c0,2.24-0.46,3.58-1.381,4.44c-0.96,0.86-2.32,1.16-3.54,1.16
							c-1.16,0-2.44-0.28-3.221-0.8l0.439-1.36c0.641,0.42,1.641,0.78,2.841,0.78c1.801,0,3.121-0.94,3.121-3.401v-1.06h-0.04
							c-0.521,0.9-1.58,1.62-3.081,1.62c-2.4,0-4.121-2.04-4.121-4.721c0-3.281,2.141-5.121,4.381-5.121
							c1.681,0,2.581,0.86,3.021,1.66h0.04l0.06-1.46h1.561c-0.061,0.68-0.08,1.479-0.08,2.64V95.137z M655.408,90.695
							c0-0.3-0.02-0.56-0.1-0.78c-0.32-1.04-1.16-1.88-2.461-1.88c-1.68,0-2.88,1.42-2.88,3.66c0,1.9,0.979,3.481,2.86,3.481
							c1.1,0,2.08-0.681,2.44-1.801c0.1-0.3,0.14-0.641,0.14-0.94V90.695z"/>
						<path fill="#FFFFFF" d="M668.169,93.896c0,1.02,0.02,1.9,0.079,2.66h-1.56l-0.101-1.58h-0.04c-0.439,0.78-1.48,1.8-3.2,1.8
							c-1.521,0-3.341-0.859-3.341-4.24v-5.661h1.761v5.341c0,1.84,0.58,3.101,2.16,3.101c1.18,0,2-0.82,2.32-1.62
							c0.1-0.24,0.16-0.561,0.16-0.9v-5.921h1.761V93.896z"/>
						<path fill="#FFFFFF" d="M671.086,82.354h1.761v14.203h-1.761V82.354z"/>
						<path fill="#FFFFFF" d="M684.568,91.636c0,3.581-2.501,5.141-4.821,5.141c-2.601,0-4.642-1.92-4.642-4.98
							c0-3.221,2.141-5.121,4.802-5.121C682.688,86.675,684.568,88.695,684.568,91.636z M676.906,91.735
							c0,2.121,1.2,3.721,2.921,3.721c1.68,0,2.94-1.58,2.94-3.761c0-1.64-0.82-3.7-2.9-3.7
							C677.807,87.995,676.906,89.915,676.906,91.735z"/>
						<path fill="#FFFFFF" d="M538.952,104.354v11.702c0,0.86,0.04,1.841,0.08,2.501h-1.561l-0.079-1.681h-0.061
							c-0.52,1.08-1.681,1.9-3.261,1.9c-2.341,0-4.161-1.98-4.161-4.921c-0.02-3.221,2.001-5.181,4.342-5.181
							c1.5,0,2.48,0.7,2.92,1.46h0.04v-5.781H538.952z M537.212,112.815c0-0.22-0.02-0.521-0.08-0.74
							c-0.26-1.101-1.22-2.021-2.54-2.021c-1.82,0-2.9,1.601-2.9,3.721c0,1.961,0.979,3.581,2.86,3.581c1.18,0,2.261-0.8,2.58-2.101
							c0.061-0.24,0.08-0.48,0.08-0.76V112.815z"/>
						<path fill="#FFFFFF" d="M542.871,114.036c0.04,2.38,1.54,3.36,3.321,3.36c1.26,0,2.04-0.22,2.68-0.5l0.32,1.26
							c-0.62,0.28-1.7,0.62-3.24,0.62c-2.98,0-4.762-1.98-4.762-4.9c0-2.921,1.721-5.201,4.541-5.201
							c3.181,0,4.001,2.761,4.001,4.541c0,0.359-0.02,0.62-0.06,0.82H542.871z M548.032,112.775c0.021-1.101-0.46-2.841-2.44-2.841
							c-1.801,0-2.561,1.62-2.7,2.841H548.032z"/>
						<path fill="#FFFFFF" d="M556.61,117.316c0.381,0.04,0.82,0,1.421-0.06c1.021-0.141,1.98-0.541,2.721-1.261
							c0.86-0.78,1.48-1.921,1.72-3.44h-0.06c-0.72,0.88-1.761,1.38-3.081,1.38c-2.32,0-3.82-1.761-3.82-3.98
							c0-2.461,1.78-4.621,4.44-4.621c2.661,0,4.302,2.141,4.302,5.501c0,2.841-0.961,4.841-2.241,6.081
							c-1,0.98-2.38,1.581-3.78,1.74c-0.641,0.101-1.2,0.12-1.621,0.101V117.316z M557.251,109.854c0,1.621,0.98,2.761,2.501,2.761
							c1.18,0,2.1-0.58,2.561-1.36c0.1-0.18,0.159-0.36,0.159-0.66c0-2.221-0.819-3.921-2.68-3.921
							C558.312,106.674,557.251,107.994,557.251,109.854z"/>
						<path fill="#FFFFFF" d="M574.513,111.915c0,4.421-1.661,6.861-4.521,6.861c-2.54,0-4.281-2.38-4.321-6.681
							c0-4.382,1.9-6.762,4.541-6.762C572.932,105.334,574.513,107.774,574.513,111.915z M567.451,112.115
							c0,3.381,1.04,5.301,2.64,5.301c1.781,0,2.641-2.1,2.641-5.421c0-3.2-0.8-5.301-2.641-5.301
							C568.571,106.694,567.451,108.574,567.451,112.115z"/>
						<path fill="#FFFFFF" d="M589.192,117.137c0,2.24-0.46,3.58-1.381,4.44c-0.96,0.86-2.32,1.16-3.54,1.16
							c-1.16,0-2.44-0.28-3.221-0.8l0.439-1.36c0.641,0.42,1.641,0.78,2.841,0.78c1.801,0,3.121-0.94,3.121-3.401v-1.06h-0.04
							c-0.521,0.9-1.58,1.62-3.081,1.62c-2.4,0-4.121-2.04-4.121-4.721c0-3.281,2.141-5.121,4.381-5.121
							c1.681,0,2.581,0.86,3.021,1.66h0.04l0.06-1.46h1.561c-0.061,0.68-0.08,1.479-0.08,2.64V117.137z M587.432,112.695
							c0-0.3-0.02-0.56-0.1-0.78c-0.32-1.04-1.16-1.88-2.461-1.88c-1.68,0-2.88,1.42-2.88,3.66c0,1.9,0.979,3.481,2.86,3.481
							c1.1,0,2.08-0.681,2.44-1.801c0.1-0.3,0.14-0.641,0.14-0.94V112.695z"/>
						<path fill="#FFFFFF" d="M591.97,111.896c0-1.141-0.02-2.121-0.08-3.021h1.541l0.08,1.92h0.06c0.44-1.3,1.521-2.12,2.7-2.12
							c0.181,0,0.32,0.02,0.48,0.04v1.66c-0.18-0.04-0.36-0.04-0.6-0.04c-1.24,0-2.121,0.92-2.361,2.24
							c-0.04,0.24-0.06,0.54-0.06,0.82v5.161h-1.761V111.896z"/>
						<path fill="#FFFFFF" d="M605.212,116.236c0,0.84,0.04,1.66,0.14,2.32h-1.58l-0.14-1.221h-0.061
							c-0.54,0.761-1.58,1.44-2.96,1.44c-1.961,0-2.961-1.38-2.961-2.78c0-2.341,2.08-3.621,5.821-3.601v-0.2
							c0-0.78-0.22-2.24-2.2-2.221c-0.921,0-1.86,0.261-2.541,0.721l-0.4-1.181c0.801-0.5,1.98-0.84,3.201-0.84
							c2.961,0,3.681,2.021,3.681,3.94V116.236z M603.512,113.615c-1.921-0.04-4.101,0.301-4.101,2.181
							c0,1.16,0.76,1.681,1.64,1.681c1.28,0,2.101-0.801,2.381-1.62c0.06-0.2,0.08-0.4,0.08-0.561V113.615z"/>
						<path fill="#FFFFFF" d="M616.392,104.354v11.702c0,0.86,0.04,1.841,0.08,2.501h-1.561l-0.079-1.681h-0.061
							c-0.52,1.08-1.681,1.9-3.261,1.9c-2.341,0-4.161-1.98-4.161-4.921c-0.02-3.221,2.001-5.181,4.342-5.181
							c1.5,0,2.48,0.7,2.92,1.46h0.04v-5.781H616.392z M614.651,112.815c0-0.22-0.02-0.521-0.08-0.74
							c-0.26-1.101-1.22-2.021-2.54-2.021c-1.82,0-2.9,1.601-2.9,3.721c0,1.961,0.979,3.581,2.86,3.581c1.18,0,2.261-0.8,2.58-2.101
							c0.061-0.24,0.08-0.48,0.08-0.76V112.815z"/>
						<path fill="#FFFFFF" d="M628.093,113.636c0,3.581-2.501,5.141-4.821,5.141c-2.601,0-4.642-1.92-4.642-4.98
							c0-3.221,2.141-5.121,4.802-5.121C626.212,108.675,628.093,110.695,628.093,113.636z M620.431,113.735
							c0,2.121,1.2,3.721,2.921,3.721c1.68,0,2.94-1.58,2.94-3.761c0-1.64-0.82-3.7-2.9-3.7
							C621.331,109.995,620.431,111.915,620.431,113.735z"/>
						<path fill="#FFFFFF" d="M630.07,116.776c0.54,0.32,1.46,0.68,2.34,0.68c1.261,0,1.86-0.62,1.86-1.44
							c0-0.84-0.5-1.28-1.78-1.76c-1.76-0.641-2.58-1.58-2.58-2.741c0-1.56,1.28-2.84,3.341-2.84c0.979,0,1.84,0.26,2.36,0.6
							l-0.42,1.28c-0.381-0.24-1.081-0.58-1.98-0.58c-1.041,0-1.601,0.601-1.601,1.32c0,0.801,0.56,1.16,1.82,1.66
							c1.66,0.62,2.54,1.461,2.54,2.901c0,1.72-1.34,2.92-3.601,2.92c-1.06,0-2.04-0.279-2.721-0.68L630.07,116.776z"/>
						<path fill="#FFFFFF" d="M637.59,117.517c0-0.721,0.5-1.261,1.2-1.261s1.181,0.521,1.181,1.261c0,0.72-0.48,1.26-1.221,1.26
							C638.07,118.776,637.59,118.236,637.59,117.517z"/>
					</g>
				</g>
			</g>
		</g>
		<path fill="none" stroke="#C15921" stroke-width="5" stroke-miterlimit="10" stroke-dasharray="4" d="M484.498,119.549
			c0,0-10,16.96-26,27.918s-38,8.958-38,8.958"/>
	</g>
</g>
</svg>
