<?xml version="1.0" encoding="utf-8"?>
<!-- Generator: Adobe Illustrator 16.0.0, SVG Export Plug-In . SVG Version: 6.00 Build 0)  -->
<!DOCTYPE svg PUBLIC "-//W3C//DTD SVG 1.1//EN" "http://www.w3.org/Graphics/SVG/1.1/DTD/svg11.dtd">
<svg version="1.1" id="Capa_1" xmlns="http://www.w3.org/2000/svg" xmlns:xlink="http://www.w3.org/1999/xlink" x="0px" y="0px"
	 width="700.262px" height="179.584px" viewBox="0 0 700.262 179.584" enable-background="new 0 0 700.262 179.584"
	 xml:space="preserve">
<g>
	<g>
		<rect x="264.831" y="74.96" fill="#EBE760" fill-opacity="0.4" width="170" height="35.206"/>
		<rect y="144.378" fill="#EBE760" fill-opacity="0.4" width="234.831" height="35.206"/>
		<rect y="109.565" fill="#EBE760" fill-opacity="0.4" width="434.831" height="35.206"/>
	</g>
	<g>
		<g>
			<g>
				<path fill-rule="evenodd" clip-rule="evenodd" fill="#ABC02F" d="M694.891,79.96c0,6.628-5.373,12-12,12H486.948
					c-6.627,0-12-5.372-12-12V12c0-6.628,5.373-12,12-12h195.942c6.627,0,12,5.372,12,12V79.96z"/>
				<g>
					<g>
						<path fill="#FFFFFF" d="M500.991,17.254c0.98-0.16,2.421-0.28,4.061-0.28c2.001,0,3.401,0.3,4.361,1.061
							c0.82,0.64,1.26,1.601,1.26,2.841c0,1.7-1.22,2.88-2.38,3.3v0.061c0.94,0.38,1.46,1.26,1.8,2.5
							c0.421,1.541,0.82,3.301,1.081,3.821h-3.121c-0.2-0.4-0.54-1.48-0.92-3.141c-0.381-1.7-0.961-2.141-2.221-2.16h-0.9v5.301
							h-3.021V17.254z M504.012,23.055h1.2c1.521,0,2.421-0.76,2.421-1.94c0-1.22-0.841-1.86-2.24-1.86
							c-0.74,0-1.161,0.04-1.381,0.101V23.055z"/>
						<path fill="#FFFFFF" d="M515.091,26.636c0.08,1.261,1.341,1.86,2.761,1.86c1.04,0,1.881-0.14,2.7-0.42l0.4,2.061
							c-1,0.42-2.221,0.62-3.541,0.62c-3.32,0-5.221-1.921-5.221-4.981c0-2.48,1.54-5.221,4.941-5.221c3.16,0,4.36,2.46,4.36,4.881
							c0,0.521-0.06,0.98-0.1,1.2H515.091z M518.672,24.556c0-0.74-0.32-1.98-1.721-1.98c-1.28,0-1.8,1.18-1.88,1.98H518.672z"/>
						<path fill="#FFFFFF" d="M526.711,18.134v2.641h2.181v2.24h-2.181v3.541c0,1.181,0.3,1.721,1.2,1.721
							c0.42,0,0.62-0.021,0.9-0.08l0.02,2.301c-0.38,0.14-1.12,0.26-1.96,0.26c-0.98,0-1.801-0.34-2.301-0.84
							c-0.56-0.581-0.84-1.521-0.84-2.901v-4.001h-1.301v-2.24h1.301v-1.82L526.711,18.134z"/>
						<path fill="#FFFFFF" d="M530.65,23.995c0-1.44-0.021-2.381-0.08-3.221h2.601l0.119,1.801h0.08
							c0.501-1.44,1.681-2.041,2.641-2.041c0.28,0,0.421,0.021,0.641,0.061v2.86c-0.24-0.04-0.48-0.08-0.82-0.08
							c-1.12,0-1.881,0.601-2.08,1.54c-0.04,0.2-0.061,0.44-0.061,0.681v4.961h-3.04V23.995z"/>
						<path fill="#FFFFFF" d="M547.751,25.556c0,3.581-2.54,5.221-5.16,5.221c-2.861,0-5.062-1.88-5.062-5.041
							c0-3.181,2.08-5.201,5.241-5.201C545.751,20.534,547.751,22.595,547.751,25.556z M540.67,25.655c0,1.681,0.7,2.941,2,2.941
							c1.201,0,1.94-1.181,1.94-2.961c0-1.44-0.56-2.921-1.94-2.921C541.23,22.715,540.67,24.215,540.67,25.655z"/>
						<path fill="#FFFFFF" d="M557.771,28.196c0,0.92,0.04,1.82,0.16,2.36h-2.741l-0.18-0.98h-0.061c-0.64,0.78-1.64,1.2-2.8,1.2
							c-1.98,0-3.161-1.44-3.161-3c0-2.541,2.28-3.741,5.741-3.741v-0.12c0-0.54-0.28-1.28-1.78-1.28c-1,0-2.061,0.34-2.7,0.74
							l-0.561-1.96c0.68-0.381,2.021-0.881,3.801-0.881c3.261,0,4.281,1.921,4.281,4.241V28.196z M554.83,25.936
							c-1.6,0-2.84,0.38-2.84,1.54c0,0.78,0.52,1.16,1.2,1.16c0.74,0,1.38-0.5,1.58-1.12c0.04-0.159,0.06-0.34,0.06-0.52V25.936z"/>
						<path fill="#FFFFFF" d="M560.189,16.354h3.04v14.203h-3.04V16.354z"/>
						<path fill="#FFFFFF" d="M568.83,18.054c0,0.841-0.62,1.521-1.641,1.521c-0.96,0-1.58-0.68-1.58-1.521
							c0-0.86,0.64-1.521,1.62-1.521S568.81,17.193,568.83,18.054z M565.689,30.557v-9.782h3.04v9.782H565.689z"/>
						<path fill="#FFFFFF" d="M571.169,23.896c0-1.221-0.04-2.241-0.08-3.121h2.58l0.12,1.32h0.06
							c0.421-0.64,1.301-1.561,2.961-1.561c1.28,0,2.261,0.66,2.681,1.681h0.04c0.38-0.521,0.8-0.92,1.28-1.2
							c0.54-0.3,1.141-0.48,1.86-0.48c1.881,0,3.301,1.32,3.301,4.262v5.761h-2.961v-5.321c0-1.42-0.46-2.24-1.44-2.24
							c-0.72,0-1.2,0.48-1.42,1.061c-0.06,0.22-0.1,0.52-0.1,0.779v5.722h-2.961v-5.501c0-1.221-0.44-2.061-1.42-2.061
							c-0.78,0-1.241,0.6-1.421,1.08c-0.1,0.24-0.12,0.521-0.12,0.78v5.701h-2.96V23.896z"/>
						<path fill="#FFFFFF" d="M590.708,26.636c0.08,1.261,1.341,1.86,2.761,1.86c1.04,0,1.881-0.14,2.7-0.42l0.4,2.061
							c-1,0.42-2.221,0.62-3.541,0.62c-3.32,0-5.221-1.921-5.221-4.981c0-2.48,1.54-5.221,4.941-5.221c3.16,0,4.36,2.46,4.36,4.881
							c0,0.521-0.06,0.98-0.1,1.2H590.708z M594.289,24.556c0-0.74-0.32-1.98-1.721-1.98c-1.28,0-1.8,1.18-1.88,1.98H594.289z"/>
						<path fill="#FFFFFF" d="M598.928,23.896c0-1.221-0.04-2.241-0.08-3.121h2.641l0.14,1.36h0.06c0.4-0.64,1.381-1.58,3.021-1.58
							c2,0,3.5,1.34,3.5,4.221v5.781h-3.04v-5.421c0-1.261-0.44-2.121-1.541-2.121c-0.84,0-1.34,0.58-1.56,1.141
							c-0.08,0.2-0.101,0.48-0.101,0.76v5.642h-3.04V23.896z"/>
						<path fill="#FFFFFF" d="M613.928,18.134v2.641h2.181v2.24h-2.181v3.541c0,1.181,0.3,1.721,1.2,1.721
							c0.42,0,0.62-0.021,0.9-0.08l0.02,2.301c-0.38,0.14-1.12,0.26-1.96,0.26c-0.98,0-1.801-0.34-2.301-0.84
							c-0.56-0.581-0.84-1.521-0.84-2.901v-4.001h-1.301v-2.24h1.301v-1.82L613.928,18.134z"/>
						<path fill="#FFFFFF" d="M626.009,28.196c0,0.92,0.04,1.82,0.16,2.36h-2.741l-0.18-0.98h-0.061c-0.64,0.78-1.64,1.2-2.8,1.2
							c-1.98,0-3.161-1.44-3.161-3c0-2.541,2.28-3.741,5.741-3.741v-0.12c0-0.54-0.28-1.28-1.78-1.28c-1,0-2.061,0.34-2.7,0.74
							l-0.561-1.96c0.68-0.381,2.021-0.881,3.801-0.881c3.261,0,4.281,1.921,4.281,4.241V28.196z M623.067,25.936
							c-1.6,0-2.84,0.38-2.84,1.54c0,0.78,0.52,1.16,1.2,1.16c0.74,0,1.38-0.5,1.58-1.12c0.04-0.159,0.06-0.34,0.06-0.52V25.936z"/>
						<path fill="#FFFFFF" d="M635.768,30.297c-0.54,0.26-1.56,0.46-2.721,0.46c-3.16,0-5.181-1.94-5.181-5.001
							c0-2.861,1.96-5.201,5.602-5.201c0.8,0,1.68,0.14,2.32,0.38l-0.48,2.261c-0.36-0.16-0.9-0.301-1.7-0.301
							c-1.601,0-2.641,1.141-2.62,2.741c0,1.78,1.2,2.74,2.68,2.74c0.721,0,1.28-0.12,1.741-0.32L635.768,30.297z"/>
						<path fill="#FFFFFF" d="M640.587,18.054c0,0.841-0.62,1.521-1.641,1.521c-0.96,0-1.58-0.68-1.58-1.521
							c0-0.86,0.64-1.521,1.62-1.521S640.566,17.193,640.587,18.054z M637.446,30.557v-9.782h3.04v9.782H637.446z"/>
						<path fill="#FFFFFF" d="M652.587,25.556c0,3.581-2.54,5.221-5.16,5.221c-2.861,0-5.062-1.88-5.062-5.041
							c0-3.181,2.08-5.201,5.241-5.201C650.587,20.534,652.587,22.595,652.587,25.556z M645.506,25.655c0,1.681,0.7,2.941,2,2.941
							c1.201,0,1.94-1.181,1.94-2.961c0-1.44-0.56-2.921-1.94-2.921C646.066,22.715,645.506,24.215,645.506,25.655z M650.647,16.514
							l-2.441,3.041h-2.08l1.721-3.041H650.647z"/>
						<path fill="#FFFFFF" d="M654.466,23.896c0-1.221-0.04-2.241-0.08-3.121h2.641l0.14,1.36h0.06c0.4-0.64,1.381-1.58,3.021-1.58
							c2,0,3.5,1.34,3.5,4.221v5.781h-3.04v-5.421c0-1.261-0.44-2.121-1.541-2.121c-0.84,0-1.34,0.58-1.56,1.141
							c-0.08,0.2-0.101,0.48-0.101,0.76v5.642h-3.04V23.896z"/>
						<path fill="#FFFFFF" d="M665.985,22.495c0-1.08,0.74-1.841,1.78-1.841c1.06,0,1.76,0.74,1.78,1.841
							c0,1.04-0.7,1.82-1.801,1.82C666.705,24.315,665.985,23.535,665.985,22.495z M665.985,28.956c0-1.08,0.74-1.84,1.78-1.84
							c1.06,0,1.76,0.74,1.78,1.84c0,1.04-0.7,1.82-1.801,1.82C666.705,30.776,665.985,29.996,665.985,28.956z"/>
						<path fill="#FFFFFF" d="M499.852,48.036c0.04,2.38,1.54,3.36,3.321,3.36c1.26,0,2.04-0.22,2.68-0.5l0.32,1.26
							c-0.62,0.28-1.7,0.62-3.24,0.62c-2.98,0-4.762-1.98-4.762-4.9c0-2.921,1.721-5.201,4.541-5.201
							c3.181,0,4.001,2.761,4.001,4.541c0,0.359-0.02,0.62-0.06,0.82H499.852z M505.013,46.775c0.021-1.101-0.46-2.841-2.44-2.841
							c-1.801,0-2.561,1.62-2.7,2.841H505.013z"/>
						<path fill="#FFFFFF" d="M508.651,50.776c0.54,0.32,1.46,0.68,2.34,0.68c1.261,0,1.86-0.62,1.86-1.44
							c0-0.84-0.5-1.28-1.78-1.76c-1.76-0.641-2.58-1.58-2.58-2.741c0-1.56,1.28-2.84,3.341-2.84c0.979,0,1.84,0.26,2.36,0.6
							l-0.42,1.28c-0.381-0.24-1.081-0.58-1.98-0.58c-1.041,0-1.601,0.601-1.601,1.32c0,0.801,0.56,1.16,1.82,1.66
							c1.66,0.62,2.54,1.461,2.54,2.901c0,1.72-1.34,2.92-3.601,2.92c-1.06,0-2.04-0.279-2.721-0.68L508.651,50.776z"/>
						<path fill="#FFFFFF" d="M518.932,40.554v2.321h2.521v1.34h-2.521v5.221c0,1.2,0.34,1.881,1.32,1.881
							c0.479,0,0.76-0.04,1.02-0.12l0.08,1.341c-0.34,0.119-0.88,0.239-1.56,0.239c-0.82,0-1.48-0.279-1.9-0.74
							c-0.48-0.54-0.681-1.4-0.681-2.54v-5.281h-1.5v-1.34h1.5v-1.801L518.932,40.554z"/>
						<path fill="#FFFFFF" d="M530.232,50.236c0,0.84,0.04,1.66,0.14,2.32h-1.58l-0.14-1.221h-0.061
							c-0.54,0.761-1.58,1.44-2.96,1.44c-1.961,0-2.961-1.38-2.961-2.78c0-2.341,2.08-3.621,5.821-3.601v-0.2
							c0-0.78-0.22-2.24-2.2-2.221c-0.921,0-1.86,0.261-2.541,0.721l-0.4-1.181c0.801-0.5,1.98-0.84,3.201-0.84
							c2.961,0,3.681,2.021,3.681,3.94V50.236z M528.532,47.615c-1.921-0.04-4.101,0.301-4.101,2.181c0,1.16,0.76,1.681,1.64,1.681
							c1.28,0,2.101-0.801,2.381-1.62c0.06-0.2,0.08-0.4,0.08-0.561V47.615z"/>
						<path fill="#FFFFFF" d="M537.311,46.035c0-1.24-0.04-2.24-0.08-3.16h1.561l0.101,1.66h0.04c0.7-1.181,1.86-1.86,3.44-1.86
							c2.36,0,4.121,1.98,4.121,4.9c0,3.481-2.141,5.201-4.421,5.201c-1.28,0-2.4-0.56-2.981-1.52h-0.039v5.261h-1.741V46.035z
							 M539.052,48.616c0,0.26,0.02,0.5,0.079,0.72c0.32,1.221,1.381,2.061,2.641,2.061c1.86,0,2.941-1.521,2.941-3.741
							c0-1.92-1.021-3.58-2.881-3.58c-1.2,0-2.341,0.84-2.661,2.16c-0.06,0.22-0.119,0.48-0.119,0.7V48.616z"/>
						<path fill="#FFFFFF" d="M557.453,47.636c0,3.581-2.501,5.141-4.821,5.141c-2.601,0-4.642-1.92-4.642-4.98
							c0-3.221,2.141-5.121,4.802-5.121C555.572,42.675,557.453,44.695,557.453,47.636z M549.791,47.735
							c0,2.121,1.2,3.721,2.921,3.721c1.68,0,2.94-1.58,2.94-3.761c0-1.64-0.82-3.7-2.9-3.7
							C550.691,43.995,549.791,45.915,549.791,47.735z"/>
						<path fill="#FFFFFF" d="M559.431,50.776c0.54,0.32,1.46,0.68,2.34,0.68c1.261,0,1.86-0.62,1.86-1.44
							c0-0.84-0.5-1.28-1.78-1.76c-1.76-0.641-2.58-1.58-2.58-2.741c0-1.56,1.28-2.84,3.341-2.84c0.979,0,1.84,0.26,2.36,0.6
							l-0.42,1.28c-0.381-0.24-1.081-0.58-1.98-0.58c-1.041,0-1.601,0.601-1.601,1.32c0,0.801,0.56,1.16,1.82,1.66
							c1.66,0.62,2.54,1.461,2.54,2.901c0,1.72-1.34,2.92-3.601,2.92c-1.06,0-2.04-0.279-2.721-0.68L559.431,50.776z"/>
						<path fill="#FFFFFF" d="M569.711,40.554v2.321h2.521v1.34h-2.521v5.221c0,1.2,0.34,1.881,1.32,1.881
							c0.479,0,0.76-0.04,1.02-0.12l0.08,1.341c-0.34,0.119-0.88,0.239-1.56,0.239c-0.82,0-1.48-0.279-1.9-0.74
							c-0.48-0.54-0.681-1.4-0.681-2.54v-5.281h-1.5v-1.34h1.5v-1.801L569.711,40.554z"/>
						<path fill="#FFFFFF" d="M582.312,49.896c0,1.02,0.02,1.9,0.079,2.66h-1.56l-0.101-1.58h-0.04c-0.439,0.78-1.48,1.8-3.2,1.8
							c-1.521,0-3.341-0.859-3.341-4.24v-5.661h1.761v5.341c0,1.84,0.58,3.101,2.16,3.101c1.18,0,2-0.82,2.32-1.62
							c0.1-0.24,0.16-0.561,0.16-0.9v-5.921h1.761V49.896z"/>
						<path fill="#FFFFFF" d="M585.229,45.896c0-1.141-0.02-2.121-0.08-3.021h1.541l0.08,1.92h0.06c0.44-1.3,1.521-2.12,2.7-2.12
							c0.181,0,0.32,0.02,0.48,0.04v1.66c-0.18-0.04-0.36-0.04-0.6-0.04c-1.24,0-2.121,0.92-2.361,2.24
							c-0.04,0.24-0.06,0.54-0.06,0.82v5.161h-1.761V45.896z"/>
						<path fill="#FFFFFF" d="M598.472,50.236c0,0.84,0.04,1.66,0.14,2.32h-1.58l-0.14-1.221h-0.061
							c-0.54,0.761-1.58,1.44-2.96,1.44c-1.961,0-2.961-1.38-2.961-2.78c0-2.341,2.08-3.621,5.821-3.601v-0.2
							c0-0.78-0.22-2.24-2.2-2.221c-0.921,0-1.86,0.261-2.541,0.721l-0.4-1.181c0.801-0.5,1.98-0.84,3.201-0.84
							c2.961,0,3.681,2.021,3.681,3.94V50.236z M596.771,47.615c-1.921-0.04-4.101,0.301-4.101,2.181c0,1.16,0.76,1.681,1.64,1.681
							c1.28,0,2.101-0.801,2.381-1.62c0.06-0.2,0.08-0.4,0.08-0.561V47.615z"/>
						<path fill="#FFFFFF" d="M605.55,45.495c0-1.021-0.04-1.82-0.08-2.62h1.541l0.08,1.58h0.06c0.54-0.92,1.44-1.78,3.061-1.78
							c1.301,0,2.301,0.8,2.721,1.94h0.04c0.3-0.561,0.7-0.961,1.101-1.261c0.58-0.439,1.2-0.68,2.12-0.68
							c1.301,0,3.201,0.84,3.201,4.2v5.682h-1.721v-5.461c0-1.881-0.7-2.98-2.101-2.98c-1.021,0-1.78,0.74-2.101,1.58
							c-0.08,0.26-0.14,0.56-0.14,0.88v5.981h-1.721v-5.801c0-1.541-0.68-2.641-2.021-2.641c-1.08,0-1.9,0.88-2.181,1.76
							c-0.1,0.24-0.14,0.561-0.14,0.86v5.821h-1.721V45.495z"/>
						<path fill="#FFFFFF" d="M630.332,49.896c0,1.02,0.02,1.9,0.079,2.66h-1.56l-0.101-1.58h-0.04c-0.439,0.78-1.48,1.8-3.2,1.8
							c-1.521,0-3.341-0.859-3.341-4.24v-5.661h1.761v5.341c0,1.84,0.58,3.101,2.16,3.101c1.18,0,2-0.82,2.32-1.62
							c0.1-0.24,0.16-0.561,0.16-0.9v-5.921h1.761V49.896z"/>
						<path fill="#FFFFFF" d="M634.229,48.036c0.04,2.38,1.54,3.36,3.32,3.36c1.261,0,2.041-0.22,2.681-0.5l0.32,1.26
							c-0.62,0.28-1.7,0.62-3.24,0.62c-2.98,0-4.762-1.98-4.762-4.9c0-2.921,1.721-5.201,4.541-5.201
							c3.181,0,4.001,2.761,4.001,4.541c0,0.359-0.02,0.62-0.06,0.82H634.229z M639.391,46.775c0.021-1.101-0.46-2.841-2.44-2.841
							c-1.801,0-2.561,1.62-2.7,2.841H639.391z"/>
						<path fill="#FFFFFF" d="M643.029,50.776c0.54,0.32,1.46,0.68,2.34,0.68c1.261,0,1.86-0.62,1.86-1.44
							c0-0.84-0.5-1.28-1.78-1.76c-1.76-0.641-2.58-1.58-2.58-2.741c0-1.56,1.28-2.84,3.341-2.84c0.979,0,1.84,0.26,2.36,0.6
							l-0.42,1.28c-0.381-0.24-1.081-0.58-1.98-0.58c-1.041,0-1.601,0.601-1.601,1.32c0,0.801,0.56,1.16,1.82,1.66
							c1.66,0.62,2.54,1.461,2.54,2.901c0,1.72-1.34,2.92-3.601,2.92c-1.06,0-2.04-0.279-2.721-0.68L643.029,50.776z"/>
						<path fill="#FFFFFF" d="M653.31,40.554v2.321h2.521v1.34h-2.521v5.221c0,1.2,0.34,1.881,1.32,1.881
							c0.479,0,0.76-0.04,1.02-0.12l0.08,1.341c-0.34,0.119-0.88,0.239-1.56,0.239c-0.82,0-1.48-0.279-1.9-0.74
							c-0.48-0.54-0.681-1.4-0.681-2.54v-5.281h-1.5v-1.34h1.5v-1.801L653.31,40.554z"/>
						<path fill="#FFFFFF" d="M657.809,45.896c0-1.141-0.02-2.121-0.08-3.021h1.541l0.08,1.92h0.06c0.44-1.3,1.521-2.12,2.701-2.12
							c0.18,0,0.319,0.02,0.479,0.04v1.66c-0.18-0.04-0.36-0.04-0.6-0.04c-1.24,0-2.121,0.92-2.361,2.24
							c-0.04,0.24-0.06,0.54-0.06,0.82v5.161h-1.761V45.896z"/>
						<path fill="#FFFFFF" d="M671.051,50.236c0,0.84,0.04,1.66,0.14,2.32h-1.58l-0.14-1.221h-0.061
							c-0.54,0.761-1.58,1.44-2.96,1.44c-1.961,0-2.961-1.38-2.961-2.78c0-2.341,2.08-3.621,5.821-3.601v-0.2
							c0-0.78-0.22-2.24-2.2-2.221c-0.921,0-1.86,0.261-2.541,0.721l-0.4-1.181c0.801-0.5,1.98-0.84,3.201-0.84
							c2.961,0,3.681,2.021,3.681,3.94V50.236z M669.351,47.615c-1.921-0.04-4.101,0.301-4.101,2.181c0,1.16,0.76,1.681,1.64,1.681
							c1.28,0,2.101-0.801,2.381-1.62c0.06-0.2,0.08-0.4,0.08-0.561V47.615z"/>
						<path fill="#FFFFFF" d="M492.562,62.154c0,0.6-0.42,1.08-1.12,1.08c-0.641,0-1.061-0.48-1.061-1.08
							c0-0.601,0.44-1.101,1.101-1.101C492.122,61.054,492.562,61.534,492.562,62.154z M490.602,74.557v-9.682h1.761v9.682H490.602z
							"/>
						<path fill="#FFFFFF" d="M495.281,67.495c0-1.021-0.02-1.82-0.08-2.62h1.561l0.101,1.6h0.04c0.479-0.899,1.6-1.8,3.2-1.8
							c1.341,0,3.421,0.8,3.421,4.121v5.761h-1.761v-5.581c0-1.561-0.58-2.86-2.24-2.86c-1.141,0-2.04,0.819-2.36,1.8
							c-0.08,0.221-0.12,0.521-0.12,0.82v5.821h-1.761V67.495z"/>
						<path fill="#FFFFFF" d="M508.422,62.554v2.321h2.521v1.34h-2.521v5.221c0,1.2,0.34,1.881,1.32,1.881
							c0.479,0,0.76-0.04,1.02-0.12l0.08,1.341c-0.34,0.119-0.88,0.239-1.56,0.239c-0.82,0-1.48-0.279-1.9-0.74
							c-0.48-0.54-0.681-1.4-0.681-2.54v-5.281h-1.5v-1.34h1.5v-1.801L508.422,62.554z"/>
						<path fill="#FFFFFF" d="M513.781,70.036c0.04,2.38,1.54,3.36,3.321,3.36c1.26,0,2.04-0.22,2.68-0.5l0.32,1.26
							c-0.62,0.28-1.7,0.62-3.24,0.62c-2.98,0-4.762-1.98-4.762-4.9c0-2.921,1.721-5.201,4.541-5.201
							c3.181,0,4.001,2.761,4.001,4.541c0,0.359-0.02,0.62-0.06,0.82H513.781z M518.942,68.775c0.021-1.101-0.46-2.841-2.44-2.841
							c-1.801,0-2.561,1.62-2.7,2.841H518.942z"/>
						<path fill="#FFFFFF" d="M522.82,67.896c0-1.141-0.02-2.121-0.08-3.021h1.541l0.08,1.92h0.06c0.44-1.3,1.521-2.12,2.701-2.12
							c0.18,0,0.319,0.02,0.479,0.04v1.66c-0.18-0.04-0.36-0.04-0.6-0.04c-1.24,0-2.121,0.92-2.361,2.24
							c-0.04,0.24-0.06,0.54-0.06,0.82v5.161h-1.761V67.896z"/>
						<path fill="#FFFFFF" d="M530.142,70.036c0.04,2.38,1.54,3.36,3.32,3.36c1.261,0,2.041-0.22,2.681-0.5l0.32,1.26
							c-0.62,0.28-1.7,0.62-3.24,0.62c-2.98,0-4.762-1.98-4.762-4.9c0-2.921,1.721-5.201,4.541-5.201
							c3.181,0,4.001,2.761,4.001,4.541c0,0.359-0.02,0.62-0.06,0.82H530.142z M535.303,68.775c0.021-1.101-0.46-2.841-2.44-2.841
							c-1.801,0-2.561,1.62-2.7,2.841H535.303z M535.703,60.693l-2.44,2.861h-1.24l1.76-2.861H535.703z"/>
						<path fill="#FFFFFF" d="M538.941,72.776c0.54,0.32,1.46,0.68,2.34,0.68c1.261,0,1.86-0.62,1.86-1.44
							c0-0.84-0.5-1.28-1.78-1.76c-1.76-0.641-2.58-1.58-2.58-2.741c0-1.56,1.28-2.84,3.341-2.84c0.979,0,1.84,0.26,2.36,0.6
							l-0.42,1.28c-0.381-0.24-1.081-0.58-1.98-0.58c-1.041,0-1.601,0.601-1.601,1.32c0,0.801,0.56,1.16,1.82,1.66
							c1.66,0.62,2.54,1.461,2.54,2.901c0,1.72-1.34,2.92-3.601,2.92c-1.06,0-2.04-0.279-2.721-0.68L538.941,72.776z"/>
						<path fill="#FFFFFF" d="M552.321,70.036c0.04,2.38,1.54,3.36,3.32,3.36c1.261,0,2.041-0.22,2.681-0.5l0.32,1.26
							c-0.62,0.28-1.7,0.62-3.24,0.62c-2.98,0-4.762-1.98-4.762-4.9c0-2.921,1.721-5.201,4.541-5.201
							c3.181,0,4.001,2.761,4.001,4.541c0,0.359-0.02,0.62-0.06,0.82H552.321z M557.482,68.775c0.021-1.101-0.46-2.841-2.44-2.841
							c-1.801,0-2.561,1.62-2.7,2.841H557.482z"/>
						<path fill="#FFFFFF" d="M567.562,62.154c0,0.6-0.42,1.08-1.12,1.08c-0.641,0-1.061-0.48-1.061-1.08
							c0-0.601,0.44-1.101,1.101-1.101C567.121,61.054,567.562,61.534,567.562,62.154z M565.601,74.557v-9.682h1.761v9.682H565.601z
							"/>
						<path fill="#FFFFFF" d="M570.28,67.495c0-1.021-0.02-1.82-0.08-2.62h1.561l0.101,1.6h0.04c0.479-0.899,1.6-1.8,3.2-1.8
							c1.341,0,3.421,0.8,3.421,4.121v5.761h-1.761v-5.581c0-1.561-0.58-2.86-2.24-2.86c-1.141,0-2.04,0.819-2.36,1.8
							c-0.08,0.221-0.12,0.521-0.12,0.82v5.821h-1.761V67.495z"/>
						<path fill="#FFFFFF" d="M581.801,64.875l1.9,5.421c0.32,0.9,0.58,1.7,0.78,2.5h0.06c0.221-0.8,0.5-1.6,0.82-2.5l1.881-5.421
							h1.84l-3.801,9.682h-1.681l-3.681-9.682H581.801z"/>
						<path fill="#FFFFFF" d="M599.303,69.636c0,3.581-2.501,5.141-4.821,5.141c-2.601,0-4.642-1.92-4.642-4.98
							c0-3.221,2.141-5.121,4.802-5.121C597.422,64.675,599.303,66.695,599.303,69.636z M591.641,69.735
							c0,2.121,1.2,3.721,2.921,3.721c1.68,0,2.94-1.58,2.94-3.761c0-1.64-0.82-3.7-2.9-3.7
							C592.541,65.995,591.641,67.915,591.641,69.735z"/>
						<path fill="#FFFFFF" d="M601.52,60.354h1.761v14.203h-1.761V60.354z"/>
						<path fill="#FFFFFF" d="M614.342,71.896c0,1.02,0.02,1.9,0.079,2.66h-1.56l-0.101-1.58h-0.04c-0.439,0.78-1.48,1.8-3.2,1.8
							c-1.521,0-3.341-0.859-3.341-4.24v-5.661h1.761v5.341c0,1.84,0.58,3.101,2.16,3.101c1.18,0,2-0.82,2.32-1.62
							c0.1-0.24,0.16-0.561,0.16-0.9v-5.921h1.761V71.896z"/>
						<path fill="#FFFFFF" d="M624.16,74.217c-0.46,0.22-1.479,0.56-2.78,0.56c-2.921,0-4.821-1.98-4.821-4.94
							c0-2.98,2.041-5.161,5.201-5.161c1.041,0,1.961,0.26,2.44,0.52l-0.399,1.341c-0.42-0.221-1.08-0.46-2.041-0.46
							c-2.22,0-3.42,1.66-3.42,3.66c0,2.241,1.439,3.621,3.36,3.621c1,0,1.66-0.24,2.16-0.46L624.16,74.217z"/>
						<path fill="#FFFFFF" d="M626.219,67.896c0-1.141-0.02-2.121-0.08-3.021h1.541l0.08,1.92h0.06c0.44-1.3,1.521-2.12,2.701-2.12
							c0.18,0,0.319,0.02,0.479,0.04v1.66c-0.18-0.04-0.36-0.04-0.6-0.04c-1.24,0-2.121,0.92-2.361,2.24
							c-0.04,0.24-0.06,0.54-0.06,0.82v5.161h-1.761V67.896z"/>
						<path fill="#FFFFFF" d="M639.461,72.236c0,0.84,0.04,1.66,0.14,2.32h-1.58l-0.14-1.221h-0.061
							c-0.54,0.761-1.58,1.44-2.96,1.44c-1.961,0-2.961-1.38-2.961-2.78c0-2.341,2.08-3.621,5.821-3.601v-0.2
							c0-0.78-0.22-2.24-2.2-2.221c-0.921,0-1.86,0.261-2.541,0.721l-0.4-1.181c0.801-0.5,1.98-0.84,3.201-0.84
							c2.961,0,3.681,2.021,3.681,3.94V72.236z M637.761,69.615c-1.921-0.04-4.101,0.301-4.101,2.181c0,1.16,0.76,1.681,1.64,1.681
							c1.28,0,2.101-0.801,2.381-1.62c0.06-0.2,0.08-0.4,0.08-0.561V69.615z"/>
						<path fill="#FFFFFF" d="M649.2,74.217c-0.46,0.22-1.479,0.56-2.78,0.56c-2.921,0-4.821-1.98-4.821-4.94
							c0-2.98,2.041-5.161,5.201-5.161c1.041,0,1.961,0.26,2.44,0.52l-0.399,1.341c-0.42-0.221-1.08-0.46-2.041-0.46
							c-2.22,0-3.42,1.66-3.42,3.66c0,2.241,1.439,3.621,3.36,3.621c1,0,1.66-0.24,2.16-0.46L649.2,74.217z"/>
						<path fill="#FFFFFF" d="M653.22,62.154c0,0.6-0.42,1.08-1.12,1.08c-0.641,0-1.061-0.48-1.061-1.08
							c0-0.601,0.44-1.101,1.101-1.101C652.779,61.054,653.22,61.534,653.22,62.154z M651.259,74.557v-9.682h1.761v9.682H651.259z"
							/>
						<path fill="#FFFFFF" d="M664.701,69.636c0,3.581-2.501,5.141-4.821,5.141c-2.601,0-4.642-1.92-4.642-4.98
							c0-3.221,2.141-5.121,4.802-5.121C662.82,64.675,664.701,66.695,664.701,69.636z M657.039,69.735
							c0,2.121,1.2,3.721,2.921,3.721c1.68,0,2.94-1.58,2.94-3.761c0-1.64-0.82-3.7-2.9-3.7
							C657.939,65.995,657.039,67.915,657.039,69.735z M662.601,60.693l-2.44,2.861h-1.24l1.74-2.861H662.601z"/>
						<path fill="#FFFFFF" d="M666.918,67.495c0-1.021-0.02-1.82-0.08-2.62h1.561l0.101,1.6h0.04c0.479-0.899,1.6-1.8,3.2-1.8
							c1.341,0,3.421,0.8,3.421,4.121v5.761h-1.761v-5.581c0-1.561-0.58-2.86-2.24-2.86c-1.141,0-2.04,0.819-2.36,1.8
							c-0.08,0.221-0.12,0.521-0.12,0.82v5.821h-1.761V67.495z"/>
						<path fill="#FFFFFF" d="M677.598,73.517c0-0.721,0.5-1.261,1.2-1.261s1.181,0.521,1.181,1.261c0,0.72-0.48,1.26-1.221,1.26
							C678.078,74.776,677.598,74.236,677.598,73.517z"/>
					</g>
				</g>
			</g>
		</g>
		<path fill="none" stroke="#A2B735" stroke-width="5" stroke-miterlimit="10" stroke-dasharray="4" d="M484.498,75.804
			c0,0-7.604,16.96-19.771,27.918c-12.166,10.958-28.896,8.958-28.896,8.958"/>
	</g>
</g>
</svg>
