<?xml version="1.0" encoding="utf-8"?>
<!-- Generator: Adobe Illustrator 16.0.0, SVG Export Plug-In . SVG Version: 6.00 Build 0)  -->
<!DOCTYPE svg PUBLIC "-//W3C//DTD SVG 1.1//EN" "http://www.w3.org/Graphics/SVG/1.1/DTD/svg11.dtd">
<svg version="1.1" id="Capa_1" xmlns="http://www.w3.org/2000/svg" xmlns:xlink="http://www.w3.org/1999/xlink" x="0px" y="0px"
	 width="698.739px" height="205.459px" viewBox="0 0 698.739 205.459" enable-background="new 0 0 698.739 205.459"
	 xml:space="preserve">
<g>
	<g>
		<g>
			<g>
				<g>
					<path opacity="0.9" fill-rule="evenodd" clip-rule="evenodd" fill="#ABC02F" d="M698.739,123.447c0,6.628-5.821,12-13.003,12
						H473.428c-7.181,0-13.003-5.372-13.003-12V12c0-6.628,5.822-12,13.003-12h212.309c7.182,0,13.003,5.372,13.003,12V123.447z"/>
				</g>
				<g>
					<g>
						<path fill="#FFFFFF" d="M495.654,17.254c0.98-0.16,2.421-0.28,4.061-0.28c2.001,0,3.401,0.3,4.361,1.061
							c0.82,0.64,1.26,1.601,1.26,2.841c0,1.7-1.22,2.88-2.38,3.3v0.061c0.94,0.38,1.46,1.26,1.8,2.5
							c0.421,1.541,0.82,3.301,1.081,3.821h-3.121c-0.2-0.4-0.54-1.48-0.92-3.141c-0.381-1.7-0.961-2.141-2.221-2.16h-0.9v5.301
							h-3.021V17.254z M498.675,23.055h1.2c1.521,0,2.421-0.76,2.421-1.94c0-1.22-0.841-1.86-2.24-1.86
							c-0.74,0-1.161,0.04-1.381,0.101V23.055z"/>
						<path fill="#FFFFFF" d="M509.754,26.636c0.08,1.261,1.341,1.86,2.761,1.86c1.04,0,1.881-0.14,2.7-0.42l0.4,2.061
							c-1,0.42-2.221,0.62-3.541,0.62c-3.32,0-5.221-1.921-5.221-4.981c0-2.48,1.54-5.221,4.941-5.221c3.16,0,4.36,2.46,4.36,4.881
							c0,0.521-0.06,0.98-0.1,1.2H509.754z M513.335,24.556c0-0.74-0.32-1.98-1.721-1.98c-1.28,0-1.8,1.18-1.88,1.98H513.335z"/>
						<path fill="#FFFFFF" d="M521.374,18.134v2.641h2.181v2.24h-2.181v3.541c0,1.181,0.3,1.721,1.2,1.721
							c0.42,0,0.62-0.021,0.9-0.08l0.02,2.301c-0.38,0.14-1.12,0.26-1.96,0.26c-0.98,0-1.801-0.34-2.301-0.84
							c-0.56-0.581-0.84-1.521-0.84-2.901v-4.001h-1.301v-2.24h1.301v-1.82L521.374,18.134z"/>
						<path fill="#FFFFFF" d="M525.313,23.995c0-1.44-0.021-2.381-0.08-3.221h2.601l0.119,1.801h0.08
							c0.501-1.44,1.681-2.041,2.641-2.041c0.28,0,0.421,0.021,0.641,0.061v2.86c-0.24-0.04-0.48-0.08-0.82-0.08
							c-1.12,0-1.881,0.601-2.08,1.54c-0.04,0.2-0.061,0.44-0.061,0.681v4.961h-3.04V23.995z"/>
						<path fill="#FFFFFF" d="M542.414,25.556c0,3.581-2.54,5.221-5.16,5.221c-2.861,0-5.062-1.88-5.062-5.041
							c0-3.181,2.08-5.201,5.241-5.201C540.414,20.534,542.414,22.595,542.414,25.556z M535.333,25.655c0,1.681,0.7,2.941,2,2.941
							c1.201,0,1.94-1.181,1.94-2.961c0-1.44-0.56-2.921-1.94-2.921C535.894,22.715,535.333,24.215,535.333,25.655z"/>
						<path fill="#FFFFFF" d="M552.435,28.196c0,0.92,0.04,1.82,0.16,2.36h-2.741l-0.18-0.98h-0.061c-0.64,0.78-1.64,1.2-2.8,1.2
							c-1.98,0-3.161-1.44-3.161-3c0-2.541,2.28-3.741,5.741-3.741v-0.12c0-0.54-0.28-1.28-1.78-1.28c-1,0-2.061,0.34-2.7,0.74
							l-0.561-1.96c0.68-0.381,2.021-0.881,3.801-0.881c3.261,0,4.281,1.921,4.281,4.241V28.196z M549.493,25.936
							c-1.6,0-2.84,0.38-2.84,1.54c0,0.78,0.52,1.16,1.2,1.16c0.74,0,1.38-0.5,1.58-1.12c0.04-0.159,0.06-0.34,0.06-0.52V25.936z"/>
						<path fill="#FFFFFF" d="M554.853,16.354h3.04v14.203h-3.04V16.354z"/>
						<path fill="#FFFFFF" d="M563.493,18.054c0,0.841-0.62,1.521-1.641,1.521c-0.96,0-1.58-0.68-1.58-1.521
							c0-0.86,0.64-1.521,1.62-1.521S563.473,17.193,563.493,18.054z M560.353,30.557v-9.782h3.04v9.782H560.353z"/>
						<path fill="#FFFFFF" d="M565.832,23.896c0-1.221-0.04-2.241-0.08-3.121h2.58l0.12,1.32h0.06
							c0.421-0.64,1.301-1.561,2.961-1.561c1.28,0,2.261,0.66,2.681,1.681h0.04c0.38-0.521,0.8-0.92,1.28-1.2
							c0.54-0.3,1.141-0.48,1.86-0.48c1.881,0,3.301,1.32,3.301,4.262v5.761h-2.961v-5.321c0-1.42-0.46-2.24-1.44-2.24
							c-0.72,0-1.2,0.48-1.42,1.061c-0.06,0.22-0.1,0.52-0.1,0.779v5.722h-2.961v-5.501c0-1.221-0.44-2.061-1.42-2.061
							c-0.78,0-1.241,0.6-1.421,1.08c-0.1,0.24-0.12,0.521-0.12,0.78v5.701h-2.96V23.896z"/>
						<path fill="#FFFFFF" d="M585.371,26.636c0.08,1.261,1.341,1.86,2.761,1.86c1.04,0,1.881-0.14,2.7-0.42l0.4,2.061
							c-1,0.42-2.221,0.62-3.541,0.62c-3.32,0-5.221-1.921-5.221-4.981c0-2.48,1.54-5.221,4.941-5.221c3.16,0,4.36,2.46,4.36,4.881
							c0,0.521-0.06,0.98-0.1,1.2H585.371z M588.952,24.556c0-0.74-0.32-1.98-1.721-1.98c-1.28,0-1.8,1.18-1.88,1.98H588.952z"/>
						<path fill="#FFFFFF" d="M593.591,23.896c0-1.221-0.04-2.241-0.08-3.121h2.641l0.14,1.36h0.06c0.4-0.64,1.381-1.58,3.021-1.58
							c2,0,3.5,1.34,3.5,4.221v5.781h-3.04v-5.421c0-1.261-0.44-2.121-1.541-2.121c-0.84,0-1.34,0.58-1.56,1.141
							c-0.08,0.2-0.101,0.48-0.101,0.76v5.642h-3.04V23.896z"/>
						<path fill="#FFFFFF" d="M608.591,18.134v2.641h2.181v2.24h-2.181v3.541c0,1.181,0.3,1.721,1.2,1.721
							c0.42,0,0.62-0.021,0.9-0.08l0.02,2.301c-0.38,0.14-1.12,0.26-1.96,0.26c-0.98,0-1.801-0.34-2.301-0.84
							c-0.56-0.581-0.84-1.521-0.84-2.901v-4.001h-1.301v-2.24h1.301v-1.82L608.591,18.134z"/>
						<path fill="#FFFFFF" d="M620.672,28.196c0,0.92,0.04,1.82,0.16,2.36h-2.741l-0.18-0.98h-0.061c-0.64,0.78-1.64,1.2-2.8,1.2
							c-1.98,0-3.161-1.44-3.161-3c0-2.541,2.28-3.741,5.741-3.741v-0.12c0-0.54-0.28-1.28-1.78-1.28c-1,0-2.061,0.34-2.7,0.74
							l-0.561-1.96c0.68-0.381,2.021-0.881,3.801-0.881c3.261,0,4.281,1.921,4.281,4.241V28.196z M617.73,25.936
							c-1.6,0-2.84,0.38-2.84,1.54c0,0.78,0.52,1.16,1.2,1.16c0.74,0,1.38-0.5,1.58-1.12c0.04-0.159,0.06-0.34,0.06-0.52V25.936z"/>
						<path fill="#FFFFFF" d="M630.431,30.297c-0.54,0.26-1.56,0.46-2.721,0.46c-3.16,0-5.181-1.94-5.181-5.001
							c0-2.861,1.96-5.201,5.602-5.201c0.8,0,1.68,0.14,2.32,0.38l-0.48,2.261c-0.36-0.16-0.9-0.301-1.7-0.301
							c-1.601,0-2.641,1.141-2.62,2.741c0,1.78,1.2,2.74,2.68,2.74c0.721,0,1.28-0.12,1.741-0.32L630.431,30.297z"/>
						<path fill="#FFFFFF" d="M635.25,18.054c0,0.841-0.62,1.521-1.641,1.521c-0.96,0-1.58-0.68-1.58-1.521
							c0-0.86,0.64-1.521,1.62-1.521S635.229,17.193,635.25,18.054z M632.109,30.557v-9.782h3.04v9.782H632.109z"/>
						<path fill="#FFFFFF" d="M647.25,25.556c0,3.581-2.54,5.221-5.16,5.221c-2.861,0-5.062-1.88-5.062-5.041
							c0-3.181,2.08-5.201,5.241-5.201C645.25,20.534,647.25,22.595,647.25,25.556z M640.169,25.655c0,1.681,0.7,2.941,2,2.941
							c1.201,0,1.94-1.181,1.94-2.961c0-1.44-0.56-2.921-1.94-2.921C640.729,22.715,640.169,24.215,640.169,25.655z M645.311,16.514
							l-2.441,3.041h-2.08l1.721-3.041H645.311z"/>
						<path fill="#FFFFFF" d="M649.129,23.896c0-1.221-0.04-2.241-0.08-3.121h2.641l0.14,1.36h0.06c0.4-0.64,1.381-1.58,3.021-1.58
							c2,0,3.5,1.34,3.5,4.221v5.781h-3.04v-5.421c0-1.261-0.44-2.121-1.541-2.121c-0.84,0-1.34,0.58-1.56,1.141
							c-0.08,0.2-0.101,0.48-0.101,0.76v5.642h-3.04V23.896z"/>
						<path fill="#FFFFFF" d="M660.648,22.495c0-1.08,0.74-1.841,1.78-1.841c1.06,0,1.76,0.74,1.78,1.841
							c0,1.04-0.7,1.82-1.801,1.82C661.368,24.315,660.648,23.535,660.648,22.495z M660.648,28.956c0-1.08,0.74-1.84,1.78-1.84
							c1.06,0,1.76,0.74,1.78,1.84c0,1.04-0.7,1.82-1.801,1.82C661.368,30.776,660.648,29.996,660.648,28.956z"/>
						<path fill="#FFFFFF" d="M469.455,39.233c0.84-0.14,1.939-0.26,3.34-0.26c1.721,0,2.98,0.4,3.781,1.12
							c0.72,0.641,1.18,1.62,1.18,2.821c0,1.22-0.359,2.18-1.04,2.88c-0.94,0.98-2.421,1.48-4.12,1.48c-0.521,0-1.001-0.02-1.4-0.12
							v5.401h-1.74V39.233z M471.195,45.735c0.379,0.1,0.859,0.14,1.439,0.14c2.101,0,3.381-1.04,3.381-2.86
							c0-1.801-1.28-2.66-3.181-2.66c-0.76,0-1.341,0.06-1.64,0.14V45.735z"/>
						<path fill="#FFFFFF" d="M479.714,45.896c0-1.141-0.02-2.121-0.08-3.021h1.541l0.08,1.92h0.06c0.44-1.3,1.521-2.12,2.701-2.12
							c0.18,0,0.319,0.02,0.479,0.04v1.66c-0.18-0.04-0.36-0.04-0.6-0.04c-1.24,0-2.121,0.92-2.361,2.24
							c-0.04,0.24-0.06,0.54-0.06,0.82v5.161h-1.761V45.896z"/>
						<path fill="#FFFFFF" d="M494.817,47.636c0,3.581-2.501,5.141-4.821,5.141c-2.601,0-4.642-1.92-4.642-4.98
							c0-3.221,2.141-5.121,4.802-5.121C492.937,42.675,494.817,44.695,494.817,47.636z M487.155,47.735
							c0,2.121,1.2,3.721,2.921,3.721c1.68,0,2.94-1.58,2.94-3.761c0-1.64-0.82-3.7-2.9-3.7
							C488.056,43.995,487.155,45.915,487.155,47.735z"/>
						<path fill="#FFFFFF" d="M503.936,52.217c-0.46,0.22-1.479,0.56-2.78,0.56c-2.921,0-4.821-1.98-4.821-4.94
							c0-2.98,2.041-5.161,5.201-5.161c1.041,0,1.961,0.26,2.44,0.52l-0.399,1.341c-0.42-0.221-1.08-0.46-2.041-0.46
							c-2.22,0-3.42,1.66-3.42,3.66c0,2.241,1.439,3.621,3.36,3.621c1,0,1.66-0.24,2.16-0.46L503.936,52.217z"/>
						<path fill="#FFFFFF" d="M514.097,49.896c0,1.02,0.02,1.9,0.079,2.66h-1.56l-0.101-1.58h-0.04c-0.439,0.78-1.48,1.8-3.2,1.8
							c-1.521,0-3.341-0.859-3.341-4.24v-5.661h1.761v5.341c0,1.84,0.58,3.101,2.16,3.101c1.18,0,2-0.82,2.32-1.62
							c0.1-0.24,0.16-0.561,0.16-0.9v-5.921h1.761V49.896z"/>
						<path fill="#FFFFFF" d="M517.014,45.896c0-1.141-0.02-2.121-0.08-3.021h1.541l0.08,1.92h0.06c0.44-1.3,1.521-2.12,2.7-2.12
							c0.181,0,0.32,0.02,0.48,0.04v1.66c-0.18-0.04-0.36-0.04-0.6-0.04c-1.24,0-2.121,0.92-2.361,2.24
							c-0.04,0.24-0.06,0.54-0.06,0.82v5.161h-1.761V45.896z"/>
						<path fill="#FFFFFF" d="M524.334,48.036c0.04,2.38,1.54,3.36,3.32,3.36c1.261,0,2.041-0.22,2.681-0.5l0.32,1.26
							c-0.62,0.28-1.7,0.62-3.24,0.62c-2.98,0-4.762-1.98-4.762-4.9c0-2.921,1.721-5.201,4.541-5.201
							c3.181,0,4.001,2.761,4.001,4.541c0,0.359-0.02,0.62-0.06,0.82H524.334z M529.495,46.775c0.021-1.101-0.46-2.841-2.44-2.841
							c-1.801,0-2.561,1.62-2.7,2.841H529.495z"/>
						<path fill="#FFFFFF" d="M537.613,38.354h1.761v6.062h0.04c0.28-0.5,0.72-0.96,1.26-1.261c0.521-0.3,1.141-0.479,1.801-0.479
							c1.301,0,3.381,0.8,3.381,4.121v5.761h-1.761v-5.562c0-1.56-0.58-2.86-2.24-2.86c-1.141,0-2.021,0.8-2.36,1.74
							c-0.101,0.261-0.12,0.521-0.12,0.841v5.841h-1.761V38.354z"/>
						<path fill="#FFFFFF" d="M555.515,50.236c0,0.84,0.04,1.66,0.14,2.32h-1.58l-0.14-1.221h-0.061
							c-0.54,0.761-1.58,1.44-2.96,1.44c-1.961,0-2.961-1.38-2.961-2.78c0-2.341,2.08-3.621,5.821-3.601v-0.2
							c0-0.78-0.22-2.24-2.2-2.221c-0.921,0-1.86,0.261-2.541,0.721l-0.4-1.181c0.801-0.5,1.98-0.84,3.201-0.84
							c2.961,0,3.681,2.021,3.681,3.94V50.236z M553.814,47.615c-1.921-0.04-4.101,0.301-4.101,2.181c0,1.16,0.76,1.681,1.64,1.681
							c1.28,0,2.101-0.801,2.381-1.62c0.06-0.2,0.08-0.4,0.08-0.561V47.615z"/>
						<path fill="#FFFFFF" d="M565.254,52.217c-0.46,0.22-1.479,0.56-2.78,0.56c-2.921,0-4.821-1.98-4.821-4.94
							c0-2.98,2.041-5.161,5.201-5.161c1.041,0,1.961,0.26,2.44,0.52l-0.399,1.341c-0.42-0.221-1.08-0.46-2.041-0.46
							c-2.22,0-3.42,1.66-3.42,3.66c0,2.241,1.439,3.621,3.36,3.621c1,0,1.66-0.24,2.16-0.46L565.254,52.217z"/>
						<path fill="#FFFFFF" d="M568.173,48.036c0.04,2.38,1.54,3.36,3.321,3.36c1.26,0,2.04-0.22,2.68-0.5l0.32,1.26
							c-0.62,0.28-1.7,0.62-3.24,0.62c-2.98,0-4.762-1.98-4.762-4.9c0-2.921,1.721-5.201,4.541-5.201
							c3.181,0,4.001,2.761,4.001,4.541c0,0.359-0.02,0.62-0.06,0.82H568.173z M573.334,46.775c0.021-1.101-0.46-2.841-2.44-2.841
							c-1.801,0-2.561,1.62-2.7,2.841H573.334z"/>
						<path fill="#FFFFFF" d="M577.212,45.896c0-1.141-0.02-2.121-0.08-3.021h1.541l0.08,1.92h0.06c0.44-1.3,1.521-2.12,2.701-2.12
							c0.18,0,0.319,0.02,0.479,0.04v1.66c-0.18-0.04-0.36-0.04-0.6-0.04c-1.24,0-2.121,0.92-2.361,2.24
							c-0.04,0.24-0.06,0.54-0.06,0.82v5.161h-1.761V45.896z"/>
						<path fill="#FFFFFF" d="M587.753,50.776c0.54,0.32,1.46,0.68,2.34,0.68c1.261,0,1.86-0.62,1.86-1.44
							c0-0.84-0.5-1.28-1.78-1.76c-1.76-0.641-2.58-1.58-2.58-2.741c0-1.56,1.28-2.84,3.341-2.84c0.979,0,1.84,0.26,2.36,0.6
							l-0.42,1.28c-0.381-0.24-1.081-0.58-1.98-0.58c-1.041,0-1.601,0.601-1.601,1.32c0,0.801,0.56,1.16,1.82,1.66
							c1.66,0.62,2.54,1.461,2.54,2.901c0,1.72-1.34,2.92-3.601,2.92c-1.06,0-2.04-0.279-2.721-0.68L587.753,50.776z"/>
						<path fill="#FFFFFF" d="M596.893,48.036c0.04,2.38,1.54,3.36,3.32,3.36c1.261,0,2.041-0.22,2.681-0.5l0.32,1.26
							c-0.62,0.28-1.7,0.62-3.24,0.62c-2.98,0-4.762-1.98-4.762-4.9c0-2.921,1.721-5.201,4.541-5.201
							c3.181,0,4.001,2.761,4.001,4.541c0,0.359-0.02,0.62-0.06,0.82H596.893z M602.054,46.775c0.021-1.101-0.46-2.841-2.44-2.841
							c-1.801,0-2.561,1.62-2.7,2.841H602.054z"/>
						<path fill="#FFFFFF" d="M614.214,51.137c0,2.24-0.46,3.58-1.381,4.44c-0.96,0.86-2.32,1.16-3.54,1.16
							c-1.16,0-2.44-0.28-3.221-0.8l0.439-1.36c0.641,0.42,1.641,0.78,2.841,0.78c1.801,0,3.121-0.94,3.121-3.401v-1.06h-0.04
							c-0.521,0.9-1.58,1.62-3.081,1.62c-2.4,0-4.121-2.04-4.121-4.721c0-3.281,2.141-5.121,4.381-5.121
							c1.681,0,2.581,0.86,3.021,1.66h0.04l0.06-1.46h1.561c-0.061,0.68-0.08,1.479-0.08,2.64V51.137z M612.453,46.695
							c0-0.3-0.02-0.56-0.1-0.78c-0.32-1.04-1.16-1.88-2.461-1.88c-1.68,0-2.88,1.42-2.88,3.66c0,1.9,0.979,3.481,2.86,3.481
							c1.1,0,2.08-0.681,2.44-1.801c0.1-0.3,0.14-0.641,0.14-0.94V46.695z"/>
						<path fill="#FFFFFF" d="M625.214,49.896c0,1.02,0.02,1.9,0.079,2.66h-1.56l-0.101-1.58h-0.04c-0.439,0.78-1.48,1.8-3.2,1.8
							c-1.521,0-3.341-0.859-3.341-4.24v-5.661h1.761v5.341c0,1.84,0.58,3.101,2.16,3.101c1.18,0,2-0.82,2.32-1.62
							c0.1-0.24,0.16-0.561,0.16-0.9v-5.921h1.761V49.896z"/>
						<path fill="#FFFFFF" d="M630.092,40.154c0,0.6-0.42,1.08-1.12,1.08c-0.641,0-1.061-0.48-1.061-1.08
							c0-0.601,0.44-1.101,1.101-1.101C629.651,39.054,630.092,39.534,630.092,40.154z M628.131,52.557v-9.682h1.761v9.682H628.131z
							"/>
						<path fill="#FFFFFF" d="M632.811,45.495c0-1.021-0.04-1.82-0.08-2.62h1.541l0.08,1.58h0.06c0.54-0.92,1.44-1.78,3.061-1.78
							c1.301,0,2.301,0.8,2.721,1.94h0.04c0.3-0.561,0.7-0.961,1.101-1.261c0.58-0.439,1.2-0.68,2.12-0.68
							c1.301,0,3.201,0.84,3.201,4.2v5.682h-1.721v-5.461c0-1.881-0.7-2.98-2.101-2.98c-1.021,0-1.78,0.74-2.101,1.58
							c-0.08,0.26-0.14,0.56-0.14,0.88v5.981h-1.721v-5.801c0-1.541-0.68-2.641-2.021-2.641c-1.08,0-1.9,0.88-2.181,1.76
							c-0.1,0.24-0.14,0.561-0.14,0.86v5.821h-1.721V45.495z"/>
						<path fill="#FFFFFF" d="M651.451,40.154c0,0.6-0.42,1.08-1.12,1.08c-0.641,0-1.061-0.48-1.061-1.08
							c0-0.601,0.44-1.101,1.101-1.101C651.011,39.054,651.451,39.534,651.451,40.154z M649.49,52.557v-9.682h1.761v9.682H649.49z"
							/>
						<path fill="#FFFFFF" d="M655.15,48.036c0.04,2.38,1.54,3.36,3.32,3.36c1.261,0,2.041-0.22,2.681-0.5l0.32,1.26
							c-0.62,0.28-1.7,0.62-3.24,0.62c-2.98,0-4.762-1.98-4.762-4.9c0-2.921,1.721-5.201,4.541-5.201
							c3.181,0,4.001,2.761,4.001,4.541c0,0.359-0.02,0.62-0.06,0.82H655.15z M660.312,46.775c0.021-1.101-0.46-2.841-2.44-2.841
							c-1.801,0-2.561,1.62-2.7,2.841H660.312z"/>
						<path fill="#FFFFFF" d="M664.189,45.495c0-1.021-0.02-1.82-0.08-2.62h1.561l0.101,1.6h0.04c0.479-0.899,1.6-1.8,3.2-1.8
							c1.341,0,3.421,0.8,3.421,4.121v5.761h-1.761v-5.581c0-1.561-0.58-2.86-2.24-2.86c-1.141,0-2.04,0.819-2.36,1.8
							c-0.08,0.221-0.12,0.521-0.12,0.82v5.821h-1.761V45.495z"/>
						<path fill="#FFFFFF" d="M677.33,40.554v2.321h2.521v1.34h-2.521v5.221c0,1.2,0.34,1.881,1.32,1.881
							c0.479,0,0.76-0.04,1.02-0.12l0.08,1.341c-0.34,0.119-0.88,0.239-1.56,0.239c-0.82,0-1.48-0.279-1.9-0.74
							c-0.48-0.54-0.681-1.4-0.681-2.54v-5.281h-1.5v-1.34h1.5v-1.801L677.33,40.554z"/>
						<path fill="#FFFFFF" d="M690.473,47.636c0,3.581-2.501,5.141-4.821,5.141c-2.601,0-4.642-1.92-4.642-4.98
							c0-3.221,2.141-5.121,4.802-5.121C688.592,42.675,690.473,44.695,690.473,47.636z M682.811,47.735
							c0,2.121,1.2,3.721,2.921,3.721c1.68,0,2.94-1.58,2.94-3.761c0-1.64-0.82-3.7-2.9-3.7
							C683.711,43.995,682.811,45.915,682.811,47.735z"/>
						<path fill="#FFFFFF" d="M476.497,60.354v11.702c0,0.86,0.04,1.841,0.08,2.501h-1.561l-0.08-1.681h-0.06
							c-0.521,1.08-1.681,1.9-3.262,1.9c-2.34,0-4.16-1.98-4.16-4.921c-0.02-3.221,2-5.181,4.341-5.181c1.501,0,2.48,0.7,2.921,1.46
							h0.039v-5.781H476.497z M474.756,68.815c0-0.22-0.02-0.521-0.079-0.74c-0.261-1.101-1.221-2.021-2.541-2.021
							c-1.82,0-2.9,1.601-2.9,3.721c0,1.961,0.98,3.581,2.86,3.581c1.181,0,2.261-0.8,2.581-2.101c0.06-0.24,0.079-0.48,0.079-0.76
							V68.815z"/>
						<path fill="#FFFFFF" d="M480.415,70.036c0.04,2.38,1.54,3.36,3.321,3.36c1.26,0,2.04-0.22,2.68-0.5l0.32,1.26
							c-0.62,0.28-1.7,0.62-3.24,0.62c-2.98,0-4.762-1.98-4.762-4.9c0-2.921,1.721-5.201,4.541-5.201
							c3.181,0,4.001,2.761,4.001,4.541c0,0.359-0.02,0.62-0.06,0.82H480.415z M485.576,68.775c0.021-1.101-0.46-2.841-2.44-2.841
							c-1.801,0-2.561,1.62-2.7,2.841H485.576z"/>
						<path fill="#FFFFFF" d="M493.694,60.354h1.761v14.203h-1.761V60.354z"/>
						<path fill="#FFFFFF" d="M505.216,72.236c0,0.84,0.04,1.66,0.14,2.32h-1.58l-0.14-1.221h-0.061
							c-0.54,0.761-1.58,1.44-2.96,1.44c-1.961,0-2.961-1.38-2.961-2.78c0-2.341,2.08-3.621,5.821-3.601v-0.2
							c0-0.78-0.22-2.24-2.2-2.221c-0.921,0-1.86,0.261-2.541,0.721l-0.4-1.181c0.801-0.5,1.98-0.84,3.201-0.84
							c2.961,0,3.681,2.021,3.681,3.94V72.236z M503.516,69.615c-1.921-0.04-4.101,0.301-4.101,2.181c0,1.16,0.76,1.681,1.64,1.681
							c1.28,0,2.101-0.801,2.381-1.62c0.06-0.2,0.08-0.4,0.08-0.561V69.615z"/>
						<path fill="#FFFFFF" d="M507.814,72.776c0.54,0.32,1.46,0.68,2.34,0.68c1.261,0,1.86-0.62,1.86-1.44
							c0-0.84-0.5-1.28-1.78-1.76c-1.76-0.641-2.58-1.58-2.58-2.741c0-1.56,1.28-2.84,3.341-2.84c0.979,0,1.84,0.26,2.36,0.6
							l-0.42,1.28c-0.381-0.24-1.081-0.58-1.98-0.58c-1.041,0-1.601,0.601-1.601,1.32c0,0.801,0.56,1.16,1.82,1.66
							c1.66,0.62,2.54,1.461,2.54,2.901c0,1.72-1.34,2.92-3.601,2.92c-1.06,0-2.04-0.279-2.721-0.68L507.814,72.776z"/>
						<path fill="#FFFFFF" d="M520.214,68.035c0-1.24-0.04-2.24-0.08-3.16h1.561l0.101,1.66h0.04c0.7-1.181,1.86-1.86,3.44-1.86
							c2.36,0,4.121,1.98,4.121,4.9c0,3.481-2.141,5.201-4.421,5.201c-1.28,0-2.4-0.56-2.981-1.52h-0.039v5.261h-1.741V68.035z
							 M521.955,70.616c0,0.26,0.02,0.5,0.079,0.72c0.32,1.221,1.381,2.061,2.641,2.061c1.86,0,2.941-1.521,2.941-3.741
							c0-1.92-1.021-3.58-2.881-3.58c-1.2,0-2.341,0.84-2.661,2.16c-0.06,0.22-0.119,0.48-0.119,0.7V70.616z"/>
						<path fill="#FFFFFF" d="M532.574,70.036c0.04,2.38,1.54,3.36,3.32,3.36c1.261,0,2.041-0.22,2.681-0.5l0.32,1.26
							c-0.62,0.28-1.7,0.62-3.24,0.62c-2.98,0-4.762-1.98-4.762-4.9c0-2.921,1.721-5.201,4.541-5.201
							c3.181,0,4.001,2.761,4.001,4.541c0,0.359-0.02,0.62-0.06,0.82H532.574z M537.735,68.775c0.021-1.101-0.46-2.841-2.44-2.841
							c-1.801,0-2.561,1.62-2.7,2.841H537.735z"/>
						<path fill="#FFFFFF" d="M541.613,67.896c0-1.141-0.02-2.121-0.08-3.021h1.541l0.08,1.92h0.06c0.44-1.3,1.521-2.12,2.7-2.12
							c0.181,0,0.32,0.02,0.48,0.04v1.66c-0.18-0.04-0.36-0.04-0.6-0.04c-1.24,0-2.121,0.92-2.361,2.24
							c-0.04,0.24-0.06,0.54-0.06,0.82v5.161h-1.761V67.896z"/>
						<path fill="#FFFFFF" d="M547.914,72.776c0.54,0.32,1.46,0.68,2.34,0.68c1.261,0,1.86-0.62,1.86-1.44
							c0-0.84-0.5-1.28-1.78-1.76c-1.76-0.641-2.58-1.58-2.58-2.741c0-1.56,1.28-2.84,3.341-2.84c0.979,0,1.84,0.26,2.36,0.6
							l-0.42,1.28c-0.381-0.24-1.081-0.58-1.98-0.58c-1.041,0-1.601,0.601-1.601,1.32c0,0.801,0.56,1.16,1.82,1.66
							c1.66,0.62,2.54,1.461,2.54,2.901c0,1.72-1.34,2.92-3.601,2.92c-1.06,0-2.04-0.279-2.721-0.68L547.914,72.776z"/>
						<path fill="#FFFFFF" d="M564.836,69.636c0,3.581-2.501,5.141-4.821,5.141c-2.601,0-4.642-1.92-4.642-4.98
							c0-3.221,2.141-5.121,4.802-5.121C562.955,64.675,564.836,66.695,564.836,69.636z M557.174,69.735
							c0,2.121,1.2,3.721,2.921,3.721c1.68,0,2.94-1.58,2.94-3.761c0-1.64-0.82-3.7-2.9-3.7
							C558.074,65.995,557.174,67.915,557.174,69.735z"/>
						<path fill="#FFFFFF" d="M567.053,67.495c0-1.021-0.02-1.82-0.08-2.62h1.561l0.101,1.6h0.04c0.479-0.899,1.6-1.8,3.2-1.8
							c1.341,0,3.421,0.8,3.421,4.121v5.761h-1.761v-5.581c0-1.561-0.58-2.86-2.24-2.86c-1.141,0-2.04,0.819-2.36,1.8
							c-0.08,0.221-0.12,0.521-0.12,0.82v5.821h-1.761V67.495z"/>
						<path fill="#FFFFFF" d="M584.954,72.236c0,0.84,0.04,1.66,0.14,2.32h-1.58l-0.14-1.221h-0.061
							c-0.54,0.761-1.58,1.44-2.96,1.44c-1.961,0-2.961-1.38-2.961-2.78c0-2.341,2.08-3.621,5.821-3.601v-0.2
							c0-0.78-0.22-2.24-2.2-2.221c-0.921,0-1.86,0.261-2.541,0.721l-0.4-1.181c0.801-0.5,1.98-0.84,3.201-0.84
							c2.961,0,3.681,2.021,3.681,3.94V72.236z M583.254,69.615c-1.921-0.04-4.101,0.301-4.101,2.181c0,1.16,0.76,1.681,1.64,1.681
							c1.28,0,2.101-0.801,2.381-1.62c0.06-0.2,0.08-0.4,0.08-0.561V69.615z"/>
						<path fill="#FFFFFF" d="M587.553,72.776c0.54,0.32,1.46,0.68,2.34,0.68c1.261,0,1.86-0.62,1.86-1.44
							c0-0.84-0.5-1.28-1.78-1.76c-1.76-0.641-2.58-1.58-2.58-2.741c0-1.56,1.28-2.84,3.341-2.84c0.979,0,1.84,0.26,2.36,0.6
							l-0.42,1.28c-0.381-0.24-1.081-0.58-1.98-0.58c-1.041,0-1.601,0.601-1.601,1.32c0,0.801,0.56,1.16,1.82,1.66
							c1.66,0.62,2.54,1.461,2.54,2.901c0,1.72-1.34,2.92-3.601,2.92c-1.06,0-2.04-0.279-2.721-0.68L587.553,72.776z"/>
						<path fill="#FFFFFF" d="M606.854,74.217c-0.46,0.22-1.479,0.56-2.78,0.56c-2.921,0-4.821-1.98-4.821-4.94
							c0-2.98,2.041-5.161,5.201-5.161c1.041,0,1.961,0.26,2.44,0.52l-0.399,1.341c-0.42-0.221-1.08-0.46-2.041-0.46
							c-2.22,0-3.42,1.66-3.42,3.66c0,2.241,1.439,3.621,3.36,3.621c1,0,1.66-0.24,2.16-0.46L606.854,74.217z"/>
						<path fill="#FFFFFF" d="M617.555,69.636c0,3.581-2.501,5.141-4.821,5.141c-2.601,0-4.642-1.92-4.642-4.98
							c0-3.221,2.141-5.121,4.802-5.121C615.674,64.675,617.555,66.695,617.555,69.636z M609.893,69.735
							c0,2.121,1.2,3.721,2.921,3.721c1.68,0,2.94-1.58,2.94-3.761c0-1.64-0.82-3.7-2.9-3.7
							C610.793,65.995,609.893,67.915,609.893,69.735z"/>
						<path fill="#FFFFFF" d="M619.771,67.495c0-1.021-0.02-1.82-0.08-2.62h1.561l0.101,1.6h0.04c0.479-0.899,1.6-1.8,3.2-1.8
							c1.341,0,3.421,0.8,3.421,4.121v5.761h-1.761v-5.581c0-1.561-0.58-2.86-2.24-2.86c-1.141,0-2.04,0.819-2.36,1.8
							c-0.08,0.221-0.12,0.521-0.12,0.82v5.821h-1.761V67.495z"/>
						<path fill="#FFFFFF" d="M635.111,60.354h1.761v14.203h-1.761V60.354z"/>
						<path fill="#FFFFFF" d="M646.633,72.236c0,0.84,0.04,1.66,0.14,2.32h-1.58l-0.14-1.221h-0.061
							c-0.54,0.761-1.58,1.44-2.96,1.44c-1.961,0-2.961-1.38-2.961-2.78c0-2.341,2.08-3.621,5.821-3.601v-0.2
							c0-0.78-0.22-2.24-2.2-2.221c-0.921,0-1.86,0.261-2.541,0.721l-0.4-1.181c0.801-0.5,1.98-0.84,3.201-0.84
							c2.961,0,3.681,2.021,3.681,3.94V72.236z M644.933,69.615c-1.921-0.04-4.101,0.301-4.101,2.181c0,1.16,0.76,1.681,1.64,1.681
							c1.28,0,2.101-0.801,2.381-1.62c0.06-0.2,0.08-0.4,0.08-0.561V69.615z"/>
						<path fill="#FFFFFF" d="M649.231,72.776c0.54,0.32,1.46,0.68,2.34,0.68c1.261,0,1.86-0.62,1.86-1.44
							c0-0.84-0.5-1.28-1.78-1.76c-1.76-0.641-2.58-1.58-2.58-2.741c0-1.56,1.28-2.84,3.341-2.84c0.979,0,1.84,0.26,2.36,0.6
							l-0.42,1.28c-0.381-0.24-1.081-0.58-1.98-0.58c-1.041,0-1.601,0.601-1.601,1.32c0,0.801,0.56,1.16,1.82,1.66
							c1.66,0.62,2.54,1.461,2.54,2.901c0,1.72-1.34,2.92-3.601,2.92c-1.06,0-2.04-0.279-2.721-0.68L649.231,72.776z"/>
						<path fill="#FFFFFF" d="M668.232,73.076h-0.04c-0.54,0.94-1.601,1.7-3.16,1.7c-2.261,0-4.102-1.94-4.102-4.881
							c0-3.641,2.341-5.221,4.381-5.221c1.501,0,2.501,0.74,2.981,1.66h0.04l0.06-1.46h1.66c-0.04,0.8-0.08,1.66-0.08,2.66v10.982
							h-1.74V73.076z M668.232,68.796c0-0.24-0.02-0.501-0.08-0.721c-0.28-1.08-1.2-2-2.521-2c-1.82,0-2.92,1.54-2.92,3.7
							c0,1.94,0.92,3.601,2.86,3.601c1.14,0,2.12-0.7,2.521-1.9c0.08-0.26,0.14-0.6,0.14-0.859V68.796z"/>
						<path fill="#FFFFFF" d="M680.993,71.896c0,1.02,0.02,1.9,0.079,2.66h-1.56l-0.101-1.58h-0.04c-0.439,0.78-1.48,1.8-3.2,1.8
							c-1.521,0-3.341-0.859-3.341-4.24v-5.661h1.761v5.341c0,1.84,0.58,3.101,2.16,3.101c1.18,0,2-0.82,2.32-1.62
							c0.1-0.24,0.16-0.561,0.16-0.9v-5.921h1.761V71.896z"/>
						<path fill="#FFFFFF" d="M684.891,70.036c0.04,2.38,1.54,3.36,3.32,3.36c1.261,0,2.041-0.22,2.681-0.5l0.32,1.26
							c-0.62,0.28-1.7,0.62-3.24,0.62c-2.98,0-4.762-1.98-4.762-4.9c0-2.921,1.721-5.201,4.541-5.201
							c3.181,0,4.001,2.761,4.001,4.541c0,0.359-0.02,0.62-0.06,0.82H684.891z M690.052,68.775c0.021-1.101-0.46-2.841-2.44-2.841
							c-1.801,0-2.561,1.62-2.7,2.841H690.052z"/>
						<path fill="#FFFFFF" d="M475.225,82.354h1.76v6.062h0.041c0.279-0.5,0.72-0.96,1.26-1.261c0.521-0.3,1.141-0.479,1.801-0.479
							c1.3,0,3.38,0.8,3.38,4.121v5.761h-1.76v-5.562c0-1.56-0.58-2.86-2.24-2.86c-1.141,0-2.021,0.8-2.36,1.74
							c-0.101,0.261-0.121,0.521-0.121,0.841v5.841h-1.76V82.354z"/>
						<path fill="#FFFFFF" d="M493.126,94.236c0,0.84,0.04,1.66,0.14,2.32h-1.58l-0.14-1.221h-0.061
							c-0.54,0.761-1.58,1.44-2.96,1.44c-1.961,0-2.961-1.38-2.961-2.78c0-2.341,2.08-3.621,5.821-3.601v-0.2
							c0-0.78-0.22-2.24-2.2-2.221c-0.921,0-1.86,0.261-2.541,0.721l-0.4-1.181c0.801-0.5,1.98-0.84,3.201-0.84
							c2.961,0,3.681,2.021,3.681,3.94V94.236z M491.426,91.615c-1.921-0.04-4.101,0.301-4.101,2.181c0,1.16,0.76,1.681,1.64,1.681
							c1.28,0,2.101-0.801,2.381-1.62c0.06-0.2,0.08-0.4,0.08-0.561V91.615z"/>
						<path fill="#FFFFFF" d="M502.325,84.554v2.321h2.521v1.34h-2.521v5.221c0,1.2,0.34,1.881,1.32,1.881
							c0.479,0,0.76-0.04,1.02-0.12l0.08,1.341c-0.34,0.119-0.88,0.239-1.56,0.239c-0.82,0-1.48-0.279-1.9-0.74
							c-0.48-0.54-0.681-1.4-0.681-2.54v-5.281h-1.5v-1.34h1.5v-1.801L502.325,84.554z"/>
						<path fill="#FFFFFF" d="M507.685,92.036c0.04,2.38,1.54,3.36,3.321,3.36c1.26,0,2.04-0.22,2.68-0.5l0.32,1.26
							c-0.62,0.28-1.7,0.62-3.24,0.62c-2.98,0-4.762-1.98-4.762-4.9c0-2.921,1.721-5.201,4.541-5.201
							c3.181,0,4.001,2.761,4.001,4.541c0,0.359-0.02,0.62-0.06,0.82H507.685z M512.846,90.775c0.021-1.101-0.46-2.841-2.44-2.841
							c-1.801,0-2.561,1.62-2.7,2.841H512.846z"/>
						<path fill="#FFFFFF" d="M516.724,89.495c0-1.021-0.02-1.82-0.08-2.62h1.561l0.101,1.6h0.04c0.479-0.899,1.6-1.8,3.2-1.8
							c1.341,0,3.421,0.8,3.421,4.121v5.761h-1.761v-5.581c0-1.561-0.58-2.86-2.24-2.86c-1.141,0-2.04,0.819-2.36,1.8
							c-0.08,0.221-0.12,0.521-0.12,0.82v5.821h-1.761V89.495z"/>
						<path fill="#FFFFFF" d="M529.784,84.154c0,0.6-0.42,1.08-1.12,1.08c-0.641,0-1.061-0.48-1.061-1.08
							c0-0.601,0.44-1.101,1.101-1.101C529.344,83.054,529.784,83.534,529.784,84.154z M527.823,96.557v-9.682h1.761v9.682H527.823z
							"/>
						<path fill="#FFFFFF" d="M540.845,82.354v11.702c0,0.86,0.04,1.841,0.08,2.501h-1.56l-0.08-1.681h-0.061
							c-0.52,1.08-1.681,1.9-3.261,1.9c-2.341,0-4.161-1.98-4.161-4.921c-0.02-3.221,2.001-5.181,4.342-5.181
							c1.5,0,2.48,0.7,2.92,1.46h0.04v-5.781H540.845z M539.104,90.815c0-0.22-0.02-0.521-0.08-0.74
							c-0.26-1.101-1.22-2.021-2.54-2.021c-1.82,0-2.9,1.601-2.9,3.721c0,1.961,0.979,3.581,2.86,3.581c1.18,0,2.261-0.8,2.58-2.101
							c0.061-0.24,0.08-0.48,0.08-0.76V90.815z"/>
						<path fill="#FFFFFF" d="M552.546,91.636c0,3.581-2.501,5.141-4.821,5.141c-2.601,0-4.642-1.92-4.642-4.98
							c0-3.221,2.141-5.121,4.802-5.121C550.665,86.675,552.546,88.695,552.546,91.636z M544.884,91.735
							c0,2.121,1.2,3.721,2.921,3.721c1.68,0,2.94-1.58,2.94-3.761c0-1.64-0.82-3.7-2.9-3.7
							C545.784,87.995,544.884,89.915,544.884,91.735z"/>
						<path fill="#FFFFFF" d="M565.904,96.217c-0.46,0.22-1.479,0.56-2.78,0.56c-2.921,0-4.821-1.98-4.821-4.94
							c0-2.98,2.041-5.161,5.201-5.161c1.041,0,1.961,0.26,2.44,0.52l-0.399,1.341c-0.42-0.221-1.08-0.46-2.041-0.46
							c-2.22,0-3.42,1.66-3.42,3.66c0,2.241,1.439,3.621,3.36,3.621c1,0,1.66-0.24,2.16-0.46L565.904,96.217z"/>
						<path fill="#FFFFFF" d="M576.605,91.636c0,3.581-2.501,5.141-4.821,5.141c-2.601,0-4.642-1.92-4.642-4.98
							c0-3.221,2.141-5.121,4.802-5.121C574.725,86.675,576.605,88.695,576.605,91.636z M568.943,91.735
							c0,2.121,1.2,3.721,2.921,3.721c1.68,0,2.94-1.58,2.94-3.761c0-1.64-0.82-3.7-2.9-3.7
							C569.844,87.995,568.943,89.915,568.943,91.735z"/>
						<path fill="#FFFFFF" d="M578.822,89.495c0-1.021-0.02-1.82-0.08-2.62h1.561l0.101,1.6h0.04c0.479-0.899,1.6-1.8,3.2-1.8
							c1.341,0,3.421,0.8,3.421,4.121v5.761h-1.761v-5.581c0-1.561-0.58-2.86-2.24-2.86c-1.141,0-2.04,0.819-2.36,1.8
							c-0.08,0.221-0.12,0.521-0.12,0.82v5.821h-1.761V89.495z"/>
						<path fill="#FFFFFF" d="M590.343,86.875l1.9,5.421c0.32,0.9,0.58,1.7,0.78,2.5h0.06c0.221-0.8,0.5-1.6,0.82-2.5l1.881-5.421
							h1.84l-3.801,9.682h-1.681l-3.681-9.682H590.343z"/>
						<path fill="#FFFFFF" d="M600.063,92.036c0.04,2.38,1.54,3.36,3.321,3.36c1.26,0,2.04-0.22,2.68-0.5l0.32,1.26
							c-0.62,0.28-1.7,0.62-3.24,0.62c-2.98,0-4.762-1.98-4.762-4.9c0-2.921,1.721-5.201,4.541-5.201
							c3.181,0,4.001,2.761,4.001,4.541c0,0.359-0.02,0.62-0.06,0.82H600.063z M605.225,90.775c0.021-1.101-0.46-2.841-2.44-2.841
							c-1.801,0-2.561,1.62-2.7,2.841H605.225z"/>
						<path fill="#FFFFFF" d="M609.103,89.896c0-1.141-0.02-2.121-0.08-3.021h1.541l0.08,1.92h0.06c0.44-1.3,1.521-2.12,2.701-2.12
							c0.18,0,0.319,0.02,0.479,0.04v1.66c-0.18-0.04-0.36-0.04-0.6-0.04c-1.24,0-2.121,0.92-2.361,2.24
							c-0.04,0.24-0.06,0.54-0.06,0.82v5.161h-1.761V89.896z"/>
						<path fill="#FFFFFF" d="M615.403,94.776c0.54,0.32,1.46,0.68,2.34,0.68c1.261,0,1.86-0.62,1.86-1.44
							c0-0.84-0.5-1.28-1.78-1.76c-1.76-0.641-2.58-1.58-2.58-2.741c0-1.56,1.28-2.84,3.341-2.84c0.979,0,1.84,0.26,2.36,0.6
							l-0.42,1.28c-0.381-0.24-1.081-0.58-1.98-0.58c-1.041,0-1.601,0.601-1.601,1.32c0,0.801,0.56,1.16,1.82,1.66
							c1.66,0.62,2.54,1.461,2.54,2.901c0,1.72-1.34,2.92-3.601,2.92c-1.06,0-2.04-0.279-2.721-0.68L615.403,94.776z"/>
						<path fill="#FFFFFF" d="M630.364,94.236c0,0.84,0.04,1.66,0.14,2.32h-1.58l-0.14-1.221h-0.061
							c-0.54,0.761-1.58,1.44-2.96,1.44c-1.961,0-2.961-1.38-2.961-2.78c0-2.341,2.08-3.621,5.821-3.601v-0.2
							c0-0.78-0.22-2.24-2.2-2.221c-0.921,0-1.86,0.261-2.541,0.721l-0.4-1.181c0.801-0.5,1.98-0.84,3.201-0.84
							c2.961,0,3.681,2.021,3.681,3.94V94.236z M628.664,91.615c-1.921-0.04-4.101,0.301-4.101,2.181c0,1.16,0.76,1.681,1.64,1.681
							c1.28,0,2.101-0.801,2.381-1.62c0.06-0.2,0.08-0.4,0.08-0.561V91.615z"/>
						<path fill="#FFFFFF" d="M640.104,96.217c-0.46,0.22-1.479,0.56-2.78,0.56c-2.921,0-4.821-1.98-4.821-4.94
							c0-2.98,2.041-5.161,5.201-5.161c1.041,0,1.961,0.26,2.44,0.52l-0.399,1.341c-0.42-0.221-1.08-0.46-2.041-0.46
							c-2.22,0-3.42,1.66-3.42,3.66c0,2.241,1.439,3.621,3.36,3.621c1,0,1.66-0.24,2.16-0.46L640.104,96.217z"/>
						<path fill="#FFFFFF" d="M644.123,84.154c0,0.6-0.42,1.08-1.12,1.08c-0.641,0-1.061-0.48-1.061-1.08
							c0-0.601,0.44-1.101,1.101-1.101C643.683,83.054,644.123,83.534,644.123,84.154z M642.162,96.557v-9.682h1.761v9.682H642.162z
							"/>
						<path fill="#FFFFFF" d="M655.604,91.636c0,3.581-2.501,5.141-4.821,5.141c-2.601,0-4.642-1.92-4.642-4.98
							c0-3.221,2.141-5.121,4.802-5.121C653.724,86.675,655.604,88.695,655.604,91.636z M647.942,91.735
							c0,2.121,1.2,3.721,2.921,3.721c1.68,0,2.94-1.58,2.94-3.761c0-1.64-0.82-3.7-2.9-3.7
							C648.843,87.995,647.942,89.915,647.942,91.735z"/>
						<path fill="#FFFFFF" d="M657.821,89.495c0-1.021-0.02-1.82-0.08-2.62h1.561l0.101,1.6h0.04c0.479-0.899,1.6-1.8,3.2-1.8
							c1.341,0,3.421,0.8,3.421,4.121v5.761h-1.761v-5.581c0-1.561-0.58-2.86-2.24-2.86c-1.141,0-2.04,0.819-2.36,1.8
							c-0.08,0.221-0.12,0.521-0.12,0.82v5.821h-1.761V89.495z"/>
						<path fill="#FFFFFF" d="M669.901,92.036c0.04,2.38,1.54,3.36,3.321,3.36c1.26,0,2.04-0.22,2.68-0.5l0.32,1.26
							c-0.62,0.28-1.7,0.62-3.24,0.62c-2.98,0-4.762-1.98-4.762-4.9c0-2.921,1.721-5.201,4.541-5.201
							c3.181,0,4.001,2.761,4.001,4.541c0,0.359-0.02,0.62-0.06,0.82H669.901z M675.062,90.775c0.021-1.101-0.46-2.841-2.44-2.841
							c-1.801,0-2.561,1.62-2.7,2.841H675.062z"/>
						<path fill="#FFFFFF" d="M678.701,94.776c0.54,0.32,1.46,0.68,2.34,0.68c1.261,0,1.86-0.62,1.86-1.44
							c0-0.84-0.5-1.28-1.78-1.76c-1.76-0.641-2.58-1.58-2.58-2.741c0-1.56,1.28-2.84,3.341-2.84c0.979,0,1.84,0.26,2.36,0.6
							l-0.42,1.28c-0.381-0.24-1.081-0.58-1.98-0.58c-1.041,0-1.601,0.601-1.601,1.32c0,0.801,0.56,1.16,1.82,1.66
							c1.66,0.62,2.54,1.461,2.54,2.901c0,1.72-1.34,2.92-3.601,2.92c-1.06,0-2.04-0.279-2.721-0.68L678.701,94.776z"/>
						<path fill="#FFFFFF" d="M548.755,104.354v11.702c0,0.86,0.04,1.841,0.08,2.501h-1.56l-0.08-1.681h-0.061
							c-0.52,1.08-1.681,1.9-3.261,1.9c-2.341,0-4.161-1.98-4.161-4.921c-0.02-3.221,2.001-5.181,4.342-5.181
							c1.5,0,2.48,0.7,2.92,1.46h0.04v-5.781H548.755z M547.015,112.815c0-0.22-0.02-0.521-0.08-0.74
							c-0.26-1.101-1.22-2.021-2.54-2.021c-1.82,0-2.9,1.601-2.9,3.721c0,1.961,0.979,3.581,2.86,3.581c1.18,0,2.261-0.8,2.58-2.101
							c0.061-0.24,0.08-0.48,0.08-0.76V112.815z"/>
						<path fill="#FFFFFF" d="M552.674,114.036c0.04,2.38,1.54,3.36,3.32,3.36c1.261,0,2.041-0.22,2.681-0.5l0.32,1.26
							c-0.62,0.28-1.7,0.62-3.24,0.62c-2.98,0-4.762-1.98-4.762-4.9c0-2.921,1.721-5.201,4.541-5.201
							c3.181,0,4.001,2.761,4.001,4.541c0,0.359-0.02,0.62-0.06,0.82H552.674z M557.835,112.775c0.021-1.101-0.46-2.841-2.44-2.841
							c-1.801,0-2.561,1.62-2.7,2.841H557.835z"/>
						<path fill="#FFFFFF" d="M572.755,116.236c0,0.84,0.04,1.66,0.14,2.32h-1.58l-0.14-1.221h-0.061
							c-0.54,0.761-1.58,1.44-2.96,1.44c-1.961,0-2.961-1.38-2.961-2.78c0-2.341,2.08-3.621,5.821-3.601v-0.2
							c0-0.78-0.22-2.24-2.2-2.221c-0.921,0-1.86,0.261-2.541,0.721l-0.4-1.181c0.801-0.5,1.98-0.84,3.201-0.84
							c2.961,0,3.681,2.021,3.681,3.94V116.236z M571.055,113.615c-1.921-0.04-4.101,0.301-4.101,2.181
							c0,1.16,0.76,1.681,1.64,1.681c1.28,0,2.101-0.801,2.381-1.62c0.06-0.2,0.08-0.4,0.08-0.561V113.615z"/>
						<path fill="#FFFFFF" d="M575.593,112.035c0-1.24-0.04-2.24-0.08-3.16h1.561l0.101,1.66h0.04c0.7-1.181,1.86-1.86,3.44-1.86
							c2.36,0,4.121,1.98,4.121,4.9c0,3.481-2.141,5.201-4.421,5.201c-1.28,0-2.4-0.56-2.981-1.52h-0.039v5.261h-1.741V112.035z
							 M577.334,114.616c0,0.26,0.02,0.5,0.079,0.72c0.32,1.221,1.381,2.061,2.641,2.061c1.86,0,2.941-1.521,2.941-3.741
							c0-1.92-1.021-3.58-2.881-3.58c-1.2,0-2.341,0.84-2.661,2.16c-0.06,0.22-0.119,0.48-0.119,0.7V114.616z"/>
						<path fill="#FFFFFF" d="M595.735,113.636c0,3.581-2.501,5.141-4.821,5.141c-2.601,0-4.642-1.92-4.642-4.98
							c0-3.221,2.141-5.121,4.802-5.121C593.854,108.675,595.735,110.695,595.735,113.636z M588.073,113.735
							c0,2.121,1.2,3.721,2.921,3.721c1.68,0,2.94-1.58,2.94-3.761c0-1.64-0.82-3.7-2.9-3.7
							C588.974,109.995,588.073,111.915,588.073,113.735z"/>
						<path fill="#FFFFFF" d="M598.453,108.875l2.101,5.721c0.24,0.641,0.479,1.4,0.64,1.98h0.04c0.181-0.58,0.38-1.32,0.62-2.021
							l1.921-5.681h1.86l-2.641,6.901c-1.261,3.32-2.121,5.001-3.321,6.061c-0.88,0.74-1.72,1.041-2.16,1.121l-0.44-1.461
							c0.44-0.14,1.021-0.42,1.541-0.86c0.479-0.38,1.06-1.06,1.48-1.96c0.08-0.18,0.14-0.32,0.14-0.42c0-0.101-0.04-0.24-0.14-0.46
							l-3.562-8.922H598.453z"/>
						<path fill="#FFFFFF" d="M615.795,113.636c0,3.581-2.501,5.141-4.821,5.141c-2.601,0-4.642-1.92-4.642-4.98
							c0-3.221,2.141-5.121,4.802-5.121C613.914,108.675,615.795,110.695,615.795,113.636z M608.133,113.735
							c0,2.121,1.2,3.721,2.921,3.721c1.68,0,2.94-1.58,2.94-3.761c0-1.64-0.82-3.7-2.9-3.7
							C609.033,109.995,608.133,111.915,608.133,113.735z"/>
						<path fill="#FFFFFF" d="M617.112,117.517c0-0.721,0.5-1.261,1.2-1.261s1.181,0.521,1.181,1.261c0,0.72-0.48,1.26-1.221,1.26
							C617.593,118.776,617.112,118.236,617.112,117.517z"/>
					</g>
				</g>
			</g>
		</g>
		<path fill="none" stroke="#A2B735" stroke-width="5" stroke-miterlimit="10" stroke-dasharray="4" d="M431.042,143.131
			c0,0,11.28-2.075,18.005-4.841c7.92-3.257,19.497-11.939,19.497-11.939"/>
	</g>
	<g>
		<rect x="338.442" y="124.948" fill="#EBE760" fill-opacity="0.4" width="87.138" height="25.702"/>
	</g>
	<g>
		<rect y="154.055" fill="#EBE760" fill-opacity="0.4" width="333.018" height="25.702"/>
	</g>
	<g>
		<rect x="127.407" y="179.756" fill="#EBE760" fill-opacity="0.4" width="259.376" height="25.702"/>
	</g>
</g>
</svg>
