<?xml version="1.0" encoding="utf-8"?>
<!-- Generator: Adobe Illustrator 16.0.0, SVG Export Plug-In . SVG Version: 6.00 Build 0)  -->
<!DOCTYPE svg PUBLIC "-//W3C//DTD SVG 1.1//EN" "http://www.w3.org/Graphics/SVG/1.1/DTD/svg11.dtd">
<svg version="1.1" id="Capa_1" xmlns="http://www.w3.org/2000/svg" xmlns:xlink="http://www.w3.org/1999/xlink" x="0px" y="0px"
	 width="710.051px" height="191.011px" viewBox="0 0 710.051 191.011" enable-background="new 0 0 710.051 191.011"
	 xml:space="preserve">
<g>
	<g>
		<g>
			<g>
				<path fill-rule="evenodd" clip-rule="evenodd" fill="#C15921" d="M710.05,179.468c0,6.376-5.168,11.543-11.543,11.543H510.022
					c-6.375,0-11.543-5.167-11.543-11.543V11.542C498.479,5.167,503.647,0,510.022,0h188.484c6.375,0,11.543,5.167,11.543,11.542
					V179.468z"/>
				<g>
					<g>
						<path fill="#FFFFFF" d="M527.727,20.703c0.895-0.146,2.207-0.255,3.703-0.255c1.822,0,3.1,0.273,3.975,0.966
							c0.748,0.584,1.148,1.459,1.148,2.59c0,1.55-1.111,2.626-2.17,3.009v0.055c0.857,0.346,1.332,1.148,1.641,2.279
							c0.383,1.403,0.748,3.009,0.984,3.482h-2.844c-0.182-0.364-0.492-1.35-0.838-2.862c-0.348-1.551-0.877-1.951-2.025-1.97h-0.82
							v4.832h-2.754V20.703z M530.48,25.991h1.094c1.387,0,2.207-0.692,2.207-1.769c0-1.112-0.766-1.696-2.043-1.696
							c-0.674,0-1.057,0.037-1.258,0.092V25.991z"/>
						<path fill="#FFFFFF" d="M540.586,29.255c0.072,1.149,1.221,1.696,2.516,1.696c0.947,0,1.713-0.128,2.461-0.383l0.365,1.878
							c-0.912,0.383-2.023,0.565-3.227,0.565c-3.027,0-4.76-1.751-4.76-4.541c0-2.261,1.404-4.759,4.504-4.759
							c2.881,0,3.975,2.243,3.975,4.449c0,0.474-0.055,0.894-0.092,1.094H540.586z M543.85,27.358c0-0.674-0.293-1.805-1.568-1.805
							c-1.168,0-1.641,1.076-1.715,1.805H543.85z"/>
						<path fill="#FFFFFF" d="M551.182,21.506v2.406h1.986v2.043h-1.986v3.228c0,1.075,0.273,1.567,1.094,1.567
							c0.383,0,0.564-0.018,0.82-0.072l0.018,2.097c-0.346,0.128-1.02,0.237-1.785,0.237c-0.895,0-1.643-0.311-2.098-0.766
							c-0.51-0.529-0.766-1.387-0.766-2.645v-3.646h-1.186v-2.043h1.186v-1.659L551.182,21.506z"/>
						<path fill="#FFFFFF" d="M554.775,26.849c0-1.313-0.02-2.17-0.074-2.937h2.371l0.109,1.642h0.072
							c0.457-1.312,1.533-1.86,2.408-1.86c0.254,0,0.383,0.019,0.584,0.055v2.607c-0.221-0.036-0.439-0.072-0.748-0.072
							c-1.021,0-1.715,0.547-1.896,1.404c-0.037,0.182-0.055,0.4-0.055,0.619v4.522h-2.771V26.849z"/>
						<path fill="#FFFFFF" d="M570.367,28.271c0,3.264-2.316,4.759-4.705,4.759c-2.607,0-4.613-1.714-4.613-4.595
							c0-2.899,1.896-4.741,4.777-4.741C568.543,23.693,570.367,25.572,570.367,28.271z M563.912,28.361
							c0,1.532,0.639,2.681,1.824,2.681c1.094,0,1.768-1.075,1.768-2.698c0-1.313-0.51-2.662-1.768-2.662
							C564.422,25.682,563.912,27.049,563.912,28.361z"/>
						<path fill="#FFFFFF" d="M579.504,30.678c0,0.839,0.037,1.659,0.146,2.151h-2.498l-0.164-0.894h-0.055
							c-0.584,0.711-1.494,1.094-2.553,1.094c-1.805,0-2.881-1.312-2.881-2.734c0-2.316,2.078-3.41,5.232-3.41v-0.109
							c0-0.492-0.254-1.167-1.621-1.167c-0.912,0-1.879,0.31-2.463,0.675l-0.51-1.787c0.619-0.347,1.842-0.803,3.465-0.803
							c2.971,0,3.9,1.751,3.9,3.866V30.678z M576.824,28.617c-1.459,0-2.59,0.347-2.59,1.404c0,0.711,0.475,1.057,1.096,1.057
							c0.674,0,1.258-0.455,1.439-1.021c0.037-0.146,0.055-0.311,0.055-0.475V28.617z"/>
						<path fill="#FFFFFF" d="M581.713,19.883h2.771v12.946h-2.771V19.883z"/>
						<path fill="#FFFFFF" d="M589.592,21.433c0,0.766-0.564,1.386-1.496,1.386c-0.875,0-1.439-0.62-1.439-1.386
							c0-0.784,0.584-1.386,1.477-1.386C589.027,20.047,589.574,20.648,589.592,21.433z M586.729,32.829v-8.917h2.771v8.917H586.729
							z"/>
						<path fill="#FFFFFF" d="M591.727,26.757c0-1.112-0.037-2.042-0.074-2.845h2.354l0.109,1.204h0.055
							c0.383-0.584,1.186-1.423,2.697-1.423c1.168,0,2.061,0.603,2.443,1.532h0.037c0.348-0.475,0.73-0.839,1.168-1.094
							c0.492-0.274,1.039-0.438,1.695-0.438c1.713,0,3.008,1.204,3.008,3.885v5.251h-2.697v-4.851c0-1.294-0.42-2.042-1.314-2.042
							c-0.656,0-1.094,0.438-1.293,0.967c-0.055,0.2-0.092,0.474-0.092,0.711v5.215h-2.699v-5.015c0-1.112-0.4-1.878-1.295-1.878
							c-0.711,0-1.129,0.547-1.295,0.984c-0.09,0.219-0.109,0.475-0.109,0.712v5.196h-2.697V26.757z"/>
						<path fill="#FFFFFF" d="M609.545,29.255c0.072,1.149,1.223,1.696,2.516,1.696c0.949,0,1.715-0.128,2.463-0.383l0.363,1.878
							c-0.91,0.383-2.023,0.565-3.227,0.565c-3.027,0-4.76-1.751-4.76-4.541c0-2.261,1.404-4.759,4.504-4.759
							c2.881,0,3.977,2.243,3.977,4.449c0,0.474-0.055,0.894-0.092,1.094H609.545z M612.809,27.358c0-0.674-0.291-1.805-1.568-1.805
							c-1.166,0-1.641,1.076-1.713,1.805H612.809z"/>
						<path fill="#FFFFFF" d="M617.041,26.757c0-1.112-0.035-2.042-0.072-2.845h2.406l0.129,1.24h0.055
							c0.363-0.583,1.258-1.44,2.752-1.44c1.824,0,3.191,1.222,3.191,3.848v5.27h-2.771v-4.941c0-1.148-0.4-1.933-1.404-1.933
							c-0.766,0-1.221,0.528-1.422,1.039c-0.072,0.183-0.092,0.438-0.092,0.693v5.142h-2.771V26.757z"/>
						<path fill="#FFFFFF" d="M630.719,21.506v2.406h1.988v2.043h-1.988v3.228c0,1.075,0.273,1.567,1.096,1.567
							c0.383,0,0.564-0.018,0.82-0.072l0.018,2.097c-0.346,0.128-1.021,0.237-1.787,0.237c-0.893,0-1.641-0.311-2.098-0.766
							c-0.51-0.529-0.766-1.387-0.766-2.645v-3.646h-1.186v-2.043h1.186v-1.659L630.719,21.506z"/>
						<path fill="#FFFFFF" d="M641.734,30.678c0,0.839,0.037,1.659,0.146,2.151h-2.498l-0.164-0.894h-0.055
							c-0.584,0.711-1.496,1.094-2.553,1.094c-1.807,0-2.883-1.312-2.883-2.734c0-2.316,2.08-3.41,5.234-3.41v-0.109
							c0-0.492-0.256-1.167-1.623-1.167c-0.912,0-1.879,0.31-2.461,0.675l-0.512-1.787c0.621-0.347,1.842-0.803,3.465-0.803
							c2.973,0,3.902,1.751,3.902,3.866V30.678z M639.055,28.617c-1.459,0-2.59,0.347-2.59,1.404c0,0.711,0.475,1.057,1.094,1.057
							c0.674,0,1.258-0.455,1.441-1.021c0.035-0.146,0.055-0.311,0.055-0.475V28.617z"/>
						<path fill="#FFFFFF" d="M650.635,32.592c-0.492,0.237-1.422,0.42-2.48,0.42c-2.881,0-4.723-1.769-4.723-4.559
							c0-2.607,1.787-4.741,5.105-4.741c0.73,0,1.533,0.128,2.115,0.347l-0.438,2.061c-0.328-0.146-0.82-0.273-1.549-0.273
							c-1.459,0-2.408,1.039-2.389,2.498c0,1.623,1.094,2.498,2.443,2.498c0.656,0,1.166-0.109,1.586-0.292L650.635,32.592z"/>
						<path fill="#FFFFFF" d="M655.031,21.433c0,0.766-0.564,1.386-1.496,1.386c-0.875,0-1.439-0.62-1.439-1.386
							c0-0.784,0.584-1.386,1.477-1.386C654.467,20.047,655.014,20.648,655.031,21.433z M652.168,32.829v-8.917h2.771v8.917H652.168
							z"/>
						<path fill="#FFFFFF" d="M665.973,28.271c0,3.264-2.316,4.759-4.705,4.759c-2.607,0-4.613-1.714-4.613-4.595
							c0-2.899,1.896-4.741,4.777-4.741C664.148,23.693,665.973,25.572,665.973,28.271z M659.518,28.361
							c0,1.532,0.639,2.681,1.824,2.681c1.094,0,1.768-1.075,1.768-2.698c0-1.313-0.51-2.662-1.768-2.662
							C660.027,25.682,659.518,27.049,659.518,28.361z M664.203,20.028l-2.225,2.771h-1.896l1.568-2.771H664.203z"/>
						<path fill="#FFFFFF" d="M667.689,26.757c0-1.112-0.037-2.042-0.074-2.845h2.408l0.127,1.24h0.055
							c0.365-0.583,1.258-1.44,2.754-1.44c1.822,0,3.191,1.222,3.191,3.848v5.27h-2.771v-4.941c0-1.148-0.402-1.933-1.404-1.933
							c-0.766,0-1.223,0.528-1.424,1.039c-0.072,0.183-0.09,0.438-0.09,0.693v5.142h-2.771V26.757z"/>
						<path fill="#FFFFFF" d="M678.193,25.48c0-0.984,0.676-1.678,1.623-1.678c0.967,0,1.605,0.675,1.623,1.678
							c0,0.948-0.639,1.659-1.641,1.659C678.85,27.14,678.193,26.429,678.193,25.48z M678.193,31.37
							c0-0.984,0.676-1.678,1.623-1.678c0.967,0,1.605,0.675,1.623,1.678c0,0.948-0.639,1.659-1.641,1.659
							C678.85,33.029,678.193,32.318,678.193,31.37z"/>
						<path fill="#FFFFFF" d="M512.734,40.766c0.803-0.146,1.971-0.255,3.045-0.255c1.697,0,2.809,0.328,3.557,1.003
							c0.602,0.547,0.967,1.386,0.967,2.352c0,1.605-1.021,2.681-2.299,3.118v0.055c0.932,0.328,1.496,1.204,1.787,2.48
							c0.402,1.714,0.693,2.899,0.949,3.373H519.1c-0.201-0.364-0.475-1.404-0.803-2.936c-0.365-1.696-1.039-2.334-2.48-2.389
							h-1.494v5.324h-1.588V40.766z M514.322,46.363h1.621c1.697,0,2.771-0.93,2.771-2.334c0-1.586-1.148-2.279-2.826-2.279
							c-0.766,0-1.293,0.055-1.566,0.128V46.363z"/>
						<path fill="#FFFFFF" d="M523.459,48.771c0.037,2.17,1.404,3.063,3.027,3.063c1.148,0,1.859-0.2,2.443-0.456l0.291,1.149
							c-0.564,0.255-1.549,0.564-2.953,0.564c-2.717,0-4.34-1.805-4.34-4.467s1.568-4.741,4.139-4.741c2.9,0,3.646,2.517,3.646,4.14
							c0,0.328-0.018,0.564-0.055,0.747H523.459z M528.164,47.622c0.018-1.003-0.42-2.59-2.225-2.59
							c-1.641,0-2.334,1.478-2.461,2.59H528.164z"/>
						<path fill="#FFFFFF" d="M537.994,52.582c-0.42,0.2-1.35,0.51-2.535,0.51c-2.662,0-4.393-1.805-4.393-4.504
							c0-2.717,1.859-4.704,4.74-4.704c0.947,0,1.787,0.237,2.225,0.475l-0.365,1.222c-0.383-0.201-0.984-0.42-1.859-0.42
							c-2.023,0-3.119,1.514-3.119,3.337c0,2.042,1.314,3.301,3.064,3.301c0.912,0,1.514-0.219,1.969-0.42L537.994,52.582z"/>
						<path fill="#FFFFFF" d="M547.26,50.467c0,0.93,0.018,1.731,0.072,2.425h-1.422l-0.092-1.44h-0.035
							c-0.402,0.711-1.35,1.641-2.918,1.641c-1.387,0-3.045-0.783-3.045-3.865v-5.16h1.604v4.868c0,1.678,0.529,2.826,1.971,2.826
							c1.074,0,1.822-0.747,2.115-1.477c0.09-0.219,0.145-0.511,0.145-0.82v-5.397h1.605V50.467z"/>
						<path fill="#FFFFFF" d="M550.818,48.771c0.035,2.17,1.404,3.063,3.027,3.063c1.148,0,1.859-0.2,2.443-0.456l0.291,1.149
							c-0.566,0.255-1.551,0.564-2.955,0.564c-2.717,0-4.338-1.805-4.338-4.467s1.566-4.741,4.139-4.741
							c2.898,0,3.646,2.517,3.646,4.14c0,0.328-0.018,0.564-0.055,0.747H550.818z M555.521,47.622c0.02-1.003-0.418-2.59-2.225-2.59
							c-1.641,0-2.334,1.478-2.461,2.59H555.521z"/>
						<path fill="#FFFFFF" d="M559.062,46.819c0-1.039-0.02-1.933-0.074-2.753h1.404l0.074,1.75h0.055
							c0.4-1.185,1.385-1.933,2.461-1.933c0.164,0,0.291,0.019,0.438,0.036v1.514c-0.164-0.036-0.328-0.036-0.547-0.036
							c-1.131,0-1.934,0.839-2.152,2.042c-0.035,0.219-0.055,0.492-0.055,0.748v4.704h-1.604V46.819z"/>
						<path fill="#FFFFFF" d="M572.447,39.945v10.667c0,0.784,0.037,1.678,0.072,2.279h-1.422l-0.072-1.531h-0.055
							c-0.475,0.984-1.533,1.731-2.973,1.731c-2.133,0-3.793-1.805-3.793-4.485c-0.018-2.936,1.824-4.723,3.957-4.723
							c1.367,0,2.262,0.639,2.662,1.331h0.037v-5.27H572.447z M570.861,47.658c0-0.2-0.02-0.474-0.074-0.675
							c-0.236-1.003-1.111-1.842-2.314-1.842c-1.66,0-2.645,1.459-2.645,3.392c0,1.787,0.893,3.265,2.607,3.265
							c1.076,0,2.061-0.729,2.352-1.915c0.055-0.219,0.074-0.438,0.074-0.692V47.658z"/>
						<path fill="#FFFFFF" d="M576.023,48.771c0.035,2.17,1.404,3.063,3.027,3.063c1.148,0,1.859-0.2,2.443-0.456l0.291,1.149
							c-0.566,0.255-1.551,0.564-2.955,0.564c-2.717,0-4.338-1.805-4.338-4.467s1.566-4.741,4.139-4.741
							c2.898,0,3.646,2.517,3.646,4.14c0,0.328-0.018,0.564-0.055,0.747H576.023z M580.727,47.622c0.02-1.003-0.418-2.59-2.225-2.59
							c-1.641,0-2.334,1.478-2.461,2.59H580.727z"/>
						<path fill="#FFFFFF" d="M594.15,51.542h-0.037c-0.492,0.857-1.457,1.55-2.881,1.55c-2.061,0-3.736-1.769-3.736-4.449
							c0-3.318,2.133-4.759,3.992-4.759c1.367,0,2.279,0.675,2.717,1.514h0.037l0.055-1.331h1.514
							c-0.037,0.729-0.074,1.514-0.074,2.425v10.011h-1.586V51.542z M594.15,47.641c0-0.22-0.018-0.456-0.072-0.657
							c-0.256-0.984-1.094-1.823-2.299-1.823c-1.658,0-2.662,1.404-2.662,3.373c0,1.77,0.84,3.282,2.607,3.282
							c1.041,0,1.934-0.638,2.299-1.731c0.072-0.237,0.127-0.548,0.127-0.784V47.641z"/>
						<path fill="#FFFFFF" d="M605.787,50.467c0,0.93,0.018,1.731,0.072,2.425h-1.422l-0.092-1.44h-0.035
							c-0.402,0.711-1.35,1.641-2.918,1.641c-1.387,0-3.045-0.783-3.045-3.865v-5.16h1.604v4.868c0,1.678,0.529,2.826,1.971,2.826
							c1.074,0,1.822-0.747,2.115-1.477c0.09-0.219,0.145-0.511,0.145-0.82v-5.397h1.605V50.467z"/>
						<path fill="#FFFFFF" d="M609.346,48.771c0.035,2.17,1.404,3.063,3.027,3.063c1.148,0,1.859-0.2,2.443-0.456l0.291,1.149
							c-0.566,0.255-1.551,0.564-2.955,0.564c-2.717,0-4.338-1.805-4.338-4.467s1.566-4.741,4.139-4.741
							c2.898,0,3.646,2.517,3.646,4.14c0,0.328-0.018,0.564-0.055,0.747H609.346z M614.049,47.622c0.02-1.003-0.418-2.59-2.225-2.59
							c-1.641,0-2.334,1.478-2.461,2.59H614.049z"/>
						<path fill="#FFFFFF" d="M622.35,48.771c0.035,2.17,1.404,3.063,3.027,3.063c1.148,0,1.859-0.2,2.443-0.456l0.291,1.149
							c-0.566,0.255-1.551,0.564-2.955,0.564c-2.717,0-4.338-1.805-4.338-4.467s1.566-4.741,4.139-4.741
							c2.898,0,3.646,2.517,3.646,4.14c0,0.328-0.018,0.564-0.055,0.747H622.35z M627.053,47.622c0.02-1.003-0.418-2.59-2.225-2.59
							c-1.641,0-2.334,1.478-2.461,2.59H627.053z"/>
						<path fill="#FFFFFF" d="M630.594,39.945h1.604v12.946h-1.604V39.945z"/>
						<path fill="#FFFFFF" d="M638.764,46.819c0-1.039-0.018-1.933-0.072-2.753h1.404l0.072,1.75h0.055
							c0.402-1.185,1.387-1.933,2.463-1.933c0.164,0,0.291,0.019,0.438,0.036v1.514c-0.164-0.036-0.328-0.036-0.549-0.036
							c-1.129,0-1.932,0.839-2.15,2.042c-0.037,0.219-0.055,0.492-0.055,0.748v4.704h-1.605V46.819z"/>
						<path fill="#FFFFFF" d="M646.588,41.586c0,0.548-0.383,0.985-1.021,0.985c-0.582,0-0.965-0.438-0.965-0.985
							c0-0.547,0.4-1.003,1.002-1.003C646.188,40.583,646.588,41.021,646.588,41.586z M644.801,52.892v-8.825h1.605v8.825H644.801z"
							/>
						<path fill="#FFFFFF" d="M651.002,41.951v2.115h2.297v1.222h-2.297v4.759c0,1.094,0.311,1.714,1.203,1.714
							c0.438,0,0.693-0.036,0.93-0.109l0.074,1.222c-0.311,0.109-0.803,0.219-1.424,0.219c-0.746,0-1.35-0.255-1.732-0.674
							c-0.438-0.493-0.619-1.277-0.619-2.316v-4.813h-1.367v-1.222h1.367v-1.642L651.002,41.951z"/>
						<path fill="#FFFFFF" d="M655.105,46.455c0-0.93-0.035-1.659-0.072-2.389h1.404l0.072,1.44h0.055
							c0.492-0.839,1.312-1.623,2.791-1.623c1.184,0,2.096,0.729,2.479,1.769h0.037c0.273-0.511,0.639-0.875,1.002-1.148
							c0.529-0.401,1.096-0.62,1.934-0.62c1.186,0,2.918,0.766,2.918,3.829v5.179h-1.568v-4.978c0-1.715-0.639-2.718-1.914-2.718
							c-0.932,0-1.623,0.675-1.916,1.441c-0.072,0.236-0.127,0.51-0.127,0.802v5.452h-1.568v-5.288c0-1.404-0.619-2.407-1.842-2.407
							c-0.984,0-1.732,0.803-1.986,1.605c-0.092,0.219-0.129,0.51-0.129,0.783v5.307h-1.568V46.455z"/>
						<path fill="#FFFFFF" d="M678.303,48.406c0,3.264-2.279,4.686-4.395,4.686c-2.369,0-4.229-1.75-4.229-4.54
							c0-2.936,1.949-4.668,4.375-4.668C676.59,43.884,678.303,45.726,678.303,48.406z M671.32,48.497
							c0,1.933,1.094,3.392,2.662,3.392c1.531,0,2.68-1.44,2.68-3.428c0-1.495-0.748-3.374-2.645-3.374
							C672.141,45.087,671.32,46.838,671.32,48.497z"/>
						<path fill="#FFFFFF" d="M684.195,39.945h1.605v12.946h-1.605V39.945z"/>
						<path fill="#FFFFFF" d="M696.486,48.406c0,3.264-2.279,4.686-4.395,4.686c-2.369,0-4.229-1.75-4.229-4.54
							c0-2.936,1.949-4.668,4.375-4.668C694.773,43.884,696.486,45.726,696.486,48.406z M689.504,48.497
							c0,1.933,1.094,3.392,2.662,3.392c1.531,0,2.68-1.44,2.68-3.428c0-1.495-0.748-3.374-2.645-3.374
							C690.324,45.087,689.504,46.838,689.504,48.497z"/>
						<path fill="#FFFFFF" d="M509.207,67.011c0-1.131-0.037-2.042-0.074-2.881h1.424l0.09,1.514h0.037
							c0.639-1.076,1.695-1.696,3.137-1.696c2.15,0,3.756,1.806,3.756,4.468c0,3.173-1.951,4.74-4.029,4.74
							c-1.168,0-2.189-0.51-2.717-1.386h-0.037v4.796h-1.586V67.011z M510.793,69.363c0,0.236,0.018,0.455,0.072,0.656
							c0.293,1.112,1.26,1.878,2.408,1.878c1.695,0,2.68-1.386,2.68-3.41c0-1.75-0.93-3.264-2.625-3.264
							c-1.094,0-2.135,0.766-2.426,1.97c-0.055,0.2-0.109,0.438-0.109,0.638V69.363z"/>
						<path fill="#FFFFFF" d="M527.57,68.47c0,3.264-2.279,4.686-4.395,4.686c-2.369,0-4.229-1.75-4.229-4.54
							c0-2.936,1.949-4.668,4.375-4.668C525.857,63.947,527.57,65.789,527.57,68.47z M520.588,68.561
							c0,1.933,1.094,3.392,2.662,3.392c1.531,0,2.68-1.44,2.68-3.428c0-1.495-0.748-3.374-2.645-3.374
							C521.408,65.15,520.588,66.901,520.588,68.561z"/>
						<path fill="#FFFFFF" d="M529.598,66.519c0-0.93-0.02-1.659-0.074-2.389h1.424l0.09,1.459h0.037
							c0.438-0.821,1.459-1.642,2.918-1.642c1.221,0,3.117,0.729,3.117,3.756v5.252h-1.604v-5.087c0-1.423-0.529-2.608-2.043-2.608
							c-1.039,0-1.859,0.748-2.152,1.642c-0.072,0.2-0.109,0.474-0.109,0.747v5.307h-1.604V66.519z"/>
						<path fill="#FFFFFF" d="M540.613,68.834c0.035,2.17,1.404,3.063,3.027,3.063c1.148,0,1.859-0.2,2.443-0.456l0.291,1.149
							c-0.566,0.255-1.551,0.564-2.955,0.564c-2.717,0-4.338-1.805-4.338-4.467s1.566-4.741,4.139-4.741
							c2.898,0,3.646,2.517,3.646,4.14c0,0.328-0.018,0.564-0.055,0.747H540.613z M545.316,67.686c0.02-1.003-0.418-2.59-2.225-2.59
							c-1.641,0-2.334,1.478-2.461,2.59H545.316z"/>
						<path fill="#FFFFFF" d="M548.857,66.519c0-0.93-0.02-1.659-0.074-2.389h1.424l0.09,1.459h0.037
							c0.438-0.821,1.459-1.642,2.918-1.642c1.221,0,3.117,0.729,3.117,3.756v5.252h-1.604v-5.087c0-1.423-0.529-2.608-2.043-2.608
							c-1.039,0-1.859,0.748-2.152,1.642c-0.072,0.2-0.109,0.474-0.109,0.747v5.307h-1.604V66.519z"/>
						<path fill="#FFFFFF" d="M562.846,60.009h1.604v12.946h-1.604V60.009z"/>
						<path fill="#FFFFFF" d="M573.35,70.84c0,0.766,0.037,1.514,0.127,2.115h-1.439l-0.129-1.112h-0.055
							c-0.492,0.693-1.439,1.312-2.697,1.312c-1.787,0-2.699-1.258-2.699-2.534c0-2.134,1.896-3.301,5.307-3.282v-0.183
							c0-0.711-0.201-2.042-2.006-2.023c-0.84,0-1.695,0.236-2.316,0.656l-0.365-1.076c0.73-0.455,1.807-0.766,2.918-0.766
							c2.699,0,3.355,1.842,3.355,3.592V70.84z M571.799,68.451c-1.75-0.036-3.736,0.273-3.736,1.987
							c0,1.058,0.691,1.532,1.494,1.532c1.168,0,1.914-0.729,2.17-1.478c0.055-0.182,0.072-0.364,0.072-0.511V68.451z"/>
						<path fill="#FFFFFF" d="M575.723,71.332c0.492,0.292,1.33,0.62,2.133,0.62c1.148,0,1.695-0.565,1.695-1.312
							c0-0.767-0.455-1.167-1.623-1.604c-1.604-0.584-2.352-1.441-2.352-2.498c0-1.423,1.168-2.59,3.045-2.59
							c0.895,0,1.678,0.237,2.152,0.547l-0.383,1.167c-0.348-0.219-0.984-0.528-1.807-0.528c-0.947,0-1.457,0.547-1.457,1.203
							c0,0.729,0.51,1.058,1.658,1.514c1.514,0.565,2.316,1.331,2.316,2.644c0,1.568-1.223,2.662-3.283,2.662
							c-0.965,0-1.859-0.255-2.479-0.619L575.723,71.332z"/>
						<path fill="#FFFFFF" d="M587.65,64.13l1.732,4.941c0.291,0.82,0.527,1.55,0.711,2.279h0.055
							c0.199-0.729,0.455-1.459,0.746-2.279l1.715-4.941h1.678l-3.465,8.825h-1.531l-3.355-8.825H587.65z"/>
						<path fill="#FFFFFF" d="M599.066,60.318l-2.225,2.607h-1.131l1.605-2.607H599.066z M595.803,72.955V64.13h1.604v8.825H595.803
							z"/>
						<path fill="#FFFFFF" d="M606.361,72.646c-0.42,0.2-1.35,0.51-2.535,0.51c-2.662,0-4.395-1.805-4.395-4.504
							c0-2.717,1.859-4.704,4.74-4.704c0.949,0,1.787,0.237,2.225,0.475l-0.363,1.222c-0.383-0.201-0.986-0.42-1.861-0.42
							c-2.023,0-3.117,1.514-3.117,3.337c0,2.042,1.312,3.301,3.062,3.301c0.912,0,1.514-0.219,1.971-0.42L606.361,72.646z"/>
						<path fill="#FFFFFF" d="M610.41,62.015v2.115h2.299v1.222h-2.299v4.759c0,1.095,0.311,1.714,1.205,1.714
							c0.438,0,0.691-0.036,0.93-0.109l0.072,1.222c-0.311,0.109-0.803,0.219-1.422,0.219c-0.748,0-1.35-0.255-1.732-0.674
							c-0.438-0.493-0.621-1.276-0.621-2.316v-4.813h-1.367V64.13h1.367v-1.642L610.41,62.015z"/>
						<path fill="#FFFFFF" d="M616.303,61.649c0,0.548-0.383,0.985-1.021,0.985c-0.584,0-0.967-0.438-0.967-0.985
							c0-0.547,0.4-1.003,1.004-1.003C615.9,60.646,616.303,61.085,616.303,61.649z M614.516,72.955V64.13h1.604v8.825H614.516z"/>
						<path fill="#FFFFFF" d="M618.783,66.519c0-0.93-0.037-1.659-0.074-2.389h1.404l0.074,1.44h0.055
							c0.492-0.839,1.312-1.623,2.789-1.623c1.186,0,2.098,0.729,2.48,1.769h0.035c0.273-0.511,0.639-0.875,1.004-1.148
							c0.529-0.401,1.094-0.62,1.932-0.62c1.186,0,2.918,0.766,2.918,3.829v5.179h-1.568v-4.978c0-1.715-0.637-2.718-1.914-2.718
							c-0.93,0-1.623,0.675-1.914,1.441c-0.074,0.236-0.129,0.51-0.129,0.802v5.452h-1.566v-5.288c0-1.404-0.621-2.407-1.842-2.407
							c-0.986,0-1.732,0.803-1.988,1.605c-0.092,0.219-0.127,0.51-0.127,0.783v5.307h-1.568V66.519z"/>
						<path fill="#FFFFFF" d="M640.193,70.84c0,0.766,0.037,1.514,0.127,2.115h-1.439l-0.129-1.112h-0.055
							c-0.492,0.693-1.439,1.312-2.697,1.312c-1.787,0-2.699-1.258-2.699-2.534c0-2.134,1.896-3.301,5.307-3.282v-0.183
							c0-0.711-0.201-2.042-2.006-2.023c-0.84,0-1.695,0.236-2.316,0.656l-0.365-1.076c0.73-0.455,1.807-0.766,2.918-0.766
							c2.699,0,3.355,1.842,3.355,3.592V70.84z M638.643,68.451c-1.75-0.036-3.736,0.273-3.736,1.987
							c0,1.058,0.691,1.532,1.494,1.532c1.168,0,1.914-0.729,2.17-1.478c0.055-0.182,0.072-0.364,0.072-0.511V68.451z"/>
						<path fill="#FFFFFF" d="M642.566,71.332c0.492,0.292,1.33,0.62,2.133,0.62c1.148,0,1.695-0.565,1.695-1.312
							c0-0.767-0.455-1.167-1.623-1.604c-1.604-0.584-2.352-1.441-2.352-2.498c0-1.423,1.168-2.59,3.045-2.59
							c0.895,0,1.678,0.237,2.152,0.547l-0.383,1.167c-0.348-0.219-0.984-0.528-1.807-0.528c-0.947,0-1.457,0.547-1.457,1.203
							c0,0.729,0.51,1.058,1.658,1.514c1.514,0.565,2.316,1.331,2.316,2.644c0,1.568-1.223,2.662-3.283,2.662
							c-0.965,0-1.859-0.255-2.479-0.619L642.566,71.332z"/>
						<path fill="#FFFFFF" d="M648.768,75.216c0.4-1.094,0.893-3.045,1.094-4.376l1.787-0.183c-0.438,1.55-1.24,3.574-1.752,4.432
							L648.768,75.216z"/>
						<path fill="#FFFFFF" d="M657.447,67.011c0-1.131-0.035-2.042-0.072-2.881h1.422l0.092,1.514h0.035
							c0.639-1.076,1.697-1.696,3.137-1.696c2.152,0,3.756,1.806,3.756,4.468c0,3.173-1.949,4.74-4.029,4.74
							c-1.166,0-2.188-0.51-2.717-1.386h-0.035v4.796h-1.588V67.011z M659.035,69.363c0,0.236,0.018,0.455,0.072,0.656
							c0.291,1.112,1.258,1.878,2.406,1.878c1.695,0,2.682-1.386,2.682-3.41c0-1.75-0.932-3.264-2.627-3.264
							c-1.094,0-2.133,0.766-2.424,1.97c-0.055,0.2-0.109,0.438-0.109,0.638V69.363z"/>
						<path fill="#FFFFFF" d="M675.812,68.47c0,3.264-2.279,4.686-4.395,4.686c-2.371,0-4.23-1.75-4.23-4.54
							c0-2.936,1.951-4.668,4.377-4.668C674.098,63.947,675.812,65.789,675.812,68.47z M668.828,68.561
							c0,1.933,1.094,3.392,2.662,3.392c1.533,0,2.682-1.44,2.682-3.428c0-1.495-0.748-3.374-2.645-3.374
							C669.648,65.15,668.828,66.901,668.828,68.561z"/>
						<path fill="#FFFFFF" d="M677.838,66.883c0-1.039-0.018-1.933-0.072-2.753h1.404l0.072,1.75h0.055
							c0.402-1.185,1.387-1.933,2.463-1.933c0.164,0,0.291,0.019,0.438,0.036v1.514c-0.164-0.036-0.328-0.036-0.549-0.036
							c-1.129,0-1.932,0.839-2.15,2.042c-0.037,0.219-0.055,0.492-0.055,0.748v4.704h-1.605V66.883z"/>
						<path fill="#FFFFFF" d="M687.668,60.009h1.605v12.946h-1.605V60.009z"/>
						<path fill="#FFFFFF" d="M699.959,68.47c0,3.264-2.279,4.686-4.395,4.686c-2.369,0-4.229-1.75-4.229-4.54
							c0-2.936,1.949-4.668,4.375-4.668C698.246,63.947,699.959,65.789,699.959,68.47z M692.977,68.561
							c0,1.933,1.094,3.392,2.662,3.392c1.531,0,2.68-1.44,2.68-3.428c0-1.495-0.748-3.374-2.645-3.374
							C693.797,65.15,692.977,66.901,692.977,68.561z"/>
						<path fill="#FFFFFF" d="M514.977,91.668h-0.037c-0.492,0.857-1.457,1.55-2.881,1.55c-2.061,0-3.736-1.769-3.736-4.449
							c0-3.318,2.133-4.759,3.992-4.759c1.367,0,2.279,0.675,2.717,1.514h0.037l0.055-1.331h1.514
							c-0.037,0.729-0.074,1.514-0.074,2.425v10.011h-1.586V91.668z M514.977,87.766c0-0.219-0.018-0.455-0.072-0.656
							c-0.256-0.984-1.094-1.823-2.299-1.823c-1.658,0-2.662,1.404-2.662,3.373c0,1.77,0.84,3.282,2.607,3.282
							c1.041,0,1.934-0.638,2.299-1.731c0.072-0.237,0.127-0.548,0.127-0.784V87.766z"/>
						<path fill="#FFFFFF" d="M526.613,90.593c0,0.93,0.018,1.731,0.072,2.425h-1.422l-0.092-1.44h-0.035
							c-0.402,0.711-1.35,1.641-2.918,1.641c-1.387,0-3.045-0.784-3.045-3.865v-5.16h1.604v4.868c0,1.678,0.529,2.826,1.971,2.826
							c1.074,0,1.822-0.747,2.115-1.477c0.09-0.219,0.145-0.511,0.145-0.82v-5.397h1.605V90.593z"/>
						<path fill="#FFFFFF" d="M530.172,88.896c0.035,2.17,1.404,3.063,3.027,3.063c1.148,0,1.859-0.2,2.443-0.456l0.291,1.149
							c-0.566,0.255-1.551,0.564-2.955,0.564c-2.717,0-4.338-1.805-4.338-4.467s1.566-4.741,4.139-4.741
							c2.898,0,3.646,2.517,3.646,4.14c0,0.328-0.018,0.564-0.055,0.747H530.172z M534.875,87.748c0.02-1.003-0.418-2.59-2.225-2.59
							c-1.641,0-2.334,1.478-2.461,2.59H534.875z"/>
						<path fill="#FFFFFF" d="M542.281,80.071h1.605v12.946h-1.605V80.071z"/>
						<path fill="#FFFFFF" d="M552.785,90.902c0,0.766,0.037,1.514,0.129,2.115h-1.441l-0.127-1.112h-0.055
							c-0.492,0.693-1.441,1.312-2.699,1.312c-1.787,0-2.697-1.258-2.697-2.534c0-2.134,1.895-3.301,5.305-3.282v-0.183
							c0-0.711-0.199-2.042-2.006-2.023c-0.838,0-1.695,0.236-2.314,0.656l-0.365-1.076c0.729-0.455,1.805-0.766,2.918-0.766
							c2.697,0,3.354,1.842,3.354,3.592V90.902z M551.236,88.514c-1.75-0.036-3.738,0.273-3.738,1.987
							c0,1.058,0.693,1.532,1.496,1.532c1.166,0,1.914-0.729,2.17-1.478c0.055-0.182,0.072-0.364,0.072-0.511V88.514z"/>
						<path fill="#FFFFFF" d="M555.158,91.395c0.492,0.292,1.332,0.62,2.135,0.62c1.148,0,1.695-0.565,1.695-1.312
							c0-0.767-0.457-1.167-1.623-1.604c-1.605-0.584-2.352-1.441-2.352-2.498c0-1.423,1.166-2.59,3.045-2.59
							c0.893,0,1.678,0.237,2.15,0.547l-0.383,1.167c-0.346-0.219-0.984-0.528-1.805-0.528c-0.947,0-1.459,0.547-1.459,1.203
							c0,0.729,0.512,1.058,1.66,1.514c1.514,0.565,2.314,1.331,2.314,2.644c0,1.568-1.221,2.662-3.281,2.662
							c-0.967,0-1.859-0.255-2.48-0.619L555.158,91.395z"/>
						<path fill="#FFFFFF" d="M572.666,90.902c0,0.766,0.037,1.514,0.127,2.115h-1.439l-0.129-1.112h-0.055
							c-0.492,0.693-1.439,1.312-2.697,1.312c-1.787,0-2.699-1.258-2.699-2.534c0-2.134,1.896-3.301,5.307-3.282v-0.183
							c0-0.711-0.201-2.042-2.006-2.023c-0.84,0-1.695,0.236-2.316,0.656l-0.365-1.076c0.73-0.455,1.807-0.766,2.918-0.766
							c2.699,0,3.355,1.842,3.355,3.592V90.902z M571.115,88.514c-1.75-0.036-3.736,0.273-3.736,1.987
							c0,1.058,0.691,1.532,1.494,1.532c1.168,0,1.914-0.729,2.17-1.478c0.055-0.182,0.072-0.364,0.072-0.511V88.514z"/>
						<path fill="#FFFFFF" d="M577.117,82.077v2.115h2.297v1.222h-2.297v4.759c0,1.095,0.311,1.714,1.203,1.714
							c0.438,0,0.693-0.036,0.93-0.109l0.074,1.222c-0.311,0.109-0.803,0.219-1.424,0.219c-0.746,0-1.35-0.255-1.732-0.674
							c-0.438-0.493-0.619-1.276-0.619-2.316v-4.813h-1.367v-1.222h1.367v-1.642L577.117,82.077z"/>
						<path fill="#FFFFFF" d="M582.006,88.896c0.035,2.17,1.404,3.063,3.027,3.063c1.148,0,1.859-0.2,2.443-0.456l0.291,1.149
							c-0.566,0.255-1.551,0.564-2.955,0.564c-2.717,0-4.338-1.805-4.338-4.467s1.566-4.741,4.139-4.741
							c2.898,0,3.646,2.517,3.646,4.14c0,0.328-0.018,0.564-0.055,0.747H582.006z M586.709,87.748c0.02-1.003-0.418-2.59-2.225-2.59
							c-1.641,0-2.334,1.478-2.461,2.59H586.709z"/>
						<path fill="#FFFFFF" d="M590.25,86.581c0-0.93-0.02-1.659-0.074-2.389h1.424l0.09,1.459h0.037
							c0.438-0.821,1.459-1.642,2.918-1.642c1.221,0,3.117,0.729,3.117,3.756v5.252h-1.604v-5.087c0-1.423-0.529-2.608-2.043-2.608
							c-1.039,0-1.859,0.748-2.152,1.642c-0.072,0.2-0.109,0.474-0.109,0.747v5.307h-1.604V86.581z"/>
						<path fill="#FFFFFF" d="M606.662,92.708c-0.42,0.2-1.35,0.51-2.535,0.51c-2.662,0-4.393-1.805-4.393-4.504
							c0-2.717,1.859-4.704,4.74-4.704c0.947,0,1.787,0.237,2.225,0.475l-0.365,1.222c-0.383-0.201-0.984-0.42-1.859-0.42
							c-2.023,0-3.119,1.514-3.119,3.337c0,2.042,1.314,3.301,3.064,3.301c0.912,0,1.514-0.219,1.969-0.42L606.662,92.708z"/>
						<path fill="#FFFFFF" d="M610.33,81.712c0,0.548-0.383,0.985-1.021,0.985c-0.584,0-0.967-0.438-0.967-0.985
							c0-0.547,0.4-1.003,1.004-1.003C609.928,80.709,610.33,81.147,610.33,81.712z M608.543,93.018v-8.825h1.604v8.825H608.543z"/>
						<path fill="#FFFFFF" d="M620.797,88.532c0,3.264-2.279,4.686-4.395,4.686c-2.371,0-4.23-1.75-4.23-4.54
							c0-2.936,1.951-4.668,4.377-4.668C619.082,84.01,620.797,85.852,620.797,88.532z M613.812,88.623
							c0,1.933,1.094,3.392,2.662,3.392c1.533,0,2.682-1.44,2.682-3.428c0-1.495-0.748-3.374-2.645-3.374
							C614.633,85.213,613.812,86.964,613.812,88.623z"/>
						<path fill="#FFFFFF" d="M622.822,86.581c0-0.93-0.018-1.659-0.072-2.389h1.422l0.092,1.459h0.035
							c0.439-0.821,1.459-1.642,2.918-1.642c1.223,0,3.119,0.729,3.119,3.756v5.252h-1.605v-5.087c0-1.423-0.529-2.608-2.043-2.608
							c-1.039,0-1.859,0.748-2.15,1.642c-0.072,0.2-0.109,0.474-0.109,0.747v5.307h-1.605V86.581z"/>
						<path fill="#FFFFFF" d="M633.838,88.896c0.037,2.17,1.404,3.063,3.027,3.063c1.148,0,1.859-0.2,2.443-0.456l0.291,1.149
							c-0.564,0.255-1.549,0.564-2.953,0.564c-2.717,0-4.34-1.805-4.34-4.467s1.568-4.741,4.139-4.741c2.9,0,3.646,2.517,3.646,4.14
							c0,0.328-0.018,0.564-0.055,0.747H633.838z M638.543,87.748c0.018-1.003-0.42-2.59-2.225-2.59
							c-1.641,0-2.334,1.478-2.461,2.59H638.543z"/>
						<path fill="#FFFFFF" d="M641.863,91.395c0.492,0.292,1.332,0.62,2.135,0.62c1.148,0,1.695-0.565,1.695-1.312
							c0-0.767-0.457-1.167-1.623-1.604c-1.605-0.584-2.352-1.441-2.352-2.498c0-1.423,1.166-2.59,3.045-2.59
							c0.893,0,1.678,0.237,2.15,0.547l-0.383,1.167c-0.346-0.219-0.984-0.528-1.805-0.528c-0.947,0-1.459,0.547-1.459,1.203
							c0,0.729,0.512,1.058,1.66,1.514c1.514,0.565,2.314,1.331,2.314,2.644c0,1.568-1.221,2.662-3.281,2.662
							c-0.967,0-1.859-0.255-2.48-0.619L641.863,91.395z"/>
						<path fill="#FFFFFF" d="M660.775,80.071v10.667c0,0.784,0.037,1.678,0.072,2.279h-1.422l-0.072-1.531h-0.055
							c-0.475,0.984-1.533,1.731-2.973,1.731c-2.133,0-3.793-1.805-3.793-4.485c-0.018-2.936,1.824-4.723,3.957-4.723
							c1.367,0,2.262,0.639,2.662,1.331h0.037v-5.27H660.775z M659.189,87.784c0-0.2-0.02-0.474-0.074-0.675
							c-0.236-1.003-1.111-1.842-2.314-1.842c-1.66,0-2.645,1.459-2.645,3.392c0,1.787,0.893,3.265,2.607,3.265
							c1.076,0,2.061-0.729,2.352-1.915c0.055-0.219,0.074-0.438,0.074-0.692V87.784z"/>
						<path fill="#FFFFFF" d="M664.352,88.896c0.037,2.17,1.404,3.063,3.027,3.063c1.148,0,1.859-0.2,2.443-0.456l0.291,1.149
							c-0.564,0.255-1.549,0.564-2.953,0.564c-2.717,0-4.34-1.805-4.34-4.467s1.568-4.741,4.139-4.741c2.9,0,3.646,2.517,3.646,4.14
							c0,0.328-0.018,0.564-0.055,0.747H664.352z M669.057,87.748c0.018-1.003-0.42-2.59-2.225-2.59
							c-1.641,0-2.334,1.478-2.461,2.59H669.057z"/>
						<path fill="#FFFFFF" d="M672.596,80.071h1.588v5.543h0.035c0.566-0.984,1.586-1.604,3.01-1.604
							c2.205,0,3.736,1.823,3.736,4.485c0,3.155-2.004,4.723-3.975,4.723c-1.275,0-2.297-0.492-2.973-1.641h-0.035l-0.092,1.44
							h-1.367c0.037-0.602,0.072-1.495,0.072-2.279V80.071z M674.184,89.48c0,0.2,0.018,0.4,0.072,0.583
							c0.291,1.112,1.24,1.878,2.406,1.878c1.695,0,2.682-1.367,2.682-3.392c0-1.769-0.912-3.282-2.645-3.282
							c-1.076,0-2.098,0.767-2.426,1.97c-0.055,0.2-0.09,0.419-0.09,0.675V89.48z"/>
						<path fill="#FFFFFF" d="M683.867,88.896c0.037,2.17,1.404,3.063,3.027,3.063c1.148,0,1.859-0.2,2.443-0.456l0.291,1.149
							c-0.564,0.255-1.549,0.564-2.953,0.564c-2.717,0-4.34-1.805-4.34-4.467s1.568-4.741,4.139-4.741c2.9,0,3.646,2.517,3.646,4.14
							c0,0.328-0.018,0.564-0.055,0.747H683.867z M688.572,87.748c0.018-1.003-0.42-2.59-2.225-2.59
							c-1.641,0-2.334,1.478-2.461,2.59H688.572z"/>
						<path fill="#FFFFFF" d="M692.111,86.581c0-0.93-0.018-1.659-0.072-2.389h1.422l0.092,1.459h0.035
							c0.439-0.821,1.459-1.642,2.918-1.642c1.223,0,3.119,0.729,3.119,3.756v5.252h-1.605v-5.087c0-1.423-0.529-2.608-2.043-2.608
							c-1.039,0-1.859,0.748-2.15,1.642c-0.072,0.2-0.109,0.474-0.109,0.747v5.307h-1.605V86.581z"/>
						<path fill="#FFFFFF" d="M546.586,111.457c0.492,0.292,1.332,0.62,2.135,0.62c1.148,0,1.695-0.565,1.695-1.312
							c0-0.767-0.457-1.167-1.623-1.604c-1.605-0.584-2.352-1.441-2.352-2.498c0-1.423,1.166-2.59,3.045-2.59
							c0.893,0,1.678,0.237,2.15,0.547l-0.383,1.167c-0.346-0.219-0.984-0.528-1.805-0.528c-0.947,0-1.459,0.547-1.459,1.203
							c0,0.729,0.512,1.058,1.66,1.514c1.514,0.565,2.314,1.331,2.314,2.644c0,1.568-1.221,2.662-3.281,2.662
							c-0.967,0-1.859-0.255-2.48-0.619L546.586,111.457z"/>
						<path fill="#FFFFFF" d="M554.922,108.959c0.035,2.17,1.404,3.063,3.027,3.063c1.148,0,1.859-0.2,2.443-0.456l0.291,1.149
							c-0.566,0.255-1.551,0.564-2.955,0.564c-2.717,0-4.338-1.805-4.338-4.467s1.566-4.741,4.139-4.741
							c2.898,0,3.646,2.517,3.646,4.14c0,0.328-0.018,0.564-0.055,0.747H554.922z M559.625,107.811
							c0.02-1.003-0.418-2.59-2.225-2.59c-1.641,0-2.334,1.478-2.461,2.59H559.625z"/>
						<path fill="#FFFFFF" d="M563.166,107.008c0-1.039-0.02-1.933-0.074-2.753h1.404l0.074,1.75h0.055
							c0.4-1.185,1.385-1.933,2.461-1.933c0.164,0,0.291,0.019,0.438,0.036v1.514c-0.164-0.036-0.328-0.036-0.547-0.036
							c-1.131,0-1.934,0.839-2.152,2.042c-0.035,0.219-0.055,0.492-0.055,0.748v4.704h-1.604V107.008z"/>
						<path fill="#FFFFFF" d="M572.996,107.136c0-1.131-0.037-2.042-0.074-2.881h1.424l0.09,1.514h0.037
							c0.639-1.076,1.695-1.696,3.137-1.696c2.15,0,3.756,1.806,3.756,4.468c0,3.173-1.951,4.74-4.029,4.74
							c-1.168,0-2.189-0.51-2.717-1.386h-0.037v4.796h-1.586V107.136z M574.582,109.488c0,0.236,0.018,0.455,0.072,0.656
							c0.293,1.112,1.26,1.878,2.408,1.878c1.695,0,2.68-1.386,2.68-3.41c0-1.75-0.93-3.264-2.625-3.264
							c-1.094,0-2.135,0.766-2.426,1.97c-0.055,0.2-0.109,0.438-0.109,0.638V109.488z"/>
						<path fill="#FFFFFF" d="M584.268,108.959c0.035,2.17,1.404,3.063,3.027,3.063c1.148,0,1.859-0.2,2.443-0.456l0.291,1.149
							c-0.566,0.255-1.551,0.564-2.955,0.564c-2.717,0-4.338-1.805-4.338-4.467s1.566-4.741,4.139-4.741
							c2.898,0,3.646,2.517,3.646,4.14c0,0.328-0.018,0.564-0.055,0.747H584.268z M588.971,107.811
							c0.02-1.003-0.418-2.59-2.225-2.59c-1.641,0-2.334,1.478-2.461,2.59H588.971z"/>
						<path fill="#FFFFFF" d="M592.512,107.008c0-1.039-0.02-1.933-0.074-2.753h1.404l0.074,1.75h0.055
							c0.4-1.185,1.385-1.933,2.461-1.933c0.164,0,0.291,0.019,0.438,0.036v1.514c-0.164-0.036-0.328-0.036-0.547-0.036
							c-1.131,0-1.934,0.839-2.152,2.042c-0.035,0.219-0.055,0.492-0.055,0.748v4.704h-1.604V107.008z"/>
						<path fill="#FFFFFF" d="M600.846,102.14v2.115h2.297v1.222h-2.297v4.759c0,1.095,0.311,1.714,1.203,1.714
							c0.438,0,0.693-0.036,0.93-0.109l0.074,1.222c-0.311,0.109-0.803,0.219-1.424,0.219c-0.746,0-1.35-0.255-1.732-0.674
							c-0.438-0.493-0.619-1.276-0.619-2.316v-4.813h-1.367v-1.222h1.367v-1.642L600.846,102.14z"/>
						<path fill="#FFFFFF" d="M606.736,101.774c0,0.548-0.383,0.985-1.021,0.985c-0.582,0-0.965-0.438-0.965-0.985
							c0-0.547,0.4-1.003,1.002-1.003C606.336,100.771,606.736,101.21,606.736,101.774z M604.949,113.08v-8.825h1.605v8.825H604.949
							z"/>
						<path fill="#FFFFFF" d="M609.217,106.644c0-0.93-0.018-1.659-0.072-2.389h1.422l0.092,1.459h0.035
							c0.439-0.821,1.459-1.642,2.918-1.642c1.223,0,3.119,0.729,3.119,3.756v5.252h-1.605v-5.087c0-1.423-0.529-2.608-2.043-2.608
							c-1.039,0-1.859,0.748-2.15,1.642c-0.072,0.2-0.109,0.474-0.109,0.747v5.307h-1.605V106.644z"/>
						<path fill="#FFFFFF" d="M620.232,108.959c0.037,2.17,1.404,3.063,3.027,3.063c1.148,0,1.859-0.2,2.443-0.456l0.291,1.149
							c-0.564,0.255-1.549,0.564-2.953,0.564c-2.717,0-4.34-1.805-4.34-4.467s1.568-4.741,4.139-4.741c2.9,0,3.646,2.517,3.646,4.14
							c0,0.328-0.018,0.564-0.055,0.747H620.232z M624.938,107.811c0.018-1.003-0.42-2.59-2.225-2.59
							c-1.641,0-2.334,1.478-2.461,2.59H624.938z"/>
						<path fill="#FFFFFF" d="M628.477,106.644c0-0.93-0.018-1.659-0.072-2.389h1.422l0.092,1.459h0.035
							c0.439-0.821,1.459-1.642,2.918-1.642c1.223,0,3.119,0.729,3.119,3.756v5.252h-1.605v-5.087c0-1.423-0.529-2.608-2.043-2.608
							c-1.039,0-1.859,0.748-2.15,1.642c-0.072,0.2-0.109,0.474-0.109,0.747v5.307h-1.605V106.644z"/>
						<path fill="#FFFFFF" d="M640.459,102.14v2.115h2.297v1.222h-2.297v4.759c0,1.095,0.311,1.714,1.203,1.714
							c0.438,0,0.693-0.036,0.93-0.109l0.074,1.222c-0.311,0.109-0.803,0.219-1.424,0.219c-0.746,0-1.35-0.255-1.732-0.674
							c-0.438-0.493-0.619-1.276-0.619-2.316v-4.813h-1.367v-1.222h1.367v-1.642L640.459,102.14z"/>
						<path fill="#FFFFFF" d="M645.348,108.959c0.035,2.17,1.404,3.063,3.027,3.063c1.148,0,1.859-0.2,2.443-0.456l0.291,1.149
							c-0.566,0.255-1.551,0.564-2.955,0.564c-2.717,0-4.338-1.805-4.338-4.467s1.566-4.741,4.139-4.741
							c2.898,0,3.646,2.517,3.646,4.14c0,0.328-0.018,0.564-0.055,0.747H645.348z M650.051,107.811
							c0.02-1.003-0.418-2.59-2.225-2.59c-1.641,0-2.334,1.478-2.461,2.59H650.051z"/>
						<path fill="#FFFFFF" d="M653.373,111.457c0.492,0.292,1.33,0.62,2.133,0.62c1.148,0,1.695-0.565,1.695-1.312
							c0-0.767-0.455-1.167-1.623-1.604c-1.604-0.584-2.352-1.441-2.352-2.498c0-1.423,1.168-2.59,3.045-2.59
							c0.895,0,1.678,0.237,2.152,0.547l-0.383,1.167c-0.348-0.219-0.984-0.528-1.807-0.528c-0.947,0-1.457,0.547-1.457,1.203
							c0,0.729,0.51,1.058,1.658,1.514c1.514,0.565,2.316,1.331,2.316,2.644c0,1.568-1.223,2.662-3.283,2.662
							c-0.965,0-1.859-0.255-2.479-0.619L653.373,111.457z"/>
						<path fill="#FFFFFF" d="M659.574,115.341c0.402-1.094,0.895-3.045,1.094-4.376l1.787-0.183c-0.438,1.55-1.24,3.574-1.75,4.432
							L659.574,115.341z"/>
						<path fill="#FFFFFF" d="M505.74,127.07c0-1.039-0.018-1.933-0.072-2.753h1.404l0.072,1.75h0.055
							c0.402-1.185,1.387-1.933,2.463-1.933c0.164,0,0.291,0.019,0.438,0.036v1.514c-0.164-0.036-0.328-0.036-0.549-0.036
							c-1.129,0-1.932,0.839-2.15,2.042c-0.037,0.219-0.055,0.492-0.055,0.748v4.704h-1.605V127.07z"/>
						<path fill="#FFFFFF" d="M512.416,129.021c0.035,2.17,1.404,3.063,3.027,3.063c1.148,0,1.859-0.2,2.443-0.456l0.291,1.149
							c-0.566,0.255-1.551,0.564-2.955,0.564c-2.717,0-4.338-1.805-4.338-4.467s1.566-4.741,4.139-4.741
							c2.898,0,3.646,2.517,3.646,4.14c0,0.328-0.018,0.564-0.055,0.747H512.416z M517.119,127.873
							c0.02-1.003-0.418-2.59-2.225-2.59c-1.641,0-2.334,1.478-2.461,2.59H517.119z"/>
						<path fill="#FFFFFF" d="M520.441,131.52c0.492,0.292,1.33,0.62,2.133,0.62c1.148,0,1.695-0.565,1.695-1.312
							c0-0.767-0.455-1.167-1.623-1.604c-1.604-0.584-2.352-1.441-2.352-2.498c0-1.423,1.168-2.59,3.045-2.59
							c0.895,0,1.678,0.237,2.152,0.547l-0.383,1.167c-0.348-0.219-0.984-0.528-1.807-0.528c-0.947,0-1.457,0.547-1.457,1.203
							c0,0.729,0.51,1.058,1.658,1.514c1.514,0.565,2.316,1.331,2.316,2.644c0,1.568-1.223,2.662-3.283,2.662
							c-0.965,0-1.859-0.255-2.479-0.619L520.441,131.52z"/>
						<path fill="#FFFFFF" d="M527.883,127.198c0-1.131-0.037-2.042-0.074-2.881h1.424l0.09,1.514h0.037
							c0.639-1.076,1.695-1.696,3.137-1.696c2.15,0,3.756,1.806,3.756,4.468c0,3.173-1.951,4.74-4.029,4.74
							c-1.168,0-2.189-0.51-2.717-1.386h-0.037v4.796h-1.586V127.198z M529.469,129.551c0,0.236,0.018,0.455,0.072,0.656
							c0.293,1.112,1.26,1.878,2.408,1.878c1.695,0,2.68-1.386,2.68-3.41c0-1.75-0.93-3.264-2.625-3.264
							c-1.094,0-2.135,0.766-2.426,1.97c-0.055,0.2-0.109,0.438-0.109,0.638V129.551z"/>
						<path fill="#FFFFFF" d="M539.154,129.021c0.035,2.17,1.404,3.063,3.027,3.063c1.148,0,1.859-0.2,2.443-0.456l0.291,1.149
							c-0.566,0.255-1.551,0.564-2.955,0.564c-2.717,0-4.338-1.805-4.338-4.467s1.566-4.741,4.139-4.741
							c2.898,0,3.646,2.517,3.646,4.14c0,0.328-0.018,0.564-0.055,0.747H539.154z M543.857,127.873
							c0.02-1.003-0.418-2.59-2.225-2.59c-1.641,0-2.334,1.478-2.461,2.59H543.857z"/>
						<path fill="#FFFFFF" d="M549.33,122.202v2.115h2.299v1.222h-2.299v4.759c0,1.095,0.311,1.714,1.205,1.714
							c0.438,0,0.691-0.036,0.93-0.109l0.072,1.222c-0.311,0.109-0.803,0.219-1.422,0.219c-0.748,0-1.35-0.255-1.732-0.674
							c-0.438-0.493-0.621-1.276-0.621-2.316v-4.813h-1.367v-1.222h1.367v-1.642L549.33,122.202z"/>
						<path fill="#FFFFFF" d="M560.82,130.718c0,0.93,0.018,1.731,0.072,2.425h-1.422l-0.092-1.44h-0.035
							c-0.402,0.711-1.35,1.641-2.918,1.641c-1.387,0-3.045-0.784-3.045-3.865v-5.16h1.604v4.868c0,1.678,0.529,2.826,1.971,2.826
							c1.074,0,1.822-0.747,2.115-1.477c0.09-0.219,0.145-0.511,0.145-0.82v-5.397h1.605V130.718z"/>
						<path fill="#FFFFFF" d="M571.471,128.657c0,3.264-2.279,4.686-4.395,4.686c-2.369,0-4.229-1.75-4.229-4.54
							c0-2.936,1.949-4.668,4.375-4.668C569.758,124.135,571.471,125.977,571.471,128.657z M564.488,128.748
							c0,1.933,1.094,3.392,2.662,3.392c1.531,0,2.68-1.44,2.68-3.428c0-1.495-0.748-3.374-2.645-3.374
							C565.309,125.338,564.488,127.089,564.488,128.748z"/>
						<path fill="#FFFFFF" d="M573.279,131.52c0.492,0.292,1.33,0.62,2.133,0.62c1.148,0,1.695-0.565,1.695-1.312
							c0-0.767-0.455-1.167-1.623-1.604c-1.604-0.584-2.352-1.441-2.352-2.498c0-1.423,1.168-2.59,3.045-2.59
							c0.895,0,1.678,0.237,2.152,0.547l-0.383,1.167c-0.348-0.219-0.984-0.528-1.807-0.528c-0.947,0-1.457,0.547-1.457,1.203
							c0,0.729,0.51,1.058,1.658,1.514c1.514,0.565,2.316,1.331,2.316,2.644c0,1.568-1.223,2.662-3.283,2.662
							c-0.965,0-1.859-0.255-2.479-0.619L573.279,131.52z"/>
						<path fill="#FFFFFF" d="M586.92,131.027c0,0.766,0.037,1.514,0.127,2.115h-1.439l-0.129-1.112h-0.055
							c-0.492,0.693-1.439,1.312-2.697,1.312c-1.787,0-2.699-1.258-2.699-2.534c0-2.134,1.896-3.301,5.307-3.282v-0.183
							c0-0.711-0.201-2.042-2.006-2.023c-0.84,0-1.695,0.236-2.316,0.656l-0.365-1.076c0.73-0.455,1.807-0.766,2.918-0.766
							c2.699,0,3.355,1.842,3.355,3.592V131.027z M585.369,128.639c-1.75-0.036-3.736,0.273-3.736,1.987
							c0,1.058,0.691,1.532,1.494,1.532c1.168,0,1.914-0.729,2.17-1.478c0.055-0.182,0.072-0.364,0.072-0.511V128.639z"/>
						<path fill="#FFFFFF" d="M589.293,131.52c0.492,0.292,1.33,0.62,2.133,0.62c1.148,0,1.695-0.565,1.695-1.312
							c0-0.767-0.455-1.167-1.623-1.604c-1.604-0.584-2.352-1.441-2.352-2.498c0-1.423,1.168-2.59,3.045-2.59
							c0.895,0,1.678,0.237,2.152,0.547l-0.383,1.167c-0.348-0.219-0.984-0.528-1.807-0.528c-0.947,0-1.457,0.547-1.457,1.203
							c0,0.729,0.51,1.058,1.658,1.514c1.514,0.565,2.316,1.331,2.316,2.644c0,1.568-1.223,2.662-3.283,2.662
							c-0.965,0-1.859-0.255-2.479-0.619L589.293,131.52z"/>
						<path fill="#FFFFFF" d="M601.184,124.317l1.914,5.215c0.219,0.583,0.438,1.276,0.584,1.805h0.037
							c0.164-0.528,0.346-1.203,0.564-1.841l1.75-5.179h1.697l-2.408,6.291c-1.148,3.026-1.932,4.559-3.025,5.524
							c-0.803,0.675-1.568,0.948-1.971,1.021l-0.4-1.331c0.4-0.128,0.93-0.383,1.404-0.784c0.438-0.347,0.967-0.967,1.35-1.787
							c0.072-0.164,0.127-0.292,0.127-0.383s-0.037-0.219-0.127-0.42l-3.246-8.132H601.184z"/>
						<path fill="#FFFFFF" d="M612.838,131.52c0.492,0.292,1.332,0.62,2.135,0.62c1.148,0,1.695-0.565,1.695-1.312
							c0-0.767-0.457-1.167-1.623-1.604c-1.605-0.584-2.352-1.441-2.352-2.498c0-1.423,1.166-2.59,3.045-2.59
							c0.893,0,1.678,0.237,2.15,0.547l-0.383,1.167c-0.346-0.219-0.984-0.528-1.805-0.528c-0.947,0-1.459,0.547-1.459,1.203
							c0,0.729,0.512,1.058,1.66,1.514c1.514,0.565,2.314,1.331,2.314,2.644c0,1.568-1.221,2.662-3.281,2.662
							c-0.967,0-1.859-0.255-2.48-0.619L612.838,131.52z"/>
						<path fill="#FFFFFF" d="M622.066,121.837c0,0.548-0.383,0.985-1.021,0.985c-0.582,0-0.965-0.438-0.965-0.985
							c0-0.547,0.4-1.003,1.002-1.003C621.666,120.834,622.066,121.272,622.066,121.837z M620.279,133.143v-8.825h1.605v8.825
							H620.279z"/>
						<path fill="#FFFFFF" d="M624.547,126.706c0-0.93-0.018-1.659-0.072-2.389h1.422l0.092,1.459h0.035
							c0.439-0.821,1.459-1.642,2.918-1.642c1.223,0,3.119,0.729,3.119,3.756v5.252h-1.605v-5.087c0-1.423-0.529-2.608-2.043-2.608
							c-1.039,0-1.859,0.748-2.15,1.642c-0.072,0.2-0.109,0.474-0.109,0.747v5.307h-1.605V126.706z"/>
						<path fill="#FFFFFF" d="M644.734,131.027c0,0.766,0.037,1.514,0.129,2.115h-1.441l-0.127-1.112h-0.055
							c-0.492,0.693-1.441,1.312-2.699,1.312c-1.787,0-2.697-1.258-2.697-2.534c0-2.134,1.895-3.301,5.305-3.282v-0.183
							c0-0.711-0.199-2.042-2.006-2.023c-0.838,0-1.695,0.236-2.314,0.656l-0.365-1.076c0.729-0.455,1.805-0.766,2.918-0.766
							c2.697,0,3.354,1.842,3.354,3.592V131.027z M643.186,128.639c-1.75-0.036-3.738,0.273-3.738,1.987
							c0,1.058,0.693,1.532,1.496,1.532c1.166,0,1.914-0.729,2.17-1.478c0.055-0.182,0.072-0.364,0.072-0.511V128.639z"/>
						<path fill="#FFFFFF" d="M647.326,127.198c0-1.131-0.035-2.042-0.072-2.881h1.422l0.092,1.514h0.035
							c0.639-1.076,1.697-1.696,3.137-1.696c2.152,0,3.756,1.806,3.756,4.468c0,3.173-1.949,4.74-4.029,4.74
							c-1.166,0-2.188-0.51-2.717-1.386h-0.035v4.796h-1.588V127.198z M648.914,129.551c0,0.236,0.018,0.455,0.072,0.656
							c0.291,1.112,1.258,1.878,2.406,1.878c1.695,0,2.682-1.386,2.682-3.41c0-1.75-0.932-3.264-2.627-3.264
							c-1.094,0-2.133,0.766-2.424,1.97c-0.055,0.2-0.109,0.438-0.109,0.638V129.551z"/>
						<path fill="#FFFFFF" d="M657.705,127.07c0-1.039-0.02-1.933-0.074-2.753h1.404l0.074,1.75h0.055
							c0.4-1.185,1.385-1.933,2.461-1.933c0.164,0,0.291,0.019,0.438,0.036v1.514c-0.164-0.036-0.328-0.036-0.547-0.036
							c-1.131,0-1.934,0.839-2.152,2.042c-0.035,0.219-0.055,0.492-0.055,0.748v4.704h-1.604V127.07z"/>
						<path fill="#FFFFFF" d="M664.381,129.021c0.035,2.17,1.404,3.063,3.027,3.063c1.148,0,1.859-0.2,2.443-0.456l0.291,1.149
							c-0.566,0.255-1.551,0.564-2.955,0.564c-2.717,0-4.338-1.805-4.338-4.467s1.566-4.741,4.139-4.741
							c2.898,0,3.646,2.517,3.646,4.14c0,0.328-0.018,0.564-0.055,0.747H664.381z M669.084,127.873
							c0.02-1.003-0.418-2.59-2.225-2.59c-1.641,0-2.334,1.478-2.461,2.59H669.084z"/>
						<path fill="#FFFFFF" d="M672.625,126.706c0-0.93-0.037-1.659-0.074-2.389h1.404l0.074,1.44h0.055
							c0.492-0.839,1.312-1.623,2.789-1.623c1.186,0,2.098,0.729,2.48,1.769h0.035c0.273-0.511,0.639-0.875,1.004-1.148
							c0.529-0.401,1.094-0.62,1.932-0.62c1.186,0,2.918,0.766,2.918,3.829v5.179h-1.568v-4.978c0-1.715-0.637-2.718-1.914-2.718
							c-0.93,0-1.623,0.675-1.914,1.441c-0.074,0.236-0.129,0.51-0.129,0.802v5.452h-1.566v-5.288c0-1.404-0.621-2.407-1.842-2.407
							c-0.986,0-1.732,0.803-1.988,1.605c-0.092,0.219-0.127,0.51-0.127,0.783v5.307h-1.568V126.706z"/>
						<path fill="#FFFFFF" d="M689.623,121.837c0,0.548-0.383,0.985-1.021,0.985c-0.584,0-0.967-0.438-0.967-0.985
							c0-0.547,0.4-1.003,1.004-1.003C689.221,120.834,689.623,121.272,689.623,121.837z M687.836,133.143v-8.825h1.604v8.825
							H687.836z"/>
						<path fill="#FFFFFF" d="M700.09,128.657c0,3.264-2.279,4.686-4.395,4.686c-2.371,0-4.23-1.75-4.23-4.54
							c0-2.936,1.951-4.668,4.377-4.668C698.375,124.135,700.09,125.977,700.09,128.657z M693.105,128.748
							c0,1.933,1.094,3.392,2.662,3.392c1.533,0,2.682-1.44,2.682-3.428c0-1.495-0.748-3.374-2.645-3.374
							C693.926,125.338,693.105,127.089,693.105,128.748z"/>
						<path fill="#FFFFFF" d="M701.295,132.194c0-0.656,0.457-1.148,1.094-1.148c0.639,0,1.076,0.474,1.076,1.148
							c0,0.656-0.438,1.148-1.111,1.148C701.732,133.343,701.295,132.851,701.295,132.194z"/>
						<path fill="#FFFFFF" d="M509.15,141.099c0.967-0.164,2.115-0.273,3.373-0.273c2.279,0,3.902,0.547,4.979,1.531
							c1.113,1.003,1.75,2.426,1.75,4.413c0,2.006-0.637,3.646-1.768,4.777c-1.168,1.148-3.064,1.769-5.453,1.769
							c-1.148,0-2.078-0.055-2.881-0.146V141.099z M510.738,151.966c0.4,0.055,0.984,0.073,1.604,0.073
							c3.41,0,5.232-1.896,5.232-5.215c0.02-2.899-1.621-4.741-4.977-4.741c-0.82,0-1.441,0.073-1.859,0.164V151.966z"/>
						<path fill="#FFFFFF" d="M522.209,149.085c0.037,2.17,1.404,3.063,3.027,3.063c1.148,0,1.859-0.2,2.443-0.456l0.291,1.149
							c-0.564,0.255-1.549,0.564-2.953,0.564c-2.717,0-4.34-1.805-4.34-4.467s1.568-4.741,4.139-4.741c2.9,0,3.646,2.517,3.646,4.14
							c0,0.328-0.018,0.564-0.055,0.747H522.209z M526.914,147.937c0.018-1.003-0.42-2.59-2.225-2.59
							c-1.641,0-2.334,1.478-2.461,2.59H526.914z"/>
						<path fill="#FFFFFF" d="M538.057,140.26v10.667c0,0.784,0.037,1.678,0.074,2.279h-1.422l-0.074-1.531h-0.055
							c-0.475,0.984-1.531,1.731-2.973,1.731c-2.133,0-3.791-1.805-3.791-4.485c-0.02-2.936,1.822-4.723,3.955-4.723
							c1.369,0,2.262,0.639,2.662,1.331h0.037v-5.27H538.057z M536.471,147.973c0-0.2-0.018-0.474-0.072-0.675
							c-0.238-1.003-1.113-1.842-2.316-1.842c-1.658,0-2.645,1.459-2.645,3.392c0,1.787,0.895,3.265,2.607,3.265
							c1.076,0,2.061-0.729,2.354-1.915c0.055-0.219,0.072-0.438,0.072-0.692V147.973z"/>
						<path fill="#FFFFFF" d="M542.527,141.9c0,0.548-0.383,0.985-1.021,0.985c-0.584,0-0.967-0.438-0.967-0.985
							c0-0.547,0.4-1.003,1.004-1.003C542.125,140.897,542.527,141.336,542.527,141.9z M540.74,153.206v-8.825h1.604v8.825H540.74z"
							/>
						<path fill="#FFFFFF" d="M551.025,151.856h-0.037c-0.492,0.857-1.459,1.55-2.881,1.55c-2.061,0-3.738-1.769-3.738-4.449
							c0-3.318,2.133-4.759,3.994-4.759c1.367,0,2.279,0.675,2.717,1.514h0.035l0.055-1.331h1.514
							c-0.035,0.729-0.072,1.514-0.072,2.425v10.011h-1.586V151.856z M551.025,147.955c0-0.22-0.02-0.456-0.074-0.657
							c-0.254-0.984-1.094-1.823-2.297-1.823c-1.66,0-2.662,1.404-2.662,3.373c0,1.77,0.838,3.282,2.607,3.282
							c1.039,0,1.934-0.638,2.297-1.731c0.074-0.237,0.129-0.548,0.129-0.784V147.955z"/>
						<path fill="#FFFFFF" d="M562.66,150.781c0,0.93,0.02,1.731,0.074,2.425h-1.424l-0.09-1.44h-0.037
							c-0.4,0.711-1.35,1.641-2.918,1.641c-1.385,0-3.045-0.783-3.045-3.865v-5.16h1.605v4.868c0,1.678,0.529,2.826,1.969,2.826
							c1.076,0,1.824-0.747,2.115-1.477c0.092-0.219,0.146-0.511,0.146-0.82v-5.397h1.604V150.781z"/>
						<path fill="#FFFFFF" d="M566.219,149.085c0.037,2.17,1.404,3.063,3.027,3.063c1.148,0,1.859-0.2,2.443-0.456l0.291,1.149
							c-0.564,0.255-1.549,0.564-2.953,0.564c-2.717,0-4.34-1.805-4.34-4.467s1.568-4.741,4.139-4.741c2.9,0,3.646,2.517,3.646,4.14
							c0,0.328-0.018,0.564-0.055,0.747H566.219z M570.924,147.937c0.018-1.003-0.42-2.59-2.225-2.59
							c-1.641,0-2.334,1.478-2.461,2.59H570.924z"/>
						<path fill="#FFFFFF" d="M578.111,151.583c0.492,0.292,1.33,0.62,2.133,0.62c1.148,0,1.695-0.565,1.695-1.312
							c0-0.767-0.455-1.167-1.623-1.604c-1.604-0.584-2.352-1.441-2.352-2.499c0-1.422,1.168-2.589,3.045-2.589
							c0.895,0,1.678,0.237,2.152,0.547l-0.383,1.167c-0.348-0.219-0.984-0.528-1.807-0.528c-0.947,0-1.457,0.547-1.457,1.203
							c0,0.729,0.51,1.058,1.658,1.514c1.514,0.565,2.316,1.331,2.316,2.644c0,1.568-1.223,2.662-3.283,2.662
							c-0.965,0-1.859-0.255-2.479-0.619L578.111,151.583z"/>
						<path fill="#FFFFFF" d="M592.938,150.781c0,0.93,0.018,1.731,0.072,2.425h-1.422l-0.092-1.44h-0.035
							c-0.402,0.711-1.35,1.641-2.918,1.641c-1.387,0-3.045-0.783-3.045-3.865v-5.16h1.604v4.868c0,1.678,0.529,2.826,1.971,2.826
							c1.074,0,1.822-0.747,2.115-1.477c0.09-0.219,0.145-0.511,0.145-0.82v-5.397h1.605V150.781z"/>
						<path fill="#FFFFFF" d="M595.383,151.583c0.492,0.292,1.332,0.62,2.135,0.62c1.148,0,1.695-0.565,1.695-1.312
							c0-0.767-0.457-1.167-1.623-1.604c-1.605-0.584-2.352-1.441-2.352-2.499c0-1.422,1.166-2.589,3.045-2.589
							c0.893,0,1.678,0.237,2.15,0.547l-0.383,1.167c-0.346-0.219-0.984-0.528-1.805-0.528c-0.947,0-1.459,0.547-1.459,1.203
							c0,0.729,0.512,1.058,1.66,1.514c1.514,0.565,2.314,1.331,2.314,2.644c0,1.568-1.221,2.662-3.281,2.662
							c-0.967,0-1.859-0.255-2.48-0.619L595.383,151.583z"/>
						<path fill="#FFFFFF" d="M606.691,147.134c0-1.039-0.02-1.933-0.074-2.753h1.404l0.074,1.75h0.055
							c0.4-1.185,1.385-1.933,2.461-1.933c0.164,0,0.291,0.019,0.438,0.036v1.514c-0.164-0.036-0.328-0.036-0.547-0.036
							c-1.131,0-1.934,0.839-2.152,2.042c-0.035,0.219-0.055,0.492-0.055,0.748v4.704h-1.604V147.134z"/>
						<path fill="#FFFFFF" d="M613.365,149.085c0.037,2.17,1.404,3.063,3.027,3.063c1.148,0,1.859-0.2,2.443-0.456l0.291,1.149
							c-0.564,0.255-1.549,0.564-2.953,0.564c-2.717,0-4.34-1.805-4.34-4.467s1.568-4.741,4.139-4.741c2.9,0,3.646,2.517,3.646,4.14
							c0,0.328-0.018,0.564-0.055,0.747H613.365z M618.07,147.937c0.018-1.003-0.42-2.59-2.225-2.59
							c-1.641,0-2.334,1.478-2.461,2.59H618.07z"/>
						<path fill="#FFFFFF" d="M621.773,153.206v-7.604h-1.221v-1.222h1.221v-0.383c0-1.24,0.42-2.334,1.24-3.045
							c0.693-0.584,1.605-0.894,2.846-0.894c1.02,0,1.969,0.219,2.643,0.583v12.563h-1.604v-11.67
							c-0.273-0.146-0.693-0.237-1.312-0.237c-1.66,0-2.225,1.222-2.225,2.626v0.456h2.059v1.222h-2.059v7.604H621.773z"/>
						<path fill="#FFFFFF" d="M632.043,149.085c0.035,2.17,1.404,3.063,3.027,3.063c1.148,0,1.859-0.2,2.443-0.456l0.291,1.149
							c-0.566,0.255-1.551,0.564-2.955,0.564c-2.717,0-4.338-1.805-4.338-4.467s1.566-4.741,4.139-4.741
							c2.898,0,3.646,2.517,3.646,4.14c0,0.328-0.018,0.564-0.055,0.747H632.043z M636.746,147.937
							c0.02-1.003-0.418-2.59-2.225-2.59c-1.641,0-2.334,1.478-2.461,2.59H636.746z"/>
						<path fill="#FFFFFF" d="M640.98,144.381l1.258,1.896c0.346,0.492,0.619,0.93,0.912,1.422h0.035
							c0.293-0.511,0.584-0.967,0.895-1.44l1.221-1.878h1.75l-3.008,4.267l3.082,4.559h-1.805l-1.314-1.987
							c-0.346-0.511-0.637-1.003-0.947-1.532h-0.037c-0.291,0.529-0.584,1.003-0.93,1.532l-1.275,1.987h-1.77l3.137-4.504
							l-2.99-4.321H640.98z"/>
						<path fill="#FFFFFF" d="M650.463,141.9c0,0.548-0.383,0.985-1.021,0.985c-0.582,0-0.965-0.438-0.965-0.985
							c0-0.547,0.4-1.003,1.002-1.003C650.062,140.897,650.463,141.336,650.463,141.9z M648.676,153.206v-8.825h1.605v8.825H648.676
							z"/>
						<path fill="#FFFFFF" d="M660.93,148.721c0,3.264-2.279,4.686-4.395,4.686c-2.369,0-4.229-1.75-4.229-4.54
							c0-2.936,1.949-4.668,4.375-4.668C659.217,144.198,660.93,146.04,660.93,148.721z M653.947,148.812
							c0,1.933,1.094,3.392,2.662,3.392c1.531,0,2.68-1.44,2.68-3.428c0-1.495-0.748-3.374-2.645-3.374
							C654.768,145.401,653.947,147.152,653.947,148.812z"/>
						<path fill="#FFFFFF" d="M662.957,146.77c0-0.93-0.02-1.659-0.074-2.389h1.424l0.09,1.459h0.037
							c0.438-0.821,1.459-1.642,2.918-1.642c1.221,0,3.117,0.729,3.117,3.757v5.251h-1.604v-5.087c0-1.423-0.529-2.608-2.043-2.608
							c-1.039,0-1.859,0.748-2.152,1.642c-0.072,0.2-0.109,0.474-0.109,0.747v5.307h-1.604V146.77z"/>
						<path fill="#FFFFFF" d="M673.973,149.085c0.035,2.17,1.404,3.063,3.027,3.063c1.148,0,1.859-0.2,2.443-0.456l0.291,1.149
							c-0.566,0.255-1.551,0.564-2.955,0.564c-2.717,0-4.338-1.805-4.338-4.467s1.566-4.741,4.139-4.741
							c2.898,0,3.646,2.517,3.646,4.14c0,0.328-0.018,0.564-0.055,0.747H673.973z M678.676,147.937
							c0.02-1.003-0.418-2.59-2.225-2.59c-1.641,0-2.334,1.478-2.461,2.59H678.676z"/>
						<path fill="#FFFFFF" d="M681.998,151.583c0.492,0.292,1.33,0.62,2.133,0.62c1.148,0,1.695-0.565,1.695-1.312
							c0-0.767-0.455-1.167-1.623-1.604c-1.604-0.584-2.352-1.441-2.352-2.499c0-1.422,1.168-2.589,3.045-2.589
							c0.895,0,1.678,0.237,2.152,0.547l-0.383,1.167c-0.348-0.219-0.984-0.528-1.807-0.528c-0.947,0-1.457,0.547-1.457,1.203
							c0,0.729,0.51,1.058,1.658,1.514c1.514,0.565,2.316,1.331,2.316,2.644c0,1.568-1.223,2.662-3.283,2.662
							c-0.965,0-1.859-0.255-2.479-0.619L681.998,151.583z"/>
						<path fill="#FFFFFF" d="M699.504,151.091c0,0.766,0.037,1.514,0.129,2.115h-1.441l-0.127-1.112h-0.055
							c-0.492,0.693-1.441,1.312-2.699,1.312c-1.787,0-2.697-1.258-2.697-2.534c0-2.134,1.895-3.301,5.305-3.282v-0.183
							c0-0.711-0.199-2.042-2.006-2.023c-0.838,0-1.695,0.237-2.314,0.656l-0.365-1.076c0.729-0.455,1.805-0.766,2.918-0.766
							c2.697,0,3.354,1.842,3.354,3.592V151.091z M697.955,148.702c-1.75-0.036-3.738,0.273-3.738,1.987
							c0,1.058,0.693,1.532,1.496,1.532c1.166,0,1.914-0.729,2.17-1.478c0.055-0.182,0.072-0.364,0.072-0.511V148.702z"/>
						<path fill="#FFFFFF" d="M550.725,171.919h-0.037c-0.492,0.857-1.457,1.55-2.881,1.55c-2.061,0-3.736-1.769-3.736-4.449
							c0-3.318,2.133-4.759,3.992-4.759c1.367,0,2.279,0.675,2.717,1.514h0.037l0.055-1.331h1.514
							c-0.037,0.729-0.074,1.514-0.074,2.425v10.011h-1.586V171.919z M550.725,168.018c0-0.22-0.018-0.456-0.072-0.657
							c-0.256-0.984-1.094-1.823-2.299-1.823c-1.658,0-2.662,1.404-2.662,3.373c0,1.77,0.84,3.282,2.607,3.282
							c1.041,0,1.934-0.638,2.299-1.731c0.072-0.237,0.127-0.548,0.127-0.784V168.018z"/>
						<path fill="#FFFFFF" d="M562.361,170.844c0,0.93,0.018,1.731,0.072,2.425h-1.422l-0.092-1.44h-0.035
							c-0.402,0.711-1.35,1.641-2.918,1.641c-1.387,0-3.045-0.783-3.045-3.865v-5.16h1.604v4.868c0,1.678,0.529,2.826,1.971,2.826
							c1.074,0,1.822-0.747,2.115-1.477c0.09-0.219,0.145-0.511,0.145-0.82v-5.397h1.605V170.844z"/>
						<path fill="#FFFFFF" d="M566.812,161.963c0,0.548-0.383,0.985-1.021,0.985c-0.582,0-0.965-0.438-0.965-0.985
							c0-0.547,0.4-1.003,1.002-1.003C566.412,160.96,566.812,161.398,566.812,161.963z M565.025,173.269v-8.825h1.605v8.825
							H565.025z"/>
						<path fill="#FFFFFF" d="M570.188,169.147c0.035,2.17,1.404,3.063,3.027,3.063c1.148,0,1.859-0.2,2.443-0.456l0.291,1.149
							c-0.566,0.255-1.551,0.564-2.955,0.564c-2.717,0-4.338-1.805-4.338-4.467s1.566-4.741,4.139-4.741
							c2.898,0,3.646,2.517,3.646,4.14c0,0.328-0.018,0.564-0.055,0.747H570.188z M574.891,167.999
							c0.02-1.003-0.418-2.59-2.225-2.59c-1.641,0-2.334,1.478-2.461,2.59H574.891z"/>
						<path fill="#FFFFFF" d="M578.432,166.832c0-0.93-0.02-1.659-0.074-2.389h1.424l0.09,1.459h0.037
							c0.438-0.821,1.459-1.642,2.918-1.642c1.221,0,3.117,0.729,3.117,3.757v5.251h-1.604v-5.087c0-1.423-0.529-2.608-2.043-2.608
							c-1.039,0-1.859,0.748-2.152,1.642c-0.072,0.2-0.109,0.474-0.109,0.747v5.307h-1.604V166.832z"/>
						<path fill="#FFFFFF" d="M589.447,169.147c0.035,2.17,1.404,3.063,3.027,3.063c1.148,0,1.859-0.2,2.443-0.456l0.291,1.149
							c-0.566,0.255-1.551,0.564-2.955,0.564c-2.717,0-4.338-1.805-4.338-4.467s1.566-4.741,4.139-4.741
							c2.898,0,3.646,2.517,3.646,4.14c0,0.328-0.018,0.564-0.055,0.747H589.447z M594.15,167.999c0.02-1.003-0.418-2.59-2.225-2.59
							c-1.641,0-2.334,1.478-2.461,2.59H594.15z"/>
						<path fill="#FFFFFF" d="M597.473,171.646c0.492,0.292,1.33,0.62,2.133,0.62c1.148,0,1.695-0.565,1.695-1.312
							c0-0.767-0.455-1.167-1.623-1.604c-1.604-0.584-2.352-1.441-2.352-2.499c0-1.422,1.168-2.589,3.045-2.589
							c0.895,0,1.678,0.237,2.152,0.547l-0.383,1.167c-0.348-0.219-0.984-0.528-1.807-0.528c-0.947,0-1.457,0.547-1.457,1.203
							c0,0.729,0.51,1.058,1.658,1.514c1.514,0.565,2.316,1.331,2.316,2.644c0,1.568-1.223,2.662-3.283,2.662
							c-0.965,0-1.859-0.255-2.479-0.619L597.473,171.646z"/>
						<path fill="#FFFFFF" d="M614.979,171.153c0,0.766,0.037,1.514,0.129,2.115h-1.441l-0.127-1.112h-0.055
							c-0.492,0.693-1.441,1.312-2.699,1.312c-1.787,0-2.697-1.258-2.697-2.534c0-2.134,1.895-3.301,5.305-3.282v-0.183
							c0-0.711-0.199-2.042-2.006-2.023c-0.838,0-1.695,0.237-2.314,0.656l-0.365-1.076c0.729-0.455,1.805-0.766,2.918-0.766
							c2.697,0,3.354,1.842,3.354,3.592V171.153z M613.43,168.765c-1.75-0.036-3.738,0.273-3.738,1.987
							c0,1.058,0.693,1.532,1.496,1.532c1.166,0,1.914-0.729,2.17-1.478c0.055-0.182,0.072-0.364,0.072-0.511V168.765z"/>
						<path fill="#FFFFFF" d="M619.43,162.328v2.115h2.299v1.222h-2.299v4.759c0,1.094,0.311,1.714,1.205,1.714
							c0.438,0,0.691-0.036,0.93-0.109l0.072,1.222c-0.311,0.109-0.803,0.219-1.422,0.219c-0.748,0-1.35-0.255-1.732-0.674
							c-0.438-0.493-0.621-1.277-0.621-2.316v-4.813h-1.367v-1.222h1.367v-1.642L619.43,162.328z"/>
						<path fill="#FFFFFF" d="M625.322,161.963c0,0.548-0.383,0.985-1.021,0.985c-0.584,0-0.967-0.438-0.967-0.985
							c0-0.547,0.4-1.003,1.004-1.003C624.92,160.96,625.322,161.398,625.322,161.963z M623.535,173.269v-8.825h1.604v8.825H623.535
							z"/>
						<path fill="#FFFFFF" d="M628.695,169.147c0.037,2.17,1.404,3.063,3.027,3.063c1.148,0,1.859-0.2,2.443-0.456l0.291,1.149
							c-0.564,0.255-1.549,0.564-2.953,0.564c-2.717,0-4.34-1.805-4.34-4.467s1.568-4.741,4.139-4.741c2.9,0,3.646,2.517,3.646,4.14
							c0,0.328-0.018,0.564-0.055,0.747H628.695z M633.4,167.999c0.018-1.003-0.42-2.59-2.225-2.59c-1.641,0-2.334,1.478-2.461,2.59
							H633.4z"/>
						<path fill="#FFFFFF" d="M636.939,166.832c0-0.93-0.018-1.659-0.072-2.389h1.422l0.092,1.459h0.035
							c0.439-0.821,1.459-1.642,2.918-1.642c1.223,0,3.119,0.729,3.119,3.757v5.251h-1.605v-5.087c0-1.423-0.529-2.608-2.043-2.608
							c-1.039,0-1.859,0.748-2.15,1.642c-0.072,0.2-0.109,0.474-0.109,0.747v5.307h-1.605V166.832z"/>
						<path fill="#FFFFFF" d="M654.666,160.322v10.667c0,0.784,0.037,1.678,0.072,2.279h-1.422l-0.072-1.531h-0.055
							c-0.475,0.984-1.533,1.731-2.973,1.731c-2.133,0-3.793-1.805-3.793-4.485c-0.018-2.936,1.824-4.723,3.957-4.723
							c1.367,0,2.262,0.639,2.662,1.331h0.037v-5.27H654.666z M653.08,168.035c0-0.2-0.02-0.474-0.074-0.675
							c-0.236-1.003-1.111-1.842-2.314-1.842c-1.66,0-2.645,1.459-2.645,3.392c0,1.787,0.893,3.265,2.607,3.265
							c1.076,0,2.061-0.729,2.352-1.915c0.055-0.219,0.074-0.438,0.074-0.692V168.035z"/>
						<path fill="#FFFFFF" d="M658.242,169.147c0.037,2.17,1.404,3.063,3.027,3.063c1.148,0,1.859-0.2,2.443-0.456l0.291,1.149
							c-0.564,0.255-1.549,0.564-2.953,0.564c-2.717,0-4.34-1.805-4.34-4.467s1.568-4.741,4.139-4.741c2.9,0,3.646,2.517,3.646,4.14
							c0,0.328-0.018,0.564-0.055,0.747H658.242z M662.947,167.999c0.018-1.003-0.42-2.59-2.225-2.59
							c-1.641,0-2.334,1.478-2.461,2.59H662.947z"/>
					</g>
				</g>
			</g>
		</g>
		<path fill="none" stroke="#C15921" stroke-width="5" stroke-miterlimit="10" stroke-dasharray="4" d="M503.843,31.585
			c0,0-8.762,16.96-22.783,27.918c-14.02,10.958-33.297,8.958-33.297,8.958"/>
	</g>
	<g>
		<rect x="362.983" y="44.255" fill="#EBE760" fill-opacity="0.4" width="76.281" height="25.702"/>
	</g>
	<g>
		<rect y="70.984" fill="#EBE760" fill-opacity="0.4" width="439.265" height="25.702"/>
	</g>
	<g>
		<rect y="96.482" fill="#EBE760" fill-opacity="0.4" width="296.772" height="25.702"/>
	</g>
</g>
</svg>
