<?xml version="1.0" encoding="utf-8"?>
<!-- Generator: Adobe Illustrator 16.0.0, SVG Export Plug-In . SVG Version: 6.00 Build 0)  -->
<!DOCTYPE svg PUBLIC "-//W3C//DTD SVG 1.1//EN" "http://www.w3.org/Graphics/SVG/1.1/DTD/svg11.dtd">
<svg version="1.1" id="Capa_1" xmlns="http://www.w3.org/2000/svg" xmlns:xlink="http://www.w3.org/1999/xlink" x="0px" y="0px"
	 width="714.522px" height="201.192px" viewBox="0 0 714.522 201.192" enable-background="new 0 0 714.522 201.192"
	 xml:space="preserve">
<g>
	<g>
		<rect x="291.779" y="146.49" fill="#EBE760" fill-opacity="0.4" width="173.809" height="25.702"/>
	</g>
	<g>
		<rect y="175.49" fill="#EBE760" fill-opacity="0.4" width="113.896" height="25.702"/>
	</g>
	<g>
		<g>
			<g>
				<path fill-rule="evenodd" clip-rule="evenodd" fill="#C15921" d="M709.151,123.447c0,6.628-5.373,12-12,12H501.21
					c-6.627,0-12-5.372-12-12V12c0-6.628,5.373-12,12-12h195.941c6.627,0,12,5.372,12,12V123.447z"/>
				<g>
					<g>
						<path fill="#FFFFFF" d="M515.253,17.254c0.98-0.16,2.421-0.28,4.061-0.28c2.001,0,3.401,0.3,4.361,1.061
							c0.82,0.64,1.26,1.601,1.26,2.841c0,1.7-1.22,2.88-2.38,3.3v0.061c0.94,0.38,1.46,1.26,1.8,2.5
							c0.421,1.541,0.82,3.301,1.081,3.821h-3.121c-0.2-0.4-0.54-1.48-0.92-3.141c-0.381-1.7-0.961-2.141-2.221-2.16h-0.9v5.301
							h-3.021V17.254z M518.273,23.055h1.2c1.521,0,2.421-0.76,2.421-1.94c0-1.22-0.841-1.86-2.24-1.86
							c-0.74,0-1.161,0.04-1.381,0.101V23.055z"/>
						<path fill="#FFFFFF" d="M529.353,26.636c0.08,1.261,1.341,1.86,2.761,1.86c1.04,0,1.881-0.14,2.7-0.42l0.4,2.061
							c-1,0.42-2.221,0.62-3.541,0.62c-3.32,0-5.221-1.921-5.221-4.981c0-2.48,1.54-5.221,4.941-5.221c3.16,0,4.36,2.46,4.36,4.881
							c0,0.521-0.06,0.98-0.1,1.2H529.353z M532.934,24.556c0-0.74-0.32-1.98-1.721-1.98c-1.28,0-1.8,1.18-1.88,1.98H532.934z"/>
						<path fill="#FFFFFF" d="M540.973,18.134v2.641h2.181v2.24h-2.181v3.541c0,1.181,0.3,1.721,1.2,1.721
							c0.42,0,0.62-0.021,0.9-0.08l0.02,2.301c-0.38,0.14-1.12,0.26-1.96,0.26c-0.98,0-1.801-0.34-2.301-0.84
							c-0.56-0.581-0.84-1.521-0.84-2.901v-4.001h-1.301v-2.24h1.301v-1.82L540.973,18.134z"/>
						<path fill="#FFFFFF" d="M544.912,23.995c0-1.44-0.021-2.381-0.08-3.221h2.601l0.119,1.801h0.08
							c0.501-1.44,1.681-2.041,2.641-2.041c0.28,0,0.421,0.021,0.641,0.061v2.86c-0.24-0.04-0.48-0.08-0.82-0.08
							c-1.12,0-1.881,0.601-2.08,1.54c-0.04,0.2-0.061,0.44-0.061,0.681v4.961h-3.04V23.995z"/>
						<path fill="#FFFFFF" d="M562.013,25.556c0,3.581-2.54,5.221-5.16,5.221c-2.861,0-5.062-1.88-5.062-5.041
							c0-3.181,2.08-5.201,5.241-5.201C560.013,20.534,562.013,22.595,562.013,25.556z M554.932,25.655c0,1.681,0.7,2.941,2,2.941
							c1.201,0,1.94-1.181,1.94-2.961c0-1.44-0.56-2.921-1.94-2.921C555.492,22.715,554.932,24.215,554.932,25.655z"/>
						<path fill="#FFFFFF" d="M572.033,28.196c0,0.92,0.04,1.82,0.16,2.36h-2.741l-0.18-0.98h-0.061c-0.64,0.78-1.64,1.2-2.8,1.2
							c-1.98,0-3.161-1.44-3.161-3c0-2.541,2.28-3.741,5.741-3.741v-0.12c0-0.54-0.28-1.28-1.78-1.28c-1,0-2.061,0.34-2.7,0.74
							l-0.561-1.96c0.68-0.381,2.021-0.881,3.801-0.881c3.261,0,4.281,1.921,4.281,4.241V28.196z M569.092,25.936
							c-1.6,0-2.84,0.38-2.84,1.54c0,0.78,0.52,1.16,1.2,1.16c0.74,0,1.38-0.5,1.58-1.12c0.04-0.159,0.06-0.34,0.06-0.52V25.936z"/>
						<path fill="#FFFFFF" d="M574.451,16.354h3.04v14.203h-3.04V16.354z"/>
						<path fill="#FFFFFF" d="M583.092,18.054c0,0.841-0.62,1.521-1.641,1.521c-0.96,0-1.58-0.68-1.58-1.521
							c0-0.86,0.64-1.521,1.62-1.521S583.071,17.193,583.092,18.054z M579.951,30.557v-9.782h3.04v9.782H579.951z"/>
						<path fill="#FFFFFF" d="M585.431,23.896c0-1.221-0.04-2.241-0.08-3.121h2.58l0.12,1.32h0.06
							c0.421-0.64,1.301-1.561,2.961-1.561c1.28,0,2.261,0.66,2.681,1.681h0.04c0.38-0.521,0.8-0.92,1.28-1.2
							c0.54-0.3,1.141-0.48,1.86-0.48c1.881,0,3.301,1.32,3.301,4.262v5.761h-2.961v-5.321c0-1.42-0.46-2.24-1.44-2.24
							c-0.72,0-1.2,0.48-1.42,1.061c-0.06,0.22-0.1,0.52-0.1,0.779v5.722h-2.961v-5.501c0-1.221-0.44-2.061-1.42-2.061
							c-0.78,0-1.241,0.6-1.421,1.08c-0.1,0.24-0.12,0.521-0.12,0.78v5.701h-2.96V23.896z"/>
						<path fill="#FFFFFF" d="M604.97,26.636c0.08,1.261,1.341,1.86,2.761,1.86c1.04,0,1.881-0.14,2.7-0.42l0.4,2.061
							c-1,0.42-2.221,0.62-3.541,0.62c-3.32,0-5.221-1.921-5.221-4.981c0-2.48,1.54-5.221,4.941-5.221c3.16,0,4.36,2.46,4.36,4.881
							c0,0.521-0.06,0.98-0.1,1.2H604.97z M608.551,24.556c0-0.74-0.32-1.98-1.721-1.98c-1.28,0-1.8,1.18-1.88,1.98H608.551z"/>
						<path fill="#FFFFFF" d="M613.189,23.896c0-1.221-0.04-2.241-0.08-3.121h2.641l0.14,1.36h0.06c0.4-0.64,1.381-1.58,3.021-1.58
							c2,0,3.5,1.34,3.5,4.221v5.781h-3.04v-5.421c0-1.261-0.44-2.121-1.541-2.121c-0.84,0-1.34,0.58-1.56,1.141
							c-0.08,0.2-0.101,0.48-0.101,0.76v5.642h-3.04V23.896z"/>
						<path fill="#FFFFFF" d="M628.189,18.134v2.641h2.181v2.24h-2.181v3.541c0,1.181,0.3,1.721,1.2,1.721
							c0.42,0,0.62-0.021,0.9-0.08l0.02,2.301c-0.38,0.14-1.12,0.26-1.96,0.26c-0.98,0-1.801-0.34-2.301-0.84
							c-0.56-0.581-0.84-1.521-0.84-2.901v-4.001h-1.301v-2.24h1.301v-1.82L628.189,18.134z"/>
						<path fill="#FFFFFF" d="M640.271,28.196c0,0.92,0.04,1.82,0.16,2.36h-2.741l-0.18-0.98h-0.061c-0.64,0.78-1.64,1.2-2.8,1.2
							c-1.98,0-3.161-1.44-3.161-3c0-2.541,2.28-3.741,5.741-3.741v-0.12c0-0.54-0.28-1.28-1.78-1.28c-1,0-2.061,0.34-2.7,0.74
							l-0.561-1.96c0.68-0.381,2.021-0.881,3.801-0.881c3.261,0,4.281,1.921,4.281,4.241V28.196z M637.329,25.936
							c-1.6,0-2.84,0.38-2.84,1.54c0,0.78,0.52,1.16,1.2,1.16c0.74,0,1.38-0.5,1.58-1.12c0.04-0.159,0.06-0.34,0.06-0.52V25.936z"/>
						<path fill="#FFFFFF" d="M650.029,30.297c-0.54,0.26-1.56,0.46-2.721,0.46c-3.16,0-5.181-1.94-5.181-5.001
							c0-2.861,1.96-5.201,5.602-5.201c0.8,0,1.68,0.14,2.32,0.38l-0.48,2.261c-0.36-0.16-0.9-0.301-1.7-0.301
							c-1.601,0-2.641,1.141-2.62,2.741c0,1.78,1.2,2.74,2.68,2.74c0.721,0,1.28-0.12,1.741-0.32L650.029,30.297z"/>
						<path fill="#FFFFFF" d="M654.849,18.054c0,0.841-0.62,1.521-1.641,1.521c-0.96,0-1.58-0.68-1.58-1.521
							c0-0.86,0.64-1.521,1.62-1.521S654.828,17.193,654.849,18.054z M651.708,30.557v-9.782h3.04v9.782H651.708z"/>
						<path fill="#FFFFFF" d="M666.849,25.556c0,3.581-2.54,5.221-5.16,5.221c-2.861,0-5.062-1.88-5.062-5.041
							c0-3.181,2.08-5.201,5.241-5.201C664.849,20.534,666.849,22.595,666.849,25.556z M659.768,25.655c0,1.681,0.7,2.941,2,2.941
							c1.201,0,1.94-1.181,1.94-2.961c0-1.44-0.56-2.921-1.94-2.921C660.328,22.715,659.768,24.215,659.768,25.655z M664.909,16.514
							l-2.441,3.041h-2.08l1.721-3.041H664.909z"/>
						<path fill="#FFFFFF" d="M668.728,23.896c0-1.221-0.04-2.241-0.08-3.121h2.641l0.14,1.36h0.06c0.4-0.64,1.381-1.58,3.021-1.58
							c2,0,3.5,1.34,3.5,4.221v5.781h-3.04v-5.421c0-1.261-0.44-2.121-1.541-2.121c-0.84,0-1.34,0.58-1.56,1.141
							c-0.08,0.2-0.101,0.48-0.101,0.76v5.642h-3.04V23.896z"/>
						<path fill="#FFFFFF" d="M680.247,22.495c0-1.08,0.74-1.841,1.78-1.841c1.06,0,1.76,0.74,1.78,1.841
							c0,1.04-0.7,1.82-1.801,1.82C680.967,24.315,680.247,23.535,680.247,22.495z M680.247,28.956c0-1.08,0.74-1.84,1.78-1.84
							c1.06,0,1.76,0.74,1.78,1.84c0,1.04-0.7,1.82-1.801,1.82C680.967,30.776,680.247,29.996,680.247,28.956z"/>
						<path fill="#FFFFFF" d="M501.184,45.495c0-1.021-0.02-1.82-0.08-2.62h1.561l0.101,1.6h0.04c0.479-0.899,1.6-1.8,3.2-1.8
							c1.341,0,3.421,0.8,3.421,4.121v5.761h-1.761v-5.581c0-1.561-0.58-2.86-2.24-2.86c-1.141,0-2.04,0.819-2.36,1.8
							c-0.08,0.221-0.12,0.521-0.12,0.82v5.821h-1.761V45.495z"/>
						<path fill="#FFFFFF" d="M521.046,47.636c0,3.581-2.501,5.141-4.821,5.141c-2.601,0-4.642-1.92-4.642-4.98
							c0-3.221,2.141-5.121,4.802-5.121C519.165,42.675,521.046,44.695,521.046,47.636z M513.384,47.735
							c0,2.121,1.2,3.721,2.921,3.721c1.68,0,2.94-1.58,2.94-3.761c0-1.64-0.82-3.7-2.9-3.7
							C514.284,43.995,513.384,45.915,513.384,47.735z"/>
						<path fill="#FFFFFF" d="M527.503,38.354h1.761v14.203h-1.761V38.354z"/>
						<path fill="#FFFFFF" d="M533.203,48.036c0.04,2.38,1.54,3.36,3.321,3.36c1.26,0,2.04-0.22,2.68-0.5l0.32,1.26
							c-0.62,0.28-1.7,0.62-3.24,0.62c-2.98,0-4.762-1.98-4.762-4.9c0-2.921,1.721-5.201,4.541-5.201
							c3.181,0,4.001,2.761,4.001,4.541c0,0.359-0.02,0.62-0.06,0.82H533.203z M538.364,46.775c0.021-1.101-0.46-2.841-2.44-2.841
							c-1.801,0-2.561,1.62-2.7,2.841H538.364z"/>
						<path fill="#FFFFFF" d="M548.443,40.154c0,0.6-0.42,1.08-1.12,1.08c-0.641,0-1.061-0.48-1.061-1.08
							c0-0.601,0.44-1.101,1.101-1.101C548.003,39.054,548.443,39.534,548.443,40.154z M546.482,52.557v-9.682h1.761v9.682H546.482z
							"/>
						<path fill="#FFFFFF" d="M551.162,45.495c0-1.021-0.02-1.82-0.08-2.62h1.561l0.101,1.6h0.04c0.479-0.899,1.6-1.8,3.2-1.8
							c1.341,0,3.421,0.8,3.421,4.121v5.761h-1.761v-5.581c0-1.561-0.58-2.86-2.24-2.86c-1.141,0-2.04,0.819-2.36,1.8
							c-0.08,0.221-0.12,0.521-0.12,0.82v5.821h-1.761V45.495z"/>
						<path fill="#FFFFFF" d="M564.223,40.154c0,0.6-0.42,1.08-1.12,1.08c-0.641,0-1.061-0.48-1.061-1.08
							c0-0.601,0.44-1.101,1.101-1.101C563.782,39.054,564.223,39.534,564.223,40.154z M562.262,52.557v-9.682h1.761v9.682H562.262z
							"/>
						<path fill="#FFFFFF" d="M566.702,50.776c0.54,0.32,1.46,0.68,2.34,0.68c1.261,0,1.86-0.62,1.86-1.44
							c0-0.84-0.5-1.28-1.78-1.76c-1.76-0.641-2.58-1.58-2.58-2.741c0-1.56,1.28-2.84,3.341-2.84c0.979,0,1.84,0.26,2.36,0.6
							l-0.42,1.28c-0.381-0.24-1.081-0.58-1.98-0.58c-1.041,0-1.601,0.601-1.601,1.32c0,0.801,0.56,1.16,1.82,1.66
							c1.66,0.62,2.54,1.461,2.54,2.901c0,1.72-1.34,2.92-3.601,2.92c-1.06,0-2.04-0.279-2.721-0.68L566.702,50.776z"/>
						<path fill="#FFFFFF" d="M576.822,40.154c0,0.6-0.42,1.08-1.12,1.08c-0.641,0-1.061-0.48-1.061-1.08
							c0-0.601,0.44-1.101,1.101-1.101C576.382,39.054,576.822,39.534,576.822,40.154z M574.861,52.557v-9.682h1.761v9.682H574.861z
							"/>
						<path fill="#FFFFFF" d="M581.662,40.554v2.321h2.521v1.34h-2.521v5.221c0,1.2,0.34,1.881,1.32,1.881
							c0.479,0,0.76-0.04,1.02-0.12l0.08,1.341c-0.34,0.119-0.88,0.239-1.56,0.239c-0.82,0-1.48-0.279-1.9-0.74
							c-0.48-0.54-0.681-1.4-0.681-2.54v-5.281h-1.5v-1.34h1.5v-1.801L581.662,40.554z"/>
						<path fill="#FFFFFF" d="M592.963,50.236c0,0.84,0.04,1.66,0.14,2.32h-1.58l-0.14-1.221h-0.061
							c-0.54,0.761-1.58,1.44-2.96,1.44c-1.961,0-2.961-1.38-2.961-2.78c0-2.341,2.08-3.621,5.821-3.601v-0.2
							c0-0.78-0.22-2.24-2.2-2.221c-0.921,0-1.86,0.261-2.541,0.721l-0.4-1.181c0.801-0.5,1.98-0.84,3.201-0.84
							c2.961,0,3.681,2.021,3.681,3.94V50.236z M591.263,47.615c-1.921-0.04-4.101,0.301-4.101,2.181c0,1.16,0.76,1.681,1.64,1.681
							c1.28,0,2.101-0.801,2.381-1.62c0.06-0.2,0.08-0.4,0.08-0.561V47.615z"/>
						<path fill="#FFFFFF" d="M606.843,50.236c0,0.84,0.04,1.66,0.14,2.32h-1.58l-0.14-1.221h-0.061
							c-0.54,0.761-1.58,1.44-2.96,1.44c-1.961,0-2.961-1.38-2.961-2.78c0-2.341,2.08-3.621,5.821-3.601v-0.2
							c0-0.78-0.22-2.24-2.2-2.221c-0.921,0-1.86,0.261-2.541,0.721l-0.4-1.181c0.801-0.5,1.98-0.84,3.201-0.84
							c2.961,0,3.681,2.021,3.681,3.94V50.236z M605.143,47.615c-1.921-0.04-4.101,0.301-4.101,2.181c0,1.16,0.76,1.681,1.64,1.681
							c1.28,0,2.101-0.801,2.381-1.62c0.06-0.2,0.08-0.4,0.08-0.561V47.615z"/>
						<path fill="#FFFFFF" d="M613.921,38.354h1.761v14.203h-1.761V38.354z"/>
						<path fill="#FFFFFF" d="M625.442,50.236c0,0.84,0.04,1.66,0.14,2.32h-1.58l-0.14-1.221h-0.061
							c-0.54,0.761-1.58,1.44-2.96,1.44c-1.961,0-2.961-1.38-2.961-2.78c0-2.341,2.08-3.621,5.821-3.601v-0.2
							c0-0.78-0.22-2.24-2.2-2.221c-0.921,0-1.86,0.261-2.541,0.721l-0.4-1.181c0.801-0.5,1.98-0.84,3.201-0.84
							c2.961,0,3.681,2.021,3.681,3.94V50.236z M623.742,47.615c-1.921-0.04-4.101,0.301-4.101,2.181c0,1.16,0.76,1.681,1.64,1.681
							c1.28,0,2.101-0.801,2.381-1.62c0.06-0.2,0.08-0.4,0.08-0.561V47.615z"/>
						<path fill="#FFFFFF" d="M632.521,46.035c0-1.24-0.04-2.24-0.08-3.16h1.561l0.101,1.66h0.04c0.7-1.181,1.86-1.86,3.44-1.86
							c2.36,0,4.121,1.98,4.121,4.9c0,3.481-2.141,5.201-4.421,5.201c-1.28,0-2.4-0.56-2.981-1.52h-0.04v5.261h-1.74V46.035z
							 M634.261,48.616c0,0.26,0.021,0.5,0.08,0.72c0.32,1.221,1.381,2.061,2.641,2.061c1.86,0,2.941-1.521,2.941-3.741
							c0-1.92-1.021-3.58-2.881-3.58c-1.2,0-2.341,0.84-2.661,2.16c-0.06,0.22-0.12,0.48-0.12,0.7V48.616z"/>
						<path fill="#FFFFFF" d="M644.881,48.036c0.04,2.38,1.54,3.36,3.321,3.36c1.26,0,2.04-0.22,2.68-0.5l0.32,1.26
							c-0.62,0.28-1.7,0.62-3.24,0.62c-2.98,0-4.762-1.98-4.762-4.9c0-2.921,1.721-5.201,4.541-5.201
							c3.181,0,4.001,2.761,4.001,4.541c0,0.359-0.02,0.62-0.06,0.82H644.881z M650.042,46.775c0.021-1.101-0.46-2.841-2.44-2.841
							c-1.801,0-2.561,1.62-2.7,2.841H650.042z"/>
						<path fill="#FFFFFF" d="M653.92,45.896c0-1.141-0.02-2.121-0.08-3.021h1.541l0.08,1.92h0.06c0.44-1.3,1.521-2.12,2.701-2.12
							c0.18,0,0.319,0.02,0.479,0.04v1.66c-0.18-0.04-0.36-0.04-0.6-0.04c-1.24,0-2.121,0.92-2.361,2.24
							c-0.04,0.24-0.06,0.54-0.06,0.82v5.161h-1.761V45.896z"/>
						<path fill="#FFFFFF" d="M660.221,50.776c0.54,0.32,1.46,0.68,2.34,0.68c1.261,0,1.86-0.62,1.86-1.44
							c0-0.84-0.5-1.28-1.78-1.76c-1.76-0.641-2.58-1.58-2.58-2.741c0-1.56,1.28-2.84,3.341-2.84c0.979,0,1.84,0.26,2.36,0.6
							l-0.42,1.28c-0.381-0.24-1.081-0.58-1.98-0.58c-1.041,0-1.601,0.601-1.601,1.32c0,0.801,0.56,1.16,1.82,1.66
							c1.66,0.62,2.54,1.461,2.54,2.901c0,1.72-1.34,2.92-3.601,2.92c-1.06,0-2.04-0.279-2.721-0.68L660.221,50.776z"/>
						<path fill="#FFFFFF" d="M677.143,47.636c0,3.581-2.501,5.141-4.821,5.141c-2.601,0-4.642-1.92-4.642-4.98
							c0-3.221,2.141-5.121,4.802-5.121C675.262,42.675,677.143,44.695,677.143,47.636z M669.48,47.735
							c0,2.121,1.2,3.721,2.921,3.721c1.68,0,2.94-1.58,2.94-3.761c0-1.64-0.82-3.7-2.9-3.7
							C670.381,43.995,669.48,45.915,669.48,47.735z"/>
						<path fill="#FFFFFF" d="M679.359,45.495c0-1.021-0.02-1.82-0.08-2.62h1.561l0.101,1.6h0.04c0.479-0.899,1.6-1.8,3.2-1.8
							c1.341,0,3.421,0.8,3.421,4.121v5.761h-1.761v-5.581c0-1.561-0.58-2.86-2.24-2.86c-1.141,0-2.04,0.819-2.36,1.8
							c-0.08,0.221-0.12,0.521-0.12,0.82v5.821h-1.761V45.495z"/>
						<path fill="#FFFFFF" d="M697.261,50.236c0,0.84,0.04,1.66,0.14,2.32h-1.58l-0.14-1.221h-0.061
							c-0.54,0.761-1.58,1.44-2.96,1.44c-1.961,0-2.961-1.38-2.961-2.78c0-2.341,2.08-3.621,5.821-3.601v-0.2
							c0-0.78-0.22-2.24-2.2-2.221c-0.921,0-1.86,0.261-2.541,0.721l-0.4-1.181c0.801-0.5,1.98-0.84,3.201-0.84
							c2.961,0,3.681,2.021,3.681,3.94V50.236z M695.561,47.615c-1.921-0.04-4.101,0.301-4.101,2.181c0,1.16,0.76,1.681,1.64,1.681
							c1.28,0,2.101-0.801,2.381-1.62c0.06-0.2,0.08-0.4,0.08-0.561V47.615z"/>
						<path fill="#FFFFFF" d="M507.965,73.076h-0.04c-0.54,0.94-1.601,1.7-3.16,1.7c-2.261,0-4.102-1.94-4.102-4.881
							c0-3.641,2.341-5.221,4.381-5.221c1.501,0,2.501,0.74,2.981,1.66h0.04l0.06-1.46h1.66c-0.04,0.8-0.08,1.66-0.08,2.66v10.982
							h-1.74V73.076z M507.965,68.796c0-0.24-0.02-0.501-0.08-0.721c-0.28-1.08-1.2-2-2.521-2c-1.82,0-2.92,1.54-2.92,3.7
							c0,1.94,0.92,3.601,2.86,3.601c1.14,0,2.12-0.7,2.521-1.9c0.08-0.26,0.14-0.6,0.14-0.859V68.796z"/>
						<path fill="#FFFFFF" d="M520.726,71.896c0,1.02,0.02,1.9,0.079,2.66h-1.56l-0.101-1.58h-0.04c-0.439,0.78-1.48,1.8-3.2,1.8
							c-1.521,0-3.341-0.859-3.341-4.24v-5.661h1.761v5.341c0,1.84,0.58,3.101,2.16,3.101c1.18,0,2-0.82,2.32-1.62
							c0.1-0.24,0.16-0.561,0.16-0.9v-5.921h1.761V71.896z"/>
						<path fill="#FFFFFF" d="M524.623,70.036c0.04,2.38,1.54,3.36,3.321,3.36c1.26,0,2.04-0.22,2.68-0.5l0.32,1.26
							c-0.62,0.28-1.7,0.62-3.24,0.62c-2.98,0-4.762-1.98-4.762-4.9c0-2.921,1.721-5.201,4.541-5.201
							c3.181,0,4.001,2.761,4.001,4.541c0,0.359-0.02,0.62-0.06,0.82H524.623z M529.784,68.775c0.021-1.101-0.46-2.841-2.44-2.841
							c-1.801,0-2.561,1.62-2.7,2.841H529.784z"/>
						<path fill="#FFFFFF" d="M544.804,74.217c-0.46,0.22-1.479,0.56-2.78,0.56c-2.921,0-4.821-1.98-4.821-4.94
							c0-2.98,2.041-5.161,5.201-5.161c1.041,0,1.961,0.26,2.44,0.52l-0.399,1.341c-0.42-0.221-1.08-0.46-2.041-0.46
							c-2.22,0-3.42,1.66-3.42,3.66c0,2.241,1.439,3.621,3.36,3.621c1,0,1.66-0.24,2.16-0.46L544.804,74.217z"/>
						<path fill="#FFFFFF" d="M555.505,69.636c0,3.581-2.501,5.141-4.821,5.141c-2.601,0-4.642-1.92-4.642-4.98
							c0-3.221,2.141-5.121,4.802-5.121C553.624,64.675,555.505,66.695,555.505,69.636z M547.843,69.735
							c0,2.121,1.2,3.721,2.921,3.721c1.68,0,2.94-1.58,2.94-3.761c0-1.64-0.82-3.7-2.9-3.7
							C548.743,65.995,547.843,67.915,547.843,69.735z"/>
						<path fill="#FFFFFF" d="M557.722,67.495c0-1.021-0.02-1.82-0.08-2.62h1.561l0.101,1.6h0.04c0.479-0.899,1.6-1.8,3.2-1.8
							c1.341,0,3.421,0.8,3.421,4.121v5.761h-1.761v-5.581c0-1.561-0.58-2.86-2.24-2.86c-1.141,0-2.04,0.819-2.36,1.8
							c-0.08,0.221-0.12,0.521-0.12,0.82v5.821h-1.761V67.495z"/>
						<path fill="#FFFFFF" d="M570.862,62.554v2.321h2.521v1.34h-2.521v5.221c0,1.2,0.34,1.881,1.32,1.881
							c0.479,0,0.76-0.04,1.02-0.12l0.08,1.341c-0.34,0.119-0.88,0.239-1.56,0.239c-0.82,0-1.48-0.279-1.9-0.74
							c-0.48-0.54-0.681-1.4-0.681-2.54v-5.281h-1.5v-1.34h1.5v-1.801L570.862,62.554z"/>
						<path fill="#FFFFFF" d="M577.322,62.154c0,0.6-0.42,1.08-1.12,1.08c-0.641,0-1.061-0.48-1.061-1.08
							c0-0.601,0.44-1.101,1.101-1.101C576.882,61.054,577.322,61.534,577.322,62.154z M575.361,74.557v-9.682h1.761v9.682H575.361z
							"/>
						<path fill="#FFFFFF" d="M580.041,67.495c0-1.021-0.02-1.82-0.08-2.62h1.561l0.101,1.6h0.04c0.479-0.899,1.6-1.8,3.2-1.8
							c1.341,0,3.421,0.8,3.421,4.121v5.761h-1.761v-5.581c0-1.561-0.58-2.86-2.24-2.86c-1.141,0-2.04,0.819-2.36,1.8
							c-0.08,0.221-0.12,0.521-0.12,0.82v5.821h-1.761V67.495z"/>
						<path fill="#FFFFFF" d="M599.243,71.896c0,1.02,0.02,1.9,0.079,2.66h-1.56l-0.101-1.58h-0.04c-0.439,0.78-1.48,1.8-3.2,1.8
							c-1.521,0-3.341-0.859-3.341-4.24v-5.661h1.761v5.341c0,1.84,0.58,3.101,2.16,3.101c1.18,0,2-0.82,2.32-1.62
							c0.1-0.24,0.16-0.561,0.16-0.9v-5.921h1.761V71.896z M598.022,60.693l-2.44,2.861h-1.24l1.76-2.861H598.022z"/>
						<path fill="#FFFFFF" d="M603.141,70.036c0.04,2.38,1.54,3.36,3.321,3.36c1.26,0,2.04-0.22,2.68-0.5l0.32,1.26
							c-0.62,0.28-1.7,0.62-3.24,0.62c-2.98,0-4.762-1.98-4.762-4.9c0-2.921,1.721-5.201,4.541-5.201
							c3.181,0,4.001,2.761,4.001,4.541c0,0.359-0.02,0.62-0.06,0.82H603.141z M608.302,68.775c0.021-1.101-0.46-2.841-2.44-2.841
							c-1.801,0-2.561,1.62-2.7,2.841H608.302z"/>
						<path fill="#FFFFFF" d="M616.42,60.354h1.761v6.062h0.04c0.28-0.5,0.72-0.96,1.26-1.261c0.521-0.3,1.141-0.479,1.801-0.479
							c1.301,0,3.381,0.8,3.381,4.121v5.761h-1.761v-5.562c0-1.56-0.58-2.86-2.24-2.86c-1.141,0-2.021,0.8-2.36,1.74
							c-0.101,0.261-0.12,0.521-0.12,0.841v5.841h-1.761V60.354z"/>
						<path fill="#FFFFFF" d="M634.321,72.236c0,0.84,0.04,1.66,0.14,2.32h-1.58l-0.14-1.221h-0.061
							c-0.54,0.761-1.58,1.44-2.96,1.44c-1.961,0-2.961-1.38-2.961-2.78c0-2.341,2.08-3.621,5.821-3.601v-0.2
							c0-0.78-0.22-2.24-2.2-2.221c-0.921,0-1.86,0.261-2.541,0.721l-0.4-1.181c0.801-0.5,1.98-0.84,3.201-0.84
							c2.961,0,3.681,2.021,3.681,3.94V72.236z M632.621,69.615c-1.921-0.04-4.101,0.301-4.101,2.181c0,1.16,0.76,1.681,1.64,1.681
							c1.28,0,2.101-0.801,2.381-1.62c0.06-0.2,0.08-0.4,0.08-0.561V69.615z"/>
						<path fill="#FFFFFF" d="M637.159,60.354h1.74v6.081h0.04c0.62-1.08,1.741-1.76,3.301-1.76c2.421,0,4.102,2,4.102,4.921
							c0,3.461-2.201,5.181-4.361,5.181c-1.4,0-2.521-0.54-3.261-1.8h-0.04l-0.1,1.58h-1.501c0.04-0.66,0.08-1.641,0.08-2.501
							V60.354z M638.899,70.676c0,0.22,0.021,0.44,0.08,0.641c0.32,1.22,1.36,2.06,2.641,2.06c1.86,0,2.941-1.5,2.941-3.721
							c0-1.94-1.001-3.601-2.901-3.601c-1.18,0-2.3,0.84-2.66,2.16c-0.061,0.221-0.101,0.461-0.101,0.74V70.676z"/>
						<path fill="#FFFFFF" d="M648.539,60.354h1.761v14.203h-1.761V60.354z"/>
						<path fill="#FFFFFF" d="M660.061,72.236c0,0.84,0.04,1.66,0.14,2.32h-1.58l-0.14-1.221h-0.061
							c-0.54,0.761-1.58,1.44-2.96,1.44c-1.961,0-2.961-1.38-2.961-2.78c0-2.341,2.08-3.621,5.821-3.601v-0.2
							c0-0.78-0.22-2.24-2.2-2.221c-0.921,0-1.86,0.261-2.541,0.721l-0.4-1.181c0.801-0.5,1.98-0.84,3.201-0.84
							c2.961,0,3.681,2.021,3.681,3.94V72.236z M658.36,69.615c-1.921-0.04-4.101,0.301-4.101,2.181c0,1.16,0.76,1.681,1.64,1.681
							c1.28,0,2.101-0.801,2.381-1.62c0.06-0.2,0.08-0.4,0.08-0.561V69.615z"/>
						<path fill="#FFFFFF" d="M662.898,67.495c0-1.021-0.02-1.82-0.08-2.62h1.561l0.101,1.6h0.04c0.479-0.899,1.6-1.8,3.2-1.8
							c1.341,0,3.421,0.8,3.421,4.121v5.761h-1.761v-5.581c0-1.561-0.58-2.86-2.24-2.86c-1.141,0-2.04,0.819-2.36,1.8
							c-0.08,0.221-0.12,0.521-0.12,0.82v5.821h-1.761V67.495z"/>
						<path fill="#FFFFFF" d="M682.34,60.354v11.702c0,0.86,0.04,1.841,0.08,2.501h-1.56l-0.08-1.681h-0.061
							c-0.52,1.08-1.681,1.9-3.261,1.9c-2.341,0-4.161-1.98-4.161-4.921c-0.02-3.221,2.001-5.181,4.342-5.181
							c1.5,0,2.48,0.7,2.92,1.46h0.04v-5.781H682.34z M680.6,68.815c0-0.22-0.02-0.521-0.08-0.74c-0.26-1.101-1.22-2.021-2.54-2.021
							c-1.82,0-2.9,1.601-2.9,3.721c0,1.961,0.979,3.581,2.86,3.581c1.18,0,2.261-0.8,2.58-2.101c0.061-0.24,0.08-0.48,0.08-0.76
							V68.815z"/>
						<path fill="#FFFFFF" d="M694.041,69.636c0,3.581-2.501,5.141-4.821,5.141c-2.601,0-4.642-1.92-4.642-4.98
							c0-3.221,2.141-5.121,4.802-5.121C692.16,64.675,694.041,66.695,694.041,69.636z M686.379,69.735
							c0,2.121,1.2,3.721,2.921,3.721c1.68,0,2.94-1.58,2.94-3.761c0-1.64-0.82-3.7-2.9-3.7
							C687.279,65.995,686.379,67.915,686.379,69.735z"/>
						<path fill="#FFFFFF" d="M695.358,73.517c0-0.721,0.5-1.261,1.2-1.261s1.181,0.521,1.181,1.261c0,0.72-0.48,1.26-1.221,1.26
							C695.839,74.776,695.358,74.236,695.358,73.517z"/>
						<path fill="#FFFFFF" d="M509.215,90.235h-5.221v4.861h5.841v1.46h-7.602V83.074h7.302v1.46h-5.541v4.261h5.221V90.235z"/>
						<path fill="#FFFFFF" d="M511.794,94.776c0.54,0.32,1.46,0.68,2.34,0.68c1.261,0,1.86-0.62,1.86-1.44
							c0-0.84-0.5-1.28-1.78-1.76c-1.76-0.641-2.58-1.58-2.58-2.741c0-1.56,1.28-2.84,3.341-2.84c0.979,0,1.84,0.26,2.36,0.6
							l-0.42,1.28c-0.381-0.24-1.081-0.58-1.98-0.58c-1.041,0-1.601,0.601-1.601,1.32c0,0.801,0.56,1.16,1.82,1.66
							c1.66,0.62,2.54,1.461,2.54,2.901c0,1.72-1.34,2.92-3.601,2.92c-1.06,0-2.04-0.279-2.721-0.68L511.794,94.776z"/>
						<path fill="#FFFFFF" d="M519.953,90.035c0-1.24-0.04-2.24-0.08-3.16h1.561l0.101,1.66h0.04c0.7-1.181,1.86-1.86,3.44-1.86
							c2.36,0,4.121,1.98,4.121,4.9c0,3.481-2.141,5.201-4.421,5.201c-1.28,0-2.4-0.56-2.981-1.52h-0.039v5.261h-1.741V90.035z
							 M521.694,92.616c0,0.26,0.02,0.5,0.079,0.72c0.32,1.221,1.381,2.061,2.641,2.061c1.86,0,2.941-1.521,2.941-3.741
							c0-1.92-1.021-3.58-2.881-3.58c-1.2,0-2.341,0.84-2.661,2.16c-0.06,0.22-0.119,0.48-0.119,0.7V92.616z"/>
						<path fill="#FFFFFF" d="M532.313,92.036c0.04,2.38,1.54,3.36,3.32,3.36c1.261,0,2.041-0.22,2.681-0.5l0.32,1.26
							c-0.62,0.28-1.7,0.62-3.24,0.62c-2.98,0-4.762-1.98-4.762-4.9c0-2.921,1.721-5.201,4.541-5.201
							c3.181,0,4.001,2.761,4.001,4.541c0,0.359-0.02,0.62-0.06,0.82H532.313z M537.475,90.775c0.021-1.101-0.46-2.841-2.44-2.841
							c-1.801,0-2.561,1.62-2.7,2.841H537.475z"/>
						<path fill="#FFFFFF" d="M541.353,89.896c0-1.141-0.02-2.121-0.08-3.021h1.541l0.08,1.92h0.06c0.44-1.3,1.521-2.12,2.7-2.12
							c0.181,0,0.32,0.02,0.48,0.04v1.66c-0.18-0.04-0.36-0.04-0.6-0.04c-1.24,0-2.121,0.92-2.361,2.24
							c-0.04,0.24-0.06,0.54-0.06,0.82v5.161h-1.761V89.896z"/>
						<path fill="#FFFFFF" d="M548.673,92.036c0.04,2.38,1.54,3.36,3.32,3.36c1.261,0,2.041-0.22,2.681-0.5l0.32,1.26
							c-0.62,0.28-1.7,0.62-3.24,0.62c-2.98,0-4.762-1.98-4.762-4.9c0-2.921,1.721-5.201,4.541-5.201
							c3.181,0,4.001,2.761,4.001,4.541c0,0.359-0.02,0.62-0.06,0.82H548.673z M553.834,90.775c0.021-1.101-0.46-2.841-2.44-2.841
							c-1.801,0-2.561,1.62-2.7,2.841H553.834z"/>
						<path fill="#FFFFFF" d="M570.055,93.896c0,1.02,0.02,1.9,0.079,2.66h-1.56l-0.101-1.58h-0.04c-0.439,0.78-1.48,1.8-3.2,1.8
							c-1.521,0-3.341-0.859-3.341-4.24v-5.661h1.761v5.341c0,1.84,0.58,3.101,2.16,3.101c1.18,0,2-0.82,2.32-1.62
							c0.1-0.24,0.16-0.561,0.16-0.9v-5.921h1.761V93.896z"/>
						<path fill="#FFFFFF" d="M572.972,89.495c0-1.021-0.02-1.82-0.08-2.62h1.561l0.101,1.6h0.04c0.479-0.899,1.6-1.8,3.2-1.8
							c1.341,0,3.421,0.8,3.421,4.121v5.761h-1.761v-5.581c0-1.561-0.58-2.86-2.24-2.86c-1.141,0-2.04,0.819-2.36,1.8
							c-0.08,0.221-0.12,0.521-0.12,0.82v5.821h-1.761V89.495z"/>
						<path fill="#FFFFFF" d="M590.433,84.554v2.321h2.521v1.34h-2.521v5.221c0,1.2,0.34,1.881,1.32,1.881
							c0.479,0,0.76-0.04,1.02-0.12l0.08,1.341c-0.34,0.119-0.88,0.239-1.56,0.239c-0.82,0-1.48-0.279-1.9-0.74
							c-0.48-0.54-0.681-1.4-0.681-2.54v-5.281h-1.5v-1.34h1.5v-1.801L590.433,84.554z"/>
						<path fill="#FFFFFF" d="M596.893,84.154c0,0.6-0.42,1.08-1.12,1.08c-0.641,0-1.061-0.48-1.061-1.08
							c0-0.601,0.44-1.101,1.101-1.101C596.452,83.054,596.893,83.534,596.893,84.154z M594.932,96.557v-9.682h1.761v9.682H594.932z
							"/>
						<path fill="#FFFFFF" d="M600.592,92.036c0.04,2.38,1.54,3.36,3.321,3.36c1.26,0,2.04-0.22,2.68-0.5l0.32,1.26
							c-0.62,0.28-1.7,0.62-3.24,0.62c-2.98,0-4.762-1.98-4.762-4.9c0-2.921,1.721-5.201,4.541-5.201
							c3.181,0,4.001,2.761,4.001,4.541c0,0.359-0.02,0.62-0.06,0.82H600.592z M605.753,90.775c0.021-1.101-0.46-2.841-2.44-2.841
							c-1.801,0-2.561,1.62-2.7,2.841H605.753z"/>
						<path fill="#FFFFFF" d="M609.631,89.495c0-1.021-0.04-1.82-0.08-2.62h1.541l0.08,1.58h0.06c0.54-0.92,1.44-1.78,3.061-1.78
							c1.301,0,2.301,0.8,2.721,1.94h0.04c0.3-0.561,0.7-0.961,1.101-1.261c0.58-0.439,1.2-0.68,2.12-0.68
							c1.301,0,3.201,0.84,3.201,4.2v5.682h-1.721v-5.461c0-1.881-0.7-2.98-2.101-2.98c-1.021,0-1.78,0.74-2.101,1.58
							c-0.08,0.26-0.14,0.56-0.14,0.88v5.981h-1.721v-5.801c0-1.541-0.68-2.641-2.021-2.641c-1.08,0-1.9,0.88-2.181,1.76
							c-0.1,0.24-0.14,0.561-0.14,0.86v5.821h-1.721V89.495z"/>
						<path fill="#FFFFFF" d="M626.311,90.035c0-1.24-0.04-2.24-0.08-3.16h1.561l0.101,1.66h0.04c0.7-1.181,1.86-1.86,3.44-1.86
							c2.36,0,4.121,1.98,4.121,4.9c0,3.481-2.141,5.201-4.421,5.201c-1.28,0-2.4-0.56-2.981-1.52h-0.039v5.261h-1.741V90.035z
							 M628.052,92.616c0,0.26,0.02,0.5,0.079,0.72c0.32,1.221,1.381,2.061,2.641,2.061c1.86,0,2.941-1.521,2.941-3.741
							c0-1.92-1.021-3.58-2.881-3.58c-1.2,0-2.341,0.84-2.661,2.16c-0.06,0.22-0.119,0.48-0.119,0.7V92.616z"/>
						<path fill="#FFFFFF" d="M646.453,91.636c0,3.581-2.501,5.141-4.821,5.141c-2.601,0-4.642-1.92-4.642-4.98
							c0-3.221,2.141-5.121,4.802-5.121C644.572,86.675,646.453,88.695,646.453,91.636z M638.791,91.735
							c0,2.121,1.2,3.721,2.921,3.721c1.68,0,2.94-1.58,2.94-3.761c0-1.64-0.82-3.7-2.9-3.7
							C639.691,87.995,638.791,89.915,638.791,91.735z"/>
						<path fill="#FFFFFF" d="M659.712,94.236c0,0.84,0.04,1.66,0.14,2.32h-1.58l-0.14-1.221h-0.061
							c-0.54,0.761-1.58,1.44-2.96,1.44c-1.961,0-2.961-1.38-2.961-2.78c0-2.341,2.08-3.621,5.821-3.601v-0.2
							c0-0.78-0.22-2.24-2.2-2.221c-0.921,0-1.86,0.261-2.541,0.721l-0.4-1.181c0.801-0.5,1.98-0.84,3.201-0.84
							c2.961,0,3.681,2.021,3.681,3.94V94.236z M658.012,91.615c-1.921-0.04-4.101,0.301-4.101,2.181c0,1.16,0.76,1.681,1.64,1.681
							c1.28,0,2.101-0.801,2.381-1.62c0.06-0.2,0.08-0.4,0.08-0.561V91.615z"/>
						<path fill="#FFFFFF" d="M673.392,95.076h-0.04c-0.54,0.94-1.601,1.7-3.16,1.7c-2.261,0-4.102-1.94-4.102-4.881
							c0-3.641,2.341-5.221,4.381-5.221c1.501,0,2.501,0.74,2.981,1.66h0.04l0.06-1.46h1.66c-0.04,0.8-0.08,1.66-0.08,2.66v10.982
							h-1.74V95.076z M673.392,90.796c0-0.24-0.02-0.501-0.08-0.721c-0.28-1.08-1.2-2-2.521-2c-1.82,0-2.92,1.54-2.92,3.7
							c0,1.94,0.92,3.601,2.86,3.601c1.14,0,2.12-0.7,2.521-1.9c0.08-0.26,0.14-0.6,0.14-0.859V90.796z"/>
						<path fill="#FFFFFF" d="M686.152,93.896c0,1.02,0.02,1.9,0.079,2.66h-1.56l-0.101-1.58h-0.04c-0.439,0.78-1.48,1.8-3.2,1.8
							c-1.521,0-3.341-0.859-3.341-4.24v-5.661h1.761v5.341c0,1.84,0.58,3.101,2.16,3.101c1.18,0,2-0.82,2.32-1.62
							c0.1-0.24,0.16-0.561,0.16-0.9v-5.921h1.761V93.896z"/>
						<path fill="#FFFFFF" d="M690.05,92.036c0.04,2.38,1.54,3.36,3.32,3.36c1.261,0,2.041-0.22,2.681-0.5l0.32,1.26
							c-0.62,0.28-1.7,0.62-3.24,0.62c-2.98,0-4.762-1.98-4.762-4.9c0-2.921,1.721-5.201,4.541-5.201
							c3.181,0,4.001,2.761,4.001,4.541c0,0.359-0.02,0.62-0.06,0.82H690.05z M695.211,90.775c0.021-1.101-0.46-2.841-2.44-2.841
							c-1.801,0-2.561,1.62-2.7,2.841H695.211z"/>
						<path fill="#FFFFFF" d="M519.843,112.035c0-1.24-0.04-2.24-0.08-3.16h1.561l0.101,1.66h0.04c0.7-1.181,1.86-1.86,3.44-1.86
							c2.36,0,4.121,1.98,4.121,4.9c0,3.481-2.141,5.201-4.421,5.201c-1.28,0-2.4-0.56-2.981-1.52h-0.04v5.261h-1.74V112.035z
							 M521.583,114.616c0,0.26,0.021,0.5,0.08,0.72c0.32,1.221,1.381,2.061,2.641,2.061c1.86,0,2.941-1.521,2.941-3.741
							c0-1.92-1.021-3.58-2.881-3.58c-1.2,0-2.341,0.84-2.661,2.16c-0.06,0.22-0.12,0.48-0.12,0.7V114.616z"/>
						<path fill="#FFFFFF" d="M531.223,111.896c0-1.141-0.02-2.121-0.08-3.021h1.541l0.08,1.92h0.06c0.44-1.3,1.521-2.12,2.701-2.12
							c0.18,0,0.319,0.02,0.479,0.04v1.66c-0.18-0.04-0.36-0.04-0.6-0.04c-1.24,0-2.121,0.92-2.361,2.24
							c-0.04,0.24-0.06,0.54-0.06,0.82v5.161h-1.761V111.896z"/>
						<path fill="#FFFFFF" d="M546.325,113.636c0,3.581-2.501,5.141-4.821,5.141c-2.601,0-4.642-1.92-4.642-4.98
							c0-3.221,2.141-5.121,4.802-5.121C544.444,108.675,546.325,110.695,546.325,113.636z M538.663,113.735
							c0,2.121,1.2,3.721,2.921,3.721c1.68,0,2.94-1.58,2.94-3.761c0-1.64-0.82-3.7-2.9-3.7
							C539.563,109.995,538.663,111.915,538.663,113.735z"/>
						<path fill="#FFFFFF" d="M555.443,118.217c-0.46,0.22-1.479,0.56-2.78,0.56c-2.921,0-4.821-1.98-4.821-4.94
							c0-2.98,2.041-5.161,5.201-5.161c1.041,0,1.961,0.26,2.44,0.52l-0.399,1.341c-0.42-0.221-1.08-0.46-2.041-0.46
							c-2.22,0-3.42,1.66-3.42,3.66c0,2.241,1.439,3.621,3.36,3.621c1,0,1.66-0.24,2.16-0.46L555.443,118.217z"/>
						<path fill="#FFFFFF" d="M558.363,114.036c0.04,2.38,1.54,3.36,3.321,3.36c1.26,0,2.04-0.22,2.68-0.5l0.32,1.26
							c-0.62,0.28-1.7,0.62-3.24,0.62c-2.98,0-4.762-1.98-4.762-4.9c0-2.921,1.721-5.201,4.541-5.201
							c3.181,0,4.001,2.761,4.001,4.541c0,0.359-0.02,0.62-0.06,0.82H558.363z M563.524,112.775c0.021-1.101-0.46-2.841-2.44-2.841
							c-1.801,0-2.561,1.62-2.7,2.841H563.524z"/>
						<path fill="#FFFFFF" d="M567.163,116.776c0.54,0.32,1.46,0.68,2.34,0.68c1.261,0,1.86-0.62,1.86-1.44
							c0-0.84-0.5-1.28-1.78-1.76c-1.76-0.641-2.58-1.58-2.58-2.741c0-1.56,1.28-2.84,3.341-2.84c0.979,0,1.84,0.26,2.36,0.6
							l-0.42,1.28c-0.381-0.24-1.081-0.58-1.98-0.58c-1.041,0-1.601,0.601-1.601,1.32c0,0.801,0.56,1.16,1.82,1.66
							c1.66,0.62,2.54,1.461,2.54,2.901c0,1.72-1.34,2.92-3.601,2.92c-1.06,0-2.04-0.279-2.721-0.68L567.163,116.776z"/>
						<path fill="#FFFFFF" d="M576.303,114.036c0.04,2.38,1.54,3.36,3.321,3.36c1.26,0,2.04-0.22,2.68-0.5l0.32,1.26
							c-0.62,0.28-1.7,0.62-3.24,0.62c-2.98,0-4.762-1.98-4.762-4.9c0-2.921,1.721-5.201,4.541-5.201
							c3.181,0,4.001,2.761,4.001,4.541c0,0.359-0.02,0.62-0.06,0.82H576.303z M581.464,112.775c0.021-1.101-0.46-2.841-2.44-2.841
							c-1.801,0-2.561,1.62-2.7,2.841H581.464z"/>
						<path fill="#FFFFFF" d="M589.582,104.354h1.761v14.203h-1.761V104.354z"/>
						<path fill="#FFFFFF" d="M603.063,113.636c0,3.581-2.501,5.141-4.821,5.141c-2.601,0-4.642-1.92-4.642-4.98
							c0-3.221,2.141-5.121,4.802-5.121C601.183,108.675,603.063,110.695,603.063,113.636z M595.401,113.735
							c0,2.121,1.2,3.721,2.921,3.721c1.68,0,2.94-1.58,2.94-3.761c0-1.64-0.82-3.7-2.9-3.7
							C596.302,109.995,595.401,111.915,595.401,113.735z"/>
						<path fill="#FFFFFF" d="M605.042,116.776c0.54,0.32,1.46,0.68,2.34,0.68c1.261,0,1.86-0.62,1.86-1.44
							c0-0.84-0.5-1.28-1.78-1.76c-1.76-0.641-2.58-1.58-2.58-2.741c0-1.56,1.28-2.84,3.341-2.84c0.979,0,1.84,0.26,2.36,0.6
							l-0.42,1.28c-0.381-0.24-1.081-0.58-1.98-0.58c-1.041,0-1.601,0.601-1.601,1.32c0,0.801,0.56,1.16,1.82,1.66
							c1.66,0.62,2.54,1.461,2.54,2.901c0,1.72-1.34,2.92-3.601,2.92c-1.06,0-2.04-0.279-2.721-0.68L605.042,116.776z"/>
						<path fill="#FFFFFF" d="M617.441,104.354h1.761v6.062h0.04c0.28-0.5,0.72-0.96,1.26-1.261c0.521-0.3,1.141-0.479,1.801-0.479
							c1.301,0,3.381,0.8,3.381,4.121v5.761h-1.761v-5.562c0-1.56-0.58-2.86-2.24-2.86c-1.141,0-2.021,0.8-2.36,1.74
							c-0.101,0.261-0.12,0.521-0.12,0.841v5.841h-1.761V104.354z"/>
						<path fill="#FFFFFF" d="M629.521,114.036c0.04,2.38,1.54,3.36,3.321,3.36c1.26,0,2.04-0.22,2.68-0.5l0.32,1.26
							c-0.62,0.28-1.7,0.62-3.24,0.62c-2.98,0-4.762-1.98-4.762-4.9c0-2.921,1.721-5.201,4.541-5.201
							c3.181,0,4.001,2.761,4.001,4.541c0,0.359-0.02,0.62-0.06,0.82H629.521z M634.683,112.775c0.021-1.101-0.46-2.841-2.44-2.841
							c-1.801,0-2.561,1.62-2.7,2.841H634.683z"/>
						<path fill="#FFFFFF" d="M645.462,118.217c-0.46,0.22-1.479,0.56-2.78,0.56c-2.921,0-4.821-1.98-4.821-4.94
							c0-2.98,2.041-5.161,5.201-5.161c1.041,0,1.961,0.26,2.44,0.52l-0.399,1.341c-0.42-0.221-1.08-0.46-2.041-0.46
							c-2.22,0-3.42,1.66-3.42,3.66c0,2.241,1.439,3.621,3.36,3.621c1,0,1.66-0.24,2.16-0.46L645.462,118.217z"/>
						<path fill="#FFFFFF" d="M647.52,104.354h1.761v6.062h0.04c0.28-0.5,0.72-0.96,1.26-1.261c0.521-0.3,1.141-0.479,1.801-0.479
							c1.301,0,3.381,0.8,3.381,4.121v5.761h-1.761v-5.562c0-1.56-0.58-2.86-2.24-2.86c-1.141,0-2.021,0.8-2.36,1.74
							c-0.101,0.261-0.12,0.521-0.12,0.841v5.841h-1.761V104.354z"/>
						<path fill="#FFFFFF" d="M667.382,113.636c0,3.581-2.501,5.141-4.821,5.141c-2.601,0-4.642-1.92-4.642-4.98
							c0-3.221,2.141-5.121,4.802-5.121C665.501,108.675,667.382,110.695,667.382,113.636z M659.72,113.735
							c0,2.121,1.2,3.721,2.921,3.721c1.68,0,2.94-1.58,2.94-3.761c0-1.64-0.82-3.7-2.9-3.7
							C660.62,109.995,659.72,111.915,659.72,113.735z"/>
						<path fill="#FFFFFF" d="M669.36,116.776c0.54,0.32,1.46,0.68,2.34,0.68c1.261,0,1.86-0.62,1.86-1.44
							c0-0.84-0.5-1.28-1.78-1.76c-1.76-0.641-2.58-1.58-2.58-2.741c0-1.56,1.28-2.84,3.341-2.84c0.979,0,1.84,0.26,2.36,0.6
							l-0.42,1.28c-0.381-0.24-1.081-0.58-1.98-0.58c-1.041,0-1.601,0.601-1.601,1.32c0,0.801,0.56,1.16,1.82,1.66
							c1.66,0.62,2.54,1.461,2.54,2.901c0,1.72-1.34,2.92-3.601,2.92c-1.06,0-2.04-0.279-2.721-0.68L669.36,116.776z"/>
						<path fill="#FFFFFF" d="M676.879,117.517c0-0.721,0.5-1.261,1.2-1.261s1.181,0.521,1.181,1.261c0,0.72-0.48,1.26-1.221,1.26
							C677.359,118.776,676.879,118.236,676.879,117.517z"/>
					</g>
				</g>
			</g>
		</g>
		<path fill="none" stroke="#C15921" stroke-width="5" stroke-miterlimit="10" stroke-dasharray="4" d="M498.349,117.419
			c0,0-3.919,13.964-9.142,22.29c-6.15,9.805-22.548,24.137-22.548,24.137"/>
	</g>
</g>
</svg>
