<?xml version="1.0" encoding="utf-8"?>
<!-- Generator: Adobe Illustrator 16.0.0, SVG Export Plug-In . SVG Version: 6.00 Build 0)  -->
<!DOCTYPE svg PUBLIC "-//W3C//DTD SVG 1.1//EN" "http://www.w3.org/Graphics/SVG/1.1/DTD/svg11.dtd">
<svg version="1.1" id="Capa_1" xmlns="http://www.w3.org/2000/svg" xmlns:xlink="http://www.w3.org/1999/xlink" x="0px" y="0px"
	 width="667.641px" height="166.837px" viewBox="0 0 667.641 166.837" enable-background="new 0 0 667.641 166.837"
	 xml:space="preserve">
<g>
	<g>
		<rect y="80.225" fill="#EBE760" fill-opacity="0.4" width="289.404" height="25.702"/>
	</g>
	<g>
		<path fill="none" stroke="#C15921" stroke-width="5" stroke-miterlimit="10" stroke-dasharray="4" d="M447.699,104.954
			c-44.406,12.313-42.717,8.175-86.141,6.887c-28.449-0.844-63.371-8.904-63.371-8.904"/>
		<g>
			<g>
				<path fill-rule="evenodd" clip-rule="evenodd" fill="#C15921" d="M667.641,149.33c0,8.018-5.373,14.517-12,14.517H411.258
					c-6.627,0-12-6.499-12-14.517V14.517c0-8.018,5.373-14.517,12-14.517h244.383c6.627,0,12,6.499,12,14.517V149.33z"/>
				<g>
					<g>
						<path fill="#FFFFFF" d="M448.682,9.254c0.979-0.16,2.42-0.28,4.061-0.28c2,0,3.4,0.3,4.361,1.061
							c0.82,0.64,1.26,1.601,1.26,2.841c0,1.7-1.221,2.88-2.381,3.3v0.061c0.94,0.38,1.461,1.26,1.801,2.5
							c0.42,1.541,0.82,3.301,1.08,3.821h-3.121c-0.199-0.4-0.539-1.48-0.92-3.141c-0.38-1.7-0.96-2.141-2.221-2.16h-0.9v5.301
							h-3.02V9.254z M451.701,15.055h1.201c1.52,0,2.42-0.76,2.42-1.94c0-1.22-0.84-1.86-2.24-1.86c-0.74,0-1.16,0.04-1.381,0.101
							V15.055z"/>
						<path fill="#FFFFFF" d="M462.781,18.636c0.08,1.261,1.34,1.86,2.76,1.86c1.041,0,1.881-0.14,2.701-0.42l0.4,2.061
							c-1,0.42-2.221,0.62-3.541,0.62c-3.32,0-5.221-1.921-5.221-4.981c0-2.48,1.539-5.221,4.941-5.221
							c3.16,0,4.359,2.46,4.359,4.881c0,0.521-0.059,0.98-0.1,1.2H462.781z M466.361,16.556c0-0.74-0.32-1.98-1.721-1.98
							c-1.279,0-1.799,1.18-1.879,1.98H466.361z"/>
						<path fill="#FFFFFF" d="M474.4,10.134v2.641h2.182v2.24H474.4v3.541c0,1.181,0.301,1.721,1.201,1.721
							c0.42,0,0.619-0.021,0.9-0.08l0.02,2.301c-0.381,0.14-1.121,0.26-1.961,0.26c-0.98,0-1.801-0.34-2.301-0.84
							c-0.559-0.581-0.84-1.521-0.84-2.901v-4.001h-1.301v-2.24h1.301v-1.82L474.4,10.134z"/>
						<path fill="#FFFFFF" d="M478.34,15.995c0-1.44-0.02-2.381-0.08-3.221h2.602l0.119,1.801h0.08c0.5-1.44,1.68-2.041,2.641-2.041
							c0.279,0,0.42,0.021,0.641,0.061v2.86c-0.24-0.04-0.48-0.08-0.82-0.08c-1.121,0-1.881,0.601-2.08,1.54
							c-0.041,0.2-0.061,0.44-0.061,0.681v4.961h-3.041V15.995z"/>
						<path fill="#FFFFFF" d="M495.441,17.556c0,3.581-2.541,5.221-5.16,5.221c-2.861,0-5.062-1.88-5.062-5.041
							c0-3.181,2.08-5.201,5.242-5.201C493.441,12.534,495.441,14.595,495.441,17.556z M488.359,17.655c0,1.681,0.701,2.941,2,2.941
							c1.201,0,1.941-1.181,1.941-2.961c0-1.44-0.561-2.921-1.941-2.921C488.92,14.715,488.359,16.215,488.359,17.655z"/>
						<path fill="#FFFFFF" d="M505.461,20.196c0,0.92,0.041,1.82,0.16,2.36h-2.74l-0.18-0.98h-0.061
							c-0.641,0.78-1.641,1.2-2.801,1.2c-1.98,0-3.16-1.44-3.16-3c0-2.541,2.279-3.741,5.74-3.741v-0.12
							c0-0.54-0.279-1.28-1.779-1.28c-1,0-2.061,0.34-2.701,0.74l-0.561-1.96c0.68-0.381,2.021-0.881,3.801-0.881
							c3.262,0,4.281,1.921,4.281,4.241V20.196z M502.52,17.936c-1.6,0-2.84,0.38-2.84,1.54c0,0.78,0.52,1.16,1.201,1.16
							c0.74,0,1.379-0.5,1.58-1.12c0.039-0.159,0.059-0.34,0.059-0.52V17.936z"/>
						<path fill="#FFFFFF" d="M507.879,8.354h3.041v14.203h-3.041V8.354z"/>
						<path fill="#FFFFFF" d="M516.52,10.054c0,0.841-0.619,1.521-1.641,1.521c-0.959,0-1.58-0.68-1.58-1.521
							c0-0.86,0.641-1.521,1.621-1.521S516.5,9.193,516.52,10.054z M513.379,22.557v-9.782h3.041v9.782H513.379z"/>
						<path fill="#FFFFFF" d="M518.859,15.896c0-1.221-0.041-2.241-0.08-3.121h2.58l0.119,1.32h0.061
							c0.42-0.64,1.301-1.561,2.961-1.561c1.279,0,2.26,0.66,2.68,1.681h0.041c0.379-0.521,0.799-0.92,1.279-1.2
							c0.541-0.3,1.141-0.48,1.861-0.48c1.881,0,3.301,1.32,3.301,4.262v5.761h-2.961v-5.321c0-1.42-0.461-2.24-1.441-2.24
							c-0.719,0-1.199,0.48-1.42,1.061c-0.059,0.22-0.1,0.52-0.1,0.779v5.722h-2.961v-5.501c0-1.221-0.439-2.061-1.42-2.061
							c-0.779,0-1.24,0.6-1.42,1.08c-0.1,0.24-0.121,0.521-0.121,0.78v5.701h-2.959V15.896z"/>
						<path fill="#FFFFFF" d="M538.398,18.636c0.08,1.261,1.34,1.86,2.76,1.86c1.041,0,1.881-0.14,2.701-0.42l0.4,2.061
							c-1,0.42-2.221,0.62-3.541,0.62c-3.32,0-5.221-1.921-5.221-4.981c0-2.48,1.539-5.221,4.941-5.221
							c3.16,0,4.359,2.46,4.359,4.881c0,0.521-0.059,0.98-0.1,1.2H538.398z M541.979,16.556c0-0.74-0.32-1.98-1.721-1.98
							c-1.279,0-1.799,1.18-1.879,1.98H541.979z"/>
						<path fill="#FFFFFF" d="M546.617,15.896c0-1.221-0.039-2.241-0.08-3.121h2.641l0.141,1.36h0.059
							c0.4-0.64,1.381-1.58,3.021-1.58c2,0,3.5,1.34,3.5,4.221v5.781h-3.039v-5.421c0-1.261-0.441-2.121-1.541-2.121
							c-0.84,0-1.34,0.58-1.561,1.141c-0.08,0.2-0.1,0.48-0.1,0.76v5.642h-3.041V15.896z"/>
						<path fill="#FFFFFF" d="M561.617,10.134v2.641h2.182v2.24h-2.182v3.541c0,1.181,0.301,1.721,1.201,1.721
							c0.42,0,0.619-0.021,0.9-0.08l0.02,2.301c-0.381,0.14-1.121,0.26-1.961,0.26c-0.98,0-1.801-0.34-2.301-0.84
							c-0.559-0.581-0.84-1.521-0.84-2.901v-4.001h-1.301v-2.24h1.301v-1.82L561.617,10.134z"/>
						<path fill="#FFFFFF" d="M573.699,20.196c0,0.92,0.039,1.82,0.16,2.36h-2.742l-0.18-0.98h-0.061
							c-0.639,0.78-1.639,1.2-2.799,1.2c-1.98,0-3.162-1.44-3.162-3c0-2.541,2.281-3.741,5.742-3.741v-0.12
							c0-0.54-0.281-1.28-1.781-1.28c-1,0-2.061,0.34-2.699,0.74l-0.561-1.96c0.68-0.381,2.02-0.881,3.801-0.881
							c3.26,0,4.281,1.921,4.281,4.241V20.196z M570.758,17.936c-1.6,0-2.84,0.38-2.84,1.54c0,0.78,0.52,1.16,1.199,1.16
							c0.74,0,1.381-0.5,1.58-1.12c0.041-0.159,0.061-0.34,0.061-0.52V17.936z"/>
						<path fill="#FFFFFF" d="M583.457,22.297c-0.539,0.26-1.559,0.46-2.721,0.46c-3.16,0-5.18-1.94-5.18-5.001
							c0-2.861,1.959-5.201,5.602-5.201c0.799,0,1.68,0.14,2.32,0.38l-0.48,2.261c-0.361-0.16-0.9-0.301-1.701-0.301
							c-1.6,0-2.641,1.141-2.619,2.741c0,1.78,1.199,2.74,2.68,2.74c0.721,0,1.279-0.12,1.74-0.32L583.457,22.297z"/>
						<path fill="#FFFFFF" d="M588.277,10.054c0,0.841-0.621,1.521-1.641,1.521c-0.961,0-1.58-0.68-1.58-1.521
							c0-0.86,0.639-1.521,1.619-1.521S588.256,9.193,588.277,10.054z M585.137,22.557v-9.782h3.039v9.782H585.137z"/>
						<path fill="#FFFFFF" d="M600.277,17.556c0,3.581-2.541,5.221-5.16,5.221c-2.861,0-5.062-1.88-5.062-5.041
							c0-3.181,2.08-5.201,5.242-5.201C598.277,12.534,600.277,14.595,600.277,17.556z M593.195,17.655c0,1.681,0.701,2.941,2,2.941
							c1.201,0,1.941-1.181,1.941-2.961c0-1.44-0.561-2.921-1.941-2.921C593.756,14.715,593.195,16.215,593.195,17.655z
							 M598.338,8.514l-2.441,3.041h-2.08l1.721-3.041H598.338z"/>
						<path fill="#FFFFFF" d="M602.156,15.896c0-1.221-0.041-2.241-0.08-3.121h2.641l0.139,1.36h0.061
							c0.4-0.64,1.381-1.58,3.021-1.58c2,0,3.5,1.34,3.5,4.221v5.781h-3.041v-5.421c0-1.261-0.439-2.121-1.541-2.121
							c-0.84,0-1.34,0.58-1.559,1.141c-0.08,0.2-0.102,0.48-0.102,0.76v5.642h-3.039V15.896z"/>
						<path fill="#FFFFFF" d="M613.676,14.495c0-1.08,0.74-1.841,1.779-1.841c1.061,0,1.76,0.74,1.781,1.841
							c0,1.04-0.701,1.82-1.801,1.82C614.395,16.315,613.676,15.535,613.676,14.495z M613.676,20.956c0-1.08,0.74-1.84,1.779-1.84
							c1.061,0,1.76,0.74,1.781,1.84c0,1.04-0.701,1.82-1.801,1.82C614.395,22.776,613.676,21.996,613.676,20.956z"/>
						<path fill="#FFFFFF" d="M409.723,44.557V31.074h1.92l4.301,6.821c0.98,1.58,1.78,3,2.4,4.381l0.061-0.021
							c-0.16-1.8-0.201-3.44-0.201-5.541v-5.641h1.641v13.482h-1.76l-4.281-6.842c-0.939-1.5-1.84-3.04-2.5-4.501l-0.061,0.021
							c0.1,1.7,0.12,3.32,0.12,5.562v5.761H409.723z"/>
						<path fill="#FFFFFF" d="M431.584,39.636c0,3.581-2.501,5.141-4.821,5.141c-2.601,0-4.642-1.92-4.642-4.98
							c0-3.221,2.141-5.121,4.801-5.121C429.703,34.675,431.584,36.695,431.584,39.636z M423.922,39.735
							c0,2.121,1.2,3.721,2.92,3.721c1.682,0,2.941-1.58,2.941-3.761c0-1.64-0.82-3.7-2.9-3.7
							C424.822,35.995,423.922,37.915,423.922,39.735z"/>
						<path fill="#FFFFFF" d="M444.843,42.236c0,0.84,0.04,1.66,0.14,2.32h-1.58l-0.14-1.221h-0.06
							c-0.541,0.761-1.581,1.44-2.961,1.44c-1.961,0-2.961-1.38-2.961-2.78c0-2.341,2.08-3.621,5.821-3.601v-0.2
							c0-0.78-0.22-2.24-2.2-2.221c-0.92,0-1.861,0.261-2.541,0.721l-0.4-1.181c0.801-0.5,1.98-0.84,3.201-0.84
							c2.961,0,3.681,2.021,3.681,3.94V42.236z M443.143,39.615c-1.92-0.04-4.102,0.301-4.102,2.181c0,1.16,0.761,1.681,1.641,1.681
							c1.281,0,2.101-0.801,2.381-1.62c0.061-0.2,0.08-0.4,0.08-0.561V39.615z"/>
						<path fill="#FFFFFF" d="M447.441,42.776c0.54,0.32,1.461,0.68,2.34,0.68c1.261,0,1.861-0.62,1.861-1.44
							c0-0.84-0.5-1.28-1.781-1.76c-1.76-0.641-2.58-1.58-2.58-2.741c0-1.56,1.28-2.84,3.341-2.84c0.98,0,1.841,0.26,2.36,0.6
							l-0.42,1.28c-0.38-0.24-1.08-0.58-1.98-0.58c-1.04,0-1.6,0.601-1.6,1.32c0,0.801,0.56,1.16,1.82,1.66
							c1.66,0.62,2.54,1.461,2.54,2.901c0,1.72-1.341,2.92-3.601,2.92c-1.061,0-2.041-0.279-2.721-0.68L447.441,42.776z"/>
						<path fill="#FFFFFF" d="M463.703,41.896c0,1.02,0.02,1.9,0.08,2.66h-1.561l-0.1-1.58h-0.041c-0.439,0.78-1.48,1.8-3.199,1.8
							c-1.521,0-3.342-0.859-3.342-4.24v-5.661h1.762v5.341c0,1.84,0.58,3.101,2.16,3.101c1.18,0,2-0.82,2.32-1.62
							c0.1-0.24,0.16-0.561,0.16-0.9v-5.921h1.76V41.896z"/>
						<path fill="#FFFFFF" d="M466.621,37.495c0-1.021-0.041-1.82-0.08-2.62h1.541l0.08,1.58h0.059
							c0.541-0.92,1.441-1.78,3.061-1.78c1.301,0,2.301,0.8,2.721,1.94h0.041c0.299-0.561,0.699-0.961,1.1-1.261
							c0.58-0.439,1.201-0.68,2.121-0.68c1.301,0,3.201,0.84,3.201,4.2v5.682h-1.721v-5.461c0-1.881-0.701-2.98-2.102-2.98
							c-1.02,0-1.779,0.74-2.1,1.58c-0.08,0.26-0.141,0.56-0.141,0.88v5.981h-1.721v-5.801c0-1.541-0.68-2.641-2.02-2.641
							c-1.08,0-1.9,0.88-2.182,1.76c-0.1,0.24-0.139,0.561-0.139,0.86v5.821h-1.721V37.495z"/>
						<path fill="#FFFFFF" d="M490.102,42.236c0,0.84,0.041,1.66,0.141,2.32h-1.58l-0.141-1.221h-0.061
							c-0.539,0.761-1.58,1.44-2.959,1.44c-1.961,0-2.961-1.38-2.961-2.78c0-2.341,2.08-3.621,5.82-3.601v-0.2
							c0-0.78-0.219-2.24-2.199-2.221c-0.922,0-1.861,0.261-2.541,0.721l-0.4-1.181c0.801-0.5,1.98-0.84,3.201-0.84
							c2.961,0,3.68,2.021,3.68,3.94V42.236z M488.402,39.615c-1.922-0.04-4.102,0.301-4.102,2.181c0,1.16,0.76,1.681,1.641,1.681
							c1.279,0,2.1-0.801,2.381-1.62c0.059-0.2,0.08-0.4,0.08-0.561V39.615z"/>
						<path fill="#FFFFFF" d="M503.982,42.236c0,0.84,0.039,1.66,0.139,2.32h-1.58l-0.139-1.221h-0.061
							c-0.541,0.761-1.58,1.44-2.961,1.44c-1.961,0-2.961-1.38-2.961-2.78c0-2.341,2.08-3.621,5.822-3.601v-0.2
							c0-0.78-0.221-2.24-2.201-2.221c-0.92,0-1.859,0.261-2.541,0.721l-0.4-1.181c0.801-0.5,1.98-0.84,3.201-0.84
							c2.961,0,3.682,2.021,3.682,3.94V42.236z M502.281,39.615c-1.92-0.04-4.1,0.301-4.1,2.181c0,1.16,0.76,1.681,1.639,1.681
							c1.281,0,2.102-0.801,2.381-1.62c0.061-0.2,0.08-0.4,0.08-0.561V39.615z"/>
						<path fill="#FFFFFF" d="M513.721,44.217c-0.459,0.22-1.479,0.56-2.779,0.56c-2.922,0-4.822-1.98-4.822-4.94
							c0-2.98,2.041-5.161,5.201-5.161c1.041,0,1.961,0.26,2.441,0.52l-0.4,1.341c-0.42-0.221-1.08-0.46-2.041-0.46
							c-2.219,0-3.42,1.66-3.42,3.66c0,2.241,1.439,3.621,3.361,3.621c1,0,1.66-0.24,2.16-0.46L513.721,44.217z"/>
						<path fill="#FFFFFF" d="M518.16,32.554v2.321h2.521v1.34h-2.521v5.221c0,1.2,0.34,1.881,1.32,1.881
							c0.48,0,0.76-0.04,1.02-0.12l0.08,1.341c-0.34,0.119-0.879,0.239-1.559,0.239c-0.82,0-1.48-0.279-1.9-0.74
							c-0.48-0.54-0.682-1.4-0.682-2.54v-5.281h-1.5v-1.34h1.5v-1.801L518.16,32.554z"/>
						<path fill="#FFFFFF" d="M524.621,32.154c0,0.6-0.42,1.08-1.121,1.08c-0.641,0-1.061-0.48-1.061-1.08
							c0-0.601,0.441-1.101,1.102-1.101C524.18,31.054,524.621,31.534,524.621,32.154z M522.66,44.557v-9.682h1.76v9.682H522.66z"/>
						<path fill="#FFFFFF" d="M529.461,32.554v2.321h2.52v1.34h-2.52v5.221c0,1.2,0.34,1.881,1.32,1.881
							c0.479,0,0.76-0.04,1.02-0.12l0.08,1.341c-0.34,0.119-0.881,0.239-1.561,0.239c-0.82,0-1.48-0.279-1.9-0.74
							c-0.48-0.54-0.68-1.4-0.68-2.54v-5.281h-1.5v-1.34h1.5v-1.801L529.461,32.554z"/>
						<path fill="#FFFFFF" d="M542.062,41.896c0,1.02,0.02,1.9,0.078,2.66h-1.559l-0.102-1.58h-0.039
							c-0.439,0.78-1.48,1.8-3.201,1.8c-1.52,0-3.34-0.859-3.34-4.24v-5.661h1.76v5.341c0,1.84,0.58,3.101,2.16,3.101
							c1.18,0,2-0.82,2.32-1.62c0.1-0.24,0.16-0.561,0.16-0.9v-5.921h1.762V41.896z"/>
						<path fill="#FFFFFF" d="M553.32,30.354v11.702c0,0.86,0.041,1.841,0.08,2.501h-1.559l-0.08-1.681h-0.061
							c-0.52,1.08-1.682,1.9-3.262,1.9c-2.34,0-4.16-1.98-4.16-4.921c-0.02-3.221,2-5.181,4.342-5.181c1.5,0,2.48,0.7,2.92,1.46
							h0.039v-5.781H553.32z M551.58,38.815c0-0.22-0.02-0.521-0.08-0.74c-0.26-1.101-1.219-2.021-2.539-2.021
							c-1.82,0-2.9,1.601-2.9,3.721c0,1.961,0.979,3.581,2.859,3.581c1.18,0,2.262-0.8,2.58-2.101c0.061-0.24,0.08-0.48,0.08-0.76
							V38.815z"/>
						<path fill="#FFFFFF" d="M557.24,40.036c0.039,2.38,1.539,3.36,3.32,3.36c1.26,0,2.041-0.22,2.68-0.5l0.32,1.26
							c-0.619,0.28-1.699,0.62-3.24,0.62c-2.98,0-4.762-1.98-4.762-4.9c0-2.921,1.721-5.201,4.541-5.201
							c3.182,0,4.002,2.761,4.002,4.541c0,0.359-0.02,0.62-0.061,0.82H557.24z M562.4,38.775c0.021-1.101-0.459-2.841-2.439-2.841
							c-1.801,0-2.561,1.62-2.701,2.841H562.4z"/>
						<path fill="#FFFFFF" d="M566.039,42.776c0.541,0.32,1.461,0.68,2.34,0.68c1.262,0,1.861-0.62,1.861-1.44
							c0-0.84-0.5-1.28-1.781-1.76c-1.76-0.641-2.58-1.58-2.58-2.741c0-1.56,1.281-2.84,3.342-2.84c0.979,0,1.84,0.26,2.359,0.6
							l-0.42,1.28c-0.381-0.24-1.08-0.58-1.98-0.58c-1.041,0-1.6,0.601-1.6,1.32c0,0.801,0.559,1.16,1.82,1.66
							c1.66,0.62,2.539,1.461,2.539,2.901c0,1.72-1.34,2.92-3.6,2.92c-1.061,0-2.041-0.279-2.721-0.68L566.039,42.776z"/>
						<path fill="#FFFFFF" d="M578.439,37.495c0-1.021-0.041-1.82-0.08-2.62h1.541l0.08,1.58h0.059
							c0.541-0.92,1.441-1.78,3.061-1.78c1.301,0,2.301,0.8,2.721,1.94h0.041c0.299-0.561,0.699-0.961,1.1-1.261
							c0.58-0.439,1.201-0.68,2.121-0.68c1.301,0,3.201,0.84,3.201,4.2v5.682h-1.721v-5.461c0-1.881-0.701-2.98-2.102-2.98
							c-1.02,0-1.779,0.74-2.1,1.58c-0.08,0.26-0.141,0.56-0.141,0.88v5.981H584.5v-5.801c0-1.541-0.68-2.641-2.02-2.641
							c-1.08,0-1.9,0.88-2.182,1.76c-0.1,0.24-0.139,0.561-0.139,0.86v5.821h-1.721V37.495z"/>
						<path fill="#FFFFFF" d="M601.92,42.236c0,0.84,0.041,1.66,0.141,2.32h-1.58l-0.141-1.221h-0.061
							c-0.539,0.761-1.58,1.44-2.959,1.44c-1.961,0-2.961-1.38-2.961-2.78c0-2.341,2.08-3.621,5.82-3.601v-0.2
							c0-0.78-0.219-2.24-2.199-2.221c-0.922,0-1.861,0.261-2.541,0.721l-0.4-1.181c0.801-0.5,1.98-0.84,3.201-0.84
							c2.961,0,3.68,2.021,3.68,3.94V42.236z M600.221,39.615c-1.922-0.04-4.102,0.301-4.102,2.181c0,1.16,0.76,1.681,1.641,1.681
							c1.279,0,2.1-0.801,2.381-1.62c0.059-0.2,0.08-0.4,0.08-0.561V39.615z"/>
						<path fill="#FFFFFF" d="M613.041,43.137c0,2.24-0.461,3.58-1.381,4.44c-0.961,0.86-2.32,1.16-3.541,1.16
							c-1.16,0-2.439-0.28-3.221-0.8l0.439-1.36c0.641,0.42,1.641,0.78,2.842,0.78c1.801,0,3.121-0.94,3.121-3.401v-1.06h-0.041
							c-0.52,0.9-1.58,1.62-3.08,1.62c-2.4,0-4.121-2.04-4.121-4.721c0-3.281,2.141-5.121,4.381-5.121c1.68,0,2.58,0.86,3.021,1.66
							h0.039l0.061-1.46h1.561c-0.061,0.68-0.08,1.479-0.08,2.64V43.137z M611.279,38.695c0-0.3-0.02-0.56-0.1-0.78
							c-0.32-1.04-1.16-1.88-2.461-1.88c-1.68,0-2.879,1.42-2.879,3.66c0,1.9,0.979,3.481,2.859,3.481c1.1,0,2.08-0.681,2.441-1.801
							c0.1-0.3,0.139-0.641,0.139-0.94V38.695z"/>
						<path fill="#FFFFFF" d="M615.818,37.495c0-1.021-0.02-1.82-0.08-2.62h1.561l0.1,1.6h0.041c0.479-0.899,1.6-1.8,3.199-1.8
							c1.342,0,3.422,0.8,3.422,4.121v5.761h-1.762v-5.581c0-1.561-0.58-2.86-2.24-2.86c-1.141,0-2.039,0.819-2.359,1.8
							c-0.08,0.221-0.121,0.521-0.121,0.82v5.821h-1.76V37.495z"/>
						<path fill="#FFFFFF" d="M633.719,42.236c0,0.84,0.041,1.66,0.141,2.32h-1.58l-0.141-1.221h-0.061
							c-0.539,0.761-1.58,1.44-2.959,1.44c-1.961,0-2.961-1.38-2.961-2.78c0-2.341,2.08-3.621,5.82-3.601v-0.2
							c0-0.78-0.219-2.24-2.199-2.221c-0.922,0-1.861,0.261-2.541,0.721l-0.4-1.181c0.801-0.5,1.98-0.84,3.201-0.84
							c2.961,0,3.68,2.021,3.68,3.94V42.236z M632.02,39.615c-1.922-0.04-4.102,0.301-4.102,2.181c0,1.16,0.76,1.681,1.641,1.681
							c1.279,0,2.1-0.801,2.381-1.62c0.059-0.2,0.08-0.4,0.08-0.561V39.615z M632.898,30.693l-2.439,2.861h-1.24l1.74-2.861H632.898
							z"/>
						<path fill="#FFFFFF" d="M636.557,37.495c0-1.021-0.02-1.82-0.08-2.62h1.561l0.102,1.6h0.039c0.48-0.899,1.6-1.8,3.201-1.8
							c1.34,0,3.42,0.8,3.42,4.121v5.761h-1.76v-5.581c0-1.561-0.58-2.86-2.24-2.86c-1.141,0-2.041,0.819-2.361,1.8
							c-0.08,0.221-0.119,0.521-0.119,0.82v5.821h-1.762V37.495z"/>
						<path fill="#FFFFFF" d="M649.617,32.154c0,0.6-0.42,1.08-1.119,1.08c-0.641,0-1.061-0.48-1.061-1.08
							c0-0.601,0.439-1.101,1.1-1.101C649.178,31.054,649.617,31.534,649.617,32.154z M647.656,44.557v-9.682h1.762v9.682H647.656z"
							/>
						<path fill="#FFFFFF" d="M656.418,38.516v1.28h-4.941v-1.28H656.418z"/>
						<path fill="#FFFFFF" d="M412.742,59.495c0-1.021-0.041-1.82-0.08-2.62h1.539l0.08,1.58h0.061c0.54-0.92,1.44-1.78,3.061-1.78
							c1.301,0,2.301,0.8,2.721,1.94h0.04c0.3-0.561,0.7-0.961,1.101-1.261c0.58-0.439,1.2-0.68,2.12-0.68c1.3,0,3.2,0.84,3.2,4.2
							v5.682h-1.72v-5.461c0-1.881-0.7-2.98-2.101-2.98c-1.02,0-1.78,0.74-2.101,1.58c-0.08,0.26-0.14,0.56-0.14,0.88v5.981h-1.721
							v-5.801c0-1.541-0.68-2.641-2.021-2.641c-1.08,0-1.9,0.88-2.181,1.76c-0.1,0.24-0.14,0.561-0.14,0.86v5.821h-1.72V59.495z"/>
						<path fill="#FFFFFF" d="M436.223,64.236c0,0.84,0.041,1.66,0.141,2.32h-1.58l-0.141-1.221h-0.06
							c-0.54,0.761-1.581,1.44-2.961,1.44c-1.96,0-2.96-1.38-2.96-2.78c0-2.341,2.08-3.621,5.82-3.601v-0.2
							c0-0.78-0.22-2.24-2.2-2.221c-0.92,0-1.86,0.261-2.54,0.721l-0.4-1.181c0.801-0.5,1.98-0.84,3.201-0.84
							c2.96,0,3.68,2.021,3.68,3.94V64.236z M434.523,61.615c-1.921-0.04-4.102,0.301-4.102,2.181c0,1.16,0.76,1.681,1.641,1.681
							c1.28,0,2.1-0.801,2.381-1.62c0.06-0.2,0.08-0.4,0.08-0.561V61.615z"/>
						<path fill="#FFFFFF" d="M438.821,64.776c0.54,0.32,1.46,0.68,2.341,0.68c1.26,0,1.86-0.62,1.86-1.44
							c0-0.84-0.501-1.28-1.78-1.76c-1.761-0.641-2.581-1.58-2.581-2.741c0-1.56,1.28-2.84,3.341-2.84c0.98,0,1.84,0.26,2.36,0.6
							l-0.42,1.28c-0.38-0.24-1.08-0.58-1.98-0.58c-1.04,0-1.601,0.601-1.601,1.32c0,0.801,0.561,1.16,1.82,1.66
							c1.66,0.62,2.541,1.461,2.541,2.901c0,1.72-1.34,2.92-3.602,2.92c-1.06,0-2.039-0.279-2.72-0.68L438.821,64.776z"/>
						<path fill="#FFFFFF" d="M451.861,56.875l2.1,5.721c0.24,0.641,0.48,1.4,0.641,1.98h0.04c0.181-0.58,0.38-1.32,0.62-2.021
							l1.92-5.681h1.861l-2.641,6.901c-1.26,3.32-2.121,5.001-3.32,6.061c-0.881,0.74-1.721,1.041-2.161,1.121l-0.44-1.461
							c0.44-0.14,1.021-0.42,1.541-0.86c0.48-0.38,1.061-1.06,1.48-1.96c0.08-0.18,0.14-0.32,0.14-0.42c0-0.101-0.04-0.24-0.14-0.46
							l-3.561-8.922H451.861z"/>
						<path fill="#FFFFFF" d="M464.641,64.776c0.541,0.32,1.461,0.68,2.34,0.68c1.262,0,1.861-0.62,1.861-1.44
							c0-0.84-0.5-1.28-1.781-1.76c-1.76-0.641-2.58-1.58-2.58-2.741c0-1.56,1.281-2.84,3.342-2.84c0.979,0,1.84,0.26,2.359,0.6
							l-0.42,1.28c-0.381-0.24-1.08-0.58-1.98-0.58c-1.041,0-1.6,0.601-1.6,1.32c0,0.801,0.559,1.16,1.82,1.66
							c1.66,0.62,2.539,1.461,2.539,2.901c0,1.72-1.34,2.92-3.6,2.92c-1.061,0-2.041-0.279-2.721-0.68L464.641,64.776z"/>
						<path fill="#FFFFFF" d="M479.602,64.236c0,0.84,0.041,1.66,0.141,2.32h-1.58l-0.141-1.221h-0.061
							c-0.539,0.761-1.58,1.44-2.959,1.44c-1.961,0-2.961-1.38-2.961-2.78c0-2.341,2.08-3.621,5.82-3.601v-0.2
							c0-0.78-0.219-2.24-2.199-2.221c-0.922,0-1.861,0.261-2.541,0.721l-0.4-1.181c0.801-0.5,1.98-0.84,3.201-0.84
							c2.961,0,3.68,2.021,3.68,3.94V64.236z M477.902,61.615c-1.922-0.04-4.102,0.301-4.102,2.181c0,1.16,0.76,1.681,1.641,1.681
							c1.279,0,2.1-0.801,2.381-1.62c0.059-0.2,0.08-0.4,0.08-0.561V61.615z"/>
						<path fill="#FFFFFF" d="M482.439,52.354h1.762v14.203h-1.762V52.354z"/>
						<path fill="#FFFFFF" d="M487.84,56.875l1.9,5.421c0.32,0.9,0.58,1.7,0.781,2.5h0.059c0.221-0.8,0.5-1.6,0.82-2.5l1.881-5.421
							h1.84l-3.801,9.682h-1.68l-3.682-9.682H487.84z"/>
						<path fill="#FFFFFF" d="M503.502,64.236c0,0.84,0.039,1.66,0.139,2.32h-1.58l-0.139-1.221h-0.061
							c-0.541,0.761-1.58,1.44-2.961,1.44c-1.961,0-2.961-1.38-2.961-2.78c0-2.341,2.08-3.621,5.822-3.601v-0.2
							c0-0.78-0.221-2.24-2.201-2.221c-0.92,0-1.859,0.261-2.541,0.721l-0.4-1.181c0.801-0.5,1.98-0.84,3.201-0.84
							c2.961,0,3.682,2.021,3.682,3.94V64.236z M501.801,61.615c-1.92-0.04-4.1,0.301-4.1,2.181c0,1.16,0.76,1.681,1.639,1.681
							c1.281,0,2.102-0.801,2.381-1.62c0.061-0.2,0.08-0.4,0.08-0.561V61.615z"/>
						<path fill="#FFFFFF" d="M514.682,52.354v11.702c0,0.86,0.039,1.841,0.08,2.501h-1.561l-0.08-1.681h-0.061
							c-0.52,1.08-1.68,1.9-3.26,1.9c-2.342,0-4.162-1.98-4.162-4.921c-0.02-3.221,2.002-5.181,4.342-5.181
							c1.5,0,2.48,0.7,2.92,1.46h0.041v-5.781H514.682z M512.941,60.815c0-0.22-0.02-0.521-0.08-0.74
							c-0.26-1.101-1.221-2.021-2.541-2.021c-1.82,0-2.9,1.601-2.9,3.721c0,1.961,0.98,3.581,2.861,3.581
							c1.18,0,2.26-0.8,2.58-2.101c0.061-0.24,0.08-0.48,0.08-0.76V60.815z"/>
						<path fill="#FFFFFF" d="M526.383,61.636c0,3.581-2.502,5.141-4.822,5.141c-2.6,0-4.641-1.92-4.641-4.98
							c0-3.221,2.141-5.121,4.801-5.121C524.502,56.675,526.383,58.695,526.383,61.636z M518.721,61.735
							c0,2.121,1.199,3.721,2.92,3.721c1.68,0,2.941-1.58,2.941-3.761c0-1.64-0.82-3.7-2.9-3.7
							C519.621,57.995,518.721,59.915,518.721,61.735z"/>
						<path fill="#FFFFFF" d="M528.6,59.896c0-1.141-0.02-2.121-0.08-3.021h1.541l0.08,1.92h0.059c0.441-1.3,1.521-2.12,2.701-2.12
							c0.18,0,0.32,0.02,0.48,0.04v1.66c-0.18-0.04-0.361-0.04-0.6-0.04c-1.24,0-2.121,0.92-2.361,2.24
							c-0.041,0.24-0.061,0.54-0.061,0.82v5.161h-1.76V59.896z"/>
						<path fill="#FFFFFF" d="M541.842,64.236c0,0.84,0.039,1.66,0.139,2.32h-1.58l-0.139-1.221h-0.061
							c-0.541,0.761-1.58,1.44-2.961,1.44c-1.961,0-2.961-1.38-2.961-2.78c0-2.341,2.08-3.621,5.822-3.601v-0.2
							c0-0.78-0.221-2.24-2.201-2.221c-0.92,0-1.859,0.261-2.541,0.721l-0.4-1.181c0.801-0.5,1.98-0.84,3.201-0.84
							c2.961,0,3.682,2.021,3.682,3.94V64.236z M540.141,61.615c-1.92-0.04-4.1,0.301-4.1,2.181c0,1.16,0.76,1.681,1.639,1.681
							c1.281,0,2.102-0.801,2.381-1.62c0.061-0.2,0.08-0.4,0.08-0.561V61.615z"/>
						<path fill="#FFFFFF" d="M544.439,64.776c0.541,0.32,1.461,0.68,2.34,0.68c1.262,0,1.861-0.62,1.861-1.44
							c0-0.84-0.5-1.28-1.781-1.76c-1.76-0.641-2.58-1.58-2.58-2.741c0-1.56,1.281-2.84,3.342-2.84c0.979,0,1.84,0.26,2.359,0.6
							l-0.42,1.28c-0.381-0.24-1.08-0.58-1.98-0.58c-1.041,0-1.6,0.601-1.6,1.32c0,0.801,0.559,1.16,1.82,1.66
							c1.66,0.62,2.539,1.461,2.539,2.901c0,1.72-1.34,2.92-3.6,2.92c-1.061,0-2.041-0.279-2.721-0.68L544.439,64.776z"/>
						<path fill="#FFFFFF" d="M551.24,69.037c0.439-1.2,0.979-3.341,1.199-4.801l1.961-0.2c-0.48,1.7-1.361,3.921-1.92,4.861
							L551.24,69.037z"/>
						<path fill="#FFFFFF" d="M560.76,59.495c0-1.021-0.02-1.82-0.08-2.62h1.561l0.1,1.6h0.041c0.479-0.899,1.6-1.8,3.199-1.8
							c1.342,0,3.422,0.8,3.422,4.121v5.761h-1.762v-5.581c0-1.561-0.58-2.86-2.24-2.86c-1.141,0-2.039,0.819-2.359,1.8
							c-0.08,0.221-0.121,0.521-0.121,0.82v5.821h-1.76V59.495z"/>
						<path fill="#FFFFFF" d="M580.621,61.636c0,3.581-2.5,5.141-4.82,5.141c-2.602,0-4.643-1.92-4.643-4.98
							c0-3.221,2.141-5.121,4.803-5.121C578.74,56.675,580.621,58.695,580.621,61.636z M572.959,61.735
							c0,2.121,1.201,3.721,2.922,3.721c1.68,0,2.939-1.58,2.939-3.761c0-1.64-0.82-3.7-2.9-3.7
							C573.859,57.995,572.959,59.915,572.959,61.735z"/>
						<path fill="#FFFFFF" d="M584.658,57.595c0.461-1.681,1.32-3.841,1.861-4.761l1.119-0.12c-0.42,1.18-0.959,3.24-1.18,4.681
							L584.658,57.595z M587.619,57.595c0.461-1.681,1.32-3.841,1.861-4.761l1.119-0.12c-0.439,1.18-0.959,3.24-1.18,4.681
							L587.619,57.595z"/>
						<path fill="#FFFFFF" d="M592.18,62.036c0.039,2.38,1.539,3.36,3.32,3.36c1.26,0,2.041-0.22,2.68-0.5l0.32,1.26
							c-0.619,0.28-1.699,0.62-3.24,0.62c-2.98,0-4.762-1.98-4.762-4.9c0-2.921,1.721-5.201,4.541-5.201
							c3.182,0,4.002,2.761,4.002,4.541c0,0.359-0.02,0.62-0.061,0.82H592.18z M597.34,60.775c0.021-1.101-0.459-2.841-2.439-2.841
							c-1.801,0-2.561,1.62-2.701,2.841H597.34z"/>
						<path fill="#FFFFFF" d="M608.119,66.217c-0.459,0.22-1.479,0.56-2.779,0.56c-2.922,0-4.822-1.98-4.822-4.94
							c0-2.98,2.041-5.161,5.201-5.161c1.041,0,1.961,0.26,2.441,0.52l-0.4,1.341c-0.42-0.221-1.08-0.46-2.041-0.46
							c-2.219,0-3.42,1.66-3.42,3.66c0,2.241,1.439,3.621,3.361,3.621c1,0,1.66-0.24,2.16-0.46L608.119,66.217z"/>
						<path fill="#FFFFFF" d="M610.178,52.354h1.762v6.062h0.039c0.281-0.5,0.721-0.96,1.26-1.261
							c0.521-0.3,1.141-0.479,1.801-0.479c1.301,0,3.381,0.8,3.381,4.121v5.761h-1.76v-5.562c0-1.56-0.58-2.86-2.24-2.86
							c-1.141,0-2.021,0.8-2.361,1.74c-0.1,0.261-0.119,0.521-0.119,0.841v5.841h-1.762V52.354z"/>
						<path fill="#FFFFFF" d="M628.08,64.236c0,0.84,0.039,1.66,0.139,2.32h-1.58l-0.139-1.221h-0.061
							c-0.541,0.761-1.58,1.44-2.961,1.44c-1.961,0-2.961-1.38-2.961-2.78c0-2.341,2.08-3.621,5.822-3.601v-0.2
							c0-0.78-0.221-2.24-2.201-2.221c-0.92,0-1.859,0.261-2.541,0.721l-0.4-1.181c0.801-0.5,1.98-0.84,3.201-0.84
							c2.961,0,3.682,2.021,3.682,3.94V64.236z M626.379,61.615c-1.92-0.04-4.1,0.301-4.1,2.181c0,1.16,0.76,1.681,1.639,1.681
							c1.281,0,2.102-0.801,2.381-1.62c0.061-0.2,0.08-0.4,0.08-0.561V61.615z"/>
						<path fill="#FFFFFF" d="M630.918,59.896c0-1.141-0.02-2.121-0.08-3.021h1.541l0.08,1.92h0.059
							c0.441-1.3,1.521-2.12,2.701-2.12c0.18,0,0.32,0.02,0.48,0.04v1.66c-0.18-0.04-0.361-0.04-0.6-0.04
							c-1.24,0-2.121,0.92-2.361,2.24c-0.041,0.24-0.061,0.54-0.061,0.82v5.161h-1.76V59.896z"/>
						<path fill="#FFFFFF" d="M637.219,64.776c0.539,0.32,1.459,0.68,2.34,0.68c1.26,0,1.859-0.62,1.859-1.44
							c0-0.84-0.5-1.28-1.779-1.76c-1.76-0.641-2.58-1.58-2.58-2.741c0-1.56,1.279-2.84,3.34-2.84c0.98,0,1.84,0.26,2.361,0.6
							l-0.42,1.28c-0.381-0.24-1.082-0.58-1.98-0.58c-1.041,0-1.602,0.601-1.602,1.32c0,0.801,0.561,1.16,1.82,1.66
							c1.66,0.62,2.541,1.461,2.541,2.901c0,1.72-1.34,2.92-3.602,2.92c-1.059,0-2.039-0.279-2.721-0.68L637.219,64.776z"/>
						<path fill="#FFFFFF" d="M646.357,62.036c0.041,2.38,1.541,3.36,3.322,3.36c1.26,0,2.039-0.22,2.68-0.5l0.32,1.26
							c-0.621,0.28-1.701,0.62-3.24,0.62c-2.98,0-4.762-1.98-4.762-4.9c0-2.921,1.721-5.201,4.541-5.201c3.18,0,4,2.761,4,4.541
							c0,0.359-0.02,0.62-0.059,0.82H646.357z M651.52,60.775c0.02-1.101-0.461-2.841-2.441-2.841c-1.801,0-2.561,1.62-2.699,2.841
							H651.52z"/>
						<path fill="#FFFFFF" d="M413.212,84.036c0.04,2.38,1.54,3.36,3.321,3.36c1.26,0,2.04-0.22,2.68-0.5l0.32,1.26
							c-0.62,0.28-1.7,0.62-3.24,0.62c-2.98,0-4.762-1.98-4.762-4.9c0-2.921,1.721-5.201,4.541-5.201
							c3.182,0,4.001,2.761,4.001,4.541c0,0.359-0.021,0.62-0.06,0.82H413.212z M418.373,82.775c0.02-1.101-0.46-2.841-2.44-2.841
							c-1.8,0-2.561,1.62-2.7,2.841H418.373z"/>
						<path fill="#FFFFFF" d="M422.252,81.495c0-1.021-0.02-1.82-0.08-2.62h1.561l0.1,1.6h0.04c0.479-0.899,1.601-1.8,3.2-1.8
							c1.341,0,3.422,0.8,3.422,4.121v5.761h-1.761v-5.581c0-1.561-0.581-2.86-2.241-2.86c-1.14,0-2.04,0.819-2.359,1.8
							c-0.08,0.221-0.121,0.521-0.121,0.82v5.821h-1.76V81.495z"/>
						<path fill="#FFFFFF" d="M437.352,86.776c0.539,0.32,1.46,0.68,2.34,0.68c1.26,0,1.861-0.62,1.861-1.44
							c0-0.84-0.501-1.28-1.781-1.76c-1.76-0.641-2.58-1.58-2.58-2.741c0-1.56,1.279-2.84,3.34-2.84c0.98,0,1.841,0.26,2.361,0.6
							l-0.42,1.28c-0.381-0.24-1.08-0.58-1.98-0.58c-1.041,0-1.601,0.601-1.601,1.32c0,0.801,0.56,1.16,1.82,1.66
							c1.66,0.62,2.54,1.461,2.54,2.901c0,1.72-1.34,2.92-3.6,2.92c-1.061,0-2.041-0.279-2.721-0.68L437.352,86.776z"/>
						<path fill="#FFFFFF" d="M453.613,85.896c0,1.02,0.02,1.9,0.08,2.66h-1.561l-0.1-1.58h-0.041c-0.439,0.78-1.48,1.8-3.2,1.8
							c-1.521,0-3.341-0.859-3.341-4.24v-5.661h1.76v5.341c0,1.84,0.58,3.101,2.161,3.101c1.181,0,2.001-0.82,2.32-1.62
							c0.101-0.24,0.16-0.561,0.16-0.9v-5.921h1.761V85.896z"/>
						<path fill="#FFFFFF" d="M456.291,86.776c0.54,0.32,1.461,0.68,2.34,0.68c1.262,0,1.861-0.62,1.861-1.44
							c0-0.84-0.5-1.28-1.781-1.76c-1.76-0.641-2.58-1.58-2.58-2.741c0-1.56,1.281-2.84,3.342-2.84c0.979,0,1.84,0.26,2.359,0.6
							l-0.42,1.28c-0.381-0.24-1.08-0.58-1.98-0.58c-1.041,0-1.6,0.601-1.6,1.32c0,0.801,0.559,1.16,1.82,1.66
							c1.66,0.62,2.539,1.461,2.539,2.901c0,1.72-1.34,2.92-3.6,2.92c-1.061,0-2.041-0.279-2.721-0.68L456.291,86.776z"/>
						<path fill="#FFFFFF" d="M468.691,74.354h1.76v6.062h0.041c0.279-0.5,0.719-0.96,1.26-1.261c0.52-0.3,1.141-0.479,1.801-0.479
							c1.301,0,3.381,0.8,3.381,4.121v5.761h-1.762v-5.562c0-1.56-0.58-2.86-2.24-2.86c-1.141,0-2.02,0.8-2.359,1.74
							c-0.102,0.261-0.121,0.521-0.121,0.841v5.841h-1.76V74.354z"/>
						<path fill="#FFFFFF" d="M488.553,83.636c0,3.581-2.5,5.141-4.82,5.141c-2.602,0-4.643-1.92-4.643-4.98
							c0-3.221,2.141-5.121,4.803-5.121C486.672,78.675,488.553,80.695,488.553,83.636z M480.891,83.735
							c0,2.121,1.201,3.721,2.922,3.721c1.68,0,2.939-1.58,2.939-3.761c0-1.64-0.82-3.7-2.9-3.7
							C481.791,79.995,480.891,81.915,480.891,83.735z"/>
						<path fill="#FFFFFF" d="M490.77,81.495c0-1.021-0.039-1.82-0.08-2.62h1.541l0.08,1.58h0.061c0.539-0.92,1.439-1.78,3.061-1.78
							c1.301,0,2.301,0.8,2.721,1.94h0.039c0.301-0.561,0.701-0.961,1.102-1.261c0.58-0.439,1.199-0.68,2.119-0.68
							c1.301,0,3.201,0.84,3.201,4.2v5.682h-1.721v-5.461c0-1.881-0.699-2.98-2.1-2.98c-1.021,0-1.781,0.74-2.102,1.58
							c-0.08,0.26-0.139,0.56-0.139,0.88v5.981h-1.721v-5.801c0-1.541-0.68-2.641-2.021-2.641c-1.08,0-1.9,0.88-2.18,1.76
							c-0.1,0.24-0.141,0.561-0.141,0.86v5.821h-1.721V81.495z"/>
						<path fill="#FFFFFF" d="M507.449,74.354h1.742v6.081h0.039c0.619-1.08,1.74-1.76,3.301-1.76c2.42,0,4.102,2,4.102,4.921
							c0,3.461-2.201,5.181-4.361,5.181c-1.4,0-2.521-0.54-3.262-1.8h-0.039l-0.1,1.58h-1.502c0.041-0.66,0.08-1.641,0.08-2.501
							V74.354z M509.191,84.676c0,0.22,0.02,0.44,0.078,0.641c0.32,1.22,1.361,2.06,2.641,2.06c1.861,0,2.941-1.5,2.941-3.721
							c0-1.94-1-3.601-2.9-3.601c-1.18,0-2.301,0.84-2.66,2.16c-0.061,0.221-0.1,0.461-0.1,0.74V84.676z"/>
						<path fill="#FFFFFF" d="M518.83,81.896c0-1.141-0.02-2.121-0.08-3.021h1.541l0.08,1.92h0.059c0.441-1.3,1.521-2.12,2.701-2.12
							c0.18,0,0.32,0.02,0.48,0.04v1.66c-0.18-0.04-0.361-0.04-0.6-0.04c-1.24,0-2.121,0.92-2.361,2.24
							c-0.041,0.24-0.061,0.54-0.061,0.82v5.161h-1.76V81.896z"/>
						<path fill="#FFFFFF" d="M533.932,83.636c0,3.581-2.5,5.141-4.82,5.141c-2.602,0-4.643-1.92-4.643-4.98
							c0-3.221,2.141-5.121,4.803-5.121C532.051,78.675,533.932,80.695,533.932,83.636z M526.27,83.735
							c0,2.121,1.201,3.721,2.922,3.721c1.68,0,2.939-1.58,2.939-3.761c0-1.64-0.82-3.7-2.9-3.7
							C527.17,79.995,526.27,81.915,526.27,83.735z"/>
						<path fill="#FFFFFF" d="M535.91,86.776c0.539,0.32,1.459,0.68,2.34,0.68c1.26,0,1.859-0.62,1.859-1.44
							c0-0.84-0.5-1.28-1.779-1.76c-1.76-0.641-2.58-1.58-2.58-2.741c0-1.56,1.279-2.84,3.34-2.84c0.98,0,1.84,0.26,2.361,0.6
							l-0.42,1.28c-0.381-0.24-1.082-0.58-1.98-0.58c-1.041,0-1.602,0.601-1.602,1.32c0,0.801,0.561,1.16,1.82,1.66
							c1.66,0.62,2.541,1.461,2.541,2.901c0,1.72-1.34,2.92-3.602,2.92c-1.059,0-2.039-0.279-2.721-0.68L535.91,86.776z"/>
						<path fill="#FFFFFF" d="M549.289,84.036c0.041,2.38,1.541,3.36,3.322,3.36c1.26,0,2.039-0.22,2.68-0.5l0.32,1.26
							c-0.621,0.28-1.701,0.62-3.24,0.62c-2.98,0-4.762-1.98-4.762-4.9c0-2.921,1.721-5.201,4.541-5.201c3.18,0,4,2.761,4,4.541
							c0,0.359-0.02,0.62-0.059,0.82H549.289z M554.451,82.775c0.02-1.101-0.461-2.841-2.441-2.841c-1.801,0-2.561,1.62-2.699,2.841
							H554.451z"/>
						<path fill="#FFFFFF" d="M558.328,74.354h1.762v14.203h-1.762V74.354z"/>
						<path fill="#FFFFFF" d="M567.289,82.035c0-1.24-0.041-2.24-0.08-3.16h1.561l0.1,1.66h0.041c0.699-1.181,1.859-1.86,3.439-1.86
							c2.361,0,4.121,1.98,4.121,4.9c0,3.481-2.141,5.201-4.42,5.201c-1.281,0-2.4-0.56-2.982-1.52h-0.039v5.261h-1.74V82.035z
							 M569.029,84.616c0,0.26,0.02,0.5,0.08,0.72c0.32,1.221,1.381,2.061,2.641,2.061c1.859,0,2.941-1.521,2.941-3.741
							c0-1.92-1.021-3.58-2.881-3.58c-1.201,0-2.342,0.84-2.662,2.16c-0.059,0.22-0.119,0.48-0.119,0.7V84.616z"/>
						<path fill="#FFFFFF" d="M578.668,81.896c0-1.141-0.02-2.121-0.08-3.021h1.541l0.08,1.92h0.061c0.439-1.3,1.52-2.12,2.701-2.12
							c0.18,0,0.318,0.02,0.479,0.04v1.66c-0.18-0.04-0.359-0.04-0.6-0.04c-1.24,0-2.121,0.92-2.361,2.24
							c-0.039,0.24-0.059,0.54-0.059,0.82v5.161h-1.762V81.896z"/>
						<path fill="#FFFFFF" d="M593.771,83.636c0,3.581-2.5,5.141-4.82,5.141c-2.602,0-4.643-1.92-4.643-4.98
							c0-3.221,2.141-5.121,4.803-5.121C591.891,78.675,593.771,80.695,593.771,83.636z M586.109,83.735
							c0,2.121,1.201,3.721,2.922,3.721c1.68,0,2.939-1.58,2.939-3.761c0-1.64-0.82-3.7-2.9-3.7
							C587.01,79.995,586.109,81.915,586.109,83.735z"/>
						<path fill="#FFFFFF" d="M595.988,74.354h1.742v6.081h0.039c0.619-1.08,1.74-1.76,3.301-1.76c2.42,0,4.102,2,4.102,4.921
							c0,3.461-2.201,5.181-4.361,5.181c-1.4,0-2.521-0.54-3.262-1.8h-0.039l-0.1,1.58h-1.502c0.041-0.66,0.08-1.641,0.08-2.501
							V74.354z M597.73,84.676c0,0.22,0.02,0.44,0.078,0.641c0.32,1.22,1.361,2.06,2.641,2.06c1.861,0,2.941-1.5,2.941-3.721
							c0-1.94-1-3.601-2.9-3.601c-1.18,0-2.301,0.84-2.66,2.16c-0.061,0.221-0.1,0.461-0.1,0.74V84.676z"/>
						<path fill="#FFFFFF" d="M607.369,74.354h1.76v14.203h-1.76V74.354z"/>
						<path fill="#FFFFFF" d="M613.068,84.036c0.041,2.38,1.541,3.36,3.322,3.36c1.26,0,2.039-0.22,2.68-0.5l0.32,1.26
							c-0.621,0.28-1.701,0.62-3.24,0.62c-2.98,0-4.762-1.98-4.762-4.9c0-2.921,1.721-5.201,4.541-5.201c3.18,0,4,2.761,4,4.541
							c0,0.359-0.02,0.62-0.059,0.82H613.068z M618.23,82.775c0.02-1.101-0.461-2.841-2.441-2.841c-1.801,0-2.561,1.62-2.699,2.841
							H618.23z"/>
						<path fill="#FFFFFF" d="M622.107,81.495c0-1.021-0.039-1.82-0.08-2.62h1.541l0.08,1.58h0.061
							c0.539-0.92,1.439-1.78,3.061-1.78c1.301,0,2.301,0.8,2.721,1.94h0.039c0.301-0.561,0.701-0.961,1.102-1.261
							c0.58-0.439,1.199-0.68,2.119-0.68c1.301,0,3.201,0.84,3.201,4.2v5.682h-1.721v-5.461c0-1.881-0.699-2.98-2.1-2.98
							c-1.021,0-1.781,0.74-2.102,1.58c-0.08,0.26-0.139,0.56-0.139,0.88v5.981h-1.721v-5.801c0-1.541-0.68-2.641-2.021-2.641
							c-1.08,0-1.9,0.88-2.18,1.76c-0.1,0.24-0.141,0.561-0.141,0.86v5.821h-1.721V81.495z"/>
						<path fill="#FFFFFF" d="M645.59,86.236c0,0.84,0.039,1.66,0.139,2.32h-1.58l-0.139-1.221h-0.061
							c-0.541,0.761-1.58,1.44-2.961,1.44c-1.961,0-2.961-1.38-2.961-2.78c0-2.341,2.08-3.621,5.822-3.601v-0.2
							c0-0.78-0.221-2.24-2.201-2.221c-0.92,0-1.859,0.261-2.541,0.721l-0.4-1.181c0.801-0.5,1.98-0.84,3.201-0.84
							c2.961,0,3.682,2.021,3.682,3.94V86.236z M643.889,83.615c-1.92-0.04-4.1,0.301-4.1,2.181c0,1.16,0.76,1.681,1.639,1.681
							c1.281,0,2.102-0.801,2.381-1.62c0.061-0.2,0.08-0.4,0.08-0.561V83.615z"/>
						<path fill="#FFFFFF" d="M649.969,74.714c-0.461,1.68-1.32,3.841-1.861,4.761l-1.121,0.12c0.441-1.181,0.961-3.24,1.182-4.681
							L649.969,74.714z M652.928,74.714c-0.459,1.68-1.32,3.841-1.859,4.761l-1.121,0.12c0.42-1.181,0.961-3.24,1.182-4.681
							L652.928,74.714z"/>
						<path fill="#FFFFFF" d="M651.348,87.517c0-0.721,0.5-1.261,1.199-1.261c0.701,0,1.182,0.521,1.182,1.261
							c0,0.72-0.48,1.26-1.221,1.26C651.828,88.776,651.348,88.236,651.348,87.517z"/>
						<path fill="#FFFFFF" d="M408.723,97.254c0.88-0.16,2.16-0.28,3.34-0.28c1.861,0,3.082,0.36,3.901,1.101
							c0.66,0.6,1.061,1.521,1.061,2.58c0,1.761-1.12,2.94-2.521,3.421v0.061c1.02,0.359,1.641,1.319,1.961,2.72
							c0.439,1.881,0.76,3.181,1.039,3.701h-1.8c-0.22-0.4-0.521-1.54-0.88-3.221c-0.4-1.86-1.141-2.561-2.721-2.62h-1.641v5.841
							h-1.74V97.254z M410.463,103.396h1.78c1.86,0,3.04-1.021,3.04-2.561c0-1.741-1.26-2.501-3.1-2.501
							c-0.84,0-1.421,0.06-1.721,0.14V103.396z"/>
						<path fill="#FFFFFF" d="M420.482,106.036c0.04,2.38,1.541,3.36,3.32,3.36c1.261,0,2.041-0.22,2.682-0.5l0.319,1.26
							c-0.62,0.28-1.7,0.62-3.241,0.62c-2.98,0-4.76-1.98-4.76-4.9c0-2.921,1.72-5.201,4.541-5.201c3.18,0,4,2.761,4,4.541
							c0,0.359-0.02,0.62-0.06,0.82H420.482z M425.644,104.775c0.021-1.101-0.46-2.841-2.44-2.841c-1.801,0-2.561,1.62-2.701,2.841
							H425.644z"/>
						<path fill="#FFFFFF" d="M436.424,110.217c-0.46,0.22-1.48,0.56-2.781,0.56c-2.92,0-4.82-1.98-4.82-4.94
							c0-2.98,2.041-5.161,5.201-5.161c1.04,0,1.961,0.26,2.44,0.52l-0.399,1.341c-0.421-0.221-1.081-0.46-2.041-0.46
							c-2.221,0-3.421,1.66-3.421,3.66c0,2.241,1.44,3.621,3.36,3.621c1,0,1.66-0.24,2.16-0.46L436.424,110.217z"/>
						<path fill="#FFFFFF" d="M446.584,107.896c0,1.02,0.02,1.9,0.08,2.66h-1.561l-0.1-1.58h-0.04c-0.44,0.78-1.48,1.8-3.2,1.8
							c-1.521,0-3.342-0.859-3.342-4.24v-5.661h1.761v5.341c0,1.84,0.58,3.101,2.161,3.101c1.18,0,2-0.82,2.32-1.62
							c0.1-0.24,0.16-0.561,0.16-0.9v-5.921h1.76V107.896z"/>
						<path fill="#FFFFFF" d="M450.482,106.036c0.04,2.38,1.541,3.36,3.32,3.36c1.261,0,2.041-0.22,2.682-0.5l0.319,1.26
							c-0.62,0.28-1.7,0.62-3.241,0.62c-2.98,0-4.76-1.98-4.76-4.9c0-2.921,1.72-5.201,4.541-5.201c3.18,0,4,2.761,4,4.541
							c0,0.359-0.02,0.62-0.061,0.82H450.482z M455.644,104.775c0.021-1.101-0.46-2.841-2.44-2.841c-1.801,0-2.561,1.62-2.701,2.841
							H455.644z"/>
						<path fill="#FFFFFF" d="M459.521,103.896c0-1.141-0.02-2.121-0.08-3.021h1.541l0.08,1.92h0.061
							c0.439-1.3,1.52-2.12,2.701-2.12c0.18,0,0.318,0.02,0.479,0.04v1.66c-0.18-0.04-0.359-0.04-0.6-0.04
							c-1.24,0-2.121,0.92-2.361,2.24c-0.039,0.24-0.059,0.54-0.059,0.82v5.161h-1.762V103.896z"/>
						<path fill="#FFFFFF" d="M474.203,96.354v11.702c0,0.86,0.041,1.841,0.08,2.501h-1.559l-0.08-1.681h-0.061
							c-0.52,1.08-1.682,1.9-3.262,1.9c-2.34,0-4.16-1.98-4.16-4.921c-0.02-3.221,2-5.181,4.342-5.181c1.5,0,2.48,0.7,2.92,1.46
							h0.039v-5.781H474.203z M472.463,104.815c0-0.22-0.02-0.521-0.08-0.74c-0.26-1.101-1.219-2.021-2.539-2.021
							c-1.82,0-2.9,1.601-2.9,3.721c0,1.961,0.979,3.581,2.859,3.581c1.18,0,2.262-0.8,2.58-2.101c0.061-0.24,0.08-0.48,0.08-0.76
							V104.815z"/>
						<path fill="#FFFFFF" d="M478.123,106.036c0.039,2.38,1.539,3.36,3.32,3.36c1.26,0,2.041-0.22,2.68-0.5l0.32,1.26
							c-0.619,0.28-1.699,0.62-3.24,0.62c-2.98,0-4.762-1.98-4.762-4.9c0-2.921,1.721-5.201,4.541-5.201
							c3.182,0,4.002,2.761,4.002,4.541c0,0.359-0.02,0.62-0.061,0.82H478.123z M483.283,104.775
							c0.021-1.101-0.459-2.841-2.439-2.841c-1.801,0-2.561,1.62-2.701,2.841H483.283z"/>
						<path fill="#FFFFFF" d="M498.004,109.076h-0.041c-0.539,0.94-1.6,1.7-3.16,1.7c-2.26,0-4.102-1.94-4.102-4.881
							c0-3.641,2.342-5.221,4.381-5.221c1.502,0,2.502,0.74,2.982,1.66h0.039l0.061-1.46h1.66c-0.041,0.8-0.08,1.66-0.08,2.66
							v10.982h-1.74V109.076z M498.004,104.796c0-0.24-0.02-0.501-0.08-0.721c-0.281-1.08-1.201-2-2.521-2
							c-1.82,0-2.92,1.54-2.92,3.7c0,1.94,0.92,3.601,2.861,3.601c1.139,0,2.119-0.7,2.52-1.9c0.08-0.26,0.141-0.6,0.141-0.859
							V104.796z"/>
						<path fill="#FFFFFF" d="M510.764,107.896c0,1.02,0.02,1.9,0.08,2.66h-1.561l-0.1-1.58h-0.041c-0.439,0.78-1.48,1.8-3.199,1.8
							c-1.521,0-3.342-0.859-3.342-4.24v-5.661h1.762v5.341c0,1.84,0.58,3.101,2.16,3.101c1.18,0,2-0.82,2.32-1.62
							c0.1-0.24,0.16-0.561,0.16-0.9v-5.921h1.76V107.896z"/>
						<path fill="#FFFFFF" d="M514.662,106.036c0.039,2.38,1.539,3.36,3.32,3.36c1.26,0,2.041-0.22,2.68-0.5l0.32,1.26
							c-0.619,0.28-1.699,0.62-3.24,0.62c-2.98,0-4.762-1.98-4.762-4.9c0-2.921,1.721-5.201,4.541-5.201
							c3.182,0,4.002,2.761,4.002,4.541c0,0.359-0.02,0.62-0.061,0.82H514.662z M519.822,104.775
							c0.021-1.101-0.459-2.841-2.439-2.841c-1.801,0-2.561,1.62-2.701,2.841H519.822z"/>
						<path fill="#FFFFFF" d="M527.941,96.354h1.76v14.203h-1.76V96.354z"/>
						<path fill="#FFFFFF" d="M539.463,108.236c0,0.84,0.039,1.66,0.139,2.32h-1.58l-0.139-1.221h-0.061
							c-0.541,0.761-1.58,1.44-2.961,1.44c-1.961,0-2.961-1.38-2.961-2.78c0-2.341,2.08-3.621,5.822-3.601v-0.2
							c0-0.78-0.221-2.24-2.201-2.221c-0.92,0-1.859,0.261-2.541,0.721l-0.4-1.181c0.801-0.5,1.98-0.84,3.201-0.84
							c2.961,0,3.682,2.021,3.682,3.94V108.236z M537.762,105.615c-1.92-0.04-4.1,0.301-4.1,2.181c0,1.16,0.76,1.681,1.639,1.681
							c1.281,0,2.102-0.801,2.381-1.62c0.061-0.2,0.08-0.4,0.08-0.561V105.615z"/>
						<path fill="#FFFFFF" d="M548.502,98.154c0,0.6-0.42,1.08-1.121,1.08c-0.641,0-1.061-0.48-1.061-1.08
							c0-0.601,0.441-1.101,1.102-1.101C548.061,97.054,548.502,97.534,548.502,98.154z M546.541,110.557v-9.682h1.76v9.682H546.541
							z"/>
						<path fill="#FFFFFF" d="M559.562,96.354v11.702c0,0.86,0.039,1.841,0.08,2.501h-1.561l-0.08-1.681h-0.061
							c-0.52,1.08-1.68,1.9-3.26,1.9c-2.342,0-4.162-1.98-4.162-4.921c-0.02-3.221,2.002-5.181,4.342-5.181
							c1.5,0,2.48,0.7,2.92,1.46h0.041v-5.781H559.562z M557.822,104.815c0-0.22-0.02-0.521-0.08-0.74
							c-0.26-1.101-1.221-2.021-2.541-2.021c-1.82,0-2.9,1.601-2.9,3.721c0,1.961,0.98,3.581,2.861,3.581
							c1.18,0,2.26-0.8,2.58-2.101c0.061-0.24,0.08-0.48,0.08-0.76V104.815z"/>
						<path fill="#FFFFFF" d="M563.48,106.036c0.041,2.38,1.541,3.36,3.322,3.36c1.26,0,2.039-0.22,2.68-0.5l0.32,1.26
							c-0.621,0.28-1.701,0.62-3.24,0.62c-2.98,0-4.762-1.98-4.762-4.9c0-2.921,1.721-5.201,4.541-5.201c3.18,0,4,2.761,4,4.541
							c0,0.359-0.02,0.62-0.059,0.82H563.48z M568.643,104.775c0.02-1.101-0.461-2.841-2.441-2.841c-1.801,0-2.561,1.62-2.699,2.841
							H568.643z"/>
						<path fill="#FFFFFF" d="M579.322,108.236c0,0.84,0.039,1.66,0.139,2.32h-1.58l-0.139-1.221h-0.061
							c-0.541,0.761-1.58,1.44-2.961,1.44c-1.961,0-2.961-1.38-2.961-2.78c0-2.341,2.08-3.621,5.822-3.601v-0.2
							c0-0.78-0.221-2.24-2.201-2.221c-0.92,0-1.859,0.261-2.541,0.721l-0.4-1.181c0.801-0.5,1.98-0.84,3.201-0.84
							c2.961,0,3.682,2.021,3.682,3.94V108.236z M577.621,105.615c-1.92-0.04-4.1,0.301-4.1,2.181c0,1.16,0.76,1.681,1.639,1.681
							c1.281,0,2.102-0.801,2.381-1.62c0.061-0.2,0.08-0.4,0.08-0.561V105.615z"/>
						<path fill="#FFFFFF" d="M587.381,106.036c0.039,2.38,1.539,3.36,3.32,3.36c1.26,0,2.041-0.22,2.68-0.5l0.32,1.26
							c-0.619,0.28-1.699,0.62-3.24,0.62c-2.98,0-4.762-1.98-4.762-4.9c0-2.921,1.721-5.201,4.541-5.201
							c3.182,0,4.002,2.761,4.002,4.541c0,0.359-0.02,0.62-0.061,0.82H587.381z M592.541,104.775
							c0.021-1.101-0.459-2.841-2.439-2.841c-1.801,0-2.561,1.62-2.701,2.841H592.541z"/>
						<path fill="#FFFFFF" d="M596.18,108.776c0.541,0.32,1.461,0.68,2.34,0.68c1.262,0,1.861-0.62,1.861-1.44
							c0-0.84-0.5-1.28-1.781-1.76c-1.76-0.641-2.58-1.58-2.58-2.741c0-1.56,1.281-2.84,3.342-2.84c0.979,0,1.84,0.26,2.359,0.6
							l-0.42,1.28c-0.381-0.24-1.08-0.58-1.98-0.58c-1.041,0-1.6,0.601-1.6,1.32c0,0.801,0.559,1.16,1.82,1.66
							c1.66,0.62,2.539,1.461,2.539,2.901c0,1.72-1.34,2.92-3.6,2.92c-1.061,0-2.041-0.279-2.721-0.68L596.18,108.776z"/>
						<path fill="#FFFFFF" d="M615.182,109.076h-0.041c-0.539,0.94-1.6,1.7-3.16,1.7c-2.26,0-4.102-1.94-4.102-4.881
							c0-3.641,2.342-5.221,4.381-5.221c1.502,0,2.502,0.74,2.982,1.66h0.039l0.061-1.46h1.66c-0.041,0.8-0.08,1.66-0.08,2.66
							v10.982h-1.74V109.076z M615.182,104.796c0-0.24-0.02-0.501-0.08-0.721c-0.281-1.08-1.201-2-2.521-2
							c-1.82,0-2.92,1.54-2.92,3.7c0,1.94,0.92,3.601,2.861,3.601c1.139,0,2.119-0.7,2.52-1.9c0.08-0.26,0.141-0.6,0.141-0.859
							V104.796z"/>
						<path fill="#FFFFFF" d="M627.941,107.896c0,1.02,0.02,1.9,0.08,2.66h-1.561l-0.1-1.58h-0.041c-0.439,0.78-1.48,1.8-3.199,1.8
							c-1.521,0-3.342-0.859-3.342-4.24v-5.661h1.762v5.341c0,1.84,0.58,3.101,2.16,3.101c1.18,0,2-0.82,2.32-1.62
							c0.1-0.24,0.16-0.561,0.16-0.9v-5.921h1.76V107.896z"/>
						<path fill="#FFFFFF" d="M631.84,106.036c0.039,2.38,1.539,3.36,3.32,3.36c1.26,0,2.041-0.22,2.68-0.5l0.32,1.26
							c-0.619,0.28-1.699,0.62-3.24,0.62c-2.98,0-4.762-1.98-4.762-4.9c0-2.921,1.721-5.201,4.541-5.201
							c3.182,0,4.002,2.761,4.002,4.541c0,0.359-0.02,0.62-0.061,0.82H631.84z M637,104.775c0.021-1.101-0.459-2.841-2.439-2.841
							c-1.801,0-2.561,1.62-2.701,2.841H637z"/>
						<path fill="#FFFFFF" d="M645.119,96.354h1.76v14.203h-1.76V96.354z"/>
						<path fill="#FFFFFF" d="M656.641,108.236c0,0.84,0.039,1.66,0.139,2.32h-1.58l-0.139-1.221H655
							c-0.541,0.761-1.58,1.44-2.961,1.44c-1.961,0-2.961-1.38-2.961-2.78c0-2.341,2.08-3.621,5.822-3.601v-0.2
							c0-0.78-0.221-2.24-2.201-2.221c-0.92,0-1.859,0.261-2.541,0.721l-0.4-1.181c0.801-0.5,1.98-0.84,3.201-0.84
							c2.961,0,3.682,2.021,3.682,3.94V108.236z M654.939,105.615c-1.92-0.04-4.1,0.301-4.1,2.181c0,1.16,0.76,1.681,1.639,1.681
							c1.281,0,2.102-0.801,2.381-1.62c0.061-0.2,0.08-0.4,0.08-0.561V105.615z"/>
						<path fill="#FFFFFF" d="M438.541,126.035c0-1.24-0.039-2.24-0.08-3.16h1.561l0.1,1.66h0.041c0.699-1.181,1.859-1.86,3.44-1.86
							c2.36,0,4.12,1.98,4.12,4.9c0,3.481-2.14,5.201-4.42,5.201c-1.281,0-2.4-0.56-2.98-1.52h-0.041v5.261h-1.74V126.035z
							 M440.281,128.616c0,0.26,0.021,0.5,0.08,0.72c0.32,1.221,1.381,2.061,2.641,2.061c1.861,0,2.941-1.521,2.941-3.741
							c0-1.92-1.021-3.58-2.881-3.58c-1.2,0-2.341,0.84-2.66,2.16c-0.061,0.22-0.121,0.48-0.121,0.7V128.616z"/>
						<path fill="#FFFFFF" d="M450.901,128.036c0.04,2.38,1.54,3.36,3.321,3.36c1.26,0,2.04-0.22,2.68-0.5l0.32,1.26
							c-0.62,0.28-1.7,0.62-3.24,0.62c-2.98,0-4.762-1.98-4.762-4.9c0-2.921,1.721-5.201,4.541-5.201
							c3.182,0,4.002,2.761,4.002,4.541c0,0.359-0.021,0.62-0.061,0.82H450.901z M456.062,126.775c0.02-1.101-0.46-2.841-2.44-2.841
							c-1.8,0-2.561,1.62-2.7,2.841H456.062z"/>
						<path fill="#FFFFFF" d="M459.941,125.896c0-1.141-0.02-2.121-0.08-3.021h1.541l0.08,1.92h0.059
							c0.441-1.3,1.521-2.12,2.701-2.12c0.18,0,0.32,0.02,0.48,0.04v1.66c-0.18-0.04-0.361-0.04-0.6-0.04
							c-1.24,0-2.121,0.92-2.361,2.24c-0.041,0.24-0.061,0.54-0.061,0.82v5.161h-1.76V125.896z"/>
						<path fill="#FFFFFF" d="M466.242,130.776c0.539,0.32,1.459,0.68,2.34,0.68c1.26,0,1.859-0.62,1.859-1.44
							c0-0.84-0.5-1.28-1.779-1.76c-1.76-0.641-2.58-1.58-2.58-2.741c0-1.56,1.279-2.84,3.34-2.84c0.98,0,1.84,0.26,2.361,0.6
							l-0.42,1.28c-0.381-0.24-1.082-0.58-1.98-0.58c-1.041,0-1.602,0.601-1.602,1.32c0,0.801,0.561,1.16,1.82,1.66
							c1.66,0.62,2.541,1.461,2.541,2.901c0,1.72-1.34,2.92-3.602,2.92c-1.059,0-2.039-0.279-2.721-0.68L466.242,130.776z"/>
						<path fill="#FFFFFF" d="M483.164,127.636c0,3.581-2.502,5.141-4.822,5.141c-2.6,0-4.641-1.92-4.641-4.98
							c0-3.221,2.141-5.121,4.801-5.121C481.283,122.675,483.164,124.695,483.164,127.636z M475.502,127.735
							c0,2.121,1.199,3.721,2.92,3.721c1.68,0,2.941-1.58,2.941-3.761c0-1.64-0.82-3.7-2.9-3.7
							C476.402,123.995,475.502,125.915,475.502,127.735z"/>
						<path fill="#FFFFFF" d="M485.381,125.495c0-1.021-0.02-1.82-0.08-2.62h1.561l0.1,1.6h0.041c0.479-0.899,1.6-1.8,3.199-1.8
							c1.342,0,3.422,0.8,3.422,4.121v5.761h-1.762v-5.581c0-1.561-0.58-2.86-2.24-2.86c-1.141,0-2.039,0.819-2.359,1.8
							c-0.08,0.221-0.121,0.521-0.121,0.82v5.821h-1.76V125.495z"/>
						<path fill="#FFFFFF" d="M503.281,130.236c0,0.84,0.041,1.66,0.141,2.32h-1.58l-0.141-1.221h-0.061
							c-0.539,0.761-1.58,1.44-2.959,1.44c-1.961,0-2.961-1.38-2.961-2.78c0-2.341,2.08-3.621,5.82-3.601v-0.2
							c0-0.78-0.219-2.24-2.199-2.221c-0.922,0-1.861,0.261-2.541,0.721l-0.4-1.181c0.801-0.5,1.98-0.84,3.201-0.84
							c2.961,0,3.68,2.021,3.68,3.94V130.236z M501.582,127.615c-1.922-0.04-4.102,0.301-4.102,2.181c0,1.16,0.76,1.681,1.641,1.681
							c1.279,0,2.1-0.801,2.381-1.62c0.059-0.2,0.08-0.4,0.08-0.561V127.615z"/>
						<path fill="#FFFFFF" d="M510.359,118.354h1.762v14.203h-1.762V118.354z"/>
						<path fill="#FFFFFF" d="M523.842,127.636c0,3.581-2.5,5.141-4.82,5.141c-2.602,0-4.643-1.92-4.643-4.98
							c0-3.221,2.141-5.121,4.803-5.121C521.961,122.675,523.842,124.695,523.842,127.636z M516.18,127.735
							c0,2.121,1.201,3.721,2.922,3.721c1.68,0,2.939-1.58,2.939-3.761c0-1.64-0.82-3.7-2.9-3.7
							C517.08,123.995,516.18,125.915,516.18,127.735z"/>
						<path fill="#FFFFFF" d="M534.342,131.137c0,2.24-0.461,3.58-1.381,4.44c-0.961,0.86-2.32,1.16-3.541,1.16
							c-1.16,0-2.439-0.28-3.221-0.8l0.439-1.36c0.641,0.42,1.641,0.78,2.842,0.78c1.801,0,3.121-0.94,3.121-3.401v-1.06h-0.041
							c-0.52,0.9-1.58,1.62-3.08,1.62c-2.4,0-4.121-2.04-4.121-4.721c0-3.281,2.141-5.121,4.381-5.121c1.68,0,2.58,0.86,3.021,1.66
							h0.039l0.061-1.46h1.561c-0.061,0.68-0.08,1.479-0.08,2.64V131.137z M532.58,126.695c0-0.3-0.02-0.56-0.1-0.78
							c-0.32-1.04-1.16-1.88-2.461-1.88c-1.68,0-2.879,1.42-2.879,3.66c0,1.9,0.979,3.481,2.859,3.481c1.1,0,2.08-0.681,2.441-1.801
							c0.1-0.3,0.139-0.641,0.139-0.94V126.695z"/>
						<path fill="#FFFFFF" d="M537.119,125.896c0-1.141-0.02-2.121-0.08-3.021h1.541l0.08,1.92h0.059
							c0.441-1.3,1.521-2.12,2.701-2.12c0.18,0,0.32,0.02,0.48,0.04v1.66c-0.18-0.04-0.361-0.04-0.6-0.04
							c-1.24,0-2.121,0.92-2.361,2.24c-0.041,0.24-0.061,0.54-0.061,0.82v5.161h-1.76V125.896z"/>
						<path fill="#FFFFFF" d="M544.439,128.036c0.041,2.38,1.541,3.36,3.322,3.36c1.26,0,2.039-0.22,2.68-0.5l0.32,1.26
							c-0.621,0.28-1.701,0.62-3.24,0.62c-2.98,0-4.762-1.98-4.762-4.9c0-2.921,1.721-5.201,4.541-5.201c3.18,0,4,2.761,4,4.541
							c0,0.359-0.02,0.62-0.059,0.82H544.439z M549.602,126.775c0.02-1.101-0.461-2.841-2.441-2.841
							c-1.801,0-2.561,1.62-2.699,2.841H549.602z"/>
						<path fill="#FFFFFF" d="M558.699,128.036c0.041,2.38,1.541,3.36,3.322,3.36c1.26,0,2.039-0.22,2.68-0.5l0.32,1.26
							c-0.621,0.28-1.701,0.62-3.24,0.62c-2.98,0-4.762-1.98-4.762-4.9c0-2.921,1.721-5.201,4.541-5.201c3.18,0,4,2.761,4,4.541
							c0,0.359-0.02,0.62-0.059,0.82H558.699z M563.861,126.775c0.02-1.101-0.461-2.841-2.441-2.841
							c-1.801,0-2.561,1.62-2.699,2.841H563.861z"/>
						<path fill="#FFFFFF" d="M567.738,118.354h1.762v14.203h-1.762V118.354z"/>
						<path fill="#FFFFFF" d="M576.697,125.495c0-1.021-0.039-1.82-0.08-2.62h1.541l0.08,1.58h0.061
							c0.539-0.92,1.439-1.78,3.061-1.78c1.301,0,2.301,0.8,2.721,1.94h0.039c0.301-0.561,0.701-0.961,1.102-1.261
							c0.58-0.439,1.199-0.68,2.119-0.68c1.301,0,3.201,0.84,3.201,4.2v5.682h-1.721v-5.461c0-1.881-0.699-2.98-2.1-2.98
							c-1.021,0-1.781,0.74-2.102,1.58c-0.08,0.26-0.139,0.56-0.139,0.88v5.981h-1.721v-5.801c0-1.541-0.68-2.641-2.021-2.641
							c-1.08,0-1.9,0.88-2.18,1.76c-0.1,0.24-0.141,0.561-0.141,0.86v5.821h-1.721V125.495z"/>
						<path fill="#FFFFFF" d="M600.18,130.236c0,0.84,0.039,1.66,0.139,2.32h-1.58l-0.139-1.221h-0.061
							c-0.541,0.761-1.58,1.44-2.961,1.44c-1.961,0-2.961-1.38-2.961-2.78c0-2.341,2.08-3.621,5.822-3.601v-0.2
							c0-0.78-0.221-2.24-2.201-2.221c-0.92,0-1.859,0.261-2.541,0.721l-0.4-1.181c0.801-0.5,1.98-0.84,3.201-0.84
							c2.961,0,3.682,2.021,3.682,3.94V130.236z M598.479,127.615c-1.92-0.04-4.1,0.301-4.1,2.181c0,1.16,0.76,1.681,1.639,1.681
							c1.281,0,2.102-0.801,2.381-1.62c0.061-0.2,0.08-0.4,0.08-0.561V127.615z"/>
						<path fill="#FFFFFF" d="M603.498,122.875l2.102,5.721c0.24,0.641,0.479,1.4,0.639,1.98h0.041
							c0.18-0.58,0.379-1.32,0.619-2.021l1.922-5.681h1.859l-2.641,6.901c-1.26,3.32-2.121,5.001-3.32,6.061
							c-0.881,0.74-1.721,1.041-2.16,1.121l-0.441-1.461c0.441-0.14,1.021-0.42,1.541-0.86c0.48-0.38,1.061-1.06,1.48-1.96
							c0.08-0.18,0.141-0.32,0.141-0.42c0-0.101-0.041-0.24-0.141-0.46l-3.561-8.922H603.498z"/>
						<path fill="#FFFFFF" d="M620.84,127.636c0,3.581-2.5,5.141-4.82,5.141c-2.602,0-4.643-1.92-4.643-4.98
							c0-3.221,2.141-5.121,4.803-5.121C618.959,122.675,620.84,124.695,620.84,127.636z M613.178,127.735
							c0,2.121,1.201,3.721,2.922,3.721c1.68,0,2.939-1.58,2.939-3.761c0-1.64-0.82-3.7-2.9-3.7
							C614.078,123.995,613.178,125.915,613.178,127.735z"/>
						<path fill="#FFFFFF" d="M623.057,125.896c0-1.141-0.02-2.121-0.08-3.021h1.541l0.08,1.92h0.061
							c0.439-1.3,1.52-2.12,2.701-2.12c0.18,0,0.318,0.02,0.479,0.04v1.66c-0.18-0.04-0.359-0.04-0.6-0.04
							c-1.24,0-2.121,0.92-2.361,2.24c-0.039,0.24-0.059,0.54-0.059,0.82v5.161h-1.762V125.896z"/>
						<path fill="#FFFFFF" d="M436.562,154.217c-0.459,0.22-1.48,0.56-2.78,0.56c-2.921,0-4.821-1.98-4.821-4.94
							c0-2.98,2.041-5.161,5.201-5.161c1.041,0,1.961,0.26,2.441,0.52l-0.4,1.341c-0.42-0.221-1.08-0.46-2.041-0.46
							c-2.221,0-3.42,1.66-3.42,3.66c0,2.241,1.439,3.621,3.36,3.621c1,0,1.66-0.24,2.16-0.46L436.562,154.217z"/>
						<path fill="#FFFFFF" d="M447.264,149.636c0,3.581-2.501,5.141-4.821,5.141c-2.601,0-4.642-1.92-4.642-4.98
							c0-3.221,2.141-5.121,4.801-5.121C445.383,144.675,447.264,146.695,447.264,149.636z M439.602,149.735
							c0,2.121,1.2,3.721,2.92,3.721c1.682,0,2.941-1.58,2.941-3.761c0-1.64-0.82-3.7-2.9-3.7
							C440.502,145.995,439.602,147.915,439.602,149.735z"/>
						<path fill="#FFFFFF" d="M449.481,147.495c0-1.021-0.021-1.82-0.08-2.62h1.56l0.101,1.6h0.04c0.48-0.899,1.601-1.8,3.201-1.8
							c1.34,0,3.42,0.8,3.42,4.121v5.761h-1.76v-5.581c0-1.561-0.58-2.86-2.24-2.86c-1.141,0-2.041,0.819-2.361,1.8
							c-0.08,0.221-0.119,0.521-0.119,0.82v5.821h-1.761V147.495z"/>
						<path fill="#FFFFFF" d="M462.621,142.554v2.321h2.521v1.34h-2.521v5.221c0,1.2,0.34,1.881,1.32,1.881
							c0.48,0,0.76-0.04,1.02-0.12l0.08,1.341c-0.34,0.119-0.879,0.239-1.559,0.239c-0.82,0-1.48-0.279-1.9-0.74
							c-0.48-0.54-0.682-1.4-0.682-2.54v-5.281h-1.5v-1.34h1.5v-1.801L462.621,142.554z"/>
						<path fill="#FFFFFF" d="M467.121,147.896c0-1.141-0.02-2.121-0.08-3.021h1.541l0.08,1.92h0.059
							c0.441-1.3,1.521-2.12,2.701-2.12c0.18,0,0.32,0.02,0.48,0.04v1.66c-0.18-0.04-0.361-0.04-0.6-0.04
							c-1.24,0-2.121,0.92-2.361,2.24c-0.041,0.24-0.061,0.54-0.061,0.82v5.161h-1.76V147.896z"/>
						<path fill="#FFFFFF" d="M482.225,149.636c0,3.581-2.502,5.141-4.822,5.141c-2.6,0-4.641-1.92-4.641-4.98
							c0-3.221,2.141-5.121,4.801-5.121C480.344,144.675,482.225,146.695,482.225,149.636z M474.562,149.735
							c0,2.121,1.199,3.721,2.92,3.721c1.68,0,2.941-1.58,2.941-3.761c0-1.64-0.82-3.7-2.9-3.7
							C475.463,145.995,474.562,147.915,474.562,149.735z"/>
						<path fill="#FFFFFF" d="M484.441,140.354h1.76v14.203h-1.76V140.354z"/>
						<path fill="#FFFFFF" d="M493.162,152.776c0.539,0.32,1.459,0.68,2.34,0.68c1.26,0,1.859-0.62,1.859-1.44
							c0-0.84-0.5-1.28-1.779-1.76c-1.76-0.641-2.58-1.58-2.58-2.741c0-1.56,1.279-2.84,3.34-2.84c0.98,0,1.84,0.26,2.361,0.6
							l-0.42,1.28c-0.381-0.24-1.082-0.58-1.98-0.58c-1.041,0-1.602,0.601-1.602,1.32c0,0.801,0.561,1.16,1.82,1.66
							c1.66,0.62,2.541,1.461,2.541,2.901c0,1.72-1.34,2.92-3.602,2.92c-1.059,0-2.039-0.279-2.721-0.68L493.162,152.776z"/>
						<path fill="#FFFFFF" d="M510.084,149.636c0,3.581-2.502,5.141-4.822,5.141c-2.6,0-4.641-1.92-4.641-4.98
							c0-3.221,2.141-5.121,4.801-5.121C508.203,144.675,510.084,146.695,510.084,149.636z M502.422,149.735
							c0,2.121,1.199,3.721,2.92,3.721c1.68,0,2.941-1.58,2.941-3.761c0-1.64-0.82-3.7-2.9-3.7
							C503.322,145.995,502.422,147.915,502.422,149.735z"/>
						<path fill="#FFFFFF" d="M512.301,140.354h1.74v6.081h0.039c0.621-1.08,1.742-1.76,3.301-1.76c2.422,0,4.102,2,4.102,4.921
							c0,3.461-2.201,5.181-4.361,5.181c-1.4,0-2.52-0.54-3.26-1.8h-0.041l-0.1,1.58h-1.5c0.039-0.66,0.08-1.641,0.08-2.501V140.354
							z M514.041,150.676c0,0.22,0.02,0.44,0.08,0.641c0.32,1.22,1.359,2.06,2.641,2.06c1.859,0,2.941-1.5,2.941-3.721
							c0-1.94-1.002-3.601-2.902-3.601c-1.18,0-2.299,0.84-2.66,2.16c-0.061,0.221-0.1,0.461-0.1,0.74V150.676z"/>
						<path fill="#FFFFFF" d="M523.68,147.896c0-1.141-0.02-2.121-0.08-3.021h1.541l0.08,1.92h0.061c0.439-1.3,1.52-2.12,2.701-2.12
							c0.18,0,0.318,0.02,0.479,0.04v1.66c-0.18-0.04-0.359-0.04-0.6-0.04c-1.24,0-2.121,0.92-2.361,2.24
							c-0.039,0.24-0.059,0.54-0.059,0.82v5.161h-1.762V147.896z"/>
						<path fill="#FFFFFF" d="M531,150.036c0.041,2.38,1.541,3.36,3.322,3.36c1.26,0,2.039-0.22,2.68-0.5l0.32,1.26
							c-0.621,0.28-1.701,0.62-3.24,0.62c-2.98,0-4.762-1.98-4.762-4.9c0-2.921,1.721-5.201,4.541-5.201c3.18,0,4,2.761,4,4.541
							c0,0.359-0.02,0.62-0.059,0.82H531z M536.162,148.775c0.02-1.101-0.461-2.841-2.441-2.841c-1.801,0-2.561,1.62-2.699,2.841
							H536.162z"/>
						<path fill="#FFFFFF" d="M544.279,140.354h1.762v14.203h-1.762V140.354z"/>
						<path fill="#FFFFFF" d="M555.801,152.236c0,0.84,0.041,1.66,0.141,2.32h-1.58l-0.141-1.221h-0.061
							c-0.539,0.761-1.58,1.44-2.959,1.44c-1.961,0-2.961-1.38-2.961-2.78c0-2.341,2.08-3.621,5.82-3.601v-0.2
							c0-0.78-0.219-2.24-2.199-2.221c-0.922,0-1.861,0.261-2.541,0.721l-0.4-1.181c0.801-0.5,1.98-0.84,3.201-0.84
							c2.961,0,3.68,2.021,3.68,3.94V152.236z M554.102,149.615c-1.922-0.04-4.102,0.301-4.102,2.181c0,1.16,0.76,1.681,1.641,1.681
							c1.279,0,2.1-0.801,2.381-1.62c0.059-0.2,0.08-0.4,0.08-0.561V149.615z"/>
						<path fill="#FFFFFF" d="M562.641,152.776c0.539,0.32,1.459,0.68,2.34,0.68c1.26,0,1.859-0.62,1.859-1.44
							c0-0.84-0.5-1.28-1.779-1.76c-1.76-0.641-2.58-1.58-2.58-2.741c0-1.56,1.279-2.84,3.34-2.84c0.98,0,1.84,0.26,2.361,0.6
							l-0.42,1.28c-0.381-0.24-1.082-0.58-1.98-0.58c-1.041,0-1.602,0.601-1.602,1.32c0,0.801,0.561,1.16,1.82,1.66
							c1.66,0.62,2.541,1.461,2.541,2.901c0,1.72-1.34,2.92-3.602,2.92c-1.059,0-2.039-0.279-2.721-0.68L562.641,152.776z"/>
						<path fill="#FFFFFF" d="M572.76,142.154c0,0.6-0.42,1.08-1.119,1.08c-0.641,0-1.061-0.48-1.061-1.08
							c0-0.601,0.439-1.101,1.1-1.101C572.32,141.054,572.76,141.534,572.76,142.154z M570.799,154.557v-9.682h1.762v9.682H570.799z
							"/>
						<path fill="#FFFFFF" d="M577.6,142.554v2.321h2.521v1.34H577.6v5.221c0,1.2,0.34,1.881,1.32,1.881c0.48,0,0.76-0.04,1.02-0.12
							l0.08,1.341c-0.34,0.119-0.879,0.239-1.559,0.239c-0.82,0-1.48-0.279-1.9-0.74c-0.48-0.54-0.682-1.4-0.682-2.54v-5.281h-1.5
							v-1.34h1.5v-1.801L577.6,142.554z"/>
						<path fill="#FFFFFF" d="M590.201,151.896c0,1.02,0.02,1.9,0.08,2.66h-1.561l-0.1-1.58h-0.041c-0.439,0.78-1.48,1.8-3.199,1.8
							c-1.521,0-3.342-0.859-3.342-4.24v-5.661h1.762v5.341c0,1.84,0.58,3.101,2.16,3.101c1.18,0,2-0.82,2.32-1.62
							c0.1-0.24,0.16-0.561,0.16-0.9v-5.921h1.76V151.896z"/>
						<path fill="#FFFFFF" d="M599.92,152.236c0,0.84,0.041,1.66,0.141,2.32h-1.58l-0.141-1.221h-0.061
							c-0.539,0.761-1.58,1.44-2.959,1.44c-1.961,0-2.961-1.38-2.961-2.78c0-2.341,2.08-3.621,5.82-3.601v-0.2
							c0-0.78-0.219-2.24-2.199-2.221c-0.922,0-1.861,0.261-2.541,0.721l-0.4-1.181c0.801-0.5,1.98-0.84,3.201-0.84
							c2.961,0,3.68,2.021,3.68,3.94V152.236z M598.221,149.615c-1.922-0.04-4.102,0.301-4.102,2.181c0,1.16,0.76,1.681,1.641,1.681
							c1.279,0,2.1-0.801,2.381-1.62c0.059-0.2,0.08-0.4,0.08-0.561V149.615z"/>
						<path fill="#FFFFFF" d="M609.66,154.217c-0.461,0.22-1.48,0.56-2.781,0.56c-2.92,0-4.82-1.98-4.82-4.94
							c0-2.98,2.041-5.161,5.201-5.161c1.041,0,1.961,0.26,2.439,0.52l-0.398,1.341c-0.42-0.221-1.08-0.46-2.041-0.46
							c-2.221,0-3.42,1.66-3.42,3.66c0,2.241,1.439,3.621,3.359,3.621c1,0,1.66-0.24,2.16-0.46L609.66,154.217z"/>
						<path fill="#FFFFFF" d="M613.68,142.154c0,0.6-0.42,1.08-1.121,1.08c-0.641,0-1.061-0.48-1.061-1.08
							c0-0.601,0.441-1.101,1.102-1.101C613.238,141.054,613.68,141.534,613.68,142.154z M611.719,154.557v-9.682h1.76v9.682
							H611.719z"/>
						<path fill="#FFFFFF" d="M625.16,149.636c0,3.581-2.5,5.141-4.82,5.141c-2.602,0-4.643-1.92-4.643-4.98
							c0-3.221,2.141-5.121,4.803-5.121C623.279,144.675,625.16,146.695,625.16,149.636z M617.498,149.735
							c0,2.121,1.201,3.721,2.922,3.721c1.68,0,2.939-1.58,2.939-3.761c0-1.64-0.82-3.7-2.9-3.7
							C618.398,145.995,617.498,147.915,617.498,149.735z M623.061,140.693l-2.441,2.861h-1.24l1.74-2.861H623.061z"/>
						<path fill="#FFFFFF" d="M627.377,147.495c0-1.021-0.02-1.82-0.08-2.62h1.561l0.102,1.6h0.039c0.48-0.899,1.6-1.8,3.201-1.8
							c1.34,0,3.42,0.8,3.42,4.121v5.761h-1.76v-5.581c0-1.561-0.58-2.86-2.24-2.86c-1.141,0-2.041,0.819-2.361,1.8
							c-0.08,0.221-0.119,0.521-0.119,0.82v5.821h-1.762V147.495z"/>
					</g>
				</g>
			</g>
		</g>
	</g>
</g>
</svg>
