<?xml version="1.0" encoding="utf-8"?>
<!-- Generator: Adobe Illustrator 16.0.0, SVG Export Plug-In . SVG Version: 6.00 Build 0)  -->
<!DOCTYPE svg PUBLIC "-//W3C//DTD SVG 1.1//EN" "http://www.w3.org/Graphics/SVG/1.1/DTD/svg11.dtd">
<svg version="1.1" id="Capa_1" xmlns="http://www.w3.org/2000/svg" xmlns:xlink="http://www.w3.org/1999/xlink" x="0px" y="0px"
	 width="741.74px" height="168.475px" viewBox="0 0 741.74 168.475" enable-background="new 0 0 741.74 168.475"
	 xml:space="preserve">
<g>
	<g>
		<rect x="217.199" y="116.04" fill="#EBE760" fill-opacity="0.4" width="244.777" height="25.702"/>
	</g>
	<g>
		<rect y="142.772" fill="#EBE760" fill-opacity="0.4" width="31.969" height="25.702"/>
	</g>
	<g>
		<g>
			<g>
				<g>
					<path opacity="0.9" fill-rule="evenodd" clip-rule="evenodd" fill="#ABC02F" d="M736.369,141.742c0,6.628-5.373,12-12,12
						H528.428c-6.627,0-12-5.372-12-12V12c0-6.628,5.373-12,12-12h195.941c6.627,0,12,5.372,12,12V141.742z"/>
				</g>
				<g>
					<g>
						<path fill="#FFFFFF" d="M542.469,17.254c0.98-0.16,2.422-0.28,4.061-0.28c2.002,0,3.402,0.3,4.361,1.061
							c0.82,0.64,1.26,1.601,1.26,2.841c0,1.7-1.219,2.88-2.379,3.3v0.061c0.939,0.38,1.459,1.26,1.799,2.5
							c0.422,1.541,0.82,3.301,1.082,3.821h-3.121c-0.201-0.4-0.541-1.48-0.92-3.141c-0.381-1.7-0.961-2.141-2.221-2.16h-0.9v5.301
							h-3.021V17.254z M545.49,23.055h1.199c1.521,0,2.422-0.76,2.422-1.94c0-1.22-0.842-1.86-2.24-1.86
							c-0.74,0-1.162,0.04-1.381,0.101V23.055z"/>
						<path fill="#FFFFFF" d="M556.568,26.636c0.08,1.261,1.342,1.86,2.762,1.86c1.039,0,1.881-0.14,2.699-0.42l0.4,2.061
							c-1,0.42-2.221,0.62-3.541,0.62c-3.32,0-5.221-1.921-5.221-4.981c0-2.48,1.541-5.221,4.941-5.221
							c3.16,0,4.361,2.46,4.361,4.881c0,0.521-0.061,0.98-0.1,1.2H556.568z M560.15,24.556c0-0.74-0.32-1.98-1.721-1.98
							c-1.281,0-1.801,1.18-1.881,1.98H560.15z"/>
						<path fill="#FFFFFF" d="M568.189,18.134v2.641h2.18v2.24h-2.18v3.541c0,1.181,0.299,1.721,1.199,1.721
							c0.42,0,0.621-0.021,0.9-0.08l0.02,2.301c-0.379,0.14-1.119,0.26-1.959,0.26c-0.98,0-1.801-0.34-2.301-0.84
							c-0.561-0.581-0.84-1.521-0.84-2.901v-4.001h-1.301v-2.24h1.301v-1.82L568.189,18.134z"/>
						<path fill="#FFFFFF" d="M572.129,23.995c0-1.44-0.021-2.381-0.08-3.221h2.6l0.119,1.801h0.08
							c0.502-1.44,1.682-2.041,2.641-2.041c0.281,0,0.422,0.021,0.641,0.061v2.86c-0.24-0.04-0.48-0.08-0.82-0.08
							c-1.119,0-1.881,0.601-2.08,1.54c-0.039,0.2-0.061,0.44-0.061,0.681v4.961h-3.039V23.995z"/>
						<path fill="#FFFFFF" d="M589.23,25.556c0,3.581-2.541,5.221-5.162,5.221c-2.861,0-5.061-1.88-5.061-5.041
							c0-3.181,2.08-5.201,5.24-5.201C587.229,20.534,589.23,22.595,589.23,25.556z M582.148,25.655c0,1.681,0.699,2.941,2,2.941
							c1.201,0,1.939-1.181,1.939-2.961c0-1.44-0.559-2.921-1.939-2.921C582.709,22.715,582.148,24.215,582.148,25.655z"/>
						<path fill="#FFFFFF" d="M599.25,28.196c0,0.92,0.039,1.82,0.16,2.36h-2.742l-0.18-0.98h-0.061
							c-0.639,0.78-1.639,1.2-2.799,1.2c-1.98,0-3.162-1.44-3.162-3c0-2.541,2.281-3.741,5.742-3.741v-0.12
							c0-0.54-0.281-1.28-1.781-1.28c-1,0-2.061,0.34-2.699,0.74l-0.561-1.96c0.68-0.381,2.02-0.881,3.801-0.881
							c3.26,0,4.281,1.921,4.281,4.241V28.196z M596.309,25.936c-1.6,0-2.84,0.38-2.84,1.54c0,0.78,0.52,1.16,1.199,1.16
							c0.74,0,1.381-0.5,1.58-1.12c0.041-0.159,0.061-0.34,0.061-0.52V25.936z"/>
						<path fill="#FFFFFF" d="M601.668,16.354h3.039v14.203h-3.039V16.354z"/>
						<path fill="#FFFFFF" d="M610.309,18.054c0,0.841-0.621,1.521-1.641,1.521c-0.961,0-1.58-0.68-1.58-1.521
							c0-0.86,0.639-1.521,1.619-1.521S610.287,17.193,610.309,18.054z M607.168,30.557v-9.782h3.039v9.782H607.168z"/>
						<path fill="#FFFFFF" d="M612.646,23.896c0-1.221-0.039-2.241-0.08-3.121h2.58l0.121,1.32h0.059
							c0.422-0.64,1.301-1.561,2.961-1.561c1.281,0,2.262,0.66,2.682,1.681h0.039c0.381-0.521,0.801-0.92,1.281-1.2
							c0.539-0.3,1.141-0.48,1.859-0.48c1.881,0,3.301,1.32,3.301,4.262v5.761h-2.961v-5.321c0-1.42-0.459-2.24-1.439-2.24
							c-0.721,0-1.201,0.48-1.42,1.061c-0.061,0.22-0.1,0.52-0.1,0.779v5.722h-2.961v-5.501c0-1.221-0.441-2.061-1.42-2.061
							c-0.781,0-1.24,0.6-1.422,1.08c-0.1,0.24-0.119,0.521-0.119,0.78v5.701h-2.961V23.896z"/>
						<path fill="#FFFFFF" d="M632.188,26.636c0.08,1.261,1.34,1.86,2.76,1.86c1.041,0,1.881-0.14,2.701-0.42l0.4,2.061
							c-1,0.42-2.221,0.62-3.541,0.62c-3.32,0-5.221-1.921-5.221-4.981c0-2.48,1.539-5.221,4.941-5.221
							c3.16,0,4.359,2.46,4.359,4.881c0,0.521-0.059,0.98-0.1,1.2H632.188z M635.768,24.556c0-0.74-0.32-1.98-1.721-1.98
							c-1.279,0-1.799,1.18-1.879,1.98H635.768z"/>
						<path fill="#FFFFFF" d="M640.406,23.896c0-1.221-0.039-2.241-0.08-3.121h2.641l0.141,1.36h0.059
							c0.4-0.64,1.381-1.58,3.021-1.58c2,0,3.5,1.34,3.5,4.221v5.781h-3.039v-5.421c0-1.261-0.441-2.121-1.541-2.121
							c-0.84,0-1.34,0.58-1.561,1.141c-0.08,0.2-0.1,0.48-0.1,0.76v5.642h-3.041V23.896z"/>
						<path fill="#FFFFFF" d="M655.406,18.134v2.641h2.182v2.24h-2.182v3.541c0,1.181,0.301,1.721,1.201,1.721
							c0.42,0,0.619-0.021,0.9-0.08l0.02,2.301c-0.381,0.14-1.121,0.26-1.961,0.26c-0.98,0-1.801-0.34-2.301-0.84
							c-0.559-0.581-0.84-1.521-0.84-2.901v-4.001h-1.301v-2.24h1.301v-1.82L655.406,18.134z"/>
						<path fill="#FFFFFF" d="M667.488,28.196c0,0.92,0.039,1.82,0.16,2.36h-2.742l-0.18-0.98h-0.061
							c-0.639,0.78-1.639,1.2-2.799,1.2c-1.98,0-3.162-1.44-3.162-3c0-2.541,2.281-3.741,5.742-3.741v-0.12
							c0-0.54-0.281-1.28-1.781-1.28c-1,0-2.061,0.34-2.699,0.74l-0.561-1.96c0.68-0.381,2.02-0.881,3.801-0.881
							c3.26,0,4.281,1.921,4.281,4.241V28.196z M664.547,25.936c-1.6,0-2.84,0.38-2.84,1.54c0,0.78,0.52,1.16,1.199,1.16
							c0.74,0,1.381-0.5,1.58-1.12c0.041-0.159,0.061-0.34,0.061-0.52V25.936z"/>
						<path fill="#FFFFFF" d="M677.246,30.297c-0.539,0.26-1.559,0.46-2.721,0.46c-3.16,0-5.18-1.94-5.18-5.001
							c0-2.861,1.959-5.201,5.602-5.201c0.799,0,1.68,0.14,2.32,0.38l-0.48,2.261c-0.361-0.16-0.9-0.301-1.701-0.301
							c-1.6,0-2.641,1.141-2.619,2.741c0,1.78,1.199,2.74,2.68,2.74c0.721,0,1.279-0.12,1.74-0.32L677.246,30.297z"/>
						<path fill="#FFFFFF" d="M682.066,18.054c0,0.841-0.621,1.521-1.641,1.521c-0.961,0-1.58-0.68-1.58-1.521
							c0-0.86,0.639-1.521,1.619-1.521S682.045,17.193,682.066,18.054z M678.926,30.557v-9.782h3.039v9.782H678.926z"/>
						<path fill="#FFFFFF" d="M694.066,25.556c0,3.581-2.541,5.221-5.16,5.221c-2.861,0-5.062-1.88-5.062-5.041
							c0-3.181,2.08-5.201,5.242-5.201C692.066,20.534,694.066,22.595,694.066,25.556z M686.984,25.655c0,1.681,0.701,2.941,2,2.941
							c1.201,0,1.941-1.181,1.941-2.961c0-1.44-0.561-2.921-1.941-2.921C687.545,22.715,686.984,24.215,686.984,25.655z
							 M692.127,16.514l-2.441,3.041h-2.08l1.721-3.041H692.127z"/>
						<path fill="#FFFFFF" d="M695.945,23.896c0-1.221-0.041-2.241-0.08-3.121h2.641l0.139,1.36h0.061
							c0.4-0.64,1.381-1.58,3.021-1.58c2,0,3.5,1.34,3.5,4.221v5.781h-3.041v-5.421c0-1.261-0.439-2.121-1.541-2.121
							c-0.84,0-1.34,0.58-1.559,1.141c-0.08,0.2-0.102,0.48-0.102,0.76v5.642h-3.039V23.896z"/>
						<path fill="#FFFFFF" d="M707.465,22.495c0-1.08,0.74-1.841,1.779-1.841c1.061,0,1.76,0.74,1.781,1.841
							c0,1.04-0.701,1.82-1.801,1.82C708.184,24.315,707.465,23.535,707.465,22.495z M707.465,28.956c0-1.08,0.74-1.84,1.779-1.84
							c1.061,0,1.76,0.74,1.781,1.84c0,1.04-0.701,1.82-1.801,1.82C708.184,30.776,707.465,29.996,707.465,28.956z"/>
						<path fill="#FFFFFF" d="M530.58,50.437c0.779,0.5,1.9,0.88,3.102,0.88c1.779,0,2.82-0.94,2.82-2.301
							c0-1.24-0.721-1.98-2.541-2.66c-2.201-0.801-3.561-1.961-3.561-3.841c0-2.101,1.74-3.661,4.361-3.661
							c1.359,0,2.379,0.32,2.959,0.66l-0.479,1.421c-0.42-0.261-1.32-0.641-2.541-0.641c-1.84,0-2.541,1.101-2.541,2.021
							c0,1.261,0.82,1.881,2.682,2.601c2.279,0.88,3.42,1.98,3.42,3.961c0,2.08-1.52,3.9-4.701,3.9c-1.301,0-2.721-0.399-3.441-0.88
							L530.58,50.437z"/>
						<path fill="#FFFFFF" d="M549.482,47.636c0,3.581-2.5,5.141-4.82,5.141c-2.602,0-4.643-1.92-4.643-4.98
							c0-3.221,2.141-5.121,4.803-5.121C547.602,42.675,549.482,44.695,549.482,47.636z M541.82,47.735
							c0,2.121,1.201,3.721,2.922,3.721c1.68,0,2.939-1.58,2.939-3.761c0-1.64-0.82-3.7-2.9-3.7
							C542.721,43.995,541.82,45.915,541.82,47.735z"/>
						<path fill="#FFFFFF" d="M551.699,38.354h1.762v14.203h-1.762V38.354z"/>
						<path fill="#FFFFFF" d="M558.381,40.154c0,0.6-0.42,1.08-1.121,1.08c-0.641,0-1.061-0.48-1.061-1.08
							c0-0.601,0.441-1.101,1.102-1.101C557.939,39.054,558.381,39.534,558.381,40.154z M556.42,52.557v-9.682h1.76v9.682H556.42z"
							/>
						<path fill="#FFFFFF" d="M568,52.217c-0.459,0.22-1.479,0.56-2.779,0.56c-2.922,0-4.822-1.98-4.822-4.94
							c0-2.98,2.041-5.161,5.201-5.161c1.041,0,1.961,0.26,2.441,0.52l-0.4,1.341c-0.42-0.221-1.08-0.46-2.041-0.46
							c-2.219,0-3.42,1.66-3.42,3.66c0,2.241,1.439,3.621,3.361,3.621c1,0,1.66-0.24,2.16-0.46L568,52.217z"/>
						<path fill="#FFFFFF" d="M572.02,40.154c0,0.6-0.42,1.08-1.119,1.08c-0.641,0-1.061-0.48-1.061-1.08
							c0-0.601,0.439-1.101,1.1-1.101C571.58,39.054,572.02,39.534,572.02,40.154z M570.059,52.557v-9.682h1.762v9.682H570.059z"/>
						<path fill="#FFFFFF" d="M576.859,40.554v2.321h2.521v1.34h-2.521v5.221c0,1.2,0.34,1.881,1.32,1.881
							c0.48,0,0.76-0.04,1.02-0.12l0.08,1.341c-0.34,0.119-0.879,0.239-1.559,0.239c-0.82,0-1.48-0.279-1.9-0.74
							c-0.48-0.54-0.682-1.4-0.682-2.54v-5.281h-1.5v-1.34h1.5v-1.801L576.859,40.554z"/>
						<path fill="#FFFFFF" d="M582.219,48.036c0.041,2.38,1.541,3.36,3.322,3.36c1.26,0,2.039-0.22,2.68-0.5l0.32,1.26
							c-0.621,0.28-1.701,0.62-3.24,0.62c-2.98,0-4.762-1.98-4.762-4.9c0-2.921,1.721-5.201,4.541-5.201c3.18,0,4,2.761,4,4.541
							c0,0.359-0.02,0.62-0.059,0.82H582.219z M587.381,46.775c0.02-1.101-0.461-2.841-2.441-2.841c-1.801,0-2.561,1.62-2.699,2.841
							H587.381z"/>
						<path fill="#FFFFFF" d="M602.301,50.236c0,0.84,0.039,1.66,0.139,2.32h-1.58l-0.139-1.221h-0.061
							c-0.541,0.761-1.58,1.44-2.961,1.44c-1.961,0-2.961-1.38-2.961-2.78c0-2.341,2.08-3.621,5.822-3.601v-0.2
							c0-0.78-0.221-2.24-2.201-2.221c-0.92,0-1.859,0.261-2.541,0.721l-0.4-1.181c0.801-0.5,1.98-0.84,3.201-0.84
							c2.961,0,3.682,2.021,3.682,3.94V50.236z M600.6,47.615c-1.92-0.04-4.1,0.301-4.1,2.181c0,1.16,0.76,1.681,1.639,1.681
							c1.281,0,2.102-0.801,2.381-1.62c0.061-0.2,0.08-0.4,0.08-0.561V47.615z"/>
						<path fill="#FFFFFF" d="M615.98,51.076h-0.041c-0.539,0.94-1.6,1.7-3.16,1.7c-2.26,0-4.102-1.94-4.102-4.881
							c0-3.641,2.342-5.221,4.381-5.221c1.502,0,2.502,0.74,2.982,1.66h0.039l0.061-1.46h1.66c-0.041,0.8-0.08,1.66-0.08,2.66
							v10.982h-1.74V51.076z M615.98,46.796c0-0.24-0.02-0.501-0.08-0.721c-0.281-1.08-1.201-2-2.521-2c-1.82,0-2.92,1.54-2.92,3.7
							c0,1.94,0.92,3.601,2.861,3.601c1.139,0,2.119-0.7,2.52-1.9c0.08-0.26,0.141-0.6,0.141-0.859V46.796z"/>
						<path fill="#FFFFFF" d="M628.74,49.896c0,1.02,0.02,1.9,0.08,2.66h-1.561l-0.1-1.58h-0.041c-0.439,0.78-1.48,1.8-3.199,1.8
							c-1.521,0-3.342-0.859-3.342-4.24v-5.661h1.762v5.341c0,1.84,0.58,3.101,2.16,3.101c1.18,0,2-0.82,2.32-1.62
							c0.1-0.24,0.16-0.561,0.16-0.9v-5.921h1.76V49.896z"/>
						<path fill="#FFFFFF" d="M633.619,40.154c0,0.6-0.42,1.08-1.121,1.08c-0.641,0-1.061-0.48-1.061-1.08
							c0-0.601,0.441-1.101,1.102-1.101C633.178,39.054,633.619,39.534,633.619,40.154z M631.658,52.557v-9.682h1.76v9.682H631.658z
							"/>
						<path fill="#FFFFFF" d="M637.318,48.036c0.039,2.38,1.539,3.36,3.32,3.36c1.26,0,2.041-0.22,2.68-0.5l0.32,1.26
							c-0.619,0.28-1.699,0.62-3.24,0.62c-2.98,0-4.762-1.98-4.762-4.9c0-2.921,1.721-5.201,4.541-5.201
							c3.182,0,4.002,2.761,4.002,4.541c0,0.359-0.02,0.62-0.061,0.82H637.318z M642.479,46.775
							c0.021-1.101-0.459-2.841-2.439-2.841c-1.801,0-2.561,1.62-2.701,2.841H642.479z"/>
						<path fill="#FFFFFF" d="M646.357,45.495c0-1.021-0.02-1.82-0.08-2.62h1.561l0.1,1.6h0.041c0.479-0.899,1.6-1.8,3.199-1.8
							c1.342,0,3.422,0.8,3.422,4.121v5.761h-1.762v-5.581c0-1.561-0.58-2.86-2.24-2.86c-1.141,0-2.039,0.819-2.359,1.8
							c-0.08,0.221-0.121,0.521-0.121,0.82v5.821h-1.76V45.495z"/>
						<path fill="#FFFFFF" d="M668.498,50.236c0,0.84,0.041,1.66,0.141,2.32h-1.58l-0.141-1.221h-0.061
							c-0.539,0.761-1.58,1.44-2.959,1.44c-1.961,0-2.961-1.38-2.961-2.78c0-2.341,2.08-3.621,5.82-3.601v-0.2
							c0-0.78-0.219-2.24-2.199-2.221c-0.922,0-1.861,0.261-2.541,0.721l-0.4-1.181c0.801-0.5,1.98-0.84,3.201-0.84
							c2.961,0,3.68,2.021,3.68,3.94V50.236z M666.799,47.615c-1.922-0.04-4.102,0.301-4.102,2.181c0,1.16,0.76,1.681,1.641,1.681
							c1.279,0,2.1-0.801,2.381-1.62c0.059-0.2,0.08-0.4,0.08-0.561V47.615z"/>
						<path fill="#FFFFFF" d="M673.377,40.554v2.321h2.521v1.34h-2.521v5.221c0,1.2,0.34,1.881,1.32,1.881
							c0.48,0,0.76-0.04,1.02-0.12l0.08,1.341c-0.34,0.119-0.879,0.239-1.559,0.239c-0.82,0-1.48-0.279-1.9-0.74
							c-0.48-0.54-0.682-1.4-0.682-2.54v-5.281h-1.5v-1.34h1.5v-1.801L673.377,40.554z"/>
						<path fill="#FFFFFF" d="M679.838,40.154c0,0.6-0.42,1.08-1.121,1.08c-0.641,0-1.061-0.48-1.061-1.08
							c0-0.601,0.441-1.101,1.102-1.101C679.396,39.054,679.838,39.534,679.838,40.154z M677.877,52.557v-9.682h1.76v9.682H677.877z
							"/>
						<path fill="#FFFFFF" d="M683.537,48.036c0.039,2.38,1.539,3.36,3.32,3.36c1.26,0,2.041-0.22,2.68-0.5l0.32,1.26
							c-0.619,0.28-1.699,0.62-3.24,0.62c-2.98,0-4.762-1.98-4.762-4.9c0-2.921,1.721-5.201,4.541-5.201
							c3.182,0,4.002,2.761,4.002,4.541c0,0.359-0.02,0.62-0.061,0.82H683.537z M688.697,46.775
							c0.021-1.101-0.459-2.841-2.439-2.841c-1.801,0-2.561,1.62-2.701,2.841H688.697z"/>
						<path fill="#FFFFFF" d="M692.576,45.495c0-1.021-0.02-1.82-0.08-2.62h1.561l0.1,1.6h0.041c0.479-0.899,1.6-1.8,3.199-1.8
							c1.342,0,3.422,0.8,3.422,4.121v5.761h-1.762v-5.581c0-1.561-0.58-2.86-2.24-2.86c-1.141,0-2.039,0.819-2.359,1.8
							c-0.08,0.221-0.121,0.521-0.121,0.82v5.821h-1.76V45.495z"/>
						<path fill="#FFFFFF" d="M712.018,38.354v11.702c0,0.86,0.039,1.841,0.08,2.501h-1.561l-0.08-1.681h-0.061
							c-0.52,1.08-1.68,1.9-3.26,1.9c-2.342,0-4.162-1.98-4.162-4.921c-0.02-3.221,2.002-5.181,4.342-5.181
							c1.5,0,2.48,0.7,2.92,1.46h0.041v-5.781H712.018z M710.277,46.815c0-0.22-0.02-0.521-0.08-0.74
							c-0.26-1.101-1.221-2.021-2.541-2.021c-1.82,0-2.9,1.601-2.9,3.721c0,1.961,0.98,3.581,2.861,3.581
							c1.18,0,2.26-0.8,2.58-2.101c0.061-0.24,0.08-0.48,0.08-0.76V46.815z"/>
						<path fill="#FFFFFF" d="M715.936,48.036c0.041,2.38,1.541,3.36,3.322,3.36c1.26,0,2.039-0.22,2.68-0.5l0.32,1.26
							c-0.621,0.28-1.701,0.62-3.24,0.62c-2.98,0-4.762-1.98-4.762-4.9c0-2.921,1.721-5.201,4.541-5.201c3.18,0,4,2.761,4,4.541
							c0,0.359-0.02,0.62-0.059,0.82H715.936z M721.098,46.775c0.02-1.101-0.461-2.841-2.441-2.841c-1.801,0-2.561,1.62-2.699,2.841
							H721.098z"/>
						<path fill="#FFFFFF" d="M535.861,73.076h-0.041c-0.539,0.94-1.6,1.7-3.16,1.7c-2.26,0-4.102-1.94-4.102-4.881
							c0-3.641,2.342-5.221,4.381-5.221c1.502,0,2.502,0.74,2.982,1.66h0.039l0.061-1.46h1.66c-0.041,0.8-0.08,1.66-0.08,2.66
							v10.982h-1.74V73.076z M535.861,68.796c0-0.24-0.02-0.501-0.08-0.721c-0.281-1.08-1.201-2-2.521-2c-1.82,0-2.92,1.54-2.92,3.7
							c0,1.94,0.92,3.601,2.861,3.601c1.139,0,2.119-0.7,2.52-1.9c0.08-0.26,0.141-0.6,0.141-0.859V68.796z"/>
						<path fill="#FFFFFF" d="M548.621,71.896c0,1.02,0.02,1.9,0.08,2.66h-1.561l-0.1-1.58H547c-0.439,0.78-1.48,1.8-3.199,1.8
							c-1.521,0-3.342-0.859-3.342-4.24v-5.661h1.762v5.341c0,1.84,0.58,3.101,2.16,3.101c1.18,0,2-0.82,2.32-1.62
							c0.1-0.24,0.16-0.561,0.16-0.9v-5.921h1.76V71.896z"/>
						<path fill="#FFFFFF" d="M552.52,70.036c0.039,2.38,1.539,3.36,3.32,3.36c1.26,0,2.041-0.22,2.68-0.5l0.32,1.26
							c-0.619,0.28-1.699,0.62-3.24,0.62c-2.98,0-4.762-1.98-4.762-4.9c0-2.921,1.721-5.201,4.541-5.201
							c3.182,0,4.002,2.761,4.002,4.541c0,0.359-0.02,0.62-0.061,0.82H552.52z M557.68,68.775c0.021-1.101-0.459-2.841-2.439-2.841
							c-1.801,0-2.561,1.62-2.701,2.841H557.68z"/>
						<path fill="#FFFFFF" d="M566.779,70.036c0.039,2.38,1.539,3.36,3.32,3.36c1.26,0,2.041-0.22,2.68-0.5l0.32,1.26
							c-0.619,0.28-1.699,0.62-3.24,0.62c-2.98,0-4.762-1.98-4.762-4.9c0-2.921,1.721-5.201,4.541-5.201
							c3.182,0,4.002,2.761,4.002,4.541c0,0.359-0.02,0.62-0.061,0.82H566.779z M571.939,68.775
							c0.021-1.101-0.459-2.841-2.439-2.841c-1.801,0-2.561,1.62-2.701,2.841H571.939z"/>
						<path fill="#FFFFFF" d="M575.578,72.776c0.541,0.32,1.461,0.68,2.34,0.68c1.262,0,1.861-0.62,1.861-1.44
							c0-0.84-0.5-1.28-1.781-1.76c-1.76-0.641-2.58-1.58-2.58-2.741c0-1.56,1.281-2.84,3.342-2.84c0.979,0,1.84,0.26,2.359,0.6
							l-0.42,1.28c-0.381-0.24-1.08-0.58-1.98-0.58c-1.041,0-1.6,0.601-1.6,1.32c0,0.801,0.559,1.16,1.82,1.66
							c1.66,0.62,2.539,1.461,2.539,2.901c0,1.72-1.34,2.92-3.6,2.92c-1.061,0-2.041-0.279-2.721-0.68L575.578,72.776z"/>
						<path fill="#FFFFFF" d="M583.738,68.035c0-1.24-0.041-2.24-0.08-3.16h1.561l0.1,1.66h0.041c0.699-1.181,1.859-1.86,3.439-1.86
							c2.361,0,4.121,1.98,4.121,4.9c0,3.481-2.141,5.201-4.42,5.201c-1.281,0-2.4-0.56-2.982-1.52h-0.039v5.261h-1.74V68.035z
							 M585.479,70.616c0,0.26,0.02,0.5,0.08,0.72c0.32,1.221,1.381,2.061,2.641,2.061c1.859,0,2.941-1.521,2.941-3.741
							c0-1.92-1.021-3.58-2.881-3.58c-1.201,0-2.342,0.84-2.662,2.16c-0.059,0.22-0.119,0.48-0.119,0.7V70.616z"/>
						<path fill="#FFFFFF" d="M596.098,70.036c0.041,2.38,1.541,3.36,3.322,3.36c1.26,0,2.039-0.22,2.68-0.5l0.32,1.26
							c-0.621,0.28-1.701,0.62-3.24,0.62c-2.98,0-4.762-1.98-4.762-4.9c0-2.921,1.721-5.201,4.541-5.201c3.18,0,4,2.761,4,4.541
							c0,0.359-0.02,0.62-0.059,0.82H596.098z M601.26,68.775c0.02-1.101-0.461-2.841-2.441-2.841c-1.801,0-2.561,1.62-2.699,2.841
							H601.26z"/>
						<path fill="#FFFFFF" d="M612.039,74.217c-0.461,0.22-1.48,0.56-2.781,0.56c-2.92,0-4.82-1.98-4.82-4.94
							c0-2.98,2.041-5.161,5.201-5.161c1.041,0,1.961,0.26,2.439,0.52l-0.398,1.341c-0.42-0.221-1.08-0.46-2.041-0.46
							c-2.221,0-3.42,1.66-3.42,3.66c0,2.241,1.439,3.621,3.359,3.621c1,0,1.66-0.24,2.16-0.46L612.039,74.217z"/>
						<path fill="#FFFFFF" d="M616.059,62.154c0,0.6-0.42,1.08-1.121,1.08c-0.641,0-1.061-0.48-1.061-1.08
							c0-0.601,0.441-1.101,1.102-1.101C615.617,61.054,616.059,61.534,616.059,62.154z M614.098,74.557v-9.682h1.76v9.682H614.098z
							"/>
						<path fill="#FFFFFF" d="M618.957,74.557v-8.342h-1.34v-1.34h1.34v-0.541c0-2.54,1.5-4.2,4.221-4.2
							c0.9,0,1.961,0.28,2.461,0.64l-0.5,1.341c-0.439-0.301-1.18-0.561-2.041-0.561c-1.859,0-2.4,1.301-2.4,2.841v0.48h5.621v9.682
							h-1.76v-8.342h-3.861v8.342H618.957z"/>
						<path fill="#FFFFFF" d="M635.838,73.076h-0.039c-0.541,0.94-1.602,1.7-3.16,1.7c-2.262,0-4.102-1.94-4.102-4.881
							c0-3.641,2.34-5.221,4.381-5.221c1.5,0,2.5,0.74,2.98,1.66h0.041l0.059-1.46h1.66c-0.039,0.8-0.08,1.66-0.08,2.66v10.982
							h-1.74V73.076z M635.838,68.796c0-0.24-0.02-0.501-0.08-0.721c-0.279-1.08-1.199-2-2.52-2c-1.82,0-2.92,1.54-2.92,3.7
							c0,1.94,0.92,3.601,2.859,3.601c1.141,0,2.121-0.7,2.521-1.9c0.08-0.26,0.139-0.6,0.139-0.859V68.796z"/>
						<path fill="#FFFFFF" d="M648.6,71.896c0,1.02,0.02,1.9,0.078,2.66h-1.559l-0.102-1.58h-0.039c-0.439,0.78-1.48,1.8-3.201,1.8
							c-1.52,0-3.34-0.859-3.34-4.24v-5.661h1.76v5.341c0,1.84,0.58,3.101,2.16,3.101c1.18,0,2-0.82,2.32-1.62
							c0.1-0.24,0.16-0.561,0.16-0.9v-5.921h1.762V71.896z"/>
						<path fill="#FFFFFF" d="M652.496,70.036c0.041,2.38,1.541,3.36,3.322,3.36c1.26,0,2.039-0.22,2.68-0.5l0.32,1.26
							c-0.621,0.28-1.701,0.62-3.24,0.62c-2.98,0-4.762-1.98-4.762-4.9c0-2.921,1.721-5.201,4.541-5.201c3.18,0,4,2.761,4,4.541
							c0,0.359-0.02,0.62-0.059,0.82H652.496z M657.658,68.775c0.02-1.101-0.461-2.841-2.441-2.841c-1.801,0-2.561,1.62-2.699,2.841
							H657.658z"/>
						<path fill="#FFFFFF" d="M669.576,60.674c-1.459,1.98-2.5,4.561-2.5,8.201c0,3.562,1.1,6.102,2.5,8.103h-1.359
							c-1.26-1.661-2.621-4.222-2.621-8.122c0.02-3.921,1.361-6.501,2.621-8.182H669.576z"/>
						<path fill="#FFFFFF" d="M678.258,72.236c0,0.84,0.039,1.66,0.139,2.32h-1.58l-0.139-1.221h-0.061
							c-0.541,0.761-1.58,1.44-2.961,1.44c-1.961,0-2.961-1.38-2.961-2.78c0-2.341,2.08-3.621,5.822-3.601v-0.2
							c0-0.78-0.221-2.24-2.201-2.221c-0.92,0-1.859,0.261-2.541,0.721l-0.4-1.181c0.801-0.5,1.98-0.84,3.201-0.84
							c2.961,0,3.682,2.021,3.682,3.94V72.236z M676.557,69.615c-1.92-0.04-4.1,0.301-4.1,2.181c0,1.16,0.76,1.681,1.639,1.681
							c1.281,0,2.102-0.801,2.381-1.62c0.061-0.2,0.08-0.4,0.08-0.561V69.615z"/>
						<path fill="#FFFFFF" d="M687.996,74.217c-0.459,0.22-1.479,0.56-2.779,0.56c-2.922,0-4.822-1.98-4.822-4.94
							c0-2.98,2.041-5.161,5.201-5.161c1.041,0,1.961,0.26,2.441,0.52l-0.4,1.341c-0.42-0.221-1.08-0.46-2.041-0.46
							c-2.219,0-3.42,1.66-3.42,3.66c0,2.241,1.439,3.621,3.361,3.621c1,0,1.66-0.24,2.16-0.46L687.996,74.217z"/>
						<path fill="#FFFFFF" d="M690.055,60.354h1.762v14.203h-1.762V60.354z"/>
						<path fill="#FFFFFF" d="M701.576,72.236c0,0.84,0.041,1.66,0.141,2.32h-1.58l-0.141-1.221h-0.061
							c-0.539,0.761-1.58,1.44-2.959,1.44c-1.961,0-2.961-1.38-2.961-2.78c0-2.341,2.08-3.621,5.82-3.601v-0.2
							c0-0.78-0.219-2.24-2.199-2.221c-0.922,0-1.861,0.261-2.541,0.721l-0.4-1.181c0.801-0.5,1.98-0.84,3.201-0.84
							c2.961,0,3.68,2.021,3.68,3.94V72.236z M699.877,69.615c-1.922-0.04-4.102,0.301-4.102,2.181c0,1.16,0.76,1.681,1.641,1.681
							c1.279,0,2.1-0.801,2.381-1.62c0.059-0.2,0.08-0.4,0.08-0.561V69.615z"/>
						<path fill="#FFFFFF" d="M704.414,67.896c0-1.141-0.02-2.121-0.08-3.021h1.541l0.08,1.92h0.061c0.439-1.3,1.52-2.12,2.701-2.12
							c0.18,0,0.318,0.02,0.479,0.04v1.66c-0.18-0.04-0.359-0.04-0.6-0.04c-1.24,0-2.121,0.92-2.361,2.24
							c-0.039,0.24-0.059,0.54-0.059,0.82v5.161h-1.762V67.896z"/>
						<path fill="#FFFFFF" d="M711.734,70.036c0.041,2.38,1.541,3.36,3.322,3.36c1.26,0,2.039-0.22,2.68-0.5l0.32,1.26
							c-0.621,0.28-1.701,0.62-3.24,0.62c-2.98,0-4.762-1.98-4.762-4.9c0-2.921,1.721-5.201,4.541-5.201c3.18,0,4,2.761,4,4.541
							c0,0.359-0.02,0.62-0.059,0.82H711.734z M716.896,68.775c0.02-1.101-0.461-2.841-2.441-2.841c-1.801,0-2.561,1.62-2.699,2.841
							H716.896z"/>
						<path fill="#FFFFFF" d="M719.715,76.978c1.4-1.98,2.5-4.562,2.5-8.162s-1.08-6.142-2.5-8.142h1.359
							c1.26,1.641,2.621,4.221,2.621,8.142c-0.02,3.921-1.361,6.481-2.621,8.162H719.715z"/>
						<path fill="#FFFFFF" d="M522.31,92.036c0.04,2.38,1.54,3.36,3.321,3.36c1.26,0,2.039-0.22,2.68-0.5l0.32,1.26
							c-0.619,0.28-1.701,0.62-3.24,0.62c-2.98,0-4.762-1.98-4.762-4.9c0-2.921,1.721-5.201,4.541-5.201
							c3.182,0,4.002,2.761,4.002,4.541c0,0.359-0.021,0.62-0.061,0.82H522.31z M527.471,90.775c0.02-1.101-0.461-2.841-2.441-2.841
							c-1.799,0-2.56,1.62-2.699,2.841H527.471z"/>
						<path fill="#FFFFFF" d="M531.35,82.354h1.76v14.203h-1.76V82.354z"/>
						<path fill="#FFFFFF" d="M540.07,94.776c0.539,0.32,1.459,0.68,2.34,0.68c1.26,0,1.859-0.62,1.859-1.44
							c0-0.84-0.5-1.28-1.779-1.76c-1.76-0.641-2.58-1.58-2.58-2.741c0-1.56,1.279-2.84,3.34-2.84c0.98,0,1.84,0.26,2.361,0.6
							l-0.42,1.28c-0.381-0.24-1.082-0.58-1.98-0.58c-1.041,0-1.602,0.601-1.602,1.32c0,0.801,0.561,1.16,1.82,1.66
							c1.66,0.62,2.541,1.461,2.541,2.901c0,1.72-1.34,2.92-3.602,2.92c-1.059,0-2.039-0.279-2.721-0.68L540.07,94.776z"/>
						<path fill="#FFFFFF" d="M550.189,84.154c0,0.6-0.42,1.08-1.119,1.08c-0.641,0-1.061-0.48-1.061-1.08
							c0-0.601,0.439-1.101,1.1-1.101C549.75,83.054,550.189,83.534,550.189,84.154z M548.229,96.557v-9.682h1.762v9.682H548.229z"
							/>
						<path fill="#FFFFFF" d="M561.191,95.137c0,2.24-0.461,3.58-1.381,4.44c-0.961,0.86-2.32,1.16-3.541,1.16
							c-1.16,0-2.439-0.28-3.221-0.8l0.439-1.36c0.641,0.42,1.641,0.78,2.842,0.78c1.801,0,3.121-0.94,3.121-3.401v-1.06h-0.041
							c-0.52,0.9-1.58,1.62-3.08,1.62c-2.4,0-4.121-2.04-4.121-4.721c0-3.281,2.141-5.121,4.381-5.121c1.68,0,2.58,0.86,3.021,1.66
							h0.039l0.061-1.46h1.561c-0.061,0.68-0.08,1.479-0.08,2.64V95.137z M559.43,90.695c0-0.3-0.02-0.56-0.1-0.78
							c-0.32-1.04-1.16-1.88-2.461-1.88c-1.68,0-2.879,1.42-2.879,3.66c0,1.9,0.979,3.481,2.859,3.481c1.1,0,2.08-0.681,2.441-1.801
							c0.1-0.3,0.139-0.641,0.139-0.94V90.695z"/>
						<path fill="#FFFFFF" d="M563.969,89.495c0-1.021-0.02-1.82-0.08-2.62h1.561l0.1,1.6h0.041c0.479-0.899,1.6-1.8,3.199-1.8
							c1.342,0,3.422,0.8,3.422,4.121v5.761h-1.762v-5.581c0-1.561-0.58-2.86-2.24-2.86c-1.141,0-2.039,0.819-2.359,1.8
							c-0.08,0.221-0.121,0.521-0.121,0.82v5.821h-1.76V89.495z"/>
						<path fill="#FFFFFF" d="M577.029,84.154c0,0.6-0.42,1.08-1.121,1.08c-0.641,0-1.061-0.48-1.061-1.08
							c0-0.601,0.441-1.101,1.102-1.101C576.588,83.054,577.029,83.534,577.029,84.154z M575.068,96.557v-9.682h1.76v9.682H575.068z
							"/>
						<path fill="#FFFFFF" d="M579.928,96.557v-8.342h-1.34v-1.34h1.34v-0.541c0-2.54,1.5-4.2,4.221-4.2
							c0.9,0,1.961,0.28,2.461,0.64l-0.5,1.341c-0.439-0.301-1.18-0.561-2.041-0.561c-1.859,0-2.4,1.301-2.4,2.841v0.48h5.621v9.682
							h-1.76v-8.342h-3.861v8.342H579.928z"/>
						<path fill="#FFFFFF" d="M597.109,96.217c-0.461,0.22-1.48,0.56-2.781,0.56c-2.92,0-4.82-1.98-4.82-4.94
							c0-2.98,2.041-5.161,5.201-5.161c1.041,0,1.961,0.26,2.439,0.52l-0.398,1.341c-0.42-0.221-1.08-0.46-2.041-0.46
							c-2.221,0-3.42,1.66-3.42,3.66c0,2.241,1.439,3.621,3.359,3.621c1,0,1.66-0.24,2.16-0.46L597.109,96.217z"/>
						<path fill="#FFFFFF" d="M605.969,94.236c0,0.84,0.041,1.66,0.141,2.32h-1.58l-0.141-1.221h-0.061
							c-0.539,0.761-1.58,1.44-2.959,1.44c-1.961,0-2.961-1.38-2.961-2.78c0-2.341,2.08-3.621,5.82-3.601v-0.2
							c0-0.78-0.219-2.24-2.199-2.221c-0.922,0-1.861,0.261-2.541,0.721l-0.4-1.181c0.801-0.5,1.98-0.84,3.201-0.84
							c2.961,0,3.68,2.021,3.68,3.94V94.236z M604.27,91.615c-1.922-0.04-4.102,0.301-4.102,2.181c0,1.16,0.76,1.681,1.641,1.681
							c1.279,0,2.1-0.801,2.381-1.62c0.059-0.2,0.08-0.4,0.08-0.561V91.615z"/>
						<path fill="#FFFFFF" d="M617.148,82.354v11.702c0,0.86,0.041,1.841,0.08,2.501h-1.559l-0.08-1.681h-0.061
							c-0.52,1.08-1.682,1.9-3.262,1.9c-2.34,0-4.16-1.98-4.16-4.921c-0.02-3.221,2-5.181,4.342-5.181c1.5,0,2.48,0.7,2.92,1.46
							h0.039v-5.781H617.148z M615.408,90.815c0-0.22-0.02-0.521-0.08-0.74c-0.26-1.101-1.219-2.021-2.539-2.021
							c-1.82,0-2.9,1.601-2.9,3.721c0,1.961,0.979,3.581,2.859,3.581c1.18,0,2.262-0.8,2.58-2.101c0.061-0.24,0.08-0.48,0.08-0.76
							V90.815z"/>
						<path fill="#FFFFFF" d="M628.85,91.636c0,3.581-2.5,5.141-4.82,5.141c-2.602,0-4.643-1.92-4.643-4.98
							c0-3.221,2.141-5.121,4.803-5.121C626.969,86.675,628.85,88.695,628.85,91.636z M621.188,91.735
							c0,2.121,1.201,3.721,2.922,3.721c1.68,0,2.939-1.58,2.939-3.761c0-1.64-0.82-3.7-2.9-3.7
							C622.088,87.995,621.188,89.915,621.188,91.735z"/>
						<path fill="#FFFFFF" d="M636.287,92.036c0.041,2.38,1.541,3.36,3.322,3.36c1.26,0,2.039-0.22,2.68-0.5l0.32,1.26
							c-0.621,0.28-1.701,0.62-3.24,0.62c-2.98,0-4.762-1.98-4.762-4.9c0-2.921,1.721-5.201,4.541-5.201c3.18,0,4,2.761,4,4.541
							c0,0.359-0.02,0.62-0.059,0.82H636.287z M641.449,90.775c0.02-1.101-0.461-2.841-2.441-2.841c-1.801,0-2.561,1.62-2.699,2.841
							H641.449z"/>
						<path fill="#FFFFFF" d="M645.326,89.495c0-1.021-0.02-1.82-0.08-2.62h1.561l0.102,1.6h0.039c0.48-0.899,1.6-1.8,3.201-1.8
							c1.34,0,3.42,0.8,3.42,4.121v5.761h-1.76v-5.581c0-1.561-0.58-2.86-2.24-2.86c-1.141,0-2.041,0.819-2.361,1.8
							c-0.08,0.221-0.119,0.521-0.119,0.82v5.821h-1.762V89.495z"/>
						<path fill="#FFFFFF" d="M667.568,96.217c-0.461,0.22-1.48,0.56-2.781,0.56c-2.92,0-4.82-1.98-4.82-4.94
							c0-2.98,2.041-5.161,5.201-5.161c1.041,0,1.961,0.26,2.439,0.52l-0.398,1.341c-0.42-0.221-1.08-0.46-2.041-0.46
							c-2.221,0-3.42,1.66-3.42,3.66c0,2.241,1.439,3.621,3.359,3.621c1,0,1.66-0.24,2.16-0.46L667.568,96.217z"/>
						<path fill="#FFFFFF" d="M678.27,91.636c0,3.581-2.502,5.141-4.822,5.141c-2.6,0-4.641-1.92-4.641-4.98
							c0-3.221,2.141-5.121,4.801-5.121C676.389,86.675,678.27,88.695,678.27,91.636z M670.607,91.735
							c0,2.121,1.199,3.721,2.92,3.721c1.68,0,2.941-1.58,2.941-3.761c0-1.64-0.82-3.7-2.9-3.7
							C671.508,87.995,670.607,89.915,670.607,91.735z"/>
						<path fill="#FFFFFF" d="M680.486,89.495c0-1.021-0.02-1.82-0.08-2.62h1.561l0.1,1.6h0.041c0.479-0.899,1.6-1.8,3.199-1.8
							c1.342,0,3.422,0.8,3.422,4.121v5.761h-1.762v-5.581c0-1.561-0.58-2.86-2.24-2.86c-1.141,0-2.039,0.819-2.359,1.8
							c-0.08,0.221-0.121,0.521-0.121,0.82v5.821h-1.76V89.495z"/>
						<path fill="#FFFFFF" d="M698.486,96.217c-0.459,0.22-1.479,0.56-2.779,0.56c-2.922,0-4.822-1.98-4.822-4.94
							c0-2.98,2.041-5.161,5.201-5.161c1.041,0,1.961,0.26,2.441,0.52l-0.4,1.341c-0.42-0.221-1.08-0.46-2.041-0.46
							c-2.219,0-3.42,1.66-3.42,3.66c0,2.241,1.439,3.621,3.361,3.621c1,0,1.66-0.24,2.16-0.46L698.486,96.217z"/>
						<path fill="#FFFFFF" d="M700.545,89.896c0-1.141-0.02-2.121-0.08-3.021h1.541l0.08,1.92h0.061c0.439-1.3,1.52-2.12,2.701-2.12
							c0.18,0,0.318,0.02,0.479,0.04v1.66c-0.18-0.04-0.359-0.04-0.6-0.04c-1.24,0-2.121,0.92-2.361,2.24
							c-0.039,0.24-0.059,0.54-0.059,0.82v5.161h-1.762V89.896z"/>
						<path fill="#FFFFFF" d="M707.867,92.036c0.039,2.38,1.539,3.36,3.32,3.36c1.26,0,2.041-0.22,2.68-0.5l0.32,1.26
							c-0.619,0.28-1.699,0.62-3.24,0.62c-2.98,0-4.762-1.98-4.762-4.9c0-2.921,1.721-5.201,4.541-5.201
							c3.182,0,4.002,2.761,4.002,4.541c0,0.359-0.02,0.62-0.061,0.82H707.867z M713.027,90.775
							c0.021-1.101-0.459-2.841-2.439-2.841c-1.801,0-2.561,1.62-2.701,2.841H713.027z"/>
						<path fill="#FFFFFF" d="M719.027,84.554v2.321h2.52v1.34h-2.52v5.221c0,1.2,0.34,1.881,1.32,1.881
							c0.479,0,0.76-0.04,1.02-0.12l0.08,1.341c-0.34,0.119-0.881,0.239-1.561,0.239c-0.82,0-1.48-0.279-1.9-0.74
							c-0.48-0.54-0.68-1.4-0.68-2.54v-5.281h-1.5v-1.34h1.5v-1.801L719.027,84.554z"/>
						<path fill="#FFFFFF" d="M732.168,91.636c0,3.581-2.5,5.141-4.82,5.141c-2.602,0-4.643-1.92-4.643-4.98
							c0-3.221,2.141-5.121,4.803-5.121C730.287,86.675,732.168,88.695,732.168,91.636z M724.506,91.735
							c0,2.121,1.201,3.721,2.922,3.721c1.68,0,2.939-1.58,2.939-3.761c0-1.64-0.82-3.7-2.9-3.7
							C725.406,87.995,724.506,89.915,724.506,91.735z"/>
						<path fill="#FFFFFF" d="M540.451,104.354v11.702c0,0.86,0.041,1.841,0.08,2.501h-1.559l-0.08-1.681h-0.061
							c-0.52,1.08-1.682,1.9-3.262,1.9c-2.34,0-4.16-1.98-4.16-4.921c-0.02-3.221,2-5.181,4.342-5.181c1.5,0,2.48,0.7,2.92,1.46
							h0.039v-5.781H540.451z M538.711,112.815c0-0.22-0.02-0.521-0.08-0.74c-0.26-1.101-1.219-2.021-2.539-2.021
							c-1.82,0-2.9,1.601-2.9,3.721c0,1.961,0.979,3.581,2.859,3.581c1.18,0,2.262-0.8,2.58-2.101c0.061-0.24,0.08-0.48,0.08-0.76
							V112.815z"/>
						<path fill="#FFFFFF" d="M544.371,114.036c0.039,2.38,1.539,3.36,3.32,3.36c1.26,0,2.041-0.22,2.68-0.5l0.32,1.26
							c-0.619,0.28-1.699,0.62-3.24,0.62c-2.98,0-4.762-1.98-4.762-4.9c0-2.921,1.721-5.201,4.541-5.201
							c3.182,0,4.002,2.761,4.002,4.541c0,0.359-0.02,0.62-0.061,0.82H544.371z M549.531,112.775
							c0.021-1.101-0.459-2.841-2.439-2.841c-1.801,0-2.561,1.62-2.701,2.841H549.531z"/>
						<path fill="#FFFFFF" d="M565.752,115.896c0,1.02,0.02,1.9,0.08,2.66h-1.561l-0.1-1.58h-0.041c-0.439,0.78-1.48,1.8-3.199,1.8
							c-1.521,0-3.342-0.859-3.342-4.24v-5.661h1.762v5.341c0,1.84,0.58,3.101,2.16,3.101c1.18,0,2-0.82,2.32-1.62
							c0.1-0.24,0.16-0.561,0.16-0.9v-5.921h1.76V115.896z"/>
						<path fill="#FFFFFF" d="M568.67,111.495c0-1.021-0.02-1.82-0.08-2.62h1.561l0.1,1.6h0.041c0.479-0.899,1.6-1.8,3.199-1.8
							c1.342,0,3.422,0.8,3.422,4.121v5.761h-1.762v-5.581c0-1.561-0.58-2.86-2.24-2.86c-1.141,0-2.039,0.819-2.359,1.8
							c-0.08,0.221-0.121,0.521-0.121,0.82v5.821h-1.76V111.495z"/>
						<path fill="#FFFFFF" d="M586.57,116.236c0,0.84,0.041,1.66,0.141,2.32h-1.58l-0.141-1.221h-0.061
							c-0.539,0.761-1.58,1.44-2.959,1.44c-1.961,0-2.961-1.38-2.961-2.78c0-2.341,2.08-3.621,5.82-3.601v-0.2
							c0-0.78-0.219-2.24-2.199-2.221c-0.922,0-1.861,0.261-2.541,0.721l-0.4-1.181c0.801-0.5,1.98-0.84,3.201-0.84
							c2.961,0,3.68,2.021,3.68,3.94V116.236z M584.871,113.615c-1.922-0.04-4.102,0.301-4.102,2.181c0,1.16,0.76,1.681,1.641,1.681
							c1.279,0,2.1-0.801,2.381-1.62c0.059-0.2,0.08-0.4,0.08-0.561V113.615z"/>
						<path fill="#FFFFFF" d="M593.648,112.035c0-1.24-0.039-2.24-0.08-3.16h1.561l0.102,1.66h0.039
							c0.701-1.181,1.861-1.86,3.441-1.86c2.359,0,4.121,1.98,4.121,4.9c0,3.481-2.141,5.201-4.422,5.201
							c-1.279,0-2.4-0.56-2.98-1.52h-0.039v5.261h-1.742V112.035z M595.391,114.616c0,0.26,0.02,0.5,0.078,0.72
							c0.32,1.221,1.381,2.061,2.641,2.061c1.861,0,2.941-1.521,2.941-3.741c0-1.92-1.02-3.58-2.881-3.58
							c-1.199,0-2.34,0.84-2.66,2.16c-0.061,0.22-0.119,0.48-0.119,0.7V114.616z"/>
						<path fill="#FFFFFF" d="M611.83,116.236c0,0.84,0.041,1.66,0.141,2.32h-1.58l-0.141-1.221h-0.061
							c-0.539,0.761-1.58,1.44-2.959,1.44c-1.961,0-2.961-1.38-2.961-2.78c0-2.341,2.08-3.621,5.82-3.601v-0.2
							c0-0.78-0.219-2.24-2.199-2.221c-0.922,0-1.861,0.261-2.541,0.721l-0.4-1.181c0.801-0.5,1.98-0.84,3.201-0.84
							c2.961,0,3.68,2.021,3.68,3.94V116.236z M610.131,113.615c-1.922-0.04-4.102,0.301-4.102,2.181c0,1.16,0.76,1.681,1.641,1.681
							c1.279,0,2.1-0.801,2.381-1.62c0.059-0.2,0.08-0.4,0.08-0.561V113.615z"/>
						<path fill="#FFFFFF" d="M614.668,104.354h1.762v14.203h-1.762V104.354z"/>
						<path fill="#FFFFFF" d="M626.189,116.236c0,0.84,0.041,1.66,0.141,2.32h-1.58l-0.141-1.221h-0.061
							c-0.539,0.761-1.58,1.44-2.959,1.44c-1.961,0-2.961-1.38-2.961-2.78c0-2.341,2.08-3.621,5.82-3.601v-0.2
							c0-0.78-0.219-2.24-2.199-2.221c-0.922,0-1.861,0.261-2.541,0.721l-0.4-1.181c0.801-0.5,1.98-0.84,3.201-0.84
							c2.961,0,3.68,2.021,3.68,3.94V116.236z M624.49,113.615c-1.922-0.04-4.102,0.301-4.102,2.181c0,1.16,0.76,1.681,1.641,1.681
							c1.279,0,2.1-0.801,2.381-1.62c0.059-0.2,0.08-0.4,0.08-0.561V113.615z"/>
						<path fill="#FFFFFF" d="M629.027,104.354h1.742v6.081h0.039c0.619-1.08,1.74-1.76,3.301-1.76c2.42,0,4.102,2,4.102,4.921
							c0,3.461-2.201,5.181-4.361,5.181c-1.4,0-2.521-0.54-3.262-1.8h-0.039l-0.1,1.58h-1.502c0.041-0.66,0.08-1.641,0.08-2.501
							V104.354z M630.77,114.676c0,0.22,0.02,0.44,0.078,0.641c0.32,1.22,1.361,2.06,2.641,2.06c1.861,0,2.941-1.5,2.941-3.721
							c0-1.94-1-3.601-2.9-3.601c-1.18,0-2.301,0.84-2.66,2.16c-0.061,0.221-0.1,0.461-0.1,0.74V114.676z"/>
						<path fill="#FFFFFF" d="M640.408,111.896c0-1.141-0.02-2.121-0.08-3.021h1.541l0.08,1.92h0.059
							c0.441-1.3,1.521-2.12,2.701-2.12c0.18,0,0.32,0.02,0.48,0.04v1.66c-0.18-0.04-0.361-0.04-0.6-0.04
							c-1.24,0-2.121,0.92-2.361,2.24c-0.041,0.24-0.061,0.54-0.061,0.82v5.161h-1.76V111.896z"/>
						<path fill="#FFFFFF" d="M653.65,116.236c0,0.84,0.039,1.66,0.139,2.32h-1.58l-0.139-1.221h-0.061
							c-0.541,0.761-1.58,1.44-2.961,1.44c-1.961,0-2.961-1.38-2.961-2.78c0-2.341,2.08-3.621,5.822-3.601v-0.2
							c0-0.78-0.221-2.24-2.201-2.221c-0.92,0-1.859,0.261-2.541,0.721l-0.4-1.181c0.801-0.5,1.98-0.84,3.201-0.84
							c2.961,0,3.682,2.021,3.682,3.94V116.236z M651.949,113.615c-1.92-0.04-4.1,0.301-4.1,2.181c0,1.16,0.76,1.681,1.639,1.681
							c1.281,0,2.102-0.801,2.381-1.62c0.061-0.2,0.08-0.4,0.08-0.561V113.615z"/>
						<path fill="#FFFFFF" d="M669.49,113.636c0,3.581-2.5,5.141-4.82,5.141c-2.602,0-4.643-1.92-4.643-4.98
							c0-3.221,2.141-5.121,4.803-5.121C667.609,108.675,669.49,110.695,669.49,113.636z M661.828,113.735
							c0,2.121,1.201,3.721,2.922,3.721c1.68,0,2.939-1.58,2.939-3.761c0-1.64-0.82-3.7-2.9-3.7
							C662.729,109.995,661.828,111.915,661.828,113.735z"/>
						<path fill="#FFFFFF" d="M682.75,116.236c0,0.84,0.039,1.66,0.139,2.32h-1.58l-0.139-1.221h-0.061
							c-0.541,0.761-1.58,1.44-2.961,1.44c-1.961,0-2.961-1.38-2.961-2.78c0-2.341,2.08-3.621,5.822-3.601v-0.2
							c0-0.78-0.221-2.24-2.201-2.221c-0.92,0-1.859,0.261-2.541,0.721l-0.4-1.181c0.801-0.5,1.98-0.84,3.201-0.84
							c2.961,0,3.682,2.021,3.682,3.94V116.236z M681.049,113.615c-1.92-0.04-4.1,0.301-4.1,2.181c0,1.16,0.76,1.681,1.639,1.681
							c1.281,0,2.102-0.801,2.381-1.62c0.061-0.2,0.08-0.4,0.08-0.561V113.615z"/>
						<path fill="#FFFFFF" d="M685.588,104.354h1.76v14.203h-1.76V104.354z"/>
						<path fill="#FFFFFF" d="M698.59,117.137c0,2.24-0.461,3.58-1.381,4.44c-0.961,0.86-2.32,1.16-3.541,1.16
							c-1.16,0-2.439-0.28-3.221-0.8l0.439-1.36c0.641,0.42,1.641,0.78,2.842,0.78c1.801,0,3.121-0.94,3.121-3.401v-1.06h-0.041
							c-0.52,0.9-1.58,1.62-3.08,1.62c-2.4,0-4.121-2.04-4.121-4.721c0-3.281,2.141-5.121,4.381-5.121c1.68,0,2.58,0.86,3.021,1.66
							h0.039l0.061-1.46h1.561c-0.061,0.68-0.08,1.479-0.08,2.64V117.137z M696.828,112.695c0-0.3-0.02-0.56-0.1-0.78
							c-0.32-1.04-1.16-1.88-2.461-1.88c-1.68,0-2.879,1.42-2.879,3.66c0,1.9,0.979,3.481,2.859,3.481c1.1,0,2.08-0.681,2.441-1.801
							c0.1-0.3,0.139-0.641,0.139-0.94V112.695z"/>
						<path fill="#FFFFFF" d="M709.59,115.896c0,1.02,0.02,1.9,0.078,2.66h-1.559l-0.102-1.58h-0.039
							c-0.439,0.78-1.48,1.8-3.201,1.8c-1.52,0-3.34-0.859-3.34-4.24v-5.661h1.76v5.341c0,1.84,0.58,3.101,2.16,3.101
							c1.18,0,2-0.82,2.32-1.62c0.1-0.24,0.16-0.561,0.16-0.9v-5.921h1.762V115.896z M708.369,104.693l-2.441,2.861h-1.24
							l1.76-2.861H708.369z"/>
						<path fill="#FFFFFF" d="M712.506,111.495c0-1.021-0.02-1.82-0.08-2.62h1.561l0.102,1.6h0.039c0.48-0.899,1.6-1.8,3.201-1.8
							c1.34,0,3.42,0.8,3.42,4.121v5.761h-1.76v-5.581c0-1.561-0.58-2.86-2.24-2.86c-1.141,0-2.041,0.819-2.361,1.8
							c-0.08,0.221-0.119,0.521-0.119,0.82v5.821h-1.762V111.495z"/>
						<path fill="#FFFFFF" d="M533.701,138.236c0,0.84,0.041,1.66,0.141,2.32h-1.58l-0.141-1.221h-0.061
							c-0.539,0.761-1.58,1.44-2.959,1.44c-1.961,0-2.961-1.38-2.961-2.78c0-2.341,2.08-3.621,5.82-3.601v-0.2
							c0-0.78-0.219-2.24-2.199-2.221c-0.922,0-1.861,0.261-2.541,0.721l-0.4-1.181c0.801-0.5,1.98-0.84,3.201-0.84
							c2.961,0,3.68,2.021,3.68,3.94V138.236z M532.002,135.615c-1.922-0.04-4.102,0.301-4.102,2.181c0,1.16,0.76,1.681,1.641,1.681
							c1.279,0,2.1-0.801,2.381-1.62c0.059-0.2,0.08-0.4,0.08-0.561V135.615z"/>
						<path fill="#FFFFFF" d="M536.301,138.776c0.539,0.32,1.459,0.68,2.34,0.68c1.26,0,1.859-0.62,1.859-1.44
							c0-0.84-0.5-1.28-1.779-1.76c-1.76-0.641-2.58-1.58-2.58-2.741c0-1.56,1.279-2.84,3.34-2.84c0.98,0,1.84,0.26,2.361,0.6
							l-0.42,1.28c-0.381-0.24-1.082-0.58-1.98-0.58c-1.041,0-1.602,0.601-1.602,1.32c0,0.801,0.561,1.16,1.82,1.66
							c1.66,0.62,2.541,1.461,2.541,2.901c0,1.72-1.34,2.92-3.602,2.92c-1.059,0-2.039-0.279-2.721-0.68L536.301,138.776z"/>
						<path fill="#FFFFFF" d="M544.459,134.035c0-1.24-0.039-2.24-0.08-3.16h1.561l0.102,1.66h0.039
							c0.701-1.181,1.861-1.86,3.441-1.86c2.359,0,4.121,1.98,4.121,4.9c0,3.481-2.141,5.201-4.422,5.201
							c-1.279,0-2.4-0.56-2.98-1.52h-0.039v5.261h-1.742V134.035z M546.201,136.616c0,0.26,0.02,0.5,0.078,0.72
							c0.32,1.221,1.381,2.061,2.641,2.061c1.861,0,2.941-1.521,2.941-3.741c0-1.92-1.02-3.58-2.881-3.58
							c-1.199,0-2.34,0.84-2.66,2.16c-0.061,0.22-0.119,0.48-0.119,0.7V136.616z"/>
						<path fill="#FFFFFF" d="M556.82,136.036c0.039,2.38,1.539,3.36,3.32,3.36c1.26,0,2.041-0.22,2.68-0.5l0.32,1.26
							c-0.619,0.28-1.699,0.62-3.24,0.62c-2.98,0-4.762-1.98-4.762-4.9c0-2.921,1.721-5.201,4.541-5.201
							c3.182,0,4.002,2.761,4.002,4.541c0,0.359-0.02,0.62-0.061,0.82H556.82z M561.98,134.775c0.021-1.101-0.459-2.841-2.439-2.841
							c-1.801,0-2.561,1.62-2.701,2.841H561.98z"/>
						<path fill="#FFFFFF" d="M572.76,140.217c-0.459,0.22-1.479,0.56-2.779,0.56c-2.922,0-4.822-1.98-4.822-4.94
							c0-2.98,2.041-5.161,5.201-5.161c1.041,0,1.961,0.26,2.441,0.52l-0.4,1.341c-0.42-0.221-1.08-0.46-2.041-0.46
							c-2.219,0-3.42,1.66-3.42,3.66c0,2.241,1.439,3.621,3.361,3.621c1,0,1.66-0.24,2.16-0.46L572.76,140.217z"/>
						<path fill="#FFFFFF" d="M577.199,128.554v2.321h2.521v1.34h-2.521v5.221c0,1.2,0.34,1.881,1.32,1.881
							c0.48,0,0.76-0.04,1.02-0.12l0.08,1.341c-0.34,0.119-0.879,0.239-1.559,0.239c-0.82,0-1.48-0.279-1.9-0.74
							c-0.48-0.54-0.682-1.4-0.682-2.54v-5.281h-1.5v-1.34h1.5v-1.801L577.199,128.554z"/>
						<path fill="#FFFFFF" d="M590.342,135.636c0,3.581-2.502,5.141-4.822,5.141c-2.6,0-4.641-1.92-4.641-4.98
							c0-3.221,2.141-5.121,4.801-5.121C588.461,130.675,590.342,132.695,590.342,135.636z M582.68,135.735
							c0,2.121,1.199,3.721,2.92,3.721c1.68,0,2.941-1.58,2.941-3.761c0-1.64-0.82-3.7-2.9-3.7
							C583.58,131.995,582.68,133.915,582.68,135.735z"/>
						<path fill="#FFFFFF" d="M605.141,126.354v11.702c0,0.86,0.039,1.841,0.08,2.501h-1.561l-0.08-1.681h-0.061
							c-0.52,1.08-1.68,1.9-3.26,1.9c-2.342,0-4.162-1.98-4.162-4.921c-0.02-3.221,2.002-5.181,4.342-5.181
							c1.5,0,2.48,0.7,2.92,1.46h0.041v-5.781H605.141z M603.4,134.815c0-0.22-0.02-0.521-0.08-0.74
							c-0.26-1.101-1.221-2.021-2.541-2.021c-1.82,0-2.9,1.601-2.9,3.721c0,1.961,0.98,3.581,2.861,3.581
							c1.18,0,2.26-0.8,2.58-2.101c0.061-0.24,0.08-0.48,0.08-0.76V134.815z"/>
						<path fill="#FFFFFF" d="M609.059,136.036c0.041,2.38,1.541,3.36,3.322,3.36c1.26,0,2.039-0.22,2.68-0.5l0.32,1.26
							c-0.621,0.28-1.701,0.62-3.24,0.62c-2.98,0-4.762-1.98-4.762-4.9c0-2.921,1.721-5.201,4.541-5.201c3.18,0,4,2.761,4,4.541
							c0,0.359-0.02,0.62-0.059,0.82H609.059z M614.221,134.775c0.02-1.101-0.461-2.841-2.441-2.841
							c-1.801,0-2.561,1.62-2.699,2.841H614.221z"/>
						<path fill="#FFFFFF" d="M622.1,138.776c0.539,0.32,1.459,0.68,2.34,0.68c1.26,0,1.859-0.62,1.859-1.44
							c0-0.84-0.5-1.28-1.779-1.76c-1.76-0.641-2.58-1.58-2.58-2.741c0-1.56,1.279-2.84,3.34-2.84c0.98,0,1.84,0.26,2.361,0.6
							l-0.42,1.28c-0.381-0.24-1.082-0.58-1.98-0.58c-1.041,0-1.602,0.601-1.602,1.32c0,0.801,0.561,1.16,1.82,1.66
							c1.66,0.62,2.541,1.461,2.541,2.901c0,1.72-1.34,2.92-3.602,2.92c-1.059,0-2.039-0.279-2.721-0.68L622.1,138.776z"/>
						<path fill="#FFFFFF" d="M638.361,137.896c0,1.02,0.02,1.9,0.078,2.66h-1.559l-0.102-1.58h-0.039
							c-0.439,0.78-1.48,1.8-3.201,1.8c-1.52,0-3.34-0.859-3.34-4.24v-5.661h1.76v5.341c0,1.84,0.58,3.101,2.16,3.101
							c1.18,0,2-0.82,2.32-1.62c0.1-0.24,0.16-0.561,0.16-0.9v-5.921h1.762V137.896z"/>
						<path fill="#FFFFFF" d="M645.518,133.495c0-1.021-0.02-1.82-0.08-2.62h1.561l0.102,1.6h0.039c0.48-0.899,1.6-1.8,3.201-1.8
							c1.34,0,3.42,0.8,3.42,4.121v5.761H652v-5.581c0-1.561-0.58-2.86-2.24-2.86c-1.141,0-2.041,0.819-2.361,1.8
							c-0.08,0.221-0.119,0.521-0.119,0.82v5.821h-1.762V133.495z"/>
						<path fill="#FFFFFF" d="M663.42,138.236c0,0.84,0.039,1.66,0.139,2.32h-1.58l-0.139-1.221h-0.061
							c-0.541,0.761-1.58,1.44-2.961,1.44c-1.961,0-2.961-1.38-2.961-2.78c0-2.341,2.08-3.621,5.822-3.601v-0.2
							c0-0.78-0.221-2.24-2.201-2.221c-0.92,0-1.859,0.261-2.541,0.721l-0.4-1.181c0.801-0.5,1.98-0.84,3.201-0.84
							c2.961,0,3.682,2.021,3.682,3.94V138.236z M661.719,135.615c-1.92-0.04-4.1,0.301-4.1,2.181c0,1.16,0.76,1.681,1.639,1.681
							c1.281,0,2.102-0.801,2.381-1.62c0.061-0.2,0.08-0.4,0.08-0.561V135.615z"/>
						<path fill="#FFFFFF" d="M666.258,133.896c0-1.141-0.02-2.121-0.08-3.021h1.541l0.08,1.92h0.059
							c0.441-1.3,1.521-2.12,2.701-2.12c0.18,0,0.32,0.02,0.48,0.04v1.66c-0.18-0.04-0.361-0.04-0.6-0.04
							c-1.24,0-2.121,0.92-2.361,2.24c-0.041,0.24-0.061,0.54-0.061,0.82v5.161h-1.76V133.896z"/>
						<path fill="#FFFFFF" d="M672.877,133.896c0-1.141-0.02-2.121-0.08-3.021h1.541l0.08,1.92h0.061
							c0.439-1.3,1.52-2.12,2.701-2.12c0.18,0,0.318,0.02,0.479,0.04v1.66c-0.18-0.04-0.359-0.04-0.6-0.04
							c-1.24,0-2.121,0.92-2.361,2.24c-0.039,0.24-0.059,0.54-0.059,0.82v5.161h-1.762V133.896z"/>
						<path fill="#FFFFFF" d="M686.119,138.236c0,0.84,0.041,1.66,0.141,2.32h-1.58l-0.141-1.221h-0.061
							c-0.539,0.761-1.58,1.44-2.959,1.44c-1.961,0-2.961-1.38-2.961-2.78c0-2.341,2.08-3.621,5.82-3.601v-0.2
							c0-0.78-0.219-2.24-2.199-2.221c-0.922,0-1.861,0.261-2.541,0.721l-0.4-1.181c0.801-0.5,1.98-0.84,3.201-0.84
							c2.961,0,3.68,2.021,3.68,3.94V138.236z M684.42,135.615c-1.922-0.04-4.102,0.301-4.102,2.181c0,1.16,0.76,1.681,1.641,1.681
							c1.279,0,2.1-0.801,2.381-1.62c0.059-0.2,0.08-0.4,0.08-0.561V135.615z"/>
						<path fill="#FFFFFF" d="M695.859,140.217c-0.461,0.22-1.48,0.56-2.781,0.56c-2.92,0-4.82-1.98-4.82-4.94
							c0-2.98,2.041-5.161,5.201-5.161c1.041,0,1.961,0.26,2.439,0.52l-0.398,1.341c-0.42-0.221-1.08-0.46-2.041-0.46
							c-2.221,0-3.42,1.66-3.42,3.66c0,2.241,1.439,3.621,3.359,3.621c1,0,1.66-0.24,2.16-0.46L695.859,140.217z"/>
						<path fill="#FFFFFF" d="M699.879,128.154c0,0.6-0.42,1.08-1.121,1.08c-0.641,0-1.061-0.48-1.061-1.08
							c0-0.601,0.441-1.101,1.102-1.101C699.438,127.054,699.879,127.534,699.879,128.154z M697.918,140.557v-9.682h1.76v9.682
							H697.918z"/>
						<path fill="#FFFFFF" d="M711.359,135.636c0,3.581-2.5,5.141-4.82,5.141c-2.602,0-4.643-1.92-4.643-4.98
							c0-3.221,2.141-5.121,4.803-5.121C709.479,130.675,711.359,132.695,711.359,135.636z M703.697,135.735
							c0,2.121,1.201,3.721,2.922,3.721c1.68,0,2.939-1.58,2.939-3.761c0-1.64-0.82-3.7-2.9-3.7
							C704.598,131.995,703.697,133.915,703.697,135.735z M709.26,126.693l-2.441,2.861h-1.24l1.74-2.861H709.26z"/>
						<path fill="#FFFFFF" d="M713.576,133.495c0-1.021-0.02-1.82-0.08-2.62h1.561l0.102,1.6h0.039c0.48-0.899,1.6-1.8,3.201-1.8
							c1.34,0,3.42,0.8,3.42,4.121v5.761h-1.76v-5.581c0-1.561-0.58-2.86-2.24-2.86c-1.141,0-2.041,0.819-2.361,1.8
							c-0.08,0.221-0.119,0.521-0.119,0.82v5.821h-1.762V133.495z"/>
						<path fill="#FFFFFF" d="M724.256,139.517c0-0.721,0.5-1.261,1.201-1.261c0.699,0,1.18,0.521,1.18,1.261
							c0,0.72-0.48,1.26-1.221,1.26C724.736,140.776,724.256,140.236,724.256,139.517z"/>
					</g>
				</g>
			</g>
		</g>
		<path fill="none" stroke="#A2B735" stroke-width="5" stroke-miterlimit="10" stroke-dasharray="4" d="M524.93,101.01
			c0,0-3.344,25.696-27.518,27.685c-17.734,1.459-27.516,0.196-27.516,0.196"/>
	</g>
</g>
</svg>
