<?xml version="1.0" encoding="utf-8"?>
<!-- Generator: Adobe Illustrator 16.0.0, SVG Export Plug-In . SVG Version: 6.00 Build 0)  -->
<!DOCTYPE svg PUBLIC "-//W3C//DTD SVG 1.1//EN" "http://www.w3.org/Graphics/SVG/1.1/DTD/svg11.dtd">
<svg version="1.1" id="Capa_1" xmlns="http://www.w3.org/2000/svg" xmlns:xlink="http://www.w3.org/1999/xlink" x="0px" y="0px"
	 width="703.866px" height="124.835px" viewBox="0 0 703.866 124.835" enable-background="new 0 0 703.866 124.835"
	 xml:space="preserve">
<g>
	<g>
		<g>
			<g>
				<path fill-rule="evenodd" clip-rule="evenodd" fill="#C15921" d="M703.866,97.191c0,6.376-5.169,11.543-11.543,11.543H503.838
					c-6.374,0-11.543-5.167-11.543-11.543V11.542C492.295,5.167,497.464,0,503.838,0h188.485c6.374,0,11.543,5.167,11.543,11.542
					V97.191z"/>
				<g>
					<g>
						<path fill="#FFFFFF" d="M521.543,19.703c0.894-0.146,2.207-0.255,3.702-0.255c1.823,0,3.1,0.273,3.975,0.966
							c0.748,0.584,1.149,1.459,1.149,2.59c0,1.55-1.112,2.626-2.17,3.009v0.055c0.856,0.346,1.331,1.148,1.641,2.279
							c0.383,1.403,0.748,3.009,0.984,3.482h-2.844c-0.183-0.364-0.493-1.35-0.839-2.862c-0.347-1.551-0.876-1.951-2.024-1.97h-0.82
							v4.832h-2.754V19.703z M524.297,24.991h1.094c1.386,0,2.206-0.692,2.206-1.769c0-1.112-0.766-1.696-2.042-1.696
							c-0.675,0-1.058,0.037-1.258,0.092V24.991z"/>
						<path fill="#FFFFFF" d="M534.401,28.255c0.072,1.149,1.222,1.696,2.516,1.696c0.948,0,1.714-0.128,2.462-0.383l0.364,1.878
							c-0.911,0.383-2.023,0.565-3.227,0.565c-3.027,0-4.76-1.751-4.76-4.541c0-2.261,1.404-4.759,4.504-4.759
							c2.881,0,3.976,2.243,3.976,4.449c0,0.474-0.055,0.894-0.092,1.094H534.401z M537.665,26.358c0-0.674-0.292-1.805-1.568-1.805
							c-1.167,0-1.641,1.076-1.714,1.805H537.665z"/>
						<path fill="#FFFFFF" d="M544.997,20.506v2.406h1.987v2.043h-1.987v3.228c0,1.075,0.273,1.567,1.095,1.567
							c0.383,0,0.564-0.018,0.82-0.072l0.018,2.097c-0.346,0.128-1.021,0.237-1.786,0.237c-0.894,0-1.642-0.311-2.098-0.766
							c-0.51-0.529-0.766-1.387-0.766-2.645v-3.646h-1.186v-2.043h1.186v-1.659L544.997,20.506z"/>
						<path fill="#FFFFFF" d="M548.591,25.849c0-1.313-0.019-2.17-0.073-2.937h2.371l0.109,1.642h0.072
							c0.456-1.312,1.532-1.86,2.407-1.86c0.255,0,0.383,0.019,0.584,0.055v2.607c-0.22-0.036-0.438-0.072-0.748-0.072
							c-1.021,0-1.714,0.547-1.896,1.404c-0.036,0.182-0.055,0.4-0.055,0.619v4.522h-2.771V25.849z"/>
						<path fill="#FFFFFF" d="M564.183,27.271c0,3.264-2.315,4.759-4.704,4.759c-2.607,0-4.613-1.714-4.613-4.595
							c0-2.899,1.896-4.741,4.777-4.741C562.359,22.693,564.183,24.572,564.183,27.271z M557.729,27.361
							c0,1.532,0.638,2.681,1.823,2.681c1.094,0,1.769-1.075,1.769-2.698c0-1.313-0.511-2.662-1.769-2.662
							C558.238,24.682,557.729,26.049,557.729,27.361z"/>
						<path fill="#FFFFFF" d="M573.32,29.678c0,0.839,0.037,1.659,0.146,2.151h-2.498l-0.164-0.894h-0.055
							c-0.584,0.711-1.495,1.094-2.553,1.094c-1.806,0-2.882-1.312-2.882-2.734c0-2.316,2.079-3.41,5.233-3.41v-0.109
							c0-0.492-0.255-1.167-1.622-1.167c-0.912,0-1.879,0.31-2.462,0.675l-0.511-1.787c0.62-0.347,1.842-0.803,3.465-0.803
							c2.972,0,3.901,1.751,3.901,3.866V29.678z M570.641,27.617c-1.459,0-2.59,0.347-2.59,1.404c0,0.711,0.475,1.057,1.095,1.057
							c0.674,0,1.258-0.455,1.44-1.021c0.036-0.146,0.055-0.311,0.055-0.475V27.617z"/>
						<path fill="#FFFFFF" d="M575.529,18.883h2.771v12.946h-2.771V18.883z"/>
						<path fill="#FFFFFF" d="M583.407,20.433c0,0.766-0.564,1.386-1.495,1.386c-0.875,0-1.44-0.62-1.44-1.386
							c0-0.784,0.584-1.386,1.478-1.386S583.39,19.648,583.407,20.433z M580.545,31.829v-8.917h2.771v8.917H580.545z"/>
						<path fill="#FFFFFF" d="M585.542,25.757c0-1.112-0.036-2.042-0.073-2.845h2.353l0.109,1.204h0.055
							c0.383-0.584,1.186-1.423,2.698-1.423c1.167,0,2.061,0.603,2.443,1.532h0.037c0.347-0.475,0.729-0.839,1.167-1.094
							c0.492-0.274,1.039-0.438,1.695-0.438c1.714,0,3.009,1.204,3.009,3.885v5.251h-2.698v-4.851c0-1.294-0.42-2.042-1.313-2.042
							c-0.656,0-1.094,0.438-1.294,0.967c-0.055,0.2-0.092,0.474-0.092,0.711v5.215h-2.698v-5.015c0-1.112-0.401-1.878-1.295-1.878
							c-0.711,0-1.13,0.547-1.295,0.984c-0.091,0.219-0.109,0.475-0.109,0.712v5.196h-2.698V25.757z"/>
						<path fill="#FFFFFF" d="M603.361,28.255c0.072,1.149,1.222,1.696,2.516,1.696c0.948,0,1.714-0.128,2.462-0.383l0.364,1.878
							c-0.911,0.383-2.023,0.565-3.227,0.565c-3.027,0-4.76-1.751-4.76-4.541c0-2.261,1.404-4.759,4.504-4.759
							c2.881,0,3.976,2.243,3.976,4.449c0,0.474-0.055,0.894-0.092,1.094H603.361z M606.625,26.358c0-0.674-0.292-1.805-1.568-1.805
							c-1.167,0-1.641,1.076-1.714,1.805H606.625z"/>
						<path fill="#FFFFFF" d="M610.857,25.757c0-1.112-0.036-2.042-0.073-2.845h2.407l0.128,1.24h0.055
							c0.364-0.583,1.258-1.44,2.753-1.44c1.823,0,3.191,1.222,3.191,3.848v5.27h-2.771v-4.941c0-1.148-0.401-1.933-1.404-1.933
							c-0.766,0-1.222,0.528-1.423,1.039c-0.072,0.183-0.091,0.438-0.091,0.693v5.142h-2.771V25.757z"/>
						<path fill="#FFFFFF" d="M624.535,20.506v2.406h1.987v2.043h-1.987v3.228c0,1.075,0.273,1.567,1.095,1.567
							c0.383,0,0.564-0.018,0.82-0.072l0.018,2.097c-0.346,0.128-1.021,0.237-1.786,0.237c-0.894,0-1.642-0.311-2.098-0.766
							c-0.511-0.529-0.766-1.387-0.766-2.645v-3.646h-1.186v-2.043h1.186v-1.659L624.535,20.506z"/>
						<path fill="#FFFFFF" d="M635.55,29.678c0,0.839,0.037,1.659,0.146,2.151h-2.498l-0.164-0.894h-0.055
							c-0.584,0.711-1.495,1.094-2.553,1.094c-1.806,0-2.882-1.312-2.882-2.734c0-2.316,2.079-3.41,5.233-3.41v-0.109
							c0-0.492-0.255-1.167-1.622-1.167c-0.912,0-1.879,0.31-2.462,0.675l-0.511-1.787c0.62-0.347,1.842-0.803,3.465-0.803
							c2.972,0,3.901,1.751,3.901,3.866V29.678z M632.87,27.617c-1.459,0-2.59,0.347-2.59,1.404c0,0.711,0.475,1.057,1.095,1.057
							c0.674,0,1.258-0.455,1.44-1.021c0.036-0.146,0.055-0.311,0.055-0.475V27.617z"/>
						<path fill="#FFFFFF" d="M644.451,31.592c-0.493,0.237-1.423,0.42-2.48,0.42c-2.881,0-4.723-1.769-4.723-4.559
							c0-2.607,1.787-4.741,5.105-4.741c0.729,0,1.532,0.128,2.115,0.347l-0.438,2.061c-0.328-0.146-0.82-0.273-1.55-0.273
							c-1.459,0-2.407,1.039-2.389,2.498c0,1.623,1.094,2.498,2.443,2.498c0.656,0,1.167-0.109,1.586-0.292L644.451,31.592z"/>
						<path fill="#FFFFFF" d="M648.847,20.433c0,0.766-0.564,1.386-1.495,1.386c-0.875,0-1.44-0.62-1.44-1.386
							c0-0.784,0.584-1.386,1.478-1.386S648.829,19.648,648.847,20.433z M645.984,31.829v-8.917h2.771v8.917H645.984z"/>
						<path fill="#FFFFFF" d="M659.788,27.271c0,3.264-2.315,4.759-4.704,4.759c-2.607,0-4.613-1.714-4.613-4.595
							c0-2.899,1.896-4.741,4.777-4.741C657.965,22.693,659.788,24.572,659.788,27.271z M653.334,27.361
							c0,1.532,0.638,2.681,1.823,2.681c1.094,0,1.769-1.075,1.769-2.698c0-1.313-0.511-2.662-1.769-2.662
							C653.844,24.682,653.334,26.049,653.334,27.361z M658.02,19.028l-2.225,2.771h-1.896l1.568-2.771H658.02z"/>
						<path fill="#FFFFFF" d="M661.505,25.757c0-1.112-0.036-2.042-0.073-2.845h2.407l0.128,1.24h0.055
							c0.364-0.583,1.258-1.44,2.753-1.44c1.823,0,3.191,1.222,3.191,3.848v5.27h-2.771v-4.941c0-1.148-0.401-1.933-1.404-1.933
							c-0.766,0-1.222,0.528-1.423,1.039c-0.072,0.183-0.091,0.438-0.091,0.693v5.142h-2.771V25.757z"/>
						<path fill="#FFFFFF" d="M672.01,24.48c0-0.984,0.675-1.678,1.623-1.678c0.967,0,1.604,0.675,1.623,1.678
							c0,0.948-0.639,1.659-1.642,1.659C672.666,26.14,672.01,25.429,672.01,24.48z M672.01,30.37c0-0.984,0.675-1.678,1.623-1.678
							c0.967,0,1.604,0.675,1.623,1.678c0,0.948-0.639,1.659-1.642,1.659C672.666,32.029,672.01,31.318,672.01,30.37z"/>
						<path fill="#FFFFFF" d="M524.717,39.766c0.803-0.146,1.97-0.255,3.045-0.255c1.696,0,2.809,0.328,3.556,1.003
							c0.602,0.547,0.967,1.386,0.967,2.352c0,1.605-1.021,2.681-2.298,3.118v0.055c0.931,0.328,1.495,1.204,1.787,2.48
							c0.401,1.714,0.693,2.899,0.948,3.373h-1.641c-0.201-0.364-0.475-1.404-0.803-2.936c-0.364-1.696-1.039-2.334-2.479-2.389
							h-1.495v5.324h-1.587V39.766z M526.304,45.363h1.622c1.696,0,2.771-0.93,2.771-2.334c0-1.586-1.148-2.279-2.826-2.279
							c-0.766,0-1.294,0.055-1.567,0.128V45.363z"/>
						<path fill="#FFFFFF" d="M535.441,47.771c0.036,2.17,1.404,3.063,3.026,3.063c1.149,0,1.86-0.2,2.444-0.456l0.291,1.149
							c-0.565,0.255-1.55,0.564-2.954,0.564c-2.717,0-4.339-1.805-4.339-4.467s1.567-4.741,4.139-4.741
							c2.899,0,3.646,2.517,3.646,4.14c0,0.328-0.018,0.564-0.055,0.747H535.441z M540.146,46.622
							c0.019-1.003-0.419-2.59-2.225-2.59c-1.641,0-2.334,1.478-2.461,2.59H540.146z"/>
						<path fill="#FFFFFF" d="M549.977,51.582c-0.42,0.2-1.35,0.51-2.535,0.51c-2.662,0-4.394-1.805-4.394-4.504
							c0-2.717,1.859-4.704,4.74-4.704c0.948,0,1.787,0.237,2.225,0.475l-0.364,1.222c-0.383-0.201-0.985-0.42-1.86-0.42
							c-2.023,0-3.118,1.514-3.118,3.337c0,2.042,1.313,3.301,3.063,3.301c0.912,0,1.514-0.219,1.97-0.42L549.977,51.582z"/>
						<path fill="#FFFFFF" d="M559.241,49.467c0,0.93,0.019,1.731,0.073,2.425h-1.423l-0.091-1.44h-0.036
							c-0.401,0.711-1.35,1.641-2.918,1.641c-1.386,0-3.045-0.783-3.045-3.865v-5.16h1.604v4.868c0,1.678,0.529,2.826,1.97,2.826
							c1.075,0,1.823-0.747,2.115-1.477c0.091-0.219,0.146-0.511,0.146-0.82v-5.397h1.604V49.467z"/>
						<path fill="#FFFFFF" d="M562.8,47.771c0.036,2.17,1.404,3.063,3.027,3.063c1.148,0,1.859-0.2,2.443-0.456l0.291,1.149
							c-0.565,0.255-1.55,0.564-2.954,0.564c-2.717,0-4.339-1.805-4.339-4.467s1.567-4.741,4.139-4.741
							c2.899,0,3.646,2.517,3.646,4.14c0,0.328-0.018,0.564-0.055,0.747H562.8z M567.504,46.622c0.019-1.003-0.419-2.59-2.225-2.59
							c-1.641,0-2.334,1.478-2.461,2.59H567.504z"/>
						<path fill="#FFFFFF" d="M571.044,45.819c0-1.039-0.019-1.933-0.073-2.753h1.404l0.073,1.75h0.055
							c0.401-1.185,1.386-1.933,2.461-1.933c0.165,0,0.292,0.019,0.438,0.036v1.514c-0.164-0.036-0.328-0.036-0.548-0.036
							c-1.13,0-1.933,0.839-2.151,2.042c-0.036,0.219-0.055,0.492-0.055,0.748v4.704h-1.604V45.819z"/>
						<path fill="#FFFFFF" d="M584.429,38.945v10.667c0,0.784,0.037,1.678,0.073,2.279h-1.423l-0.072-1.531h-0.055
							c-0.475,0.984-1.532,1.731-2.973,1.731c-2.133,0-3.792-1.805-3.792-4.485c-0.019-2.936,1.823-4.723,3.956-4.723
							c1.368,0,2.262,0.639,2.662,1.331h0.037v-5.27H584.429z M582.843,46.658c0-0.2-0.019-0.474-0.073-0.675
							c-0.237-1.003-1.112-1.842-2.315-1.842c-1.659,0-2.645,1.459-2.645,3.392c0,1.787,0.894,3.265,2.607,3.265
							c1.076,0,2.061-0.729,2.353-1.915c0.055-0.219,0.073-0.438,0.073-0.692V46.658z"/>
						<path fill="#FFFFFF" d="M588.005,47.771c0.036,2.17,1.404,3.063,3.027,3.063c1.148,0,1.859-0.2,2.443-0.456l0.291,1.149
							c-0.565,0.255-1.55,0.564-2.954,0.564c-2.717,0-4.339-1.805-4.339-4.467s1.567-4.741,4.139-4.741
							c2.899,0,3.646,2.517,3.646,4.14c0,0.328-0.018,0.564-0.055,0.747H588.005z M592.709,46.622
							c0.019-1.003-0.419-2.59-2.225-2.59c-1.641,0-2.334,1.478-2.461,2.59H592.709z"/>
						<path fill="#FFFFFF" d="M600.115,45.455c0-0.93-0.019-1.659-0.073-2.389h1.423l0.091,1.459h0.036
							c0.438-0.821,1.459-1.642,2.918-1.642c1.222,0,3.118,0.729,3.118,3.757v5.251h-1.604v-5.087c0-1.423-0.529-2.608-2.043-2.608
							c-1.039,0-1.859,0.748-2.151,1.642c-0.072,0.2-0.109,0.474-0.109,0.747v5.307h-1.604V45.455z"/>
						<path fill="#FFFFFF" d="M618.224,47.406c0,3.264-2.279,4.686-4.395,4.686c-2.37,0-4.229-1.75-4.229-4.54
							c0-2.936,1.95-4.668,4.376-4.668C616.51,42.884,618.224,44.726,618.224,47.406z M611.24,47.497
							c0,1.933,1.094,3.392,2.662,3.392c1.532,0,2.681-1.44,2.681-3.428c0-1.495-0.748-3.374-2.645-3.374
							C612.061,44.087,611.24,45.838,611.24,47.497z"/>
						<path fill="#FFFFFF" d="M621.946,54.48c0.748-0.055,1.367-0.255,1.751-0.692c0.438-0.492,0.619-1.186,0.619-3.301v-7.421
							h1.605v8.041c0,1.714-0.274,2.826-1.058,3.629c-0.712,0.711-1.879,1.003-2.735,1.003L621.946,54.48z M626.104,40.586
							c0,0.529-0.364,0.985-1.021,0.985c-0.584,0-0.967-0.456-0.967-0.985c0-0.547,0.401-1.003,1.003-1.003
							S626.104,40.039,626.104,40.586z"/>
						<path fill="#FFFFFF" d="M635.933,49.467c0,0.93,0.019,1.731,0.073,2.425h-1.423l-0.091-1.44h-0.036
							c-0.401,0.711-1.35,1.641-2.918,1.641c-1.386,0-3.045-0.783-3.045-3.865v-5.16h1.604v4.868c0,1.678,0.529,2.826,1.97,2.826
							c1.075,0,1.823-0.747,2.115-1.477c0.091-0.219,0.146-0.511,0.146-0.82v-5.397h1.604V49.467z"/>
						<path fill="#FFFFFF" d="M637.595,50.962l3.976-5.197c0.4-0.492,0.766-0.911,1.167-1.386v-0.036h-4.777v-1.276h6.71v1.003
							l-3.938,5.124c-0.383,0.492-0.729,0.947-1.131,1.386v0.036h5.142v1.276h-7.147V50.962z"/>
						<path fill="#FFFFFF" d="M653.952,50.597c0,2.043-0.419,3.265-1.258,4.048c-0.875,0.784-2.115,1.058-3.228,1.058
							c-1.058,0-2.225-0.255-2.936-0.729l0.401-1.24c0.583,0.383,1.495,0.711,2.589,0.711c1.641,0,2.845-0.857,2.845-3.1v-0.967
							h-0.037c-0.474,0.82-1.44,1.478-2.808,1.478c-2.188,0-3.756-1.86-3.756-4.304c0-2.99,1.95-4.668,3.993-4.668
							c1.531,0,2.352,0.784,2.753,1.514h0.036l0.055-1.331h1.423c-0.055,0.62-0.073,1.35-0.073,2.406V50.597z M652.348,46.549
							c0-0.273-0.019-0.511-0.091-0.711c-0.292-0.948-1.058-1.714-2.243-1.714c-1.531,0-2.626,1.294-2.626,3.337
							c0,1.732,0.894,3.173,2.607,3.173c1.003,0,1.896-0.62,2.225-1.642c0.092-0.273,0.128-0.583,0.128-0.856V46.549z"/>
						<path fill="#FFFFFF" d="M662.798,49.776c0,0.766,0.037,1.514,0.128,2.115h-1.44l-0.128-1.112h-0.055
							c-0.492,0.693-1.44,1.312-2.698,1.312c-1.787,0-2.698-1.258-2.698-2.534c0-2.134,1.896-3.301,5.306-3.282v-0.183
							c0-0.711-0.2-2.042-2.006-2.023c-0.839,0-1.695,0.237-2.315,0.656l-0.365-1.076c0.729-0.455,1.806-0.766,2.918-0.766
							c2.698,0,3.354,1.842,3.354,3.592V49.776z M661.248,47.388c-1.75-0.036-3.737,0.273-3.737,1.987
							c0,1.058,0.692,1.532,1.495,1.532c1.167,0,1.914-0.729,2.17-1.478c0.055-0.182,0.072-0.364,0.072-0.511V47.388z"/>
						<path fill="#FFFFFF" d="M665.39,45.819c0-1.039-0.019-1.933-0.073-2.753h1.404l0.073,1.75h0.055
							c0.401-1.185,1.386-1.933,2.461-1.933c0.165,0,0.292,0.019,0.438,0.036v1.514c-0.164-0.036-0.328-0.036-0.548-0.036
							c-1.13,0-1.933,0.839-2.151,2.042c-0.036,0.219-0.055,0.492-0.055,0.748v4.704h-1.604V45.819z"/>
						<path fill="#FFFFFF" d="M669.348,54.152c0.401-1.094,0.894-3.045,1.094-4.376l1.787-0.183c-0.438,1.55-1.24,3.574-1.751,4.432
							L669.348,54.152z"/>
						<path fill="#FFFFFF" d="M506.267,69.84c0,0.766,0.037,1.514,0.128,2.115h-1.44l-0.128-1.112h-0.055
							c-0.492,0.693-1.44,1.312-2.698,1.312c-1.787,0-2.698-1.258-2.698-2.534c0-2.134,1.896-3.301,5.306-3.282v-0.183
							c0-0.711-0.2-2.042-2.006-2.023c-0.839,0-1.695,0.236-2.315,0.656l-0.365-1.076c0.729-0.455,1.806-0.766,2.918-0.766
							c2.698,0,3.354,1.842,3.354,3.592V69.84z M504.717,67.451c-1.75-0.036-3.737,0.273-3.737,1.987
							c0,1.058,0.692,1.532,1.495,1.532c1.167,0,1.914-0.729,2.17-1.478c0.055-0.182,0.072-0.364,0.072-0.511V67.451z"/>
						<path fill="#FFFFFF" d="M515.149,71.646c-0.42,0.2-1.35,0.51-2.535,0.51c-2.662,0-4.394-1.805-4.394-4.504
							c0-2.717,1.859-4.704,4.74-4.704c0.948,0,1.787,0.237,2.225,0.475l-0.364,1.222c-0.383-0.201-0.985-0.42-1.86-0.42
							c-2.023,0-3.118,1.514-3.118,3.337c0,2.042,1.313,3.301,3.063,3.301c0.912,0,1.514-0.219,1.97-0.42L515.149,71.646z"/>
						<path fill="#FFFFFF" d="M524.906,67.47c0,3.264-2.279,4.686-4.395,4.686c-2.37,0-4.229-1.75-4.229-4.54
							c0-2.936,1.95-4.668,4.376-4.668C523.192,62.947,524.906,64.789,524.906,67.47z M517.923,67.561
							c0,1.933,1.094,3.392,2.662,3.392c1.532,0,2.681-1.44,2.681-3.428c0-1.495-0.748-3.374-2.645-3.374
							C518.743,64.15,517.923,65.901,517.923,67.561z"/>
						<path fill="#FFFFFF" d="M526.933,65.519c0-0.93-0.019-1.659-0.073-2.389h1.423l0.091,1.459h0.036
							c0.438-0.821,1.459-1.642,2.918-1.642c1.222,0,3.118,0.729,3.118,3.756v5.252h-1.604v-5.087c0-1.423-0.529-2.608-2.043-2.608
							c-1.039,0-1.859,0.748-2.151,1.642c-0.072,0.2-0.109,0.474-0.109,0.747v5.307h-1.604V65.519z"/>
						<path fill="#FFFFFF" d="M536.836,70.332c0.492,0.292,1.331,0.62,2.134,0.62c1.148,0,1.695-0.565,1.695-1.312
							c0-0.767-0.456-1.167-1.623-1.604c-1.604-0.584-2.352-1.441-2.352-2.498c0-1.423,1.167-2.59,3.045-2.59
							c0.894,0,1.678,0.237,2.151,0.547l-0.383,1.167c-0.347-0.219-0.984-0.528-1.806-0.528c-0.947,0-1.458,0.547-1.458,1.203
							c0,0.729,0.511,1.058,1.659,1.514c1.514,0.565,2.315,1.331,2.315,2.644c0,1.568-1.222,2.662-3.282,2.662
							c-0.966,0-1.859-0.255-2.479-0.619L536.836,70.332z"/>
						<path fill="#FFFFFF" d="M545.171,67.834c0.036,2.17,1.404,3.063,3.027,3.063c1.148,0,1.859-0.2,2.443-0.456l0.291,1.149
							c-0.565,0.255-1.55,0.564-2.954,0.564c-2.717,0-4.339-1.805-4.339-4.467s1.567-4.741,4.139-4.741
							c2.899,0,3.646,2.517,3.646,4.14c0,0.328-0.018,0.564-0.055,0.747H545.171z M549.875,66.686
							c0.019-1.003-0.419-2.59-2.225-2.59c-1.641,0-2.334,1.478-2.461,2.59H549.875z"/>
						<path fill="#FFFFFF" d="M551.245,74.544c0.748-0.055,1.367-0.255,1.751-0.692c0.438-0.492,0.619-1.186,0.619-3.301V63.13
							h1.605v8.041c0,1.714-0.274,2.826-1.058,3.629c-0.712,0.711-1.879,1.003-2.735,1.003L551.245,74.544z M555.402,60.649
							c0,0.529-0.364,0.985-1.021,0.985c-0.584,0-0.967-0.456-0.967-0.985c0-0.547,0.401-1.003,1.003-1.003
							S555.402,60.103,555.402,60.649z"/>
						<path fill="#FFFFFF" d="M564.046,69.84c0,0.766,0.037,1.514,0.128,2.115h-1.44l-0.128-1.112h-0.055
							c-0.492,0.693-1.44,1.312-2.698,1.312c-1.787,0-2.698-1.258-2.698-2.534c0-2.134,1.896-3.301,5.306-3.282v-0.183
							c0-0.711-0.2-2.042-2.006-2.023c-0.839,0-1.695,0.236-2.315,0.656l-0.365-1.076c0.729-0.455,1.806-0.766,2.918-0.766
							c2.698,0,3.354,1.842,3.354,3.592V69.84z M562.496,67.451c-1.75-0.036-3.737,0.273-3.737,1.987
							c0,1.058,0.692,1.532,1.495,1.532c1.167,0,1.914-0.729,2.17-1.478c0.055-0.182,0.072-0.364,0.072-0.511V67.451z"/>
						<path fill="#FFFFFF" d="M566.638,65.883c0-1.039-0.019-1.933-0.073-2.753h1.404l0.073,1.75h0.055
							c0.401-1.185,1.386-1.933,2.461-1.933c0.165,0,0.292,0.019,0.438,0.036v1.514c-0.164-0.036-0.328-0.036-0.548-0.036
							c-1.13,0-1.933,0.839-2.151,2.042c-0.036,0.219-0.055,0.492-0.055,0.748v4.704h-1.604V65.883z"/>
						<path fill="#FFFFFF" d="M584.454,67.47c0,3.264-2.279,4.686-4.395,4.686c-2.37,0-4.229-1.75-4.229-4.54
							c0-2.936,1.95-4.668,4.376-4.668C582.74,62.947,584.454,64.789,584.454,67.47z M577.471,67.561
							c0,1.933,1.094,3.392,2.662,3.392c1.532,0,2.681-1.44,2.681-3.428c0-1.495-0.748-3.374-2.645-3.374
							C578.291,64.15,577.471,65.901,577.471,67.561z"/>
						<path fill="#FFFFFF" d="M591.24,67.834c0.036,2.17,1.404,3.063,3.026,3.063c1.149,0,1.86-0.2,2.444-0.456l0.291,1.149
							c-0.565,0.255-1.55,0.564-2.954,0.564c-2.717,0-4.339-1.805-4.339-4.467s1.567-4.741,4.139-4.741
							c2.899,0,3.646,2.517,3.646,4.14c0,0.328-0.018,0.564-0.055,0.747H591.24z M595.944,66.686c0.019-1.003-0.419-2.59-2.225-2.59
							c-1.641,0-2.334,1.478-2.461,2.59H595.944z"/>
						<path fill="#FFFFFF" d="M607.088,59.009v10.667c0,0.784,0.037,1.678,0.073,2.279h-1.422l-0.073-1.531h-0.055
							c-0.475,0.984-1.532,1.731-2.973,1.731c-2.133,0-3.792-1.805-3.792-4.485c-0.019-2.936,1.823-4.723,3.956-4.723
							c1.368,0,2.262,0.639,2.662,1.331h0.037v-5.27H607.088z M605.502,66.722c0-0.2-0.019-0.474-0.073-0.675
							c-0.237-1.003-1.112-1.842-2.315-1.842c-1.659,0-2.645,1.459-2.645,3.392c0,1.787,0.894,3.265,2.607,3.265
							c1.076,0,2.061-0.729,2.353-1.915c0.055-0.219,0.073-0.438,0.073-0.692V66.722z"/>
						<path fill="#FFFFFF" d="M617.156,69.53c0,0.93,0.019,1.731,0.073,2.425h-1.423l-0.091-1.44h-0.036
							c-0.401,0.711-1.35,1.641-2.918,1.641c-1.386,0-3.045-0.784-3.045-3.865v-5.16h1.604v4.868c0,1.678,0.529,2.826,1.97,2.826
							c1.075,0,1.823-0.747,2.115-1.477c0.091-0.219,0.146-0.511,0.146-0.82V63.13h1.604V69.53z"/>
						<path fill="#FFFFFF" d="M626.112,71.646c-0.42,0.2-1.35,0.51-2.535,0.51c-2.662,0-4.394-1.805-4.394-4.504
							c0-2.717,1.859-4.704,4.74-4.704c0.948,0,1.787,0.237,2.225,0.475l-0.364,1.222c-0.383-0.201-0.985-0.42-1.86-0.42
							c-2.023,0-3.118,1.514-3.118,3.337c0,2.042,1.313,3.301,3.063,3.301c0.912,0,1.514-0.219,1.97-0.42L626.112,71.646z"/>
						<path fill="#FFFFFF" d="M634.191,69.84c0,0.766,0.037,1.514,0.128,2.115h-1.44l-0.128-1.112h-0.055
							c-0.492,0.693-1.44,1.312-2.698,1.312c-1.787,0-2.698-1.258-2.698-2.534c0-2.134,1.896-3.301,5.306-3.282v-0.183
							c0-0.711-0.2-2.042-2.006-2.023c-0.839,0-1.695,0.236-2.315,0.656l-0.365-1.076c0.729-0.455,1.806-0.766,2.918-0.766
							c2.698,0,3.354,1.842,3.354,3.592V69.84z M632.642,67.451c-1.75-0.036-3.737,0.273-3.737,1.987
							c0,1.058,0.692,1.532,1.495,1.532c1.167,0,1.914-0.729,2.17-1.478c0.055-0.182,0.072-0.364,0.072-0.511V67.451z"/>
						<path fill="#FFFFFF" d="M636.783,65.883c0-1.039-0.019-1.933-0.073-2.753h1.404l0.073,1.75h0.055
							c0.401-1.185,1.386-1.933,2.462-1.933c0.164,0,0.291,0.019,0.438,0.036v1.514c-0.164-0.036-0.328-0.036-0.548-0.036
							c-1.13,0-1.933,0.839-2.151,2.042c-0.036,0.219-0.055,0.492-0.055,0.748v4.704h-1.604V65.883z"/>
						<path fill="#FFFFFF" d="M641.397,71.007c0-0.656,0.456-1.148,1.094-1.148c0.639,0,1.076,0.474,1.076,1.148
							c0,0.656-0.438,1.148-1.112,1.148C641.835,72.155,641.397,71.663,641.397,71.007z"/>
						<path fill="#FFFFFF" d="M655.822,66.193h-4.759v4.431h5.324v1.331h-6.93v-12.29h6.656v1.331h-5.051v3.884h4.759V66.193z"/>
						<path fill="#FFFFFF" d="M658.177,70.332c0.492,0.292,1.331,0.62,2.134,0.62c1.148,0,1.695-0.565,1.695-1.312
							c0-0.767-0.456-1.167-1.623-1.604c-1.604-0.584-2.352-1.441-2.352-2.498c0-1.423,1.167-2.59,3.045-2.59
							c0.894,0,1.678,0.237,2.151,0.547l-0.383,1.167c-0.347-0.219-0.984-0.528-1.806-0.528c-0.947,0-1.458,0.547-1.458,1.203
							c0,0.729,0.511,1.058,1.659,1.514c1.514,0.565,2.315,1.331,2.315,2.644c0,1.568-1.222,2.662-3.282,2.662
							c-0.966,0-1.859-0.255-2.479-0.619L658.177,70.332z"/>
						<path fill="#FFFFFF" d="M666.512,67.834c0.036,2.17,1.404,3.063,3.026,3.063c1.149,0,1.86-0.2,2.444-0.456l0.291,1.149
							c-0.565,0.255-1.55,0.564-2.954,0.564c-2.717,0-4.339-1.805-4.339-4.467s1.567-4.741,4.139-4.741
							c2.899,0,3.646,2.517,3.646,4.14c0,0.328-0.018,0.564-0.055,0.747H666.512z M671.216,66.686
							c0.019-1.003-0.419-2.59-2.225-2.59c-1.641,0-2.334,1.478-2.461,2.59H671.216z"/>
						<path fill="#FFFFFF" d="M678.622,65.519c0-0.93-0.019-1.659-0.073-2.389h1.423l0.091,1.459h0.036
							c0.438-0.821,1.459-1.642,2.918-1.642c1.222,0,3.118,0.729,3.118,3.756v5.252h-1.604v-5.087c0-1.423-0.529-2.608-2.043-2.608
							c-1.039,0-1.859,0.748-2.151,1.642c-0.072,0.2-0.109,0.474-0.109,0.747v5.307h-1.604V65.519z"/>
						<path fill="#FFFFFF" d="M696.73,67.47c0,3.264-2.279,4.686-4.395,4.686c-2.37,0-4.229-1.75-4.229-4.54
							c0-2.936,1.95-4.668,4.376-4.668C695.017,62.947,696.73,64.789,696.73,67.47z M689.747,67.561
							c0,1.933,1.094,3.392,2.662,3.392c1.532,0,2.681-1.44,2.681-3.428c0-1.495-0.748-3.374-2.645-3.374
							C690.567,64.15,689.747,65.901,689.747,67.561z"/>
						<path fill="#FFFFFF" d="M556.333,87.896c0.036,2.17,1.404,3.063,3.027,3.063c1.148,0,1.859-0.2,2.443-0.456l0.291,1.149
							c-0.565,0.255-1.55,0.564-2.954,0.564c-2.717,0-4.339-1.805-4.339-4.467s1.567-4.741,4.139-4.741
							c2.899,0,3.646,2.517,3.646,4.14c0,0.328-0.018,0.564-0.055,0.747H556.333z M561.037,86.748
							c0.019-1.003-0.419-2.59-2.225-2.59c-1.641,0-2.334,1.478-2.461,2.59H561.037z"/>
						<path fill="#FFFFFF" d="M564.358,90.395c0.492,0.292,1.331,0.62,2.134,0.62c1.148,0,1.695-0.565,1.695-1.312
							c0-0.767-0.456-1.167-1.623-1.604c-1.604-0.584-2.352-1.441-2.352-2.498c0-1.423,1.167-2.59,3.045-2.59
							c0.894,0,1.678,0.237,2.151,0.547l-0.383,1.167c-0.347-0.219-0.984-0.528-1.806-0.528c-0.947,0-1.458,0.547-1.458,1.203
							c0,0.729,0.511,1.058,1.659,1.514c1.514,0.565,2.315,1.331,2.315,2.644c0,1.568-1.222,2.662-3.282,2.662
							c-0.966,0-1.859-0.255-2.479-0.619L564.358,90.395z"/>
						<path fill="#FFFFFF" d="M575.447,90.395c0.492,0.292,1.331,0.62,2.134,0.62c1.148,0,1.695-0.565,1.695-1.312
							c0-0.767-0.456-1.167-1.623-1.604c-1.604-0.584-2.352-1.441-2.352-2.498c0-1.423,1.167-2.59,3.045-2.59
							c0.894,0,1.678,0.237,2.151,0.547l-0.383,1.167c-0.347-0.219-0.984-0.528-1.806-0.528c-0.947,0-1.458,0.547-1.458,1.203
							c0,0.729,0.511,1.058,1.659,1.514c1.514,0.565,2.315,1.331,2.315,2.644c0,1.568-1.222,2.662-3.282,2.662
							c-0.966,0-1.859-0.255-2.479-0.619L575.447,90.395z"/>
						<path fill="#FFFFFF" d="M590.273,89.593c0,0.93,0.019,1.731,0.073,2.425h-1.423l-0.091-1.44h-0.036
							c-0.401,0.711-1.35,1.641-2.918,1.641c-1.386,0-3.045-0.784-3.045-3.865v-5.16h1.604v4.868c0,1.678,0.529,2.826,1.97,2.826
							c1.075,0,1.823-0.747,2.115-1.477c0.091-0.219,0.146-0.511,0.146-0.82v-5.397h1.604V89.593z"/>
						<path fill="#FFFFFF" d="M596.805,86.073c0-1.131-0.036-2.042-0.073-2.881h1.423l0.091,1.514h0.036
							c0.639-1.076,1.696-1.696,3.137-1.696c2.151,0,3.756,1.806,3.756,4.468c0,3.173-1.95,4.74-4.029,4.74
							c-1.167,0-2.188-0.51-2.717-1.386h-0.036v4.796h-1.587V86.073z M598.392,88.426c0,0.236,0.018,0.455,0.072,0.656
							c0.292,1.112,1.259,1.878,2.407,1.878c1.695,0,2.681-1.386,2.681-3.41c0-1.75-0.931-3.264-2.626-3.264
							c-1.094,0-2.134,0.766-2.425,1.97c-0.055,0.2-0.109,0.438-0.109,0.638V88.426z"/>
						<path fill="#FFFFFF" d="M613.382,89.902c0,0.766,0.037,1.514,0.128,2.115h-1.44l-0.128-1.112h-0.055
							c-0.492,0.693-1.44,1.312-2.698,1.312c-1.787,0-2.698-1.258-2.698-2.534c0-2.134,1.896-3.301,5.306-3.282v-0.183
							c0-0.711-0.2-2.042-2.006-2.023c-0.839,0-1.695,0.236-2.315,0.656l-0.365-1.076c0.729-0.455,1.806-0.766,2.918-0.766
							c2.698,0,3.354,1.842,3.354,3.592V89.902z M611.832,87.514c-1.75-0.036-3.737,0.273-3.737,1.987
							c0,1.058,0.692,1.532,1.495,1.532c1.167,0,1.914-0.729,2.17-1.478c0.055-0.182,0.072-0.364,0.072-0.511V87.514z"/>
						<path fill="#FFFFFF" d="M615.974,86.073c0-1.131-0.036-2.042-0.073-2.881h1.423l0.091,1.514h0.036
							c0.639-1.076,1.696-1.696,3.137-1.696c2.151,0,3.756,1.806,3.756,4.468c0,3.173-1.95,4.74-4.029,4.74
							c-1.167,0-2.188-0.51-2.717-1.386h-0.037v4.796h-1.586V86.073z M617.56,88.426c0,0.236,0.019,0.455,0.073,0.656
							c0.292,1.112,1.259,1.878,2.407,1.878c1.695,0,2.681-1.386,2.681-3.41c0-1.75-0.931-3.264-2.626-3.264
							c-1.094,0-2.134,0.766-2.425,1.97c-0.055,0.2-0.11,0.438-0.11,0.638V88.426z"/>
						<path fill="#FFFFFF" d="M627.245,87.896c0.036,2.17,1.404,3.063,3.027,3.063c1.148,0,1.859-0.2,2.443-0.456l0.291,1.149
							c-0.565,0.255-1.55,0.564-2.954,0.564c-2.717,0-4.339-1.805-4.339-4.467s1.567-4.741,4.139-4.741
							c2.899,0,3.646,2.517,3.646,4.14c0,0.328-0.018,0.564-0.055,0.747H627.245z M631.949,86.748
							c0.019-1.003-0.419-2.59-2.225-2.59c-1.641,0-2.334,1.478-2.461,2.59H631.949z"/>
						<path fill="#FFFFFF" d="M635.489,79.071h1.604v12.946h-1.604V79.071z"/>
						<path fill="#FFFFFF" d="M639.229,91.069c0-0.656,0.456-1.148,1.094-1.148c0.639,0,1.076,0.474,1.076,1.148
							c0,0.656-0.438,1.148-1.112,1.148C639.666,92.218,639.229,91.726,639.229,91.069z"/>
					</g>
				</g>
			</g>
		</g>
		<path fill="none" stroke="#C15921" stroke-width="5" stroke-miterlimit="10" stroke-dasharray="4" d="M497.659,50.095
			c0,0-8.763,16.96-22.783,27.918s-33.298,8.958-33.298,8.958"/>
	</g>
	<g>
		<rect y="99.133" fill="#EBE760" fill-opacity="0.4" width="330.571" height="25.702"/>
	</g>
	<g>
		<rect x="300.571" y="72.69" fill="#EBE760" fill-opacity="0.4" width="132.51" height="25.702"/>
	</g>
</g>
</svg>
