<?xml version="1.0" encoding="utf-8"?>
<!-- Generator: Adobe Illustrator 16.0.0, SVG Export Plug-In . SVG Version: 6.00 Build 0)  -->
<!DOCTYPE svg PUBLIC "-//W3C//DTD SVG 1.1//EN" "http://www.w3.org/Graphics/SVG/1.1/DTD/svg11.dtd">
<svg version="1.1" id="Capa_1" xmlns="http://www.w3.org/2000/svg" xmlns:xlink="http://www.w3.org/1999/xlink" x="0px" y="0px"
	 width="866.073px" height="149.447px" viewBox="0 0 866.073 149.447" enable-background="new 0 0 866.073 149.447"
	 xml:space="preserve">
<g>
	<g>
		<g>
			<g>
				<g>
					<path opacity="0.9" fill-rule="evenodd" clip-rule="evenodd" fill="#ABC02F" d="M866.073,137.447c0,6.628-5.821,12-13.003,12
						H472.428c-7.181,0-13.003-5.372-13.003-12V12c0-6.628,5.822-12,13.003-12H853.07c7.182,0,13.003,5.372,13.003,12V137.447z"/>
				</g>
				<g>
					<g>
						<path fill="#FFFFFF" d="M577.478,13.254c0.98-0.16,2.421-0.28,4.061-0.28c2.001,0,3.401,0.3,4.361,1.061
							c0.82,0.64,1.26,1.601,1.26,2.841c0,1.7-1.22,2.88-2.38,3.3v0.061c0.94,0.38,1.46,1.26,1.8,2.5
							c0.421,1.541,0.82,3.301,1.081,3.821h-3.121c-0.2-0.4-0.54-1.48-0.92-3.141c-0.381-1.7-0.961-2.141-2.221-2.16h-0.9v5.301
							h-3.021V13.254z M580.498,19.055h1.2c1.521,0,2.421-0.76,2.421-1.94c0-1.22-0.841-1.86-2.24-1.86
							c-0.74,0-1.161,0.04-1.381,0.101V19.055z"/>
						<path fill="#FFFFFF" d="M591.577,22.636c0.08,1.261,1.341,1.86,2.761,1.86c1.04,0,1.881-0.14,2.7-0.42l0.4,2.061
							c-1,0.42-2.221,0.62-3.541,0.62c-3.32,0-5.221-1.921-5.221-4.981c0-2.48,1.54-5.221,4.941-5.221c3.16,0,4.36,2.46,4.36,4.881
							c0,0.521-0.06,0.98-0.1,1.2H591.577z M595.158,20.556c0-0.74-0.32-1.98-1.721-1.98c-1.28,0-1.8,1.18-1.88,1.98H595.158z"/>
						<path fill="#FFFFFF" d="M603.197,14.134v2.641h2.181v2.24h-2.181v3.541c0,1.181,0.3,1.721,1.2,1.721
							c0.42,0,0.62-0.021,0.9-0.08l0.02,2.301c-0.38,0.14-1.12,0.26-1.96,0.26c-0.98,0-1.801-0.34-2.301-0.84
							c-0.561-0.581-0.84-1.521-0.84-2.901v-4.001h-1.301v-2.24h1.301v-1.82L603.197,14.134z"/>
						<path fill="#FFFFFF" d="M607.137,19.995c0-1.44-0.021-2.381-0.08-3.221h2.601l0.119,1.801h0.08
							c0.501-1.44,1.681-2.041,2.641-2.041c0.28,0,0.421,0.021,0.641,0.061v2.86c-0.24-0.04-0.48-0.08-0.82-0.08
							c-1.12,0-1.881,0.601-2.08,1.54c-0.04,0.2-0.061,0.44-0.061,0.681v4.961h-3.04V19.995z"/>
						<path fill="#FFFFFF" d="M624.238,21.556c0,3.581-2.541,5.221-5.161,5.221c-2.861,0-5.062-1.88-5.062-5.041
							c0-3.181,2.08-5.201,5.241-5.201C622.237,16.534,624.238,18.595,624.238,21.556z M617.156,21.655c0,1.681,0.7,2.941,2,2.941
							c1.201,0,1.94-1.181,1.94-2.961c0-1.44-0.56-2.921-1.94-2.921C617.717,18.715,617.156,20.215,617.156,21.655z"/>
						<path fill="#FFFFFF" d="M634.258,24.196c0,0.92,0.04,1.82,0.16,2.36h-2.741l-0.18-0.98h-0.061c-0.64,0.78-1.64,1.2-2.8,1.2
							c-1.98,0-3.161-1.44-3.161-3c0-2.541,2.28-3.741,5.741-3.741v-0.12c0-0.54-0.28-1.28-1.78-1.28c-1,0-2.061,0.34-2.7,0.74
							l-0.561-1.96c0.68-0.381,2.021-0.881,3.801-0.881c3.261,0,4.281,1.921,4.281,4.241V24.196z M631.316,21.936
							c-1.6,0-2.84,0.38-2.84,1.54c0,0.78,0.52,1.16,1.2,1.16c0.74,0,1.38-0.5,1.58-1.12c0.04-0.159,0.06-0.34,0.06-0.52V21.936z"/>
						<path fill="#FFFFFF" d="M636.676,12.354h3.04v14.203h-3.04V12.354z"/>
						<path fill="#FFFFFF" d="M645.316,14.054c0,0.841-0.62,1.521-1.641,1.521c-0.96,0-1.58-0.68-1.58-1.521
							c0-0.86,0.64-1.521,1.62-1.521S645.296,13.193,645.316,14.054z M642.176,26.557v-9.782h3.04v9.782H642.176z"/>
						<path fill="#FFFFFF" d="M647.655,19.896c0-1.221-0.04-2.241-0.08-3.121h2.58l0.12,1.32h0.06
							c0.421-0.64,1.301-1.561,2.961-1.561c1.28,0,2.261,0.66,2.681,1.681h0.04c0.38-0.521,0.8-0.92,1.28-1.2
							c0.54-0.3,1.141-0.48,1.86-0.48c1.881,0,3.301,1.32,3.301,4.262v5.761h-2.961v-5.321c0-1.42-0.46-2.24-1.44-2.24
							c-0.72,0-1.2,0.48-1.42,1.061c-0.06,0.22-0.1,0.52-0.1,0.779v5.722h-2.961v-5.501c0-1.221-0.44-2.061-1.42-2.061
							c-0.78,0-1.24,0.6-1.421,1.08c-0.1,0.24-0.12,0.521-0.12,0.78v5.701h-2.96V19.896z"/>
						<path fill="#FFFFFF" d="M667.195,22.636c0.08,1.261,1.341,1.86,2.761,1.86c1.04,0,1.881-0.14,2.7-0.42l0.4,2.061
							c-1,0.42-2.221,0.62-3.541,0.62c-3.32,0-5.221-1.921-5.221-4.981c0-2.48,1.54-5.221,4.941-5.221c3.16,0,4.36,2.46,4.36,4.881
							c0,0.521-0.06,0.98-0.1,1.2H667.195z M670.776,20.556c0-0.74-0.32-1.98-1.721-1.98c-1.28,0-1.8,1.18-1.88,1.98H670.776z"/>
						<path fill="#FFFFFF" d="M675.415,19.896c0-1.221-0.04-2.241-0.08-3.121h2.641l0.14,1.36h0.06c0.4-0.64,1.381-1.58,3.021-1.58
							c2,0,3.5,1.34,3.5,4.221v5.781h-3.04v-5.421c0-1.261-0.44-2.121-1.541-2.121c-0.84,0-1.34,0.58-1.56,1.141
							c-0.08,0.2-0.101,0.48-0.101,0.76v5.642h-3.04V19.896z"/>
						<path fill="#FFFFFF" d="M690.415,14.134v2.641h2.181v2.24h-2.181v3.541c0,1.181,0.3,1.721,1.2,1.721
							c0.42,0,0.62-0.021,0.9-0.08l0.02,2.301c-0.38,0.14-1.12,0.26-1.96,0.26c-0.98,0-1.801-0.34-2.301-0.84
							c-0.56-0.581-0.84-1.521-0.84-2.901v-4.001h-1.301v-2.24h1.301v-1.82L690.415,14.134z"/>
						<path fill="#FFFFFF" d="M702.496,24.196c0,0.92,0.04,1.82,0.16,2.36h-2.741l-0.18-0.98h-0.061c-0.64,0.78-1.64,1.2-2.8,1.2
							c-1.98,0-3.161-1.44-3.161-3c0-2.541,2.28-3.741,5.741-3.741v-0.12c0-0.54-0.28-1.28-1.78-1.28c-1,0-2.061,0.34-2.7,0.74
							l-0.561-1.96c0.68-0.381,2.021-0.881,3.801-0.881c3.261,0,4.281,1.921,4.281,4.241V24.196z M699.555,21.936
							c-1.6,0-2.84,0.38-2.84,1.54c0,0.78,0.52,1.16,1.2,1.16c0.74,0,1.38-0.5,1.58-1.12c0.04-0.159,0.06-0.34,0.06-0.52V21.936z"/>
						<path fill="#FFFFFF" d="M712.255,26.297c-0.54,0.26-1.56,0.46-2.721,0.46c-3.16,0-5.181-1.94-5.181-5.001
							c0-2.861,1.96-5.201,5.602-5.201c0.8,0,1.68,0.14,2.32,0.38l-0.48,2.261c-0.36-0.16-0.9-0.301-1.7-0.301
							c-1.601,0-2.641,1.141-2.62,2.741c0,1.78,1.2,2.74,2.68,2.74c0.721,0,1.28-0.12,1.741-0.32L712.255,26.297z"/>
						<path fill="#FFFFFF" d="M717.074,14.054c0,0.841-0.62,1.521-1.641,1.521c-0.96,0-1.58-0.68-1.58-1.521
							c0-0.86,0.64-1.521,1.62-1.521S717.054,13.193,717.074,14.054z M713.934,26.557v-9.782h3.04v9.782H713.934z"/>
						<path fill="#FFFFFF" d="M729.074,21.556c0,3.581-2.54,5.221-5.16,5.221c-2.861,0-5.062-1.88-5.062-5.041
							c0-3.181,2.08-5.201,5.241-5.201C727.074,16.534,729.074,18.595,729.074,21.556z M721.993,21.655c0,1.681,0.7,2.941,2,2.941
							c1.201,0,1.94-1.181,1.94-2.961c0-1.44-0.56-2.921-1.94-2.921C722.554,18.715,721.993,20.215,721.993,21.655z M727.135,12.514
							l-2.441,3.041h-2.08l1.721-3.041H727.135z"/>
						<path fill="#FFFFFF" d="M730.953,19.896c0-1.221-0.04-2.241-0.08-3.121h2.641l0.14,1.36h0.06c0.4-0.64,1.381-1.58,3.021-1.58
							c2,0,3.5,1.34,3.5,4.221v5.781h-3.04v-5.421c0-1.261-0.44-2.121-1.541-2.121c-0.84,0-1.34,0.58-1.56,1.141
							c-0.08,0.2-0.101,0.48-0.101,0.76v5.642h-3.04V19.896z"/>
						<path fill="#FFFFFF" d="M742.473,18.495c0-1.08,0.74-1.841,1.78-1.841c1.06,0,1.76,0.74,1.78,1.841
							c0,1.04-0.7,1.82-1.801,1.82C743.192,20.315,742.473,19.535,742.473,18.495z M742.473,24.956c0-1.08,0.74-1.84,1.78-1.84
							c1.06,0,1.76,0.74,1.78,1.84c0,1.04-0.7,1.82-1.801,1.82C743.192,26.776,742.473,25.996,742.473,24.956z"/>
						<path fill="#FFFFFF" d="M474.841,45.896c0,1.02,0.021,1.9,0.08,2.66h-1.561l-0.1-1.58h-0.04c-0.44,0.78-1.48,1.8-3.201,1.8
							c-1.52,0-3.34-0.859-3.34-4.24v-5.661h1.76v5.341c0,1.84,0.58,3.101,2.16,3.101c1.181,0,2.001-0.82,2.32-1.62
							c0.101-0.24,0.16-0.561,0.16-0.9v-5.921h1.761V45.896z"/>
						<path fill="#FFFFFF" d="M477.52,46.776c0.54,0.32,1.46,0.68,2.34,0.68c1.261,0,1.86-0.62,1.86-1.44c0-0.84-0.5-1.28-1.78-1.76
							c-1.76-0.641-2.58-1.58-2.58-2.741c0-1.56,1.28-2.84,3.341-2.84c0.979,0,1.84,0.26,2.36,0.6l-0.42,1.28
							c-0.381-0.24-1.081-0.58-1.98-0.58c-1.041,0-1.601,0.601-1.601,1.32c0,0.801,0.56,1.16,1.82,1.66
							c1.66,0.62,2.54,1.461,2.54,2.901c0,1.72-1.34,2.92-3.601,2.92c-1.06,0-2.04-0.279-2.721-0.68L477.52,46.776z"/>
						<path fill="#FFFFFF" d="M494.441,43.636c0,3.581-2.501,5.141-4.821,5.141c-2.601,0-4.642-1.92-4.642-4.98
							c0-3.221,2.141-5.121,4.802-5.121C492.561,38.675,494.441,40.695,494.441,43.636z M486.779,43.735
							c0,2.121,1.2,3.721,2.921,3.721c1.68,0,2.94-1.58,2.94-3.761c0-1.64-0.82-3.7-2.9-3.7
							C487.68,39.995,486.779,41.915,486.779,43.735z"/>
						<path fill="#FFFFFF" d="M509.24,34.354v11.702c0,0.86,0.04,1.841,0.08,2.501h-1.561l-0.079-1.681h-0.061
							c-0.52,1.08-1.681,1.9-3.261,1.9c-2.341,0-4.161-1.98-4.161-4.921c-0.02-3.221,2.001-5.181,4.342-5.181
							c1.5,0,2.48,0.7,2.92,1.46h0.04v-5.781H509.24z M507.5,42.815c0-0.22-0.02-0.521-0.08-0.74c-0.26-1.101-1.22-2.021-2.54-2.021
							c-1.82,0-2.9,1.601-2.9,3.721c0,1.961,0.979,3.581,2.86,3.581c1.18,0,2.261-0.8,2.58-2.101c0.061-0.24,0.08-0.48,0.08-0.76
							V42.815z"/>
						<path fill="#FFFFFF" d="M513.159,44.036c0.04,2.38,1.54,3.36,3.321,3.36c1.26,0,2.04-0.22,2.68-0.5l0.32,1.26
							c-0.62,0.28-1.7,0.62-3.24,0.62c-2.98,0-4.762-1.98-4.762-4.9c0-2.921,1.721-5.201,4.541-5.201
							c3.181,0,4.001,2.761,4.001,4.541c0,0.359-0.02,0.62-0.06,0.82H513.159z M518.32,42.775c0.021-1.101-0.46-2.841-2.44-2.841
							c-1.801,0-2.561,1.62-2.7,2.841H518.32z"/>
						<path fill="#FFFFFF" d="M534.541,45.896c0,1.02,0.02,1.9,0.079,2.66h-1.56l-0.101-1.58h-0.04c-0.439,0.78-1.48,1.8-3.2,1.8
							c-1.521,0-3.341-0.859-3.341-4.24v-5.661h1.761v5.341c0,1.84,0.58,3.101,2.16,3.101c1.18,0,2-0.82,2.32-1.62
							c0.1-0.24,0.16-0.561,0.16-0.9v-5.921h1.761V45.896z"/>
						<path fill="#FFFFFF" d="M537.458,41.495c0-1.021-0.02-1.82-0.08-2.62h1.561l0.101,1.6h0.04c0.479-0.899,1.6-1.8,3.2-1.8
							c1.341,0,3.421,0.8,3.421,4.121v5.761h-1.761v-5.581c0-1.561-0.58-2.86-2.24-2.86c-1.141,0-2.04,0.819-2.36,1.8
							c-0.08,0.221-0.12,0.521-0.12,0.82v5.821h-1.761V41.495z"/>
						<path fill="#FFFFFF" d="M555.359,46.236c0,0.84,0.04,1.66,0.14,2.32h-1.58l-0.14-1.221h-0.061
							c-0.54,0.761-1.58,1.44-2.96,1.44c-1.961,0-2.961-1.38-2.961-2.78c0-2.341,2.08-3.621,5.821-3.601v-0.2
							c0-0.78-0.22-2.24-2.2-2.221c-0.921,0-1.86,0.261-2.541,0.721l-0.4-1.181c0.801-0.5,1.98-0.84,3.201-0.84
							c2.961,0,3.681,2.021,3.681,3.94V46.236z M553.659,43.615c-1.921-0.04-4.101,0.301-4.101,2.181c0,1.16,0.76,1.681,1.64,1.681
							c1.28,0,2.101-0.801,2.381-1.62c0.06-0.2,0.08-0.4,0.08-0.561V43.615z"/>
						<path fill="#FFFFFF" d="M564.559,36.554v2.321h2.521v1.34h-2.521v5.221c0,1.2,0.34,1.881,1.32,1.881
							c0.479,0,0.76-0.04,1.02-0.12l0.08,1.341c-0.34,0.119-0.88,0.239-1.56,0.239c-0.82,0-1.48-0.279-1.9-0.74
							c-0.48-0.54-0.681-1.4-0.681-2.54v-5.281h-1.5v-1.34h1.5v-1.801L564.559,36.554z"/>
						<path fill="#FFFFFF" d="M569.918,44.036c0.04,2.38,1.54,3.36,3.32,3.36c1.261,0,2.041-0.22,2.681-0.5l0.32,1.26
							c-0.62,0.28-1.7,0.62-3.24,0.62c-2.98,0-4.762-1.98-4.762-4.9c0-2.921,1.721-5.201,4.541-5.201
							c3.181,0,4.001,2.761,4.001,4.541c0,0.359-0.02,0.62-0.06,0.82H569.918z M575.079,42.775c0.021-1.101-0.46-2.841-2.44-2.841
							c-1.801,0-2.561,1.62-2.7,2.841H575.079z M575.479,34.693l-2.44,2.861h-1.24l1.76-2.861H575.479z"/>
						<path fill="#FFFFFF" d="M585.858,48.217c-0.46,0.22-1.479,0.56-2.78,0.56c-2.921,0-4.821-1.98-4.821-4.94
							c0-2.98,2.041-5.161,5.201-5.161c1.041,0,1.961,0.26,2.44,0.52l-0.399,1.341c-0.42-0.221-1.08-0.46-2.041-0.46
							c-2.22,0-3.42,1.66-3.42,3.66c0,2.241,1.439,3.621,3.36,3.621c1,0,1.66-0.24,2.16-0.46L585.858,48.217z"/>
						<path fill="#FFFFFF" d="M587.917,41.495c0-1.021-0.02-1.82-0.08-2.62h1.561l0.101,1.6h0.04c0.479-0.899,1.6-1.8,3.2-1.8
							c1.341,0,3.421,0.8,3.421,4.121v5.761h-1.761v-5.581c0-1.561-0.58-2.86-2.24-2.86c-1.141,0-2.04,0.819-2.36,1.8
							c-0.08,0.221-0.12,0.521-0.12,0.82v5.821h-1.761V41.495z"/>
						<path fill="#FFFFFF" d="M600.978,36.154c0,0.6-0.42,1.08-1.12,1.08c-0.641,0-1.061-0.48-1.061-1.08
							c0-0.601,0.44-1.101,1.101-1.101C600.537,35.054,600.978,35.534,600.978,36.154z M599.017,48.557v-9.682h1.761v9.682H599.017z
							"/>
						<path fill="#FFFFFF" d="M610.598,48.217c-0.46,0.22-1.479,0.56-2.78,0.56c-2.921,0-4.821-1.98-4.821-4.94
							c0-2.98,2.041-5.161,5.201-5.161c1.041,0,1.961,0.26,2.44,0.52l-0.399,1.341c-0.42-0.221-1.08-0.46-2.041-0.46
							c-2.22,0-3.42,1.66-3.42,3.66c0,2.241,1.439,3.621,3.36,3.621c1,0,1.66-0.24,2.16-0.46L610.598,48.217z"/>
						<path fill="#FFFFFF" d="M619.458,46.236c0,0.84,0.04,1.66,0.14,2.32h-1.58l-0.14-1.221h-0.061
							c-0.54,0.761-1.58,1.44-2.96,1.44c-1.961,0-2.961-1.38-2.961-2.78c0-2.341,2.08-3.621,5.821-3.601v-0.2
							c0-0.78-0.22-2.24-2.2-2.221c-0.921,0-1.86,0.261-2.541,0.721l-0.4-1.181c0.801-0.5,1.98-0.84,3.201-0.84
							c2.961,0,3.681,2.021,3.681,3.94V46.236z M617.758,43.615c-1.921-0.04-4.101,0.301-4.101,2.181c0,1.16,0.76,1.681,1.64,1.681
							c1.28,0,2.101-0.801,2.381-1.62c0.06-0.2,0.08-0.4,0.08-0.561V43.615z"/>
						<path fill="#FFFFFF" d="M633.558,42.235h-5.221v4.861h5.841v1.46h-7.602V35.074h7.302v1.46h-5.541v4.261h5.221V42.235z"/>
						<path fill="#FFFFFF" d="M637.196,38.875l1.381,2.08c0.38,0.54,0.68,1.021,1,1.561h0.04c0.32-0.561,0.64-1.061,0.98-1.581
							l1.34-2.06h1.921l-3.301,4.681l3.38,5.001h-1.98l-1.439-2.181c-0.381-0.56-0.7-1.1-1.041-1.68h-0.04
							c-0.319,0.58-0.64,1.1-1.02,1.68l-1.4,2.181h-1.94l3.44-4.941l-3.28-4.74H637.196z"/>
						<path fill="#FFFFFF" d="M645.636,42.035c0-1.24-0.04-2.24-0.08-3.16h1.561l0.101,1.66h0.04c0.7-1.181,1.86-1.86,3.44-1.86
							c2.36,0,4.121,1.98,4.121,4.9c0,3.481-2.141,5.201-4.421,5.201c-1.28,0-2.4-0.56-2.981-1.52h-0.039v5.261h-1.741V42.035z
							 M647.377,44.616c0,0.26,0.02,0.5,0.079,0.72c0.32,1.221,1.381,2.061,2.641,2.061c1.86,0,2.941-1.521,2.941-3.741
							c0-1.92-1.021-3.58-2.881-3.58c-1.2,0-2.341,0.84-2.661,2.16c-0.06,0.22-0.119,0.48-0.119,0.7V44.616z"/>
						<path fill="#FFFFFF" d="M657.016,41.896c0-1.141-0.02-2.121-0.08-3.021h1.541l0.08,1.92h0.06c0.44-1.3,1.521-2.12,2.7-2.12
							c0.181,0,0.32,0.02,0.48,0.04v1.66c-0.18-0.04-0.36-0.04-0.6-0.04c-1.24,0-2.121,0.92-2.361,2.24
							c-0.04,0.24-0.06,0.54-0.06,0.82v5.161h-1.761V41.896z"/>
						<path fill="#FFFFFF" d="M664.337,44.036c0.04,2.38,1.54,3.36,3.321,3.36c1.26,0,2.04-0.22,2.68-0.5l0.32,1.26
							c-0.62,0.28-1.7,0.62-3.24,0.62c-2.98,0-4.762-1.98-4.762-4.9c0-2.921,1.721-5.201,4.541-5.201
							c3.181,0,4.001,2.761,4.001,4.541c0,0.359-0.02,0.62-0.06,0.82H664.337z M669.498,42.775c0.021-1.101-0.46-2.841-2.44-2.841
							c-1.801,0-2.561,1.62-2.7,2.841H669.498z"/>
						<path fill="#FFFFFF" d="M673.137,46.776c0.54,0.32,1.46,0.68,2.34,0.68c1.261,0,1.86-0.62,1.86-1.44
							c0-0.84-0.5-1.28-1.78-1.76c-1.76-0.641-2.58-1.58-2.58-2.741c0-1.56,1.28-2.84,3.341-2.84c0.979,0,1.84,0.26,2.36,0.6
							l-0.42,1.28c-0.381-0.24-1.081-0.58-1.98-0.58c-1.041,0-1.601,0.601-1.601,1.32c0,0.801,0.56,1.16,1.82,1.66
							c1.66,0.62,2.54,1.461,2.54,2.901c0,1.72-1.34,2.92-3.601,2.92c-1.06,0-2.04-0.279-2.721-0.68L673.137,46.776z"/>
						<path fill="#FFFFFF" d="M683.257,36.154c0,0.6-0.42,1.08-1.12,1.08c-0.641,0-1.061-0.48-1.061-1.08
							c0-0.601,0.44-1.101,1.101-1.101C682.816,35.054,683.257,35.534,683.257,36.154z M681.296,48.557v-9.682h1.761v9.682H681.296z
							"/>
						<path fill="#FFFFFF" d="M686.656,38.875l1.9,5.421c0.32,0.9,0.58,1.7,0.78,2.5h0.06c0.221-0.8,0.5-1.6,0.82-2.5l1.881-5.421
							h1.84l-3.801,9.682h-1.681l-3.681-9.682H686.656z"/>
						<path fill="#FFFFFF" d="M702.317,46.236c0,0.84,0.04,1.66,0.14,2.32h-1.58l-0.14-1.221h-0.061
							c-0.54,0.761-1.58,1.44-2.96,1.44c-1.961,0-2.961-1.38-2.961-2.78c0-2.341,2.08-3.621,5.821-3.601v-0.2
							c0-0.78-0.22-2.24-2.2-2.221c-0.921,0-1.86,0.261-2.541,0.721l-0.4-1.181c0.801-0.5,1.98-0.84,3.201-0.84
							c2.961,0,3.681,2.021,3.681,3.94V46.236z M700.617,43.615c-1.921-0.04-4.101,0.301-4.101,2.181c0,1.16,0.76,1.681,1.64,1.681
							c1.28,0,2.101-0.801,2.381-1.62c0.06-0.2,0.08-0.4,0.08-0.561V43.615z"/>
						<path fill="#FFFFFF" d="M704.756,40.475c0-0.74,0.5-1.26,1.18-1.26c0.721,0,1.181,0.52,1.181,1.26c0,0.7-0.46,1.24-1.2,1.24
							C705.235,41.715,704.756,41.175,704.756,40.475z M704.756,47.536c0-0.74,0.5-1.26,1.18-1.26c0.721,0,1.181,0.52,1.181,1.26
							c0,0.7-0.46,1.24-1.2,1.24C705.235,48.776,704.756,48.236,704.756,47.536z"/>
						<path fill="#FFFFFF" d="M713.596,35.233c0.84-0.14,1.94-0.26,3.341-0.26c1.72,0,2.98,0.4,3.78,1.12
							c0.721,0.641,1.181,1.62,1.181,2.821c0,1.22-0.36,2.18-1.04,2.88c-0.94,0.98-2.421,1.48-4.121,1.48c-0.521,0-1-0.02-1.4-0.12
							v5.401h-1.74V35.233z M715.336,41.735c0.38,0.1,0.86,0.14,1.44,0.14c2.101,0,3.381-1.04,3.381-2.86
							c0-1.801-1.28-2.66-3.181-2.66c-0.761,0-1.341,0.06-1.641,0.14V41.735z"/>
						<path fill="#FFFFFF" d="M724.655,44.036c0.04,2.38,1.54,3.36,3.321,3.36c1.26,0,2.04-0.22,2.68-0.5l0.32,1.26
							c-0.62,0.28-1.7,0.62-3.24,0.62c-2.98,0-4.762-1.98-4.762-4.9c0-2.921,1.721-5.201,4.541-5.201
							c3.181,0,4.001,2.761,4.001,4.541c0,0.359-0.02,0.62-0.06,0.82H724.655z M729.816,42.775c0.021-1.101-0.46-2.841-2.44-2.841
							c-1.801,0-2.561,1.62-2.7,2.841H729.816z"/>
						<path fill="#FFFFFF" d="M733.694,41.896c0-1.141-0.02-2.121-0.08-3.021h1.541l0.08,1.92h0.06c0.44-1.3,1.521-2.12,2.701-2.12
							c0.18,0,0.319,0.02,0.479,0.04v1.66c-0.18-0.04-0.36-0.04-0.6-0.04c-1.24,0-2.121,0.92-2.361,2.24
							c-0.04,0.24-0.06,0.54-0.06,0.82v5.161h-1.761V41.896z"/>
						<path fill="#FFFFFF" d="M740.314,41.495c0-1.021-0.04-1.82-0.08-2.62h1.541l0.08,1.58h0.06c0.54-0.92,1.44-1.78,3.061-1.78
							c1.301,0,2.301,0.8,2.721,1.94h0.04c0.3-0.561,0.7-0.961,1.101-1.261c0.58-0.439,1.2-0.68,2.12-0.68
							c1.301,0,3.201,0.84,3.201,4.2v5.682h-1.721v-5.461c0-1.881-0.7-2.98-2.101-2.98c-1.021,0-1.78,0.74-2.101,1.58
							c-0.08,0.26-0.14,0.56-0.14,0.88v5.981h-1.721v-5.801c0-1.541-0.68-2.641-2.021-2.641c-1.08,0-1.9,0.88-2.181,1.76
							c-0.1,0.24-0.14,0.561-0.14,0.86v5.821h-1.721V41.495z"/>
						<path fill="#FFFFFF" d="M758.955,36.154c0,0.6-0.42,1.08-1.12,1.08c-0.641,0-1.061-0.48-1.061-1.08
							c0-0.601,0.44-1.101,1.101-1.101C758.515,35.054,758.955,35.534,758.955,36.154z M756.994,48.557v-9.682h1.761v9.682H756.994z
							"/>
						<path fill="#FFFFFF" d="M763.795,36.554v2.321h2.521v1.34h-2.521v5.221c0,1.2,0.34,1.881,1.32,1.881
							c0.479,0,0.76-0.04,1.02-0.12l0.08,1.341c-0.34,0.119-0.88,0.239-1.56,0.239c-0.82,0-1.48-0.279-1.9-0.74
							c-0.48-0.54-0.681-1.4-0.681-2.54v-5.281h-1.5v-1.34h1.5v-1.801L763.795,36.554z"/>
						<path fill="#FFFFFF" d="M769.154,44.036c0.04,2.38,1.54,3.36,3.32,3.36c1.261,0,2.041-0.22,2.681-0.5l0.32,1.26
							c-0.62,0.28-1.7,0.62-3.24,0.62c-2.98,0-4.762-1.98-4.762-4.9c0-2.921,1.721-5.201,4.541-5.201
							c3.181,0,4.001,2.761,4.001,4.541c0,0.359-0.02,0.62-0.06,0.82H769.154z M774.315,42.775c0.021-1.101-0.46-2.841-2.44-2.841
							c-1.801,0-2.561,1.62-2.7,2.841H774.315z"/>
						<path fill="#FFFFFF" d="M789.335,48.217c-0.46,0.22-1.479,0.56-2.78,0.56c-2.921,0-4.821-1.98-4.821-4.94
							c0-2.98,2.041-5.161,5.201-5.161c1.041,0,1.961,0.26,2.44,0.52l-0.399,1.341c-0.42-0.221-1.08-0.46-2.041-0.46
							c-2.22,0-3.42,1.66-3.42,3.66c0,2.241,1.439,3.621,3.36,3.621c1,0,1.66-0.24,2.16-0.46L789.335,48.217z"/>
						<path fill="#FFFFFF" d="M798.195,46.236c0,0.84,0.04,1.66,0.14,2.32h-1.58l-0.14-1.221h-0.061
							c-0.54,0.761-1.58,1.44-2.96,1.44c-1.961,0-2.961-1.38-2.961-2.78c0-2.341,2.08-3.621,5.821-3.601v-0.2
							c0-0.78-0.22-2.24-2.2-2.221c-0.921,0-1.86,0.261-2.541,0.721l-0.4-1.181c0.801-0.5,1.98-0.84,3.201-0.84
							c2.961,0,3.681,2.021,3.681,3.94V46.236z M796.495,43.615c-1.921-0.04-4.101,0.301-4.101,2.181c0,1.16,0.76,1.681,1.64,1.681
							c1.28,0,2.101-0.801,2.381-1.62c0.06-0.2,0.08-0.4,0.08-0.561V43.615z"/>
						<path fill="#FFFFFF" d="M801.033,41.495c0-1.021-0.02-1.82-0.08-2.62h1.561l0.101,1.6h0.04c0.479-0.899,1.6-1.8,3.2-1.8
							c1.341,0,3.421,0.8,3.421,4.121v5.761h-1.761v-5.581c0-1.561-0.58-2.86-2.24-2.86c-1.141,0-2.04,0.819-2.36,1.8
							c-0.08,0.221-0.12,0.521-0.12,0.82v5.821h-1.761V41.495z"/>
						<path fill="#FFFFFF" d="M818.935,46.236c0,0.84,0.04,1.66,0.14,2.32h-1.58l-0.14-1.221h-0.061
							c-0.54,0.761-1.58,1.44-2.96,1.44c-1.961,0-2.961-1.38-2.961-2.78c0-2.341,2.08-3.621,5.821-3.601v-0.2
							c0-0.78-0.22-2.24-2.2-2.221c-0.921,0-1.86,0.261-2.541,0.721l-0.4-1.181c0.801-0.5,1.98-0.84,3.201-0.84
							c2.961,0,3.681,2.021,3.681,3.94V46.236z M817.234,43.615c-1.921-0.04-4.101,0.301-4.101,2.181c0,1.16,0.76,1.681,1.64,1.681
							c1.28,0,2.101-0.801,2.381-1.62c0.06-0.2,0.08-0.4,0.08-0.561V43.615z"/>
						<path fill="#FFFFFF" d="M821.772,34.354h1.761v14.203h-1.761V34.354z"/>
						<path fill="#FFFFFF" d="M828.453,36.154c0,0.6-0.42,1.08-1.12,1.08c-0.641,0-1.061-0.48-1.061-1.08
							c0-0.601,0.44-1.101,1.101-1.101C828.013,35.054,828.453,35.534,828.453,36.154z M826.492,48.557v-9.682h1.761v9.682H826.492z
							"/>
						<path fill="#FFFFFF" d="M830.072,47.536l4.36-5.701c0.44-0.54,0.841-1,1.28-1.521v-0.04h-5.241v-1.399h7.362v1.1l-4.321,5.621
							c-0.42,0.54-0.8,1.04-1.24,1.521v0.04h5.642v1.4h-7.842V47.536z"/>
						<path fill="#FFFFFF" d="M846.533,46.236c0,0.84,0.04,1.66,0.14,2.32h-1.58l-0.14-1.221h-0.061
							c-0.54,0.761-1.58,1.44-2.96,1.44c-1.961,0-2.961-1.38-2.961-2.78c0-2.341,2.08-3.621,5.821-3.601v-0.2
							c0-0.78-0.22-2.24-2.2-2.221c-0.921,0-1.86,0.261-2.541,0.721l-0.4-1.181c0.801-0.5,1.98-0.84,3.201-0.84
							c2.961,0,3.681,2.021,3.681,3.94V46.236z M844.833,43.615c-1.921-0.04-4.101,0.301-4.101,2.181c0,1.16,0.76,1.681,1.64,1.681
							c1.28,0,2.101-0.801,2.381-1.62c0.06-0.2,0.08-0.4,0.08-0.561V43.615z"/>
						<path fill="#FFFFFF" d="M849.371,41.896c0-1.141-0.02-2.121-0.08-3.021h1.541l0.08,1.92h0.06c0.44-1.3,1.521-2.12,2.7-2.12
							c0.181,0,0.32,0.02,0.48,0.04v1.66c-0.18-0.04-0.36-0.04-0.6-0.04c-1.24,0-2.121,0.92-2.361,2.24
							c-0.04,0.24-0.06,0.54-0.06,0.82v5.161h-1.761V41.896z"/>
						<path fill="#FFFFFF" d="M853.711,51.037c0.439-1.2,0.979-3.341,1.2-4.801l1.96-0.2c-0.479,1.7-1.36,3.921-1.92,4.861
							L853.711,51.037z"/>
						<path fill="#FFFFFF" d="M472.61,70.217c-0.46,0.22-1.48,0.56-2.78,0.56c-2.921,0-4.821-1.98-4.821-4.94
							c0-2.98,2.04-5.161,5.201-5.161c1.04,0,1.96,0.26,2.44,0.52l-0.4,1.341c-0.42-0.221-1.08-0.46-2.04-0.46
							c-2.221,0-3.421,1.66-3.421,3.66c0,2.241,1.44,3.621,3.361,3.621c1,0,1.66-0.24,2.16-0.46L472.61,70.217z"/>
						<path fill="#FFFFFF" d="M483.311,65.636c0,3.581-2.501,5.141-4.821,5.141c-2.601,0-4.641-1.92-4.641-4.98
							c0-3.221,2.14-5.121,4.801-5.121C481.43,60.675,483.311,62.695,483.311,65.636z M475.648,65.735
							c0,2.121,1.201,3.721,2.921,3.721c1.681,0,2.94-1.58,2.94-3.761c0-1.64-0.819-3.7-2.9-3.7
							C476.549,61.995,475.648,63.915,475.648,65.735z"/>
						<path fill="#FFFFFF" d="M485.528,63.495c0-1.021-0.02-1.82-0.08-2.62h1.561l0.101,1.6h0.04c0.479-0.899,1.6-1.8,3.2-1.8
							c1.341,0,3.421,0.8,3.421,4.121v5.761h-1.761v-5.581c0-1.561-0.58-2.86-2.24-2.86c-1.141,0-2.04,0.819-2.36,1.8
							c-0.08,0.221-0.12,0.521-0.12,0.82v5.821h-1.761V63.495z"/>
						<path fill="#FFFFFF" d="M504.97,56.354v11.702c0,0.86,0.04,1.841,0.08,2.501h-1.56l-0.08-1.681h-0.061
							c-0.52,1.08-1.681,1.9-3.261,1.9c-2.341,0-4.161-1.98-4.161-4.921c-0.02-3.221,2.001-5.181,4.342-5.181
							c1.5,0,2.48,0.7,2.92,1.46h0.04v-5.781H504.97z M503.229,64.815c0-0.22-0.02-0.521-0.08-0.74
							c-0.26-1.101-1.22-2.021-2.54-2.021c-1.82,0-2.9,1.601-2.9,3.721c0,1.961,0.979,3.581,2.86,3.581c1.18,0,2.261-0.8,2.58-2.101
							c0.061-0.24,0.08-0.48,0.08-0.76V64.815z"/>
						<path fill="#FFFFFF" d="M516.011,67.896c0,1.02,0.02,1.9,0.079,2.66h-1.56l-0.101-1.58h-0.04c-0.439,0.78-1.48,1.8-3.2,1.8
							c-1.521,0-3.341-0.859-3.341-4.24v-5.661h1.761v5.341c0,1.84,0.58,3.101,2.16,3.101c1.18,0,2-0.82,2.32-1.62
							c0.1-0.24,0.16-0.561,0.16-0.9v-5.921h1.761V67.896z"/>
						<path fill="#FFFFFF" d="M525.829,70.217c-0.46,0.22-1.479,0.56-2.78,0.56c-2.921,0-4.821-1.98-4.821-4.94
							c0-2.98,2.041-5.161,5.201-5.161c1.041,0,1.961,0.26,2.44,0.52l-0.399,1.341c-0.42-0.221-1.08-0.46-2.041-0.46
							c-2.22,0-3.42,1.66-3.42,3.66c0,2.241,1.439,3.621,3.36,3.621c1,0,1.66-0.24,2.16-0.46L525.829,70.217z"/>
						<path fill="#FFFFFF" d="M529.849,58.154c0,0.6-0.42,1.08-1.12,1.08c-0.641,0-1.061-0.48-1.061-1.08
							c0-0.601,0.44-1.101,1.101-1.101C529.408,57.054,529.849,57.534,529.849,58.154z M527.888,70.557v-9.682h1.761v9.682H527.888z
							"/>
						<path fill="#FFFFFF" d="M532.567,63.896c0-1.141-0.02-2.121-0.08-3.021h1.541l0.08,1.92h0.06c0.44-1.3,1.521-2.12,2.701-2.12
							c0.18,0,0.319,0.02,0.479,0.04v1.66c-0.18-0.04-0.36-0.04-0.6-0.04c-1.24,0-2.121,0.92-2.361,2.24
							c-0.04,0.24-0.06,0.54-0.06,0.82v5.161h-1.761V63.896z"/>
						<path fill="#FFFFFF" d="M536.908,73.037c0.439-1.2,0.979-3.341,1.2-4.801l1.96-0.2c-0.479,1.7-1.36,3.921-1.92,4.861
							L536.908,73.037z"/>
						<path fill="#FFFFFF" d="M554.77,56.354v11.702c0,0.86,0.04,1.841,0.08,2.501h-1.561l-0.079-1.681h-0.061
							c-0.52,1.08-1.681,1.9-3.261,1.9c-2.341,0-4.161-1.98-4.161-4.921c-0.02-3.221,2.001-5.181,4.342-5.181
							c1.5,0,2.48,0.7,2.92,1.46h0.04v-5.781H554.77z M553.029,64.815c0-0.22-0.02-0.521-0.08-0.74
							c-0.26-1.101-1.22-2.021-2.54-2.021c-1.82,0-2.9,1.601-2.9,3.721c0,1.961,0.979,3.581,2.86,3.581c1.18,0,2.261-0.8,2.58-2.101
							c0.061-0.24,0.08-0.48,0.08-0.76V64.815z"/>
						<path fill="#FFFFFF" d="M564.51,68.236c0,0.84,0.04,1.66,0.14,2.32h-1.58l-0.14-1.221h-0.061c-0.54,0.761-1.58,1.44-2.96,1.44
							c-1.961,0-2.961-1.38-2.961-2.78c0-2.341,2.08-3.621,5.821-3.601v-0.2c0-0.78-0.22-2.24-2.2-2.221
							c-0.921,0-1.86,0.261-2.541,0.721l-0.4-1.181c0.801-0.5,1.98-0.84,3.201-0.84c2.961,0,3.681,2.021,3.681,3.94V68.236z
							 M562.81,65.615c-1.921-0.04-4.101,0.301-4.101,2.181c0,1.16,0.76,1.681,1.64,1.681c1.28,0,2.101-0.801,2.381-1.62
							c0.06-0.2,0.08-0.4,0.08-0.561V65.615z"/>
						<path fill="#FFFFFF" d="M567.348,63.896c0-1.141-0.02-2.121-0.08-3.021h1.541l0.08,1.92h0.06c0.44-1.3,1.521-2.12,2.7-2.12
							c0.181,0,0.32,0.02,0.48,0.04v1.66c-0.18-0.04-0.36-0.04-0.6-0.04c-1.24,0-2.121,0.92-2.361,2.24
							c-0.04,0.24-0.06,0.54-0.06,0.82v5.161h-1.761V63.896z"/>
						<path fill="#FFFFFF" d="M573.968,56.354h1.761v14.203h-1.761V56.354z"/>
						<path fill="#FFFFFF" d="M579.668,66.036c0.04,2.38,1.54,3.36,3.32,3.36c1.261,0,2.041-0.22,2.681-0.5l0.32,1.26
							c-0.62,0.28-1.7,0.62-3.24,0.62c-2.98,0-4.762-1.98-4.762-4.9c0-2.921,1.721-5.201,4.541-5.201
							c3.181,0,4.001,2.761,4.001,4.541c0,0.359-0.02,0.62-0.06,0.82H579.668z M584.829,64.775c0.021-1.101-0.46-2.841-2.44-2.841
							c-1.801,0-2.561,1.62-2.7,2.841H584.829z"/>
						<path fill="#FFFFFF" d="M595.068,58.554v2.321h2.521v1.34h-2.521v5.221c0,1.2,0.34,1.881,1.32,1.881
							c0.479,0,0.76-0.04,1.02-0.12l0.08,1.341c-0.34,0.119-0.88,0.239-1.56,0.239c-0.82,0-1.48-0.279-1.9-0.74
							c-0.48-0.54-0.681-1.4-0.681-2.54v-5.281h-1.5v-1.34h1.5v-1.801L595.068,58.554z"/>
						<path fill="#FFFFFF" d="M599.567,63.896c0-1.141-0.02-2.121-0.08-3.021h1.541l0.08,1.92h0.06c0.44-1.3,1.521-2.12,2.701-2.12
							c0.18,0,0.319,0.02,0.479,0.04v1.66c-0.18-0.04-0.36-0.04-0.6-0.04c-1.24,0-2.121,0.92-2.361,2.24
							c-0.04,0.24-0.06,0.54-0.06,0.82v5.161h-1.761V63.896z"/>
						<path fill="#FFFFFF" d="M612.81,68.236c0,0.84,0.04,1.66,0.14,2.32h-1.58l-0.14-1.221h-0.061c-0.54,0.761-1.58,1.44-2.96,1.44
							c-1.961,0-2.961-1.38-2.961-2.78c0-2.341,2.08-3.621,5.821-3.601v-0.2c0-0.78-0.22-2.24-2.2-2.221
							c-0.921,0-1.86,0.261-2.541,0.721l-0.4-1.181c0.801-0.5,1.98-0.84,3.201-0.84c2.961,0,3.681,2.021,3.681,3.94V68.236z
							 M611.109,65.615c-1.921-0.04-4.101,0.301-4.101,2.181c0,1.16,0.76,1.681,1.64,1.681c1.28,0,2.101-0.801,2.381-1.62
							c0.06-0.2,0.08-0.4,0.08-0.561V65.615z M611.989,56.693l-2.44,2.861h-1.24l1.74-2.861H611.989z"/>
						<path fill="#FFFFFF" d="M615.647,63.495c0-1.021-0.04-1.82-0.08-2.62h1.541l0.08,1.58h0.06c0.54-0.92,1.44-1.78,3.061-1.78
							c1.301,0,2.301,0.8,2.721,1.94h0.04c0.3-0.561,0.7-0.961,1.101-1.261c0.58-0.439,1.2-0.68,2.12-0.68
							c1.301,0,3.201,0.84,3.201,4.2v5.682h-1.721v-5.461c0-1.881-0.7-2.98-2.101-2.98c-1.021,0-1.78,0.74-2.101,1.58
							c-0.08,0.26-0.14,0.56-0.14,0.88v5.981h-1.721v-5.801c0-1.541-0.68-2.641-2.021-2.641c-1.08,0-1.9,0.88-2.181,1.76
							c-0.1,0.24-0.14,0.561-0.14,0.86v5.821h-1.721V63.495z"/>
						<path fill="#FFFFFF" d="M634.288,58.154c0,0.6-0.42,1.08-1.12,1.08c-0.641,0-1.061-0.48-1.061-1.08
							c0-0.601,0.44-1.101,1.101-1.101C633.848,57.054,634.288,57.534,634.288,58.154z M632.327,70.557v-9.682h1.761v9.682H632.327z
							"/>
						<path fill="#FFFFFF" d="M639.128,58.554v2.321h2.521v1.34h-2.521v5.221c0,1.2,0.34,1.881,1.32,1.881
							c0.479,0,0.76-0.04,1.02-0.12l0.08,1.341c-0.34,0.119-0.88,0.239-1.56,0.239c-0.82,0-1.48-0.279-1.9-0.74
							c-0.48-0.54-0.681-1.4-0.681-2.54v-5.281h-1.5v-1.34h1.5v-1.801L639.128,58.554z"/>
						<path fill="#FFFFFF" d="M644.487,66.036c0.04,2.38,1.54,3.36,3.321,3.36c1.26,0,2.04-0.22,2.68-0.5l0.32,1.26
							c-0.62,0.28-1.7,0.62-3.24,0.62c-2.98,0-4.762-1.98-4.762-4.9c0-2.921,1.721-5.201,4.541-5.201
							c3.181,0,4.001,2.761,4.001,4.541c0,0.359-0.02,0.62-0.06,0.82H644.487z M649.648,64.775c0.021-1.101-0.46-2.841-2.44-2.841
							c-1.801,0-2.561,1.62-2.7,2.841H649.648z"/>
						<path fill="#FFFFFF" d="M658.747,66.036c0.04,2.38,1.54,3.36,3.321,3.36c1.26,0,2.04-0.22,2.68-0.5l0.32,1.26
							c-0.62,0.28-1.7,0.62-3.24,0.62c-2.98,0-4.762-1.98-4.762-4.9c0-2.921,1.721-5.201,4.541-5.201
							c3.181,0,4.001,2.761,4.001,4.541c0,0.359-0.02,0.62-0.06,0.82H658.747z M663.908,64.775c0.021-1.101-0.46-2.841-2.44-2.841
							c-1.801,0-2.561,1.62-2.7,2.841H663.908z"/>
						<path fill="#FFFFFF" d="M673.987,58.154c0,0.6-0.42,1.08-1.12,1.08c-0.641,0-1.061-0.48-1.061-1.08
							c0-0.601,0.44-1.101,1.101-1.101C673.547,57.054,673.987,57.534,673.987,58.154z M672.026,70.557v-9.682h1.761v9.682H672.026z
							"/>
						<path fill="#FFFFFF" d="M676.706,63.495c0-1.021-0.02-1.82-0.08-2.62h1.561l0.101,1.6h0.04c0.479-0.899,1.6-1.8,3.2-1.8
							c1.341,0,3.421,0.8,3.421,4.121v5.761h-1.761v-5.581c0-1.561-0.58-2.86-2.24-2.86c-1.141,0-2.04,0.819-2.36,1.8
							c-0.08,0.221-0.12,0.521-0.12,0.82v5.821h-1.761V63.495z"/>
						<path fill="#FFFFFF" d="M689.847,58.554v2.321h2.521v1.34h-2.521v5.221c0,1.2,0.34,1.881,1.32,1.881
							c0.479,0,0.76-0.04,1.02-0.12l0.08,1.341c-0.34,0.119-0.88,0.239-1.56,0.239c-0.82,0-1.48-0.279-1.9-0.74
							c-0.48-0.54-0.681-1.4-0.681-2.54v-5.281h-1.5v-1.34h1.5v-1.801L689.847,58.554z"/>
						<path fill="#FFFFFF" d="M695.206,66.036c0.04,2.38,1.54,3.36,3.321,3.36c1.26,0,2.04-0.22,2.68-0.5l0.32,1.26
							c-0.62,0.28-1.7,0.62-3.24,0.62c-2.98,0-4.762-1.98-4.762-4.9c0-2.921,1.721-5.201,4.541-5.201
							c3.181,0,4.001,2.761,4.001,4.541c0,0.359-0.02,0.62-0.06,0.82H695.206z M700.367,64.775c0.021-1.101-0.46-2.841-2.44-2.841
							c-1.801,0-2.561,1.62-2.7,2.841H700.367z"/>
						<path fill="#FFFFFF" d="M712.527,69.137c0,2.24-0.46,3.58-1.381,4.44c-0.96,0.86-2.32,1.16-3.54,1.16
							c-1.16,0-2.44-0.28-3.221-0.8l0.439-1.36c0.641,0.42,1.641,0.78,2.841,0.78c1.801,0,3.121-0.94,3.121-3.401v-1.06h-0.04
							c-0.521,0.9-1.58,1.62-3.081,1.62c-2.4,0-4.121-2.04-4.121-4.721c0-3.281,2.141-5.121,4.381-5.121
							c1.681,0,2.581,0.86,3.021,1.66h0.04l0.06-1.46h1.561c-0.061,0.68-0.08,1.479-0.08,2.64V69.137z M710.767,64.695
							c0-0.3-0.02-0.56-0.1-0.78c-0.32-1.04-1.16-1.88-2.461-1.88c-1.68,0-2.88,1.42-2.88,3.66c0,1.9,0.979,3.481,2.86,3.481
							c1.1,0,2.08-0.681,2.44-1.801c0.1-0.3,0.14-0.641,0.14-0.94V64.695z"/>
						<path fill="#FFFFFF" d="M715.305,63.896c0-1.141-0.02-2.121-0.08-3.021h1.541l0.08,1.92h0.06c0.44-1.3,1.521-2.12,2.7-2.12
							c0.181,0,0.32,0.02,0.48,0.04v1.66c-0.18-0.04-0.36-0.04-0.6-0.04c-1.24,0-2.121,0.92-2.361,2.24
							c-0.04,0.24-0.06,0.54-0.06,0.82v5.161h-1.761V63.896z"/>
						<path fill="#FFFFFF" d="M728.547,68.236c0,0.84,0.04,1.66,0.14,2.32h-1.58l-0.14-1.221h-0.061
							c-0.54,0.761-1.58,1.44-2.96,1.44c-1.961,0-2.961-1.38-2.961-2.78c0-2.341,2.08-3.621,5.821-3.601v-0.2
							c0-0.78-0.22-2.24-2.2-2.221c-0.921,0-1.86,0.261-2.541,0.721l-0.4-1.181c0.801-0.5,1.98-0.84,3.201-0.84
							c2.961,0,3.681,2.021,3.681,3.94V68.236z M726.847,65.615c-1.921-0.04-4.101,0.301-4.101,2.181c0,1.16,0.76,1.681,1.64,1.681
							c1.28,0,2.101-0.801,2.381-1.62c0.06-0.2,0.08-0.4,0.08-0.561V65.615z"/>
						<path fill="#FFFFFF" d="M731.385,63.896c0-1.141-0.02-2.121-0.08-3.021h1.541l0.08,1.92h0.06c0.44-1.3,1.521-2.12,2.7-2.12
							c0.181,0,0.32,0.02,0.48,0.04v1.66c-0.18-0.04-0.36-0.04-0.6-0.04c-1.24,0-2.121,0.92-2.361,2.24
							c-0.04,0.24-0.06,0.54-0.06,0.82v5.161h-1.761V63.896z"/>
						<path fill="#FFFFFF" d="M742.165,56.354h1.761v14.203h-1.761V56.354z"/>
						<path fill="#FFFFFF" d="M753.687,68.236c0,0.84,0.04,1.66,0.14,2.32h-1.58l-0.14-1.221h-0.061
							c-0.54,0.761-1.58,1.44-2.96,1.44c-1.961,0-2.961-1.38-2.961-2.78c0-2.341,2.08-3.621,5.821-3.601v-0.2
							c0-0.78-0.22-2.24-2.2-2.221c-0.921,0-1.86,0.261-2.541,0.721l-0.4-1.181c0.801-0.5,1.98-0.84,3.201-0.84
							c2.961,0,3.681,2.021,3.681,3.94V68.236z M751.986,65.615c-1.921-0.04-4.101,0.301-4.101,2.181c0,1.16,0.76,1.681,1.64,1.681
							c1.28,0,2.101-0.801,2.381-1.62c0.06-0.2,0.08-0.4,0.08-0.561V65.615z"/>
						<path fill="#FFFFFF" d="M756.285,68.776c0.54,0.32,1.46,0.68,2.34,0.68c1.261,0,1.86-0.62,1.86-1.44
							c0-0.84-0.5-1.28-1.78-1.76c-1.76-0.641-2.58-1.58-2.58-2.741c0-1.56,1.28-2.84,3.341-2.84c0.979,0,1.84,0.26,2.36,0.6
							l-0.42,1.28c-0.381-0.24-1.081-0.58-1.98-0.58c-1.041,0-1.601,0.601-1.601,1.32c0,0.801,0.56,1.16,1.82,1.66
							c1.66,0.62,2.54,1.461,2.54,2.901c0,1.72-1.34,2.92-3.601,2.92c-1.06,0-2.04-0.279-2.721-0.68L756.285,68.776z"/>
						<path fill="#FFFFFF" d="M769.665,66.036c0.04,2.38,1.54,3.36,3.321,3.36c1.26,0,2.04-0.22,2.68-0.5l0.32,1.26
							c-0.62,0.28-1.7,0.62-3.24,0.62c-2.98,0-4.762-1.98-4.762-4.9c0-2.921,1.721-5.201,4.541-5.201
							c3.181,0,4.001,2.761,4.001,4.541c0,0.359-0.02,0.62-0.06,0.82H769.665z M774.826,64.775c0.021-1.101-0.46-2.841-2.44-2.841
							c-1.801,0-2.561,1.62-2.7,2.841H774.826z"/>
						<path fill="#FFFFFF" d="M778.704,63.495c0-1.021-0.04-1.82-0.08-2.62h1.541l0.08,1.58h0.06c0.54-0.92,1.44-1.78,3.061-1.78
							c1.301,0,2.301,0.8,2.721,1.94h0.04c0.3-0.561,0.7-0.961,1.101-1.261c0.58-0.439,1.2-0.68,2.12-0.68
							c1.301,0,3.201,0.84,3.201,4.2v5.682h-1.721v-5.461c0-1.881-0.7-2.98-2.101-2.98c-1.021,0-1.78,0.74-2.101,1.58
							c-0.08,0.26-0.14,0.56-0.14,0.88v5.981h-1.721v-5.801c0-1.541-0.68-2.641-2.021-2.641c-1.08,0-1.9,0.88-2.181,1.76
							c-0.1,0.24-0.14,0.561-0.14,0.86v5.821h-1.721V63.495z"/>
						<path fill="#FFFFFF" d="M804.146,65.636c0,3.581-2.501,5.141-4.821,5.141c-2.601,0-4.642-1.92-4.642-4.98
							c0-3.221,2.141-5.121,4.802-5.121C802.266,60.675,804.146,62.695,804.146,65.636z M796.484,65.735
							c0,2.121,1.2,3.721,2.921,3.721c1.68,0,2.94-1.58,2.94-3.761c0-1.64-0.82-3.7-2.9-3.7
							C797.385,61.995,796.484,63.915,796.484,65.735z"/>
						<path fill="#FFFFFF" d="M813.265,70.217c-0.46,0.22-1.479,0.56-2.78,0.56c-2.921,0-4.821-1.98-4.821-4.94
							c0-2.98,2.041-5.161,5.201-5.161c1.041,0,1.961,0.26,2.44,0.52l-0.399,1.341c-0.42-0.221-1.08-0.46-2.041-0.46
							c-2.22,0-3.42,1.66-3.42,3.66c0,2.241,1.439,3.621,3.36,3.621c1,0,1.66-0.24,2.16-0.46L813.265,70.217z"/>
						<path fill="#FFFFFF" d="M817.284,58.154c0,0.6-0.42,1.08-1.12,1.08c-0.641,0-1.061-0.48-1.061-1.08
							c0-0.601,0.44-1.101,1.101-1.101C816.844,57.054,817.284,57.534,817.284,58.154z M815.323,70.557v-9.682h1.761v9.682H815.323z
							"/>
						<path fill="#FFFFFF" d="M828.766,65.636c0,3.581-2.501,5.141-4.821,5.141c-2.601,0-4.642-1.92-4.642-4.98
							c0-3.221,2.141-5.121,4.802-5.121C826.885,60.675,828.766,62.695,828.766,65.636z M821.104,65.735
							c0,2.121,1.2,3.721,2.921,3.721c1.68,0,2.94-1.58,2.94-3.761c0-1.64-0.82-3.7-2.9-3.7
							C822.004,61.995,821.104,63.915,821.104,65.735z"/>
						<path fill="#FFFFFF" d="M830.982,63.495c0-1.021-0.02-1.82-0.08-2.62h1.561l0.101,1.6h0.04c0.479-0.899,1.6-1.8,3.2-1.8
							c1.341,0,3.421,0.8,3.421,4.121v5.761h-1.761v-5.581c0-1.561-0.58-2.86-2.24-2.86c-1.141,0-2.04,0.819-2.36,1.8
							c-0.08,0.221-0.12,0.521-0.12,0.82v5.821h-1.761V63.495z"/>
						<path fill="#FFFFFF" d="M843.062,66.036c0.04,2.38,1.54,3.36,3.32,3.36c1.261,0,2.041-0.22,2.681-0.5l0.32,1.26
							c-0.62,0.28-1.7,0.62-3.24,0.62c-2.98,0-4.762-1.98-4.762-4.9c0-2.921,1.721-5.201,4.541-5.201
							c3.181,0,4.001,2.761,4.001,4.541c0,0.359-0.02,0.62-0.06,0.82H843.062z M848.224,64.775c0.021-1.101-0.46-2.841-2.44-2.841
							c-1.801,0-2.561,1.62-2.7,2.841H848.224z"/>
						<path fill="#FFFFFF" d="M851.862,68.776c0.54,0.32,1.46,0.68,2.34,0.68c1.261,0,1.86-0.62,1.86-1.44
							c0-0.84-0.5-1.28-1.78-1.76c-1.76-0.641-2.58-1.58-2.58-2.741c0-1.56,1.28-2.84,3.341-2.84c0.979,0,1.84,0.26,2.36,0.6
							l-0.42,1.28c-0.381-0.24-1.081-0.58-1.98-0.58c-1.041,0-1.601,0.601-1.601,1.32c0,0.801,0.56,1.16,1.82,1.66
							c1.66,0.62,2.54,1.461,2.54,2.901c0,1.72-1.34,2.92-3.601,2.92c-1.06,0-2.04-0.279-2.721-0.68L851.862,68.776z"/>
						<path fill="#FFFFFF" d="M507.72,78.354v11.702c0,0.86,0.04,1.841,0.08,2.501h-1.56l-0.08-1.681H506.1
							c-0.52,1.08-1.681,1.9-3.261,1.9c-2.341,0-4.161-1.98-4.161-4.921c-0.02-3.221,2.001-5.181,4.342-5.181
							c1.5,0,2.48,0.7,2.92,1.46h0.04v-5.781H507.72z M505.979,86.815c0-0.22-0.02-0.521-0.08-0.74
							c-0.26-1.101-1.22-2.021-2.54-2.021c-1.82,0-2.9,1.601-2.9,3.721c0,1.961,0.979,3.581,2.86,3.581c1.18,0,2.261-0.8,2.58-2.101
							c0.061-0.24,0.08-0.48,0.08-0.76V86.815z"/>
						<path fill="#FFFFFF" d="M519.421,87.636c0,3.581-2.501,5.141-4.821,5.141c-2.601,0-4.642-1.92-4.642-4.98
							c0-3.221,2.141-5.121,4.802-5.121C517.54,82.675,519.421,84.695,519.421,87.636z M511.759,87.735
							c0,2.121,1.2,3.721,2.921,3.721c1.68,0,2.94-1.58,2.94-3.761c0-1.64-0.82-3.7-2.9-3.7
							C512.659,83.995,511.759,85.915,511.759,87.735z"/>
						<path fill="#FFFFFF" d="M521.638,78.354h1.761v14.203h-1.761V78.354z"/>
						<path fill="#FFFFFF" d="M535.12,87.636c0,3.581-2.501,5.141-4.821,5.141c-2.601,0-4.642-1.92-4.642-4.98
							c0-3.221,2.141-5.121,4.802-5.121C533.239,82.675,535.12,84.695,535.12,87.636z M527.458,87.735
							c0,2.121,1.2,3.721,2.921,3.721c1.68,0,2.94-1.58,2.94-3.761c0-1.64-0.82-3.7-2.9-3.7
							C528.358,83.995,527.458,85.915,527.458,87.735z"/>
						<path fill="#FFFFFF" d="M537.337,85.896c0-1.141-0.02-2.121-0.08-3.021h1.541l0.08,1.92h0.06c0.44-1.3,1.521-2.12,2.701-2.12
							c0.18,0,0.319,0.02,0.479,0.04v1.66c-0.18-0.04-0.36-0.04-0.6-0.04c-1.24,0-2.121,0.92-2.361,2.24
							c-0.04,0.24-0.06,0.54-0.06,0.82v5.161h-1.761V85.896z"/>
						<path fill="#FFFFFF" d="M552.439,87.636c0,3.581-2.501,5.141-4.821,5.141c-2.601,0-4.642-1.92-4.642-4.98
							c0-3.221,2.141-5.121,4.802-5.121C550.559,82.675,552.439,84.695,552.439,87.636z M544.777,87.735
							c0,2.121,1.2,3.721,2.921,3.721c1.68,0,2.94-1.58,2.94-3.761c0-1.64-0.82-3.7-2.9-3.7
							C545.678,83.995,544.777,85.915,544.777,87.735z"/>
						<path fill="#FFFFFF" d="M554.417,90.776c0.54,0.32,1.46,0.68,2.34,0.68c1.261,0,1.86-0.62,1.86-1.44
							c0-0.84-0.5-1.28-1.78-1.76c-1.76-0.641-2.58-1.58-2.58-2.741c0-1.56,1.28-2.84,3.341-2.84c0.979,0,1.84,0.26,2.36,0.6
							l-0.42,1.28c-0.381-0.24-1.081-0.58-1.98-0.58c-1.041,0-1.601,0.601-1.601,1.32c0,0.801,0.56,1.16,1.82,1.66
							c1.66,0.62,2.54,1.461,2.54,2.901c0,1.72-1.34,2.92-3.601,2.92c-1.06,0-2.04-0.279-2.721-0.68L554.417,90.776z"/>
						<path fill="#FFFFFF" d="M569.378,90.236c0,0.84,0.04,1.66,0.14,2.32h-1.58l-0.14-1.221h-0.061
							c-0.54,0.761-1.58,1.44-2.96,1.44c-1.961,0-2.961-1.38-2.961-2.78c0-2.341,2.08-3.621,5.821-3.601v-0.2
							c0-0.78-0.22-2.24-2.2-2.221c-0.921,0-1.86,0.261-2.541,0.721l-0.4-1.181c0.801-0.5,1.98-0.84,3.201-0.84
							c2.961,0,3.681,2.021,3.681,3.94V90.236z M567.678,87.615c-1.921-0.04-4.101,0.301-4.101,2.181c0,1.16,0.76,1.681,1.64,1.681
							c1.28,0,2.101-0.801,2.381-1.62c0.06-0.2,0.08-0.4,0.08-0.561V87.615z"/>
						<path fill="#FFFFFF" d="M571.977,90.776c0.54,0.32,1.46,0.68,2.34,0.68c1.261,0,1.86-0.62,1.86-1.44
							c0-0.84-0.5-1.28-1.78-1.76c-1.76-0.641-2.58-1.58-2.58-2.741c0-1.56,1.28-2.84,3.341-2.84c0.979,0,1.84,0.26,2.36,0.6
							l-0.42,1.28c-0.381-0.24-1.081-0.58-1.98-0.58c-1.041,0-1.601,0.601-1.601,1.32c0,0.801,0.56,1.16,1.82,1.66
							c1.66,0.62,2.54,1.461,2.54,2.901c0,1.72-1.34,2.92-3.601,2.92c-1.06,0-2.04-0.279-2.721-0.68L571.977,90.776z"/>
						<path fill="#FFFFFF" d="M585.017,82.875l2.101,5.721c0.24,0.641,0.479,1.4,0.64,1.98h0.04c0.181-0.58,0.38-1.32,0.62-2.021
							l1.921-5.681h1.86l-2.641,6.901c-1.261,3.32-2.121,5.001-3.321,6.061c-0.88,0.74-1.72,1.041-2.16,1.121l-0.44-1.461
							c0.44-0.14,1.021-0.42,1.541-0.86c0.479-0.38,1.06-1.06,1.48-1.96c0.08-0.18,0.14-0.32,0.14-0.42c0-0.101-0.04-0.24-0.14-0.46
							l-3.562-8.922H585.017z"/>
						<path fill="#FFFFFF" d="M606.378,78.354v11.702c0,0.86,0.04,1.841,0.08,2.501h-1.56l-0.08-1.681h-0.061
							c-0.52,1.08-1.681,1.9-3.261,1.9c-2.341,0-4.161-1.98-4.161-4.921c-0.02-3.221,2.001-5.181,4.342-5.181
							c1.5,0,2.48,0.7,2.92,1.46h0.04v-5.781H606.378z M604.638,86.815c0-0.22-0.02-0.521-0.08-0.74
							c-0.26-1.101-1.22-2.021-2.54-2.021c-1.82,0-2.9,1.601-2.9,3.721c0,1.961,0.979,3.581,2.86,3.581c1.18,0,2.261-0.8,2.58-2.101
							c0.061-0.24,0.08-0.48,0.08-0.76V86.815z"/>
						<path fill="#FFFFFF" d="M611.277,80.154c0,0.6-0.42,1.08-1.12,1.08c-0.641,0-1.061-0.48-1.061-1.08
							c0-0.601,0.44-1.101,1.101-1.101C610.837,79.054,611.277,79.534,611.277,80.154z M609.316,92.557v-9.682h1.761v9.682H609.316z
							"/>
						<path fill="#FFFFFF" d="M614.177,92.557v-8.342h-1.341v-1.34h1.341v-0.461c0-1.36,0.319-2.601,1.12-3.38
							c0.66-0.641,1.54-0.9,2.36-0.9c0.64,0,1.16,0.14,1.5,0.28l-0.239,1.359c-0.261-0.119-0.601-0.22-1.121-0.22
							c-1.5,0-1.88,1.301-1.88,2.801v0.521h2.341v1.34h-2.341v8.342H614.177z"/>
						<path fill="#FFFFFF" d="M623.417,78.693l-2.44,2.861h-1.24l1.761-2.861H623.417z M619.836,92.557v-9.682h1.761v9.682H619.836z
							"/>
						<path fill="#FFFFFF" d="M631.417,92.217c-0.46,0.22-1.479,0.56-2.78,0.56c-2.921,0-4.821-1.98-4.821-4.94
							c0-2.98,2.041-5.161,5.201-5.161c1.041,0,1.961,0.26,2.44,0.52l-0.399,1.341c-0.42-0.221-1.08-0.46-2.041-0.46
							c-2.22,0-3.42,1.66-3.42,3.66c0,2.241,1.439,3.621,3.36,3.621c1,0,1.66-0.24,2.16-0.46L631.417,92.217z"/>
						<path fill="#FFFFFF" d="M635.437,80.154c0,0.6-0.42,1.08-1.12,1.08c-0.641,0-1.061-0.48-1.061-1.08
							c0-0.601,0.44-1.101,1.101-1.101C634.996,79.054,635.437,79.534,635.437,80.154z M633.476,92.557v-9.682h1.761v9.682H633.476z
							"/>
						<path fill="#FFFFFF" d="M638.155,78.354h1.761v14.203h-1.761V78.354z"/>
						<path fill="#FFFFFF" d="M643.855,88.036c0.04,2.38,1.54,3.36,3.32,3.36c1.261,0,2.041-0.22,2.681-0.5l0.32,1.26
							c-0.62,0.28-1.7,0.62-3.24,0.62c-2.98,0-4.762-1.98-4.762-4.9c0-2.921,1.721-5.201,4.541-5.201
							c3.181,0,4.001,2.761,4.001,4.541c0,0.359-0.02,0.62-0.06,0.82H643.855z M649.017,86.775c0.021-1.101-0.46-2.841-2.44-2.841
							c-1.801,0-2.561,1.62-2.7,2.841H649.017z"/>
						<path fill="#FFFFFF" d="M652.655,90.776c0.54,0.32,1.46,0.68,2.34,0.68c1.261,0,1.86-0.62,1.86-1.44
							c0-0.84-0.5-1.28-1.78-1.76c-1.76-0.641-2.58-1.58-2.58-2.741c0-1.56,1.28-2.84,3.341-2.84c0.979,0,1.84,0.26,2.36,0.6
							l-0.42,1.28c-0.381-0.24-1.081-0.58-1.98-0.58c-1.041,0-1.601,0.601-1.601,1.32c0,0.801,0.56,1.16,1.82,1.66
							c1.66,0.62,2.54,1.461,2.54,2.901c0,1.72-1.34,2.92-3.601,2.92c-1.06,0-2.04-0.279-2.721-0.68L652.655,90.776z"/>
						<path fill="#FFFFFF" d="M671.656,91.076h-0.04c-0.54,0.94-1.601,1.7-3.16,1.7c-2.261,0-4.102-1.94-4.102-4.881
							c0-3.641,2.341-5.221,4.381-5.221c1.501,0,2.501,0.74,2.981,1.66h0.04l0.06-1.46h1.66c-0.04,0.8-0.08,1.66-0.08,2.66v10.982
							h-1.74V91.076z M671.656,86.796c0-0.24-0.02-0.501-0.08-0.721c-0.28-1.08-1.2-2-2.521-2c-1.82,0-2.92,1.54-2.92,3.7
							c0,1.94,0.92,3.601,2.86,3.601c1.14,0,2.12-0.7,2.521-1.9c0.08-0.26,0.14-0.6,0.14-0.859V86.796z"/>
						<path fill="#FFFFFF" d="M684.417,89.896c0,1.02,0.02,1.9,0.079,2.66h-1.56l-0.101-1.58h-0.04c-0.439,0.78-1.48,1.8-3.2,1.8
							c-1.521,0-3.341-0.859-3.341-4.24v-5.661h1.761v5.341c0,1.84,0.58,3.101,2.16,3.101c1.18,0,2-0.82,2.32-1.62
							c0.1-0.24,0.16-0.561,0.16-0.9v-5.921h1.761V89.896z"/>
						<path fill="#FFFFFF" d="M688.314,88.036c0.04,2.38,1.54,3.36,3.32,3.36c1.261,0,2.041-0.22,2.681-0.5l0.32,1.26
							c-0.62,0.28-1.7,0.62-3.24,0.62c-2.98,0-4.762-1.98-4.762-4.9c0-2.921,1.721-5.201,4.541-5.201
							c3.181,0,4.001,2.761,4.001,4.541c0,0.359-0.02,0.62-0.06,0.82H688.314z M693.476,86.775c0.021-1.101-0.46-2.841-2.44-2.841
							c-1.801,0-2.561,1.62-2.7,2.841H693.476z"/>
						<path fill="#FFFFFF" d="M701.594,78.354h1.761v6.062h0.04c0.28-0.5,0.72-0.96,1.26-1.261c0.521-0.3,1.141-0.479,1.801-0.479
							c1.301,0,3.381,0.8,3.381,4.121v5.761h-1.761v-5.562c0-1.56-0.58-2.86-2.24-2.86c-1.141,0-2.021,0.8-2.36,1.74
							c-0.101,0.261-0.12,0.521-0.12,0.841v5.841h-1.761V78.354z"/>
						<path fill="#FFFFFF" d="M719.495,90.236c0,0.84,0.04,1.66,0.14,2.32h-1.58l-0.14-1.221h-0.061
							c-0.54,0.761-1.58,1.44-2.96,1.44c-1.961,0-2.961-1.38-2.961-2.78c0-2.341,2.08-3.621,5.821-3.601v-0.2
							c0-0.78-0.22-2.24-2.2-2.221c-0.921,0-1.86,0.261-2.541,0.721l-0.4-1.181c0.801-0.5,1.98-0.84,3.201-0.84
							c2.961,0,3.681,2.021,3.681,3.94V90.236z M717.795,87.615c-1.921-0.04-4.101,0.301-4.101,2.181c0,1.16,0.76,1.681,1.64,1.681
							c1.28,0,2.101-0.801,2.381-1.62c0.06-0.2,0.08-0.4,0.08-0.561V87.615z"/>
						<path fill="#FFFFFF" d="M722.333,85.495c0-1.021-0.02-1.82-0.08-2.62h1.561l0.101,1.6h0.04c0.479-0.899,1.6-1.8,3.2-1.8
							c1.341,0,3.421,0.8,3.421,4.121v5.761h-1.761v-5.581c0-1.561-0.58-2.86-2.24-2.86c-1.141,0-2.04,0.819-2.36,1.8
							c-0.08,0.221-0.12,0.521-0.12,0.82v5.821h-1.761V85.495z"/>
						<path fill="#FFFFFF" d="M737.434,90.776c0.54,0.32,1.46,0.68,2.34,0.68c1.261,0,1.86-0.62,1.86-1.44
							c0-0.84-0.5-1.28-1.78-1.76c-1.76-0.641-2.58-1.58-2.58-2.741c0-1.56,1.28-2.84,3.341-2.84c0.979,0,1.84,0.26,2.36,0.6
							l-0.42,1.28c-0.381-0.24-1.081-0.58-1.98-0.58c-1.041,0-1.601,0.601-1.601,1.32c0,0.801,0.56,1.16,1.82,1.66
							c1.66,0.62,2.54,1.461,2.54,2.901c0,1.72-1.34,2.92-3.601,2.92c-1.06,0-2.04-0.279-2.721-0.68L737.434,90.776z"/>
						<path fill="#FFFFFF" d="M753.695,89.896c0,1.02,0.02,1.9,0.079,2.66h-1.56l-0.101-1.58h-0.04c-0.439,0.78-1.48,1.8-3.2,1.8
							c-1.521,0-3.341-0.859-3.341-4.24v-5.661h1.761v5.341c0,1.84,0.58,3.101,2.16,3.101c1.18,0,2-0.82,2.32-1.62
							c0.1-0.24,0.16-0.561,0.16-0.9v-5.921h1.761V89.896z"/>
						<path fill="#FFFFFF" d="M756.612,85.896c0-1.141-0.02-2.121-0.08-3.021h1.541l0.08,1.92h0.06c0.44-1.3,1.521-2.12,2.701-2.12
							c0.18,0,0.319,0.02,0.479,0.04v1.66c-0.18-0.04-0.36-0.04-0.6-0.04c-1.24,0-2.121,0.92-2.361,2.24
							c-0.04,0.24-0.06,0.54-0.06,0.82v5.161h-1.761V85.896z"/>
						<path fill="#FFFFFF" d="M771.275,91.137c0,2.24-0.46,3.58-1.381,4.44c-0.96,0.86-2.32,1.16-3.54,1.16
							c-1.16,0-2.44-0.28-3.221-0.8l0.439-1.36c0.641,0.42,1.641,0.78,2.841,0.78c1.801,0,3.121-0.94,3.121-3.401v-1.06h-0.04
							c-0.521,0.9-1.58,1.62-3.081,1.62c-2.4,0-4.121-2.04-4.121-4.721c0-3.281,2.141-5.121,4.381-5.121
							c1.681,0,2.581,0.86,3.021,1.66h0.04l0.06-1.46h1.561c-0.061,0.68-0.08,1.479-0.08,2.64V91.137z M769.515,86.695
							c0-0.3-0.02-0.56-0.1-0.78c-0.32-1.04-1.16-1.88-2.461-1.88c-1.68,0-2.88,1.42-2.88,3.66c0,1.9,0.979,3.481,2.86,3.481
							c1.1,0,2.08-0.681,2.44-1.801c0.1-0.3,0.14-0.641,0.14-0.94V86.695z"/>
						<path fill="#FFFFFF" d="M776.014,80.154c0,0.6-0.42,1.08-1.12,1.08c-0.641,0-1.061-0.48-1.061-1.08
							c0-0.601,0.44-1.101,1.101-1.101C775.573,79.054,776.014,79.534,776.014,80.154z M774.053,92.557v-9.682h1.761v9.682H774.053z
							"/>
						<path fill="#FFFFFF" d="M787.074,78.354v11.702c0,0.86,0.04,1.841,0.08,2.501h-1.561l-0.079-1.681h-0.061
							c-0.52,1.08-1.681,1.9-3.261,1.9c-2.341,0-4.161-1.98-4.161-4.921c-0.02-3.221,2.001-5.181,4.342-5.181
							c1.5,0,2.48,0.7,2.92,1.46h0.04v-5.781H787.074z M785.334,86.815c0-0.22-0.02-0.521-0.08-0.74
							c-0.26-1.101-1.22-2.021-2.54-2.021c-1.82,0-2.9,1.601-2.9,3.721c0,1.961,0.979,3.581,2.86,3.581c1.18,0,2.261-0.8,2.58-2.101
							c0.061-0.24,0.08-0.48,0.08-0.76V86.815z"/>
						<path fill="#FFFFFF" d="M798.775,87.636c0,3.581-2.501,5.141-4.821,5.141c-2.601,0-4.642-1.92-4.642-4.98
							c0-3.221,2.141-5.121,4.802-5.121C796.895,82.675,798.775,84.695,798.775,87.636z M791.113,87.735
							c0,2.121,1.2,3.721,2.921,3.721c1.68,0,2.94-1.58,2.94-3.761c0-1.64-0.82-3.7-2.9-3.7
							C792.014,83.995,791.113,85.915,791.113,87.735z"/>
						<path fill="#FFFFFF" d="M806.213,88.036c0.04,2.38,1.54,3.36,3.32,3.36c1.261,0,2.041-0.22,2.681-0.5l0.32,1.26
							c-0.62,0.28-1.7,0.62-3.24,0.62c-2.98,0-4.762-1.98-4.762-4.9c0-2.921,1.721-5.201,4.541-5.201
							c3.181,0,4.001,2.761,4.001,4.541c0,0.359-0.02,0.62-0.06,0.82H806.213z M811.374,86.775c0.021-1.101-0.46-2.841-2.44-2.841
							c-1.801,0-2.561,1.62-2.7,2.841H811.374z"/>
						<path fill="#FFFFFF" d="M815.252,85.495c0-1.021-0.02-1.82-0.08-2.62h1.561l0.101,1.6h0.04c0.479-0.899,1.6-1.8,3.2-1.8
							c1.341,0,3.421,0.8,3.421,4.121v5.761h-1.761v-5.581c0-1.561-0.58-2.86-2.24-2.86c-1.141,0-2.04,0.819-2.36,1.8
							c-0.08,0.221-0.12,0.521-0.12,0.82v5.821h-1.761V85.495z"/>
						<path fill="#FFFFFF" d="M481.41,100.354v11.702c0,0.86,0.04,1.841,0.08,2.501h-1.561l-0.079-1.681h-0.061
							c-0.52,1.08-1.681,1.9-3.261,1.9c-2.34,0-4.16-1.98-4.16-4.921c-0.021-3.221,2-5.181,4.34-5.181c1.501,0,2.481,0.7,2.921,1.46
							h0.04v-5.781H481.41z M479.67,108.815c0-0.22-0.02-0.521-0.08-0.74c-0.26-1.101-1.22-2.021-2.54-2.021
							c-1.821,0-2.901,1.601-2.901,3.721c0,1.961,0.98,3.581,2.861,3.581c1.18,0,2.261-0.8,2.58-2.101
							c0.061-0.24,0.08-0.48,0.08-0.76V108.815z"/>
						<path fill="#FFFFFF" d="M485.329,110.036c0.04,2.38,1.54,3.36,3.321,3.36c1.26,0,2.04-0.22,2.68-0.5l0.32,1.26
							c-0.62,0.28-1.7,0.62-3.24,0.62c-2.98,0-4.762-1.98-4.762-4.9c0-2.921,1.721-5.201,4.541-5.201
							c3.181,0,4.001,2.761,4.001,4.541c0,0.359-0.02,0.62-0.06,0.82H485.329z M490.49,108.775c0.021-1.101-0.46-2.841-2.44-2.841
							c-1.801,0-2.561,1.62-2.7,2.841H490.49z"/>
						<path fill="#FFFFFF" d="M496.489,102.554v2.321h2.521v1.34h-2.521v5.221c0,1.2,0.34,1.881,1.32,1.881
							c0.479,0,0.76-0.04,1.02-0.12l0.08,1.341c-0.34,0.119-0.88,0.239-1.56,0.239c-0.82,0-1.48-0.279-1.9-0.74
							c-0.48-0.54-0.681-1.4-0.681-2.54v-5.281h-1.5v-1.34h1.5v-1.801L496.489,102.554z"/>
						<path fill="#FFFFFF" d="M501.849,110.036c0.04,2.38,1.54,3.36,3.321,3.36c1.26,0,2.04-0.22,2.68-0.5l0.32,1.26
							c-0.62,0.28-1.7,0.62-3.24,0.62c-2.98,0-4.762-1.98-4.762-4.9c0-2.921,1.721-5.201,4.541-5.201
							c3.181,0,4.001,2.761,4.001,4.541c0,0.359-0.02,0.62-0.06,0.82H501.849z M507.01,108.775c0.021-1.101-0.46-2.841-2.44-2.841
							c-1.801,0-2.561,1.62-2.7,2.841H507.01z"/>
						<path fill="#FFFFFF" d="M510.888,107.896c0-1.141-0.02-2.121-0.08-3.021h1.541l0.08,1.92h0.06c0.44-1.3,1.521-2.12,2.701-2.12
							c0.18,0,0.319,0.02,0.479,0.04v1.66c-0.18-0.04-0.36-0.04-0.6-0.04c-1.24,0-2.121,0.92-2.361,2.24
							c-0.04,0.24-0.06,0.54-0.06,0.82v5.161h-1.761V107.896z"/>
						<path fill="#FFFFFF" d="M517.508,107.495c0-1.021-0.04-1.82-0.08-2.62h1.541l0.08,1.58h0.06c0.54-0.92,1.44-1.78,3.061-1.78
							c1.301,0,2.301,0.8,2.721,1.94h0.04c0.3-0.561,0.7-0.961,1.101-1.261c0.58-0.439,1.2-0.68,2.12-0.68
							c1.301,0,3.201,0.84,3.201,4.2v5.682h-1.721v-5.461c0-1.881-0.7-2.98-2.101-2.98c-1.021,0-1.78,0.74-2.101,1.58
							c-0.08,0.26-0.14,0.56-0.14,0.88v5.981h-1.721v-5.801c0-1.541-0.68-2.641-2.021-2.641c-1.08,0-1.9,0.88-2.181,1.76
							c-0.1,0.24-0.14,0.561-0.14,0.86v5.821h-1.721V107.495z"/>
						<path fill="#FFFFFF" d="M536.148,102.154c0,0.6-0.42,1.08-1.12,1.08c-0.641,0-1.061-0.48-1.061-1.08
							c0-0.601,0.44-1.101,1.101-1.101C535.708,101.054,536.148,101.534,536.148,102.154z M534.188,114.557v-9.682h1.761v9.682
							H534.188z"/>
						<path fill="#FFFFFF" d="M538.867,107.495c0-1.021-0.02-1.82-0.08-2.62h1.561l0.101,1.6h0.04c0.479-0.899,1.6-1.8,3.2-1.8
							c1.341,0,3.421,0.8,3.421,4.121v5.761h-1.761v-5.581c0-1.561-0.58-2.86-2.24-2.86c-1.141,0-2.04,0.819-2.36,1.8
							c-0.08,0.221-0.12,0.521-0.12,0.82v5.821h-1.761V107.495z"/>
						<path fill="#FFFFFF" d="M556.769,112.236c0,0.84,0.04,1.66,0.14,2.32h-1.58l-0.14-1.221h-0.061
							c-0.54,0.761-1.58,1.44-2.96,1.44c-1.961,0-2.961-1.38-2.961-2.78c0-2.341,2.08-3.621,5.821-3.601v-0.2
							c0-0.78-0.22-2.24-2.2-2.221c-0.921,0-1.86,0.261-2.541,0.721l-0.4-1.181c0.801-0.5,1.98-0.84,3.201-0.84
							c2.961,0,3.681,2.021,3.681,3.94V112.236z M555.068,109.615c-1.921-0.04-4.101,0.301-4.101,2.181
							c0,1.16,0.76,1.681,1.64,1.681c1.28,0,2.101-0.801,2.381-1.62c0.06-0.2,0.08-0.4,0.08-0.561V109.615z"/>
						<path fill="#FFFFFF" d="M567.948,100.354v11.702c0,0.86,0.04,1.841,0.08,2.501h-1.56l-0.08-1.681h-0.061
							c-0.52,1.08-1.681,1.9-3.261,1.9c-2.341,0-4.161-1.98-4.161-4.921c-0.02-3.221,2.001-5.181,4.342-5.181
							c1.5,0,2.48,0.7,2.92,1.46h0.04v-5.781H567.948z M566.208,108.815c0-0.22-0.02-0.521-0.08-0.74
							c-0.26-1.101-1.22-2.021-2.54-2.021c-1.82,0-2.9,1.601-2.9,3.721c0,1.961,0.979,3.581,2.86,3.581c1.18,0,2.261-0.8,2.58-2.101
							c0.061-0.24,0.08-0.48,0.08-0.76V108.815z"/>
						<path fill="#FFFFFF" d="M577.688,112.236c0,0.84,0.04,1.66,0.14,2.32h-1.58l-0.14-1.221h-0.061
							c-0.54,0.761-1.58,1.44-2.96,1.44c-1.961,0-2.961-1.38-2.961-2.78c0-2.341,2.08-3.621,5.821-3.601v-0.2
							c0-0.78-0.22-2.24-2.2-2.221c-0.921,0-1.86,0.261-2.541,0.721l-0.4-1.181c0.801-0.5,1.98-0.84,3.201-0.84
							c2.961,0,3.681,2.021,3.681,3.94V112.236z M575.988,109.615c-1.921-0.04-4.101,0.301-4.101,2.181
							c0,1.16,0.76,1.681,1.64,1.681c1.28,0,2.101-0.801,2.381-1.62c0.06-0.2,0.08-0.4,0.08-0.561V109.615z"/>
						<path fill="#FFFFFF" d="M584.527,112.776c0.54,0.32,1.46,0.68,2.34,0.68c1.261,0,1.86-0.62,1.86-1.44
							c0-0.84-0.5-1.28-1.78-1.76c-1.76-0.641-2.58-1.58-2.58-2.741c0-1.56,1.28-2.84,3.341-2.84c0.979,0,1.84,0.26,2.36,0.6
							l-0.42,1.28c-0.381-0.24-1.081-0.58-1.98-0.58c-1.041,0-1.601,0.601-1.601,1.32c0,0.801,0.56,1.16,1.82,1.66
							c1.66,0.62,2.54,1.461,2.54,2.901c0,1.72-1.34,2.92-3.601,2.92c-1.06,0-2.04-0.279-2.721-0.68L584.527,112.776z"/>
						<path fill="#FFFFFF" d="M594.647,102.154c0,0.6-0.42,1.08-1.12,1.08c-0.641,0-1.061-0.48-1.061-1.08
							c0-0.601,0.44-1.101,1.101-1.101C594.207,101.054,594.647,101.534,594.647,102.154z M592.687,114.557v-9.682h1.761v9.682
							H592.687z"/>
						<path fill="#FFFFFF" d="M599.487,102.554v2.321h2.521v1.34h-2.521v5.221c0,1.2,0.34,1.881,1.32,1.881
							c0.479,0,0.76-0.04,1.02-0.12l0.08,1.341c-0.34,0.119-0.88,0.239-1.56,0.239c-0.82,0-1.48-0.279-1.9-0.74
							c-0.48-0.54-0.681-1.4-0.681-2.54v-5.281h-1.5v-1.34h1.5v-1.801L599.487,102.554z"/>
						<path fill="#FFFFFF" d="M612.089,111.896c0,1.02,0.02,1.9,0.079,2.66h-1.56l-0.101-1.58h-0.04c-0.439,0.78-1.48,1.8-3.2,1.8
							c-1.521,0-3.341-0.859-3.341-4.24v-5.661h1.761v5.341c0,1.84,0.58,3.101,2.16,3.101c1.18,0,2-0.82,2.32-1.62
							c0.1-0.24,0.16-0.561,0.16-0.9v-5.921h1.761V111.896z"/>
						<path fill="#FFFFFF" d="M621.808,112.236c0,0.84,0.04,1.66,0.14,2.32h-1.58l-0.14-1.221h-0.061
							c-0.54,0.761-1.58,1.44-2.96,1.44c-1.961,0-2.961-1.38-2.961-2.78c0-2.341,2.08-3.621,5.821-3.601v-0.2
							c0-0.78-0.22-2.24-2.2-2.221c-0.921,0-1.86,0.261-2.541,0.721l-0.4-1.181c0.801-0.5,1.98-0.84,3.201-0.84
							c2.961,0,3.681,2.021,3.681,3.94V112.236z M620.107,109.615c-1.921-0.04-4.101,0.301-4.101,2.181
							c0,1.16,0.76,1.681,1.64,1.681c1.28,0,2.101-0.801,2.381-1.62c0.06-0.2,0.08-0.4,0.08-0.561V109.615z"/>
						<path fill="#FFFFFF" d="M631.547,114.217c-0.46,0.22-1.479,0.56-2.78,0.56c-2.921,0-4.821-1.98-4.821-4.94
							c0-2.98,2.041-5.161,5.201-5.161c1.041,0,1.961,0.26,2.44,0.52l-0.399,1.341c-0.42-0.221-1.08-0.46-2.041-0.46
							c-2.22,0-3.42,1.66-3.42,3.66c0,2.241,1.439,3.621,3.36,3.621c1,0,1.66-0.24,2.16-0.46L631.547,114.217z"/>
						<path fill="#FFFFFF" d="M635.566,102.154c0,0.6-0.42,1.08-1.12,1.08c-0.641,0-1.061-0.48-1.061-1.08
							c0-0.601,0.44-1.101,1.101-1.101C635.126,101.054,635.566,101.534,635.566,102.154z M633.605,114.557v-9.682h1.761v9.682
							H633.605z"/>
						<path fill="#FFFFFF" d="M647.048,109.636c0,3.581-2.501,5.141-4.821,5.141c-2.601,0-4.642-1.92-4.642-4.98
							c0-3.221,2.141-5.121,4.802-5.121C645.167,104.675,647.048,106.695,647.048,109.636z M639.386,109.735
							c0,2.121,1.2,3.721,2.921,3.721c1.68,0,2.94-1.58,2.94-3.761c0-1.64-0.82-3.7-2.9-3.7
							C640.286,105.995,639.386,107.915,639.386,109.735z M644.947,100.693l-2.44,2.861h-1.24l1.74-2.861H644.947z"/>
						<path fill="#FFFFFF" d="M649.265,107.495c0-1.021-0.02-1.82-0.08-2.62h1.561l0.101,1.6h0.04c0.479-0.899,1.6-1.8,3.2-1.8
							c1.341,0,3.421,0.8,3.421,4.121v5.761h-1.761v-5.581c0-1.561-0.58-2.86-2.24-2.86c-1.141,0-2.04,0.819-2.36,1.8
							c-0.08,0.221-0.12,0.521-0.12,0.82v5.821h-1.761V107.495z"/>
						<path fill="#FFFFFF" d="M665.585,110.036c0.04,2.38,1.54,3.36,3.321,3.36c1.26,0,2.04-0.22,2.68-0.5l0.32,1.26
							c-0.62,0.28-1.7,0.62-3.24,0.62c-2.98,0-4.762-1.98-4.762-4.9c0-2.921,1.721-5.201,4.541-5.201
							c3.181,0,4.001,2.761,4.001,4.541c0,0.359-0.02,0.62-0.06,0.82H665.585z M670.746,108.775c0.021-1.101-0.46-2.841-2.44-2.841
							c-1.801,0-2.561,1.62-2.7,2.841H670.746z"/>
						<path fill="#FFFFFF" d="M674.624,107.495c0-1.021-0.04-1.82-0.08-2.62h1.541l0.08,1.58h0.06c0.54-0.92,1.44-1.78,3.061-1.78
							c1.301,0,2.301,0.8,2.721,1.94h0.04c0.3-0.561,0.7-0.961,1.101-1.261c0.58-0.439,1.2-0.68,2.12-0.68
							c1.301,0,3.201,0.84,3.201,4.2v5.682h-1.721v-5.461c0-1.881-0.7-2.98-2.101-2.98c-1.021,0-1.78,0.74-2.101,1.58
							c-0.08,0.26-0.14,0.56-0.14,0.88v5.981h-1.721v-5.801c0-1.541-0.68-2.641-2.021-2.641c-1.08,0-1.9,0.88-2.181,1.76
							c-0.1,0.24-0.14,0.561-0.14,0.86v5.821h-1.721V107.495z"/>
						<path fill="#FFFFFF" d="M700.066,109.636c0,3.581-2.501,5.141-4.821,5.141c-2.601,0-4.642-1.92-4.642-4.98
							c0-3.221,2.141-5.121,4.802-5.121C698.186,104.675,700.066,106.695,700.066,109.636z M692.404,109.735
							c0,2.121,1.2,3.721,2.921,3.721c1.68,0,2.94-1.58,2.94-3.761c0-1.64-0.82-3.7-2.9-3.7
							C693.305,105.995,692.404,107.915,692.404,109.735z"/>
						<path fill="#FFFFFF" d="M709.185,114.217c-0.46,0.22-1.479,0.56-2.78,0.56c-2.921,0-4.821-1.98-4.821-4.94
							c0-2.98,2.041-5.161,5.201-5.161c1.041,0,1.961,0.26,2.44,0.52l-0.399,1.341c-0.42-0.221-1.08-0.46-2.041-0.46
							c-2.22,0-3.42,1.66-3.42,3.66c0,2.241,1.439,3.621,3.36,3.621c1,0,1.66-0.24,2.16-0.46L709.185,114.217z"/>
						<path fill="#FFFFFF" d="M713.204,102.154c0,0.6-0.42,1.08-1.12,1.08c-0.641,0-1.061-0.48-1.061-1.08
							c0-0.601,0.44-1.101,1.101-1.101C712.764,101.054,713.204,101.534,713.204,102.154z M711.243,114.557v-9.682h1.761v9.682
							H711.243z"/>
						<path fill="#FFFFFF" d="M724.686,109.636c0,3.581-2.501,5.141-4.821,5.141c-2.601,0-4.642-1.92-4.642-4.98
							c0-3.221,2.141-5.121,4.802-5.121C722.805,104.675,724.686,106.695,724.686,109.636z M717.023,109.735
							c0,2.121,1.2,3.721,2.921,3.721c1.68,0,2.94-1.58,2.94-3.761c0-1.64-0.82-3.7-2.9-3.7
							C717.924,105.995,717.023,107.915,717.023,109.735z"/>
						<path fill="#FFFFFF" d="M726.902,107.495c0-1.021-0.02-1.82-0.08-2.62h1.561l0.101,1.6h0.04c0.479-0.899,1.6-1.8,3.2-1.8
							c1.341,0,3.421,0.8,3.421,4.121v5.761h-1.761v-5.581c0-1.561-0.58-2.86-2.24-2.86c-1.141,0-2.04,0.819-2.36,1.8
							c-0.08,0.221-0.12,0.521-0.12,0.82v5.821h-1.761V107.495z"/>
						<path fill="#FFFFFF" d="M744.804,112.236c0,0.84,0.04,1.66,0.14,2.32h-1.58l-0.14-1.221h-0.061
							c-0.54,0.761-1.58,1.44-2.96,1.44c-1.961,0-2.961-1.38-2.961-2.78c0-2.341,2.08-3.621,5.821-3.601v-0.2
							c0-0.78-0.22-2.24-2.2-2.221c-0.921,0-1.86,0.261-2.541,0.721l-0.4-1.181c0.801-0.5,1.98-0.84,3.201-0.84
							c2.961,0,3.681,2.021,3.681,3.94V112.236z M743.104,109.615c-1.921-0.04-4.101,0.301-4.101,2.181
							c0,1.16,0.76,1.681,1.64,1.681c1.28,0,2.101-0.801,2.381-1.62c0.06-0.2,0.08-0.4,0.08-0.561V109.615z"/>
						<path fill="#FFFFFF" d="M747.642,100.354h1.761v14.203h-1.761V100.354z"/>
						<path fill="#FFFFFF" d="M751.021,117.037c0.439-1.2,0.979-3.341,1.2-4.801l1.96-0.2c-0.479,1.7-1.36,3.921-1.92,4.861
							L751.021,117.037z"/>
						<path fill="#FFFFFF" d="M760.541,100.354h1.761v6.062h0.04c0.28-0.5,0.72-0.96,1.26-1.261c0.521-0.3,1.141-0.479,1.801-0.479
							c1.301,0,3.381,0.8,3.381,4.121v5.761h-1.761v-5.562c0-1.56-0.58-2.86-2.24-2.86c-1.141,0-2.021,0.8-2.36,1.74
							c-0.101,0.261-0.12,0.521-0.12,0.841v5.841h-1.761V100.354z"/>
						<path fill="#FFFFFF" d="M778.442,112.236c0,0.84,0.04,1.66,0.14,2.32h-1.58l-0.14-1.221h-0.061
							c-0.54,0.761-1.58,1.44-2.96,1.44c-1.961,0-2.961-1.38-2.961-2.78c0-2.341,2.08-3.621,5.821-3.601v-0.2
							c0-0.78-0.22-2.24-2.2-2.221c-0.921,0-1.86,0.261-2.541,0.721l-0.4-1.181c0.801-0.5,1.98-0.84,3.201-0.84
							c2.961,0,3.681,2.021,3.681,3.94V112.236z M776.742,109.615c-1.921-0.04-4.101,0.301-4.101,2.181
							c0,1.16,0.76,1.681,1.64,1.681c1.28,0,2.101-0.801,2.381-1.62c0.06-0.2,0.08-0.4,0.08-0.561V109.615z"/>
						<path fill="#FFFFFF" d="M788.182,114.217c-0.46,0.22-1.479,0.56-2.78,0.56c-2.921,0-4.821-1.98-4.821-4.94
							c0-2.98,2.041-5.161,5.201-5.161c1.041,0,1.961,0.26,2.44,0.52l-0.399,1.341c-0.42-0.221-1.08-0.46-2.041-0.46
							c-2.22,0-3.42,1.66-3.42,3.66c0,2.241,1.439,3.621,3.36,3.621c1,0,1.66-0.24,2.16-0.46L788.182,114.217z"/>
						<path fill="#FFFFFF" d="M792.201,102.154c0,0.6-0.42,1.08-1.12,1.08c-0.641,0-1.061-0.48-1.061-1.08
							c0-0.601,0.44-1.101,1.101-1.101C791.761,101.054,792.201,101.534,792.201,102.154z M790.24,114.557v-9.682h1.761v9.682
							H790.24z"/>
						<path fill="#FFFFFF" d="M795.9,110.036c0.04,2.38,1.54,3.36,3.32,3.36c1.261,0,2.041-0.22,2.681-0.5l0.32,1.26
							c-0.62,0.28-1.7,0.62-3.24,0.62c-2.98,0-4.762-1.98-4.762-4.9c0-2.921,1.721-5.201,4.541-5.201
							c3.181,0,4.001,2.761,4.001,4.541c0,0.359-0.02,0.62-0.06,0.82H795.9z M801.062,108.775c0.021-1.101-0.46-2.841-2.44-2.841
							c-1.801,0-2.561,1.62-2.7,2.841H801.062z M801.462,100.693l-2.44,2.861h-1.24l1.76-2.861H801.462z"/>
						<path fill="#FFFFFF" d="M804.939,107.495c0-1.021-0.02-1.82-0.08-2.62h1.561l0.101,1.6h0.04c0.479-0.899,1.6-1.8,3.2-1.8
							c1.341,0,3.421,0.8,3.421,4.121v5.761h-1.761v-5.581c0-1.561-0.58-2.86-2.24-2.86c-1.141,0-2.04,0.819-2.36,1.8
							c-0.08,0.221-0.12,0.521-0.12,0.82v5.821h-1.761V107.495z"/>
						<path fill="#FFFFFF" d="M824.381,100.354v11.702c0,0.86,0.04,1.841,0.08,2.501H822.9l-0.079-1.681h-0.061
							c-0.52,1.08-1.681,1.9-3.261,1.9c-2.341,0-4.161-1.98-4.161-4.921c-0.02-3.221,2.001-5.181,4.342-5.181
							c1.5,0,2.48,0.7,2.92,1.46h0.04v-5.781H824.381z M822.641,108.815c0-0.22-0.02-0.521-0.08-0.74
							c-0.26-1.101-1.22-2.021-2.54-2.021c-1.82,0-2.9,1.601-2.9,3.721c0,1.961,0.979,3.581,2.86,3.581c1.18,0,2.261-0.8,2.58-2.101
							c0.061-0.24,0.08-0.48,0.08-0.76V108.815z"/>
						<path fill="#FFFFFF" d="M836.082,109.636c0,3.581-2.501,5.141-4.821,5.141c-2.601,0-4.642-1.92-4.642-4.98
							c0-3.221,2.141-5.121,4.802-5.121C834.201,104.675,836.082,106.695,836.082,109.636z M828.42,109.735
							c0,2.121,1.2,3.721,2.921,3.721c1.68,0,2.94-1.58,2.94-3.761c0-1.64-0.82-3.7-2.9-3.7
							C829.32,105.995,828.42,107.915,828.42,109.735z"/>
						<path fill="#FFFFFF" d="M838.299,100.354h1.761v14.203h-1.761V100.354z"/>
						<path fill="#FFFFFF" d="M849.82,112.236c0,0.84,0.04,1.66,0.14,2.32h-1.58l-0.14-1.221h-0.061
							c-0.54,0.761-1.58,1.44-2.96,1.44c-1.961,0-2.961-1.38-2.961-2.78c0-2.341,2.08-3.621,5.821-3.601v-0.2
							c0-0.78-0.22-2.24-2.2-2.221c-0.921,0-1.86,0.261-2.541,0.721l-0.4-1.181c0.801-0.5,1.98-0.84,3.201-0.84
							c2.961,0,3.681,2.021,3.681,3.94V112.236z M848.12,109.615c-1.921-0.04-4.101,0.301-4.101,2.181c0,1.16,0.76,1.681,1.64,1.681
							c1.28,0,2.101-0.801,2.381-1.62c0.06-0.2,0.08-0.4,0.08-0.561V109.615z"/>
						<path fill="#FFFFFF" d="M531.647,129.495c0-1.021-0.04-1.82-0.08-2.62h1.541l0.08,1.58h0.06c0.54-0.92,1.44-1.78,3.061-1.78
							c1.301,0,2.301,0.8,2.721,1.94h0.04c0.3-0.561,0.7-0.961,1.101-1.261c0.58-0.439,1.2-0.68,2.12-0.68
							c1.301,0,3.201,0.84,3.201,4.2v5.682h-1.721v-5.461c0-1.881-0.7-2.98-2.101-2.98c-1.021,0-1.78,0.74-2.101,1.58
							c-0.08,0.26-0.14,0.56-0.14,0.88v5.981h-1.721v-5.801c0-1.541-0.68-2.641-2.021-2.641c-1.08,0-1.9,0.88-2.181,1.76
							c-0.1,0.24-0.14,0.561-0.14,0.86v5.821h-1.721V129.495z"/>
						<path fill="#FFFFFF" d="M555.129,134.236c0,0.84,0.04,1.66,0.14,2.32h-1.58l-0.14-1.221h-0.061
							c-0.54,0.761-1.58,1.44-2.96,1.44c-1.961,0-2.961-1.38-2.961-2.78c0-2.341,2.08-3.621,5.821-3.601v-0.2
							c0-0.78-0.22-2.24-2.2-2.221c-0.921,0-1.86,0.261-2.541,0.721l-0.4-1.181c0.801-0.5,1.98-0.84,3.201-0.84
							c2.961,0,3.681,2.021,3.681,3.94V134.236z M553.429,131.615c-1.921-0.04-4.101,0.301-4.101,2.181
							c0,1.16,0.76,1.681,1.64,1.681c1.28,0,2.101-0.801,2.381-1.62c0.06-0.2,0.08-0.4,0.08-0.561V131.615z M554.309,122.693
							l-2.44,2.861h-1.24l1.74-2.861H554.309z"/>
						<path fill="#FFFFFF" d="M557.728,134.776c0.54,0.32,1.46,0.68,2.34,0.68c1.261,0,1.86-0.62,1.86-1.44
							c0-0.84-0.5-1.28-1.78-1.76c-1.76-0.641-2.58-1.58-2.58-2.741c0-1.56,1.28-2.84,3.341-2.84c0.979,0,1.84,0.26,2.36,0.6
							l-0.42,1.28c-0.381-0.24-1.081-0.58-1.98-0.58c-1.041,0-1.601,0.601-1.601,1.32c0,0.801,0.56,1.16,1.82,1.66
							c1.66,0.62,2.54,1.461,2.54,2.901c0,1.72-1.34,2.92-3.601,2.92c-1.06,0-2.04-0.279-2.721-0.68L557.728,134.776z"/>
						<path fill="#FFFFFF" d="M570.127,129.495c0-1.021-0.04-1.82-0.08-2.62h1.541l0.08,1.58h0.06c0.54-0.92,1.44-1.78,3.061-1.78
							c1.301,0,2.301,0.8,2.721,1.94h0.04c0.3-0.561,0.7-0.961,1.101-1.261c0.58-0.439,1.2-0.68,2.12-0.68
							c1.301,0,3.201,0.84,3.201,4.2v5.682h-1.721v-5.461c0-1.881-0.7-2.98-2.101-2.98c-1.021,0-1.78,0.74-2.101,1.58
							c-0.08,0.26-0.14,0.56-0.14,0.88v5.981h-1.721v-5.801c0-1.541-0.68-2.641-2.021-2.641c-1.08,0-1.9,0.88-2.181,1.76
							c-0.1,0.24-0.14,0.561-0.14,0.86v5.821h-1.721V129.495z"/>
						<path fill="#FFFFFF" d="M593.608,134.236c0,0.84,0.04,1.66,0.14,2.32h-1.58l-0.14-1.221h-0.061
							c-0.54,0.761-1.58,1.44-2.96,1.44c-1.961,0-2.961-1.38-2.961-2.78c0-2.341,2.08-3.621,5.821-3.601v-0.2
							c0-0.78-0.22-2.24-2.2-2.221c-0.921,0-1.86,0.261-2.541,0.721l-0.4-1.181c0.801-0.5,1.98-0.84,3.201-0.84
							c2.961,0,3.681,2.021,3.681,3.94V134.236z M591.908,131.615c-1.921-0.04-4.101,0.301-4.101,2.181
							c0,1.16,0.76,1.681,1.64,1.681c1.28,0,2.101-0.801,2.381-1.62c0.06-0.2,0.08-0.4,0.08-0.561V131.615z"/>
						<path fill="#FFFFFF" d="M596.446,129.495c0-1.021-0.02-1.82-0.08-2.62h1.561l0.101,1.6h0.04c0.479-0.899,1.6-1.8,3.2-1.8
							c1.341,0,3.421,0.8,3.421,4.121v5.761h-1.761v-5.581c0-1.561-0.58-2.86-2.24-2.86c-1.141,0-2.04,0.819-2.36,1.8
							c-0.08,0.221-0.12,0.521-0.12,0.82v5.821h-1.761V129.495z"/>
						<path fill="#FFFFFF" d="M608.526,132.036c0.04,2.38,1.54,3.36,3.321,3.36c1.26,0,2.04-0.22,2.68-0.5l0.32,1.26
							c-0.62,0.28-1.7,0.62-3.24,0.62c-2.98,0-4.762-1.98-4.762-4.9c0-2.921,1.721-5.201,4.541-5.201
							c3.181,0,4.001,2.761,4.001,4.541c0,0.359-0.02,0.62-0.06,0.82H608.526z M613.688,130.775c0.021-1.101-0.46-2.841-2.44-2.841
							c-1.801,0-2.561,1.62-2.7,2.841H613.688z"/>
						<path fill="#FFFFFF" d="M615.186,139.397c0.82-0.061,1.5-0.28,1.92-0.761c0.48-0.54,0.681-1.3,0.681-3.62v-8.142h1.76v8.821
							c0,1.881-0.3,3.101-1.16,3.981c-0.78,0.779-2.061,1.1-3,1.1L615.186,139.397z M619.746,124.154c0,0.58-0.4,1.08-1.12,1.08
							c-0.64,0-1.061-0.5-1.061-1.08c0-0.601,0.44-1.101,1.101-1.101S619.746,123.554,619.746,124.154z"/>
						<path fill="#FFFFFF" d="M629.228,134.236c0,0.84,0.04,1.66,0.14,2.32h-1.58l-0.14-1.221h-0.061
							c-0.54,0.761-1.58,1.44-2.96,1.44c-1.961,0-2.961-1.38-2.961-2.78c0-2.341,2.08-3.621,5.821-3.601v-0.2
							c0-0.78-0.22-2.24-2.2-2.221c-0.921,0-1.86,0.261-2.541,0.721l-0.4-1.181c0.801-0.5,1.98-0.84,3.201-0.84
							c2.961,0,3.681,2.021,3.681,3.94V134.236z M627.527,131.615c-1.921-0.04-4.101,0.301-4.101,2.181
							c0,1.16,0.76,1.681,1.64,1.681c1.28,0,2.101-0.801,2.381-1.62c0.06-0.2,0.08-0.4,0.08-0.561V131.615z"/>
						<path fill="#FFFFFF" d="M632.065,122.354h1.741v6.081h0.039c0.62-1.08,1.741-1.76,3.301-1.76c2.421,0,4.102,2,4.102,4.921
							c0,3.461-2.201,5.181-4.361,5.181c-1.4,0-2.521-0.54-3.261-1.8h-0.04l-0.1,1.58h-1.501c0.04-0.66,0.08-1.641,0.08-2.501
							V122.354z M633.807,132.676c0,0.22,0.02,0.44,0.079,0.641c0.32,1.22,1.36,2.06,2.641,2.06c1.86,0,2.941-1.5,2.941-3.721
							c0-1.94-1.001-3.601-2.901-3.601c-1.18,0-2.3,0.84-2.66,2.16c-0.061,0.221-0.1,0.461-0.1,0.74V132.676z"/>
						<path fill="#FFFFFF" d="M643.445,122.354h1.761v14.203h-1.761V122.354z"/>
						<path fill="#FFFFFF" d="M649.146,132.036c0.04,2.38,1.54,3.36,3.321,3.36c1.26,0,2.04-0.22,2.68-0.5l0.32,1.26
							c-0.62,0.28-1.7,0.62-3.24,0.62c-2.98,0-4.762-1.98-4.762-4.9c0-2.921,1.721-5.201,4.541-5.201
							c3.181,0,4.001,2.761,4.001,4.541c0,0.359-0.02,0.62-0.06,0.82H649.146z M654.307,130.775c0.021-1.101-0.46-2.841-2.44-2.841
							c-1.801,0-2.561,1.62-2.7,2.841H654.307z"/>
						<path fill="#FFFFFF" d="M662.425,130.035c0-1.24-0.04-2.24-0.08-3.16h1.561l0.101,1.66h0.04c0.7-1.181,1.86-1.86,3.44-1.86
							c2.36,0,4.121,1.98,4.121,4.9c0,3.481-2.141,5.201-4.421,5.201c-1.28,0-2.4-0.56-2.981-1.52h-0.039v5.261h-1.741V130.035z
							 M664.166,132.616c0,0.26,0.02,0.5,0.079,0.72c0.32,1.221,1.381,2.061,2.641,2.061c1.86,0,2.941-1.521,2.941-3.741
							c0-1.92-1.021-3.58-2.881-3.58c-1.2,0-2.341,0.84-2.661,2.16c-0.06,0.22-0.119,0.48-0.119,0.7V132.616z"/>
						<path fill="#FFFFFF" d="M680.606,134.236c0,0.84,0.04,1.66,0.14,2.32h-1.58l-0.14-1.221h-0.061
							c-0.54,0.761-1.58,1.44-2.96,1.44c-1.961,0-2.961-1.38-2.961-2.78c0-2.341,2.08-3.621,5.821-3.601v-0.2
							c0-0.78-0.22-2.24-2.2-2.221c-0.921,0-1.86,0.261-2.541,0.721l-0.4-1.181c0.801-0.5,1.98-0.84,3.201-0.84
							c2.961,0,3.681,2.021,3.681,3.94V134.236z M678.906,131.615c-1.921-0.04-4.101,0.301-4.101,2.181
							c0,1.16,0.76,1.681,1.64,1.681c1.28,0,2.101-0.801,2.381-1.62c0.06-0.2,0.08-0.4,0.08-0.561V131.615z"/>
						<path fill="#FFFFFF" d="M683.444,129.896c0-1.141-0.02-2.121-0.08-3.021h1.541l0.08,1.92h0.06c0.44-1.3,1.521-2.12,2.701-2.12
							c0.18,0,0.319,0.02,0.479,0.04v1.66c-0.18-0.04-0.36-0.04-0.6-0.04c-1.24,0-2.121,0.92-2.361,2.24
							c-0.04,0.24-0.06,0.54-0.06,0.82v5.161h-1.761V129.896z"/>
						<path fill="#FFFFFF" d="M696.687,134.236c0,0.84,0.04,1.66,0.14,2.32h-1.58l-0.14-1.221h-0.061
							c-0.54,0.761-1.58,1.44-2.96,1.44c-1.961,0-2.961-1.38-2.961-2.78c0-2.341,2.08-3.621,5.821-3.601v-0.2
							c0-0.78-0.22-2.24-2.2-2.221c-0.921,0-1.86,0.261-2.541,0.721l-0.4-1.181c0.801-0.5,1.98-0.84,3.201-0.84
							c2.961,0,3.681,2.021,3.681,3.94V134.236z M694.986,131.615c-1.921-0.04-4.101,0.301-4.101,2.181
							c0,1.16,0.76,1.681,1.64,1.681c1.28,0,2.101-0.801,2.381-1.62c0.06-0.2,0.08-0.4,0.08-0.561V131.615z"/>
						<path fill="#FFFFFF" d="M703.765,122.354h1.761v14.203h-1.761V122.354z"/>
						<path fill="#FFFFFF" d="M715.286,134.236c0,0.84,0.04,1.66,0.14,2.32h-1.58l-0.14-1.221h-0.061
							c-0.54,0.761-1.58,1.44-2.96,1.44c-1.961,0-2.961-1.38-2.961-2.78c0-2.341,2.08-3.621,5.821-3.601v-0.2
							c0-0.78-0.22-2.24-2.2-2.221c-0.921,0-1.86,0.261-2.541,0.721l-0.4-1.181c0.801-0.5,1.98-0.84,3.201-0.84
							c2.961,0,3.681,2.021,3.681,3.94V134.236z M713.586,131.615c-1.921-0.04-4.101,0.301-4.101,2.181
							c0,1.16,0.76,1.681,1.64,1.681c1.28,0,2.101-0.801,2.381-1.62c0.06-0.2,0.08-0.4,0.08-0.561V131.615z"/>
						<path fill="#FFFFFF" d="M722.364,130.035c0-1.24-0.04-2.24-0.08-3.16h1.561l0.101,1.66h0.04c0.7-1.181,1.86-1.86,3.44-1.86
							c2.36,0,4.121,1.98,4.121,4.9c0,3.481-2.141,5.201-4.421,5.201c-1.28,0-2.4-0.56-2.981-1.52h-0.039v5.261h-1.741V130.035z
							 M724.105,132.616c0,0.26,0.02,0.5,0.079,0.72c0.32,1.221,1.381,2.061,2.641,2.061c1.86,0,2.941-1.521,2.941-3.741
							c0-1.92-1.021-3.58-2.881-3.58c-1.2,0-2.341,0.84-2.661,2.16c-0.06,0.22-0.119,0.48-0.119,0.7V132.616z"/>
						<path fill="#FFFFFF" d="M734.725,132.036c0.04,2.38,1.54,3.36,3.32,3.36c1.261,0,2.041-0.22,2.681-0.5l0.32,1.26
							c-0.62,0.28-1.7,0.62-3.24,0.62c-2.98,0-4.762-1.98-4.762-4.9c0-2.921,1.721-5.201,4.541-5.201
							c3.181,0,4.001,2.761,4.001,4.541c0,0.359-0.02,0.62-0.06,0.82H734.725z M739.886,130.775c0.021-1.101-0.46-2.841-2.44-2.841
							c-1.801,0-2.561,1.62-2.7,2.841H739.886z"/>
						<path fill="#FFFFFF" d="M743.764,129.896c0-1.141-0.02-2.121-0.08-3.021h1.541l0.08,1.92h0.06c0.44-1.3,1.521-2.12,2.7-2.12
							c0.181,0,0.32,0.02,0.48,0.04v1.66c-0.18-0.04-0.36-0.04-0.6-0.04c-1.24,0-2.121,0.92-2.361,2.24
							c-0.04,0.24-0.06,0.54-0.06,0.82v5.161h-1.761V129.896z"/>
						<path fill="#FFFFFF" d="M750.064,134.776c0.54,0.32,1.46,0.68,2.34,0.68c1.261,0,1.86-0.62,1.86-1.44
							c0-0.84-0.5-1.28-1.78-1.76c-1.76-0.641-2.58-1.58-2.58-2.741c0-1.56,1.28-2.84,3.341-2.84c0.979,0,1.84,0.26,2.36,0.6
							l-0.42,1.28c-0.381-0.24-1.081-0.58-1.98-0.58c-1.041,0-1.601,0.601-1.601,1.32c0,0.801,0.56,1.16,1.82,1.66
							c1.66,0.62,2.54,1.461,2.54,2.901c0,1.72-1.34,2.92-3.601,2.92c-1.06,0-2.04-0.279-2.721-0.68L750.064,134.776z"/>
						<path fill="#FFFFFF" d="M766.986,131.636c0,3.581-2.501,5.141-4.821,5.141c-2.601,0-4.642-1.92-4.642-4.98
							c0-3.221,2.141-5.121,4.802-5.121C765.105,126.675,766.986,128.695,766.986,131.636z M759.324,131.735
							c0,2.121,1.2,3.721,2.921,3.721c1.68,0,2.94-1.58,2.94-3.761c0-1.64-0.82-3.7-2.9-3.7
							C760.225,127.995,759.324,129.915,759.324,131.735z"/>
						<path fill="#FFFFFF" d="M769.203,129.495c0-1.021-0.02-1.82-0.08-2.62h1.561l0.101,1.6h0.04c0.479-0.899,1.6-1.8,3.2-1.8
							c1.341,0,3.421,0.8,3.421,4.121v5.761h-1.761v-5.581c0-1.561-0.58-2.86-2.24-2.86c-1.141,0-2.04,0.819-2.36,1.8
							c-0.08,0.221-0.12,0.521-0.12,0.82v5.821h-1.761V129.495z"/>
						<path fill="#FFFFFF" d="M787.104,134.236c0,0.84,0.04,1.66,0.14,2.32h-1.58l-0.14-1.221h-0.061
							c-0.54,0.761-1.58,1.44-2.96,1.44c-1.961,0-2.961-1.38-2.961-2.78c0-2.341,2.08-3.621,5.821-3.601v-0.2
							c0-0.78-0.22-2.24-2.2-2.221c-0.921,0-1.86,0.261-2.541,0.721l-0.4-1.181c0.801-0.5,1.98-0.84,3.201-0.84
							c2.961,0,3.681,2.021,3.681,3.94V134.236z M785.404,131.615c-1.921-0.04-4.101,0.301-4.101,2.181
							c0,1.16,0.76,1.681,1.64,1.681c1.28,0,2.101-0.801,2.381-1.62c0.06-0.2,0.08-0.4,0.08-0.561V131.615z"/>
						<path fill="#FFFFFF" d="M789.522,135.517c0-0.721,0.5-1.261,1.2-1.261s1.181,0.521,1.181,1.261c0,0.72-0.48,1.26-1.221,1.26
							C790.003,136.776,789.522,136.236,789.522,135.517z"/>
					</g>
				</g>
			</g>
		</g>
		<path fill="none" stroke="#A2B735" stroke-width="5" stroke-miterlimit="10" stroke-dasharray="4" d="M430.042,74.406
			c0,0,11.28-2.075,18.005-4.841c7.92-3.257,19.497-11.939,19.497-11.939"/>
	</g>
	<g>
		<rect y="58.715" fill="#EBE760" fill-opacity="0.4" width="424.58" height="25.702"/>
	</g>
</g>
</svg>
