<?xml version="1.0" encoding="utf-8"?>
<!-- Generator: Adobe Illustrator 16.0.0, SVG Export Plug-In . SVG Version: 6.00 Build 0)  -->
<!DOCTYPE svg PUBLIC "-//W3C//DTD SVG 1.1//EN" "http://www.w3.org/Graphics/SVG/1.1/DTD/svg11.dtd">
<svg version="1.1" id="Capa_1" xmlns="http://www.w3.org/2000/svg" xmlns:xlink="http://www.w3.org/1999/xlink" x="0px" y="0px"
	 width="649.912px" height="128.609px" viewBox="0 0 649.912 128.609" enable-background="new 0 0 649.912 128.609"
	 xml:space="preserve">
<g>
	<g>
		<rect y="19.596" fill="#EBE760" fill-opacity="0.4" width="347.618" height="25.702"/>
	</g>
	<g>
		<g>
			<g>
				<g>
					<path opacity="0.9" fill-rule="evenodd" clip-rule="evenodd" fill="#ABC02F" d="M649.912,117.215
						c0,6.293-5.236,11.395-11.694,11.395H393.337c-6.458,0-11.694-5.102-11.694-11.395V11.395C381.643,5.102,386.879,0,393.337,0
						h244.881c6.458,0,11.694,5.102,11.694,11.395V117.215z"/>
				</g>
				<g>
					<g>
						<path fill="#FFFFFF" d="M435.125,16.383c0.931-0.152,2.299-0.267,3.856-0.267c1.899,0,3.229,0.285,4.142,1.007
							c0.778,0.608,1.196,1.521,1.196,2.698c0,1.614-1.158,2.735-2.261,3.134v0.058c0.894,0.36,1.387,1.196,1.71,2.374
							c0.399,1.463,0.779,3.135,1.026,3.629h-2.964c-0.19-0.38-0.513-1.406-0.874-2.982c-0.361-1.615-0.912-2.033-2.108-2.052
							h-0.855v5.034h-2.868V16.383z M437.993,21.892h1.141c1.443,0,2.298-0.722,2.298-1.843c0-1.159-0.798-1.767-2.127-1.767
							c-0.703,0-1.103,0.038-1.312,0.095V21.892z"/>
						<path fill="#FFFFFF" d="M448.514,25.292c0.075,1.197,1.272,1.767,2.621,1.767c0.988,0,1.786-0.133,2.564-0.398l0.38,1.956
							c-0.949,0.399-2.108,0.59-3.362,0.59c-3.153,0-4.958-1.824-4.958-4.73c0-2.355,1.463-4.959,4.692-4.959
							c3.001,0,4.142,2.337,4.142,4.636c0,0.494-0.058,0.931-0.096,1.14H448.514z M451.914,23.316c0-0.703-0.304-1.881-1.634-1.881
							c-1.216,0-1.71,1.121-1.786,1.881H451.914z"/>
						<path fill="#FFFFFF" d="M459.547,17.219v2.507h2.07v2.128h-2.07v3.362c0,1.121,0.284,1.634,1.14,1.634
							c0.398,0,0.589-0.019,0.854-0.075l0.02,2.185c-0.361,0.133-1.064,0.247-1.862,0.247c-0.931,0-1.709-0.323-2.185-0.799
							c-0.531-0.551-0.798-1.443-0.798-2.754v-3.8h-1.234v-2.128h1.234v-1.729L459.547,17.219z"/>
						<path fill="#FFFFFF" d="M463.286,22.784c0-1.367-0.02-2.261-0.076-3.059h2.47l0.113,1.71h0.076
							c0.476-1.367,1.596-1.938,2.508-1.938c0.266,0,0.399,0.019,0.608,0.057v2.717c-0.229-0.038-0.456-0.076-0.779-0.076
							c-1.063,0-1.786,0.57-1.976,1.463c-0.038,0.19-0.057,0.418-0.057,0.646v4.711h-2.888V22.784z"/>
						<path fill="#FFFFFF" d="M479.525,24.267c0,3.4-2.412,4.958-4.9,4.958c-2.717,0-4.807-1.786-4.807-4.787
							c0-3.021,1.976-4.939,4.978-4.939C477.626,19.498,479.525,21.455,479.525,24.267z M472.801,24.361
							c0,1.596,0.665,2.793,1.899,2.793c1.141,0,1.843-1.121,1.843-2.812c0-1.368-0.531-2.774-1.843-2.774
							C473.333,21.568,472.801,22.993,472.801,24.361z"/>
						<path fill="#FFFFFF" d="M489.039,26.774c0,0.873,0.038,1.729,0.152,2.241h-2.603l-0.171-0.931h-0.058
							c-0.607,0.74-1.558,1.14-2.659,1.14c-1.881,0-3.002-1.368-3.002-2.85c0-2.413,2.166-3.553,5.452-3.553v-0.113
							c0-0.514-0.266-1.216-1.69-1.216c-0.95,0-1.957,0.322-2.564,0.702l-0.532-1.861c0.646-0.361,1.919-0.836,3.609-0.836
							c3.097,0,4.065,1.823,4.065,4.027V26.774z M486.246,24.627c-1.52,0-2.697,0.361-2.697,1.463c0,0.741,0.494,1.103,1.14,1.103
							c0.703,0,1.312-0.476,1.501-1.064c0.038-0.152,0.057-0.323,0.057-0.494V24.627z"/>
						<path fill="#FFFFFF" d="M491.334,15.527h2.888v13.488h-2.888V15.527z"/>
						<path fill="#FFFFFF" d="M499.539,17.143c0,0.798-0.589,1.443-1.558,1.443c-0.912,0-1.501-0.646-1.501-1.443
							c0-0.817,0.607-1.444,1.539-1.444C498.95,15.698,499.52,16.325,499.539,17.143z M496.557,29.016v-9.29h2.888v9.29H496.557z"/>
						<path fill="#FFFFFF" d="M501.76,22.689c0-1.159-0.038-2.128-0.076-2.964h2.45l0.114,1.254h0.057
							c0.399-0.607,1.235-1.481,2.812-1.481c1.216,0,2.147,0.627,2.546,1.596h0.038c0.361-0.494,0.76-0.874,1.216-1.14
							c0.513-0.285,1.083-0.456,1.767-0.456c1.786,0,3.135,1.254,3.135,4.046v5.472h-2.812v-5.054c0-1.349-0.438-2.127-1.368-2.127
							c-0.684,0-1.14,0.456-1.349,1.007c-0.057,0.209-0.095,0.494-0.095,0.74v5.434h-2.812v-5.225c0-1.158-0.418-1.956-1.349-1.956
							c-0.741,0-1.179,0.569-1.35,1.025c-0.095,0.229-0.113,0.494-0.113,0.741v5.414h-2.812V22.689z"/>
						<path fill="#FFFFFF" d="M520.313,25.292c0.075,1.197,1.272,1.767,2.621,1.767c0.988,0,1.786-0.133,2.564-0.398l0.38,1.956
							c-0.949,0.399-2.108,0.59-3.362,0.59c-3.153,0-4.958-1.824-4.958-4.73c0-2.355,1.463-4.959,4.692-4.959
							c3.001,0,4.142,2.337,4.142,4.636c0,0.494-0.058,0.931-0.096,1.14H520.313z M523.714,23.316c0-0.703-0.304-1.881-1.634-1.881
							c-1.216,0-1.71,1.121-1.786,1.881H523.714z"/>
						<path fill="#FFFFFF" d="M528.117,22.689c0-1.159-0.038-2.128-0.076-2.964h2.508l0.133,1.292h0.057
							c0.38-0.607,1.311-1.501,2.869-1.501c1.899,0,3.324,1.273,3.324,4.009v5.49h-2.888v-5.148c0-1.196-0.418-2.014-1.463-2.014
							c-0.798,0-1.272,0.551-1.481,1.083c-0.076,0.19-0.095,0.456-0.095,0.722v5.357h-2.888V22.689z"/>
						<path fill="#FFFFFF" d="M542.36,17.219v2.507h2.07v2.128h-2.07v3.362c0,1.121,0.284,1.634,1.14,1.634
							c0.398,0,0.589-0.019,0.854-0.075l0.02,2.185c-0.361,0.133-1.064,0.247-1.862,0.247c-0.931,0-1.709-0.323-2.185-0.799
							c-0.532-0.551-0.798-1.443-0.798-2.754v-3.8h-1.234v-2.128h1.234v-1.729L542.36,17.219z"/>
						<path fill="#FFFFFF" d="M553.831,26.774c0,0.873,0.038,1.729,0.152,2.241h-2.603l-0.171-0.931h-0.058
							c-0.607,0.74-1.558,1.14-2.659,1.14c-1.881,0-3.002-1.368-3.002-2.85c0-2.413,2.166-3.553,5.452-3.553v-0.113
							c0-0.514-0.266-1.216-1.69-1.216c-0.95,0-1.957,0.322-2.564,0.702l-0.532-1.861c0.646-0.361,1.919-0.836,3.609-0.836
							c3.097,0,4.065,1.823,4.065,4.027V26.774z M551.038,24.627c-1.52,0-2.697,0.361-2.697,1.463c0,0.741,0.494,1.103,1.14,1.103
							c0.703,0,1.312-0.476,1.501-1.064c0.038-0.152,0.057-0.323,0.057-0.494V24.627z"/>
						<path fill="#FFFFFF" d="M563.098,28.769c-0.513,0.247-1.481,0.438-2.584,0.438c-3.001,0-4.92-1.843-4.92-4.75
							c0-2.717,1.861-4.939,5.319-4.939c0.76,0,1.596,0.134,2.203,0.361l-0.455,2.146c-0.343-0.151-0.855-0.285-1.615-0.285
							c-1.52,0-2.508,1.083-2.488,2.604c0,1.69,1.14,2.603,2.545,2.603c0.685,0,1.216-0.114,1.653-0.305L563.098,28.769z"/>
						<path fill="#FFFFFF" d="M567.673,17.143c0,0.798-0.589,1.443-1.558,1.443c-0.912,0-1.501-0.646-1.501-1.443
							c0-0.817,0.607-1.444,1.539-1.444C567.084,15.698,567.653,16.325,567.673,17.143z M564.69,29.016v-9.29h2.888v9.29H564.69z"/>
						<path fill="#FFFFFF" d="M579.068,24.267c0,3.4-2.412,4.958-4.9,4.958c-2.717,0-4.807-1.786-4.807-4.787
							c0-3.021,1.976-4.939,4.978-4.939C577.169,19.498,579.068,21.455,579.068,24.267z M572.344,24.361
							c0,1.596,0.665,2.793,1.899,2.793c1.141,0,1.843-1.121,1.843-2.812c0-1.368-0.531-2.774-1.843-2.774
							C572.876,21.568,572.344,22.993,572.344,24.361z M577.227,15.68l-2.318,2.888h-1.976l1.634-2.888H577.227z"/>
						<path fill="#FFFFFF" d="M580.851,22.689c0-1.159-0.038-2.128-0.076-2.964h2.508l0.133,1.292h0.057
							c0.38-0.607,1.311-1.501,2.869-1.501c1.899,0,3.324,1.273,3.324,4.009v5.49h-2.888v-5.148c0-1.196-0.418-2.014-1.463-2.014
							c-0.798,0-1.272,0.551-1.481,1.083c-0.076,0.19-0.095,0.456-0.095,0.722v5.357h-2.888V22.689z"/>
						<path fill="#FFFFFF" d="M591.788,21.359c0-1.025,0.703-1.747,1.69-1.747c1.007,0,1.672,0.702,1.691,1.747
							c0,0.988-0.665,1.729-1.71,1.729C592.472,23.089,591.788,22.348,591.788,21.359z M591.788,27.496
							c0-1.026,0.703-1.748,1.69-1.748c1.007,0,1.672,0.703,1.691,1.748c0,0.987-0.665,1.729-1.71,1.729
							C592.472,29.225,591.788,28.483,591.788,27.496z"/>
						<path fill="#FFFFFF" d="M408.596,37.271c0.836-0.152,2.052-0.267,3.173-0.267c1.767,0,2.926,0.342,3.704,1.045
							c0.627,0.57,1.007,1.444,1.007,2.451c0,1.672-1.063,2.792-2.394,3.248v0.058c0.969,0.342,1.559,1.253,1.862,2.583
							c0.418,1.786,0.722,3.021,0.987,3.515h-1.709c-0.209-0.38-0.494-1.463-0.836-3.059c-0.38-1.767-1.083-2.432-2.584-2.488
							h-1.558v5.547h-1.653V37.271z M410.249,43.104h1.69c1.767,0,2.888-0.969,2.888-2.432c0-1.653-1.196-2.375-2.944-2.375
							c-0.798,0-1.349,0.058-1.634,0.133V43.104z"/>
						<path fill="#FFFFFF" d="M419.763,45.611c0.038,2.261,1.463,3.191,3.153,3.191c1.197,0,1.938-0.209,2.546-0.476l0.304,1.197
							c-0.589,0.266-1.614,0.589-3.077,0.589c-2.83,0-4.521-1.881-4.521-4.654s1.634-4.939,4.312-4.939c3.021,0,3.8,2.622,3.8,4.312
							c0,0.342-0.02,0.589-0.058,0.779H419.763z M424.664,44.414c0.02-1.045-0.437-2.697-2.317-2.697
							c-1.71,0-2.432,1.538-2.564,2.697H424.664z"/>
						<path fill="#FFFFFF" d="M428.517,49.904v-7.922h-1.272V40.71h1.272v-0.399c0-1.292,0.438-2.432,1.292-3.173
							c0.722-0.607,1.672-0.931,2.964-0.931c1.063,0,2.052,0.229,2.754,0.608v13.089h-1.672V37.746
							c-0.284-0.152-0.722-0.247-1.367-0.247c-1.729,0-2.317,1.272-2.317,2.735v0.476h2.146v1.272h-2.146v7.922H428.517z"/>
						<path fill="#FFFFFF" d="M439.208,45.611c0.038,2.261,1.463,3.191,3.153,3.191c1.197,0,1.938-0.209,2.546-0.476l0.304,1.197
							c-0.589,0.266-1.614,0.589-3.077,0.589c-2.83,0-4.521-1.881-4.521-4.654s1.634-4.939,4.312-4.939c3.021,0,3.8,2.622,3.8,4.312
							c0,0.342-0.02,0.589-0.058,0.779H439.208z M444.109,44.414c0.02-1.045-0.437-2.697-2.317-2.697
							c-1.71,0-2.432,1.538-2.564,2.697H444.109z"/>
						<path fill="#FFFFFF" d="M445.53,52.602c0.779-0.057,1.425-0.266,1.824-0.722c0.456-0.513,0.646-1.234,0.646-3.438V40.71h1.672
							v8.378c0,1.785-0.285,2.944-1.102,3.78c-0.741,0.74-1.957,1.045-2.85,1.045L445.53,52.602z M449.861,38.126
							c0,0.551-0.38,1.026-1.063,1.026c-0.607,0-1.007-0.476-1.007-1.026c0-0.57,0.418-1.045,1.045-1.045
							S449.861,37.556,449.861,38.126z"/>
						<path fill="#FFFFFF" d="M458.864,47.7c0,0.798,0.038,1.577,0.133,2.204h-1.5l-0.134-1.159h-0.057
							c-0.513,0.723-1.501,1.368-2.812,1.368c-1.861,0-2.812-1.311-2.812-2.641c0-2.223,1.976-3.438,5.528-3.42v-0.189
							c0-0.741-0.209-2.128-2.09-2.108c-0.874,0-1.767,0.246-2.413,0.684l-0.38-1.121c0.76-0.475,1.881-0.798,3.04-0.798
							c2.812,0,3.495,1.919,3.495,3.742V47.7z M457.25,45.212c-1.824-0.038-3.895,0.285-3.895,2.07c0,1.103,0.722,1.597,1.558,1.597
							c1.216,0,1.994-0.761,2.261-1.539c0.057-0.19,0.076-0.38,0.076-0.532V45.212z"/>
						<path fill="#FFFFFF" d="M461.559,43.578c0-1.083-0.019-2.014-0.076-2.868h1.463l0.076,1.823h0.057
							c0.418-1.234,1.444-2.014,2.564-2.014c0.172,0,0.305,0.02,0.456,0.038v1.577c-0.171-0.038-0.342-0.038-0.569-0.038
							c-1.178,0-2.014,0.874-2.242,2.128c-0.038,0.228-0.057,0.513-0.057,0.778v4.901h-1.672V43.578z"/>
						<path fill="#FFFFFF" d="M472.725,45.611c0.038,2.261,1.463,3.191,3.154,3.191c1.196,0,1.938-0.209,2.545-0.476l0.304,1.197
							c-0.589,0.266-1.614,0.589-3.077,0.589c-2.83,0-4.521-1.881-4.521-4.654s1.634-4.939,4.312-4.939c3.021,0,3.8,2.622,3.8,4.312
							c0,0.342-0.02,0.589-0.058,0.779H472.725z M477.626,44.414c0.02-1.045-0.437-2.697-2.317-2.697
							c-1.71,0-2.432,1.538-2.564,2.697H477.626z"/>
						<path fill="#FFFFFF" d="M481.308,43.198c0-0.969-0.038-1.729-0.076-2.488h1.463l0.076,1.5h0.057
							c0.514-0.873,1.368-1.69,2.907-1.69c1.234,0,2.185,0.76,2.583,1.843h0.038c0.285-0.532,0.665-0.912,1.045-1.196
							c0.551-0.418,1.14-0.646,2.014-0.646c1.235,0,3.04,0.798,3.04,3.989v5.396h-1.634v-5.187c0-1.785-0.665-2.83-1.995-2.83
							c-0.969,0-1.69,0.703-1.994,1.501c-0.076,0.246-0.134,0.531-0.134,0.836v5.68h-1.634v-5.509c0-1.463-0.646-2.508-1.918-2.508
							c-1.026,0-1.805,0.836-2.071,1.672c-0.095,0.228-0.133,0.531-0.133,0.816v5.528h-1.634V43.198z"/>
						<path fill="#FFFFFF" d="M497.146,43.711c0-1.178-0.038-2.127-0.076-3.001h1.482l0.095,1.576h0.038
							c0.665-1.12,1.767-1.767,3.268-1.767c2.241,0,3.913,1.881,3.913,4.654c0,3.306-2.032,4.939-4.198,4.939
							c-1.216,0-2.279-0.532-2.831-1.443h-0.037v4.996h-1.653V43.711z M498.799,46.162c0,0.247,0.019,0.475,0.075,0.684
							c0.305,1.159,1.312,1.957,2.508,1.957c1.767,0,2.793-1.444,2.793-3.553c0-1.824-0.969-3.4-2.736-3.4
							c-1.14,0-2.223,0.798-2.526,2.052c-0.057,0.209-0.113,0.456-0.113,0.665V46.162z"/>
						<path fill="#FFFFFF" d="M514.41,47.7c0,0.798,0.038,1.577,0.133,2.204h-1.5l-0.134-1.159h-0.057
							c-0.513,0.723-1.501,1.368-2.812,1.368c-1.861,0-2.812-1.311-2.812-2.641c0-2.223,1.976-3.438,5.528-3.42v-0.189
							c0-0.741-0.209-2.128-2.09-2.108c-0.874,0-1.767,0.246-2.413,0.684l-0.38-1.121c0.76-0.475,1.881-0.798,3.04-0.798
							c2.812,0,3.495,1.919,3.495,3.742V47.7z M512.796,45.212c-1.824-0.038-3.895,0.285-3.895,2.07
							c0,1.103,0.722,1.597,1.558,1.597c1.216,0,1.994-0.761,2.261-1.539c0.057-0.19,0.076-0.38,0.076-0.532V45.212z
							 M513.632,36.739l-2.318,2.717h-1.178l1.653-2.717H513.632z"/>
						<path fill="#FFFFFF" d="M519.042,38.506v2.204h2.394v1.272h-2.394v4.958c0,1.141,0.323,1.786,1.254,1.786
							c0.456,0,0.722-0.038,0.969-0.114l0.076,1.273c-0.323,0.113-0.836,0.228-1.481,0.228c-0.779,0-1.406-0.266-1.805-0.703
							c-0.456-0.513-0.646-1.329-0.646-2.412v-5.016h-1.425V40.71h1.425V39L519.042,38.506z"/>
						<path fill="#FFFFFF" d="M525.176,38.126c0,0.57-0.398,1.026-1.063,1.026c-0.607,0-1.007-0.456-1.007-1.026
							s0.418-1.045,1.045-1.045C524.759,37.081,525.176,37.537,525.176,38.126z M523.314,49.904V40.71h1.672v9.194H523.314z"/>
						<path fill="#FFFFFF" d="M534.312,49.581c-0.437,0.209-1.405,0.532-2.641,0.532c-2.773,0-4.578-1.881-4.578-4.692
							c0-2.83,1.938-4.901,4.939-4.901c0.988,0,1.861,0.247,2.317,0.494l-0.38,1.272c-0.398-0.209-1.025-0.437-1.938-0.437
							c-2.108,0-3.248,1.576-3.248,3.477c0,2.128,1.367,3.438,3.191,3.438c0.949,0,1.576-0.229,2.052-0.438L534.312,49.581z"/>
						<path fill="#FFFFFF" d="M542.725,47.7c0,0.798,0.038,1.577,0.133,2.204h-1.5l-0.134-1.159h-0.057
							c-0.513,0.723-1.501,1.368-2.812,1.368c-1.861,0-2.812-1.311-2.812-2.641c0-2.223,1.976-3.438,5.528-3.42v-0.189
							c0-0.741-0.209-2.128-2.09-2.108c-0.874,0-1.767,0.246-2.413,0.684l-0.38-1.121c0.76-0.475,1.881-0.798,3.04-0.798
							c2.812,0,3.495,1.919,3.495,3.742V47.7z M541.11,45.212c-1.824-0.038-3.895,0.285-3.895,2.07c0,1.103,0.722,1.597,1.558,1.597
							c1.216,0,1.994-0.761,2.261-1.539c0.057-0.19,0.076-0.38,0.076-0.532V45.212z"/>
						<path fill="#FFFFFF" d="M545.419,43.198c0-0.969-0.038-1.729-0.076-2.488h1.463l0.076,1.5h0.057
							c0.514-0.873,1.368-1.69,2.907-1.69c1.234,0,2.185,0.76,2.583,1.843h0.038c0.285-0.532,0.665-0.912,1.045-1.196
							c0.551-0.418,1.14-0.646,2.014-0.646c1.235,0,3.04,0.798,3.04,3.989v5.396h-1.634v-5.187c0-1.785-0.665-2.83-1.995-2.83
							c-0.969,0-1.69,0.703-1.994,1.501c-0.076,0.246-0.134,0.531-0.134,0.836v5.68h-1.634v-5.509c0-1.463-0.646-2.508-1.918-2.508
							c-1.026,0-1.805,0.836-2.071,1.672c-0.095,0.228-0.133,0.531-0.133,0.816v5.528h-1.634V43.198z"/>
						<path fill="#FFFFFF" d="M562.188,45.611c0.038,2.261,1.463,3.191,3.154,3.191c1.196,0,1.938-0.209,2.545-0.476l0.304,1.197
							c-0.589,0.266-1.614,0.589-3.077,0.589c-2.83,0-4.521-1.881-4.521-4.654s1.634-4.939,4.312-4.939c3.021,0,3.8,2.622,3.8,4.312
							c0,0.342-0.02,0.589-0.058,0.779H562.188z M567.089,44.414c0.02-1.045-0.437-2.697-2.317-2.697
							c-1.71,0-2.432,1.538-2.564,2.697H567.089z"/>
						<path fill="#FFFFFF" d="M570.771,43.198c0-0.969-0.019-1.729-0.076-2.488h1.482l0.095,1.52h0.038
							c0.456-0.854,1.52-1.71,3.039-1.71c1.273,0,3.249,0.76,3.249,3.913v5.472h-1.672v-5.3c0-1.482-0.551-2.717-2.128-2.717
							c-1.083,0-1.938,0.778-2.241,1.71c-0.076,0.209-0.114,0.493-0.114,0.778v5.528h-1.672V43.198z"/>
						<path fill="#FFFFFF" d="M583.247,38.506v2.204h2.394v1.272h-2.394v4.958c0,1.141,0.323,1.786,1.254,1.786
							c0.456,0,0.722-0.038,0.969-0.114l0.076,1.273c-0.323,0.113-0.836,0.228-1.481,0.228c-0.779,0-1.406-0.266-1.805-0.703
							c-0.456-0.513-0.646-1.329-0.646-2.412v-5.016h-1.425V40.71h1.425V39L583.247,38.506z"/>
						<path fill="#FFFFFF" d="M588.337,45.611c0.038,2.261,1.463,3.191,3.153,3.191c1.197,0,1.938-0.209,2.546-0.476l0.304,1.197
							c-0.589,0.266-1.614,0.589-3.077,0.589c-2.83,0-4.521-1.881-4.521-4.654s1.634-4.939,4.312-4.939c3.021,0,3.8,2.622,3.8,4.312
							c0,0.342-0.02,0.589-0.058,0.779H588.337z M593.238,44.414c0.02-1.045-0.437-2.697-2.317-2.697
							c-1.71,0-2.432,1.538-2.564,2.697H593.238z"/>
						<path fill="#FFFFFF" d="M596.54,42.229c0-0.703,0.475-1.197,1.121-1.197c0.684,0,1.12,0.494,1.12,1.197
							c0,0.665-0.437,1.178-1.14,1.178C596.996,43.407,596.54,42.895,596.54,42.229z M596.54,48.936
							c0-0.703,0.475-1.197,1.121-1.197c0.684,0,1.12,0.494,1.12,1.197c0,0.665-0.437,1.178-1.14,1.178
							C596.996,50.113,596.54,49.601,596.54,48.936z"/>
						<path fill="#FFFFFF" d="M604.724,47.891c0.741,0.475,1.806,0.836,2.945,0.836c1.69,0,2.679-0.893,2.679-2.185
							c0-1.178-0.685-1.881-2.413-2.526c-2.09-0.761-3.382-1.862-3.382-3.647c0-1.995,1.653-3.477,4.142-3.477
							c1.292,0,2.261,0.304,2.812,0.627l-0.456,1.349c-0.398-0.247-1.254-0.608-2.412-0.608c-1.748,0-2.413,1.045-2.413,1.919
							c0,1.197,0.779,1.786,2.546,2.47c2.166,0.836,3.248,1.881,3.248,3.762c0,1.976-1.443,3.704-4.464,3.704
							c-1.234,0-2.584-0.38-3.268-0.836L604.724,47.891z"/>
						<path fill="#FFFFFF" d="M615.282,45.611c0.038,2.261,1.463,3.191,3.153,3.191c1.197,0,1.938-0.209,2.546-0.476l0.304,1.197
							c-0.589,0.266-1.614,0.589-3.077,0.589c-2.83,0-4.521-1.881-4.521-4.654s1.634-4.939,4.312-4.939c3.021,0,3.8,2.622,3.8,4.312
							c0,0.342-0.02,0.589-0.058,0.779H615.282z M620.184,44.414c0.02-1.045-0.437-2.697-2.317-2.697
							c-1.71,0-2.432,1.538-2.564,2.697H620.184z"/>
						<path fill="#FFFFFF" d="M386.814,64.601c0-1.178-0.038-2.127-0.076-3.001h1.482l0.095,1.576h0.038
							c0.665-1.12,1.767-1.767,3.268-1.767c2.241,0,3.913,1.881,3.913,4.654c0,3.306-2.032,4.939-4.198,4.939
							c-1.216,0-2.279-0.532-2.831-1.443h-0.038v4.996h-1.652V64.601z M388.467,67.052c0,0.247,0.02,0.475,0.076,0.684
							c0.305,1.159,1.312,1.957,2.508,1.957c1.767,0,2.793-1.444,2.793-3.553c0-1.824-0.969-3.4-2.736-3.4
							c-1.14,0-2.223,0.798-2.526,2.052c-0.057,0.209-0.114,0.456-0.114,0.665V67.052z"/>
						<path fill="#FFFFFF" d="M405.313,68.268c0,0.969,0.019,1.805,0.075,2.526h-1.481l-0.095-1.501h-0.038
							c-0.418,0.741-1.406,1.71-3.04,1.71c-1.443,0-3.172-0.816-3.172-4.027V61.6h1.672v5.072c0,1.747,0.551,2.944,2.052,2.944
							c1.12,0,1.899-0.779,2.203-1.539c0.095-0.228,0.152-0.531,0.152-0.854V61.6h1.672V68.268z"/>
						<path fill="#FFFFFF" d="M409.014,66.501c0.038,2.261,1.463,3.191,3.154,3.191c1.196,0,1.938-0.209,2.545-0.476l0.304,1.197
							c-0.589,0.266-1.614,0.589-3.077,0.589c-2.83,0-4.521-1.881-4.521-4.654s1.634-4.939,4.312-4.939c3.021,0,3.8,2.622,3.8,4.312
							c0,0.342-0.02,0.589-0.058,0.779H409.014z M413.915,65.304c0.02-1.045-0.437-2.697-2.317-2.697
							c-1.71,0-2.432,1.538-2.564,2.697H413.915z"/>
						<path fill="#FFFFFF" d="M425.519,57.306v11.113c0,0.817,0.038,1.748,0.076,2.375h-1.481l-0.076-1.596h-0.058
							c-0.493,1.025-1.596,1.805-3.097,1.805c-2.223,0-3.951-1.881-3.951-4.673c-0.019-3.059,1.9-4.921,4.123-4.921
							c1.425,0,2.355,0.665,2.773,1.387h0.038v-5.49H425.519z M423.866,65.342c0-0.209-0.02-0.494-0.076-0.703
							c-0.247-1.045-1.159-1.919-2.413-1.919c-1.729,0-2.754,1.521-2.754,3.534c0,1.861,0.931,3.4,2.716,3.4
							c1.121,0,2.147-0.76,2.451-1.995c0.057-0.228,0.076-0.456,0.076-0.722V65.342z"/>
						<path fill="#FFFFFF" d="M429.237,66.501c0.038,2.261,1.463,3.191,3.153,3.191c1.197,0,1.938-0.209,2.546-0.476l0.304,1.197
							c-0.589,0.266-1.614,0.589-3.077,0.589c-2.83,0-4.521-1.881-4.521-4.654s1.634-4.939,4.312-4.939c3.021,0,3.8,2.622,3.8,4.312
							c0,0.342-0.02,0.589-0.058,0.779H429.237z M434.139,65.304c0.02-1.045-0.437-2.697-2.317-2.697
							c-1.71,0-2.432,1.538-2.564,2.697H434.139z"/>
						<path fill="#FFFFFF" d="M449.54,68.268c0,0.969,0.019,1.805,0.075,2.526h-1.481l-0.095-1.501h-0.038
							c-0.418,0.741-1.406,1.71-3.04,1.71c-1.443,0-3.172-0.816-3.172-4.027V61.6h1.672v5.072c0,1.747,0.551,2.944,2.052,2.944
							c1.12,0,1.899-0.779,2.203-1.539c0.095-0.228,0.152-0.531,0.152-0.854V61.6h1.672V68.268z"/>
						<path fill="#FFFFFF" d="M454.323,59.396V61.6h2.394v1.272h-2.394v4.958c0,1.14,0.323,1.786,1.254,1.786
							c0.456,0,0.722-0.038,0.969-0.114l0.076,1.273c-0.323,0.113-0.836,0.228-1.481,0.228c-0.779,0-1.406-0.266-1.805-0.703
							c-0.456-0.513-0.646-1.33-0.646-2.412v-5.016h-1.425V61.6h1.425v-1.71L454.323,59.396z"/>
						<path fill="#FFFFFF" d="M460.457,59.016c0,0.57-0.398,1.026-1.063,1.026c-0.607,0-1.007-0.456-1.007-1.026
							s0.418-1.045,1.045-1.045C460.04,57.971,460.457,58.427,460.457,59.016z M458.596,70.794V61.6h1.672v9.194H458.596z"/>
						<path fill="#FFFFFF" d="M463.039,57.306h1.672v13.488h-1.672V57.306z"/>
						<path fill="#FFFFFF" d="M469.382,59.016c0,0.57-0.398,1.026-1.063,1.026c-0.607,0-1.007-0.456-1.007-1.026
							s0.418-1.045,1.045-1.045C468.965,57.971,469.382,58.427,469.382,59.016z M467.521,70.794V61.6h1.672v9.194H467.521z"/>
						<path fill="#FFFFFF" d="M470.919,69.825l4.142-5.414c0.418-0.513,0.798-0.95,1.216-1.444v-0.038h-4.978V61.6h6.991v1.045
							l-4.104,5.338c-0.398,0.513-0.76,0.987-1.178,1.443v0.038h5.357v1.33h-7.447V69.825z"/>
						<path fill="#FFFFFF" d="M486.551,68.59c0,0.798,0.038,1.577,0.133,2.204h-1.5l-0.134-1.159h-0.057
							c-0.513,0.723-1.501,1.368-2.812,1.368c-1.861,0-2.812-1.311-2.812-2.641c0-2.223,1.976-3.438,5.528-3.42v-0.189
							c0-0.741-0.209-2.128-2.09-2.108c-0.874,0-1.767,0.247-2.413,0.684l-0.38-1.121c0.76-0.475,1.881-0.798,3.04-0.798
							c2.812,0,3.495,1.919,3.495,3.742V68.59z M484.937,66.102c-1.824-0.038-3.895,0.285-3.895,2.07
							c0,1.103,0.722,1.597,1.558,1.597c1.216,0,1.994-0.761,2.261-1.539c0.057-0.19,0.076-0.38,0.076-0.532V66.102z"/>
						<path fill="#FFFFFF" d="M489.245,64.468c0-1.083-0.019-2.014-0.076-2.868h1.463l0.076,1.823h0.057
							c0.418-1.234,1.444-2.014,2.565-2.014c0.171,0,0.304,0.02,0.455,0.038v1.577c-0.171-0.038-0.342-0.038-0.569-0.038
							c-1.178,0-2.014,0.874-2.242,2.128c-0.038,0.228-0.057,0.513-0.057,0.778v4.901h-1.672V64.468z"/>
						<path fill="#FFFFFF" d="M500.411,66.501c0.038,2.261,1.463,3.191,3.153,3.191c1.197,0,1.938-0.209,2.546-0.476l0.304,1.197
							c-0.589,0.266-1.614,0.589-3.077,0.589c-2.83,0-4.521-1.881-4.521-4.654s1.634-4.939,4.312-4.939c3.021,0,3.8,2.622,3.8,4.312
							c0,0.342-0.02,0.589-0.058,0.779H500.411z M505.312,65.304c0.02-1.045-0.437-2.697-2.317-2.697
							c-1.71,0-2.432,1.538-2.564,2.697H505.312z"/>
						<path fill="#FFFFFF" d="M508.994,64.088c0-0.969-0.019-1.729-0.076-2.488h1.482l0.095,1.52h0.038
							c0.456-0.854,1.52-1.71,3.039-1.71c1.273,0,3.249,0.76,3.249,3.914v5.471h-1.672v-5.3c0-1.482-0.551-2.717-2.128-2.717
							c-1.083,0-1.938,0.778-2.241,1.71c-0.076,0.209-0.114,0.493-0.114,0.778v5.528h-1.672V64.088z"/>
						<path fill="#FFFFFF" d="M523.559,57.306h1.672v13.488h-1.672V57.306z"/>
						<path fill="#FFFFFF" d="M534.499,68.59c0,0.798,0.038,1.577,0.133,2.204h-1.5l-0.134-1.159h-0.057
							c-0.513,0.723-1.501,1.368-2.812,1.368c-1.861,0-2.812-1.311-2.812-2.641c0-2.223,1.976-3.438,5.528-3.42v-0.189
							c0-0.741-0.209-2.128-2.09-2.108c-0.874,0-1.767,0.247-2.413,0.684l-0.38-1.121c0.76-0.475,1.881-0.798,3.04-0.798
							c2.812,0,3.495,1.919,3.495,3.742V68.59z M532.885,66.102c-1.824-0.038-3.895,0.285-3.895,2.07
							c0,1.103,0.722,1.597,1.558,1.597c1.216,0,1.994-0.761,2.261-1.539c0.057-0.19,0.076-0.38,0.076-0.532V66.102z"/>
						<path fill="#FFFFFF" d="M547.772,70.471c-0.437,0.209-1.405,0.532-2.641,0.532c-2.773,0-4.578-1.881-4.578-4.692
							c0-2.83,1.938-4.901,4.939-4.901c0.988,0,1.861,0.247,2.317,0.494l-0.38,1.272c-0.398-0.209-1.025-0.437-1.938-0.437
							c-2.108,0-3.248,1.576-3.248,3.477c0,2.128,1.367,3.438,3.191,3.438c0.949,0,1.576-0.229,2.052-0.438L547.772,70.471z"/>
						<path fill="#FFFFFF" d="M557.934,66.121c0,3.4-2.375,4.882-4.579,4.882c-2.47,0-4.407-1.824-4.407-4.73
							c0-3.059,2.033-4.863,4.56-4.863C556.147,61.409,557.934,63.328,557.934,66.121z M550.657,66.216
							c0,2.014,1.14,3.533,2.773,3.533c1.596,0,2.793-1.501,2.793-3.571c0-1.558-0.779-3.515-2.755-3.515
							C551.512,62.663,550.657,64.487,550.657,66.216z"/>
						<path fill="#FFFFFF" d="M560.038,64.088c0-0.969-0.019-1.729-0.076-2.488h1.482l0.095,1.52h0.038
							c0.456-0.854,1.52-1.71,3.039-1.71c1.273,0,3.249,0.76,3.249,3.914v5.471h-1.672v-5.3c0-1.482-0.551-2.717-2.128-2.717
							c-1.083,0-1.938,0.778-2.241,1.71c-0.076,0.209-0.114,0.493-0.114,0.778v5.528h-1.672V64.088z"/>
						<path fill="#FFFFFF" d="M570.977,61.6l1.806,5.147c0.304,0.855,0.551,1.615,0.74,2.375h0.058
							c0.209-0.76,0.475-1.52,0.778-2.375l1.786-5.147h1.747l-3.609,9.194h-1.596l-3.495-9.194H570.977z"/>
						<path fill="#FFFFFF" d="M580.206,66.501c0.038,2.261,1.463,3.191,3.153,3.191c1.197,0,1.938-0.209,2.546-0.476l0.304,1.197
							c-0.589,0.266-1.614,0.589-3.077,0.589c-2.83,0-4.521-1.881-4.521-4.654s1.634-4.939,4.312-4.939c3.021,0,3.8,2.622,3.8,4.312
							c0,0.342-0.02,0.589-0.058,0.779H580.206z M585.107,65.304c0.02-1.045-0.437-2.697-2.317-2.697
							c-1.71,0-2.432,1.538-2.564,2.697H585.107z"/>
						<path fill="#FFFFFF" d="M588.789,64.468c0-1.083-0.019-2.014-0.076-2.868h1.463l0.076,1.823h0.057
							c0.418-1.234,1.444-2.014,2.564-2.014c0.172,0,0.305,0.02,0.456,0.038v1.577c-0.171-0.038-0.342-0.038-0.569-0.038
							c-1.178,0-2.014,0.874-2.242,2.128c-0.038,0.228-0.057,0.513-0.057,0.778v4.901h-1.672V64.468z"/>
						<path fill="#FFFFFF" d="M594.771,69.104c0.513,0.304,1.387,0.646,2.223,0.646c1.196,0,1.767-0.589,1.767-1.368
							c0-0.798-0.476-1.216-1.691-1.671c-1.671-0.608-2.45-1.501-2.45-2.604c0-1.481,1.216-2.697,3.173-2.697
							c0.931,0,1.747,0.247,2.241,0.57l-0.398,1.216c-0.361-0.229-1.026-0.551-1.881-0.551c-0.988,0-1.52,0.569-1.52,1.254
							c0,0.76,0.531,1.102,1.729,1.576c1.576,0.589,2.412,1.387,2.412,2.755c0,1.634-1.272,2.773-3.419,2.773
							c-1.007,0-1.938-0.266-2.584-0.646L594.771,69.104z"/>
						<path fill="#FFFFFF" d="M608.979,68.59c0,0.798,0.038,1.577,0.133,2.204h-1.5l-0.134-1.159h-0.057
							c-0.513,0.723-1.501,1.368-2.812,1.368c-1.861,0-2.812-1.311-2.812-2.641c0-2.223,1.976-3.438,5.528-3.42v-0.189
							c0-0.741-0.209-2.128-2.09-2.108c-0.874,0-1.767,0.247-2.413,0.684l-0.38-1.121c0.76-0.475,1.881-0.798,3.04-0.798
							c2.812,0,3.495,1.919,3.495,3.742V68.59z M607.364,66.102c-1.824-0.038-3.895,0.285-3.895,2.07
							c0,1.103,0.722,1.597,1.558,1.597c1.216,0,1.994-0.761,2.261-1.539c0.057-0.19,0.076-0.38,0.076-0.532V66.102z"/>
						<path fill="#FFFFFF" d="M618.227,70.471c-0.437,0.209-1.405,0.532-2.641,0.532c-2.773,0-4.578-1.881-4.578-4.692
							c0-2.83,1.938-4.901,4.939-4.901c0.988,0,1.861,0.247,2.317,0.494l-0.38,1.272c-0.398-0.209-1.025-0.437-1.938-0.437
							c-2.108,0-3.248,1.576-3.248,3.477c0,2.128,1.367,3.438,3.191,3.438c0.949,0,1.576-0.229,2.052-0.438L618.227,70.471z"/>
						<path fill="#FFFFFF" d="M622.042,59.016c0,0.57-0.398,1.026-1.063,1.026c-0.607,0-1.007-0.456-1.007-1.026
							s0.418-1.045,1.045-1.045C621.625,57.971,622.042,58.427,622.042,59.016z M620.181,70.794V61.6h1.672v9.194H620.181z"/>
						<path fill="#FFFFFF" d="M632.945,66.121c0,3.4-2.375,4.882-4.579,4.882c-2.47,0-4.407-1.824-4.407-4.73
							c0-3.059,2.033-4.863,4.56-4.863C631.159,61.409,632.945,63.328,632.945,66.121z M625.669,66.216
							c0,2.014,1.14,3.533,2.773,3.533c1.596,0,2.793-1.501,2.793-3.571c0-1.558-0.779-3.515-2.755-3.515
							C626.523,62.663,625.669,64.487,625.669,66.216z M630.95,57.629l-2.317,2.717h-1.178l1.652-2.717H630.95z"/>
						<path fill="#FFFFFF" d="M635.05,64.088c0-0.969-0.019-1.729-0.076-2.488h1.482l0.095,1.52h0.038
							c0.456-0.854,1.52-1.71,3.039-1.71c1.273,0,3.249,0.76,3.249,3.914v5.471h-1.672v-5.3c0-1.482-0.551-2.717-2.128-2.717
							c-1.083,0-1.938,0.778-2.241,1.71c-0.076,0.209-0.114,0.493-0.114,0.778v5.528h-1.672V64.088z"/>
						<path fill="#FFFFFF" d="M416.043,91.359c-0.437,0.209-1.405,0.532-2.641,0.532c-2.773,0-4.578-1.881-4.578-4.692
							c0-2.83,1.938-4.901,4.939-4.901c0.988,0,1.861,0.247,2.317,0.494l-0.38,1.272c-0.398-0.209-1.025-0.437-1.938-0.437
							c-2.108,0-3.248,1.576-3.248,3.477c0,2.128,1.367,3.438,3.191,3.438c0.949,0,1.576-0.229,2.052-0.438L416.043,91.359z"/>
						<path fill="#FFFFFF" d="M425.691,89.156c0,0.969,0.019,1.805,0.075,2.526h-1.481l-0.095-1.501h-0.038
							c-0.418,0.741-1.406,1.71-3.04,1.71c-1.443,0-3.172-0.816-3.172-4.027v-5.376h1.672v5.072c0,1.747,0.551,2.944,2.052,2.944
							c1.12,0,1.899-0.779,2.203-1.539c0.095-0.228,0.152-0.531,0.152-0.854v-5.623h1.672V89.156z"/>
						<path fill="#FFFFFF" d="M434.92,89.479c0,0.798,0.038,1.577,0.133,2.204h-1.5l-0.134-1.159h-0.057
							c-0.513,0.723-1.501,1.368-2.812,1.368c-1.861,0-2.812-1.311-2.812-2.641c0-2.223,1.976-3.438,5.528-3.42v-0.189
							c0-0.741-0.209-2.128-2.09-2.108c-0.874,0-1.767,0.247-2.413,0.684l-0.38-1.121c0.76-0.475,1.881-0.798,3.04-0.798
							c2.812,0,3.495,1.919,3.495,3.742V89.479z M433.306,86.99c-1.824-0.038-3.895,0.285-3.895,2.07
							c0,1.103,0.722,1.597,1.558,1.597c1.216,0,1.994-0.761,2.261-1.539c0.057-0.19,0.076-0.38,0.076-0.532V86.99z"/>
						<path fill="#FFFFFF" d="M437.614,84.977c0-0.969-0.019-1.729-0.076-2.488h1.482l0.095,1.52h0.038
							c0.456-0.854,1.52-1.71,3.039-1.71c1.273,0,3.249,0.76,3.249,3.914v5.471h-1.672v-5.3c0-1.482-0.551-2.717-2.128-2.717
							c-1.083,0-1.938,0.778-2.241,1.71c-0.076,0.209-0.114,0.493-0.114,0.778v5.528h-1.672V84.977z"/>
						<path fill="#FFFFFF" d="M456.075,78.194v11.113c0,0.817,0.038,1.748,0.076,2.375h-1.481l-0.076-1.596h-0.058
							c-0.493,1.025-1.596,1.805-3.097,1.805c-2.223,0-3.951-1.881-3.951-4.673c-0.019-3.059,1.9-4.921,4.123-4.921
							c1.425,0,2.355,0.665,2.773,1.387h0.038v-5.49H456.075z M454.423,86.23c0-0.209-0.02-0.494-0.076-0.703
							c-0.247-1.045-1.159-1.919-2.413-1.919c-1.729,0-2.754,1.521-2.754,3.534c0,1.861,0.931,3.4,2.716,3.4
							c1.121,0,2.147-0.76,2.451-1.995c0.057-0.228,0.076-0.456,0.076-0.722V86.23z"/>
						<path fill="#FFFFFF" d="M467.185,87.01c0,3.4-2.375,4.882-4.579,4.882c-2.47,0-4.407-1.824-4.407-4.73
							c0-3.059,2.033-4.863,4.56-4.863C465.398,82.298,467.185,84.217,467.185,87.01z M459.908,87.104
							c0,2.014,1.14,3.533,2.773,3.533c1.596,0,2.793-1.501,2.793-3.571c0-1.558-0.779-3.515-2.755-3.515
							C460.763,83.552,459.908,85.376,459.908,87.104z"/>
						<path fill="#FFFFFF" d="M473.087,89.992c0.513,0.304,1.387,0.646,2.223,0.646c1.196,0,1.767-0.589,1.767-1.368
							c0-0.798-0.476-1.216-1.691-1.671c-1.671-0.608-2.45-1.501-2.45-2.604c0-1.481,1.216-2.697,3.173-2.697
							c0.931,0,1.747,0.247,2.241,0.57l-0.398,1.216c-0.361-0.229-1.026-0.551-1.881-0.551c-0.988,0-1.52,0.569-1.52,1.254
							c0,0.76,0.531,1.102,1.729,1.576c1.576,0.589,2.412,1.387,2.412,2.755c0,1.634-1.272,2.773-3.419,2.773
							c-1.007,0-1.938-0.266-2.584-0.646L473.087,89.992z"/>
						<path fill="#FFFFFF" d="M481.766,87.39c0.038,2.261,1.463,3.191,3.154,3.191c1.196,0,1.938-0.209,2.545-0.476l0.304,1.197
							c-0.589,0.266-1.614,0.589-3.077,0.589c-2.83,0-4.521-1.881-4.521-4.654s1.634-4.939,4.312-4.939c3.021,0,3.8,2.622,3.8,4.312
							c0,0.342-0.02,0.589-0.058,0.779H481.766z M486.667,86.192c0.02-1.045-0.437-2.697-2.317-2.697
							c-1.71,0-2.432,1.538-2.564,2.697H486.667z"/>
						<path fill="#FFFFFF" d="M494.374,85.489c0-1.178-0.038-2.127-0.076-3.001h1.482l0.095,1.576h0.038
							c0.665-1.12,1.767-1.767,3.268-1.767c2.241,0,3.913,1.881,3.913,4.654c0,3.306-2.032,4.939-4.198,4.939
							c-1.216,0-2.279-0.532-2.831-1.443h-0.037v4.996h-1.653V85.489z M496.027,87.94c0,0.247,0.019,0.475,0.075,0.684
							c0.305,1.159,1.312,1.957,2.508,1.957c1.767,0,2.793-1.444,2.793-3.553c0-1.824-0.969-3.4-2.736-3.4
							c-1.14,0-2.223,0.798-2.526,2.052c-0.057,0.209-0.113,0.456-0.113,0.665V87.94z"/>
						<path fill="#FFFFFF" d="M505.18,85.356c0-1.083-0.019-2.014-0.076-2.868h1.463l0.076,1.823h0.057
							c0.418-1.234,1.444-2.014,2.564-2.014c0.172,0,0.305,0.02,0.456,0.038v1.577c-0.171-0.038-0.342-0.038-0.569-0.038
							c-1.178,0-2.014,0.874-2.242,2.128c-0.038,0.228-0.057,0.513-0.057,0.778v4.901h-1.672V85.356z"/>
						<path fill="#FFFFFF" d="M512.131,87.39c0.038,2.261,1.463,3.191,3.154,3.191c1.196,0,1.938-0.209,2.545-0.476l0.304,1.197
							c-0.589,0.266-1.614,0.589-3.077,0.589c-2.83,0-4.521-1.881-4.521-4.654s1.634-4.939,4.312-4.939c3.021,0,3.8,2.622,3.8,4.312
							c0,0.342-0.02,0.589-0.058,0.779H512.131z M517.032,86.192c0.02-1.045-0.437-2.697-2.317-2.697
							c-1.71,0-2.432,1.538-2.564,2.697H517.032z"/>
						<path fill="#FFFFFF" d="M522.728,80.284v2.204h2.394v1.272h-2.394v4.958c0,1.14,0.323,1.786,1.254,1.786
							c0.456,0,0.722-0.038,0.969-0.114l0.076,1.273c-0.323,0.113-0.836,0.228-1.481,0.228c-0.779,0-1.406-0.266-1.805-0.703
							c-0.456-0.513-0.646-1.33-0.646-2.412v-5.016h-1.425v-1.272h1.425v-1.71L522.728,80.284z"/>
						<path fill="#FFFFFF" d="M527.816,87.39c0.038,2.261,1.463,3.191,3.154,3.191c1.196,0,1.938-0.209,2.545-0.476l0.304,1.197
							c-0.589,0.266-1.614,0.589-3.077,0.589c-2.83,0-4.521-1.881-4.521-4.654s1.634-4.939,4.312-4.939c3.021,0,3.8,2.622,3.8,4.312
							c0,0.342-0.02,0.589-0.058,0.779H527.816z M532.718,86.192c0.02-1.045-0.437-2.697-2.317-2.697
							c-1.71,0-2.432,1.538-2.564,2.697H532.718z"/>
						<path fill="#FFFFFF" d="M536.399,84.977c0-0.969-0.019-1.729-0.076-2.488h1.482l0.095,1.52h0.038
							c0.456-0.854,1.52-1.71,3.039-1.71c1.273,0,3.249,0.76,3.249,3.914v5.471h-1.672v-5.3c0-1.482-0.551-2.717-2.128-2.717
							c-1.083,0-1.938,0.778-2.241,1.71c-0.076,0.209-0.114,0.493-0.114,0.778v5.528h-1.672V84.977z"/>
						<path fill="#FFFFFF" d="M554.86,78.194v11.113c0,0.817,0.038,1.748,0.076,2.375h-1.481l-0.076-1.596h-0.058
							c-0.493,1.025-1.596,1.805-3.097,1.805c-2.223,0-3.951-1.881-3.951-4.673c-0.019-3.059,1.9-4.921,4.123-4.921
							c1.425,0,2.355,0.665,2.773,1.387h0.038v-5.49H554.86z M553.208,86.23c0-0.209-0.02-0.494-0.076-0.703
							c-0.247-1.045-1.159-1.919-2.413-1.919c-1.729,0-2.754,1.521-2.754,3.534c0,1.861,0.931,3.4,2.716,3.4
							c1.121,0,2.147-0.76,2.451-1.995c0.057-0.228,0.076-0.456,0.076-0.722V86.23z"/>
						<path fill="#FFFFFF" d="M558.579,87.39c0.038,2.261,1.463,3.191,3.153,3.191c1.197,0,1.938-0.209,2.546-0.476l0.304,1.197
							c-0.589,0.266-1.614,0.589-3.077,0.589c-2.83,0-4.521-1.881-4.521-4.654s1.634-4.939,4.312-4.939c3.021,0,3.8,2.622,3.8,4.312
							c0,0.342-0.02,0.589-0.058,0.779H558.579z M563.48,86.192c0.02-1.045-0.437-2.697-2.317-2.697
							c-1.71,0-2.432,1.538-2.564,2.697H563.48z"/>
						<path fill="#FFFFFF" d="M577.457,90.276h-0.038c-0.514,0.894-1.521,1.615-3.002,1.615c-2.146,0-3.895-1.843-3.895-4.636
							c0-3.457,2.223-4.958,4.16-4.958c1.425,0,2.375,0.703,2.831,1.577h0.038l0.057-1.387h1.577
							c-0.038,0.76-0.076,1.576-0.076,2.526v10.43h-1.652V90.276z M577.457,86.212c0-0.229-0.02-0.476-0.076-0.685
							c-0.267-1.025-1.14-1.899-2.394-1.899c-1.729,0-2.773,1.463-2.773,3.515c0,1.843,0.873,3.419,2.716,3.419
							c1.083,0,2.014-0.665,2.394-1.805c0.076-0.247,0.134-0.569,0.134-0.816V86.212z"/>
						<path fill="#FFFFFF" d="M589.573,89.156c0,0.969,0.019,1.805,0.075,2.526h-1.481l-0.095-1.501h-0.038
							c-0.418,0.741-1.406,1.71-3.04,1.71c-1.443,0-3.172-0.816-3.172-4.027v-5.376h1.672v5.072c0,1.747,0.551,2.944,2.052,2.944
							c1.12,0,1.899-0.779,2.203-1.539c0.095-0.228,0.152-0.531,0.152-0.854v-5.623h1.672V89.156z"/>
						<path fill="#FFFFFF" d="M593.273,87.39c0.038,2.261,1.463,3.191,3.154,3.191c1.196,0,1.938-0.209,2.545-0.476l0.304,1.197
							c-0.589,0.266-1.614,0.589-3.077,0.589c-2.83,0-4.521-1.881-4.521-4.654s1.634-4.939,4.312-4.939c3.021,0,3.8,2.622,3.8,4.312
							c0,0.342-0.02,0.589-0.058,0.779H593.273z M598.175,86.192c0.02-1.045-0.437-2.697-2.317-2.697
							c-1.71,0-2.432,1.538-2.564,2.697H598.175z"/>
						<path fill="#FFFFFF" d="M605.654,89.992c0.513,0.304,1.387,0.646,2.223,0.646c1.196,0,1.767-0.589,1.767-1.368
							c0-0.798-0.476-1.216-1.691-1.671c-1.671-0.608-2.45-1.501-2.45-2.604c0-1.481,1.216-2.697,3.173-2.697
							c0.931,0,1.747,0.247,2.241,0.57l-0.398,1.216c-0.361-0.229-1.026-0.551-1.881-0.551c-0.988,0-1.52,0.569-1.52,1.254
							c0,0.76,0.531,1.102,1.729,1.576c1.576,0.589,2.412,1.387,2.412,2.755c0,1.634-1.272,2.773-3.419,2.773
							c-1.007,0-1.938-0.266-2.584-0.646L605.654,89.992z"/>
						<path fill="#FFFFFF" d="M614.333,87.39c0.038,2.261,1.463,3.191,3.153,3.191c1.197,0,1.938-0.209,2.546-0.476l0.304,1.197
							c-0.589,0.266-1.614,0.589-3.077,0.589c-2.83,0-4.521-1.881-4.521-4.654s1.634-4.939,4.312-4.939c3.021,0,3.8,2.622,3.8,4.312
							c0,0.342-0.02,0.589-0.058,0.779H614.333z M619.234,86.192c0.02-1.045-0.437-2.697-2.317-2.697
							c-1.71,0-2.432,1.538-2.564,2.697H619.234z"/>
						<path fill="#FFFFFF" d="M402.304,112.249c-0.437,0.209-1.405,0.532-2.641,0.532c-2.773,0-4.578-1.881-4.578-4.692
							c0-2.83,1.938-4.901,4.939-4.901c0.988,0,1.861,0.247,2.317,0.494l-0.38,1.272c-0.398-0.209-1.025-0.437-1.938-0.437
							c-2.108,0-3.248,1.576-3.248,3.477c0,2.128,1.367,3.438,3.191,3.438c0.949,0,1.576-0.229,2.052-0.438L402.304,112.249z"/>
						<path fill="#FFFFFF" d="M405.074,108.279c0.038,2.261,1.463,3.191,3.154,3.191c1.196,0,1.938-0.209,2.545-0.476l0.304,1.197
							c-0.589,0.266-1.614,0.589-3.077,0.589c-2.83,0-4.521-1.881-4.521-4.654s1.634-4.939,4.312-4.939c3.021,0,3.8,2.622,3.8,4.312
							c0,0.342-0.02,0.589-0.058,0.779H405.074z M409.976,107.082c0.02-1.045-0.437-2.697-2.317-2.697
							c-1.71,0-2.432,1.538-2.564,2.697H409.976z"/>
						<path fill="#FFFFFF" d="M413.657,105.866c0-0.969-0.019-1.729-0.076-2.488h1.482l0.095,1.52h0.038
							c0.456-0.854,1.52-1.71,3.039-1.71c1.273,0,3.249,0.76,3.249,3.913v5.472h-1.672v-5.3c0-1.482-0.551-2.717-2.128-2.717
							c-1.083,0-1.938,0.778-2.241,1.71c-0.076,0.209-0.114,0.493-0.114,0.778v5.528h-1.672V105.866z"/>
						<path fill="#FFFFFF" d="M426.135,101.174v2.204h2.394v1.272h-2.394v4.958c0,1.141,0.323,1.786,1.254,1.786
							c0.456,0,0.722-0.038,0.969-0.114l0.076,1.273c-0.323,0.113-0.836,0.228-1.481,0.228c-0.779,0-1.406-0.266-1.805-0.703
							c-0.456-0.513-0.646-1.329-0.646-2.412v-5.016h-1.425v-1.272h1.425v-1.71L426.135,101.174z"/>
						<path fill="#FFFFFF" d="M430.406,106.246c0-1.083-0.019-2.014-0.076-2.868h1.463l0.076,1.823h0.057
							c0.418-1.234,1.444-2.014,2.564-2.014c0.172,0,0.305,0.02,0.456,0.038v1.577c-0.171-0.038-0.342-0.038-0.569-0.038
							c-1.178,0-2.014,0.874-2.242,2.128c-0.038,0.228-0.057,0.513-0.057,0.778v4.901h-1.672V106.246z"/>
						<path fill="#FFFFFF" d="M437.356,108.279c0.038,2.261,1.463,3.191,3.153,3.191c1.197,0,1.938-0.209,2.546-0.476l0.304,1.197
							c-0.589,0.266-1.614,0.589-3.077,0.589c-2.83,0-4.521-1.881-4.521-4.654s1.634-4.939,4.312-4.939c3.021,0,3.8,2.622,3.8,4.312
							c0,0.342-0.02,0.589-0.058,0.779H437.356z M442.258,107.082c0.02-1.045-0.437-2.697-2.317-2.697
							c-1.71,0-2.432,1.538-2.564,2.697H442.258z"/>
						<path fill="#FFFFFF" d="M449.737,110.882c0.513,0.304,1.387,0.646,2.223,0.646c1.196,0,1.767-0.589,1.767-1.368
							c0-0.798-0.476-1.216-1.691-1.671c-1.671-0.608-2.45-1.501-2.45-2.603c0-1.482,1.216-2.698,3.173-2.698
							c0.931,0,1.747,0.247,2.241,0.57l-0.398,1.216c-0.361-0.229-1.026-0.551-1.881-0.551c-0.988,0-1.52,0.569-1.52,1.254
							c0,0.76,0.531,1.102,1.729,1.576c1.576,0.589,2.412,1.387,2.412,2.755c0,1.634-1.272,2.773-3.419,2.773
							c-1.007,0-1.938-0.266-2.584-0.646L449.737,110.882z"/>
						<path fill="#FFFFFF" d="M465.807,107.899c0,3.4-2.375,4.882-4.579,4.882c-2.47,0-4.407-1.824-4.407-4.73
							c0-3.059,2.033-4.863,4.56-4.863C464.021,103.188,465.807,105.106,465.807,107.899z M458.53,107.994
							c0,2.014,1.14,3.533,2.773,3.533c1.596,0,2.793-1.501,2.793-3.571c0-1.558-0.779-3.515-2.755-3.515
							C459.385,104.441,458.53,106.266,458.53,107.994z"/>
						<path fill="#FFFFFF" d="M467.911,99.084h1.653v5.775h0.037c0.589-1.025,1.653-1.672,3.135-1.672
							c2.299,0,3.895,1.899,3.895,4.674c0,3.286-2.09,4.92-4.142,4.92c-1.329,0-2.394-0.513-3.097-1.71h-0.037l-0.096,1.501h-1.425
							c0.038-0.627,0.076-1.558,0.076-2.375V99.084z M469.564,108.887c0,0.209,0.019,0.418,0.075,0.608
							c0.305,1.158,1.292,1.956,2.508,1.956c1.767,0,2.793-1.425,2.793-3.533c0-1.843-0.95-3.42-2.755-3.42
							c-1.121,0-2.185,0.798-2.526,2.052c-0.058,0.209-0.095,0.438-0.095,0.703V108.887z"/>
						<path fill="#FFFFFF" d="M478.716,106.246c0-1.083-0.019-2.014-0.076-2.868h1.463l0.076,1.823h0.057
							c0.418-1.234,1.444-2.014,2.565-2.014c0.171,0,0.304,0.02,0.455,0.038v1.577c-0.171-0.038-0.342-0.038-0.569-0.038
							c-1.178,0-2.014,0.874-2.242,2.128c-0.038,0.228-0.057,0.513-0.057,0.778v4.901h-1.672V106.246z"/>
						<path fill="#FFFFFF" d="M485.667,108.279c0.038,2.261,1.463,3.191,3.153,3.191c1.197,0,1.938-0.209,2.546-0.476l0.304,1.197
							c-0.589,0.266-1.614,0.589-3.077,0.589c-2.83,0-4.521-1.881-4.521-4.654s1.634-4.939,4.312-4.939c3.021,0,3.8,2.622,3.8,4.312
							c0,0.342-0.02,0.589-0.058,0.779H485.667z M490.568,107.082c0.02-1.045-0.437-2.697-2.317-2.697
							c-1.71,0-2.432,1.538-2.564,2.697H490.568z"/>
						<path fill="#FFFFFF" d="M498.275,99.084h1.672v13.488h-1.672V99.084z"/>
						<path fill="#FFFFFF" d="M511.078,107.899c0,3.4-2.375,4.882-4.579,4.882c-2.47,0-4.407-1.824-4.407-4.73
							c0-3.059,2.033-4.863,4.56-4.863C509.292,103.188,511.078,105.106,511.078,107.899z M503.802,107.994
							c0,2.014,1.14,3.533,2.773,3.533c1.596,0,2.793-1.501,2.793-3.571c0-1.558-0.779-3.515-2.755-3.515
							C504.656,104.441,503.802,106.266,503.802,107.994z"/>
						<path fill="#FFFFFF" d="M512.955,110.882c0.513,0.304,1.387,0.646,2.223,0.646c1.196,0,1.767-0.589,1.767-1.368
							c0-0.798-0.476-1.216-1.691-1.671c-1.671-0.608-2.45-1.501-2.45-2.603c0-1.482,1.216-2.698,3.173-2.698
							c0.931,0,1.747,0.247,2.241,0.57l-0.398,1.216c-0.361-0.229-1.026-0.551-1.881-0.551c-0.988,0-1.52,0.569-1.52,1.254
							c0,0.76,0.531,1.102,1.729,1.576c1.576,0.589,2.412,1.387,2.412,2.755c0,1.634-1.272,2.773-3.419,2.773
							c-1.007,0-1.938-0.266-2.584-0.646L512.955,110.882z"/>
						<path fill="#FFFFFF" d="M524.501,110.882c0.513,0.304,1.387,0.646,2.223,0.646c1.196,0,1.767-0.589,1.767-1.368
							c0-0.798-0.476-1.216-1.691-1.671c-1.671-0.608-2.45-1.501-2.45-2.603c0-1.482,1.216-2.698,3.173-2.698
							c0.931,0,1.747,0.247,2.241,0.57l-0.398,1.216c-0.361-0.229-1.026-0.551-1.881-0.551c-0.988,0-1.52,0.569-1.52,1.254
							c0,0.76,0.531,1.102,1.729,1.576c1.576,0.589,2.412,1.387,2.412,2.755c0,1.634-1.272,2.773-3.419,2.773
							c-1.007,0-1.938-0.266-2.584-0.646L524.501,110.882z"/>
						<path fill="#FFFFFF" d="M533.18,108.279c0.038,2.261,1.463,3.191,3.154,3.191c1.196,0,1.938-0.209,2.545-0.476l0.304,1.197
							c-0.589,0.266-1.614,0.589-3.077,0.589c-2.83,0-4.521-1.881-4.521-4.654s1.634-4.939,4.312-4.939c3.021,0,3.8,2.622,3.8,4.312
							c0,0.342-0.02,0.589-0.058,0.779H533.18z M538.081,107.082c0.02-1.045-0.437-2.697-2.317-2.697
							c-1.71,0-2.432,1.538-2.564,2.697H538.081z"/>
						<path fill="#FFFFFF" d="M541.763,105.866c0-0.969-0.019-1.729-0.076-2.488h1.482l0.095,1.52h0.038
							c0.456-0.854,1.52-1.71,3.039-1.71c1.273,0,3.249,0.76,3.249,3.913v5.472h-1.672v-5.3c0-1.482-0.551-2.717-2.128-2.717
							c-1.083,0-1.938,0.778-2.241,1.71c-0.076,0.209-0.114,0.493-0.114,0.778v5.528h-1.672V105.866z"/>
						<path fill="#FFFFFF" d="M554.239,101.174v2.204h2.394v1.272h-2.394v4.958c0,1.141,0.323,1.786,1.254,1.786
							c0.456,0,0.722-0.038,0.969-0.114l0.076,1.273c-0.323,0.113-0.836,0.228-1.481,0.228c-0.779,0-1.406-0.266-1.805-0.703
							c-0.456-0.513-0.646-1.329-0.646-2.412v-5.016h-1.425v-1.272h1.425v-1.71L554.239,101.174z"/>
						<path fill="#FFFFFF" d="M560.372,100.794c0,0.57-0.398,1.026-1.063,1.026c-0.607,0-1.007-0.456-1.007-1.026
							s0.418-1.045,1.045-1.045C559.955,99.749,560.372,100.205,560.372,100.794z M558.511,112.572v-9.194h1.672v9.194H558.511z"/>
						<path fill="#FFFFFF" d="M562.954,105.866c0-0.969-0.038-1.729-0.076-2.488h1.463l0.076,1.5h0.057
							c0.514-0.873,1.368-1.69,2.907-1.69c1.234,0,2.185,0.76,2.583,1.843h0.038c0.285-0.532,0.665-0.912,1.045-1.196
							c0.551-0.418,1.14-0.646,2.014-0.646c1.235,0,3.04,0.798,3.04,3.989v5.396h-1.634v-5.187c0-1.785-0.665-2.83-1.995-2.83
							c-0.969,0-1.69,0.703-1.994,1.501c-0.076,0.246-0.134,0.531-0.134,0.836v5.68h-1.634v-5.509c0-1.463-0.646-2.508-1.918-2.508
							c-1.026,0-1.805,0.836-2.071,1.672c-0.095,0.228-0.133,0.531-0.133,0.816v5.528h-1.634V105.866z"/>
						<path fill="#FFFFFF" d="M580.653,100.794c0,0.57-0.398,1.026-1.063,1.026c-0.607,0-1.007-0.456-1.007-1.026
							s0.418-1.045,1.045-1.045C580.236,99.749,580.653,100.205,580.653,100.794z M578.792,112.572v-9.194h1.672v9.194H578.792z"/>
						<path fill="#FFFFFF" d="M584.166,108.279c0.038,2.261,1.463,3.191,3.154,3.191c1.196,0,1.938-0.209,2.545-0.476l0.304,1.197
							c-0.589,0.266-1.614,0.589-3.077,0.589c-2.83,0-4.521-1.881-4.521-4.654s1.634-4.939,4.312-4.939c3.021,0,3.8,2.622,3.8,4.312
							c0,0.342-0.02,0.589-0.058,0.779H584.166z M589.067,107.082c0.02-1.045-0.437-2.697-2.317-2.697
							c-1.71,0-2.432,1.538-2.564,2.697H589.067z"/>
						<path fill="#FFFFFF" d="M592.749,105.866c0-0.969-0.019-1.729-0.076-2.488h1.482l0.095,1.52h0.038
							c0.456-0.854,1.52-1.71,3.039-1.71c1.273,0,3.249,0.76,3.249,3.913v5.472h-1.672v-5.3c0-1.482-0.551-2.717-2.128-2.717
							c-1.083,0-1.938,0.778-2.241,1.71c-0.076,0.209-0.114,0.493-0.114,0.778v5.528h-1.672V105.866z"/>
						<path fill="#FFFFFF" d="M605.227,101.174v2.204h2.394v1.272h-2.394v4.958c0,1.141,0.323,1.786,1.254,1.786
							c0.456,0,0.722-0.038,0.969-0.114l0.076,1.273c-0.323,0.113-0.836,0.228-1.481,0.228c-0.779,0-1.406-0.266-1.805-0.703
							c-0.456-0.513-0.646-1.329-0.646-2.412v-5.016h-1.425v-1.272h1.425v-1.71L605.227,101.174z"/>
						<path fill="#FFFFFF" d="M617.705,107.899c0,3.4-2.375,4.882-4.579,4.882c-2.47,0-4.407-1.824-4.407-4.73
							c0-3.059,2.033-4.863,4.56-4.863C615.919,103.188,617.705,105.106,617.705,107.899z M610.429,107.994
							c0,2.014,1.14,3.533,2.773,3.533c1.596,0,2.793-1.501,2.793-3.571c0-1.558-0.779-3.515-2.755-3.515
							C611.283,104.441,610.429,106.266,610.429,107.994z"/>
						<path fill="#FFFFFF" d="M619.582,110.882c0.513,0.304,1.387,0.646,2.223,0.646c1.196,0,1.767-0.589,1.767-1.368
							c0-0.798-0.476-1.216-1.691-1.671c-1.671-0.608-2.45-1.501-2.45-2.603c0-1.482,1.216-2.698,3.173-2.698
							c0.931,0,1.747,0.247,2.241,0.57l-0.398,1.216c-0.361-0.229-1.026-0.551-1.881-0.551c-0.988,0-1.52,0.569-1.52,1.254
							c0,0.76,0.531,1.102,1.729,1.576c1.576,0.589,2.412,1.387,2.412,2.755c0,1.634-1.272,2.773-3.419,2.773
							c-1.007,0-1.938-0.266-2.584-0.646L619.582,110.882z"/>
						<path fill="#FFFFFF" d="M626.323,114.871c1.33-1.881,2.375-4.331,2.375-7.751s-1.026-5.832-2.375-7.731h1.292
							c1.196,1.558,2.488,4.008,2.488,7.731c-0.019,3.724-1.292,6.155-2.488,7.751H626.323z"/>
						<path fill="#FFFFFF" d="M632.325,111.584c0-0.684,0.475-1.196,1.14-1.196s1.12,0.494,1.12,1.196
							c0,0.685-0.455,1.197-1.158,1.197C632.78,112.781,632.325,112.269,632.325,111.584z"/>
					</g>
				</g>
			</g>
		</g>
		<path fill="none" stroke="#A2B735" stroke-width="5" stroke-miterlimit="10" stroke-dasharray="4" d="M385.169,57.261
			c0,0-4.593-7.779-10.714-12.417c-7.209-5.462-26.428-13.445-26.428-13.445"/>
	</g>
</g>
</svg>
