<?xml version="1.0" encoding="utf-8"?>
<!-- Generator: Adobe Illustrator 16.0.0, SVG Export Plug-In . SVG Version: 6.00 Build 0)  -->
<!DOCTYPE svg PUBLIC "-//W3C//DTD SVG 1.1//EN" "http://www.w3.org/Graphics/SVG/1.1/DTD/svg11.dtd">
<svg version="1.1" id="Capa_1" xmlns="http://www.w3.org/2000/svg" xmlns:xlink="http://www.w3.org/1999/xlink" x="0px" y="0px"
	 width="650.143px" height="212.32px" viewBox="0 0 650.143 212.32" enable-background="new 0 0 650.143 212.32"
	 xml:space="preserve">
<g>
	<g>
		<rect fill="#EBE760" fill-opacity="0.4" width="236.895" height="25.702"/>
	</g>
	<g>
		<g>
			<g>
				<path fill-rule="evenodd" clip-rule="evenodd" fill="#C15921" d="M650.143,200.32c0,6.628-5.373,12-12,12H432.494
					c-6.627,0-12-5.372-12-12V88.873c0-6.628,5.373-12,12-12h205.648c6.627,0,12,5.372,12,12V200.32z"/>
				<g>
					<g>
						<path fill="#FFFFFF" d="M450.537,94.127c0.98-0.16,2.42-0.28,4.061-0.28c2,0,3.4,0.3,4.361,1.061
							c0.82,0.64,1.26,1.601,1.26,2.841c0,1.7-1.221,2.88-2.381,3.3v0.061c0.941,0.38,1.461,1.26,1.801,2.5
							c0.42,1.541,0.82,3.301,1.08,3.821h-3.121c-0.199-0.4-0.539-1.48-0.92-3.141c-0.381-1.7-0.961-2.141-2.221-2.16h-0.9v5.301
							h-3.02V94.127z M453.557,99.928h1.201c1.52,0,2.42-0.76,2.42-1.94c0-1.22-0.84-1.86-2.24-1.86c-0.74,0-1.16,0.04-1.381,0.101
							V99.928z"/>
						<path fill="#FFFFFF" d="M464.637,103.509c0.08,1.261,1.34,1.86,2.76,1.86c1.041,0,1.881-0.14,2.701-0.42l0.4,2.061
							c-1,0.42-2.221,0.62-3.541,0.62c-3.32,0-5.221-1.921-5.221-4.981c0-2.48,1.539-5.221,4.941-5.221
							c3.16,0,4.359,2.46,4.359,4.881c0,0.521-0.059,0.98-0.1,1.2H464.637z M468.217,101.429c0-0.74-0.32-1.98-1.721-1.98
							c-1.279,0-1.799,1.18-1.879,1.98H468.217z"/>
						<path fill="#FFFFFF" d="M476.256,95.007v2.641h2.182v2.24h-2.182v3.541c0,1.181,0.301,1.721,1.201,1.721
							c0.42,0,0.619-0.021,0.9-0.08l0.02,2.301c-0.381,0.14-1.121,0.26-1.961,0.26c-0.98,0-1.801-0.34-2.301-0.84
							c-0.559-0.581-0.84-1.521-0.84-2.901v-4.001h-1.301v-2.24h1.301v-1.82L476.256,95.007z"/>
						<path fill="#FFFFFF" d="M480.195,100.868c0-1.44-0.02-2.381-0.08-3.221h2.602l0.119,1.801h0.08
							c0.5-1.44,1.68-2.041,2.641-2.041c0.279,0,0.42,0.021,0.641,0.061v2.86c-0.24-0.04-0.48-0.08-0.82-0.08
							c-1.121,0-1.881,0.601-2.08,1.54c-0.041,0.2-0.061,0.44-0.061,0.681v4.961h-3.041V100.868z"/>
						<path fill="#FFFFFF" d="M497.297,102.429c0,3.581-2.541,5.221-5.16,5.221c-2.861,0-5.062-1.88-5.062-5.041
							c0-3.181,2.08-5.201,5.242-5.201C495.297,97.407,497.297,99.468,497.297,102.429z M490.215,102.528
							c0,1.681,0.701,2.941,2,2.941c1.201,0,1.941-1.181,1.941-2.961c0-1.44-0.561-2.921-1.941-2.921
							C490.775,99.588,490.215,101.088,490.215,102.528z"/>
						<path fill="#FFFFFF" d="M507.316,105.069c0,0.92,0.041,1.82,0.16,2.36h-2.74l-0.18-0.98h-0.061
							c-0.641,0.78-1.641,1.2-2.801,1.2c-1.98,0-3.16-1.44-3.16-3c0-2.541,2.279-3.741,5.74-3.741v-0.12
							c0-0.54-0.279-1.28-1.779-1.28c-1,0-2.061,0.34-2.701,0.74l-0.561-1.96c0.68-0.381,2.021-0.881,3.801-0.881
							c3.262,0,4.281,1.921,4.281,4.241V105.069z M504.375,102.809c-1.6,0-2.84,0.38-2.84,1.54c0,0.78,0.52,1.16,1.201,1.16
							c0.74,0,1.379-0.5,1.58-1.12c0.039-0.159,0.059-0.34,0.059-0.52V102.809z"/>
						<path fill="#FFFFFF" d="M509.734,93.227h3.041v14.203h-3.041V93.227z"/>
						<path fill="#FFFFFF" d="M518.375,94.927c0,0.841-0.619,1.521-1.641,1.521c-0.959,0-1.58-0.68-1.58-1.521
							c0-0.86,0.641-1.521,1.621-1.521S518.355,94.066,518.375,94.927z M515.234,107.43v-9.782h3.041v9.782H515.234z"/>
						<path fill="#FFFFFF" d="M520.715,100.769c0-1.221-0.041-2.241-0.08-3.121h2.58l0.119,1.32h0.061
							c0.42-0.64,1.301-1.561,2.961-1.561c1.279,0,2.26,0.66,2.68,1.681h0.041c0.379-0.521,0.799-0.92,1.279-1.2
							c0.541-0.3,1.141-0.48,1.861-0.48c1.881,0,3.301,1.32,3.301,4.262v5.761h-2.961v-5.321c0-1.42-0.461-2.24-1.441-2.24
							c-0.719,0-1.199,0.48-1.42,1.061c-0.059,0.22-0.1,0.52-0.1,0.779v5.722h-2.961v-5.501c0-1.221-0.439-2.061-1.42-2.061
							c-0.779,0-1.24,0.6-1.42,1.08c-0.1,0.24-0.121,0.521-0.121,0.78v5.701h-2.959V100.769z"/>
						<path fill="#FFFFFF" d="M540.254,103.509c0.08,1.261,1.34,1.86,2.76,1.86c1.041,0,1.881-0.14,2.701-0.42l0.4,2.061
							c-1,0.42-2.221,0.62-3.541,0.62c-3.32,0-5.221-1.921-5.221-4.981c0-2.48,1.539-5.221,4.941-5.221
							c3.16,0,4.359,2.46,4.359,4.881c0,0.521-0.059,0.98-0.1,1.2H540.254z M543.834,101.429c0-0.74-0.32-1.98-1.721-1.98
							c-1.279,0-1.799,1.18-1.879,1.98H543.834z"/>
						<path fill="#FFFFFF" d="M548.473,100.769c0-1.221-0.039-2.241-0.08-3.121h2.641l0.141,1.36h0.059
							c0.4-0.64,1.381-1.58,3.021-1.58c2,0,3.5,1.34,3.5,4.221v5.781h-3.039v-5.421c0-1.261-0.441-2.121-1.541-2.121
							c-0.84,0-1.34,0.58-1.561,1.141c-0.08,0.2-0.1,0.48-0.1,0.76v5.642h-3.041V100.769z"/>
						<path fill="#FFFFFF" d="M563.473,95.007v2.641h2.182v2.24h-2.182v3.541c0,1.181,0.301,1.721,1.201,1.721
							c0.42,0,0.619-0.021,0.9-0.08l0.02,2.301c-0.381,0.14-1.121,0.26-1.961,0.26c-0.98,0-1.801-0.34-2.301-0.84
							c-0.559-0.581-0.84-1.521-0.84-2.901v-4.001h-1.301v-2.24h1.301v-1.82L563.473,95.007z"/>
						<path fill="#FFFFFF" d="M575.555,105.069c0,0.92,0.039,1.82,0.16,2.36h-2.742l-0.18-0.98h-0.061
							c-0.639,0.78-1.639,1.2-2.799,1.2c-1.98,0-3.162-1.44-3.162-3c0-2.541,2.281-3.741,5.742-3.741v-0.12
							c0-0.54-0.281-1.28-1.781-1.28c-1,0-2.061,0.34-2.699,0.74l-0.561-1.96c0.68-0.381,2.02-0.881,3.801-0.881
							c3.26,0,4.281,1.921,4.281,4.241V105.069z M572.613,102.809c-1.6,0-2.84,0.38-2.84,1.54c0,0.78,0.52,1.16,1.199,1.16
							c0.74,0,1.381-0.5,1.58-1.12c0.041-0.159,0.061-0.34,0.061-0.52V102.809z"/>
						<path fill="#FFFFFF" d="M585.312,107.17c-0.539,0.26-1.559,0.46-2.721,0.46c-3.16,0-5.18-1.94-5.18-5.001
							c0-2.861,1.959-5.201,5.602-5.201c0.799,0,1.68,0.14,2.32,0.38l-0.48,2.261c-0.361-0.16-0.9-0.301-1.701-0.301
							c-1.6,0-2.641,1.141-2.619,2.741c0,1.78,1.199,2.74,2.68,2.74c0.721,0,1.279-0.12,1.74-0.32L585.312,107.17z"/>
						<path fill="#FFFFFF" d="M590.133,94.927c0,0.841-0.621,1.521-1.641,1.521c-0.961,0-1.58-0.68-1.58-1.521
							c0-0.86,0.639-1.521,1.619-1.521S590.111,94.066,590.133,94.927z M586.992,107.43v-9.782h3.039v9.782H586.992z"/>
						<path fill="#FFFFFF" d="M602.133,102.429c0,3.581-2.541,5.221-5.16,5.221c-2.861,0-5.062-1.88-5.062-5.041
							c0-3.181,2.08-5.201,5.242-5.201C600.133,97.407,602.133,99.468,602.133,102.429z M595.051,102.528
							c0,1.681,0.701,2.941,2,2.941c1.201,0,1.941-1.181,1.941-2.961c0-1.44-0.561-2.921-1.941-2.921
							C595.611,99.588,595.051,101.088,595.051,102.528z M600.193,93.387l-2.441,3.041h-2.08l1.721-3.041H600.193z"/>
						<path fill="#FFFFFF" d="M604.012,100.769c0-1.221-0.041-2.241-0.08-3.121h2.641l0.139,1.36h0.061
							c0.4-0.64,1.381-1.58,3.021-1.58c2,0,3.5,1.34,3.5,4.221v5.781h-3.041v-5.421c0-1.261-0.439-2.121-1.541-2.121
							c-0.84,0-1.34,0.58-1.559,1.141c-0.08,0.2-0.102,0.48-0.102,0.76v5.642h-3.039V100.769z"/>
						<path fill="#FFFFFF" d="M615.531,99.368c0-1.08,0.74-1.841,1.779-1.841c1.061,0,1.76,0.74,1.781,1.841
							c0,1.04-0.701,1.82-1.801,1.82C616.25,101.188,615.531,100.408,615.531,99.368z M615.531,105.829c0-1.08,0.74-1.84,1.779-1.84
							c1.061,0,1.76,0.74,1.781,1.84c0,1.04-0.701,1.82-1.801,1.82C616.25,107.649,615.531,106.869,615.531,105.829z"/>
						<path fill="#FFFFFF" d="M429.348,124.909c0.04,2.38,1.541,3.36,3.32,3.36c1.262,0,2.041-0.22,2.682-0.5l0.32,1.26
							c-0.621,0.28-1.701,0.62-3.242,0.62c-2.98,0-4.76-1.98-4.76-4.9c0-2.921,1.72-5.201,4.541-5.201c3.18,0,4,2.761,4,4.541
							c0,0.359-0.02,0.62-0.061,0.82H429.348z M434.51,123.648c0.02-1.101-0.461-2.841-2.441-2.841c-1.801,0-2.561,1.62-2.701,2.841
							H434.51z"/>
						<path fill="#FFFFFF" d="M438.148,127.649c0.539,0.32,1.459,0.68,2.34,0.68c1.26,0,1.859-0.62,1.859-1.44
							c0-0.84-0.5-1.28-1.779-1.76c-1.76-0.641-2.58-1.58-2.58-2.741c0-1.56,1.279-2.84,3.34-2.84c0.98,0,1.84,0.26,2.361,0.6
							l-0.42,1.28c-0.381-0.24-1.082-0.58-1.98-0.58c-1.041,0-1.602,0.601-1.602,1.32c0,0.801,0.561,1.16,1.82,1.66
							c1.66,0.62,2.541,1.461,2.541,2.901c0,1.72-1.34,2.92-3.602,2.92c-1.059,0-2.039-0.279-2.721-0.68L438.148,127.649z"/>
						<path fill="#FFFFFF" d="M452.508,117.027c0,0.6-0.42,1.08-1.119,1.08c-0.641,0-1.061-0.48-1.061-1.08
							c0-0.601,0.439-1.101,1.1-1.101C452.068,115.927,452.508,116.407,452.508,117.027z M450.547,129.43v-9.682h1.762v9.682
							H450.547z"/>
						<path fill="#FFFFFF" d="M455.227,122.368c0-1.021-0.039-1.82-0.08-2.62h1.541l0.08,1.58h0.061
							c0.539-0.92,1.439-1.78,3.061-1.78c1.301,0,2.301,0.8,2.721,1.94h0.039c0.301-0.561,0.701-0.961,1.102-1.261
							c0.58-0.439,1.199-0.68,2.119-0.68c1.301,0,3.201,0.84,3.201,4.2v5.682h-1.721v-5.461c0-1.881-0.699-2.98-2.1-2.98
							c-1.021,0-1.781,0.74-2.102,1.58c-0.08,0.26-0.139,0.56-0.139,0.88v5.981h-1.721v-5.801c0-1.541-0.68-2.641-2.021-2.641
							c-1.08,0-1.9,0.88-2.18,1.76c-0.1,0.24-0.141,0.561-0.141,0.86v5.821h-1.721V122.368z"/>
						<path fill="#FFFFFF" d="M471.906,122.908c0-1.24-0.039-2.24-0.08-3.16h1.561l0.102,1.66h0.039
							c0.701-1.181,1.861-1.86,3.441-1.86c2.359,0,4.121,1.98,4.121,4.9c0,3.481-2.141,5.201-4.422,5.201
							c-1.279,0-2.4-0.56-2.98-1.52h-0.039v5.261h-1.742V122.908z M473.648,125.489c0,0.26,0.02,0.5,0.078,0.72
							c0.32,1.221,1.381,2.061,2.641,2.061c1.861,0,2.941-1.521,2.941-3.741c0-1.92-1.02-3.58-2.881-3.58
							c-1.199,0-2.34,0.84-2.66,2.16c-0.061,0.22-0.119,0.48-0.119,0.7V125.489z"/>
						<path fill="#FFFFFF" d="M492.049,124.509c0,3.581-2.5,5.141-4.82,5.141c-2.602,0-4.643-1.92-4.643-4.98
							c0-3.221,2.141-5.121,4.803-5.121C490.168,119.548,492.049,121.568,492.049,124.509z M484.387,124.608
							c0,2.121,1.201,3.721,2.922,3.721c1.68,0,2.939-1.58,2.939-3.761c0-1.64-0.82-3.7-2.9-3.7
							C485.287,120.868,484.387,122.788,484.387,124.608z"/>
						<path fill="#FFFFFF" d="M494.266,122.769c0-1.141-0.02-2.121-0.08-3.021h1.541l0.08,1.92h0.061
							c0.439-1.3,1.52-2.12,2.701-2.12c0.18,0,0.318,0.02,0.479,0.04v1.66c-0.18-0.04-0.359-0.04-0.6-0.04
							c-1.24,0-2.121,0.92-2.361,2.24c-0.039,0.24-0.059,0.54-0.059,0.82v5.161h-1.762V122.769z"/>
						<path fill="#FFFFFF" d="M503.406,117.427v2.321h2.521v1.34h-2.521v5.221c0,1.2,0.34,1.881,1.32,1.881
							c0.48,0,0.76-0.04,1.02-0.12l0.08,1.341c-0.34,0.119-0.879,0.239-1.559,0.239c-0.82,0-1.48-0.279-1.9-0.74
							c-0.48-0.54-0.682-1.4-0.682-2.54v-5.281h-1.5v-1.34h1.5v-1.801L503.406,117.427z"/>
						<path fill="#FFFFFF" d="M514.707,127.109c0,0.84,0.041,1.66,0.141,2.32h-1.58l-0.141-1.221h-0.061
							c-0.539,0.761-1.58,1.44-2.959,1.44c-1.961,0-2.961-1.38-2.961-2.78c0-2.341,2.08-3.621,5.82-3.601v-0.2
							c0-0.78-0.219-2.24-2.199-2.221c-0.922,0-1.861,0.261-2.541,0.721l-0.4-1.181c0.801-0.5,1.98-0.84,3.201-0.84
							c2.961,0,3.68,2.021,3.68,3.94V127.109z M513.008,124.488c-1.922-0.04-4.102,0.301-4.102,2.181c0,1.16,0.76,1.681,1.641,1.681
							c1.279,0,2.1-0.801,2.381-1.62c0.059-0.2,0.08-0.4,0.08-0.561V124.488z"/>
						<path fill="#FFFFFF" d="M517.545,122.368c0-1.021-0.02-1.82-0.08-2.62h1.561l0.102,1.6h0.039c0.48-0.899,1.6-1.8,3.201-1.8
							c1.34,0,3.42,0.8,3.42,4.121v5.761h-1.76v-5.581c0-1.561-0.58-2.86-2.24-2.86c-1.141,0-2.041,0.819-2.361,1.8
							c-0.08,0.221-0.119,0.521-0.119,0.82v5.821h-1.762V122.368z"/>
						<path fill="#FFFFFF" d="M530.686,117.427v2.321h2.521v1.34h-2.521v5.221c0,1.2,0.34,1.881,1.32,1.881
							c0.48,0,0.76-0.04,1.02-0.12l0.08,1.341c-0.34,0.119-0.879,0.239-1.559,0.239c-0.82,0-1.48-0.279-1.9-0.74
							c-0.48-0.54-0.682-1.4-0.682-2.54v-5.281h-1.5v-1.34h1.5v-1.801L530.686,117.427z"/>
						<path fill="#FFFFFF" d="M536.047,124.909c0.039,2.38,1.539,3.36,3.32,3.36c1.26,0,2.041-0.22,2.68-0.5l0.32,1.26
							c-0.619,0.28-1.699,0.62-3.24,0.62c-2.98,0-4.762-1.98-4.762-4.9c0-2.921,1.721-5.201,4.541-5.201
							c3.182,0,4.002,2.761,4.002,4.541c0,0.359-0.02,0.62-0.061,0.82H536.047z M541.207,123.648
							c0.021-1.101-0.459-2.841-2.439-2.841c-1.801,0-2.561,1.62-2.701,2.841H541.207z"/>
						<path fill="#FFFFFF" d="M557.668,115.227v11.702c0,0.86,0.039,1.841,0.08,2.501h-1.561l-0.08-1.681h-0.061
							c-0.52,1.08-1.68,1.9-3.26,1.9c-2.342,0-4.162-1.98-4.162-4.921c-0.02-3.221,2.002-5.181,4.342-5.181
							c1.5,0,2.48,0.7,2.92,1.46h0.041v-5.781H557.668z M555.928,123.688c0-0.22-0.02-0.521-0.08-0.74
							c-0.26-1.101-1.221-2.021-2.541-2.021c-1.82,0-2.9,1.601-2.9,3.721c0,1.961,0.98,3.581,2.861,3.581
							c1.18,0,2.26-0.8,2.58-2.101c0.061-0.24,0.08-0.48,0.08-0.76V123.688z"/>
						<path fill="#FFFFFF" d="M561.586,124.909c0.041,2.38,1.541,3.36,3.322,3.36c1.26,0,2.039-0.22,2.68-0.5l0.32,1.26
							c-0.621,0.28-1.701,0.62-3.24,0.62c-2.98,0-4.762-1.98-4.762-4.9c0-2.921,1.721-5.201,4.541-5.201c3.18,0,4,2.761,4,4.541
							c0,0.359-0.02,0.62-0.059,0.82H561.586z M566.748,123.648c0.02-1.101-0.461-2.841-2.441-2.841
							c-1.801,0-2.561,1.62-2.699,2.841H566.748z"/>
						<path fill="#FFFFFF" d="M570.387,127.649c0.539,0.32,1.459,0.68,2.34,0.68c1.26,0,1.859-0.62,1.859-1.44
							c0-0.84-0.5-1.28-1.779-1.76c-1.76-0.641-2.58-1.58-2.58-2.741c0-1.56,1.279-2.84,3.34-2.84c0.98,0,1.84,0.26,2.361,0.6
							l-0.42,1.28c-0.381-0.24-1.082-0.58-1.98-0.58c-1.041,0-1.602,0.601-1.602,1.32c0,0.801,0.561,1.16,1.82,1.66
							c1.66,0.62,2.541,1.461,2.541,2.901c0,1.72-1.34,2.92-3.602,2.92c-1.059,0-2.039-0.279-2.721-0.68L570.387,127.649z"/>
						<path fill="#FFFFFF" d="M580.666,117.427v2.321h2.521v1.34h-2.521v5.221c0,1.2,0.34,1.881,1.32,1.881
							c0.48,0,0.76-0.04,1.02-0.12l0.08,1.341c-0.34,0.119-0.879,0.239-1.559,0.239c-0.82,0-1.48-0.279-1.9-0.74
							c-0.48-0.54-0.682-1.4-0.682-2.54v-5.281h-1.5v-1.34h1.5v-1.801L580.666,117.427z"/>
						<path fill="#FFFFFF" d="M587.127,117.027c0,0.6-0.42,1.08-1.121,1.08c-0.641,0-1.061-0.48-1.061-1.08
							c0-0.601,0.441-1.101,1.102-1.101C586.686,115.927,587.127,116.407,587.127,117.027z M585.166,129.43v-9.682h1.76v9.682
							H585.166z"/>
						<path fill="#FFFFFF" d="M589.846,122.368c0-1.021-0.02-1.82-0.08-2.62h1.561l0.1,1.6h0.041c0.479-0.899,1.6-1.8,3.199-1.8
							c1.342,0,3.422,0.8,3.422,4.121v5.761h-1.762v-5.581c0-1.561-0.58-2.86-2.24-2.86c-1.141,0-2.039,0.819-2.359,1.8
							c-0.08,0.221-0.121,0.521-0.121,0.82v5.821h-1.76V122.368z"/>
						<path fill="#FFFFFF" d="M607.746,127.109c0,0.84,0.041,1.66,0.141,2.32h-1.58l-0.141-1.221h-0.061
							c-0.539,0.761-1.58,1.44-2.959,1.44c-1.961,0-2.961-1.38-2.961-2.78c0-2.341,2.08-3.621,5.82-3.601v-0.2
							c0-0.78-0.219-2.24-2.199-2.221c-0.922,0-1.861,0.261-2.541,0.721l-0.4-1.181c0.801-0.5,1.98-0.84,3.201-0.84
							c2.961,0,3.68,2.021,3.68,3.94V127.109z M606.047,124.488c-1.922-0.04-4.102,0.301-4.102,2.181c0,1.16,0.76,1.681,1.641,1.681
							c1.279,0,2.1-0.801,2.381-1.62c0.059-0.2,0.08-0.4,0.08-0.561V124.488z"/>
						<path fill="#FFFFFF" d="M610.584,122.769c0-1.141-0.02-2.121-0.08-3.021h1.541l0.08,1.92h0.061
							c0.439-1.3,1.52-2.12,2.701-2.12c0.18,0,0.318,0.02,0.479,0.04v1.66c-0.18-0.04-0.359-0.04-0.6-0.04
							c-1.24,0-2.121,0.92-2.361,2.24c-0.039,0.24-0.059,0.54-0.059,0.82v5.161h-1.762V122.769z"/>
						<path fill="#FFFFFF" d="M629.467,126.77c0,1.02,0.02,1.9,0.08,2.66h-1.561l-0.1-1.58h-0.041c-0.439,0.78-1.48,1.8-3.199,1.8
							c-1.521,0-3.342-0.859-3.342-4.24v-5.661h1.762v5.341c0,1.84,0.58,3.101,2.16,3.101c1.18,0,2-0.82,2.32-1.62
							c0.1-0.24,0.16-0.561,0.16-0.9v-5.921h1.76V126.77z"/>
						<path fill="#FFFFFF" d="M632.385,122.368c0-1.021-0.02-1.82-0.08-2.62h1.561l0.1,1.6h0.041c0.479-0.899,1.6-1.8,3.199-1.8
							c1.342,0,3.422,0.8,3.422,4.121v5.761h-1.762v-5.581c0-1.561-0.58-2.86-2.24-2.86c-1.141,0-2.039,0.819-2.359,1.8
							c-0.08,0.221-0.121,0.521-0.121,0.82v5.821h-1.76V122.368z"/>
						<path fill="#FFFFFF" d="M427.088,146.909c0.039,2.38,1.54,3.36,3.32,3.36c1.26,0,2.041-0.22,2.68-0.5l0.32,1.26
							c-0.619,0.28-1.699,0.62-3.24,0.62c-2.98,0-4.761-1.98-4.761-4.9c0-2.921,1.72-5.201,4.541-5.201
							c3.181,0,4.001,2.761,4.001,4.541c0,0.359-0.02,0.62-0.061,0.82H427.088z M432.248,145.648
							c0.021-1.101-0.459-2.841-2.439-2.841c-1.801,0-2.561,1.62-2.701,2.841H432.248z"/>
						<path fill="#FFFFFF" d="M435.887,149.649c0.541,0.32,1.461,0.68,2.34,0.68c1.262,0,1.861-0.62,1.861-1.44
							c0-0.84-0.5-1.28-1.781-1.76c-1.76-0.641-2.58-1.58-2.58-2.741c0-1.56,1.281-2.84,3.342-2.84c0.979,0,1.84,0.26,2.359,0.6
							l-0.42,1.28c-0.381-0.24-1.08-0.58-1.98-0.58c-1.041,0-1.6,0.601-1.6,1.32c0,0.801,0.559,1.16,1.82,1.66
							c1.66,0.62,2.539,1.461,2.539,2.901c0,1.72-1.34,2.92-3.6,2.92c-1.061,0-2.041-0.279-2.721-0.68L435.887,149.649z"/>
						<path fill="#FFFFFF" d="M444.047,144.908c0-1.24-0.041-2.24-0.08-3.16h1.561l0.1,1.66h0.041
							c0.699-1.181,1.859-1.86,3.439-1.86c2.361,0,4.121,1.98,4.121,4.9c0,3.481-2.141,5.201-4.42,5.201
							c-1.281,0-2.4-0.56-2.982-1.52h-0.039v5.261h-1.74V144.908z M445.787,147.489c0,0.26,0.02,0.5,0.08,0.72
							c0.32,1.221,1.381,2.061,2.641,2.061c1.859,0,2.941-1.521,2.941-3.741c0-1.92-1.021-3.58-2.881-3.58
							c-1.201,0-2.342,0.84-2.662,2.16c-0.059,0.22-0.119,0.48-0.119,0.7V147.489z"/>
						<path fill="#FFFFFF" d="M462.229,149.109c0,0.84,0.039,1.66,0.139,2.32h-1.58l-0.139-1.221h-0.061
							c-0.541,0.761-1.58,1.44-2.961,1.44c-1.961,0-2.961-1.38-2.961-2.78c0-2.341,2.08-3.621,5.822-3.601v-0.2
							c0-0.78-0.221-2.24-2.201-2.221c-0.92,0-1.859,0.261-2.541,0.721l-0.4-1.181c0.801-0.5,1.98-0.84,3.201-0.84
							c2.961,0,3.682,2.021,3.682,3.94V149.109z M460.527,146.488c-1.92-0.04-4.1,0.301-4.1,2.181c0,1.16,0.76,1.681,1.639,1.681
							c1.281,0,2.102-0.801,2.381-1.62c0.061-0.2,0.08-0.4,0.08-0.561V146.488z"/>
						<path fill="#FFFFFF" d="M471.967,151.09c-0.459,0.22-1.479,0.56-2.779,0.56c-2.922,0-4.822-1.98-4.822-4.94
							c0-2.98,2.041-5.161,5.201-5.161c1.041,0,1.961,0.26,2.441,0.52l-0.4,1.341c-0.42-0.221-1.08-0.46-2.041-0.46
							c-2.219,0-3.42,1.66-3.42,3.66c0,2.241,1.439,3.621,3.361,3.621c1,0,1.66-0.24,2.16-0.46L471.967,151.09z"/>
						<path fill="#FFFFFF" d="M475.986,139.027c0,0.6-0.42,1.08-1.119,1.08c-0.641,0-1.061-0.48-1.061-1.08
							c0-0.601,0.439-1.101,1.1-1.101C475.547,137.927,475.986,138.407,475.986,139.027z M474.025,151.43v-9.682h1.762v9.682
							H474.025z"/>
						<path fill="#FFFFFF" d="M487.469,146.509c0,3.581-2.502,5.141-4.822,5.141c-2.6,0-4.641-1.92-4.641-4.98
							c0-3.221,2.141-5.121,4.801-5.121C485.588,141.548,487.469,143.568,487.469,146.509z M479.807,146.608
							c0,2.121,1.199,3.721,2.92,3.721c1.68,0,2.941-1.58,2.941-3.761c0-1.64-0.82-3.7-2.9-3.7
							C480.707,142.868,479.807,144.788,479.807,146.608z"/>
						<path fill="#FFFFFF" d="M496.047,139.427v2.321h2.52v1.34h-2.52v5.221c0,1.2,0.34,1.881,1.32,1.881
							c0.479,0,0.76-0.04,1.02-0.12l0.08,1.341c-0.34,0.119-0.881,0.239-1.561,0.239c-0.82,0-1.48-0.279-1.9-0.74
							c-0.48-0.54-0.68-1.4-0.68-2.54v-5.281h-1.5v-1.34h1.5v-1.801L496.047,139.427z"/>
						<path fill="#FFFFFF" d="M500.545,144.769c0-1.141-0.02-2.121-0.08-3.021h1.541l0.08,1.92h0.061
							c0.439-1.3,1.52-2.12,2.701-2.12c0.18,0,0.318,0.02,0.479,0.04v1.66c-0.18-0.04-0.359-0.04-0.6-0.04
							c-1.24,0-2.121,0.92-2.361,2.24c-0.039,0.24-0.059,0.54-0.059,0.82v5.161h-1.762V144.769z"/>
						<path fill="#FFFFFF" d="M513.787,149.109c0,0.84,0.041,1.66,0.141,2.32h-1.58l-0.141-1.221h-0.061
							c-0.539,0.761-1.58,1.44-2.959,1.44c-1.961,0-2.961-1.38-2.961-2.78c0-2.341,2.08-3.621,5.82-3.601v-0.2
							c0-0.78-0.219-2.24-2.199-2.221c-0.922,0-1.861,0.261-2.541,0.721l-0.4-1.181c0.801-0.5,1.98-0.84,3.201-0.84
							c2.961,0,3.68,2.021,3.68,3.94V149.109z M512.088,146.488c-1.922-0.04-4.102,0.301-4.102,2.181c0,1.16,0.76,1.681,1.641,1.681
							c1.279,0,2.1-0.801,2.381-1.62c0.059-0.2,0.08-0.4,0.08-0.561V146.488z"/>
						<path fill="#FFFFFF" d="M516.625,144.368c0-1.021-0.02-1.82-0.08-2.62h1.561l0.102,1.6h0.039c0.48-0.899,1.6-1.8,3.201-1.8
							c1.34,0,3.42,0.8,3.42,4.121v5.761h-1.76v-5.581c0-1.561-0.58-2.86-2.24-2.86c-1.141,0-2.041,0.819-2.361,1.8
							c-0.08,0.221-0.119,0.521-0.119,0.82v5.821h-1.762V144.368z"/>
						<path fill="#FFFFFF" d="M534.326,149.949h-0.039c-0.541,0.94-1.602,1.7-3.16,1.7c-2.262,0-4.102-1.94-4.102-4.881
							c0-3.641,2.34-5.221,4.381-5.221c1.5,0,2.5,0.74,2.98,1.66h0.041l0.059-1.46h1.66c-0.039,0.8-0.08,1.66-0.08,2.66v10.982
							h-1.74V149.949z M534.326,145.669c0-0.24-0.02-0.501-0.08-0.721c-0.279-1.08-1.199-2-2.52-2c-1.82,0-2.92,1.54-2.92,3.7
							c0,1.94,0.92,3.601,2.859,3.601c1.141,0,2.121-0.7,2.521-1.9c0.08-0.26,0.139-0.6,0.139-0.859V145.669z"/>
						<path fill="#FFFFFF" d="M547.088,148.77c0,1.02,0.02,1.9,0.078,2.66h-1.559l-0.102-1.58h-0.039
							c-0.439,0.78-1.48,1.8-3.201,1.8c-1.52,0-3.34-0.859-3.34-4.24v-5.661h1.76v5.341c0,1.84,0.58,3.101,2.16,3.101
							c1.18,0,2-0.82,2.32-1.62c0.1-0.24,0.16-0.561,0.16-0.9v-5.921h1.762V148.77z"/>
						<path fill="#FFFFFF" d="M551.965,139.027c0,0.6-0.42,1.08-1.119,1.08c-0.641,0-1.061-0.48-1.061-1.08
							c0-0.601,0.439-1.101,1.1-1.101C551.525,137.927,551.965,138.407,551.965,139.027z M550.004,151.43v-9.682h1.762v9.682
							H550.004z"/>
						<path fill="#FFFFFF" d="M554.684,137.227h1.762v14.203h-1.762V137.227z"/>
						<path fill="#FFFFFF" d="M568.166,146.509c0,3.581-2.5,5.141-4.82,5.141c-2.602,0-4.643-1.92-4.643-4.98
							c0-3.221,2.141-5.121,4.803-5.121C566.285,141.548,568.166,143.568,568.166,146.509z M560.504,146.608
							c0,2.121,1.201,3.721,2.922,3.721c1.68,0,2.939-1.58,2.939-3.761c0-1.64-0.82-3.7-2.9-3.7
							C561.404,142.868,560.504,144.788,560.504,146.608z"/>
						<path fill="#FFFFFF" d="M575.264,141.748l2.102,5.721c0.24,0.641,0.479,1.4,0.639,1.98h0.041
							c0.18-0.58,0.379-1.32,0.619-2.021l1.922-5.681h1.859l-2.641,6.901c-1.26,3.32-2.121,5.001-3.32,6.061
							c-0.881,0.74-1.721,1.041-2.16,1.121l-0.441-1.461c0.441-0.14,1.021-0.42,1.541-0.86c0.48-0.38,1.061-1.06,1.48-1.96
							c0.08-0.18,0.141-0.32,0.141-0.42c0-0.101-0.041-0.24-0.141-0.46l-3.561-8.922H575.264z"/>
						<path fill="#FFFFFF" d="M588.045,149.649c0.539,0.32,1.459,0.68,2.34,0.68c1.26,0,1.859-0.62,1.859-1.44
							c0-0.84-0.5-1.28-1.779-1.76c-1.76-0.641-2.58-1.58-2.58-2.741c0-1.56,1.279-2.84,3.34-2.84c0.98,0,1.84,0.26,2.361,0.6
							l-0.42,1.28c-0.381-0.24-1.082-0.58-1.98-0.58c-1.041,0-1.602,0.601-1.602,1.32c0,0.801,0.561,1.16,1.82,1.66
							c1.66,0.62,2.541,1.461,2.541,2.901c0,1.72-1.34,2.92-3.602,2.92c-1.059,0-2.039-0.279-2.721-0.68L588.045,149.649z"/>
						<path fill="#FFFFFF" d="M597.184,146.909c0.041,2.38,1.541,3.36,3.322,3.36c1.26,0,2.039-0.22,2.68-0.5l0.32,1.26
							c-0.621,0.28-1.701,0.62-3.24,0.62c-2.98,0-4.762-1.98-4.762-4.9c0-2.921,1.721-5.201,4.541-5.201c3.18,0,4,2.761,4,4.541
							c0,0.359-0.02,0.62-0.059,0.82H597.184z M602.346,145.648c0.02-1.101-0.461-2.841-2.441-2.841
							c-1.801,0-2.561,1.62-2.699,2.841H602.346z"/>
						<path fill="#FFFFFF" d="M614.506,150.01c0,2.24-0.461,3.58-1.381,4.44c-0.961,0.86-2.32,1.16-3.541,1.16
							c-1.16,0-2.439-0.28-3.221-0.8l0.439-1.36c0.641,0.42,1.641,0.78,2.842,0.78c1.801,0,3.121-0.94,3.121-3.401v-1.06h-0.041
							c-0.52,0.9-1.58,1.62-3.08,1.62c-2.4,0-4.121-2.04-4.121-4.721c0-3.281,2.141-5.121,4.381-5.121c1.68,0,2.58,0.86,3.021,1.66
							h0.039l0.061-1.46h1.561c-0.061,0.68-0.08,1.479-0.08,2.64V150.01z M612.744,145.568c0-0.3-0.02-0.56-0.1-0.78
							c-0.32-1.04-1.16-1.88-2.461-1.88c-1.68,0-2.879,1.42-2.879,3.66c0,1.9,0.979,3.481,2.859,3.481c1.1,0,2.08-0.681,2.441-1.801
							c0.1-0.3,0.139-0.641,0.139-0.94V145.568z"/>
						<path fill="#FFFFFF" d="M625.506,148.77c0,1.02,0.02,1.9,0.078,2.66h-1.559l-0.102-1.58h-0.039
							c-0.439,0.78-1.48,1.8-3.201,1.8c-1.52,0-3.34-0.859-3.34-4.24v-5.661h1.76v5.341c0,1.84,0.58,3.101,2.16,3.101
							c1.18,0,2-0.82,2.32-1.62c0.1-0.24,0.16-0.561,0.16-0.9v-5.921h1.762V148.77z"/>
						<path fill="#FFFFFF" d="M628.422,144.769c0-1.141-0.02-2.121-0.08-3.021h1.541l0.08,1.92h0.061
							c0.439-1.3,1.52-2.12,2.701-2.12c0.18,0,0.318,0.02,0.479,0.04v1.66c-0.18-0.04-0.359-0.04-0.6-0.04
							c-1.24,0-2.121,0.92-2.361,2.24c-0.039,0.24-0.059,0.54-0.059,0.82v5.161h-1.762V144.769z"/>
						<path fill="#FFFFFF" d="M643.525,146.509c0,3.581-2.502,5.141-4.822,5.141c-2.6,0-4.641-1.92-4.641-4.98
							c0-3.221,2.141-5.121,4.801-5.121C641.645,141.548,643.525,143.568,643.525,146.509z M635.863,146.608
							c0,2.121,1.199,3.721,2.92,3.721c1.68,0,2.941-1.58,2.941-3.761c0-1.64-0.82-3.7-2.9-3.7
							C636.764,142.868,635.863,144.788,635.863,146.608z"/>
						<path fill="#FFFFFF" d="M429.627,168.909c0.041,2.38,1.541,3.36,3.322,3.36c1.26,0,2.039-0.22,2.68-0.5l0.32,1.26
							c-0.621,0.28-1.701,0.62-3.241,0.62c-2.98,0-4.761-1.98-4.761-4.9c0-2.921,1.721-5.201,4.541-5.201c3.18,0,4,2.761,4,4.541
							c0,0.359-0.02,0.62-0.059,0.82H429.627z M434.789,167.648c0.02-1.101-0.461-2.841-2.441-2.841c-1.8,0-2.561,1.62-2.7,2.841
							H434.789z"/>
						<path fill="#FFFFFF" d="M438.666,166.368c0-1.021-0.02-1.82-0.08-2.62h1.561l0.102,1.6h0.039c0.48-0.899,1.6-1.8,3.201-1.8
							c1.34,0,3.42,0.8,3.42,4.121v5.761h-1.76v-5.581c0-1.561-0.58-2.86-2.24-2.86c-1.141,0-2.041,0.819-2.361,1.8
							c-0.08,0.221-0.119,0.521-0.119,0.82v5.821h-1.762V166.368z"/>
						<path fill="#FFFFFF" d="M462.348,159.227v11.702c0,0.86,0.041,1.841,0.08,2.501h-1.559l-0.08-1.681h-0.061
							c-0.52,1.08-1.682,1.9-3.262,1.9c-2.34,0-4.16-1.98-4.16-4.921c-0.02-3.221,2-5.181,4.342-5.181c1.5,0,2.48,0.7,2.92,1.46
							h0.039v-5.781H462.348z M460.607,167.688c0-0.22-0.02-0.521-0.08-0.74c-0.26-1.101-1.219-2.021-2.539-2.021
							c-1.82,0-2.9,1.601-2.9,3.721c0,1.961,0.979,3.581,2.859,3.581c1.18,0,2.262-0.8,2.58-2.101c0.061-0.24,0.08-0.48,0.08-0.76
							V167.688z"/>
						<path fill="#FFFFFF" d="M474.049,168.509c0,3.581-2.5,5.141-4.82,5.141c-2.602,0-4.643-1.92-4.643-4.98
							c0-3.221,2.141-5.121,4.803-5.121C472.168,163.548,474.049,165.568,474.049,168.509z M466.387,168.608
							c0,2.121,1.201,3.721,2.922,3.721c1.68,0,2.939-1.58,2.939-3.761c0-1.64-0.82-3.7-2.9-3.7
							C467.287,164.868,466.387,166.788,466.387,168.608z"/>
						<path fill="#FFFFFF" d="M476.266,166.368c0-1.021-0.02-1.82-0.08-2.62h1.561l0.102,1.6h0.039c0.48-0.899,1.6-1.8,3.201-1.8
							c1.34,0,3.42,0.8,3.42,4.121v5.761h-1.76v-5.581c0-1.561-0.58-2.86-2.24-2.86c-1.141,0-2.041,0.819-2.361,1.8
							c-0.08,0.221-0.119,0.521-0.119,0.82v5.821h-1.762V166.368z"/>
						<path fill="#FFFFFF" d="M495.707,159.227v11.702c0,0.86,0.041,1.841,0.08,2.501h-1.559l-0.08-1.681h-0.061
							c-0.52,1.08-1.682,1.9-3.262,1.9c-2.34,0-4.16-1.98-4.16-4.921c-0.02-3.221,2-5.181,4.342-5.181c1.5,0,2.48,0.7,2.92,1.46
							h0.039v-5.781H495.707z M493.967,167.688c0-0.22-0.02-0.521-0.08-0.74c-0.26-1.101-1.219-2.021-2.539-2.021
							c-1.82,0-2.9,1.601-2.9,3.721c0,1.961,0.979,3.581,2.859,3.581c1.18,0,2.262-0.8,2.58-2.101c0.061-0.24,0.08-0.48,0.08-0.76
							V167.688z"/>
						<path fill="#FFFFFF" d="M499.627,168.909c0.039,2.38,1.539,3.36,3.32,3.36c1.26,0,2.041-0.22,2.68-0.5l0.32,1.26
							c-0.619,0.28-1.699,0.62-3.24,0.62c-2.98,0-4.762-1.98-4.762-4.9c0-2.921,1.721-5.201,4.541-5.201
							c3.182,0,4.002,2.761,4.002,4.541c0,0.359-0.02,0.62-0.061,0.82H499.627z M504.787,167.648
							c0.021-1.101-0.459-2.841-2.439-2.841c-1.801,0-2.561,1.62-2.701,2.841H504.787z"/>
						<path fill="#FFFFFF" d="M512.906,166.368c0-1.021-0.02-1.82-0.08-2.62h1.561l0.1,1.6h0.041c0.479-0.899,1.6-1.8,3.199-1.8
							c1.342,0,3.422,0.8,3.422,4.121v5.761h-1.762v-5.581c0-1.561-0.58-2.86-2.24-2.86c-1.141,0-2.039,0.819-2.359,1.8
							c-0.08,0.221-0.121,0.521-0.121,0.82v5.821h-1.76V166.368z"/>
						<path fill="#FFFFFF" d="M532.768,168.509c0,3.581-2.5,5.141-4.82,5.141c-2.602,0-4.643-1.92-4.643-4.98
							c0-3.221,2.141-5.121,4.803-5.121C530.887,163.548,532.768,165.568,532.768,168.509z M525.105,168.608
							c0,2.121,1.201,3.721,2.922,3.721c1.68,0,2.939-1.58,2.939-3.761c0-1.64-0.82-3.7-2.9-3.7
							C526.006,164.868,525.105,166.788,525.105,168.608z"/>
						<path fill="#FFFFFF" d="M539.225,159.227h1.762v6.062h0.039c0.281-0.5,0.721-0.96,1.26-1.261
							c0.521-0.3,1.141-0.479,1.801-0.479c1.301,0,3.381,0.8,3.381,4.121v5.761h-1.76v-5.562c0-1.56-0.58-2.86-2.24-2.86
							c-1.141,0-2.021,0.8-2.361,1.74c-0.1,0.261-0.119,0.521-0.119,0.841v5.841h-1.762V159.227z"/>
						<path fill="#FFFFFF" d="M557.127,171.109c0,0.84,0.039,1.66,0.139,2.32h-1.58l-0.139-1.221h-0.061
							c-0.541,0.761-1.58,1.44-2.961,1.44c-1.961,0-2.961-1.38-2.961-2.78c0-2.341,2.08-3.621,5.822-3.601v-0.2
							c0-0.78-0.221-2.24-2.201-2.221c-0.92,0-1.859,0.261-2.541,0.721l-0.4-1.181c0.801-0.5,1.98-0.84,3.201-0.84
							c2.961,0,3.682,2.021,3.682,3.94V171.109z M555.426,168.488c-1.92-0.04-4.1,0.301-4.1,2.181c0,1.16,0.76,1.681,1.639,1.681
							c1.281,0,2.102-0.801,2.381-1.62c0.061-0.2,0.08-0.4,0.08-0.561V168.488z"/>
						<path fill="#FFFFFF" d="M560.445,163.748l2.1,5.721c0.24,0.641,0.48,1.4,0.641,1.98h0.039c0.182-0.58,0.381-1.32,0.621-2.021
							l1.92-5.681h1.861l-2.641,6.901c-1.262,3.32-2.121,5.001-3.322,6.061c-0.879,0.74-1.719,1.041-2.16,1.121l-0.439-1.461
							c0.439-0.14,1.02-0.42,1.541-0.86c0.479-0.38,1.059-1.06,1.48-1.96c0.08-0.18,0.139-0.32,0.139-0.42
							c0-0.101-0.039-0.24-0.139-0.46l-3.562-8.922H560.445z"/>
						<path fill="#FFFFFF" d="M575.945,171.109c0,0.84,0.041,1.66,0.141,2.32h-1.58l-0.141-1.221h-0.061
							c-0.539,0.761-1.58,1.44-2.959,1.44c-1.961,0-2.961-1.38-2.961-2.78c0-2.341,2.08-3.621,5.82-3.601v-0.2
							c0-0.78-0.219-2.24-2.199-2.221c-0.922,0-1.861,0.261-2.541,0.721l-0.4-1.181c0.801-0.5,1.98-0.84,3.201-0.84
							c2.961,0,3.68,2.021,3.68,3.94V171.109z M574.246,168.488c-1.922-0.04-4.102,0.301-4.102,2.181c0,1.16,0.76,1.681,1.641,1.681
							c1.279,0,2.1-0.801,2.381-1.62c0.059-0.2,0.08-0.4,0.08-0.561V168.488z"/>
						<path fill="#FFFFFF" d="M583.023,166.368c0-1.021-0.02-1.82-0.08-2.62h1.561l0.102,1.6h0.039c0.48-0.899,1.6-1.8,3.201-1.8
							c1.34,0,3.42,0.8,3.42,4.121v5.761h-1.76v-5.581c0-1.561-0.58-2.86-2.24-2.86c-1.141,0-2.041,0.819-2.361,1.8
							c-0.08,0.221-0.119,0.521-0.119,0.82v5.821h-1.762V166.368z"/>
						<path fill="#FFFFFF" d="M596.084,161.027c0,0.6-0.42,1.08-1.119,1.08c-0.641,0-1.061-0.48-1.061-1.08
							c0-0.601,0.439-1.101,1.1-1.101C595.645,159.927,596.084,160.407,596.084,161.027z M594.123,173.43v-9.682h1.762v9.682
							H594.123z"/>
						<path fill="#FFFFFF" d="M598.803,166.368c0-1.021-0.02-1.82-0.08-2.62h1.561l0.102,1.6h0.039c0.48-0.899,1.6-1.8,3.201-1.8
							c1.34,0,3.42,0.8,3.42,4.121v5.761h-1.76v-5.581c0-1.561-0.58-2.86-2.24-2.86c-1.141,0-2.041,0.819-2.361,1.8
							c-0.08,0.221-0.119,0.521-0.119,0.82v5.821h-1.762V166.368z"/>
						<path fill="#FFFFFF" d="M618.186,172.01c0,2.24-0.461,3.58-1.381,4.44c-0.961,0.86-2.32,1.16-3.541,1.16
							c-1.16,0-2.439-0.28-3.221-0.8l0.439-1.36c0.641,0.42,1.641,0.78,2.842,0.78c1.801,0,3.121-0.94,3.121-3.401v-1.06h-0.041
							c-0.52,0.9-1.58,1.62-3.08,1.62c-2.4,0-4.121-2.04-4.121-4.721c0-3.281,2.141-5.121,4.381-5.121c1.68,0,2.58,0.86,3.021,1.66
							h0.039l0.061-1.46h1.561c-0.061,0.68-0.08,1.479-0.08,2.64V172.01z M616.424,167.568c0-0.3-0.02-0.56-0.1-0.78
							c-0.32-1.04-1.16-1.88-2.461-1.88c-1.68,0-2.879,1.42-2.879,3.66c0,1.9,0.979,3.481,2.859,3.481c1.1,0,2.08-0.681,2.441-1.801
							c0.1-0.3,0.139-0.641,0.139-0.94V167.568z"/>
						<path fill="#FFFFFF" d="M629.186,170.77c0,1.02,0.02,1.9,0.078,2.66h-1.559l-0.102-1.58h-0.039
							c-0.439,0.78-1.48,1.8-3.201,1.8c-1.52,0-3.34-0.859-3.34-4.24v-5.661h1.76v5.341c0,1.84,0.58,3.101,2.16,3.101
							c1.18,0,2-0.82,2.32-1.62c0.1-0.24,0.16-0.561,0.16-0.9v-5.921h1.762V170.77z M627.965,159.566l-2.441,2.861h-1.24l1.76-2.861
							H627.965z"/>
						<path fill="#FFFFFF" d="M632.102,166.368c0-1.021-0.02-1.82-0.08-2.62h1.561l0.102,1.6h0.039c0.48-0.899,1.6-1.8,3.201-1.8
							c1.34,0,3.42,0.8,3.42,4.121v5.761h-1.76v-5.581c0-1.561-0.58-2.86-2.24-2.86c-1.141,0-2.041,0.819-2.361,1.8
							c-0.08,0.221-0.119,0.521-0.119,0.82v5.821h-1.762V166.368z"/>
						<path fill="#FFFFFF" d="M445.607,183.427v2.321h2.521v1.34h-2.521v5.221c0,1.2,0.34,1.881,1.32,1.881
							c0.48,0,0.76-0.04,1.02-0.12l0.08,1.341c-0.34,0.119-0.879,0.239-1.559,0.239c-0.82,0-1.48-0.279-1.9-0.74
							c-0.48-0.54-0.682-1.4-0.682-2.54v-5.281h-1.5v-1.34h1.5v-1.801L445.607,183.427z"/>
						<path fill="#FFFFFF" d="M452.068,183.027c0,0.6-0.42,1.08-1.121,1.08c-0.641,0-1.061-0.48-1.061-1.08
							c0-0.601,0.441-1.101,1.102-1.101C451.627,181.927,452.068,182.407,452.068,183.027z M450.107,195.43v-9.682h1.76v9.682
							H450.107z"/>
						<path fill="#FFFFFF" d="M454.787,188.908c0-1.24-0.041-2.24-0.08-3.16h1.561l0.1,1.66h0.041
							c0.699-1.181,1.859-1.86,3.439-1.86c2.361,0,4.121,1.98,4.121,4.9c0,3.481-2.141,5.201-4.42,5.201
							c-1.281,0-2.4-0.56-2.982-1.52h-0.039v5.261h-1.74V188.908z M456.527,191.489c0,0.26,0.02,0.5,0.08,0.72
							c0.32,1.221,1.381,2.061,2.641,2.061c1.859,0,2.941-1.521,2.941-3.741c0-1.92-1.021-3.58-2.881-3.58
							c-1.201,0-2.342,0.84-2.662,2.16c-0.059,0.22-0.119,0.48-0.119,0.7V191.489z"/>
						<path fill="#FFFFFF" d="M474.93,190.509c0,3.581-2.502,5.141-4.822,5.141c-2.6,0-4.641-1.92-4.641-4.98
							c0-3.221,2.141-5.121,4.801-5.121C473.049,185.548,474.93,187.568,474.93,190.509z M467.268,190.608
							c0,2.121,1.199,3.721,2.92,3.721c1.68,0,2.941-1.58,2.941-3.761c0-1.64-0.82-3.7-2.9-3.7
							C468.168,186.868,467.268,188.788,467.268,190.608z"/>
						<path fill="#FFFFFF" d="M489.729,181.227v11.702c0,0.86,0.039,1.841,0.08,2.501h-1.561l-0.08-1.681h-0.061
							c-0.52,1.08-1.68,1.9-3.26,1.9c-2.342,0-4.162-1.98-4.162-4.921c-0.02-3.221,2.002-5.181,4.342-5.181
							c1.5,0,2.48,0.7,2.92,1.46h0.041v-5.781H489.729z M487.988,189.688c0-0.22-0.02-0.521-0.08-0.74
							c-0.26-1.101-1.221-2.021-2.541-2.021c-1.82,0-2.9,1.601-2.9,3.721c0,1.961,0.98,3.581,2.861,3.581
							c1.18,0,2.26-0.8,2.58-2.101c0.061-0.24,0.08-0.48,0.08-0.76V189.688z"/>
						<path fill="#FFFFFF" d="M493.646,190.909c0.041,2.38,1.541,3.36,3.322,3.36c1.26,0,2.039-0.22,2.68-0.5l0.32,1.26
							c-0.621,0.28-1.701,0.62-3.24,0.62c-2.98,0-4.762-1.98-4.762-4.9c0-2.921,1.721-5.201,4.541-5.201c3.18,0,4,2.761,4,4.541
							c0,0.359-0.02,0.62-0.059,0.82H493.646z M498.809,189.648c0.02-1.101-0.461-2.841-2.441-2.841
							c-1.801,0-2.561,1.62-2.699,2.841H498.809z"/>
						<path fill="#FFFFFF" d="M508.887,183.027c0,0.6-0.42,1.08-1.119,1.08c-0.641,0-1.061-0.48-1.061-1.08
							c0-0.601,0.439-1.101,1.1-1.101C508.447,181.927,508.887,182.407,508.887,183.027z M506.926,195.43v-9.682h1.762v9.682
							H506.926z"/>
						<path fill="#FFFFFF" d="M511.605,188.368c0-1.021-0.02-1.82-0.08-2.62h1.561l0.102,1.6h0.039c0.48-0.899,1.6-1.8,3.201-1.8
							c1.34,0,3.42,0.8,3.42,4.121v5.761h-1.76v-5.581c0-1.561-0.58-2.86-2.24-2.86c-1.141,0-2.041,0.819-2.361,1.8
							c-0.08,0.221-0.119,0.521-0.119,0.82v5.821h-1.762V188.368z"/>
						<path fill="#FFFFFF" d="M524.746,183.427v2.321h2.521v1.34h-2.521v5.221c0,1.2,0.34,1.881,1.32,1.881
							c0.48,0,0.76-0.04,1.02-0.12l0.08,1.341c-0.34,0.119-0.879,0.239-1.559,0.239c-0.82,0-1.48-0.279-1.9-0.74
							c-0.48-0.54-0.682-1.4-0.682-2.54v-5.281h-1.5v-1.34h1.5v-1.801L524.746,183.427z"/>
						<path fill="#FFFFFF" d="M530.105,190.909c0.041,2.38,1.541,3.36,3.322,3.36c1.26,0,2.039-0.22,2.68-0.5l0.32,1.26
							c-0.621,0.28-1.701,0.62-3.24,0.62c-2.98,0-4.762-1.98-4.762-4.9c0-2.921,1.721-5.201,4.541-5.201c3.18,0,4,2.761,4,4.541
							c0,0.359-0.02,0.62-0.059,0.82H530.105z M535.268,189.648c0.02-1.101-0.461-2.841-2.441-2.841
							c-1.801,0-2.561,1.62-2.699,2.841H535.268z"/>
						<path fill="#FFFFFF" d="M539.145,188.769c0-1.141-0.02-2.121-0.08-3.021h1.541l0.08,1.92h0.061
							c0.439-1.3,1.52-2.12,2.701-2.12c0.18,0,0.318,0.02,0.479,0.04v1.66c-0.18-0.04-0.359-0.04-0.6-0.04
							c-1.24,0-2.121,0.92-2.361,2.24c-0.039,0.24-0.059,0.54-0.059,0.82v5.161h-1.762V188.769z"/>
						<path fill="#FFFFFF" d="M545.766,188.769c0-1.141-0.02-2.121-0.08-3.021h1.541l0.08,1.92h0.059
							c0.441-1.3,1.521-2.12,2.701-2.12c0.18,0,0.32,0.02,0.48,0.04v1.66c-0.18-0.04-0.361-0.04-0.6-0.04
							c-1.24,0-2.121,0.92-2.361,2.24c-0.041,0.24-0.061,0.54-0.061,0.82v5.161h-1.76V188.769z"/>
						<path fill="#FFFFFF" d="M560.408,192.77c0,1.02,0.02,1.9,0.078,2.66h-1.559l-0.102-1.58h-0.039
							c-0.439,0.78-1.48,1.8-3.201,1.8c-1.52,0-3.34-0.859-3.34-4.24v-5.661h1.76v5.341c0,1.84,0.58,3.101,2.16,3.101
							c1.18,0,2-0.82,2.32-1.62c0.1-0.24,0.16-0.561,0.16-0.9v-5.921h1.762V192.77z"/>
						<path fill="#FFFFFF" d="M563.324,188.908c0-1.24-0.039-2.24-0.08-3.16h1.561l0.102,1.66h0.039
							c0.701-1.181,1.861-1.86,3.441-1.86c2.359,0,4.121,1.98,4.121,4.9c0,3.481-2.141,5.201-4.422,5.201
							c-1.279,0-2.4-0.56-2.98-1.52h-0.039v5.261h-1.742V188.908z M565.066,191.489c0,0.26,0.02,0.5,0.078,0.72
							c0.32,1.221,1.381,2.061,2.641,2.061c1.861,0,2.941-1.521,2.941-3.741c0-1.92-1.02-3.58-2.881-3.58
							c-1.199,0-2.34,0.84-2.66,2.16c-0.061,0.22-0.119,0.48-0.119,0.7V191.489z"/>
						<path fill="#FFFFFF" d="M581.605,195.09c-0.459,0.22-1.479,0.56-2.779,0.56c-2.922,0-4.822-1.98-4.822-4.94
							c0-2.98,2.041-5.161,5.201-5.161c1.041,0,1.961,0.26,2.441,0.52l-0.4,1.341c-0.42-0.221-1.08-0.46-2.041-0.46
							c-2.219,0-3.42,1.66-3.42,3.66c0,2.241,1.439,3.621,3.361,3.621c1,0,1.66-0.24,2.16-0.46L581.605,195.09z"/>
						<path fill="#FFFFFF" d="M585.625,183.027c0,0.6-0.42,1.08-1.119,1.08c-0.641,0-1.061-0.48-1.061-1.08
							c0-0.601,0.439-1.101,1.1-1.101C585.186,181.927,585.625,182.407,585.625,183.027z M583.664,195.43v-9.682h1.762v9.682
							H583.664z"/>
						<path fill="#FFFFFF" d="M597.107,190.509c0,3.581-2.502,5.141-4.822,5.141c-2.6,0-4.641-1.92-4.641-4.98
							c0-3.221,2.141-5.121,4.801-5.121C595.227,185.548,597.107,187.568,597.107,190.509z M589.445,190.608
							c0,2.121,1.199,3.721,2.92,3.721c1.68,0,2.941-1.58,2.941-3.761c0-1.64-0.82-3.7-2.9-3.7
							C590.346,186.868,589.445,188.788,589.445,190.608z"/>
						<path fill="#FFFFFF" d="M599.324,188.368c0-1.021-0.02-1.82-0.08-2.62h1.561l0.1,1.6h0.041c0.479-0.899,1.6-1.8,3.199-1.8
							c1.342,0,3.422,0.8,3.422,4.121v5.761h-1.762v-5.581c0-1.561-0.58-2.86-2.24-2.86c-1.141,0-2.039,0.819-2.359,1.8
							c-0.08,0.221-0.121,0.521-0.121,0.82v5.821h-1.76V188.368z"/>
						<path fill="#FFFFFF" d="M611.404,190.909c0.039,2.38,1.539,3.36,3.32,3.36c1.26,0,2.041-0.22,2.68-0.5l0.32,1.26
							c-0.619,0.28-1.699,0.62-3.24,0.62c-2.98,0-4.762-1.98-4.762-4.9c0-2.921,1.721-5.201,4.541-5.201
							c3.182,0,4.002,2.761,4.002,4.541c0,0.359-0.02,0.62-0.061,0.82H611.404z M616.564,189.648
							c0.021-1.101-0.459-2.841-2.439-2.841c-1.801,0-2.561,1.62-2.701,2.841H616.564z"/>
						<path fill="#FFFFFF" d="M620.203,193.649c0.541,0.32,1.461,0.68,2.34,0.68c1.262,0,1.861-0.62,1.861-1.44
							c0-0.84-0.5-1.28-1.781-1.76c-1.76-0.641-2.58-1.58-2.58-2.741c0-1.56,1.281-2.84,3.342-2.84c0.979,0,1.84,0.26,2.359,0.6
							l-0.42,1.28c-0.381-0.24-1.08-0.58-1.98-0.58c-1.041,0-1.6,0.601-1.6,1.32c0,0.801,0.559,1.16,1.82,1.66
							c1.66,0.62,2.539,1.461,2.539,2.901c0,1.72-1.34,2.92-3.6,2.92c-1.061,0-2.041-0.279-2.721-0.68L620.203,193.649z"/>
					</g>
				</g>
			</g>
		</g>
		<path fill="none" stroke="#C15921" stroke-width="5" stroke-miterlimit="10" stroke-dasharray="4" d="M447.926,78.418
			c0,0,7.588-44.584-32.803-47.685c-45.25-3.474-182.82-3.125-182.82-3.125"/>
	</g>
</g>
</svg>
