<?xml version="1.0" encoding="utf-8"?>
<!-- Generator: Adobe Illustrator 16.0.0, SVG Export Plug-In . SVG Version: 6.00 Build 0)  -->
<!DOCTYPE svg PUBLIC "-//W3C//DTD SVG 1.1//EN" "http://www.w3.org/Graphics/SVG/1.1/DTD/svg11.dtd">
<svg version="1.1" id="Capa_1" xmlns="http://www.w3.org/2000/svg" xmlns:xlink="http://www.w3.org/1999/xlink" x="0px" y="0px"
	 width="710.753px" height="261.289px" viewBox="0 0 710.753 261.289" enable-background="new 0 0 710.753 261.289"
	 xml:space="preserve">
<g>
	<g>
		<g>
			<g>
				<g>
					<path opacity="0.9" fill-rule="evenodd" clip-rule="evenodd" fill="#ABC02F" d="M698.74,249.289c0,6.628-5.821,12-13.003,12
						H473.429c-7.181,0-13.003-5.372-13.003-12L460.425,12c0-6.628,5.822-12,13.003-12h212.309c7.182,0,13.003,5.372,13.003,12
						L698.74,249.289z"/>
				</g>
				<g>
					<g>
						<path fill="#FFFFFF" d="M495.653,17.254c0.98-0.16,2.421-0.28,4.061-0.28c2.001,0,3.401,0.3,4.361,1.061
							c0.82,0.64,1.26,1.601,1.26,2.841c0,1.7-1.22,2.88-2.38,3.3v0.061c0.94,0.38,1.46,1.26,1.8,2.5
							c0.421,1.541,0.82,3.301,1.081,3.821h-3.121c-0.2-0.4-0.54-1.48-0.92-3.141c-0.381-1.7-0.961-2.141-2.221-2.16h-0.9v5.301
							h-3.021V17.254z M498.674,23.055h1.2c1.521,0,2.421-0.76,2.421-1.94c0-1.22-0.841-1.86-2.24-1.86
							c-0.74,0-1.161,0.04-1.381,0.101V23.055z"/>
						<path fill="#FFFFFF" d="M509.753,26.636c0.08,1.261,1.341,1.86,2.761,1.86c1.04,0,1.881-0.14,2.7-0.42l0.4,2.061
							c-1,0.42-2.221,0.62-3.541,0.62c-3.32,0-5.221-1.921-5.221-4.981c0-2.48,1.54-5.221,4.941-5.221c3.16,0,4.36,2.46,4.36,4.881
							c0,0.521-0.06,0.98-0.1,1.2H509.753z M513.334,24.556c0-0.74-0.32-1.98-1.721-1.98c-1.28,0-1.8,1.18-1.88,1.98H513.334z"/>
						<path fill="#FFFFFF" d="M521.373,18.134v2.641h2.181v2.24h-2.181v3.541c0,1.181,0.3,1.721,1.2,1.721
							c0.42,0,0.62-0.021,0.9-0.08l0.02,2.301c-0.38,0.14-1.12,0.26-1.96,0.26c-0.98,0-1.801-0.34-2.301-0.84
							c-0.561-0.581-0.84-1.521-0.84-2.901v-4.001h-1.301v-2.24h1.301v-1.82L521.373,18.134z"/>
						<path fill="#FFFFFF" d="M525.312,23.995c0-1.44-0.021-2.381-0.08-3.221h2.601l0.119,1.801h0.08
							c0.501-1.44,1.681-2.041,2.641-2.041c0.28,0,0.421,0.021,0.641,0.061v2.86c-0.24-0.04-0.48-0.08-0.82-0.08
							c-1.12,0-1.881,0.601-2.08,1.54c-0.04,0.2-0.061,0.44-0.061,0.681v4.961h-3.04V23.995z"/>
						<path fill="#FFFFFF" d="M542.414,25.556c0,3.581-2.541,5.221-5.161,5.221c-2.861,0-5.062-1.88-5.062-5.041
							c0-3.181,2.08-5.201,5.241-5.201C540.413,20.534,542.414,22.595,542.414,25.556z M535.332,25.655c0,1.681,0.7,2.941,2,2.941
							c1.201,0,1.94-1.181,1.94-2.961c0-1.44-0.56-2.921-1.94-2.921C535.893,22.715,535.332,24.215,535.332,25.655z"/>
						<path fill="#FFFFFF" d="M552.434,28.196c0,0.92,0.04,1.82,0.16,2.36h-2.741l-0.18-0.98h-0.061c-0.64,0.78-1.64,1.2-2.8,1.2
							c-1.98,0-3.161-1.44-3.161-3c0-2.541,2.28-3.741,5.741-3.741v-0.12c0-0.54-0.28-1.28-1.78-1.28c-1,0-2.061,0.34-2.7,0.74
							l-0.561-1.96c0.68-0.381,2.021-0.881,3.801-0.881c3.261,0,4.281,1.921,4.281,4.241V28.196z M549.492,25.936
							c-1.6,0-2.84,0.38-2.84,1.54c0,0.78,0.52,1.16,1.2,1.16c0.74,0,1.38-0.5,1.58-1.12c0.04-0.159,0.06-0.34,0.06-0.52V25.936z"/>
						<path fill="#FFFFFF" d="M554.852,16.354h3.04v14.203h-3.04V16.354z"/>
						<path fill="#FFFFFF" d="M563.492,18.054c0,0.841-0.62,1.521-1.641,1.521c-0.96,0-1.58-0.68-1.58-1.521
							c0-0.86,0.64-1.521,1.62-1.521S563.472,17.193,563.492,18.054z M560.352,30.557v-9.782h3.04v9.782H560.352z"/>
						<path fill="#FFFFFF" d="M565.831,23.896c0-1.221-0.04-2.241-0.08-3.121h2.58l0.12,1.32h0.06
							c0.421-0.64,1.301-1.561,2.961-1.561c1.28,0,2.261,0.66,2.681,1.681h0.04c0.38-0.521,0.8-0.92,1.28-1.2
							c0.54-0.3,1.141-0.48,1.86-0.48c1.881,0,3.301,1.32,3.301,4.262v5.761h-2.961v-5.321c0-1.42-0.46-2.24-1.44-2.24
							c-0.72,0-1.2,0.48-1.42,1.061c-0.06,0.22-0.1,0.52-0.1,0.779v5.722h-2.961v-5.501c0-1.221-0.44-2.061-1.42-2.061
							c-0.78,0-1.24,0.6-1.421,1.08c-0.1,0.24-0.12,0.521-0.12,0.78v5.701h-2.96V23.896z"/>
						<path fill="#FFFFFF" d="M585.371,26.636c0.08,1.261,1.341,1.86,2.761,1.86c1.04,0,1.881-0.14,2.7-0.42l0.4,2.061
							c-1,0.42-2.221,0.62-3.541,0.62c-3.32,0-5.221-1.921-5.221-4.981c0-2.48,1.54-5.221,4.941-5.221c3.16,0,4.36,2.46,4.36,4.881
							c0,0.521-0.06,0.98-0.1,1.2H585.371z M588.952,24.556c0-0.74-0.32-1.98-1.721-1.98c-1.28,0-1.8,1.18-1.88,1.98H588.952z"/>
						<path fill="#FFFFFF" d="M593.591,23.896c0-1.221-0.04-2.241-0.08-3.121h2.641l0.14,1.36h0.06c0.4-0.64,1.381-1.58,3.021-1.58
							c2,0,3.5,1.34,3.5,4.221v5.781h-3.04v-5.421c0-1.261-0.44-2.121-1.541-2.121c-0.84,0-1.34,0.58-1.56,1.141
							c-0.08,0.2-0.101,0.48-0.101,0.76v5.642h-3.04V23.896z"/>
						<path fill="#FFFFFF" d="M608.591,18.134v2.641h2.181v2.24h-2.181v3.541c0,1.181,0.3,1.721,1.2,1.721
							c0.42,0,0.62-0.021,0.9-0.08l0.02,2.301c-0.38,0.14-1.12,0.26-1.96,0.26c-0.98,0-1.801-0.34-2.301-0.84
							c-0.56-0.581-0.84-1.521-0.84-2.901v-4.001h-1.301v-2.24h1.301v-1.82L608.591,18.134z"/>
						<path fill="#FFFFFF" d="M620.672,28.196c0,0.92,0.04,1.82,0.16,2.36h-2.741l-0.18-0.98h-0.061c-0.64,0.78-1.64,1.2-2.8,1.2
							c-1.98,0-3.161-1.44-3.161-3c0-2.541,2.28-3.741,5.741-3.741v-0.12c0-0.54-0.28-1.28-1.78-1.28c-1,0-2.061,0.34-2.7,0.74
							l-0.561-1.96c0.68-0.381,2.021-0.881,3.801-0.881c3.261,0,4.281,1.921,4.281,4.241V28.196z M617.73,25.936
							c-1.6,0-2.84,0.38-2.84,1.54c0,0.78,0.52,1.16,1.2,1.16c0.74,0,1.38-0.5,1.58-1.12c0.04-0.159,0.06-0.34,0.06-0.52V25.936z"/>
						<path fill="#FFFFFF" d="M630.431,30.297c-0.54,0.26-1.56,0.46-2.721,0.46c-3.16,0-5.181-1.94-5.181-5.001
							c0-2.861,1.96-5.201,5.602-5.201c0.8,0,1.68,0.14,2.32,0.38l-0.48,2.261c-0.36-0.16-0.9-0.301-1.7-0.301
							c-1.601,0-2.641,1.141-2.62,2.741c0,1.78,1.2,2.74,2.68,2.74c0.721,0,1.28-0.12,1.741-0.32L630.431,30.297z"/>
						<path fill="#FFFFFF" d="M635.25,18.054c0,0.841-0.62,1.521-1.641,1.521c-0.96,0-1.58-0.68-1.58-1.521
							c0-0.86,0.64-1.521,1.62-1.521S635.229,17.193,635.25,18.054z M632.109,30.557v-9.782h3.04v9.782H632.109z"/>
						<path fill="#FFFFFF" d="M647.25,25.556c0,3.581-2.54,5.221-5.16,5.221c-2.861,0-5.062-1.88-5.062-5.041
							c0-3.181,2.08-5.201,5.241-5.201C645.25,20.534,647.25,22.595,647.25,25.556z M640.169,25.655c0,1.681,0.7,2.941,2,2.941
							c1.201,0,1.94-1.181,1.94-2.961c0-1.44-0.56-2.921-1.94-2.921C640.729,22.715,640.169,24.215,640.169,25.655z M645.311,16.514
							l-2.441,3.041h-2.08l1.721-3.041H645.311z"/>
						<path fill="#FFFFFF" d="M649.129,23.896c0-1.221-0.04-2.241-0.08-3.121h2.641l0.14,1.36h0.06c0.4-0.64,1.381-1.58,3.021-1.58
							c2,0,3.5,1.34,3.5,4.221v5.781h-3.04v-5.421c0-1.261-0.44-2.121-1.541-2.121c-0.84,0-1.34,0.58-1.56,1.141
							c-0.08,0.2-0.101,0.48-0.101,0.76v5.642h-3.04V23.896z"/>
						<path fill="#FFFFFF" d="M660.648,22.495c0-1.08,0.74-1.841,1.78-1.841c1.06,0,1.76,0.74,1.78,1.841
							c0,1.04-0.7,1.82-1.801,1.82C661.368,24.315,660.648,23.535,660.648,22.495z M660.648,28.956c0-1.08,0.74-1.84,1.78-1.84
							c1.06,0,1.76,0.74,1.78,1.84c0,1.04-0.7,1.82-1.801,1.82C661.368,30.776,660.648,29.996,660.648,28.956z"/>
						<path fill="#FFFFFF" d="M491.054,50.437c0.78,0.5,1.901,0.88,3.102,0.88c1.78,0,2.82-0.94,2.82-2.301
							c0-1.24-0.721-1.98-2.541-2.66c-2.2-0.801-3.561-1.961-3.561-3.841c0-2.101,1.74-3.661,4.361-3.661
							c1.36,0,2.38,0.32,2.96,0.66l-0.479,1.421c-0.42-0.261-1.32-0.641-2.541-0.641c-1.84,0-2.54,1.101-2.54,2.021
							c0,1.261,0.82,1.881,2.681,2.601c2.28,0.88,3.42,1.98,3.42,3.961c0,2.08-1.52,3.9-4.7,3.9c-1.301,0-2.721-0.399-3.441-0.88
							L491.054,50.437z"/>
						<path fill="#FFFFFF" d="M503.035,40.154c0,0.6-0.42,1.08-1.12,1.08c-0.641,0-1.061-0.48-1.061-1.08
							c0-0.601,0.44-1.101,1.101-1.101C502.595,39.054,503.035,39.534,503.035,40.154z M501.074,52.557v-9.682h1.761v9.682H501.074z
							"/>
						<path fill="#FFFFFF" d="M506.734,48.036c0.04,2.38,1.54,3.36,3.32,3.36c1.261,0,2.041-0.22,2.681-0.5l0.32,1.26
							c-0.62,0.28-1.7,0.62-3.24,0.62c-2.98,0-4.762-1.98-4.762-4.9c0-2.921,1.721-5.201,4.541-5.201
							c3.181,0,4.001,2.761,4.001,4.541c0,0.359-0.02,0.62-0.06,0.82H506.734z M511.896,46.775c0.021-1.101-0.46-2.841-2.44-2.841
							c-1.801,0-2.561,1.62-2.7,2.841H511.896z"/>
						<path fill="#FFFFFF" d="M515.773,45.495c0-1.021-0.04-1.82-0.08-2.62h1.541l0.08,1.58h0.06c0.54-0.92,1.44-1.78,3.061-1.78
							c1.301,0,2.301,0.8,2.721,1.94h0.04c0.3-0.561,0.7-0.961,1.101-1.261c0.58-0.439,1.2-0.68,2.12-0.68
							c1.301,0,3.201,0.84,3.201,4.2v5.682h-1.721v-5.461c0-1.881-0.7-2.98-2.101-2.98c-1.021,0-1.78,0.74-2.101,1.58
							c-0.08,0.26-0.14,0.56-0.14,0.88v5.981h-1.721v-5.801c0-1.541-0.68-2.641-2.021-2.641c-1.08,0-1.9,0.88-2.181,1.76
							c-0.1,0.24-0.14,0.561-0.14,0.86v5.821h-1.721V45.495z"/>
						<path fill="#FFFFFF" d="M532.453,46.035c0-1.24-0.04-2.24-0.08-3.16h1.561l0.101,1.66h0.04c0.7-1.181,1.86-1.86,3.44-1.86
							c2.36,0,4.121,1.98,4.121,4.9c0,3.481-2.141,5.201-4.421,5.201c-1.28,0-2.4-0.56-2.981-1.52h-0.04v5.261h-1.74V46.035z
							 M534.193,48.616c0,0.26,0.021,0.5,0.08,0.72c0.32,1.221,1.381,2.061,2.641,2.061c1.86,0,2.941-1.521,2.941-3.741
							c0-1.92-1.021-3.58-2.881-3.58c-1.2,0-2.341,0.84-2.661,2.16c-0.06,0.22-0.12,0.48-0.12,0.7V48.616z"/>
						<path fill="#FFFFFF" d="M543.833,45.896c0-1.141-0.02-2.121-0.08-3.021h1.541l0.08,1.92h0.06c0.44-1.3,1.521-2.12,2.701-2.12
							c0.18,0,0.319,0.02,0.479,0.04v1.66c-0.18-0.04-0.36-0.04-0.6-0.04c-1.24,0-2.121,0.92-2.361,2.24
							c-0.04,0.24-0.06,0.54-0.06,0.82v5.161h-1.761V45.896z"/>
						<path fill="#FFFFFF" d="M551.153,48.036c0.04,2.38,1.54,3.36,3.321,3.36c1.26,0,2.04-0.22,2.68-0.5l0.32,1.26
							c-0.62,0.28-1.7,0.62-3.24,0.62c-2.98,0-4.762-1.98-4.762-4.9c0-2.921,1.721-5.201,4.541-5.201
							c3.181,0,4.001,2.761,4.001,4.541c0,0.359-0.02,0.62-0.06,0.82H551.153z M556.314,46.775c0.021-1.101-0.46-2.841-2.44-2.841
							c-1.801,0-2.561,1.62-2.7,2.841H556.314z"/>
						<path fill="#FFFFFF" d="M558.813,55.037c0.439-1.2,0.979-3.341,1.2-4.801l1.96-0.2c-0.479,1.7-1.36,3.921-1.92,4.861
							L558.813,55.037z"/>
						<path fill="#FFFFFF" d="M575.135,50.236c0,0.84,0.04,1.66,0.14,2.32h-1.58l-0.14-1.221h-0.061
							c-0.54,0.761-1.58,1.44-2.96,1.44c-1.961,0-2.961-1.38-2.961-2.78c0-2.341,2.08-3.621,5.821-3.601v-0.2
							c0-0.78-0.22-2.24-2.2-2.221c-0.921,0-1.86,0.261-2.541,0.721l-0.4-1.181c0.801-0.5,1.98-0.84,3.201-0.84
							c2.961,0,3.681,2.021,3.681,3.94V50.236z M573.435,47.615c-1.921-0.04-4.101,0.301-4.101,2.181c0,1.16,0.76,1.681,1.64,1.681
							c1.28,0,2.101-0.801,2.381-1.62c0.06-0.2,0.08-0.4,0.08-0.561V47.615z"/>
						<path fill="#FFFFFF" d="M577.973,38.354h1.761v14.203h-1.761V38.354z"/>
						<path fill="#FFFFFF" d="M587.113,52.557v-8.342h-1.341v-1.34h1.341v-0.541c0-2.54,1.5-4.2,4.221-4.2
							c0.9,0,1.96,0.28,2.461,0.64l-0.501,1.341c-0.439-0.301-1.18-0.561-2.04-0.561c-1.86,0-2.4,1.301-2.4,2.841v0.48h5.621v9.682
							h-1.761v-8.342h-3.86v8.342H587.113z"/>
						<path fill="#FFFFFF" d="M597.393,45.495c0-1.021-0.02-1.82-0.08-2.62h1.561l0.101,1.6h0.04c0.479-0.899,1.6-1.8,3.2-1.8
							c1.341,0,3.421,0.8,3.421,4.121v5.761h-1.761v-5.581c0-1.561-0.58-2.86-2.24-2.86c-1.141,0-2.04,0.819-2.36,1.8
							c-0.08,0.221-0.12,0.521-0.12,0.82v5.821h-1.761V45.495z"/>
						<path fill="#FFFFFF" d="M615.294,50.236c0,0.84,0.04,1.66,0.14,2.32h-1.58l-0.14-1.221h-0.061
							c-0.54,0.761-1.58,1.44-2.96,1.44c-1.961,0-2.961-1.38-2.961-2.78c0-2.341,2.08-3.621,5.821-3.601v-0.2
							c0-0.78-0.22-2.24-2.2-2.221c-0.921,0-1.86,0.261-2.541,0.721l-0.4-1.181c0.801-0.5,1.98-0.84,3.201-0.84
							c2.961,0,3.681,2.021,3.681,3.94V50.236z M613.594,47.615c-1.921-0.04-4.101,0.301-4.101,2.181c0,1.16,0.76,1.681,1.64,1.681
							c1.28,0,2.101-0.801,2.381-1.62c0.06-0.2,0.08-0.4,0.08-0.561V47.615z"/>
						<path fill="#FFFFFF" d="M618.132,38.354h1.761v14.203h-1.761V38.354z"/>
						<path fill="#FFFFFF" d="M624.812,40.154c0,0.6-0.42,1.08-1.12,1.08c-0.641,0-1.061-0.48-1.061-1.08
							c0-0.601,0.44-1.101,1.101-1.101C624.372,39.054,624.812,39.534,624.812,40.154z M622.852,52.557v-9.682h1.761v9.682H622.852z
							"/>
						<path fill="#FFFFFF" d="M626.432,51.536l4.36-5.701c0.44-0.54,0.841-1,1.28-1.521v-0.04h-5.241v-1.399h7.362v1.1l-4.321,5.621
							c-0.42,0.54-0.8,1.04-1.24,1.521v0.04h5.642v1.4h-7.842V51.536z"/>
						<path fill="#FFFFFF" d="M642.893,50.236c0,0.84,0.04,1.66,0.14,2.32h-1.58l-0.14-1.221h-0.061
							c-0.54,0.761-1.58,1.44-2.96,1.44c-1.961,0-2.961-1.38-2.961-2.78c0-2.341,2.08-3.621,5.821-3.601v-0.2
							c0-0.78-0.22-2.24-2.2-2.221c-0.921,0-1.86,0.261-2.541,0.721l-0.4-1.181c0.801-0.5,1.98-0.84,3.201-0.84
							c2.961,0,3.681,2.021,3.681,3.94V50.236z M641.192,47.615c-1.921-0.04-4.101,0.301-4.101,2.181c0,1.16,0.76,1.681,1.64,1.681
							c1.28,0,2.101-0.801,2.381-1.62c0.06-0.2,0.08-0.4,0.08-0.561V47.615z"/>
						<path fill="#FFFFFF" d="M645.73,45.896c0-1.141-0.02-2.121-0.08-3.021h1.541l0.08,1.92h0.06c0.44-1.3,1.521-2.12,2.7-2.12
							c0.181,0,0.32,0.02,0.48,0.04v1.66c-0.18-0.04-0.36-0.04-0.6-0.04c-1.24,0-2.121,0.92-2.361,2.24
							c-0.04,0.24-0.06,0.54-0.06,0.82v5.161h-1.761V45.896z"/>
						<path fill="#FFFFFF" d="M656.511,38.354h1.761v14.203h-1.761V38.354z"/>
						<path fill="#FFFFFF" d="M668.032,50.236c0,0.84,0.04,1.66,0.14,2.32h-1.58l-0.14-1.221h-0.061
							c-0.54,0.761-1.58,1.44-2.96,1.44c-1.961,0-2.961-1.38-2.961-2.78c0-2.341,2.08-3.621,5.821-3.601v-0.2
							c0-0.78-0.22-2.24-2.2-2.221c-0.921,0-1.86,0.261-2.541,0.721l-0.4-1.181c0.801-0.5,1.98-0.84,3.201-0.84
							c2.961,0,3.681,2.021,3.681,3.94V50.236z M666.332,47.615c-1.921-0.04-4.101,0.301-4.101,2.181c0,1.16,0.76,1.681,1.64,1.681
							c1.28,0,2.101-0.801,2.381-1.62c0.06-0.2,0.08-0.4,0.08-0.561V47.615z"/>
						<path fill="#FFFFFF" d="M485.345,74.217c-0.46,0.22-1.479,0.56-2.78,0.56c-2.921,0-4.82-1.98-4.82-4.94
							c0-2.98,2.04-5.161,5.2-5.161c1.041,0,1.961,0.26,2.44,0.52l-0.399,1.341c-0.42-0.221-1.08-0.46-2.041-0.46
							c-2.22,0-3.42,1.66-3.42,3.66c0,2.241,1.439,3.621,3.36,3.621c1,0,1.66-0.24,2.16-0.46L485.345,74.217z"/>
						<path fill="#FFFFFF" d="M496.046,69.636c0,3.581-2.501,5.141-4.821,5.141c-2.601,0-4.642-1.92-4.642-4.98
							c0-3.221,2.141-5.121,4.802-5.121C494.165,64.675,496.046,66.695,496.046,69.636z M488.384,69.735
							c0,2.121,1.2,3.721,2.921,3.721c1.68,0,2.94-1.58,2.94-3.761c0-1.64-0.82-3.7-2.9-3.7
							C489.284,65.995,488.384,67.915,488.384,69.735z"/>
						<path fill="#FFFFFF" d="M498.263,67.495c0-1.021-0.02-1.82-0.08-2.62h1.561l0.101,1.6h0.04c0.479-0.899,1.6-1.8,3.2-1.8
							c1.341,0,3.421,0.8,3.421,4.121v5.761h-1.761v-5.581c0-1.561-0.58-2.86-2.24-2.86c-1.141,0-2.04,0.819-2.36,1.8
							c-0.08,0.221-0.12,0.521-0.12,0.82v5.821h-1.761V67.495z"/>
						<path fill="#FFFFFF" d="M509.783,64.875l1.9,5.421c0.32,0.9,0.58,1.7,0.78,2.5h0.06c0.221-0.8,0.5-1.6,0.82-2.5l1.881-5.421
							h1.84l-3.801,9.682h-1.681l-3.681-9.682H509.783z"/>
						<path fill="#FFFFFF" d="M519.504,70.036c0.04,2.38,1.54,3.36,3.32,3.36c1.261,0,2.041-0.22,2.681-0.5l0.32,1.26
							c-0.62,0.28-1.7,0.62-3.24,0.62c-2.98,0-4.762-1.98-4.762-4.9c0-2.921,1.721-5.201,4.541-5.201
							c3.181,0,4.001,2.761,4.001,4.541c0,0.359-0.02,0.62-0.06,0.82H519.504z M524.665,68.775c0.021-1.101-0.46-2.841-2.44-2.841
							c-1.801,0-2.561,1.62-2.7,2.841H524.665z"/>
						<path fill="#FFFFFF" d="M528.543,67.896c0-1.141-0.02-2.121-0.08-3.021h1.541l0.08,1.92h0.06c0.44-1.3,1.521-2.12,2.7-2.12
							c0.181,0,0.32,0.02,0.48,0.04v1.66c-0.18-0.04-0.36-0.04-0.6-0.04c-1.24,0-2.121,0.92-2.361,2.24
							c-0.04,0.24-0.06,0.54-0.06,0.82v5.161h-1.761V67.896z"/>
						<path fill="#FFFFFF" d="M534.844,72.776c0.54,0.32,1.46,0.68,2.34,0.68c1.261,0,1.86-0.62,1.86-1.44
							c0-0.84-0.5-1.28-1.78-1.76c-1.76-0.641-2.58-1.58-2.58-2.741c0-1.56,1.28-2.84,3.341-2.84c0.979,0,1.84,0.26,2.36,0.6
							l-0.42,1.28c-0.381-0.24-1.081-0.58-1.98-0.58c-1.041,0-1.601,0.601-1.601,1.32c0,0.801,0.56,1.16,1.82,1.66
							c1.66,0.62,2.54,1.461,2.54,2.901c0,1.72-1.34,2.92-3.601,2.92c-1.06,0-2.04-0.279-2.721-0.68L534.844,72.776z"/>
						<path fill="#FFFFFF" d="M549.805,72.236c0,0.84,0.04,1.66,0.14,2.32h-1.58l-0.14-1.221h-0.061
							c-0.54,0.761-1.58,1.44-2.96,1.44c-1.961,0-2.961-1.38-2.961-2.78c0-2.341,2.08-3.621,5.821-3.601v-0.2
							c0-0.78-0.22-2.24-2.2-2.221c-0.921,0-1.86,0.261-2.541,0.721l-0.4-1.181c0.801-0.5,1.98-0.84,3.201-0.84
							c2.961,0,3.681,2.021,3.681,3.94V72.236z M548.104,69.615c-1.921-0.04-4.101,0.301-4.101,2.181c0,1.16,0.76,1.681,1.64,1.681
							c1.28,0,2.101-0.801,2.381-1.62c0.06-0.2,0.08-0.4,0.08-0.561V69.615z"/>
						<path fill="#FFFFFF" d="M559.544,74.217c-0.46,0.22-1.479,0.56-2.78,0.56c-2.921,0-4.821-1.98-4.821-4.94
							c0-2.98,2.041-5.161,5.201-5.161c1.041,0,1.961,0.26,2.44,0.52l-0.399,1.341c-0.42-0.221-1.08-0.46-2.041-0.46
							c-2.22,0-3.42,1.66-3.42,3.66c0,2.241,1.439,3.621,3.36,3.621c1,0,1.66-0.24,2.16-0.46L559.544,74.217z"/>
						<path fill="#FFFFFF" d="M563.563,62.154c0,0.6-0.42,1.08-1.12,1.08c-0.641,0-1.061-0.48-1.061-1.08
							c0-0.601,0.44-1.101,1.101-1.101C563.123,61.054,563.563,61.534,563.563,62.154z M561.603,74.557v-9.682h1.761v9.682H561.603z
							"/>
						<path fill="#FFFFFF" d="M575.045,69.636c0,3.581-2.501,5.141-4.821,5.141c-2.601,0-4.642-1.92-4.642-4.98
							c0-3.221,2.141-5.121,4.802-5.121C573.164,64.675,575.045,66.695,575.045,69.636z M567.383,69.735
							c0,2.121,1.2,3.721,2.921,3.721c1.68,0,2.94-1.58,2.94-3.761c0-1.64-0.82-3.7-2.9-3.7
							C568.283,65.995,567.383,67.915,567.383,69.735z M572.944,60.693l-2.44,2.861h-1.24l1.74-2.861H572.944z"/>
						<path fill="#FFFFFF" d="M577.262,67.495c0-1.021-0.02-1.82-0.08-2.62h1.561l0.101,1.6h0.04c0.479-0.899,1.6-1.8,3.2-1.8
							c1.341,0,3.421,0.8,3.421,4.121v5.761h-1.761v-5.581c0-1.561-0.58-2.86-2.24-2.86c-1.141,0-2.04,0.819-2.36,1.8
							c-0.08,0.221-0.12,0.521-0.12,0.82v5.821h-1.761V67.495z"/>
						<path fill="#FFFFFF" d="M599.503,74.217c-0.46,0.22-1.479,0.56-2.78,0.56c-2.921,0-4.821-1.98-4.821-4.94
							c0-2.98,2.041-5.161,5.201-5.161c1.041,0,1.961,0.26,2.44,0.52l-0.399,1.341c-0.42-0.221-1.08-0.46-2.041-0.46
							c-2.22,0-3.42,1.66-3.42,3.66c0,2.241,1.439,3.621,3.36,3.621c1,0,1.66-0.24,2.16-0.46L599.503,74.217z"/>
						<path fill="#FFFFFF" d="M601.562,60.354h1.761v14.203h-1.761V60.354z"/>
						<path fill="#FFFFFF" d="M613.083,72.236c0,0.84,0.04,1.66,0.14,2.32h-1.58l-0.14-1.221h-0.061
							c-0.54,0.761-1.58,1.44-2.96,1.44c-1.961,0-2.961-1.38-2.961-2.78c0-2.341,2.08-3.621,5.821-3.601v-0.2
							c0-0.78-0.22-2.24-2.2-2.221c-0.921,0-1.86,0.261-2.541,0.721l-0.4-1.181c0.801-0.5,1.98-0.84,3.201-0.84
							c2.961,0,3.681,2.021,3.681,3.94V72.236z M611.383,69.615c-1.921-0.04-4.101,0.301-4.101,2.181c0,1.16,0.76,1.681,1.64,1.681
							c1.28,0,2.101-0.801,2.381-1.62c0.06-0.2,0.08-0.4,0.08-0.561V69.615z"/>
						<path fill="#FFFFFF" d="M615.921,67.896c0-1.141-0.02-2.121-0.08-3.021h1.541l0.08,1.92h0.06c0.44-1.3,1.521-2.12,2.701-2.12
							c0.18,0,0.319,0.02,0.479,0.04v1.66c-0.18-0.04-0.36-0.04-0.6-0.04c-1.24,0-2.121,0.92-2.361,2.24
							c-0.04,0.24-0.06,0.54-0.06,0.82v5.161h-1.761V67.896z"/>
						<path fill="#FFFFFF" d="M624.501,62.154c0,0.6-0.42,1.08-1.12,1.08c-0.641,0-1.061-0.48-1.061-1.08
							c0-0.601,0.44-1.101,1.101-1.101C624.061,61.054,624.501,61.534,624.501,62.154z M622.54,74.557v-9.682h1.761v9.682H622.54z"
							/>
						<path fill="#FFFFFF" d="M627.4,74.557v-8.342h-1.341v-1.34h1.341v-0.541c0-2.54,1.5-4.2,4.221-4.2c0.9,0,1.96,0.28,2.461,0.64
							l-0.501,1.341c-0.439-0.301-1.18-0.561-2.04-0.561c-1.86,0-2.4,1.301-2.4,2.841v0.48h5.621v9.682h-1.761v-8.342h-3.86v8.342
							H627.4z"/>
						<path fill="#FFFFFF" d="M644.281,73.076h-0.04c-0.54,0.94-1.601,1.7-3.16,1.7c-2.261,0-4.102-1.94-4.102-4.881
							c0-3.641,2.341-5.221,4.381-5.221c1.501,0,2.501,0.74,2.981,1.66h0.04l0.06-1.46h1.66c-0.04,0.8-0.08,1.66-0.08,2.66v10.982
							h-1.74V73.076z M644.281,68.796c0-0.24-0.02-0.501-0.08-0.721c-0.28-1.08-1.2-2-2.521-2c-1.82,0-2.92,1.54-2.92,3.7
							c0,1.94,0.92,3.601,2.86,3.601c1.14,0,2.12-0.7,2.521-1.9c0.08-0.26,0.14-0.6,0.14-0.859V68.796z"/>
						<path fill="#FFFFFF" d="M657.042,71.896c0,1.02,0.02,1.9,0.079,2.66h-1.56l-0.101-1.58h-0.04c-0.439,0.78-1.48,1.8-3.2,1.8
							c-1.521,0-3.341-0.859-3.341-4.24v-5.661h1.761v5.341c0,1.84,0.58,3.101,2.16,3.101c1.18,0,2-0.82,2.32-1.62
							c0.1-0.24,0.16-0.561,0.16-0.9v-5.921h1.761V71.896z"/>
						<path fill="#FFFFFF" d="M660.939,70.036c0.04,2.38,1.54,3.36,3.32,3.36c1.261,0,2.041-0.22,2.681-0.5l0.32,1.26
							c-0.62,0.28-1.7,0.62-3.24,0.62c-2.98,0-4.762-1.98-4.762-4.9c0-2.921,1.721-5.201,4.541-5.201
							c3.181,0,4.001,2.761,4.001,4.541c0,0.359-0.02,0.62-0.06,0.82H660.939z M666.101,68.775c0.021-1.101-0.46-2.841-2.44-2.841
							c-1.801,0-2.561,1.62-2.7,2.841H666.101z"/>
						<path fill="#FFFFFF" d="M674.859,64.875l2.101,5.721c0.24,0.641,0.479,1.4,0.64,1.98h0.04c0.181-0.58,0.38-1.32,0.62-2.021
							l1.921-5.681h1.86l-2.641,6.901c-1.261,3.32-2.121,5.001-3.321,6.061c-0.88,0.74-1.72,1.041-2.16,1.121l-0.44-1.461
							c0.44-0.14,1.021-0.42,1.541-0.86c0.479-0.38,1.06-1.06,1.48-1.96c0.08-0.18,0.14-0.32,0.14-0.42c0-0.101-0.04-0.24-0.14-0.46
							l-3.562-8.922H674.859z"/>
						<path fill="#FFFFFF" d="M480.344,89.896c0-1.141-0.02-2.121-0.08-3.021h1.541l0.08,1.92h0.06c0.44-1.3,1.521-2.12,2.7-2.12
							c0.181,0,0.32,0.02,0.48,0.04v1.66c-0.18-0.04-0.36-0.04-0.6-0.04c-1.24,0-2.121,0.92-2.361,2.24
							c-0.04,0.24-0.06,0.54-0.06,0.82v5.161h-1.761V89.896z"/>
						<path fill="#FFFFFF" d="M487.664,92.036c0.04,2.38,1.54,3.36,3.32,3.36c1.261,0,2.041-0.22,2.681-0.5l0.32,1.26
							c-0.62,0.28-1.7,0.62-3.24,0.62c-2.98,0-4.762-1.98-4.762-4.9c0-2.921,1.721-5.201,4.541-5.201
							c3.181,0,4.001,2.761,4.001,4.541c0,0.359-0.02,0.62-0.06,0.82H487.664z M492.825,90.775c0.021-1.101-0.46-2.841-2.44-2.841
							c-1.801,0-2.561,1.62-2.7,2.841H492.825z"/>
						<path fill="#FFFFFF" d="M496.464,94.776c0.54,0.32,1.46,0.68,2.34,0.68c1.261,0,1.86-0.62,1.86-1.44
							c0-0.84-0.5-1.28-1.78-1.76c-1.76-0.641-2.58-1.58-2.58-2.741c0-1.56,1.28-2.84,3.341-2.84c0.979,0,1.84,0.26,2.36,0.6
							l-0.42,1.28c-0.381-0.24-1.081-0.58-1.98-0.58c-1.041,0-1.601,0.601-1.601,1.32c0,0.801,0.56,1.16,1.82,1.66
							c1.66,0.62,2.54,1.461,2.54,2.901c0,1.72-1.34,2.92-3.601,2.92c-1.06,0-2.04-0.279-2.721-0.68L496.464,94.776z"/>
						<path fill="#FFFFFF" d="M512.726,93.896c0,1.02,0.02,1.9,0.079,2.66h-1.56l-0.101-1.58h-0.04c-0.439,0.78-1.48,1.8-3.2,1.8
							c-1.521,0-3.341-0.859-3.341-4.24v-5.661h1.761v5.341c0,1.84,0.58,3.101,2.16,3.101c1.18,0,2-0.82,2.32-1.62
							c0.1-0.24,0.16-0.561,0.16-0.9v-5.921h1.761V93.896z"/>
						<path fill="#FFFFFF" d="M515.643,89.495c0-1.021-0.04-1.82-0.08-2.62h1.541l0.08,1.58h0.06c0.54-0.92,1.44-1.78,3.061-1.78
							c1.301,0,2.301,0.8,2.721,1.94h0.04c0.3-0.561,0.7-0.961,1.101-1.261c0.58-0.439,1.2-0.68,2.12-0.68
							c1.301,0,3.201,0.84,3.201,4.2v5.682h-1.721v-5.461c0-1.881-0.7-2.98-2.101-2.98c-1.021,0-1.78,0.74-2.101,1.58
							c-0.08,0.26-0.14,0.56-0.14,0.88v5.981h-1.721v-5.801c0-1.541-0.68-2.641-2.021-2.641c-1.08,0-1.9,0.88-2.181,1.76
							c-0.1,0.24-0.14,0.561-0.14,0.86v5.821h-1.721V89.495z"/>
						<path fill="#FFFFFF" d="M539.124,94.236c0,0.84,0.04,1.66,0.14,2.32h-1.58l-0.14-1.221h-0.061
							c-0.54,0.761-1.58,1.44-2.96,1.44c-1.961,0-2.961-1.38-2.961-2.78c0-2.341,2.08-3.621,5.821-3.601v-0.2
							c0-0.78-0.22-2.24-2.2-2.221c-0.921,0-1.86,0.261-2.541,0.721l-0.4-1.181c0.801-0.5,1.98-0.84,3.201-0.84
							c2.961,0,3.681,2.021,3.681,3.94V94.236z M537.424,91.615c-1.921-0.04-4.101,0.301-4.101,2.181c0,1.16,0.76,1.681,1.64,1.681
							c1.28,0,2.101-0.801,2.381-1.62c0.06-0.2,0.08-0.4,0.08-0.561V91.615z"/>
						<path fill="#FFFFFF" d="M546.202,90.035c0-1.24-0.04-2.24-0.08-3.16h1.561l0.101,1.66h0.04c0.7-1.181,1.86-1.86,3.44-1.86
							c2.36,0,4.121,1.98,4.121,4.9c0,3.481-2.141,5.201-4.421,5.201c-1.28,0-2.4-0.56-2.981-1.52h-0.039v5.261h-1.741V90.035z
							 M547.943,92.616c0,0.26,0.02,0.5,0.079,0.72c0.32,1.221,1.381,2.061,2.641,2.061c1.86,0,2.941-1.521,2.941-3.741
							c0-1.92-1.021-3.58-2.881-3.58c-1.2,0-2.341,0.84-2.661,2.16c-0.06,0.22-0.119,0.48-0.119,0.7V92.616z"/>
						<path fill="#FFFFFF" d="M564.384,94.236c0,0.84,0.04,1.66,0.14,2.32h-1.58l-0.14-1.221h-0.061
							c-0.54,0.761-1.58,1.44-2.96,1.44c-1.961,0-2.961-1.38-2.961-2.78c0-2.341,2.08-3.621,5.821-3.601v-0.2
							c0-0.78-0.22-2.24-2.2-2.221c-0.921,0-1.86,0.261-2.541,0.721l-0.4-1.181c0.801-0.5,1.98-0.84,3.201-0.84
							c2.961,0,3.681,2.021,3.681,3.94V94.236z M562.684,91.615c-1.921-0.04-4.101,0.301-4.101,2.181c0,1.16,0.76,1.681,1.64,1.681
							c1.28,0,2.101-0.801,2.381-1.62c0.06-0.2,0.08-0.4,0.08-0.561V91.615z"/>
						<path fill="#FFFFFF" d="M567.222,89.896c0-1.141-0.02-2.121-0.08-3.021h1.541l0.08,1.92h0.06c0.44-1.3,1.521-2.12,2.701-2.12
							c0.18,0,0.319,0.02,0.479,0.04v1.66c-0.18-0.04-0.36-0.04-0.6-0.04c-1.24,0-2.121,0.92-2.361,2.24
							c-0.04,0.24-0.06,0.54-0.06,0.82v5.161h-1.761V89.896z"/>
						<path fill="#FFFFFF" d="M580.464,94.236c0,0.84,0.04,1.66,0.14,2.32h-1.58l-0.14-1.221h-0.061
							c-0.54,0.761-1.58,1.44-2.96,1.44c-1.961,0-2.961-1.38-2.961-2.78c0-2.341,2.08-3.621,5.821-3.601v-0.2
							c0-0.78-0.22-2.24-2.2-2.221c-0.921,0-1.86,0.261-2.541,0.721l-0.4-1.181c0.801-0.5,1.98-0.84,3.201-0.84
							c2.961,0,3.681,2.021,3.681,3.94V94.236z M578.764,91.615c-1.921-0.04-4.101,0.301-4.101,2.181c0,1.16,0.76,1.681,1.64,1.681
							c1.28,0,2.101-0.801,2.381-1.62c0.06-0.2,0.08-0.4,0.08-0.561V91.615z"/>
						<path fill="#FFFFFF" d="M588.223,86.875l1.9,5.421c0.32,0.9,0.58,1.7,0.78,2.5h0.06c0.221-0.8,0.5-1.6,0.82-2.5l1.881-5.421
							h1.84l-3.801,9.682h-1.681l-3.681-9.682H588.223z"/>
						<path fill="#FFFFFF" d="M597.942,92.036c0.04,2.38,1.54,3.36,3.321,3.36c1.26,0,2.04-0.22,2.68-0.5l0.32,1.26
							c-0.62,0.28-1.7,0.62-3.24,0.62c-2.98,0-4.762-1.98-4.762-4.9c0-2.921,1.721-5.201,4.541-5.201
							c3.181,0,4.001,2.761,4.001,4.541c0,0.359-0.02,0.62-0.06,0.82H597.942z M603.104,90.775c0.021-1.101-0.46-2.841-2.44-2.841
							c-1.801,0-2.561,1.62-2.7,2.841H603.104z"/>
						<path fill="#FFFFFF" d="M606.981,89.896c0-1.141-0.02-2.121-0.08-3.021h1.541l0.08,1.92h0.06c0.44-1.3,1.521-2.12,2.701-2.12
							c0.18,0,0.319,0.02,0.479,0.04v1.66c-0.18-0.04-0.36-0.04-0.6-0.04c-1.24,0-2.121,0.92-2.361,2.24
							c-0.04,0.24-0.06,0.54-0.06,0.82v5.161h-1.761V89.896z"/>
						<path fill="#FFFFFF" d="M615.562,84.154c0,0.6-0.42,1.08-1.12,1.08c-0.641,0-1.061-0.48-1.061-1.08
							c0-0.601,0.44-1.101,1.101-1.101C615.122,83.054,615.562,83.534,615.562,84.154z M613.602,96.557v-9.682h1.761v9.682H613.602z
							"/>
						<path fill="#FFFFFF" d="M618.462,96.557v-8.342h-1.341v-1.34h1.341v-0.541c0-2.54,1.5-4.2,4.221-4.2
							c0.9,0,1.96,0.28,2.46,0.64l-0.5,1.341c-0.439-0.301-1.18-0.561-2.04-0.561c-1.86,0-2.4,1.301-2.4,2.841v0.48h5.621v9.682
							h-1.761v-8.342h-3.86v8.342H618.462z"/>
						<path fill="#FFFFFF" d="M635.643,96.217c-0.46,0.22-1.479,0.56-2.78,0.56c-2.921,0-4.821-1.98-4.821-4.94
							c0-2.98,2.041-5.161,5.201-5.161c1.041,0,1.961,0.26,2.44,0.52l-0.399,1.341c-0.42-0.221-1.08-0.46-2.041-0.46
							c-2.22,0-3.42,1.66-3.42,3.66c0,2.241,1.439,3.621,3.36,3.621c1,0,1.66-0.24,2.16-0.46L635.643,96.217z"/>
						<path fill="#FFFFFF" d="M644.503,94.236c0,0.84,0.04,1.66,0.14,2.32h-1.58l-0.14-1.221h-0.061
							c-0.54,0.761-1.58,1.44-2.96,1.44c-1.961,0-2.961-1.38-2.961-2.78c0-2.341,2.08-3.621,5.821-3.601v-0.2
							c0-0.78-0.22-2.24-2.2-2.221c-0.921,0-1.86,0.261-2.541,0.721l-0.4-1.181c0.801-0.5,1.98-0.84,3.201-0.84
							c2.961,0,3.681,2.021,3.681,3.94V94.236z M642.803,91.615c-1.921-0.04-4.101,0.301-4.101,2.181c0,1.16,0.76,1.681,1.64,1.681
							c1.28,0,2.101-0.801,2.381-1.62c0.06-0.2,0.08-0.4,0.08-0.561V91.615z"/>
						<path fill="#FFFFFF" d="M647.341,89.896c0-1.141-0.02-2.121-0.08-3.021h1.541l0.08,1.92h0.06c0.44-1.3,1.521-2.12,2.701-2.12
							c0.18,0,0.319,0.02,0.479,0.04v1.66c-0.18-0.04-0.36-0.04-0.6-0.04c-1.24,0-2.121,0.92-2.361,2.24
							c-0.04,0.24-0.06,0.54-0.06,0.82v5.161h-1.761V89.896z"/>
						<path fill="#FFFFFF" d="M658.121,82.354h1.761v14.203h-1.761V82.354z"/>
						<path fill="#FFFFFF" d="M671.604,91.636c0,3.581-2.501,5.141-4.821,5.141c-2.601,0-4.642-1.92-4.642-4.98
							c0-3.221,2.141-5.121,4.802-5.121C669.723,86.675,671.604,88.695,671.604,91.636z M663.941,91.735
							c0,2.121,1.2,3.721,2.921,3.721c1.68,0,2.94-1.58,2.94-3.761c0-1.64-0.82-3.7-2.9-3.7
							C664.842,87.995,663.941,89.915,663.941,91.735z"/>
						<path fill="#FFFFFF" d="M673.581,94.776c0.54,0.32,1.46,0.68,2.34,0.68c1.261,0,1.86-0.62,1.86-1.44
							c0-0.84-0.5-1.28-1.78-1.76c-1.76-0.641-2.58-1.58-2.58-2.741c0-1.56,1.28-2.84,3.341-2.84c0.979,0,1.84,0.26,2.36,0.6
							l-0.42,1.28c-0.381-0.24-1.081-0.58-1.98-0.58c-1.041,0-1.601,0.601-1.601,1.32c0,0.801,0.56,1.16,1.82,1.66
							c1.66,0.62,2.54,1.461,2.54,2.901c0,1.72-1.34,2.92-3.601,2.92c-1.06,0-2.04-0.279-2.721-0.68L673.581,94.776z"/>
						<path fill="#FFFFFF" d="M483.705,116.236c0,0.84,0.04,1.66,0.14,2.32h-1.58l-0.14-1.221h-0.061
							c-0.54,0.761-1.58,1.44-2.96,1.44c-1.961,0-2.961-1.38-2.961-2.78c0-2.341,2.08-3.621,5.821-3.601v-0.2
							c0-0.78-0.22-2.24-2.2-2.221c-0.921,0-1.86,0.261-2.541,0.721l-0.399-1.181c0.8-0.5,1.979-0.84,3.2-0.84
							c2.961,0,3.681,2.021,3.681,3.94V116.236z M482.005,113.615c-1.921-0.04-4.101,0.301-4.101,2.181
							c0,1.16,0.76,1.681,1.64,1.681c1.28,0,2.101-0.801,2.381-1.62c0.06-0.2,0.08-0.4,0.08-0.561V113.615z"/>
						<path fill="#FFFFFF" d="M493.444,118.217c-0.46,0.22-1.479,0.56-2.78,0.56c-2.921,0-4.821-1.98-4.821-4.94
							c0-2.98,2.041-5.161,5.201-5.161c1.041,0,1.961,0.26,2.44,0.52l-0.399,1.341c-0.42-0.221-1.08-0.46-2.041-0.46
							c-2.22,0-3.42,1.66-3.42,3.66c0,2.241,1.439,3.621,3.36,3.621c1,0,1.66-0.24,2.16-0.46L493.444,118.217z"/>
						<path fill="#FFFFFF" d="M503.605,115.896c0,1.02,0.02,1.9,0.079,2.66h-1.56l-0.101-1.58h-0.04c-0.439,0.78-1.48,1.8-3.2,1.8
							c-1.521,0-3.341-0.859-3.341-4.24v-5.661h1.761v5.341c0,1.84,0.58,3.101,2.16,3.101c1.18,0,2-0.82,2.32-1.62
							c0.1-0.24,0.16-0.561,0.16-0.9v-5.921h1.761V115.896z"/>
						<path fill="#FFFFFF" d="M507.503,114.036c0.04,2.38,1.54,3.36,3.321,3.36c1.26,0,2.04-0.22,2.68-0.5l0.32,1.26
							c-0.62,0.28-1.7,0.62-3.24,0.62c-2.98,0-4.762-1.98-4.762-4.9c0-2.921,1.721-5.201,4.541-5.201
							c3.181,0,4.001,2.761,4.001,4.541c0,0.359-0.02,0.62-0.06,0.82H507.503z M512.664,112.775c0.021-1.101-0.46-2.841-2.44-2.841
							c-1.801,0-2.561,1.62-2.7,2.841H512.664z"/>
						<path fill="#FFFFFF" d="M516.542,111.896c0-1.141-0.02-2.121-0.08-3.021h1.541l0.08,1.92h0.06c0.44-1.3,1.521-2.12,2.701-2.12
							c0.18,0,0.319,0.02,0.479,0.04v1.66c-0.18-0.04-0.36-0.04-0.6-0.04c-1.24,0-2.121,0.92-2.361,2.24
							c-0.04,0.24-0.06,0.54-0.06,0.82v5.161h-1.761V111.896z"/>
						<path fill="#FFFFFF" d="M531.224,104.354v11.702c0,0.86,0.04,1.841,0.08,2.501h-1.56l-0.08-1.681h-0.061
							c-0.52,1.08-1.681,1.9-3.261,1.9c-2.341,0-4.161-1.98-4.161-4.921c-0.02-3.221,2.001-5.181,4.342-5.181
							c1.5,0,2.48,0.7,2.92,1.46h0.04v-5.781H531.224z M529.483,112.815c0-0.22-0.02-0.521-0.08-0.74
							c-0.26-1.101-1.22-2.021-2.54-2.021c-1.82,0-2.9,1.601-2.9,3.721c0,1.961,0.979,3.581,2.86,3.581c1.18,0,2.261-0.8,2.58-2.101
							c0.061-0.24,0.08-0.48,0.08-0.76V112.815z"/>
						<path fill="#FFFFFF" d="M542.925,113.636c0,3.581-2.501,5.141-4.821,5.141c-2.601,0-4.642-1.92-4.642-4.98
							c0-3.221,2.141-5.121,4.802-5.121C541.044,108.675,542.925,110.695,542.925,113.636z M535.263,113.735
							c0,2.121,1.2,3.721,2.921,3.721c1.68,0,2.94-1.58,2.94-3.761c0-1.64-0.82-3.7-2.9-3.7
							C536.163,109.995,535.263,111.915,535.263,113.735z"/>
						<path fill="#FFFFFF" d="M544.902,116.776c0.54,0.32,1.46,0.68,2.34,0.68c1.261,0,1.86-0.62,1.86-1.44
							c0-0.84-0.5-1.28-1.78-1.76c-1.76-0.641-2.58-1.58-2.58-2.741c0-1.56,1.28-2.84,3.341-2.84c0.979,0,1.84,0.26,2.36,0.6
							l-0.42,1.28c-0.381-0.24-1.081-0.58-1.98-0.58c-1.041,0-1.601,0.601-1.601,1.32c0,0.801,0.56,1.16,1.82,1.66
							c1.66,0.62,2.54,1.461,2.54,2.901c0,1.72-1.34,2.92-3.601,2.92c-1.06,0-2.04-0.279-2.721-0.68L544.902,116.776z"/>
						<path fill="#FFFFFF" d="M551.702,121.037c0.439-1.2,0.979-3.341,1.2-4.801l1.96-0.2c-0.479,1.7-1.36,3.921-1.92,4.861
							L551.702,121.037z"/>
						<path fill="#FFFFFF" d="M569.504,117.137c0,2.24-0.46,3.58-1.381,4.44c-0.96,0.86-2.32,1.16-3.54,1.16
							c-1.16,0-2.44-0.28-3.221-0.8l0.439-1.36c0.641,0.42,1.641,0.78,2.841,0.78c1.801,0,3.121-0.94,3.121-3.401v-1.06h-0.04
							c-0.521,0.9-1.58,1.62-3.081,1.62c-2.4,0-4.121-2.04-4.121-4.721c0-3.281,2.141-5.121,4.381-5.121
							c1.681,0,2.581,0.86,3.021,1.66h0.04l0.06-1.46h1.561c-0.061,0.68-0.08,1.479-0.08,2.64V117.137z M567.743,112.695
							c0-0.3-0.02-0.56-0.1-0.78c-0.32-1.04-1.16-1.88-2.461-1.88c-1.68,0-2.88,1.42-2.88,3.66c0,1.9,0.979,3.481,2.86,3.481
							c1.1,0,2.08-0.681,2.44-1.801c0.1-0.3,0.14-0.641,0.14-0.94V112.695z"/>
						<path fill="#FFFFFF" d="M573.382,114.036c0.04,2.38,1.54,3.36,3.321,3.36c1.26,0,2.04-0.22,2.68-0.5l0.32,1.26
							c-0.62,0.28-1.7,0.62-3.24,0.62c-2.98,0-4.762-1.98-4.762-4.9c0-2.921,1.721-5.201,4.541-5.201
							c3.181,0,4.001,2.761,4.001,4.541c0,0.359-0.02,0.62-0.06,0.82H573.382z M578.543,112.775c0.021-1.101-0.46-2.841-2.44-2.841
							c-1.801,0-2.561,1.62-2.7,2.841H578.543z"/>
						<path fill="#FFFFFF" d="M582.421,111.495c0-1.021-0.02-1.82-0.08-2.62h1.561l0.101,1.6h0.04c0.479-0.899,1.6-1.8,3.2-1.8
							c1.341,0,3.421,0.8,3.421,4.121v5.761h-1.761v-5.581c0-1.561-0.58-2.86-2.24-2.86c-1.141,0-2.04,0.819-2.36,1.8
							c-0.08,0.221-0.12,0.521-0.12,0.82v5.821h-1.761V111.495z"/>
						<path fill="#FFFFFF" d="M594.501,114.036c0.04,2.38,1.54,3.36,3.321,3.36c1.26,0,2.04-0.22,2.68-0.5l0.32,1.26
							c-0.62,0.28-1.7,0.62-3.24,0.62c-2.98,0-4.762-1.98-4.762-4.9c0-2.921,1.721-5.201,4.541-5.201
							c3.181,0,4.001,2.761,4.001,4.541c0,0.359-0.02,0.62-0.06,0.82H594.501z M599.662,112.775c0.021-1.101-0.46-2.841-2.44-2.841
							c-1.801,0-2.561,1.62-2.7,2.841H599.662z"/>
						<path fill="#FFFFFF" d="M603.54,111.896c0-1.141-0.02-2.121-0.08-3.021h1.541l0.08,1.92h0.06c0.44-1.3,1.521-2.12,2.701-2.12
							c0.18,0,0.319,0.02,0.479,0.04v1.66c-0.18-0.04-0.36-0.04-0.6-0.04c-1.24,0-2.121,0.92-2.361,2.24
							c-0.04,0.24-0.06,0.54-0.06,0.82v5.161h-1.761V111.896z"/>
						<path fill="#FFFFFF" d="M616.782,116.236c0,0.84,0.04,1.66,0.14,2.32h-1.58l-0.14-1.221h-0.061
							c-0.54,0.761-1.58,1.44-2.96,1.44c-1.961,0-2.961-1.38-2.961-2.78c0-2.341,2.08-3.621,5.821-3.601v-0.2
							c0-0.78-0.22-2.24-2.2-2.221c-0.921,0-1.86,0.261-2.541,0.721l-0.4-1.181c0.801-0.5,1.98-0.84,3.201-0.84
							c2.961,0,3.681,2.021,3.681,3.94V116.236z M615.082,113.615c-1.921-0.04-4.101,0.301-4.101,2.181
							c0,1.16,0.76,1.681,1.64,1.681c1.28,0,2.101-0.801,2.381-1.62c0.06-0.2,0.08-0.4,0.08-0.561V113.615z"/>
						<path fill="#FFFFFF" d="M619.62,111.896c0-1.141-0.02-2.121-0.08-3.021h1.541l0.08,1.92h0.06c0.44-1.3,1.521-2.12,2.701-2.12
							c0.18,0,0.319,0.02,0.479,0.04v1.66c-0.18-0.04-0.36-0.04-0.6-0.04c-1.24,0-2.121,0.92-2.361,2.24
							c-0.04,0.24-0.06,0.54-0.06,0.82v5.161h-1.761V111.896z"/>
						<path fill="#FFFFFF" d="M630.4,112.035c0-1.24-0.04-2.24-0.08-3.16h1.561l0.101,1.66h0.04c0.7-1.181,1.86-1.86,3.44-1.86
							c2.36,0,4.121,1.98,4.121,4.9c0,3.481-2.141,5.201-4.421,5.201c-1.28,0-2.4-0.56-2.981-1.52h-0.04v5.261h-1.74V112.035z
							 M632.141,114.616c0,0.26,0.021,0.5,0.08,0.72c0.32,1.221,1.381,2.061,2.641,2.061c1.86,0,2.941-1.521,2.941-3.741
							c0-1.92-1.021-3.58-2.881-3.58c-1.2,0-2.341,0.84-2.661,2.16c-0.06,0.22-0.12,0.48-0.12,0.7V114.616z"/>
						<path fill="#FFFFFF" d="M641.78,104.354h1.761v14.203h-1.761V104.354z"/>
						<path fill="#FFFFFF" d="M653.302,116.236c0,0.84,0.04,1.66,0.14,2.32h-1.58l-0.14-1.221h-0.061
							c-0.54,0.761-1.58,1.44-2.96,1.44c-1.961,0-2.961-1.38-2.961-2.78c0-2.341,2.08-3.621,5.821-3.601v-0.2
							c0-0.78-0.22-2.24-2.2-2.221c-0.921,0-1.86,0.261-2.541,0.721l-0.4-1.181c0.801-0.5,1.98-0.84,3.201-0.84
							c2.961,0,3.681,2.021,3.681,3.94V116.236z M651.602,113.615c-1.921-0.04-4.101,0.301-4.101,2.181
							c0,1.16,0.76,1.681,1.64,1.681c1.28,0,2.101-0.801,2.381-1.62c0.06-0.2,0.08-0.4,0.08-0.561V113.615z"/>
						<path fill="#FFFFFF" d="M656.14,111.495c0-1.021-0.02-1.82-0.08-2.62h1.561l0.101,1.6h0.04c0.479-0.899,1.6-1.8,3.2-1.8
							c1.341,0,3.421,0.8,3.421,4.121v5.761h-1.761v-5.581c0-1.561-0.58-2.86-2.24-2.86c-1.141,0-2.04,0.819-2.36,1.8
							c-0.08,0.221-0.12,0.521-0.12,0.82v5.821h-1.761V111.495z"/>
						<path fill="#FFFFFF" d="M668.22,114.036c0.04,2.38,1.54,3.36,3.321,3.36c1.26,0,2.04-0.22,2.68-0.5l0.32,1.26
							c-0.62,0.28-1.7,0.62-3.24,0.62c-2.98,0-4.762-1.98-4.762-4.9c0-2.921,1.721-5.201,4.541-5.201
							c3.181,0,4.001,2.761,4.001,4.541c0,0.359-0.02,0.62-0.06,0.82H668.22z M673.381,112.775c0.021-1.101-0.46-2.841-2.44-2.841
							c-1.801,0-2.561,1.62-2.7,2.841H673.381z"/>
						<path fill="#FFFFFF" d="M677.02,116.776c0.54,0.32,1.46,0.68,2.34,0.68c1.261,0,1.86-0.62,1.86-1.44
							c0-0.84-0.5-1.28-1.78-1.76c-1.76-0.641-2.58-1.58-2.58-2.741c0-1.56,1.28-2.84,3.341-2.84c0.979,0,1.84,0.26,2.36,0.6
							l-0.42,1.28c-0.381-0.24-1.081-0.58-1.98-0.58c-1.041,0-1.601,0.601-1.601,1.32c0,0.801,0.56,1.16,1.82,1.66
							c1.66,0.62,2.54,1.461,2.54,2.901c0,1.72-1.34,2.92-3.601,2.92c-1.06,0-2.04-0.279-2.721-0.68L677.02,116.776z"/>
						<path fill="#FFFFFF" d="M520.074,139.076h-0.04c-0.54,0.94-1.601,1.7-3.16,1.7c-2.261,0-4.102-1.94-4.102-4.881
							c0-3.641,2.341-5.221,4.381-5.221c1.501,0,2.501,0.74,2.981,1.66h0.04l0.06-1.46h1.66c-0.04,0.8-0.08,1.66-0.08,2.66v10.982
							h-1.74V139.076z M520.074,134.796c0-0.24-0.02-0.501-0.08-0.721c-0.28-1.08-1.2-2-2.521-2c-1.82,0-2.92,1.54-2.92,3.7
							c0,1.94,0.92,3.601,2.86,3.601c1.14,0,2.12-0.7,2.521-1.9c0.08-0.26,0.14-0.6,0.14-0.859V134.796z"/>
						<path fill="#FFFFFF" d="M532.835,137.896c0,1.02,0.02,1.9,0.079,2.66h-1.56l-0.101-1.58h-0.04c-0.439,0.78-1.48,1.8-3.2,1.8
							c-1.521,0-3.341-0.859-3.341-4.24v-5.661h1.761v5.341c0,1.84,0.58,3.101,2.16,3.101c1.18,0,2-0.82,2.32-1.62
							c0.1-0.24,0.16-0.561,0.16-0.9v-5.921h1.761V137.896z"/>
						<path fill="#FFFFFF" d="M536.732,136.036c0.04,2.38,1.54,3.36,3.32,3.36c1.261,0,2.041-0.22,2.681-0.5l0.32,1.26
							c-0.62,0.28-1.7,0.62-3.24,0.62c-2.98,0-4.762-1.98-4.762-4.9c0-2.921,1.721-5.201,4.541-5.201
							c3.181,0,4.001,2.761,4.001,4.541c0,0.359-0.02,0.62-0.06,0.82H536.732z M541.894,134.775c0.021-1.101-0.46-2.841-2.44-2.841
							c-1.801,0-2.561,1.62-2.7,2.841H541.894z"/>
						<path fill="#FFFFFF" d="M556.813,138.236c0,0.84,0.04,1.66,0.14,2.32h-1.58l-0.14-1.221h-0.061
							c-0.54,0.761-1.58,1.44-2.96,1.44c-1.961,0-2.961-1.38-2.961-2.78c0-2.341,2.08-3.621,5.821-3.601v-0.2
							c0-0.78-0.22-2.24-2.2-2.221c-0.921,0-1.86,0.261-2.541,0.721l-0.4-1.181c0.801-0.5,1.98-0.84,3.201-0.84
							c2.961,0,3.681,2.021,3.681,3.94V138.236z M555.113,135.615c-1.921-0.04-4.101,0.301-4.101,2.181
							c0,1.16,0.76,1.681,1.64,1.681c1.28,0,2.101-0.801,2.381-1.62c0.06-0.2,0.08-0.4,0.08-0.561V135.615z"/>
						<path fill="#FFFFFF" d="M559.651,126.354h1.741v6.081h0.039c0.62-1.08,1.741-1.76,3.301-1.76c2.421,0,4.102,2,4.102,4.921
							c0,3.461-2.201,5.181-4.361,5.181c-1.4,0-2.521-0.54-3.261-1.8h-0.04l-0.1,1.58h-1.501c0.04-0.66,0.08-1.641,0.08-2.501
							V126.354z M561.393,136.676c0,0.22,0.02,0.44,0.079,0.641c0.32,1.22,1.36,2.06,2.641,2.06c1.86,0,2.941-1.5,2.941-3.721
							c0-1.94-1.001-3.601-2.901-3.601c-1.18,0-2.3,0.84-2.66,2.16c-0.061,0.221-0.1,0.461-0.1,0.74V136.676z"/>
						<path fill="#FFFFFF" d="M579.794,135.636c0,3.581-2.501,5.141-4.821,5.141c-2.601,0-4.642-1.92-4.642-4.98
							c0-3.221,2.141-5.121,4.802-5.121C577.913,130.675,579.794,132.695,579.794,135.636z M572.132,135.735
							c0,2.121,1.2,3.721,2.921,3.721c1.68,0,2.94-1.58,2.94-3.761c0-1.64-0.82-3.7-2.9-3.7
							C573.032,131.995,572.132,133.915,572.132,135.735z"/>
						<path fill="#FFFFFF" d="M582.011,133.896c0-1.141-0.02-2.121-0.08-3.021h1.541l0.08,1.92h0.06c0.44-1.3,1.521-2.12,2.701-2.12
							c0.18,0,0.319,0.02,0.479,0.04v1.66c-0.18-0.04-0.36-0.04-0.6-0.04c-1.24,0-2.121,0.92-2.361,2.24
							c-0.04,0.24-0.06,0.54-0.06,0.82v5.161h-1.761V133.896z"/>
						<path fill="#FFFFFF" d="M596.692,126.354v11.702c0,0.86,0.04,1.841,0.08,2.501h-1.56l-0.08-1.681h-0.061
							c-0.52,1.08-1.681,1.9-3.261,1.9c-2.341,0-4.161-1.98-4.161-4.921c-0.02-3.221,2.001-5.181,4.342-5.181
							c1.5,0,2.48,0.7,2.92,1.46h0.04v-5.781H596.692z M594.952,134.815c0-0.22-0.02-0.521-0.08-0.74
							c-0.26-1.101-1.22-2.021-2.54-2.021c-1.82,0-2.9,1.601-2.9,3.721c0,1.961,0.979,3.581,2.86,3.581c1.18,0,2.261-0.8,2.58-2.101
							c0.061-0.24,0.08-0.48,0.08-0.76V134.815z"/>
						<path fill="#FFFFFF" d="M600.611,136.036c0.04,2.38,1.54,3.36,3.32,3.36c1.261,0,2.041-0.22,2.681-0.5l0.32,1.26
							c-0.62,0.28-1.7,0.62-3.24,0.62c-2.98,0-4.762-1.98-4.762-4.9c0-2.921,1.721-5.201,4.541-5.201
							c3.181,0,4.001,2.761,4.001,4.541c0,0.359-0.02,0.62-0.06,0.82H600.611z M605.772,134.775c0.021-1.101-0.46-2.841-2.44-2.841
							c-1.801,0-2.561,1.62-2.7,2.841H605.772z"/>
						<path fill="#FFFFFF" d="M609.65,133.495c0-1.021-0.02-1.82-0.08-2.62h1.561l0.101,1.6h0.04c0.479-0.899,1.6-1.8,3.2-1.8
							c1.341,0,3.421,0.8,3.421,4.121v5.761h-1.761v-5.581c0-1.561-0.58-2.86-2.24-2.86c-1.141,0-2.04,0.819-2.36,1.8
							c-0.08,0.221-0.12,0.521-0.12,0.82v5.821h-1.761V133.495z"/>
						<path fill="#FFFFFF" d="M624.99,126.354h1.761v14.203h-1.761V126.354z"/>
						<path fill="#FFFFFF" d="M638.473,135.636c0,3.581-2.501,5.141-4.821,5.141c-2.601,0-4.642-1.92-4.642-4.98
							c0-3.221,2.141-5.121,4.802-5.121C636.592,130.675,638.473,132.695,638.473,135.636z M630.811,135.735
							c0,2.121,1.2,3.721,2.921,3.721c1.68,0,2.94-1.58,2.94-3.761c0-1.64-0.82-3.7-2.9-3.7
							C631.711,131.995,630.811,133.915,630.811,135.735z"/>
						<path fill="#FFFFFF" d="M640.45,138.776c0.54,0.32,1.46,0.68,2.34,0.68c1.261,0,1.86-0.62,1.86-1.44
							c0-0.84-0.5-1.28-1.78-1.76c-1.76-0.641-2.58-1.58-2.58-2.741c0-1.56,1.28-2.84,3.341-2.84c0.979,0,1.84,0.26,2.36,0.6
							l-0.42,1.28c-0.381-0.24-1.081-0.58-1.98-0.58c-1.041,0-1.601,0.601-1.601,1.32c0,0.801,0.56,1.16,1.82,1.66
							c1.66,0.62,2.54,1.461,2.54,2.901c0,1.72-1.34,2.92-3.601,2.92c-1.06,0-2.04-0.279-2.721-0.68L640.45,138.776z"/>
						<path fill="#FFFFFF" d="M478.254,156.035c0-1.24-0.04-2.24-0.08-3.16h1.561l0.1,1.66h0.04c0.7-1.181,1.86-1.86,3.44-1.86
							c2.361,0,4.121,1.98,4.121,4.9c0,3.481-2.141,5.201-4.421,5.201c-1.28,0-2.4-0.56-2.98-1.52h-0.04v5.261h-1.74V156.035z
							 M479.994,158.616c0,0.26,0.02,0.5,0.08,0.72c0.32,1.221,1.38,2.061,2.641,2.061c1.86,0,2.94-1.521,2.94-3.741
							c0-1.92-1.021-3.58-2.881-3.58c-1.2,0-2.34,0.84-2.66,2.16c-0.061,0.22-0.12,0.48-0.12,0.7V158.616z"/>
						<path fill="#FFFFFF" d="M489.633,155.896c0-1.141-0.02-2.121-0.08-3.021h1.541l0.08,1.92h0.06c0.44-1.3,1.521-2.12,2.7-2.12
							c0.181,0,0.32,0.02,0.48,0.04v1.66c-0.18-0.04-0.36-0.04-0.6-0.04c-1.24,0-2.121,0.92-2.361,2.24
							c-0.04,0.24-0.06,0.54-0.06,0.82v5.161h-1.761V155.896z"/>
						<path fill="#FFFFFF" d="M504.735,157.636c0,3.581-2.501,5.141-4.821,5.141c-2.601,0-4.642-1.92-4.642-4.98
							c0-3.221,2.141-5.121,4.802-5.121C502.854,152.675,504.735,154.695,504.735,157.636z M497.073,157.735
							c0,2.121,1.2,3.721,2.921,3.721c1.68,0,2.94-1.58,2.94-3.761c0-1.64-0.82-3.7-2.9-3.7
							C497.974,153.995,497.073,155.915,497.073,157.735z"/>
						<path fill="#FFFFFF" d="M506.952,148.354h1.741v6.081h0.039c0.62-1.08,1.741-1.76,3.301-1.76c2.421,0,4.102,2,4.102,4.921
							c0,3.461-2.201,5.181-4.361,5.181c-1.4,0-2.521-0.54-3.261-1.8h-0.04l-0.1,1.58h-1.501c0.04-0.66,0.08-1.641,0.08-2.501
							V148.354z M508.693,158.676c0,0.22,0.02,0.44,0.079,0.641c0.32,1.22,1.36,2.06,2.641,2.06c1.86,0,2.941-1.5,2.941-3.721
							c0-1.94-1.001-3.601-2.901-3.601c-1.18,0-2.3,0.84-2.66,2.16c-0.061,0.221-0.1,0.461-0.1,0.74V158.676z"/>
						<path fill="#FFFFFF" d="M518.332,148.354h1.761v14.203h-1.761V148.354z"/>
						<path fill="#FFFFFF" d="M524.032,158.036c0.04,2.38,1.54,3.36,3.321,3.36c1.26,0,2.04-0.22,2.68-0.5l0.32,1.26
							c-0.62,0.28-1.7,0.62-3.24,0.62c-2.98,0-4.762-1.98-4.762-4.9c0-2.921,1.721-5.201,4.541-5.201
							c3.181,0,4.001,2.761,4.001,4.541c0,0.359-0.02,0.62-0.06,0.82H524.032z M529.193,156.775c0.021-1.101-0.46-2.841-2.44-2.841
							c-1.801,0-2.561,1.62-2.7,2.841H529.193z"/>
						<path fill="#FFFFFF" d="M533.071,155.495c0-1.021-0.04-1.82-0.08-2.62h1.541l0.08,1.58h0.06c0.54-0.92,1.44-1.78,3.061-1.78
							c1.301,0,2.301,0.8,2.721,1.94h0.04c0.3-0.561,0.7-0.961,1.101-1.261c0.58-0.439,1.2-0.68,2.12-0.68
							c1.301,0,3.201,0.84,3.201,4.2v5.682h-1.721v-5.461c0-1.881-0.7-2.98-2.101-2.98c-1.021,0-1.78,0.74-2.101,1.58
							c-0.08,0.26-0.14,0.56-0.14,0.88v5.981h-1.721v-5.801c0-1.541-0.68-2.641-2.021-2.641c-1.08,0-1.9,0.88-2.181,1.76
							c-0.1,0.24-0.14,0.561-0.14,0.86v5.821h-1.721V155.495z"/>
						<path fill="#FFFFFF" d="M556.553,160.236c0,0.84,0.04,1.66,0.14,2.32h-1.58l-0.14-1.221h-0.061
							c-0.54,0.761-1.58,1.44-2.96,1.44c-1.961,0-2.961-1.38-2.961-2.78c0-2.341,2.08-3.621,5.821-3.601v-0.2
							c0-0.78-0.22-2.24-2.2-2.221c-0.921,0-1.86,0.261-2.541,0.721l-0.4-1.181c0.801-0.5,1.98-0.84,3.201-0.84
							c2.961,0,3.681,2.021,3.681,3.94V160.236z M554.853,157.615c-1.921-0.04-4.101,0.301-4.101,2.181
							c0,1.16,0.76,1.681,1.64,1.681c1.28,0,2.101-0.801,2.381-1.62c0.06-0.2,0.08-0.4,0.08-0.561V157.615z"/>
						<path fill="#FFFFFF" d="M559.151,160.776c0.54,0.32,1.46,0.68,2.34,0.68c1.261,0,1.86-0.62,1.86-1.44
							c0-0.84-0.5-1.28-1.78-1.76c-1.76-0.641-2.58-1.58-2.58-2.741c0-1.56,1.28-2.84,3.341-2.84c0.979,0,1.84,0.26,2.36,0.6
							l-0.42,1.28c-0.381-0.24-1.081-0.58-1.98-0.58c-1.041,0-1.601,0.601-1.601,1.32c0,0.801,0.56,1.16,1.82,1.66
							c1.66,0.62,2.54,1.461,2.54,2.901c0,1.72-1.34,2.92-3.601,2.92c-1.06,0-2.04-0.279-2.721-0.68L559.151,160.776z"/>
						<path fill="#FFFFFF" d="M565.951,165.037c0.439-1.2,0.979-3.341,1.2-4.801l1.96-0.2c-0.479,1.7-1.36,3.921-1.92,4.861
							L565.951,165.037z"/>
						<path fill="#FFFFFF" d="M575.471,156.035c0-1.24-0.04-2.24-0.08-3.16h1.561l0.101,1.66h0.04c0.7-1.181,1.86-1.86,3.44-1.86
							c2.36,0,4.121,1.98,4.121,4.9c0,3.481-2.141,5.201-4.421,5.201c-1.28,0-2.4-0.56-2.981-1.52h-0.04v5.261h-1.74V156.035z
							 M577.211,158.616c0,0.26,0.021,0.5,0.08,0.72c0.32,1.221,1.381,2.061,2.641,2.061c1.86,0,2.941-1.521,2.941-3.741
							c0-1.92-1.021-3.58-2.881-3.58c-1.2,0-2.341,0.84-2.661,2.16c-0.06,0.22-0.12,0.48-0.12,0.7V158.616z"/>
						<path fill="#FFFFFF" d="M595.613,157.636c0,3.581-2.501,5.141-4.821,5.141c-2.601,0-4.642-1.92-4.642-4.98
							c0-3.221,2.141-5.121,4.802-5.121C593.732,152.675,595.613,154.695,595.613,157.636z M587.951,157.735
							c0,2.121,1.2,3.721,2.921,3.721c1.68,0,2.94-1.58,2.94-3.761c0-1.64-0.82-3.7-2.9-3.7
							C588.852,153.995,587.951,155.915,587.951,157.735z"/>
						<path fill="#FFFFFF" d="M597.83,155.495c0-1.021-0.02-1.82-0.08-2.62h1.561l0.101,1.6h0.04c0.479-0.899,1.6-1.8,3.2-1.8
							c1.341,0,3.421,0.8,3.421,4.121v5.761h-1.761v-5.581c0-1.561-0.58-2.86-2.24-2.86c-1.141,0-2.04,0.819-2.36,1.8
							c-0.08,0.221-0.12,0.521-0.12,0.82v5.821h-1.761V155.495z"/>
						<path fill="#FFFFFF" d="M609.91,158.036c0.04,2.38,1.54,3.36,3.32,3.36c1.261,0,2.041-0.22,2.681-0.5l0.32,1.26
							c-0.62,0.28-1.7,0.62-3.24,0.62c-2.98,0-4.762-1.98-4.762-4.9c0-2.921,1.721-5.201,4.541-5.201
							c3.181,0,4.001,2.761,4.001,4.541c0,0.359-0.02,0.62-0.06,0.82H609.91z M615.071,156.775c0.021-1.101-0.46-2.841-2.44-2.841
							c-1.801,0-2.561,1.62-2.7,2.841H615.071z"/>
						<path fill="#FFFFFF" d="M618.949,155.896c0-1.141-0.02-2.121-0.08-3.021h1.541l0.08,1.92h0.06c0.44-1.3,1.521-2.12,2.7-2.12
							c0.181,0,0.32,0.02,0.48,0.04v1.66c-0.18-0.04-0.36-0.04-0.6-0.04c-1.24,0-2.121,0.92-2.361,2.24
							c-0.04,0.24-0.06,0.54-0.06,0.82v5.161h-1.761V155.896z"/>
						<path fill="#FFFFFF" d="M631.851,150.554v2.321h2.521v1.34h-2.521v5.221c0,1.2,0.34,1.881,1.32,1.881
							c0.479,0,0.76-0.04,1.02-0.12l0.08,1.341c-0.34,0.119-0.88,0.239-1.56,0.239c-0.82,0-1.48-0.279-1.9-0.74
							c-0.48-0.54-0.681-1.4-0.681-2.54v-5.281h-1.5v-1.34h1.5v-1.801L631.851,150.554z"/>
						<path fill="#FFFFFF" d="M643.151,160.236c0,0.84,0.04,1.66,0.14,2.32h-1.58l-0.14-1.221h-0.061
							c-0.54,0.761-1.58,1.44-2.96,1.44c-1.961,0-2.961-1.38-2.961-2.78c0-2.341,2.08-3.621,5.821-3.601v-0.2
							c0-0.78-0.22-2.24-2.2-2.221c-0.921,0-1.86,0.261-2.541,0.721l-0.4-1.181c0.801-0.5,1.98-0.84,3.201-0.84
							c2.961,0,3.681,2.021,3.681,3.94V160.236z M641.451,157.615c-1.921-0.04-4.101,0.301-4.101,2.181
							c0,1.16,0.76,1.681,1.64,1.681c1.28,0,2.101-0.801,2.381-1.62c0.06-0.2,0.08-0.4,0.08-0.561V157.615z"/>
						<path fill="#FFFFFF" d="M645.989,155.896c0-1.141-0.02-2.121-0.08-3.021h1.541l0.08,1.92h0.06c0.44-1.3,1.521-2.12,2.701-2.12
							c0.18,0,0.319,0.02,0.479,0.04v1.66c-0.18-0.04-0.36-0.04-0.6-0.04c-1.24,0-2.121,0.92-2.361,2.24
							c-0.04,0.24-0.06,0.54-0.06,0.82v5.161h-1.761V155.896z"/>
						<path fill="#FFFFFF" d="M653.311,158.036c0.04,2.38,1.54,3.36,3.32,3.36c1.261,0,2.041-0.22,2.681-0.5l0.32,1.26
							c-0.62,0.28-1.7,0.62-3.24,0.62c-2.98,0-4.762-1.98-4.762-4.9c0-2.921,1.721-5.201,4.541-5.201
							c3.181,0,4.001,2.761,4.001,4.541c0,0.359-0.02,0.62-0.06,0.82H653.311z M658.472,156.775c0.021-1.101-0.46-2.841-2.44-2.841
							c-1.801,0-2.561,1.62-2.7,2.841H658.472z"/>
						<path fill="#FFFFFF" d="M669.151,160.236c0,0.84,0.04,1.66,0.14,2.32h-1.58l-0.14-1.221h-0.061
							c-0.54,0.761-1.58,1.44-2.96,1.44c-1.961,0-2.961-1.38-2.961-2.78c0-2.341,2.08-3.621,5.821-3.601v-0.2
							c0-0.78-0.22-2.24-2.2-2.221c-0.921,0-1.86,0.261-2.541,0.721l-0.4-1.181c0.801-0.5,1.98-0.84,3.201-0.84
							c2.961,0,3.681,2.021,3.681,3.94V160.236z M667.451,157.615c-1.921-0.04-4.101,0.301-4.101,2.181
							c0,1.16,0.76,1.681,1.64,1.681c1.28,0,2.101-0.801,2.381-1.62c0.06-0.2,0.08-0.4,0.08-0.561V157.615z"/>
						<path fill="#FFFFFF" d="M671.75,160.776c0.54,0.32,1.46,0.68,2.34,0.68c1.261,0,1.86-0.62,1.86-1.44
							c0-0.84-0.5-1.28-1.78-1.76c-1.76-0.641-2.58-1.58-2.58-2.741c0-1.56,1.28-2.84,3.341-2.84c0.979,0,1.84,0.26,2.36,0.6
							l-0.42,1.28c-0.381-0.24-1.081-0.58-1.98-0.58c-1.041,0-1.601,0.601-1.601,1.32c0,0.801,0.56,1.16,1.82,1.66
							c1.66,0.62,2.54,1.461,2.54,2.901c0,1.72-1.34,2.92-3.601,2.92c-1.06,0-2.04-0.279-2.721-0.68L671.75,160.776z"/>
						<path fill="#FFFFFF" d="M678.55,165.037c0.439-1.2,0.979-3.341,1.2-4.801l1.96-0.2c-0.479,1.7-1.36,3.921-1.92,4.861
							L678.55,165.037z"/>
						<path fill="#FFFFFF" d="M485.975,184.217c-0.46,0.22-1.479,0.56-2.78,0.56c-2.921,0-4.821-1.98-4.821-4.94
							c0-2.98,2.041-5.161,5.201-5.161c1.041,0,1.961,0.26,2.44,0.52l-0.399,1.341c-0.42-0.221-1.08-0.46-2.041-0.46
							c-2.22,0-3.42,1.66-3.42,3.66c0,2.241,1.439,3.621,3.36,3.621c1,0,1.66-0.24,2.16-0.46L485.975,184.217z"/>
						<path fill="#FFFFFF" d="M488.033,177.896c0-1.141-0.02-2.121-0.08-3.021h1.541l0.08,1.92h0.06c0.44-1.3,1.521-2.12,2.7-2.12
							c0.181,0,0.32,0.02,0.48,0.04v1.66c-0.18-0.04-0.36-0.04-0.6-0.04c-1.24,0-2.121,0.92-2.361,2.24
							c-0.04,0.24-0.06,0.54-0.06,0.82v5.161h-1.761V177.896z"/>
						<path fill="#FFFFFF" d="M495.354,180.036c0.04,2.38,1.54,3.36,3.32,3.36c1.261,0,2.041-0.22,2.681-0.5l0.32,1.26
							c-0.62,0.28-1.7,0.62-3.24,0.62c-2.98,0-4.762-1.98-4.762-4.9c0-2.921,1.721-5.201,4.541-5.201
							c3.181,0,4.001,2.761,4.001,4.541c0,0.359-0.02,0.62-0.06,0.82H495.354z M500.515,178.775c0.021-1.101-0.46-2.841-2.44-2.841
							c-1.801,0-2.561,1.62-2.7,2.841H500.515z"/>
						<path fill="#FFFFFF" d="M511.194,182.236c0,0.84,0.04,1.66,0.14,2.32h-1.58l-0.14-1.221h-0.061
							c-0.54,0.761-1.58,1.44-2.96,1.44c-1.961,0-2.961-1.38-2.961-2.78c0-2.341,2.08-3.621,5.821-3.601v-0.2
							c0-0.78-0.22-2.24-2.2-2.221c-0.921,0-1.86,0.261-2.541,0.721l-0.4-1.181c0.801-0.5,1.98-0.84,3.201-0.84
							c2.961,0,3.681,2.021,3.681,3.94V182.236z M509.494,179.615c-1.921-0.04-4.101,0.301-4.101,2.181
							c0,1.16,0.76,1.681,1.64,1.681c1.28,0,2.101-0.801,2.381-1.62c0.06-0.2,0.08-0.4,0.08-0.561V179.615z"/>
						<path fill="#FFFFFF" d="M514.032,177.896c0-1.141-0.02-2.121-0.08-3.021h1.541l0.08,1.92h0.06c0.44-1.3,1.521-2.12,2.701-2.12
							c0.18,0,0.319,0.02,0.479,0.04v1.66c-0.18-0.04-0.36-0.04-0.6-0.04c-1.24,0-2.121,0.92-2.361,2.24
							c-0.04,0.24-0.06,0.54-0.06,0.82v5.161h-1.761V177.896z"/>
						<path fill="#FFFFFF" d="M531.714,184.217c-0.46,0.22-1.479,0.56-2.78,0.56c-2.921,0-4.821-1.98-4.821-4.94
							c0-2.98,2.041-5.161,5.201-5.161c1.041,0,1.961,0.26,2.44,0.52l-0.399,1.341c-0.42-0.221-1.08-0.46-2.041-0.46
							c-2.22,0-3.42,1.66-3.42,3.66c0,2.241,1.439,3.621,3.36,3.621c1,0,1.66-0.24,2.16-0.46L531.714,184.217z"/>
						<path fill="#FFFFFF" d="M542.416,179.636c0,3.581-2.501,5.141-4.821,5.141c-2.601,0-4.642-1.92-4.642-4.98
							c0-3.221,2.141-5.121,4.802-5.121C540.535,174.675,542.416,176.695,542.416,179.636z M534.754,179.735
							c0,2.121,1.2,3.721,2.921,3.721c1.68,0,2.94-1.58,2.94-3.761c0-1.64-0.82-3.7-2.9-3.7
							C535.654,175.995,534.754,177.915,534.754,179.735z"/>
						<path fill="#FFFFFF" d="M544.632,177.495c0-1.021-0.02-1.82-0.08-2.62h1.561l0.101,1.6h0.04c0.479-0.899,1.6-1.8,3.2-1.8
							c1.341,0,3.421,0.8,3.421,4.121v5.761h-1.761v-5.581c0-1.561-0.58-2.86-2.24-2.86c-1.141,0-2.04,0.819-2.36,1.8
							c-0.08,0.221-0.12,0.521-0.12,0.82v5.821h-1.761V177.495z"/>
						<path fill="#FFFFFF" d="M555.912,184.557v-8.342h-1.341v-1.34h1.341v-0.541c0-2.54,1.5-4.2,4.221-4.2
							c0.9,0,1.96,0.28,2.461,0.64l-0.501,1.341c-0.439-0.301-1.18-0.561-2.04-0.561c-1.86,0-2.4,1.301-2.4,2.841v0.48h5.621v9.682
							h-1.761v-8.342h-3.86v8.342H555.912z"/>
						<path fill="#FFFFFF" d="M572.994,182.236c0,0.84,0.04,1.66,0.14,2.32h-1.58l-0.14-1.221h-0.061
							c-0.54,0.761-1.58,1.44-2.96,1.44c-1.961,0-2.961-1.38-2.961-2.78c0-2.341,2.08-3.621,5.821-3.601v-0.2
							c0-0.78-0.22-2.24-2.2-2.221c-0.921,0-1.86,0.261-2.541,0.721l-0.4-1.181c0.801-0.5,1.98-0.84,3.201-0.84
							c2.961,0,3.681,2.021,3.681,3.94V182.236z M571.294,179.615c-1.921-0.04-4.101,0.301-4.101,2.181
							c0,1.16,0.76,1.681,1.64,1.681c1.28,0,2.101-0.801,2.381-1.62c0.06-0.2,0.08-0.4,0.08-0.561V179.615z"/>
						<path fill="#FFFFFF" d="M575.831,177.495c0-1.021-0.02-1.82-0.08-2.62h1.561l0.101,1.6h0.04c0.479-0.899,1.6-1.8,3.2-1.8
							c1.341,0,3.421,0.8,3.421,4.121v5.761h-1.761v-5.581c0-1.561-0.58-2.86-2.24-2.86c-1.141,0-2.04,0.819-2.36,1.8
							c-0.08,0.221-0.12,0.521-0.12,0.82v5.821h-1.761V177.495z"/>
						<path fill="#FFFFFF" d="M585.831,183.536l4.36-5.701c0.44-0.54,0.841-1,1.28-1.521v-0.04h-5.241v-1.399h7.362v1.1
							l-4.321,5.621c-0.42,0.54-0.8,1.04-1.24,1.521v0.04h5.642v1.4h-7.842V183.536z"/>
						<path fill="#FFFFFF" d="M602.293,182.236c0,0.84,0.04,1.66,0.14,2.32h-1.58l-0.14-1.221h-0.061
							c-0.54,0.761-1.58,1.44-2.96,1.44c-1.961,0-2.961-1.38-2.961-2.78c0-2.341,2.08-3.621,5.821-3.601v-0.2
							c0-0.78-0.22-2.24-2.2-2.221c-0.921,0-1.86,0.261-2.541,0.721l-0.4-1.181c0.801-0.5,1.98-0.84,3.201-0.84
							c2.961,0,3.681,2.021,3.681,3.94V182.236z M600.593,179.615c-1.921-0.04-4.101,0.301-4.101,2.181
							c0,1.16,0.76,1.681,1.64,1.681c1.28,0,2.101-0.801,2.381-1.62c0.06-0.2,0.08-0.4,0.08-0.561V179.615z"/>
						<path fill="#FFFFFF" d="M609.37,178.035c0-1.24-0.04-2.24-0.08-3.16h1.561l0.101,1.66h0.04c0.7-1.181,1.86-1.86,3.44-1.86
							c2.36,0,4.121,1.98,4.121,4.9c0,3.481-2.141,5.201-4.421,5.201c-1.28,0-2.4-0.56-2.981-1.52h-0.039v5.261h-1.741V178.035z
							 M611.111,180.616c0,0.26,0.02,0.5,0.079,0.72c0.32,1.221,1.381,2.061,2.641,2.061c1.86,0,2.941-1.521,2.941-3.741
							c0-1.92-1.021-3.58-2.881-3.58c-1.2,0-2.341,0.84-2.661,2.16c-0.06,0.22-0.119,0.48-0.119,0.7V180.616z"/>
						<path fill="#FFFFFF" d="M627.553,182.236c0,0.84,0.04,1.66,0.14,2.32h-1.58l-0.14-1.221h-0.061
							c-0.54,0.761-1.58,1.44-2.96,1.44c-1.961,0-2.961-1.38-2.961-2.78c0-2.341,2.08-3.621,5.821-3.601v-0.2
							c0-0.78-0.22-2.24-2.2-2.221c-0.921,0-1.86,0.261-2.541,0.721l-0.4-1.181c0.801-0.5,1.98-0.84,3.201-0.84
							c2.961,0,3.681,2.021,3.681,3.94V182.236z M625.853,179.615c-1.921-0.04-4.101,0.301-4.101,2.181
							c0,1.16,0.76,1.681,1.64,1.681c1.28,0,2.101-0.801,2.381-1.62c0.06-0.2,0.08-0.4,0.08-0.561V179.615z"/>
						<path fill="#FFFFFF" d="M630.39,177.896c0-1.141-0.02-2.121-0.08-3.021h1.541l0.08,1.92h0.06c0.44-1.3,1.521-2.12,2.701-2.12
							c0.18,0,0.319,0.02,0.479,0.04v1.66c-0.18-0.04-0.36-0.04-0.6-0.04c-1.24,0-2.121,0.92-2.361,2.24
							c-0.04,0.24-0.06,0.54-0.06,0.82v5.161h-1.761V177.896z"/>
						<path fill="#FFFFFF" d="M643.632,182.236c0,0.84,0.04,1.66,0.14,2.32h-1.58l-0.14-1.221h-0.061
							c-0.54,0.761-1.58,1.44-2.96,1.44c-1.961,0-2.961-1.38-2.961-2.78c0-2.341,2.08-3.621,5.821-3.601v-0.2
							c0-0.78-0.22-2.24-2.2-2.221c-0.921,0-1.86,0.261-2.541,0.721l-0.4-1.181c0.801-0.5,1.98-0.84,3.201-0.84
							c2.961,0,3.681,2.021,3.681,3.94V182.236z M641.932,179.615c-1.921-0.04-4.101,0.301-4.101,2.181
							c0,1.16,0.76,1.681,1.64,1.681c1.28,0,2.101-0.801,2.381-1.62c0.06-0.2,0.08-0.4,0.08-0.561V179.615z"/>
						<path fill="#FFFFFF" d="M657.312,183.076h-0.04c-0.54,0.94-1.601,1.7-3.16,1.7c-2.261,0-4.102-1.94-4.102-4.881
							c0-3.641,2.341-5.221,4.381-5.221c1.501,0,2.501,0.74,2.981,1.66h0.04l0.06-1.46h1.66c-0.04,0.8-0.08,1.66-0.08,2.66v10.982
							h-1.74V183.076z M657.312,178.796c0-0.24-0.02-0.501-0.08-0.721c-0.28-1.08-1.2-2-2.521-2c-1.82,0-2.92,1.54-2.92,3.7
							c0,1.94,0.92,3.601,2.86,3.601c1.14,0,2.12-0.7,2.521-1.9c0.08-0.26,0.14-0.6,0.14-0.859V178.796z"/>
						<path fill="#FFFFFF" d="M670.072,181.896c0,1.02,0.02,1.9,0.079,2.66h-1.56l-0.101-1.58h-0.04c-0.439,0.78-1.48,1.8-3.2,1.8
							c-1.521,0-3.341-0.859-3.341-4.24v-5.661h1.761v5.341c0,1.84,0.58,3.101,2.16,3.101c1.18,0,2-0.82,2.32-1.62
							c0.1-0.24,0.16-0.561,0.16-0.9v-5.921h1.761V181.896z"/>
						<path fill="#FFFFFF" d="M673.97,180.036c0.04,2.38,1.54,3.36,3.321,3.36c1.26,0,2.04-0.22,2.68-0.5l0.32,1.26
							c-0.62,0.28-1.7,0.62-3.24,0.62c-2.98,0-4.762-1.98-4.762-4.9c0-2.921,1.721-5.201,4.541-5.201
							c3.181,0,4.001,2.761,4.001,4.541c0,0.359-0.02,0.62-0.06,0.82H673.97z M679.131,178.775c0.021-1.101-0.46-2.841-2.44-2.841
							c-1.801,0-2.561,1.62-2.7,2.841H679.131z"/>
						<path fill="#FFFFFF" d="M482.984,204.776c0.54,0.32,1.46,0.68,2.34,0.68c1.261,0,1.86-0.62,1.86-1.44
							c0-0.84-0.5-1.28-1.78-1.76c-1.76-0.641-2.58-1.58-2.58-2.741c0-1.56,1.28-2.84,3.341-2.84c0.979,0,1.84,0.26,2.36,0.6
							l-0.42,1.28c-0.381-0.24-1.081-0.58-1.98-0.58c-1.041,0-1.601,0.601-1.601,1.32c0,0.801,0.56,1.16,1.82,1.66
							c1.66,0.62,2.54,1.461,2.54,2.901c0,1.72-1.34,2.92-3.601,2.92c-1.06,0-2.04-0.279-2.721-0.68L482.984,204.776z"/>
						<path fill="#FFFFFF" d="M492.124,202.036c0.04,2.38,1.54,3.36,3.321,3.36c1.26,0,2.04-0.22,2.68-0.5l0.32,1.26
							c-0.62,0.28-1.7,0.62-3.24,0.62c-2.98,0-4.762-1.98-4.762-4.9c0-2.921,1.721-5.201,4.541-5.201
							c3.181,0,4.001,2.761,4.001,4.541c0,0.359-0.02,0.62-0.06,0.82H492.124z M497.285,200.775c0.021-1.101-0.46-2.841-2.44-2.841
							c-1.801,0-2.561,1.62-2.7,2.841H497.285z"/>
						<path fill="#FFFFFF" d="M507.965,204.236c0,0.84,0.04,1.66,0.14,2.32h-1.58l-0.14-1.221h-0.061
							c-0.54,0.761-1.58,1.44-2.96,1.44c-1.961,0-2.961-1.38-2.961-2.78c0-2.341,2.08-3.621,5.821-3.601v-0.2
							c0-0.78-0.22-2.24-2.2-2.221c-0.921,0-1.86,0.261-2.541,0.721l-0.4-1.181c0.801-0.5,1.98-0.84,3.201-0.84
							c2.961,0,3.681,2.021,3.681,3.94V204.236z M506.265,201.615c-1.921-0.04-4.101,0.301-4.101,2.181
							c0,1.16,0.76,1.681,1.64,1.681c1.28,0,2.101-0.801,2.381-1.62c0.06-0.2,0.08-0.4,0.08-0.561V201.615z"/>
						<path fill="#FFFFFF" d="M515.043,192.354h1.74v6.081h0.04c0.62-1.08,1.741-1.76,3.301-1.76c2.421,0,4.102,2,4.102,4.921
							c0,3.461-2.201,5.181-4.361,5.181c-1.4,0-2.521-0.54-3.261-1.8h-0.04l-0.1,1.58h-1.501c0.04-0.66,0.08-1.641,0.08-2.501
							V192.354z M516.783,202.676c0,0.22,0.021,0.44,0.08,0.641c0.32,1.22,1.36,2.06,2.641,2.06c1.86,0,2.941-1.5,2.941-3.721
							c0-1.94-1.001-3.601-2.901-3.601c-1.18,0-2.3,0.84-2.66,2.16c-0.061,0.221-0.101,0.461-0.101,0.74V202.676z"/>
						<path fill="#FFFFFF" d="M534.525,203.896c0,1.02,0.02,1.9,0.079,2.66h-1.56l-0.101-1.58h-0.04c-0.439,0.78-1.48,1.8-3.2,1.8
							c-1.521,0-3.341-0.859-3.341-4.24v-5.661h1.761v5.341c0,1.84,0.58,3.101,2.16,3.101c1.18,0,2-0.82,2.32-1.62
							c0.1-0.24,0.16-0.561,0.16-0.9v-5.921h1.761V203.896z"/>
						<path fill="#FFFFFF" d="M537.203,204.776c0.54,0.32,1.46,0.68,2.34,0.68c1.261,0,1.86-0.62,1.86-1.44
							c0-0.84-0.5-1.28-1.78-1.76c-1.76-0.641-2.58-1.58-2.58-2.741c0-1.56,1.28-2.84,3.341-2.84c0.979,0,1.84,0.26,2.36,0.6
							l-0.42,1.28c-0.381-0.24-1.081-0.58-1.98-0.58c-1.041,0-1.601,0.601-1.601,1.32c0,0.801,0.56,1.16,1.82,1.66
							c1.66,0.62,2.54,1.461,2.54,2.901c0,1.72-1.34,2.92-3.601,2.92c-1.06,0-2.04-0.279-2.721-0.68L537.203,204.776z"/>
						<path fill="#FFFFFF" d="M552.264,206.217c-0.46,0.22-1.479,0.56-2.78,0.56c-2.921,0-4.821-1.98-4.821-4.94
							c0-2.98,2.041-5.161,5.201-5.161c1.041,0,1.961,0.26,2.44,0.52l-0.399,1.341c-0.42-0.221-1.08-0.46-2.041-0.46
							c-2.22,0-3.42,1.66-3.42,3.66c0,2.241,1.439,3.621,3.36,3.621c1,0,1.66-0.24,2.16-0.46L552.264,206.217z"/>
						<path fill="#FFFFFF" d="M561.124,204.236c0,0.84,0.04,1.66,0.14,2.32h-1.58l-0.14-1.221h-0.061
							c-0.54,0.761-1.58,1.44-2.96,1.44c-1.961,0-2.961-1.38-2.961-2.78c0-2.341,2.08-3.621,5.821-3.601v-0.2
							c0-0.78-0.22-2.24-2.2-2.221c-0.921,0-1.86,0.261-2.541,0.721l-0.4-1.181c0.801-0.5,1.98-0.84,3.201-0.84
							c2.961,0,3.681,2.021,3.681,3.94V204.236z M559.424,201.615c-1.921-0.04-4.101,0.301-4.101,2.181
							c0,1.16,0.76,1.681,1.64,1.681c1.28,0,2.101-0.801,2.381-1.62c0.06-0.2,0.08-0.4,0.08-0.561V201.615z"/>
						<path fill="#FFFFFF" d="M572.304,192.354v11.702c0,0.86,0.04,1.841,0.08,2.501h-1.56l-0.08-1.681h-0.061
							c-0.52,1.08-1.681,1.9-3.261,1.9c-2.341,0-4.161-1.98-4.161-4.921c-0.02-3.221,2.001-5.181,4.342-5.181
							c1.5,0,2.48,0.7,2.92,1.46h0.04v-5.781H572.304z M570.563,200.815c0-0.22-0.02-0.521-0.08-0.74
							c-0.26-1.101-1.22-2.021-2.54-2.021c-1.82,0-2.9,1.601-2.9,3.721c0,1.961,0.979,3.581,2.86,3.581c1.18,0,2.261-0.8,2.58-2.101
							c0.061-0.24,0.08-0.48,0.08-0.76V200.815z"/>
						<path fill="#FFFFFF" d="M584.005,201.636c0,3.581-2.501,5.141-4.821,5.141c-2.601,0-4.642-1.92-4.642-4.98
							c0-3.221,2.141-5.121,4.802-5.121C582.124,196.675,584.005,198.695,584.005,201.636z M576.343,201.735
							c0,2.121,1.2,3.721,2.921,3.721c1.68,0,2.94-1.58,2.94-3.761c0-1.64-0.82-3.7-2.9-3.7
							C577.243,197.995,576.343,199.915,576.343,201.735z"/>
						<path fill="#FFFFFF" d="M591.442,202.036c0.04,2.38,1.54,3.36,3.321,3.36c1.26,0,2.04-0.22,2.68-0.5l0.32,1.26
							c-0.62,0.28-1.7,0.62-3.24,0.62c-2.98,0-4.762-1.98-4.762-4.9c0-2.921,1.721-5.201,4.541-5.201
							c3.181,0,4.001,2.761,4.001,4.541c0,0.359-0.02,0.62-0.06,0.82H591.442z M596.604,200.775c0.021-1.101-0.46-2.841-2.44-2.841
							c-1.801,0-2.561,1.62-2.7,2.841H596.604z"/>
						<path fill="#FFFFFF" d="M600.481,199.495c0-1.021-0.02-1.82-0.08-2.62h1.561l0.101,1.6h0.04c0.479-0.899,1.6-1.8,3.2-1.8
							c1.341,0,3.421,0.8,3.421,4.121v5.761h-1.761v-5.581c0-1.561-0.58-2.86-2.24-2.86c-1.141,0-2.04,0.819-2.36,1.8
							c-0.08,0.221-0.12,0.521-0.12,0.82v5.821h-1.761V199.495z"/>
						<path fill="#FFFFFF" d="M622.723,206.217c-0.46,0.22-1.479,0.56-2.78,0.56c-2.921,0-4.821-1.98-4.821-4.94
							c0-2.98,2.041-5.161,5.201-5.161c1.041,0,1.961,0.26,2.44,0.52l-0.399,1.341c-0.42-0.221-1.08-0.46-2.041-0.46
							c-2.22,0-3.42,1.66-3.42,3.66c0,2.241,1.439,3.621,3.36,3.621c1,0,1.66-0.24,2.16-0.46L622.723,206.217z"/>
						<path fill="#FFFFFF" d="M631.583,204.236c0,0.84,0.04,1.66,0.14,2.32h-1.58l-0.14-1.221h-0.061
							c-0.54,0.761-1.58,1.44-2.96,1.44c-1.961,0-2.961-1.38-2.961-2.78c0-2.341,2.08-3.621,5.821-3.601v-0.2
							c0-0.78-0.22-2.24-2.2-2.221c-0.921,0-1.86,0.261-2.541,0.721l-0.4-1.181c0.801-0.5,1.98-0.84,3.201-0.84
							c2.961,0,3.681,2.021,3.681,3.94V204.236z M629.883,201.615c-1.921-0.04-4.101,0.301-4.101,2.181
							c0,1.16,0.76,1.681,1.64,1.681c1.28,0,2.101-0.801,2.381-1.62c0.06-0.2,0.08-0.4,0.08-0.561V201.615z"/>
						<path fill="#FFFFFF" d="M634.182,204.776c0.54,0.32,1.46,0.68,2.34,0.68c1.261,0,1.86-0.62,1.86-1.44
							c0-0.84-0.5-1.28-1.78-1.76c-1.76-0.641-2.58-1.58-2.58-2.741c0-1.56,1.28-2.84,3.341-2.84c0.979,0,1.84,0.26,2.36,0.6
							l-0.42,1.28c-0.381-0.24-1.081-0.58-1.98-0.58c-1.041,0-1.601,0.601-1.601,1.32c0,0.801,0.56,1.16,1.82,1.66
							c1.66,0.62,2.54,1.461,2.54,2.901c0,1.72-1.34,2.92-3.601,2.92c-1.06,0-2.04-0.279-2.721-0.68L634.182,204.776z"/>
						<path fill="#FFFFFF" d="M651.104,201.636c0,3.581-2.501,5.141-4.821,5.141c-2.601,0-4.642-1.92-4.642-4.98
							c0-3.221,2.141-5.121,4.802-5.121C649.223,196.675,651.104,198.695,651.104,201.636z M643.441,201.735
							c0,2.121,1.2,3.721,2.921,3.721c1.68,0,2.94-1.58,2.94-3.761c0-1.64-0.82-3.7-2.9-3.7
							C644.342,197.995,643.441,199.915,643.441,201.735z"/>
						<path fill="#FFFFFF" d="M665.902,192.354v11.702c0,0.86,0.04,1.841,0.08,2.501h-1.561l-0.079-1.681h-0.061
							c-0.52,1.08-1.681,1.9-3.261,1.9c-2.341,0-4.161-1.98-4.161-4.921c-0.02-3.221,2.001-5.181,4.342-5.181
							c1.5,0,2.48,0.7,2.92,1.46h0.04v-5.781H665.902z M664.162,200.815c0-0.22-0.02-0.521-0.08-0.74
							c-0.26-1.101-1.22-2.021-2.54-2.021c-1.82,0-2.9,1.601-2.9,3.721c0,1.961,0.979,3.581,2.86,3.581c1.18,0,2.261-0.8,2.58-2.101
							c0.061-0.24,0.08-0.48,0.08-0.76V200.815z"/>
						<path fill="#FFFFFF" d="M669.821,202.036c0.04,2.38,1.54,3.36,3.321,3.36c1.26,0,2.04-0.22,2.68-0.5l0.32,1.26
							c-0.62,0.28-1.7,0.62-3.24,0.62c-2.98,0-4.762-1.98-4.762-4.9c0-2.921,1.721-5.201,4.541-5.201
							c3.181,0,4.001,2.761,4.001,4.541c0,0.359-0.02,0.62-0.06,0.82H669.821z M674.982,200.775c0.021-1.101-0.46-2.841-2.44-2.841
							c-1.801,0-2.561,1.62-2.7,2.841H674.982z"/>
						<path fill="#FFFFFF" d="M515.195,227.076h-0.04c-0.54,0.94-1.601,1.7-3.16,1.7c-2.261,0-4.102-1.94-4.102-4.881
							c0-3.641,2.341-5.221,4.381-5.221c1.501,0,2.501,0.74,2.981,1.66h0.04l0.06-1.46h1.66c-0.04,0.8-0.08,1.66-0.08,2.66v10.982
							h-1.74V227.076z M515.195,222.796c0-0.24-0.02-0.501-0.08-0.721c-0.28-1.08-1.2-2-2.521-2c-1.82,0-2.92,1.54-2.92,3.7
							c0,1.94,0.92,3.601,2.86,3.601c1.14,0,2.12-0.7,2.521-1.9c0.08-0.26,0.14-0.6,0.14-0.859V222.796z"/>
						<path fill="#FFFFFF" d="M527.956,225.896c0,1.02,0.02,1.9,0.079,2.66h-1.56l-0.101-1.58h-0.04c-0.439,0.78-1.48,1.8-3.2,1.8
							c-1.521,0-3.341-0.859-3.341-4.24v-5.661h1.761v5.341c0,1.84,0.58,3.101,2.16,3.101c1.18,0,2-0.82,2.32-1.62
							c0.1-0.24,0.16-0.561,0.16-0.9v-5.921h1.761V225.896z"/>
						<path fill="#FFFFFF" d="M531.854,224.036c0.04,2.38,1.54,3.36,3.32,3.36c1.261,0,2.041-0.22,2.681-0.5l0.32,1.26
							c-0.62,0.28-1.7,0.62-3.24,0.62c-2.98,0-4.762-1.98-4.762-4.9c0-2.921,1.721-5.201,4.541-5.201
							c3.181,0,4.001,2.761,4.001,4.541c0,0.359-0.02,0.62-0.06,0.82H531.854z M537.015,222.775c0.021-1.101-0.46-2.841-2.44-2.841
							c-1.801,0-2.561,1.62-2.7,2.841H537.015z"/>
						<path fill="#FFFFFF" d="M545.133,214.354h1.761v14.203h-1.761V214.354z"/>
						<path fill="#FFFFFF" d="M556.654,226.236c0,0.84,0.04,1.66,0.14,2.32h-1.58l-0.14-1.221h-0.061
							c-0.54,0.761-1.58,1.44-2.96,1.44c-1.961,0-2.961-1.38-2.961-2.78c0-2.341,2.08-3.621,5.821-3.601v-0.2
							c0-0.78-0.22-2.24-2.2-2.221c-0.921,0-1.86,0.261-2.541,0.721l-0.4-1.181c0.801-0.5,1.98-0.84,3.201-0.84
							c2.961,0,3.681,2.021,3.681,3.94V226.236z M554.954,223.615c-1.921-0.04-4.101,0.301-4.101,2.181
							c0,1.16,0.76,1.681,1.64,1.681c1.28,0,2.101-0.801,2.381-1.62c0.06-0.2,0.08-0.4,0.08-0.561V223.615z"/>
						<path fill="#FFFFFF" d="M563.732,222.035c0-1.24-0.04-2.24-0.08-3.16h1.561l0.101,1.66h0.04c0.7-1.181,1.86-1.86,3.44-1.86
							c2.36,0,4.121,1.98,4.121,4.9c0,3.481-2.141,5.201-4.421,5.201c-1.28,0-2.4-0.56-2.981-1.52h-0.04v5.261h-1.74V222.035z
							 M565.473,224.616c0,0.26,0.021,0.5,0.08,0.72c0.32,1.221,1.381,2.061,2.641,2.061c1.86,0,2.941-1.521,2.941-3.741
							c0-1.92-1.021-3.58-2.881-3.58c-1.2,0-2.341,0.84-2.661,2.16c-0.06,0.22-0.12,0.48-0.12,0.7V224.616z"/>
						<path fill="#FFFFFF" d="M576.093,224.036c0.04,2.38,1.54,3.36,3.321,3.36c1.26,0,2.04-0.22,2.68-0.5l0.32,1.26
							c-0.62,0.28-1.7,0.62-3.24,0.62c-2.98,0-4.762-1.98-4.762-4.9c0-2.921,1.721-5.201,4.541-5.201
							c3.181,0,4.001,2.761,4.001,4.541c0,0.359-0.02,0.62-0.06,0.82H576.093z M581.254,222.775c0.021-1.101-0.46-2.841-2.44-2.841
							c-1.801,0-2.561,1.62-2.7,2.841H581.254z"/>
						<path fill="#FFFFFF" d="M585.132,221.896c0-1.141-0.02-2.121-0.08-3.021h1.541l0.08,1.92h0.06c0.44-1.3,1.521-2.12,2.701-2.12
							c0.18,0,0.319,0.02,0.479,0.04v1.66c-0.18-0.04-0.36-0.04-0.6-0.04c-1.24,0-2.121,0.92-2.361,2.24
							c-0.04,0.24-0.06,0.54-0.06,0.82v5.161h-1.761V221.896z"/>
						<path fill="#FFFFFF" d="M591.433,226.776c0.54,0.32,1.46,0.68,2.34,0.68c1.261,0,1.86-0.62,1.86-1.44
							c0-0.84-0.5-1.28-1.78-1.76c-1.76-0.641-2.58-1.58-2.58-2.741c0-1.56,1.28-2.84,3.341-2.84c0.979,0,1.84,0.26,2.36,0.6
							l-0.42,1.28c-0.381-0.24-1.081-0.58-1.98-0.58c-1.041,0-1.601,0.601-1.601,1.32c0,0.801,0.56,1.16,1.82,1.66
							c1.66,0.62,2.54,1.461,2.54,2.901c0,1.72-1.34,2.92-3.601,2.92c-1.06,0-2.04-0.279-2.721-0.68L591.433,226.776z"/>
						<path fill="#FFFFFF" d="M608.354,223.636c0,3.581-2.501,5.141-4.821,5.141c-2.601,0-4.642-1.92-4.642-4.98
							c0-3.221,2.141-5.121,4.802-5.121C606.474,218.675,608.354,220.695,608.354,223.636z M600.692,223.735
							c0,2.121,1.2,3.721,2.921,3.721c1.68,0,2.94-1.58,2.94-3.761c0-1.64-0.82-3.7-2.9-3.7
							C601.593,219.995,600.692,221.915,600.692,223.735z"/>
						<path fill="#FFFFFF" d="M610.571,221.495c0-1.021-0.02-1.82-0.08-2.62h1.561l0.101,1.6h0.04c0.479-0.899,1.6-1.8,3.2-1.8
							c1.341,0,3.421,0.8,3.421,4.121v5.761h-1.761v-5.581c0-1.561-0.58-2.86-2.24-2.86c-1.141,0-2.04,0.819-2.36,1.8
							c-0.08,0.221-0.12,0.521-0.12,0.82v5.821h-1.761V221.495z"/>
						<path fill="#FFFFFF" d="M628.473,226.236c0,0.84,0.04,1.66,0.14,2.32h-1.58l-0.14-1.221h-0.061
							c-0.54,0.761-1.58,1.44-2.96,1.44c-1.961,0-2.961-1.38-2.961-2.78c0-2.341,2.08-3.621,5.821-3.601v-0.2
							c0-0.78-0.22-2.24-2.2-2.221c-0.921,0-1.86,0.261-2.541,0.721l-0.4-1.181c0.801-0.5,1.98-0.84,3.201-0.84
							c2.961,0,3.681,2.021,3.681,3.94V226.236z M626.772,223.615c-1.921-0.04-4.101,0.301-4.101,2.181
							c0,1.16,0.76,1.681,1.64,1.681c1.28,0,2.101-0.801,2.381-1.62c0.06-0.2,0.08-0.4,0.08-0.561V223.615z"/>
						<path fill="#FFFFFF" d="M635.312,226.776c0.54,0.32,1.46,0.68,2.34,0.68c1.261,0,1.86-0.62,1.86-1.44
							c0-0.84-0.5-1.28-1.78-1.76c-1.76-0.641-2.58-1.58-2.58-2.741c0-1.56,1.28-2.84,3.341-2.84c0.979,0,1.84,0.26,2.36,0.6
							l-0.42,1.28c-0.381-0.24-1.081-0.58-1.98-0.58c-1.041,0-1.601,0.601-1.601,1.32c0,0.801,0.56,1.16,1.82,1.66
							c1.66,0.62,2.54,1.461,2.54,2.901c0,1.72-1.34,2.92-3.601,2.92c-1.06,0-2.04-0.279-2.721-0.68L635.312,226.776z"/>
						<path fill="#FFFFFF" d="M644.451,224.036c0.04,2.38,1.54,3.36,3.32,3.36c1.261,0,2.041-0.22,2.681-0.5l0.32,1.26
							c-0.62,0.28-1.7,0.62-3.24,0.62c-2.98,0-4.762-1.98-4.762-4.9c0-2.921,1.721-5.201,4.541-5.201
							c3.181,0,4.001,2.761,4.001,4.541c0,0.359-0.02,0.62-0.06,0.82H644.451z M649.612,222.775c0.021-1.101-0.46-2.841-2.44-2.841
							c-1.801,0-2.561,1.62-2.7,2.841H649.612z"/>
						<path fill="#FFFFFF" d="M536.243,248.776c0.54,0.32,1.46,0.68,2.34,0.68c1.261,0,1.86-0.62,1.86-1.44
							c0-0.84-0.5-1.28-1.78-1.76c-1.76-0.641-2.58-1.58-2.58-2.741c0-1.56,1.28-2.84,3.341-2.84c0.979,0,1.84,0.26,2.36,0.6
							l-0.42,1.28c-0.381-0.24-1.081-0.58-1.98-0.58c-1.041,0-1.601,0.601-1.601,1.32c0,0.801,0.56,1.16,1.82,1.66
							c1.66,0.62,2.54,1.461,2.54,2.901c0,1.72-1.34,2.92-3.601,2.92c-1.06,0-2.04-0.279-2.721-0.68L536.243,248.776z"/>
						<path fill="#FFFFFF" d="M546.363,238.154c0,0.6-0.42,1.08-1.12,1.08c-0.641,0-1.061-0.48-1.061-1.08
							c0-0.601,0.44-1.101,1.101-1.101C545.923,237.054,546.363,237.534,546.363,238.154z M544.402,250.557v-9.682h1.761v9.682
							H544.402z"/>
						<path fill="#FFFFFF" d="M550.062,246.036c0.04,2.38,1.54,3.36,3.32,3.36c1.261,0,2.041-0.22,2.681-0.5l0.32,1.26
							c-0.62,0.28-1.7,0.62-3.24,0.62c-2.98,0-4.762-1.98-4.762-4.9c0-2.921,1.721-5.201,4.541-5.201
							c3.181,0,4.001,2.761,4.001,4.541c0,0.359-0.02,0.62-0.06,0.82H550.062z M555.224,244.775c0.021-1.101-0.46-2.841-2.44-2.841
							c-1.801,0-2.561,1.62-2.7,2.841H555.224z"/>
						<path fill="#FFFFFF" d="M559.102,243.495c0-1.021-0.02-1.82-0.08-2.62h1.561l0.101,1.6h0.04c0.479-0.899,1.6-1.8,3.2-1.8
							c1.341,0,3.421,0.8,3.421,4.121v5.761h-1.761v-5.581c0-1.561-0.58-2.86-2.24-2.86c-1.141,0-2.04,0.819-2.36,1.8
							c-0.08,0.221-0.12,0.521-0.12,0.82v5.821h-1.761V243.495z"/>
						<path fill="#FFFFFF" d="M572.242,238.554v2.321h2.521v1.34h-2.521v5.221c0,1.2,0.34,1.881,1.32,1.881
							c0.479,0,0.76-0.04,1.02-0.12l0.08,1.341c-0.34,0.119-0.88,0.239-1.56,0.239c-0.82,0-1.48-0.279-1.9-0.74
							c-0.48-0.54-0.681-1.4-0.681-2.54v-5.281h-1.5v-1.34h1.5v-1.801L572.242,238.554z"/>
						<path fill="#FFFFFF" d="M583.543,248.236c0,0.84,0.04,1.66,0.14,2.32h-1.58l-0.14-1.221h-0.061
							c-0.54,0.761-1.58,1.44-2.96,1.44c-1.961,0-2.961-1.38-2.961-2.78c0-2.341,2.08-3.621,5.821-3.601v-0.2
							c0-0.78-0.22-2.24-2.2-2.221c-0.921,0-1.86,0.261-2.541,0.721l-0.4-1.181c0.801-0.5,1.98-0.84,3.201-0.84
							c2.961,0,3.681,2.021,3.681,3.94V248.236z M581.843,245.615c-1.921-0.04-4.101,0.301-4.101,2.181
							c0,1.16,0.76,1.681,1.64,1.681c1.28,0,2.101-0.801,2.381-1.62c0.06-0.2,0.08-0.4,0.08-0.561V245.615z"/>
						<path fill="#FFFFFF" d="M590.621,243.495c0-1.021-0.04-1.82-0.08-2.62h1.541l0.08,1.58h0.06c0.54-0.92,1.44-1.78,3.061-1.78
							c1.301,0,2.301,0.8,2.721,1.94h0.04c0.3-0.561,0.7-0.961,1.101-1.261c0.58-0.439,1.2-0.68,2.12-0.68
							c1.301,0,3.201,0.84,3.201,4.2v5.682h-1.721v-5.461c0-1.881-0.7-2.98-2.101-2.98c-1.021,0-1.78,0.74-2.101,1.58
							c-0.08,0.26-0.14,0.56-0.14,0.88v5.981h-1.721v-5.801c0-1.541-0.68-2.641-2.021-2.641c-1.08,0-1.9,0.88-2.181,1.76
							c-0.1,0.24-0.14,0.561-0.14,0.86v5.821h-1.721V243.495z"/>
						<path fill="#FFFFFF" d="M614.103,248.236c0,0.84,0.04,1.66,0.14,2.32h-1.58l-0.14-1.221h-0.061
							c-0.54,0.761-1.58,1.44-2.96,1.44c-1.961,0-2.961-1.38-2.961-2.78c0-2.341,2.08-3.621,5.821-3.601v-0.2
							c0-0.78-0.22-2.24-2.2-2.221c-0.921,0-1.86,0.261-2.541,0.721l-0.4-1.181c0.801-0.5,1.98-0.84,3.201-0.84
							c2.961,0,3.681,2.021,3.681,3.94V248.236z M612.402,245.615c-1.921-0.04-4.101,0.301-4.101,2.181
							c0,1.16,0.76,1.681,1.64,1.681c1.28,0,2.101-0.801,2.381-1.62c0.06-0.2,0.08-0.4,0.08-0.561V245.615z"/>
						<path fill="#FFFFFF" d="M616.94,236.354h1.761v14.203h-1.761V236.354z"/>
						<path fill="#FFFFFF" d="M621.04,249.517c0-0.721,0.5-1.261,1.2-1.261s1.181,0.521,1.181,1.261c0,0.72-0.48,1.26-1.221,1.26
							C621.521,250.776,621.04,250.236,621.04,249.517z"/>
					</g>
				</g>
			</g>
		</g>
		<path fill="none" stroke="#A2B735" stroke-width="5" stroke-miterlimit="10" stroke-dasharray="4" d="M431.042,37.306
			c0,0,11.28-2.075,18.005-4.841c7.92-3.257,19.497-11.939,19.497-11.939"/>
	</g>
	<g>
		<rect x="263.486" y="1.269" fill="#EBE760" fill-opacity="0.4" width="162.094" height="25.702"/>
	</g>
	<g>
		<rect y="24.862" fill="#EBE760" fill-opacity="0.4" width="425.58" height="25.702"/>
	</g>
	<g>
		<rect x="0.5" y="51.944" fill="#EBE760" fill-opacity="0.4" width="358.013" height="25.702"/>
	</g>
</g>
</svg>
