<?xml version="1.0" encoding="utf-8"?>
<!-- Generator: Adobe Illustrator 16.0.0, SVG Export Plug-In . SVG Version: 6.00 Build 0)  -->
<!DOCTYPE svg PUBLIC "-//W3C//DTD SVG 1.1//EN" "http://www.w3.org/Graphics/SVG/1.1/DTD/svg11.dtd">
<svg version="1.1" id="Capa_1" xmlns="http://www.w3.org/2000/svg" xmlns:xlink="http://www.w3.org/1999/xlink" x="0px" y="0px"
	 width="119.02px" height="68.904px" viewBox="0 0 119.02 68.904" enable-background="new 0 0 119.02 68.904" xml:space="preserve">
<g>
	<path fill="#7764A1" d="M9.65,63.406c-0.516,0.225-1.019,0.281-1.508,0.164c-0.49-0.113-0.818-0.363-0.986-0.748
		c-0.17-0.391-0.131-0.807,0.119-1.242s0.633-0.768,1.149-0.992c0.524-0.227,1.032-0.285,1.521-0.17
		c0.49,0.115,0.82,0.367,0.989,0.758c0.168,0.385,0.127,0.797-0.123,1.234C10.562,62.846,10.176,63.18,9.65,63.406z"/>
	<path fill="#7764A1" d="M14.464,61.312c-0.517,0.225-1.02,0.281-1.509,0.164c-0.49-0.113-0.818-0.363-0.986-0.748
		c-0.17-0.391-0.13-0.807,0.119-1.242c0.25-0.436,0.633-0.768,1.15-0.992c0.523-0.227,1.031-0.285,1.521-0.17
		c0.489,0.115,0.82,0.367,0.989,0.758c0.168,0.385,0.126,0.797-0.123,1.234C15.375,60.752,14.988,61.086,14.464,61.312z"/>
	<path fill="#7764A1" d="M19.276,59.219c-0.517,0.225-1.019,0.281-1.509,0.164c-0.49-0.113-0.818-0.365-0.986-0.75
		c-0.17-0.391-0.13-0.805,0.12-1.24s0.633-0.768,1.149-0.992c0.524-0.229,1.031-0.285,1.521-0.17s0.82,0.367,0.989,0.758
		c0.168,0.385,0.127,0.797-0.123,1.232C20.188,58.658,19.801,58.99,19.276,59.219z"/>
	<path fill="#7764A1" d="M26.081,55.744c-0.765-6.18-1.478-11.391-2.136-15.635l4.813-2.164c2.911,3.447,6.233,7.371,9.969,11.77
		l-3.085,1.939l-2.632-3.191l-4.013,1.746l0.627,4.404L26.081,55.744z M31.732,45.805c-1.051-1.191-2.502-2.531-4.357-4.02
		c-0.078,1.963-0.008,3.932,0.205,5.906L31.732,45.805z"/>
	<path fill="#7764A1" d="M46.08,47.5l-0.811-1.512c0.002,0.99-0.788,1.834-2.367,2.529c-0.016,0.014-0.026,0.023-0.035,0.025
		c-1.565,0.682-2.83,0.607-3.795-0.225c-0.649-0.549-1.45-1.92-2.404-4.113c-0.491-1.127-1.022-2.479-1.594-4.053l3.135-1.363
		c0.766,2.229,1.4,3.924,1.904,5.084c0.254,0.584,0.475,1.029,0.66,1.338c0.564,0.943,1.215,1.256,1.955,0.934
		c0.74-0.32,1.092-0.783,1.055-1.385l-3.033-6.619l3.023-1.34c1.2,2.758,2.731,5.914,4.594,9.465L46.08,47.5z M37.155,37.074
		c0.619-1.33,1.075-2.539,1.368-3.627l2.66,0.328c-0.621,1.064-1.28,2.324-1.978,3.779L37.155,37.074z"/>
	<path fill="#7764A1" d="M47.494,34.84l0.811,1.514c-0.002-0.992,0.766-1.83,2.3-2.512l0.052-0.021
		c1.514-0.658,2.738-0.666,3.674-0.02c0.641,0.438,1.443,1.766,2.408,3.984c0.475,1.09,0.988,2.4,1.541,3.928l-3.123,1.359
		c-0.75-2.031-1.362-3.592-1.836-4.682c-0.238-0.545-0.439-0.975-0.607-1.291c-0.505-0.924-1.127-1.225-1.867-0.904
		c-0.74,0.322-1.093,0.781-1.059,1.377l3.162,6.916l-3.023,1.34c-1.283-2.949-2.857-6.203-4.723-9.762L47.494,34.84z"/>
	<path fill="#7764A1" d="M62.218,29.145c-0.093-0.166-0.179-0.34-0.257-0.518c-0.262-0.604-0.449-1.258-0.562-1.965
		c-0.162-0.912,0.153-1.834,0.944-2.766c0.586-0.699,1.451-1.295,2.596-1.793c0.379-0.166,0.793-0.318,1.242-0.461l0.891,2.117
		c-0.27,0.086-0.516,0.18-0.739,0.277c-0.714,0.311-1.182,0.67-1.403,1.078c-0.249,0.436-0.199,1.057,0.148,1.857
		c0.084,0.191,0.189,0.398,0.315,0.617l2.749-1.23l0.85,1.953l-2.78,1.369c0.983,2.074,1.883,4.047,2.698,5.92
		c0.244,0.564,0.48,1.117,0.705,1.66l-3.23,1.531c-0.903-2.146-1.959-4.691-3.168-7.637l-2.057,0.986l-0.952-2.045L62.218,29.145z"
		/>
	<path fill="#7764A1" d="M74.074,23.242c2.881-1.117,4.758-0.67,5.631,1.338l2.971,6.828l-2.989,1.346l-0.501-0.869
		c-0.391,0.797-1.098,1.416-2.121,1.861c-0.439,0.191-0.935,0.346-1.486,0.463c-1.646,0.381-2.789-0.166-3.432-1.641
		c-0.078-0.18-0.148-0.377-0.211-0.594c-0.49-1.594,0.629-2.986,3.355-4.172c0.525-0.229,1.113-0.451,1.768-0.666l-0.486-1.115
		c-0.393-0.904-0.973-1.191-1.738-0.857l-0.051,0.021c-0.063,0.021-0.121,0.043-0.172,0.064c-0.834,0.363-1.031,1.051-0.591,2.064
		l0.063,0.145l-3.156,1.145c-0.973-2.238-0.014-3.986,2.877-5.244L74.074,23.242z M78.465,30.369l-0.737-1.693
		c-0.395,0.104-0.743,0.221-1.044,0.352c-0.783,0.34-1.23,0.768-1.344,1.283c-0.07,0.312-0.06,0.57,0.029,0.775
		c0.112,0.258,0.349,0.426,0.711,0.504c0.281,0.061,0.595,0.016,0.939-0.135C77.458,31.266,77.939,30.902,78.465,30.369z"/>
	<path fill="#7764A1" d="M87.325,29.361l-3.116,1.619c-0.89-2.137-1.76-4.186-2.614-6.148c-1.199-2.758-2.365-5.342-3.496-7.756
		l3.144-1.414c0.649,1.586,1.334,3.205,2.053,4.859C84.537,23.377,85.881,26.322,87.325,29.361z"/>
	<path fill="#7764A1" d="M85.028,15.158l2.866-1.418l1.385,3.184l2.443-1.121l0.83,1.803l-2.465,1.176l1.904,4.375
		c0.443,1.02,1.245,1.277,2.406,0.771c0.241-0.104,0.494-0.24,0.758-0.408l0.805,2.166c-0.396,0.219-0.779,0.408-1.148,0.568
		c-2.719,1.182-4.559,0.74-5.52-1.328l-2.047-4.703l-2.074,1.018l-0.984-2.123l2.176-0.924L85.028,15.158z"/>
	<path fill="#7764A1" d="M97.739,12.947c2.88-1.117,4.757-0.67,5.63,1.336l2.971,6.83l-2.989,1.346l-0.501-0.869
		c-0.391,0.795-1.098,1.416-2.121,1.861c-0.439,0.191-0.935,0.346-1.486,0.463c-1.646,0.381-2.789-0.166-3.431-1.643
		c-0.078-0.178-0.149-0.377-0.212-0.592c-0.489-1.596,0.629-2.986,3.355-4.172c0.525-0.229,1.113-0.451,1.768-0.666l-0.485-1.117
		c-0.394-0.904-0.974-1.189-1.739-0.855l-0.051,0.021c-0.063,0.021-0.12,0.043-0.172,0.064c-0.834,0.363-1.031,1.051-0.591,2.064
		l0.063,0.145l-3.155,1.145c-0.974-2.238-0.015-3.986,2.876-5.244L97.739,12.947z M95.08,12.09c0.618-1.33,1.074-2.539,1.368-3.627
		l2.66,0.33c-0.622,1.064-1.28,2.324-1.978,3.777L95.08,12.09z M102.129,20.072l-0.736-1.693c-0.396,0.105-0.744,0.223-1.045,0.354
		c-0.783,0.34-1.23,0.768-1.344,1.283c-0.07,0.311-0.06,0.57,0.029,0.775c0.112,0.258,0.349,0.424,0.711,0.504
		c0.281,0.061,0.595,0.016,0.939-0.135C101.122,20.969,101.604,20.607,102.129,20.072z"/>
	<path fill="#7764A1" d="M105.402,9.646l0.812,1.512c-0.001-0.99,0.765-1.828,2.3-2.51l0.051-0.021
		c1.515-0.66,2.738-0.666,3.674-0.021c0.641,0.439,1.445,1.768,2.41,3.984c0.474,1.09,0.987,2.4,1.539,3.93l-3.122,1.357
		c-0.75-2.029-1.362-3.59-1.837-4.68c-0.237-0.545-0.439-0.977-0.607-1.291c-0.504-0.926-1.127-1.227-1.867-0.904
		c-0.739,0.322-1.092,0.781-1.058,1.377l3.163,6.916l-3.024,1.338c-1.283-2.949-2.857-6.201-4.722-9.762L105.402,9.646z"/>
</g>
</svg>
