<?xml version="1.0" encoding="utf-8"?>
<!-- Generator: Adobe Illustrator 16.0.0, SVG Export Plug-In . SVG Version: 6.00 Build 0)  -->
<!DOCTYPE svg PUBLIC "-//W3C//DTD SVG 1.1//EN" "http://www.w3.org/Graphics/SVG/1.1/DTD/svg11.dtd">
<svg version="1.1" id="Capa_1" xmlns="http://www.w3.org/2000/svg" xmlns:xlink="http://www.w3.org/1999/xlink" x="0px" y="0px"
	 width="487.274px" height="304.469px" viewBox="0 0 487.274 304.469" enable-background="new 0 0 487.274 304.469"
	 xml:space="preserve">
<g>
	<g>
		<path d="M1.771,19.922c1.062,0.682,2.589,1.199,4.224,1.199c2.426,0,3.843-1.281,3.843-3.134c0-1.69-0.981-2.698-3.461-3.625
			c-2.997-1.09-4.851-2.671-4.851-5.232c0-2.861,2.371-4.987,5.941-4.987c1.853,0,3.242,0.437,4.033,0.899l-0.654,1.935
			c-0.572-0.354-1.799-0.872-3.461-0.872c-2.508,0-3.461,1.499-3.461,2.753c0,1.717,1.117,2.562,3.651,3.543
			c3.106,1.199,4.66,2.698,4.66,5.396c0,2.834-2.071,5.314-6.404,5.314c-1.771,0-3.706-0.545-4.688-1.199L1.771,19.922z"/>
		<path d="M27.524,16.106c0,4.878-3.406,7.004-6.568,7.004c-3.542,0-6.322-2.616-6.322-6.786c0-4.388,2.916-6.977,6.541-6.977
			C24.963,9.348,27.524,12.101,27.524,16.106z M17.087,16.243c0,2.889,1.635,5.068,3.979,5.068c2.289,0,4.006-2.152,4.006-5.123
			c0-2.235-1.117-5.042-3.951-5.042C18.313,11.146,17.087,13.763,17.087,16.243z"/>
		<path d="M30.55,13.19c0-1.39-0.027-2.479-0.109-3.57h2.125l0.137,2.181h0.055c0.654-1.227,2.18-2.453,4.36-2.453
			c1.826,0,4.66,1.091,4.66,5.614v7.849H39.38v-7.604c0-2.126-0.791-3.896-3.053-3.896c-1.554,0-2.779,1.117-3.216,2.452
			c-0.109,0.3-0.163,0.709-0.163,1.117v7.931H30.55V13.19z"/>
		<path d="M50.947,3.462h2.398v19.349h-2.398V3.462z"/>
		<path d="M66.645,19.649c0,1.145,0.054,2.262,0.19,3.161h-2.152l-0.191-1.662h-0.082c-0.735,1.035-2.152,1.962-4.033,1.962
			c-2.67,0-4.033-1.881-4.033-3.788c0-3.188,2.834-4.933,7.931-4.905v-0.272c0-1.063-0.3-3.053-2.998-3.025
			c-1.253,0-2.534,0.354-3.461,0.981l-0.545-1.608c1.091-0.681,2.698-1.145,4.36-1.145c4.033,0,5.015,2.753,5.015,5.369V19.649z
			 M64.328,16.079c-2.616-0.055-5.587,0.409-5.587,2.971c0,1.58,1.035,2.289,2.234,2.289c1.744,0,2.861-1.09,3.243-2.207
			c0.082-0.272,0.109-0.545,0.109-0.764V16.079z"/>
		<path d="M70.187,20.385c0.736,0.437,1.99,0.927,3.189,0.927c1.717,0,2.533-0.845,2.533-1.962c0-1.145-0.681-1.744-2.425-2.398
			c-2.398-0.872-3.516-2.152-3.516-3.733c0-2.126,1.744-3.87,4.552-3.87c1.335,0,2.507,0.354,3.215,0.817l-0.572,1.744
			c-0.518-0.326-1.471-0.79-2.697-0.79c-1.418,0-2.181,0.817-2.181,1.799c0,1.09,0.763,1.581,2.479,2.262
			c2.263,0.845,3.461,1.989,3.461,3.952c0,2.344-1.825,3.979-4.904,3.979c-1.445,0-2.78-0.382-3.707-0.927L70.187,20.385z"/>
		<path d="M97.942,3.462v15.942c0,1.172,0.055,2.507,0.109,3.406h-2.126l-0.108-2.289h-0.082c-0.709,1.472-2.289,2.589-4.442,2.589
			c-3.188,0-5.669-2.698-5.669-6.704c-0.027-4.388,2.726-7.059,5.914-7.059c2.044,0,3.379,0.954,3.979,1.989h0.055V3.462H97.942z
			 M95.571,14.989c0-0.3-0.027-0.709-0.109-1.009c-0.354-1.498-1.662-2.752-3.461-2.752c-2.479,0-3.951,2.18-3.951,5.068
			c0,2.671,1.336,4.879,3.896,4.879c1.608,0,3.08-1.091,3.516-2.862c0.082-0.326,0.109-0.653,0.109-1.035V14.989z"/>
		<path d="M113.885,16.106c0,4.878-3.406,7.004-6.567,7.004c-3.543,0-6.322-2.616-6.322-6.786c0-4.388,2.916-6.977,6.54-6.977
			C111.323,9.348,113.885,12.101,113.885,16.106z M103.447,16.243c0,2.889,1.636,5.068,3.979,5.068c2.289,0,4.006-2.152,4.006-5.123
			c0-2.235-1.117-5.042-3.952-5.042C104.674,11.146,103.447,13.763,103.447,16.243z"/>
		<path d="M116.583,20.385c0.735,0.437,1.989,0.927,3.188,0.927c1.717,0,2.534-0.845,2.534-1.962c0-1.145-0.682-1.744-2.426-2.398
			c-2.398-0.872-3.516-2.152-3.516-3.733c0-2.126,1.744-3.87,4.552-3.87c1.335,0,2.507,0.354,3.216,0.817l-0.572,1.744
			c-0.518-0.326-1.472-0.79-2.698-0.79c-1.417,0-2.181,0.817-2.181,1.799c0,1.09,0.764,1.581,2.48,2.262
			c2.262,0.845,3.461,1.989,3.461,3.952c0,2.344-1.826,3.979-4.905,3.979c-1.444,0-2.78-0.382-3.706-0.927L116.583,20.385z"/>
		<path d="M144.339,3.462v15.942c0,1.172,0.055,2.507,0.109,3.406h-2.126l-0.108-2.289h-0.082c-0.709,1.472-2.289,2.589-4.442,2.589
			c-3.188,0-5.669-2.698-5.669-6.704c-0.027-4.388,2.726-7.059,5.914-7.059c2.044,0,3.379,0.954,3.979,1.989h0.055V3.462H144.339z
			 M141.968,14.989c0-0.3-0.027-0.709-0.109-1.009c-0.354-1.498-1.662-2.752-3.461-2.752c-2.479,0-3.951,2.18-3.951,5.068
			c0,2.671,1.336,4.879,3.896,4.879c1.608,0,3.08-1.091,3.516-2.862c0.082-0.326,0.109-0.653,0.109-1.035V14.989z"/>
		<path d="M149.681,16.651c0.055,3.243,2.098,4.578,4.523,4.578c1.717,0,2.779-0.3,3.652-0.681l0.436,1.717
			c-0.845,0.382-2.316,0.845-4.415,0.845c-4.061,0-6.485-2.698-6.485-6.677s2.344-7.086,6.186-7.086
			c4.333,0,5.451,3.761,5.451,6.187c0,0.49-0.027,0.845-0.082,1.117H149.681z M156.712,14.935c0.027-1.499-0.627-3.87-3.325-3.87
			c-2.453,0-3.488,2.208-3.679,3.87H156.712z"/>
		<path d="M167.271,3.462h2.398v19.349h-2.398V3.462z"/>
		<path d="M182.968,19.649c0,1.145,0.055,2.262,0.19,3.161h-2.153l-0.19-1.662h-0.081c-0.736,1.035-2.153,1.962-4.033,1.962
			c-2.672,0-4.034-1.881-4.034-3.788c0-3.188,2.835-4.933,7.931-4.905v-0.272c0-1.063-0.3-3.053-2.998-3.025
			c-1.254,0-2.534,0.354-3.461,0.981l-0.545-1.608c1.09-0.681,2.698-1.145,4.36-1.145c4.033,0,5.015,2.753,5.015,5.369V19.649z
			 M180.651,16.079c-2.616-0.055-5.587,0.409-5.587,2.971c0,1.58,1.036,2.289,2.235,2.289c1.744,0,2.861-1.09,3.242-2.207
			c0.082-0.272,0.109-0.545,0.109-0.764V16.079z"/>
		<path d="M194.999,6.459V9.62h3.434v1.826h-3.434v7.113c0,1.635,0.463,2.562,1.799,2.562c0.654,0,1.035-0.055,1.39-0.164
			l0.108,1.826c-0.463,0.164-1.199,0.327-2.125,0.327c-1.117,0-2.018-0.382-2.59-1.009c-0.653-0.735-0.926-1.907-0.926-3.461v-7.194
			h-2.044V9.62h2.044V7.168L194.999,6.459z"/>
		<path d="M210.396,19.649c0,1.145,0.054,2.262,0.19,3.161h-2.152l-0.191-1.662h-0.082c-0.735,1.035-2.152,1.962-4.033,1.962
			c-2.67,0-4.033-1.881-4.033-3.788c0-3.188,2.834-4.933,7.931-4.905v-0.272c0-1.063-0.3-3.053-2.998-3.025
			c-1.253,0-2.534,0.354-3.461,0.981l-0.545-1.608c1.091-0.681,2.698-1.145,4.36-1.145c4.033,0,5.015,2.753,5.015,5.369V19.649z
			 M208.08,16.079c-2.616-0.055-5.587,0.409-5.587,2.971c0,1.58,1.035,2.289,2.234,2.289c1.744,0,2.861-1.09,3.243-2.207
			c0.082-0.272,0.109-0.545,0.109-0.764V16.079z"/>
		<path d="M214.266,13.735c0-1.553-0.027-2.889-0.108-4.115h2.098l0.109,2.616h0.082c0.6-1.771,2.07-2.889,3.679-2.889
			c0.245,0,0.437,0.027,0.654,0.055v2.262c-0.245-0.054-0.491-0.054-0.817-0.054c-1.689,0-2.889,1.253-3.217,3.052
			c-0.054,0.327-0.081,0.735-0.081,1.117v7.031h-2.398V13.735z"/>
		<path d="M234.269,3.462v15.942c0,1.172,0.055,2.507,0.109,3.406h-2.126l-0.108-2.289h-0.082c-0.709,1.472-2.289,2.589-4.442,2.589
			c-3.188,0-5.669-2.698-5.669-6.704c-0.027-4.388,2.726-7.059,5.914-7.059c2.044,0,3.379,0.954,3.979,1.989h0.055V3.462H234.269z
			 M231.897,14.989c0-0.3-0.027-0.709-0.109-1.009c-0.354-1.498-1.662-2.752-3.461-2.752c-2.479,0-3.951,2.18-3.951,5.068
			c0,2.671,1.336,4.879,3.896,4.879c1.608,0,3.08-1.091,3.516-2.862c0.082-0.326,0.109-0.653,0.109-1.035V14.989z"/>
		<path d="M239.61,16.651c0.055,3.243,2.098,4.578,4.523,4.578c1.717,0,2.779-0.3,3.652-0.681l0.436,1.717
			c-0.845,0.382-2.316,0.845-4.415,0.845c-4.061,0-6.485-2.698-6.485-6.677s2.344-7.086,6.186-7.086
			c4.333,0,5.451,3.761,5.451,6.187c0,0.49-0.027,0.845-0.082,1.117H239.61z M246.642,14.935c0.027-1.499-0.627-3.87-3.325-3.87
			c-2.453,0-3.488,2.208-3.679,3.87H246.642z"/>
		<path d="M258.072,9.62l2.862,7.795c0.326,0.872,0.653,1.907,0.871,2.697h0.055c0.246-0.79,0.518-1.799,0.845-2.752l2.616-7.74
			h2.535l-3.598,9.402c-1.717,4.523-2.889,6.813-4.523,8.258c-1.199,1.008-2.344,1.417-2.943,1.525l-0.6-1.989
			c0.6-0.19,1.39-0.572,2.098-1.172c0.654-0.518,1.445-1.444,2.018-2.671c0.108-0.245,0.19-0.436,0.19-0.572
			c0-0.136-0.055-0.326-0.19-0.626L255.456,9.62H258.072z"/>
		<path d="M279.124,4.442h2.398v12.291c0,4.878-2.398,6.377-5.56,6.377c-0.899,0-1.962-0.19-2.534-0.437l0.326-1.935
			c0.491,0.19,1.199,0.354,2.018,0.354c2.125,0,3.352-0.954,3.352-4.551V4.442z"/>
		<path d="M297.328,16.106c0,4.878-3.406,7.004-6.567,7.004c-3.543,0-6.322-2.616-6.322-6.786c0-4.388,2.916-6.977,6.54-6.977
			C294.767,9.348,297.328,12.101,297.328,16.106z M286.891,16.243c0,2.889,1.636,5.068,3.979,5.068c2.289,0,4.006-2.152,4.006-5.123
			c0-2.235-1.117-5.042-3.952-5.042C288.117,11.146,286.891,13.763,286.891,16.243z"/>
		<path d="M300.026,20.385c0.735,0.437,1.989,0.927,3.188,0.927c1.717,0,2.534-0.845,2.534-1.962c0-1.145-0.682-1.744-2.426-2.398
			c-2.398-0.872-3.516-2.152-3.516-3.733c0-2.126,1.744-3.87,4.552-3.87c1.335,0,2.507,0.354,3.216,0.817l-0.572,1.744
			c-0.518-0.326-1.472-0.79-2.698-0.79c-1.417,0-2.181,0.817-2.181,1.799c0,1.09,0.764,1.581,2.48,2.262
			c2.262,0.845,3.461,1.989,3.461,3.952c0,2.344-1.826,3.979-4.905,3.979c-1.444,0-2.78-0.382-3.706-0.927L300.026,20.385z"/>
		<path d="M312.48,16.651c0.054,3.243,2.098,4.578,4.523,4.578c1.717,0,2.779-0.3,3.651-0.681l0.437,1.717
			c-0.845,0.382-2.316,0.845-4.415,0.845c-4.061,0-6.486-2.698-6.486-6.677s2.344-7.086,6.187-7.086c4.333,0,5.45,3.761,5.45,6.187
			c0,0.49-0.027,0.845-0.081,1.117H312.48z M319.511,14.935c0.027-1.499-0.626-3.87-3.324-3.87c-2.453,0-3.488,2.208-3.68,3.87
			H319.511z M320.056,3.925l-3.324,3.897h-1.689l2.398-3.897H320.056z"/>
		<path d="M339.336,19.649c0,1.145,0.055,2.262,0.191,3.161h-2.153l-0.19-1.662h-0.082c-0.735,1.035-2.153,1.962-4.033,1.962
			c-2.671,0-4.033-1.881-4.033-3.788c0-3.188,2.834-4.933,7.93-4.905v-0.272c0-1.063-0.3-3.053-2.997-3.025
			c-1.254,0-2.535,0.354-3.461,0.981l-0.545-1.608c1.09-0.681,2.697-1.145,4.36-1.145c4.033,0,5.014,2.753,5.014,5.369V19.649z
			 M337.02,16.079c-2.616-0.055-5.587,0.409-5.587,2.971c0,1.58,1.036,2.289,2.235,2.289c1.744,0,2.861-1.09,3.243-2.207
			c0.081-0.272,0.108-0.545,0.108-0.764V16.079z"/>
		<path d="M352.608,22.348c-0.627,0.3-2.017,0.763-3.788,0.763c-3.979,0-6.568-2.698-6.568-6.731c0-4.061,2.78-7.031,7.086-7.031
			c1.417,0,2.671,0.354,3.325,0.709l-0.545,1.826c-0.573-0.3-1.472-0.627-2.78-0.627c-3.025,0-4.66,2.262-4.66,4.987
			c0,3.052,1.962,4.933,4.578,4.933c1.363,0,2.263-0.327,2.943-0.627L352.608,22.348z"/>
		<path d="M364.681,19.649c0,1.145,0.055,2.262,0.191,3.161h-2.153l-0.19-1.662h-0.082c-0.736,1.035-2.153,1.962-4.033,1.962
			c-2.671,0-4.033-1.881-4.033-3.788c0-3.188,2.834-4.933,7.93-4.905v-0.272c0-1.063-0.3-3.053-2.997-3.025
			c-1.254,0-2.535,0.354-3.461,0.981l-0.545-1.608c1.09-0.681,2.697-1.145,4.36-1.145c4.033,0,5.014,2.753,5.014,5.369V19.649z
			 M362.364,16.079c-2.616-0.055-5.587,0.409-5.587,2.971c0,1.58,1.036,2.289,2.235,2.289c1.744,0,2.861-1.09,3.243-2.207
			c0.081-0.272,0.108-0.545,0.108-0.764V16.079z"/>
		<path d="M368.551,3.462h2.371v8.284h0.055c0.845-1.472,2.371-2.398,4.496-2.398c3.298,0,5.587,2.726,5.587,6.704
			c0,4.715-2.998,7.059-5.94,7.059c-1.908,0-3.435-0.736-4.442-2.453h-0.055l-0.137,2.153h-2.043
			c0.054-0.899,0.108-2.234,0.108-3.406V3.462z M370.922,17.523c0,0.3,0.027,0.6,0.109,0.872c0.436,1.662,1.853,2.808,3.597,2.808
			c2.535,0,4.006-2.044,4.006-5.069c0-2.644-1.362-4.905-3.951-4.905c-1.607,0-3.134,1.145-3.624,2.943
			c-0.082,0.3-0.137,0.627-0.137,1.008V17.523z"/>
		<path d="M393.322,19.649c0,1.145,0.055,2.262,0.191,3.161h-2.153l-0.19-1.662h-0.082c-0.735,1.035-2.153,1.962-4.033,1.962
			c-2.671,0-4.033-1.881-4.033-3.788c0-3.188,2.834-4.933,7.93-4.905v-0.272c0-1.063-0.3-3.053-2.997-3.025
			c-1.254,0-2.535,0.354-3.461,0.981l-0.545-1.608c1.09-0.681,2.697-1.145,4.36-1.145c4.033,0,5.014,2.753,5.014,5.369V19.649z
			 M391.006,16.079c-2.616-0.055-5.587,0.409-5.587,2.971c0,1.58,1.036,2.289,2.235,2.289c1.744,0,2.861-1.09,3.243-2.207
			c0.081-0.272,0.108-0.545,0.108-0.764V16.079z"/>
		<path d="M413.829,3.462v15.942c0,1.172,0.055,2.507,0.109,3.406h-2.126l-0.109-2.289h-0.081c-0.709,1.472-2.289,2.589-4.442,2.589
			c-3.188,0-5.669-2.698-5.669-6.704c-0.026-4.388,2.726-7.059,5.914-7.059c2.044,0,3.379,0.954,3.979,1.989h0.055V3.462H413.829z
			 M411.458,14.989c0-0.3-0.027-0.709-0.108-1.009c-0.354-1.498-1.663-2.752-3.462-2.752c-2.479,0-3.951,2.18-3.951,5.068
			c0,2.671,1.336,4.879,3.897,4.879c1.607,0,3.079-1.091,3.516-2.862c0.081-0.326,0.108-0.653,0.108-1.035V14.989z"/>
		<path d="M419.171,16.651c0.054,3.243,2.098,4.578,4.523,4.578c1.717,0,2.779-0.3,3.651-0.681l0.437,1.717
			c-0.845,0.382-2.316,0.845-4.415,0.845c-4.061,0-6.486-2.698-6.486-6.677s2.344-7.086,6.187-7.086c4.333,0,5.45,3.761,5.45,6.187
			c0,0.49-0.026,0.845-0.081,1.117H419.171z M426.201,14.935c0.027-1.499-0.626-3.87-3.324-3.87c-2.453,0-3.488,2.208-3.68,3.87
			H426.201z"/>
		<path d="M11.255,52.353c0,1.145,0.055,2.262,0.191,3.161H9.293l-0.19-1.662H9.021c-0.736,1.035-2.152,1.962-4.033,1.962
			c-2.671,0-4.033-1.881-4.033-3.788c0-3.188,2.834-4.933,7.93-4.905v-0.272c0-1.063-0.299-3.053-2.997-3.025
			c-1.254,0-2.534,0.354-3.462,0.981L1.88,43.195c1.091-0.681,2.698-1.145,4.361-1.145c4.033,0,5.014,2.753,5.014,5.369V52.353z
			 M8.938,48.782c-2.616-0.055-5.586,0.409-5.586,2.971c0,1.58,1.035,2.289,2.234,2.289c1.744,0,2.861-1.09,3.242-2.207
			c0.082-0.272,0.109-0.545,0.109-0.764V48.782z"/>
		<path d="M15.124,36.165h2.398v19.349h-2.398V36.165z"/>
		<path d="M21.556,45.894c0-1.39-0.055-2.479-0.109-3.57h2.1l0.108,2.153h0.081c0.736-1.254,1.963-2.426,4.17-2.426
			c1.771,0,3.135,1.091,3.707,2.644h0.055c0.408-0.763,0.953-1.308,1.498-1.717c0.791-0.6,1.635-0.927,2.889-0.927
			c1.771,0,4.361,1.145,4.361,5.724v7.739h-2.344v-7.439c0-2.562-0.955-4.061-2.862-4.061c-1.39,0-2.425,1.008-2.861,2.152
			c-0.108,0.354-0.19,0.764-0.19,1.199v8.148h-2.344V47.61c0-2.099-0.927-3.597-2.753-3.597c-1.472,0-2.589,1.198-2.97,2.397
			c-0.137,0.327-0.191,0.764-0.191,1.172v7.931h-2.344V45.894z"/>
		<path d="M56.221,48.81c0,4.878-3.406,7.004-6.567,7.004c-3.543,0-6.322-2.616-6.322-6.786c0-4.388,2.916-6.977,6.54-6.977
			C53.659,42.051,56.221,44.804,56.221,48.81z M45.783,48.946c0,2.889,1.636,5.068,3.979,5.068c2.289,0,4.006-2.152,4.006-5.123
			c0-2.235-1.117-5.042-3.952-5.042C47.01,43.85,45.783,46.466,45.783,48.946z"/>
		<path d="M59.245,46.438c0-1.553-0.026-2.889-0.108-4.115h2.099l0.109,2.616h0.081c0.6-1.771,2.071-2.889,3.679-2.889
			c0.246,0,0.437,0.027,0.654,0.055v2.262c-0.245-0.054-0.49-0.054-0.817-0.054c-1.689,0-2.889,1.253-3.216,3.052
			c-0.055,0.327-0.082,0.735-0.082,1.117v7.031h-2.398V46.438z"/>
		<path d="M66.903,54.124l5.941-7.768c0.6-0.735,1.145-1.362,1.744-2.07v-0.055h-7.141v-1.908h10.029v1.499l-5.887,7.658
			c-0.572,0.735-1.09,1.417-1.689,2.071v0.055h7.686v1.907H66.903V54.124z"/>
		<path d="M89.332,52.353c0,1.145,0.054,2.262,0.19,3.161H87.37l-0.191-1.662h-0.082c-0.735,1.035-2.152,1.962-4.033,1.962
			c-2.67,0-4.033-1.881-4.033-3.788c0-3.188,2.834-4.933,7.931-4.905v-0.272c0-1.063-0.3-3.053-2.998-3.025
			c-1.253,0-2.534,0.354-3.461,0.981l-0.545-1.608c1.091-0.681,2.698-1.145,4.36-1.145c4.033,0,5.015,2.753,5.015,5.369V52.353z
			 M87.016,48.782c-2.616-0.055-5.587,0.409-5.587,2.971c0,1.58,1.035,2.289,2.234,2.289c1.744,0,2.861-1.09,3.243-2.207
			c0.082-0.272,0.109-0.545,0.109-0.764V48.782z"/>
		<path d="M93.201,46.438c0-1.553-0.027-2.889-0.108-4.115h2.098l0.109,2.616h0.082c0.6-1.771,2.07-2.889,3.679-2.889
			c0.245,0,0.437,0.027,0.654,0.055v2.262c-0.245-0.054-0.491-0.054-0.817-0.054c-1.689,0-2.889,1.253-3.217,3.052
			c-0.054,0.327-0.081,0.735-0.081,1.117v7.031h-2.398V46.438z"/>
		<path d="M100.096,54.097c0-0.981,0.682-1.717,1.636-1.717c0.953,0,1.607,0.708,1.607,1.717c0,0.98-0.654,1.717-1.662,1.717
			C100.75,55.813,100.096,55.077,100.096,54.097z"/>
		<path d="M116.116,37.146v7.686h8.885v-7.686h2.398v18.368h-2.398v-8.611h-8.885v8.611h-2.398V37.146H116.116z"/>
		<path d="M140.698,52.353c0,1.145,0.054,2.262,0.189,3.161h-2.152l-0.191-1.662h-0.081c-0.735,1.035-2.153,1.962-4.033,1.962
			c-2.671,0-4.034-1.881-4.034-3.788c0-3.188,2.835-4.933,7.932-4.905v-0.272c0-1.063-0.301-3.053-2.998-3.025
			c-1.254,0-2.535,0.354-3.461,0.981l-0.545-1.608c1.09-0.681,2.697-1.145,4.359-1.145c4.033,0,5.016,2.753,5.016,5.369V52.353z
			 M138.381,48.782c-2.616-0.055-5.587,0.409-5.587,2.971c0,1.58,1.036,2.289,2.235,2.289c1.744,0,2.861-1.09,3.243-2.207
			c0.082-0.272,0.108-0.545,0.108-0.764V48.782z"/>
		<path d="M153.97,55.051c-0.627,0.3-2.018,0.763-3.789,0.763c-3.979,0-6.567-2.698-6.567-6.731c0-4.061,2.78-7.031,7.085-7.031
			c1.418,0,2.672,0.354,3.325,0.709l-0.545,1.826c-0.572-0.3-1.472-0.627-2.78-0.627c-3.024,0-4.66,2.262-4.66,4.987
			c0,3.052,1.963,4.933,4.579,4.933c1.362,0,2.262-0.327,2.942-0.627L153.97,55.051z"/>
		<path d="M157.948,49.354c0.055,3.243,2.098,4.578,4.523,4.578c1.717,0,2.779-0.3,3.652-0.681l0.436,1.717
			c-0.845,0.382-2.316,0.845-4.415,0.845c-4.061,0-6.485-2.698-6.485-6.677s2.344-7.086,6.186-7.086
			c4.333,0,5.451,3.761,5.451,6.187c0,0.49-0.027,0.845-0.082,1.117H157.948z M164.979,47.638c0.027-1.499-0.627-3.87-3.325-3.87
			c-2.453,0-3.488,2.208-3.679,3.87H164.979z"/>
		<path d="M187.022,55.051c-0.627,0.3-2.017,0.763-3.787,0.763c-3.979,0-6.568-2.698-6.568-6.731c0-4.061,2.779-7.031,7.086-7.031
			c1.416,0,2.67,0.354,3.324,0.709l-0.545,1.826c-0.572-0.3-1.472-0.627-2.779-0.627c-3.025,0-4.66,2.262-4.66,4.987
			c0,3.052,1.962,4.933,4.578,4.933c1.362,0,2.262-0.327,2.943-0.627L187.022,55.051z"/>
		<path d="M199.096,52.353c0,1.145,0.054,2.262,0.19,3.161h-2.152l-0.191-1.662h-0.082c-0.735,1.035-2.152,1.962-4.033,1.962
			c-2.67,0-4.033-1.881-4.033-3.788c0-3.188,2.834-4.933,7.931-4.905v-0.272c0-1.063-0.3-3.053-2.998-3.025
			c-1.253,0-2.534,0.354-3.461,0.981l-0.545-1.608c1.091-0.681,2.698-1.145,4.36-1.145c4.033,0,5.015,2.753,5.015,5.369V52.353z
			 M196.779,48.782c-2.616-0.055-5.587,0.409-5.587,2.971c0,1.58,1.035,2.289,2.234,2.289c1.744,0,2.861-1.09,3.243-2.207
			c0.082-0.272,0.109-0.545,0.109-0.764V48.782z"/>
		<path d="M202.965,36.165h2.398v19.349h-2.398V36.165z"/>
		<path d="M221.333,48.81c0,4.878-3.406,7.004-6.568,7.004c-3.543,0-6.322-2.616-6.322-6.786c0-4.388,2.916-6.977,6.541-6.977
			C218.771,42.051,221.333,44.804,221.333,48.81z M210.896,48.946c0,2.889,1.635,5.068,3.979,5.068c2.289,0,4.006-2.152,4.006-5.123
			c0-2.235-1.117-5.042-3.951-5.042C212.122,43.85,210.896,46.466,210.896,48.946z"/>
		<path d="M224.357,46.438c0-1.553-0.027-2.889-0.108-4.115h2.098l0.109,2.616h0.082c0.6-1.771,2.07-2.889,3.679-2.889
			c0.245,0,0.437,0.027,0.654,0.055v2.262c-0.245-0.054-0.491-0.054-0.817-0.054c-1.689,0-2.889,1.253-3.217,3.052
			c-0.054,0.327-0.081,0.735-0.081,1.117v7.031h-2.398V46.438z"/>
		<path d="M241.496,42.323l2.862,7.795c0.326,0.872,0.653,1.907,0.871,2.697h0.055c0.246-0.79,0.518-1.799,0.845-2.752l2.616-7.74
			h2.535l-3.598,9.402c-1.717,4.523-2.889,6.813-4.523,8.258c-1.199,1.008-2.344,1.417-2.943,1.525l-0.6-1.989
			c0.6-0.19,1.39-0.572,2.098-1.172c0.654-0.518,1.445-1.444,2.018-2.671c0.108-0.245,0.19-0.436,0.19-0.572
			c0-0.136-0.055-0.326-0.19-0.626l-4.852-12.155H241.496z"/>
		<path d="M260.487,53.088c0.736,0.437,1.99,0.927,3.189,0.927c1.717,0,2.533-0.845,2.533-1.962c0-1.145-0.681-1.744-2.425-2.398
			c-2.398-0.872-3.516-2.152-3.516-3.733c0-2.126,1.744-3.87,4.552-3.87c1.335,0,2.507,0.354,3.215,0.817l-0.572,1.744
			c-0.518-0.326-1.471-0.79-2.697-0.79c-1.418,0-2.181,0.817-2.181,1.799c0,1.09,0.763,1.581,2.479,2.262
			c2.263,0.845,3.461,1.989,3.461,3.952c0,2.344-1.825,3.979-4.904,3.979c-1.445,0-2.78-0.382-3.707-0.927L260.487,53.088z"/>
		<path d="M274.277,38.617c0,0.817-0.572,1.472-1.526,1.472c-0.872,0-1.444-0.654-1.444-1.472s0.6-1.499,1.499-1.499
			C273.678,37.118,274.277,37.772,274.277,38.617z M271.606,55.514v-13.19h2.398v13.19H271.606z"/>
		<path d="M279.319,49.354c0.055,3.243,2.098,4.578,4.523,4.578c1.717,0,2.779-0.3,3.652-0.681l0.436,1.717
			c-0.845,0.382-2.316,0.845-4.415,0.845c-4.061,0-6.485-2.698-6.485-6.677s2.344-7.086,6.186-7.086
			c4.333,0,5.451,3.761,5.451,6.187c0,0.49-0.027,0.845-0.082,1.117H279.319z M286.351,47.638c0.027-1.499-0.627-3.87-3.325-3.87
			c-2.453,0-3.488,2.208-3.679,3.87H286.351z"/>
		<path d="M291.637,45.894c0-1.39-0.027-2.479-0.108-3.57h2.125l0.137,2.181h0.055c0.654-1.227,2.18-2.453,4.359-2.453
			c1.826,0,4.661,1.091,4.661,5.614v7.849h-2.398V47.91c0-2.126-0.79-3.896-3.052-3.896c-1.555,0-2.78,1.117-3.217,2.452
			c-0.109,0.3-0.163,0.709-0.163,1.117v7.931h-2.398V45.894z"/>
		<path d="M309.541,39.162v3.161h3.434v1.826h-3.434v7.113c0,1.635,0.464,2.562,1.799,2.562c0.654,0,1.035-0.055,1.39-0.164
			l0.109,1.826c-0.464,0.164-1.199,0.327-2.126,0.327c-1.117,0-2.017-0.382-2.589-1.009c-0.654-0.735-0.927-1.907-0.927-3.461
			v-7.194h-2.044v-1.826h2.044v-2.452L309.541,39.162z"/>
		<path d="M316.846,49.354c0.054,3.243,2.098,4.578,4.523,4.578c1.717,0,2.779-0.3,3.651-0.681l0.437,1.717
			c-0.845,0.382-2.316,0.845-4.415,0.845c-4.061,0-6.486-2.698-6.486-6.677s2.344-7.086,6.187-7.086c4.333,0,5.45,3.761,5.45,6.187
			c0,0.49-0.027,0.845-0.081,1.117H316.846z M323.876,47.638c0.027-1.499-0.626-3.87-3.324-3.87c-2.453,0-3.488,2.208-3.68,3.87
			H323.876z"/>
		<path d="M347.555,51.889c0,1.391,0.027,2.59,0.109,3.625h-2.126l-0.136-2.153h-0.055c-0.6,1.063-2.017,2.453-4.36,2.453
			c-2.071,0-4.552-1.172-4.552-5.777v-7.713h2.398V49.6c0,2.508,0.79,4.225,2.943,4.225c1.608,0,2.726-1.117,3.161-2.208
			c0.137-0.326,0.218-0.763,0.218-1.226v-8.067h2.398V51.889z"/>
		<path d="M351.533,45.894c0-1.39-0.027-2.479-0.108-3.57h2.125l0.137,2.181h0.055c0.653-1.227,2.18-2.453,4.36-2.453
			c1.825,0,4.66,1.091,4.66,5.614v7.849h-2.398V47.91c0-2.126-0.79-3.896-3.053-3.896c-1.553,0-2.779,1.117-3.216,2.452
			c-0.108,0.3-0.163,0.709-0.163,1.117v7.931h-2.398V45.894z"/>
		<path d="M374.014,46.63c0-1.69-0.055-3.053-0.108-4.307h2.125l0.137,2.263h0.055c0.953-1.608,2.534-2.535,4.687-2.535
			c3.216,0,5.614,2.698,5.614,6.677c0,4.742-2.916,7.086-6.022,7.086c-1.744,0-3.271-0.763-4.061-2.071h-0.055v7.167h-2.371V46.63z
			 M376.385,50.145c0,0.354,0.027,0.682,0.109,0.981c0.436,1.662,1.88,2.807,3.597,2.807c2.535,0,4.006-2.07,4.006-5.096
			c0-2.616-1.39-4.878-3.924-4.878c-1.635,0-3.188,1.145-3.625,2.943c-0.081,0.3-0.163,0.653-0.163,0.953V50.145z"/>
		<path d="M401.456,48.81c0,4.878-3.406,7.004-6.567,7.004c-3.543,0-6.323-2.616-6.323-6.786c0-4.388,2.916-6.977,6.541-6.977
			C398.895,42.051,401.456,44.804,401.456,48.81z M391.019,48.946c0,2.889,1.635,5.068,3.979,5.068c2.289,0,4.007-2.152,4.007-5.123
			c0-2.235-1.118-5.042-3.952-5.042C392.245,43.85,391.019,46.466,391.019,48.946z"/>
		<path d="M413.883,55.051c-0.627,0.3-2.017,0.763-3.788,0.763c-3.979,0-6.568-2.698-6.568-6.731c0-4.061,2.78-7.031,7.086-7.031
			c1.417,0,2.671,0.354,3.325,0.709l-0.546,1.826c-0.572-0.3-1.471-0.627-2.779-0.627c-3.025,0-4.66,2.262-4.66,4.987
			c0,3.052,1.962,4.933,4.578,4.933c1.363,0,2.263-0.327,2.943-0.627L413.883,55.051z"/>
		<path d="M428.462,48.81c0,4.878-3.406,7.004-6.567,7.004c-3.543,0-6.323-2.616-6.323-6.786c0-4.388,2.916-6.977,6.541-6.977
			C425.9,42.051,428.462,44.804,428.462,48.81z M418.024,48.946c0,2.889,1.635,5.068,3.979,5.068c2.289,0,4.007-2.152,4.007-5.123
			c0-2.235-1.118-5.042-3.952-5.042C419.251,43.85,418.024,46.466,418.024,48.946z"/>
		<path d="M13.354,68.867V84.81c0,1.172,0.055,2.507,0.108,3.406h-2.125l-0.109-2.289h-0.082c-0.708,1.472-2.289,2.589-4.441,2.589
			c-3.188,0-5.668-2.698-5.668-6.704c-0.027-4.388,2.725-7.059,5.913-7.059c2.044,0,3.38,0.954,3.979,1.989h0.054v-7.875H13.354z
			 M10.982,80.395c0-0.3-0.026-0.709-0.108-1.009c-0.354-1.498-1.662-2.752-3.461-2.752c-2.48,0-3.952,2.18-3.952,5.068
			c0,2.671,1.335,4.879,3.897,4.879c1.607,0,3.079-1.091,3.516-2.862c0.082-0.326,0.108-0.653,0.108-1.035V80.395z"/>
		<path d="M18.694,82.057c0.055,3.243,2.1,4.578,4.524,4.578c1.717,0,2.78-0.3,3.651-0.681l0.437,1.717
			c-0.845,0.382-2.316,0.845-4.415,0.845c-4.061,0-6.486-2.698-6.486-6.677s2.344-7.086,6.187-7.086c4.333,0,5.45,3.761,5.45,6.187
			c0,0.49-0.027,0.845-0.082,1.117H18.694z M25.726,80.34c0.027-1.499-0.627-3.87-3.324-3.87c-2.453,0-3.488,2.208-3.68,3.87H25.726
			z"/>
		<path d="M42.114,85.79c0.735,0.437,1.988,0.927,3.188,0.927c1.717,0,2.535-0.845,2.535-1.962c0-1.145-0.682-1.744-2.426-2.398
			c-2.398-0.872-3.516-2.152-3.516-3.733c0-2.126,1.744-3.87,4.551-3.87c1.336,0,2.508,0.354,3.217,0.818l-0.572,1.744
			c-0.519-0.327-1.473-0.791-2.699-0.791c-1.416,0-2.18,0.817-2.18,1.799c0,1.09,0.764,1.581,2.48,2.262
			c2.262,0.845,3.461,1.989,3.461,3.952c0,2.344-1.826,3.979-4.906,3.979c-1.443,0-2.779-0.382-3.706-0.927L42.114,85.79z"/>
		<path d="M65.169,81.512c0,4.878-3.406,7.004-6.568,7.004c-3.542,0-6.322-2.616-6.322-6.786c0-4.388,2.916-6.977,6.541-6.977
			C62.607,74.753,65.169,77.506,65.169,81.512z M54.731,81.648c0,2.889,1.635,5.068,3.979,5.068c2.289,0,4.006-2.152,4.006-5.123
			c0-2.235-1.117-5.042-3.951-5.042C55.958,76.552,54.731,79.168,54.731,81.648z"/>
		<path d="M68.194,79.332c0-1.69-0.055-3.053-0.109-4.307h2.125l0.137,2.263h0.055c0.954-1.608,2.535-2.535,4.688-2.535
			c3.216,0,5.613,2.698,5.613,6.677c0,4.742-2.916,7.086-6.021,7.086c-1.744,0-3.271-0.763-4.061-2.071h-0.055v7.167h-2.371V79.332z
			 M70.565,82.847c0,0.354,0.027,0.682,0.108,0.981c0.437,1.662,1.88,2.807,3.598,2.807c2.534,0,4.006-2.07,4.006-5.096
			c0-2.616-1.39-4.878-3.925-4.878c-1.635,0-3.188,1.145-3.624,2.943c-0.082,0.3-0.163,0.653-0.163,0.953V82.847z"/>
		<path d="M95.637,81.512c0,4.878-3.406,7.004-6.567,7.004c-3.543,0-6.322-2.616-6.322-6.786c0-4.388,2.916-6.977,6.54-6.977
			C93.075,74.753,95.637,77.506,95.637,81.512z M85.199,81.648c0,2.889,1.636,5.068,3.979,5.068c2.289,0,4.006-2.152,4.006-5.123
			c0-2.235-1.117-5.042-3.952-5.042C86.426,76.552,85.199,79.168,85.199,81.648z"/>
		<path d="M98.661,79.141c0-1.553-0.026-2.889-0.108-4.115h2.099l0.109,2.616h0.081c0.6-1.771,2.071-2.889,3.679-2.889
			c0.246,0,0.437,0.027,0.654,0.055v2.262c-0.245-0.054-0.49-0.054-0.817-0.054c-1.689,0-2.889,1.253-3.216,3.052
			c-0.055,0.327-0.082,0.736-0.082,1.117v7.031h-2.398V79.141z"/>
		<path d="M105.557,86.799c0-0.981,0.682-1.717,1.636-1.717c0.953,0,1.607,0.708,1.607,1.717c0,0.981-0.654,1.717-1.662,1.717
			C106.211,88.516,105.557,87.78,105.557,86.799z"/>
		<path d="M123.279,70.065c1.145-0.19,2.644-0.354,4.551-0.354c2.344,0,4.061,0.545,5.151,1.525c0.98,0.872,1.607,2.208,1.607,3.843
			c0,1.662-0.49,2.971-1.417,3.925c-1.281,1.335-3.298,2.017-5.614,2.017c-0.709,0-1.362-0.027-1.908-0.164v7.358h-2.37V70.065z
			 M125.649,78.923c0.519,0.137,1.172,0.19,1.963,0.19c2.861,0,4.605-1.417,4.605-3.896c0-2.453-1.744-3.625-4.333-3.625
			c-1.036,0-1.825,0.082-2.235,0.191V78.923z"/>
		<path d="M139.931,71.319c0,0.817-0.572,1.472-1.526,1.472c-0.872,0-1.444-0.654-1.444-1.472s0.6-1.499,1.499-1.499
			C139.331,69.82,139.931,70.475,139.931,71.319z M137.26,88.216v-13.19h2.398v13.19H137.26z"/>
		<path d="M155.001,68.867V84.81c0,1.172,0.055,2.507,0.109,3.406h-2.126l-0.108-2.289h-0.082c-0.709,1.472-2.289,2.589-4.442,2.589
			c-3.188,0-5.669-2.698-5.669-6.704c-0.027-4.388,2.726-7.059,5.914-7.059c2.044,0,3.379,0.954,3.979,1.989h0.055v-7.875H155.001z
			 M152.63,80.395c0-0.3-0.027-0.709-0.109-1.009c-0.354-1.498-1.662-2.752-3.461-2.752c-2.479,0-3.951,2.18-3.951,5.068
			c0,2.671,1.336,4.879,3.896,4.879c1.608,0,3.08-1.091,3.516-2.862c0.082-0.326,0.109-0.653,0.109-1.035V80.395z"/>
		<path d="M160.343,82.057c0.055,3.243,2.098,4.578,4.523,4.578c1.717,0,2.779-0.3,3.652-0.681l0.436,1.717
			c-0.845,0.382-2.316,0.845-4.415,0.845c-4.061,0-6.485-2.698-6.485-6.677s2.344-7.086,6.186-7.086
			c4.333,0,5.451,3.761,5.451,6.187c0,0.49-0.027,0.845-0.082,1.117H160.343z M167.374,80.34c0.027-1.499-0.627-3.87-3.325-3.87
			c-2.453,0-3.488,2.208-3.679,3.87H167.374z"/>
		<path d="M195.124,84.591c0,1.391,0.027,2.59,0.109,3.625h-2.125l-0.137-2.153h-0.055c-0.6,1.063-2.017,2.453-4.359,2.453
			c-2.072,0-4.552-1.172-4.552-5.777v-7.713h2.397v7.276c0,2.508,0.791,4.225,2.943,4.225c1.608,0,2.726-1.117,3.162-2.208
			c0.136-0.326,0.218-0.763,0.218-1.226v-8.067h2.397V84.591z"/>
		<path d="M199.103,78.596c0-1.39-0.026-2.479-0.108-3.57h2.126l0.136,2.181h0.055c0.654-1.227,2.181-2.453,4.36-2.453
			c1.826,0,4.66,1.091,4.66,5.614v7.849h-2.398v-7.604c0-2.126-0.79-3.896-3.052-3.896c-1.554,0-2.78,1.117-3.216,2.452
			c-0.109,0.3-0.164,0.709-0.164,1.117v7.931h-2.398V78.596z"/>
		<path d="M235.058,87.753c-0.627,0.3-2.017,0.763-3.787,0.763c-3.979,0-6.568-2.698-6.568-6.731c0-4.061,2.779-7.031,7.086-7.031
			c1.416,0,2.67,0.354,3.324,0.709l-0.545,1.826c-0.572-0.3-1.472-0.627-2.779-0.627c-3.025,0-4.66,2.262-4.66,4.987
			c0,3.052,1.962,4.933,4.578,4.933c1.362,0,2.262-0.327,2.943-0.627L235.058,87.753z"/>
		<path d="M247.131,85.055c0,1.145,0.054,2.262,0.19,3.161h-2.152l-0.191-1.662h-0.082c-0.735,1.035-2.152,1.962-4.033,1.962
			c-2.67,0-4.033-1.881-4.033-3.788c0-3.188,2.834-4.933,7.931-4.905V79.55c0-1.063-0.3-3.053-2.998-3.025
			c-1.253,0-2.534,0.354-3.461,0.981l-0.545-1.608c1.091-0.681,2.698-1.145,4.36-1.145c4.033,0,5.015,2.753,5.015,5.369V85.055z
			 M244.814,81.484c-2.616-0.055-5.587,0.409-5.587,2.971c0,1.581,1.035,2.289,2.234,2.289c1.744,0,2.861-1.09,3.243-2.207
			c0.082-0.272,0.109-0.545,0.109-0.764V81.484z"/>
		<path d="M251.245,88.216V76.852h-1.826v-1.826h1.826v-0.626c0-1.854,0.437-3.543,1.526-4.606c0.899-0.872,2.099-1.226,3.216-1.226
			c0.872,0,1.58,0.19,2.044,0.381l-0.327,1.854c-0.354-0.164-0.817-0.3-1.525-0.3c-2.045,0-2.562,1.771-2.562,3.815v0.708h3.188
			v1.826h-3.188v11.364H251.245z"/>
		<path d="M259.938,82.057c0.055,3.243,2.1,4.578,4.524,4.578c1.717,0,2.78-0.3,3.651-0.681l0.437,1.717
			c-0.845,0.382-2.316,0.845-4.415,0.845c-4.061,0-6.486-2.698-6.486-6.677s2.344-7.086,6.187-7.086c4.333,0,5.45,3.761,5.45,6.187
			c0,0.49-0.027,0.845-0.082,1.117H259.938z M266.97,80.34c0.027-1.499-0.627-3.87-3.324-3.87c-2.453,0-3.488,2.208-3.68,3.87
			H266.97z M267.515,69.33l-3.324,3.897h-1.689l2.398-3.897H267.515z"/>
		<path d="M283.685,79.332c0-1.69-0.055-3.053-0.109-4.307h2.126l0.137,2.263h0.054c0.955-1.608,2.535-2.535,4.688-2.535
			c3.217,0,5.614,2.698,5.614,6.677c0,4.742-2.916,7.086-6.022,7.086c-1.744,0-3.271-0.763-4.061-2.071h-0.055v7.167h-2.371V79.332z
			 M286.056,82.847c0,0.354,0.027,0.682,0.109,0.981c0.436,1.662,1.88,2.807,3.597,2.807c2.534,0,4.007-2.07,4.007-5.096
			c0-2.616-1.391-4.878-3.925-4.878c-1.636,0-3.188,1.145-3.624,2.943c-0.082,0.3-0.164,0.653-0.164,0.953V82.847z"/>
		<path d="M308.457,85.055c0,1.145,0.055,2.262,0.19,3.161h-2.152l-0.191-1.662h-0.082c-0.735,1.035-2.152,1.962-4.033,1.962
			c-2.67,0-4.033-1.881-4.033-3.788c0-3.188,2.834-4.933,7.931-4.905V79.55c0-1.063-0.3-3.053-2.998-3.025
			c-1.253,0-2.534,0.354-3.461,0.981l-0.545-1.608c1.091-0.681,2.698-1.145,4.36-1.145c4.033,0,5.015,2.753,5.015,5.369V85.055z
			 M306.141,81.484c-2.616-0.055-5.587,0.409-5.587,2.971c0,1.581,1.035,2.289,2.234,2.289c1.744,0,2.861-1.09,3.243-2.207
			c0.082-0.272,0.109-0.545,0.109-0.764V81.484z"/>
		<path d="M312.326,79.141c0-1.553-0.027-2.889-0.108-4.115h2.098l0.109,2.616h0.082c0.6-1.771,2.071-2.889,3.679-2.889
			c0.245,0,0.437,0.027,0.654,0.055v2.262c-0.245-0.054-0.491-0.054-0.817-0.054c-1.69,0-2.889,1.253-3.216,3.052
			c-0.055,0.327-0.082,0.736-0.082,1.117v7.031h-2.398V79.141z"/>
		<path d="M330.367,85.055c0,1.145,0.055,2.262,0.191,3.161h-2.153l-0.19-1.662h-0.082c-0.735,1.035-2.153,1.962-4.033,1.962
			c-2.671,0-4.033-1.881-4.033-3.788c0-3.188,2.834-4.933,7.93-4.905V79.55c0-1.063-0.3-3.053-2.997-3.025
			c-1.254,0-2.535,0.354-3.461,0.981l-0.545-1.608c1.09-0.681,2.697-1.145,4.36-1.145c4.033,0,5.014,2.753,5.014,5.369V85.055z
			 M328.051,81.484c-2.616-0.055-5.587,0.409-5.587,2.971c0,1.581,1.036,2.289,2.235,2.289c1.744,0,2.861-1.09,3.243-2.207
			c0.081-0.272,0.108-0.545,0.108-0.764V81.484z"/>
		<path d="M345.664,68.867h2.398v19.349h-2.398V68.867z"/>
		<path d="M352.096,68.867h2.398v19.349h-2.398V68.867z"/>
		<path d="M359.863,82.057c0.054,3.243,2.098,4.578,4.523,4.578c1.717,0,2.779-0.3,3.651-0.681l0.437,1.717
			c-0.845,0.382-2.316,0.845-4.415,0.845c-4.061,0-6.486-2.698-6.486-6.677s2.344-7.086,6.187-7.086c4.333,0,5.45,3.761,5.45,6.187
			c0,0.49-0.027,0.845-0.081,1.117H359.863z M366.894,80.34c0.027-1.499-0.626-3.87-3.324-3.87c-2.453,0-3.488,2.208-3.68,3.87
			H366.894z"/>
		<path d="M373.107,75.025l2.589,7.386c0.437,1.227,0.79,2.316,1.062,3.406h0.082c0.3-1.09,0.682-2.18,1.117-3.406l2.562-7.386
			h2.508l-5.178,13.19h-2.289l-5.015-13.19H373.107z"/>
		<path d="M394.446,85.055c0,1.145,0.055,2.262,0.191,3.161h-2.153l-0.19-1.662h-0.082c-0.736,1.035-2.153,1.962-4.033,1.962
			c-2.671,0-4.033-1.881-4.033-3.788c0-3.188,2.834-4.933,7.93-4.905V79.55c0-1.063-0.3-3.053-2.997-3.025
			c-1.254,0-2.535,0.354-3.461,0.981l-0.545-1.608c1.09-0.681,2.697-1.145,4.36-1.145c4.033,0,5.014,2.753,5.014,5.369V85.055z
			 M392.13,81.484c-2.616-0.055-5.587,0.409-5.587,2.971c0,1.581,1.036,2.289,2.235,2.289c1.744,0,2.861-1.09,3.243-2.207
			c0.081-0.272,0.108-0.545,0.108-0.764V81.484z"/>
		<path d="M398.316,79.141c0-1.553-0.027-2.889-0.108-4.115h2.098l0.109,2.616h0.082c0.6-1.771,2.071-2.889,3.679-2.889
			c0.245,0,0.437,0.027,0.654,0.055v2.262c-0.245-0.054-0.491-0.054-0.817-0.054c-1.69,0-2.889,1.253-3.216,3.052
			c-0.055,0.327-0.082,0.736-0.082,1.117v7.031h-2.398V79.141z"/>
		<path d="M419.527,75.025l2.861,7.795c0.327,0.872,0.654,1.907,0.872,2.697h0.055c0.245-0.79,0.518-1.799,0.845-2.752l2.616-7.74
			h2.535l-3.598,9.402c-1.717,4.523-2.889,6.813-4.524,8.258c-1.198,1.008-2.343,1.417-2.942,1.525l-0.6-1.989
			c0.6-0.19,1.39-0.572,2.098-1.172c0.654-0.518,1.444-1.444,2.017-2.671c0.109-0.245,0.191-0.436,0.191-0.572
			c0-0.136-0.055-0.326-0.191-0.626l-4.851-12.155H419.527z"/>
		<path d="M13.026,117.294c0,1.391,0.027,2.59,0.109,3.625H11.01l-0.136-2.153h-0.055c-0.6,1.063-2.018,2.453-4.36,2.453
			c-2.071,0-4.552-1.172-4.552-5.777v-7.713h2.398v7.276c0,2.508,0.791,4.225,2.943,4.225c1.607,0,2.725-1.117,3.161-2.208
			c0.136-0.326,0.218-0.763,0.218-1.226v-8.067h2.398V117.294z"/>
		<path d="M17.005,111.299c0-1.39-0.027-2.479-0.109-3.57h2.126l0.137,2.181h0.054c0.654-1.227,2.181-2.453,4.361-2.453
			c1.826,0,4.66,1.091,4.66,5.614v7.849h-2.398v-7.604c0-2.126-0.791-3.896-3.053-3.896c-1.553,0-2.779,1.117-3.215,2.452
			c-0.109,0.3-0.164,0.709-0.164,1.117v7.931h-2.398V111.299z"/>
		<path d="M41.396,117.758c0,1.145,0.055,2.262,0.191,3.161h-2.153l-0.19-1.662h-0.082c-0.736,1.035-2.152,1.962-4.033,1.962
			c-2.671,0-4.033-1.881-4.033-3.788c0-3.188,2.834-4.933,7.93-4.905v-0.272c0-1.063-0.299-3.053-2.997-3.025
			c-1.254,0-2.534,0.354-3.462,0.981l-0.545-1.608c1.091-0.681,2.698-1.145,4.361-1.145c4.033,0,5.014,2.753,5.014,5.369V117.758z
			 M39.079,114.188c-2.616-0.055-5.586,0.409-5.586,2.971c0,1.581,1.035,2.289,2.234,2.289c1.744,0,2.861-1.09,3.242-2.207
			c0.082-0.272,0.109-0.545,0.109-0.764V114.188z"/>
		<path d="M50.129,101.57H52.5v8.284h0.055c0.845-1.472,2.37-2.398,4.497-2.398c3.297,0,5.586,2.726,5.586,6.704
			c0,4.715-2.998,7.059-5.941,7.059c-1.907,0-3.434-0.735-4.441-2.453H52.2l-0.137,2.153h-2.043
			c0.055-0.899,0.108-2.234,0.108-3.406V101.57z M52.5,115.632c0,0.3,0.027,0.6,0.108,0.872c0.437,1.662,1.854,2.808,3.598,2.808
			c2.535,0,4.006-2.044,4.006-5.069c0-2.644-1.362-4.905-3.951-4.905c-1.607,0-3.134,1.145-3.625,2.943
			c-0.081,0.3-0.136,0.627-0.136,1.008V115.632z"/>
		<path d="M77.571,114.215c0,4.878-3.406,7.004-6.567,7.004c-3.542,0-6.322-2.616-6.322-6.786c0-4.388,2.916-6.977,6.54-6.977
			C75.011,107.456,77.571,110.209,77.571,114.215z M67.134,114.352c0,2.889,1.636,5.068,3.979,5.068
			c2.289,0,4.006-2.152,4.006-5.123c0-2.235-1.117-5.042-3.952-5.042C68.36,109.255,67.134,111.871,67.134,114.352z"/>
		<path d="M83.485,104.567v3.161h3.434v1.826h-3.434v7.113c0,1.635,0.463,2.562,1.799,2.562c0.654,0,1.035-0.055,1.39-0.164
			l0.109,1.826c-0.464,0.164-1.199,0.327-2.126,0.327c-1.117,0-2.017-0.382-2.589-1.009c-0.653-0.735-0.927-1.907-0.927-3.461
			v-7.194h-2.043v-1.826h2.043v-2.452L83.485,104.567z"/>
		<path d="M90.789,114.76c0.055,3.243,2.099,4.578,4.524,4.578c1.717,0,2.779-0.3,3.651-0.681l0.437,1.717
			c-0.846,0.382-2.316,0.845-4.416,0.845c-4.061,0-6.485-2.698-6.485-6.677s2.344-7.086,6.187-7.086c4.333,0,5.45,3.761,5.45,6.187
			c0,0.49-0.027,0.845-0.082,1.117H90.789z M97.82,113.043c0.027-1.499-0.627-3.87-3.325-3.87c-2.452,0-3.488,2.208-3.679,3.87
			H97.82z"/>
		<path d="M103.106,101.57h2.398v19.349h-2.398V101.57z"/>
		<path d="M109.538,101.57h2.398v19.349h-2.398V101.57z"/>
		<path d="M125.235,117.758c0,1.145,0.055,2.262,0.19,3.161h-2.153l-0.19-1.662h-0.081c-0.736,1.035-2.153,1.962-4.033,1.962
			c-2.672,0-4.034-1.881-4.034-3.788c0-3.188,2.835-4.933,7.931-4.905v-0.272c0-1.063-0.3-3.053-2.998-3.025
			c-1.254,0-2.534,0.354-3.461,0.981l-0.545-1.608c1.09-0.681,2.698-1.145,4.36-1.145c4.033,0,5.015,2.753,5.015,5.369V117.758z
			 M122.919,114.188c-2.616-0.055-5.587,0.409-5.587,2.971c0,1.581,1.036,2.289,2.235,2.289c1.744,0,2.861-1.09,3.242-2.207
			c0.082-0.272,0.109-0.545,0.109-0.764V114.188z"/>
		<path d="M145.333,101.57v15.942c0,1.172,0.055,2.507,0.108,3.406h-2.126l-0.108-2.289h-0.082
			c-0.708,1.472-2.289,2.589-4.442,2.589c-3.188,0-5.668-2.698-5.668-6.704c-0.027-4.388,2.725-7.059,5.914-7.059
			c2.043,0,3.379,0.954,3.979,1.989h0.055v-7.875H145.333z M142.962,113.098c0-0.3-0.027-0.709-0.109-1.009
			c-0.354-1.498-1.662-2.752-3.461-2.752c-2.48,0-3.951,2.18-3.951,5.068c0,2.671,1.335,4.879,3.896,4.879
			c1.607,0,3.08-1.091,3.516-2.862c0.082-0.326,0.109-0.653,0.109-1.035V113.098z"/>
		<path d="M150.674,114.76c0.055,3.243,2.099,4.578,4.524,4.578c1.717,0,2.779-0.3,3.651-0.681l0.437,1.717
			c-0.846,0.382-2.316,0.845-4.416,0.845c-4.061,0-6.485-2.698-6.485-6.677s2.344-7.086,6.187-7.086c4.333,0,5.45,3.761,5.45,6.187
			c0,0.49-0.027,0.845-0.082,1.117H150.674z M157.705,113.043c0.027-1.499-0.627-3.87-3.325-3.87c-2.452,0-3.488,2.208-3.679,3.87
			H157.705z"/>
		<path d="M177.122,117.758c0,1.145,0.054,2.262,0.189,3.161h-2.152l-0.191-1.662h-0.081c-0.735,1.035-2.153,1.962-4.033,1.962
			c-2.671,0-4.034-1.881-4.034-3.788c0-3.188,2.835-4.933,7.932-4.905v-0.272c0-1.063-0.301-3.053-2.998-3.025
			c-1.254,0-2.535,0.354-3.461,0.981l-0.545-1.608c1.09-0.681,2.697-1.145,4.359-1.145c4.033,0,5.016,2.753,5.016,5.369V117.758z
			 M174.805,114.188c-2.616-0.055-5.587,0.409-5.587,2.971c0,1.581,1.036,2.289,2.235,2.289c1.744,0,2.861-1.09,3.243-2.207
			c0.082-0.272,0.108-0.545,0.108-0.764V114.188z"/>
		<path d="M192.273,118.984c0,3.052-0.627,4.878-1.88,6.05c-1.309,1.172-3.162,1.58-4.824,1.58c-1.58,0-3.324-0.381-4.388-1.09
			l0.6-1.853c0.872,0.572,2.234,1.062,3.87,1.062c2.452,0,4.251-1.281,4.251-4.633v-1.444h-0.055
			c-0.708,1.227-2.153,2.207-4.196,2.207c-3.271,0-5.614-2.779-5.614-6.432c0-4.469,2.916-6.977,5.968-6.977
			c2.289,0,3.516,1.172,4.115,2.263h0.055l0.082-1.99h2.125c-0.081,0.927-0.108,2.017-0.108,3.598V118.984z M189.875,112.934
			c0-0.408-0.027-0.763-0.136-1.062c-0.437-1.417-1.581-2.562-3.353-2.562c-2.289,0-3.925,1.935-3.925,4.987
			c0,2.589,1.336,4.741,3.897,4.741c1.499,0,2.835-0.926,3.325-2.452c0.137-0.409,0.19-0.872,0.19-1.281V112.934z"/>
		<path d="M207.262,117.294c0,1.391,0.027,2.59,0.109,3.625h-2.126l-0.137-2.153h-0.054c-0.6,1.063-2.017,2.453-4.36,2.453
			c-2.071,0-4.551-1.172-4.551-5.777v-7.713h2.397v7.276c0,2.508,0.79,4.225,2.943,4.225c1.608,0,2.726-1.117,3.161-2.208
			c0.137-0.326,0.219-0.763,0.219-1.226v-8.067h2.397V117.294z"/>
		<path d="M220.507,117.758c0,1.145,0.054,2.262,0.189,3.161h-2.152l-0.191-1.662h-0.081c-0.735,1.035-2.153,1.962-4.033,1.962
			c-2.671,0-4.034-1.881-4.034-3.788c0-3.188,2.835-4.933,7.932-4.905v-0.272c0-1.063-0.301-3.053-2.998-3.025
			c-1.254,0-2.535,0.354-3.461,0.981l-0.545-1.608c1.09-0.681,2.697-1.145,4.359-1.145c4.033,0,5.016,2.753,5.016,5.369V117.758z
			 M218.189,114.188c-2.616-0.055-5.587,0.409-5.587,2.971c0,1.581,1.036,2.289,2.235,2.289c1.744,0,2.861-1.09,3.243-2.207
			c0.082-0.272,0.108-0.545,0.108-0.764V114.188z"/>
		<path d="M223.804,119.502c0-0.981,0.682-1.717,1.635-1.717s1.607,0.708,1.607,1.717c0,0.981-0.654,1.717-1.662,1.717
			C224.458,121.219,223.804,120.483,223.804,119.502z"/>
		<path d="M237.933,115.142l-1.908,5.777h-2.453l6.269-18.368h2.835l6.268,18.368h-2.535l-1.962-5.777H237.933z M243.982,113.288
			l-1.826-5.287c-0.409-1.198-0.681-2.289-0.954-3.352h-0.055c-0.271,1.062-0.545,2.207-0.926,3.325l-1.799,5.313H243.982z"/>
		<path d="M251.477,111.299c0-1.39-0.027-2.479-0.108-3.57h2.125l0.137,2.181h0.055c0.654-1.227,2.18-2.453,4.359-2.453
			c1.826,0,4.66,1.091,4.66,5.614v7.849h-2.397v-7.604c0-2.126-0.79-3.896-3.052-3.896c-1.555,0-2.78,1.117-3.217,2.452
			c-0.109,0.3-0.163,0.709-0.163,1.117v7.931h-2.398V111.299z"/>
		<path d="M269.382,104.567v3.161h3.434v1.826h-3.434v7.113c0,1.635,0.463,2.562,1.799,2.562c0.654,0,1.035-0.055,1.39-0.164
			l0.108,1.826c-0.463,0.164-1.199,0.327-2.125,0.327c-1.117,0-2.018-0.382-2.59-1.009c-0.653-0.735-0.926-1.907-0.926-3.461v-7.194
			h-2.044v-1.826h2.044v-2.452L269.382,104.567z"/>
		<path d="M276.686,114.76c0.055,3.243,2.099,4.578,4.524,4.578c1.717,0,2.779-0.3,3.651-0.681l0.437,1.717
			c-0.846,0.382-2.316,0.845-4.416,0.845c-4.061,0-6.485-2.698-6.485-6.677s2.344-7.086,6.187-7.086c4.333,0,5.45,3.761,5.45,6.187
			c0,0.49-0.027,0.845-0.082,1.117H276.686z M283.717,113.043c0.027-1.499-0.627-3.87-3.325-3.87c-2.452,0-3.488,2.208-3.679,3.87
			H283.717z"/>
		<path d="M288.677,118.493c0.735,0.437,1.989,0.927,3.188,0.927c1.717,0,2.534-0.845,2.534-1.962c0-1.145-0.682-1.744-2.426-2.398
			c-2.398-0.872-3.516-2.152-3.516-3.733c0-2.126,1.744-3.87,4.552-3.87c1.335,0,2.507,0.354,3.216,0.818l-0.572,1.744
			c-0.518-0.327-1.472-0.791-2.698-0.791c-1.417,0-2.181,0.817-2.181,1.799c0,1.09,0.764,1.581,2.48,2.262
			c2.262,0.845,3.461,1.989,3.461,3.952c0,2.344-1.826,3.979-4.905,3.979c-1.444,0-2.78-0.382-3.706-0.927L288.677,118.493z"/>
		<path d="M316.023,101.57v15.942c0,1.172,0.055,2.507,0.109,3.406h-2.126l-0.109-2.289h-0.081
			c-0.709,1.472-2.289,2.589-4.442,2.589c-3.188,0-5.669-2.698-5.669-6.704c-0.026-4.388,2.726-7.059,5.914-7.059
			c2.044,0,3.379,0.954,3.979,1.989h0.055v-7.875H316.023z M313.652,113.098c0-0.3-0.027-0.709-0.108-1.009
			c-0.354-1.498-1.663-2.752-3.461-2.752c-2.48,0-3.952,2.18-3.952,5.068c0,2.671,1.335,4.879,3.897,4.879
			c1.607,0,3.079-1.091,3.516-2.862c0.081-0.326,0.108-0.653,0.108-1.035V113.098z"/>
		<path d="M321.365,114.76c0.054,3.243,2.098,4.578,4.523,4.578c1.717,0,2.779-0.3,3.651-0.681l0.437,1.717
			c-0.845,0.382-2.316,0.845-4.415,0.845c-4.061,0-6.486-2.698-6.486-6.677s2.344-7.086,6.187-7.086c4.333,0,5.45,3.761,5.45,6.187
			c0,0.49-0.027,0.845-0.081,1.117H321.365z M328.396,113.043c0.027-1.499-0.626-3.87-3.324-3.87c-2.453,0-3.488,2.208-3.68,3.87
			H328.396z"/>
		<path d="M339.882,114.76c0.054,3.243,2.098,4.578,4.523,4.578c1.717,0,2.779-0.3,3.651-0.681l0.437,1.717
			c-0.845,0.382-2.316,0.845-4.415,0.845c-4.061,0-6.486-2.698-6.486-6.677s2.344-7.086,6.187-7.086c4.333,0,5.45,3.761,5.45,6.187
			c0,0.49-0.026,0.845-0.081,1.117H339.882z M346.912,113.043c0.027-1.499-0.626-3.87-3.324-3.87c-2.453,0-3.488,2.208-3.68,3.87
			H346.912z"/>
		<path d="M352.199,111.299c0-1.39-0.027-2.479-0.108-3.57h2.125l0.137,2.181h0.055c0.653-1.227,2.18-2.453,4.36-2.453
			c1.825,0,4.66,1.091,4.66,5.614v7.849h-2.398v-7.604c0-2.126-0.79-3.896-3.053-3.896c-1.553,0-2.779,1.117-3.216,2.452
			c-0.108,0.3-0.163,0.709-0.163,1.117v7.931h-2.398V111.299z"/>
		<path d="M370.104,104.567v3.161h3.434v1.826h-3.434v7.113c0,1.635,0.464,2.562,1.799,2.562c0.654,0,1.035-0.055,1.39-0.164
			l0.109,1.826c-0.464,0.164-1.199,0.327-2.126,0.327c-1.117,0-2.017-0.382-2.589-1.009c-0.654-0.735-0.927-1.907-0.927-3.461
			v-7.194h-2.044v-1.826h2.044v-2.452L370.104,104.567z"/>
		<path d="M376.236,111.844c0-1.553-0.027-2.889-0.108-4.115h2.098l0.109,2.616h0.082c0.6-1.771,2.071-2.889,3.679-2.889
			c0.245,0,0.437,0.027,0.654,0.055v2.262c-0.245-0.054-0.491-0.054-0.817-0.054c-1.69,0-2.889,1.253-3.216,3.052
			c-0.055,0.327-0.082,0.736-0.082,1.117v7.031h-2.398V111.844z"/>
		<path d="M394.276,117.758c0,1.145,0.055,2.262,0.191,3.161h-2.153l-0.19-1.662h-0.082c-0.736,1.035-2.153,1.962-4.033,1.962
			c-2.671,0-4.033-1.881-4.033-3.788c0-3.188,2.834-4.933,7.93-4.905v-0.272c0-1.063-0.3-3.053-2.997-3.025
			c-1.254,0-2.535,0.354-3.461,0.981l-0.545-1.608c1.09-0.681,2.697-1.145,4.36-1.145c4.033,0,5.014,2.753,5.014,5.369V117.758z
			 M391.96,114.188c-2.616-0.055-5.587,0.409-5.587,2.971c0,1.581,1.036,2.289,2.235,2.289c1.744,0,2.861-1.09,3.243-2.207
			c0.081-0.272,0.108-0.545,0.108-0.764V114.188z"/>
		<path d="M398.147,111.844c0-1.553-0.027-2.889-0.108-4.115h2.098l0.109,2.616h0.082c0.6-1.771,2.071-2.889,3.679-2.889
			c0.245,0,0.436,0.027,0.654,0.055v2.262c-0.245-0.054-0.491-0.054-0.817-0.054c-1.69,0-2.89,1.253-3.216,3.052
			c-0.055,0.327-0.082,0.736-0.082,1.117v7.031h-2.398V111.844z"/>
		<path d="M421.188,117.758c0,1.145,0.055,2.262,0.191,3.161h-2.153l-0.19-1.662h-0.082c-0.735,1.035-2.153,1.962-4.033,1.962
			c-2.671,0-4.033-1.881-4.033-3.788c0-3.188,2.834-4.933,7.93-4.905v-0.272c0-1.063-0.3-3.053-2.997-3.025
			c-1.254,0-2.535,0.354-3.461,0.981l-0.545-1.608c1.09-0.681,2.697-1.145,4.36-1.145c4.033,0,5.014,2.753,5.014,5.369V117.758z
			 M418.871,114.188c-2.616-0.055-5.587,0.409-5.587,2.971c0,1.581,1.036,2.289,2.235,2.289c1.744,0,2.861-1.09,3.243-2.207
			c0.081-0.272,0.108-0.545,0.108-0.764V114.188z"/>
		<path d="M425.059,101.57h2.398v19.349h-2.398V101.57z"/>
		<path d="M11.392,153.159c-0.627,0.3-2.017,0.763-3.788,0.763c-3.979,0-6.567-2.698-6.567-6.731c0-4.061,2.779-7.031,7.085-7.031
			c1.417,0,2.671,0.354,3.325,0.709l-0.545,1.826c-0.572-0.3-1.473-0.627-2.78-0.627c-3.024,0-4.66,2.262-4.66,4.987
			c0,3.052,1.962,4.933,4.579,4.933c1.361,0,2.262-0.327,2.942-0.627L11.392,153.159z"/>
		<path d="M25.972,146.918c0,4.878-3.406,7.004-6.568,7.004c-3.543,0-6.322-2.616-6.322-6.786c0-4.388,2.916-6.977,6.541-6.977
			C23.409,140.159,25.972,142.912,25.972,146.918z M15.534,147.055c0,2.889,1.635,5.068,3.979,5.068
			c2.289,0,4.006-2.152,4.006-5.123c0-2.235-1.117-5.042-3.951-5.042C16.761,141.958,15.534,144.574,15.534,147.055z"/>
		<path d="M28.996,144.002c0-1.39-0.027-2.479-0.108-3.57h2.125l0.137,2.181h0.055c0.654-1.227,2.18-2.453,4.359-2.453
			c1.826,0,4.66,1.091,4.66,5.614v7.849h-2.397v-7.604c0-2.126-0.79-3.896-3.052-3.896c-1.555,0-2.78,1.117-3.217,2.452
			c-0.109,0.3-0.163,0.709-0.163,1.117v7.931h-2.398V144.002z"/>
		<path d="M43.794,151.196c0.736,0.437,1.99,0.927,3.189,0.927c1.717,0,2.533-0.845,2.533-1.962c0-1.145-0.681-1.744-2.425-2.398
			c-2.398-0.872-3.516-2.152-3.516-3.733c0-2.126,1.744-3.87,4.552-3.87c1.335,0,2.507,0.354,3.215,0.818l-0.572,1.744
			c-0.518-0.327-1.471-0.791-2.697-0.791c-1.418,0-2.181,0.817-2.181,1.799c0,1.09,0.763,1.581,2.479,2.262
			c2.263,0.845,3.461,1.989,3.461,3.952c0,2.344-1.825,3.979-4.904,3.979c-1.445,0-2.78-0.382-3.707-0.927L43.794,151.196z"/>
		<path d="M65.95,149.997c0,1.391,0.027,2.59,0.109,3.625h-2.126l-0.136-2.153h-0.055c-0.6,1.063-2.018,2.453-4.36,2.453
			c-2.071,0-4.552-1.172-4.552-5.777v-7.713h2.398v7.276c0,2.508,0.791,4.225,2.943,4.225c1.607,0,2.725-1.117,3.161-2.208
			c0.136-0.326,0.218-0.763,0.218-1.226v-8.067h2.398V149.997z"/>
		<path d="M69.929,134.273h2.398v19.349h-2.398V134.273z"/>
		<path d="M79.249,137.271v3.161h3.434v1.826h-3.434v7.113c0,1.635,0.463,2.562,1.799,2.562c0.654,0,1.035-0.055,1.39-0.164
			l0.108,1.826c-0.463,0.164-1.199,0.327-2.125,0.327c-1.117,0-2.018-0.382-2.59-1.009c-0.653-0.735-0.926-1.907-0.926-3.461v-7.194
			h-2.044v-1.826h2.044v-2.452L79.249,137.271z"/>
		<path d="M97.153,146.918c0,4.878-3.406,7.004-6.567,7.004c-3.542,0-6.322-2.616-6.322-6.786c0-4.388,2.916-6.977,6.54-6.977
			C94.593,140.159,97.153,142.912,97.153,146.918z M86.716,147.055c0,2.889,1.636,5.068,3.979,5.068
			c2.289,0,4.006-2.152,4.006-5.123c0-2.235-1.117-5.042-3.952-5.042C87.942,141.958,86.716,144.574,86.716,147.055z"/>
		<path d="M100.179,144.547c0-1.553-0.027-2.889-0.109-4.115h2.1l0.108,2.616h0.081c0.6-1.771,2.072-2.889,3.68-2.889
			c0.245,0,0.436,0.027,0.654,0.055v2.262c-0.246-0.054-0.49-0.054-0.818-0.054c-1.689,0-2.889,1.253-3.215,3.052
			c-0.055,0.327-0.082,0.736-0.082,1.117v7.031h-2.398V144.547z"/>
		<path d="M111.87,136.726c0,0.817-0.572,1.472-1.526,1.472c-0.872,0-1.444-0.654-1.444-1.472s0.6-1.499,1.499-1.499
			C111.271,135.227,111.87,135.881,111.87,136.726z M109.199,153.622v-13.19h2.398v13.19H109.199z"/>
		<path d="M127.513,146.918c0,4.878-3.406,7.004-6.568,7.004c-3.542,0-6.322-2.616-6.322-6.786c0-4.388,2.916-6.977,6.541-6.977
			C124.951,140.159,127.513,142.912,127.513,146.918z M117.075,147.055c0,2.889,1.635,5.068,3.979,5.068
			c2.289,0,4.006-2.152,4.006-5.123c0-2.235-1.117-5.042-3.951-5.042C118.302,141.958,117.075,144.574,117.075,147.055z"/>
		<path d="M136.952,144.738c0-1.69-0.055-3.053-0.109-4.307h2.126l0.137,2.263h0.054c0.955-1.608,2.535-2.535,4.688-2.535
			c3.217,0,5.614,2.698,5.614,6.677c0,4.742-2.916,7.086-6.022,7.086c-1.744,0-3.271-0.763-4.061-2.071h-0.055v7.167h-2.371V144.738
			z M139.323,148.253c0,0.354,0.027,0.682,0.109,0.981c0.436,1.662,1.88,2.807,3.597,2.807c2.534,0,4.007-2.07,4.007-5.096
			c0-2.616-1.391-4.878-3.925-4.878c-1.636,0-3.188,1.145-3.624,2.943c-0.082,0.3-0.164,0.653-0.164,0.953V148.253z"/>
		<path d="M161.725,150.461c0,1.145,0.054,2.262,0.19,3.161h-2.152l-0.191-1.662h-0.082c-0.735,1.035-2.152,1.962-4.033,1.962
			c-2.67,0-4.033-1.881-4.033-3.788c0-3.188,2.834-4.933,7.931-4.905v-0.272c0-1.063-0.3-3.053-2.998-3.025
			c-1.253,0-2.534,0.354-3.461,0.981l-0.545-1.608c1.091-0.681,2.698-1.145,4.36-1.145c4.033,0,5.015,2.753,5.015,5.369V150.461z
			 M159.408,146.891c-2.616-0.055-5.587,0.409-5.587,2.971c0,1.581,1.035,2.289,2.234,2.289c1.744,0,2.861-1.09,3.243-2.207
			c0.082-0.272,0.109-0.545,0.109-0.764V146.891z"/>
		<path d="M165.267,151.196c0.736,0.437,1.99,0.927,3.189,0.927c1.717,0,2.533-0.845,2.533-1.962c0-1.145-0.681-1.744-2.425-2.398
			c-2.398-0.872-3.516-2.152-3.516-3.733c0-2.126,1.744-3.87,4.552-3.87c1.335,0,2.507,0.354,3.215,0.818l-0.572,1.744
			c-0.518-0.327-1.471-0.791-2.697-0.791c-1.418,0-2.181,0.817-2.181,1.799c0,1.09,0.763,1.581,2.479,2.262
			c2.263,0.845,3.461,1.989,3.461,3.952c0,2.344-1.825,3.979-4.904,3.979c-1.445,0-2.78-0.382-3.707-0.927L165.267,151.196z"/>
		<path d="M185.651,150.461c0,1.145,0.055,2.262,0.191,3.161h-2.153l-0.19-1.662h-0.082c-0.736,1.035-2.152,1.962-4.033,1.962
			c-2.671,0-4.033-1.881-4.033-3.788c0-3.188,2.834-4.933,7.93-4.905v-0.272c0-1.063-0.299-3.053-2.997-3.025
			c-1.254,0-2.534,0.354-3.462,0.981l-0.545-1.608c1.091-0.681,2.698-1.145,4.361-1.145c4.033,0,5.014,2.753,5.014,5.369V150.461z
			 M183.335,146.891c-2.616-0.055-5.586,0.409-5.586,2.971c0,1.581,1.035,2.289,2.234,2.289c1.744,0,2.861-1.09,3.242-2.207
			c0.082-0.272,0.109-0.545,0.109-0.764V146.891z"/>
		<path d="M205.202,150.461c0,1.145,0.055,2.262,0.19,3.161h-2.153l-0.19-1.662h-0.081c-0.736,1.035-2.153,1.962-4.033,1.962
			c-2.672,0-4.034-1.881-4.034-3.788c0-3.188,2.835-4.933,7.931-4.905v-0.272c0-1.063-0.3-3.053-2.998-3.025
			c-1.254,0-2.534,0.354-3.461,0.981l-0.545-1.608c1.09-0.681,2.698-1.145,4.36-1.145c4.033,0,5.015,2.753,5.015,5.369V150.461z
			 M202.886,146.891c-2.616-0.055-5.587,0.409-5.587,2.971c0,1.581,1.036,2.289,2.235,2.289c1.744,0,2.861-1.09,3.242-2.207
			c0.082-0.272,0.109-0.545,0.109-0.764V146.891z"/>
		<path d="M209.071,134.273h2.398v19.349h-2.398V134.273z"/>
		<path d="M221.917,134.273h2.371v8.284h0.055c0.845-1.472,2.371-2.398,4.496-2.398c3.298,0,5.587,2.726,5.587,6.704
			c0,4.715-2.997,7.059-5.94,7.059c-1.908,0-3.434-0.735-4.442-2.453h-0.055l-0.136,2.153h-2.045
			c0.055-0.899,0.109-2.234,0.109-3.406V134.273z M224.288,148.335c0,0.3,0.027,0.6,0.109,0.872
			c0.436,1.662,1.853,2.808,3.597,2.808c2.534,0,4.007-2.044,4.007-5.069c0-2.644-1.363-4.905-3.952-4.905
			c-1.608,0-3.134,1.145-3.624,2.943c-0.082,0.3-0.137,0.627-0.137,1.008V148.335z"/>
		<path d="M246.689,150.461c0,1.145,0.054,2.262,0.19,3.161h-2.152l-0.191-1.662h-0.082c-0.735,1.035-2.152,1.962-4.033,1.962
			c-2.67,0-4.033-1.881-4.033-3.788c0-3.188,2.834-4.933,7.931-4.905v-0.272c0-1.063-0.3-3.053-2.998-3.025
			c-1.253,0-2.534,0.354-3.461,0.981l-0.545-1.608c1.091-0.681,2.698-1.145,4.36-1.145c4.033,0,5.015,2.753,5.015,5.369V150.461z
			 M244.373,146.891c-2.616-0.055-5.587,0.409-5.587,2.971c0,1.581,1.035,2.289,2.234,2.289c1.744,0,2.861-1.09,3.243-2.207
			c0.082-0.272,0.109-0.545,0.109-0.764V146.891z"/>
		<path d="M250.559,144.002c0-1.39-0.027-2.479-0.108-3.57h2.125l0.137,2.181h0.055c0.654-1.227,2.18-2.453,4.359-2.453
			c1.826,0,4.66,1.091,4.66,5.614v7.849h-2.397v-7.604c0-2.126-0.79-3.896-3.052-3.896c-1.555,0-2.78,1.117-3.217,2.452
			c-0.109,0.3-0.163,0.709-0.163,1.117v7.931h-2.398V144.002z M252.794,138.17c-0.055-1.771,0.681-2.834,1.853-2.834
			c0.6,0,1.063,0.272,1.69,0.6c0.436,0.245,0.789,0.463,1.145,0.463c0.408,0,0.681-0.245,0.735-1.145h1.28
			c0.027,1.799-0.572,2.753-1.853,2.753c-0.6,0-1.118-0.272-1.663-0.572s-0.844-0.491-1.172-0.491c-0.436,0-0.653,0.464-0.708,1.227
			H252.794z"/>
		<path d="M277.62,146.918c0,4.878-3.406,7.004-6.568,7.004c-3.542,0-6.322-2.616-6.322-6.786c0-4.388,2.916-6.977,6.541-6.977
			C275.059,140.159,277.62,142.912,277.62,146.918z M267.183,147.055c0,2.889,1.635,5.068,3.979,5.068
			c2.289,0,4.006-2.152,4.006-5.123c0-2.235-1.117-5.042-3.951-5.042C268.409,141.958,267.183,144.574,267.183,147.055z"/>
		<path d="M287.932,140.432l2.862,7.795c0.326,0.872,0.653,1.907,0.871,2.697h0.055c0.246-0.79,0.518-1.799,0.845-2.752l2.616-7.74
			h2.535l-3.598,9.402c-1.717,4.523-2.889,6.813-4.523,8.258c-1.199,1.008-2.344,1.417-2.943,1.525l-0.6-1.989
			c0.6-0.19,1.39-0.572,2.098-1.172c0.654-0.518,1.445-1.444,2.018-2.671c0.108-0.245,0.19-0.436,0.19-0.572
			c0-0.136-0.055-0.326-0.19-0.626l-4.852-12.155H287.932z"/>
		<path d="M305.982,151.196c0.736,0.437,1.989,0.927,3.188,0.927c1.717,0,2.535-0.845,2.535-1.962c0-1.145-0.682-1.744-2.426-2.398
			c-2.398-0.872-3.516-2.152-3.516-3.733c0-2.126,1.744-3.87,4.551-3.87c1.336,0,2.508,0.354,3.216,0.818l-0.572,1.744
			c-0.518-0.327-1.472-0.791-2.697-0.791c-1.418,0-2.181,0.817-2.181,1.799c0,1.09,0.763,1.581,2.48,2.262
			c2.262,0.845,3.461,1.989,3.461,3.952c0,2.344-1.826,3.979-4.906,3.979c-1.444,0-2.779-0.382-3.706-0.927L305.982,151.196z"/>
		<path d="M318.438,147.463c0.054,3.243,2.098,4.578,4.523,4.578c1.717,0,2.779-0.3,3.651-0.681l0.437,1.717
			c-0.845,0.382-2.316,0.845-4.415,0.845c-4.061,0-6.486-2.698-6.486-6.677s2.344-7.086,6.187-7.086c4.333,0,5.45,3.761,5.45,6.187
			c0,0.49-0.027,0.845-0.081,1.117H318.438z M325.468,145.746c0.027-1.499-0.626-3.87-3.324-3.87c-2.453,0-3.488,2.208-3.68,3.87
			H325.468z"/>
		<path d="M337.17,144.547c0-1.553-0.027-2.889-0.108-4.115h2.098l0.109,2.616h0.082c0.6-1.771,2.071-2.889,3.679-2.889
			c0.245,0,0.437,0.027,0.654,0.055v2.262c-0.245-0.054-0.491-0.054-0.817-0.054c-1.69,0-2.889,1.253-3.216,3.052
			c-0.055,0.327-0.082,0.736-0.082,1.117v7.031h-2.398V144.547z"/>
		<path d="M347.145,147.463c0.054,3.243,2.098,4.578,4.523,4.578c1.717,0,2.779-0.3,3.651-0.681l0.437,1.717
			c-0.845,0.382-2.316,0.845-4.415,0.845c-4.061,0-6.486-2.698-6.486-6.677s2.344-7.086,6.187-7.086c4.333,0,5.45,3.761,5.45,6.187
			c0,0.49-0.027,0.845-0.081,1.117H347.145z M354.175,145.746c0.027-1.499-0.626-3.87-3.324-3.87c-2.453,0-3.488,2.208-3.68,3.87
			H354.175z"/>
		<path d="M359.707,153.622v-11.364h-1.825v-1.826h1.825v-0.626c0-1.854,0.437-3.543,1.526-4.606
			c0.899-0.872,2.099-1.226,3.216-1.226c0.872,0,1.581,0.19,2.044,0.381l-0.327,1.854c-0.354-0.164-0.817-0.3-1.526-0.3
			c-2.044,0-2.562,1.771-2.562,3.815v0.708h3.188v1.826h-3.188v11.364H359.707z"/>
		<path d="M367.419,144.547c0-1.553-0.027-2.889-0.108-4.115h2.098l0.109,2.616h0.082c0.6-1.771,2.071-2.889,3.679-2.889
			c0.245,0,0.436,0.027,0.654,0.055v2.262c-0.245-0.054-0.491-0.054-0.817-0.054c-1.69,0-2.89,1.253-3.216,3.052
			c-0.055,0.327-0.082,0.736-0.082,1.117v7.031h-2.398V144.547z"/>
		<path d="M377.394,147.463c0.054,3.243,2.098,4.578,4.523,4.578c1.717,0,2.779-0.3,3.651-0.681l0.437,1.717
			c-0.845,0.382-2.316,0.845-4.415,0.845c-4.061,0-6.486-2.698-6.486-6.677s2.344-7.086,6.187-7.086c4.333,0,5.45,3.761,5.45,6.187
			c0,0.49-0.026,0.845-0.081,1.117H377.394z M384.424,145.746c0.027-1.499-0.626-3.87-3.324-3.87c-2.453,0-3.488,2.208-3.68,3.87
			H384.424z"/>
		<path d="M389.384,151.196c0.736,0.437,1.989,0.927,3.188,0.927c1.717,0,2.535-0.845,2.535-1.962c0-1.145-0.682-1.744-2.426-2.398
			c-2.398-0.872-3.516-2.152-3.516-3.733c0-2.126,1.744-3.87,4.551-3.87c1.336,0,2.508,0.354,3.216,0.818l-0.572,1.744
			c-0.518-0.327-1.472-0.791-2.697-0.791c-1.418,0-2.181,0.817-2.181,1.799c0,1.09,0.763,1.581,2.48,2.262
			c2.262,0.845,3.461,1.989,3.461,3.952c0,2.344-1.826,3.979-4.905,3.979c-1.445,0-2.78-0.382-3.707-0.927L389.384,151.196z"/>
		<path d="M409.905,153.159c-0.627,0.3-2.017,0.763-3.788,0.763c-3.979,0-6.568-2.698-6.568-6.731c0-4.061,2.78-7.031,7.086-7.031
			c1.417,0,2.671,0.354,3.325,0.709l-0.545,1.826c-0.573-0.3-1.472-0.627-2.78-0.627c-3.025,0-4.66,2.262-4.66,4.987
			c0,3.052,1.962,4.933,4.578,4.933c1.363,0,2.263-0.327,2.943-0.627L409.905,153.159z"/>
		<path d="M421.978,150.461c0,1.145,0.055,2.262,0.191,3.161h-2.153l-0.19-1.662h-0.082c-0.736,1.035-2.153,1.962-4.033,1.962
			c-2.671,0-4.033-1.881-4.033-3.788c0-3.188,2.834-4.933,7.93-4.905v-0.272c0-1.063-0.3-3.053-2.997-3.025
			c-1.254,0-2.535,0.354-3.461,0.981l-0.545-1.608c1.09-0.681,2.697-1.145,4.36-1.145c4.033,0,5.014,2.753,5.014,5.369V150.461z
			 M419.661,146.891c-2.616-0.055-5.587,0.409-5.587,2.971c0,1.581,1.036,2.289,2.235,2.289c1.744,0,2.861-1.09,3.243-2.207
			c0.081-0.272,0.108-0.545,0.108-0.764V146.891z"/>
		<path d="M425.275,152.205c0-0.981,0.682-1.717,1.636-1.717c0.953,0,1.607,0.708,1.607,1.717c0,0.981-0.654,1.717-1.662,1.717
			C425.93,153.922,425.275,153.187,425.275,152.205z"/>
		<path d="M5.042,180.547l-1.908,5.777H0.681l6.269-18.368h2.835l6.268,18.368h-2.535l-1.962-5.777H5.042z M11.092,178.693
			l-1.826-5.287c-0.409-1.198-0.681-2.289-0.954-3.352H8.257c-0.271,1.062-0.545,2.207-0.926,3.325l-1.799,5.313H11.092z"/>
		<path d="M18.586,166.976h2.398v19.349h-2.398V166.976z"/>
		<path d="M43.563,180.165c0.055,3.243,2.1,4.578,4.524,4.578c1.717,0,2.78-0.3,3.651-0.681l0.437,1.717
			c-0.845,0.382-2.316,0.845-4.415,0.845c-4.061,0-6.486-2.698-6.486-6.677s2.344-7.086,6.187-7.086c4.333,0,5.45,3.761,5.45,6.187
			c0,0.49-0.027,0.845-0.082,1.117H43.563z M50.595,178.448c0.027-1.499-0.627-3.87-3.324-3.87c-2.453,0-3.488,2.208-3.68,3.87
			H50.595z"/>
		<path d="M55.882,176.704c0-1.39-0.027-2.479-0.109-3.57h2.126l0.137,2.181h0.054c0.654-1.227,2.181-2.453,4.361-2.453
			c1.826,0,4.66,1.091,4.66,5.614v7.849h-2.398v-7.604c0-2.126-0.791-3.896-3.053-3.896c-1.553,0-2.779,1.117-3.215,2.452
			c-0.109,0.3-0.164,0.709-0.164,1.117v7.931h-2.398V176.704z"/>
		<path d="M73.786,169.973v3.161h3.435v1.826h-3.435v7.113c0,1.635,0.464,2.562,1.799,2.562c0.654,0,1.036-0.055,1.391-0.164
			l0.109,1.826c-0.464,0.164-1.199,0.327-2.127,0.327c-1.117,0-2.016-0.382-2.588-1.009c-0.654-0.735-0.927-1.907-0.927-3.461
			v-7.194h-2.044v-1.826h2.044v-2.452L73.786,169.973z"/>
		<path d="M79.919,177.249c0-1.553-0.027-2.889-0.109-4.115h2.099l0.108,2.616h0.082c0.6-1.771,2.071-2.889,3.68-2.889
			c0.244,0,0.436,0.027,0.653,0.055v2.262c-0.245-0.054-0.49-0.054-0.817-0.054c-1.689,0-2.889,1.253-3.216,3.052
			c-0.054,0.327-0.081,0.735-0.081,1.117v7.031h-2.398V177.249z"/>
		<path d="M97.96,183.163c0,1.145,0.055,2.262,0.19,3.161h-2.153l-0.19-1.662h-0.081c-0.736,1.035-2.153,1.962-4.033,1.962
			c-2.672,0-4.034-1.881-4.034-3.788c0-3.188,2.835-4.933,7.931-4.905v-0.272c0-1.063-0.3-3.053-2.998-3.025
			c-1.254,0-2.534,0.354-3.461,0.981l-0.545-1.608c1.09-0.681,2.698-1.145,4.36-1.145c4.033,0,5.015,2.753,5.015,5.369V183.163z
			 M95.644,179.593c-2.616-0.055-5.587,0.409-5.587,2.971c0,1.58,1.036,2.289,2.235,2.289c1.744,0,2.861-1.09,3.242-2.207
			c0.082-0.272,0.109-0.545,0.109-0.764V179.593z"/>
		<path d="M101.829,177.249c0-1.553-0.027-2.889-0.109-4.115h2.099l0.108,2.616h0.082c0.6-1.771,2.071-2.889,3.68-2.889
			c0.244,0,0.436,0.027,0.653,0.055v2.262c-0.245-0.054-0.49-0.054-0.817-0.054c-1.689,0-2.889,1.253-3.216,3.052
			c-0.054,0.327-0.081,0.735-0.081,1.117v7.031h-2.398V177.249z"/>
		<path d="M107.743,189.703c0.6-1.635,1.336-4.551,1.635-6.54l2.671-0.272c-0.653,2.316-1.853,5.341-2.616,6.622L107.743,189.703z"
			/>
		<path d="M133.075,173.134l2.588,7.386c0.437,1.227,0.791,2.316,1.063,3.406h0.081c0.301-1.09,0.682-2.18,1.118-3.406l2.562-7.386
			h2.508l-5.179,13.19h-2.289l-5.015-13.19H133.075z"/>
		<path d="M146.319,180.165c0.055,3.243,2.098,4.578,4.523,4.578c1.717,0,2.779-0.3,3.652-0.681l0.436,1.717
			c-0.845,0.382-2.316,0.845-4.415,0.845c-4.061,0-6.485-2.698-6.485-6.677s2.344-7.086,6.186-7.086
			c4.333,0,5.451,3.761,5.451,6.187c0,0.49-0.027,0.845-0.082,1.117H146.319z M153.351,178.448c0.027-1.499-0.627-3.87-3.325-3.87
			c-2.453,0-3.488,2.208-3.679,3.87H153.351z"/>
		<path d="M184.841,184.308h-0.054c-0.735,1.281-2.181,2.316-4.306,2.316c-3.08,0-5.587-2.644-5.587-6.649
			c0-4.96,3.188-7.113,5.968-7.113c2.045,0,3.406,1.009,4.061,2.263h0.055l0.082-1.99h2.262c-0.055,1.091-0.109,2.263-0.109,3.625
			v14.961h-2.371V184.308z M184.841,178.476c0-0.327-0.026-0.682-0.108-0.981c-0.382-1.472-1.636-2.725-3.434-2.725
			c-2.479,0-3.979,2.099-3.979,5.041c0,2.644,1.254,4.906,3.897,4.906c1.554,0,2.889-0.954,3.435-2.59
			c0.108-0.354,0.189-0.817,0.189-1.172V178.476z"/>
		<path d="M202.228,182.699c0,1.391,0.027,2.59,0.109,3.625h-2.125l-0.137-2.153h-0.055c-0.6,1.063-2.017,2.453-4.359,2.453
			c-2.072,0-4.552-1.172-4.552-5.777v-7.713h2.397v7.276c0,2.508,0.791,4.225,2.943,4.225c1.608,0,2.726-1.117,3.162-2.208
			c0.136-0.326,0.218-0.763,0.218-1.226v-8.067h2.397V182.699z"/>
		<path d="M207.542,180.165c0.055,3.243,2.099,4.578,4.523,4.578c1.717,0,2.78-0.3,3.652-0.681l0.436,1.717
			c-0.844,0.382-2.316,0.845-4.414,0.845c-4.061,0-6.486-2.698-6.486-6.677s2.344-7.086,6.186-7.086
			c4.334,0,5.451,3.761,5.451,6.187c0,0.49-0.027,0.845-0.082,1.117H207.542z M214.573,178.448c0.027-1.499-0.627-3.87-3.324-3.87
			c-2.453,0-3.488,2.208-3.68,3.87H214.573z"/>
		<path d="M240.887,167.956h2.398v12.291c0,4.878-2.398,6.377-5.56,6.377c-0.899,0-1.963-0.19-2.535-0.437l0.328-1.935
			c0.49,0.19,1.199,0.354,2.016,0.354c2.126,0,3.353-0.954,3.353-4.551V167.956z"/>
		<path d="M259.091,179.62c0,4.878-3.406,7.004-6.568,7.004c-3.542,0-6.322-2.616-6.322-6.786c0-4.388,2.916-6.977,6.541-6.977
			C256.529,172.861,259.091,175.614,259.091,179.62z M248.653,179.757c0,2.889,1.635,5.068,3.979,5.068
			c2.289,0,4.006-2.152,4.006-5.123c0-2.235-1.117-5.042-3.951-5.042C249.88,174.66,248.653,177.276,248.653,179.757z"/>
		<path d="M261.789,183.898c0.735,0.437,1.989,0.927,3.188,0.927c1.717,0,2.534-0.845,2.534-1.962c0-1.145-0.681-1.744-2.425-2.398
			c-2.398-0.872-3.516-2.152-3.516-3.733c0-2.126,1.744-3.87,4.551-3.87c1.336,0,2.507,0.354,3.216,0.817l-0.572,1.744
			c-0.519-0.326-1.472-0.79-2.698-0.79c-1.417,0-2.18,0.817-2.18,1.799c0,1.09,0.763,1.581,2.479,2.262
			c2.262,0.845,3.461,1.989,3.461,3.952c0,2.344-1.825,3.979-4.905,3.979c-1.444,0-2.779-0.382-3.706-0.927L261.789,183.898z"/>
		<path d="M274.243,180.165c0.055,3.243,2.099,4.578,4.523,4.578c1.717,0,2.78-0.3,3.652-0.681l0.436,1.717
			c-0.844,0.382-2.316,0.845-4.414,0.845c-4.061,0-6.486-2.698-6.486-6.677s2.344-7.086,6.186-7.086
			c4.334,0,5.451,3.761,5.451,6.187c0,0.49-0.027,0.845-0.082,1.117H274.243z M281.274,178.448c0.027-1.499-0.627-3.87-3.324-3.87
			c-2.453,0-3.488,2.208-3.68,3.87H281.274z"/>
		<path d="M286.807,186.324V174.96h-1.826v-1.826h1.826v-0.735c0-3.461,2.044-5.723,5.75-5.723c1.227,0,2.671,0.381,3.353,0.872
			l-0.682,1.825c-0.6-0.408-1.607-0.763-2.779-0.763c-2.535,0-3.271,1.771-3.271,3.87v0.653h7.658v13.19h-2.398V174.96h-5.26v11.364
			H286.807z"/>
		<path d="M300.813,176.704c0-1.39-0.026-2.479-0.108-3.57h2.126l0.136,2.181h0.055c0.654-1.227,2.181-2.453,4.36-2.453
			c1.826,0,4.66,1.091,4.66,5.614v7.849h-2.398v-7.604c0-2.126-0.79-3.896-3.052-3.896c-1.554,0-2.78,1.117-3.216,2.452
			c-0.109,0.3-0.164,0.709-0.164,1.117v7.931h-2.398V176.704z"/>
		<path d="M325.204,183.163c0,1.145,0.055,2.262,0.191,3.161h-2.153l-0.19-1.662h-0.082c-0.736,1.035-2.153,1.962-4.033,1.962
			c-2.671,0-4.033-1.881-4.033-3.788c0-3.188,2.834-4.933,7.93-4.905v-0.272c0-1.063-0.3-3.053-2.997-3.025
			c-1.254,0-2.535,0.354-3.461,0.981l-0.545-1.608c1.09-0.681,2.697-1.145,4.36-1.145c4.033,0,5.014,2.753,5.014,5.369V183.163z
			 M322.888,179.593c-2.616-0.055-5.587,0.409-5.587,2.971c0,1.58,1.036,2.289,2.235,2.289c1.744,0,2.861-1.09,3.243-2.207
			c0.081-0.272,0.108-0.545,0.108-0.764V179.593z"/>
		<path d="M346.285,166.976h2.398v19.349h-2.398V166.976z"/>
		<path d="M364.653,179.62c0,4.878-3.406,7.004-6.567,7.004c-3.543,0-6.323-2.616-6.323-6.786c0-4.388,2.916-6.977,6.541-6.977
			C362.092,172.861,364.653,175.614,364.653,179.62z M354.216,179.757c0,2.889,1.635,5.068,3.979,5.068
			c2.289,0,4.007-2.152,4.007-5.123c0-2.235-1.118-5.042-3.952-5.042C355.442,174.66,354.216,177.276,354.216,179.757z"/>
		<path d="M386.225,180.165c0.054,3.243,2.098,4.578,4.523,4.578c1.717,0,2.779-0.3,3.651-0.681l0.437,1.717
			c-0.845,0.382-2.316,0.845-4.415,0.845c-4.061,0-6.486-2.698-6.486-6.677s2.344-7.086,6.187-7.086c4.333,0,5.45,3.761,5.45,6.187
			c0,0.49-0.027,0.845-0.081,1.117H386.225z M393.255,178.448c0.027-1.499-0.626-3.87-3.324-3.87c-2.453,0-3.488,2.208-3.68,3.87
			H393.255z"/>
		<path d="M398.215,183.898c0.736,0.437,1.989,0.927,3.188,0.927c1.717,0,2.535-0.845,2.535-1.962c0-1.145-0.682-1.744-2.426-2.398
			c-2.398-0.872-3.516-2.152-3.516-3.733c0-2.126,1.744-3.87,4.551-3.87c1.336,0,2.508,0.354,3.216,0.817l-0.572,1.744
			c-0.518-0.326-1.472-0.79-2.697-0.79c-1.418,0-2.181,0.817-2.181,1.799c0,1.09,0.763,1.581,2.48,2.262
			c2.262,0.845,3.461,1.989,3.461,3.952c0,2.344-1.826,3.979-4.906,3.979c-1.444,0-2.779-0.382-3.706-0.927L398.215,183.898z"/>
		<path d="M412.223,169.973v3.161h3.434v1.826h-3.434v7.113c0,1.635,0.464,2.562,1.799,2.562c0.654,0,1.035-0.055,1.39-0.164
			l0.109,1.826c-0.464,0.164-1.199,0.327-2.126,0.327c-1.117,0-2.017-0.382-2.589-1.009c-0.654-0.735-0.927-1.907-0.927-3.461
			v-7.194h-2.044v-1.826h2.044v-2.452L412.223,169.973z"/>
		<path d="M427.62,183.163c0,1.145,0.055,2.262,0.191,3.161h-2.153l-0.19-1.662h-0.082c-0.736,1.035-2.153,1.962-4.033,1.962
			c-2.671,0-4.033-1.881-4.033-3.788c0-3.188,2.834-4.933,7.93-4.905v-0.272c0-1.063-0.3-3.053-2.997-3.025
			c-1.254,0-2.535,0.354-3.461,0.981l-0.545-1.608c1.09-0.681,2.697-1.145,4.36-1.145c4.033,0,5.014,2.753,5.014,5.369V183.163z
			 M425.304,179.593c-2.616-0.055-5.587,0.409-5.587,2.971c0,1.58,1.036,2.289,2.235,2.289c1.744,0,2.861-1.09,3.243-2.207
			c0.081-0.272,0.108-0.545,0.108-0.764V179.593z M426.503,167.438l-3.324,3.897h-1.69l2.371-3.897H426.503z"/>
		<path d="M3.325,212.868c0.055,3.243,2.098,4.578,4.523,4.578c1.717,0,2.779-0.3,3.652-0.681l0.436,1.717
			c-0.845,0.382-2.316,0.845-4.415,0.845c-4.061,0-6.485-2.698-6.485-6.677s2.344-7.086,6.186-7.086
			c4.333,0,5.451,3.761,5.451,6.187c0,0.49-0.027,0.845-0.082,1.117H3.325z M10.356,211.151c0.027-1.499-0.627-3.87-3.325-3.87
			c-2.453,0-3.488,2.208-3.679,3.87H10.356z"/>
		<path d="M15.315,216.602c0.736,0.437,1.99,0.927,3.189,0.927c1.717,0,2.533-0.845,2.533-1.962c0-1.145-0.681-1.744-2.425-2.398
			c-2.398-0.872-3.516-2.152-3.516-3.733c0-2.126,1.744-3.87,4.552-3.87c1.335,0,2.507,0.354,3.215,0.817l-0.572,1.744
			c-0.518-0.326-1.471-0.79-2.697-0.79c-1.418,0-2.181,0.817-2.181,1.799c0,1.09,0.763,1.581,2.479,2.262
			c2.263,0.845,3.461,1.989,3.461,3.952c0,2.344-1.825,3.979-4.904,3.979c-1.445,0-2.78-0.382-3.707-0.927L15.315,216.602z"/>
		<path d="M26.435,210.144c0-1.69-0.055-3.053-0.109-4.307h2.126l0.137,2.263h0.054c0.955-1.608,2.535-2.535,4.688-2.535
			c3.217,0,5.614,2.698,5.614,6.677c0,4.742-2.916,7.086-6.022,7.086c-1.744,0-3.271-0.763-4.061-2.071h-0.055v7.167h-2.371V210.144
			z M28.806,213.658c0,0.354,0.027,0.682,0.109,0.981c0.436,1.662,1.88,2.807,3.597,2.807c2.534,0,4.007-2.07,4.007-5.096
			c0-2.616-1.391-4.878-3.925-4.878c-1.636,0-3.188,1.145-3.624,2.943c-0.082,0.3-0.164,0.653-0.164,0.953V213.658z"/>
		<path d="M43.276,212.868c0.055,3.243,2.099,4.578,4.523,4.578c1.717,0,2.78-0.3,3.652-0.681l0.436,1.717
			c-0.844,0.382-2.316,0.845-4.414,0.845c-4.061,0-6.486-2.698-6.486-6.677s2.344-7.086,6.186-7.086
			c4.334,0,5.451,3.761,5.451,6.187c0,0.49-0.027,0.845-0.082,1.117H43.276z M50.308,211.151c0.027-1.499-0.627-3.87-3.324-3.87
			c-2.453,0-3.488,2.208-3.68,3.87H50.308z"/>
		<path d="M55.595,209.952c0-1.553-0.027-2.889-0.109-4.115h2.099l0.108,2.616h0.082c0.6-1.771,2.071-2.889,3.68-2.889
			c0.244,0,0.436,0.027,0.653,0.055v2.262c-0.245-0.054-0.49-0.054-0.817-0.054c-1.689,0-2.889,1.253-3.216,3.052
			c-0.054,0.327-0.081,0.735-0.081,1.117v7.031h-2.398V209.952z"/>
		<path d="M73.636,215.866c0,1.145,0.055,2.262,0.191,3.161h-2.153l-0.19-1.662h-0.082c-0.736,1.035-2.152,1.962-4.033,1.962
			c-2.671,0-4.033-1.881-4.033-3.788c0-3.188,2.834-4.933,7.93-4.905v-0.272c0-1.063-0.299-3.053-2.997-3.025
			c-1.254,0-2.534,0.354-3.462,0.981l-0.545-1.608c1.091-0.681,2.698-1.145,4.361-1.145c4.033,0,5.014,2.753,5.014,5.369V215.866z
			 M71.319,212.296c-2.616-0.055-5.586,0.409-5.586,2.971c0,1.58,1.035,2.289,2.234,2.289c1.744,0,2.861-1.09,3.242-2.207
			c0.082-0.272,0.109-0.545,0.109-0.764V212.296z"/>
		<path d="M77.505,209.407c0-1.39-0.026-2.479-0.108-3.57h2.126l0.136,2.181h0.055c0.654-1.227,2.181-2.453,4.36-2.453
			c1.826,0,4.66,1.091,4.66,5.614v7.849h-2.398v-7.604c0-2.126-0.79-3.896-3.052-3.896c-1.554,0-2.78,1.117-3.216,2.452
			c-0.109,0.3-0.164,0.709-0.164,1.117v7.931h-2.398V209.407z"/>
		<path d="M103.995,199.679v15.942c0,1.172,0.055,2.507,0.108,3.406h-2.126l-0.108-2.289h-0.082
			c-0.708,1.472-2.289,2.589-4.442,2.589c-3.188,0-5.668-2.698-5.668-6.704c-0.027-4.388,2.725-7.059,5.914-7.059
			c2.043,0,3.379,0.954,3.979,1.989h0.055v-7.875H103.995z M101.624,211.206c0-0.3-0.027-0.709-0.109-1.009
			c-0.354-1.498-1.662-2.752-3.461-2.752c-2.48,0-3.951,2.18-3.951,5.068c0,2.671,1.335,4.879,3.896,4.879
			c1.607,0,3.08-1.091,3.516-2.862c0.082-0.326,0.109-0.653,0.109-1.035V211.206z"/>
		<path d="M119.937,212.323c0,4.878-3.406,7.004-6.567,7.004c-3.542,0-6.322-2.616-6.322-6.786c0-4.388,2.916-6.977,6.54-6.977
			C117.376,205.564,119.937,208.317,119.937,212.323z M109.499,212.46c0,2.889,1.636,5.068,3.979,5.068
			c2.289,0,4.006-2.152,4.006-5.123c0-2.235-1.117-5.042-3.952-5.042C110.726,207.363,109.499,209.979,109.499,212.46z"/>
		<path d="M121.735,217.61c0-0.981,0.682-1.717,1.636-1.717s1.608,0.708,1.608,1.717c0,0.98-0.654,1.717-1.663,1.717
			C122.39,219.327,121.735,218.591,121.735,217.61z"/>
		<path d="M135.153,200.659h2.397v16.379h7.849v1.989h-10.246V200.659z"/>
		<path d="M157.228,215.866c0,1.145,0.054,2.262,0.189,3.161h-2.152l-0.191-1.662h-0.081c-0.735,1.035-2.153,1.962-4.033,1.962
			c-2.671,0-4.034-1.881-4.034-3.788c0-3.188,2.835-4.933,7.932-4.905v-0.272c0-1.063-0.301-3.053-2.998-3.025
			c-1.254,0-2.535,0.354-3.461,0.981l-0.545-1.608c1.09-0.681,2.697-1.145,4.359-1.145c4.033,0,5.016,2.753,5.016,5.369V215.866z
			 M154.91,212.296c-2.616-0.055-5.587,0.409-5.587,2.971c0,1.58,1.036,2.289,2.235,2.289c1.744,0,2.861-1.09,3.243-2.207
			c0.082-0.272,0.108-0.545,0.108-0.764V212.296z"/>
		<path d="M167.919,216.602c0.735,0.437,1.988,0.927,3.188,0.927c1.717,0,2.535-0.845,2.535-1.962c0-1.145-0.682-1.744-2.426-2.398
			c-2.398-0.872-3.516-2.152-3.516-3.733c0-2.126,1.744-3.87,4.551-3.87c1.336,0,2.508,0.354,3.217,0.817l-0.572,1.744
			c-0.519-0.326-1.473-0.79-2.699-0.79c-1.416,0-2.18,0.817-2.18,1.799c0,1.09,0.764,1.581,2.48,2.262
			c2.262,0.845,3.461,1.989,3.461,3.952c0,2.344-1.826,3.979-4.906,3.979c-1.443,0-2.779-0.382-3.706-0.927L167.919,216.602z"/>
		<path d="M188.304,215.866c0,1.145,0.054,2.262,0.189,3.161h-2.152l-0.191-1.662h-0.081c-0.735,1.035-2.153,1.962-4.033,1.962
			c-2.671,0-4.034-1.881-4.034-3.788c0-3.188,2.835-4.933,7.932-4.905v-0.272c0-1.063-0.301-3.053-2.998-3.025
			c-1.254,0-2.535,0.354-3.461,0.981l-0.545-1.608c1.09-0.681,2.697-1.145,4.359-1.145c4.033,0,5.016,2.753,5.016,5.369V215.866z
			 M185.986,212.296c-2.616-0.055-5.587,0.409-5.587,2.971c0,1.58,1.036,2.289,2.235,2.289c1.744,0,2.861-1.09,3.243-2.207
			c0.082-0.272,0.108-0.545,0.108-0.764V212.296z"/>
		<path d="M192.173,199.679h2.398v19.349h-2.398V199.679z"/>
		<path d="M209.641,215.402c0,1.391,0.027,2.59,0.109,3.625h-2.126l-0.137-2.153h-0.054c-0.6,1.063-2.017,2.453-4.36,2.453
			c-2.071,0-4.551-1.172-4.551-5.777v-7.713h2.397v7.276c0,2.508,0.79,4.225,2.943,4.225c1.608,0,2.726-1.117,3.161-2.208
			c0.137-0.326,0.219-0.763,0.219-1.226v-8.067h2.397V215.402z"/>
		<path d="M224.983,199.679v15.942c0,1.172,0.055,2.507,0.109,3.406h-2.126l-0.108-2.289h-0.082
			c-0.709,1.472-2.289,2.589-4.442,2.589c-3.188,0-5.669-2.698-5.669-6.704c-0.027-4.388,2.726-7.059,5.914-7.059
			c2.044,0,3.379,0.954,3.979,1.989h0.055v-7.875H224.983z M222.612,211.206c0-0.3-0.027-0.709-0.109-1.009
			c-0.354-1.498-1.662-2.752-3.461-2.752c-2.479,0-3.951,2.18-3.951,5.068c0,2.671,1.336,4.879,3.896,4.879
			c1.608,0,3.08-1.091,3.516-2.862c0.082-0.326,0.109-0.653,0.109-1.035V211.206z"/>
		<path d="M238.255,215.866c0,1.145,0.055,2.262,0.191,3.161h-2.153l-0.19-1.662h-0.082c-0.736,1.035-2.152,1.962-4.033,1.962
			c-2.671,0-4.033-1.881-4.033-3.788c0-3.188,2.834-4.933,7.93-4.905v-0.272c0-1.063-0.299-3.053-2.997-3.025
			c-1.254,0-2.534,0.354-3.462,0.981l-0.545-1.608c1.091-0.681,2.698-1.145,4.361-1.145c4.033,0,5.014,2.753,5.014,5.369V215.866z
			 M235.938,212.296c-2.616-0.055-5.586,0.409-5.586,2.971c0,1.58,1.035,2.289,2.234,2.289c1.744,0,2.861-1.09,3.242-2.207
			c0.082-0.272,0.109-0.545,0.109-0.764V212.296z"/>
		<path d="M250.146,205.837l2.862,7.795c0.327,0.872,0.653,1.907,0.872,2.697h0.055c0.245-0.79,0.518-1.799,0.844-2.752l2.617-7.74
			h2.534l-3.597,9.402c-1.717,4.523-2.889,6.813-4.524,8.258c-1.199,1.008-2.344,1.417-2.943,1.525l-0.6-1.989
			c0.6-0.19,1.39-0.572,2.099-1.172c0.654-0.518,1.444-1.444,2.017-2.671c0.108-0.245,0.19-0.436,0.19-0.572
			c0-0.136-0.055-0.326-0.19-0.626l-4.851-12.155H250.146z"/>
		<path d="M268.933,216.602c0.735,0.437,1.988,0.927,3.188,0.927c1.717,0,2.535-0.845,2.535-1.962c0-1.145-0.682-1.744-2.426-2.398
			c-2.398-0.872-3.516-2.152-3.516-3.733c0-2.126,1.744-3.87,4.551-3.87c1.336,0,2.508,0.354,3.217,0.817l-0.572,1.744
			c-0.519-0.326-1.473-0.79-2.699-0.79c-1.416,0-2.18,0.817-2.18,1.799c0,1.09,0.764,1.581,2.48,2.262
			c2.262,0.845,3.461,1.989,3.461,3.952c0,2.344-1.826,3.979-4.906,3.979c-1.443,0-2.779-0.382-3.706-0.927L268.933,216.602z"/>
		<path d="M281.386,212.868c0.055,3.243,2.1,4.578,4.524,4.578c1.717,0,2.78-0.3,3.651-0.681l0.437,1.717
			c-0.845,0.382-2.316,0.845-4.415,0.845c-4.061,0-6.486-2.698-6.486-6.677s2.344-7.086,6.187-7.086c4.333,0,5.45,3.761,5.45,6.187
			c0,0.49-0.027,0.845-0.082,1.117H281.386z M288.417,211.151c0.027-1.499-0.627-3.87-3.324-3.87c-2.453,0-3.488,2.208-3.68,3.87
			H288.417z"/>
		<path d="M300.526,216.602c0.735,0.437,1.989,0.927,3.188,0.927c1.717,0,2.534-0.845,2.534-1.962c0-1.145-0.682-1.744-2.426-2.398
			c-2.398-0.872-3.516-2.152-3.516-3.733c0-2.126,1.744-3.87,4.552-3.87c1.335,0,2.507,0.354,3.216,0.817l-0.572,1.744
			c-0.518-0.326-1.472-0.79-2.698-0.79c-1.417,0-2.18,0.817-2.18,1.799c0,1.09,0.763,1.581,2.479,2.262
			c2.262,0.845,3.461,1.989,3.461,3.952c0,2.344-1.826,3.979-4.905,3.979c-1.444,0-2.78-0.382-3.706-0.927L300.526,216.602z"/>
		<path d="M314.315,202.131c0,0.817-0.572,1.472-1.526,1.472c-0.872,0-1.444-0.654-1.444-1.472s0.6-1.499,1.499-1.499
			C313.716,200.632,314.315,201.286,314.315,202.131z M311.645,219.027v-13.19h2.398v13.19H311.645z"/>
		<path d="M319.357,212.868c0.054,3.243,2.098,4.578,4.523,4.578c1.717,0,2.779-0.3,3.651-0.681l0.437,1.717
			c-0.845,0.382-2.316,0.845-4.415,0.845c-4.061,0-6.486-2.698-6.486-6.677s2.344-7.086,6.187-7.086c4.333,0,5.45,3.761,5.45,6.187
			c0,0.49-0.027,0.845-0.081,1.117H319.357z M326.388,211.151c0.027-1.499-0.626-3.87-3.324-3.87c-2.453,0-3.488,2.208-3.68,3.87
			H326.388z"/>
		<path d="M331.675,209.407c0-1.39-0.027-2.479-0.108-3.57h2.125l0.137,2.181h0.055c0.653-1.227,2.18-2.453,4.36-2.453
			c1.825,0,4.66,1.091,4.66,5.614v7.849h-2.398v-7.604c0-2.126-0.791-3.896-3.053-3.896c-1.553,0-2.779,1.117-3.216,2.452
			c-0.108,0.3-0.163,0.709-0.163,1.117v7.931h-2.398V209.407z"/>
		<path d="M349.58,202.676v3.161h3.434v1.826h-3.434v7.113c0,1.635,0.464,2.562,1.799,2.562c0.654,0,1.035-0.055,1.39-0.164
			l0.109,1.826c-0.464,0.164-1.199,0.327-2.126,0.327c-1.117,0-2.017-0.382-2.589-1.009c-0.654-0.735-0.927-1.907-0.927-3.461
			v-7.194h-2.044v-1.826h2.044v-2.452L349.58,202.676z"/>
		<path d="M364.978,215.866c0,1.145,0.055,2.262,0.191,3.161h-2.153l-0.19-1.662h-0.082c-0.736,1.035-2.153,1.962-4.033,1.962
			c-2.671,0-4.033-1.881-4.033-3.788c0-3.188,2.834-4.933,7.93-4.905v-0.272c0-1.063-0.3-3.053-2.997-3.025
			c-1.254,0-2.535,0.354-3.461,0.981l-0.545-1.608c1.09-0.681,2.697-1.145,4.36-1.145c4.033,0,5.014,2.753,5.014,5.369V215.866z
			 M362.661,212.296c-2.616-0.055-5.587,0.409-5.587,2.971c0,1.58,1.036,2.289,2.235,2.289c1.744,0,2.861-1.09,3.243-2.207
			c0.081-0.272,0.108-0.545,0.108-0.764V212.296z"/>
		<path d="M377.333,212.868c0.054,3.243,2.098,4.578,4.523,4.578c1.717,0,2.779-0.3,3.651-0.681l0.437,1.717
			c-0.845,0.382-2.316,0.845-4.415,0.845c-4.061,0-6.486-2.698-6.486-6.677s2.344-7.086,6.187-7.086c4.333,0,5.45,3.761,5.45,6.187
			c0,0.49-0.026,0.845-0.081,1.117H377.333z M384.363,211.151c0.027-1.499-0.626-3.87-3.324-3.87c-2.453,0-3.488,2.208-3.68,3.87
			H384.363z"/>
		<path d="M389.65,209.407c0-1.39-0.027-2.479-0.108-3.57h2.125l0.137,2.181h0.055c0.653-1.227,2.18-2.453,4.36-2.453
			c1.825,0,4.66,1.091,4.66,5.614v7.849h-2.398v-7.604c0-2.126-0.79-3.896-3.053-3.896c-1.553,0-2.779,1.117-3.216,2.452
			c-0.108,0.3-0.163,0.709-0.163,1.117v7.931h-2.398V209.407z"/>
		<path d="M411.925,199.679h2.398v19.349h-2.398V199.679z"/>
		<path d="M427.622,215.866c0,1.145,0.055,2.262,0.191,3.161h-2.153l-0.19-1.662h-0.082c-0.736,1.035-2.153,1.962-4.033,1.962
			c-2.671,0-4.033-1.881-4.033-3.788c0-3.188,2.834-4.933,7.93-4.905v-0.272c0-1.063-0.3-3.053-2.997-3.025
			c-1.254,0-2.535,0.354-3.461,0.981l-0.545-1.608c1.09-0.681,2.697-1.145,4.36-1.145c4.033,0,5.014,2.753,5.014,5.369V215.866z
			 M425.306,212.296c-2.616-0.055-5.587,0.409-5.587,2.971c0,1.58,1.036,2.289,2.235,2.289c1.744,0,2.861-1.09,3.243-2.207
			c0.081-0.272,0.108-0.545,0.108-0.764V212.296z"/>
		<path d="M1.663,249.304c0.735,0.437,1.988,0.927,3.188,0.927c1.717,0,2.535-0.845,2.535-1.962c0-1.145-0.682-1.744-2.426-2.398
			c-2.398-0.872-3.516-2.152-3.516-3.733c0-2.126,1.744-3.87,4.551-3.87c1.336,0,2.508,0.354,3.217,0.818l-0.572,1.744
			c-0.519-0.327-1.473-0.791-2.699-0.791c-1.416,0-2.18,0.817-2.18,1.799c0,1.09,0.764,1.581,2.48,2.262
			c2.262,0.845,3.461,1.989,3.461,3.952c0,2.344-1.826,3.979-4.906,3.979c-1.443,0-2.779-0.382-3.706-0.927L1.663,249.304z"/>
		<path d="M15.452,234.833c0,0.817-0.572,1.472-1.526,1.472c-0.872,0-1.444-0.654-1.444-1.472s0.6-1.499,1.499-1.499
			C14.853,233.334,15.452,233.988,15.452,234.833z M12.781,251.729v-13.19h2.398v13.19H12.781z"/>
		<path d="M19.158,232.381h2.398v19.349h-2.398V232.381z"/>
		<path d="M25.589,232.381h2.398v19.349h-2.398V232.381z"/>
		<path d="M41.286,248.568c0,1.145,0.055,2.262,0.191,3.161h-2.153l-0.19-1.662h-0.082c-0.736,1.035-2.152,1.962-4.033,1.962
			c-2.671,0-4.033-1.881-4.033-3.788c0-3.188,2.834-4.933,7.93-4.905v-0.272c0-1.063-0.299-3.053-2.997-3.025
			c-1.254,0-2.534,0.354-3.462,0.981l-0.545-1.608c1.091-0.681,2.698-1.145,4.361-1.145c4.033,0,5.014,2.753,5.014,5.369V248.568z
			 M38.97,244.998c-2.616-0.055-5.586,0.409-5.586,2.971c0,1.581,1.035,2.289,2.234,2.289c1.744,0,2.861-1.09,3.242-2.207
			c0.082-0.272,0.109-0.545,0.109-0.764V244.998z"/>
		<path d="M68.507,234.833c0,0.817-0.572,1.472-1.527,1.472c-0.871,0-1.443-0.654-1.443-1.472s0.6-1.499,1.498-1.499
			C67.907,233.334,68.507,233.988,68.507,234.833z M65.835,251.729v-13.19h2.398v13.19H65.835z"/>
		<path d="M72.212,242.109c0-1.39-0.026-2.479-0.108-3.57h2.126l0.136,2.181h0.055c0.654-1.227,2.181-2.453,4.36-2.453
			c1.826,0,4.66,1.091,4.66,5.614v7.849h-2.398v-7.604c0-2.126-0.79-3.896-3.052-3.896c-1.554,0-2.78,1.117-3.216,2.452
			c-0.109,0.3-0.164,0.709-0.164,1.117v7.931h-2.398V242.109z"/>
		<path d="M96.739,251.267c-0.627,0.3-2.017,0.763-3.787,0.763c-3.979,0-6.568-2.698-6.568-6.731c0-4.061,2.779-7.031,7.086-7.031
			c1.416,0,2.67,0.354,3.324,0.709l-0.545,1.826c-0.572-0.3-1.472-0.627-2.779-0.627c-3.025,0-4.66,2.262-4.66,4.987
			c0,3.052,1.962,4.933,4.578,4.933c1.362,0,2.262-0.327,2.943-0.627L96.739,251.267z"/>
		<path d="M99.546,232.381h2.398v19.349h-2.398V232.381z"/>
		<path d="M108.648,234.833c0,0.817-0.572,1.472-1.526,1.472c-0.872,0-1.444-0.654-1.444-1.472s0.6-1.499,1.499-1.499
			C108.049,233.334,108.648,233.988,108.648,234.833z M105.978,251.729v-13.19h2.398v13.19H105.978z"/>
		<path d="M112.354,242.109c0-1.39-0.027-2.479-0.109-3.57h2.126l0.137,2.181h0.054c0.654-1.227,2.181-2.453,4.361-2.453
			c1.826,0,4.66,1.091,4.66,5.614v7.849h-2.398v-7.604c0-2.126-0.791-3.896-3.053-3.896c-1.553,0-2.779,1.117-3.215,2.452
			c-0.109,0.3-0.164,0.709-0.164,1.117v7.931h-2.398V242.109z"/>
		<path d="M136.745,248.568c0,1.145,0.055,2.262,0.191,3.161h-2.153l-0.19-1.662h-0.082c-0.736,1.035-2.152,1.962-4.033,1.962
			c-2.671,0-4.033-1.881-4.033-3.788c0-3.188,2.834-4.933,7.93-4.905v-0.272c0-1.063-0.299-3.053-2.997-3.025
			c-1.254,0-2.534,0.354-3.462,0.981l-0.545-1.608c1.091-0.681,2.698-1.145,4.361-1.145c4.033,0,5.014,2.753,5.014,5.369V248.568z
			 M134.429,244.998c-2.616-0.055-5.586,0.409-5.586,2.971c0,1.581,1.035,2.289,2.234,2.289c1.744,0,2.861-1.09,3.242-2.207
			c0.082-0.272,0.109-0.545,0.109-0.764V244.998z M135.628,232.844l-3.324,3.897h-1.689l2.37-3.897H135.628z"/>
		<path d="M140.614,242.109c0-1.39-0.026-2.479-0.108-3.57h2.126l0.136,2.181h0.055c0.654-1.227,2.181-2.453,4.36-2.453
			c1.826,0,4.66,1.091,4.66,5.614v7.849h-2.398v-7.604c0-2.126-0.79-3.896-3.052-3.896c-1.554,0-2.78,1.117-3.216,2.452
			c-0.109,0.3-0.164,0.709-0.164,1.117v7.931h-2.398V242.109z"/>
		<path d="M167.104,232.381v15.942c0,1.172,0.055,2.507,0.108,3.406h-2.126l-0.108-2.289h-0.082
			c-0.708,1.472-2.289,2.589-4.442,2.589c-3.188,0-5.668-2.698-5.668-6.704c-0.027-4.388,2.725-7.059,5.914-7.059
			c2.043,0,3.379,0.954,3.979,1.989h0.055v-7.875H167.104z M164.733,243.908c0-0.3-0.027-0.709-0.109-1.009
			c-0.354-1.498-1.662-2.752-3.461-2.752c-2.48,0-3.951,2.18-3.951,5.068c0,2.671,1.335,4.879,3.896,4.879
			c1.607,0,3.08-1.091,3.516-2.862c0.082-0.326,0.109-0.653,0.109-1.035V243.908z"/>
		<path d="M183.046,245.025c0,4.878-3.406,7.004-6.567,7.004c-3.542,0-6.322-2.616-6.322-6.786c0-4.388,2.916-6.977,6.54-6.977
			C180.485,238.267,183.046,241.02,183.046,245.025z M172.608,245.162c0,2.889,1.636,5.068,3.979,5.068
			c2.289,0,4.006-2.152,4.006-5.123c0-2.235-1.117-5.042-3.952-5.042C173.835,240.065,172.608,242.682,172.608,245.162z"/>
		<path d="M185.745,249.304c0.735,0.437,1.988,0.927,3.188,0.927c1.717,0,2.535-0.845,2.535-1.962c0-1.145-0.682-1.744-2.426-2.398
			c-2.398-0.872-3.516-2.152-3.516-3.733c0-2.126,1.744-3.87,4.551-3.87c1.336,0,2.508,0.354,3.217,0.818l-0.572,1.744
			c-0.519-0.327-1.473-0.791-2.699-0.791c-1.416,0-2.18,0.817-2.18,1.799c0,1.09,0.764,1.581,2.48,2.262
			c2.262,0.845,3.461,1.989,3.461,3.952c0,2.344-1.826,3.979-4.906,3.979c-1.443,0-2.779-0.382-3.706-0.927L185.745,249.304z"/>
		<path d="M198.198,245.57c0.055,3.243,2.1,4.578,4.524,4.578c1.717,0,2.78-0.3,3.651-0.681l0.437,1.717
			c-0.845,0.382-2.316,0.845-4.415,0.845c-4.061,0-6.486-2.698-6.486-6.677s2.344-7.086,6.187-7.086c4.333,0,5.45,3.761,5.45,6.187
			c0,0.49-0.027,0.845-0.082,1.117H198.198z M205.229,243.854c0.027-1.499-0.627-3.87-3.324-3.87c-2.453,0-3.488,2.208-3.68,3.87
			H205.229z"/>
		<path d="M231.196,232.381h2.398v8.257h0.055c0.382-0.682,0.981-1.308,1.717-1.717c0.709-0.409,1.554-0.654,2.453-0.654
			c1.771,0,4.605,1.091,4.605,5.614v7.849h-2.398v-7.576c0-2.126-0.79-3.897-3.052-3.897c-1.554,0-2.753,1.091-3.216,2.371
			c-0.137,0.354-0.164,0.709-0.164,1.145v7.958h-2.398V232.381z"/>
		<path d="M255.588,248.568c0,1.145,0.054,2.262,0.19,3.161h-2.152l-0.191-1.662h-0.082c-0.735,1.035-2.152,1.962-4.033,1.962
			c-2.67,0-4.033-1.881-4.033-3.788c0-3.188,2.834-4.933,7.931-4.905v-0.272c0-1.063-0.3-3.053-2.998-3.025
			c-1.253,0-2.534,0.354-3.461,0.981l-0.545-1.608c1.091-0.681,2.698-1.145,4.36-1.145c4.033,0,5.015,2.753,5.015,5.369V248.568z
			 M253.271,244.998c-2.616-0.055-5.587,0.409-5.587,2.971c0,1.581,1.035,2.289,2.234,2.289c1.744,0,2.861-1.09,3.243-2.207
			c0.082-0.272,0.109-0.545,0.109-0.764V244.998z"/>
		<path d="M268.859,251.267c-0.627,0.3-2.017,0.763-3.788,0.763c-3.979,0-6.568-2.698-6.568-6.731c0-4.061,2.78-7.031,7.086-7.031
			c1.417,0,2.671,0.354,3.324,0.709l-0.545,1.826c-0.572-0.3-1.471-0.627-2.779-0.627c-3.025,0-4.66,2.262-4.66,4.987
			c0,3.052,1.963,4.933,4.578,4.933c1.363,0,2.262-0.327,2.943-0.627L268.859,251.267z"/>
		<path d="M274.337,234.833c0,0.817-0.572,1.472-1.526,1.472c-0.872,0-1.444-0.654-1.444-1.472s0.6-1.499,1.499-1.499
			C273.737,233.334,274.337,233.988,274.337,234.833z M271.666,251.729v-13.19h2.398v13.19H271.666z"/>
		<path d="M287.31,248.568c0,1.145,0.054,2.262,0.189,3.161h-2.152l-0.191-1.662h-0.081c-0.735,1.035-2.153,1.962-4.033,1.962
			c-2.671,0-4.034-1.881-4.034-3.788c0-3.188,2.835-4.933,7.932-4.905v-0.272c0-1.063-0.301-3.053-2.998-3.025
			c-1.254,0-2.535,0.354-3.461,0.981l-0.545-1.608c1.09-0.681,2.697-1.145,4.359-1.145c4.033,0,5.016,2.753,5.016,5.369V248.568z
			 M284.992,244.998c-2.616-0.055-5.587,0.409-5.587,2.971c0,1.581,1.036,2.289,2.235,2.289c1.744,0,2.861-1.09,3.243-2.207
			c0.082-0.272,0.108-0.545,0.108-0.764V244.998z"/>
		<path d="M323.223,232.381v15.942c0,1.172,0.055,2.507,0.109,3.406h-2.126l-0.109-2.289h-0.081
			c-0.709,1.472-2.289,2.589-4.442,2.589c-3.188,0-5.669-2.698-5.669-6.704c-0.026-4.388,2.726-7.059,5.914-7.059
			c2.044,0,3.379,0.954,3.979,1.989h0.055v-7.875H323.223z M320.852,243.908c0-0.3-0.027-0.709-0.108-1.009
			c-0.354-1.498-1.663-2.752-3.461-2.752c-2.48,0-3.952,2.18-3.952,5.068c0,2.671,1.335,4.879,3.897,4.879
			c1.607,0,3.079-1.091,3.516-2.862c0.081-0.326,0.108-0.653,0.108-1.035V243.908z"/>
		<path d="M328.564,245.57c0.054,3.243,2.098,4.578,4.523,4.578c1.717,0,2.779-0.3,3.651-0.681l0.437,1.717
			c-0.845,0.382-2.316,0.845-4.415,0.845c-4.061,0-6.486-2.698-6.486-6.677s2.344-7.086,6.187-7.086c4.333,0,5.45,3.761,5.45,6.187
			c0,0.49-0.027,0.845-0.081,1.117H328.564z M335.595,243.854c0.027-1.499-0.626-3.87-3.324-3.87c-2.453,0-3.488,2.208-3.68,3.87
			H335.595z"/>
		<path d="M340.882,232.381h2.398v19.349h-2.398V232.381z"/>
		<path d="M356.578,248.568c0,1.145,0.055,2.262,0.191,3.161h-2.153l-0.19-1.662h-0.082c-0.735,1.035-2.153,1.962-4.033,1.962
			c-2.671,0-4.033-1.881-4.033-3.788c0-3.188,2.834-4.933,7.93-4.905v-0.272c0-1.063-0.3-3.053-2.997-3.025
			c-1.254,0-2.535,0.354-3.461,0.981l-0.545-1.608c1.09-0.681,2.697-1.145,4.36-1.145c4.033,0,5.014,2.753,5.014,5.369V248.568z
			 M354.262,244.998c-2.616-0.055-5.587,0.409-5.587,2.971c0,1.581,1.036,2.289,2.235,2.289c1.744,0,2.861-1.09,3.243-2.207
			c0.081-0.272,0.108-0.545,0.108-0.764V244.998z"/>
		<path d="M360.448,242.109c0-1.39-0.027-2.479-0.108-3.57h2.125l0.137,2.181h0.055c0.653-1.227,2.18-2.453,4.36-2.453
			c1.825,0,4.66,1.091,4.66,5.614v7.849h-2.398v-7.604c0-2.126-0.791-3.896-3.053-3.896c-1.553,0-2.779,1.117-3.216,2.452
			c-0.108,0.3-0.163,0.709-0.163,1.117v7.931h-2.398V242.109z"/>
		<path d="M378.353,235.378v3.161h3.434v1.826h-3.434v7.113c0,1.635,0.464,2.562,1.799,2.562c0.654,0,1.035-0.055,1.39-0.164
			l0.109,1.826c-0.464,0.164-1.199,0.327-2.126,0.327c-1.117,0-2.017-0.382-2.589-1.009c-0.654-0.735-0.927-1.907-0.927-3.461
			v-7.194h-2.044v-1.826h2.044v-2.452L378.353,235.378z"/>
		<path d="M385.657,245.57c0.054,3.243,2.098,4.578,4.523,4.578c1.717,0,2.779-0.3,3.651-0.681l0.437,1.717
			c-0.845,0.382-2.316,0.845-4.415,0.845c-4.061,0-6.486-2.698-6.486-6.677s2.344-7.086,6.187-7.086c4.333,0,5.45,3.761,5.45,6.187
			c0,0.49-0.026,0.845-0.081,1.117H385.657z M392.688,243.854c0.027-1.499-0.626-3.87-3.324-3.87c-2.453,0-3.488,2.208-3.68,3.87
			H392.688z"/>
		<path d="M419.526,238.539l2.861,7.795c0.327,0.872,0.654,1.907,0.872,2.697h0.055c0.245-0.79,0.518-1.799,0.845-2.752l2.616-7.74
			h2.534l-3.597,9.402c-1.717,4.523-2.889,6.813-4.524,8.258c-1.198,1.008-2.344,1.417-2.942,1.525l-0.6-1.989
			c0.6-0.19,1.39-0.572,2.098-1.172c0.654-0.518,1.444-1.444,2.017-2.671c0.109-0.245,0.191-0.436,0.191-0.572
			c0-0.136-0.055-0.326-0.191-0.626l-4.851-12.155H419.526z"/>
		<path d="M1.989,274.812c0-1.39-0.055-2.479-0.109-3.57h2.1l0.108,2.153h0.081c0.736-1.254,1.963-2.426,4.17-2.426
			c1.771,0,3.135,1.091,3.707,2.644h0.055c0.408-0.763,0.953-1.308,1.498-1.717c0.791-0.6,1.635-0.927,2.889-0.927
			c1.771,0,4.361,1.145,4.361,5.724v7.739h-2.344v-7.439c0-2.562-0.955-4.061-2.862-4.061c-1.39,0-2.425,1.008-2.861,2.152
			c-0.108,0.354-0.19,0.764-0.19,1.199v8.148h-2.344v-7.903c0-2.099-0.927-3.597-2.753-3.597c-1.472,0-2.589,1.198-2.97,2.397
			c-0.137,0.327-0.191,0.764-0.191,1.172v7.931H1.989V274.812z"/>
		<path d="M27.389,267.536c0,0.817-0.572,1.472-1.526,1.472c-0.872,0-1.444-0.654-1.444-1.472s0.6-1.499,1.499-1.499
			C26.789,266.037,27.389,266.691,27.389,267.536z M24.718,284.433v-13.19h2.398v13.19H24.718z"/>
		<path d="M31.095,275.357c0-1.553-0.027-2.889-0.109-4.115h2.1l0.108,2.616h0.081c0.6-1.771,2.072-2.889,3.68-2.889
			c0.245,0,0.436,0.027,0.654,0.055v2.262c-0.246-0.054-0.49-0.054-0.818-0.054c-1.689,0-2.889,1.253-3.215,3.052
			c-0.055,0.327-0.082,0.736-0.082,1.117v7.031h-2.398V275.357z"/>
		<path d="M49.136,281.271c0,1.145,0.055,2.262,0.191,3.161h-2.153l-0.19-1.662h-0.082c-0.736,1.035-2.152,1.962-4.033,1.962
			c-2.671,0-4.033-1.881-4.033-3.788c0-3.188,2.834-4.933,7.93-4.905v-0.272c0-1.063-0.299-3.053-2.997-3.025
			c-1.254,0-2.534,0.354-3.462,0.981l-0.545-1.608c1.091-0.681,2.698-1.145,4.361-1.145c4.033,0,5.014,2.753,5.014,5.369V281.271z
			 M46.819,277.701c-2.616-0.055-5.586,0.409-5.586,2.971c0,1.581,1.035,2.289,2.234,2.289c1.744,0,2.861-1.09,3.242-2.207
			c0.082-0.272,0.109-0.545,0.109-0.764V277.701z M48.019,265.547l-3.324,3.897h-1.689l2.37-3.897H48.019z"/>
		<path d="M53.005,274.812c0-1.39-0.026-2.479-0.108-3.57h2.126l0.136,2.181h0.055c0.654-1.227,2.181-2.453,4.36-2.453
			c1.826,0,4.66,1.091,4.66,5.614v7.849h-2.398v-7.604c0-2.126-0.79-3.896-3.052-3.896c-1.554,0-2.78,1.117-3.216,2.452
			c-0.109,0.3-0.164,0.709-0.164,1.117v7.931h-2.398V274.812z"/>
		<path d="M79.495,265.084v15.942c0,1.172,0.055,2.507,0.108,3.406h-2.126l-0.108-2.289h-0.082
			c-0.708,1.472-2.289,2.589-4.442,2.589c-3.188,0-5.668-2.698-5.668-6.704c-0.027-4.388,2.725-7.059,5.914-7.059
			c2.043,0,3.379,0.954,3.979,1.989h0.055v-7.875H79.495z M77.124,276.611c0-0.3-0.027-0.709-0.109-1.009
			c-0.354-1.498-1.662-2.752-3.461-2.752c-2.48,0-3.951,2.18-3.951,5.068c0,2.671,1.335,4.879,3.896,4.879
			c1.607,0,3.08-1.091,3.516-2.862c0.082-0.326,0.109-0.653,0.109-1.035V276.611z"/>
		<path d="M95.437,277.729c0,4.878-3.406,7.004-6.567,7.004c-3.542,0-6.322-2.616-6.322-6.786c0-4.388,2.916-6.977,6.54-6.977
			C92.876,270.97,95.437,273.723,95.437,277.729z M84.999,277.865c0,2.889,1.636,5.068,3.979,5.068c2.289,0,4.006-2.152,4.006-5.123
			c0-2.235-1.117-5.042-3.952-5.042C86.226,272.769,84.999,275.385,84.999,277.865z"/>
		<path d="M98.462,265.084h2.398v19.349h-2.398V265.084z"/>
		<path d="M114.159,281.271c0,1.145,0.055,2.262,0.19,3.161h-2.153l-0.19-1.662h-0.081c-0.736,1.035-2.153,1.962-4.033,1.962
			c-2.672,0-4.034-1.881-4.034-3.788c0-3.188,2.835-4.933,7.931-4.905v-0.272c0-1.063-0.3-3.053-2.998-3.025
			c-1.254,0-2.534,0.354-3.461,0.981l-0.545-1.608c1.09-0.681,2.698-1.145,4.36-1.145c4.033,0,5.015,2.753,5.015,5.369V281.271z
			 M111.843,277.701c-2.616-0.055-5.587,0.409-5.587,2.971c0,1.581,1.036,2.289,2.235,2.289c1.744,0,2.861-1.09,3.242-2.207
			c0.082-0.272,0.109-0.545,0.109-0.764V277.701z"/>
		<path d="M133.071,281.271c0,1.145,0.055,2.262,0.191,3.161h-2.153l-0.19-1.662h-0.082c-0.736,1.035-2.152,1.962-4.033,1.962
			c-2.671,0-4.033-1.881-4.033-3.788c0-3.188,2.834-4.933,7.93-4.905v-0.272c0-1.063-0.299-3.053-2.997-3.025
			c-1.254,0-2.534,0.354-3.462,0.981l-0.545-1.608c1.091-0.681,2.698-1.145,4.361-1.145c4.033,0,5.014,2.753,5.014,5.369V281.271z
			 M130.755,277.701c-2.616-0.055-5.586,0.409-5.586,2.971c0,1.581,1.035,2.289,2.234,2.289c1.744,0,2.861-1.09,3.242-2.207
			c0.082-0.272,0.109-0.545,0.109-0.764V277.701z"/>
		<path d="M142.718,265.084h2.398v19.349h-2.398V265.084z"/>
		<path d="M161.086,277.729c0,4.878-3.406,7.004-6.567,7.004c-3.543,0-6.322-2.616-6.322-6.786c0-4.388,2.916-6.977,6.54-6.977
			C158.524,270.97,161.086,273.723,161.086,277.729z M150.648,277.865c0,2.889,1.636,5.068,3.979,5.068
			c2.289,0,4.006-2.152,4.006-5.123c0-2.235-1.117-5.042-3.952-5.042C151.875,272.769,150.648,275.385,150.648,277.865z"/>
		<path d="M163.784,282.007c0.735,0.437,1.989,0.927,3.188,0.927c1.717,0,2.534-0.845,2.534-1.962c0-1.145-0.682-1.744-2.426-2.398
			c-2.398-0.872-3.516-2.152-3.516-3.733c0-2.126,1.744-3.87,4.552-3.87c1.335,0,2.507,0.354,3.216,0.818l-0.572,1.744
			c-0.518-0.327-1.472-0.791-2.698-0.791c-1.417,0-2.181,0.817-2.181,1.799c0,1.09,0.764,1.581,2.48,2.262
			c2.262,0.845,3.461,1.989,3.461,3.952c0,2.344-1.826,3.979-4.905,3.979c-1.444,0-2.78-0.382-3.706-0.927L163.784,282.007z"/>
		<path d="M192.616,277.729c0,4.878-3.406,7.004-6.567,7.004c-3.542,0-6.322-2.616-6.322-6.786c0-4.388,2.916-6.977,6.54-6.977
			C190.056,270.97,192.616,273.723,192.616,277.729z M182.179,277.865c0,2.889,1.636,5.068,3.979,5.068
			c2.289,0,4.006-2.152,4.006-5.123c0-2.235-1.117-5.042-3.952-5.042C183.405,272.769,182.179,275.385,182.179,277.865z"/>
		<path d="M192.399,288.303c1.117-0.082,2.043-0.382,2.615-1.036c0.654-0.735,0.927-1.771,0.927-4.933v-11.092h2.398v12.019
			c0,2.562-0.409,4.225-1.581,5.423c-1.062,1.063-2.807,1.499-4.088,1.499L192.399,288.303z M198.612,267.536
			c0,0.79-0.545,1.472-1.526,1.472c-0.872,0-1.444-0.682-1.444-1.472c0-0.817,0.6-1.499,1.499-1.499
			S198.612,266.719,198.612,267.536z"/>
		<path d="M214.2,277.729c0,4.878-3.406,7.004-6.568,7.004c-3.542,0-6.322-2.616-6.322-6.786c0-4.388,2.916-6.977,6.541-6.977
			C211.639,270.97,214.2,273.723,214.2,277.729z M203.763,277.865c0,2.889,1.635,5.068,3.979,5.068c2.289,0,4.006-2.152,4.006-5.123
			c0-2.235-1.117-5.042-3.951-5.042C204.989,272.769,203.763,275.385,203.763,277.865z"/>
		<path d="M216.898,282.007c0.735,0.437,1.989,0.927,3.188,0.927c1.717,0,2.534-0.845,2.534-1.962c0-1.145-0.681-1.744-2.425-2.398
			c-2.398-0.872-3.516-2.152-3.516-3.733c0-2.126,1.744-3.87,4.551-3.87c1.336,0,2.507,0.354,3.216,0.818l-0.572,1.744
			c-0.519-0.327-1.472-0.791-2.698-0.791c-1.417,0-2.18,0.817-2.18,1.799c0,1.09,0.763,1.581,2.479,2.262
			c2.262,0.845,3.461,1.989,3.461,3.952c0,2.344-1.825,3.979-4.905,3.979c-1.444,0-2.779-0.382-3.706-0.927L216.898,282.007z"/>
		<path d="M227.146,283.016c0-0.981,0.682-1.717,1.635-1.717s1.607,0.708,1.607,1.717c0,0.981-0.654,1.717-1.662,1.717
			C227.8,284.732,227.146,283.997,227.146,283.016z"/>
	</g>
</g>
</svg>
