<?xml version="1.0" encoding="utf-8"?>
<!-- Generator: Adobe Illustrator 16.0.0, SVG Export Plug-In . SVG Version: 6.00 Build 0)  -->
<!DOCTYPE svg PUBLIC "-//W3C//DTD SVG 1.1//EN" "http://www.w3.org/Graphics/SVG/1.1/DTD/svg11.dtd">
<svg version="1.1" id="Capa_1" xmlns="http://www.w3.org/2000/svg" xmlns:xlink="http://www.w3.org/1999/xlink" x="0px" y="0px"
	 width="508.497px" height="263.328px" viewBox="0 0 508.497 263.328" enable-background="new 0 0 508.497 263.328"
	 xml:space="preserve">
<g>
	<rect x="0.001" y="3.463" fill="none" width="416.056" height="259.865"/>
	<path d="M1.771,19.922c1.062,0.682,2.589,1.199,4.224,1.199c2.425,0,3.842-1.281,3.842-3.134c0-1.69-0.981-2.698-3.461-3.625
		c-2.998-1.09-4.851-2.671-4.851-5.232c0-2.861,2.371-4.987,5.941-4.987c1.853,0,3.243,0.437,4.033,0.899l-0.654,1.935
		c-0.572-0.354-1.798-0.872-3.461-0.872c-2.507,0-3.461,1.499-3.461,2.753c0,1.717,1.117,2.562,3.652,3.543
		c3.106,1.199,4.66,2.698,4.66,5.396c0,2.834-2.071,5.314-6.404,5.314c-1.771,0-3.707-0.545-4.688-1.199L1.771,19.922z"/>
	<path d="M27.524,16.106c0,4.878-3.406,7.004-6.568,7.004c-3.542,0-6.322-2.616-6.322-6.786c0-4.388,2.916-6.977,6.541-6.977
		C24.963,9.348,27.524,12.101,27.524,16.106z M17.087,16.243c0,2.889,1.635,5.068,3.979,5.068c2.289,0,4.006-2.152,4.006-5.123
		c0-2.235-1.117-5.042-3.952-5.042C18.313,11.146,17.087,13.763,17.087,16.243z"/>
	<path d="M30.549,13.19c0-1.39-0.027-2.479-0.109-3.57h2.125l0.136,2.181h0.055c0.654-1.227,2.18-2.453,4.36-2.453
		c1.826,0,4.66,1.091,4.66,5.614v7.849h-2.398v-7.604c0-2.126-0.791-3.896-3.052-3.896c-1.554,0-2.78,1.117-3.216,2.452
		c-0.109,0.3-0.164,0.709-0.164,1.117v7.931h-2.398V13.19z"/>
	<path d="M50.515,3.462h2.398v19.349h-2.398V3.462z"/>
	<path d="M66.212,19.649c0,1.145,0.054,2.262,0.19,3.161H64.25l-0.191-1.662h-0.082c-0.736,1.035-2.153,1.962-4.033,1.962
		c-2.671,0-4.034-1.881-4.034-3.788c0-3.188,2.834-4.933,7.931-4.905v-0.272c0-1.063-0.3-3.053-2.998-3.025
		c-1.254,0-2.535,0.354-3.461,0.981l-0.545-1.608c1.09-0.681,2.698-1.145,4.36-1.145c4.033,0,5.015,2.753,5.015,5.369V19.649z
		 M63.896,16.079c-2.616-0.055-5.586,0.409-5.586,2.971c0,1.58,1.036,2.289,2.235,2.289c1.744,0,2.861-1.09,3.243-2.207
		c0.082-0.272,0.109-0.545,0.109-0.764V16.079z"/>
	<path d="M69.755,20.385c0.735,0.437,1.989,0.927,3.188,0.927c1.717,0,2.534-0.845,2.534-1.962c0-1.145-0.682-1.744-2.426-2.398
		c-2.398-0.872-3.516-2.152-3.516-3.733c0-2.126,1.744-3.87,4.552-3.87c1.335,0,2.507,0.354,3.216,0.817l-0.572,1.744
		c-0.518-0.326-1.472-0.79-2.698-0.79c-1.417,0-2.181,0.817-2.181,1.799c0,1.09,0.764,1.581,2.48,2.262
		c2.262,0.845,3.461,1.989,3.461,3.952c0,2.344-1.826,3.979-4.905,3.979c-1.444,0-2.78-0.382-3.706-0.927L69.755,20.385z"/>
	<path d="M97.079,3.462v15.942c0,1.172,0.055,2.507,0.108,3.406h-2.126l-0.108-2.289h-0.082c-0.708,1.472-2.289,2.589-4.442,2.589
		c-3.188,0-5.668-2.698-5.668-6.704c-0.027-4.388,2.725-7.059,5.914-7.059c2.043,0,3.379,0.954,3.979,1.989h0.055V3.462H97.079z
		 M94.708,14.989c0-0.3-0.027-0.709-0.109-1.009c-0.354-1.498-1.662-2.752-3.461-2.752c-2.48,0-3.951,2.18-3.951,5.068
		c0,2.671,1.335,4.879,3.896,4.879c1.607,0,3.08-1.091,3.516-2.862c0.082-0.326,0.109-0.653,0.109-1.035V14.989z"/>
	<path d="M113.021,16.106c0,4.878-3.406,7.004-6.567,7.004c-3.542,0-6.322-2.616-6.322-6.786c0-4.388,2.916-6.977,6.54-6.977
		C110.46,9.348,113.021,12.101,113.021,16.106z M102.583,16.243c0,2.889,1.636,5.068,3.979,5.068c2.289,0,4.006-2.152,4.006-5.123
		c0-2.235-1.117-5.042-3.952-5.042C103.81,11.146,102.583,13.763,102.583,16.243z"/>
	<path d="M115.72,20.385c0.735,0.437,1.988,0.927,3.188,0.927c1.717,0,2.535-0.845,2.535-1.962c0-1.145-0.682-1.744-2.426-2.398
		c-2.398-0.872-3.516-2.152-3.516-3.733c0-2.126,1.744-3.87,4.551-3.87c1.336,0,2.508,0.354,3.217,0.817l-0.572,1.744
		c-0.519-0.326-1.473-0.79-2.699-0.79c-1.416,0-2.18,0.817-2.18,1.799c0,1.09,0.764,1.581,2.48,2.262
		c2.262,0.845,3.461,1.989,3.461,3.952c0,2.344-1.826,3.979-4.906,3.979c-1.443,0-2.779-0.382-3.706-0.927L115.72,20.385z"/>
	<path d="M143.043,3.462v15.942c0,1.172,0.055,2.507,0.108,3.406h-2.125l-0.109-2.289h-0.082c-0.708,1.472-2.289,2.589-4.441,2.589
		c-3.188,0-5.668-2.698-5.668-6.704c-0.027-4.388,2.725-7.059,5.913-7.059c2.044,0,3.38,0.954,3.979,1.989h0.054V3.462H143.043z
		 M140.672,14.989c0-0.3-0.026-0.709-0.108-1.009c-0.354-1.498-1.662-2.752-3.461-2.752c-2.48,0-3.952,2.18-3.952,5.068
		c0,2.671,1.335,4.879,3.897,4.879c1.607,0,3.079-1.091,3.516-2.862c0.082-0.326,0.108-0.653,0.108-1.035V14.989z"/>
	<path d="M148.384,16.651c0.055,3.243,2.1,4.578,4.524,4.578c1.717,0,2.78-0.3,3.651-0.681l0.437,1.717
		c-0.845,0.382-2.316,0.845-4.415,0.845c-4.061,0-6.486-2.698-6.486-6.677s2.344-7.086,6.187-7.086c4.333,0,5.45,3.761,5.45,6.187
		c0,0.49-0.027,0.845-0.082,1.117H148.384z M155.415,14.935c0.027-1.499-0.627-3.87-3.324-3.87c-2.453,0-3.488,2.208-3.68,3.87
		H155.415z"/>
	<path d="M165.544,3.462h2.398v19.349h-2.398V3.462z"/>
	<path d="M181.241,19.649c0,1.145,0.054,2.262,0.189,3.161h-2.152l-0.191-1.662h-0.081c-0.735,1.035-2.153,1.962-4.033,1.962
		c-2.671,0-4.034-1.881-4.034-3.788c0-3.188,2.835-4.933,7.932-4.905v-0.272c0-1.063-0.301-3.053-2.998-3.025
		c-1.254,0-2.535,0.354-3.461,0.981l-0.545-1.608c1.09-0.681,2.697-1.145,4.359-1.145c4.033,0,5.016,2.753,5.016,5.369V19.649z
		 M178.924,16.079c-2.616-0.055-5.587,0.409-5.587,2.971c0,1.58,1.036,2.289,2.235,2.289c1.744,0,2.861-1.09,3.243-2.207
		c0.082-0.272,0.108-0.545,0.108-0.764V16.079z"/>
	<path d="M192.839,6.459V9.62h3.435v1.826h-3.435v7.113c0,1.635,0.464,2.562,1.799,2.562c0.654,0,1.036-0.055,1.391-0.164
		l0.109,1.826c-0.464,0.164-1.199,0.327-2.127,0.327c-1.117,0-2.016-0.382-2.588-1.009c-0.654-0.735-0.927-1.907-0.927-3.461v-7.194
		h-2.044V9.62h2.044V7.168L192.839,6.459z"/>
	<path d="M208.237,19.649c0,1.145,0.055,2.262,0.19,3.161h-2.153l-0.19-1.662h-0.081c-0.736,1.035-2.153,1.962-4.033,1.962
		c-2.672,0-4.034-1.881-4.034-3.788c0-3.188,2.835-4.933,7.931-4.905v-0.272c0-1.063-0.3-3.053-2.998-3.025
		c-1.254,0-2.534,0.354-3.461,0.981l-0.545-1.608c1.09-0.681,2.698-1.145,4.36-1.145c4.033,0,5.015,2.753,5.015,5.369V19.649z
		 M205.921,16.079c-2.616-0.055-5.587,0.409-5.587,2.971c0,1.58,1.036,2.289,2.235,2.289c1.744,0,2.861-1.09,3.242-2.207
		c0.082-0.272,0.109-0.545,0.109-0.764V16.079z"/>
	<path d="M212.106,13.735c0-1.553-0.027-2.889-0.109-4.115h2.1l0.108,2.616h0.081c0.6-1.771,2.072-2.889,3.68-2.889
		c0.245,0,0.436,0.027,0.654,0.055v2.262c-0.246-0.054-0.49-0.054-0.818-0.054c-1.689,0-2.889,1.253-3.215,3.052
		c-0.055,0.327-0.082,0.735-0.082,1.117v7.031h-2.398V13.735z"/>
	<path d="M232.109,3.462v15.942c0,1.172,0.055,2.507,0.108,3.406h-2.125l-0.109-2.289h-0.082c-0.708,1.472-2.289,2.589-4.441,2.589
		c-3.188,0-5.668-2.698-5.668-6.704c-0.027-4.388,2.725-7.059,5.913-7.059c2.044,0,3.38,0.954,3.979,1.989h0.054V3.462H232.109z
		 M229.738,14.989c0-0.3-0.026-0.709-0.108-1.009c-0.354-1.498-1.662-2.752-3.461-2.752c-2.48,0-3.952,2.18-3.952,5.068
		c0,2.671,1.335,4.879,3.897,4.879c1.607,0,3.079-1.091,3.516-2.862c0.082-0.326,0.108-0.653,0.108-1.035V14.989z"/>
	<path d="M237.45,16.651c0.055,3.243,2.1,4.578,4.524,4.578c1.717,0,2.78-0.3,3.651-0.681l0.437,1.717
		c-0.845,0.382-2.316,0.845-4.415,0.845c-4.061,0-6.486-2.698-6.486-6.677s2.344-7.086,6.187-7.086c4.333,0,5.45,3.761,5.45,6.187
		c0,0.49-0.027,0.845-0.082,1.117H237.45z M244.481,14.935c0.027-1.499-0.627-3.87-3.324-3.87c-2.453,0-3.488,2.208-3.68,3.87
		H244.481z"/>
	<path d="M255.481,9.62l2.861,7.795c0.327,0.872,0.654,1.907,0.873,2.697h0.054c0.245-0.79,0.519-1.799,0.845-2.752l2.616-7.74
		h2.534l-3.597,9.402c-1.717,4.523-2.889,6.813-4.524,8.258c-1.199,1.008-2.344,1.417-2.943,1.525l-0.6-1.989
		c0.6-0.19,1.391-0.572,2.1-1.172c0.653-0.518,1.443-1.444,2.016-2.671c0.109-0.245,0.191-0.436,0.191-0.572
		c0-0.136-0.055-0.326-0.191-0.626L252.865,9.62H255.481z"/>
	<path d="M275.338,17.033l-1.907,5.777h-2.453l6.268-18.368h2.835l6.269,18.368h-2.535l-1.962-5.777H275.338z M281.388,15.18
		l-1.826-5.287c-0.408-1.198-0.681-2.289-0.953-3.352h-0.055c-0.272,1.062-0.545,2.207-0.926,3.325l-1.799,5.313H281.388z"/>
	<path d="M288.882,13.735c0-1.553-0.026-2.889-0.108-4.115h2.099l0.109,2.616h0.081c0.6-1.771,2.071-2.889,3.679-2.889
		c0.246,0,0.437,0.027,0.654,0.055v2.262c-0.245-0.054-0.49-0.054-0.817-0.054c-1.689,0-2.889,1.253-3.216,3.052
		c-0.055,0.327-0.082,0.735-0.082,1.117v7.031h-2.398V13.735z"/>
	<path d="M301.335,6.459V9.62h3.435v1.826h-3.435v7.113c0,1.635,0.464,2.562,1.8,2.562c0.653,0,1.035-0.055,1.39-0.164l0.108,1.826
		c-0.463,0.164-1.199,0.327-2.125,0.327c-1.118,0-2.017-0.382-2.589-1.009c-0.654-0.735-0.927-1.907-0.927-3.461v-7.194h-2.044V9.62
		h2.044V7.168L301.335,6.459z"/>
	<path d="M318.505,19.186c0,1.391,0.027,2.59,0.109,3.625h-2.126l-0.136-2.153h-0.055c-0.6,1.063-2.017,2.453-4.36,2.453
		c-2.071,0-4.552-1.172-4.552-5.777V9.62h2.398v7.276c0,2.508,0.79,4.225,2.943,4.225c1.608,0,2.726-1.117,3.161-2.208
		c0.137-0.326,0.218-0.763,0.218-1.226V9.62h2.398V19.186z"/>
	<path d="M322.483,13.735c0-1.553-0.027-2.889-0.108-4.115h2.098l0.109,2.616h0.082c0.6-1.771,2.071-2.889,3.679-2.889
		c0.245,0,0.437,0.027,0.654,0.055v2.262c-0.245-0.054-0.491-0.054-0.817-0.054c-1.69,0-2.889,1.253-3.216,3.052
		c-0.055,0.327-0.082,0.735-0.082,1.117v7.031h-2.398V13.735z"/>
	<path d="M343.059,16.106c0,4.878-3.406,7.004-6.567,7.004c-3.543,0-6.323-2.616-6.323-6.786c0-4.388,2.916-6.977,6.541-6.977
		C340.497,9.348,343.059,12.101,343.059,16.106z M332.621,16.243c0,2.889,1.635,5.068,3.979,5.068c2.289,0,4.007-2.152,4.007-5.123
		c0-2.235-1.118-5.042-3.952-5.042C333.848,11.146,332.621,13.763,332.621,16.243z"/>
	<path d="M360.189,19.649c0,1.145,0.055,2.262,0.191,3.161h-2.153l-0.19-1.662h-0.082c-0.736,1.035-2.153,1.962-4.033,1.962
		c-2.671,0-4.033-1.881-4.033-3.788c0-3.188,2.834-4.933,7.93-4.905v-0.272c0-1.063-0.3-3.053-2.997-3.025
		c-1.254,0-2.535,0.354-3.461,0.981l-0.545-1.608c1.09-0.681,2.697-1.145,4.36-1.145c4.033,0,5.014,2.753,5.014,5.369V19.649z
		 M357.873,16.079c-2.616-0.055-5.587,0.409-5.587,2.971c0,1.58,1.036,2.289,2.235,2.289c1.744,0,2.861-1.09,3.243-2.207
		c0.081-0.272,0.108-0.545,0.108-0.764V16.079z"/>
	<path d="M373.462,22.348c-0.627,0.3-2.017,0.763-3.788,0.763c-3.979,0-6.568-2.698-6.568-6.731c0-4.061,2.78-7.031,7.086-7.031
		c1.417,0,2.671,0.354,3.325,0.709l-0.546,1.826c-0.572-0.3-1.471-0.627-2.779-0.627c-3.025,0-4.66,2.262-4.66,4.987
		c0,3.052,1.962,4.933,4.578,4.933c1.363,0,2.263-0.327,2.943-0.627L373.462,22.348z"/>
	<path d="M385.534,19.649c0,1.145,0.055,2.262,0.191,3.161h-2.153l-0.19-1.662H383.3c-0.735,1.035-2.153,1.962-4.033,1.962
		c-2.671,0-4.033-1.881-4.033-3.788c0-3.188,2.834-4.933,7.93-4.905v-0.272c0-1.063-0.3-3.053-2.997-3.025
		c-1.254,0-2.535,0.354-3.461,0.981l-0.545-1.608c1.09-0.681,2.697-1.145,4.36-1.145c4.033,0,5.014,2.753,5.014,5.369V19.649z
		 M383.218,16.079c-2.616-0.055-5.587,0.409-5.587,2.971c0,1.58,1.036,2.289,2.235,2.289c1.744,0,2.861-1.09,3.243-2.207
		c0.081-0.272,0.108-0.545,0.108-0.764V16.079z"/>
	<path d="M389.404,3.462h2.371v8.284h0.055c0.845-1.472,2.371-2.398,4.496-2.398c3.298,0,5.587,2.726,5.587,6.704
		c0,4.715-2.998,7.059-5.94,7.059c-1.908,0-3.435-0.736-4.442-2.453h-0.055l-0.136,2.153h-2.044
		c0.054-0.899,0.108-2.234,0.108-3.406V3.462z M391.775,17.523c0,0.3,0.027,0.6,0.109,0.872c0.436,1.662,1.853,2.808,3.597,2.808
		c2.535,0,4.006-2.044,4.006-5.069c0-2.644-1.362-4.905-3.951-4.905c-1.607,0-3.134,1.145-3.624,2.943
		c-0.082,0.3-0.137,0.627-0.137,1.008V17.523z"/>
	<path d="M414.176,19.649c0,1.145,0.055,2.262,0.191,3.161h-2.153l-0.19-1.662h-0.082c-0.736,1.035-2.153,1.962-4.033,1.962
		c-2.671,0-4.033-1.881-4.033-3.788c0-3.188,2.834-4.933,7.93-4.905v-0.272c0-1.063-0.3-3.053-2.997-3.025
		c-1.254,0-2.535,0.354-3.461,0.981l-0.545-1.608c1.09-0.681,2.697-1.145,4.36-1.145c4.033,0,5.014,2.753,5.014,5.369V19.649z
		 M411.859,16.079c-2.616-0.055-5.587,0.409-5.587,2.971c0,1.58,1.036,2.289,2.235,2.289c1.744,0,2.861-1.09,3.243-2.207
		c0.081-0.272,0.108-0.545,0.108-0.764V16.079z"/>
	<path d="M13.354,36.165v15.942c0,1.172,0.055,2.507,0.109,3.406h-2.125l-0.109-2.289h-0.082c-0.708,1.472-2.289,2.589-4.442,2.589
		c-3.188,0-5.668-2.698-5.668-6.704c-0.027-4.388,2.725-7.059,5.914-7.059c2.044,0,3.379,0.954,3.979,1.989h0.054v-7.875H13.354z
		 M10.982,47.692c0-0.3-0.027-0.709-0.109-1.009c-0.354-1.498-1.662-2.752-3.461-2.752c-2.48,0-3.952,2.18-3.952,5.068
		c0,2.671,1.335,4.879,3.897,4.879c1.608,0,3.08-1.091,3.516-2.862c0.082-0.326,0.109-0.653,0.109-1.035V47.692z"/>
	<path d="M18.695,49.354c0.055,3.243,2.099,4.578,4.524,4.578c1.717,0,2.78-0.3,3.652-0.681l0.436,1.717
		c-0.845,0.382-2.316,0.845-4.415,0.845c-4.061,0-6.486-2.698-6.486-6.677s2.344-7.086,6.186-7.086c4.333,0,5.451,3.761,5.451,6.187
		c0,0.49-0.027,0.845-0.082,1.117H18.695z M25.726,47.638c0.027-1.499-0.627-3.87-3.325-3.87c-2.453,0-3.488,2.208-3.679,3.87
		H25.726z"/>
	<path d="M50.135,52.353c0,1.145,0.054,2.262,0.19,3.161h-2.153l-0.191-1.662H47.9c-0.736,1.035-2.153,1.962-4.033,1.962
		c-2.671,0-4.034-1.881-4.034-3.788c0-3.188,2.834-4.933,7.931-4.905v-0.272c0-1.063-0.3-3.053-2.998-3.025
		c-1.254,0-2.535,0.354-3.461,0.981l-0.545-1.608c1.09-0.681,2.698-1.145,4.36-1.145c4.033,0,5.015,2.753,5.015,5.369V52.353z
		 M47.818,48.782c-2.616-0.055-5.586,0.409-5.586,2.971c0,1.58,1.036,2.289,2.235,2.289c1.744,0,2.861-1.09,3.243-2.207
		c0.082-0.272,0.109-0.545,0.109-0.764V48.782z"/>
	<path d="M54.004,36.165h2.398v19.349h-2.398V36.165z"/>
	<path d="M60.436,45.894c0-1.39-0.054-2.479-0.109-3.57h2.099l0.109,2.153h0.082c0.736-1.254,1.962-2.426,4.17-2.426
		c1.771,0,3.133,1.091,3.706,2.644h0.055c0.409-0.763,0.954-1.308,1.499-1.717c0.79-0.6,1.636-0.927,2.89-0.927
		c1.771,0,4.359,1.145,4.359,5.724v7.739H76.95v-7.439c0-2.562-0.953-4.061-2.861-4.061c-1.39,0-2.426,1.008-2.861,2.152
		c-0.109,0.354-0.191,0.764-0.191,1.199v8.148h-2.343V47.61c0-2.099-0.927-3.597-2.753-3.597c-1.471,0-2.589,1.198-2.97,2.397
		c-0.136,0.327-0.191,0.764-0.191,1.172v7.931h-2.344V45.894z"/>
	<path d="M95.101,48.81c0,4.878-3.406,7.004-6.568,7.004c-3.542,0-6.322-2.616-6.322-6.786c0-4.388,2.916-6.977,6.541-6.977
		C92.539,42.051,95.101,44.804,95.101,48.81z M84.663,48.946c0,2.889,1.635,5.068,3.979,5.068c2.289,0,4.006-2.152,4.006-5.123
		c0-2.235-1.117-5.042-3.951-5.042C85.89,43.85,84.663,46.466,84.663,48.946z"/>
	<path d="M98.126,46.438c0-1.553-0.027-2.889-0.109-4.115h2.099l0.108,2.616h0.082c0.6-1.771,2.071-2.889,3.68-2.889
		c0.244,0,0.436,0.027,0.653,0.055v2.262c-0.245-0.054-0.49-0.054-0.817-0.054c-1.689,0-2.889,1.253-3.216,3.052
		c-0.054,0.327-0.081,0.735-0.081,1.117v7.031h-2.398V46.438z"/>
	<path d="M105.784,54.124l5.94-7.768c0.6-0.735,1.145-1.362,1.744-2.07v-0.055h-7.14v-1.908h10.028v1.499l-5.887,7.658
		c-0.572,0.735-1.09,1.417-1.689,2.071v0.055h7.685v1.907h-10.682V54.124z"/>
	<path d="M128.212,52.353c0,1.145,0.055,2.262,0.19,3.161h-2.153l-0.19-1.662h-0.081c-0.736,1.035-2.153,1.962-4.033,1.962
		c-2.672,0-4.034-1.881-4.034-3.788c0-3.188,2.835-4.933,7.931-4.905v-0.272c0-1.063-0.3-3.053-2.998-3.025
		c-1.254,0-2.534,0.354-3.461,0.981l-0.545-1.608c1.09-0.681,2.698-1.145,4.36-1.145c4.033,0,5.015,2.753,5.015,5.369V52.353z
		 M125.896,48.782c-2.616-0.055-5.587,0.409-5.587,2.971c0,1.58,1.036,2.289,2.235,2.289c1.744,0,2.861-1.09,3.242-2.207
		c0.082-0.272,0.109-0.545,0.109-0.764V48.782z"/>
	<path d="M132.081,46.438c0-1.553-0.027-2.889-0.109-4.115h2.1l0.108,2.616h0.081c0.6-1.771,2.072-2.889,3.68-2.889
		c0.245,0,0.436,0.027,0.654,0.055v2.262c-0.246-0.054-0.49-0.054-0.818-0.054c-1.689,0-2.889,1.253-3.215,3.052
		c-0.055,0.327-0.082,0.735-0.082,1.117v7.031h-2.398V46.438z"/>
	<path d="M138.976,54.097c0-0.981,0.682-1.717,1.635-1.717c0.954,0,1.608,0.708,1.608,1.717c0,0.98-0.654,1.717-1.663,1.717
		C139.63,55.813,138.976,55.077,138.976,54.097z"/>
	<path d="M157.498,37.146v7.686h8.884v-7.686h2.398v18.368h-2.398v-8.611h-8.884v8.611h-2.397V37.146H157.498z"/>
	<path d="M182.079,52.353c0,1.145,0.055,2.262,0.191,3.161h-2.153l-0.19-1.662h-0.082c-0.736,1.035-2.152,1.962-4.033,1.962
		c-2.671,0-4.033-1.881-4.033-3.788c0-3.188,2.834-4.933,7.93-4.905v-0.272c0-1.063-0.299-3.053-2.997-3.025
		c-1.254,0-2.534,0.354-3.462,0.981l-0.545-1.608c1.091-0.681,2.698-1.145,4.361-1.145c4.033,0,5.014,2.753,5.014,5.369V52.353z
		 M179.763,48.782c-2.616-0.055-5.586,0.409-5.586,2.971c0,1.58,1.035,2.289,2.234,2.289c1.744,0,2.861-1.09,3.242-2.207
		c0.082-0.272,0.109-0.545,0.109-0.764V48.782z"/>
	<path d="M195.351,55.051c-0.627,0.3-2.017,0.763-3.787,0.763c-3.979,0-6.568-2.698-6.568-6.731c0-4.061,2.779-7.031,7.086-7.031
		c1.416,0,2.67,0.354,3.324,0.709l-0.545,1.826c-0.572-0.3-1.472-0.627-2.779-0.627c-3.025,0-4.66,2.262-4.66,4.987
		c0,3.052,1.962,4.933,4.578,4.933c1.362,0,2.262-0.327,2.943-0.627L195.351,55.051z"/>
	<path d="M199.329,49.354c0.055,3.243,2.1,4.578,4.524,4.578c1.717,0,2.78-0.3,3.651-0.681l0.437,1.717
		c-0.845,0.382-2.316,0.845-4.415,0.845c-4.061,0-6.486-2.698-6.486-6.677s2.344-7.086,6.187-7.086c4.333,0,5.45,3.761,5.45,6.187
		c0,0.49-0.027,0.845-0.082,1.117H199.329z M206.36,47.638c0.027-1.499-0.627-3.87-3.324-3.87c-2.453,0-3.488,2.208-3.68,3.87
		H206.36z"/>
	<path d="M230.906,55.051c-0.627,0.3-2.017,0.763-3.788,0.763c-3.979,0-6.568-2.698-6.568-6.731c0-4.061,2.78-7.031,7.086-7.031
		c1.417,0,2.671,0.354,3.324,0.709l-0.545,1.826c-0.572-0.3-1.471-0.627-2.779-0.627c-3.025,0-4.66,2.262-4.66,4.987
		c0,3.052,1.963,4.933,4.578,4.933c1.363,0,2.262-0.327,2.943-0.627L230.906,55.051z"/>
	<path d="M242.979,52.353c0,1.145,0.054,2.262,0.189,3.161h-2.152l-0.191-1.662h-0.081c-0.735,1.035-2.153,1.962-4.033,1.962
		c-2.671,0-4.034-1.881-4.034-3.788c0-3.188,2.835-4.933,7.932-4.905v-0.272c0-1.063-0.301-3.053-2.998-3.025
		c-1.254,0-2.535,0.354-3.461,0.981l-0.545-1.608c1.09-0.681,2.697-1.145,4.359-1.145c4.033,0,5.016,2.753,5.016,5.369V52.353z
		 M240.662,48.782c-2.616-0.055-5.587,0.409-5.587,2.971c0,1.58,1.036,2.289,2.235,2.289c1.744,0,2.861-1.09,3.243-2.207
		c0.082-0.272,0.108-0.545,0.108-0.764V48.782z"/>
	<path d="M246.849,36.165h2.398v19.349h-2.398V36.165z"/>
	<path d="M265.216,48.81c0,4.878-3.406,7.004-6.568,7.004c-3.542,0-6.322-2.616-6.322-6.786c0-4.388,2.916-6.977,6.541-6.977
		C262.654,42.051,265.216,44.804,265.216,48.81z M254.778,48.946c0,2.889,1.635,5.068,3.979,5.068c2.289,0,4.006-2.152,4.006-5.123
		c0-2.235-1.117-5.042-3.951-5.042C256.005,43.85,254.778,46.466,254.778,48.946z"/>
	<path d="M268.241,46.438c0-1.553-0.027-2.889-0.109-4.115h2.099l0.108,2.616h0.082c0.6-1.771,2.071-2.889,3.68-2.889
		c0.244,0,0.436,0.027,0.653,0.055v2.262c-0.245-0.054-0.49-0.054-0.817-0.054c-1.689,0-2.889,1.253-3.216,3.052
		c-0.054,0.327-0.081,0.735-0.081,1.117v7.031h-2.398V46.438z"/>
	<path d="M287.881,42.323l2.862,7.795c0.326,0.872,0.653,1.907,0.871,2.697h0.055c0.246-0.79,0.518-1.799,0.845-2.752l2.616-7.74
		h2.535l-3.598,9.402c-1.717,4.523-2.889,6.813-4.523,8.258c-1.199,1.008-2.344,1.417-2.943,1.525l-0.6-1.989
		c0.6-0.19,1.39-0.572,2.098-1.172c0.654-0.518,1.445-1.444,2.018-2.671c0.108-0.245,0.19-0.436,0.19-0.572
		c0-0.136-0.055-0.326-0.19-0.626l-4.852-12.155H287.881z"/>
	<path d="M309.374,53.088c0.736,0.437,1.989,0.927,3.188,0.927c1.717,0,2.535-0.845,2.535-1.962c0-1.145-0.682-1.744-2.426-2.398
		c-2.398-0.872-3.516-2.152-3.516-3.733c0-2.126,1.744-3.87,4.551-3.87c1.336,0,2.508,0.354,3.216,0.817l-0.572,1.744
		c-0.518-0.326-1.472-0.79-2.697-0.79c-1.418,0-2.181,0.817-2.181,1.799c0,1.09,0.763,1.581,2.48,2.262
		c2.262,0.845,3.461,1.989,3.461,3.952c0,2.344-1.826,3.979-4.906,3.979c-1.444,0-2.779-0.382-3.706-0.927L309.374,53.088z"/>
	<path d="M323.164,38.617c0,0.817-0.572,1.472-1.526,1.472c-0.872,0-1.444-0.654-1.444-1.472s0.6-1.499,1.499-1.499
		C322.564,37.118,323.164,37.772,323.164,38.617z M320.493,55.514v-13.19h2.398v13.19H320.493z"/>
	<path d="M328.206,49.354c0.054,3.243,2.098,4.578,4.523,4.578c1.717,0,2.779-0.3,3.651-0.681l0.437,1.717
		c-0.845,0.382-2.316,0.845-4.415,0.845c-4.061,0-6.486-2.698-6.486-6.677s2.344-7.086,6.187-7.086c4.333,0,5.45,3.761,5.45,6.187
		c0,0.49-0.027,0.845-0.081,1.117H328.206z M335.236,47.638c0.027-1.499-0.626-3.87-3.324-3.87c-2.453,0-3.488,2.208-3.68,3.87
		H335.236z"/>
	<path d="M340.523,45.894c0-1.39-0.027-2.479-0.108-3.57h2.125l0.137,2.181h0.055c0.653-1.227,2.18-2.453,4.36-2.453
		c1.825,0,4.66,1.091,4.66,5.614v7.849h-2.398V47.91c0-2.126-0.791-3.896-3.053-3.896c-1.553,0-2.779,1.117-3.216,2.452
		c-0.108,0.3-0.163,0.709-0.163,1.117v7.931h-2.398V45.894z"/>
	<path d="M358.428,39.162v3.161h3.434v1.826h-3.434v7.113c0,1.635,0.464,2.562,1.799,2.562c0.654,0,1.035-0.055,1.39-0.164
		l0.109,1.826c-0.464,0.164-1.199,0.327-2.126,0.327c-1.117,0-2.017-0.382-2.589-1.009c-0.654-0.735-0.927-1.907-0.927-3.461v-7.194
		h-2.044v-1.826h2.044v-2.452L358.428,39.162z"/>
	<path d="M365.732,49.354c0.054,3.243,2.098,4.578,4.523,4.578c1.717,0,2.779-0.3,3.651-0.681l0.437,1.717
		c-0.845,0.382-2.316,0.845-4.415,0.845c-4.061,0-6.486-2.698-6.486-6.677s2.344-7.086,6.187-7.086c4.333,0,5.45,3.761,5.45,6.187
		c0,0.49-0.026,0.845-0.081,1.117H365.732z M372.763,47.638c0.027-1.499-0.626-3.87-3.324-3.87c-2.453,0-3.488,2.208-3.68,3.87
		H372.763z"/>
	<path d="M398.943,51.889c0,1.391,0.027,2.59,0.109,3.625h-2.126l-0.136-2.153h-0.055c-0.6,1.063-2.017,2.453-4.36,2.453
		c-2.071,0-4.552-1.172-4.552-5.777v-7.713h2.398V49.6c0,2.508,0.79,4.225,2.943,4.225c1.608,0,2.726-1.117,3.161-2.208
		c0.137-0.326,0.218-0.763,0.218-1.226v-8.067h2.398V51.889z"/>
	<path d="M402.922,45.894c0-1.39-0.027-2.479-0.108-3.57h2.125l0.137,2.181h0.055c0.653-1.227,2.18-2.453,4.36-2.453
		c1.825,0,4.66,1.091,4.66,5.614v7.849h-2.398V47.91c0-2.126-0.791-3.896-3.053-3.896c-1.553,0-2.779,1.117-3.216,2.452
		c-0.108,0.3-0.163,0.709-0.163,1.117v7.931h-2.398V45.894z"/>
	<path d="M1.989,79.332c0-1.69-0.054-3.053-0.109-4.307h2.125l0.137,2.263h0.054c0.954-1.608,2.535-2.535,4.688-2.535
		c3.216,0,5.614,2.698,5.614,6.677c0,4.742-2.916,7.086-6.022,7.086c-1.744,0-3.271-0.763-4.061-2.071H4.36v7.167H1.989V79.332z
		 M4.36,82.847c0,0.354,0.027,0.682,0.109,0.981c0.436,1.662,1.88,2.807,3.597,2.807c2.535,0,4.006-2.07,4.006-5.096
		c0-2.616-1.39-4.878-3.924-4.878c-1.635,0-3.188,1.145-3.625,2.943c-0.082,0.3-0.164,0.653-0.164,0.953V82.847z"/>
	<path d="M29.432,81.512c0,4.878-3.406,7.004-6.568,7.004c-3.542,0-6.322-2.616-6.322-6.786c0-4.388,2.916-6.977,6.541-6.977
		C26.871,74.753,29.432,77.506,29.432,81.512z M18.995,81.648c0,2.889,1.635,5.068,3.979,5.068c2.289,0,4.006-2.152,4.006-5.123
		c0-2.235-1.117-5.042-3.952-5.042C20.221,76.552,18.995,79.168,18.995,81.648z"/>
	<path d="M41.859,87.753c-0.627,0.3-2.017,0.763-3.788,0.763c-3.979,0-6.568-2.698-6.568-6.731c0-4.061,2.78-7.031,7.085-7.031
		c1.417,0,2.671,0.354,3.325,0.709l-0.545,1.826c-0.572-0.3-1.472-0.627-2.78-0.627c-3.025,0-4.66,2.262-4.66,4.987
		c0,3.052,1.962,4.933,4.579,4.933c1.362,0,2.262-0.327,2.943-0.627L41.859,87.753z"/>
	<path d="M56.439,81.512c0,4.878-3.406,7.004-6.568,7.004c-3.542,0-6.322-2.616-6.322-6.786c0-4.388,2.916-6.977,6.541-6.977
		C53.877,74.753,56.439,77.506,56.439,81.512z M46.001,81.648c0,2.889,1.635,5.068,3.979,5.068c2.289,0,4.006-2.152,4.006-5.123
		c0-2.235-1.117-5.042-3.952-5.042C47.228,76.552,46.001,79.168,46.001,81.648z"/>
	<path d="M78.731,68.867V84.81c0,1.172,0.055,2.507,0.109,3.406h-2.126l-0.108-2.289h-0.082c-0.709,1.472-2.289,2.589-4.442,2.589
		c-3.188,0-5.668-2.698-5.668-6.704c-0.027-4.388,2.725-7.059,5.914-7.059c2.044,0,3.379,0.954,3.979,1.989h0.055v-7.875H78.731z
		 M76.36,80.395c0-0.3-0.027-0.709-0.109-1.009c-0.354-1.498-1.662-2.752-3.461-2.752c-2.479,0-3.951,2.18-3.951,5.068
		c0,2.671,1.336,4.879,3.896,4.879c1.608,0,3.08-1.091,3.516-2.862c0.082-0.326,0.109-0.653,0.109-1.035V80.395z"/>
	<path d="M84.073,82.057c0.055,3.243,2.098,4.578,4.523,4.578c1.717,0,2.779-0.3,3.652-0.681l0.436,1.717
		c-0.845,0.382-2.316,0.845-4.415,0.845c-4.061,0-6.485-2.698-6.485-6.677s2.344-7.086,6.186-7.086c4.333,0,5.451,3.761,5.451,6.187
		c0,0.49-0.027,0.845-0.082,1.117H84.073z M91.104,80.34c0.027-1.499-0.627-3.87-3.325-3.87c-2.453,0-3.488,2.208-3.679,3.87H91.104
		z"/>
	<path d="M103.968,85.79c0.735,0.437,1.989,0.927,3.188,0.927c1.717,0,2.534-0.845,2.534-1.962c0-1.145-0.682-1.744-2.426-2.398
		c-2.398-0.872-3.516-2.152-3.516-3.733c0-2.126,1.744-3.87,4.552-3.87c1.335,0,2.507,0.354,3.216,0.818l-0.572,1.744
		c-0.518-0.327-1.472-0.791-2.698-0.791c-1.417,0-2.181,0.817-2.181,1.799c0,1.09,0.764,1.581,2.48,2.262
		c2.262,0.845,3.461,1.989,3.461,3.952c0,2.344-1.826,3.979-4.905,3.979c-1.444,0-2.78-0.382-3.706-0.927L103.968,85.79z"/>
	<path d="M127.022,81.512c0,4.878-3.406,7.004-6.567,7.004c-3.542,0-6.322-2.616-6.322-6.786c0-4.388,2.916-6.977,6.54-6.977
		C124.462,74.753,127.022,77.506,127.022,81.512z M116.585,81.648c0,2.889,1.636,5.068,3.979,5.068c2.289,0,4.006-2.152,4.006-5.123
		c0-2.235-1.117-5.042-3.952-5.042C117.812,76.552,116.585,79.168,116.585,81.648z"/>
	<path d="M130.048,79.332c0-1.69-0.055-3.053-0.109-4.307h2.126l0.137,2.263h0.054c0.955-1.608,2.535-2.535,4.688-2.535
		c3.217,0,5.614,2.698,5.614,6.677c0,4.742-2.916,7.086-6.022,7.086c-1.744,0-3.271-0.763-4.061-2.071h-0.055v7.167h-2.371V79.332z
		 M132.419,82.847c0,0.354,0.027,0.682,0.109,0.981c0.436,1.662,1.88,2.807,3.597,2.807c2.534,0,4.007-2.07,4.007-5.096
		c0-2.616-1.391-4.878-3.925-4.878c-1.636,0-3.188,1.145-3.624,2.943c-0.082,0.3-0.164,0.653-0.164,0.953V82.847z"/>
	<path d="M157.491,81.512c0,4.878-3.406,7.004-6.568,7.004c-3.543,0-6.322-2.616-6.322-6.786c0-4.388,2.916-6.977,6.541-6.977
		C154.929,74.753,157.491,77.506,157.491,81.512z M147.054,81.648c0,2.889,1.635,5.068,3.979,5.068c2.289,0,4.006-2.152,4.006-5.123
		c0-2.235-1.117-5.042-3.951-5.042C148.28,76.552,147.054,79.168,147.054,81.648z"/>
	<path d="M160.516,79.141c0-1.553-0.027-2.889-0.108-4.115h2.098l0.109,2.616h0.082c0.6-1.771,2.07-2.889,3.679-2.889
		c0.245,0,0.437,0.027,0.654,0.055v2.262c-0.245-0.054-0.491-0.054-0.817-0.054c-1.689,0-2.889,1.253-3.217,3.052
		c-0.054,0.327-0.081,0.736-0.081,1.117v7.031h-2.398V79.141z"/>
	<path d="M167.411,86.799c0-0.981,0.682-1.717,1.635-1.717s1.607,0.708,1.607,1.717c0,0.981-0.654,1.717-1.662,1.717
		C168.065,88.516,167.411,87.78,167.411,86.799z"/>
	<path d="M181.31,85.327c1.062,0.682,2.588,1.199,4.224,1.199c2.425,0,3.843-1.281,3.843-3.134c0-1.69-0.981-2.698-3.461-3.625
		c-2.998-1.09-4.852-2.671-4.852-5.232c0-2.861,2.371-4.987,5.941-4.987c1.854,0,3.242,0.437,4.033,0.899l-0.654,1.935
		c-0.572-0.354-1.799-0.872-3.461-0.872c-2.508,0-3.461,1.499-3.461,2.753c0,1.717,1.117,2.562,3.652,3.543
		c3.106,1.199,4.66,2.698,4.66,5.396c0,2.835-2.072,5.314-6.404,5.314c-1.771,0-3.707-0.545-4.688-1.199L181.31,85.327z"/>
	<path d="M197.633,71.319c0,0.817-0.572,1.472-1.526,1.472c-0.872,0-1.444-0.654-1.444-1.472s0.6-1.499,1.499-1.499
		C197.033,69.82,197.633,70.475,197.633,71.319z M194.962,88.216v-13.19h2.398v13.19H194.962z"/>
	<path d="M201.339,78.596c0-1.39-0.027-2.479-0.109-3.57h2.126l0.137,2.181h0.054c0.654-1.227,2.181-2.453,4.361-2.453
		c1.826,0,4.66,1.091,4.66,5.614v7.849h-2.398v-7.604c0-2.126-0.791-3.896-3.053-3.896c-1.553,0-2.779,1.117-3.215,2.452
		c-0.109,0.3-0.164,0.709-0.164,1.117v7.931h-2.398V78.596z"/>
	<path d="M225.702,82.057c0.055,3.243,2.1,4.578,4.524,4.578c1.717,0,2.78-0.3,3.651-0.681l0.437,1.717
		c-0.845,0.382-2.316,0.845-4.415,0.845c-4.061,0-6.486-2.698-6.486-6.677s2.344-7.086,6.187-7.086c4.333,0,5.45,3.761,5.45,6.187
		c0,0.49-0.027,0.845-0.082,1.117H225.702z M232.733,80.34c0.027-1.499-0.627-3.87-3.324-3.87c-2.453,0-3.488,2.208-3.68,3.87
		H232.733z"/>
	<path d="M238.021,78.596c0-1.39-0.055-2.479-0.109-3.57h2.1l0.108,2.153h0.081c0.736-1.254,1.963-2.426,4.17-2.426
		c1.771,0,3.135,1.091,3.707,2.644h0.055c0.408-0.763,0.953-1.308,1.498-1.717c0.791-0.6,1.635-0.927,2.889-0.927
		c1.771,0,4.361,1.145,4.361,5.724v7.739h-2.344v-7.439c0-2.562-0.955-4.061-2.862-4.061c-1.39,0-2.425,1.008-2.861,2.152
		c-0.108,0.354-0.19,0.764-0.19,1.199v8.148h-2.344v-7.903c0-2.099-0.927-3.597-2.753-3.597c-1.472,0-2.589,1.198-2.97,2.397
		c-0.137,0.327-0.191,0.764-0.191,1.172v7.931h-2.344V78.596z"/>
	<path d="M260.749,68.867h2.371v8.284h0.055c0.845-1.472,2.371-2.398,4.496-2.398c3.298,0,5.587,2.726,5.587,6.704
		c0,4.715-2.997,7.059-5.94,7.059c-1.908,0-3.434-0.735-4.442-2.453h-0.055l-0.136,2.153h-2.045
		c0.055-0.899,0.109-2.234,0.109-3.406V68.867z M263.12,82.929c0,0.3,0.027,0.6,0.109,0.872c0.436,1.662,1.853,2.808,3.597,2.808
		c2.534,0,4.007-2.044,4.007-5.069c0-2.644-1.363-4.905-3.952-4.905c-1.608,0-3.134,1.145-3.624,2.943
		c-0.082,0.3-0.137,0.627-0.137,1.008V82.929z"/>
	<path d="M285.521,85.055c0,1.145,0.054,2.262,0.19,3.161h-2.152l-0.191-1.662h-0.082c-0.735,1.035-2.152,1.962-4.033,1.962
		c-2.67,0-4.033-1.881-4.033-3.788c0-3.188,2.834-4.933,7.931-4.905V79.55c0-1.063-0.3-3.053-2.998-3.025
		c-1.253,0-2.534,0.354-3.461,0.981l-0.545-1.608c1.091-0.681,2.698-1.145,4.36-1.145c4.033,0,5.015,2.753,5.015,5.369V85.055z
		 M283.205,81.484c-2.616-0.055-5.587,0.409-5.587,2.971c0,1.581,1.035,2.289,2.234,2.289c1.744,0,2.861-1.09,3.243-2.207
		c0.082-0.272,0.109-0.545,0.109-0.764V81.484z"/>
	<path d="M289.391,79.141c0-1.553-0.027-2.889-0.108-4.115h2.098l0.109,2.616h0.082c0.6-1.771,2.07-2.889,3.679-2.889
		c0.245,0,0.437,0.027,0.654,0.055v2.262c-0.245-0.054-0.491-0.054-0.817-0.054c-1.689,0-2.889,1.253-3.217,3.052
		c-0.054,0.327-0.081,0.736-0.081,1.117v7.031h-2.398V79.141z"/>
	<path d="M309.366,86.281c0,3.052-0.626,4.878-1.88,6.05c-1.309,1.172-3.161,1.58-4.824,1.58c-1.58,0-3.324-0.381-4.388-1.09
		l0.6-1.853c0.873,0.572,2.235,1.062,3.87,1.062c2.453,0,4.252-1.281,4.252-4.633v-1.444h-0.055
		c-0.709,1.227-2.153,2.207-4.197,2.207c-3.271,0-5.614-2.779-5.614-6.432c0-4.469,2.916-6.977,5.969-6.977
		c2.289,0,3.516,1.172,4.115,2.263h0.055l0.081-1.99h2.126c-0.082,0.927-0.109,2.017-0.109,3.598V86.281z M306.969,80.23
		c0-0.408-0.027-0.763-0.137-1.062c-0.436-1.417-1.58-2.562-3.352-2.562c-2.29,0-3.925,1.935-3.925,4.987
		c0,2.589,1.336,4.741,3.897,4.741c1.499,0,2.834-0.926,3.324-2.452c0.137-0.409,0.191-0.872,0.191-1.281V80.23z"/>
	<path d="M325.255,81.512c0,4.878-3.406,7.004-6.567,7.004c-3.543,0-6.323-2.616-6.323-6.786c0-4.388,2.916-6.977,6.541-6.977
		C322.693,74.753,325.255,77.506,325.255,81.512z M314.817,81.648c0,2.889,1.635,5.068,3.979,5.068c2.289,0,4.007-2.152,4.007-5.123
		c0-2.235-1.118-5.042-3.952-5.042C316.044,76.552,314.817,79.168,314.817,81.648z"/>
	<path d="M326.072,91.595c0.599-1.635,1.335-4.551,1.635-6.54l2.671-0.272c-0.654,2.316-1.854,5.341-2.616,6.622L326.072,91.595z"/>
	<path d="M341.169,79.141c0-1.553-0.027-2.889-0.108-4.115h2.098l0.109,2.616h0.082c0.6-1.771,2.071-2.889,3.679-2.889
		c0.245,0,0.437,0.027,0.654,0.055v2.262c-0.245-0.054-0.491-0.054-0.817-0.054c-1.69,0-2.889,1.253-3.216,3.052
		c-0.055,0.327-0.082,0.736-0.082,1.117v7.031h-2.398V79.141z"/>
	<path d="M351.144,82.057c0.054,3.243,2.098,4.578,4.523,4.578c1.717,0,2.779-0.3,3.651-0.681l0.437,1.717
		c-0.845,0.382-2.316,0.845-4.415,0.845c-4.061,0-6.486-2.698-6.486-6.677s2.344-7.086,6.187-7.086c4.333,0,5.45,3.761,5.45,6.187
		c0,0.49-0.027,0.845-0.081,1.117H351.144z M358.174,80.34c0.027-1.499-0.626-3.87-3.324-3.87c-2.453,0-3.488,2.208-3.68,3.87
		H358.174z"/>
	<path d="M363.134,85.79c0.736,0.437,1.989,0.927,3.188,0.927c1.717,0,2.535-0.845,2.535-1.962c0-1.145-0.682-1.744-2.426-2.398
		c-2.398-0.872-3.516-2.152-3.516-3.733c0-2.126,1.744-3.87,4.551-3.87c1.336,0,2.508,0.354,3.216,0.818l-0.572,1.744
		c-0.518-0.327-1.472-0.791-2.697-0.791c-1.418,0-2.181,0.817-2.181,1.799c0,1.09,0.763,1.581,2.48,2.262
		c2.262,0.845,3.461,1.989,3.461,3.952c0,2.344-1.826,3.979-4.906,3.979c-1.444,0-2.779-0.382-3.706-0.927L363.134,85.79z"/>
	<path d="M374.253,79.332c0-1.69-0.055-3.053-0.108-4.307h2.125l0.137,2.263h0.055c0.953-1.608,2.534-2.535,4.687-2.535
		c3.216,0,5.614,2.698,5.614,6.677c0,4.742-2.916,7.086-6.022,7.086c-1.744,0-3.271-0.763-4.061-2.071h-0.055v7.167h-2.371V79.332z
		 M376.624,82.847c0,0.354,0.027,0.682,0.109,0.981c0.436,1.662,1.88,2.807,3.597,2.807c2.535,0,4.006-2.07,4.006-5.096
		c0-2.616-1.39-4.878-3.924-4.878c-1.635,0-3.188,1.145-3.625,2.943c-0.081,0.3-0.163,0.653-0.163,0.953V82.847z"/>
	<path d="M392.43,71.319c0,0.817-0.572,1.472-1.526,1.472c-0.872,0-1.444-0.654-1.444-1.472s0.6-1.499,1.499-1.499
		C391.83,69.82,392.43,70.475,392.43,71.319z M389.759,88.216v-13.19h2.398v13.19H389.759z"/>
	<path d="M396.136,79.141c0-1.553-0.027-2.889-0.108-4.115h2.098l0.109,2.616h0.082c0.6-1.771,2.071-2.889,3.679-2.889
		c0.245,0,0.437,0.027,0.654,0.055v2.262c-0.245-0.054-0.491-0.054-0.817-0.054c-1.69,0-2.889,1.253-3.216,3.052
		c-0.055,0.327-0.082,0.736-0.082,1.117v7.031h-2.398V79.141z"/>
	<path d="M414.177,85.055c0,1.145,0.055,2.262,0.191,3.161h-2.153l-0.19-1.662h-0.082c-0.735,1.035-2.153,1.962-4.033,1.962
		c-2.671,0-4.033-1.881-4.033-3.788c0-3.188,2.834-4.933,7.93-4.905V79.55c0-1.063-0.3-3.053-2.997-3.025
		c-1.254,0-2.535,0.354-3.461,0.981l-0.545-1.608c1.09-0.681,2.697-1.145,4.36-1.145c4.033,0,5.014,2.753,5.014,5.369V85.055z
		 M411.86,81.484c-2.616-0.055-5.587,0.409-5.587,2.971c0,1.581,1.036,2.289,2.235,2.289c1.744,0,2.861-1.09,3.243-2.207
		c0.081-0.272,0.108-0.545,0.108-0.764V81.484z"/>
	<path d="M1.989,112.035c0-1.69-0.054-3.053-0.109-4.307h2.125l0.137,2.263h0.054c0.954-1.608,2.535-2.535,4.688-2.535
		c3.216,0,5.614,2.698,5.614,6.677c0,4.742-2.916,7.086-6.022,7.086c-1.744,0-3.271-0.763-4.061-2.071H4.36v7.167H1.989V112.035z
		 M4.36,115.55c0,0.354,0.027,0.682,0.109,0.981c0.436,1.662,1.88,2.807,3.597,2.807c2.535,0,4.006-2.07,4.006-5.096
		c0-2.616-1.39-4.878-3.924-4.878c-1.635,0-3.188,1.145-3.625,2.943c-0.082,0.3-0.164,0.653-0.164,0.953V115.55z"/>
	<path d="M17.496,111.844c0-1.553-0.027-2.889-0.109-4.115h2.099l0.109,2.616h0.082c0.6-1.771,2.071-2.889,3.679-2.889
		c0.245,0,0.436,0.027,0.654,0.055v2.262c-0.245-0.054-0.49-0.054-0.817-0.054c-1.689,0-2.889,1.253-3.216,3.052
		c-0.054,0.327-0.082,0.736-0.082,1.117v7.031h-2.398V111.844z"/>
	<path d="M38.071,114.215c0,4.878-3.406,7.004-6.568,7.004c-3.542,0-6.322-2.616-6.322-6.786c0-4.388,2.916-6.977,6.541-6.977
		C35.51,107.456,38.071,110.209,38.071,114.215z M27.634,114.352c0,2.889,1.635,5.068,3.979,5.068c2.289,0,4.006-2.152,4.006-5.123
		c0-2.235-1.117-5.042-3.952-5.042C28.86,109.255,27.634,111.871,27.634,114.352z"/>
	<path d="M41.342,120.919v-11.364h-1.826v-1.826h1.826v-0.626c0-1.854,0.436-3.543,1.526-4.606c0.899-0.872,2.099-1.226,3.216-1.226
		c0.872,0,1.581,0.19,2.044,0.381l-0.327,1.854c-0.354-0.164-0.817-0.3-1.526-0.3c-2.044,0-2.562,1.771-2.562,3.815v0.708h3.188
		v1.826h-3.188v11.364H41.342z"/>
	<path d="M60.091,117.294c0,1.391,0.027,2.59,0.109,3.625h-2.126l-0.136-2.153h-0.054c-0.6,1.063-2.017,2.453-4.36,2.453
		c-2.071,0-4.551-1.172-4.551-5.777v-7.713h2.398v7.276c0,2.508,0.791,4.225,2.943,4.225c1.608,0,2.725-1.117,3.161-2.208
		c0.136-0.326,0.218-0.763,0.218-1.226v-8.067h2.398V117.294z"/>
	<path d="M64.069,111.299c0-1.39-0.027-2.479-0.109-3.57h2.125l0.137,2.181h0.054c0.654-1.227,2.18-2.453,4.361-2.453
		c1.826,0,4.66,1.091,4.66,5.614v7.849h-2.398v-7.604c0-2.126-0.791-3.896-3.053-3.896c-1.553,0-2.779,1.117-3.215,2.452
		c-0.109,0.3-0.164,0.709-0.164,1.117v7.931h-2.398V111.299z"/>
	<path d="M90.559,101.57v15.942c0,1.172,0.055,2.507,0.108,3.406h-2.125l-0.109-2.289h-0.082c-0.708,1.472-2.289,2.589-4.441,2.589
		c-3.188,0-5.668-2.698-5.668-6.704c-0.027-4.388,2.725-7.059,5.913-7.059c2.044,0,3.38,0.954,3.979,1.989h0.054v-7.875H90.559z
		 M88.188,113.098c0-0.3-0.026-0.709-0.108-1.009c-0.354-1.498-1.662-2.752-3.461-2.752c-2.48,0-3.952,2.18-3.952,5.068
		c0,2.671,1.335,4.879,3.897,4.879c1.607,0,3.079-1.091,3.516-2.862c0.082-0.326,0.108-0.653,0.108-1.035V113.098z"/>
	<path d="M106.501,114.215c0,4.878-3.406,7.004-6.568,7.004c-3.542,0-6.322-2.616-6.322-6.786c0-4.388,2.916-6.977,6.541-6.977
		C103.939,107.456,106.501,110.209,106.501,114.215z M96.063,114.352c0,2.889,1.635,5.068,3.979,5.068
		c2.289,0,4.006-2.152,4.006-5.123c0-2.235-1.117-5.042-3.951-5.042C97.29,109.255,96.063,111.871,96.063,114.352z"/>
	<path d="M117.034,107.729l2.861,7.795c0.327,0.872,0.654,1.907,0.873,2.697h0.054c0.245-0.79,0.519-1.799,0.845-2.752l2.616-7.74
		h2.534l-3.597,9.402c-1.717,4.523-2.889,6.813-4.524,8.258c-1.199,1.008-2.344,1.417-2.943,1.525l-0.6-1.989
		c0.6-0.19,1.391-0.572,2.1-1.172c0.653-0.518,1.443-1.444,2.016-2.671c0.109-0.245,0.191-0.436,0.191-0.572
		c0-0.136-0.055-0.326-0.191-0.626l-4.851-12.155H117.034z"/>
	<path d="M136.97,114.76c0.055,3.243,2.098,4.578,4.523,4.578c1.717,0,2.779-0.3,3.652-0.681l0.436,1.717
		c-0.845,0.382-2.316,0.845-4.415,0.845c-4.061,0-6.485-2.698-6.485-6.677s2.344-7.086,6.186-7.086c4.333,0,5.451,3.761,5.451,6.187
		c0,0.49-0.027,0.845-0.082,1.117H136.97z M144.001,113.043c0.027-1.499-0.627-3.87-3.325-3.87c-2.453,0-3.488,2.208-3.679,3.87
		H144.001z"/>
	<path d="M149.287,111.299c0-1.39-0.027-2.479-0.108-3.57h2.125l0.137,2.181h0.055c0.654-1.227,2.18-2.453,4.359-2.453
		c1.826,0,4.66,1.091,4.66,5.614v7.849h-2.397v-7.604c0-2.126-0.79-3.896-3.052-3.896c-1.555,0-2.78,1.117-3.217,2.452
		c-0.109,0.3-0.163,0.709-0.163,1.117v7.931h-2.398V111.299z"/>
	<path d="M167.192,104.567v3.161h3.434v1.826h-3.434v7.113c0,1.635,0.463,2.562,1.799,2.562c0.654,0,1.035-0.055,1.39-0.164
		l0.108,1.826c-0.463,0.164-1.199,0.327-2.125,0.327c-1.117,0-2.018-0.382-2.59-1.009c-0.653-0.735-0.926-1.907-0.926-3.461v-7.194
		h-2.044v-1.826h2.044v-2.452L167.192,104.567z"/>
	<path d="M173.323,111.844c0-1.553-0.026-2.889-0.108-4.115h2.099l0.109,2.616h0.081c0.6-1.771,2.071-2.889,3.679-2.889
		c0.246,0,0.437,0.027,0.654,0.055v2.262c-0.245-0.054-0.49-0.054-0.817-0.054c-1.689,0-2.889,1.253-3.216,3.052
		c-0.055,0.327-0.082,0.736-0.082,1.117v7.031h-2.398V111.844z"/>
	<path d="M191.365,117.758c0,1.145,0.054,2.262,0.19,3.161h-2.152l-0.191-1.662h-0.082c-0.735,1.035-2.152,1.962-4.033,1.962
		c-2.67,0-4.033-1.881-4.033-3.788c0-3.188,2.834-4.933,7.931-4.905v-0.272c0-1.063-0.3-3.053-2.998-3.025
		c-1.253,0-2.534,0.354-3.461,0.981l-0.545-1.608c1.091-0.681,2.698-1.145,4.36-1.145c4.033,0,5.015,2.753,5.015,5.369V117.758z
		 M189.049,114.188c-2.616-0.055-5.587,0.409-5.587,2.971c0,1.581,1.035,2.289,2.234,2.289c1.744,0,2.861-1.09,3.243-2.207
		c0.082-0.272,0.109-0.545,0.109-0.764V114.188z"/>
	<path d="M211.137,117.758c0,1.145,0.054,2.262,0.19,3.161h-2.152l-0.191-1.662h-0.082c-0.735,1.035-2.152,1.962-4.033,1.962
		c-2.67,0-4.033-1.881-4.033-3.788c0-3.188,2.834-4.933,7.931-4.905v-0.272c0-1.063-0.3-3.053-2.998-3.025
		c-1.253,0-2.534,0.354-3.461,0.981l-0.545-1.608c1.091-0.681,2.698-1.145,4.36-1.145c4.033,0,5.015,2.753,5.015,5.369V117.758z
		 M208.82,114.188c-2.616-0.055-5.587,0.409-5.587,2.971c0,1.581,1.035,2.289,2.234,2.289c1.744,0,2.861-1.09,3.243-2.207
		c0.082-0.272,0.109-0.545,0.109-0.764V114.188z"/>
	<path d="M221.315,118.493c0.735,0.437,1.989,0.927,3.188,0.927c1.717,0,2.534-0.845,2.534-1.962c0-1.145-0.682-1.744-2.426-2.398
		c-2.398-0.872-3.516-2.152-3.516-3.733c0-2.126,1.744-3.87,4.552-3.87c1.335,0,2.507,0.354,3.216,0.818l-0.572,1.744
		c-0.518-0.327-1.472-0.791-2.698-0.791c-1.417,0-2.181,0.817-2.181,1.799c0,1.09,0.764,1.581,2.48,2.262
		c2.262,0.845,3.461,1.989,3.461,3.952c0,2.344-1.826,3.979-4.905,3.979c-1.444,0-2.78-0.382-3.706-0.927L221.315,118.493z"/>
	<path d="M243.472,117.294c0,1.391,0.027,2.59,0.109,3.625h-2.127l-0.136-2.153h-0.054c-0.6,1.063-2.018,2.453-4.361,2.453
		c-2.07,0-4.551-1.172-4.551-5.777v-7.713h2.398v7.276c0,2.508,0.79,4.225,2.943,4.225c1.607,0,2.725-1.117,3.16-2.208
		c0.137-0.326,0.219-0.763,0.219-1.226v-8.067h2.398V117.294z"/>
	<path d="M263.488,120.456c-0.627,0.3-2.017,0.763-3.788,0.763c-3.979,0-6.568-2.698-6.568-6.731c0-4.061,2.78-7.031,7.086-7.031
		c1.417,0,2.671,0.354,3.324,0.709l-0.545,1.826c-0.572-0.3-1.471-0.627-2.779-0.627c-3.025,0-4.66,2.262-4.66,4.987
		c0,3.052,1.963,4.933,4.578,4.933c1.363,0,2.262-0.327,2.943-0.627L263.488,120.456z"/>
	<path d="M278.067,114.215c0,4.878-3.406,7.004-6.567,7.004c-3.542,0-6.322-2.616-6.322-6.786c0-4.388,2.916-6.977,6.54-6.977
		C275.507,107.456,278.067,110.209,278.067,114.215z M267.63,114.352c0,2.889,1.636,5.068,3.979,5.068
		c2.289,0,4.006-2.152,4.006-5.123c0-2.235-1.117-5.042-3.952-5.042C268.856,109.255,267.63,111.871,267.63,114.352z"/>
	<path d="M281.093,111.299c0-1.39-0.027-2.479-0.109-3.57h2.126l0.137,2.181h0.054c0.654-1.227,2.181-2.453,4.361-2.453
		c1.826,0,4.66,1.091,4.66,5.614v7.849h-2.398v-7.604c0-2.126-0.791-3.896-3.053-3.896c-1.553,0-2.779,1.117-3.215,2.452
		c-0.109,0.3-0.164,0.709-0.164,1.117v7.931h-2.398V111.299z"/>
	<path d="M295.892,118.493c0.735,0.437,1.988,0.927,3.188,0.927c1.717,0,2.535-0.845,2.535-1.962c0-1.145-0.682-1.744-2.426-2.398
		c-2.398-0.872-3.516-2.152-3.516-3.733c0-2.126,1.744-3.87,4.551-3.87c1.336,0,2.508,0.354,3.216,0.818l-0.572,1.744
		c-0.518-0.327-1.472-0.791-2.698-0.791c-1.416,0-2.18,0.817-2.18,1.799c0,1.09,0.764,1.581,2.48,2.262
		c2.262,0.845,3.461,1.989,3.461,3.952c0,2.344-1.826,3.979-4.906,3.979c-1.443,0-2.779-0.382-3.706-0.927L295.892,118.493z"/>
	<path d="M318.047,117.294c0,1.391,0.027,2.59,0.109,3.625h-2.126l-0.136-2.153h-0.055c-0.6,1.063-2.017,2.453-4.36,2.453
		c-2.071,0-4.552-1.172-4.552-5.777v-7.713h2.398v7.276c0,2.508,0.79,4.225,2.943,4.225c1.608,0,2.726-1.117,3.161-2.208
		c0.137-0.326,0.218-0.763,0.218-1.226v-8.067h2.398V117.294z"/>
	<path d="M322.025,101.57h2.398v19.349h-2.398V101.57z"/>
	<path d="M331.346,104.567v3.161h3.434v1.826h-3.434v7.113c0,1.635,0.464,2.562,1.799,2.562c0.654,0,1.035-0.055,1.39-0.164
		l0.109,1.826c-0.464,0.164-1.199,0.327-2.126,0.327c-1.117,0-2.017-0.382-2.589-1.009c-0.654-0.735-0.927-1.907-0.927-3.461v-7.194
		h-2.044v-1.826h2.044v-2.452L331.346,104.567z"/>
	<path d="M349.251,114.215c0,4.878-3.406,7.004-6.567,7.004c-3.543,0-6.323-2.616-6.323-6.786c0-4.388,2.916-6.977,6.541-6.977
		C346.689,107.456,349.251,110.209,349.251,114.215z M338.813,114.352c0,2.889,1.635,5.068,3.979,5.068
		c2.289,0,4.007-2.152,4.007-5.123c0-2.235-1.118-5.042-3.952-5.042C340.04,109.255,338.813,111.871,338.813,114.352z"/>
	<path d="M352.275,111.844c0-1.553-0.027-2.889-0.108-4.115h2.098l0.109,2.616h0.082c0.6-1.771,2.071-2.889,3.679-2.889
		c0.245,0,0.436,0.027,0.654,0.055v2.262c-0.245-0.054-0.491-0.054-0.817-0.054c-1.69,0-2.89,1.253-3.216,3.052
		c-0.055,0.327-0.082,0.736-0.082,1.117v7.031h-2.398V111.844z"/>
	<path d="M363.966,104.022c0,0.817-0.572,1.472-1.526,1.472c-0.872,0-1.444-0.654-1.444-1.472s0.6-1.499,1.499-1.499
		C363.366,102.523,363.966,103.178,363.966,104.022z M361.295,120.919v-13.19h2.398v13.19H361.295z"/>
	<path d="M379.608,114.215c0,4.878-3.406,7.004-6.567,7.004c-3.543,0-6.323-2.616-6.323-6.786c0-4.388,2.916-6.977,6.541-6.977
		C377.047,107.456,379.608,110.209,379.608,114.215z M369.171,114.352c0,2.889,1.635,5.068,3.979,5.068
		c2.289,0,4.007-2.152,4.007-5.123c0-2.235-1.118-5.042-3.952-5.042C370.397,109.255,369.171,111.871,369.171,114.352z"/>
	<path d="M390.605,114.76c0.054,3.243,2.098,4.578,4.523,4.578c1.717,0,2.779-0.3,3.651-0.681l0.437,1.717
		c-0.845,0.382-2.316,0.845-4.415,0.845c-4.061,0-6.486-2.698-6.486-6.677s2.344-7.086,6.187-7.086c4.333,0,5.45,3.761,5.45,6.187
		c0,0.49-0.026,0.845-0.081,1.117H390.605z M397.636,113.043c0.027-1.499-0.626-3.87-3.324-3.87c-2.453,0-3.488,2.208-3.68,3.87
		H397.636z"/>
	<path d="M402.923,111.299c0-1.39-0.027-2.479-0.108-3.57h2.125l0.137,2.181h0.055c0.653-1.227,2.18-2.453,4.36-2.453
		c1.825,0,4.66,1.091,4.66,5.614v7.849h-2.398v-7.604c0-2.126-0.79-3.896-3.053-3.896c-1.553,0-2.779,1.117-3.216,2.452
		c-0.108,0.3-0.163,0.709-0.163,1.117v7.931h-2.398V111.299z"/>
	<path d="M13.354,134.273v15.942c0,1.172,0.055,2.507,0.109,3.406h-2.125l-0.109-2.289h-0.082c-0.708,1.472-2.289,2.589-4.442,2.589
		c-3.188,0-5.668-2.698-5.668-6.704c-0.027-4.388,2.725-7.059,5.914-7.059c2.044,0,3.379,0.954,3.979,1.989h0.054v-7.875H13.354z
		 M10.982,145.801c0-0.3-0.027-0.709-0.109-1.009c-0.354-1.498-1.662-2.752-3.461-2.752c-2.48,0-3.952,2.18-3.952,5.068
		c0,2.671,1.335,4.879,3.897,4.879c1.608,0,3.08-1.091,3.516-2.862c0.082-0.326,0.109-0.653,0.109-1.035V145.801z"/>
	<path d="M29.296,146.918c0,4.878-3.406,7.004-6.568,7.004c-3.542,0-6.322-2.616-6.322-6.786c0-4.388,2.916-6.977,6.541-6.977
		C26.734,140.159,29.296,142.912,29.296,146.918z M18.858,147.055c0,2.889,1.635,5.068,3.979,5.068c2.289,0,4.006-2.152,4.006-5.123
		c0-2.235-1.117-5.042-3.952-5.042C20.085,141.958,18.858,144.574,18.858,147.055z"/>
	<path d="M32.321,144.002c0-1.39-0.027-2.479-0.109-3.57h2.125l0.136,2.181h0.055c0.654-1.227,2.18-2.453,4.36-2.453
		c1.826,0,4.66,1.091,4.66,5.614v7.849h-2.398v-7.604c0-2.126-0.791-3.896-3.052-3.896c-1.554,0-2.78,1.117-3.216,2.452
		c-0.109,0.3-0.164,0.709-0.164,1.117v7.931h-2.398V144.002z"/>
	<path d="M58.81,134.273v15.942c0,1.172,0.055,2.507,0.109,3.406h-2.125l-0.109-2.289h-0.082c-0.708,1.472-2.289,2.589-4.442,2.589
		c-3.188,0-5.668-2.698-5.668-6.704c-0.027-4.388,2.725-7.059,5.914-7.059c2.044,0,3.379,0.954,3.979,1.989h0.054v-7.875H58.81z
		 M56.439,145.801c0-0.3-0.027-0.709-0.109-1.009c-0.354-1.498-1.662-2.752-3.461-2.752c-2.48,0-3.952,2.18-3.952,5.068
		c0,2.671,1.335,4.879,3.897,4.879c1.608,0,3.08-1.091,3.516-2.862c0.082-0.326,0.109-0.653,0.109-1.035V145.801z"/>
	<path d="M64.151,147.463c0.055,3.243,2.099,4.578,4.523,4.578c1.717,0,2.78-0.3,3.652-0.681l0.436,1.717
		c-0.844,0.382-2.316,0.845-4.414,0.845c-4.061,0-6.486-2.698-6.486-6.677s2.344-7.086,6.186-7.086c4.334,0,5.451,3.761,5.451,6.187
		c0,0.49-0.027,0.845-0.082,1.117H64.151z M71.183,145.746c0.027-1.499-0.627-3.87-3.324-3.87c-2.453,0-3.489,2.208-3.68,3.87
		H71.183z"/>
	<path d="M106.413,134.273h2.398v19.349h-2.398V134.273z"/>
	<path d="M124.78,146.918c0,4.878-3.406,7.004-6.567,7.004c-3.542,0-6.322-2.616-6.322-6.786c0-4.388,2.916-6.977,6.54-6.977
		C122.22,140.159,124.78,142.912,124.78,146.918z M114.343,147.055c0,2.889,1.636,5.068,3.979,5.068
		c2.289,0,4.006-2.152,4.006-5.123c0-2.235-1.117-5.042-3.952-5.042C115.569,141.958,114.343,144.574,114.343,147.055z"/>
	<path d="M159.085,147.463c0.055,3.243,2.1,4.578,4.524,4.578c1.717,0,2.78-0.3,3.651-0.681l0.437,1.717
		c-0.845,0.382-2.316,0.845-4.415,0.845c-4.061,0-6.486-2.698-6.486-6.677s2.344-7.086,6.187-7.086c4.333,0,5.45,3.761,5.45,6.187
		c0,0.49-0.027,0.845-0.082,1.117H159.085z M166.116,145.746c0.027-1.499-0.627-3.87-3.324-3.87c-2.453,0-3.488,2.208-3.68,3.87
		H166.116z"/>
	<path d="M171.077,151.196c0.735,0.437,1.988,0.927,3.188,0.927c1.717,0,2.535-0.845,2.535-1.962c0-1.145-0.682-1.744-2.426-2.398
		c-2.398-0.872-3.516-2.152-3.516-3.733c0-2.126,1.744-3.87,4.551-3.87c1.336,0,2.508,0.354,3.217,0.818l-0.572,1.744
		c-0.519-0.327-1.473-0.791-2.699-0.791c-1.416,0-2.18,0.817-2.18,1.799c0,1.09,0.764,1.581,2.48,2.262
		c2.262,0.845,3.461,1.989,3.461,3.952c0,2.344-1.826,3.979-4.906,3.979c-1.443,0-2.779-0.382-3.706-0.927L171.077,151.196z"/>
	<path d="M182.195,144.738c0-1.69-0.054-3.053-0.108-4.307h2.125l0.137,2.263h0.055c0.953-1.608,2.534-2.535,4.688-2.535
		c3.215,0,5.613,2.698,5.613,6.677c0,4.742-2.916,7.086-6.022,7.086c-1.744,0-3.271-0.763-4.061-2.071h-0.055v7.167h-2.371V144.738z
		 M184.566,148.253c0,0.354,0.027,0.682,0.108,0.981c0.437,1.662,1.881,2.807,3.598,2.807c2.535,0,4.006-2.07,4.006-5.096
		c0-2.616-1.39-4.878-3.924-4.878c-1.635,0-3.188,1.145-3.625,2.943c-0.082,0.3-0.163,0.653-0.163,0.953V148.253z"/>
	<path d="M199.037,147.463c0.055,3.243,2.099,4.578,4.524,4.578c1.717,0,2.779-0.3,3.651-0.681l0.437,1.717
		c-0.846,0.382-2.316,0.845-4.416,0.845c-4.061,0-6.485-2.698-6.485-6.677s2.344-7.086,6.187-7.086c4.333,0,5.45,3.761,5.45,6.187
		c0,0.49-0.027,0.845-0.082,1.117H199.037z M206.068,145.746c0.027-1.499-0.627-3.87-3.325-3.87c-2.452,0-3.488,2.208-3.679,3.87
		H206.068z"/>
	<path d="M211.354,144.547c0-1.553-0.026-2.889-0.108-4.115h2.099l0.109,2.616h0.081c0.6-1.771,2.071-2.889,3.679-2.889
		c0.246,0,0.437,0.027,0.654,0.055v2.262c-0.245-0.054-0.49-0.054-0.817-0.054c-1.689,0-2.889,1.253-3.216,3.052
		c-0.055,0.327-0.082,0.736-0.082,1.117v7.031h-2.398V144.547z"/>
	<path d="M229.396,150.461c0,1.145,0.054,2.262,0.19,3.161h-2.152l-0.191-1.662h-0.082c-0.735,1.035-2.152,1.962-4.033,1.962
		c-2.67,0-4.033-1.881-4.033-3.788c0-3.188,2.834-4.933,7.931-4.905v-0.272c0-1.063-0.3-3.053-2.998-3.025
		c-1.253,0-2.534,0.354-3.461,0.981l-0.545-1.608c1.091-0.681,2.698-1.145,4.36-1.145c4.033,0,5.015,2.753,5.015,5.369V150.461z
		 M227.08,146.891c-2.616-0.055-5.587,0.409-5.587,2.971c0,1.581,1.035,2.289,2.234,2.289c1.744,0,2.861-1.09,3.243-2.207
		c0.082-0.272,0.109-0.545,0.109-0.764V146.891z"/>
	<path d="M267.024,135.254h2.398v12.291c0,4.878-2.398,6.377-5.559,6.377c-0.9,0-1.963-0.19-2.535-0.437l0.327-1.935
		c0.491,0.19,1.199,0.354,2.017,0.354c2.126,0,3.352-0.954,3.352-4.551V135.254z"/>
	<path d="M285.229,146.918c0,4.878-3.406,7.004-6.568,7.004c-3.543,0-6.322-2.616-6.322-6.786c0-4.388,2.916-6.977,6.541-6.977
		C282.667,140.159,285.229,142.912,285.229,146.918z M274.792,147.055c0,2.889,1.635,5.068,3.979,5.068
		c2.289,0,4.006-2.152,4.006-5.123c0-2.235-1.117-5.042-3.951-5.042C276.019,141.958,274.792,144.574,274.792,147.055z"/>
	<path d="M287.927,151.196c0.736,0.437,1.99,0.927,3.189,0.927c1.717,0,2.533-0.845,2.533-1.962c0-1.145-0.681-1.744-2.425-2.398
		c-2.398-0.872-3.516-2.152-3.516-3.733c0-2.126,1.744-3.87,4.552-3.87c1.335,0,2.507,0.354,3.215,0.818l-0.572,1.744
		c-0.518-0.327-1.471-0.791-2.697-0.791c-1.418,0-2.181,0.817-2.181,1.799c0,1.09,0.763,1.581,2.479,2.262
		c2.263,0.845,3.461,1.989,3.461,3.952c0,2.344-1.825,3.979-4.904,3.979c-1.445,0-2.78-0.382-3.707-0.927L287.927,151.196z"/>
	<path d="M300.382,147.463c0.055,3.243,2.098,4.578,4.523,4.578c1.717,0,2.779-0.3,3.651-0.681l0.437,1.717
		c-0.845,0.382-2.316,0.845-4.415,0.845c-4.061,0-6.485-2.698-6.485-6.677s2.344-7.086,6.186-7.086c4.333,0,5.45,3.761,5.45,6.187
		c0,0.49-0.027,0.845-0.081,1.117H300.382z M307.412,145.746c0.027-1.499-0.626-3.87-3.324-3.87c-2.453,0-3.488,2.208-3.679,3.87
		H307.412z"/>
	<path d="M312.944,153.622v-11.364h-1.825v-1.826h1.825v-0.735c0-3.461,2.044-5.723,5.751-5.723c1.226,0,2.67,0.381,3.352,0.872
		l-0.682,1.825c-0.6-0.408-1.607-0.763-2.779-0.763c-2.534,0-3.271,1.771-3.271,3.87v0.653h7.658v13.19h-2.398v-11.364h-5.26v11.364
		H312.944z"/>
	<path d="M326.952,144.002c0-1.39-0.027-2.479-0.108-3.57h2.125l0.137,2.181h0.055c0.653-1.227,2.18-2.453,4.36-2.453
		c1.825,0,4.66,1.091,4.66,5.614v7.849h-2.398v-7.604c0-2.126-0.79-3.896-3.053-3.896c-1.553,0-2.779,1.117-3.216,2.452
		c-0.108,0.3-0.163,0.709-0.163,1.117v7.931h-2.398V144.002z"/>
	<path d="M351.343,150.461c0,1.145,0.055,2.262,0.191,3.161h-2.153l-0.19-1.662h-0.082c-0.735,1.035-2.153,1.962-4.033,1.962
		c-2.671,0-4.033-1.881-4.033-3.788c0-3.188,2.834-4.933,7.93-4.905v-0.272c0-1.063-0.3-3.053-2.997-3.025
		c-1.254,0-2.535,0.354-3.461,0.981l-0.545-1.608c1.09-0.681,2.697-1.145,4.36-1.145c4.033,0,5.014,2.753,5.014,5.369V150.461z
		 M349.026,146.891c-2.616-0.055-5.587,0.409-5.587,2.971c0,1.581,1.036,2.289,2.235,2.289c1.744,0,2.861-1.09,3.243-2.207
		c0.081-0.272,0.108-0.545,0.108-0.764V146.891z"/>
	<path d="M354.641,152.205c0-0.981,0.682-1.717,1.635-1.717c0.954,0,1.608,0.708,1.608,1.717c0,0.981-0.654,1.717-1.662,1.717
		C355.295,153.922,354.641,153.187,354.641,152.205z"/>
	<path d="M390.579,150.733c1.062,0.682,2.589,1.199,4.224,1.199c2.426,0,3.843-1.281,3.843-3.134c0-1.69-0.98-2.698-3.461-3.625
		c-2.998-1.09-4.851-2.671-4.851-5.232c0-2.861,2.371-4.987,5.94-4.987c1.854,0,3.243,0.437,4.033,0.899l-0.653,1.935
		c-0.572-0.354-1.799-0.872-3.461-0.872c-2.508,0-3.461,1.499-3.461,2.753c0,1.717,1.117,2.562,3.651,3.543
		c3.106,1.199,4.66,2.698,4.66,5.396c0,2.835-2.071,5.314-6.404,5.314c-1.771,0-3.706-0.545-4.688-1.199L390.579,150.733z"/>
	<path d="M405.731,147.463c0.054,3.243,2.098,4.578,4.523,4.578c1.717,0,2.779-0.3,3.651-0.681l0.437,1.717
		c-0.845,0.382-2.316,0.845-4.415,0.845c-4.061,0-6.486-2.698-6.486-6.677s2.344-7.086,6.187-7.086c4.333,0,5.45,3.761,5.45,6.187
		c0,0.49-0.027,0.845-0.081,1.117H405.731z M412.762,145.746c0.027-1.499-0.626-3.87-3.324-3.87c-2.453,0-3.488,2.208-3.68,3.87
		H412.762z"/>
	<path d="M1.989,177.249c0-1.553-0.027-2.889-0.109-4.115h2.099l0.109,2.616h0.082c0.6-1.771,2.071-2.889,3.679-2.889
		c0.245,0,0.436,0.027,0.654,0.055v2.262c-0.246-0.054-0.491-0.054-0.818-0.054c-1.689,0-2.889,1.253-3.216,3.052
		c-0.054,0.327-0.082,0.735-0.082,1.117v7.031H1.989V177.249z"/>
	<path d="M11.963,180.165c0.055,3.243,2.099,4.578,4.524,4.578c1.717,0,2.78-0.3,3.652-0.681l0.436,1.717
		c-0.845,0.382-2.316,0.845-4.415,0.845c-4.061,0-6.486-2.698-6.486-6.677s2.344-7.086,6.186-7.086c4.333,0,5.451,3.761,5.451,6.187
		c0,0.49-0.027,0.845-0.082,1.117H11.963z M18.995,178.448c0.027-1.499-0.627-3.87-3.325-3.87c-2.453,0-3.488,2.208-3.679,3.87
		H18.995z"/>
	<path d="M33.684,185.861c-0.627,0.3-2.017,0.763-3.788,0.763c-3.979,0-6.568-2.698-6.568-6.731c0-4.061,2.78-7.031,7.085-7.031
		c1.417,0,2.671,0.354,3.325,0.709l-0.545,1.826c-0.572-0.3-1.472-0.627-2.78-0.627c-3.025,0-4.66,2.262-4.66,4.987
		c0,3.052,1.962,4.933,4.579,4.933c1.362,0,2.262-0.327,2.943-0.627L33.684,185.861z"/>
	<path d="M47.527,182.699c0,1.391,0.027,2.59,0.109,3.625h-2.126l-0.136-2.153H45.32c-0.6,1.063-2.017,2.453-4.36,2.453
		c-2.071,0-4.551-1.172-4.551-5.777v-7.713h2.398v7.276c0,2.508,0.791,4.225,2.943,4.225c1.608,0,2.725-1.117,3.161-2.208
		c0.136-0.326,0.218-0.763,0.218-1.226v-8.067h2.398V182.699z"/>
	<path d="M52.841,180.165c0.055,3.243,2.099,4.578,4.524,4.578c1.717,0,2.78-0.3,3.652-0.681l0.436,1.717
		c-0.845,0.382-2.316,0.845-4.415,0.845c-4.061,0-6.486-2.698-6.486-6.677s2.344-7.086,6.186-7.086c4.333,0,5.451,3.761,5.451,6.187
		c0,0.49-0.027,0.845-0.082,1.117H52.841z M59.873,178.448c0.027-1.499-0.627-3.87-3.325-3.87c-2.453,0-3.488,2.208-3.679,3.87
		H59.873z"/>
	<path d="M64.833,183.898c0.736,0.437,1.989,0.927,3.188,0.927c1.717,0,2.535-0.845,2.535-1.962c0-1.145-0.682-1.744-2.426-2.398
		c-2.398-0.872-3.516-2.152-3.516-3.733c0-2.126,1.744-3.87,4.551-3.87c1.336,0,2.508,0.354,3.217,0.817l-0.572,1.744
		c-0.519-0.326-1.473-0.79-2.699-0.79c-1.416,0-2.18,0.817-2.18,1.799c0,1.09,0.764,1.581,2.48,2.262
		c2.262,0.845,3.461,1.989,3.461,3.952c0,2.344-1.826,3.979-4.906,3.979c-1.444,0-2.779-0.382-3.706-0.927L64.833,183.898z"/>
	<path d="M78.84,169.973v3.161h3.435v1.826H78.84v7.113c0,1.635,0.464,2.562,1.799,2.562c0.654,0,1.036-0.055,1.39-0.164
		l0.109,1.826c-0.463,0.164-1.199,0.327-2.126,0.327c-1.117,0-2.017-0.382-2.589-1.009c-0.654-0.735-0.926-1.907-0.926-3.461v-7.194
		h-2.045v-1.826h2.045v-2.452L78.84,169.973z"/>
	<path d="M94.237,183.163c0,1.145,0.055,2.262,0.191,3.161h-2.153l-0.19-1.662h-0.082c-0.736,1.035-2.152,1.962-4.033,1.962
		c-2.671,0-4.033-1.881-4.033-3.788c0-3.188,2.834-4.933,7.93-4.905v-0.272c0-1.063-0.299-3.053-2.997-3.025
		c-1.254,0-2.534,0.354-3.462,0.981l-0.545-1.608c1.091-0.681,2.698-1.145,4.361-1.145c4.033,0,5.014,2.753,5.014,5.369V183.163z
		 M91.921,179.593c-2.616-0.055-5.586,0.409-5.586,2.971c0,1.58,1.035,2.289,2.234,2.289c1.744,0,2.861-1.09,3.242-2.207
		c0.082-0.272,0.109-0.545,0.109-0.764V179.593z"/>
	<path d="M116.741,185.861c-0.627,0.3-2.017,0.763-3.787,0.763c-3.979,0-6.568-2.698-6.568-6.731c0-4.061,2.779-7.031,7.086-7.031
		c1.416,0,2.67,0.354,3.324,0.709l-0.545,1.826c-0.572-0.3-1.472-0.627-2.779-0.627c-3.025,0-4.66,2.262-4.66,4.987
		c0,3.052,1.962,4.933,4.578,4.933c1.362,0,2.262-0.327,2.943-0.627L116.741,185.861z"/>
	<path d="M131.321,179.62c0,4.878-3.406,7.004-6.568,7.004c-3.542,0-6.322-2.616-6.322-6.786c0-4.388,2.916-6.977,6.541-6.977
		C128.76,172.861,131.321,175.614,131.321,179.62z M120.884,179.757c0,2.889,1.635,5.068,3.979,5.068
		c2.289,0,4.006-2.152,4.006-5.123c0-2.235-1.117-5.042-3.951-5.042C122.11,174.66,120.884,177.276,120.884,179.757z"/>
	<path d="M134.347,176.704c0-1.39-0.027-2.479-0.109-3.57h2.126l0.137,2.181h0.054c0.654-1.227,2.181-2.453,4.361-2.453
		c1.826,0,4.66,1.091,4.66,5.614v7.849h-2.398v-7.604c0-2.126-0.791-3.896-3.053-3.896c-1.553,0-2.779,1.117-3.215,2.452
		c-0.109,0.3-0.164,0.709-0.164,1.117v7.931h-2.398V176.704z"/>
	<path d="M152.251,169.973v3.161h3.434v1.826h-3.434v7.113c0,1.635,0.463,2.562,1.799,2.562c0.654,0,1.035-0.055,1.39-0.164
		l0.109,1.826c-0.464,0.164-1.199,0.327-2.126,0.327c-1.117,0-2.017-0.382-2.589-1.009c-0.653-0.735-0.927-1.907-0.927-3.461v-7.194
		h-2.043v-1.826h2.043v-2.452L152.251,169.973z"/>
	<path d="M158.383,177.249c0-1.553-0.027-2.889-0.108-4.115h2.098l0.109,2.616h0.082c0.6-1.771,2.07-2.889,3.679-2.889
		c0.245,0,0.437,0.027,0.654,0.055v2.262c-0.245-0.054-0.491-0.054-0.817-0.054c-1.689,0-2.889,1.253-3.217,3.052
		c-0.054,0.327-0.081,0.735-0.081,1.117v7.031h-2.398V177.249z"/>
	<path d="M176.425,183.163c0,1.145,0.054,2.262,0.189,3.161h-2.152l-0.191-1.662h-0.081c-0.735,1.035-2.153,1.962-4.033,1.962
		c-2.671,0-4.034-1.881-4.034-3.788c0-3.188,2.835-4.933,7.932-4.905v-0.272c0-1.063-0.301-3.053-2.998-3.025
		c-1.254,0-2.535,0.354-3.461,0.981l-0.545-1.608c1.09-0.681,2.697-1.145,4.359-1.145c4.033,0,5.016,2.753,5.016,5.369V183.163z
		 M174.107,179.593c-2.616-0.055-5.587,0.409-5.587,2.971c0,1.58,1.036,2.289,2.235,2.289c1.744,0,2.861-1.09,3.243-2.207
		c0.082-0.272,0.108-0.545,0.108-0.764V179.593z"/>
	<path d="M189.525,166.976h2.398v19.349h-2.398V166.976z"/>
	<path d="M205.223,183.163c0,1.145,0.054,2.262,0.19,3.161h-2.152l-0.191-1.662h-0.082c-0.735,1.035-2.152,1.962-4.033,1.962
		c-2.67,0-4.033-1.881-4.033-3.788c0-3.188,2.834-4.933,7.931-4.905v-0.272c0-1.063-0.3-3.053-2.998-3.025
		c-1.253,0-2.534,0.354-3.461,0.981l-0.545-1.608c1.091-0.681,2.698-1.145,4.36-1.145c4.033,0,5.015,2.753,5.015,5.369V183.163z
		 M202.906,179.593c-2.616-0.055-5.587,0.409-5.587,2.971c0,1.58,1.035,2.289,2.234,2.289c1.744,0,2.861-1.09,3.243-2.207
		c0.082-0.272,0.109-0.545,0.109-0.764V179.593z"/>
	<path d="M217.997,183.898c0.736,0.437,1.99,0.927,3.189,0.927c1.717,0,2.533-0.845,2.533-1.962c0-1.145-0.681-1.744-2.425-2.398
		c-2.398-0.872-3.516-2.152-3.516-3.733c0-2.126,1.744-3.87,4.552-3.87c1.335,0,2.507,0.354,3.215,0.817l-0.572,1.744
		c-0.518-0.326-1.471-0.79-2.697-0.79c-1.418,0-2.181,0.817-2.181,1.799c0,1.09,0.763,1.581,2.479,2.262
		c2.263,0.845,3.461,1.989,3.461,3.952c0,2.344-1.825,3.979-4.904,3.979c-1.445,0-2.78-0.382-3.707-0.927L217.997,183.898z"/>
	<path d="M231.787,169.428c0,0.817-0.572,1.472-1.526,1.472c-0.872,0-1.444-0.654-1.444-1.472s0.6-1.499,1.499-1.499
		C231.188,167.929,231.787,168.583,231.787,169.428z M229.116,186.324v-13.19h2.398v13.19H229.116z"/>
	<path d="M235.493,166.976h2.398v19.349h-2.398V166.976z"/>
	<path d="M241.925,166.976h2.398v19.349h-2.398V166.976z"/>
	<path d="M257.622,183.163c0,1.145,0.054,2.262,0.189,3.161h-2.152l-0.191-1.662h-0.081c-0.735,1.035-2.153,1.962-4.033,1.962
		c-2.671,0-4.034-1.881-4.034-3.788c0-3.188,2.835-4.933,7.932-4.905v-0.272c0-1.063-0.301-3.053-2.998-3.025
		c-1.254,0-2.535,0.354-3.461,0.981l-0.545-1.608c1.09-0.681,2.697-1.145,4.359-1.145c4.033,0,5.016,2.753,5.016,5.369V183.163z
		 M255.305,179.593c-2.616-0.055-5.587,0.409-5.587,2.971c0,1.58,1.036,2.289,2.235,2.289c1.744,0,2.861-1.09,3.243-2.207
		c0.082-0.272,0.108-0.545,0.108-0.764V179.593z"/>
	<path d="M282.087,166.976v15.942c0,1.172,0.055,2.507,0.109,3.406h-2.125l-0.109-2.289h-0.082
		c-0.709,1.472-2.289,2.589-4.441,2.589c-3.189,0-5.669-2.698-5.669-6.704c-0.027-4.388,2.726-7.059,5.913-7.059
		c2.045,0,3.38,0.954,3.979,1.989h0.054v-7.875H282.087z M279.716,178.503c0-0.3-0.026-0.709-0.108-1.009
		c-0.354-1.498-1.662-2.752-3.461-2.752c-2.479,0-3.952,2.18-3.952,5.068c0,2.671,1.336,4.879,3.897,4.879
		c1.608,0,3.079-1.091,3.516-2.862c0.082-0.326,0.108-0.653,0.108-1.035V178.503z"/>
	<path d="M287.429,180.165c0.055,3.243,2.099,4.578,4.523,4.578c1.717,0,2.78-0.3,3.652-0.681l0.436,1.717
		c-0.844,0.382-2.316,0.845-4.414,0.845c-4.061,0-6.486-2.698-6.486-6.677s2.344-7.086,6.186-7.086c4.334,0,5.451,3.761,5.451,6.187
		c0,0.49-0.027,0.845-0.082,1.117H287.429z M294.46,178.448c0.027-1.499-0.627-3.87-3.324-3.87c-2.453,0-3.488,2.208-3.68,3.87
		H294.46z"/>
	<path d="M299.42,183.898c0.735,0.437,1.989,0.927,3.188,0.927c1.717,0,2.534-0.845,2.534-1.962c0-1.145-0.682-1.744-2.426-2.398
		c-2.397-0.872-3.515-2.152-3.515-3.733c0-2.126,1.744-3.87,4.551-3.87c1.335,0,2.507,0.354,3.216,0.817l-0.572,1.744
		c-0.518-0.326-1.472-0.79-2.698-0.79c-1.417,0-2.18,0.817-2.18,1.799c0,1.09,0.763,1.581,2.479,2.262
		c2.262,0.845,3.461,1.989,3.461,3.952c0,2.344-1.826,3.979-4.905,3.979c-1.444,0-2.779-0.382-3.706-0.927L299.42,183.898z"/>
	<path d="M310.538,166.976h2.398v19.349h-2.398V166.976z"/>
	<path d="M319.641,169.428c0,0.817-0.572,1.472-1.526,1.472c-0.872,0-1.444-0.654-1.444-1.472s0.6-1.499,1.499-1.499
		C319.041,167.929,319.641,168.583,319.641,169.428z M316.97,186.324v-13.19h2.398v13.19H316.97z"/>
	<path d="M321.847,184.935l5.941-7.768c0.6-0.735,1.145-1.362,1.744-2.07v-0.055h-7.141v-1.908h10.029v1.499l-5.887,7.658
		c-0.572,0.735-1.09,1.417-1.689,2.071v0.055h7.686v1.907h-10.684V184.935z"/>
	<path d="M344.275,183.163c0,1.145,0.055,2.262,0.191,3.161h-2.153l-0.19-1.662h-0.082c-0.736,1.035-2.153,1.962-4.033,1.962
		c-2.671,0-4.033-1.881-4.033-3.788c0-3.188,2.834-4.933,7.93-4.905v-0.272c0-1.063-0.3-3.053-2.997-3.025
		c-1.254,0-2.535,0.354-3.461,0.981l-0.545-1.608c1.09-0.681,2.697-1.145,4.36-1.145c4.033,0,5.014,2.753,5.014,5.369V183.163z
		 M341.959,179.593c-2.616-0.055-5.587,0.409-5.587,2.971c0,1.58,1.036,2.289,2.235,2.289c1.744,0,2.861-1.09,3.243-2.207
		c0.081-0.272,0.108-0.545,0.108-0.764V179.593z M343.158,167.438l-3.324,3.897h-1.69l2.371-3.897H343.158z"/>
	<path d="M348.146,176.704c0-1.39-0.027-2.479-0.108-3.57h2.125l0.137,2.181h0.055c0.653-1.227,2.18-2.453,4.36-2.453
		c1.825,0,4.66,1.091,4.66,5.614v7.849h-2.398v-7.604c0-2.126-0.79-3.896-3.053-3.896c-1.553,0-2.779,1.117-3.216,2.452
		c-0.108,0.3-0.163,0.709-0.163,1.117v7.931h-2.398V176.704z"/>
	<path d="M374.635,166.976v15.942c0,1.172,0.055,2.507,0.109,3.406h-2.126l-0.109-2.289h-0.081
		c-0.709,1.472-2.289,2.589-4.442,2.589c-3.188,0-5.669-2.698-5.669-6.704c-0.026-4.388,2.726-7.059,5.914-7.059
		c2.044,0,3.379,0.954,3.979,1.989h0.055v-7.875H374.635z M372.264,178.503c0-0.3-0.027-0.709-0.108-1.009
		c-0.354-1.498-1.663-2.752-3.462-2.752c-2.479,0-3.951,2.18-3.951,5.068c0,2.671,1.336,4.879,3.897,4.879
		c1.607,0,3.079-1.091,3.516-2.862c0.081-0.326,0.108-0.653,0.108-1.035V178.503z"/>
	<path d="M390.577,179.62c0,4.878-3.406,7.004-6.567,7.004c-3.543,0-6.323-2.616-6.323-6.786c0-4.388,2.916-6.977,6.541-6.977
		C388.016,172.861,390.577,175.614,390.577,179.62z M380.14,179.757c0,2.889,1.635,5.068,3.979,5.068
		c2.289,0,4.007-2.152,4.007-5.123c0-2.235-1.118-5.042-3.952-5.042C381.366,174.66,380.14,177.276,380.14,179.757z"/>
	<path d="M393.274,183.898c0.736,0.437,1.989,0.927,3.188,0.927c1.717,0,2.535-0.845,2.535-1.962c0-1.145-0.682-1.744-2.426-2.398
		c-2.398-0.872-3.516-2.152-3.516-3.733c0-2.126,1.744-3.87,4.551-3.87c1.336,0,2.508,0.354,3.216,0.817l-0.572,1.744
		c-0.518-0.326-1.472-0.79-2.697-0.79c-1.418,0-2.181,0.817-2.181,1.799c0,1.09,0.763,1.581,2.48,2.262
		c2.262,0.845,3.461,1.989,3.461,3.952c0,2.344-1.826,3.979-4.906,3.979c-1.444,0-2.779-0.382-3.706-0.927L393.274,183.898z"/>
	<path d="M405.729,180.165c0.054,3.243,2.098,4.578,4.523,4.578c1.717,0,2.779-0.3,3.651-0.681l0.437,1.717
		c-0.845,0.382-2.316,0.845-4.415,0.845c-4.061,0-6.486-2.698-6.486-6.677s2.344-7.086,6.187-7.086c4.333,0,5.45,3.761,5.45,6.187
		c0,0.49-0.027,0.845-0.081,1.117H405.729z M412.76,178.448c0.027-1.499-0.626-3.87-3.324-3.87c-2.453,0-3.488,2.208-3.68,3.87
		H412.76z"/>
	<path d="M13.026,215.402c0,1.391,0.027,2.59,0.109,3.625H11.01l-0.136-2.153h-0.054c-0.6,1.063-2.017,2.453-4.36,2.453
		c-2.071,0-4.551-1.172-4.551-5.777v-7.713h2.398v7.276c0,2.508,0.791,4.225,2.943,4.225c1.608,0,2.725-1.117,3.161-2.208
		c0.136-0.326,0.218-0.763,0.218-1.226v-8.067h2.398V215.402z"/>
	<path d="M17.005,209.407c0-1.39-0.027-2.479-0.109-3.57h2.125l0.137,2.181h0.054c0.654-1.227,2.18-2.453,4.36-2.453
		c1.826,0,4.66,1.091,4.66,5.614v7.849h-2.398v-7.604c0-2.126-0.791-3.896-3.052-3.896c-1.554,0-2.78,1.117-3.216,2.452
		c-0.109,0.3-0.164,0.709-0.164,1.117v7.931h-2.398V209.407z"/>
	<path d="M37.907,210.144c0-1.69-0.054-3.053-0.109-4.307h2.125l0.137,2.263h0.054c0.954-1.608,2.535-2.535,4.688-2.535
		c3.216,0,5.614,2.698,5.614,6.677c0,4.742-2.916,7.086-6.022,7.086c-1.744,0-3.271-0.763-4.061-2.071h-0.055v7.167h-2.371V210.144z
		 M40.278,213.658c0,0.354,0.027,0.682,0.109,0.981c0.436,1.662,1.88,2.807,3.597,2.807c2.535,0,4.006-2.07,4.006-5.096
		c0-2.616-1.39-4.878-3.924-4.878c-1.635,0-3.188,1.145-3.625,2.943c-0.082,0.3-0.164,0.653-0.164,0.953V213.658z"/>
	<path d="M65.35,212.323c0,4.878-3.406,7.004-6.568,7.004c-3.542,0-6.322-2.616-6.322-6.786c0-4.388,2.916-6.977,6.541-6.977
		C62.789,205.564,65.35,208.317,65.35,212.323z M54.913,212.46c0,2.889,1.635,5.068,3.979,5.068c2.289,0,4.006-2.152,4.006-5.123
		c0-2.235-1.117-5.042-3.952-5.042C56.139,207.363,54.913,209.979,54.913,212.46z"/>
	<path d="M77.777,218.564c-0.627,0.3-2.017,0.763-3.788,0.763c-3.979,0-6.568-2.698-6.568-6.731c0-4.061,2.78-7.031,7.086-7.031
		c1.417,0,2.671,0.354,3.324,0.709l-0.545,1.826c-0.572-0.3-1.471-0.627-2.779-0.627c-3.025,0-4.66,2.262-4.66,4.987
		c0,3.052,1.963,4.933,4.578,4.933c1.363,0,2.262-0.327,2.943-0.627L77.777,218.564z"/>
	<path d="M92.356,212.323c0,4.878-3.406,7.004-6.567,7.004c-3.542,0-6.322-2.616-6.322-6.786c0-4.388,2.916-6.977,6.54-6.977
		C89.796,205.564,92.356,208.317,92.356,212.323z M81.919,212.46c0,2.889,1.636,5.068,3.979,5.068c2.289,0,4.006-2.152,4.006-5.123
		c0-2.235-1.117-5.042-3.952-5.042C83.146,207.363,81.919,209.979,81.919,212.46z"/>
	<path d="M94.156,217.61c0-0.981,0.682-1.717,1.636-1.717c0.953,0,1.607,0.708,1.607,1.717c0,0.98-0.654,1.717-1.662,1.717
		C94.811,219.327,94.156,218.591,94.156,217.61z"/>
</g>
</svg>
