<?xml version="1.0" encoding="utf-8"?>
<!-- Generator: Adobe Illustrator 16.0.0, SVG Export Plug-In . SVG Version: 6.00 Build 0)  -->
<!DOCTYPE svg PUBLIC "-//W3C//DTD SVG 1.1//EN" "http://www.w3.org/Graphics/SVG/1.1/DTD/svg11.dtd">
<svg version="1.1" id="Capa_1" xmlns="http://www.w3.org/2000/svg" xmlns:xlink="http://www.w3.org/1999/xlink" x="0px" y="0px"
	 width="206.12px" height="48.681px" viewBox="0 0 206.12 48.681" enable-background="new 0 0 206.12 48.681" xml:space="preserve">
<g>
	<polygon fill="#331842" points="206.12,48.681 65.339,48.681 38.92,3.89 192.271,0 193.63,4.77 	"/>
	<polygon fill="#00A19A" points="65.339,48.681 8.561,48.681 0,4.77 38.92,3.89 	"/>
	<g>
		<path fill="#FFFFFF" d="M91.639,22.123v7.337c0,3.089-0.466,5.213-1.397,6.372c-0.933,1.159-2.588,1.738-4.967,1.738
			c-2.389,0-4.047-0.574-4.974-1.722c-0.927-1.148-1.39-3.277-1.39-6.387v-7.337c0-3.079,0.463-5.192,1.39-6.341
			c0.927-1.148,2.585-1.722,4.974-1.722c2.39,0,4.047,0.574,4.974,1.722C91.175,16.931,91.639,19.044,91.639,22.123z M86.958,21.088
			c0-1.472-0.121-2.427-0.362-2.865c-0.242-0.438-0.683-0.656-1.321-0.656c-0.628,0-1.065,0.227-1.312,0.68s-0.371,1.4-0.371,2.842
			v9.422c0,1.462,0.121,2.412,0.363,2.85c0.242,0.438,0.682,0.656,1.32,0.656c0.628,0,1.066-0.224,1.313-0.672
			s0.37-1.393,0.37-2.834V21.088z"/>
		<path fill="#FFFFFF" d="M105.433,25.413v7.63c0,1.535-0.273,2.672-0.818,3.414c-0.546,0.742-1.381,1.112-2.503,1.112
			c-0.659,0-1.243-0.18-1.753-0.541s-0.971-0.922-1.383-1.684v7.847h-4.464V21.304h4.341l0.123,1.838
			c0.412-0.762,0.873-1.323,1.383-1.684c0.51-0.36,1.094-0.541,1.753-0.541c1.122,0,1.957,0.368,2.503,1.104
			C105.159,22.759,105.433,23.889,105.433,25.413z M100.938,26.077c0-0.731-0.072-1.236-0.216-1.514
			c-0.145-0.278-0.392-0.417-0.741-0.417c-0.361,0-0.618,0.146-0.772,0.44c-0.155,0.293-0.232,0.791-0.232,1.491v6.333
			c0,0.69,0.075,1.184,0.225,1.483c0.148,0.299,0.398,0.448,0.749,0.448c0.36,0,0.615-0.134,0.765-0.401s0.224-0.777,0.224-1.529
			V26.077z"/>
		<path fill="#FFFFFF" d="M119.087,25.892v0.695h-4.341v-0.958c0-0.711-0.095-1.22-0.285-1.529c-0.191-0.309-0.508-0.463-0.95-0.463
			c-0.412,0-0.703,0.162-0.873,0.486c-0.17,0.325-0.255,0.904-0.255,1.738v6.766c0,0.855,0.082,1.437,0.247,1.746
			c0.165,0.309,0.448,0.463,0.85,0.463c0.422,0,0.719-0.16,0.889-0.479c0.17-0.319,0.255-0.896,0.255-1.73V31.36h4.464v1.236
			c0,1.75-0.431,3.017-1.29,3.8c-0.86,0.783-2.253,1.174-4.178,1.174c-2.153,0-3.641-0.504-4.465-1.514
			c-0.823-1.009-1.235-2.878-1.235-5.607v-2.41c0-2.729,0.412-4.598,1.235-5.607c0.824-1.009,2.312-1.514,4.465-1.514
			c1.925,0,3.317,0.389,4.178,1.167C118.656,22.862,119.087,24.131,119.087,25.892z"/>
		<path fill="#FFFFFF" d="M121.388,14.4h4.464v3.676h-4.464V14.4z M121.388,21.304h4.464v15.879h-4.464V21.304z"/>
		<path fill="#FFFFFF" d="M139.615,28.039v2.41c0,2.708-0.407,4.572-1.221,5.591s-2.266,1.529-4.355,1.529
			c-2.091,0-3.545-0.51-4.364-1.529c-0.818-1.02-1.228-2.883-1.228-5.591v-2.41c0-2.708,0.406-4.572,1.221-5.592
			c0.812-1.02,2.26-1.529,4.34-1.529c2.101,0,3.561,0.507,4.379,1.521C139.206,23.454,139.615,25.32,139.615,28.039z
			 M135.151,25.861c0-0.844-0.083-1.426-0.247-1.746c-0.165-0.319-0.454-0.479-0.865-0.479c-0.412,0-0.703,0.162-0.873,0.486
			c-0.17,0.325-0.255,0.904-0.255,1.738v6.766c0,0.855,0.082,1.437,0.247,1.746c0.165,0.309,0.448,0.463,0.85,0.463
			c0.422,0,0.719-0.16,0.889-0.479c0.17-0.319,0.255-0.896,0.255-1.73V25.861z"/>
		<path fill="#FFFFFF" d="M153.131,25.598v11.585h-4.495V26.077c0-0.731-0.072-1.236-0.216-1.514
			c-0.145-0.278-0.392-0.417-0.741-0.417c-0.361,0-0.618,0.146-0.772,0.44c-0.155,0.293-0.232,0.791-0.232,1.491v11.106h-4.464
			V21.304h4.341l0.123,1.838c0.516-0.762,1.048-1.323,1.599-1.684c0.551-0.36,1.146-0.541,1.784-0.541
			c1.133,0,1.929,0.335,2.387,1.004C152.901,22.592,153.131,23.817,153.131,25.598z"/>
		<path fill="#FFFFFF" d="M166.862,28.039v1.9h-6.704v2.688c0,0.834,0.085,1.411,0.255,1.73c0.17,0.319,0.461,0.479,0.873,0.479
			c0.463,0,0.79-0.163,0.98-0.487s0.286-0.898,0.286-1.722v-0.572h4.31v0.541c0,1.75-0.433,3.017-1.298,3.8s-2.255,1.174-4.17,1.174
			c-2.143,0-3.628-0.507-4.457-1.521s-1.243-2.881-1.243-5.599v-2.41c0-2.708,0.406-4.572,1.221-5.592
			c0.812-1.02,2.26-1.529,4.34-1.529c2.121,0,3.586,0.5,4.395,1.499S166.862,25.29,166.862,28.039z M162.553,25.799
			c0-0.886-0.091-1.499-0.271-1.838c-0.181-0.34-0.486-0.51-0.919-0.51c-0.443,0-0.755,0.167-0.935,0.502
			c-0.181,0.335-0.271,0.95-0.271,1.846v1.606h2.395V25.799z"/>
		<path fill="#FFFFFF" d="M179.837,25.351v0.603h-4.108v-0.726c0-0.659-0.085-1.094-0.255-1.305
			c-0.17-0.211-0.477-0.316-0.919-0.316c-0.34,0-0.59,0.09-0.749,0.27c-0.16,0.18-0.239,0.451-0.239,0.811v0.479
			c0,0.381,0.12,0.71,0.362,0.988c0.242,0.278,0.744,0.623,1.506,1.035l2.179,1.143c0.854,0.453,1.495,1.027,1.923,1.722
			c0.427,0.695,0.641,1.511,0.641,2.448v0.818c0,1.473-0.458,2.549-1.374,3.229c-0.917,0.68-2.374,1.02-4.372,1.02
			c-1.946,0-3.277-0.345-3.992-1.035c-0.716-0.689-1.074-2.002-1.074-3.938v-0.51h3.955v1.081c0,0.649,0.098,1.094,0.293,1.336
			c0.195,0.242,0.551,0.363,1.065,0.363c0.443,0,0.76-0.103,0.95-0.309c0.19-0.206,0.286-0.556,0.286-1.05v-0.556
			c0-0.484-0.132-0.914-0.395-1.29c-0.262-0.376-0.651-0.688-1.166-0.935l-2.054-1.035c-1.123-0.566-1.903-1.132-2.341-1.699
			s-0.656-1.267-0.656-2.101v-1.205c0-1.184,0.479-2.108,1.437-2.772c0.958-0.665,2.302-0.997,4.031-0.997
			c1.823,0,3.123,0.337,3.9,1.012C179.448,22.604,179.837,23.745,179.837,25.351z"/>
	</g>
	<g>
		<path fill-rule="evenodd" clip-rule="evenodd" fill="#FFFFFF" d="M26.498,40.122c-2.732,0.007-5.466,0.017-8.199,0.024
			c-0.334-0.148-0.41-0.438-0.41-0.759c-0.002-3.918,0.002-7.832-0.012-11.749c0-0.311,0.178-0.448,0.367-0.61
			c2.361-1.984,4.727-3.964,7.092-5.948c1.256-1.053,2.523-2.095,3.766-3.168c0.305-0.265,0.49-0.281,0.795-0.008
			c2.699,2.42,5.41,4.826,8.117,7.237c0.699,0.624,1.396,1.254,2.105,1.865c0.25,0.217,0.365,0.447,0.365,0.79
			c-0.012,3.719-0.008,7.434-0.01,11.153c0,0.995-0.219,1.205-1.199,1.205c-2.311,0-4.619-0.008-6.93,0.011
			c-0.412,0.002-0.516-0.114-0.51-0.516c0.02-1.914,0.01-3.826,0.008-5.739c0-0.939-0.32-1.255-1.273-1.258
			c-0.992-0.004-1.986-0.004-2.981,0c-0.787,0.005-1.062,0.278-1.066,1.084c-0.006,2.019,0,4.042-0.002,6.062
			C26.521,39.906,26.506,40.014,26.498,40.122z"/>
		<path fill-rule="evenodd" clip-rule="evenodd" fill="#FFFFFF" d="M43.586,27.157c-0.793-0.03-1.473-0.367-2.045-0.878
			c-3.527-3.146-7.037-6.308-10.557-9.463c-0.176-0.157-0.355-0.306-0.53-0.462c-0.859-0.769-0.849-0.759-1.712-0.027
			c-4.008,3.394-8.018,6.782-12.025,10.17c-0.377,0.317-0.789,0.57-1.27,0.698c-0.402,0.106-0.787,0.061-1.156-0.127
			c-0.684-0.349-0.727-0.601-0.166-1.097c5.048-4.446,10.102-8.886,15.143-13.343c0.297-0.26,0.449-0.209,0.709,0.027
			c4.873,4.425,9.756,8.842,14.637,13.258c0.531,0.48,0.516,0.644-0.094,1.011C44.232,27.097,43.922,27.173,43.586,27.157z"/>
		<path fill-rule="evenodd" clip-rule="evenodd" fill="#FFFFFF" d="M41.361,21.938c-0.818-0.694-1.498-1.336-2.248-1.877
			c-0.68-0.494-0.977-1.057-0.881-1.907c0.082-0.73,0.02-1.478-0.002-2.218c-0.01-0.297,0.078-0.412,0.392-0.406
			c0.774,0.02,1.553,0.016,2.327,0.003c0.291-0.007,0.421,0.062,0.42,0.387C41.355,17.868,41.361,19.816,41.361,21.938z"/>
	</g>
</g>
</svg>
