<?xml version="1.0" encoding="utf-8"?>
<!-- Generator: Adobe Illustrator 16.0.0, SVG Export Plug-In . SVG Version: 6.00 Build 0)  -->
<!DOCTYPE svg PUBLIC "-//W3C//DTD SVG 1.1//EN" "http://www.w3.org/Graphics/SVG/1.1/DTD/svg11.dtd">
<svg version="1.1" id="Capa_1" xmlns="http://www.w3.org/2000/svg" xmlns:xlink="http://www.w3.org/1999/xlink" x="0px" y="0px"
	 width="88.004px" height="152.487px" viewBox="0 0 88.004 152.487" enable-background="new 0 0 88.004 152.487"
	 xml:space="preserve">
<g>
	<path fill-rule="evenodd" clip-rule="evenodd" fill="#A4A3A3" d="M88.004,150.982c-1.31,0.54-2.61,0.921-3.92,1.16
		c-8.7,1.641-17.19-2.66-20.02-11.2c-1.11-3.359-0.71-7.43-0.2-11.06c0.42-2.929,0.26-4.39-1.37-4.87
		c-0.68-0.2-1.61-0.229-2.85-0.14c-7.71,0.581-15.43,1.29-23.13,1.931l-0.31,0.029c-0.5,0.04-1.01-0.069-1.54-0.101l-2.57-28.689
		c0,0,0.01,0,0.02,0c-0.88-2.39-2.62-2.271-6.54-0.44c-6.61,3.08-15.01,1.801-20.09-3.05c-5.23-5-6.94-13.14-4.17-19.88
		c3.39-8.27,12.31-12.39,21.77-10.06c3.86,0.959,5.59,0.35,5.89-2.49l-2.58-28.78c6.61-0.59,13.45-1.229,20.31-1.81
		c9.33-0.801,9.33-0.78,6.67-9.301c-2.72-8.739,1.93-17.09,9.54-20.56c2.29-1.04,4.84-1.64,7.55-1.67c1.36-0.021,2.74,0.1,4.15,0.38
		c1.2,0.24,2.33,0.59,3.4,1.04L88.004,150.982z"/>
	<g>
		<g>
			<path fill="#FFFFFF" d="M56.125,103.575c-4.51,1.534-9.21,3.292-14.101,5.276l-0.668-3.992l11.035-3.363
				c-4.042-0.849-7.69-1.511-10.946-1.987l0.007-3.844c6.377,1.37,11.086,2.396,14.126,3.075L56.125,103.575z"/>
			<path fill="#FFFFFF" d="M44.752,90.15c-0.28-3.12,1.194-4.825,4.423-5.115c0.13-0.012,0.26-0.019,0.391-0.021
				c3.507-0.185,5.421,1.317,5.742,4.508c0.01,0.036,0.017,0.073,0.02,0.109c0.273,3.038-1.243,4.705-4.547,5.001l-0.287,0.026
				C46.957,94.884,45.042,93.381,44.752,90.15z M47.133,90.395c0.203,0.564,0.795,0.909,1.779,1.034
				c0.586,0.077,1.17,0.089,1.751,0.037c0.39-0.035,0.781-0.098,1.172-0.188c0.972-0.235,1.439-0.753,1.402-1.555l-0.008-0.096
				c-0.067-0.743-0.479-1.22-1.235-1.43c-0.629-0.174-1.361-0.225-2.196-0.15c-0.205,0.019-0.413,0.042-0.625,0.07
				c-1.095,0.172-1.762,0.454-2.003,0.846c-0.144,0.244-0.201,0.527-0.172,0.848C47.014,89.994,47.059,90.189,47.133,90.395z"/>
			<path fill="#FFFFFF" d="M54.281,79.916l0.543,3.406c-2.268,0.167-4.448,0.344-6.541,0.531c-2.941,0.264-5.712,0.55-8.312,0.857
				l-0.344-3.369c1.679-0.113,3.401-0.25,5.167-0.408C47.838,80.66,51,80.32,54.281,79.916z"/>
			<path fill="#FFFFFF" d="M53.853,76.179c-3.857,1.512-7.164,2.854-9.92,4.026l-0.434-3.333l7.309-2.362
				c-2.871-0.631-5.478-1.104-7.823-1.421l0.012-3.318c2.959,0.78,6.454,1.683,10.483,2.709L53.853,76.179z"/>
			<path fill="#FFFFFF" d="M42.477,64.795c-0.286-3.184,1.148-4.918,4.302-5.201c0.383-0.035,0.796-0.048,1.237-0.042l0.552,6.153
				c1.758-0.158,2.596-0.691,2.515-1.6l-0.009-0.097c-0.119-0.793-0.61-1.152-1.472-1.075c-0.185,0.017-0.388,0.053-0.611,0.11
				l-0.345-3.271c2.606-0.234,4.064,1.175,4.372,4.228c0.01,0.037,0.016,0.068,0.019,0.096c0.261,2.909-1.254,4.511-4.544,4.807
				l-0.308,0.027C44.647,69.157,42.745,67.777,42.477,64.795z M46.71,66.205l-0.279-3.111l-0.247,0.022
				c-1.245,0.111-1.825,0.64-1.74,1.585C44.536,65.72,45.291,66.221,46.71,66.205z"/>
			<path fill="#FFFFFF" d="M44.808,55.039l7.427-0.805l0.323,3.371c-3.146,0.283-6.667,0.742-10.562,1.378l-0.432-2.514l1.66-0.288
				c-0.855-0.312-1.405-1.169-1.648-2.572c-0.032-0.209-0.058-0.411-0.075-0.604c-0.1-1.11,0.095-1.979,0.584-2.605
				c0.583-0.728,1.575-1.159,2.977-1.294l0.5,3.036c-0.117,0.001-0.23,0.007-0.34,0.017c-1.095,0.098-1.608,0.528-1.54,1.29
				l0.005,0.055C43.801,54.38,44.174,54.893,44.808,55.039z"/>
			<path fill="#FFFFFF" d="M60.747,106.407l10.148-0.911c3.126-0.281,4.861,1.497,5.206,5.333l0.027,0.303
				c0.015,3.236-1.146,5.015-3.483,5.336c-4.686,0.42-8.374,0.816-11.064,1.187l-0.329-3.662c1.555-0.047,3.375-0.164,5.461-0.351
				c1.464-0.131,3.062-0.298,4.796-0.5c1.271-0.132,1.852-0.804,1.743-2.016c0.007,0,0.01-0.005,0.009-0.014
				c-0.108-1.202-0.976-1.73-2.604-1.584l-9.454,0.918L60.747,106.407z"/>
			<path fill="#FFFFFF" d="M64.649,102.283l1.66-0.288c-0.924-0.305-1.467-1.278-1.627-2.92l-0.005-0.056
				c-0.145-1.614,0.229-2.758,1.12-3.43c0.606-0.461,2.093-0.798,4.46-1.011c1.163-0.104,2.543-0.177,4.139-0.219l0.299,3.332
				c-2.124,0.07-3.768,0.158-4.931,0.262c-0.582,0.052-1.046,0.107-1.392,0.166c-1.018,0.184-1.491,0.671-1.42,1.46
				s0.389,1.26,0.954,1.413l7.427-0.805l0.311,3.233c-3.147,0.282-6.667,0.742-10.562,1.378L64.649,102.283z"/>
			<path fill="#FFFFFF" d="M61.466,90.33c0.417-0.037,0.791,0.128,1.121,0.496c0.329,0.368,0.519,0.833,0.569,1.392
				c0.049,0.55-0.055,1.037-0.314,1.458c-0.258,0.421-0.597,0.65-1.014,0.688c-0.41,0.037-0.78-0.129-1.11-0.497
				s-0.519-0.828-0.568-1.378c-0.05-0.56,0.054-1.05,0.313-1.472C60.721,90.595,61.056,90.367,61.466,90.33z M74.747,92.856
				c-3.996,0.423-7.451,0.766-10.365,1.027l-0.465-3.455c2.801-0.141,5.58-0.334,8.336-0.582c0.739-0.066,1.474-0.137,2.205-0.211
				L74.747,92.856z"/>
			<path fill="#FFFFFF" d="M58.843,79.311c2.317-0.152,4.745-0.342,7.283-0.57c2.312-0.208,4.718-0.447,7.217-0.717l0.303,3.262
				l-1.56,0.251c0.82,0.611,1.281,1.481,1.382,2.609c0.253,2.817-1.228,4.37-4.443,4.659c-0.068,0.006-0.137,0.007-0.207,0.004
				c-3.227,0.234-4.963-1.016-5.208-3.751c-0.01-0.11-0.017-0.225-0.021-0.345c-0.043-0.939,0.269-1.731,0.935-2.373
				c-1.519,0.136-3.303,0.347-5.353,0.633L58.843,79.311z M69.987,81.78l-3.544,0.388c-0.493,0.581-0.714,1.151-0.664,1.71
				c0.021,0.229,0.085,0.455,0.195,0.676c0.346,0.7,1.165,0.992,2.458,0.876c0.151-0.014,0.304-0.032,0.461-0.055
				c1.558-0.232,2.344-0.774,2.357-1.627c0-0.083-0.004-0.166-0.012-0.249C71.172,82.766,70.755,82.192,69.987,81.78z"/>
			<path fill="#FFFFFF" d="M61.951,72.566c-0.147-3.03,0.849-4.642,2.99-4.833l7.285-0.654l0.329,3.204L71.59,70.48
				c0.62,0.611,0.979,1.462,1.077,2.554c0.042,0.468,0.033,0.978-0.028,1.529c-0.155,1.651-1.02,2.547-2.593,2.688
				c-0.191,0.018-0.398,0.022-0.619,0.014c-1.638-0.038-2.587-1.512-2.849-4.421c-0.05-0.56-0.074-1.177-0.073-1.853l-1.19,0.107
				c-0.964,0.086-1.41,0.538-1.337,1.354l0.005,0.055c-0.001,0.065,0.001,0.125,0.006,0.18c0.08,0.89,0.66,1.286,1.741,1.189
				l0.154-0.014l0.089,3.294c-2.388,0.214-3.72-1.22-3.996-4.304L61.951,72.566z M69.954,70.683l-1.806,0.162
				c-0.026,0.4-0.025,0.761,0.004,1.082c0.075,0.836,0.335,1.386,0.779,1.651c0.27,0.161,0.514,0.231,0.733,0.212
				c0.273-0.025,0.503-0.193,0.688-0.506c0.144-0.244,0.199-0.55,0.166-0.917C70.476,71.898,70.288,71.337,69.954,70.683z"/>
			<path fill="#FFFFFF" d="M56.828,56.86c2.317-0.152,4.745-0.342,7.283-0.57c2.312-0.208,4.718-0.446,7.217-0.717l0.303,3.262
				l-1.56,0.251c0.82,0.611,1.281,1.481,1.382,2.609c0.253,2.817-1.229,4.37-4.443,4.659c-0.068,0.006-0.138,0.007-0.207,0.004
				c-3.227,0.234-4.963-1.016-5.208-3.751c-0.01-0.11-0.017-0.225-0.021-0.345c-0.042-0.939,0.269-1.73,0.936-2.373
				c-1.519,0.136-3.303,0.347-5.353,0.633L56.828,56.86z M67.973,59.329l-3.544,0.388c-0.493,0.581-0.714,1.151-0.664,1.71
				c0.021,0.229,0.086,0.455,0.195,0.677c0.346,0.7,1.165,0.992,2.458,0.875c0.15-0.013,0.304-0.032,0.46-0.055
				c1.559-0.232,2.344-0.774,2.357-1.627c0-0.083-0.004-0.166-0.012-0.249C69.158,60.315,68.741,59.741,67.973,59.329z"/>
			<path fill="#FFFFFF" d="M60.31,50.942c-0.286-3.185,1.148-4.918,4.302-5.201c0.383-0.034,0.796-0.048,1.238-0.042l0.552,6.153
				c1.758-0.158,2.596-0.691,2.515-1.599l-0.009-0.097c-0.119-0.794-0.61-1.152-1.472-1.075c-0.185,0.017-0.388,0.054-0.61,0.11
				L66.48,45.92c2.606-0.234,4.063,1.176,4.372,4.229c0.01,0.036,0.016,0.068,0.019,0.095c0.261,2.909-1.253,4.512-4.544,4.807
				l-0.308,0.028C62.481,55.303,60.578,53.924,60.31,50.942z M64.543,52.352l-0.279-3.111l-0.246,0.022
				c-1.245,0.111-1.825,0.641-1.74,1.585C62.369,51.867,63.125,52.369,64.543,52.352z"/>
			<path fill="#FFFFFF" d="M66.699,44.679l-0.396-3.142l0.133-0.012c1.054-0.095,1.548-0.579,1.483-1.452l-0.005-0.055
				c-0.076-0.845-0.418-1.239-1.027-1.185l-0.072,0.006c-0.667,0.097-1.133,0.979-1.397,2.644c-0.264,1.666-0.867,2.707-1.809,3.125
				c-0.332,0.15-0.654,0.239-0.969,0.268c-0.575,0.051-1.126-0.098-1.654-0.448c-0.807-0.538-1.32-1.417-1.54-2.637
				c-0.057-0.328-0.1-0.647-0.127-0.96c-0.073-0.816-0.032-1.546,0.125-2.189c0.217-0.88,0.585-1.51,1.103-1.889
				c0.356-0.254,0.764-0.402,1.222-0.443c0.219-0.02,0.447-0.017,0.683,0.008l0.316,2.941c-0.173-0.012-0.332-0.012-0.476,0.001
				c-0.684,0.062-1.023,0.388-1.019,0.979c-0.001,0.065,0.001,0.129,0.007,0.194c0.055,0.605,0.32,0.993,0.798,1.163
				c0.164,0.06,0.311,0.083,0.44,0.072c0.322-0.029,0.581-0.256,0.777-0.681c0.277-0.598,0.535-1.47,0.773-2.616
				c0.238-1.146,0.748-1.947,1.527-2.406c0.295-0.165,0.597-0.262,0.905-0.29c0.52-0.046,1.061,0.108,1.624,0.465
				c0.899,0.567,1.478,1.519,1.736,2.855c0.061,0.291,0.104,0.579,0.129,0.863c0.09,1.01-0.021,1.963-0.333,2.861
				C69.257,43.867,68.271,44.52,66.699,44.679z"/>
		</g>
	</g>
</g>
</svg>
