<?xml version="1.0" encoding="utf-8"?>
<!-- Generator: Adobe Illustrator 16.0.0, SVG Export Plug-In . SVG Version: 6.00 Build 0)  -->
<!DOCTYPE svg PUBLIC "-//W3C//DTD SVG 1.1//EN" "http://www.w3.org/Graphics/SVG/1.1/DTD/svg11.dtd">
<svg version="1.1" id="Capa_1" xmlns="http://www.w3.org/2000/svg" xmlns:xlink="http://www.w3.org/1999/xlink" x="0px" y="0px"
	 width="142.834px" height="29.746px" viewBox="0 0 142.834 29.746" enable-background="new 0 0 142.834 29.746"
	 xml:space="preserve">
<g>
	<g>
		<g>
			<path fill="#2A1946" d="M28.636,6.013h5.246v1.861h-2.98v5.615h2.837v1.857h-2.837v6.393h3.146v1.858h-5.41L28.636,6.013
				L28.636,6.013z"/>
			<path fill="#2A1946" d="M41.453,14.3v0.584h-2.074v-0.632c0-0.699-0.053-1.151-0.158-1.358c-0.107-0.205-0.311-0.311-0.604-0.311
				c-0.271,0-0.464,0.098-0.579,0.292s-0.172,0.515-0.172,0.96V14.3c0,0.199,0.071,0.422,0.215,0.668
				c0.145,0.246,0.373,0.545,0.691,0.896l1.752,1.848c0.382,0.413,0.66,0.795,0.835,1.146c0.175,0.35,0.263,0.701,0.263,1.061v0.979
				c0,1.011-0.247,1.763-0.74,2.26c-0.49,0.497-1.246,0.745-2.265,0.745c-1.063,0-1.811-0.234-2.235-0.703
				c-0.426-0.47-0.639-1.312-0.639-2.527v-0.144v-0.835h2.004v0.979c0,0.668,0.057,1.116,0.166,1.348
				c0.111,0.23,0.314,0.348,0.608,0.348c0.35,0,0.597-0.107,0.739-0.322c0.142-0.215,0.215-0.58,0.215-1.098v-0.465
				c0-0.286-0.072-0.574-0.215-0.864c-0.145-0.29-0.365-0.591-0.668-0.899l-1.705-1.776c-0.479-0.518-0.787-0.937-0.932-1.259
				c-0.143-0.32-0.215-0.686-0.215-1.091V13.89c0-0.93,0.246-1.635,0.74-2.114c0.492-0.48,1.22-0.723,2.182-0.723
				c1.001,0,1.717,0.251,2.146,0.751C41.239,12.297,41.453,13.132,41.453,14.3z"/>
			<path fill="#2A1946" d="M49.441,14.657v0.716h-2.17v-1.002c0-0.683-0.063-1.148-0.19-1.396c-0.128-0.244-0.351-0.367-0.668-0.367
				c-0.276,0-0.475,0.127-0.59,0.382s-0.173,0.729-0.173,1.431v6.104c0,0.716,0.062,1.198,0.185,1.453
				c0.123,0.256,0.332,0.384,0.626,0.384c0.286,0,0.488-0.124,0.607-0.37c0.12-0.247,0.18-0.735,0.18-1.467v-1.193h2.193v0.941
				c0,1.225-0.246,2.131-0.738,2.719c-0.494,0.589-1.248,0.883-2.266,0.883c-1.121,0-1.902-0.297-2.344-0.889
				c-0.44-0.592-0.661-1.691-0.661-3.297v-4.438c0-1.604,0.225-2.707,0.674-3.309c0.448-0.602,1.231-0.899,2.354-0.899
				c1.02,0,1.771,0.294,2.254,0.882C49.199,12.516,49.441,13.425,49.441,14.657z"/>
			<path fill="#2A1946" d="M51.29,11.343h2.17v9.109c0,0.668,0.069,1.127,0.208,1.377c0.142,0.25,0.382,0.375,0.724,0.375
				c0.334,0,0.57-0.133,0.716-0.398c0.143-0.267,0.215-0.718,0.215-1.354v-9.109h2.17V23.6h-2.075l-0.095-1.001
				c-0.263,0.422-0.566,0.738-0.912,0.953s-0.727,0.322-1.139,0.322c-0.726,0-1.234-0.223-1.533-0.668
				c-0.297-0.445-0.446-1.252-0.446-2.42L51.29,11.343L51.29,11.343z"/>
			<path fill="#2A1946" d="M65.621,14.657v0.716h-2.17v-1.002c0-0.683-0.062-1.148-0.188-1.396c-0.13-0.244-0.353-0.367-0.668-0.367
				c-0.278,0-0.477,0.127-0.592,0.382c-0.113,0.255-0.173,0.729-0.173,1.431v6.104c0,0.716,0.062,1.198,0.187,1.453
				c0.124,0.256,0.332,0.384,0.626,0.384c0.286,0,0.486-0.124,0.605-0.37c0.12-0.247,0.182-0.735,0.182-1.467v-1.193h2.191v0.941
				c0,1.225-0.246,2.131-0.738,2.719c-0.492,0.589-1.246,0.883-2.266,0.883c-1.121,0-1.902-0.297-2.344-0.889
				c-0.44-0.592-0.661-1.691-0.661-3.297v-4.438c0-1.604,0.225-2.707,0.674-3.309c0.448-0.602,1.233-0.899,2.354-0.899
				c1.018,0,1.769,0.294,2.254,0.882C65.378,12.516,65.621,13.425,65.621,14.657z"/>
			<path fill="#2A1946" d="M67.493,6.013h2.146v6.31c0.263-0.421,0.565-0.739,0.918-0.954c0.35-0.215,0.728-0.321,1.133-0.321
				c0.729,0,1.243,0.227,1.538,0.673c0.294,0.449,0.439,1.26,0.439,2.429v9.454h-2.17v-9.134c0-0.657-0.068-1.11-0.209-1.357
				c-0.139-0.246-0.38-0.37-0.722-0.37c-0.333,0-0.572,0.13-0.716,0.389c-0.145,0.258-0.214,0.705-0.214,1.341v9.135h-2.146
				L67.493,6.013L67.493,6.013z"/>
			<path fill="#2A1946" d="M81.896,14.348v9.253h-2.051l-0.119-1.002c-0.255,0.431-0.551,0.752-0.891,0.973
				c-0.338,0.219-0.709,0.328-1.113,0.328c-0.73,0-1.262-0.24-1.586-0.723c-0.326-0.479-0.488-1.258-0.488-2.332v-2.107
				c0-0.986,0.306-1.699,0.918-2.143c0.611-0.439,1.665-0.691,3.16-0.757v-1.419c0-0.729-0.068-1.221-0.203-1.467
				s-0.378-0.369-0.729-0.369c-0.315,0-0.548,0.121-0.689,0.363c-0.145,0.242-0.214,0.635-0.214,1.175v0.513h-2.004v-0.286
				c0-1.23,0.227-2.091,0.68-2.573c0.453-0.485,1.244-0.729,2.373-0.729c1.072,0,1.834,0.246,2.283,0.739
				C81.671,12.276,81.896,13.132,81.896,14.348z M79.714,17.353c-0.73,0.037-1.227,0.174-1.483,0.402
				c-0.258,0.23-0.388,0.643-0.388,1.229v1.562c0,0.659,0.072,1.122,0.221,1.391c0.146,0.266,0.392,0.397,0.731,0.397
				c0.334,0,0.572-0.132,0.718-0.394c0.143-0.264,0.215-0.729,0.215-1.396L79.714,17.353z"/>
			<path fill="#2A1946" d="M90.361,6.013h3.076l2.658,17.588h-2.289l-0.562-4.473h-2.933l-0.655,4.473h-2.158L90.361,6.013z
				 M91.803,7.921l-1.251,9.432h2.441l-1.097-9.432H91.803z"/>
			<path fill="#2A1946" d="M103.38,14.657v0.716h-2.17v-1.002c0-0.683-0.062-1.148-0.188-1.396
				c-0.128-0.244-0.353-0.367-0.668-0.367c-0.278,0-0.477,0.127-0.59,0.382c-0.115,0.255-0.175,0.729-0.175,1.431v6.104
				c0,0.716,0.062,1.198,0.187,1.453c0.124,0.256,0.332,0.384,0.626,0.384c0.286,0,0.488-0.124,0.605-0.37
				c0.12-0.247,0.182-0.735,0.182-1.467v-1.193h2.191v0.941c0,1.225-0.244,2.131-0.736,2.719c-0.494,0.589-1.248,0.883-2.268,0.883
				c-1.121,0-1.9-0.297-2.344-0.889c-0.438-0.592-0.661-1.691-0.661-3.297v-4.438c0-1.604,0.227-2.707,0.674-3.309
				c0.448-0.602,1.233-0.899,2.354-0.899c1.018,0,1.769,0.294,2.254,0.882C103.138,12.516,103.38,13.425,103.38,14.657z"/>
			<path fill="#2A1946" d="M107.601,8.101v3.242h1.264v1.538h-1.264v8.084c0,0.452,0.064,0.767,0.195,0.938
				c0.133,0.171,0.355,0.257,0.676,0.257c0.055,0,0.113-0.002,0.179-0.006c0.062-0.004,0.167-0.02,0.31-0.042v1.681
				c-0.029,0.008-0.083,0.016-0.152,0.024c-0.512,0.056-0.863,0.083-1.062,0.083c-0.882,0-1.49-0.229-1.824-0.688
				s-0.501-1.346-0.501-2.664v-7.667h-0.966v-1.538h0.966V8.947L107.601,8.101z"/>
			<path fill="#2A1946" d="M110.26,6.013h2.302V8.22h-2.302V6.013z M110.332,11.343h2.146V23.6h-2.146V11.343z"/>
			<path fill="#2A1946" d="M113.825,11.343h2.087l1.049,10.087h0.119l1.168-10.087h1.887L118.296,23.6h-2.609L113.825,11.343z"/>
			<path fill="#2A1946" d="M127.5,14.348v9.253h-2.051l-0.119-1.002c-0.255,0.431-0.55,0.752-0.888,0.973
				c-0.338,0.219-0.71,0.328-1.115,0.328c-0.729,0-1.26-0.24-1.586-0.723c-0.326-0.479-0.488-1.258-0.488-2.332v-2.107
				c0-0.986,0.307-1.699,0.918-2.143c0.611-0.439,1.664-0.691,3.159-0.757v-1.419c0-0.729-0.065-1.221-0.202-1.467
				c-0.136-0.246-0.379-0.369-0.729-0.369c-0.317,0-0.548,0.121-0.691,0.363c-0.143,0.242-0.214,0.635-0.214,1.175v0.513h-2.003
				v-0.286c0-1.23,0.229-2.091,0.68-2.573c0.453-0.485,1.244-0.729,2.372-0.729c1.073,0,1.835,0.246,2.283,0.739
				C127.276,12.276,127.5,13.132,127.5,14.348z M125.319,17.353c-0.731,0.037-1.227,0.174-1.485,0.402
				c-0.258,0.23-0.387,0.643-0.387,1.229v1.562c0,0.659,0.073,1.122,0.221,1.391c0.146,0.266,0.393,0.397,0.732,0.397
				c0.334,0,0.572-0.132,0.716-0.394c0.146-0.264,0.215-0.729,0.215-1.396L125.319,17.353z"/>
		</g>
	</g>
	<path fill="none" stroke="#431E6B" stroke-width="2" stroke-miterlimit="10" stroke-dasharray="12,2" d="M141.834,16.746
		c0,6.628-5.372,12-12,12H26.609c-6.627,0-12-5.372-12-12V13c0-6.628,5.373-12,12-12h103.226c6.628,0,12,5.372,12,12V16.746z"/>
	
		<line fill="none" stroke="#431E6B" stroke-width="2" stroke-miterlimit="10" stroke-dasharray="12,2" x1="0" y1="28.646" x2="15.609" y2="28.646"/>
</g>
</svg>
