<?xml version="1.0" encoding="utf-8"?>
<!-- Generator: Adobe Illustrator 16.0.0, SVG Export Plug-In . SVG Version: 6.00 Build 0)  -->
<!DOCTYPE svg PUBLIC "-//W3C//DTD SVG 1.1//EN" "http://www.w3.org/Graphics/SVG/1.1/DTD/svg11.dtd">
<svg version="1.1" id="Capa_1" xmlns="http://www.w3.org/2000/svg" xmlns:xlink="http://www.w3.org/1999/xlink" x="0px" y="0px"
	 width="206.119px" height="48.68px" viewBox="0 0 206.119 48.68" enable-background="new 0 0 206.119 48.68" xml:space="preserve">
<g>
	<polygon fill="#2B1C48" points="206.119,48.679 65.338,48.679 38.92,3.891 192.27,-0.001 193.629,4.769 	"/>
	<polygon fill="#ABC02F" points="65.338,48.679 8.561,48.679 0,4.769 38.92,3.891 	"/>
	<g>
		<path fill="#FFFFFF" d="M91.639,22.121v7.338c0,3.089-0.466,5.213-1.397,6.371c-0.933,1.158-2.588,1.738-4.967,1.738
			c-2.389,0-4.047-0.574-4.974-1.723s-1.39-3.277-1.39-6.387v-7.338c0-3.078,0.463-5.191,1.39-6.34s2.585-1.723,4.974-1.723
			c2.39,0,4.047,0.574,4.974,1.723S91.639,19.043,91.639,22.121z M86.958,21.086c0-1.472-0.121-2.427-0.362-2.865
			c-0.242-0.438-0.683-0.656-1.321-0.656c-0.628,0-1.065,0.227-1.312,0.68s-0.371,1.4-0.371,2.842v9.423
			c0,1.462,0.121,2.412,0.363,2.851c0.242,0.438,0.682,0.656,1.32,0.656c0.628,0,1.066-0.225,1.313-0.672
			c0.247-0.448,0.37-1.393,0.37-2.835V21.086z"/>
		<path fill="#FFFFFF" d="M105.433,25.412v7.63c0,1.534-0.273,2.673-0.818,3.413c-0.546,0.742-1.381,1.113-2.503,1.113
			c-0.659,0-1.243-0.181-1.753-0.541s-0.971-0.922-1.383-1.684v7.847h-4.464V21.303h4.341l0.123,1.838
			c0.412-0.762,0.873-1.322,1.383-1.684c0.51-0.36,1.094-0.541,1.753-0.541c1.122,0,1.957,0.369,2.503,1.105
			C105.159,22.758,105.433,23.888,105.433,25.412z M100.938,26.076c0-0.731-0.072-1.236-0.216-1.514
			c-0.145-0.279-0.392-0.418-0.741-0.418c-0.361,0-0.618,0.146-0.772,0.44c-0.155,0.294-0.232,0.79-0.232,1.491v6.332
			c0,0.69,0.075,1.185,0.225,1.483c0.148,0.299,0.398,0.448,0.749,0.448c0.36,0,0.615-0.135,0.765-0.402s0.224-0.777,0.224-1.529
			V26.076z"/>
		<path fill="#FFFFFF" d="M119.087,25.891v0.695h-4.341v-0.958c0-0.711-0.095-1.22-0.285-1.529c-0.191-0.31-0.508-0.464-0.95-0.464
			c-0.412,0-0.703,0.162-0.873,0.486c-0.17,0.325-0.255,0.904-0.255,1.738v6.766c0,0.855,0.082,1.437,0.247,1.746
			c0.165,0.309,0.448,0.463,0.85,0.463c0.422,0,0.719-0.16,0.889-0.479c0.17-0.319,0.255-0.896,0.255-1.73v-1.267h4.464v1.235
			c0,1.751-0.431,3.018-1.29,3.801c-0.86,0.782-2.253,1.174-4.178,1.174c-2.153,0-3.641-0.505-4.465-1.514
			c-0.823-1.01-1.235-2.879-1.235-5.607v-2.41c0-2.729,0.412-4.598,1.235-5.607c0.824-1.008,2.312-1.514,4.465-1.514
			c1.925,0,3.317,0.39,4.178,1.167C118.656,22.86,119.087,24.129,119.087,25.891z"/>
		<path fill="#FFFFFF" d="M121.388,14.398h4.464v3.676h-4.464V14.398z M121.388,21.303h4.464v15.879h-4.464V21.303z"/>
		<path fill="#FFFFFF" d="M139.615,28.037v2.41c0,2.708-0.407,4.572-1.221,5.592s-2.266,1.529-4.355,1.529
			c-2.091,0-3.545-0.51-4.364-1.529c-0.818-1.02-1.228-2.884-1.228-5.592v-2.41c0-2.708,0.406-4.572,1.221-5.592
			c0.812-1.02,2.26-1.529,4.34-1.529c2.101,0,3.561,0.508,4.379,1.521C139.206,23.453,139.615,25.318,139.615,28.037z
			 M135.151,25.859c0-0.844-0.083-1.426-0.247-1.746c-0.165-0.318-0.454-0.479-0.865-0.479c-0.412,0-0.703,0.162-0.873,0.486
			c-0.17,0.325-0.255,0.904-0.255,1.738v6.766c0,0.855,0.082,1.437,0.247,1.746c0.165,0.309,0.448,0.463,0.85,0.463
			c0.422,0,0.719-0.16,0.889-0.479c0.17-0.319,0.255-0.896,0.255-1.73V25.859z"/>
		<path fill="#FFFFFF" d="M153.131,25.597v11.585h-4.495V26.076c0-0.731-0.072-1.236-0.216-1.514
			c-0.145-0.279-0.392-0.418-0.741-0.418c-0.361,0-0.618,0.146-0.772,0.44c-0.155,0.294-0.232,0.79-0.232,1.491v11.105h-4.464
			V21.303h4.341l0.123,1.838c0.516-0.762,1.048-1.322,1.599-1.684c0.551-0.36,1.146-0.541,1.784-0.541
			c1.133,0,1.929,0.336,2.387,1.004C152.901,22.59,153.131,23.815,153.131,25.597z"/>
		<path fill="#FFFFFF" d="M166.862,28.037v1.9h-6.704v2.688c0,0.834,0.085,1.411,0.255,1.73c0.17,0.318,0.461,0.479,0.873,0.479
			c0.463,0,0.79-0.162,0.98-0.486s0.286-0.898,0.286-1.723v-0.572h4.31v0.541c0,1.751-0.433,3.018-1.298,3.801
			c-0.865,0.782-2.255,1.174-4.17,1.174c-2.143,0-3.628-0.508-4.457-1.521c-0.829-1.015-1.243-2.881-1.243-5.6v-2.41
			c0-2.708,0.406-4.572,1.221-5.592c0.812-1.02,2.26-1.529,4.34-1.529c2.121,0,3.586,0.5,4.395,1.499S166.862,25.288,166.862,28.037
			z M162.553,25.798c0-0.886-0.091-1.499-0.271-1.839c-0.181-0.34-0.486-0.51-0.919-0.51c-0.443,0-0.755,0.168-0.935,0.502
			c-0.181,0.336-0.271,0.951-0.271,1.847v1.606h2.395V25.798z"/>
		<path fill="#FFFFFF" d="M179.837,25.35v0.603h-4.108v-0.726c0-0.659-0.085-1.094-0.255-1.306c-0.17-0.211-0.477-0.316-0.919-0.316
			c-0.34,0-0.59,0.09-0.749,0.271c-0.16,0.18-0.239,0.45-0.239,0.811v0.479c0,0.381,0.12,0.711,0.362,0.988
			c0.242,0.279,0.744,0.623,1.506,1.035l2.179,1.144c0.854,0.453,1.495,1.026,1.923,1.722c0.427,0.695,0.641,1.512,0.641,2.449
			v0.818c0,1.473-0.458,2.549-1.374,3.229c-0.917,0.68-2.374,1.02-4.372,1.02c-1.946,0-3.277-0.346-3.992-1.035
			c-0.716-0.689-1.074-2.003-1.074-3.939v-0.51h3.955v1.082c0,0.648,0.098,1.094,0.293,1.336s0.551,0.363,1.065,0.363
			c0.443,0,0.76-0.104,0.95-0.31s0.286-0.556,0.286-1.05v-0.557c0-0.484-0.132-0.914-0.395-1.289
			c-0.262-0.377-0.651-0.688-1.166-0.936l-2.054-1.035c-1.123-0.565-1.903-1.132-2.341-1.698s-0.656-1.267-0.656-2.101v-1.205
			c0-1.184,0.479-2.108,1.437-2.772c0.958-0.665,2.302-0.997,4.031-0.997c1.823,0,3.123,0.338,3.9,1.012
			C179.448,22.604,179.837,23.743,179.837,25.35z"/>
	</g>
	<g>
		<path fill-rule="evenodd" clip-rule="evenodd" fill="#FFFFFF" d="M26.496,40.121c-2.73,0.007-5.465,0.018-8.199,0.024
			c-0.334-0.148-0.408-0.438-0.408-0.76c-0.003-3.918,0.002-7.829-0.012-11.747c0-0.312,0.178-0.448,0.367-0.61
			c2.361-1.984,4.726-3.965,7.092-5.949c1.256-1.053,2.523-2.094,3.766-3.168c0.305-0.264,0.49-0.281,0.795-0.007
			c2.698,2.419,5.41,4.825,8.117,7.237c0.699,0.623,1.396,1.254,2.105,1.865c0.25,0.217,0.365,0.445,0.365,0.789
			c-0.012,3.719-0.008,7.434-0.01,11.152c0,0.996-0.219,1.206-1.199,1.206c-2.312,0-4.619-0.009-6.931,0.011
			c-0.411,0.002-0.517-0.115-0.509-0.518c0.02-1.914,0.009-3.824,0.007-5.738c0-0.938-0.319-1.255-1.272-1.258
			c-0.992-0.004-1.986-0.004-2.982,0c-0.786,0.005-1.061,0.277-1.064,1.084c-0.006,2.019,0,4.041-0.002,6.061
			C26.521,39.906,26.506,40.013,26.496,40.121z"/>
		<path fill-rule="evenodd" clip-rule="evenodd" fill="#FFFFFF" d="M43.586,27.156c-0.793-0.03-1.473-0.367-2.045-0.88
			c-3.527-3.146-7.037-6.306-10.557-9.463c-0.176-0.156-0.355-0.305-0.531-0.461c-0.858-0.77-0.848-0.76-1.711-0.027
			c-4.008,3.393-8.018,6.781-12.025,10.17c-0.379,0.316-0.79,0.57-1.27,0.697c-0.402,0.107-0.787,0.062-1.156-0.127
			c-0.684-0.348-0.727-0.6-0.166-1.095c5.047-4.447,10.102-8.888,15.143-13.345c0.297-0.26,0.449-0.209,0.709,0.028
			c4.873,4.423,9.756,8.841,14.637,13.257c0.531,0.48,0.516,0.646-0.094,1.013C44.232,27.095,43.922,27.172,43.586,27.156z"/>
		<path fill-rule="evenodd" clip-rule="evenodd" fill="#FFFFFF" d="M41.361,21.938c-0.818-0.694-1.498-1.337-2.248-1.878
			c-0.68-0.492-0.978-1.056-0.881-1.905c0.082-0.73,0.02-1.479-0.002-2.22c-0.011-0.296,0.078-0.411,0.391-0.406
			c0.775,0.021,1.554,0.018,2.328,0.004c0.291-0.008,0.42,0.062,0.42,0.387C41.355,17.866,41.361,19.815,41.361,21.938z"/>
	</g>
</g>
</svg>
