<?xml version="1.0" encoding="utf-8"?>
<!-- Generator: Adobe Illustrator 16.0.0, SVG Export Plug-In . SVG Version: 6.00 Build 0)  -->
<!DOCTYPE svg PUBLIC "-//W3C//DTD SVG 1.1//EN" "http://www.w3.org/Graphics/SVG/1.1/DTD/svg11.dtd">
<svg version="1.1" id="Capa_1" xmlns="http://www.w3.org/2000/svg" xmlns:xlink="http://www.w3.org/1999/xlink" x="0px" y="0px"
	 width="749.135px" height="51.463px" viewBox="0 0 749.135 51.463" enable-background="new 0 0 749.135 51.463"
	 xml:space="preserve">
<g>
	<g>
		<g>
			<polygon fill-rule="evenodd" clip-rule="evenodd" fill="#ABC02F" points="306.762,51.013 32.504,51.013 0,0.45 274.258,0.45 			
				"/>
			<g>
				<g>
					<path d="M59.735,35.699c0.089,0.793,0.133,1.526,0.133,2.199c0,2.364-0.566,4.062-1.7,5.092
						c-1.488,1.348-3.366,2.146-5.635,2.397c-0.833,0.105-1.639,0.158-2.418,0.158c-1.4,0-2.747-0.152-4.04-0.456
						c-2.02-0.449-3.534-1.354-4.544-2.714c-0.922-1.229-1.382-2.793-1.382-4.695c0-0.211,0.008-0.429,0.026-0.653
						c0.106-2.206,0.704-4.031,1.794-5.479c1.09-1.445,2.741-2.492,4.956-3.14l0.08-3.625l5.66-0.079l0.08,6.597
						c-2.87,0.317-4.624,1.255-5.262,2.813c-0.443,1.083-0.665,2.139-0.665,3.17c0,0.436,0.044,0.865,0.133,1.287
						c0.267,1.387,1.409,2.08,3.429,2.08c0.035,0,0.08-0.007,0.133-0.02c1.771-0.026,2.658-1.222,2.658-3.586
						c0-0.449-0.027-0.932-0.08-1.446L59.735,35.699z M49.61,16.74c1.062,0,1.976,0.285,2.737,0.853s1.143,1.248,1.143,2.04
						c0,0.807-0.381,1.493-1.143,2.061c-0.762,0.568-1.675,0.852-2.737,0.852c-1.081,0-2.003-0.283-2.764-0.852
						c-0.763-0.567-1.144-1.254-1.144-2.061c0-0.792,0.381-1.473,1.144-2.04C47.607,17.025,48.529,16.74,49.61,16.74z"/>
					<path d="M82.725,39.107c-0.904-1.018-1.879-2.094-2.924-3.229c-1.56,0.687-3.411,1.03-5.555,1.03
						c-7.99,0-11.985-4.939-11.985-14.818c0-9.166,4.261-13.749,12.783-13.749c7.458,0,11.188,4.762,11.188,14.284
						c0,4.504-0.896,7.943-2.685,10.321c1.027,1.017,2.037,1.987,3.03,2.912L82.725,39.107z M69.729,23.159
						c-0.018,0.344-0.026,0.674-0.026,0.991c0,4.979,1.559,7.469,4.677,7.469c0.443,0,0.859-0.053,1.249-0.159
						c-1.099-1.162-2.259-2.37-3.481-3.625l3.801-3.11c0.957,1.097,1.896,2.159,2.817,3.189c0.39-1.268,0.584-2.853,0.584-4.755
						c0-5.652-1.541-8.479-4.624-8.479C71.624,14.681,69.958,17.507,69.729,23.159z"/>
					<path d="M101.727,37.522l-0.266-3.229c-0.744,1.717-2.747,2.582-6.007,2.596c-0.035,0.014-0.062,0.02-0.079,0.02
						c-3.226,0-5.36-1.083-6.405-3.249c-0.709-1.439-1.063-4.418-1.063-8.935c0-2.324,0.098-5.064,0.293-8.222h6.458
						c-0.354,4.438-0.532,7.853-0.532,10.242c0,1.202,0.045,2.14,0.134,2.813c0.266,2.061,1.16,3.09,2.684,3.09
						s2.48-0.534,2.87-1.604l-0.266-13.749l6.245-0.039c0,5.68,0.275,12.296,0.824,19.851L101.727,37.522z"/>
					<path d="M117.459,17.177c6.148,0,9.222,3.044,9.222,9.133c0,0.739-0.044,1.532-0.133,2.377h-11.879
						c0,3.395,0.877,5.092,2.631,5.092h0.186c1.542-0.093,2.312-0.971,2.312-2.635c0-0.356-0.036-0.753-0.106-1.188l6.325-0.1
						c0,5.032-2.95,7.581-8.85,7.647c-0.071,0.013-0.133,0.02-0.187,0.02c-5.616,0-8.425-3.177-8.425-9.529v-0.595
						C108.733,20.584,111.701,17.177,117.459,17.177z M114.031,25.041h6.006v-0.475c0-2.404-0.913-3.605-2.737-3.605
						C115.333,20.961,114.243,22.32,114.031,25.041z M114.456,13.313c2.073-1.836,3.773-3.586,5.103-5.25l4.358,2.575
						c-1.878,1.374-3.969,3.059-6.271,5.052L114.456,13.313z"/>
					<path d="M144.913,9.133l0.266,11.154c0.744-1.717,2.48-2.589,5.209-2.615h0.079c2.693,0,4.606,0.911,5.741,2.734
						c0.779,1.241,1.169,4.146,1.169,8.717c0,2.245-0.098,4.899-0.292,7.964h-6.697c0.229-4.081,0.345-7.244,0.345-9.489
						c0-1.123-0.026-2.021-0.079-2.695c-0.178-1.98-0.939-2.971-2.286-2.971s-2.215,0.527-2.604,1.584l0.267,14.363l-6.512,0.04
						c0-6.075-0.363-15.604-1.09-28.587L144.913,9.133z"/>
					<path d="M169.895,16.602c5.829,0.238,8.744,2.424,8.744,6.558v14.066l-6.192,0.079l-0.213-1.883
						c-1.275,1.084-2.968,1.625-5.076,1.625c-0.903,0-1.878-0.105-2.923-0.316c-3.136-0.582-4.704-2.391-4.704-5.429
						c0-0.37,0.026-0.766,0.08-1.188c0.354-3.131,3.339-4.695,8.956-4.695c1.08,0,2.268,0.06,3.561,0.178v-2.298
						c0-1.862-0.788-2.793-2.365-2.793h-0.105c-0.125-0.013-0.239-0.02-0.346-0.02c-1.719,0-2.578,1.043-2.578,3.13v0.297
						l-6.325-0.396c0-4.608,2.977-6.914,8.93-6.914H169.895z M172.127,32.253v-3.487c-0.762-0.118-1.452-0.178-2.072-0.178
						c-1.612,0-2.711,0.402-3.296,1.208c-0.354,0.489-0.531,0.944-0.531,1.367c0,0.528,0.283,0.997,0.851,1.406
						c0.442,0.317,1.019,0.476,1.728,0.476C169.709,33.045,170.816,32.781,172.127,32.253z"/>
					<path d="M191.634,29.36l6.325,0.297c0,4.769-2.95,7.185-8.85,7.251c-0.071,0.014-0.133,0.02-0.187,0.02
						c-5.616,0-8.425-3.176-8.425-9.529v-0.594c0.178-6.814,3.172-10.256,8.983-10.321h0.213c5.351,0,8.025,2.285,8.025,6.854
						c0,0.264-0.009,0.528-0.026,0.792l-5.714,0.317v-0.476c0-2.403-0.913-3.605-2.737-3.605c-1.86,0-2.791,1.948-2.791,5.845v0.653
						c0.106,4.213,1.046,6.319,2.817,6.319h0.159c1.542-0.092,2.312-0.971,2.312-2.635C191.74,30.192,191.704,29.796,191.634,29.36z
						"/>
					<path d="M208.803,17.177c6.148,0,9.222,3.044,9.222,9.133c0,0.739-0.044,1.532-0.133,2.377h-11.879
						c0,3.395,0.877,5.092,2.631,5.092h0.186c1.542-0.093,2.312-0.971,2.312-2.635c0-0.356-0.036-0.753-0.106-1.188l6.325-0.1
						c0,5.032-2.95,7.581-8.85,7.647c-0.071,0.013-0.133,0.02-0.187,0.02c-5.616,0-8.425-3.177-8.425-9.529v-0.595
						C200.077,20.584,203.045,17.177,208.803,17.177z M205.375,25.041h6.006v-0.475c0-2.404-0.913-3.605-2.737-3.605
						C206.677,20.961,205.587,22.32,205.375,25.041z"/>
					<path d="M227.088,23.318l0.266,14.362l-6.512,0.04c0-6.075-0.274-12.897-0.823-20.465l4.89-0.396l0.266,3.229
						c0.744-1.585,2.48-2.489,5.209-2.714c0.407-0.026,0.798-0.04,1.17-0.04c2.144,0,3.773,0.522,4.89,1.565
						c1.293,1.241,1.948,3.216,1.967,5.923l-5.9,0.437c0.018-0.225,0.026-0.442,0.026-0.654c0-2.113-0.735-3.17-2.205-3.17h-0.106
						C228.522,21.502,227.477,22.129,227.088,23.318z"/>
					<path d="M241.039,18.662c-0.089-0.792-0.133-1.525-0.133-2.199c0-2.363,0.576-4.067,1.728-5.111
						c1.471-1.333,3.349-2.132,5.635-2.396c0.814-0.092,1.611-0.139,2.392-0.139c1.399,0,2.746,0.146,4.04,0.436
						c2.02,0.463,3.543,1.374,4.57,2.734c0.904,1.229,1.355,2.793,1.355,4.695v0.653c-0.124,2.206-0.73,4.032-1.82,5.478
						c-1.09,1.446-2.742,2.493-4.956,3.141l-0.08,3.625l-5.661,0.079l-0.079-6.597c2.87-0.317,4.624-1.255,5.262-2.813
						c0.442-1.083,0.665-2.14,0.665-3.169c0-0.437-0.036-0.865-0.106-1.288c-0.284-1.387-1.436-2.08-3.455-2.08h-0.133
						c-1.772,0.039-2.658,1.241-2.658,3.605c0,0.449,0.027,0.931,0.08,1.446L241.039,18.662z M251.165,37.621
						c-1.063,0-1.976-0.283-2.737-0.852c-0.762-0.567-1.143-1.248-1.143-2.041c0-0.805,0.381-1.492,1.143-2.06
						s1.674-0.853,2.737-0.853c1.08,0,2.002,0.285,2.764,0.853s1.144,1.255,1.144,2.06c0,0.793-0.382,1.474-1.144,2.041
						C253.167,37.338,252.245,37.621,251.165,37.621z"/>
				</g>
			</g>
		</g>
		<g>
			<polygon fill-rule="evenodd" clip-rule="evenodd" fill="#D8904B" points="668.056,51.013 349.978,51.013 317.475,0.45 
				635.552,0.45 			"/>
			<g>
				<g>
					<path d="M370.892,35.699c0.089,0.793,0.133,1.526,0.133,2.199c0,2.364-0.566,4.062-1.7,5.092
						c-1.488,1.348-3.366,2.146-5.635,2.397c-0.833,0.105-1.639,0.158-2.418,0.158c-1.4,0-2.747-0.152-4.04-0.456
						c-2.02-0.449-3.534-1.354-4.544-2.714c-0.922-1.229-1.382-2.793-1.382-4.695c0-0.211,0.008-0.429,0.026-0.653
						c0.106-2.206,0.704-4.031,1.794-5.479c1.09-1.445,2.741-2.492,4.956-3.14l0.08-3.625l5.66-0.079l0.08,6.597
						c-2.87,0.317-4.624,1.255-5.262,2.813c-0.443,1.083-0.665,2.139-0.665,3.17c0,0.436,0.044,0.865,0.133,1.287
						c0.267,1.387,1.409,2.08,3.429,2.08c0.035,0,0.08-0.007,0.133-0.02c1.771-0.026,2.658-1.222,2.658-3.586
						c0-0.449-0.027-0.932-0.08-1.446L370.892,35.699z M360.767,16.74c1.062,0,1.976,0.285,2.737,0.853s1.143,1.248,1.143,2.04
						c0,0.807-0.381,1.493-1.143,2.061c-0.762,0.568-1.675,0.852-2.737,0.852c-1.081,0-2.003-0.283-2.764-0.852
						c-0.763-0.567-1.144-1.254-1.144-2.061c0-0.792,0.381-1.473,1.144-2.04C358.764,17.025,359.686,16.74,360.767,16.74z"/>
					<path d="M393.881,39.107c-0.904-1.018-1.879-2.094-2.924-3.229c-1.56,0.687-3.411,1.03-5.555,1.03
						c-7.99,0-11.985-4.939-11.985-14.818c0-9.166,4.261-13.749,12.783-13.749c7.458,0,11.188,4.762,11.188,14.284
						c0,4.504-0.896,7.943-2.685,10.321c1.027,1.017,2.037,1.987,3.03,2.912L393.881,39.107z M380.885,23.159
						c-0.018,0.344-0.026,0.674-0.026,0.991c0,4.979,1.559,7.469,4.677,7.469c0.443,0,0.859-0.053,1.249-0.159
						c-1.099-1.162-2.259-2.37-3.481-3.625l3.801-3.11c0.957,1.097,1.896,2.159,2.817,3.189c0.39-1.268,0.584-2.853,0.584-4.755
						c0-5.652-1.541-8.479-4.624-8.479C382.78,14.681,381.114,17.507,380.885,23.159z"/>
					<path d="M412.883,37.522l-0.266-3.229c-0.744,1.717-2.747,2.582-6.007,2.596c-0.035,0.014-0.062,0.02-0.079,0.02
						c-3.226,0-5.36-1.083-6.405-3.249c-0.709-1.439-1.063-4.418-1.063-8.935c0-2.324,0.098-5.064,0.293-8.222h6.458
						c-0.354,4.438-0.532,7.853-0.532,10.242c0,1.202,0.045,2.14,0.134,2.813c0.266,2.061,1.16,3.09,2.684,3.09
						s2.48-0.534,2.87-1.604l-0.266-13.749l6.245-0.039c0,5.68,0.275,12.296,0.824,19.851L412.883,37.522z"/>
					<path d="M428.615,17.177c6.148,0,9.222,3.044,9.222,9.133c0,0.739-0.044,1.532-0.133,2.377h-11.879
						c0,3.395,0.877,5.092,2.631,5.092h0.186c1.542-0.093,2.312-0.971,2.312-2.635c0-0.356-0.036-0.753-0.106-1.188l6.325-0.1
						c0,5.032-2.95,7.581-8.85,7.647c-0.071,0.013-0.133,0.02-0.187,0.02c-5.616,0-8.425-3.177-8.425-9.529v-0.595
						C419.89,20.584,422.857,17.177,428.615,17.177z M425.188,25.041h6.006v-0.475c0-2.404-0.913-3.605-2.737-3.605
						C426.489,20.961,425.399,22.32,425.188,25.041z M425.612,13.313c2.073-1.836,3.773-3.586,5.103-5.25l4.358,2.575
						c-1.878,1.374-3.969,3.059-6.271,5.052L425.612,13.313z"/>
					<path d="M454.634,16.661l0.266,3.229c0.744-1.717,2.702-2.588,5.873-2.615h0.106c3.118,0,5.244,0.912,6.379,2.734
						c0.779,1.241,1.169,4.146,1.169,8.717c0,2.245-0.098,4.9-0.292,7.964h-6.432c0.23-4.081,0.346-7.244,0.346-9.489
						c0-1.123-0.026-2.021-0.08-2.694c-0.177-1.981-1.027-2.972-2.551-2.972c-1.524,0-2.481,0.528-2.871,1.585l0.267,14.362
						l-6.246,0.04c0-6.075-0.274-12.897-0.823-20.465L454.634,16.661z"/>
					<path d="M479.988,17.177c6.023,0,9.036,3.117,9.036,9.351c0,0.251-0.01,0.502-0.026,0.753
						c-0.249,6.749-3.455,10.156-9.621,10.223c-0.071,0.013-0.142,0.02-0.213,0.02c-5.864,0-8.797-3.189-8.797-9.569v-0.555
						C470.545,20.584,473.752,17.177,479.988,17.177z M479.111,21.693c-1.116,0.291-1.878,1.367-2.286,3.229
						c-0.248,1.109-0.372,2.226-0.372,3.348c0,0.753,0.054,1.513,0.16,2.278c0.283,1.902,1.195,2.886,2.737,2.952h0.186
						c1.436,0,2.419-0.706,2.95-2.12c0.442-1.176,0.664-2.568,0.664-4.18c0-0.396-0.009-0.799-0.026-1.209
						c-0.142-2.126-0.567-3.453-1.275-3.981c-0.443-0.317-0.975-0.476-1.595-0.476C479.899,21.535,479.519,21.588,479.111,21.693z"
						/>
					<path d="M506.725,9.133l0.266,11.154c0.744-1.717,2.48-2.589,5.209-2.615h0.079c2.693,0,4.606,0.911,5.741,2.734
						c0.779,1.241,1.169,4.146,1.169,8.717c0,2.245-0.098,4.899-0.292,7.964h-6.697c0.229-4.081,0.345-7.244,0.345-9.489
						c0-1.123-0.026-2.021-0.079-2.695c-0.178-1.98-0.939-2.971-2.286-2.971s-2.215,0.527-2.604,1.584l0.267,14.363l-6.512,0.04
						c0-6.075-0.363-15.604-1.09-28.587L506.725,9.133z"/>
					<path d="M531.705,16.602c5.829,0.238,8.744,2.424,8.744,6.558v14.066l-6.192,0.079l-0.213-1.883
						c-1.275,1.084-2.968,1.625-5.076,1.625c-0.903,0-1.878-0.105-2.923-0.316c-3.136-0.582-4.704-2.391-4.704-5.429
						c0-0.37,0.026-0.766,0.08-1.188c0.354-3.131,3.339-4.695,8.956-4.695c1.08,0,2.268,0.06,3.561,0.178v-2.298
						c0-1.862-0.788-2.793-2.365-2.793h-0.105c-0.125-0.013-0.239-0.02-0.346-0.02c-1.719,0-2.578,1.043-2.578,3.13v0.297
						l-6.325-0.396c0-4.608,2.977-6.914,8.93-6.914H531.705z M533.938,32.253v-3.487c-0.762-0.118-1.452-0.178-2.072-0.178
						c-1.612,0-2.711,0.402-3.296,1.208c-0.354,0.489-0.531,0.944-0.531,1.367c0,0.528,0.283,0.997,0.851,1.406
						c0.442,0.317,1.019,0.476,1.728,0.476C531.52,33.045,532.627,32.781,533.938,32.253z"/>
					<path d="M553.444,29.36l6.325,0.297c0,4.769-2.95,7.185-8.85,7.251c-0.071,0.014-0.133,0.02-0.187,0.02
						c-5.616,0-8.425-3.176-8.425-9.529v-0.594c0.178-6.814,3.172-10.256,8.983-10.321h0.213c5.351,0,8.025,2.285,8.025,6.854
						c0,0.264-0.009,0.528-0.026,0.792l-5.714,0.317v-0.476c0-2.403-0.913-3.605-2.737-3.605c-1.86,0-2.791,1.948-2.791,5.845v0.653
						c0.106,4.213,1.046,6.319,2.817,6.319h0.159c1.542-0.092,2.312-0.971,2.312-2.635C553.551,30.192,553.515,29.796,553.444,29.36
						z"/>
					<path d="M570.613,17.177c6.148,0,9.222,3.044,9.222,9.133c0,0.739-0.044,1.532-0.133,2.377h-11.879
						c0,3.395,0.877,5.092,2.631,5.092h0.186c1.542-0.093,2.312-0.971,2.312-2.635c0-0.356-0.036-0.753-0.106-1.188l6.325-0.1
						c0,5.032-2.95,7.581-8.85,7.647c-0.071,0.013-0.133,0.02-0.187,0.02c-5.616,0-8.425-3.177-8.425-9.529v-0.595
						C561.888,20.584,564.855,17.177,570.613,17.177z M567.186,25.041h6.006v-0.475c0-2.404-0.913-3.605-2.737-3.605
						C568.487,20.961,567.397,22.32,567.186,25.041z"/>
					<path d="M588.898,23.318l0.266,14.362l-6.512,0.04c0-6.075-0.274-12.897-0.823-20.465l4.89-0.396l0.266,3.229
						c0.744-1.585,2.48-2.489,5.209-2.714c0.407-0.026,0.798-0.04,1.17-0.04c2.144,0,3.773,0.522,4.89,1.565
						c1.293,1.241,1.948,3.216,1.967,5.923l-5.9,0.437c0.018-0.225,0.026-0.442,0.026-0.654c0-2.113-0.735-3.17-2.205-3.17h-0.106
						C590.333,21.502,589.287,22.129,588.898,23.318z"/>
					<path d="M602.85,18.662c-0.089-0.792-0.133-1.525-0.133-2.199c0-2.363,0.576-4.067,1.728-5.111
						c1.471-1.333,3.349-2.132,5.635-2.396c0.814-0.092,1.611-0.139,2.392-0.139c1.399,0,2.746,0.146,4.04,0.436
						c2.02,0.463,3.543,1.374,4.57,2.734c0.904,1.229,1.355,2.793,1.355,4.695v0.653c-0.124,2.206-0.73,4.032-1.82,5.478
						c-1.09,1.446-2.742,2.493-4.956,3.141l-0.08,3.625l-5.661,0.079l-0.079-6.597c2.87-0.317,4.624-1.255,5.262-2.813
						c0.442-1.083,0.665-2.14,0.665-3.169c0-0.437-0.036-0.865-0.106-1.288c-0.284-1.387-1.436-2.08-3.455-2.08h-0.133
						c-1.772,0.039-2.658,1.241-2.658,3.605c0,0.449,0.027,0.931,0.08,1.446L602.85,18.662z M612.976,37.621
						c-1.063,0-1.976-0.283-2.737-0.852c-0.762-0.567-1.143-1.248-1.143-2.041c0-0.805,0.381-1.492,1.143-2.06
						s1.674-0.853,2.737-0.853c1.08,0,2.002,0.285,2.764,0.853s1.144,1.255,1.144,2.06c0,0.793-0.382,1.474-1.144,2.041
						C614.978,37.338,614.056,37.621,612.976,37.621z"/>
				</g>
			</g>
		</g>
	</g>
	<g>
		<path fill-rule="evenodd" clip-rule="evenodd" fill="#454743" d="M749.135,25.731c0-0.056-0.002-0.11-0.004-0.166
			c-0.018-0.943-0.225-1.871-0.623-2.674c-0.152-0.323-0.33-0.633-0.537-0.92c-0.238-0.324-0.539-0.611-0.889-0.859
			c-1.523-1.257-3.59-1.582-5.713-0.836c-0.984,0.349-1.461,0.297-1.646-0.312c-0.039-0.207-0.057-0.462-0.057-0.775
			c-0.006-2.421,0.021-4.846,0.025-7.27c0.002-0.756-0.02-1.189-0.199-1.439c-0.191-0.42-0.6-0.586-1.279-0.574
			c-2.594,0.043-5.188,0.021-7.781,0.052c-0.139,0.002-0.262,0.007-0.377,0.015c-0.686-0.256-0.736-0.859-0.318-2.043
			c0.91-2.58,0.139-5.271-1.963-6.842c-1.887-1.412-4.77-1.452-6.699-0.094c-2.158,1.52-2.996,4.147-2.16,6.782
			c0.453,1.426,0.43,2.011-0.404,2.218c-2.369-0.016-4.736-0.024-7.104,0.012c-0.271-0.004-0.543-0.01-0.814-0.014
			c-0.215-0.004-0.408,0.008-0.58,0.039c-0.01,0-0.018,0-0.027,0c-0.047,0-0.1,0.018-0.152,0.042
			c-0.508,0.152-0.768,0.544-0.734,1.394c0.004,0.121,0.008,0.244,0.012,0.367c-0.031,1.139,0,2.279,0,3.42
			c0,1.349-0.045,2.698,0.014,4.043c0,0.144-0.002,0.273-0.006,0.39c-0.047,0.56-0.301,0.819-0.73,0.894
			c-0.227-0.005-0.52-0.036-0.908-0.077c-0.328-0.036-0.66-0.045-0.99-0.051c-0.4-0.03-0.797-0.041-1.191-0.022
			c-0.006,0-0.012,0-0.016,0c-0.803,0.043-1.594,0.215-2.361,0.633c-1.553,0.844-2.49,2.681-2.463,4.615c0,0.02,0,0.037,0,0.055
			s0,0.036,0,0.055c-0.027,1.936,0.91,3.772,2.463,4.615c0.768,0.417,1.559,0.59,2.361,0.631c0.004,0.003,0.01,0.003,0.016,0.003
			c0.395,0.02,0.791,0.008,1.191-0.022c0.33-0.005,0.662-0.016,0.99-0.051c0.389-0.042,0.682-0.074,0.908-0.077
			c0.43,0.074,0.684,0.334,0.73,0.894c0.004,0.115,0.006,0.246,0.006,0.39c-0.059,1.345-0.014,2.694-0.014,4.042
			c0,1.142-0.031,2.283,0,3.42c-0.004,0.123-0.008,0.245-0.012,0.367c-0.033,0.848,0.227,1.242,0.734,1.396
			c0.053,0.024,0.105,0.038,0.152,0.04c0.01,0,0.018,0,0.027,0c0.172,0.031,0.365,0.044,0.58,0.039
			c0.271-0.004,0.543-0.01,0.814-0.013c2.367,0.034,4.734,0.026,7.104,0.012c0.834,0.206,0.857,0.792,0.404,2.218
			c-0.836,2.636,0.002,5.262,2.16,6.782c1.93,1.358,4.812,1.318,6.699-0.094c2.102-1.571,2.873-4.263,1.963-6.842
			c-0.418-1.184-0.367-1.788,0.318-2.045c0.115,0.009,0.238,0.015,0.377,0.017c2.594,0.031,5.188,0.008,7.781,0.049
			c0.68,0.013,1.088-0.151,1.279-0.571c0.18-0.251,0.201-0.684,0.199-1.44c-0.004-2.423-0.031-4.848-0.025-7.271
			c0-0.311,0.018-0.565,0.057-0.775c0.186-0.606,0.662-0.658,1.646-0.31c2.123,0.745,4.189,0.421,5.713-0.836
			c0.35-0.248,0.65-0.536,0.889-0.86c0.207-0.286,0.385-0.596,0.537-0.919c0.398-0.804,0.605-1.73,0.623-2.675
			C749.133,25.843,749.135,25.786,749.135,25.731z"/>
		<path fill="#FFFFFF" d="M715.961,26.245c0.307,5.348,4.891,9.436,10.238,9.132c5.352-0.309,9.439-4.892,9.135-10.241
			c-0.307-5.35-4.893-9.438-10.244-9.131C719.74,16.31,715.654,20.896,715.961,26.245z M724.572,25.752l-3.832-3.417
			c-0.312-0.283-0.34-0.759-0.061-1.074c0.281-0.304,0.76-0.334,1.07-0.06l3.834,3.413l3.418-3.83
			c0.279-0.312,0.76-0.331,1.064-0.062c0.316,0.282,0.35,0.759,0.07,1.073l-3.416,3.834l3.83,3.416
			c0.309,0.281,0.336,0.76,0.062,1.074c-0.281,0.312-0.76,0.34-1.074,0.061l-3.834-3.418l-3.418,3.832
			c-0.277,0.315-0.756,0.342-1.07,0.063c-0.312-0.281-0.34-0.761-0.062-1.075L724.572,25.752z"/>
	</g>
</g>
</svg>
