<?xml version="1.0" encoding="utf-8"?>
<!-- Generator: Adobe Illustrator 16.0.0, SVG Export Plug-In . SVG Version: 6.00 Build 0)  -->
<!DOCTYPE svg PUBLIC "-//W3C//DTD SVG 1.1//EN" "http://www.w3.org/Graphics/SVG/1.1/DTD/svg11.dtd">
<svg version="1.1" id="Capa_1" xmlns="http://www.w3.org/2000/svg" xmlns:xlink="http://www.w3.org/1999/xlink" x="0px" y="0px"
	 width="192.652px" height="330.033px" viewBox="0 0 192.652 330.033" enable-background="new 0 0 192.652 330.033"
	 xml:space="preserve">
<g>
	<path fill-rule="evenodd" clip-rule="evenodd" fill="#2B1C48" d="M178.97,15.391c0,6.918-6.244,12.525-13.945,12.525h-9.379
		c-7.701,0-43.281-5.607-43.281-12.525v-1.574c0-6.918,6.242-12.527,13.941-12.527h38.719c7.701,0,13.945,5.609,13.945,12.527
		V15.391z"/>
	<g>
		<path fill="#FFFFFF" d="M159.041,19.75c0-3.43,0-6.861,0-10.289c0.02-0.039,0.047-0.078,0.055-0.119
			c0.219-1.363,1.371-2.389,2.762-2.393c3.236-0.02,6.471-0.02,9.705,0c1.537,0.008,2.795,1.264,2.803,2.801
			c0.018,3.236,0.012,6.471,0,9.703c-0.002,0.703-0.254,1.322-0.732,1.854c-0.482,0.539-1.09,0.824-1.781,0.965
			c-3.43,0-6.859,0-10.289,0c-0.541-0.123-1.051-0.303-1.486-0.674C159.5,21.107,159.183,20.48,159.041,19.75z M166.707,19.736
			c1.523,0,3.043,0,4.564-0.002c0.455,0,0.562-0.105,0.562-0.557c0.004-3.043,0.004-6.086,0-9.127c0-0.469-0.104-0.572-0.582-0.572
			c-3.031-0.002-6.061-0.002-9.092,0c-0.475,0-0.58,0.104-0.58,0.574c-0.002,3.029-0.002,6.061,0,9.092c0,0.492,0.1,0.59,0.6,0.59
			C163.689,19.736,165.197,19.736,166.707,19.736z"/>
		<path fill-rule="evenodd" clip-rule="evenodd" fill="#FFFFFF" d="M166.732,12.053c1.02,0,2.041,0,3.062-0.004
			c0.281,0,0.512,0.067,0.658,0.328c0.156,0.275,0.088,0.512-0.084,0.752c-1.039,1.443-2.07,2.895-3.109,4.34
			c-0.324,0.453-0.787,0.445-1.117-0.012c-1.029-1.436-2.055-2.879-3.086-4.312c-0.172-0.236-0.26-0.473-0.105-0.754
			c0.148-0.274,0.391-0.344,0.684-0.342C164.666,12.055,165.699,12.053,166.732,12.053z"/>
	</g>
	<polygon fill="#ABC02F" points="192.431,277.256 51.818,284.025 27.582,330.033 180.939,326.545 182.068,321.717 	"/>
	<polygon fill="#2B1C48" points="192.652,277.092 52.072,284.535 23.32,241.203 176.248,229.213 177.859,233.904 	"/>
	<polygon fill="#2B1C48" points="8.039,192.672 148.683,186.553 173.13,140.658 19.759,143.436 18.607,148.26 	"/>
	<polygon fill="#ABC02F" points="7.816,192.834 148.431,186.043 176.982,229.506 24,240.791 22.41,236.092 	"/>
	<polygon fill="#ABC02F" points="184.615,91.215 44,97.984 19.763,143.994 173.123,140.504 174.251,135.676 	"/>
	<polygon fill="#2B1C48" points="184.835,91.053 44.253,98.494 15.503,55.162 168.431,43.17 170.042,47.863 	"/>
	<polygon fill="#ABC02F" points="0,6.791 140.615,0 169.166,43.465 16.183,54.748 14.593,50.051 	"/>
	<g>
		<path fill-rule="evenodd" clip-rule="evenodd" fill="#FFFFFF" d="M114.519,13.418c-0.1-0.072-0.26-0.107-0.482-0.107h-0.447v0.914
			h0.447c0.223,0,0.375-0.039,0.477-0.113c0.113-0.074,0.158-0.189,0.158-0.35C114.671,13.607,114.626,13.494,114.519,13.418z
			 M114.519,13.418c-0.1-0.072-0.26-0.107-0.482-0.107h-0.447v0.914h0.447c0.223,0,0.375-0.039,0.477-0.113
			c0.113-0.074,0.158-0.189,0.158-0.35C114.671,13.607,114.626,13.494,114.519,13.418z M114.519,13.418
			c-0.1-0.072-0.26-0.107-0.482-0.107h-0.447v0.914h0.447c0.223,0,0.375-0.039,0.477-0.113c0.113-0.074,0.158-0.189,0.158-0.35
			C114.671,13.607,114.626,13.494,114.519,13.418z M118.5,13.578c-0.189-0.172-0.488-0.26-0.902-0.26h-0.359v2.162h0.359
			c0.414,0,0.719-0.088,0.902-0.254c0.18-0.166,0.275-0.443,0.275-0.822C118.775,14.023,118.679,13.75,118.5,13.578z
			 M114.519,13.418c-0.1-0.072-0.26-0.107-0.482-0.107h-0.447v0.914h0.447c0.223,0,0.375-0.039,0.477-0.113
			c0.113-0.074,0.158-0.189,0.158-0.35C114.671,13.607,114.626,13.494,114.519,13.418z M118.5,13.578
			c-0.189-0.172-0.488-0.26-0.902-0.26h-0.359v2.162h0.359c0.414,0,0.719-0.088,0.902-0.254c0.18-0.166,0.275-0.443,0.275-0.822
			C118.775,14.023,118.679,13.75,118.5,13.578z M131.578,9.195h-20.791c-0.92,0-1.664,0.709-1.664,1.582v25.439
			c0,0.875,0.744,1.584,1.664,1.584H120l-0.609-0.699h-6.654c-0.914,0-1.66-0.709-1.66-1.586V19.197h20.467v16.318
			c0,0.877-0.738,1.586-1.66,1.586h-0.938l-0.557,0.699h3.189c0.92,0,1.658-0.709,1.658-1.584V10.777
			C133.236,9.904,132.498,9.195,131.578,9.195z M115.335,14.609c-0.242,0.199-0.58,0.299-1.016,0.299h-0.73v1.234h-1.012v-3.479
			h1.674c0.471,0,0.836,0.096,1.078,0.281c0.248,0.189,0.367,0.464,0.367,0.828C115.697,14.131,115.578,14.408,115.335,14.609z
			 M119.292,15.711c-0.354,0.287-0.885,0.432-1.596,0.432h-1.475v-3.479h1.475c0.711,0,1.242,0.146,1.596,0.432
			c0.355,0.295,0.529,0.729,0.529,1.309C119.822,14.986,119.648,15.42,119.292,15.711z M122.98,13.326h-1.553v0.809h1.439v0.656
			h-1.439v1.352h-1.012v-3.479h2.564V13.326z M117.597,13.318h-0.359v2.162h0.359c0.414,0,0.719-0.088,0.902-0.254
			c0.18-0.166,0.275-0.443,0.275-0.822c0-0.381-0.096-0.654-0.275-0.826C118.31,13.406,118.011,13.318,117.597,13.318z
			 M114.519,13.418c-0.1-0.072-0.26-0.107-0.482-0.107h-0.447v0.914h0.447c0.223,0,0.375-0.039,0.477-0.113
			c0.113-0.074,0.158-0.189,0.158-0.35C114.671,13.607,114.626,13.494,114.519,13.418z M118.5,13.578
			c-0.189-0.172-0.488-0.26-0.902-0.26h-0.359v2.162h0.359c0.414,0,0.719-0.088,0.902-0.254c0.18-0.166,0.275-0.443,0.275-0.822
			C118.775,14.023,118.679,13.75,118.5,13.578z M114.519,13.418c-0.1-0.072-0.26-0.107-0.482-0.107h-0.447v0.914h0.447
			c0.223,0,0.375-0.039,0.477-0.113c0.113-0.074,0.158-0.189,0.158-0.35C114.671,13.607,114.626,13.494,114.519,13.418z
			 M118.5,13.578c-0.189-0.172-0.488-0.26-0.902-0.26h-0.359v2.162h0.359c0.414,0,0.719-0.088,0.902-0.254
			c0.18-0.166,0.275-0.443,0.275-0.822C118.775,14.023,118.679,13.75,118.5,13.578z M114.519,13.418
			c-0.1-0.072-0.26-0.107-0.482-0.107h-0.447v0.914h0.447c0.223,0,0.375-0.039,0.477-0.113c0.113-0.074,0.158-0.189,0.158-0.35
			C114.671,13.607,114.626,13.494,114.519,13.418z"/>
		<polygon fill-rule="evenodd" clip-rule="evenodd" fill="#FFFFFF" points="119.162,35.284 124.269,41.195 129.003,35.284 
			126.66,35.284 126.656,33.846 121.732,33.846 121.75,35.284 		"/>
		<path fill-rule="evenodd" clip-rule="evenodd" fill="#FFFFFF" d="M126.642,32.4c0,0.209-0.18,0.384-0.402,0.384h-3.984
			c-0.223,0-0.408-0.175-0.408-0.384l0,0c0-0.215,0.186-0.387,0.408-0.387h3.984C126.462,32.014,126.642,32.186,126.642,32.4
			L126.642,32.4z"/>
		<path fill-rule="evenodd" clip-rule="evenodd" fill="#FFFFFF" d="M126.642,30.844c0,0.234-0.197,0.428-0.447,0.428h-3.9
			c-0.246,0-0.447-0.193-0.447-0.428l0,0c0-0.236,0.201-0.424,0.447-0.424h3.9C126.445,30.42,126.642,30.607,126.642,30.844
			L126.642,30.844z"/>
	</g>
	<g>
		<path fill="#FFFFFF" d="M28.023,22.004h-2.98v-9.4h2.635c0.926,0,1.621,0.064,2.084,0.191c0.457,0.123,0.879,0.33,1.244,0.621
			c0.529,0.416,0.93,0.971,1.213,1.658s0.42,1.477,0.42,2.361c0,0.711-0.098,1.377-0.301,1.973s-0.484,1.098-0.854,1.49
			c-0.391,0.398-0.832,0.68-1.348,0.85C29.63,21.92,28.921,22.004,28.023,22.004z M28.304,20.883c1.008,0,1.762-0.287,2.266-0.861
			c0.504-0.572,0.752-1.436,0.752-2.586c0-1.217-0.279-2.158-0.834-2.814c-0.561-0.654-1.363-0.984-2.402-0.984h-1.783v7.246H28.304
			z"/>
		<path fill="#FFFFFF" d="M39.732,19.9c0,0.682-0.248,1.229-0.73,1.643c-0.479,0.416-1.121,0.625-1.912,0.625
			c-1.018,0-1.793-0.283-2.32-0.846c-0.525-0.561-0.789-1.379-0.789-2.461c0-1.156,0.258-2.035,0.775-2.648
			c0.52-0.613,1.27-0.918,2.236-0.918c0.889,0,1.588,0.256,2.096,0.758c0.512,0.51,0.771,1.205,0.771,2.08
			c0,0.209-0.004,0.373-0.016,0.482c0,0.111-0.01,0.209-0.016,0.311h-4.643v0.131v0.262c0,0.617,0.158,1.098,0.479,1.436
			c0.318,0.338,0.764,0.504,1.346,0.504c0.482,0,0.865-0.117,1.146-0.363c0.285-0.246,0.43-0.572,0.434-0.994H39.732z
			 M35.246,18.078h3.381v-0.145c0-0.547-0.146-0.98-0.449-1.317c-0.301-0.332-0.689-0.501-1.168-0.501
			c-0.518,0-0.941,0.182-1.268,0.543C35.414,17.02,35.246,17.496,35.246,18.078z"/>
		<path fill="#FFFFFF" d="M41.052,20.033h1.209v0.029c0,0.355,0.129,0.643,0.385,0.859c0.25,0.219,0.586,0.322,1.008,0.322
			c0.406,0,0.734-0.092,0.992-0.287c0.248-0.191,0.377-0.438,0.377-0.738c0-0.23-0.062-0.416-0.193-0.555
			c-0.129-0.143-0.328-0.24-0.596-0.309l-1.391-0.328c-0.588-0.135-1.025-0.346-1.311-0.627c-0.285-0.285-0.428-0.646-0.428-1.078
			c0-0.602,0.238-1.086,0.727-1.457c0.49-0.365,1.129-0.557,1.928-0.557c0.732,0,1.312,0.156,1.73,0.461
			c0.432,0.309,0.641,0.73,0.641,1.264c0,0.051,0,0.092,0,0.119c0,0.025-0.012,0.055-0.012,0.076h-1.207v-0.055
			c0-0.311-0.104-0.566-0.334-0.742c-0.219-0.182-0.525-0.277-0.91-0.277c-0.383,0-0.689,0.096-0.938,0.277
			c-0.246,0.176-0.369,0.404-0.369,0.678c0,0.217,0.072,0.387,0.221,0.516s0.396,0.24,0.738,0.334l1.494,0.406
			c0.512,0.135,0.893,0.354,1.143,0.645c0.248,0.281,0.365,0.654,0.365,1.117c0,0.621-0.234,1.113-0.705,1.482
			c-0.473,0.371-1.107,0.559-1.912,0.559c-0.914,0-1.584-0.164-2.01-0.482c-0.43-0.32-0.643-0.819-0.643-1.498V20.033z"/>
		<path fill="#FFFFFF" d="M53.023,19.803c-0.055,0.766-0.299,1.346-0.73,1.754c-0.443,0.404-1.053,0.611-1.828,0.611
			c-0.928,0-1.646-0.287-2.154-0.859c-0.506-0.572-0.762-1.385-0.762-2.443c0-1.121,0.27-1.996,0.797-2.629
			c0.531-0.629,1.264-0.941,2.213-0.941c0.73,0,1.316,0.205,1.752,0.598c0.441,0.396,0.658,0.93,0.658,1.596v0.023h-1.176
			c0-0.387-0.127-0.717-0.377-0.975c-0.258-0.266-0.576-0.395-0.951-0.395c-0.508,0-0.918,0.221-1.213,0.652
			c-0.299,0.438-0.443,1.033-0.443,1.787c0,0.879,0.137,1.545,0.406,1.992c0.283,0.447,0.689,0.67,1.225,0.67
			c0.422,0,0.758-0.129,1.01-0.389c0.262-0.262,0.389-0.615,0.4-1.053H53.023z"/>
		<path fill="#FFFFFF" d="M59.707,22.004h-1.082c-0.045-0.135-0.09-0.463-0.129-0.994v-0.037c-0.164,0.387-0.426,0.684-0.789,0.887
			c-0.359,0.203-0.795,0.309-1.312,0.309c-0.67,0-1.193-0.18-1.596-0.543c-0.396-0.365-0.6-0.841-0.6-1.438
			c0-0.693,0.275-1.238,0.83-1.646c0.553-0.408,1.307-0.607,2.264-0.607h1.131v-0.797c0-0.348-0.098-0.617-0.324-0.799
			c-0.215-0.184-0.537-0.271-0.965-0.271c-0.4,0-0.721,0.1-0.957,0.299c-0.238,0.197-0.355,0.471-0.373,0.822h-1.158v-0.104
			c0-0.574,0.207-1.018,0.617-1.326c0.416-0.311,1.014-0.463,1.791-0.463c0.904,0,1.562,0.162,1.973,0.479
			c0.406,0.324,0.617,0.843,0.617,1.561v4.047c0,0.055,0.006,0.135,0.012,0.254C59.671,21.744,59.683,21.869,59.707,22.004z
			 M58.423,18.754h-1.008c-0.629,0-1.113,0.121-1.457,0.35c-0.344,0.23-0.514,0.555-0.514,0.971c0,0.318,0.115,0.585,0.348,0.792
			c0.23,0.212,0.529,0.317,0.885,0.317c0.564,0,0.994-0.152,1.305-0.455c0.301-0.301,0.441-0.742,0.441-1.322V18.754z"/>
		<path fill="#FFFFFF" d="M61.585,22.004v-5.521c0-0.211-0.002-0.4-0.008-0.559c-0.008-0.154-0.018-0.312-0.035-0.467h1.217
			l0.023,1.25c0.121-0.41,0.332-0.727,0.641-0.938c0.309-0.213,0.711-0.312,1.203-0.312c0.086,0,0.172,0.004,0.258,0.01
			c0.08,0.004,0.162,0.016,0.238,0.033v1.133c-0.129-0.029-0.25-0.051-0.363-0.064c-0.107-0.01-0.211-0.018-0.295-0.018
			c-0.537,0-0.953,0.149-1.246,0.459c-0.285,0.305-0.436,0.744-0.436,1.312v3.682H61.585z"/>
		<path fill="#FFFFFF" d="M70.876,20.762c-0.127,0.26-0.379,0.479-0.756,0.67c-0.379,0.184-0.777,0.277-1.186,0.277
			c-0.926,0-1.633-0.273-2.121-0.826c-0.498-0.549-0.74-1.34-0.74-2.377c0-0.975,0.248-1.756,0.758-2.33
			c0.502-0.58,1.18-0.867,2.037-0.867c0.508,0,0.936,0.078,1.285,0.242c0.346,0.156,0.619,0.395,0.811,0.713l0.047-0.807h1.137
			c-0.018,0.184-0.033,0.367-0.039,0.547c-0.012,0.176-0.016,0.385-0.016,0.612v5.179c0,0.977-0.24,1.693-0.729,2.135
			c-0.488,0.451-1.26,0.678-2.318,0.678c-0.916,0-1.584-0.182-2.006-0.525c-0.418-0.354-0.633-0.908-0.639-1.668h1.305
			c0.004,0.436,0.131,0.766,0.379,0.994c0.246,0.229,0.613,0.346,1.086,0.346c0.58,0,1.008-0.143,1.287-0.43
			c0.281-0.285,0.418-0.729,0.418-1.33V20.762z M71.023,18.443c0-0.703-0.168-1.27-0.504-1.686c-0.34-0.42-0.791-0.633-1.348-0.633
			c-0.562,0-1.004,0.23-1.334,0.678c-0.334,0.455-0.5,1.066-0.5,1.84c0,0.707,0.174,1.266,0.51,1.684
			c0.33,0.412,0.777,0.623,1.348,0.623c0.553,0,0.994-0.225,1.33-0.674C70.859,19.824,71.023,19.217,71.023,18.443z"/>
		<path fill="#FFFFFF" d="M79.201,22.004h-1.082c-0.039-0.135-0.082-0.463-0.129-0.994v-0.037c-0.166,0.387-0.426,0.684-0.787,0.887
			c-0.359,0.203-0.797,0.309-1.316,0.309c-0.664,0-1.193-0.18-1.59-0.543c-0.402-0.365-0.604-0.841-0.604-1.438
			c0-0.693,0.281-1.238,0.83-1.646c0.553-0.408,1.303-0.607,2.266-0.607h1.139v-0.797c0-0.348-0.113-0.617-0.332-0.799
			c-0.219-0.184-0.535-0.271-0.961-0.271c-0.404,0-0.729,0.1-0.967,0.299c-0.234,0.197-0.355,0.471-0.371,0.822h-1.15v-0.104
			c0-0.574,0.201-1.018,0.615-1.326c0.416-0.311,1.014-0.463,1.785-0.463c0.904,0,1.564,0.162,1.979,0.479
			c0.41,0.324,0.611,0.843,0.611,1.561v4.047c0,0.055,0.01,0.135,0.016,0.254C79.162,21.744,79.177,21.869,79.201,22.004z
			 M77.927,18.754h-1.021c-0.623,0-1.113,0.121-1.449,0.35c-0.348,0.23-0.52,0.555-0.52,0.971c0,0.318,0.115,0.585,0.354,0.792
			c0.234,0.212,0.527,0.317,0.881,0.317c0.568,0,1-0.152,1.301-0.455c0.305-0.301,0.455-0.742,0.455-1.322V18.754z"/>
		<path fill="#FFFFFF" d="M81.085,22.004v-5.521c0-0.211-0.006-0.4-0.016-0.559c-0.006-0.154-0.016-0.312-0.027-0.467h1.213
			l0.02,1.25c0.123-0.41,0.336-0.727,0.643-0.938c0.311-0.213,0.713-0.312,1.203-0.312c0.09,0,0.172,0.004,0.256,0.01
			c0.084,0.004,0.16,0.016,0.24,0.033v1.133c-0.135-0.029-0.254-0.051-0.365-0.064c-0.105-0.01-0.205-0.018-0.291-0.018
			c-0.539,0-0.955,0.149-1.246,0.459c-0.293,0.305-0.439,0.744-0.439,1.312v3.682H81.085z"/>
		<path fill="#FFFFFF" d="M43.484,33.789v-8.875h3.094c0.969,0,1.695,0.202,2.174,0.605c0.477,0.412,0.713,1.021,0.713,1.836
			c0,0.873-0.277,1.516-0.83,1.929c-0.562,0.407-1.439,0.614-2.639,0.614h-1.328v3.891H43.484z M46.38,28.799
			c0.656,0,1.125-0.111,1.41-0.332c0.281-0.226,0.422-0.586,0.422-1.084c0-0.518-0.137-0.889-0.42-1.111
			c-0.281-0.219-0.75-0.334-1.412-0.334h-1.713v2.861H46.38z"/>
		<path fill="#FFFFFF" d="M53.722,33.789h-2.809v-8.875h2.488c0.869,0,1.521,0.061,1.963,0.182c0.432,0.115,0.828,0.312,1.174,0.584
			c0.5,0.395,0.879,0.916,1.141,1.568c0.271,0.646,0.402,1.393,0.402,2.227c0,0.672-0.096,1.297-0.289,1.861
			c-0.186,0.566-0.455,1.033-0.805,1.404c-0.363,0.375-0.785,0.646-1.27,0.803C55.244,33.707,54.574,33.789,53.722,33.789z
			 M53.992,32.727c0.949,0,1.662-0.27,2.133-0.811c0.479-0.541,0.711-1.352,0.711-2.441c0-1.15-0.262-2.037-0.787-2.658
			c-0.529-0.616-1.287-0.928-2.266-0.928h-1.686v6.838H53.992z"/>
		<path fill="#FFFFFF" d="M59.751,33.789v-8.875h5.162v1.068h-3.977V28.7h3.766v1.058h-3.766v4.031H59.751z"/>
	</g>
	<g>
		<path fill="#FFFFFF" d="M56.722,118.659v-1.149l4.152-0.004v3.633c-0.635,0.508-1.291,0.891-1.973,1.146
			c-0.674,0.259-1.371,0.384-2.082,0.384c-0.965,0-1.838-0.205-2.623-0.615c-0.789-0.416-1.381-1.01-1.783-1.789
			s-0.6-1.65-0.6-2.613c0-0.953,0.197-1.844,0.598-2.672c0.398-0.826,0.973-1.439,1.719-1.842c0.75-0.4,1.611-0.598,2.588-0.598
			c0.709,0,1.35,0.111,1.92,0.344c0.576,0.229,1.023,0.549,1.35,0.957c0.324,0.41,0.572,0.944,0.74,1.605l-1.17,0.32
			c-0.146-0.5-0.328-0.891-0.547-1.176c-0.221-0.287-0.533-0.516-0.936-0.686c-0.406-0.174-0.854-0.258-1.354-0.258
			c-0.588,0-1.1,0.09-1.531,0.271c-0.436,0.18-0.783,0.418-1.051,0.711c-0.266,0.295-0.469,0.617-0.615,0.971
			c-0.252,0.604-0.375,1.264-0.375,1.969c0,0.877,0.152,1.607,0.453,2.193c0.299,0.59,0.734,1.025,1.312,1.312
			c0.572,0.283,1.184,0.428,1.83,0.428c0.562,0,1.109-0.111,1.643-0.326c0.535-0.217,0.943-0.447,1.219-0.689v-1.827H56.722z"/>
		<path fill="#FFFFFF" d="M62.605,122.504v-9.797h1.205v9.797H62.605z"/>
		<path fill="#FFFFFF" d="M65.224,118.955c0-1.316,0.365-2.289,1.102-2.922c0.609-0.525,1.352-0.787,2.229-0.787
			c0.977,0,1.773,0.318,2.395,0.957c0.619,0.641,0.928,1.523,0.928,2.65c0,0.912-0.135,1.633-0.412,2.154
			c-0.271,0.525-0.674,0.932-1.195,1.221c-0.523,0.291-1.096,0.436-1.715,0.436c-0.992,0-1.795-0.318-2.408-0.957
			C65.533,121.07,65.224,120.152,65.224,118.955z M66.464,118.955c0,0.908,0.199,1.588,0.596,2.041
			c0.395,0.451,0.896,0.68,1.494,0.68c0.6,0,1.096-0.23,1.49-0.686c0.396-0.456,0.594-1.146,0.594-2.078
			c0-0.878-0.197-1.541-0.594-1.992c-0.398-0.451-0.896-0.682-1.49-0.682c-0.598,0-1.1,0.227-1.494,0.676
			C66.664,117.365,66.464,118.045,66.464,118.955z"/>
		<path fill="#FFFFFF" d="M72.802,120.385l1.193-0.188c0.068,0.477,0.254,0.842,0.557,1.096c0.309,0.254,0.736,0.383,1.283,0.383
			c0.551,0,0.961-0.115,1.229-0.34c0.266-0.225,0.4-0.488,0.4-0.793c0-0.271-0.119-0.484-0.352-0.641
			c-0.166-0.109-0.576-0.244-1.232-0.408c-0.881-0.223-1.494-0.416-1.834-0.576c-0.34-0.164-0.6-0.389-0.775-0.678
			c-0.178-0.281-0.266-0.604-0.266-0.953c0-0.316,0.074-0.605,0.217-0.878c0.148-0.271,0.344-0.491,0.594-0.669
			c0.186-0.139,0.443-0.256,0.766-0.355c0.324-0.092,0.668-0.139,1.039-0.139c0.557,0,1.049,0.076,1.467,0.238
			s0.732,0.379,0.932,0.652c0.199,0.272,0.338,0.641,0.414,1.102l-1.178,0.158c-0.051-0.363-0.207-0.65-0.461-0.857
			c-0.258-0.201-0.617-0.305-1.088-0.305c-0.553,0-0.947,0.092-1.184,0.273c-0.232,0.182-0.352,0.395-0.352,0.639
			c0,0.158,0.051,0.299,0.145,0.422c0.1,0.129,0.252,0.238,0.463,0.32c0.121,0.047,0.477,0.15,1.064,0.311
			c0.848,0.229,1.445,0.414,1.779,0.557c0.336,0.146,0.602,0.355,0.795,0.631c0.188,0.279,0.285,0.621,0.285,1.033
			c0,0.398-0.119,0.777-0.354,1.131s-0.57,0.627-1.012,0.82c-0.441,0.195-0.941,0.293-1.494,0.293c-0.926,0-1.629-0.195-2.109-0.576
			C73.248,121.707,72.939,121.137,72.802,120.385z"/>
		<path fill="#FFFFFF" d="M84.763,121.627c-0.445,0.379-0.877,0.646-1.289,0.805c-0.408,0.152-0.852,0.232-1.322,0.232
			c-0.779,0-1.381-0.191-1.799-0.572c-0.424-0.381-0.631-0.869-0.631-1.461c0-0.347,0.076-0.664,0.238-0.953
			c0.158-0.285,0.367-0.519,0.623-0.688c0.256-0.176,0.545-0.309,0.863-0.396c0.24-0.062,0.594-0.125,1.068-0.182
			c0.973-0.115,1.691-0.254,2.15-0.414c0.004-0.164,0.004-0.27,0.004-0.314c0-0.49-0.111-0.832-0.342-1.035
			c-0.307-0.271-0.762-0.41-1.367-0.41c-0.57,0-0.986,0.1-1.254,0.296c-0.27,0.202-0.473,0.552-0.6,1.056l-1.178-0.16
			c0.109-0.504,0.285-0.91,0.529-1.221c0.25-0.307,0.602-0.55,1.064-0.713c0.465-0.168,1-0.25,1.611-0.25
			c0.605,0,1.096,0.072,1.475,0.213c0.381,0.143,0.66,0.322,0.838,0.537c0.178,0.217,0.303,0.49,0.373,0.818
			c0.041,0.207,0.059,0.578,0.059,1.109v1.605c0,1.119,0.027,1.826,0.078,2.119c0.049,0.299,0.154,0.582,0.303,0.855h-1.254
			C84.878,122.254,84.796,121.961,84.763,121.627z M84.666,118.939c-0.438,0.177-1.092,0.328-1.967,0.455
			c-0.494,0.072-0.844,0.152-1.051,0.242c-0.201,0.086-0.363,0.219-0.477,0.391c-0.109,0.17-0.162,0.359-0.162,0.57
			c0,0.32,0.121,0.588,0.363,0.803s0.596,0.32,1.066,0.32c0.463,0,0.875-0.102,1.232-0.303c0.365-0.207,0.627-0.482,0.797-0.834
			c0.129-0.27,0.197-0.672,0.197-1.201V118.939z"/>
		<path fill="#FFFFFF" d="M87.73,122.504v-7.1h1.084v1.076c0.275-0.504,0.529-0.834,0.764-0.996s0.494-0.238,0.775-0.238
			c0.402,0,0.814,0.129,1.234,0.387l-0.416,1.115c-0.293-0.174-0.588-0.262-0.881-0.262c-0.264,0-0.498,0.08-0.709,0.238
			c-0.209,0.158-0.363,0.377-0.447,0.658c-0.133,0.428-0.201,0.896-0.201,1.401v3.72H87.73z"/>
		<path fill="#FFFFFF" d="M92.31,114.09v-1.383h1.201v1.383H92.31z M92.31,122.504v-7.1h1.201v7.1H92.31z"/>
		<path fill="#FFFFFF" d="M94.896,118.955c0-1.316,0.365-2.289,1.096-2.922c0.611-0.525,1.354-0.787,2.234-0.787
			c0.977,0,1.773,0.318,2.391,0.957c0.619,0.641,0.928,1.523,0.928,2.65c0,0.912-0.135,1.633-0.41,2.154
			c-0.273,0.525-0.672,0.932-1.193,1.221c-0.523,0.291-1.098,0.436-1.715,0.436c-0.996,0-1.803-0.318-2.41-0.957
			C95.203,121.07,94.896,120.152,94.896,118.955z M96.13,118.955c0,0.908,0.199,1.588,0.596,2.041c0.396,0.451,0.896,0.68,1.5,0.68
			c0.594,0,1.092-0.23,1.488-0.686c0.396-0.456,0.596-1.146,0.596-2.078c0-0.878-0.199-1.541-0.6-1.992
			c-0.398-0.451-0.893-0.682-1.484-0.682c-0.604,0-1.104,0.227-1.5,0.676C96.33,117.365,96.13,118.045,96.13,118.955z"/>
	</g>
	<g>
		<path fill="#FFFFFF" d="M28.296,169.402v-8.848h3.32c0.678,0,1.219,0.09,1.627,0.268c0.408,0.182,0.729,0.457,0.959,0.828
			c0.23,0.373,0.346,0.762,0.346,1.168c0,0.379-0.104,0.734-0.305,1.068c-0.207,0.334-0.52,0.604-0.93,0.807
			c0.533,0.158,0.945,0.426,1.232,0.807c0.287,0.375,0.434,0.822,0.434,1.336c0,0.416-0.092,0.801-0.266,1.155
			c-0.172,0.356-0.391,0.632-0.648,0.825c-0.256,0.195-0.578,0.338-0.969,0.439c-0.385,0.098-0.863,0.146-1.426,0.146H28.296z
			 M29.468,164.271h1.912c0.521,0,0.893-0.033,1.119-0.102c0.297-0.086,0.52-0.236,0.672-0.439c0.152-0.207,0.225-0.463,0.225-0.771
			c0-0.293-0.068-0.553-0.209-0.777c-0.141-0.223-0.344-0.377-0.605-0.459c-0.262-0.084-0.709-0.123-1.344-0.123h-1.77V164.271z
			 M29.468,168.357h2.203c0.377,0,0.645-0.014,0.797-0.041c0.268-0.049,0.494-0.129,0.676-0.242s0.328-0.277,0.443-0.49
			c0.119-0.218,0.178-0.465,0.178-0.748c0-0.328-0.086-0.615-0.254-0.861c-0.168-0.24-0.404-0.412-0.703-0.512
			c-0.303-0.097-0.732-0.145-1.295-0.145h-2.045V168.357z"/>
		<path fill="#FFFFFF" d="M36.458,161.805v-1.25h1.088v1.25H36.458z M36.458,169.402v-6.412h1.088v6.412H36.458z"/>
		<path fill="#FFFFFF" d="M40.199,169.402h-1.01v-8.848h1.088v3.156c0.457-0.574,1.045-0.863,1.756-0.863
			c0.395,0,0.77,0.08,1.123,0.238c0.35,0.16,0.639,0.385,0.867,0.67c0.225,0.289,0.404,0.633,0.529,1.043
			c0.131,0.404,0.195,0.84,0.195,1.305c0,1.096-0.275,1.943-0.812,2.543c-0.547,0.604-1.197,0.9-1.957,0.9
			c-0.756,0-1.352-0.316-1.779-0.947V169.402z M40.187,166.148c0,0.77,0.105,1.324,0.314,1.666c0.342,0.561,0.801,0.838,1.385,0.838
			c0.477,0,0.887-0.205,1.232-0.617s0.518-1.027,0.518-1.846c0-0.834-0.164-1.453-0.498-1.85c-0.328-0.4-0.73-0.599-1.201-0.599
			c-0.477,0-0.889,0.208-1.232,0.62C40.361,164.771,40.187,165.366,40.187,166.148z"/>
		<path fill="#FFFFFF" d="M46.046,169.402v-8.848h1.084v8.848H46.046z"/>
		<path fill="#FFFFFF" d="M48.824,161.805v-1.25h1.084v1.25H48.824z M48.824,169.402v-6.412h1.084v6.412H48.824z"/>
		<path fill="#FFFFFF" d="M51.16,166.199c0-1.188,0.328-2.066,0.986-2.639c0.551-0.475,1.223-0.713,2.016-0.713
			c0.885,0,1.6,0.289,2.16,0.869c0.559,0.574,0.84,1.373,0.84,2.393c0,0.822-0.123,1.471-0.371,1.943s-0.605,0.84-1.08,1.102
			s-0.988,0.393-1.549,0.393c-0.898,0-1.623-0.287-2.176-0.865C51.433,168.107,51.16,167.279,51.16,166.199z M52.273,166.199
			c0,0.818,0.18,1.434,0.537,1.844c0.359,0.407,0.809,0.609,1.352,0.609c0.539,0,0.99-0.205,1.348-0.613
			c0.355-0.412,0.535-1.037,0.535-1.881c0-0.792-0.182-1.389-0.539-1.797c-0.361-0.408-0.807-0.615-1.344-0.615
			c-0.543,0-0.992,0.204-1.352,0.609C52.453,164.764,52.273,165.377,52.273,166.199z"/>
		<path fill="#FFFFFF" d="M58.236,169.934l1.055,0.158c0.045,0.322,0.166,0.562,0.369,0.711c0.268,0.201,0.637,0.301,1.104,0.301
			c0.498,0,0.891-0.1,1.164-0.301c0.273-0.203,0.459-0.482,0.557-0.844c0.057-0.225,0.082-0.688,0.078-1.396
			c-0.475,0.561-1.068,0.84-1.773,0.84c-0.881,0-1.566-0.318-2.047-0.955c-0.482-0.633-0.723-1.396-0.723-2.289
			c0-0.609,0.109-1.17,0.328-1.689c0.225-0.516,0.547-0.916,0.965-1.197c0.42-0.281,0.918-0.424,1.482-0.424
			c0.754,0,1.377,0.307,1.867,0.916v-0.773h1.004v5.545c0,0.994-0.1,1.703-0.305,2.119c-0.201,0.418-0.523,0.744-0.963,0.984
			c-0.441,0.246-0.984,0.365-1.629,0.365c-0.764,0-1.383-0.174-1.852-0.518C58.447,171.143,58.218,170.627,58.236,169.934z
			 M59.136,166.084c0,0.84,0.16,1.453,0.498,1.84c0.334,0.385,0.752,0.578,1.254,0.578c0.498,0,0.922-0.189,1.258-0.574
			c0.338-0.387,0.506-0.988,0.506-1.812c0-0.78-0.172-1.372-0.521-1.772c-0.35-0.395-0.768-0.598-1.256-0.598
			s-0.895,0.199-1.236,0.59C59.302,164.727,59.136,165.312,59.136,166.084z"/>
		<path fill="#FFFFFF" d="M65.296,169.402v-6.412h0.979v0.975c0.248-0.455,0.479-0.756,0.689-0.898
			c0.213-0.146,0.445-0.219,0.697-0.219c0.367,0,0.738,0.119,1.115,0.352l-0.373,1.006c-0.266-0.154-0.529-0.234-0.795-0.234
			c-0.236,0-0.453,0.072-0.641,0.215c-0.191,0.143-0.324,0.342-0.404,0.596c-0.123,0.385-0.184,0.807-0.184,1.266v3.355H65.296z"/>
		<path fill="#FFFFFF" d="M73.607,168.613c-0.404,0.34-0.789,0.58-1.164,0.723c-0.371,0.141-0.771,0.211-1.197,0.211
			c-0.703,0-1.246-0.172-1.623-0.518c-0.377-0.342-0.57-0.783-0.57-1.314c0-0.314,0.076-0.604,0.217-0.863
			c0.143-0.26,0.328-0.465,0.562-0.625c0.232-0.154,0.49-0.273,0.781-0.354c0.211-0.059,0.535-0.109,0.963-0.166
			c0.881-0.104,1.527-0.227,1.938-0.371c0.008-0.148,0.008-0.244,0.008-0.285c0-0.441-0.102-0.754-0.307-0.935
			c-0.279-0.245-0.691-0.37-1.24-0.37c-0.512,0-0.889,0.092-1.131,0.27c-0.238,0.182-0.422,0.498-0.541,0.951l-1.059-0.145
			c0.094-0.456,0.256-0.82,0.475-1.102c0.223-0.279,0.543-0.496,0.959-0.646c0.42-0.148,0.906-0.227,1.457-0.227
			c0.543,0,0.99,0.066,1.334,0.195c0.34,0.129,0.592,0.287,0.754,0.484c0.158,0.193,0.273,0.441,0.338,0.738
			c0.037,0.185,0.053,0.52,0.053,1.002v1.449c0,1.01,0.023,1.648,0.07,1.916c0.045,0.268,0.137,0.521,0.273,0.77h-1.135
			C73.71,169.18,73.636,168.914,73.607,168.613z M73.513,166.188c-0.393,0.16-0.984,0.295-1.771,0.408
			c-0.447,0.064-0.764,0.139-0.949,0.219c-0.184,0.082-0.328,0.197-0.428,0.352c-0.102,0.154-0.15,0.328-0.15,0.516
			c0,0.291,0.109,0.533,0.33,0.725c0.217,0.193,0.539,0.291,0.961,0.291c0.418,0,0.791-0.092,1.115-0.275s0.568-0.434,0.719-0.752
			c0.119-0.246,0.174-0.605,0.174-1.086V166.188z"/>
		<path fill="#FFFFFF" d="M76.558,169.402v-5.564h-0.965v-0.848h0.965v-0.678c0-0.43,0.035-0.752,0.113-0.959
			c0.105-0.281,0.287-0.514,0.551-0.686c0.266-0.177,0.633-0.262,1.107-0.262c0.307,0,0.643,0.033,1.014,0.105l-0.164,0.947
			c-0.225-0.039-0.438-0.059-0.637-0.059c-0.33,0-0.564,0.07-0.705,0.213c-0.133,0.139-0.201,0.402-0.201,0.791v0.586h1.248v0.848
			h-1.248v5.564H76.558z"/>
		<path fill="#FFFFFF" d="M80.054,162.197l0.807-1.691h1.422l-1.326,1.691H80.054z M80.111,169.402v-6.412h1.086v6.412H80.111z"/>
		<path fill="#FFFFFF" d="M87.343,168.613c-0.4,0.34-0.789,0.58-1.16,0.723c-0.373,0.141-0.77,0.211-1.197,0.211
			c-0.703,0-1.242-0.172-1.623-0.518c-0.377-0.342-0.566-0.783-0.566-1.314c0-0.314,0.072-0.604,0.215-0.863
			s0.332-0.465,0.561-0.625c0.23-0.154,0.49-0.273,0.783-0.354c0.209-0.059,0.533-0.109,0.961-0.166
			c0.877-0.104,1.521-0.227,1.939-0.371c0.006-0.148,0.008-0.244,0.008-0.285c0-0.441-0.102-0.754-0.309-0.935
			c-0.283-0.245-0.691-0.37-1.24-0.37c-0.512,0-0.885,0.092-1.127,0.27c-0.248,0.182-0.426,0.498-0.543,0.951l-1.061-0.145
			c0.096-0.456,0.256-0.82,0.477-1.102c0.219-0.279,0.543-0.496,0.961-0.646c0.416-0.148,0.9-0.227,1.453-0.227
			c0.543,0,0.99,0.066,1.332,0.195c0.34,0.129,0.596,0.287,0.754,0.484c0.162,0.193,0.275,0.441,0.338,0.738
			c0.035,0.185,0.055,0.52,0.055,1.002v1.449c0,1.01,0.025,1.648,0.068,1.916c0.047,0.268,0.141,0.521,0.275,0.77h-1.131
			C87.451,169.18,87.378,168.914,87.343,168.613z M87.255,166.188c-0.396,0.16-0.984,0.295-1.773,0.408
			c-0.447,0.064-0.764,0.139-0.947,0.219c-0.188,0.082-0.33,0.197-0.43,0.352c-0.102,0.154-0.152,0.328-0.152,0.516
			c0,0.291,0.109,0.533,0.33,0.725c0.219,0.193,0.541,0.291,0.965,0.291c0.416,0,0.789-0.092,1.115-0.275
			c0.324-0.184,0.561-0.434,0.719-0.752c0.115-0.246,0.174-0.605,0.174-1.086V166.188z"/>
	</g>
	<g>
		<path fill-rule="evenodd" clip-rule="evenodd" fill="#FFFFFF" d="M141.048,171.32c0,0.85,0,1.582,0,2.41
			c-0.334,0.02-0.65,0.047-0.967,0.047c-8.627,0.004-17.252,0.084-25.877-0.041c-3.221-0.047-3.459,2.023-2.912,4.182
			c0.148,0.586,0.906,1.215,1.523,1.439c0.869,0.316,1.869,0.365,2.812,0.369c8.059,0.025,16.117,0.014,24.176,0.014
			c0.385,0,0.77,0,1.223,0c0,0.824,0,1.578,0,2.414c-0.354,0.016-0.674,0.043-0.992,0.043c-8.207,0.003-16.414,0.023-24.623-0.021
			c-1.232-0.008-2.504-0.205-3.684-0.562c-1.906-0.572-2.914-2.025-3.055-3.986c-0.064-0.969-0.021-1.98,0.182-2.924
			c0.455-2.111,1.977-3.303,4.15-3.371c1.254-0.039,2.506-0.012,3.76-0.012c7.732,0,15.461,0,23.191,0
			C140.304,171.32,140.652,171.32,141.048,171.32z"/>
		<path fill-rule="evenodd" clip-rule="evenodd" fill="#FFFFFF" d="M111.394,169.73c0-0.785,0-1.434,0-2.223
			c0.404,0,0.777,0,1.152,0c7.463,0,14.922,0,22.385,0c0.178,0,0.357,0,0.537,0c2.355-0.006,3.287-1.225,2.697-3.525
			c-0.203-0.793-0.697-1.346-1.482-1.514c-0.75-0.162-1.531-0.25-2.299-0.252c-7.283-0.018-14.564-0.01-21.846-0.01
			c-0.354,0-0.705,0-1.119,0c0-0.752,0-1.422,0-2.184c0.312-0.016,0.627-0.043,0.945-0.043c7.521-0.002,15.041-0.016,22.562,0.023
			c0.938,0.004,1.904,0.189,2.799,0.475c1.367,0.434,2.379,1.412,2.537,2.852c0.139,1.271,0.115,2.631-0.193,3.863
			c-0.439,1.757-1.928,2.395-3.623,2.525c-0.682,0.053-1.371,0.012-2.057,0.012c-7.283,0-14.564,0-21.848,0
			C112.191,169.73,111.837,169.73,111.394,169.73z"/>
		<path fill-rule="evenodd" clip-rule="evenodd" fill="#FFFFFF" d="M135.785,150.293c0,0.578,0,1.137,0,1.807
			c-0.357,0-0.676,0-0.994-0.002c-6.475-0.014-12.951-0.029-19.424-0.043c-1.449-0.004-1.986,0.473-2.104,1.852
			c-0.127,1.484,0.436,2.309,1.773,2.527c0.469,0.076,0.953,0.068,1.428,0.068c6.088,0.004,12.176,0.004,18.264,0.004
			c0.322,0,0.646,0,1.033,0c0,0.652,0,1.232,0,1.939c-0.324,0-0.641,0-0.957,0c-6.088,0-12.174,0.014-18.262-0.018
			c-0.883-0.004-1.793-0.123-2.643-0.363c-1.332-0.377-2.264-1.283-2.404-2.701c-0.094-0.957-0.068-1.975,0.162-2.902
			c0.344-1.402,1.529-2.238,3.094-2.242c6.922-0.025,13.846-0.008,20.77-0.002C135.576,150.217,135.632,150.248,135.785,150.293z"/>
		<path fill-rule="evenodd" clip-rule="evenodd" fill="#FFFFFF" d="M139.673,178.205c-0.205,0.271-0.289,0.488-0.441,0.559
			c-0.176,0.08-0.41,0.035-0.619,0.035c-7.996,0-15.992,0.004-23.988-0.012c-0.35,0-0.967,0.268-0.916-0.582
			C122.314,178.205,130.89,178.205,139.673,178.205z"/>
		<path fill-rule="evenodd" clip-rule="evenodd" fill="#FFFFFF" d="M136.013,164.775c-0.168,0.156-0.324,0.334-0.514,0.463
			c-0.082,0.057-0.23,0.014-0.352,0.014c-7.191,0-14.385,0.002-21.576-0.006c-0.369,0-0.922,0.17-0.791-0.639
			c7.676,0,15.352,0,23.029,0C135.878,164.664,135.947,164.719,136.013,164.775z"/>
		<path fill-rule="evenodd" clip-rule="evenodd" fill="#FFFFFF" d="M124.369,163.639c-3.551,0-7.104,0-10.65,0
			c-0.238,0-0.484,0.016-0.713-0.035c-0.102-0.023-0.234-0.197-0.234-0.303c-0.002-0.107,0.129-0.285,0.23-0.307
			c0.227-0.055,0.471-0.039,0.711-0.039c7.1,0,14.197,0,21.299,0c0.207,0,0.432-0.033,0.619,0.029
			c0.123,0.041,0.24,0.221,0.27,0.357c0.014,0.074-0.154,0.246-0.26,0.268c-0.23,0.047-0.475,0.029-0.713,0.029
			C131.406,163.639,127.886,163.639,124.369,163.639z"/>
		<path fill-rule="evenodd" clip-rule="evenodd" fill="#FFFFFF" d="M135.873,166.668c-7.707,0-15.389,0-23.309,0
			c0.246-0.289,0.344-0.496,0.5-0.562c0.178-0.076,0.408-0.035,0.615-0.035c7.131,0,14.256-0.002,21.385,0.008
			C135.419,166.08,136.054,165.84,135.873,166.668z"/>
		<path fill-rule="evenodd" clip-rule="evenodd" fill="#FFFFFF" d="M139.683,176.41c-0.213,0.277-0.303,0.479-0.455,0.564
			c-0.141,0.076-0.35,0.031-0.529,0.031c-8.057,0-16.113,0.004-24.17-0.01c-0.34,0-0.936,0.232-0.793-0.586
			C122.314,176.41,130.894,176.41,139.683,176.41z"/>
		<path fill-rule="evenodd" clip-rule="evenodd" fill="#FFFFFF" d="M114.955,155.918c0.301-0.328,0.439-0.514,0.613-0.65
			c0.076-0.059,0.23-0.016,0.352-0.016c5.996,0,11.99,0,17.986,0.002c0.406,0,0.916-0.098,0.709,0.664
			C128.164,155.918,121.707,155.918,114.955,155.918z"/>
		<path fill-rule="evenodd" clip-rule="evenodd" fill="#FFFFFF" d="M126.691,174.676c3.939,0,7.879,0,11.818,0
			c0.209,0,0.434-0.043,0.623,0.018c0.152,0.051,0.26,0.23,0.389,0.354c-0.121,0.098-0.229,0.236-0.365,0.279
			c-0.164,0.049-0.355,0.016-0.533,0.016c-8,0-15.996,0-23.996-0.002c-0.209,0-0.43,0.035-0.621-0.025
			c-0.125-0.037-0.25-0.205-0.283-0.338c-0.016-0.07,0.152-0.248,0.26-0.271c0.23-0.047,0.475-0.029,0.713-0.029
			C118.695,174.676,122.693,174.676,126.691,174.676z"/>
		<path fill-rule="evenodd" clip-rule="evenodd" fill="#FFFFFF" d="M124.886,154.609c-2.949,0-5.898,0.01-8.85-0.018
			c-0.289-0.002-0.574-0.223-0.865-0.342c0.273-0.104,0.541-0.295,0.811-0.295c5.961-0.018,11.918-0.014,17.879-0.014
			c0.117,0,0.252-0.033,0.354,0.009c0.162,0.071,0.301,0.192,0.449,0.291c-0.16,0.122-0.316,0.339-0.482,0.347
			c-0.803,0.039-1.607,0.021-2.412,0.021C129.474,154.609,127.179,154.609,124.886,154.609z"/>
		<path fill-rule="evenodd" clip-rule="evenodd" fill="#FFFFFF" d="M124.894,152.688c3.006,0,6.018-0.01,9.025,0.016
			c0.248,0,0.496,0.225,0.742,0.344c-0.238,0.102-0.479,0.293-0.719,0.293c-6.02,0.018-12.037,0.018-18.057,0
			c-0.236-0.002-0.475-0.205-0.713-0.316c0.23-0.111,0.461-0.32,0.691-0.32C118.875,152.682,121.884,152.689,124.894,152.688z"/>
	</g>
	<g>
		<g>
			<path fill="#FFFFFF" d="M67.462,258.84c-0.02,0.805-0.334,1.438-0.924,1.908c-0.605,0.471-1.408,0.705-2.418,0.705
				c-1.234,0-2.178-0.402-2.824-1.197c-0.648-0.801-0.973-1.957-0.973-3.469c0-1.516,0.34-2.689,1.02-3.51
				c0.68-0.83,1.648-1.248,2.895-1.248c0.982,0,1.754,0.227,2.322,0.678c0.557,0.447,0.857,1.07,0.877,1.857h-1.293
				c-0.045-0.471-0.254-0.844-0.623-1.135c-0.371-0.289-0.83-0.43-1.4-0.43c-0.785,0-1.398,0.326-1.832,0.984
				c-0.441,0.66-0.66,1.578-0.66,2.766c0,1.166,0.219,2.061,0.648,2.697c0.432,0.637,1.047,0.959,1.844,0.959
				c0.576,0,1.039-0.141,1.393-0.416c0.35-0.279,0.543-0.664,0.586-1.15H67.462z"/>
			<path fill="#FFFFFF" d="M68.964,261.301v-5.365c0-0.207,0-0.393-0.006-0.545c-0.002-0.15-0.016-0.303-0.021-0.453h1.172
				l0.021,1.215c0.117-0.4,0.322-0.705,0.629-0.912c0.289-0.207,0.684-0.303,1.162-0.303c0.084,0,0.168,0,0.248,0.006
				c0.084,0.007,0.16,0.018,0.232,0.031v1.1c-0.127-0.021-0.24-0.045-0.354-0.055c-0.105-0.014-0.199-0.021-0.283-0.021
				c-0.525,0-0.928,0.148-1.207,0.451c-0.281,0.289-0.428,0.717-0.428,1.271v3.58H68.964z"/>
			<path fill="#FFFFFF" d="M78.917,259.256c-0.004,0.66-0.238,1.191-0.707,1.59c-0.473,0.406-1.09,0.607-1.863,0.607
				c-0.984,0-1.74-0.271-2.252-0.818c-0.512-0.549-0.764-1.34-0.764-2.394c0-1.125,0.252-1.976,0.752-2.571
				c0.504-0.59,1.232-0.889,2.17-0.889c0.865,0,1.543,0.24,2.039,0.738c0.496,0.496,0.738,1.164,0.738,2.016
				c0,0.205,0,0.361-0.004,0.473c-0.004,0.104-0.012,0.203-0.018,0.303h-4.508v0.119v0.256c0,0.607,0.15,1.07,0.459,1.393
				c0.305,0.332,0.744,0.496,1.316,0.496c0.463,0,0.838-0.119,1.104-0.359c0.281-0.234,0.416-0.555,0.434-0.959H78.917z
				 M74.56,257.482h3.279v-0.143c0-0.527-0.146-0.953-0.434-1.279c-0.291-0.322-0.674-0.48-1.129-0.48
				c-0.508,0-0.92,0.176-1.242,0.525C74.718,256.45,74.56,256.916,74.56,257.482z M75.31,254.098l1.26-2.154h1.246l-1.764,2.154
				H75.31z"/>
			<path fill="#FFFFFF" d="M85.22,261.301l-0.053-0.941c-0.293,0.385-0.602,0.666-0.926,0.838c-0.318,0.169-0.695,0.256-1.113,0.256
				c-0.873,0-1.564-0.297-2.07-0.879c-0.512-0.584-0.764-1.389-0.764-2.406c0-1.052,0.244-1.863,0.742-2.447
				c0.496-0.592,1.176-0.885,2.053-0.885c0.432,0,0.828,0.088,1.176,0.264c0.357,0.184,0.656,0.451,0.902,0.797v-3.732h1.168v7.865
				c0,0.227,0.004,0.438,0.018,0.645c0.014,0.211,0.027,0.414,0.057,0.627H85.22z M81.519,258.039c0,0.809,0.164,1.457,0.5,1.928
				c0.33,0.473,0.771,0.711,1.311,0.711c0.564,0,1.008-0.221,1.342-0.662c0.332-0.436,0.496-1.025,0.496-1.774
				c0-0.81-0.162-1.454-0.494-1.927c-0.33-0.471-0.768-0.717-1.312-0.717c-0.559,0-1.006,0.225-1.338,0.662
				C81.683,256.707,81.519,257.297,81.519,258.039z"/>
			<path fill="#FFFFFF" d="M89.583,253.463h-1.375v-1.299h1.375V253.463z M88.316,261.301v-6.363h1.172v6.363H88.316z"/>
			<path fill="#FFFFFF" d="M90.607,254.938h1.082v-1.311l1.164-0.396v1.707h1.418v0.836h-1.418v3.904
				c0,0.328,0.057,0.547,0.16,0.652c0.113,0.102,0.33,0.158,0.65,0.158c0.086,0,0.17-0.01,0.264-0.021
				c0.1-0.02,0.203-0.035,0.318-0.061v0.879c-0.191,0.049-0.365,0.086-0.518,0.109c-0.15,0.033-0.289,0.045-0.402,0.045
				c-0.604,0-1.018-0.1-1.268-0.307c-0.246-0.209-0.369-0.553-0.369-1.047v-4.312h-1.082V254.938z"/>
			<path fill="#FFFFFF" d="M95.158,258.241c0-1.065,0.279-1.907,0.848-2.521c0.568-0.621,1.338-0.926,2.318-0.926
				c0.99,0,1.762,0.285,2.307,0.863c0.553,0.572,0.826,1.379,0.826,2.406c0,1.072-0.283,1.902-0.854,2.494
				c-0.561,0.598-1.359,0.895-2.391,0.895c-0.941,0-1.693-0.289-2.24-0.859C95.429,260.016,95.158,259.23,95.158,258.241z
				 M98.324,255.637c-0.605,0-1.08,0.227-1.436,0.682c-0.35,0.455-0.527,1.076-0.527,1.857c0,0.766,0.166,1.346,0.51,1.766
				c0.336,0.41,0.816,0.617,1.426,0.617c0.617,0,1.098-0.215,1.445-0.652c0.354-0.443,0.527-1.049,0.527-1.832
				c0-0.771-0.168-1.367-0.51-1.797C99.419,255.844,98.941,255.637,98.324,255.637z"/>
			<path fill="#FFFFFF" d="M102.654,259.385h1.176v0.021c0,0.35,0.119,0.627,0.367,0.838c0.244,0.211,0.574,0.314,0.984,0.314
				c0.393,0,0.715-0.09,0.963-0.279c0.244-0.182,0.367-0.422,0.367-0.721c0-0.223-0.064-0.402-0.189-0.531
				c-0.125-0.137-0.32-0.244-0.58-0.301l-1.352-0.32c-0.568-0.133-0.994-0.338-1.273-0.611c-0.277-0.275-0.416-0.623-0.416-1.045
				c0-0.582,0.236-1.057,0.709-1.416c0.477-0.363,1.096-0.539,1.867-0.539c0.711,0,1.279,0.148,1.691,0.445
				c0.412,0.299,0.615,0.71,0.615,1.229c0,0.049,0,0.094,0,0.115c0,0.029-0.004,0.051-0.01,0.07h-1.168v-0.051
				c0-0.301-0.109-0.547-0.326-0.723c-0.217-0.174-0.516-0.265-0.889-0.265c-0.369,0-0.672,0.091-0.912,0.265
				c-0.236,0.176-0.355,0.402-0.355,0.662c0,0.213,0.066,0.373,0.213,0.5c0.146,0.129,0.387,0.236,0.717,0.322l1.445,0.396
				c0.506,0.129,0.873,0.336,1.115,0.619c0.242,0.279,0.359,0.646,0.359,1.088c0,0.609-0.23,1.084-0.691,1.443
				c-0.457,0.361-1.076,0.541-1.855,0.541c-0.889,0-1.537-0.152-1.951-0.465c-0.416-0.311-0.621-0.791-0.621-1.453V259.385z"/>
		</g>
	</g>
	<g>
		<path fill-rule="evenodd" clip-rule="evenodd" fill="#FFFFFF" d="M150.412,259.449c-0.811,0.508-1.648,0.59-2.473,0.174
			c-0.346-0.174-0.658-0.322-1.051-0.395c-0.832-0.146-1.611-1.055-1.695-1.887c-0.014-0.182,0.084-0.383,0.029-0.545
			c-0.057-0.16-0.26-0.262-0.359-0.416c-0.404-0.643-0.332-1.828,0.277-2.334c0.045-0.031,0.057-0.129,0.049-0.195
			c-0.109-0.76,0.08-1.412,0.67-1.92c0.145-0.119,0.377-0.166,0.473-0.307c0.096-0.139,0.047-0.365,0.102-0.541
			c0.193-0.588,0.566-1.006,1.182-1.182c0.057-0.018,0.137-0.064,0.156-0.117c0.338-0.955,1.85-1.166,2.568-0.414
			c0.016,0.018,0.031,0.029,0.057,0.049c0.434-0.434,0.957-0.58,1.555-0.465c0.49,0.092,0.861,0.346,1.068,0.811
			c0.023,0.057,0.074,0.111,0.127,0.125c0.865,0.264,1.252,0.883,1.307,1.746c0,0.01,0.004,0.014,0.006,0.021
			c0.92,0.461,1.301,1.205,1.145,2.217c-0.012,0.057,0.014,0.146,0.057,0.18c0.717,0.59,0.699,2.166-0.037,2.687
			c-0.033,0.024-0.064,0.095-0.057,0.14c0.164,0.826-0.248,1.41-0.816,1.918c-0.375,0.33-0.812,0.535-1.338,0.471
			c-0.047-0.004-0.117,0.016-0.148,0.053c-0.293,0.35-0.689,0.48-1.119,0.523C151.525,259.906,150.921,259.848,150.412,259.449z
			 M150.656,256.07c0,0.861,0,1.744,0,2.625c0,0.318,0.107,0.486,0.4,0.59c0.436,0.16,0.879,0.148,1.318,0.049
			c0.094-0.021,0.186-0.082,0.262-0.143c0.406-0.325,0.572-1.125,0.338-1.584c-0.129-0.254-0.447-0.416-0.697-0.357
			c-0.277,0.068-0.455,0.311-0.455,0.627c-0.004,0.064,0,0.125,0,0.195c-0.166,0.039-0.307,0.074-0.451,0.113
			c-0.256-0.637,0.248-1.426,0.92-1.463c0.77-0.039,1.35,0.596,1.289,1.414c-0.016,0.201-0.053,0.406-0.086,0.629
			c0.59-0.002,0.973-0.332,1.287-0.744c0.236-0.305,0.402-0.645,0.266-1.049c-0.137,0-0.26,0.006-0.383,0
			c-1.016-0.022-1.512-0.77-1.127-1.711c0.088-0.205,0.217-0.4,0.344-0.594c0.23-0.35,0.115-0.727-0.279-0.867
			c-0.102-0.035-0.207-0.06-0.314-0.076c-0.289-0.043-0.529,0.076-0.6,0.359c-0.062,0.23-0.084,0.482-0.053,0.717
			c0.1,0.764-0.354,1.344-1.123,1.357C151.234,256.168,150.962,256.104,150.656,256.07z M148.976,258.068c0-0.062,0-0.1,0-0.143
			c0.008-0.365-0.188-0.637-0.492-0.685c-0.299-0.041-0.623,0.177-0.713,0.5c-0.123,0.478-0.047,0.919,0.252,1.31
			c0.092,0.113,0.238,0.227,0.375,0.268c0.459,0.131,0.922,0.127,1.373-0.049c0.258-0.098,0.375-0.283,0.373-0.564
			c-0.012-0.828-0.004-1.654-0.004-2.479c0-0.061-0.008-0.127-0.012-0.197c-0.133,0.039-0.248,0.074-0.367,0.1
			c-1.021,0.219-1.779-0.408-1.576-1.408c0.033-0.16,0.008-0.34-0.021-0.512c-0.043-0.262-0.195-0.453-0.473-0.484
			c-0.314-0.039-0.615,0.037-0.805,0.305c-0.17,0.236-0.068,0.467,0.068,0.699c0.16,0.268,0.314,0.549,0.398,0.85
			c0.17,0.622-0.139,1.141-0.76,1.309c-0.264,0.076-0.547,0.08-0.855,0.115c-0.135,0.448,0.096,0.822,0.387,1.152
			c0.307,0.35,0.66,0.631,1.178,0.605c-0.033-0.24-0.072-0.453-0.086-0.67c-0.039-0.691,0.354-1.215,1.01-1.346
			c0.393-0.076,0.732,0.033,0.984,0.344c0.26,0.32,0.338,0.684,0.236,1.104C149.281,258.146,149.13,258.107,148.976,258.068z
			 M145.912,254.256c-0.666,0.318-0.834,0.61-0.777,1.338c0.053,0.625,0.424,0.928,1.041,0.855c0.564-0.068,0.814-0.453,0.609-0.98
			c-0.086-0.215-0.23-0.412-0.357-0.607c-0.293-0.451-0.248-0.92,0.152-1.281c0.34-0.311,0.748-0.402,1.199-0.334
			c0.064,0.012,0.145,0.023,0.203-0.002c0.279-0.139,0.545-0.297,0.83-0.428c0.5-0.232,0.678-0.713,0.373-1.17
			c-0.113-0.17-0.322-0.307-0.521-0.381c-0.438-0.164-0.85-0.324-0.951-0.859c-0.467,0.15-0.771,0.428-0.836,0.893
			c-0.072,0.5,0.184,0.834,0.627,1.061c-0.066,0.154-0.129,0.301-0.219,0.516c-0.295-0.24-0.557-0.457-0.836-0.686
			C145.748,252.381,145.513,253.2,145.912,254.256z M153.093,250.432c-0.205,0.494-0.307,0.592-0.836,0.783
			c-0.088,0.029-0.176,0.062-0.26,0.098c-0.307,0.119-0.459,0.355-0.514,0.666c-0.07,0.393,0.145,0.693,0.576,0.865
			c0.236,0.098,0.457,0.23,0.688,0.338c0.084,0.037,0.184,0.076,0.266,0.064c0.453-0.066,0.857,0.023,1.205,0.33
			c0.377,0.334,0.445,0.818,0.178,1.242c-0.084,0.135-0.205,0.252-0.262,0.395c-0.086,0.207-0.172,0.43-0.178,0.652
			c-0.006,0.293,0.217,0.494,0.529,0.559c0.475,0.102,0.838-0.014,1.018-0.318c0.404-0.688,0.158-1.48-0.562-1.818
			c-0.018-0.006-0.031-0.021-0.031-0.021c0.059-0.264,0.137-0.508,0.17-0.758c0.072-0.572-0.184-1.082-0.604-1.279
			c-0.123-0.057-0.199-0.061-0.285,0.068c-0.17,0.246-0.41,0.408-0.707,0.521c-0.064-0.164-0.129-0.312-0.188-0.453
			c0.504-0.299,0.703-0.666,0.625-1.105C153.843,250.844,153.509,250.508,153.093,250.432z M152.398,253.533
			c-0.146-0.061-0.277-0.115-0.406-0.174c-0.17-0.078-0.35-0.141-0.5-0.243c-0.416-0.29-0.596-0.698-0.52-1.196
			c0.082-0.508,0.316-0.904,0.854-1.051c0.125-0.033,0.25-0.076,0.365-0.133c0.488-0.234,0.543-0.764,0.1-1.082
			c-0.389-0.283-0.812-0.301-1.24-0.094c-0.26,0.129-0.395,0.35-0.395,0.645c0,1.594-0.006,3.186,0.004,4.781
			c0.002,0.537,0.068,0.594,0.617,0.623c0.041,0.004,0.084,0.004,0.129,0.004c0.557-0.004,0.771-0.27,0.697-0.822
			C152.037,254.348,152.056,253.916,152.398,253.533z M148.386,253.533c0.277,0.279,0.35,0.586,0.332,0.922
			c-0.004,0.141-0.01,0.283-0.029,0.426c-0.059,0.428,0.135,0.697,0.559,0.717c0.246,0.012,0.498-0.049,0.744-0.084
			c0.119-0.018,0.152-0.094,0.152-0.217c-0.004-1.699,0-3.398-0.012-5.097c0-0.171-0.086-0.362-0.193-0.483
			c-0.371-0.422-1.234-0.369-1.582,0.074c-0.25,0.324-0.18,0.713,0.184,0.909c0.162,0.091,0.342,0.142,0.52,0.2
			c0.312,0.105,0.523,0.316,0.65,0.613c0.322,0.773,0.014,1.502-0.771,1.801C148.769,253.383,148.593,253.45,148.386,253.533z"/>
		<path fill-rule="evenodd" clip-rule="evenodd" fill="#FFFFFF" d="M158.359,254.45c0,4.46-3.613,8.077-8.078,8.077
			c-4.463,0-8.08-3.617-8.08-8.077c0-4.464,3.617-8.084,8.08-8.084C154.746,246.366,158.359,249.986,158.359,254.45z
			 M160.156,254.45c0-5.456-4.42-9.876-9.875-9.876c-5.453,0-9.875,4.42-9.875,9.876c0,4.097,2.492,7.606,6.043,9.103
			c0.006,0.002,0.963,1.115,1.002,1.918s0,1.072,0,1.072h5.588c0,0-0.184-0.977,0.27-1.912c0.219-0.449,0.416-0.775,0.57-0.992
			C157.552,262.199,160.156,258.633,160.156,254.45z"/>
		<path fill-rule="evenodd" clip-rule="evenodd" fill="#FFFFFF" d="M150.357,269.395c0.721,0,1.451-0.066,2.158,0.029
			c0.332,0.043,0.848,0.363,0.879,0.609c0.039,0.307-0.309,0.686-0.537,0.998c-0.195,0.266-0.479,0.467-0.689,0.725
			c-0.85,1.047-2.277,1.26-3.35,0.444c-0.559-0.427-1.094-0.899-1.566-1.419c-0.168-0.184-0.246-0.641-0.135-0.842
			c0.141-0.25,0.512-0.49,0.801-0.516c0.809-0.068,1.625-0.023,2.439-0.023C150.357,269.398,150.357,269.396,150.357,269.395z"/>
		<path fill-rule="evenodd" clip-rule="evenodd" fill="#FFFFFF" d="M150.224,268.676c-0.719,0-1.436,0.01-2.154-0.004
			c-0.549-0.01-1.023-0.188-1.037-0.828c-0.012-0.65,0.445-0.818,1.012-0.814c1.498,0.004,2.998,0.006,4.496,0
			c0.551-0.004,1.014,0.242,0.908,0.785c-0.066,0.332-0.543,0.764-0.891,0.82C151.8,268.76,151.005,268.672,150.224,268.676z"/>
		<path fill-rule="evenodd" clip-rule="evenodd" fill="#FFFFFF" d="M139.583,250.043c-0.766-0.441-1.385-0.802-2.152-1.246
			c0.404-0.701,0.773-1.347,1.225-2.131c0.756,0.453,1.434,0.857,2.15,1.287C140.39,248.666,140.027,249.287,139.583,250.043z"/>
		<path fill-rule="evenodd" clip-rule="evenodd" fill="#FFFFFF" d="M159.865,247.932c0.785-0.449,1.412-0.807,2.162-1.236
			c0.418,0.689,0.809,1.334,1.268,2.09c-0.721,0.428-1.375,0.812-2.135,1.266C160.738,249.359,160.341,248.713,159.865,247.932z"/>
		<path fill-rule="evenodd" clip-rule="evenodd" fill="#FFFFFF" d="M142.175,243.158c0.754-0.443,1.369-0.805,2.104-1.238
			c0.436,0.73,0.82,1.375,1.277,2.143c-0.723,0.434-1.365,0.818-2.113,1.266C143.017,244.602,142.634,243.947,142.175,243.158z"/>
		<path fill-rule="evenodd" clip-rule="evenodd" fill="#FFFFFF" d="M158.537,243.141c-0.467,0.793-0.838,1.422-1.266,2.148
			c-0.719-0.41-1.375-0.785-2.111-1.205c0.422-0.738,0.781-1.367,1.225-2.143C157.097,242.34,157.751,242.703,158.537,243.141z"/>
		<path fill-rule="evenodd" clip-rule="evenodd" fill="#FFFFFF" d="M136.277,253.76c0.752,0,1.467,0,2.273,0
			c0,0.721,0,1.424,0,2.211c-0.752,0-1.465,0-2.273,0C136.277,255.23,136.277,254.529,136.277,253.76z"/>
		<path fill-rule="evenodd" clip-rule="evenodd" fill="#FFFFFF" d="M149.285,240.699c0.783,0,1.463,0,2.23,0c0,0.777,0,1.49,0,2.314
			c-0.703,0-1.414,0-2.23,0C149.285,242.307,149.285,241.559,149.285,240.699z"/>
		<path fill-rule="evenodd" clip-rule="evenodd" fill="#FFFFFF" d="M162.187,255.939c0-0.719,0-1.389,0-2.154
			c0.752,0,1.502,0,2.332,0c0,0.699,0,1.369,0,2.154C163.767,255.939,163.019,255.939,162.187,255.939z"/>
		<path fill-rule="evenodd" clip-rule="evenodd" fill="#FFFFFF" d="M138.644,263.043c-0.432-0.764-0.789-1.389-1.219-2.146
			c0.713-0.412,1.373-0.791,2.172-1.252c0.354,0.762,0.67,1.443,1.031,2.227C139.988,262.248,139.404,262.592,138.644,263.043z"/>
		<path fill-rule="evenodd" clip-rule="evenodd" fill="#FFFFFF" d="M162.068,263.014c-0.686-0.387-1.268-0.715-1.969-1.111
			c0.314-0.752,0.602-1.436,0.959-2.286c0.793,0.46,1.473,0.856,2.219,1.288C162.847,261.654,162.472,262.307,162.068,263.014z"/>
	</g>
	<g>
		<g>
			<path fill="#FFFFFF" d="M146.603,207.551c0,1,0,2.002,0,3.002c-0.066,0.402-0.133,0.809-0.193,1.211
				c-1.111,7.205-6.838,11.672-12.232,12.875c-0.736,0.162-1.49,0.271-2.236,0.404c-0.914,0-1.832,0-2.75,0
				c-0.279-0.049-0.562-0.109-0.846-0.146c-6.434-0.908-11.83-5.836-13.316-12.189c-0.168-0.74-0.275-1.492-0.41-2.24
				c0-0.939,0-1.887,0-2.832c0.025-0.057,0.061-0.119,0.072-0.185c0.508-4.683,2.717-8.415,6.396-11.28
				c3.51-2.734,7.553-3.52,11.889-2.951c6.453,0.838,11.781,5.727,13.211,12.066C146.353,206.033,146.46,206.795,146.603,207.551z
				 M130.626,222.084c6.045,0.096,13.111-4.785,13.082-12.908c-0.027-7.383-5.729-13.139-12.99-13.234
				c-7.967-0.098-13.256,6.9-13.213,13.068C117.566,216.156,123.464,222.084,130.626,222.084z"/>
			<path fill-rule="evenodd" clip-rule="evenodd" fill="#FFFFFF" d="M128.501,210.496c0.674,0.344,1.311,0.67,1.984,1.006
				c-0.715,1.289-1.752,2.086-3.15,2.418c-2.156,0.502-4.395-0.436-5.291-2.262c-0.666-1.346-0.701-2.781-0.354-4.219
				c0.301-1.227,1.021-2.143,2.1-2.773c1.771-1.043,5.295-0.902,6.654,1.74c-0.705,0.365-1.406,0.732-2.014,1.049
				c-0.436-0.375-0.773-0.779-1.197-1.018c-0.936-0.508-2.1-0.09-2.512,0.885c-0.461,1.088-0.459,2.213-0.031,3.322
				c0.297,0.754,0.871,1.174,1.678,1.221c0.85,0.047,1.516-0.273,1.951-1.025C128.369,210.746,128.419,210.65,128.501,210.496z"/>
			<path fill-rule="evenodd" clip-rule="evenodd" fill="#FFFFFF" d="M139.664,206.406c-0.697,0.369-1.381,0.73-2.092,1.109
				c-0.113-0.17-0.213-0.332-0.328-0.48c-0.443-0.59-1.037-0.859-1.77-0.785c-0.77,0.072-1.338,0.463-1.602,1.205
				c-0.352,1.012-0.369,2.035-0.014,3.057c0.283,0.807,0.846,1.295,1.717,1.354c0.879,0.057,1.562-0.291,1.996-1.082
				c0.041-0.072,0.082-0.146,0.127-0.213c0.004-0.014,0.02-0.018,0.062-0.051c0.635,0.314,1.285,0.635,1.971,0.98
				c-0.729,1.275-1.752,2.123-3.156,2.408c-1.842,0.352-3.518,0.018-4.793-1.484c-0.85-1.012-1.053-2.234-1.043-3.508
				c0.02-1.076,0.242-2.105,0.893-2.984c1.059-1.434,2.527-1.963,4.258-1.848c1.514,0.105,2.76,0.68,3.602,1.994
				C139.55,206.174,139.597,206.27,139.664,206.406z"/>
		</g>
	</g>
	<g>
		<g>
			<path fill="#FFFFFF" d="M48.085,205.33c-0.018,0.803-0.324,1.441-0.922,1.908c-0.602,0.473-1.404,0.717-2.422,0.717
				c-1.23,0-2.18-0.408-2.834-1.211c-0.648-0.801-0.975-1.953-0.975-3.479c0-1.516,0.342-2.688,1.027-3.52
				c0.678-0.826,1.65-1.24,2.902-1.24c0.977,0,1.756,0.223,2.314,0.676c0.574,0.449,0.863,1.068,0.887,1.861h-1.303
				c-0.037-0.467-0.238-0.843-0.609-1.133c-0.373-0.291-0.844-0.439-1.41-0.439c-0.781,0-1.398,0.328-1.838,0.992
				c-0.443,0.656-0.66,1.582-0.66,2.768c0,1.174,0.215,2.07,0.654,2.703c0.432,0.641,1.049,0.957,1.844,0.957
				c0.578,0,1.049-0.135,1.389-0.412c0.355-0.275,0.555-0.66,0.6-1.148H48.085z"/>
			<path fill="#FFFFFF" d="M49.599,207.791v-5.373c0-0.211-0.002-0.387-0.006-0.539c-0.008-0.156-0.016-0.314-0.027-0.467h1.176
				l0.029,1.227c0.115-0.408,0.318-0.711,0.617-0.916c0.303-0.209,0.695-0.311,1.17-0.311c0.092,0,0.174,0.004,0.254,0.012
				c0.084,0.006,0.156,0.018,0.23,0.037v1.096c-0.127-0.031-0.244-0.043-0.352-0.055c-0.111-0.016-0.203-0.021-0.283-0.021
				c-0.527,0-0.934,0.148-1.219,0.451c-0.275,0.291-0.418,0.719-0.418,1.279v3.58H49.599z"/>
			<path fill="#FFFFFF" d="M59.568,205.746c0,0.656-0.24,1.195-0.703,1.602c-0.475,0.398-1.102,0.607-1.865,0.607
				c-0.996,0-1.748-0.281-2.26-0.826c-0.516-0.551-0.771-1.344-0.771-2.402c0-1.117,0.254-1.98,0.762-2.574s1.23-0.893,2.178-0.893
				c0.855,0,1.541,0.246,2.037,0.742c0.5,0.492,0.746,1.166,0.746,2.02c0,0.207-0.002,0.359-0.008,0.47
				c0,0.104-0.01,0.212-0.018,0.306h-4.527v0.119v0.26c0,0.605,0.158,1.068,0.473,1.398c0.309,0.326,0.748,0.492,1.311,0.492
				c0.467,0,0.838-0.119,1.113-0.359c0.277-0.234,0.42-0.557,0.426-0.961H59.568z M55.205,203.971h3.289v-0.141
				c0-0.535-0.15-0.957-0.439-1.287c-0.295-0.322-0.668-0.484-1.133-0.484c-0.508,0-0.918,0.176-1.242,0.531
				C55.361,202.938,55.205,203.398,55.205,203.971z"/>
			<path fill="#FFFFFF" d="M66.218,207.791h-1.061c-0.035-0.131-0.082-0.453-0.117-0.965v-0.039c-0.16,0.377-0.42,0.66-0.771,0.861
				c-0.348,0.203-0.771,0.307-1.277,0.307c-0.648,0-1.164-0.18-1.551-0.527c-0.395-0.361-0.586-0.83-0.586-1.402
				c0-0.674,0.271-1.213,0.809-1.605c0.535-0.391,1.271-0.59,2.203-0.59h1.105v-0.779c0-0.342-0.102-0.604-0.314-0.775
				c-0.217-0.178-0.527-0.264-0.943-0.264c-0.389,0-0.703,0.098-0.93,0.289c-0.232,0.201-0.352,0.465-0.363,0.797h-1.135v-0.094
				c0-0.57,0.203-0.992,0.609-1.293c0.402-0.303,0.984-0.451,1.74-0.451c0.877,0,1.52,0.156,1.922,0.463
				c0.4,0.316,0.6,0.82,0.6,1.521v3.939c0,0.055,0.006,0.135,0.012,0.244C66.177,207.539,66.195,207.66,66.218,207.791z
				 M64.972,204.627h-0.98c-0.615,0-1.084,0.111-1.424,0.342c-0.332,0.221-0.5,0.535-0.5,0.941c0,0.312,0.119,0.57,0.34,0.771
				c0.227,0.207,0.516,0.309,0.861,0.309c0.553,0,0.971-0.152,1.27-0.441c0.289-0.293,0.434-0.723,0.434-1.289V204.627z"/>
			<path fill="#FFFFFF" d="M67.207,201.412h1.084v-1.303l1.166-0.4v1.703h1.42v0.84h-1.42v3.918c0,0.332,0.053,0.547,0.16,0.648
				c0.113,0.109,0.33,0.16,0.652,0.16c0.08,0,0.172-0.004,0.268-0.02c0.092-0.012,0.199-0.037,0.318-0.068v0.887
				c-0.193,0.055-0.365,0.089-0.518,0.119c-0.154,0.023-0.289,0.037-0.41,0.037c-0.598,0-1.021-0.102-1.271-0.309
				c-0.244-0.203-0.365-0.551-0.365-1.047v-4.326h-1.084V201.412z"/>
			<path fill="#FFFFFF" d="M73.384,199.938h-1.381v-1.293h1.381V199.938z M72.111,207.791v-6.379h1.18v6.379H72.111z"/>
			<path fill="#FFFFFF" d="M77.093,207.791l-2.604-6.379h1.184l2.041,5.057l2.061-5.057h1.166l-2.693,6.379H77.093z"/>
			<path fill="#FFFFFF" d="M87.417,205.746c-0.006,0.656-0.246,1.195-0.713,1.602c-0.467,0.398-1.09,0.607-1.867,0.607
				c-0.99,0-1.742-0.281-2.256-0.826c-0.512-0.551-0.766-1.344-0.766-2.402c0-1.117,0.252-1.98,0.754-2.574
				c0.512-0.594,1.238-0.893,2.18-0.893c0.865,0,1.545,0.246,2.039,0.742c0.498,0.492,0.744,1.166,0.744,2.02
				c0,0.207,0,0.359-0.006,0.47c-0.004,0.104-0.012,0.212-0.018,0.306h-4.525v0.119v0.26c0,0.605,0.154,1.068,0.469,1.398
				c0.309,0.326,0.746,0.492,1.316,0.492c0.465,0,0.834-0.119,1.109-0.359c0.279-0.234,0.418-0.557,0.426-0.961H87.417z
				 M83.046,203.971h3.291v-0.141c0-0.535-0.145-0.957-0.434-1.287c-0.293-0.322-0.676-0.484-1.135-0.484
				c-0.508,0-0.926,0.176-1.24,0.531C83.21,202.938,83.046,203.398,83.046,203.971z"/>
			<path fill="#FFFFFF" d="M41.765,216.957c-0.02,0.807-0.328,1.443-0.928,1.912c-0.592,0.479-1.4,0.713-2.42,0.713
				c-1.238,0-2.18-0.4-2.83-1.203c-0.65-0.795-0.979-1.961-0.979-3.477c0-1.514,0.346-2.686,1.027-3.521
				c0.686-0.83,1.648-1.244,2.902-1.244c0.98,0,1.76,0.223,2.322,0.678c0.561,0.445,0.854,1.062,0.879,1.865h-1.293
				c-0.047-0.467-0.252-0.852-0.621-1.139c-0.367-0.289-0.84-0.434-1.408-0.434c-0.781,0-1.395,0.33-1.838,0.986
				c-0.439,0.658-0.66,1.59-0.66,2.771c0,1.168,0.215,2.066,0.652,2.705c0.434,0.633,1.047,0.953,1.846,0.953
				c0.58,0,1.047-0.135,1.396-0.414c0.35-0.273,0.551-0.659,0.594-1.152H41.765z"/>
			<path fill="#FFFFFF" d="M42.964,216.361c0-1.066,0.291-1.914,0.857-2.533c0.564-0.613,1.348-0.928,2.324-0.928
				c0.994,0,1.76,0.293,2.314,0.871c0.549,0.574,0.826,1.381,0.826,2.414c0,1.07-0.287,1.902-0.857,2.498
				c-0.568,0.594-1.361,0.898-2.395,0.898c-0.947,0-1.697-0.287-2.24-0.869C43.244,218.143,42.964,217.357,42.964,216.361z
				 M46.146,213.746c-0.602,0-1.082,0.23-1.438,0.686c-0.359,0.457-0.531,1.08-0.531,1.865c0,0.76,0.17,1.35,0.51,1.77
				c0.338,0.414,0.818,0.617,1.432,0.617c0.621,0,1.104-0.217,1.447-0.66c0.355-0.439,0.527-1.049,0.527-1.823
				c0-0.78-0.166-1.38-0.51-1.812C47.251,213.963,46.761,213.746,46.146,213.746z"/>
			<path fill="#FFFFFF" d="M52.169,219.426h-1.176v-5.06c0-0.112-0.01-0.29-0.012-0.528c-0.014-0.24-0.021-0.498-0.047-0.791h1.195
				l0.039,1.082c0.166-0.355,0.42-0.635,0.768-0.842c0.35-0.207,0.74-0.316,1.17-0.316c0.432,0,0.814,0.094,1.164,0.273
				c0.342,0.182,0.65,0.467,0.926,0.848c0.334-0.402,0.658-0.689,0.992-0.857c0.326-0.174,0.715-0.264,1.146-0.264
				c0.449,0,0.855,0.098,1.229,0.279c0.363,0.189,0.625,0.434,0.785,0.748c0.072,0.141,0.129,0.332,0.162,0.561
				c0.027,0.225,0.041,0.547,0.041,0.965v3.902h-1.135v-4.068c0-0.492-0.115-0.867-0.354-1.113c-0.23-0.246-0.578-0.373-1.049-0.373
				c-0.479,0-0.861,0.146-1.17,0.447c-0.303,0.298-0.457,0.682-0.457,1.154v3.953h-1.189v-3.854c0-0.588-0.113-1.02-0.346-1.295
				c-0.227-0.279-0.574-0.418-1.057-0.418c-0.51,0-0.91,0.15-1.193,0.447c-0.287,0.303-0.434,0.723-0.434,1.266V219.426z"/>
			<path fill="#FFFFFF" d="M63.761,219.426h-1.186v-5.06c0-0.112,0-0.29-0.008-0.528c-0.014-0.24-0.021-0.498-0.039-0.791h1.193
				l0.039,1.082c0.162-0.355,0.426-0.635,0.768-0.842c0.352-0.207,0.732-0.316,1.164-0.316s0.818,0.094,1.164,0.273
				c0.35,0.182,0.658,0.467,0.934,0.848c0.33-0.402,0.656-0.689,0.99-0.857c0.328-0.174,0.709-0.264,1.146-0.264
				c0.447,0,0.854,0.098,1.219,0.279c0.373,0.189,0.635,0.434,0.795,0.748c0.078,0.141,0.127,0.332,0.158,0.561
				c0.031,0.225,0.047,0.547,0.047,0.965v3.902h-1.137v-4.068c0-0.492-0.123-0.867-0.354-1.113
				c-0.236-0.246-0.584-0.373-1.051-0.373c-0.477,0-0.865,0.146-1.172,0.447c-0.303,0.298-0.455,0.682-0.455,1.154v3.953h-1.193
				v-3.854c0-0.588-0.111-1.02-0.338-1.295c-0.229-0.279-0.584-0.418-1.061-0.418c-0.506,0-0.912,0.15-1.195,0.447
				c-0.287,0.303-0.43,0.723-0.43,1.266V219.426z"/>
			<path fill="#FFFFFF" d="M73.794,216.361c0-1.066,0.291-1.914,0.852-2.533c0.582-0.613,1.348-0.928,2.328-0.928
				c0.994,0,1.766,0.293,2.32,0.871c0.543,0.574,0.82,1.381,0.82,2.414c0,1.07-0.285,1.902-0.855,2.498
				c-0.566,0.594-1.369,0.898-2.395,0.898c-0.943,0-1.693-0.287-2.244-0.869C74.07,218.143,73.794,217.357,73.794,216.361z
				 M76.974,213.746c-0.605,0-1.08,0.23-1.434,0.686c-0.348,0.457-0.531,1.08-0.531,1.865c0,0.76,0.168,1.35,0.502,1.77
				c0.348,0.414,0.82,0.617,1.441,0.617c0.613,0,1.094-0.217,1.445-0.66c0.354-0.439,0.529-1.049,0.529-1.823
				c0-0.78-0.172-1.38-0.512-1.812C78.076,213.963,77.595,213.746,76.974,213.746z"/>
			<path fill="#FFFFFF" d="M83.001,214.092c0.143-0.346,0.393-0.617,0.752-0.818c0.355-0.201,0.77-0.303,1.242-0.303
				c0.426,0,0.803,0.076,1.16,0.229c0.348,0.157,0.619,0.364,0.816,0.634c0.121,0.152,0.193,0.328,0.24,0.541
				c0.051,0.213,0.074,0.572,0.074,1.088v3.963h-1.172V215.4c0-0.541-0.119-0.938-0.344-1.186c-0.23-0.252-0.594-0.381-1.078-0.381
				c-0.494,0-0.898,0.139-1.225,0.404c-0.312,0.264-0.467,0.617-0.467,1.039v4.148h-1.186v-5.066c0-0.236,0-0.469-0.008-0.684
				c-0.012-0.217-0.021-0.426-0.033-0.629h1.189L83.001,214.092z"/>
			<path fill="#FFFFFF" d="M88.779,217.512h1.18v0.021c0,0.344,0.123,0.627,0.375,0.836c0.244,0.213,0.564,0.314,0.979,0.314
				c0.398,0,0.717-0.094,0.967-0.273c0.246-0.188,0.367-0.428,0.367-0.729c0-0.219-0.064-0.396-0.186-0.535
				c-0.125-0.139-0.32-0.236-0.582-0.307l-1.354-0.309c-0.57-0.139-0.994-0.346-1.271-0.619c-0.289-0.277-0.42-0.629-0.42-1.047
				c0-0.582,0.234-1.055,0.705-1.415c0.473-0.362,1.102-0.55,1.869-0.55c0.723,0,1.281,0.156,1.695,0.457
				c0.412,0.293,0.623,0.705,0.623,1.23c0,0.047,0,0.084-0.008,0.112c0,0.022,0,0.052-0.006,0.073h-1.168v-0.053
				c0-0.309-0.115-0.545-0.33-0.723c-0.219-0.184-0.51-0.268-0.891-0.268c-0.367,0-0.672,0.084-0.908,0.268
				c-0.244,0.178-0.361,0.4-0.361,0.66c0,0.213,0.072,0.375,0.211,0.498c0.15,0.127,0.395,0.242,0.729,0.326l1.449,0.404
				c0.502,0.129,0.871,0.332,1.105,0.615c0.244,0.285,0.365,0.645,0.365,1.086c0,0.611-0.23,1.094-0.691,1.451
				c-0.459,0.361-1.078,0.543-1.863,0.543c-0.887,0-1.541-0.156-1.953-0.466c-0.416-0.315-0.627-0.798-0.627-1.458V217.512z"/>
		</g>
	</g>
	<g>
		<g>
			<g>
				<path fill="#FFFFFF" d="M72.419,305.342l2.758-7.182h1.025l2.936,7.182h-1.08l-0.84-2.176h-3l-0.791,2.176H72.419z
					 M74.492,302.395h2.432l-0.746-1.992c-0.229-0.604-0.4-1.1-0.51-1.488c-0.09,0.461-0.221,0.918-0.387,1.371L74.492,302.395z"/>
			</g>
			<g>
				<path fill="#FFFFFF" d="M83.179,303.436l0.869,0.113c-0.092,0.596-0.334,1.064-0.725,1.406
					c-0.391,0.336-0.871,0.504-1.439,0.504c-0.713,0-1.285-0.232-1.717-0.697c-0.432-0.467-0.648-1.135-0.648-2.002
					c0-0.561,0.094-1.053,0.277-1.475c0.188-0.42,0.475-0.736,0.852-0.949c0.381-0.211,0.795-0.314,1.24-0.314
					c0.566,0,1.029,0.143,1.389,0.429c0.359,0.284,0.59,0.688,0.688,1.218l-0.854,0.131c-0.082-0.349-0.227-0.611-0.434-0.789
					c-0.209-0.176-0.459-0.264-0.75-0.264c-0.447,0-0.809,0.16-1.088,0.479c-0.273,0.318-0.418,0.82-0.418,1.51
					c0,0.699,0.137,1.209,0.404,1.525c0.268,0.314,0.619,0.475,1.051,0.475c0.346,0,0.635-0.107,0.865-0.316
					C82.974,304.2,83.121,303.877,83.179,303.436z"/>
			</g>
			<g>
				<path fill="#FFFFFF" d="M86.73,304.553l0.129,0.777c-0.25,0.055-0.475,0.08-0.666,0.08c-0.32,0-0.568-0.051-0.746-0.15
					c-0.176-0.104-0.299-0.236-0.371-0.398c-0.072-0.168-0.111-0.514-0.111-1.045v-2.994h-0.646v-0.686h0.646v-1.285l0.879-0.529
					v1.814h0.887v0.686h-0.887v3.043c0,0.254,0.018,0.414,0.045,0.486c0.031,0.072,0.084,0.129,0.152,0.172
					c0.07,0.041,0.172,0.062,0.303,0.062C86.441,304.586,86.572,304.574,86.73,304.553z"/>
			</g>
			<g>
				<path fill="#FFFFFF" d="M87.597,299.172v-1.012h0.881v1.012H87.597z M87.597,305.342v-5.205h0.881v5.205H87.597z"/>
			</g>
			<g>
				<path fill="#FFFFFF" d="M91.265,305.342l-1.977-5.205h0.926l1.121,3.119c0.119,0.334,0.232,0.684,0.33,1.047
					c0.082-0.273,0.191-0.604,0.33-0.99l1.156-3.176h0.908l-1.971,5.205H91.265z"/>
			</g>
			<g>
				<path fill="#FFFFFF" d="M94.843,299.172v-1.012h0.883v1.012H94.843z M94.843,305.342v-5.205h0.883v5.205H94.843z"/>
			</g>
			<g>
				<path fill="#FFFFFF" d="M100.443,305.342v-0.656c-0.33,0.514-0.814,0.773-1.455,0.773c-0.414,0-0.795-0.115-1.145-0.343
					c-0.346-0.229-0.615-0.546-0.807-0.958c-0.193-0.408-0.287-0.881-0.287-1.414c0-0.518,0.086-0.992,0.26-1.414
					s0.434-0.746,0.779-0.971s0.732-0.338,1.16-0.338c0.312,0,0.594,0.062,0.838,0.199c0.246,0.131,0.445,0.305,0.598,0.514v-2.574
					h0.877v7.182H100.443z M97.656,302.744c0,0.666,0.141,1.166,0.42,1.494c0.283,0.332,0.613,0.496,0.996,0.496
					c0.385,0,0.713-0.158,0.98-0.473c0.273-0.314,0.406-0.799,0.406-1.443c0-0.713-0.137-1.234-0.412-1.566
					c-0.273-0.334-0.611-0.5-1.014-0.5c-0.395,0-0.719,0.158-0.98,0.479C97.785,301.551,97.656,302.053,97.656,302.744z"/>
			</g>
			<g>
				<path fill="#FFFFFF" d="M106.044,304.699c-0.326,0.279-0.643,0.473-0.943,0.588c-0.305,0.115-0.629,0.172-0.973,0.172
					c-0.574,0-1.012-0.141-1.318-0.42c-0.309-0.277-0.459-0.635-0.459-1.07c0-0.254,0.057-0.486,0.172-0.699
					c0.115-0.209,0.27-0.377,0.457-0.506c0.186-0.127,0.398-0.225,0.633-0.287c0.174-0.047,0.434-0.092,0.783-0.133
					c0.713-0.084,1.238-0.186,1.572-0.305c0.004-0.121,0.004-0.197,0.004-0.232c0-0.356-0.082-0.609-0.246-0.76
					c-0.227-0.195-0.561-0.295-1.008-0.295c-0.41,0-0.719,0.07-0.916,0.217c-0.197,0.145-0.344,0.402-0.438,0.771l-0.865-0.117
					c0.08-0.371,0.209-0.668,0.389-0.893c0.182-0.229,0.441-0.404,0.777-0.523c0.34-0.127,0.736-0.186,1.182-0.186
					s0.807,0.053,1.08,0.156c0.281,0.104,0.482,0.232,0.613,0.393c0.133,0.16,0.225,0.361,0.277,0.6
					c0.027,0.152,0.045,0.426,0.045,0.816v1.176c0,0.818,0.016,1.34,0.057,1.557c0.037,0.215,0.111,0.424,0.221,0.623h-0.918
					C106.128,305.158,106.072,304.943,106.044,304.699z M105.968,302.73c-0.316,0.131-0.797,0.24-1.438,0.334
					c-0.365,0.052-0.619,0.111-0.77,0.176s-0.264,0.16-0.348,0.287c-0.082,0.125-0.123,0.264-0.123,0.418
					c0,0.236,0.088,0.43,0.268,0.588c0.176,0.156,0.439,0.232,0.779,0.232s0.645-0.072,0.908-0.221
					c0.26-0.146,0.459-0.352,0.584-0.611c0.092-0.199,0.139-0.49,0.139-0.881V302.73z"/>
			</g>
			<g>
				<path fill="#FFFFFF" d="M111.603,305.342v-0.656c-0.328,0.514-0.814,0.773-1.455,0.773c-0.414,0-0.795-0.115-1.145-0.343
					c-0.344-0.229-0.617-0.546-0.807-0.958c-0.191-0.408-0.285-0.881-0.285-1.414c0-0.518,0.086-0.992,0.258-1.414
					c0.174-0.422,0.432-0.746,0.777-0.971s0.736-0.338,1.164-0.338c0.311,0,0.594,0.062,0.836,0.199
					c0.246,0.131,0.443,0.305,0.598,0.514v-2.574h0.877v7.182H111.603z M108.818,302.744c0,0.666,0.139,1.166,0.42,1.494
					c0.277,0.332,0.609,0.496,0.992,0.496c0.389,0,0.715-0.158,0.984-0.473s0.402-0.799,0.402-1.443
					c0-0.713-0.135-1.234-0.412-1.566c-0.271-0.334-0.609-0.5-1.01-0.5c-0.396,0-0.723,0.158-0.982,0.479
					C108.947,301.551,108.818,302.053,108.818,302.744z"/>
			</g>
		</g>
		<g>
			<g>
				<path fill="#FFFFFF" d="M60.986,314.562l2.756-7.18h1.021l2.941,7.18h-1.082l-0.836-2.174h-3.004l-0.787,2.174H60.986z
					 M63.058,311.616h2.434l-0.75-1.989c-0.229-0.604-0.398-1.1-0.51-1.49c-0.094,0.461-0.221,0.918-0.387,1.373L63.058,311.616z"/>
			</g>
			<g>
				<path fill="#FFFFFF" d="M68.564,314.562v-4.516h-0.777v-0.688h0.777v-0.553c0-0.35,0.031-0.606,0.094-0.777
					c0.084-0.227,0.232-0.416,0.449-0.557c0.213-0.143,0.512-0.213,0.896-0.213c0.248,0,0.523,0.029,0.824,0.088l-0.133,0.771
					c-0.184-0.035-0.357-0.051-0.521-0.051c-0.266,0-0.455,0.059-0.566,0.17c-0.109,0.117-0.166,0.33-0.166,0.645v0.477h1.016v0.688
					h-1.016v4.516H68.564z"/>
			</g>
			<g>
				<path fill="#FFFFFF" d="M71.146,308.398v-1.016h0.881v1.016H71.146z M71.146,314.562v-5.203h0.881v5.203H71.146z"/>
			</g>
			<g>
				<path fill="#FFFFFF" d="M76.763,313.924c-0.324,0.276-0.639,0.475-0.939,0.586c-0.305,0.115-0.629,0.172-0.975,0.172
					c-0.57,0-1.012-0.141-1.318-0.42c-0.309-0.277-0.459-0.633-0.459-1.068c0-0.256,0.059-0.488,0.174-0.699
					c0.117-0.209,0.266-0.379,0.455-0.506c0.186-0.127,0.398-0.225,0.635-0.289c0.17-0.045,0.436-0.09,0.785-0.133
					c0.711-0.084,1.236-0.188,1.572-0.305c0-0.119,0.004-0.197,0.004-0.229c0-0.359-0.084-0.615-0.25-0.76
					c-0.229-0.199-0.561-0.297-1.004-0.297c-0.414,0-0.725,0.07-0.918,0.215c-0.199,0.145-0.348,0.404-0.439,0.773l-0.863-0.119
					c0.076-0.371,0.207-0.666,0.389-0.893c0.178-0.229,0.436-0.4,0.775-0.523c0.342-0.123,0.736-0.186,1.186-0.186
					c0.439,0,0.803,0.053,1.08,0.156c0.275,0.104,0.482,0.234,0.611,0.396c0.133,0.158,0.225,0.357,0.275,0.598
					c0.029,0.152,0.047,0.42,0.047,0.812v1.178c0,0.82,0.018,1.338,0.051,1.555c0.041,0.219,0.115,0.427,0.227,0.623h-0.92
					C76.847,314.379,76.791,314.168,76.763,313.924z M76.693,311.955c-0.318,0.129-0.803,0.24-1.439,0.33
					c-0.367,0.055-0.619,0.113-0.771,0.174c-0.148,0.068-0.268,0.164-0.348,0.291c-0.082,0.125-0.123,0.266-0.123,0.418
					c0,0.238,0.088,0.43,0.268,0.588c0.18,0.156,0.439,0.235,0.783,0.235c0.338,0,0.641-0.073,0.906-0.224
					c0.264-0.146,0.455-0.35,0.58-0.609c0.096-0.199,0.145-0.49,0.145-0.881V311.955z"/>
			</g>
			<g>
				<path fill="#FFFFFF" d="M78.953,314.562v-5.203h0.793v0.742c0.381-0.572,0.928-0.857,1.654-0.857
					c0.311,0,0.602,0.057,0.861,0.172c0.268,0.111,0.461,0.258,0.594,0.441c0.131,0.182,0.223,0.4,0.273,0.652
					c0.035,0.164,0.049,0.445,0.049,0.855v3.197h-0.881V311.4c0-0.361-0.035-0.627-0.104-0.805s-0.189-0.322-0.365-0.428
					c-0.174-0.104-0.379-0.16-0.615-0.16c-0.375,0-0.699,0.119-0.973,0.357c-0.271,0.24-0.408,0.689-0.408,1.357v2.84H78.953z"/>
			</g>
			<g>
				<path fill="#FFFFFF" d="M84.066,314.562v-0.715l3.312-3.801c-0.375,0.021-0.709,0.029-0.998,0.029h-2.121v-0.717h4.252v0.586
					l-2.816,3.301l-0.543,0.602c0.395-0.025,0.766-0.041,1.111-0.041h2.408v0.756H84.066z"/>
			</g>
			<g>
				<path fill="#FFFFFF" d="M92.943,313.924c-0.328,0.276-0.641,0.475-0.943,0.586c-0.301,0.115-0.625,0.172-0.973,0.172
					c-0.574,0-1.014-0.141-1.32-0.42c-0.307-0.277-0.459-0.633-0.459-1.068c0-0.256,0.057-0.488,0.172-0.699
					c0.119-0.209,0.273-0.379,0.459-0.506c0.189-0.127,0.398-0.225,0.633-0.289c0.176-0.045,0.434-0.09,0.785-0.133
					c0.713-0.084,1.236-0.188,1.572-0.305c0.004-0.119,0.006-0.197,0.006-0.229c0-0.359-0.082-0.615-0.248-0.76
					c-0.23-0.199-0.562-0.297-1.008-0.297c-0.414,0-0.721,0.07-0.916,0.215c-0.199,0.145-0.344,0.404-0.441,0.773l-0.861-0.119
					c0.078-0.371,0.207-0.666,0.389-0.893c0.18-0.229,0.439-0.4,0.777-0.523c0.34-0.123,0.732-0.186,1.184-0.186
					c0.441,0,0.803,0.053,1.08,0.156s0.482,0.234,0.615,0.396c0.129,0.158,0.219,0.357,0.273,0.598
					c0.029,0.152,0.043,0.42,0.043,0.812v1.178c0,0.82,0.018,1.338,0.057,1.555c0.035,0.219,0.109,0.427,0.223,0.623h-0.92
					C93.029,314.379,92.968,314.168,92.943,313.924z M92.869,311.955c-0.322,0.129-0.797,0.24-1.441,0.33
					c-0.359,0.055-0.615,0.113-0.768,0.174c-0.148,0.068-0.266,0.164-0.35,0.291c-0.082,0.125-0.119,0.266-0.119,0.418
					c0,0.238,0.086,0.43,0.264,0.588c0.176,0.156,0.439,0.235,0.783,0.235c0.342,0,0.641-0.073,0.906-0.224
					c0.266-0.146,0.461-0.35,0.582-0.609c0.096-0.199,0.143-0.49,0.143-0.881V311.955z"/>
			</g>
			<g>
				<path fill="#FFFFFF" d="M95.126,314.562v-5.203h0.789v0.732c0.164-0.256,0.379-0.459,0.65-0.617
					c0.273-0.152,0.582-0.23,0.928-0.23c0.385,0,0.701,0.078,0.949,0.24c0.246,0.162,0.418,0.385,0.521,0.67
					c0.408-0.605,0.947-0.91,1.607-0.91c0.514,0,0.91,0.143,1.189,0.43c0.279,0.285,0.416,0.725,0.416,1.316v3.572h-0.879v-3.275
					c0-0.354-0.025-0.605-0.084-0.762c-0.057-0.154-0.16-0.279-0.311-0.375c-0.152-0.096-0.328-0.143-0.529-0.143
					c-0.365,0-0.67,0.123-0.912,0.367c-0.24,0.241-0.361,0.633-0.361,1.168v3.02h-0.883v-3.379c0-0.391-0.072-0.686-0.213-0.881
					c-0.145-0.197-0.383-0.295-0.709-0.295c-0.248,0-0.477,0.066-0.686,0.195c-0.213,0.131-0.367,0.324-0.461,0.574
					c-0.098,0.252-0.141,0.613-0.141,1.088v2.697H95.126z"/>
			</g>
			<g>
				<path fill="#FFFFFF" d="M103.49,308.398v-1.016h0.881v1.016H103.49z M103.49,314.562v-5.203h0.881v5.203H103.49z"/>
			</g>
			<g>
				<path fill="#FFFFFF" d="M109.277,312.889l0.91,0.115c-0.145,0.531-0.41,0.943-0.799,1.236c-0.387,0.295-0.883,0.441-1.49,0.441
					c-0.76,0-1.359-0.232-1.805-0.703c-0.453-0.465-0.672-1.127-0.672-1.971c0-0.875,0.225-1.558,0.676-2.039
					c0.449-0.482,1.033-0.725,1.754-0.725c0.695,0,1.266,0.236,1.703,0.711c0.441,0.473,0.664,1.139,0.664,2
					c0,0.053-0.004,0.129-0.006,0.234h-3.881c0.035,0.572,0.195,1.01,0.484,1.312c0.293,0.305,0.652,0.453,1.088,0.453
					c0.324,0,0.602-0.084,0.83-0.252S109.14,313.264,109.277,312.889z M106.38,311.461h2.906c-0.039-0.434-0.15-0.764-0.332-0.98
					c-0.283-0.342-0.646-0.512-1.092-0.512c-0.406,0-0.75,0.137-1.025,0.408C106.564,310.646,106.41,311.01,106.38,311.461z"/>
			</g>
			<g>
				<path fill="#FFFFFF" d="M111.296,314.562v-5.203h0.791v0.742c0.381-0.572,0.934-0.857,1.658-0.857
					c0.312,0,0.598,0.057,0.865,0.172c0.262,0.111,0.459,0.258,0.592,0.441c0.131,0.182,0.219,0.4,0.273,0.652
					c0.029,0.164,0.045,0.445,0.045,0.855v3.197h-0.881V311.4c0-0.361-0.033-0.627-0.102-0.805c-0.07-0.178-0.193-0.322-0.367-0.428
					c-0.172-0.104-0.377-0.16-0.611-0.16c-0.381,0-0.703,0.119-0.975,0.357c-0.271,0.24-0.408,0.689-0.408,1.357v2.84H111.296z"/>
			</g>
			<g>
				<path fill="#FFFFFF" d="M118.802,313.777l0.125,0.779c-0.25,0.049-0.469,0.076-0.666,0.076c-0.32,0-0.568-0.049-0.742-0.152
					c-0.18-0.102-0.301-0.232-0.375-0.396c-0.072-0.166-0.105-0.514-0.105-1.041v-2.996h-0.65v-0.688h0.65v-1.285l0.875-0.531v1.816
					h0.889v0.688h-0.889v3.045c0,0.25,0.014,0.41,0.047,0.482c0.031,0.072,0.082,0.131,0.152,0.172
					c0.07,0.045,0.172,0.062,0.299,0.062C118.511,313.809,118.64,313.801,118.802,313.777z"/>
			</g>
			<g>
				<path fill="#FFFFFF" d="M119.335,311.963c0-0.963,0.266-1.678,0.801-2.141c0.451-0.385,0.994-0.578,1.641-0.578
					c0.715,0,1.299,0.23,1.754,0.703c0.453,0.471,0.68,1.115,0.68,1.943c0,0.67-0.102,1.193-0.303,1.578
					c-0.199,0.385-0.492,0.684-0.877,0.895c-0.383,0.215-0.803,0.318-1.254,0.318c-0.73,0-1.32-0.232-1.768-0.701
					C119.554,313.514,119.335,312.844,119.335,311.963z M120.242,311.963c0,0.666,0.145,1.164,0.432,1.496
					c0.295,0.334,0.662,0.496,1.104,0.496c0.436,0,0.801-0.162,1.092-0.5c0.289-0.328,0.434-0.839,0.434-1.521
					c0-0.643-0.146-1.131-0.439-1.463c-0.287-0.33-0.654-0.494-1.086-0.494c-0.441,0-0.809,0.162-1.104,0.492
					C120.386,310.799,120.242,311.297,120.242,311.963z"/>
			</g>
		</g>
	</g>
	<g>
		<path fill-rule="evenodd" clip-rule="evenodd" fill="#FFFFFF" d="M146.974,314.916c0.043-0.182,0.07-0.369,0.129-0.545
			c0.322-0.969,1.041-1.51,1.979-1.809c0.078-0.023,0.156-0.041,0.25-0.066c0-0.861,0-1.719,0-2.578
			c0-0.172-0.004-0.344,0.002-0.516c0.014-0.434,0.35-0.797,0.785-0.824c0.301-0.018,0.602-0.004,0.896-0.004
			c0.094-0.561,0.229-0.729,0.58-0.738c0.379-0.014,0.527,0.15,0.646,0.717c0.262,0,0.525,0,0.807,0
			c-0.094-0.422-0.057-0.816,0.293-1.08c0.184-0.139,0.439-0.254,0.664-0.254c4.074-0.016,8.148-0.014,12.225-0.012
			c0.633,0.002,1.098,0.564,0.988,1.184c-0.008,0.049-0.008,0.096-0.014,0.176c0.1,0,0.188,0,0.275,0
			c0.811,0,1.619-0.002,2.43,0.002c0.658,0,1.002,0.334,1.004,0.992c0.008,1.564,0.006,3.127,0,4.689
			c-0.002,0.664-0.342,0.996-1.002,0.998c-6.531,0.002-13.061,0.002-19.59-0.002c-0.66,0-0.988-0.336-0.99-1.002
			c0-0.146,0-0.294,0-0.441c-0.504,0.055-1.002,0.631-1.033,1.188c-0.043,0.756,0.432,1.371,1.25,1.594
			c0.625,0.17,1.264,0.234,1.914,0.223c0.867-0.014,1.74-0.061,2.598,0.037c1.775,0.207,3.217,1.078,4.352,2.449
			c0.309,0.371,0.199,0.736-0.291,1.073c-0.098,0-0.195,0-0.295,0c-0.113-0.103-0.229-0.206-0.344-0.306
			c-0.434-0.383-0.834-0.814-1.309-1.137c-1.123-0.762-2.402-0.945-3.736-0.93c-0.887,0.01-1.783,0.006-2.66-0.102
			c-1.07-0.129-1.918-0.697-2.439-1.654c-0.191-0.354-0.246-0.781-0.363-1.174C146.974,315.014,146.974,314.965,146.974,314.916z"/>
		<path fill-rule="evenodd" clip-rule="evenodd" fill="#FFFFFF" d="M158.564,292.477c0.236,0.055,0.48,0.088,0.707,0.17
			c1.361,0.498,2.229,1.447,2.467,2.885c0.238,1.451-0.281,2.633-1.445,3.523c-0.137,0.105-0.182,0.197-0.146,0.365
			c0.346,1.627,0.684,3.256,1.023,4.883c0.014,0.063,0.035,0.125,0.061,0.213c0.084,0,0.172,0,0.26,0
			c0.646,0,1.293-0.006,1.939,0.004c0.516,0.008,0.838,0.43,0.674,0.865c-0.047,0.125-0.115,0.193-0.268,0.193
			c-2.471-0.004-4.943-0.006-7.414,0c-0.225,0-0.283-0.128-0.309-0.297c-0.07-0.438,0.223-0.756,0.709-0.762
			c0.539-0.008,1.078-0.004,1.619-0.004c0.088,0,0.178,0,0.305,0c-0.096-0.465-0.186-0.908-0.277-1.352
			c-0.225-1.068-0.455-2.137-0.668-3.209c-0.033-0.168-0.102-0.221-0.26-0.246c-1.5-0.252-2.646-1.365-2.961-2.863
			c-0.428-2.047,0.965-4.029,3.039-4.324c0.037-0.008,0.072-0.031,0.109-0.045C158.007,292.477,158.285,292.477,158.564,292.477z
			 M160.421,295.967c-0.037-0.865-0.328-1.473-0.988-1.871c-0.324-0.193-0.611-0.127-0.783,0.158
			c-0.168,0.273-0.092,0.475,0.254,0.691c0.43,0.27,0.613,0.736,0.482,1.227c-0.021,0.08-0.049,0.156-0.059,0.238
			c-0.027,0.246,0.168,0.52,0.4,0.578c0.229,0.059,0.453-0.072,0.537-0.346C160.343,296.389,160.386,296.121,160.421,295.967z"/>
		<path fill-rule="evenodd" clip-rule="evenodd" fill="#FFFFFF" d="M160.115,306.91c-1.85,0-3.697,0-5.547,0
			c-0.248-0.002-0.293-0.055-0.27-0.305c0.037-0.395,0.338-0.695,0.732-0.73c0.082-0.009,0.162-0.01,0.244-0.01
			c3.232,0,6.465,0.001,9.695-0.002c0.336,0,0.637,0.055,0.832,0.361c0.051,0.082,0.096,0.174,0.117,0.266
			c0.078,0.348,0.018,0.42-0.332,0.42C163.763,306.91,161.939,306.91,160.115,306.91z"/>
	</g>
	<g>
		<path fill="#FFFFFF" d="M62.697,68.924v-9.076h1.932l1.951,6.238c0.035,0.133,0.086,0.316,0.15,0.559
			c0.062,0.24,0.139,0.533,0.225,0.883c0.059-0.297,0.121-0.57,0.18-0.822c0.061-0.255,0.115-0.464,0.162-0.631l1.902-6.227h1.865
			v9.076h-1.107v-6.492c0-0.367,0.002-0.701,0.006-0.994c0.002-0.299,0.01-0.598,0.018-0.906l-2.559,8.393H66.4l-2.621-8.477
			c0.014,0.322,0.02,0.669,0.025,1.043c0.01,0.375,0.012,0.771,0.012,1.195v6.238H62.697z"/>
		<path fill="#FFFFFF" d="M73.646,64.246h-1.162v-0.123c0-0.549,0.188-0.965,0.568-1.25s0.939-0.428,1.678-0.428
			c0.729,0,1.266,0.148,1.609,0.445c0.346,0.297,0.518,0.764,0.518,1.393v2.955c0,0.291,0.01,0.576,0.029,0.859
			c0.018,0.279,0.043,0.555,0.082,0.826h-1.082l-0.074-0.795c-0.215,0.275-0.463,0.486-0.744,0.633
			c-0.283,0.147-0.58,0.221-0.895,0.221c-0.537,0-0.973-0.176-1.307-0.532c-0.338-0.358-0.506-0.825-0.506-1.403
			c0-0.725,0.232-1.273,0.705-1.643c0.469-0.37,1.17-0.555,2.102-0.555h0.607v-0.311c0-0.5-0.072-0.84-0.221-1.031
			c-0.143-0.186-0.395-0.281-0.752-0.281c-0.381,0-0.668,0.08-0.863,0.242c-0.193,0.162-0.293,0.402-0.293,0.717V64.246z
			 M75.787,65.605c-0.873,0-1.482,0.102-1.826,0.307c-0.344,0.203-0.516,0.547-0.516,1.029c0,0.312,0.094,0.572,0.279,0.779
			c0.191,0.207,0.43,0.311,0.717,0.311c0.426,0,0.758-0.166,0.992-0.5c0.236-0.336,0.354-0.814,0.354-1.432V65.605z"/>
		<path fill="#FFFFFF" d="M78.25,71.314v-7.598c0-0.322-0.004-0.561-0.012-0.713c-0.01-0.15-0.023-0.287-0.043-0.406h1.109
			l0.064,0.603c0.197-0.257,0.418-0.448,0.662-0.577c0.244-0.127,0.518-0.191,0.826-0.191c0.711,0,1.23,0.26,1.564,0.783
			c0.332,0.52,0.498,1.34,0.498,2.459c0,1.16-0.168,2.018-0.506,2.572c-0.336,0.555-0.854,0.83-1.557,0.83
			c-0.324,0-0.611-0.072-0.863-0.219c-0.252-0.145-0.469-0.363-0.65-0.657v3.114H78.25z M79.332,65.784
			c0,0.821,0.105,1.421,0.314,1.8c0.209,0.381,0.537,0.57,0.984,0.57c0.406,0,0.703-0.191,0.889-0.576
			c0.188-0.383,0.277-0.996,0.277-1.84c0-0.941-0.092-1.592-0.281-1.955c-0.188-0.363-0.51-0.545-0.967-0.545
			c-0.424,0-0.734,0.199-0.928,0.596S79.332,64.885,79.332,65.784z"/>
		<path fill="#FFFFFF" d="M85.218,64.246h-1.164v-0.123c0-0.549,0.191-0.965,0.572-1.25c0.379-0.285,0.938-0.428,1.676-0.428
			c0.73,0,1.268,0.148,1.611,0.445c0.342,0.297,0.516,0.764,0.516,1.393v2.955c0,0.291,0.01,0.576,0.029,0.859
			c0.02,0.279,0.047,0.555,0.084,0.826h-1.084l-0.074-0.795c-0.213,0.275-0.463,0.486-0.746,0.633
			c-0.279,0.147-0.578,0.221-0.889,0.221c-0.537,0-0.975-0.176-1.311-0.532c-0.336-0.358-0.504-0.825-0.504-1.403
			c0-0.725,0.234-1.273,0.701-1.643c0.471-0.37,1.172-0.555,2.104-0.555h0.605v-0.311c0-0.5-0.07-0.84-0.215-1.031
			c-0.146-0.186-0.396-0.281-0.754-0.281c-0.383,0-0.67,0.08-0.865,0.242c-0.193,0.162-0.293,0.402-0.293,0.717V64.246z
			 M87.361,65.605c-0.875,0-1.482,0.102-1.828,0.307c-0.344,0.203-0.518,0.547-0.518,1.029c0,0.312,0.096,0.572,0.281,0.779
			c0.191,0.207,0.43,0.311,0.715,0.311c0.428,0,0.76-0.166,0.994-0.5c0.238-0.336,0.355-0.814,0.355-1.432V65.605z"/>
		<path fill="#FFFFFF" d="M56.468,76.623v0.203c0,0.863-0.227,1.531-0.682,2.014c-0.457,0.482-1.09,0.725-1.902,0.725
			c-0.385,0-0.746-0.057-1.082-0.166c-0.334-0.111-0.602-0.262-0.807-0.457c-0.344-0.314-0.588-0.77-0.73-1.363
			c-0.141-0.596-0.213-1.562-0.213-2.893c0-0.93,0.045-1.646,0.135-2.146c0.088-0.5,0.234-0.92,0.443-1.256
			c0.207-0.336,0.504-0.594,0.891-0.775c0.389-0.182,0.838-0.27,1.352-0.27c0.824,0,1.453,0.23,1.883,0.691
			c0.436,0.461,0.65,1.135,0.65,2.014h-1.271v-0.133c0-0.543-0.107-0.945-0.324-1.213s-0.541-0.4-0.975-0.4
			c-0.275,0-0.516,0.055-0.723,0.158c-0.207,0.107-0.375,0.264-0.502,0.469s-0.217,0.516-0.273,0.932
			c-0.051,0.42-0.076,1.209-0.076,2.373c0,1.375,0.115,2.295,0.348,2.762c0.229,0.467,0.641,0.701,1.227,0.701
			c0.467,0,0.812-0.152,1.037-0.457c0.221-0.307,0.336-0.777,0.336-1.406v-0.105H56.468z"/>
		<path fill="#FFFFFF" d="M57.679,76.248c0-1.15,0.191-1.988,0.57-2.51s0.984-0.781,1.812-0.781c0.832,0,1.436,0.26,1.809,0.777
			c0.373,0.52,0.557,1.363,0.557,2.527c0,1.162-0.186,2.006-0.561,2.529s-0.979,0.785-1.805,0.785c-0.84,0-1.443-0.262-1.818-0.785
			S57.679,77.42,57.679,76.248z M60.062,73.879c-0.451,0-0.777,0.188-0.977,0.553c-0.199,0.371-0.297,0.978-0.297,1.83
			c0,0.865,0.098,1.479,0.295,1.844s0.523,0.549,0.979,0.549c0.449,0,0.773-0.184,0.969-0.549c0.191-0.365,0.291-0.975,0.291-1.832
			c0-0.871-0.1-1.486-0.291-1.85C60.835,74.061,60.511,73.879,60.062,73.879z"/>
		<path fill="#FFFFFF" d="M67.054,79.424v-4.043c0-0.615-0.076-1.035-0.234-1.266c-0.158-0.227-0.43-0.342-0.811-0.342
			c-0.43,0-0.746,0.16-0.939,0.479c-0.197,0.318-0.297,0.822-0.297,1.516v3.656h-1.082v-5.328c0-0.137-0.006-0.285-0.018-0.449
			c-0.008-0.164-0.023-0.346-0.043-0.549h1.105l0.049,0.732c0.221-0.307,0.469-0.531,0.736-0.674
			c0.27-0.143,0.582-0.213,0.938-0.213c0.521,0,0.932,0.154,1.238,0.459c0.303,0.305,0.455,0.721,0.455,1.246v4.775H67.054z"/>
		<path fill="#FFFFFF" d="M72.923,77.283h1.088c-0.01,0.725-0.215,1.289-0.615,1.689c-0.4,0.402-0.953,0.604-1.658,0.604
			c-0.834,0-1.436-0.258-1.811-0.775c-0.373-0.517-0.559-1.361-0.559-2.527c0-1.168,0.186-2.014,0.559-2.535
			c0.375-0.521,0.977-0.781,1.811-0.781c0.672,0,1.215,0.18,1.627,0.537c0.412,0.359,0.619,0.832,0.619,1.42v0.133h-1.072
			c0-0.367-0.096-0.652-0.291-0.861c-0.197-0.203-0.469-0.307-0.824-0.307c-0.479,0-0.818,0.178-1.02,0.529
			c-0.201,0.354-0.303,0.975-0.303,1.865c0,0.865,0.1,1.479,0.295,1.838c0.193,0.361,0.518,0.543,0.969,0.543
			c0.35,0,0.635-0.123,0.85-0.373C72.798,78.033,72.912,77.699,72.923,77.283z"/>
		<path fill="#FFFFFF" d="M79.693,77.439c-0.033,0.672-0.25,1.195-0.65,1.572c-0.398,0.377-0.939,0.564-1.621,0.564
			c-0.844,0-1.453-0.258-1.816-0.775c-0.367-0.517-0.553-1.381-0.553-2.59c0-1.137,0.189-1.963,0.566-2.479
			c0.379-0.518,0.977-0.775,1.803-0.775c0.783,0,1.357,0.205,1.725,0.617c0.363,0.414,0.547,1.064,0.547,1.955v0.984h-3.521v0.361
			c0,0.625,0.102,1.075,0.301,1.355c0.197,0.283,0.516,0.424,0.949,0.424c0.334,0,0.6-0.105,0.801-0.314
			c0.205-0.209,0.332-0.51,0.389-0.9H79.693z M76.177,75.695h2.445v-0.541c0-0.477-0.1-0.84-0.295-1.084
			c-0.197-0.244-0.488-0.367-0.869-0.367c-0.426,0-0.744,0.158-0.953,0.479C76.298,74.502,76.193,75.004,76.177,75.695z"/>
		<path fill="#FFFFFF" d="M80.88,81.814v-7.596c0-0.324-0.004-0.561-0.012-0.715c-0.01-0.15-0.025-0.287-0.043-0.406h1.113
			L82,73.703c0.197-0.262,0.418-0.453,0.662-0.58s0.518-0.191,0.826-0.191c0.711,0,1.23,0.262,1.564,0.783
			c0.332,0.52,0.496,1.34,0.496,2.461c0,1.16-0.168,2.018-0.504,2.57c-0.336,0.555-0.854,0.83-1.557,0.83
			c-0.322,0-0.611-0.072-0.863-0.219c-0.252-0.145-0.469-0.363-0.652-0.654v3.111H80.88z M81.962,76.284
			c0,0.821,0.105,1.423,0.314,1.8c0.209,0.379,0.537,0.57,0.984,0.57c0.406,0,0.703-0.191,0.889-0.576
			c0.188-0.383,0.277-0.998,0.277-1.844c0-0.939-0.092-1.588-0.279-1.951c-0.189-0.363-0.512-0.545-0.969-0.545
			c-0.424,0-0.734,0.199-0.928,0.598C82.06,74.732,81.962,75.383,81.962,76.284z"/>
		<path fill="#FFFFFF" d="M88.222,71.307v1.791h1.264v0.781h-1.264v3.789c0,0.342,0.055,0.576,0.158,0.707
			c0.105,0.129,0.297,0.191,0.576,0.191c0.098,0,0.262-0.006,0.492-0.023h0.037l-0.006,0.818c-0.168,0.037-0.326,0.064-0.475,0.082
			c-0.146,0.02-0.287,0.029-0.412,0.029c-0.533,0-0.908-0.106-1.125-0.314s-0.328-0.58-0.328-1.107v-4.172h-0.961v-0.781h0.961
			v-1.273L88.222,71.307z"/>
		<path fill="#FFFFFF" d="M91.443,73.098v4.029c0,0.611,0.078,1.031,0.23,1.258c0.158,0.229,0.43,0.344,0.814,0.344
			c0.428,0,0.738-0.158,0.934-0.473c0.199-0.314,0.297-0.816,0.297-1.504v-3.654h1.084v5.328c0.002,0.141,0.01,0.291,0.02,0.457
			c0.012,0.162,0.023,0.342,0.041,0.541h-1.102l-0.055-0.746c-0.221,0.309-0.469,0.535-0.738,0.68
			c-0.271,0.146-0.582,0.219-0.936,0.219c-0.521,0-0.932-0.152-1.236-0.457c-0.303-0.305-0.457-0.721-0.457-1.246v-4.775H91.443z"/>
		<path fill="#FFFFFF" d="M97.275,74.746h-1.164v-0.123c0-0.549,0.188-0.965,0.568-1.252c0.381-0.283,0.939-0.428,1.678-0.428
			c0.73,0,1.268,0.148,1.611,0.445c0.346,0.301,0.518,0.764,0.518,1.396v2.952c0,0.291,0.008,0.576,0.025,0.859
			c0.021,0.279,0.049,0.555,0.084,0.828h-1.084l-0.072-0.795c-0.213,0.273-0.461,0.486-0.744,0.633
			c-0.281,0.147-0.58,0.223-0.893,0.223c-0.537,0-0.973-0.178-1.309-0.534c-0.336-0.358-0.504-0.827-0.504-1.403
			c0-0.727,0.232-1.273,0.703-1.645c0.469-0.368,1.17-0.555,2.102-0.555h0.609v-0.313c0-0.495-0.074-0.837-0.219-1.026
			c-0.146-0.188-0.396-0.281-0.756-0.281c-0.383,0-0.668,0.08-0.861,0.242c-0.195,0.162-0.293,0.4-0.293,0.717V74.746z
			 M99.416,76.105c-0.873,0-1.482,0.102-1.828,0.304c-0.344,0.204-0.516,0.55-0.516,1.03c0,0.312,0.094,0.574,0.281,0.781
			c0.191,0.207,0.428,0.311,0.715,0.311c0.428,0,0.758-0.168,0.994-0.502c0.234-0.334,0.354-0.811,0.354-1.432V76.105z"/>
		<path fill="#FFFFFF" d="M102.947,79.424h-1.082v-9.076h1.082V79.424z"/>
	</g>
	<g>
		<path fill-rule="evenodd" clip-rule="evenodd" fill="#FFFFFF" d="M151.806,66.652h-8.436v-4.15h0.102
			c0.814-0.018,2.395-0.182,3.777-0.332c0.041,0.004,0.082,0.004,0.125,0.008l0.17-0.021c1.053,0.021,2.107,0.092,3.148,0.002
			c0.34-0.029,0.9-0.539,0.912-0.846c0.082-2.104,0.043-4.213,0.043-6.391h-13.424c0,0.021,0,0.047-0.004,0.068
			c-0.488-0.02-0.852-0.021-1.129-0.012c-0.018-0.049-0.033-0.098-0.053-0.146c-0.164,0.068-0.361,0.139-0.568,0.207
			c-0.004,0-0.004,0-0.004,0c-0.123,0.023-0.172,0.051-0.188,0.061c-0.008,0.004-0.01,0.006-0.01,0.006
			c-0.646,0.211-1.309,0.42-1.318,0.656c-0.094,2.193,0.098,4.4,0.203,6.756c2.594,0,5.129,0.031,7.656-0.006
			c-0.07,0.637-0.18,1.582-0.113,2.059c0.305,2.139,0.205,2.25-1.98,2.33c-1.787,0.068-3.568,0.248-5.348,0.379
			c0,1.027,0.018,2,0.021,2.941v0.002c-0.018-0.084-0.035-0.166-0.053-0.248c-1.252,0.226-6.369,0.9-7.396,1.51
			c-0.529,0.318-0.373,1.793-0.521,2.744c-0.023,0.148,0.031,0.334-0.039,0.447c-0.717,1.166,0.045,1.998,0.527,2.895
			c0.168-0.02,0.338-0.039,0.506-0.061c-0.139-1.287-0.236-2.58-0.428-3.859c-0.168-1.098-0.053-1.9,1.293-2.039
			c0.811-0.084,5.189-0.982,6.111-1.161v0.003c0.002,0.734-0.01,1.449-0.047,2.166c-0.055,1.119,0.283,1.508,1.438,1.49
			c4.096-0.059,8.197-0.008,12.295-0.041c0.512-0.004,1.02-0.242,1.527-0.373c0.004-0.002,0.004-0.002,0.008-0.006h0.016
			c-0.008,0.004-0.016,0.004-0.023,0.006c-0.004,0.005-0.006,0.01-0.008,0.014c1.43,0.346,1.67-0.652,1.643-1.635
			C152.193,70.366,151.976,68.67,151.806,66.652z"/>
		<path fill-rule="evenodd" clip-rule="evenodd" fill="#FFFFFF" d="M147.98,81.375c-0.074,0.002-0.148,0.008-0.223,0.014
			c-0.012-1.27-0.076-1.986-0.145-2.395c0.232,0.311,0.385,0.756,0.432,1.389c0.393-1.916-0.369-2.902-1.928-2.816
			c-1.783,0.096-3.57,0.234-5.357,0.268c-1.367,0.027-1.76,0.562-1.182,1.799c-0.182,0.213-0.523,0.422-0.525,0.639
			c-0.031,1.77-0.076,3.543,0.078,5.301c0.037,0.377,0.871,0.953,1.355,0.971c2.219,0.084,4.447-0.009,6.672-0.009
			c0.725,0,1.182-0.187,1.117-1.015C148.171,84.139,148.078,82.756,147.98,81.375z"/>
		<path fill-rule="evenodd" clip-rule="evenodd" fill="#FFFFFF" d="M163,81.006c0-0.004,0-0.004,0-0.006
			c-0.225-1.498-0.246-1.384-0.775-3.426c0.133,0,0.264-0.002,0.398-0.002c-0.004-0.201-0.006-0.402-0.006-0.605
			c-1.998,0-4.008-0.119-5.982,0.067c-0.639,0.065-1.199,0.944-1.797,1.454v6.256h8.326C163.097,83.334,163.437,82.109,163,81.006z"
			/>
		<path fill-rule="evenodd" clip-rule="evenodd" fill="#FFFFFF" d="M130.138,78.158c-1.814,0.312-3.635,0.598-5.447,0.896
			c-0.865-0.059-1.311,0.236-1.203,1.211c0.162,1.5,0.162,3.019,0.369,4.516c0.268,1.953,0.471,2.105,2.531,2.039
			c1.029-0.033,2.049-0.246,3.074-0.379c-0.025-0.004-0.053-0.012-0.076-0.018c0.943-0.055,1.635-0.23,1.711-0.252
			c0.004,0,0.006,0,0.006,0c0.533-0.059,1.068-0.117,1.613-0.174c-0.094-2.092-0.121-4.007-0.285-5.912
			C132.318,78.773,131.673,77.896,130.138,78.158z"/>
		<path fill-rule="evenodd" clip-rule="evenodd" fill="#FFFFFF" d="M159.789,75.863c0.184-0.031,0.365-0.062,0.549-0.094
			c-0.348-1.646-0.691-3.295-1.037-4.941c-0.25-0.281-0.49-0.801-0.75-0.809c-1.955-0.07-3.914-0.039-5.871-0.039
			c0.004,0.188,0.004,0.375,0.006,0.562c0.711,0,1.426-0.052,2.131,0.012c1.422,0.127,2.838,0.312,4.256,0.475
			C159.275,72.646,158.544,74.43,159.789,75.863z"/>
	</g>
	<g>
		<path fill="#FFFFFF" d="M144.949,101.604c0.758,0,1.518,0,2.275,0c0.131,0.043,0.26,0.105,0.393,0.125
			c5.248,0.771,8.812,3.648,10.662,8.604c0.367,0.98,0.506,2.049,0.75,3.076c0,0.76,0,1.518,0,2.275
			c-0.176,0.83-0.301,1.674-0.533,2.486c-2.279,7.973-11.168,11.719-18.465,7.773c-0.637-0.346-1.023-0.293-1.525,0.225
			c-1.846,1.904-3.752,3.75-5.607,5.645c-0.789,0.807-1.627,1.5-2.74,1.791c-0.332,0-0.664,0-0.996,0
			c-1.029-0.391-1.74-1.102-2.133-2.133c0-0.332,0-0.664,0-0.994c0.291-1.113,0.986-1.951,1.791-2.742
			c1.928-1.891,3.812-3.825,5.742-5.713c0.434-0.424,0.484-0.756,0.184-1.289c-1.115-1.971-1.65-4.094-1.645-6.373
			c0.018-5.281,3.479-10.209,8.494-11.926C142.679,102.062,143.83,101.875,144.949,101.604z M146.023,105
			c-5.297,0.027-9.576,4.301-9.588,9.574c-0.012,5.252,4.4,9.656,9.641,9.623c5.311-0.033,9.607-4.383,9.557-9.676
			C155.58,109.207,151.304,104.971,146.023,105z"/>
		<path fill-rule="evenodd" clip-rule="evenodd" fill="#FFFFFF" d="M149.302,110.012c-0.518-0.131-1.146-0.353-1.793-0.445
			c-2.584-0.373-4.848,0.828-6.057,3.137c-0.18,0.344-0.428,0.703-0.74,0.91c-0.498,0.332-1.047,0.24-1.504-0.166
			c-0.49-0.438-0.557-1.01-0.301-1.561c1.381-2.963,3.701-4.664,6.957-5.021c1.385-0.152,2.74,0.051,4.027,0.605
			c0.639,0.275,0.916,0.838,0.783,1.5C150.546,109.605,150.076,109.998,149.302,110.012z"/>
	</g>
</g>
</svg>
