<?xml version="1.0" encoding="utf-8"?>
<!-- Generator: Adobe Illustrator 16.0.0, SVG Export Plug-In . SVG Version: 6.00 Build 0)  -->
<!DOCTYPE svg PUBLIC "-//W3C//DTD SVG 1.1//EN" "http://www.w3.org/Graphics/SVG/1.1/DTD/svg11.dtd">
<svg version="1.1" id="Capa_1" xmlns="http://www.w3.org/2000/svg" xmlns:xlink="http://www.w3.org/1999/xlink" x="0px" y="0px"
	 width="830.221px" height="257.051px" viewBox="0 0 830.221 257.051" enable-background="new 0 0 830.221 257.051"
	 xml:space="preserve">
<g>
	<g>
		<g>
			<polygon fill-rule="evenodd" clip-rule="evenodd" fill="#ABC02F" points="581.113,257.052 392.018,257.052 382.018,222.19 
				571.113,222.19 			"/>
			<g>
				<g>
					<path d="M421.137,246.493c0.061,0.546,0.092,1.052,0.092,1.517c0,1.629-0.393,2.8-1.174,3.51
						c-1.025,0.929-2.32,1.48-3.885,1.652c-0.574,0.073-1.129,0.109-1.666,0.109c-0.967,0-1.895-0.104-2.785-0.314
						c-1.393-0.309-2.438-0.933-3.135-1.871c-0.635-0.846-0.953-1.926-0.953-3.236c0-0.146,0.006-0.297,0.02-0.451
						c0.072-1.521,0.484-2.779,1.236-3.777c0.752-0.996,1.891-1.719,3.418-2.164l0.055-2.5l3.902-0.055l0.055,4.549
						c-1.979,0.219-3.188,0.865-3.627,1.939c-0.307,0.746-0.459,1.475-0.459,2.186c0,0.301,0.031,0.596,0.092,0.888
						c0.184,0.956,0.971,1.435,2.363,1.435c0.025,0,0.057-0.005,0.092-0.014c1.223-0.019,1.832-0.843,1.832-2.473
						c0-0.31-0.018-0.643-0.055-0.997L421.137,246.493z M414.154,233.421c0.734,0,1.363,0.196,1.889,0.587
						c0.525,0.393,0.787,0.861,0.787,1.408c0,0.555-0.262,1.028-0.787,1.42s-1.154,0.588-1.889,0.588
						c-0.744,0-1.381-0.196-1.904-0.588c-0.525-0.392-0.789-0.865-0.789-1.42c0-0.547,0.264-1.016,0.789-1.408
						C412.773,233.617,413.41,233.421,414.154,233.421z"/>
					<path d="M436.986,248.842c-0.623-0.701-1.295-1.442-2.016-2.227c-1.074,0.475-2.352,0.711-3.83,0.711
						c-5.51,0-8.264-3.406-8.264-10.217c0-6.32,2.938-9.48,8.814-9.48c5.143,0,7.715,3.283,7.715,9.85
						c0,3.104-0.617,5.477-1.852,7.115c0.709,0.702,1.404,1.371,2.09,2.008L436.986,248.842z M428.025,237.847
						c-0.012,0.237-0.018,0.464-0.018,0.683c0,3.434,1.074,5.15,3.225,5.15c0.305,0,0.594-0.037,0.861-0.109
						c-0.758-0.802-1.557-1.635-2.4-2.5l2.621-2.145c0.66,0.756,1.307,1.488,1.941,2.199c0.27-0.875,0.404-1.967,0.404-3.278
						c0-3.897-1.064-5.847-3.189-5.847C429.334,232,428.186,233.949,428.025,237.847z"/>
					<path d="M450.088,247.75l-0.184-2.227c-0.512,1.184-1.893,1.78-4.141,1.789c-0.025,0.01-0.043,0.014-0.055,0.014
						c-2.223,0-3.695-0.746-4.416-2.24c-0.488-0.992-0.732-3.046-0.732-6.16c0-1.603,0.066-3.492,0.201-5.668h4.453
						c-0.246,3.059-0.367,5.413-0.367,7.061c0,0.83,0.031,1.476,0.092,1.94c0.184,1.421,0.799,2.131,1.85,2.131
						s1.711-0.369,1.98-1.106l-0.184-9.479l4.307-0.027c0,3.915,0.189,8.478,0.566,13.687L450.088,247.75z"/>
					<path d="M460.936,233.722c4.238,0,6.359,2.099,6.359,6.297c0,0.511-0.031,1.056-0.092,1.64h-8.191
						c0,2.34,0.605,3.51,1.814,3.51h0.129c1.062-0.063,1.594-0.67,1.594-1.816c0-0.246-0.025-0.52-0.074-0.82l4.361-0.068
						c0,3.471-2.033,5.228-6.102,5.273c-0.049,0.009-0.092,0.014-0.129,0.014c-3.873,0-5.809-2.19-5.809-6.57v-0.41
						C454.92,236.07,456.965,233.722,460.936,233.722z M458.572,239.145h4.141v-0.328c0-1.657-0.629-2.486-1.887-2.486
						C459.471,236.33,458.719,237.269,458.572,239.145z M458.865,231.059c1.43-1.266,2.602-2.473,3.518-3.62l3.006,1.775
						c-1.295,0.947-2.736,2.108-4.324,3.483L458.865,231.059z"/>
					<path d="M479.865,228.176l0.184,7.69c0.512-1.184,1.709-1.784,3.592-1.804h0.055c1.855,0,3.176,0.629,3.957,1.886
						c0.537,0.856,0.807,2.859,0.807,6.01c0,1.548-0.066,3.378-0.201,5.491h-4.617c0.158-2.814,0.238-4.994,0.238-6.543
						c0-0.773-0.02-1.393-0.057-1.857c-0.121-1.366-0.646-2.049-1.574-2.049c-0.93,0-1.527,0.364-1.797,1.092l0.184,9.904
						l-4.49,0.027c0-4.189-0.25-10.76-0.75-19.711L479.865,228.176z"/>
					<path d="M497.09,233.325c4.02,0.164,6.027,1.671,6.027,4.521v9.698l-4.27,0.055l-0.146-1.298c-0.879,0.747-2.045,1.12-3.5,1.12
						c-0.623,0-1.295-0.072-2.016-0.219c-2.162-0.4-3.242-1.648-3.242-3.742c0-0.256,0.018-0.528,0.055-0.82
						c0.244-2.158,2.303-3.236,6.176-3.236c0.744,0,1.562,0.041,2.455,0.123v-1.585c0-1.284-0.543-1.927-1.631-1.927h-0.074
						c-0.084-0.008-0.164-0.014-0.238-0.014c-1.184,0-1.777,0.721-1.777,2.158v0.205l-4.361-0.273c0-3.178,2.053-4.767,6.158-4.767
						H497.09z M498.629,244.116v-2.403c-0.525-0.082-1.002-0.123-1.43-0.123c-1.111,0-1.869,0.277-2.271,0.832
						c-0.244,0.338-0.367,0.652-0.367,0.943c0,0.364,0.195,0.688,0.586,0.97c0.307,0.218,0.703,0.327,1.191,0.327
						C496.961,244.662,497.725,244.48,498.629,244.116z"/>
					<path d="M512.078,242.122l4.361,0.204c0,3.288-2.033,4.955-6.102,5c-0.049,0.01-0.092,0.014-0.129,0.014
						c-3.873,0-5.809-2.189-5.809-6.57v-0.41c0.123-4.698,2.188-7.07,6.193-7.115h0.146c3.689,0,5.535,1.574,5.535,4.726
						c0,0.183-0.008,0.364-0.02,0.546l-3.939,0.219v-0.328c0-1.656-0.629-2.485-1.887-2.485c-1.283,0-1.924,1.343-1.924,4.029v0.45
						c0.072,2.905,0.721,4.357,1.941,4.357h0.111c1.062-0.062,1.594-0.669,1.594-1.816
						C512.152,242.695,512.127,242.422,512.078,242.122z"/>
					<path d="M523.916,233.722c4.238,0,6.357,2.099,6.357,6.297c0,0.511-0.031,1.056-0.092,1.64h-8.189
						c0,2.34,0.604,3.51,1.812,3.51h0.129c1.062-0.063,1.594-0.67,1.594-1.816c0-0.246-0.023-0.52-0.072-0.82l4.361-0.068
						c0,3.471-2.035,5.228-6.104,5.273c-0.049,0.009-0.09,0.014-0.127,0.014c-3.873,0-5.809-2.19-5.809-6.57v-0.41
						C517.898,236.07,519.945,233.722,523.916,233.722z M521.551,239.145h4.143v-0.328c0-1.657-0.631-2.486-1.889-2.486
						C522.449,236.33,521.697,237.269,521.551,239.145z"/>
					<path d="M536.523,237.956l0.182,9.903l-4.488,0.027c0-4.189-0.189-8.893-0.568-14.11l3.371-0.273l0.184,2.227
						c0.514-1.093,1.711-1.716,3.592-1.872c0.281-0.018,0.549-0.027,0.807-0.027c1.477,0,2.602,0.36,3.371,1.08
						c0.893,0.855,1.344,2.217,1.355,4.084l-4.066,0.301c0.012-0.155,0.018-0.305,0.018-0.451c0-1.457-0.508-2.186-1.521-2.186
						h-0.072C537.512,236.704,536.791,237.137,536.523,237.956z"/>
					<path d="M546.143,234.746c-0.062-0.547-0.092-1.052-0.092-1.516c0-1.631,0.396-2.805,1.191-3.525
						c1.014-0.919,2.309-1.47,3.885-1.652c0.561-0.063,1.111-0.096,1.648-0.096c0.965,0,1.893,0.101,2.785,0.301
						c1.393,0.318,2.443,0.947,3.152,1.885c0.623,0.848,0.934,1.926,0.934,3.237v0.45c-0.086,1.521-0.504,2.78-1.254,3.777
						c-0.752,0.998-1.891,1.719-3.418,2.165l-0.055,2.5l-3.904,0.054l-0.055-4.548c1.979-0.219,3.189-0.864,3.629-1.939
						c0.305-0.747,0.457-1.476,0.457-2.186c0-0.301-0.023-0.597-0.072-0.888c-0.195-0.957-0.99-1.435-2.383-1.435H552.5
						c-1.221,0.027-1.832,0.856-1.832,2.486c0,0.31,0.018,0.642,0.055,0.997L546.143,234.746z M553.123,247.818
						c-0.732,0-1.361-0.196-1.887-0.588c-0.525-0.391-0.789-0.86-0.789-1.406c0-0.556,0.264-1.029,0.789-1.421
						s1.154-0.587,1.887-0.587c0.746,0,1.381,0.195,1.906,0.587s0.787,0.865,0.787,1.421c0,0.546-0.262,1.016-0.787,1.406
						C554.504,247.622,553.869,247.818,553.123,247.818z"/>
				</g>
			</g>
		</g>
		<g>
			<polygon fill-rule="evenodd" clip-rule="evenodd" fill="#D8904B" points="830.221,257.052 610.91,257.052 600.91,222.19 
				820.221,222.19 			"/>
			<g>
				<g>
					<path d="M635.674,246.493c0.061,0.546,0.092,1.052,0.092,1.517c0,1.629-0.393,2.8-1.174,3.51
						c-1.025,0.929-2.32,1.48-3.885,1.652c-0.574,0.073-1.129,0.109-1.666,0.109c-0.967,0-1.895-0.104-2.785-0.314
						c-1.393-0.309-2.438-0.933-3.135-1.871c-0.635-0.846-0.953-1.926-0.953-3.236c0-0.146,0.006-0.297,0.02-0.451
						c0.072-1.521,0.484-2.779,1.236-3.777c0.752-0.996,1.891-1.719,3.418-2.164l0.055-2.5l3.902-0.055l0.055,4.549
						c-1.979,0.219-3.188,0.865-3.627,1.939c-0.307,0.746-0.459,1.475-0.459,2.186c0,0.301,0.031,0.596,0.092,0.888
						c0.184,0.956,0.971,1.435,2.363,1.435c0.025,0,0.057-0.005,0.092-0.014c1.223-0.019,1.832-0.843,1.832-2.473
						c0-0.31-0.018-0.643-0.055-0.997L635.674,246.493z M628.691,233.421c0.734,0,1.363,0.196,1.889,0.587
						c0.525,0.393,0.787,0.861,0.787,1.408c0,0.555-0.262,1.028-0.787,1.42s-1.154,0.588-1.889,0.588
						c-0.744,0-1.381-0.196-1.904-0.588c-0.525-0.392-0.789-0.865-0.789-1.42c0-0.547,0.264-1.016,0.789-1.408
						C627.311,233.617,627.947,233.421,628.691,233.421z"/>
					<path d="M651.523,248.842c-0.623-0.701-1.295-1.442-2.016-2.227c-1.074,0.475-2.352,0.711-3.83,0.711
						c-5.51,0-8.264-3.406-8.264-10.217c0-6.32,2.938-9.48,8.814-9.48c5.143,0,7.715,3.283,7.715,9.85
						c0,3.104-0.617,5.477-1.852,7.115c0.709,0.702,1.404,1.371,2.09,2.008L651.523,248.842z M642.562,237.847
						c-0.012,0.237-0.018,0.464-0.018,0.683c0,3.434,1.074,5.15,3.225,5.15c0.305,0,0.594-0.037,0.861-0.109
						c-0.758-0.802-1.557-1.635-2.4-2.5l2.621-2.145c0.66,0.756,1.307,1.488,1.941,2.199c0.27-0.875,0.404-1.967,0.404-3.278
						c0-3.897-1.064-5.847-3.189-5.847C643.871,232,642.723,233.949,642.562,237.847z"/>
					<path d="M664.625,247.75l-0.184-2.227c-0.512,1.184-1.893,1.78-4.141,1.789c-0.025,0.01-0.043,0.014-0.055,0.014
						c-2.223,0-3.695-0.746-4.416-2.24c-0.488-0.992-0.732-3.046-0.732-6.16c0-1.603,0.066-3.492,0.201-5.668h4.453
						c-0.246,3.059-0.367,5.413-0.367,7.061c0,0.83,0.031,1.476,0.092,1.94c0.184,1.421,0.799,2.131,1.85,2.131
						s1.711-0.369,1.98-1.106l-0.184-9.479l4.307-0.027c0,3.915,0.189,8.478,0.566,13.687L664.625,247.75z"/>
					<path d="M675.473,233.722c4.238,0,6.359,2.099,6.359,6.297c0,0.511-0.031,1.056-0.092,1.64h-8.191
						c0,2.34,0.605,3.51,1.814,3.51h0.129c1.062-0.063,1.594-0.67,1.594-1.816c0-0.246-0.025-0.52-0.074-0.82l4.361-0.068
						c0,3.471-2.033,5.228-6.102,5.273c-0.049,0.009-0.092,0.014-0.129,0.014c-3.873,0-5.809-2.19-5.809-6.57v-0.41
						C669.457,236.07,671.502,233.722,675.473,233.722z M673.109,239.145h4.141v-0.328c0-1.657-0.629-2.486-1.887-2.486
						C674.008,236.33,673.256,237.269,673.109,239.145z M673.402,231.059c1.43-1.266,2.602-2.473,3.518-3.62l3.006,1.775
						c-1.295,0.947-2.736,2.108-4.324,3.483L673.402,231.059z"/>
					<path d="M693.412,233.366l0.184,2.227c0.514-1.184,1.863-1.784,4.051-1.803h0.072c2.15,0,3.615,0.628,4.398,1.885
						c0.537,0.856,0.805,2.859,0.805,6.011c0,1.547-0.066,3.378-0.201,5.49h-4.434c0.158-2.813,0.238-4.994,0.238-6.543
						c0-0.773-0.02-1.393-0.055-1.857c-0.123-1.365-0.709-2.049-1.76-2.049s-1.711,0.364-1.979,1.093l0.184,9.903l-4.307,0.027
						c0-4.189-0.189-8.893-0.568-14.11L693.412,233.366z"/>
					<path d="M710.893,233.722c4.154,0,6.23,2.149,6.23,6.447c0,0.173-0.006,0.347-0.018,0.519
						c-0.172,4.654-2.383,7.003-6.633,7.049c-0.049,0.009-0.098,0.014-0.146,0.014c-4.045,0-6.066-2.199-6.066-6.598v-0.383
						C704.383,236.07,706.594,233.722,710.893,233.722z M710.289,236.836c-0.77,0.2-1.295,0.942-1.576,2.227
						c-0.172,0.765-0.256,1.534-0.256,2.309c0,0.519,0.035,1.043,0.109,1.57c0.195,1.312,0.824,1.99,1.887,2.035h0.129
						c0.99,0,1.668-0.486,2.033-1.461c0.307-0.811,0.459-1.771,0.459-2.883c0-0.273-0.006-0.551-0.018-0.833
						c-0.1-1.466-0.393-2.381-0.881-2.745c-0.305-0.219-0.672-0.328-1.1-0.328C710.832,236.727,710.57,236.764,710.289,236.836z"/>
					<path d="M729.326,228.176l0.184,7.69c0.514-1.184,1.711-1.784,3.592-1.804h0.055c1.857,0,3.176,0.629,3.959,1.886
						c0.537,0.856,0.807,2.859,0.807,6.01c0,1.548-0.068,3.378-0.203,5.491h-4.617c0.158-2.814,0.238-4.994,0.238-6.543
						c0-0.773-0.018-1.393-0.055-1.857c-0.123-1.366-0.648-2.049-1.576-2.049s-1.527,0.364-1.795,1.092l0.182,9.904l-4.488,0.027
						c0-4.189-0.25-10.76-0.752-19.711L729.326,228.176z"/>
					<path d="M746.551,233.325c4.02,0.164,6.029,1.671,6.029,4.521v9.698l-4.27,0.055l-0.146-1.298
						c-0.879,0.747-2.047,1.12-3.5,1.12c-0.623,0-1.295-0.072-2.016-0.219c-2.162-0.4-3.244-1.648-3.244-3.742
						c0-0.256,0.02-0.528,0.057-0.82c0.244-2.158,2.301-3.236,6.174-3.236c0.746,0,1.564,0.041,2.455,0.123v-1.585
						c0-1.284-0.543-1.927-1.631-1.927h-0.072c-0.086-0.008-0.166-0.014-0.238-0.014c-1.186,0-1.777,0.721-1.777,2.158v0.205
						l-4.361-0.273c0-3.178,2.053-4.767,6.156-4.767H746.551z M748.09,244.116v-2.403c-0.525-0.082-1.002-0.123-1.428-0.123
						c-1.113,0-1.869,0.277-2.273,0.832c-0.244,0.338-0.365,0.652-0.365,0.943c0,0.364,0.195,0.688,0.586,0.97
						c0.305,0.218,0.701,0.327,1.191,0.327C746.424,244.662,747.186,244.48,748.09,244.116z"/>
					<path d="M761.541,242.122l4.361,0.204c0,3.288-2.035,4.955-6.104,5c-0.049,0.01-0.09,0.014-0.127,0.014
						c-3.873,0-5.809-2.189-5.809-6.57v-0.41c0.121-4.698,2.186-7.07,6.193-7.115h0.146c3.689,0,5.533,1.574,5.533,4.726
						c0,0.183-0.006,0.364-0.018,0.546l-3.939,0.219v-0.328c0-1.656-0.631-2.485-1.889-2.485c-1.281,0-1.924,1.343-1.924,4.029v0.45
						c0.074,2.905,0.721,4.357,1.943,4.357h0.109c1.062-0.062,1.594-0.669,1.594-1.816
						C761.613,242.695,761.59,242.422,761.541,242.122z"/>
					<path d="M773.379,233.722c4.238,0,6.357,2.099,6.357,6.297c0,0.511-0.031,1.056-0.092,1.64h-8.189
						c0,2.34,0.604,3.51,1.812,3.51h0.129c1.062-0.063,1.594-0.67,1.594-1.816c0-0.246-0.023-0.52-0.072-0.82l4.361-0.068
						c0,3.471-2.035,5.228-6.104,5.273c-0.049,0.009-0.09,0.014-0.127,0.014c-3.873,0-5.809-2.19-5.809-6.57v-0.41
						C767.361,236.07,769.408,233.722,773.379,233.722z M771.014,239.145h4.143v-0.328c0-1.657-0.631-2.486-1.889-2.486
						C771.912,236.33,771.16,237.269,771.014,239.145z"/>
					<path d="M785.984,237.956l0.184,9.903l-4.49,0.027c0-4.189-0.189-8.893-0.566-14.11l3.371-0.273l0.184,2.227
						c0.512-1.093,1.709-1.716,3.59-1.872c0.281-0.018,0.551-0.027,0.807-0.027c1.479,0,2.602,0.36,3.373,1.08
						c0.891,0.855,1.342,2.217,1.355,4.084l-4.068,0.301c0.012-0.155,0.018-0.305,0.018-0.451c0-1.457-0.506-2.186-1.52-2.186
						h-0.074C786.975,236.704,786.254,237.137,785.984,237.956z"/>
					<path d="M795.605,234.746c-0.062-0.547-0.092-1.052-0.092-1.516c0-1.631,0.396-2.805,1.191-3.525
						c1.014-0.919,2.309-1.47,3.885-1.652c0.561-0.063,1.111-0.096,1.648-0.096c0.965,0,1.893,0.101,2.785,0.301
						c1.393,0.318,2.443,0.947,3.152,1.885c0.623,0.848,0.934,1.926,0.934,3.237v0.45c-0.086,1.521-0.504,2.78-1.254,3.777
						c-0.752,0.998-1.891,1.719-3.418,2.165l-0.055,2.5l-3.904,0.054l-0.055-4.548c1.979-0.219,3.189-0.864,3.629-1.939
						c0.305-0.747,0.457-1.476,0.457-2.186c0-0.301-0.023-0.597-0.072-0.888c-0.195-0.957-0.99-1.435-2.383-1.435h-0.092
						c-1.221,0.027-1.832,0.856-1.832,2.486c0,0.31,0.018,0.642,0.055,0.997L795.605,234.746z M802.586,247.818
						c-0.732,0-1.361-0.196-1.887-0.588c-0.525-0.391-0.789-0.86-0.789-1.406c0-0.556,0.264-1.029,0.789-1.421
						s1.154-0.587,1.887-0.587c0.746,0,1.381,0.195,1.906,0.587s0.787,0.865,0.787,1.421c0,0.546-0.262,1.016-0.787,1.406
						C803.967,247.622,803.332,247.818,802.586,247.818z"/>
				</g>
			</g>
		</g>
	</g>
	<g>
		<g>
			<g>
				<g>
					<defs>
						<circle id="SVGID_11_" cx="103.288" cy="124.005" r="103.288"/>
					</defs>
					<clipPath id="SVGID_2_">
						<use xlink:href="#SVGID_11_"  overflow="visible"/>
					</clipPath>
					<circle clip-path="url(#SVGID_2_)" fill="#D8904B" cx="103.288" cy="124.005" r="103.288"/>
				</g>
			</g>
			<g>
				<g>
					<path fill="#DC9B2F" d="M8.941,40.756c1.44-1.534,2.173-2.282,3.659-3.744c0.43,0.438,0.644,0.655,1.073,1.093
						c-0.834,0.821-1.247,1.236-2.067,2.08c1.327,1.291,1.989,1.939,3.317,3.23c0.752-0.774,1.133-1.159,1.897-1.913
						c0.43,0.437,0.646,0.656,1.076,1.093c-0.756,0.745-1.131,1.122-1.874,1.887c1.511,1.469,2.267,2.205,3.777,3.674
						c0.788-0.812,1.186-1.211,1.988-1.999c0.429,0.438,0.645,0.658,1.073,1.096c-1.363,1.338-2.034,2.021-3.354,3.426
						C15.281,46.709,13.168,44.725,8.941,40.756z"/>
					<path fill="#DC9B2F" d="M22.575,37.065c0.127,0.145,0.189,0.215,0.316,0.359c-0.578,0.507-0.868,0.765-1.439,1.282
						c-0.14-0.154-0.209-0.23-0.349-0.385c-0.387-0.428-0.671-0.673-0.861-0.731c-0.189-0.058-0.387,0.004-0.591,0.191
						c-0.188,0.173-0.268,0.355-0.239,0.547s0.166,0.424,0.415,0.692c0.104,0.112,0.159,0.171,0.263,0.283
						c0.111,0.12,0.283,0.209,0.519,0.268c0.235,0.06,0.561,0.099,0.972,0.112c0.889,0.014,1.33,0.023,2.211,0.055
						c0.485,0.024,0.881,0.094,1.189,0.206c0.308,0.113,0.558,0.282,0.752,0.505c0.212,0.243,0.319,0.364,0.531,0.607
						c0.547,0.627,0.79,1.237,0.738,1.829c-0.053,0.593-0.406,1.183-1.061,1.782c-0.687,0.629-1.293,0.938-1.83,0.915
						c-0.538-0.022-1.154-0.396-1.847-1.12c-0.032-0.034-0.05-0.053-0.082-0.087c-0.19-0.199-0.286-0.298-0.476-0.497
						c0.523-0.501,0.788-0.748,1.317-1.239c0.219,0.236,0.329,0.354,0.548,0.591c0.374,0.403,0.663,0.641,0.863,0.713
						s0.396,0.022,0.588-0.153c0.228-0.208,0.327-0.422,0.303-0.638c-0.025-0.217-0.179-0.479-0.464-0.796
						c-0.103-0.114-0.153-0.173-0.256-0.287c-0.158-0.175-0.364-0.309-0.62-0.399c-0.256-0.092-0.571-0.14-0.945-0.144
						c-0.851-0.015-1.279-0.02-2.137-0.017c-0.611-0.011-1.055-0.059-1.334-0.159s-0.537-0.271-0.769-0.514
						c-0.16-0.168-0.239-0.253-0.399-0.421c-0.529-0.555-0.762-1.136-0.692-1.747s0.44-1.234,1.118-1.854
						c0.705-0.645,1.351-0.941,1.928-0.901C21.334,35.955,21.941,36.341,22.575,37.065z"/>
					<path fill="#DC9B2F" d="M22.447,30.47c0.677,0.827,1.014,1.242,1.69,2.069c0.368-0.302,0.554-0.451,0.924-0.749
						c0.317,0.396,0.478,0.59,0.795,0.985c-0.366,0.295-0.551,0.445-0.915,0.744c1.688,2.063,2.531,3.095,4.219,5.158
						c0.236,0.289,0.442,0.451,0.621,0.488c0.178,0.036,0.374-0.032,0.59-0.207c0.038-0.031,0.079-0.064,0.12-0.102
						s0.104-0.104,0.189-0.197c0.347,0.434,0.521,0.649,0.867,1.083c-0.018,0.021-0.05,0.054-0.095,0.098
						c-0.312,0.31-0.535,0.522-0.668,0.631c-0.59,0.483-1.113,0.678-1.577,0.576s-1.048-0.564-1.75-1.396
						c-1.632-1.93-2.446-2.896-4.079-4.826c-0.275,0.234-0.415,0.351-0.689,0.587c-0.33-0.385-0.498-0.577-0.828-0.962
						c0.277-0.239,0.418-0.355,0.697-0.592c-0.51-0.604-0.763-0.905-1.272-1.509C21.745,31.596,21.975,31.219,22.447,30.47z"/>
					<path fill="#DC9B2F" d="M32.091,29.561c1.772,2.483,2.658,3.728,4.431,6.211c-0.571,0.409-0.854,0.614-1.421,1.033
						c-0.229-0.241-0.347-0.363-0.576-0.604c0.034,0.416-0.009,0.782-0.133,1.101s-0.327,0.585-0.603,0.796
						c-0.5,0.382-0.978,0.502-1.443,0.363s-0.975-0.554-1.521-1.249c-0.43-0.547-0.643-0.82-1.072-1.367
						c-0.503-0.639-0.653-1.271-0.439-1.896c0.214-0.628,0.846-1.381,1.903-2.229c-0.278-0.376-0.417-0.565-0.694-0.941
						c-0.358-0.485-0.646-0.771-0.868-0.86c-0.222-0.088-0.462-0.037-0.722,0.158c-0.235,0.177-0.346,0.387-0.33,0.626
						c0.016,0.24,0.157,0.536,0.427,0.891c0.103,0.135,0.152,0.201,0.255,0.336c-0.583,0.444-0.872,0.671-1.45,1.125
						c-0.059-0.074-0.087-0.111-0.146-0.186c-0.627-0.799-0.899-1.485-0.811-2.061c0.09-0.577,0.557-1.191,1.402-1.826
						c0.804-0.603,1.497-0.859,2.074-0.775C30.929,28.29,31.509,28.745,32.091,29.561z M31.949,32.729
						c-0.509,0.417-0.793,0.774-0.863,1.066s0.043,0.63,0.336,1.016c0.312,0.41,0.467,0.615,0.778,1.025
						c0.329,0.433,0.611,0.697,0.846,0.795s0.47,0.057,0.707-0.122c0.231-0.174,0.332-0.382,0.304-0.629
						c-0.029-0.248-0.208-0.596-0.535-1.038C32.893,33.997,32.578,33.573,31.949,32.729z"/>
					<path fill="#DC9B2F" d="M29.825,22.756c0.679-0.47,1.021-0.703,1.706-1.16c1.153,1.73,1.729,2.599,2.883,4.329
						c0-0.409,0.082-0.777,0.243-1.101c0.163-0.323,0.397-0.586,0.708-0.786c0.562-0.363,1.074-0.46,1.533-0.288
						s0.925,0.646,1.4,1.408c1.179,1.888,1.767,2.827,2.945,4.715c0.476,0.762,0.698,1.382,0.674,1.858s-0.297,0.883-0.824,1.224
						c-0.271,0.176-0.576,0.265-0.918,0.27c-0.341,0.004-0.694-0.08-1.062-0.252c0.156,0.293,0.234,0.44,0.391,0.733
						c-0.581,0.389-0.871,0.587-1.447,0.985C34.766,29.917,33.117,27.53,29.825,22.756z M36.786,26.48
						c-0.296-0.457-0.552-0.739-0.766-0.842c-0.214-0.104-0.45-0.067-0.706,0.101s-0.379,0.377-0.37,0.626
						c0.009,0.25,0.159,0.594,0.45,1.03c1.094,1.642,1.645,2.463,2.738,4.104c0.291,0.437,0.547,0.711,0.771,0.826
						c0.225,0.114,0.456,0.094,0.695-0.063s0.349-0.356,0.332-0.596c-0.017-0.238-0.17-0.591-0.466-1.048
						C38.395,28.963,37.858,28.137,36.786,26.48z"/>
					<path fill="#DC9B2F" d="M36.496,18.441c0.7-0.423,1.053-0.63,1.758-1.041c2.915,5.015,4.372,7.52,7.286,12.534
						c-0.627,0.365-0.938,0.55-1.56,0.925C40.988,25.892,39.49,23.409,36.496,18.441z"/>
					<path fill="#DC9B2F" d="M48.675,20.416c0.422,0.84,0.633,1.26,1.055,2.1c-1.264,0.634-1.894,0.96-3.142,1.634
						c0.379,0.703,0.569,1.056,0.948,1.759c0.28,0.519,0.526,0.84,0.732,0.967s0.44,0.122,0.702-0.018
						c0.257-0.136,0.384-0.328,0.385-0.581c0.001-0.252-0.127-0.629-0.388-1.128c-0.16-0.307-0.241-0.461-0.401-0.768
						c0.666-0.348,1.001-0.518,1.671-0.854c0.118,0.235,0.178,0.354,0.296,0.59c0.465,0.926,0.613,1.69,0.453,2.302
						c-0.158,0.61-0.641,1.12-1.448,1.549c-0.872,0.463-1.589,0.585-2.167,0.348c-0.578-0.238-1.195-0.933-1.843-2.087
						c-0.716-1.276-1.072-1.914-1.788-3.19c-0.65-1.16-0.915-2.06-0.782-2.696c0.134-0.636,0.679-1.218,1.638-1.727
						c0.934-0.495,1.709-0.607,2.305-0.352S48.084,19.239,48.675,20.416z M46.629,20.667c-0.27-0.518-0.51-0.843-0.723-0.979
						c-0.213-0.135-0.457-0.132-0.731,0.014c-0.28,0.148-0.429,0.351-0.44,0.603c-0.012,0.253,0.123,0.64,0.403,1.158
						c0.347,0.644,0.519,0.965,0.866,1.608c0.586-0.316,0.883-0.474,1.473-0.781C47.139,21.641,46.967,21.315,46.629,20.667z"/>
					<path fill="#DC9B2F" d="M54.955,16.952c0.094,0.217,0.141,0.324,0.234,0.541c-0.704,0.303-1.054,0.456-1.754,0.771
						c-0.136-0.301-0.203-0.454-0.339-0.755c-0.231-0.514-0.441-0.841-0.629-0.979s-0.412-0.146-0.673-0.027
						c-0.229,0.104-0.347,0.273-0.353,0.507c-0.006,0.234,0.112,0.614,0.355,1.138c0.847,1.827,1.271,2.738,2.117,4.565
						c0.248,0.535,0.464,0.875,0.646,1.021c0.184,0.146,0.386,0.168,0.611,0.064c0.22-0.1,0.334-0.261,0.342-0.486
						c0.009-0.228-0.111-0.617-0.358-1.166c-0.161-0.358-0.244-0.54-0.405-0.898c0.689-0.31,1.036-0.46,1.729-0.758
						c0.123,0.285,0.185,0.428,0.308,0.713c0.398,0.927,0.501,1.693,0.317,2.303c-0.185,0.609-0.66,1.084-1.433,1.437
						c-0.851,0.389-1.542,0.449-2.087,0.169c-0.546-0.281-1.107-1.018-1.684-2.209c-0.637-1.317-0.956-1.976-1.593-3.293
						c-0.576-1.191-0.793-2.096-0.638-2.719c0.154-0.62,0.699-1.154,1.628-1.578c0.843-0.385,1.566-0.437,2.162-0.167
						S54.554,16.02,54.955,16.952z"/>
					<path fill="#DC9B2F" d="M61.767,14.785c0.321,0.884,0.481,1.324,0.803,2.208c-1.315,0.477-1.972,0.726-3.275,1.241
						c0.294,0.742,0.442,1.111,0.736,1.854c0.217,0.548,0.421,0.896,0.61,1.048s0.422,0.174,0.695,0.067
						c0.268-0.104,0.416-0.279,0.445-0.529s-0.057-0.639-0.257-1.165c-0.123-0.323-0.187-0.482-0.31-0.806
						c0.694-0.264,1.041-0.394,1.738-0.646c0.09,0.248,0.138,0.371,0.228,0.619c0.354,0.974,0.412,1.75,0.187,2.337
						c-0.225,0.585-0.757,1.032-1.6,1.359c-0.91,0.354-1.631,0.384-2.173,0.079c-0.542-0.307-1.069-1.067-1.577-2.29
						c-0.561-1.352-0.841-2.027-1.402-3.379c-0.51-1.229-0.668-2.148-0.466-2.763c0.202-0.613,0.805-1.124,1.806-1.512
						c0.975-0.378,1.747-0.396,2.305-0.071S61.317,13.548,61.767,14.785z M59.725,14.786c-0.207-0.545-0.407-0.896-0.602-1.058
						c-0.194-0.16-0.436-0.186-0.722-0.074c-0.293,0.113-0.46,0.293-0.5,0.541c-0.039,0.249,0.05,0.647,0.267,1.195
						c0.27,0.68,0.404,1.021,0.674,1.701c0.612-0.242,0.92-0.362,1.534-0.596C60.115,15.812,59.984,15.47,59.725,14.786z"/>
					<path fill="#DC9B2F" d="M66.117,9.774c0.184,0.59,0.278,0.887,0.462,1.477c-0.036,0.012-0.056,0.017-0.092,0.028
						c-0.642,0.2-1.051,0.475-1.225,0.82s-0.148,0.853,0.07,1.519c0.852,2.592,1.277,3.889,2.129,6.481
						c-0.676,0.222-1.015,0.334-1.688,0.566c-1.32-3.82-1.981-5.729-3.302-9.55c0.699-0.241,1.05-0.359,1.752-0.59
						c0.136,0.303,0.206,0.456,0.342,0.759c0.126-0.394,0.295-0.713,0.512-0.951c0.216-0.237,0.484-0.403,0.799-0.502
						c0.028-0.009,0.066-0.019,0.119-0.028S66.089,9.783,66.117,9.774z"/>
					<path fill="#DC9B2F" d="M70.752,8.578c0.753-0.202,1.129-0.298,1.884-0.488c0.737,2.911,1.105,4.363,1.844,7.274
						c0.136,0.533,0.288,0.886,0.451,1.058c0.162,0.173,0.381,0.226,0.657,0.158c0.27-0.066,0.438-0.22,0.502-0.461
						c0.064-0.242,0.037-0.615-0.085-1.126c-0.699-2.921-1.048-4.381-1.747-7.302c0.757-0.181,1.137-0.27,1.896-0.438
						c0.879,3.944,1.322,5.918,2.2,9.863c-0.667,0.147-1.002,0.223-1.667,0.381c-0.107-0.313-0.163-0.471-0.271-0.784
						c-0.132,0.389-0.312,0.702-0.548,0.942c-0.234,0.238-0.518,0.398-0.848,0.482c-0.577,0.146-1.027,0.077-1.36-0.215
						c-0.333-0.291-0.628-0.899-0.879-1.83C71.97,13.088,71.563,11.584,70.752,8.578z"/>
					<path fill="#DC9B2F" d="M83.881,8.133c0.495,3.077,0.741,4.619,1.235,7.697c-0.704,0.112-1.055,0.169-1.758,0.293
						c-0.523-2.966-0.785-4.449-1.31-7.414c-0.095-0.535-0.224-0.895-0.381-1.072s-0.385-0.24-0.683-0.186
						c-0.291,0.053-0.479,0.198-0.563,0.43c-0.085,0.233-0.08,0.607,0.019,1.123c0.563,2.958,0.847,4.437,1.41,7.395
						c-0.694,0.132-1.041,0.199-1.733,0.342c-0.816-3.959-1.225-5.938-2.041-9.896c0.72-0.147,1.078-0.219,1.8-0.355
						c0.094,0.311,0.141,0.465,0.234,0.775c0.165-0.384,0.386-0.693,0.663-0.924c0.275-0.23,0.592-0.376,0.95-0.438
						c0.646-0.112,1.132-0.004,1.45,0.319S83.728,7.182,83.881,8.133z"/>
					<path fill="#DC9B2F" d="M91.053,7.367c0.308,3.035,0.459,4.552,0.766,7.588c-0.67,0.067-1.005,0.104-1.674,0.182
						c-0.076-0.323-0.116-0.488-0.193-0.812c-0.169,0.377-0.379,0.67-0.632,0.882c-0.253,0.213-0.542,0.342-0.872,0.385
						c-0.594,0.077-1.053-0.058-1.374-0.412c-0.322-0.354-0.549-0.973-0.677-1.848c-0.101-0.688-0.151-1.031-0.252-1.72
						c-0.118-0.804,0.057-1.422,0.529-1.854c0.473-0.434,1.351-0.763,2.632-0.964c-0.054-0.465-0.081-0.698-0.135-1.163
						c-0.07-0.6-0.177-0.989-0.319-1.178c-0.142-0.188-0.368-0.267-0.675-0.229c-0.28,0.034-0.473,0.16-0.572,0.374
						c-0.1,0.215-0.119,0.544-0.062,0.985c0.021,0.168,0.033,0.25,0.055,0.418c-0.695,0.09-1.043,0.137-1.736,0.236
						c-0.014-0.094-0.02-0.14-0.033-0.233C85.683,7,85.78,6.271,86.125,5.82s1.019-0.746,2.021-0.868
						c0.954-0.116,1.656,0.012,2.096,0.374C90.684,5.688,90.952,6.37,91.053,7.367z M89.439,10.034
						c-0.619,0.104-1.027,0.267-1.223,0.483s-0.26,0.566-0.197,1.047c0.066,0.511,0.099,0.765,0.165,1.275
						c0.07,0.539,0.183,0.909,0.333,1.111c0.149,0.202,0.361,0.286,0.642,0.252c0.274-0.033,0.46-0.165,0.553-0.393
						c0.093-0.229,0.107-0.617,0.044-1.164C89.63,11.601,89.566,11.08,89.439,10.034z"/>
					<path fill="#DC9B2F" d="M100.408,4.172c0.015,0.617,0.025,0.924,0.04,1.541c-0.038,0.001-0.059,0.003-0.097,0.004
						c-0.666,0.017-1.131,0.167-1.389,0.451c-0.26,0.284-0.373,0.78-0.346,1.48c0.106,2.726,0.159,4.091,0.266,6.816
						c-0.703,0.027-1.055,0.042-1.758,0.08c-0.22-4.035-0.331-6.049-0.551-10.084c0.73-0.04,1.098-0.061,1.829-0.09
						c0.047,0.328,0.069,0.496,0.116,0.824c0.227-0.344,0.476-0.604,0.746-0.773s0.571-0.258,0.898-0.267
						c0.028-0.001,0.068,0.002,0.122,0.007C100.339,4.167,100.379,4.173,100.408,4.172z"/>
					<path fill="#DC9B2F" d="M106.789,7.543c-0.026,0.939-0.037,1.408-0.063,2.348c-1.382-0.038-2.072-0.047-3.455-0.045
						c0.001,0.799,0.001,1.197,0.002,1.996c0.001,0.59,0.058,0.987,0.177,1.197s0.324,0.312,0.613,0.314
						c0.283,0.002,0.481-0.106,0.6-0.328c0.117-0.222,0.181-0.613,0.188-1.176c0.004-0.346,0.008-0.518,0.012-0.863
						c0.733,0.009,1.1,0.015,1.832,0.035c-0.008,0.264-0.008,0.393-0.016,0.656c-0.029,1.035-0.258,1.782-0.678,2.245
						c-0.42,0.462-1.072,0.684-1.964,0.679c-0.963-0.005-1.634-0.242-2.019-0.725c-0.386-0.484-0.595-1.388-0.617-2.711
						c-0.024-1.462-0.038-2.188-0.062-3.65c-0.022-1.329,0.167-2.247,0.574-2.744c0.407-0.496,1.145-0.747,2.203-0.741
						c1.03,0.006,1.747,0.27,2.142,0.776C106.652,5.313,106.825,6.228,106.789,7.543z M104.913,6.799
						c0.007-0.583-0.048-0.984-0.168-1.205c-0.119-0.22-0.333-0.334-0.636-0.336c-0.309-0.002-0.529,0.104-0.655,0.32
						s-0.189,0.621-0.188,1.211c0.001,0.73,0.001,1.098,0.002,1.828c0.649-0.001,0.974,0,1.623,0.008
						C104.899,7.895,104.904,7.529,104.913,6.799z"/>
					<path fill="#DC9B2F" d="M108.959,0c0.792,0.034,1.189,0.052,1.98,0.098c-0.336,5.789-0.504,8.682-0.842,14.471
						c-0.703-0.041-1.057-0.06-1.76-0.09C108.587,8.686,108.711,5.793,108.959,0z"/>
					<path fill="#DC9B2F" d="M117.723,7.581c-0.355,3.03-0.534,4.545-0.891,7.575c-0.669-0.078-1.002-0.113-1.672-0.182
						c-0.005-0.332-0.009-0.501-0.015-0.833c-0.245,0.331-0.512,0.572-0.806,0.726c-0.293,0.153-0.605,0.214-0.937,0.186
						c-0.597-0.052-1.013-0.282-1.249-0.697c-0.237-0.415-0.326-1.063-0.263-1.945c0.05-0.693,0.075-1.042,0.126-1.735
						c0.059-0.811,0.362-1.376,0.917-1.696c0.555-0.322,1.481-0.457,2.774-0.378c0.047-0.465,0.072-0.7,0.119-1.165
						c0.062-0.601,0.046-1.004-0.053-1.219c-0.099-0.214-0.305-0.338-0.612-0.367c-0.28-0.026-0.494,0.053-0.638,0.24
						c-0.144,0.188-0.236,0.506-0.275,0.949c-0.015,0.168-0.022,0.252-0.037,0.42c-0.697-0.062-1.046-0.089-1.744-0.141
						c0.007-0.094,0.011-0.141,0.018-0.234c0.075-1.013,0.329-1.704,0.763-2.07c0.434-0.367,1.155-0.509,2.161-0.413
						c0.955,0.091,1.611,0.365,1.964,0.813S117.84,6.586,117.723,7.581z M115.573,9.841c-0.627-0.031-1.062,0.04-1.298,0.21
						c-0.238,0.169-0.375,0.496-0.418,0.979c-0.045,0.513-0.069,0.769-0.114,1.281c-0.048,0.542-0.02,0.927,0.082,1.156
						s0.293,0.358,0.575,0.385c0.275,0.026,0.481-0.063,0.621-0.266c0.14-0.204,0.239-0.58,0.295-1.127
						C115.419,11.411,115.471,10.889,115.573,9.841z"/>
					<path fill="#DC9B2F" d="M124.729,8.863c-0.041,0.232-0.062,0.35-0.104,0.582c-0.744-0.131-1.118-0.191-1.864-0.311
						c0.053-0.326,0.078-0.491,0.131-0.817c0.09-0.557,0.096-0.945,0.016-1.163c-0.079-0.218-0.257-0.349-0.536-0.392
						c-0.244-0.037-0.432,0.04-0.562,0.231c-0.133,0.193-0.241,0.576-0.326,1.146c-0.297,1.991-0.444,2.985-0.741,4.977
						c-0.087,0.583-0.095,0.984-0.023,1.207c0.07,0.223,0.222,0.354,0.463,0.391c0.234,0.036,0.417-0.038,0.547-0.223
						c0.13-0.186,0.245-0.577,0.341-1.172c0.062-0.388,0.093-0.583,0.155-0.971c0.733,0.117,1.102,0.18,1.834,0.309
						c-0.054,0.306-0.082,0.457-0.136,0.763c-0.176,0.993-0.507,1.694-0.99,2.104s-1.136,0.546-1.96,0.419
						c-0.909-0.14-1.507-0.468-1.801-1s-0.359-1.458-0.185-2.77c0.192-1.45,0.291-2.173,0.483-3.623
						c0.174-1.312,0.49-2.187,0.954-2.623c0.463-0.435,1.194-0.583,2.187-0.431c0.901,0.139,1.527,0.489,1.872,1.04
						C124.826,7.088,124.905,7.863,124.729,8.863z"/>
					<path fill="#DC9B2F" d="M127.608,2.146c0.838,0.158,1.257,0.24,2.093,0.412c-0.147,0.712-0.222,1.069-0.369,1.781
						c-0.824-0.17-1.237-0.25-2.063-0.406C127.404,3.22,127.473,2.86,127.608,2.146z M126.853,6.477
						c0.755,0.143,1.131,0.215,1.884,0.369c-0.818,3.958-1.229,5.938-2.047,9.896c-0.692-0.143-1.035-0.21-1.729-0.342
						C125.717,12.43,126.096,10.446,126.853,6.477z"/>
					<path fill="#DC9B2F" d="M135.229,11.697c-0.382,1.412-0.573,2.115-0.955,3.527c-0.346,1.278-0.768,2.106-1.268,2.486
						c-0.499,0.381-1.219,0.446-2.165,0.215c-0.914-0.224-1.501-0.612-1.763-1.183s-0.253-1.498,0.033-2.784
						c0.317-1.428,0.477-2.137,0.794-3.564c0.289-1.298,0.687-2.147,1.201-2.535c0.515-0.387,1.295-0.462,2.329-0.208
						c0.992,0.243,1.627,0.671,1.899,1.265C135.609,9.51,135.569,10.439,135.229,11.697z M133.543,10.547
						c0.141-0.553,0.176-0.949,0.107-1.186s-0.251-0.39-0.546-0.462s-0.527-0.021-0.696,0.157c-0.17,0.179-0.322,0.547-0.455,1.102
						c-0.469,1.958-0.704,2.935-1.173,4.893c-0.138,0.573-0.169,0.976-0.105,1.207c0.063,0.23,0.229,0.378,0.506,0.445
						s0.497,0.009,0.664-0.18s0.323-0.554,0.462-1.1C132.801,13.473,133.049,12.498,133.543,10.547z M134.429,4.354
						c0.728,0.18,1.091,0.272,1.815,0.463c-0.833,0.757-1.245,1.139-2.058,1.908c-0.49-0.122-0.737-0.184-1.229-0.301
						C133.539,5.594,133.834,5.18,134.429,4.354z"/>
					<path fill="#DC9B2F" d="M142.482,12.927c-0.99,2.956-1.487,4.438-2.479,7.394c-0.682-0.228-1.025-0.34-1.71-0.557
						c0.913-2.87,1.373-4.305,2.286-7.175c0.165-0.519,0.219-0.896,0.162-1.126s-0.229-0.393-0.521-0.482
						c-0.284-0.088-0.521-0.047-0.705,0.119c-0.185,0.168-0.351,0.501-0.503,1.004c-0.874,2.882-1.315,4.322-2.19,7.204
						c-0.68-0.205-1.019-0.306-1.7-0.5c1.114-3.886,1.673-5.828,2.787-9.714c0.709,0.202,1.062,0.308,1.769,0.521
						c-0.061,0.318-0.093,0.477-0.153,0.795c0.326-0.264,0.667-0.436,1.021-0.511c0.353-0.076,0.703-0.058,1.053,0.054
						c0.628,0.2,1.009,0.521,1.143,0.955S142.789,12.013,142.482,12.927z"/>
					<path fill="#DC9B2F" d="M152.617,17.823c-0.379,0.86-0.566,1.289-0.945,2.149c-1.287-0.567-1.935-0.842-3.235-1.369
						c-0.301,0.74-0.452,1.109-0.753,1.85c-0.222,0.546-0.315,0.937-0.283,1.177c0.033,0.24,0.184,0.418,0.455,0.53
						c0.266,0.11,0.494,0.086,0.689-0.074c0.194-0.161,0.402-0.501,0.621-1.02c0.135-0.318,0.202-0.48,0.337-0.799
						c0.687,0.289,1.029,0.438,1.712,0.738c-0.106,0.241-0.161,0.364-0.268,0.605c-0.418,0.947-0.911,1.548-1.481,1.815
						c-0.569,0.267-1.27,0.225-2.106-0.121c-0.904-0.374-1.443-0.852-1.623-1.445c-0.18-0.596-0.035-1.511,0.443-2.745
						c0.529-1.364,0.793-2.042,1.322-3.406c0.48-1.24,1.002-2.02,1.572-2.324c0.57-0.304,1.358-0.253,2.352,0.158
						c0.967,0.4,1.541,0.918,1.722,1.539S153.148,16.618,152.617,17.823z M151.132,16.41c0.227-0.537,0.325-0.932,0.296-1.182
						c-0.029-0.249-0.188-0.436-0.473-0.553c-0.29-0.12-0.535-0.105-0.736,0.046c-0.201,0.152-0.413,0.504-0.635,1.05
						c-0.275,0.678-0.413,1.016-0.688,1.693c0.61,0.247,0.917,0.375,1.524,0.631C150.704,17.422,150.848,17.084,151.132,16.41z"/>
					<path fill="#DC9B2F" d="M160.062,18.772c0.03,0.025,0.826-0.331,1.179-0.354c0.352-0.022,0.687,0.05,1.001,0.217
						c0.561,0.298,0.864,0.673,0.914,1.113c0.049,0.441-0.164,1.089-0.634,1.945c-1.499,2.733-2.249,4.103-3.749,6.836
						c-0.627-0.344-0.942-0.515-1.573-0.849c1.407-2.663,2.115-3.994,3.522-6.656c0.248-0.47,0.369-0.824,0.365-1.063
						c-0.005-0.239-0.123-0.421-0.359-0.544c-0.25-0.13-0.479-0.124-0.684,0.017c-0.206,0.141-0.425,0.438-0.658,0.893
						c-1.375,2.68-2.064,4.023-3.439,6.703c-0.642-0.329-0.961-0.49-1.606-0.809c1.333-2.701,1.998-4.055,3.331-6.756
						c0.24-0.488,0.36-0.847,0.35-1.078c-0.01-0.23-0.135-0.405-0.373-0.521c-0.252-0.122-0.484-0.11-0.693,0.037
						c-0.209,0.146-0.423,0.447-0.641,0.902c-1.3,2.717-1.951,4.079-3.251,6.797c-0.641-0.307-0.96-0.46-1.604-0.756
						c1.688-3.674,2.53-5.509,4.218-9.182c0.678,0.312,1.017,0.465,1.69,0.787c-0.107,0.306-0.16,0.46-0.269,0.766
						c0.376-0.22,0.734-0.341,1.076-0.363c0.341-0.023,0.688,0.053,1.039,0.228c0.344,0.171,0.597,0.418,0.757,0.738
						C160.13,18.139,160.062,18.772,160.062,18.772z"/>
					<path fill="#DC9B2F" d="M169.061,25.506c-1.189,1.882-1.783,2.821-2.972,4.703c-0.479,0.759-0.939,1.231-1.379,1.416
						s-0.923,0.109-1.456-0.217c-0.275-0.169-0.485-0.4-0.637-0.706c-0.15-0.305-0.229-0.659-0.232-1.065
						c-0.946,1.602-1.419,2.4-2.365,4.002c-0.604-0.357-0.907-0.534-1.516-0.881c2.759-4.842,4.138-7.261,6.896-12.102
						c0.654,0.373,0.982,0.562,1.632,0.945c-0.134,0.296-0.203,0.443-0.337,0.738c0.366-0.179,0.732-0.265,1.092-0.26
						c0.359,0.006,0.694,0.104,1.008,0.296c0.569,0.349,0.878,0.769,0.922,1.257S169.54,24.747,169.061,25.506z M167.215,24.717
						c0.283-0.465,0.427-0.815,0.427-1.053c0.001-0.237-0.131-0.437-0.392-0.594s-0.504-0.177-0.724-0.062
						c-0.221,0.116-0.464,0.405-0.73,0.857c-1.004,1.699-1.507,2.546-2.511,4.245c-0.268,0.452-0.404,0.803-0.41,1.054
						s0.113,0.451,0.357,0.599s0.469,0.161,0.677,0.041c0.208-0.118,0.454-0.411,0.737-0.876
						C165.673,27.243,166.188,26.402,167.215,24.717z"/>
					<path fill="#DC9B2F" d="M175.092,29.835c-1.782,2.477-2.673,3.714-4.455,6.19c-0.57-0.411-0.856-0.612-1.432-1.014
						c0.155-0.294,0.234-0.445,0.389-0.74c-0.382,0.166-0.742,0.241-1.082,0.227s-0.65-0.119-0.937-0.312
						c-0.516-0.349-0.778-0.759-0.794-1.243s0.217-1.1,0.699-1.841c0.38-0.583,0.569-0.872,0.949-1.455
						c0.443-0.681,0.992-1.025,1.648-1.026c0.657-0.002,1.562,0.35,2.697,1.078c0.268-0.384,0.4-0.575,0.668-0.959
						c0.345-0.496,0.524-0.861,0.538-1.1c0.014-0.237-0.114-0.451-0.38-0.634c-0.241-0.166-0.472-0.203-0.692-0.111
						s-0.456,0.324-0.705,0.693c-0.095,0.14-0.143,0.21-0.237,0.35c-0.602-0.407-0.904-0.608-1.511-1.006
						c0.052-0.079,0.078-0.119,0.13-0.198c0.556-0.85,1.117-1.332,1.687-1.434c0.57-0.103,1.291,0.14,2.156,0.735
						c0.823,0.566,1.286,1.146,1.39,1.719S175.677,29.021,175.092,29.835z M172.056,30.717c-0.555-0.348-0.981-0.502-1.279-0.475
						c-0.296,0.028-0.582,0.244-0.853,0.646c-0.288,0.427-0.431,0.639-0.719,1.065c-0.305,0.451-0.465,0.805-0.482,1.058
						c-0.019,0.253,0.093,0.459,0.335,0.626c0.237,0.163,0.466,0.192,0.69,0.086c0.225-0.107,0.496-0.385,0.811-0.837
						C171.156,32.019,171.457,31.584,172.056,30.717z M176.508,23.291c0.639,0.44,0.958,0.664,1.591,1.115
						c-1.064,0.399-1.595,0.605-2.644,1.025c-0.431-0.299-0.645-0.449-1.077-0.743C175.226,24.124,175.65,23.845,176.508,23.291z"/>
					<path fill="#DC9B2F" d="M181.574,28.252c-0.653,0.846-0.98,1.27-1.634,2.115c0.374,0.29,0.562,0.437,0.934,0.73
						c-0.313,0.398-0.473,0.596-0.786,0.994c-0.368-0.291-0.553-0.434-0.924-0.721c-1.63,2.109-2.443,3.164-4.073,5.273
						c-0.229,0.296-0.342,0.533-0.338,0.716c0.005,0.182,0.119,0.355,0.337,0.526c0.039,0.03,0.078,0.062,0.123,0.094
						s0.122,0.079,0.232,0.141c-0.344,0.436-0.515,0.654-0.858,1.09c-0.025-0.012-0.064-0.036-0.117-0.07
						c-0.369-0.236-0.626-0.403-0.761-0.508c-0.6-0.466-0.902-0.932-0.905-1.406s0.317-1.146,0.969-2.019
						c1.513-2.025,2.271-3.037,3.784-5.062c-0.286-0.215-0.43-0.322-0.717-0.534c0.301-0.408,0.449-0.611,0.75-1.02
						c0.291,0.215,0.436,0.319,0.725,0.536c0.473-0.633,0.709-0.948,1.182-1.581C180.326,27.82,180.743,27.961,181.574,28.252z"/>
					<path fill="#DC9B2F" d="M184.652,28.494c0.697,0.562,1.044,0.845,1.733,1.422c-0.466,0.559-0.698,0.839-1.164,1.397
						c-0.68-0.568-1.022-0.849-1.71-1.403C183.968,29.344,184.196,29.061,184.652,28.494z M181.949,31.957
						c0.628,0.508,0.942,0.765,1.564,1.284c-2.586,3.105-3.879,4.66-6.465,7.766c-0.571-0.478-0.86-0.714-1.438-1.181
						C178.146,36.679,179.413,35.104,181.949,31.957z"/>
					<path fill="#DC9B2F" d="M187.416,40.367c-0.162,0.172-0.243,0.253-0.405,0.425c-0.587-0.555-0.88-0.828-1.474-1.371
						c0.223-0.244,0.334-0.368,0.557-0.612c0.38-0.416,0.594-0.737,0.642-0.969s-0.039-0.448-0.262-0.648
						c-0.195-0.176-0.404-0.221-0.624-0.137c-0.221,0.085-0.521,0.344-0.904,0.774c-1.339,1.504-2.007,2.253-3.345,3.757
						c-0.392,0.44-0.618,0.775-0.677,1.004s0.01,0.433,0.202,0.606c0.188,0.169,0.389,0.214,0.603,0.135s0.523-0.342,0.929-0.787
						c0.265-0.29,0.399-0.435,0.664-0.725c0.584,0.534,0.877,0.802,1.454,1.348c-0.213,0.226-0.323,0.338-0.536,0.563
						c-0.691,0.733-1.363,1.128-2.012,1.186c-0.647,0.059-1.294-0.211-1.953-0.806c-0.726-0.655-1.077-1.286-1.048-1.907
						c0.029-0.623,0.472-1.437,1.335-2.439c0.954-1.108,1.433-1.665,2.387-2.773c0.862-1.003,1.615-1.558,2.258-1.652
						s1.368,0.211,2.161,0.928c0.72,0.65,1.082,1.318,1.089,1.988S188.113,39.629,187.416,40.367z"/>
					<path fill="#DC9B2F" d="M192.854,45.458c-2.224,2.089-3.336,3.131-5.56,5.22c-0.5-0.532-0.751-0.795-1.257-1.317
						c0.207-0.26,0.312-0.392,0.52-0.652c-0.413,0.084-0.789,0.081-1.127-0.006c-0.337-0.087-0.633-0.256-0.886-0.509
						c-0.456-0.456-0.647-0.922-0.577-1.406c0.07-0.485,0.408-1.05,1.023-1.686c0.483-0.5,0.727-0.749,1.21-1.249
						c0.565-0.584,1.178-0.81,1.836-0.672c0.659,0.138,1.504,0.677,2.516,1.645c0.336-0.326,0.503-0.484,0.839-0.811
						c0.434-0.421,0.678-0.749,0.733-0.983s-0.034-0.474-0.268-0.711c-0.214-0.217-0.439-0.303-0.677-0.259
						c-0.238,0.045-0.517,0.225-0.831,0.539c-0.119,0.119-0.179,0.18-0.298,0.299c-0.532-0.534-0.8-0.797-1.339-1.321
						c0.065-0.067,0.099-0.102,0.164-0.169c0.707-0.729,1.355-1.088,1.944-1.069c0.59,0.019,1.272,0.412,2.036,1.19
						c0.726,0.739,1.089,1.415,1.092,2.009S193.584,44.772,192.854,45.458z M189.646,45.688c-0.495-0.464-0.895-0.709-1.195-0.744
						c-0.303-0.035-0.626,0.118-0.969,0.46c-0.364,0.364-0.547,0.548-0.911,0.912c-0.385,0.385-0.607,0.7-0.67,0.948
						s0.011,0.479,0.226,0.696c0.209,0.213,0.437,0.293,0.681,0.234c0.245-0.06,0.565-0.281,0.96-0.664
						C188.52,46.794,188.895,46.426,189.646,45.688z"/>
				</g>
			</g>
		</g>
		<g>
			<ellipse fill="#CA8549" cx="60.694" cy="195.556" rx="27.733" ry="5.215"/>
			<ellipse fill="#CA8549" cx="138.256" cy="194.974" rx="31.688" ry="5.797"/>
			<g>
				<path fill="#F7EAE0" d="M146.898,192.091c0.014,0.07,0.031,0.148,0.086,0.203c0.074,0.078,0.197,0.082,0.309,0.082
					c0.795-0.008,1.592-0.076,2.379-0.207c0.342-0.059,0.754-0.191,0.818-0.533c0.031-0.16-0.027-0.322-0.086-0.475
					c-0.342-0.891-0.68-1.783-1.021-2.674c-0.012-0.033-0.025-0.066-0.051-0.088c-0.039-0.035-0.094-0.039-0.145-0.039
					c-0.568-0.012-1.137,0.041-1.691,0.146c-0.357,0.072-1.018,0.117-1.189,0.502c-0.162,0.365,0.115,0.994,0.195,1.352
					C146.635,190.938,146.766,191.513,146.898,192.091z"/>
				<path fill="#F7EAE0" d="M127.609,192.089c0.76,0.047,1.52,0.092,2.283,0.137c0.07,0.004,0.15,0.008,0.209-0.037
					c0.064-0.057,0.074-0.15,0.078-0.232c0.041-0.992,0.018-1.982-0.066-2.971c-0.006-0.074-0.014-0.152-0.059-0.213
					c-0.055-0.074-0.156-0.102-0.25-0.119c-0.436-0.098-0.877-0.193-1.324-0.197c-0.355-0.002-0.758,0.055-1.07,0.24
					c-0.326,0.197-0.27,0.326-0.215,0.662C127.342,190.269,127.447,191.183,127.609,192.089z"/>
				<path fill="#96A5AF" d="M145.428,189.013c1.564,0.344,3.242,0.145,4.684-0.557c-1.623-5.471-2.102-7.072-3.725-12.543
					c-0.512-1.73-1.027-3.469-1.236-5.264c-0.256-2.203-0.045-4.43,0.166-6.639c0.822-8.561,2.914-36.936,3.734-45.498
					c0.068-0.717,0.135-1.459-0.088-2.146c-0.639-1.969-6.324-2.307-8.391-2.475c-0.451-0.039-3.832-0.066-4.203,0.199
					c-0.422,0.303-3.773-0.309-3.85,0.203c-0.992,6.713,2.744,20.834,2.801,28.027c0.02,2.387,0.982,17.684,1.166,20.062
					c0.322,4.203,1.623,8.639,3.369,12.477C142.545,180.771,142.908,182.12,145.428,189.013z"/>
				<path fill="#96A5AF" d="M133.818,115.103c-0.504-0.416-5.584-0.791-6.238-0.809l-8.09,0.135
					c-0.188,13.057,2.416,48.91,4.91,61.729c1.078,5.521,2.301,7.393,2.324,13.021c1.182-0.004,2.365-0.006,3.549-0.008
					c0.402-17.604,4.811-54.242,5.213-71.844C135.508,116.437,134.506,115.669,133.818,115.103z"/>
				<path fill="#F7EAE0" d="M129.414,74.104c-1.15-3.799-5.473-4.336-6.217,0.566c-0.676,4.438-3.941,13.77-5.809,18.111
					c-0.896,2.084-2.629,3.709-5.059,4.609c-4.84,1.797-9.523,3.92-14.439,5.496c0.008,0.027,0.012,0.047,0.02,0.072
					c-0.822,0.316-1.709,0.492-2.598,0.488c-1.152-0.004-2.402-0.268-3.391,0.287c0.059,0.131,0.119,0.26,0.178,0.391
					c0.234,0.039,0.469,0.078,0.705,0.119c-0.572,0.125-1.123,0.334-1.627,0.619c-0.488,0.277-0.98,0.762-0.812,1.271
					c0.166,0.504,0.846,0.65,1.41,0.664c2.375,0.066,4.68-0.654,6.918-1.434c6.234-1.242,10.518-3.395,16.791-4.617
					c1.221-0.238,2.486-0.492,3.547-1.129c1.029-0.617,1.756-1.529,2.393-2.436C125.635,91.165,131.26,80.196,129.414,74.104z"/>
				<path fill="#F7EAE0" d="M138.922,66.233c0.875-0.924,1.559-2.219,1.924-3.836c0.678-2.984,1.039-6.119,0.309-9.039
					c-0.84-3.361-3.785-7.004-7.514-6.705c-4.371,0.352-5.027,6.064-5.359,9.875c-0.262,3.027,0.266,6.215,2.055,8.547
					C133.008,68.554,136.623,68.665,138.922,66.233z"/>
				<path fill="#536D7C" d="M121.416,191.608c0.699,0.008,1.396,0.061,2.088,0.164c0.814,0.119,1.633,0.305,2.451,0.221
					c0.367-0.037,0.727-0.129,1.09-0.182c0.562-0.082,1.131-0.074,1.699-0.066c0.523,0.006,1.045,0.016,1.568,0.021
					c0.146,0.002,0.305,0.008,0.42,0.1c0.123,0.094,0.17,0.254,0.201,0.406c0.127,0.582,0.193,1.176,0.201,1.77
					c0.004,0.355-0.027,0.744-0.264,1.01c-0.168,0.188-0.418,0.283-0.662,0.346c-0.463,0.119-0.945,0.145-1.424,0.172
					c-2.473,0.135-4.953,0.268-7.43,0.115c-0.859-0.051-2.43,0.078-3.072-0.615c-0.535-0.574-0.273-1.508,0.051-2.119
					C118.947,191.796,120.219,191.595,121.416,191.608z"/>
				<path fill="#C2C3C3" d="M122.568,193.767c0.178,0.064,0.367,0.086,0.555,0.066c0.029-0.004,0.061-0.008,0.082-0.029
					c0.025-0.025,0.029-0.062,0.031-0.098c0.041-0.627,0.049-1.258,0.025-1.887c-0.002-0.027-0.002-0.061-0.02-0.086
					c-0.02-0.031-0.061-0.043-0.098-0.053c-0.561-0.146-0.539,0.014-0.539,0.535C122.605,192.733,122.594,193.251,122.568,193.767z"
					/>
				<path fill="#C2C3C3" d="M124.51,193.464c0,0.057,0.004,0.119,0.047,0.152c0.039,0.031,0.094,0.023,0.145,0.018
					c0.152-0.023,0.307-0.045,0.461-0.068c0.027-0.006,0.057-0.01,0.076-0.027c0.023-0.023,0.023-0.062,0.025-0.096
					c0.012-0.521,0.012-1.041,0.006-1.562c0-0.025,0-0.053-0.014-0.076c-0.016-0.02-0.043-0.031-0.068-0.039
					c-0.238-0.076-0.465,0.057-0.672-0.004C124.469,192.321,124.508,192.903,124.51,193.464z"/>
				<path fill="#C2C3C3" d="M126.381,193.362c0.004,0.027,0.01,0.057,0.033,0.076c0.02,0.016,0.049,0.016,0.074,0.016
					c0.119,0,0.236,0,0.352-0.002c0.057,0,0.119-0.004,0.156-0.047c0.027-0.029,0.033-0.072,0.035-0.111
					c0.033-0.334,0.066-1.85-0.609-1.572C125.953,191.913,126.316,193.013,126.381,193.362z"/>
				<path fill="#536D7C" d="M146.291,192.448c0.195-0.346,0.43-0.674,0.738-0.92c0.324-0.26,0.719-0.418,1.115-0.537
					c0.512-0.156,1.049-0.26,1.578-0.186c0.826,0.117,1.553,0.662,2.02,1.354s0.701,1.518,0.82,2.342
					c0.027,0.189,0.047,0.385-0.021,0.562c-0.068,0.18-0.219,0.312-0.377,0.422c-0.51,0.342-1.137,0.463-1.746,0.543
					c-0.906,0.115-1.822,0.158-2.736,0.189c-0.432,0.016-0.873,0.027-1.281-0.113c-0.656-0.221-0.99-0.619-0.887-1.285
					C145.645,193.981,145.867,193.19,146.291,192.448z"/>
				<g>
					<path fill="#DCE286" d="M125.582,78.853c-1.383,11.092-4.312,21.922-6.66,32.852c-0.229,1.059-0.449,2.17-0.156,3.211
						c0.408,1.459,1.754,2.484,3.174,3.016c1.537,0.578,3.203,0.697,4.844,0.787c6.086,0.334,12.191,0.332,18.279-0.004
						c0.834-0.043,1.693-0.102,2.443-0.473c1.287-0.635,2-2.088,2.164-3.514s-0.125-2.857-0.35-4.277
						c-1.352-8.578-0.316-17.414-1.82-25.969c-0.432-2.441-1.066-4.857-1.256-7.332c-0.109-1.424-0.07-2.865-0.371-4.262
						c-0.299-1.395-1-2.783-2.227-3.512c-2.236-1.326-5.025-0.012-7.602,0.338c-1.715,0.23-3.443,0.002-5.115-0.391
						c-1.287-0.303-2.578-1.189-3.512-0.021C125.732,71.409,125.902,76.286,125.582,78.853z"/>
					<g>
						<path fill="#7464A2" d="M125.436,93.231c-1.605,0-1.607,2.496,0,2.496S127.045,93.231,125.436,93.231z"/>
						<path fill="#7464A2" d="M128.832,86.831c-1.604,0-1.607,2.496,0,2.496C130.438,89.327,130.441,86.831,128.832,86.831z"/>
						<path fill="#7464A2" d="M131.758,96.552c-1.605,0-1.609,2.494,0,2.494C133.363,99.046,133.365,96.552,131.758,96.552z"/>
						<path fill="#7464A2" d="M133.877,81.772c-1.607,0-1.609,2.494,0,2.494C135.482,84.267,135.484,81.772,133.877,81.772z"/>
						<path fill="#7464A2" d="M123.469,103.235c-1.607,0-1.607,2.496,0,2.496C125.074,105.731,125.076,103.235,123.469,103.235z"/>
						<path fill="#7464A2" d="M137.068,90.47c-1.605,0-1.609,2.494,0,2.494C138.674,92.964,138.678,90.47,137.068,90.47z"/>
						<path fill="#7464A2" d="M122.264,112.62c-1.607,0-1.607,2.494,0,2.494C123.867,115.114,123.871,112.62,122.264,112.62z"/>
						<path fill="#7464A2" d="M129.275,106.542c-1.605,0-1.609,2.494,0,2.494C130.881,109.036,130.883,106.542,129.275,106.542z"/>
						<path fill="#7464A2" d="M134.887,113.046c-1.604,0-1.607,2.496,0,2.496S136.496,113.046,134.887,113.046z"/>
						<path fill="#7464A2" d="M137.068,103.235c-1.605,0-1.609,2.496,0,2.496C138.674,105.731,138.678,103.235,137.068,103.235z"/>
						<path fill="#7464A2" d="M146.883,113.046c-1.605,0-1.607,2.496,0,2.496S148.492,113.046,146.883,113.046z"/>
						<path fill="#7464A2" d="M146.883,101.845c1.607,0,1.609-2.496,0-2.496C145.277,99.349,145.275,101.845,146.883,101.845z"/>
						<path fill="#7464A2" d="M129.275,77.036c-1.605,0-1.609,2.496,0,2.496C130.881,79.532,130.883,77.036,129.275,77.036z"/>
						<path fill="#7464A2" d="M134.887,74.11c1.607,0,1.609-2.496,0-2.496C133.283,71.614,133.279,74.11,134.887,74.11z"/>
						<path fill="#7464A2" d="M142.438,69.878c-1.604,0-1.607,2.494,0,2.494C144.043,72.372,144.047,69.878,142.438,69.878z"/>
						<path fill="#7464A2" d="M145.68,84.153c-1.605,0-1.609,2.5,0,2.5C147.285,86.653,147.287,84.153,145.68,84.153z"/>
					</g>
				</g>
				<path fill="#F7EAE0" d="M146.143,91.665c-0.133-3.125-0.479-6.236-0.826-9.346c-0.123-1.102-0.246-2.213-0.576-3.27
					c-0.307-0.969-0.783-1.891-0.941-2.893c-0.119-0.729-0.076-1.521-0.475-2.145c-0.518-0.809-1.586-1.039-2.543-1.117
					c-1.098-0.092-2.312-0.037-3.135,0.695c-1.193,1.059-0.986,2.953-0.602,4.502c0.367,1.479,0.805,2.936,1.115,4.426
					c0.59,2.828,0.711,5.736,1.293,8.564c0.482,2.354,0.42,4.654,0.588,7.051c0.27,3.848-0.533,7.592-1.252,11.383
					c-0.426,2.248-0.879,4.539-0.855,6.824c-0.408,1.33-0.771,2.674-1.154,4.01c-0.045,0.162-0.07,0.375,0.074,0.453
					c0.096,0.051,0.213,0.016,0.311,0.055c0.115,0.047,0.164,0.182,0.186,0.303c0.107,0.596-0.143,1.186-0.316,1.764
					c-0.174,0.58-0.252,1.268,0.131,1.732c0.227,0.277,0.58,0.422,0.93,0.5c0.605,0.139,1.281,0.096,1.795-0.252
					c0.801-0.547,0.982-1.635,1.08-2.598c0.182-1.771,0.314-3.543,0.418-5.318c1.393-6.332,2.783-12.666,4.174-19
					c0.209-0.953,0.42-1.908,0.525-2.881C146.209,93.966,146.191,92.813,146.143,91.665z"/>
				<path fill="#86623A" d="M156.676,84.548c-0.473-0.338-1.098-0.443-1.521-0.844c-0.588-0.559-0.588-1.508-0.359-2.287
					c0.23-0.779,0.646-1.51,0.754-2.314c0.279-2.107-1.527-3.82-2.867-5.471c-3.576-4.404-4.316-10.264-4.42-15.752
					c-0.021-1.205,0.1-2.463-0.104-3.348c0.02-0.104,0.037-0.201,0.057-0.303c0.645-3.193-0.357-5.242-2.402-7.398
					c-3.332-3.512-8.684-4.938-13.25-3.174c-0.119,0.047-0.24,0.098-0.363,0.148c-1.57,1.357-2.924,3.006-3.506,5.162
					c-0.359,1.334-0.475,2.893-0.215,4.281c0.055,0.184,0.119,0.361,0.188,0.539c0.08-1.475,0.359-3.053,1.096-3.465
					c0.668-0.377,4.035,0.764,5.053,0.691c1.713-0.117,4.754-1.283,5.668,0.777c0.463,1.039-0.09,2.26-0.502,3.256
					c-0.025,0.061-0.045,0.105-0.068,0.16c-0.256,0.613-0.498,1.234-0.537,1.443c-0.332,1.82-0.564,3.471-0.561,4.826
					c-0.652,2.408-0.768,4.98-0.678,7.488c0.014,0.369,0.033,0.748,0.189,1.08c0.598,1.283,2.465,0.969,3.844,1.283
					c1.418,0.322,2.508,1.492,3.186,2.781c1.893,3.592,1.115,7.941,1.584,11.975c0.125,1.078,0.35,2.168,0.883,3.113
					c1.092,1.938,3.514,3.02,5.684,2.541c2.17-0.48,3.91-2.482,4.084-4.697C157.662,86.118,157.43,85.087,156.676,84.548z"/>
			</g>
			<g>
				<path fill="#EADFD2" d="M92.318,107.024c-0.686-0.865-1.787-1.385-2.891-1.363c0.256-0.26,0.52-0.682,0.264-0.943
					c-0.158-0.164-0.42-0.139-0.645-0.113c-0.969,0.115-1.957,0.033-2.893-0.238c-0.084-0.025-0.172-0.049-0.258-0.074
					c0.002-0.002,0.002-0.002,0.002-0.004c-5.67-2.115-11.156-4.715-16.383-7.766c0.412-1.867,0.328-3.803,0.242-5.715
					c-0.125-2.752-0.248-5.502-0.371-8.252c-0.049-1.055-0.137-2.211-0.865-2.973c-1.285-1.344-3.76-0.459-4.627,1.186
					c-0.867,1.643-0.617,3.627-0.348,5.467c0.709,4.811,1.42,9.623,2.127,14.432c0.082,0.551,0.184,1.145,0.582,1.533
					c0.314,0.309,0.76,0.434,1.184,0.545c5.719,1.521,11.438,3.039,17.154,4.559c0.008-0.012,0.014-0.023,0.021-0.033
					c2.07,1.197,4.637,1.518,6.93,0.832c0.244-0.074,0.502-0.17,0.65-0.379C92.336,107.526,92.346,107.265,92.318,107.024z"/>
				<path fill="#6C9FA5" d="M84.678,107.474c-0.045,0.107-0.102,0.225-0.207,0.279c-0.104,0.057-0.229,0.037-0.344,0.016
					c-5.893-1.09-12.029-2.008-17.607-4.195c-0.453-0.18-0.916-0.373-1.254-0.723c-0.4-0.412-0.574-0.992-0.732-1.545
					c-1.826-6.367-3.555-12.885-3.322-19.506c0.049-1.385,0.223-2.869,1.137-3.912c1-1.145,2.629-1.469,4.135-1.67
					c0.982-0.129,2.086-0.203,2.854,0.426c0.744,0.609,0.904,1.666,1.012,2.621c0.359,3.186,0.719,6.371,1.078,9.557
					c0.244,2.15,0.486,4.299,0.729,6.447c0.047,0.412,0.096,0.834,0.283,1.205c0.385,0.764,1.248,1.135,2.041,1.455
					c2.818,1.146,5.586,2.412,8.295,3.797c0.738,0.377,3.008,1.305,3.279,2.145c0.154,0.484-0.5,1.287-0.688,1.725
					C85.068,106.282,84.977,106.786,84.678,107.474z"/>
				<g>
					<path fill="#999898" d="M63.27,196.124c0.641,0.457-0.23,0.822-0.648,0.855c-0.76,0.062-1.549,0.025-2.293-0.127
						c-0.195-0.041-0.396-0.092-0.555-0.201c-0.125-0.084-0.217-0.201-0.305-0.312c-0.246-0.314-0.826-0.809-0.918-1.172
						c-0.076-0.299,0.135-0.592,0.299-0.863c0.348-0.582,0.945-1.178,0.918-1.867c1.646,0.154,3.229-0.332,4.592,0.047
						c0.117,0.492,0.545,0.895,0.346,1.279c0.133-0.254,4.113,0.604,4.584,0.682c0.76,0.127,1.523,0.234,2.295,0.295
						c0.6,0.045,1.75-0.191,2.088,0.32c0.121,0.182,0.158,0.395,0.178,0.604c0.014,0.158,0.016,0.32-0.045,0.471
						c-0.104,0.26-0.383,0.447-0.684,0.541C69.852,197.706,66.592,196.081,63.27,196.124z"/>
					<g>
						<path fill="#4A4B49" d="M73.793,115.958c-0.217-0.637-0.898-0.979-1.525-1.221c-4.16-1.609-8.721-1.775-13.182-1.754
							c-2.314,0.01-4.627,0.064-6.939,0.164c-1.607,0.068-4.873,0.105-5.701,1.838c-0.938,1.955-1.75,5.814-1.277,7.77
							c0.865,3.576,0.545,9.973,1.512,14.582c-0.096,18.986-0.191,37.975-0.291,56.963c1.539,0.039,3.078,0.076,4.617,0.113
							c0.227-6.26,2.146-12.367,3.74-18.479c1.689-6.475,3-13.02,3.969-19.604c0.326,12.273,0.654,24.547,0.982,36.82
							c1.539,0.002,3.078,0.004,4.617,0.006c0.029-6.26,1.754-12.412,3.154-18.559c3.244-14.262,6.037-36.611,5.793-51.141H73.26
							c0.143-2.162,0.26-4.32,0.551-6.383C73.863,116.704,73.912,116.317,73.793,115.958z"/>
						<path fill="#999898" d="M49.865,197.353c0.627,0.473-0.254,0.816-0.674,0.842c-0.762,0.045-1.549-0.01-2.287-0.182
							c-0.195-0.043-0.395-0.1-0.549-0.213c-0.121-0.088-0.211-0.203-0.295-0.32c-0.236-0.318-0.801-0.828-0.881-1.191
							c-0.066-0.301,0.154-0.588,0.328-0.859c0.367-0.57,0.982-1.154,0.975-1.844c1.643,0.193,3.236-0.256,4.592,0.156
							c0.098,0.494,0.516,0.904,0.303,1.285c0.141-0.252,4.092,0.699,4.561,0.791c0.756,0.145,1.516,0.27,2.283,0.346
							c0.6,0.059,1.758-0.152,2.078,0.369c0.113,0.184,0.146,0.396,0.158,0.607c0.008,0.158,0.006,0.32-0.059,0.471
							c-0.113,0.256-0.396,0.436-0.701,0.523C56.395,199.087,53.189,197.39,49.865,197.353z"/>
					</g>
				</g>
				<path fill="#EADFD2" d="M66.463,48.331c-1.541,1.182-2.475,2.971-3.332,4.711c-1.062,2.162-2.104,4.41-2.258,6.812
					c-0.115,1.777,0.242,3.676-0.57,5.26c3.033,1.16,6.018,2.447,8.943,3.859c4.168-4.504,7.064-10.174,8.268-16.191
					c0.041-0.201,0.078-0.414,0.008-0.604c-0.08-0.213-0.279-0.355-0.469-0.482c-2.605-1.721-5.617-2.707-8.586-3.674
					c-0.314-0.102-0.639-0.203-0.967-0.174C67.115,47.882,66.77,48.097,66.463,48.331z"/>
				<path fill="#7FBAC9" d="M73.533,112.073c-0.145-3.141-0.207-6.283-0.176-9.428c0.068-7.203-0.312-14.373-0.836-21.561
					c-0.211-2.908-0.451-5.812-0.717-8.713c-0.105-1.137-3.389-2.312-4.219-2.492c-0.488-0.105-0.969-0.25-1.443-0.412
					c-0.455-0.156-0.902-0.326-1.35-0.5c-2.24-0.859-4.484-1.721-6.725-2.58c-0.332-0.127-0.689-0.258-1.037-0.184
					c-0.27,0.057-0.5,0.227-0.713,0.398c-4.188,3.377-5.326,8.871-6.475,13.863c-2.58,11.221-4.037,22.678-4.355,34.162
					c0,0,0.664,1.82,2.908,3.105c2.244,1.281,10.342,2.23,10.342,2.23l11.025-1.193C69.764,118.771,73.699,117.519,73.533,112.073z"
					/>
				<path fill="#86623A" d="M67.438,58.411c-0.486-0.514-1.088-1.07-1.791-0.975c-0.648,0.086-1.1,0.729-1.225,1.369
					s-0.008,1.303,0.027,1.957c0.008,0.137,0.008,0.289-0.086,0.393c-0.102,0.109-0.268,0.115-0.418,0.133
					c-0.574,0.059-1.115,0.371-1.453,0.838c-0.26,0.357-0.4,0.793-0.701,1.109c-0.41,0.436-1.035,0.578-1.625,0.67
					c-0.574,0.088-1.152,0.148-1.729,0.182c-0.471,0.027-1.023-0.004-1.295-0.389c-0.051-0.072-0.09-0.162-0.074-0.248
					c0.027-0.154,0.189-0.232,0.318-0.318c0.488-0.32,0.645-0.961,0.682-1.545c0.037-0.582,0-1.193,0.25-1.721
					c0.141-0.297,0.361-0.547,0.588-0.781c1.645-1.695,3.787-2.832,6.041-3.484c0.598-0.174,2.82-0.973,3.33-0.502
					C68.75,55.536,67.564,57.782,67.438,58.411z"/>
				<path fill="#86623A" d="M75.697,55.069c0.295,0.174,0.576,0.391,0.748,0.686c0.109,0.184,0.17,0.393,0.268,0.584
					c0.227,0.436,0.654,0.762,1.133,0.865c0.004-0.457,0.006-0.914,0.01-1.369c0-0.105,0.006-0.221,0.082-0.287
					c0.107-0.096,0.285-0.045,0.404-0.123c0.109-0.072,0.127-0.223,0.135-0.354c0.031-0.582,0.061-1.184-0.137-1.732
					c-0.072-0.199-0.182-0.396-0.357-0.516c-0.186-0.119-0.416-0.137-0.639-0.143c-1.066-0.025-3.27,0.107-4.082,0.943
					C72.408,54.505,75.119,54.733,75.697,55.069z"/>
				<path fill="#EAD5BE" d="M95.471,106.499c0.738,0.041,1.5,0.072,2.193-0.182s1.312-0.865,1.338-1.605
					c0.027-0.789-0.633-1.477-1.381-1.738c-0.744-0.264-1.562-0.203-2.354-0.137c0.467-0.135,0.5-0.869,0.129-1.182
					c-0.375-0.312-0.932-0.277-1.389-0.113s-0.873,0.438-1.344,0.564c-0.418,0.117-0.953,0.418-1.391,0.41
					c-1.877-0.039-2.812-0.33-5.488-0.635c-0.754-0.086-1.463-0.238-2.213-0.373c-0.521-0.098-1.037-0.25-1.566-0.279
					c-0.789-0.043-1.67,0.48-2.461,0.402c-0.625-0.061-1.189-0.098-1.539,0.551c-0.551,1.025,0.504,2.201,1.41,2.541
					c1.492,0.561,3.418,0.564,4.996,0.766c1.764,0.229,3.531,0.424,5.303,0.588C91.629,106.257,93.549,106.396,95.471,106.499z"/>
				<path fill="#6C9FA5" d="M73.477,98.044c-0.48-0.092-0.971-0.186-1.404-0.424c-0.488-0.27-0.875-0.705-1.205-1.172
					c-1.432-2.012-1.941-4.58-2.412-7.061c-0.285-1.494-0.57-2.996-0.682-4.521c-0.076-1.045-0.25-2.451-0.701-3.35
					c-0.52-1.041-1.684-2.918-2.043-3.162c-1.877-1.287-4.383-1.76-6.312-0.322c-0.547,0.408-1.945,2.641-2.039,3.328
					c-0.107,0.799,0.107,2.732,0,3.787c-0.033,0.338,0.078,0.668,0.18,0.986c0.277,0.877,0.553,1.75,0.828,2.625
					c0.324,1.029,0.648,2.059,1.074,3.049c0.572,1.338,1.32,2.588,2.219,3.705c0.791,0.986,1.57,2.762,2.473,3.639
					c0.924,0.898,1.775,2.307,2.699,3.205c0.652,0.639,1.314,1.279,2.092,1.736c0.742,0.436,1.568,0.691,2.395,0.912
					c3.969,1.062,15.936,1.373,20.029,1.701l0.385-4.469C87.482,102.323,76.98,98.712,73.477,98.044z"/>
				<path fill="#86623A" d="M59.723,48.347c-0.869,0.695-2.006,0.941-3.002,1.445c-0.994,0.5-1.934,1.477-1.76,2.574
					c0.217,1.361,2.008,2.16,1.971,3.539c-0.014,0.482-0.266,0.936-0.305,1.418c-0.1,1.26,1.33,2.191,2.59,2.111
					c1.264-0.084,2.365-0.838,3.445-1.494c4.135-2.508,8.932-3.9,13.768-4.043c0.807-0.023,1.648-0.02,2.377-0.365
					c0.732-0.346,1.312-1.166,1.09-1.945c-0.314-1.096-1.836-1.303-2.506-2.225c-0.371-0.508-0.436-1.174-0.684-1.752
					c-0.449-1.043-1.447-1.725-2.396-2.35c-1.949-1.281-4.01-2.604-6.334-2.787c-2.064-0.166-4.213,0.615-5.857,1.844
					C60.65,45.415,61.189,47.171,59.723,48.347z"/>
			</g>
		</g>
	</g>
</g>
</svg>
