<?xml version="1.0" encoding="utf-8"?>
<!-- Generator: Adobe Illustrator 16.0.0, SVG Export Plug-In . SVG Version: 6.00 Build 0)  -->
<!DOCTYPE svg PUBLIC "-//W3C//DTD SVG 1.1//EN" "http://www.w3.org/Graphics/SVG/1.1/DTD/svg11.dtd">
<svg version="1.1" id="Capa_1" xmlns="http://www.w3.org/2000/svg" xmlns:xlink="http://www.w3.org/1999/xlink" x="0px" y="0px"
	 width="920.083px" height="465.547px" viewBox="0 0 920.083 465.547" enable-background="new 0 0 920.083 465.547"
	 xml:space="preserve">
<g>
	<g>
		<g>
			<g>
				<path d="M314.983,3.882h3.088c1.674,0,2.847,0.273,3.519,0.82c0.672,0.548,1.009,1.48,1.009,2.8v4.163
					c0,1.293-0.334,2.222-1.002,2.786c-0.667,0.565-1.768,0.848-3.3,0.848h-0.747v8.584h-2.564L314.983,3.882L314.983,3.882z
					 M317.55,5.889v7.417h0.466c0.726,0,1.219-0.157,1.48-0.475c0.263-0.315,0.395-0.954,0.395-1.911V8.248
					c0-0.958-0.129-1.591-0.388-1.898s-0.755-0.461-1.487-0.461H317.55z"/>
				<path d="M331.954,13.36v10.522h-2.425l-0.144-1.14c-0.301,0.488-0.649,0.856-1.051,1.105s-0.839,0.372-1.318,0.372
					c-0.863,0-1.488-0.273-1.875-0.82c-0.386-0.547-0.576-1.43-0.576-2.65v-2.4c0-1.121,0.359-1.932,1.085-2.434
					c0.725-0.502,1.97-0.789,3.735-0.861v-1.613c0-0.832-0.08-1.388-0.237-1.668c-0.16-0.279-0.447-0.42-0.86-0.42
					c-0.376,0-0.648,0.138-0.818,0.414c-0.169,0.275-0.254,0.721-0.254,1.335v0.583h-2.369V13.36c0-1.401,0.271-2.378,0.806-2.929
					c0.536-0.552,1.472-0.828,2.807-0.828c1.271,0,2.169,0.281,2.7,0.842S331.954,11.977,331.954,13.36z M329.374,16.777
					c-0.865,0.045-1.45,0.199-1.756,0.461c-0.308,0.262-0.458,0.728-0.458,1.396v1.776c0,0.751,0.087,1.276,0.261,1.579
					c0.174,0.304,0.463,0.455,0.867,0.455c0.395,0,0.677-0.149,0.846-0.447c0.17-0.299,0.254-0.828,0.254-1.587L329.374,16.777z"/>
				<path d="M339.929,9.754v2.129h-0.126c-0.894,0-1.521,0.189-1.883,0.568c-0.362,0.38-0.543,1.054-0.543,2.021v9.41h-2.538V9.943
					h2.425l0.113,1.139c0.319-0.461,0.662-0.803,1.029-1.023c0.364-0.222,0.766-0.332,1.196-0.332c0.038,0,0.094,0.004,0.162,0.014
					C339.838,9.749,339.892,9.754,339.929,9.754z"/>
				<path d="M348.594,13.36v10.522h-2.425l-0.142-1.14c-0.303,0.488-0.651,0.856-1.053,1.105c-0.398,0.249-0.839,0.372-1.316,0.372
					c-0.865,0-1.49-0.273-1.875-0.82c-0.386-0.547-0.578-1.43-0.578-2.65v-2.4c0-1.121,0.361-1.932,1.085-2.434
					c0.725-0.502,1.97-0.789,3.737-0.861v-1.613c0-0.832-0.08-1.388-0.239-1.668c-0.16-0.279-0.447-0.42-0.86-0.42
					c-0.376,0-0.646,0.138-0.816,0.414c-0.169,0.275-0.254,0.721-0.254,1.335v0.583h-2.369V13.36c0-1.401,0.269-2.378,0.804-2.929
					c0.536-0.552,1.472-0.828,2.807-0.828c1.271,0,2.169,0.281,2.7,0.842S348.594,11.977,348.594,13.36z M346.014,16.777
					c-0.863,0.045-1.448,0.199-1.756,0.461c-0.306,0.262-0.458,0.728-0.458,1.396v1.776c0,0.751,0.087,1.276,0.261,1.579
					c0.176,0.304,0.465,0.455,0.867,0.455c0.396,0,0.679-0.149,0.848-0.447c0.17-0.299,0.254-0.828,0.254-1.587L346.014,16.777z"/>
				<path d="M355.61,3.584v1.749h-0.325c-0.441,0-0.742,0.072-0.902,0.217c-0.16,0.145-0.239,0.416-0.239,0.813v3.58h1.325v1.749
					h-1.325v12.19h-2.553v-12.19h-1.001V9.943h1.001V7.326c0-1.591,0.212-2.617,0.635-3.078c0.425-0.461,1.231-0.691,2.428-0.691
					c0.254,0,0.446,0.002,0.585,0.007C355.372,3.568,355.497,3.574,355.61,3.584z"/>
				<path d="M362.258,9.754v2.129h-0.126c-0.894,0-1.521,0.189-1.883,0.568c-0.362,0.38-0.543,1.054-0.543,2.021v9.41h-2.538V9.943
					h2.425l0.113,1.139c0.319-0.461,0.662-0.803,1.029-1.023c0.364-0.222,0.766-0.332,1.196-0.332c0.038,0,0.094,0.004,0.162,0.014
					C362.167,9.749,362.221,9.754,362.258,9.754z"/>
				<path d="M370.924,13.36v10.522h-2.425l-0.142-1.14c-0.303,0.488-0.651,0.856-1.053,1.105c-0.398,0.249-0.839,0.372-1.316,0.372
					c-0.865,0-1.49-0.273-1.875-0.82c-0.388-0.547-0.578-1.43-0.578-2.65v-2.4c0-1.121,0.361-1.932,1.085-2.434
					c0.725-0.502,1.97-0.789,3.737-0.861v-1.613c0-0.832-0.08-1.388-0.239-1.668c-0.16-0.279-0.447-0.42-0.86-0.42
					c-0.376,0-0.646,0.138-0.816,0.414c-0.169,0.275-0.256,0.721-0.256,1.335v0.583h-2.367V13.36c0-1.401,0.269-2.378,0.804-2.929
					c0.536-0.552,1.472-0.828,2.807-0.828c1.271,0,2.169,0.281,2.7,0.842S370.924,11.977,370.924,13.36z M368.344,16.777
					c-0.865,0.045-1.45,0.199-1.756,0.461c-0.306,0.262-0.458,0.728-0.458,1.396v1.776c0,0.751,0.087,1.276,0.261,1.579
					c0.176,0.304,0.463,0.455,0.867,0.455c0.396,0,0.677-0.149,0.846-0.447c0.172-0.299,0.256-0.828,0.256-1.587L368.344,16.777z"/>
				<path d="M380.309,13.306v0.665h-2.452v-0.719c0-0.796-0.063-1.311-0.19-1.546s-0.364-0.353-0.712-0.353
					c-0.32,0-0.548,0.11-0.687,0.332c-0.136,0.222-0.202,0.586-0.202,1.092v0.528c0,0.226,0.085,0.479,0.254,0.76
					c0.169,0.281,0.439,0.619,0.815,1.017l2.073,2.102c0.451,0.471,0.78,0.904,0.987,1.303c0.207,0.396,0.311,0.799,0.311,1.206
					v1.112c0,1.148-0.292,2.004-0.875,2.569c-0.583,0.564-1.476,0.847-2.679,0.847c-1.26,0-2.144-0.266-2.646-0.799
					c-0.503-0.533-0.754-1.492-0.754-2.875v-0.163v-0.949h2.369v1.112c0,0.76,0.065,1.27,0.197,1.532
					c0.131,0.263,0.371,0.394,0.719,0.394c0.414,0,0.705-0.123,0.874-0.367c0.17-0.244,0.254-0.659,0.254-1.247V20.33
					c0-0.326-0.084-0.653-0.254-0.983c-0.169-0.33-0.432-0.671-0.789-1.024l-2.017-2.021c-0.564-0.588-0.933-1.062-1.102-1.431
					c-0.17-0.366-0.254-0.78-0.254-1.241v-0.8c0-1.058,0.291-1.859,0.874-2.407c0.583-0.547,1.443-0.82,2.58-0.82
					c1.186,0,2.031,0.285,2.539,0.855C380.055,11.027,380.309,11.977,380.309,13.306z"/>
				<path d="M390.356,14.391v3.24h-4.797v2.753c0,0.813,0.084,1.365,0.256,1.654c0.169,0.29,0.46,0.435,0.874,0.435
					c0.402,0,0.688-0.154,0.854-0.461c0.164-0.308,0.246-0.85,0.246-1.628v-1.192h2.566V20.1c0,1.428-0.295,2.467-0.883,3.118
					c-0.588,0.651-1.523,0.977-2.812,0.977c-1.394,0-2.359-0.337-2.905-1.011c-0.545-0.673-0.815-1.923-0.815-3.749v-5.044
					c0-1.835,0.272-3.092,0.823-3.77c0.552-0.678,1.524-1.018,2.928-1.018c1.361,0,2.312,0.344,2.854,1.031
					C390.086,11.321,390.356,12.574,390.356,14.391z M387.789,13.414c0-0.805-0.082-1.357-0.246-1.66
					c-0.165-0.303-0.449-0.455-0.854-0.455c-0.414,0-0.705,0.149-0.874,0.447c-0.172,0.299-0.256,0.854-0.256,1.668v2.522h2.229
					V13.414z"/>
				<path d="M400.29,13.36v10.522h-2.425l-0.144-1.14c-0.301,0.488-0.649,0.856-1.051,1.105c-0.398,0.249-0.839,0.372-1.316,0.372
					c-0.865,0-1.49-0.273-1.875-0.82c-0.388-0.547-0.578-1.43-0.578-2.65v-2.4c0-1.121,0.359-1.932,1.085-2.434
					c0.725-0.502,1.97-0.789,3.735-0.861v-1.613c0-0.832-0.08-1.388-0.237-1.668c-0.16-0.279-0.447-0.42-0.86-0.42
					c-0.376,0-0.648,0.138-0.818,0.414c-0.169,0.275-0.254,0.721-0.254,1.335v0.583h-2.369V13.36c0-1.401,0.271-2.378,0.806-2.929
					c0.536-0.552,1.472-0.828,2.807-0.828c1.271,0,2.169,0.281,2.7,0.842S400.29,11.977,400.29,13.36z M397.71,16.777
					c-0.865,0.045-1.45,0.199-1.756,0.461c-0.306,0.262-0.458,0.728-0.458,1.396v1.776c0,0.751,0.087,1.276,0.261,1.579
					c0.174,0.304,0.463,0.455,0.867,0.455c0.395,0,0.677-0.149,0.846-0.447c0.17-0.299,0.254-0.828,0.254-1.587L397.71,16.777z"/>
				<path d="M408.265,9.754v2.129h-0.126c-0.894,0-1.521,0.189-1.883,0.568c-0.362,0.38-0.543,1.054-0.543,2.021v9.41h-2.538V9.943
					h2.425l0.113,1.139c0.319-0.461,0.662-0.803,1.029-1.023c0.366-0.222,0.766-0.332,1.198-0.332c0.036,0,0.092,0.004,0.16,0.014
					C408.174,9.749,408.228,9.754,408.265,9.754z"/>
			</g>
			<g>
				<g>
					
						<line fill="none" stroke="#C2CD29" stroke-width="4" stroke-miterlimit="10" x1="314.757" y1="28.85" x2="320.757" y2="28.85"/>
					
						<line fill="none" stroke="#C2CD29" stroke-width="4" stroke-miterlimit="10" stroke-dasharray="11.4709,1.9118" x1="322.669" y1="28.85" x2="402.009" y2="28.85"/>
					
						<line fill="none" stroke="#C2CD29" stroke-width="4" stroke-miterlimit="10" x1="402.965" y1="28.85" x2="408.965" y2="28.85"/>
				</g>
			</g>
		</g>
		<g>
			<g>
				<path d="M430.63,3.882h3.61c1.605,0,2.733,0.253,3.384,0.759c0.649,0.507,0.974,1.365,0.974,2.577v3.228
					c0,1.029-0.222,1.783-0.663,2.258c-0.44,0.475-1.192,0.766-2.256,0.874c1.108,0.081,1.889,0.366,2.333,0.854
					c0.447,0.488,0.67,1.314,0.67,2.48v6.971h-2.75v-6.997c0-0.968-0.139-1.589-0.416-1.864c-0.275-0.275-0.848-0.414-1.713-0.414
					h-0.604v9.275h-2.566L430.63,3.882L430.63,3.882z M433.196,5.889v6.726h0.55c0.827,0,1.385-0.151,1.671-0.454
					c0.287-0.303,0.431-0.91,0.431-1.824v-2.17c0-0.923-0.144-1.532-0.431-1.831c-0.286-0.298-0.844-0.447-1.671-0.447H433.196z"/>
				<path d="M449.012,14.391v3.24h-4.795v2.753c0,0.813,0.084,1.365,0.254,1.654c0.169,0.29,0.46,0.435,0.874,0.435
					c0.404,0,0.688-0.154,0.854-0.461c0.164-0.308,0.246-0.85,0.246-1.628v-1.192h2.565V20.1c0,1.428-0.294,2.467-0.882,3.118
					c-0.588,0.651-1.523,0.977-2.812,0.977c-1.394,0-2.359-0.337-2.905-1.011c-0.545-0.673-0.817-1.923-0.817-3.749v-5.044
					c0-1.835,0.274-3.092,0.825-3.77c0.55-0.678,1.524-1.018,2.926-1.018c1.363,0,2.314,0.344,2.855,1.031
					C448.742,11.321,449.012,12.574,449.012,14.391z M446.444,13.414c0-0.805-0.082-1.357-0.246-1.66
					c-0.165-0.303-0.449-0.455-0.854-0.455c-0.414,0-0.705,0.149-0.874,0.447c-0.17,0.299-0.254,0.854-0.254,1.668v2.522h2.229
					L446.444,13.414L446.444,13.414z"/>
				<path d="M455.942,3.584v1.749h-0.325c-0.441,0-0.742,0.072-0.902,0.217c-0.16,0.145-0.239,0.416-0.239,0.813v3.58h1.325v1.749
					h-1.325v12.19h-2.553v-12.19h-1.001V9.943h1.001V7.326c0-1.591,0.212-2.617,0.635-3.078s1.231-0.691,2.428-0.691
					c0.254,0,0.446,0.002,0.585,0.007C455.704,3.568,455.829,3.574,455.942,3.584z"/>
				<path d="M457.501,3.882h2.538v20.001h-2.538V3.882z"/>
				<path d="M470.27,14.391v3.24h-4.795v2.753c0,0.813,0.084,1.365,0.254,1.654c0.17,0.29,0.461,0.435,0.873,0.435
					c0.404,0,0.689-0.154,0.855-0.461c0.164-0.308,0.246-0.85,0.246-1.628v-1.192h2.564V20.1c0,1.428-0.295,2.467-0.883,3.118
					c-0.588,0.651-1.521,0.977-2.811,0.977c-1.395,0-2.359-0.337-2.904-1.011c-0.545-0.673-0.816-1.923-0.816-3.749v-5.044
					c0-1.835,0.273-3.092,0.824-3.77c0.551-0.678,1.523-1.018,2.926-1.018c1.363,0,2.314,0.344,2.855,1.031
					C470,11.321,470.27,12.574,470.27,14.391z M467.702,13.414c0-0.805-0.082-1.357-0.246-1.66
					c-0.164-0.303-0.449-0.455-0.854-0.455c-0.414,0-0.705,0.149-0.873,0.447c-0.172,0.299-0.256,0.854-0.256,1.668v2.522h2.229
					V13.414z"/>
				<path d="M473.069,9.943h2.537v15.553c0,1.645-0.199,2.705-0.6,3.18c-0.4,0.475-1.168,0.712-2.307,0.712
					c-0.254,0-0.449-0.005-0.584-0.014c-0.139-0.009-0.264-0.019-0.375-0.027V27.57h0.254c0.404,0,0.684-0.076,0.84-0.23
					c0.154-0.154,0.232-0.425,0.232-0.813V9.943H473.069z M472.983,3.882h2.723v2.509h-2.723V3.882z"/>
				<path d="M485.639,13.36v10.522h-2.424l-0.143-1.14c-0.301,0.488-0.65,0.856-1.051,1.105c-0.402,0.249-0.842,0.372-1.318,0.372
					c-0.865,0-1.49-0.273-1.875-0.82s-0.578-1.43-0.578-2.65v-2.4c0-1.121,0.361-1.932,1.086-2.434s1.969-0.789,3.736-0.861v-1.613
					c0-0.832-0.08-1.388-0.238-1.668c-0.16-0.279-0.447-0.42-0.861-0.42c-0.375,0-0.646,0.138-0.816,0.414
					c-0.17,0.275-0.254,0.721-0.254,1.335v0.583h-2.369V13.36c0-1.401,0.268-2.378,0.803-2.929c0.537-0.552,1.473-0.828,2.811-0.828
					c1.27,0,2.168,0.281,2.697,0.842C485.375,11.006,485.639,11.977,485.639,13.36z M483.059,16.777
					c-0.863,0.045-1.449,0.199-1.756,0.461c-0.305,0.262-0.457,0.728-0.457,1.396v1.776c0,0.751,0.086,1.276,0.262,1.579
					c0.174,0.304,0.463,0.455,0.865,0.455c0.396,0,0.678-0.149,0.848-0.447c0.17-0.299,0.254-0.828,0.254-1.587L483.059,16.777z"/>
				<path d="M493.614,9.754v2.129h-0.127c-0.895,0-1.521,0.189-1.883,0.568c-0.361,0.38-0.543,1.054-0.543,2.021v9.41h-2.537V9.943
					h2.424l0.113,1.139c0.318-0.461,0.662-0.803,1.029-1.023c0.365-0.222,0.766-0.332,1.197-0.332c0.039,0,0.092,0.004,0.162,0.014
					C493.522,9.749,493.577,9.754,493.614,9.754z"/>
				<path d="M507.842,14.391v3.24h-4.795v2.753c0,0.813,0.084,1.365,0.254,1.654c0.17,0.29,0.461,0.435,0.875,0.435
					c0.404,0,0.688-0.154,0.854-0.461c0.164-0.308,0.246-0.85,0.246-1.628v-1.192h2.566V20.1c0,1.428-0.293,2.467-0.881,3.118
					c-0.588,0.651-1.525,0.977-2.812,0.977c-1.393,0-2.359-0.337-2.906-1.011c-0.545-0.673-0.816-1.923-0.816-3.749v-5.044
					c0-1.835,0.273-3.092,0.824-3.77c0.551-0.678,1.525-1.018,2.926-1.018c1.363,0,2.314,0.344,2.855,1.031
					C507.573,11.321,507.842,12.574,507.842,14.391z M505.276,13.414c0-0.805-0.082-1.357-0.246-1.66
					c-0.166-0.303-0.449-0.455-0.855-0.455c-0.414,0-0.705,0.149-0.873,0.447c-0.17,0.299-0.254,0.854-0.254,1.668v2.522h2.23
					v-2.522H505.276z"/>
				<path d="M517.551,11.164c0.375-0.533,0.76-0.928,1.148-1.18c0.391-0.254,0.812-0.381,1.273-0.381
					c0.818,0,1.395,0.252,1.725,0.753c0.328,0.502,0.492,1.427,0.492,2.772v10.754h-2.512V13.496c0-0.732-0.072-1.243-0.227-1.533
					c-0.15-0.289-0.4-0.434-0.748-0.434c-0.365,0-0.627,0.152-0.781,0.455c-0.152,0.303-0.23,0.807-0.23,1.512v10.387h-2.539V13.496
					c0-0.75-0.072-1.266-0.219-1.547c-0.146-0.279-0.395-0.42-0.74-0.42c-0.365,0-0.633,0.154-0.795,0.461
					c-0.166,0.308-0.248,0.81-0.248,1.506v10.387h-2.51V9.943h2.426l0.109,1.111c0.32-0.496,0.674-0.863,1.061-1.098
					c0.385-0.235,0.832-0.354,1.34-0.354c0.498,0,0.934,0.147,1.305,0.441C517.252,10.339,517.475,10.711,517.551,11.164z"/>
				<path d="M532.393,13.075v7.675c0,1.238-0.189,2.127-0.57,2.664c-0.381,0.538-1.008,0.807-1.883,0.807
					c-0.451,0-0.877-0.126-1.275-0.379c-0.4-0.253-0.746-0.619-1.037-1.099v6.414h-2.537V9.943h2.424l0.113,1.111
					c0.291-0.47,0.637-0.829,1.037-1.078c0.398-0.248,0.834-0.373,1.305-0.373c0.855,0,1.477,0.27,1.855,0.808
					S532.393,11.837,532.393,13.075z M529.799,13.496c0-0.75-0.08-1.266-0.24-1.547c-0.16-0.279-0.438-0.42-0.832-0.42
					s-0.678,0.147-0.846,0.441c-0.17,0.293-0.254,0.802-0.254,1.525v6.807c0,0.723,0.084,1.236,0.254,1.539
					c0.168,0.303,0.451,0.454,0.846,0.454s0.672-0.145,0.832-0.435c0.16-0.289,0.24-0.809,0.24-1.559V13.496z"/>
				<path d="M542.327,13.36v10.522h-2.424l-0.143-1.14c-0.301,0.488-0.65,0.856-1.051,1.105c-0.402,0.249-0.84,0.372-1.318,0.372
					c-0.865,0-1.49-0.273-1.875-0.82c-0.387-0.547-0.578-1.43-0.578-2.65v-2.4c0-1.121,0.361-1.932,1.086-2.434
					s1.969-0.789,3.736-0.861v-1.613c0-0.832-0.08-1.388-0.238-1.668c-0.16-0.279-0.447-0.42-0.861-0.42
					c-0.375,0-0.648,0.138-0.818,0.414c-0.168,0.275-0.254,0.721-0.254,1.335v0.583h-2.369V13.36c0-1.401,0.271-2.378,0.807-2.929
					c0.533-0.552,1.473-0.828,2.807-0.828c1.27,0,2.17,0.281,2.701,0.842S542.327,11.977,542.327,13.36z M539.747,16.777
					c-0.865,0.045-1.449,0.199-1.756,0.461c-0.305,0.262-0.457,0.728-0.457,1.396v1.776c0,0.751,0.086,1.276,0.26,1.579
					c0.174,0.304,0.463,0.455,0.867,0.455c0.395,0,0.678-0.149,0.846-0.447c0.17-0.299,0.254-0.828,0.254-1.587L539.747,16.777z
					 M539.028,4.858h2.396l-1.961,3.255h-1.65L539.028,4.858z"/>
				<path d="M547.989,6.255v3.688h1.496v1.749h-1.496v9.193c0,0.515,0.078,0.87,0.232,1.064c0.154,0.194,0.42,0.292,0.797,0.292
					c0.066,0,0.137-0.003,0.213-0.008c0.074-0.004,0.195-0.02,0.365-0.047V24.1c-0.037,0.009-0.1,0.018-0.184,0.027
					c-0.604,0.062-1.021,0.094-1.254,0.094c-1.045,0-1.766-0.26-2.158-0.779c-0.396-0.52-0.592-1.529-0.592-3.03v-8.719h-1.146
					v-1.75h1.146V7.218L547.989,6.255z"/>
				<path d="M551.422,3.882h2.723v2.509h-2.723V3.882z M551.508,9.943h2.537v13.939h-2.537V9.943z"/>
				<path d="M563.967,13.713v0.813h-2.566v-1.14c0-0.777-0.076-1.306-0.227-1.586c-0.15-0.28-0.414-0.42-0.791-0.42
					c-0.328,0-0.561,0.145-0.697,0.434s-0.203,0.832-0.203,1.627v6.942c0,0.813,0.07,1.365,0.219,1.654
					c0.145,0.29,0.391,0.435,0.74,0.435c0.338,0,0.578-0.141,0.719-0.421c0.141-0.28,0.211-0.836,0.211-1.668v-1.356h2.596V20.1
					c0,1.392-0.293,2.422-0.875,3.092c-0.582,0.668-1.477,1.003-2.68,1.003c-1.326,0-2.248-0.337-2.771-1.011
					c-0.52-0.673-0.779-1.923-0.779-3.749v-5.044c0-1.826,0.266-3.08,0.797-3.763s1.459-1.024,2.785-1.024
					c1.201,0,2.092,0.335,2.666,1.004C563.68,11.277,563.967,12.312,563.967,13.713z"/>
				<path d="M573.604,13.36v10.522h-2.426l-0.141-1.14c-0.301,0.488-0.652,0.856-1.051,1.105c-0.4,0.249-0.842,0.372-1.318,0.372
					c-0.865,0-1.49-0.273-1.875-0.82c-0.387-0.547-0.578-1.43-0.578-2.65v-2.4c0-1.121,0.361-1.932,1.084-2.434
					c0.727-0.502,1.971-0.789,3.738-0.861v-1.613c0-0.832-0.08-1.388-0.24-1.668c-0.16-0.279-0.447-0.42-0.859-0.42
					c-0.375,0-0.648,0.138-0.818,0.414c-0.168,0.275-0.254,0.721-0.254,1.335v0.583h-2.369V13.36c0-1.401,0.27-2.378,0.805-2.929
					c0.535-0.552,1.475-0.828,2.809-0.828c1.27,0,2.17,0.281,2.697,0.842C573.338,11.006,573.604,11.977,573.604,13.36z
					 M571.024,16.777c-0.865,0.045-1.449,0.199-1.756,0.461c-0.307,0.262-0.459,0.728-0.459,1.396v1.776
					c0,0.751,0.088,1.276,0.262,1.579c0.174,0.304,0.463,0.455,0.867,0.455c0.395,0,0.678-0.149,0.846-0.447
					c0.17-0.299,0.254-0.828,0.254-1.587L571.024,16.777z"/>
				<path d="M583.397,11.164c0.377-0.533,0.76-0.928,1.148-1.18c0.391-0.254,0.816-0.381,1.277-0.381
					c0.814,0,1.391,0.252,1.721,0.753c0.328,0.502,0.492,1.427,0.492,2.772v10.754h-2.51V13.496c0-0.732-0.074-1.243-0.229-1.533
					c-0.146-0.289-0.396-0.434-0.748-0.434c-0.365,0-0.627,0.152-0.781,0.455c-0.152,0.303-0.23,0.807-0.23,1.512v10.387H581V13.496
					c0-0.75-0.072-1.266-0.219-1.547c-0.146-0.279-0.395-0.42-0.74-0.42c-0.367,0-0.633,0.154-0.797,0.461
					c-0.164,0.308-0.246,0.81-0.246,1.506v10.387h-2.51V9.943h2.424l0.113,1.111c0.316-0.496,0.672-0.863,1.059-1.098
					c0.385-0.235,0.832-0.354,1.34-0.354c0.498,0,0.932,0.147,1.303,0.441C583.1,10.339,583.323,10.711,583.397,11.164z"/>
				<path d="M598.268,14.391v3.24h-4.795v2.753c0,0.813,0.084,1.365,0.256,1.654c0.168,0.29,0.459,0.435,0.873,0.435
					c0.404,0,0.688-0.154,0.854-0.461c0.164-0.308,0.246-0.85,0.246-1.628v-1.192h2.568V20.1c0,1.428-0.295,2.467-0.883,3.118
					c-0.588,0.651-1.525,0.977-2.812,0.977c-1.393,0-2.359-0.337-2.906-1.011c-0.545-0.673-0.816-1.923-0.816-3.749v-5.044
					c0-1.835,0.273-3.092,0.824-3.77c0.551-0.678,1.525-1.018,2.928-1.018c1.361,0,2.312,0.344,2.855,1.031
					C597.999,11.321,598.268,12.574,598.268,14.391z M595.702,13.414c0-0.805-0.082-1.357-0.246-1.66
					c-0.166-0.303-0.449-0.455-0.854-0.455c-0.412,0-0.703,0.149-0.873,0.447c-0.17,0.299-0.256,0.854-0.256,1.668v2.522h2.23
					v-2.522H595.702z"/>
				<path d="M608.372,13.129v10.754h-2.566V13.496c0-0.75-0.082-1.266-0.244-1.547c-0.164-0.279-0.449-0.42-0.855-0.42
					c-0.395,0-0.678,0.147-0.846,0.441c-0.17,0.293-0.254,0.802-0.254,1.525v10.387h-2.539V9.943h2.426l0.111,1.111
					c0.311-0.479,0.674-0.84,1.088-1.084c0.412-0.244,0.859-0.367,1.34-0.367c0.863,0,1.471,0.256,1.816,0.767
					C608.196,10.881,608.372,11.801,608.372,13.129z"/>
				<path d="M614.034,6.255v3.688h1.494v1.749h-1.494v9.193c0,0.515,0.078,0.87,0.232,1.064c0.154,0.194,0.42,0.292,0.797,0.292
					c0.064,0,0.137-0.003,0.211-0.008c0.074-0.004,0.197-0.02,0.365-0.047V24.1c-0.035,0.009-0.098,0.018-0.182,0.027
					c-0.602,0.062-1.021,0.094-1.256,0.094c-1.043,0-1.762-0.26-2.158-0.779c-0.395-0.52-0.592-1.529-0.592-3.03v-8.719h-1.145
					v-1.75h1.145V7.218L614.034,6.255z"/>
				<path d="M624.885,14.391v3.24h-4.795v2.753c0,0.813,0.084,1.365,0.254,1.654c0.17,0.29,0.461,0.435,0.875,0.435
					c0.404,0,0.688-0.154,0.854-0.461c0.164-0.308,0.246-0.85,0.246-1.628v-1.192h2.566V20.1c0,1.428-0.293,2.467-0.881,3.118
					c-0.588,0.651-1.525,0.977-2.812,0.977c-1.393,0-2.359-0.337-2.906-1.011c-0.545-0.673-0.816-1.923-0.816-3.749v-5.044
					c0-1.835,0.273-3.092,0.824-3.77c0.551-0.678,1.525-1.018,2.926-1.018c1.363,0,2.314,0.344,2.855,1.031
					C624.616,11.321,624.885,12.574,624.885,14.391z M622.319,13.414c0-0.805-0.082-1.357-0.246-1.66
					c-0.166-0.303-0.449-0.455-0.855-0.455c-0.414,0-0.705,0.149-0.873,0.447c-0.17,0.299-0.254,0.854-0.254,1.668v2.522h2.23
					v-2.522H622.319z"/>
			</g>
			<g>
				<g>
					
						<line fill="none" stroke="#C2CD29" stroke-width="4" stroke-miterlimit="10" x1="429.632" y1="28.85" x2="435.632" y2="28.85"/>
					
						<line fill="none" stroke="#C2CD29" stroke-width="4" stroke-miterlimit="10" stroke-dasharray="12.0972,2.0162" x1="437.648" y1="28.85" x2="620.114" y2="28.85"/>
					
						<line fill="none" stroke="#C2CD29" stroke-width="4" stroke-miterlimit="10" x1="621.122" y1="28.85" x2="627.122" y2="28.85"/>
				</g>
			</g>
		</g>
		<g>
			<g>
				<path d="M655.938,7.882v1.505h-2.693V8.031c0-0.904-0.088-1.534-0.262-1.892c-0.174-0.356-0.463-0.536-0.867-0.536
					c-0.498,0-0.844,0.18-1.035,0.536c-0.193,0.357-0.289,1.114-0.289,2.271v10.943c0,1.176,0.092,1.938,0.273,2.285
					c0.184,0.348,0.516,0.521,0.994,0.521c0.434,0,0.738-0.17,0.916-0.508c0.18-0.34,0.27-0.938,0.27-1.797V18.05h2.721v1.831
					c0,1.636-0.291,2.768-0.873,3.396c-0.584,0.628-1.609,0.941-3.088,0.941c-1.449,0-2.467-0.381-3.055-1.145
					c-0.588-0.765-0.881-2.172-0.881-4.225V8.912c0-2.033,0.293-3.43,0.881-4.189c0.588-0.759,1.625-1.139,3.109-1.139
					c1.438,0,2.443,0.312,3.02,0.936C655.651,5.143,655.938,6.264,655.938,7.882z"/>
				<path d="M658.356,3.882h2.537v20.001h-2.537V3.882z"/>
				<path d="M670.926,13.36v10.522h-2.424l-0.143-1.14c-0.303,0.488-0.65,0.856-1.053,1.105c-0.4,0.249-0.84,0.372-1.316,0.372
					c-0.865,0-1.49-0.273-1.875-0.82s-0.578-1.43-0.578-2.65v-2.4c0-1.121,0.361-1.932,1.086-2.434s1.969-0.789,3.736-0.861v-1.613
					c0-0.832-0.08-1.388-0.238-1.668c-0.16-0.279-0.447-0.42-0.861-0.42c-0.375,0-0.646,0.138-0.816,0.414
					c-0.17,0.275-0.254,0.721-0.254,1.335v0.583h-2.369V13.36c0-1.401,0.268-2.378,0.803-2.929c0.537-0.552,1.473-0.828,2.807-0.828
					c1.271,0,2.17,0.281,2.701,0.842S670.926,11.977,670.926,13.36z M668.346,16.777c-0.863,0.045-1.449,0.199-1.756,0.461
					c-0.305,0.262-0.457,0.728-0.457,1.396v1.776c0,0.751,0.086,1.276,0.26,1.579c0.176,0.304,0.465,0.455,0.867,0.455
					c0.396,0,0.678-0.149,0.848-0.447c0.17-0.299,0.254-0.828,0.254-1.587L668.346,16.777z"/>
				<path d="M678.901,9.754v2.129h-0.127c-0.895,0-1.521,0.189-1.883,0.568c-0.361,0.38-0.543,1.054-0.543,2.021v9.41h-2.539V9.943
					h2.426l0.113,1.139c0.318-0.461,0.662-0.803,1.029-1.023c0.365-0.222,0.766-0.332,1.197-0.332c0.039,0,0.092,0.004,0.162,0.014
					C678.809,9.749,678.864,9.754,678.901,9.754z"/>
				<path d="M680.346,3.882h2.723v2.509h-2.723V3.882z M680.432,9.943h2.537v13.939h-2.537V9.943z"/>
				<path d="M689.999,3.584v1.749h-0.324c-0.439,0-0.742,0.072-0.9,0.217c-0.16,0.145-0.238,0.416-0.238,0.813v3.58h1.324v1.749
					h-1.324v12.19h-2.553v-12.19h-1.002V9.943h1.002V7.326c0-1.591,0.211-2.617,0.635-3.078c0.422-0.461,1.229-0.691,2.426-0.691
					c0.254,0,0.447,0.002,0.584,0.007C689.76,3.568,689.885,3.574,689.999,3.584z"/>
				<path d="M691.473,3.882h2.723v2.509h-2.723V3.882z M691.557,9.943h2.539v13.939h-2.539V9.943z"/>
				<path d="M704.016,13.713v0.813h-2.566v-1.14c0-0.777-0.074-1.306-0.227-1.586c-0.15-0.28-0.414-0.42-0.789-0.42
					c-0.328,0-0.562,0.145-0.697,0.434c-0.137,0.289-0.205,0.832-0.205,1.627v6.942c0,0.813,0.072,1.365,0.219,1.654
					c0.146,0.29,0.393,0.435,0.74,0.435c0.338,0,0.578-0.141,0.719-0.421c0.143-0.28,0.213-0.836,0.213-1.668v-1.356h2.594V20.1
					c0,1.392-0.291,2.422-0.873,3.092c-0.584,0.668-1.477,1.003-2.68,1.003c-1.326,0-2.25-0.337-2.77-1.011
					c-0.521-0.673-0.781-1.923-0.781-3.749v-5.044c0-1.826,0.266-3.08,0.797-3.763s1.459-1.024,2.785-1.024
					c1.203,0,2.092,0.335,2.664,1.004S704.016,12.312,704.016,13.713z"/>
				<path d="M713.653,13.36v10.522h-2.424l-0.143-1.14c-0.301,0.488-0.652,0.856-1.051,1.105c-0.4,0.249-0.84,0.372-1.318,0.372
					c-0.865,0-1.49-0.273-1.875-0.82c-0.387-0.547-0.578-1.43-0.578-2.65v-2.4c0-1.121,0.361-1.932,1.084-2.434
					c0.727-0.502,1.971-0.789,3.738-0.861v-1.613c0-0.832-0.08-1.388-0.24-1.668c-0.158-0.279-0.445-0.42-0.859-0.42
					c-0.375,0-0.648,0.138-0.818,0.414c-0.168,0.275-0.254,0.721-0.254,1.335v0.583h-2.369V13.36c0-1.401,0.271-2.378,0.805-2.929
					c0.535-0.552,1.475-0.828,2.809-0.828c1.27,0,2.17,0.281,2.701,0.842C713.387,11.006,713.653,11.977,713.653,13.36z
					 M711.073,16.777c-0.865,0.045-1.449,0.199-1.756,0.461c-0.307,0.262-0.457,0.728-0.457,1.396v1.776
					c0,0.751,0.086,1.276,0.26,1.579c0.174,0.304,0.463,0.455,0.867,0.455c0.395,0,0.678-0.149,0.846-0.447
					c0.17-0.299,0.254-0.828,0.254-1.587L711.073,16.777z"/>
				<path d="M721.627,9.754v2.129h-0.125c-0.895,0-1.521,0.189-1.883,0.568c-0.363,0.38-0.543,1.054-0.543,2.021v9.41h-2.539V9.943
					h2.426l0.113,1.139c0.316-0.461,0.662-0.803,1.025-1.023c0.367-0.222,0.77-0.332,1.199-0.332c0.037,0,0.092,0.004,0.162,0.014
					C721.538,9.749,721.59,9.754,721.627,9.754z"/>
			</g>
			<g>
				<g>
					
						<line fill="none" stroke="#C2CD29" stroke-width="4" stroke-miterlimit="10" x1="648.063" y1="28.85" x2="654.063" y2="28.85"/>
					
						<line fill="none" stroke="#C2CD29" stroke-width="4" stroke-miterlimit="10" stroke-dasharray="12.6007,2.1001" x1="656.163" y1="28.85" x2="713.917" y2="28.85"/>
					
						<line fill="none" stroke="#C2CD29" stroke-width="4" stroke-miterlimit="10" x1="714.965" y1="28.85" x2="720.965" y2="28.85"/>
				</g>
			</g>
		</g>
		<g>
			<g>
				<path d="M742.079,3.882h3.609c1.607,0,2.734,0.253,3.385,0.759c0.648,0.507,0.973,1.365,0.973,2.577v3.228
					c0,1.029-0.221,1.783-0.662,2.258c-0.439,0.475-1.191,0.766-2.256,0.874c1.107,0.081,1.887,0.366,2.332,0.854
					c0.447,0.488,0.67,1.314,0.67,2.48v6.971h-2.75v-6.997c0-0.968-0.139-1.589-0.416-1.864s-0.848-0.414-1.713-0.414h-0.604v9.275
					h-2.566V3.882H742.079z M744.645,5.889v6.726h0.551c0.826,0,1.385-0.151,1.67-0.454c0.287-0.303,0.432-0.91,0.432-1.824v-2.17
					c0-0.923-0.145-1.532-0.432-1.831c-0.285-0.298-0.844-0.447-1.67-0.447H744.645z"/>
				<path d="M760.459,14.391v3.24h-4.795v2.753c0,0.813,0.084,1.365,0.254,1.654c0.17,0.29,0.461,0.435,0.875,0.435
					c0.404,0,0.688-0.154,0.854-0.461c0.164-0.308,0.246-0.85,0.246-1.628v-1.192h2.566V20.1c0,1.428-0.293,2.467-0.881,3.118
					c-0.588,0.651-1.525,0.977-2.814,0.977c-1.391,0-2.357-0.337-2.904-1.011c-0.545-0.673-0.816-1.923-0.816-3.749v-5.044
					c0-1.835,0.273-3.092,0.824-3.77c0.551-0.678,1.523-1.018,2.926-1.018c1.363,0,2.314,0.344,2.855,1.031
					C760.19,11.321,760.459,12.574,760.459,14.391z M757.893,13.414c0-0.805-0.082-1.357-0.246-1.66
					c-0.164-0.303-0.449-0.455-0.854-0.455c-0.414,0-0.705,0.149-0.875,0.447c-0.17,0.299-0.254,0.854-0.254,1.668v2.522h2.229
					V13.414z"/>
				<path d="M770.282,13.713v0.813h-2.566v-1.14c0-0.777-0.076-1.306-0.227-1.586c-0.15-0.28-0.414-0.42-0.789-0.42
					c-0.33,0-0.562,0.145-0.699,0.434c-0.135,0.289-0.203,0.832-0.203,1.627v6.942c0,0.813,0.072,1.365,0.219,1.654
					c0.146,0.29,0.395,0.435,0.74,0.435c0.338,0,0.578-0.141,0.719-0.421c0.145-0.28,0.215-0.836,0.215-1.668v-1.356h2.594V20.1
					c0,1.392-0.291,2.422-0.873,3.092c-0.584,0.668-1.48,1.003-2.682,1.003c-1.324,0-2.248-0.337-2.771-1.011
					c-0.52-0.673-0.783-1.923-0.783-3.749v-5.044c0-1.826,0.27-3.08,0.797-3.763c0.531-0.683,1.459-1.024,2.785-1.024
					c1.203,0,2.092,0.335,2.666,1.004C769.995,11.277,770.282,12.312,770.282,13.713z"/>
				<path d="M779.918,13.36v10.522h-2.424l-0.145-1.14c-0.301,0.488-0.648,0.856-1.051,1.105c-0.4,0.249-0.84,0.372-1.316,0.372
					c-0.865,0-1.49-0.273-1.875-0.82c-0.389-0.547-0.578-1.43-0.578-2.65v-2.4c0-1.121,0.359-1.932,1.086-2.434
					c0.725-0.502,1.969-0.789,3.734-0.861v-1.613c0-0.832-0.078-1.388-0.236-1.668c-0.16-0.279-0.447-0.42-0.861-0.42
					c-0.375,0-0.646,0.138-0.818,0.414c-0.168,0.275-0.254,0.721-0.254,1.335v0.583h-2.369V13.36c0-1.401,0.27-2.378,0.805-2.929
					c0.537-0.552,1.473-0.828,2.807-0.828c1.271,0,2.17,0.281,2.701,0.842S779.918,11.977,779.918,13.36z M777.338,16.777
					c-0.865,0.045-1.449,0.199-1.756,0.461c-0.305,0.262-0.457,0.728-0.457,1.396v1.776c0,0.751,0.086,1.276,0.26,1.579
					c0.174,0.304,0.463,0.455,0.867,0.455c0.396,0,0.678-0.149,0.846-0.447c0.17-0.299,0.256-0.828,0.256-1.587L777.338,16.777z"/>
				<path d="M790.108,13.075v7.675c0,1.238-0.189,2.127-0.57,2.664c-0.381,0.538-1.01,0.807-1.883,0.807
					c-0.451,0-0.877-0.126-1.277-0.379c-0.396-0.253-0.744-0.619-1.035-1.099v6.414h-2.539V9.943h2.428l0.111,1.111
					c0.291-0.47,0.639-0.829,1.035-1.078c0.4-0.248,0.834-0.373,1.305-0.373c0.855,0,1.477,0.27,1.855,0.808
					S790.108,11.837,790.108,13.075z M787.514,13.496c0-0.75-0.08-1.266-0.24-1.547c-0.16-0.279-0.438-0.42-0.832-0.42
					s-0.678,0.147-0.846,0.441c-0.17,0.293-0.254,0.802-0.254,1.525v6.807c0,0.723,0.084,1.236,0.254,1.539
					c0.168,0.303,0.451,0.454,0.846,0.454s0.672-0.145,0.832-0.435c0.16-0.289,0.24-0.809,0.24-1.559V13.496z"/>
				<path d="M792.823,3.882h2.721v2.509h-2.721V3.882z M792.907,9.943h2.539v13.939h-2.539V9.943z"/>
				<path d="M801.122,6.255v3.688h1.494v1.749h-1.494v9.193c0,0.515,0.078,0.87,0.232,1.064c0.154,0.194,0.42,0.292,0.797,0.292
					c0.064,0,0.137-0.003,0.211-0.008c0.074-0.004,0.197-0.02,0.365-0.047V24.1c-0.035,0.009-0.098,0.018-0.182,0.027
					c-0.602,0.062-1.021,0.094-1.256,0.094c-1.043,0-1.762-0.26-2.158-0.779c-0.395-0.52-0.592-1.529-0.592-3.03v-8.719h-1.143
					v-1.75h1.143V7.218L801.122,6.255z"/>
				<path d="M804.612,9.943h2.564v10.359c0,0.76,0.082,1.281,0.246,1.566c0.166,0.284,0.449,0.427,0.855,0.427
					c0.395,0,0.676-0.151,0.846-0.454c0.17-0.303,0.254-0.816,0.254-1.539V9.943h2.566v13.939h-2.453l-0.113-1.14
					c-0.311,0.479-0.67,0.841-1.078,1.085c-0.41,0.244-0.857,0.366-1.348,0.366c-0.855,0-1.459-0.253-1.812-0.759
					c-0.352-0.507-0.527-1.424-0.527-2.754V9.943L804.612,9.943z"/>
				<path d="M814.829,3.882h2.537v20.001h-2.537V3.882z"/>
				<path d="M827.399,13.36v10.522h-2.426l-0.143-1.14c-0.301,0.488-0.65,0.856-1.051,1.105c-0.402,0.249-0.838,0.372-1.318,0.372
					c-0.865,0-1.49-0.273-1.875-0.82s-0.578-1.43-0.578-2.65v-2.4c0-1.121,0.361-1.932,1.086-2.434s1.971-0.789,3.736-0.861v-1.613
					c0-0.832-0.08-1.388-0.238-1.668c-0.16-0.279-0.447-0.42-0.859-0.42c-0.377,0-0.648,0.138-0.818,0.414
					c-0.17,0.275-0.254,0.721-0.254,1.335v0.583h-2.369V13.36c0-1.401,0.268-2.378,0.803-2.929c0.537-0.552,1.475-0.828,2.811-0.828
					c1.27,0,2.168,0.281,2.697,0.842C827.133,11.006,827.399,11.977,827.399,13.36z M824.819,16.777
					c-0.865,0.045-1.451,0.199-1.756,0.461c-0.307,0.262-0.459,0.728-0.459,1.396v1.776c0,0.751,0.088,1.276,0.262,1.579
					c0.174,0.304,0.463,0.455,0.867,0.455c0.395,0,0.676-0.149,0.846-0.447c0.17-0.299,0.254-0.828,0.254-1.587L824.819,16.777z"/>
				<path d="M835.374,9.754v2.129h-0.127c-0.893,0-1.521,0.189-1.883,0.568c-0.361,0.38-0.543,1.054-0.543,2.021v9.41h-2.537V9.943
					h2.424l0.113,1.139c0.318-0.461,0.662-0.803,1.029-1.023c0.365-0.222,0.766-0.332,1.197-0.332c0.039,0,0.092,0.004,0.162,0.014
					C835.282,9.749,835.336,9.754,835.374,9.754z"/>
			</g>
			<g>
				<g>
					
						<line fill="none" stroke="#C2CD29" stroke-width="4" stroke-miterlimit="10" x1="741.631" y1="28.85" x2="747.631" y2="28.85"/>
					
						<line fill="none" stroke="#C2CD29" stroke-width="4" stroke-miterlimit="10" stroke-dasharray="11.4419,1.907" x1="749.54" y1="28.85" x2="828.678" y2="28.85"/>
					
						<line fill="none" stroke="#C2CD29" stroke-width="4" stroke-miterlimit="10" x1="829.631" y1="28.85" x2="835.631" y2="28.85"/>
				</g>
			</g>
		</g>
		<g>
			<g>
				<path d="M862.479,7.502v1.75h-2.693V7.326c0-0.65-0.076-1.105-0.232-1.363c-0.152-0.258-0.426-0.386-0.811-0.386
					c-0.424,0-0.721,0.145-0.896,0.434c-0.174,0.29-0.26,0.851-0.26,1.682v0.976c0,0.715,0.365,1.561,1.102,2.536v0.014l2.553,3.499
					c0.523,0.731,0.879,1.357,1.059,1.877c0.178,0.521,0.268,1.105,0.268,1.756v1.316c0,1.527-0.342,2.668-1.021,3.423
					c-0.682,0.755-1.709,1.132-3.082,1.132c-1.381,0-2.354-0.298-2.926-0.895c-0.568-0.596-0.854-1.641-0.854-3.132v-1.979h2.734
					v2.033c0,0.715,0.088,1.212,0.262,1.492c0.174,0.279,0.473,0.42,0.896,0.42c0.471,0,0.795-0.156,0.973-0.468
					c0.18-0.312,0.27-0.933,0.27-1.864v-1.166c0-0.75-0.354-1.627-1.059-2.631l-0.07-0.095l-2.68-3.743
					c-0.387-0.523-0.666-1.023-0.84-1.498c-0.174-0.475-0.26-0.955-0.26-1.443V7.855c0-1.41,0.336-2.475,1.008-3.193
					c0.672-0.719,1.676-1.078,3.01-1.078c1.252,0,2.156,0.303,2.715,0.908S862.479,6.102,862.479,7.502z"/>
				<path d="M865.01,3.882h2.723v2.509h-2.723V3.882z M865.096,9.943h2.537v13.939h-2.537V9.943z"/>
				<path d="M870.532,3.882h2.537v20.001h-2.537V3.882z"/>
				<path d="M883.299,14.391v3.24h-4.795v2.753c0,0.813,0.084,1.365,0.254,1.654c0.17,0.29,0.461,0.435,0.875,0.435
					c0.404,0,0.688-0.154,0.854-0.461c0.164-0.308,0.246-0.85,0.246-1.628v-1.192h2.566V20.1c0,1.428-0.293,2.467-0.881,3.118
					c-0.588,0.651-1.525,0.977-2.812,0.977c-1.393,0-2.359-0.337-2.906-1.011c-0.545-0.673-0.816-1.923-0.816-3.749v-5.044
					c0-1.835,0.273-3.092,0.824-3.77c0.551-0.678,1.525-1.018,2.926-1.018c1.363,0,2.314,0.344,2.855,1.031
					C883.03,11.321,883.299,12.574,883.299,14.391z M880.733,13.414c0-0.805-0.082-1.357-0.246-1.66
					c-0.166-0.303-0.449-0.455-0.855-0.455c-0.414,0-0.705,0.149-0.873,0.447c-0.17,0.299-0.254,0.854-0.254,1.668v2.522h2.23
					v-2.522H880.733z"/>
				<path d="M893.405,13.129v10.754h-2.568V13.496c0-0.75-0.082-1.266-0.246-1.547c-0.164-0.279-0.447-0.42-0.854-0.42
					c-0.395,0-0.678,0.147-0.846,0.441c-0.17,0.293-0.254,0.802-0.254,1.525v10.387H886.1V9.943h2.426l0.111,1.111
					c0.311-0.479,0.672-0.84,1.086-1.084c0.414-0.244,0.861-0.367,1.342-0.367c0.863,0,1.471,0.256,1.816,0.767
					C893.229,10.881,893.405,11.801,893.405,13.129z"/>
				<path d="M903.309,13.713v0.813h-2.564v-1.14c0-0.777-0.076-1.306-0.227-1.586c-0.15-0.28-0.414-0.42-0.789-0.42
					c-0.33,0-0.562,0.145-0.699,0.434c-0.135,0.289-0.203,0.832-0.203,1.627v6.942c0,0.813,0.072,1.365,0.219,1.654
					c0.146,0.29,0.395,0.435,0.74,0.435c0.338,0,0.578-0.141,0.719-0.421c0.145-0.28,0.211-0.836,0.211-1.668v-1.356h2.598V20.1
					c0,1.392-0.295,2.422-0.875,3.092c-0.582,0.668-1.479,1.003-2.682,1.003c-1.326,0-2.248-0.337-2.77-1.011
					c-0.521-0.673-0.783-1.923-0.783-3.749v-5.044c0-1.826,0.266-3.08,0.797-3.763s1.459-1.024,2.785-1.024
					c1.203,0,2.092,0.335,2.666,1.004C903.024,11.277,903.309,12.312,903.309,13.713z"/>
				<path d="M905.729,3.882h2.723v2.509h-2.723V3.882z M905.813,9.943h2.537v13.939h-2.537V9.943z"/>
				<path d="M918.583,14.391v5.044c0,1.826-0.275,3.081-0.826,3.763c-0.549,0.684-1.521,1.023-2.926,1.023
					c-1.355,0-2.303-0.343-2.85-1.029c-0.545-0.688-0.816-1.939-0.816-3.757v-5.044c0-1.835,0.273-3.092,0.824-3.77
					c0.551-0.678,1.523-1.018,2.926-1.018c1.346,0,2.293,0.349,2.842,1.045C918.307,11.344,918.583,12.592,918.583,14.391z
					 M915.987,13.441c0-0.787-0.082-1.326-0.246-1.62c-0.166-0.294-0.449-0.44-0.855-0.44c-0.402,0-0.688,0.146-0.854,0.44
					c-0.164,0.294-0.246,0.833-0.246,1.62v6.942c0,0.813,0.082,1.365,0.246,1.654c0.166,0.29,0.449,0.435,0.854,0.435
					c0.406,0,0.689-0.154,0.855-0.461c0.164-0.308,0.246-0.85,0.246-1.628V13.441z"/>
			</g>
			<g>
				<g>
					
						<line fill="none" stroke="#C2CD29" stroke-width="4" stroke-miterlimit="10" x1="854.299" y1="28.85" x2="860.299" y2="28.85"/>
					
						<line fill="none" stroke="#C2CD29" stroke-width="4" stroke-miterlimit="10" stroke-dasharray="10.9655,1.8276" x1="862.127" y1="28.85" x2="912.385" y2="28.85"/>
					
						<line fill="none" stroke="#C2CD29" stroke-width="4" stroke-miterlimit="10" x1="913.299" y1="28.85" x2="919.299" y2="28.85"/>
				</g>
			</g>
		</g>
	</g>
	<polyline fill="none" stroke="#451B71" stroke-width="2" stroke-miterlimit="10" stroke-dasharray="12,2" points="271.066,444.415 
		286.849,444.314 286.849,16.974 302.663,16.974 	"/>
	<g>
		<g>
			<g>
				<g>
					<g>
						<g>
							<defs>
								<circle id="SVGID_1_" cx="132.493" cy="131.59" r="101.991"/>
							</defs>
							<clipPath id="SVGID_2_">
								<use xlink:href="#SVGID_1_"  overflow="visible"/>
							</clipPath>
							<circle clip-path="url(#SVGID_2_)" fill="#2B1C48" cx="132.493" cy="131.59" r="101.991"/>
						</g>
					</g>
				</g>
			</g>
			<g>
				<g>
					<path fill="#2B1C48" d="M39.462,43.164c1.247-1.328,1.879-1.979,3.161-3.252c0.53,0.534,0.794,0.802,1.325,1.336
						c-0.717,0.713-1.074,1.072-1.78,1.803c1.667,1.613,2.501,2.424,4.167,4.038c0.636-0.657,0.957-0.983,1.603-1.626
						c0.531,0.533,0.795,0.799,1.326,1.333c-0.635,0.633-0.951,0.95-1.577,1.598c2.363,2.288,3.544,3.433,5.908,5.721
						c-0.469,0.485-0.702,0.729-1.165,1.224C47.242,50.469,44.65,48.033,39.462,43.164z"/>
					<path fill="#2B1C48" d="M53.161,41.559c2.492,2.793,3.738,4.188,6.229,6.98c-0.448,0.4-0.67,0.604-1.114,1.011
						c-0.3-0.274-0.45-0.409-0.75-0.684c0.154,0.447,0.217,0.835,0.186,1.166c-0.031,0.331-0.154,0.601-0.371,0.805
						c-0.391,0.369-0.84,0.462-1.352,0.28c-0.512-0.182-1.145-0.658-1.9-1.438c-0.594-0.613-0.892-0.92-1.486-1.533
						c-0.695-0.717-1.027-1.403-0.989-2.059c0.038-0.655,0.464-1.416,1.287-2.26c-0.388-0.422-0.583-0.633-0.971-1.055
						c-0.501-0.545-0.875-0.872-1.124-0.981s-0.478-0.069-0.685,0.124c-0.188,0.176-0.241,0.395-0.158,0.651
						c0.084,0.259,0.314,0.589,0.688,0.986c0.142,0.151,0.212,0.229,0.354,0.378c-0.465,0.438-0.697,0.658-1.157,1.104
						c-0.081-0.083-0.119-0.125-0.2-0.208c-0.866-0.896-1.34-1.648-1.412-2.259c-0.072-0.611,0.233-1.239,0.911-1.871
						c0.645-0.6,1.274-0.832,1.879-0.706C51.633,40.119,52.341,40.641,53.161,41.559z M53.93,44.963
						c-0.391,0.414-0.579,0.78-0.565,1.088c0.013,0.308,0.225,0.676,0.632,1.107c0.433,0.46,0.65,0.69,1.083,1.15
						c0.458,0.486,0.817,0.788,1.082,0.908c0.265,0.121,0.49,0.099,0.676-0.075c0.182-0.169,0.222-0.39,0.121-0.657
						c-0.101-0.268-0.379-0.65-0.836-1.147C55.246,46.388,54.807,45.912,53.93,44.963z"/>
					<path fill="#2B1C48" d="M58.411,37.525c0.181,0.227,0.271,0.343,0.451,0.569c-0.529,0.423-0.791,0.635-1.315,1.066
						c-0.257-0.313-0.386-0.47-0.644-0.783c-0.439-0.534-0.777-0.868-1.013-0.996c-0.237-0.128-0.453-0.109-0.648,0.054
						c-0.171,0.143-0.211,0.343-0.116,0.6c0.095,0.257,0.37,0.654,0.825,1.196c1.588,1.892,2.382,2.839,3.969,4.731
						c0.464,0.554,0.814,0.898,1.05,1.037c0.236,0.139,0.435,0.142,0.602,0.003c0.162-0.135,0.198-0.328,0.107-0.577
						c-0.09-0.248-0.37-0.654-0.839-1.226c-0.307-0.373-0.46-0.561-0.767-0.934c0.512-0.421,0.768-0.631,1.285-1.044
						c0.238,0.299,0.357,0.445,0.595,0.743c0.772,0.968,1.201,1.802,1.294,2.491c0.093,0.688-0.143,1.262-0.71,1.734
						c-0.625,0.521-1.25,0.658-1.885,0.415c-0.635-0.243-1.486-0.974-2.548-2.202c-1.173-1.357-1.761-2.038-2.935-3.396
						c-1.062-1.228-1.655-2.188-1.774-2.885c-0.12-0.698,0.169-1.344,0.869-1.926c0.634-0.528,1.295-0.683,1.972-0.465
						C56.911,35.952,57.634,36.551,58.411,37.525z"/>
					<path fill="#2B1C48" d="M54.31,29.624c0.61-0.475,0.917-0.708,1.532-1.173c0.536,0.713,0.804,1.07,1.34,1.783
						c-0.605,0.456-0.905,0.688-1.505,1.154C55.131,30.684,54.857,30.329,54.31,29.624z M57.659,33.848
						c0.545-0.424,0.82-0.634,1.37-1.049c2.982,3.963,4.473,5.945,7.454,9.907c-0.494,0.373-0.74,0.564-1.23,0.945
						C62.216,39.731,60.696,37.768,57.659,33.848z"/>
					<path fill="#2B1C48" d="M57.434,27.271c0.58-0.423,0.87-0.633,1.454-1.047c4.107,5.812,6.16,8.718,10.266,14.529
						c-0.503,0.356-0.753,0.536-1.252,0.9C63.715,35.9,61.622,33.025,57.434,27.271z"/>
					<path fill="#2B1C48" d="M60.513,25.094c0.631-0.433,0.949-0.648,1.585-1.07c0.493,0.744,0.738,1.118,1.23,1.862
						c-0.625,0.415-0.936,0.624-1.557,1.05C61.268,26.199,61.017,25.83,60.513,25.094z M63.602,29.512
						c0.564-0.387,0.849-0.578,1.417-0.956c2.74,4.134,4.11,6.204,6.849,10.338c-0.511,0.339-0.766,0.509-1.273,0.856
						C67.798,35.654,66.398,33.607,63.602,29.512z"/>
					<path fill="#2B1C48" d="M66.495,23.711c0.69,1.115,1.036,1.672,1.727,2.787c0.34-0.211,0.511-0.313,0.852-0.521
						c0.323,0.531,0.485,0.799,0.809,1.33c-0.337,0.205-0.506,0.31-0.842,0.518c1.721,2.781,2.583,4.172,4.304,6.953
						c0.242,0.391,0.448,0.633,0.62,0.73c0.171,0.097,0.354,0.088,0.55-0.032c0.034-0.021,0.069-0.048,0.106-0.075
						s0.093-0.078,0.168-0.152c0.353,0.581,0.529,0.874,0.882,1.455c-0.015,0.019-0.042,0.045-0.08,0.078
						c-0.275,0.234-0.479,0.393-0.599,0.467c-0.532,0.329-1.019,0.363-1.468,0.101c-0.449-0.263-1.035-0.954-1.753-2.079
						c-1.669-2.614-2.504-3.923-4.174-6.537c-0.255,0.163-0.382,0.246-0.636,0.41c-0.338-0.522-0.508-0.783-0.846-1.306
						c0.257-0.167,0.387-0.25,0.645-0.415c-0.522-0.817-0.783-1.225-1.306-2.042C65.863,24.711,66.072,24.376,66.495,23.711z"/>
					<path fill="#2B1C48" d="M75.812,25.608c1.783,3.292,2.673,4.938,4.455,8.23c-0.509,0.276-0.763,0.418-1.269,0.701
						c-0.227-0.337-0.34-0.508-0.568-0.845c0.053,0.467,0.031,0.857-0.068,1.168c-0.099,0.311-0.271,0.537-0.52,0.68
						c-0.447,0.258-0.893,0.234-1.34-0.066c-0.447-0.3-0.949-0.915-1.504-1.848c-0.436-0.734-0.656-1.1-1.092-1.834
						c-0.51-0.857-0.682-1.596-0.509-2.215c0.172-0.619,0.734-1.244,1.691-1.854c-0.28-0.501-0.419-0.751-0.699-1.252
						c-0.362-0.646-0.649-1.051-0.862-1.217c-0.213-0.166-0.439-0.182-0.676-0.047c-0.215,0.123-0.311,0.318-0.286,0.585
						c0.026,0.269,0.175,0.64,0.447,1.112c0.104,0.18,0.155,0.271,0.258,0.452c-0.532,0.307-0.798,0.46-1.328,0.774
						c-0.059-0.1-0.087-0.15-0.146-0.25c-0.635-1.072-0.927-1.907-0.868-2.511c0.059-0.604,0.478-1.132,1.253-1.571
						c0.737-0.418,1.382-0.492,1.931-0.223C74.661,23.85,75.227,24.525,75.812,25.608z M75.831,29.07
						c-0.458,0.303-0.712,0.605-0.763,0.903c-0.051,0.298,0.072,0.705,0.369,1.22c0.315,0.548,0.473,0.821,0.788,1.369
						c0.333,0.579,0.613,0.957,0.838,1.137c0.226,0.182,0.445,0.215,0.658,0.094c0.208-0.118,0.29-0.319,0.25-0.602
						c-0.04-0.281-0.223-0.716-0.553-1.306C76.783,30.76,76.465,30.197,75.831,29.07z"/>
					<path fill="#2B1C48" d="M81.652,22.998c0.125,0.262,0.186,0.396,0.31,0.658c-0.592,0.281-0.887,0.42-1.477,0.71
						c-0.179-0.364-0.269-0.548-0.447-0.911c-0.305-0.621-0.556-1.023-0.754-1.203c-0.199-0.182-0.407-0.213-0.628-0.104
						c-0.193,0.096-0.273,0.278-0.236,0.549c0.037,0.271,0.215,0.719,0.533,1.351c1.112,2.206,1.667,3.309,2.779,5.515
						c0.325,0.646,0.585,1.064,0.78,1.256c0.194,0.191,0.384,0.242,0.571,0.148c0.182-0.091,0.257-0.268,0.223-0.53
						c-0.034-0.261-0.212-0.724-0.538-1.387c-0.213-0.434-0.32-0.65-0.533-1.084c0.576-0.282,0.864-0.421,1.442-0.695
						c0.164,0.345,0.244,0.515,0.407,0.859c0.531,1.119,0.764,2.025,0.707,2.713c-0.057,0.686-0.401,1.183-1.04,1.501
						c-0.705,0.351-1.328,0.331-1.88-0.058c-0.552-0.389-1.208-1.296-1.96-2.735c-0.83-1.591-1.244-2.39-2.075-3.98
						c-0.751-1.439-1.116-2.51-1.083-3.209c0.032-0.701,0.443-1.253,1.23-1.645c0.714-0.355,1.376-0.344,1.974,0.029
						S81.118,21.871,81.652,22.998z"/>
					<path fill="#2B1C48" d="M79.414,14.393c0.682-0.312,1.024-0.464,1.709-0.766c0.36,0.816,0.539,1.227,0.899,2.043
						c-0.673,0.297-1.009,0.445-1.679,0.752C79.972,15.611,79.786,15.203,79.414,14.393z M81.711,19.271
						c0.609-0.278,0.915-0.418,1.527-0.688c2.003,4.537,3.004,6.807,5.006,11.344c-0.55,0.242-0.824,0.369-1.371,0.62
						C84.81,26.039,83.775,23.781,81.711,19.271z"/>
					<path fill="#2B1C48" d="M90.861,19.745c0.633,1.679,0.948,2.522,1.582,4.201c0.573,1.521,0.812,2.619,0.724,3.303
						c-0.088,0.683-0.513,1.171-1.279,1.478c-0.74,0.295-1.373,0.229-1.907-0.21c-0.535-0.439-1.12-1.401-1.75-2.89
						c-0.7-1.652-1.05-2.479-1.75-4.131c-0.637-1.503-0.909-2.604-0.809-3.299c0.099-0.695,0.579-1.222,1.435-1.563
						c0.822-0.328,1.518-0.261,2.074,0.189C89.738,17.273,90.296,18.248,90.861,19.745z M89.014,19.554
						c-0.256-0.651-0.482-1.081-0.678-1.285c-0.196-0.204-0.416-0.257-0.66-0.159c-0.244,0.098-0.365,0.285-0.366,0.568
						c-0.001,0.283,0.131,0.748,0.395,1.396c0.931,2.288,1.397,3.433,2.328,5.721c0.272,0.67,0.502,1.105,0.69,1.308
						c0.188,0.202,0.394,0.257,0.618,0.167c0.224-0.09,0.332-0.279,0.323-0.569c-0.008-0.29-0.139-0.758-0.392-1.401
						C90.369,23,89.918,21.853,89.014,19.554z M85.682,12.659c0.607-0.241,0.911-0.362,1.52-0.595
						c-0.083,1.271-0.119,1.906-0.178,3.175c-0.408,0.161-0.611,0.244-1.019,0.409C85.869,14.455,85.804,13.856,85.682,12.659z"/>
					<path fill="#2B1C48" d="M96.569,16.586c1.155,3.646,1.731,5.473,2.886,9.119c-0.575,0.182-0.86,0.275-1.433,0.465
						c-1.164-3.507-1.746-5.261-2.91-8.768c-0.21-0.633-0.405-1.055-0.584-1.257c-0.18-0.204-0.394-0.263-0.642-0.18
						c-0.242,0.081-0.372,0.263-0.39,0.546c-0.018,0.283,0.078,0.729,0.288,1.336c1.206,3.493,1.808,5.243,3.013,8.736
						c-0.565,0.194-0.848,0.29-1.411,0.492c-1.68-4.666-2.52-7-4.201-11.666c0.598-0.215,0.897-0.32,1.498-0.527
						c0.157,0.364,0.235,0.548,0.392,0.912c0.051-0.469,0.17-0.848,0.357-1.141c0.187-0.292,0.431-0.49,0.729-0.588
						c0.539-0.178,0.988-0.08,1.342,0.284C95.857,14.715,96.212,15.459,96.569,16.586z"/>
					<path fill="#2B1C48" d="M102.56,6.387c0.678-0.164,1.017-0.241,1.696-0.396c1.585,6.937,2.377,10.405,3.959,17.342
						c-0.553,0.126-0.829,0.191-1.38,0.324c-0.127-0.386-0.192-0.581-0.32-0.968c-0.067,0.454-0.186,0.82-0.359,1.095
						c-0.173,0.275-0.39,0.444-0.656,0.512c-0.479,0.122-0.885-0.019-1.221-0.423c-0.336-0.404-0.65-1.141-0.936-2.204
						c-0.71-2.636-1.066-3.952-1.776-6.589c-0.291-1.079-0.381-1.88-0.266-2.396c0.115-0.518,0.45-0.848,0.997-0.986
						c0.292-0.074,0.588-0.036,0.891,0.117c0.303,0.153,0.596,0.41,0.877,0.772C103.464,10.107,103.163,8.867,102.56,6.387z
						 M104.577,14.699c-0.154-0.633-0.309-1.064-0.47-1.291c-0.161-0.227-0.365-0.309-0.612-0.248
						c-0.252,0.062-0.399,0.23-0.439,0.502c-0.041,0.271,0.021,0.727,0.185,1.365c0.598,2.347,0.896,3.519,1.494,5.865
						c0.167,0.654,0.327,1.094,0.482,1.316c0.154,0.221,0.345,0.305,0.572,0.248s0.358-0.223,0.392-0.509
						c0.034-0.284-0.025-0.743-0.176-1.368C105.434,18.227,105.148,17.053,104.577,14.699z"/>
					<path fill="#2B1C48" d="M112.621,13.854c0.195,1.137,0.292,1.703,0.487,2.84c-1.159,0.198-1.736,0.304-2.891,0.531
						c0.19,0.961,0.285,1.441,0.476,2.402c0.141,0.709,0.287,1.182,0.435,1.415s0.34,0.328,0.58,0.282
						c0.234-0.045,0.375-0.211,0.42-0.498c0.045-0.285,0.006-0.77-0.121-1.449c-0.078-0.418-0.118-0.629-0.195-1.046
						c0.612-0.113,0.919-0.167,1.532-0.271c0.055,0.318,0.082,0.478,0.137,0.796c0.215,1.252,0.199,2.192-0.04,2.821
						c-0.239,0.629-0.723,1.01-1.459,1.15c-0.796,0.152-1.407-0.028-1.843-0.549s-0.826-1.575-1.164-3.163
						c-0.374-1.755-0.561-2.632-0.934-4.387c-0.34-1.596-0.4-2.727-0.174-3.389c0.225-0.663,0.787-1.085,1.683-1.256
						c0.872-0.166,1.538,0.027,1.988,0.568C111.988,11.192,112.347,12.262,112.621,13.854z M110.874,13.281
						c-0.131-0.703-0.274-1.178-0.427-1.424c-0.153-0.246-0.355-0.344-0.611-0.295c-0.261,0.05-0.42,0.217-0.476,0.498
						c-0.056,0.281-0.012,0.775,0.128,1.485c0.175,0.88,0.261,1.323,0.436,2.204c0.543-0.107,0.816-0.161,1.36-0.262
						C111.12,14.605,111.038,14.164,110.874,13.281z"/>
					<path fill="#2B1C48" d="M116.502,3.828c0.682-0.086,1.022-0.129,1.705-0.206c0.809,7.068,1.213,10.604,2.02,17.672
						c-0.588,0.067-0.881,0.101-1.468,0.176C117.857,14.413,117.406,10.885,116.502,3.828z"/>
					<path fill="#2B1C48" d="M125.478,11.447c0.228,3.736,0.341,5.607,0.568,9.344c-0.563,0.034-0.846,0.052-1.409,0.093
						c-0.062-0.401-0.093-0.604-0.156-1.007c-0.144,0.445-0.323,0.791-0.537,1.029c-0.214,0.238-0.46,0.369-0.737,0.394
						c-0.5,0.044-0.883-0.167-1.154-0.63s-0.463-1.23-0.571-2.311c-0.085-0.85-0.128-1.273-0.213-2.123
						c-0.099-0.993,0.051-1.734,0.456-2.221c0.405-0.487,1.155-0.81,2.249-0.955c-0.042-0.572-0.063-0.859-0.105-1.432
						c-0.055-0.738-0.143-1.227-0.263-1.468c-0.12-0.241-0.314-0.353-0.579-0.331c-0.24,0.02-0.405,0.158-0.492,0.41
						c-0.087,0.254-0.106,0.653-0.059,1.197c0.018,0.207,0.027,0.311,0.045,0.517c-0.595,0.051-0.893,0.077-1.487,0.136
						c-0.011-0.115-0.018-0.174-0.029-0.289c-0.122-1.24-0.037-2.12,0.262-2.641c0.299-0.521,0.882-0.82,1.746-0.889
						c0.821-0.064,1.424,0.143,1.799,0.619C125.184,9.367,125.403,10.219,125.478,11.447z M124.078,14.588
						c-0.528,0.079-0.877,0.245-1.044,0.493s-0.224,0.671-0.172,1.263c0.054,0.629,0.081,0.941,0.135,1.57
						c0.057,0.666,0.149,1.128,0.274,1.387c0.125,0.26,0.305,0.383,0.543,0.363c0.232-0.019,0.387-0.163,0.467-0.436
						c0.08-0.271,0.095-0.742,0.045-1.416C124.227,16.523,124.178,15.877,124.078,14.588z"/>
					<path fill="#2B1C48" d="M132.118,2.804c0.983-0.005,1.476-0.003,2.459,0.012c0.749,7.126,1.063,10.694,1.574,17.827
						c-0.63-0.02-0.945-0.029-1.575-0.04c-0.124-1.811-0.188-2.717-0.325-4.527c-0.84-0.011-1.262-0.015-2.102-0.01
						c-0.179,1.81-0.265,2.716-0.429,4.525c-0.594,0.005-0.891,0.011-1.485,0.023C130.862,13.484,131.239,9.922,132.118,2.804z
						 M133.264,4.731c-0.41,3.813-0.6,5.721-0.951,9.537c0.711-0.003,1.067-0.001,1.778,0.008c-0.275-3.819-0.425-5.728-0.752-9.545
						C133.31,4.731,133.294,4.731,133.264,4.731z"/>
					<path fill="#2B1C48" d="M142.03,11.902c-0.022,0.289-0.032,0.436-0.055,0.725c-0.641-0.05-0.963-0.072-1.604-0.113
						c0.026-0.404,0.041-0.609,0.066-1.014c0.044-0.689,0.027-1.162-0.053-1.417c-0.08-0.255-0.241-0.392-0.482-0.405
						c-0.21-0.012-0.369,0.109-0.47,0.361s-0.169,0.733-0.208,1.439c-0.134,2.466-0.2,3.696-0.334,6.162
						c-0.04,0.722-0.023,1.215,0.048,1.478c0.071,0.263,0.209,0.397,0.414,0.409c0.199,0.012,0.347-0.103,0.446-0.347
						c0.099-0.243,0.173-0.733,0.22-1.472c0.031-0.482,0.045-0.723,0.076-1.205c0.626,0.04,0.939,0.062,1.565,0.111
						c-0.03,0.381-0.043,0.572-0.073,0.952c-0.097,1.234-0.339,2.134-0.724,2.703c-0.384,0.567-0.922,0.827-1.619,0.786
						c-0.769-0.045-1.288-0.372-1.566-0.983c-0.278-0.611-0.388-1.726-0.322-3.349c0.073-1.793,0.11-2.689,0.183-4.482
						c0.065-1.621,0.278-2.73,0.647-3.321c0.369-0.592,0.988-0.868,1.847-0.817c0.78,0.046,1.336,0.388,1.661,1.008
						C142.019,9.731,142.127,10.66,142.03,11.902z"/>
					<path fill="#2B1C48" d="M146.044,5.609c-0.139,1.305-0.205,1.959-0.343,3.264c0.385,0.041,0.577,0.061,0.961,0.104
						c-0.071,0.618-0.106,0.928-0.177,1.546c-0.38-0.043-0.57-0.065-0.951-0.105c-0.346,3.252-0.519,4.879-0.865,8.131
						c-0.048,0.457-0.037,0.774,0.036,0.957c0.073,0.181,0.219,0.282,0.439,0.307c0.039,0.004,0.081,0.009,0.125,0.01
						s0.119-0.008,0.221-0.021c-0.078,0.676-0.117,1.016-0.194,1.69c-0.023,0.005-0.059,0.01-0.108,0.013
						c-0.349,0.02-0.599,0.02-0.735,0.005c-0.603-0.062-0.996-0.334-1.181-0.815c-0.186-0.482-0.219-1.387-0.096-2.715
						c0.286-3.088,0.429-4.637,0.715-7.725c-0.291-0.027-0.437-0.039-0.728-0.064c0.054-0.619,0.081-0.928,0.135-1.548
						c0.295,0.025,0.441,0.036,0.736,0.063c0.089-0.965,0.134-1.445,0.223-2.41C144.969,6.019,145.325,5.877,146.044,5.609z"/>
					<path fill="#2B1C48" d="M148.576,3.78c0.731,0.091,1.097,0.138,1.827,0.238c-0.123,0.884-0.185,1.328-0.308,2.212
						c-0.717-0.1-1.076-0.147-1.794-0.236C148.412,5.109,148.466,4.666,148.576,3.78z M147.964,9.134
						c0.653,0.081,0.98,0.123,1.633,0.213c-0.682,4.911-1.023,7.37-1.706,12.281c-0.586-0.081-0.88-0.12-1.467-0.193
						C147.041,16.516,147.348,14.053,147.964,9.134z"/>
					<path fill="#2B1C48" d="M150.805,9.521c0.633,0.094,0.95,0.142,1.583,0.244c-0.336,4.079-0.519,6.12-0.908,10.192
						c0.033,0.006,0.049,0.008,0.082,0.014c1.008-3.969,1.527-5.951,2.593-9.907c0.57,0.101,0.855,0.152,1.424,0.26
						c-1.479,4.767-2.191,7.161-3.559,11.955c-0.71-0.126-1.064-0.187-1.775-0.301C150.526,17.001,150.639,14.508,150.805,9.521z"/>
					<path fill="#2B1C48" d="M157.77,5.257c0.724,0.144,1.085,0.221,1.808,0.375c-0.187,0.872-0.281,1.309-0.468,2.181
						c-0.71-0.151-1.065-0.225-1.776-0.365C157.508,6.572,157.596,6.132,157.77,5.257z M156.771,10.554
						c0.647,0.128,0.97,0.194,1.616,0.331c-1.038,4.849-1.558,7.279-2.596,12.128c-0.581-0.124-0.871-0.185-1.453-0.301
						C155.311,17.85,155.799,15.416,156.771,10.554z"/>
					<path fill="#2B1C48" d="M164.525,6.788c0.676,0.173,1.015,0.26,1.688,0.441c-1.861,6.868-2.793,10.306-4.655,17.174
						c-0.548-0.147-0.824-0.223-1.374-0.363c0.069-0.401,0.104-0.603,0.172-1.003c-0.272,0.37-0.55,0.639-0.831,0.8
						c-0.282,0.161-0.555,0.211-0.821,0.146c-0.48-0.116-0.771-0.431-0.877-0.946c-0.106-0.515-0.039-1.311,0.208-2.384
						c0.611-2.661,0.917-3.993,1.528-6.653c0.25-1.089,0.545-1.838,0.889-2.24c0.344-0.403,0.795-0.539,1.343-0.406
						c0.292,0.07,0.536,0.244,0.731,0.521c0.195,0.277,0.335,0.644,0.413,1.095C163.575,10.498,163.892,9.26,164.525,6.788z
						 M162.401,15.07c0.162-0.631,0.224-1.082,0.188-1.357c-0.036-0.275-0.178-0.442-0.424-0.504
						c-0.252-0.062-0.46,0.015-0.623,0.236c-0.163,0.221-0.321,0.652-0.478,1.293c-0.575,2.353-0.862,3.528-1.437,5.881
						c-0.16,0.656-0.225,1.117-0.193,1.387c0.033,0.268,0.162,0.432,0.389,0.488c0.227,0.057,0.421-0.032,0.585-0.269
						c0.164-0.235,0.327-0.667,0.487-1.29C161.499,18.59,161.8,17.416,162.401,15.07z"/>
					<path fill="#2B1C48" d="M170.098,17.187c-1.17,3.556-1.752,5.337-2.922,8.893c-0.542-0.178-0.813-0.265-1.356-0.435
						c0.09-0.396,0.133-0.598,0.223-0.994c-0.3,0.36-0.593,0.613-0.882,0.756c-0.289,0.143-0.567,0.174-0.836,0.094
						c-0.485-0.145-0.769-0.481-0.852-1.011c-0.083-0.53,0.024-1.317,0.322-2.36c0.235-0.82,0.351-1.229,0.586-2.05
						c0.274-0.96,0.686-1.597,1.245-1.898c0.559-0.302,1.384-0.325,2.464-0.055c0.172-0.548,0.258-0.821,0.43-1.369
						c0.222-0.706,0.321-1.191,0.297-1.46c-0.023-0.268-0.161-0.445-0.416-0.523c-0.232-0.071-0.44-0.003-0.615,0.199
						c-0.176,0.204-0.341,0.568-0.498,1.092c-0.06,0.199-0.089,0.297-0.148,0.496c-0.576-0.173-0.866-0.258-1.444-0.424
						c0.032-0.111,0.046-0.166,0.078-0.277c0.345-1.197,0.752-1.986,1.224-2.36s1.129-0.437,1.965-0.18
						c0.794,0.244,1.281,0.661,1.457,1.242C170.596,15.144,170.482,16.018,170.098,17.187z M167.625,19.586
						c-0.524-0.122-0.914-0.099-1.162,0.07c-0.249,0.168-0.458,0.539-0.629,1.108c-0.182,0.604-0.273,0.907-0.455,1.513
						c-0.192,0.64-0.278,1.104-0.257,1.391c0.021,0.288,0.146,0.467,0.377,0.537c0.224,0.068,0.421-0.009,0.597-0.232
						c0.175-0.223,0.366-0.656,0.568-1.301C167.048,21.438,167.241,20.82,167.625,19.586z"/>
					<path fill="#2B1C48" d="M177.613,10.891c0.658,0.246,0.987,0.369,1.643,0.624c-2.586,6.63-3.879,9.944-6.465,16.574
						c-0.533-0.208-0.8-0.31-1.335-0.51c0.111-0.392,0.165-0.587,0.275-0.979c-0.312,0.339-0.616,0.574-0.914,0.704
						c-0.299,0.13-0.578,0.148-0.838,0.055c-0.468-0.168-0.727-0.512-0.778-1.035c-0.051-0.523,0.1-1.311,0.459-2.351
						c0.893-2.581,1.34-3.872,2.232-6.452c0.365-1.057,0.736-1.766,1.123-2.128c0.387-0.364,0.853-0.452,1.387-0.26
						c0.284,0.103,0.513,0.302,0.68,0.599s0.264,0.674,0.294,1.131C176.271,14.474,176.719,13.28,177.613,10.891z M174.616,18.896
						c0.229-0.61,0.337-1.052,0.331-1.329c-0.007-0.278-0.13-0.462-0.37-0.55c-0.246-0.09-0.462-0.033-0.648,0.17
						c-0.187,0.201-0.39,0.612-0.613,1.232c-0.823,2.277-1.235,3.416-2.059,5.693c-0.229,0.635-0.343,1.088-0.339,1.359
						c0.004,0.27,0.116,0.447,0.338,0.528c0.221,0.081,0.425,0.013,0.614-0.204c0.188-0.217,0.396-0.627,0.622-1.229
						C173.342,22.301,173.767,21.164,174.616,18.896z"/>
					<path fill="#2B1C48" d="M184.635,13.753c0.891,0.395,1.336,0.597,2.22,1.009c-1.974,6.213-3.007,9.301-5.176,15.436
						c0.024,0.012,0.037,0.018,0.062,0.03c2.774-5.839,4.156-8.761,6.915-14.608c0.561,0.271,0.839,0.409,1.396,0.688
						c-3.187,6.363-4.778,9.542-7.965,15.905c-0.763-0.382-1.146-0.564-1.915-0.931c2.117-6.083,3.131-9.147,5.06-15.306
						c-0.035-0.016-0.054-0.023-0.089-0.039c-2.596,5.854-3.897,8.78-6.509,14.626c-0.483-0.222-0.727-0.331-1.212-0.546
						C180.308,23.512,181.749,20.258,184.635,13.753z"/>
					<path fill="#2B1C48" d="M192.146,26.994c-1.86,3.249-2.789,4.874-4.649,8.123c-0.504-0.289-0.758-0.43-1.265-0.712
						c0.167-0.371,0.25-0.558,0.417-0.929c-0.369,0.291-0.709,0.477-1.024,0.556c-0.315,0.079-0.599,0.054-0.851-0.081
						c-0.453-0.244-0.668-0.637-0.646-1.175s0.281-1.283,0.782-2.246c0.395-0.757,0.591-1.136,0.985-1.893
						c0.461-0.886,0.996-1.423,1.61-1.604c0.613-0.18,1.437-0.032,2.457,0.46c0.278-0.502,0.419-0.752,0.697-1.254
						c0.359-0.647,0.555-1.104,0.583-1.373c0.028-0.269-0.076-0.472-0.315-0.603c-0.218-0.118-0.436-0.095-0.649,0.067
						c-0.215,0.164-0.45,0.486-0.709,0.967c-0.099,0.183-0.146,0.275-0.245,0.458c-0.539-0.29-0.809-0.435-1.351-0.718
						c0.054-0.103,0.079-0.154,0.133-0.257c0.577-1.104,1.136-1.794,1.678-2.062c0.542-0.268,1.208-0.193,1.988,0.234
						c0.741,0.406,1.143,0.919,1.203,1.527S192.757,25.926,192.146,26.994z M189.213,28.831c-0.498-0.23-0.888-0.286-1.168-0.173
						c-0.28,0.113-0.562,0.434-0.844,0.956c-0.3,0.557-0.446,0.833-0.746,1.39c-0.316,0.588-0.493,1.025-0.527,1.312
						c-0.035,0.288,0.051,0.491,0.266,0.609c0.209,0.114,0.424,0.08,0.643-0.103c0.218-0.182,0.491-0.566,0.819-1.158
						C188.279,30.531,188.589,29.963,189.213,28.831z"/>
					<path fill="#2B1C48" d="M198.309,26.966c-0.404,0.64-0.606,0.96-1.011,1.6c-0.028-0.019-0.043-0.026-0.071-0.044
						c-0.498-0.314-0.94-0.391-1.32-0.229c-0.379,0.163-0.794,0.613-1.243,1.346c-1.749,2.855-2.622,4.283-4.371,7.139
						c-0.521-0.319-0.782-0.479-1.306-0.789c2.531-4.265,3.798-6.399,6.33-10.664c0.557,0.331,0.833,0.499,1.387,0.838
						c-0.186,0.361-0.278,0.543-0.465,0.904c0.395-0.238,0.75-0.376,1.062-0.414c0.312-0.037,0.593,0.02,0.838,0.174
						c0.021,0.014,0.048,0.035,0.084,0.068C198.259,26.926,198.287,26.953,198.309,26.966z"/>
					<path fill="#2B1C48" d="M202.028,29.415c-0.428,0.626-0.64,0.938-1.067,1.564c-0.028-0.019-0.043-0.028-0.071-0.047
						c-0.49-0.335-0.93-0.429-1.315-0.28c-0.387,0.148-0.816,0.582-1.292,1.299c-1.851,2.79-2.777,4.185-4.628,6.975
						c-0.511-0.34-0.767-0.508-1.281-0.84c2.684-4.17,4.027-6.258,6.712-10.428c0.547,0.353,0.817,0.529,1.36,0.891
						c-0.198,0.355-0.296,0.534-0.495,0.889c0.403-0.224,0.763-0.349,1.076-0.375c0.314-0.025,0.593,0.043,0.834,0.207
						c0.021,0.014,0.05,0.039,0.084,0.073C201.979,29.376,202.007,29.4,202.028,29.415z"/>
					<path fill="#2B1C48" d="M204.849,35.406c-2.258,2.986-3.384,4.479-5.642,7.466c-0.472-0.358-0.71-0.536-1.186-0.887
						c0.212-0.347,0.319-0.521,0.531-0.868c-0.405,0.24-0.77,0.379-1.096,0.414c-0.326,0.035-0.61-0.03-0.846-0.199
						c-0.426-0.305-0.594-0.721-0.508-1.254c0.086-0.533,0.437-1.247,1.056-2.139c0.486-0.701,0.73-1.053,1.217-1.754
						c0.569-0.82,1.17-1.28,1.81-1.376c0.639-0.096,1.445,0.163,2.411,0.795c0.34-0.462,0.511-0.692,0.851-1.155
						c0.438-0.597,0.688-1.025,0.75-1.29c0.062-0.265-0.021-0.479-0.245-0.642c-0.204-0.148-0.423-0.156-0.657-0.023
						c-0.235,0.134-0.512,0.424-0.83,0.867c-0.121,0.169-0.178,0.252-0.299,0.421c-0.506-0.364-0.762-0.544-1.271-0.9
						c0.066-0.095,0.098-0.142,0.164-0.237c0.712-1.023,1.355-1.633,1.932-1.826c0.577-0.193,1.237-0.028,1.97,0.505
						c0.695,0.507,1.037,1.077,1.025,1.692C205.974,33.631,205.591,34.425,204.849,35.406z M201.686,36.834
						c-0.473-0.298-0.857-0.406-1.152-0.331c-0.296,0.075-0.615,0.356-0.961,0.839c-0.368,0.514-0.552,0.771-0.92,1.285
						c-0.389,0.543-0.616,0.953-0.686,1.234c-0.07,0.281-0.006,0.498,0.195,0.645c0.196,0.143,0.415,0.135,0.656-0.018
						c0.24-0.152,0.561-0.498,0.961-1.043C200.541,38.401,200.924,37.878,201.686,36.834z"/>
					<path fill="#2B1C48" d="M211.778,32.807c-0.824,1.021-1.235,1.532-2.06,2.553c0.317,0.257,0.474,0.386,0.789,0.646
						c-0.395,0.481-0.592,0.724-0.986,1.204c-0.312-0.256-0.467-0.385-0.779-0.639c-2.055,2.545-3.084,3.818-5.138,6.363
						c-0.288,0.357-0.446,0.632-0.48,0.828c-0.034,0.193,0.039,0.365,0.221,0.514c0.032,0.025,0.066,0.053,0.105,0.08
						c0.038,0.026,0.106,0.063,0.203,0.112c-0.432,0.524-0.646,0.786-1.078,1.312c-0.023-0.009-0.06-0.026-0.104-0.053
						c-0.318-0.187-0.536-0.326-0.647-0.417c-0.496-0.402-0.694-0.858-0.599-1.372c0.097-0.514,0.551-1.295,1.374-2.346
						c1.913-2.441,2.87-3.663,4.783-6.104c-0.241-0.19-0.362-0.282-0.604-0.47c0.381-0.492,0.571-0.744,0.952-1.236
						c0.245,0.19,0.369,0.288,0.613,0.479c0.599-0.764,0.895-1.144,1.493-1.907C210.61,32.527,211.001,32.617,211.778,32.807z"/>
					<path fill="#2B1C48" d="M214.994,32.725c0.596,0.502,0.892,0.756,1.481,1.268c-0.584,0.675-0.877,1.013-1.461,1.688
						c-0.579-0.503-0.87-0.754-1.455-1.246C214.133,33.75,214.421,33.408,214.994,32.725z M211.574,36.891
						c0.532,0.448,0.794,0.676,1.321,1.133c-3.243,3.751-4.864,5.627-8.106,9.378c-0.474-0.411-0.711-0.614-1.189-1.018
						C206.789,42.587,208.385,40.688,211.574,36.891z"/>
					<path fill="#2B1C48" d="M213.869,38.876c0.509,0.45,0.765,0.679,1.269,1.138c-2.49,3.252-3.747,4.871-6.28,8.086
						c0.026,0.024,0.041,0.035,0.067,0.06c3.023-2.762,4.547-4.132,7.616-6.848c0.45,0.423,0.673,0.635,1.119,1.064
						c-3.871,3.156-5.782,4.761-9.567,8.007c-0.561-0.527-0.846-0.789-1.413-1.305C209.603,45.035,211.041,42.994,213.869,38.876z"
						/>
					<path fill="#2B1C48" d="M219.865,48.934c-2.729,2.562-4.092,3.842-6.82,6.404c-0.42-0.447-0.631-0.669-1.055-1.108
						c0.267-0.308,0.398-0.459,0.665-0.767c-0.444,0.164-0.832,0.234-1.166,0.209c-0.334-0.025-0.606-0.144-0.817-0.356
						c-0.382-0.384-0.484-0.835-0.315-1.351c0.169-0.516,0.627-1.161,1.386-1.937c0.597-0.61,0.897-0.917,1.494-1.526
						c0.698-0.713,1.374-1.061,2.031-1.037c0.656,0.023,1.426,0.432,2.301,1.243c0.412-0.399,0.622-0.599,1.034-0.997
						c0.532-0.515,0.85-0.896,0.951-1.149c0.103-0.253,0.054-0.482-0.146-0.687c-0.183-0.187-0.402-0.235-0.658-0.146
						c-0.257,0.09-0.581,0.328-0.969,0.713c-0.147,0.146-0.219,0.219-0.366,0.365c-0.453-0.457-0.683-0.684-1.141-1.134
						c0.081-0.083,0.123-0.126,0.204-0.209c0.873-0.89,1.611-1.379,2.221-1.465c0.61-0.086,1.246,0.201,1.9,0.871
						c0.621,0.637,0.879,1.271,0.772,1.885C221.264,47.369,220.762,48.092,219.865,48.934z M216.464,49.767
						c-0.429-0.386-0.799-0.567-1.106-0.547c-0.309,0.021-0.674,0.238-1.096,0.656c-0.448,0.444-0.673,0.669-1.121,1.114
						c-0.475,0.471-0.768,0.841-0.881,1.108c-0.113,0.267-0.081,0.495,0.1,0.679c0.176,0.18,0.396,0.215,0.661,0.107
						c0.266-0.106,0.643-0.396,1.128-0.865C215.075,51.118,215.538,50.668,216.464,49.767z"/>
				</g>
			</g>
		</g>
		<ellipse fill="#00002B" cx="134.021" cy="208.794" rx="46.156" ry="6.229"/>
		<g>
			<path fill="#999898" d="M131.92,87.04c3.97-1.772,7.354-5.335,8.931-9.691c0.034-0.095,0.067-0.197,0.048-0.294
				c-0.027-0.141-0.156-0.22-0.271-0.284c-0.271-0.149-0.547-0.301-0.818-0.45c-0.234-0.129-0.474-0.26-0.736-0.289
				c-0.602-0.069-1.16,0.388-1.633,0.832c-1.023,0.965-2.002,2.01-3.172,2.738c-2.729,1.704-5.996,1.425-9.074,1.58
				c-3.005,0.152-6.011,0.771-8.898,1.832c-0.354,0.13-0.723,0.278-0.964,0.592c-0.468,0.6-0.261,1.506,0.116,2.131
				c0.753,1.242,0.382,4.107,1.771,4.105C118.584,89.838,129.011,88.338,131.92,87.04z"/>
			<g>
				<path fill="#6E6154" d="M173.447,124.019c-0.01-0.31-0.021-0.629-0.137-0.919c-0.158-0.398-0.494-0.697-0.854-0.93
					c-1.346-0.875-3.039-0.967-4.643-1.021c-6.093-0.208-12.307-0.271-18.26,1.218c-1.832,0.46-4.953,0.934-5.822,2.891
					c-1.066,2.407-0.693,6.109-0.796,8.694c-0.147,3.763-0.131,7.53,0.05,11.292c0.115,2.405,0.298,4.809,0.48,7.207
					c0.756,9.924,1.256,19.586,2.833,29.488c0.506,3.184,0.723,6.391,0.792,9.615c0.025,1.211,0.652,9.086-0.317,9.634
					c-0.058,0.032-0.118,0.063-0.162,0.105c-0.298,0.294-0.515,0.627-0.631,0.979c-0.107,0.326-0.135,0.676-0.376,0.966
					c-0.268,0.321-0.758,0.521-1.241,0.685c-1.246,0.424-2.587,0.712-3.96,0.854c-0.305,0.031-0.615,0.059-0.891,0.152
					c-0.778,0.272-0.967,0.971-1.062,1.57c-0.029,0.176-0.032,0.387,0.179,0.482c0.114,0.051,0.259,0.051,0.396,0.049
					c3.926-0.047,5.603-0.066,9.53-0.115c0.958-0.012,1.946-0.051,2.872-0.226c0.126-0.022,0.255-0.05,0.346-0.113
					c0.103-0.067,0.145-0.169,0.18-0.265c0.505-1.359,0.553-2.828,0.42-4.224c-0.026-0.296-0.078-0.552-0.323-0.717
					c2.105-17.134,3.435-34.313,5.407-51.456c0.123-0.033,0.244-0.066,0.365-0.098c1.771-0.467,3.543-0.934,5.313-1.399
					c1.038-0.272,2.116-0.565,2.927-1.269c0.641-0.557,1.055-1.318,1.457-2.062c2.035-3.772,4.09-7.593,5.104-11.756
					C173.361,130.295,173.528,127.145,173.447,124.019z"/>
				<path fill="#6E6154" d="M172.729,201.517c-0.202-9.596-0.495-19.193-0.857-28.786c-0.237-6.26-1.198-12.051-0.652-18.266
					c0.632-7.215,0.827-14.467,0.583-21.707c-0.045-1.324-0.109-2.676-0.595-3.908c-0.604-1.538-2.118-2.545-3.017-3.779
					c-0.544-0.746-0.83-1.496-1.56-2.136c-3.079-2.704-8.084-2.037-11.716-1.217c-0.244,0.056-0.484,0.11-0.723,0.161
					c-0.078,0.064-0.155,0.131-0.234,0.195c-0.094,0.506-0.16,1.012-0.2,1.519c-0.012,0.142-0.007,0.356-0.001,0.552
					c0.053,0.781,0.016,0.438,0,0c-0.012-0.158-0.025-0.359-0.045-0.617c0.023,0.319,0.011,0.646,0.026,0.967
					c0.132,2.889,0.743,5.709,1.021,8.578c0.236,2.444,0.188,4.94,0.108,7.428c0.491-0.114,1.065-0.216,1.405-0.158
					c0.663,0.111,11.141,55.008,11.376,61.824c-0.046,0.037-0.098,0.073-0.13,0.118c-0.232,0.325-0.38,0.673-0.432,1.021
					c-0.048,0.323-0.016,0.656-0.194,0.966c-0.2,0.346-0.626,0.614-1.052,0.846c-1.1,0.603-2.311,1.094-3.574,1.451
					c-0.281,0.079-0.57,0.154-0.812,0.289c-0.686,0.381-0.748,1.066-0.74,1.646c0.002,0.166,0.033,0.367,0.247,0.422
					c0.114,0.03,0.251,0.008,0.379-0.019c3.676-0.688,5.246-0.979,8.922-1.666c0.897-0.167,1.817-0.366,2.659-0.681
					c0.113-0.043,0.23-0.092,0.307-0.166c0.083-0.08,0.106-0.179,0.125-0.274c0.249-1.36,0.055-2.745-0.299-4.032
					C172.99,201.852,172.915,201.643,172.729,201.517z"/>
				<path fill="#AAB08F" d="M141.841,74.035c-0.333,3.697-4.551,12.109-4.884,15.807c5.281,0.075,14.461-5.772,19.246-8.006
					c0.809-3.92,1.617-7.839,2.424-11.758C152.86,70.425,147.154,71.771,141.841,74.035z"/>
				<path fill="#AAB08F" d="M166.937,66.758c4.653,1.188,7.319,8.863,7.502,12.88c0.422,9.298,0.43,18.606,0.941,27.901
					c0.302,5.486,0.681,10.969,1.11,16.445c0.449,5.723,0.793,6.85-4.682,7.352c-9.77,0.897-19.664,0.899-29.435,0.007
					c-1.103-0.099-1.098-17.378-1.136-18.847c-0.238-9.123,0.928-18.368,3.799-27.121c1.659-5.059,4.375-9.896,8.459-13.483
					c3.076-2.701,7.232-4.468,11.248-5.201C165.518,66.551,166.248,66.583,166.937,66.758z"/>
				<path fill="#E3DCCF" d="M162.539,66.664c-0.223-1.464-0.934-2.992-2.184-4.443c-2.305-2.673-4.986-5.151-8.275-6.445
					c-3.785-1.486-9.393-1.162-11.874,2.59c-2.905,4.396,1.98,8.91,5.319,11.818c2.654,2.311,6.043,3.977,9.561,3.861
					C160.34,73.871,163.123,70.504,162.539,66.664z"/>
				<path fill="#86623A" d="M154.713,60.711c2.001,1.339,4.254,2.301,6.604,2.825c0.519,0.161,0.563-0.745,0.299-1.218
					c-2.047-3.662-6.816-9.337-10.086-11.965c-3.271-2.629-5.258-2.066-9.24-0.747c-2.906,0.963-5.279,3.383-6.217,6.295
					c-0.938,2.914-0.423,6.252,1.322,8.765c0.166,0.238,0.365,0.484,0.647,0.551c0.448,0.104,0.845-0.289,1.132-0.648
					c1.63-2.045,3.062-4.354,5.275-5.746c2.213-1.391,5.568-1.461,7.074,0.675c0.596-0.839,1.252-1.728,2.222-2.073
					c0.97-0.347,2.306,0.175,2.386,1.202C155.956,59.469,155.434,60.236,154.713,60.711z"/>
				<path fill="#D6CEC0" d="M140.904,81.946c0,0,3.948-11.844,3.948-13.817c0-1.973,1.974-9.868,0-7.895s-4.673,9.346-5.921,11.842
					c-1.975,3.947-10.7,21.988-3.948,19.738c5.921-1.973,5.921-5.922,5.921-5.922V81.946z"/>
				<g>
					<path fill="#D6CEC0" d="M153.198,94.074c0.546-3.734,0.374-7.531,0.146-11.297c-0.371-6.08-0.883-12.147-1.539-18.198
						c-0.11-1.015-0.238-2.067-0.79-2.925c-0.55-0.859-1.656-1.451-2.606-1.079c-2.117,11.437-2.11,23.263,0.021,34.7
						c0.156,0.832,0.381,1.754,1.096,2.212c0.842,0.539,2.031,0.142,2.673-0.626C152.838,96.092,153.053,95.064,153.198,94.074z"/>
					<path fill="#D6CEC0" d="M154.684,90.85c1.748-2.17,3.715-4.165,5.862-5.939c0.127-0.105,0.272-0.213,0.436-0.197
						c0.154,0.021,0.269,0.15,0.364,0.271c0.754,0.95,1.412,1.978,1.961,3.064c0.384,0.759,0.708,1.697,0.271,2.429
						c-0.237,0.396-0.653,0.645-1.031,0.91c-1.842,1.306-3.041,3.385-4.933,4.616c-1.414,0.922-3.104,1.297-4.752,1.656
						c-0.156,0.035-0.334,0.062-0.459-0.034c-0.079-0.064-0.117-0.168-0.148-0.265c-0.26-0.779-0.522-1.6-0.362-2.403
						c0.083-0.414,0.274-0.798,0.476-1.17C153.316,92.031,153.432,92.404,154.684,90.85z"/>
				</g>
				<path fill="#A0A387" d="M174.312,78.393c0-5.302-3.044-10.653-8.064-11.81c-0.692-0.159-2.859,0.452-3.632,0.593
					c0,0-0.076,4.037-2.271,5.147l-3.942,11.046l7.815,10.024L174.312,78.393z"/>
			</g>
			<g>
				<g>
					<path fill="#4A4B49" d="M118.989,125.34c0,0,1.935,68.002,1.966,78.459l-2.276,0.145c0,0-6.372-62.467-9.536-65.598
						c0,0-1.309-0.24-1.814,0c-0.507,0.238-2.873,62.247-2.029,66.128h-2.361c0,0-7.285-63.798-6.834-78.71
						c0,0-0.291-7.49,9.779-6.815C115.954,119.624,117.978,117.901,118.989,125.34z"/>
					<path fill="#2F302D" d="M118.369,203.966c1.285-0.188,2.594-0.22,3.886-0.088c1.034,0.668,2.154,1.206,3.323,1.593
						c0.339,0.113,0.695,0.219,0.957,0.464c0.262,0.244,0.389,0.677,0.179,0.965c-0.183,0.253-0.535,0.302-0.847,0.325
						c-2.387,0.181-4.791,0.132-7.168-0.141c-0.145-0.019-0.295-0.039-0.403-0.134c-0.087-0.075-0.132-0.187-0.169-0.295
						C117.828,205.778,117.919,204.775,118.369,203.966z"/>
					<path fill="#2F302D" d="M106.339,203.799c0,0-3.148-0.215-3.655,0c-0.506,0.216-1.293,2.634-0.561,3.082
						c0.73,0.451,8.096,0.451,8.096,0.451s0.842-0.93-1.236-1.815C106.902,204.633,106.564,204.595,106.339,203.799z"/>
					<path fill="#EADFD2" d="M138.659,85.777c0.151-0.332,0.278-0.686,0.271-1.051c-0.015-0.677-0.479-1.25-0.921-1.76
						c-0.178-0.207-0.424-0.435-0.682-0.352c-0.35,0.111-0.363,0.682-0.711,0.797c-0.144-0.264-0.297-0.54-0.547-0.711
						c-0.25-0.171-0.629-0.195-0.832,0.03c0.179,0.512,0.652,0.914,0.695,1.452c0.054,0.662-0.55,1.174-0.795,1.789
						c-0.201,0.506-0.154,1.072-0.105,1.614c0.082,0.903,0.939,1.263,1.668,0.785C137.559,87.81,138.246,86.688,138.659,85.777z"/>
					<g>
						<g>
							<path fill="#EADFD2" d="M112.514,78.859c-1.848-0.822-3.712-1.6-5.601-2.321c0.794-1.548,0.446-3.405,0.558-5.144
								c0.152-2.351,1.17-4.549,2.209-6.66c0.838-1.704,1.75-3.453,3.258-4.607c0.299-0.228,0.637-0.437,1.012-0.472
								c0.322-0.028,0.641,0.071,0.947,0.173c2.904,0.944,5.847,1.908,8.395,3.59c0.186,0.123,0.38,0.262,0.458,0.471
								c0.069,0.188,0.034,0.395-0.006,0.591c-1.041,5.202-3.376,10.137-6.722,14.256C115.561,79.072,114.07,79.1,112.514,78.859z"
								/>
							<path fill="#536D7C" d="M112.624,80.793c-0.444-0.151-0.884-0.319-1.319-0.487c-2.191-0.841-4.385-1.683-6.576-2.522
								c-0.326-0.125-0.673-0.252-1.016-0.181c-0.262,0.056-0.486,0.224-0.695,0.393c-4.093,3.301-5.207,8.669-6.33,13.555
								c-3.973,17.263-5.223,35.101-3.697,52.717c9.781,1.673,19.669,2.757,29.592,3.251c-0.553-0.026-1.691-12.094-1.818-13.279
								c-0.75-6.973-1.154-13.988-1.087-21.003c0.069-7.044-0.304-14.055-0.815-21.082c-0.206-2.843-0.441-5.683-0.701-8.521
								c-0.104-1.11-3.314-2.26-4.125-2.436C113.557,81.094,113.088,80.953,112.624,80.793z"/>
						</g>
					</g>
					<path fill="#2F302D" d="M98.945,135.781c0.154,1.304,0.309,2.608,0.462,3.914c0.097,0.818,0.213,1.68,0.81,2.364
						c1.062,1.22,2.309,0.609,3.649,0.433c1.883-0.246,3.77-0.479,5.649-0.74c3.826-0.529,7.635-1.12,11.426-1.768
						c0.302-0.054,0.619-0.11,0.844-0.276c0.229-0.167,0.329-0.42,0.408-0.665c1.074-3.275,0.144-6.815-0.787-10.203
						c-0.098-0.353-0.211-0.727-0.543-0.976c-0.232-0.173-0.539-0.259-0.838-0.327c-0.795-0.18-1.612-0.273-2.426-0.284
						c-0.286-0.004-0.568,0.006-0.852,0.021c-0.053-0.319-0.104-0.598-0.119-0.756c-0.25-2.56-0.605-5.112-1.009-7.652
						c-0.802-5.046-1.806-10.057-2.591-15.106c-0.444-2.856-0.821-5.724-1.055-8.606c-0.229-2.859-0.409-5.969-2.296-8.13
						c-0.876-1.004-2.245-1.739-3.525-1.369c-1.522,0.442-2.228,2.175-2.587,3.72c-0.459,1.975-0.7,3.994-0.857,6.015
						c-0.857,11.122,0.812,22.277,0.859,33.433c-1.008,0.12-2.014,0.244-3.02,0.365c-0.357,0.041-0.728,0.09-1.018,0.257
						c-0.445,0.258-0.592,0.733-0.676,1.178C98.539,132.312,98.742,134.056,98.945,135.781z M104.302,128.729
						c0.047-3.271,0.094-6.542,0.138-9.813c0.033-2.428,0.062-4.873-0.4-7.257c-0.249-1.28-0.639-2.532-0.829-3.823
						c-0.242-1.635-0.159-3.297-0.075-4.945c0.098-1.911,0.194-3.822,0.292-5.732c0.158-3.121,0.403-6.477,2.382-8.896
						c0.192-0.234,0.406-0.461,0.674-0.603c1.015-0.532,2.195,0.38,2.82,1.339c2.502,3.844,1.678,8.874,2.531,13.379
						c0.24,1.267,0.618,2.505,0.914,3.76c0.325,1.383,0.549,2.791,0.771,4.195c0.253,1.587,0.504,3.173,0.757,4.76
						c0.646,4.072,1.287,8.18,1.142,12.297c-0.249,0.027-0.498,0.058-0.745,0.088C111.215,127.895,107.758,128.312,104.302,128.729z
						"/>
					<path fill="#999898" d="M120.783,103.92c2.148,1.48,4.756,2.97,7.229,2.132c1.62-0.549,2.758-1.987,3.712-3.408
						c1.908-2.842,3.474-5.912,4.653-9.124c0.748-2.035,1.225-4.625-0.347-6.119c-0.241-0.229-0.543-0.427-0.876-0.428
						c-0.781-0.008-1.152,0.935-1.354,1.691c-0.994,3.704-3.03,7.125-5.814,9.765c-0.348,0.333-0.722,0.66-1.176,0.82
						c-1.189,0.419-2.424-0.406-3.406-1.196c-3.887-3.132-7.621-6.454-11.186-9.947c-0.687-0.671-1.391-1.369-2.278-1.737
						c-1.379-0.576-3.099-0.208-4.122,0.882c-3.336,3.553,2.056,6.765,4.424,8.718C113.639,98.77,117.157,101.422,120.783,103.92z"
						/>
				</g>
				<path fill="#A46E65" d="M128.418,61.617c-0.733,1.584-2.49,2.596-4.182,2.41c-1.506-0.162-2.802-1.146-4.25-1.599
					c-2.579-0.81-5.609,0.301-7.117,2.604c-0.521,0.794-0.863,1.693-1.204,2.581c-1.116,2.925-2.233,5.85-3.349,8.775
					c-3.961,1.57-8.693,0.859-12.055-1.811c-0.176-1.733-0.354-3.467-0.53-5.203c-0.069-0.676-0.132-1.389,0.14-2.008
					c0.494-1.129,1.885-1.499,3.088-1.466c1.203,0.032,2.441,0.315,3.586-0.063c3.401-3.703,3.117-9.635,5.701-13.984
					c2.849-4.797,9.39-6.818,14.332-4.428C127.521,49.817,130.185,56.295,128.418,61.617z"/>
			</g>
		</g>
	</g>
</g>
</svg>
