<?xml version="1.0" encoding="utf-8"?>
<!-- Generator: Adobe Illustrator 16.0.0, SVG Export Plug-In . SVG Version: 6.00 Build 0)  -->
<!DOCTYPE svg PUBLIC "-//W3C//DTD SVG 1.1//EN" "http://www.w3.org/Graphics/SVG/1.1/DTD/svg11.dtd">
<svg version="1.1" id="Capa_1" xmlns="http://www.w3.org/2000/svg" xmlns:xlink="http://www.w3.org/1999/xlink" x="0px" y="0px"
	 width="982.794px" height="285.202px" viewBox="0 0 982.794 285.202" enable-background="new 0 0 982.794 285.202"
	 xml:space="preserve">
<g>
	<path fill="#FFFFFF" stroke="#6A5095" stroke-miterlimit="10" stroke-opacity="0.3" d="M974.954,272.702c0,6.627-5.372,12-12,12
		H12.5c-6.627,0-12-5.373-12-12V27.297c0-6.629,5.373-12,12-12h950.454c6.628,0,12,5.371,12,12V272.702z"/>
	<g>
		<path fill-rule="evenodd" clip-rule="evenodd" fill="#454743" d="M982.794,25.73c0-0.057-0.002-0.11-0.004-0.166
			c-0.018-0.943-0.225-1.871-0.623-2.674c-0.152-0.323-0.33-0.633-0.537-0.92c-0.238-0.324-0.539-0.611-0.889-0.859
			c-1.523-1.257-3.59-1.582-5.713-0.836c-0.984,0.348-1.461,0.297-1.646-0.312c-0.039-0.207-0.057-0.462-0.057-0.775
			c-0.006-2.422,0.021-4.846,0.025-7.27c0.002-0.756-0.02-1.189-0.199-1.439c-0.191-0.42-0.6-0.586-1.279-0.574
			c-2.594,0.043-5.188,0.02-7.781,0.051c-0.139,0.002-0.262,0.008-0.377,0.016c-0.686-0.256-0.736-0.859-0.318-2.043
			c0.91-2.58,0.139-5.271-1.963-6.842c-1.887-1.412-4.77-1.452-6.699-0.094c-2.158,1.52-2.996,4.146-2.16,6.781
			c0.453,1.426,0.43,2.012-0.404,2.219c-2.369-0.016-4.736-0.024-7.104,0.012c-0.271-0.004-0.543-0.01-0.814-0.014
			c-0.215-0.004-0.408,0.008-0.58,0.039c-0.01,0-0.018,0-0.027,0c-0.047,0-0.1,0.018-0.152,0.042
			c-0.508,0.151-0.768,0.544-0.734,1.394c0.004,0.121,0.008,0.244,0.012,0.367c-0.031,1.139,0,2.279,0,3.42
			c0,1.349-0.045,2.697,0.014,4.043c0,0.144-0.002,0.273-0.006,0.39c-0.047,0.56-0.301,0.819-0.73,0.894
			c-0.227-0.006-0.52-0.037-0.908-0.077c-0.328-0.036-0.66-0.046-0.99-0.052c-0.4-0.029-0.797-0.041-1.191-0.021h-0.016
			c-0.803,0.043-1.594,0.215-2.361,0.633c-1.553,0.844-2.49,2.68-2.463,4.615c0,0.02,0,0.037,0,0.055s0,0.035,0,0.055
			c-0.027,1.936,0.91,3.771,2.463,4.615c0.768,0.418,1.559,0.59,2.361,0.631c0.004,0.003,0.01,0.003,0.01,0.003
			c0.4,0.02,0.797,0.007,1.197-0.022c0.33-0.006,0.662-0.016,0.99-0.051c0.389-0.041,0.682-0.074,0.908-0.078
			c0.43,0.074,0.684,0.335,0.73,0.895c0.004,0.115,0.006,0.246,0.006,0.389c-0.059,1.346-0.014,2.695-0.014,4.043
			c0,1.142-0.031,2.283,0,3.42c-0.004,0.123-0.008,0.244-0.012,0.367c-0.033,0.848,0.227,1.242,0.734,1.395
			c0.053,0.025,0.105,0.039,0.152,0.041c0.01,0,0.018,0,0.027,0c0.172,0.031,0.365,0.043,0.58,0.039
			c0.271-0.004,0.543-0.01,0.814-0.014c2.367,0.035,4.734,0.027,7.104,0.013c0.834,0.206,0.857,0.792,0.404,2.218
			c-0.836,2.635,0.002,5.262,2.16,6.782c1.93,1.358,4.812,1.318,6.699-0.095c2.102-1.57,2.873-4.262,1.963-6.841
			c-0.418-1.184-0.367-1.788,0.318-2.046c0.115,0.01,0.238,0.016,0.377,0.018c2.594,0.031,5.188,0.008,7.781,0.049
			c0.68,0.013,1.088-0.151,1.279-0.572c0.18-0.25,0.201-0.684,0.199-1.439c-0.004-2.423-0.031-4.848-0.025-7.271
			c0-0.311,0.018-0.566,0.057-0.775c0.186-0.607,0.662-0.658,1.646-0.31c2.123,0.745,4.189,0.421,5.713-0.836
			c0.35-0.248,0.65-0.536,0.889-0.86c0.207-0.286,0.385-0.596,0.537-0.919c0.398-0.804,0.605-1.731,0.623-2.675
			C982.792,25.842,982.794,25.785,982.794,25.73z"/>
		<path fill="#FFFFFF" d="M949.62,26.244c0.307,5.348,4.891,9.436,10.238,9.131c5.352-0.307,9.439-4.891,9.135-10.24
			c-0.307-5.35-4.893-9.438-10.244-9.131C953.399,16.309,949.313,20.895,949.62,26.244z M958.231,25.751l-3.832-3.417
			c-0.312-0.283-0.34-0.76-0.061-1.074c0.281-0.305,0.76-0.334,1.07-0.061l3.834,3.414l3.418-3.83
			c0.279-0.312,0.76-0.331,1.064-0.062c0.316,0.282,0.35,0.759,0.07,1.073l-3.416,3.834l3.83,3.416
			c0.309,0.281,0.336,0.76,0.062,1.074c-0.281,0.312-0.76,0.34-1.074,0.061l-3.834-3.418l-3.418,3.832
			c-0.277,0.314-0.756,0.342-1.07,0.062c-0.312-0.281-0.34-0.76-0.062-1.074L958.231,25.751z"/>
	</g>
</g>
</svg>
