<?xml version="1.0" encoding="utf-8"?>
<!-- Generator: Adobe Illustrator 16.0.0, SVG Export Plug-In . SVG Version: 6.00 Build 0)  -->
<!DOCTYPE svg PUBLIC "-//W3C//DTD SVG 1.1//EN" "http://www.w3.org/Graphics/SVG/1.1/DTD/svg11.dtd">
<svg version="1.1" id="Capa_1" xmlns="http://www.w3.org/2000/svg" xmlns:xlink="http://www.w3.org/1999/xlink" x="0px" y="0px"
	 width="386px" height="421.398px" viewBox="0 0 386 421.398" enable-background="new 0 0 386 421.398" xml:space="preserve">
<g>
	<g>
		<path fill="#655095" d="M386,409.398c0,6.627-5.892,12-13.159,12H13.159c-7.267,0-13.159-5.373-13.159-12V105
			c0-6.627,5.893-12,13.159-12h359.682C380.108,93,386,98.373,386,105V409.398z"/>
		<circle fill="#655095" cx="193" cy="93" r="93"/>
	</g>
	<g>
		<path fill-rule="evenodd" clip-rule="evenodd" fill="#FFFFFF" d="M373.873,124.576c0-0.057-0.002-0.111-0.004-0.166
			c-0.018-0.943-0.225-1.871-0.624-2.674c-0.152-0.324-0.329-0.633-0.537-0.92c-0.237-0.324-0.538-0.611-0.888-0.859
			c-1.523-1.258-3.59-1.582-5.713-0.836c-0.984,0.348-1.461,0.297-1.647-0.312c-0.038-0.207-0.056-0.463-0.056-0.775
			c-0.006-2.422,0.021-4.846,0.025-7.27c0.002-0.756-0.02-1.189-0.199-1.439c-0.191-0.42-0.6-0.586-1.279-0.574
			c-2.594,0.043-5.188,0.02-7.781,0.051c-0.139,0.002-0.263,0.008-0.378,0.016c-0.685-0.256-0.735-0.859-0.318-2.043
			c0.911-2.58,0.14-5.271-1.962-6.842c-1.888-1.412-4.77-1.453-6.7-0.094c-2.157,1.52-2.995,4.146-2.158,6.781
			c0.452,1.426,0.429,2.012-0.405,2.219c-2.37-0.016-4.736-0.025-7.104,0.012c-0.271-0.004-0.543-0.01-0.814-0.014
			c-0.215-0.004-0.408,0.008-0.58,0.039c-0.01,0-0.018,0-0.027,0c-0.047,0-0.1,0.018-0.152,0.041
			c-0.509,0.152-0.768,0.545-0.734,1.395c0.004,0.121,0.008,0.244,0.012,0.367c-0.031,1.139,0,2.279,0,3.42
			c0,1.348-0.045,2.697,0.015,4.043c0,0.143-0.003,0.273-0.007,0.389c-0.047,0.561-0.301,0.82-0.731,0.895
			c-0.226-0.006-0.519-0.037-0.907-0.078c-0.328-0.035-0.66-0.045-0.991-0.051c-0.399-0.029-0.796-0.041-1.19-0.021h-0.012
			c-0.807,0.043-1.599,0.215-2.365,0.633c-1.553,0.844-2.49,2.68-2.464,4.615c0,0.02,0,0.037,0,0.055s0,0.035,0,0.055
			c-0.026,1.936,0.911,3.771,2.464,4.615c0.767,0.418,1.559,0.59,2.361,0.631c0.004,0.002,0.009,0.002,0.009,0.002
			c0.401,0.02,0.798,0.008,1.197-0.021c0.331-0.006,0.663-0.016,0.991-0.051c0.389-0.041,0.682-0.074,0.907-0.078
			c0.431,0.074,0.685,0.334,0.731,0.895c0.004,0.115,0.007,0.246,0.007,0.389c-0.06,1.346-0.015,2.695-0.015,4.043
			c0,1.141-0.031,2.283,0,3.42c-0.004,0.123-0.008,0.244-0.012,0.367c-0.033,0.848,0.226,1.242,0.734,1.395
			c0.053,0.025,0.105,0.039,0.152,0.041c0.01,0,0.018,0,0.027,0c0.172,0.031,0.365,0.043,0.58,0.039
			c0.271-0.004,0.543-0.01,0.814-0.014c2.367,0.035,4.733,0.027,7.104,0.012c0.834,0.207,0.857,0.793,0.405,2.219
			c-0.837,2.635,0.001,5.262,2.158,6.781c1.931,1.359,4.812,1.318,6.7-0.094c2.102-1.57,2.873-4.262,1.962-6.842
			c-0.417-1.184-0.366-1.787,0.318-2.045c0.115,0.01,0.239,0.016,0.378,0.018c2.594,0.031,5.188,0.008,7.781,0.049
			c0.68,0.012,1.088-0.152,1.279-0.572c0.18-0.25,0.201-0.684,0.199-1.439c-0.005-2.424-0.031-4.848-0.025-7.271
			c0-0.311,0.018-0.566,0.056-0.775c0.187-0.607,0.663-0.658,1.647-0.311c2.123,0.746,4.189,0.422,5.713-0.836
			c0.35-0.248,0.65-0.535,0.888-0.859c0.208-0.287,0.385-0.596,0.537-0.92c0.399-0.803,0.606-1.73,0.624-2.674
			C373.871,124.688,373.873,124.631,373.873,124.576z"/>
		<path fill="#655095" d="M340.699,125.09c0.307,5.348,4.891,9.436,10.238,9.131c5.352-0.307,9.438-4.891,9.135-10.24
			c-0.307-5.35-4.893-9.438-10.245-9.131C344.478,115.154,340.393,119.74,340.699,125.09z M349.31,124.596l-3.832-3.416
			c-0.312-0.283-0.339-0.76-0.06-1.074c0.281-0.305,0.759-0.334,1.07-0.061l3.834,3.414l3.418-3.83
			c0.279-0.312,0.76-0.332,1.064-0.062c0.316,0.283,0.35,0.76,0.07,1.074l-3.416,3.834l3.83,3.416
			c0.309,0.281,0.335,0.76,0.062,1.074c-0.281,0.312-0.76,0.34-1.073,0.061l-3.835-3.418l-3.418,3.832
			c-0.277,0.314-0.756,0.342-1.07,0.062c-0.313-0.281-0.34-0.76-0.062-1.074L349.31,124.596z"/>
	</g>
</g>
</svg>
