<?xml version="1.0" encoding="utf-8"?>
<!-- Generator: Adobe Illustrator 16.0.0, SVG Export Plug-In . SVG Version: 6.00 Build 0)  -->
<!DOCTYPE svg PUBLIC "-//W3C//DTD SVG 1.1//EN" "http://www.w3.org/Graphics/SVG/1.1/DTD/svg11.dtd">
<svg version="1.1" id="Capa_1" xmlns="http://www.w3.org/2000/svg" xmlns:xlink="http://www.w3.org/1999/xlink" x="0px" y="0px"
	 width="1279.333px" height="600.218px" viewBox="0 0 1279.333 600.218" enable-background="new 0 0 1279.333 600.218"
	 xml:space="preserve">
<g>
	<path fill="#655095" d="M1279.333,588.218c0,6.628-5.372,12-12,12H12c-6.628,0-12-5.372-12-12V12C0,5.372,5.372,0,12,0h1255.333
		c6.628,0,12,5.372,12,12V588.218z"/>
	<g>
		<path fill-rule="evenodd" clip-rule="evenodd" fill="#FFFFFF" d="M1271.878,34.956c0-0.057-0.002-0.111-0.004-0.166
			c-0.018-0.943-0.225-1.871-0.623-2.674c-0.152-0.324-0.33-0.633-0.537-0.92c-0.238-0.324-0.539-0.611-0.889-0.859
			c-1.523-1.258-3.59-1.582-5.713-0.836c-0.984,0.348-1.461,0.297-1.646-0.312c-0.039-0.207-0.057-0.463-0.057-0.775
			c-0.006-2.422,0.021-4.846,0.025-7.27c0.002-0.756-0.02-1.189-0.199-1.439c-0.191-0.42-0.6-0.586-1.279-0.574
			c-2.594,0.043-5.188,0.02-7.781,0.051c-0.139,0.002-0.262,0.008-0.377,0.016c-0.686-0.256-0.736-0.859-0.318-2.043
			c0.91-2.58,0.139-5.271-1.963-6.842c-1.887-1.412-4.77-1.453-6.699-0.094c-2.158,1.52-2.996,4.146-2.16,6.781
			c0.453,1.426,0.43,2.012-0.404,2.219c-2.369-0.016-4.736-0.025-7.104,0.012c-0.271-0.004-0.543-0.01-0.814-0.014
			c-0.215-0.004-0.408,0.008-0.58,0.039c-0.01,0-0.018,0-0.027,0c-0.047,0-0.1,0.018-0.152,0.041
			c-0.508,0.152-0.768,0.545-0.734,1.395c0.004,0.121,0.008,0.244,0.012,0.367c-0.031,1.139,0,2.279,0,3.42
			c0,1.348-0.045,2.697,0.014,4.043c0,0.143-0.002,0.273-0.006,0.389c-0.047,0.561-0.301,0.82-0.73,0.895
			c-0.227-0.006-0.52-0.037-0.908-0.078c-0.328-0.035-0.66-0.045-0.99-0.051c-0.4-0.029-0.797-0.041-1.191-0.021h-0.012
			c-0.807,0.043-1.598,0.215-2.365,0.633c-1.553,0.844-2.49,2.68-2.463,4.615c0,0.02,0,0.037,0,0.055s0,0.035,0,0.055
			c-0.027,1.936,0.91,3.771,2.463,4.615c0.768,0.418,1.559,0.59,2.361,0.631c0.004,0.002,0.01,0.002,0.01,0.002
			c0.4,0.02,0.797,0.008,1.197-0.021c0.33-0.006,0.662-0.016,0.99-0.051c0.389-0.041,0.682-0.074,0.908-0.078
			c0.43,0.074,0.684,0.334,0.73,0.895c0.004,0.115,0.006,0.246,0.006,0.389c-0.059,1.346-0.014,2.695-0.014,4.043
			c0,1.141-0.031,2.283,0,3.42c-0.004,0.123-0.008,0.244-0.012,0.367c-0.033,0.848,0.227,1.242,0.734,1.395
			c0.053,0.025,0.105,0.039,0.152,0.041c0.01,0,0.018,0,0.027,0c0.172,0.031,0.365,0.043,0.58,0.039
			c0.271-0.004,0.543-0.01,0.814-0.014c2.367,0.035,4.734,0.027,7.104,0.012c0.834,0.207,0.857,0.793,0.404,2.219
			c-0.836,2.635,0.002,5.262,2.16,6.781c1.93,1.359,4.812,1.318,6.699-0.094c2.102-1.57,2.873-4.262,1.963-6.842
			c-0.418-1.184-0.367-1.787,0.318-2.045c0.115,0.01,0.238,0.016,0.377,0.018c2.594,0.031,5.188,0.008,7.781,0.049
			c0.68,0.012,1.088-0.152,1.279-0.572c0.18-0.25,0.201-0.684,0.199-1.439c-0.004-2.424-0.031-4.848-0.025-7.271
			c0-0.311,0.018-0.566,0.057-0.775c0.186-0.607,0.662-0.658,1.646-0.311c2.123,0.746,4.189,0.422,5.713-0.836
			c0.35-0.248,0.65-0.535,0.889-0.859c0.207-0.287,0.385-0.596,0.537-0.92c0.398-0.803,0.605-1.73,0.623-2.674
			C1271.876,35.067,1271.878,35.011,1271.878,34.956z"/>
		<path fill="#655095" d="M1238.704,35.47c0.307,5.348,4.891,9.436,10.238,9.131c5.352-0.307,9.439-4.891,9.135-10.24
			c-0.307-5.35-4.893-9.438-10.244-9.131C1242.483,25.534,1238.397,30.12,1238.704,35.47z M1247.315,34.976l-3.832-3.416
			c-0.312-0.283-0.34-0.76-0.061-1.074c0.281-0.305,0.76-0.334,1.07-0.061l3.834,3.414l3.418-3.83
			c0.279-0.312,0.76-0.332,1.064-0.062c0.316,0.283,0.35,0.76,0.07,1.074l-3.416,3.834l3.83,3.416
			c0.309,0.281,0.336,0.76,0.062,1.074c-0.281,0.312-0.76,0.34-1.074,0.061l-3.834-3.418l-3.418,3.832
			c-0.277,0.314-0.756,0.342-1.07,0.062c-0.312-0.281-0.34-0.76-0.062-1.074L1247.315,34.976z"/>
	</g>
</g>
<g>
	<rect x="26.569" y="79.942" fill-rule="evenodd" clip-rule="evenodd" fill="#5B4B8A" width="554.309" height="440.361"/>
	<g>
		<g>
			<g>
				<path fill="#AFC76F" d="M221.91,102.873v4.418l-6.189-0.234v5.875l5.562-0.141l0.141,4.245h-4.966v7.724l-4.34-0.203
					c0.114-2.936,0.172-5.891,0.172-8.867c0-4.127-0.109-8.289-0.329-12.487C214.321,103.098,217.638,102.988,221.91,102.873z"/>
				<path fill="#AFC76F" d="M231.42,125.764l-0.156-2.555c-0.438,1.358-1.619,2.043-3.541,2.053
					c-0.021,0.01-0.037,0.016-0.047,0.016c-1.901,0-3.16-0.856-3.776-2.569c-0.417-1.139-0.626-3.494-0.626-7.065
					c0-1.839,0.057-4.006,0.172-6.502h3.808c-0.209,3.509-0.313,6.209-0.313,8.1c0,0.95,0.025,1.691,0.078,2.225
					c0.156,1.629,0.684,2.443,1.582,2.443s1.463-0.422,1.692-1.269l-0.156-10.873l3.682-0.031c0,4.491,0.162,9.724,0.485,15.698
					L231.42,125.764z"/>
				<path fill="#AFC76F" d="M240.695,109.673c3.624,0,5.437,2.407,5.437,7.223c0,0.585-0.026,1.212-0.078,1.88h-7.004
					c0,2.685,0.518,4.026,1.552,4.026h0.109c0.908-0.073,1.363-0.768,1.363-2.083c0-0.283-0.021-0.596-0.063-0.94l3.729-0.079
					c0,3.98-1.739,5.996-5.218,6.049c-0.042,0.01-0.078,0.016-0.109,0.016c-3.312,0-4.967-2.513-4.967-7.537v-0.47
					C235.551,112.367,237.301,109.673,240.695,109.673z M238.674,115.893h3.541v-0.376c0-1.901-0.538-2.852-1.613-2.852
					C239.441,112.665,238.8,113.741,238.674,115.893z"/>
				<path fill="#AFC76F" d="M250.189,109.266l0.156,2.553c0.438-1.357,1.593-2.047,3.463-2.067h0.062
					c1.838,0,3.092,0.721,3.76,2.162c0.46,0.981,0.689,3.28,0.689,6.894c0,1.775-0.058,3.875-0.172,6.299h-3.792
					c0.136-3.229,0.204-5.729,0.204-7.506c0-0.887-0.016-1.598-0.047-2.13c-0.104-1.567-0.606-2.351-1.504-2.351
					c-0.898,0-1.463,0.418-1.692,1.254l0.156,11.358l-3.682,0.032c0-4.805-0.162-10.2-0.485-16.186L250.189,109.266z"/>
				<path fill="#AFC76F" d="M262.237,104.675l3.557-0.235v5.186l2.992-0.078l0.047,2.961l-3.039,0.142v7.129
					c0,1.661,0.705,2.491,2.115,2.491c0.292,0,0.61-0.037,0.955-0.109l-0.141,3.446c-0.501,0.062-0.977,0.094-1.426,0.094
					c-3.301,0-4.982-1.702-5.045-5.107v-7.661l-2.569,0.156l-0.062-3.494l2.632,0.031L262.237,104.675z"/>
				<path fill="#AFC76F" d="M275.226,109.673c3.624,0,5.437,2.407,5.437,7.223c0,0.585-0.026,1.212-0.078,1.88h-7.004
					c0,2.685,0.518,4.026,1.552,4.026h0.109c0.908-0.073,1.363-0.768,1.363-2.083c0-0.283-0.021-0.596-0.063-0.94l3.729-0.079
					c0,3.98-1.739,5.996-5.218,6.049c-0.042,0.01-0.078,0.016-0.109,0.016c-3.312,0-4.967-2.513-4.967-7.537v-0.47
					C270.081,112.367,271.831,109.673,275.226,109.673z M273.204,115.893h3.541v-0.376c0-1.901-0.538-2.852-1.613-2.852
					C273.972,112.665,273.33,113.741,273.204,115.893z"/>
				<path fill="#AFC76F" d="M281.649,120.201l3.588-0.172v0.203c0,1.608,0.496,2.424,1.488,2.444h0.062
					c0.961,0,1.441-0.465,1.441-1.395v-0.11c-0.041-1.023-0.989-1.848-2.843-2.475c-1.854-0.627-2.97-1.682-3.346-3.165
					c-0.136-0.522-0.203-1.023-0.203-1.504c0-0.878,0.225-1.692,0.674-2.444c0.689-1.148,1.733-1.807,3.133-1.975
					c0.376-0.041,0.742-0.062,1.097-0.062c0.93,0,1.75,0.162,2.46,0.486c0.972,0.449,1.646,1.092,2.021,1.927
					c0.25,0.575,0.376,1.212,0.376,1.911c0,0.335-0.026,0.68-0.078,1.035l-3.354,0.078c0.031-0.262,0.047-0.502,0.047-0.721
					c0-1.045-0.334-1.604-1.002-1.677c-0.073-0.011-0.146-0.016-0.22-0.016c-0.689,0-1.154,0.351-1.395,1.05
					c-0.084,0.24-0.125,0.459-0.125,0.658c0,0.49,0.229,0.914,0.689,1.269c0.647,0.501,1.605,1.011,2.875,1.528
					c1.269,0.516,2.123,1.396,2.562,2.639c0.156,0.471,0.234,0.94,0.234,1.41c0,0.795-0.229,1.594-0.688,2.397
					c-0.731,1.284-1.865,2.032-3.4,2.241c-0.334,0.052-0.663,0.078-0.987,0.078c-1.148,0-2.214-0.299-3.195-0.894
					C282.308,124.186,281.671,122.604,281.649,120.201z"/>
				<path fill="#AFC76F" d="M310.65,103.594c-0.063,3.53-0.095,7.232-0.095,11.107c0,3.531,0.026,7.207,0.079,11.03l-3.714,0.017
					l-0.125-2.398c-0.773,1.16-1.802,1.74-3.087,1.74c-3.206,0-4.81-2.455-4.81-7.364c0-0.104,0.005-0.209,0.016-0.313
					c0.062-4.92,1.65-7.379,4.763-7.379c0.126,0,0.256,0.006,0.392,0.016c1.065,0.062,1.928,0.643,2.585,1.738
					c0-2.318-0.057-5.049-0.172-8.193H310.65z M306.733,120.139l-0.079-5.422c-0.605-0.824-1.227-1.236-1.864-1.236
					c-0.261,0-0.522,0.067-0.783,0.203c-0.825,0.428-1.237,1.629-1.237,3.604c0,0.229,0.005,0.465,0.016,0.705
					c0.104,2.392,0.637,3.656,1.598,3.791c0.094,0.011,0.188,0.016,0.282,0.016C305.501,121.799,306.189,121.246,306.733,120.139z"
					/>
				<path fill="#AFC76F" d="M316.979,109.673c3.624,0,5.437,2.407,5.437,7.223c0,0.585-0.026,1.212-0.078,1.88h-7.004
					c0,2.685,0.518,4.026,1.552,4.026h0.109c0.908-0.073,1.363-0.768,1.363-2.083c0-0.283-0.021-0.596-0.063-0.94l3.729-0.079
					c0,3.98-1.739,5.996-5.218,6.049c-0.042,0.01-0.078,0.016-0.109,0.016c-3.312,0-4.967-2.513-4.967-7.537v-0.47
					C311.835,112.367,313.585,109.673,316.979,109.673z M314.958,115.893h3.541v-0.376c0-1.901-0.538-2.852-1.613-2.852
					C315.726,112.665,315.084,113.741,314.958,115.893z"/>
				<path fill="#AFC76F" d="M341.28,103.594c-0.063,3.53-0.095,7.232-0.095,11.107c0,3.531,0.026,7.207,0.079,11.03l-3.714,0.017
					l-0.125-2.398c-0.773,1.16-1.802,1.74-3.087,1.74c-3.206,0-4.81-2.455-4.81-7.364c0-0.104,0.005-0.209,0.016-0.313
					c0.062-4.92,1.65-7.379,4.763-7.379c0.126,0,0.256,0.006,0.392,0.016c1.065,0.062,1.928,0.643,2.585,1.738
					c0-2.318-0.057-5.049-0.172-8.193H341.28z M337.363,120.139l-0.079-5.422c-0.605-0.824-1.227-1.236-1.864-1.236
					c-0.261,0-0.522,0.067-0.783,0.203c-0.825,0.428-1.237,1.629-1.237,3.604c0,0.229,0.005,0.465,0.016,0.705
					c0.104,2.392,0.637,3.656,1.598,3.791c0.094,0.011,0.188,0.016,0.282,0.016C336.131,121.799,336.819,121.246,337.363,120.139z"
					/>
				<path fill="#AFC76F" d="M347.609,109.673c3.624,0,5.437,2.407,5.437,7.223c0,0.585-0.026,1.212-0.078,1.88h-7.004
					c0,2.685,0.518,4.026,1.552,4.026h0.109c0.908-0.073,1.363-0.768,1.363-2.083c0-0.283-0.021-0.596-0.063-0.94l3.729-0.079
					c0,3.98-1.739,5.996-5.218,6.049c-0.042,0.01-0.078,0.016-0.109,0.016c-3.312,0-4.967-2.513-4.967-7.537v-0.47
					C342.465,112.367,344.215,109.673,347.609,109.673z M345.588,115.893h3.541v-0.376c0-1.901-0.538-2.852-1.613-2.852
					C346.355,112.665,345.714,113.741,345.588,115.893z"/>
				<path fill="#AFC76F" d="M354.032,120.201l3.588-0.172v0.203c0,1.608,0.496,2.424,1.488,2.444h0.062
					c0.961,0,1.441-0.465,1.441-1.395v-0.11c-0.041-1.023-0.989-1.848-2.843-2.475c-1.854-0.627-2.97-1.682-3.346-3.165
					c-0.136-0.522-0.203-1.023-0.203-1.504c0-0.878,0.225-1.692,0.674-2.444c0.689-1.148,1.733-1.807,3.133-1.975
					c0.376-0.041,0.742-0.062,1.097-0.062c0.93,0,1.75,0.162,2.46,0.486c0.972,0.449,1.646,1.092,2.021,1.927
					c0.25,0.575,0.376,1.212,0.376,1.911c0,0.335-0.026,0.68-0.078,1.035l-3.354,0.078c0.031-0.262,0.047-0.502,0.047-0.721
					c0-1.045-0.334-1.604-1.002-1.677c-0.073-0.011-0.146-0.016-0.22-0.016c-0.689,0-1.154,0.351-1.395,1.05
					c-0.084,0.24-0.125,0.459-0.125,0.658c0,0.49,0.229,0.914,0.689,1.269c0.647,0.501,1.605,1.011,2.875,1.528
					c1.269,0.516,2.123,1.396,2.562,2.639c0.156,0.471,0.234,0.94,0.234,1.41c0,0.795-0.229,1.594-0.688,2.397
					c-0.731,1.284-1.865,2.032-3.4,2.241c-0.334,0.052-0.663,0.078-0.987,0.078c-1.148,0-2.214-0.299-3.195-0.894
					C354.69,124.186,354.054,122.604,354.032,120.201z"/>
				<path fill="#AFC76F" d="M365.783,127.58l3.682-0.203c-0.011,0.125-0.016,0.25-0.016,0.376c0,1.138,0.454,1.76,1.363,1.864
					c0.146,0.021,0.282,0.031,0.407,0.031c0.783,0,1.342-0.313,1.677-0.939c0.292-0.564,0.438-1.619,0.438-3.166
					c0-0.417-0.011-0.877-0.031-1.378c-0.585,1.17-1.672,1.808-3.259,1.911c-3.103-0.031-4.653-2.668-4.653-7.912v-0.109
					c0.021-5.306,1.864-7.975,5.53-8.006c1.003,0,1.901,0.585,2.695,1.754l0.047-2.49l3.431,0.156
					c0,8.617-0.026,13.955-0.078,16.012c-0.053,2.059-0.363,3.709-0.933,4.951c-0.569,1.243-1.538,2.037-2.906,2.382
					c-0.721,0.188-1.436,0.282-2.146,0.282c-0.637,0-1.269-0.074-1.896-0.22c-1.337-0.313-2.256-0.903-2.757-1.771
					c-0.418-0.711-0.627-1.64-0.627-2.789C365.752,128.087,365.762,127.842,365.783,127.58z M373.272,121.376v-6.36
					c-0.512-1.035-1.16-1.551-1.943-1.551c-0.156,0-0.318,0.021-0.485,0.062c-1.014,0.24-1.572,1.635-1.677,4.183
					c-0.01,0.272-0.016,0.532-0.016,0.783c0,2.079,0.387,3.353,1.159,3.823c0.262,0.167,0.538,0.25,0.831,0.25
					C371.789,122.566,372.499,122.17,373.272,121.376z"/>
				<path fill="#AFC76F" d="M384.365,109.219c3.436,0.188,5.154,1.916,5.154,5.186v11.123l-3.65,0.063l-0.126-1.489
					c-0.752,0.857-1.749,1.285-2.992,1.285c-0.532,0-1.107-0.083-1.724-0.25c-1.849-0.46-2.772-1.891-2.772-4.293
					c0-0.293,0.016-0.605,0.047-0.94c0.209-2.476,1.969-3.713,5.279-3.713c0.638,0,1.337,0.047,2.1,0.141v-1.817
					c0-1.473-0.465-2.209-1.395-2.209h-0.062c-0.073-0.01-0.141-0.016-0.203-0.016c-1.014,0-1.521,0.825-1.521,2.476V115
					l-3.729-0.314c0-3.645,1.755-5.467,5.265-5.467H384.365z M385.681,121.596v-2.758c-0.449-0.094-0.856-0.141-1.222-0.141
					c-0.951,0-1.599,0.318-1.943,0.955c-0.209,0.387-0.312,0.747-0.312,1.082c0,0.418,0.167,0.788,0.501,1.111
					c0.261,0.251,0.601,0.377,1.019,0.377C384.255,122.223,384.908,122.014,385.681,121.596z"/>
				<path fill="#AFC76F" d="M390.585,120.201l3.588-0.172v0.203c0,1.608,0.496,2.424,1.488,2.444h0.062
					c0.961,0,1.441-0.465,1.441-1.395v-0.11c-0.041-1.023-0.989-1.848-2.843-2.475c-1.854-0.627-2.97-1.682-3.346-3.165
					c-0.136-0.522-0.203-1.023-0.203-1.504c0-0.878,0.225-1.692,0.674-2.444c0.689-1.148,1.733-1.807,3.133-1.975
					c0.376-0.041,0.742-0.062,1.097-0.062c0.93,0,1.75,0.162,2.46,0.486c0.972,0.449,1.646,1.092,2.021,1.927
					c0.25,0.575,0.376,1.212,0.376,1.911c0,0.335-0.026,0.68-0.078,1.035l-3.354,0.078c0.031-0.262,0.047-0.502,0.047-0.721
					c0-1.045-0.334-1.604-1.002-1.677c-0.073-0.011-0.146-0.016-0.22-0.016c-0.689,0-1.154,0.351-1.395,1.05
					c-0.084,0.24-0.125,0.459-0.125,0.658c0,0.49,0.229,0.914,0.689,1.269c0.647,0.501,1.605,1.011,2.875,1.528
					c1.269,0.516,2.123,1.396,2.562,2.639c0.156,0.471,0.234,0.94,0.234,1.41c0,0.795-0.229,1.594-0.688,2.397
					c-0.731,1.284-1.865,2.032-3.4,2.241c-0.334,0.052-0.663,0.078-0.987,0.078c-1.148,0-2.214-0.299-3.195-0.894
					C391.243,124.186,390.606,122.604,390.585,120.201z"/>
				<path fill="#AFC76F" d="M404.513,104.675l3.557-0.235v5.186l2.992-0.078l0.047,2.961l-3.039,0.142v7.129
					c0,1.661,0.705,2.491,2.115,2.491c0.292,0,0.61-0.037,0.955-0.109l-0.141,3.446c-0.501,0.062-0.977,0.094-1.426,0.094
					c-3.301,0-4.982-1.702-5.045-5.107v-7.661l-2.569,0.156l-0.062-3.494l2.632,0.031L404.513,104.675z"/>
				<path fill="#AFC76F" d="M417.502,109.673c3.624,0,5.437,2.407,5.437,7.223c0,0.585-0.026,1.212-0.078,1.88h-7.004
					c0,2.685,0.518,4.026,1.552,4.026h0.109c0.908-0.073,1.363-0.768,1.363-2.083c0-0.283-0.021-0.596-0.063-0.94l3.729-0.079
					c0,3.98-1.739,5.996-5.218,6.049c-0.042,0.01-0.078,0.016-0.109,0.016c-3.312,0-4.967-2.513-4.967-7.537v-0.47
					C412.357,112.367,414.107,109.673,417.502,109.673z M415.48,115.893h3.541v-0.376c0-1.901-0.538-2.852-1.613-2.852
					C416.248,112.665,415.606,113.741,415.48,115.893z"/>
				<path fill="#AFC76F" d="M435.049,109.673c3.624,0,5.437,2.407,5.437,7.223c0,0.585-0.026,1.212-0.078,1.88h-7.004
					c0,2.685,0.518,4.026,1.552,4.026h0.109c0.908-0.073,1.363-0.768,1.363-2.083c0-0.283-0.021-0.596-0.063-0.94l3.729-0.079
					c0,3.98-1.739,5.996-5.218,6.049c-0.042,0.01-0.078,0.016-0.109,0.016c-3.312,0-4.967-2.513-4.967-7.537v-0.47
					C429.904,112.367,431.654,109.673,435.049,109.673z M433.027,115.893h3.541v-0.376c0-1.901-0.538-2.852-1.613-2.852
					C433.795,112.665,433.153,113.741,433.027,115.893z"/>
				<path fill="#AFC76F" d="M444.184,109.344l0.062,2.507c0.563-1.201,1.217-1.948,1.958-2.241c0.439-0.166,0.883-0.25,1.332-0.25
					c0.334,0,0.668,0.042,1.003,0.125c0.814,0.209,1.395,1.045,1.739,2.507c0.271-1.138,0.741-1.897,1.41-2.279
					c0.668-0.382,1.409-0.577,2.225-0.588h0.062c0.794,0,1.556,0.194,2.287,0.58c0.741,0.397,1.309,1.142,1.7,2.232
					c0.392,1.092,0.598,2.588,0.619,4.489v9.102l-3.385,0.079c0.136-3.437,0.204-6.36,0.204-8.774c0-2.412-0.46-3.713-1.379-3.9
					c-0.136-0.021-0.267-0.031-0.392-0.031c-0.731,0-1.295,0.47-1.692,1.41c-0.062,1.086-0.094,2.355-0.094,3.807
					c0,1.975,0.058,4.277,0.172,6.91l-3.916,0.031c0.146-4.043,0.219-6.988,0.219-8.837v-0.188
					c-0.011-1.827-0.371-2.789-1.081-2.883h-0.203c-0.638,0-1.254,0.366-1.849,1.098l0.031,11.468l-3.698,0.142v-2.57
					c0-4.553-0.067-9.102-0.203-13.646L444.184,109.344z"/>
				<path fill="#AFC76F" d="M465.036,109.673c3.551,0,5.327,2.465,5.327,7.395c0,0.198-0.006,0.397-0.016,0.596
					c-0.146,5.337-2.037,8.032-5.672,8.085c-0.042,0.01-0.084,0.016-0.125,0.016c-3.458,0-5.187-2.523-5.187-7.568v-0.438
					C459.469,112.367,461.359,109.673,465.036,109.673z M464.52,113.244c-0.658,0.23-1.107,1.082-1.348,2.555
					c-0.146,0.877-0.22,1.76-0.22,2.647c0,0.595,0.031,1.196,0.095,1.802c0.166,1.504,0.704,2.282,1.613,2.334h0.109
					c0.847,0,1.426-0.559,1.739-1.676c0.261-0.93,0.392-2.031,0.392-3.307c0-0.312-0.005-0.631-0.016-0.955
					c-0.084-1.682-0.334-2.73-0.752-3.148c-0.261-0.252-0.574-0.377-0.94-0.377C464.983,113.119,464.759,113.161,464.52,113.244z"/>
				<path fill="#AFC76F" d="M477.633,119.309l3.729,0.234c0,3.771-1.739,5.682-5.218,5.734c-0.042,0.011-0.078,0.016-0.109,0.016
					c-3.312,0-4.967-2.512-4.967-7.536v-0.47c0.104-5.39,1.87-8.11,5.296-8.163h0.125c3.154,0,4.731,1.808,4.731,5.421
					c0,0.209-0.005,0.418-0.016,0.627l-3.368,0.25v-0.375c0-1.901-0.538-2.852-1.613-2.852c-1.097,0-1.646,1.541-1.646,4.621v0.518
					c0.062,3.332,0.616,4.998,1.661,4.998h0.094c0.908-0.073,1.363-0.768,1.363-2.084
					C477.696,119.967,477.675,119.652,477.633,119.309z"/>
				<path fill="#AFC76F" d="M487.049,106.069c0,0.638-0.225,1.181-0.674,1.63s-0.992,0.673-1.629,0.673
					c-0.627,0-1.165-0.224-1.614-0.673s-0.674-0.992-0.674-1.63c0-0.627,0.225-1.165,0.674-1.614s0.987-0.674,1.614-0.674
					c0.637,0,1.18,0.225,1.629,0.674S487.049,105.442,487.049,106.069z M482.85,125.842c-0.073-6.111-0.109-11.391-0.109-15.84
					l3.948-0.235c-0.125,4.262-0.188,8.497-0.188,12.706c0,1.129,0.006,2.251,0.016,3.369H482.85z"/>
				<path fill="#AFC76F" d="M493.426,109.673c3.551,0,5.327,2.465,5.327,7.395c0,0.198-0.006,0.397-0.016,0.596
					c-0.146,5.337-2.037,8.032-5.672,8.085c-0.042,0.01-0.084,0.016-0.125,0.016c-3.458,0-5.187-2.523-5.187-7.568v-0.438
					C487.858,112.367,489.749,109.673,493.426,109.673z M492.909,113.244c-0.658,0.23-1.107,1.082-1.348,2.555
					c-0.146,0.877-0.22,1.76-0.22,2.647c0,0.595,0.031,1.196,0.095,1.802c0.166,1.504,0.704,2.282,1.613,2.334h0.109
					c0.847,0,1.426-0.559,1.739-1.676c0.261-0.93,0.392-2.031,0.392-3.307c0-0.312-0.005-0.631-0.016-0.955
					c-0.084-1.682-0.334-2.73-0.752-3.148c-0.261-0.252-0.574-0.377-0.94-0.377C493.373,113.119,493.148,113.161,492.909,113.244z"
					/>
				<path fill="#AFC76F" d="M502.497,109.266l0.156,2.553c0.438-1.357,1.593-2.047,3.463-2.067h0.062
					c1.838,0,3.092,0.721,3.76,2.162c0.46,0.981,0.689,3.28,0.689,6.894c0,1.775-0.058,3.875-0.172,6.299h-3.792
					c0.136-3.229,0.204-5.729,0.204-7.506c0-0.887-0.016-1.598-0.047-2.13c-0.104-1.567-0.606-2.351-1.504-2.351
					c-0.898,0-1.463,0.418-1.692,1.254l0.156,11.358l-3.682,0.032c0-4.805-0.162-10.2-0.485-16.186L502.497,109.266z"/>
				<path fill="#AFC76F" d="M517.992,109.219c3.436,0.188,5.154,1.916,5.154,5.186v11.123l-3.65,0.063l-0.126-1.489
					c-0.752,0.857-1.749,1.285-2.992,1.285c-0.532,0-1.107-0.083-1.724-0.25c-1.849-0.46-2.772-1.891-2.772-4.293
					c0-0.293,0.016-0.605,0.047-0.94c0.209-2.476,1.969-3.713,5.279-3.713c0.638,0,1.337,0.047,2.1,0.141v-1.817
					c0-1.473-0.465-2.209-1.395-2.209h-0.062c-0.073-0.01-0.141-0.016-0.203-0.016c-1.014,0-1.521,0.825-1.521,2.476V115
					l-3.729-0.314c0-3.645,1.755-5.467,5.265-5.467H517.992z M519.308,121.596v-2.758c-0.449-0.094-0.856-0.141-1.222-0.141
					c-0.951,0-1.599,0.318-1.943,0.955c-0.209,0.387-0.312,0.747-0.312,1.082c0,0.418,0.167,0.788,0.501,1.111
					c0.261,0.251,0.601,0.377,1.019,0.377C517.882,122.223,518.535,122.014,519.308,121.596z"/>
				<path fill="#AFC76F" d="M528.803,125.496l-3.901,0.361c0.042-3.457,0.062-6.784,0.062-9.98c0-4.491-0.042-8.727-0.125-12.707
					l3.839-0.062c-0.042,2.56-0.063,5.187-0.063,7.881C528.614,115.637,528.678,120.473,528.803,125.496z"/>
			</g>
			
				<line fill="none" stroke="#C1D178" stroke-width="6" stroke-miterlimit="10" stroke-dasharray="12" x1="215.603" y1="139.674" x2="215.603" y2="347.392"/>
			
				<line fill="none" stroke="#C1D178" stroke-width="6" stroke-miterlimit="10" stroke-dasharray="12" x1="224.048" y1="207.418" x2="264.747" y2="207.418"/>
			
				<line fill="none" stroke="#C1D178" stroke-width="6" stroke-miterlimit="10" stroke-dasharray="12" x1="224.048" y1="266.962" x2="264.747" y2="266.962"/>
			
				<line fill="none" stroke="#C1D178" stroke-width="6" stroke-miterlimit="10" stroke-dasharray="12" x1="224.048" y1="343.978" x2="264.747" y2="343.978"/>
		</g>
		<g id="yxP2oj.tif_1_">
			<g>
				<g>
					<path fill-rule="evenodd" clip-rule="evenodd" fill="#AFC76F" d="M120.714,354.365c-0.321-0.044-0.643-0.105-0.963-0.125
						c-7.657-0.439-15.326-0.727-22.969-1.351c-10.453-0.856-20.754-2.679-30.787-5.823c-1.66-0.52-3.28-1.172-4.91-1.785
						c-1.363-0.512-1.959-1.529-1.903-2.975c0.226-5.863,1.296-11.561,3.276-17.091c3.852-10.745,11.217-18.341,21.135-23.665
						c6.191-3.323,12.762-5.747,19.333-8.178c0.69-0.256,1.405-0.468,2.067-0.787c0.583-0.279,0.96-0.141,1.379,0.297
						c2.234,2.336,4.577,4.539,7.287,6.346c10.737,7.156,24.726,4.894,33.174-2.236c1.56-1.316,3.004-2.775,4.527-4.134
						c0.22-0.195,0.659-0.368,0.896-0.281c7.557,2.811,15.225,5.363,22.285,9.359c6.131,3.466,11.562,7.73,15.571,13.618
						c3.796,5.572,5.991,11.79,7.214,18.355c0.502,2.692,0.629,5.455,0.912,8.188c0.033,0.321-0.025,0.648-0.041,0.976
						c-0.051,1.022-0.551,1.645-1.525,2.042c-5.136,2.09-10.427,3.646-15.846,4.775c-7.014,1.467-14.099,2.516-21.244,3.043
						c-7.35,0.541-14.719,0.881-22.077,1.313c-0.323,0.02-0.644,0.077-0.966,0.118C131.265,354.365,125.989,354.365,120.714,354.365
						z"/>
					<path fill-rule="evenodd" clip-rule="evenodd" fill="#AFC76F" d="M139.257,201.386c2.031,0,4.062,0.027,6.093-0.016
						c0.665-0.013,0.958,0.18,1.19,0.831c6.305,17.481,12.637,34.951,18.963,52.423c0.116,0.325,0.213,0.659,0.354,1.106
						c-23.916,0-47.728,0-71.686,0c0.124-0.424,0.201-0.753,0.314-1.067c6.261-17.463,12.529-34.923,18.781-52.389
						c0.186-0.517,0.436-0.745,1.006-0.751c1.719-0.009,3.436-0.076,5.152-0.127c0.439-0.014,0.877-0.046,1.553-0.084
						c-0.488-0.422-0.805-0.701-1.127-0.975c-4.445-3.744-4.414-8.812,0.076-12.462c5.561-4.518,15.963-4.081,20.941,0.884
						c3.133,3.119,3.232,7.291,0.229,10.553c-0.607,0.66-1.307,1.242-1.963,1.86C139.176,201.244,139.214,201.314,139.257,201.386z
						 M130.048,189.023c-0.969,0.107-1.949,0.146-2.9,0.335c-1.934,0.391-3.771,1.028-5.172,2.525
						c-1.439,1.537-1.418,3.46,0.146,4.86c0.669,0.599,1.479,1.09,2.302,1.463c2.26,1.016,4.674,1.271,7.117,1.055
						c2.535-0.227,4.867-0.973,6.59-3.023c1.219-1.449,1.258-2.471,0.076-3.949c-0.257-0.322-0.553-0.621-0.869-0.883
						C135.222,189.668,132.724,189.103,130.048,189.023z"/>
					<path fill-rule="evenodd" clip-rule="evenodd" fill="#AFC76F" d="M94.585,257.104c0.792,0,1.555-0.032,2.312,0.022
						c0.188,0.015,0.477,0.285,0.518,0.479c0.379,1.79,0.721,3.585,1.062,5.381c0.037,0.198,0.006,0.407,0.006,0.834
						c-0.426-0.415-0.742-0.693-1.021-1.007c-1.134-1.273-2.399-1.252-3.327,0.215c-1.338,2.119-1.51,4.434-0.145,6.542
						c1.18,1.823,2.589,3.549,4.148,5.063c1.771,1.723,3.867,3.108,5.721,4.752c0.775,0.683,1.455,1.572,1.902,2.5
						c1.348,2.789,2.841,5.468,5.043,7.68c5.007,5.027,11.051,7.341,18.159,7.274c5.817-0.052,11.015-1.647,15.563-5.27
						c2.95-2.349,5.133-5.317,6.683-8.737c0.767-1.695,1.896-3.032,3.374-4.143c2.895-2.172,5.707-4.445,7.848-7.415
						c0.961-1.33,1.724-2.755,1.926-4.424c0.206-1.669-0.33-3.099-1.439-4.313c-0.735-0.811-1.52-0.863-2.448-0.176
						c-0.585,0.432-1.099,0.956-1.806,1.369c0.576-2.185,1.152-4.371,1.751-6.637c0.733,0,1.438,0.001,2.142-0.002
						c0.463,0,0.648,0.215,0.539,0.676c-0.046,0.202-0.059,0.412-0.102,0.615c-0.316,1.525-0.322,1.531,1.095,2.295
						c1.88,1.013,2.782,2.629,3.05,4.707c0.312,2.459-0.403,4.586-1.816,6.58c-2.121,2.995-4.816,5.383-7.75,7.51
						c-1.754,1.275-2.975,2.89-3.982,4.785c-4.236,7.995-10.785,12.852-19.777,14.275c-6.747,1.068-13.275,0.28-19.264-3.074
						c-4.395-2.469-7.981-5.945-10.285-10.52c-1.141-2.271-2.568-4.185-4.652-5.695c-2.783-2.022-5.355-4.309-7.371-7.144
						c-1.689-2.377-2.484-4.962-1.74-7.87c0.4-1.566,1.277-2.859,2.778-3.491c1.147-0.483,1.509-1.184,1.315-2.335
						C94.529,258.01,94.585,257.592,94.585,257.104z"/>
					<path fill-rule="evenodd" clip-rule="evenodd" fill="#AFC76F" d="M128.507,286.377c2.008,0.316,4.02,0.599,6.016,0.972
						c0.56,0.105,1.086,0.454,1.586,0.754c0.145,0.087,0.256,0.438,0.195,0.606c-0.049,0.142-0.378,0.293-0.557,0.264
						c-0.67-0.103-1.328-0.281-1.986-0.43c-3.494-0.785-6.979-0.77-10.458,0.102c-0.54,0.136-1.091,0.26-1.642,0.33
						c-0.16,0.02-0.436-0.127-0.49-0.264c-0.057-0.138,0.035-0.438,0.16-0.531c0.352-0.259,0.734-0.505,1.14-0.66
						C124.401,286.787,126.413,286.504,128.507,286.377z"/>
					<path fill-rule="evenodd" clip-rule="evenodd" fill="#AFC76F" d="M133.14,278.061c-0.191,0.311-0.308,0.768-0.582,0.904
						c-2.48,1.25-5,1.172-7.508,0.055c-0.465-0.208-0.762-0.557-0.521-1.129C127.321,279.68,130.109,279.555,133.14,278.061z"/>
				</g>
			</g>
		</g>
	</g>
</g>
<g>
	<rect x="594.078" y="144.631" fill-rule="evenodd" clip-rule="evenodd" fill="#5B4B8A" width="619.194" height="313.779"/>
	<g>
		<g>
			<g>
				
					<line fill="none" stroke="#7AADBE" stroke-width="6" stroke-miterlimit="10" stroke-dasharray="12" x1="731.358" y1="195.135" x2="731.358" y2="439.939"/>
			</g>
			<g>
				
					<line fill="none" stroke="#7AADBE" stroke-width="6" stroke-miterlimit="10" stroke-dasharray="12" x1="737.56" y1="270.791" x2="762.548" y2="270.791"/>
			</g>
			<g>
				
					<line fill="none" stroke="#7AADBE" stroke-width="6" stroke-miterlimit="10" stroke-dasharray="12" x1="737.56" y1="305.709" x2="762.548" y2="305.709"/>
			</g>
			<g>
				
					<line fill="none" stroke="#7AADBE" stroke-width="6" stroke-miterlimit="10" stroke-dasharray="12" x1="737.56" y1="346.947" x2="762.548" y2="346.947"/>
			</g>
			<g>
				
					<line fill="none" stroke="#7AADBE" stroke-width="6" stroke-miterlimit="10" stroke-dasharray="12" x1="737.56" y1="388.85" x2="762.548" y2="388.85"/>
			</g>
		</g>
	</g>
	<g>
		<path fill="#7FB8CA" d="M731.917,159.031l3.688,16.402l2.707-15.199l7.22,0.08c-0.127,3.43-0.19,6.892-0.19,10.385
			c0,3.895,0.079,7.837,0.237,11.826l-4.606,0.316c0-4.2-0.048-9.335-0.143-15.404l-2.581,13.916l-4.907,0.333l-3.166-15.009
			l-0.063,15.199l-3.863,0.269c0.074-3.472,0.111-6.919,0.111-10.338c0-4.265-0.059-8.476-0.175-12.634L731.917,159.031z"/>
		<path fill="#7FB8CA" d="M753.099,165.791c3.473,0.19,5.209,1.938,5.209,5.24v11.24l-3.688,0.064l-0.127-1.504
			c-0.76,0.865-1.768,1.298-3.023,1.298c-0.539,0-1.119-0.085-1.742-0.253c-1.868-0.465-2.802-1.91-2.802-4.338
			c0-0.296,0.016-0.612,0.047-0.95c0.212-2.501,1.99-3.753,5.336-3.753c0.644,0,1.351,0.049,2.121,0.143v-1.836
			c0-1.488-0.47-2.232-1.409-2.232h-0.063c-0.073-0.01-0.142-0.016-0.205-0.016c-1.024,0-1.536,0.834-1.536,2.502v0.236
			l-3.768-0.316c0-3.684,1.773-5.525,5.319-5.525H753.099z M754.429,178.299v-2.787c-0.454-0.095-0.865-0.143-1.234-0.143
			c-0.961,0-1.615,0.322-1.964,0.967c-0.211,0.391-0.316,0.754-0.316,1.092c0,0.422,0.169,0.797,0.507,1.124
			c0.264,0.253,0.606,0.38,1.029,0.38C752.988,178.932,753.647,178.721,754.429,178.299z"/>
		<path fill="#7FB8CA" d="M762.487,165.839l0.159,2.581c0.442-1.372,1.609-2.068,3.498-2.09h0.063c1.857,0,3.124,0.729,3.8,2.185
			c0.464,0.992,0.696,3.313,0.696,6.966c0,1.795-0.058,3.916-0.174,6.364h-3.831c0.137-3.261,0.205-5.789,0.205-7.583
			c0-0.897-0.016-1.615-0.047-2.153c-0.105-1.583-0.612-2.375-1.521-2.375c-0.907,0-1.478,0.423-1.709,1.267l0.158,11.479
			l-3.721,0.031c0-4.855-0.164-10.307-0.491-16.354L762.487,165.839z"/>
		<path fill="#7FB8CA" d="M776.451,162.609c0,0.645-0.228,1.193-0.681,1.646c-0.454,0.454-1.003,0.681-1.646,0.681
			c-0.634,0-1.178-0.227-1.631-0.681c-0.454-0.453-0.681-1.002-0.681-1.646c0-0.633,0.227-1.177,0.681-1.631
			c0.453-0.453,0.997-0.681,1.631-0.681c0.644,0,1.192,0.228,1.646,0.681C776.224,161.433,776.451,161.977,776.451,162.609z
			 M772.208,182.589c-0.074-6.175-0.11-11.51-0.11-16.006l3.989-0.237c-0.127,4.307-0.19,8.586-0.19,12.84
			c0,1.139,0.006,2.273,0.017,3.403H772.208z"/>
		<path fill="#7FB8CA" d="M779.633,166.82c-0.021-0.285-0.031-0.574-0.031-0.871c0-0.991,0.101-2.01,0.301-3.055
			c0.242-1.361,0.981-2.449,2.217-3.262c0.918-0.611,2.079-0.918,3.482-0.918c0.465,0,0.96,0.037,1.488,0.111l-0.031,3.467
			c-0.317-0.043-0.612-0.063-0.887-0.063c-0.876,0-1.521,0.216-1.932,0.649c-0.454,0.453-0.681,1.34-0.681,2.659
			c0,0.317,0.016,0.665,0.047,1.045l3.389-0.048v3.215l-3.483,0.221c0.085,3.463,0.127,6.734,0.127,9.816
			c0,0.928-0.006,1.836-0.016,2.723l-4.021,0.174c0.031-3.514,0.084-7.673,0.158-12.475l-2.564,0.126l-0.063-3.403L779.633,166.82z"
			/>
		<path fill="#7FB8CA" d="M793.533,166.25c3.662,0,5.494,2.434,5.494,7.299c0,0.592-0.026,1.225-0.079,1.9h-7.077
			c0,2.713,0.522,4.068,1.567,4.068h0.11c0.919-0.074,1.378-0.775,1.378-2.105c0-0.285-0.021-0.602-0.063-0.95l3.768-0.079
			c0,4.021-1.757,6.059-5.271,6.111c-0.042,0.01-0.079,0.016-0.111,0.016c-3.346,0-5.019-2.538-5.019-7.615v-0.475
			C788.335,168.974,790.104,166.25,793.533,166.25z M791.491,172.535h3.578v-0.379c0-1.922-0.544-2.882-1.631-2.882
			C792.267,169.274,791.618,170.361,791.491,172.535z"/>
		<path fill="#7FB8CA" d="M800.024,176.89l3.625-0.175v0.206c0,1.626,0.502,2.448,1.504,2.47h0.063c0.972,0,1.457-0.469,1.457-1.408
			v-0.111c-0.043-1.034-1-1.868-2.874-2.502c-1.873-0.633-3-1.699-3.38-3.197c-0.137-0.527-0.206-1.035-0.206-1.52
			c0-0.887,0.228-1.711,0.682-2.471c0.696-1.16,1.751-1.825,3.166-1.994c0.38-0.043,0.749-0.063,1.108-0.063
			c0.938,0,1.768,0.163,2.485,0.491c0.981,0.453,1.662,1.103,2.042,1.947c0.254,0.58,0.38,1.225,0.38,1.932
			c0,0.338-0.026,0.686-0.079,1.045l-3.388,0.078c0.031-0.264,0.048-0.506,0.048-0.729c0-1.055-0.338-1.619-1.014-1.693
			c-0.074-0.01-0.147-0.016-0.222-0.016c-0.696,0-1.166,0.354-1.409,1.061c-0.084,0.242-0.126,0.465-0.126,0.665
			c0,0.496,0.231,0.923,0.696,1.282c0.654,0.507,1.623,1.021,2.905,1.543c1.282,0.523,2.145,1.412,2.588,2.668
			c0.158,0.475,0.237,0.95,0.237,1.426c0,0.802-0.231,1.609-0.696,2.422c-0.738,1.298-1.884,2.053-3.436,2.264
			c-0.338,0.053-0.67,0.079-0.997,0.079c-1.161,0-2.238-0.301-3.229-0.902C800.689,180.916,800.045,179.317,800.024,176.89z"/>
		<path fill="#7FB8CA" d="M814.099,161.2l3.594-0.237v5.24l3.023-0.079l0.048,2.992l-3.071,0.143v7.203
			c0,1.679,0.712,2.517,2.137,2.517c0.296,0,0.618-0.036,0.966-0.109l-0.143,3.482c-0.506,0.062-0.986,0.095-1.44,0.095
			c-3.335,0-5.034-1.72-5.098-5.161v-7.742l-2.597,0.159l-0.063-3.53l2.66,0.031L814.099,161.2z"/>
		<path fill="#7FB8CA" d="M828.204,165.791c3.473,0.19,5.209,1.938,5.209,5.24v11.24l-3.688,0.064l-0.127-1.504
			c-0.76,0.865-1.768,1.298-3.023,1.298c-0.539,0-1.119-0.085-1.742-0.253c-1.868-0.465-2.802-1.91-2.802-4.338
			c0-0.296,0.016-0.612,0.047-0.95c0.212-2.501,1.99-3.753,5.336-3.753c0.644,0,1.351,0.049,2.121,0.143v-1.836
			c0-1.488-0.47-2.232-1.409-2.232h-0.063c-0.073-0.01-0.142-0.016-0.205-0.016c-1.024,0-1.536,0.834-1.536,2.502v0.236
			l-3.768-0.316c0-3.684,1.773-5.525,5.319-5.525H828.204z M829.534,178.299v-2.787c-0.454-0.095-0.865-0.143-1.234-0.143
			c-0.961,0-1.615,0.322-1.964,0.967c-0.211,0.391-0.316,0.754-0.316,1.092c0,0.422,0.169,0.797,0.507,1.124
			c0.264,0.253,0.606,0.38,1.029,0.38C828.094,178.932,828.753,178.721,829.534,178.299z"/>
		<path fill="#7FB8CA" d="M841.154,175.987l3.768,0.237c0,3.811-1.757,5.742-5.271,5.795c-0.042,0.01-0.079,0.016-0.111,0.016
			c-3.346,0-5.019-2.539-5.019-7.615v-0.475c0.105-5.447,1.89-8.195,5.352-8.248h0.127c3.187,0,4.78,1.825,4.78,5.477
			c0,0.212-0.005,0.423-0.016,0.634l-3.403,0.253v-0.38c0-1.921-0.544-2.882-1.631-2.882c-1.108,0-1.662,1.558-1.662,4.671v0.522
			c0.063,3.367,0.622,5.051,1.678,5.051h0.095c0.919-0.074,1.378-0.776,1.378-2.105
			C841.218,176.652,841.196,176.336,841.154,175.987z"/>
		<path fill="#7FB8CA" d="M850.67,162.609c0,0.645-0.228,1.193-0.681,1.646c-0.454,0.454-1.003,0.681-1.646,0.681
			c-0.634,0-1.178-0.227-1.631-0.681c-0.454-0.453-0.681-1.002-0.681-1.646c0-0.633,0.227-1.177,0.681-1.631
			c0.453-0.453,0.997-0.681,1.631-0.681c0.644,0,1.192,0.228,1.646,0.681C850.442,161.433,850.67,161.977,850.67,162.609z
			 M846.427,182.589c-0.074-6.175-0.11-11.51-0.11-16.006l3.989-0.237c-0.127,4.307-0.19,8.586-0.19,12.84
			c0,1.139,0.006,2.273,0.017,3.403H846.427z"/>
		<path fill="#7FB8CA" d="M857.113,166.25c3.588,0,5.383,2.492,5.383,7.473c0,0.201-0.006,0.402-0.016,0.602
			c-0.148,5.395-2.059,8.117-5.731,8.17c-0.042,0.01-0.085,0.016-0.127,0.016c-3.493,0-5.24-2.549-5.24-7.646v-0.443
			C851.487,168.974,853.398,166.25,857.113,166.25z M856.591,169.86c-0.665,0.231-1.119,1.093-1.361,2.581
			c-0.148,0.886-0.222,1.777-0.222,2.675c0,0.602,0.031,1.209,0.095,1.821c0.169,1.52,0.713,2.306,1.631,2.358h0.11
			c0.855,0,1.441-0.564,1.758-1.694c0.264-0.939,0.396-2.053,0.396-3.34c0-0.316-0.005-0.639-0.016-0.966
			c-0.085-1.699-0.338-2.761-0.76-3.183c-0.265-0.253-0.581-0.38-0.95-0.38C857.061,169.733,856.833,169.775,856.591,169.86z"/>
		<path fill="#7FB8CA" d="M866.279,165.839l0.159,2.581c0.442-1.372,1.609-2.068,3.498-2.09H870c1.857,0,3.124,0.729,3.8,2.185
			c0.464,0.992,0.696,3.313,0.696,6.966c0,1.795-0.058,3.916-0.174,6.364h-3.831c0.137-3.261,0.205-5.789,0.205-7.583
			c0-0.897-0.016-1.615-0.047-2.153c-0.105-1.583-0.612-2.375-1.521-2.375c-0.907,0-1.478,0.423-1.709,1.267l0.158,11.479
			l-3.721,0.031c0-4.855-0.164-10.307-0.491-16.354L866.279,165.839z"/>
		<path fill="#7FB8CA" d="M880.955,166.25c3.662,0,5.494,2.434,5.494,7.299c0,0.592-0.026,1.225-0.079,1.9h-7.077
			c0,2.713,0.522,4.068,1.567,4.068h0.11c0.919-0.074,1.378-0.775,1.378-2.105c0-0.285-0.021-0.602-0.063-0.95l3.768-0.079
			c0,4.021-1.757,6.059-5.271,6.111c-0.042,0.01-0.079,0.016-0.111,0.016c-3.346,0-5.019-2.538-5.019-7.615v-0.475
			C875.757,168.974,877.525,166.25,880.955,166.25z M878.913,172.535h3.578v-0.379c0-1.922-0.544-2.882-1.631-2.882
			C879.688,169.274,879.04,170.361,878.913,172.535z"/>
		<path fill="#7FB8CA" d="M887.446,176.89l3.625-0.175v0.206c0,1.626,0.502,2.448,1.504,2.47h0.063c0.972,0,1.457-0.469,1.457-1.408
			v-0.111c-0.043-1.034-1-1.868-2.874-2.502c-1.873-0.633-3-1.699-3.38-3.197c-0.137-0.527-0.206-1.035-0.206-1.52
			c0-0.887,0.228-1.711,0.682-2.471c0.696-1.16,1.751-1.825,3.166-1.994c0.38-0.043,0.749-0.063,1.108-0.063
			c0.938,0,1.768,0.163,2.485,0.491c0.981,0.453,1.662,1.103,2.042,1.947c0.254,0.58,0.38,1.225,0.38,1.932
			c0,0.338-0.026,0.686-0.079,1.045l-3.388,0.078c0.031-0.264,0.048-0.506,0.048-0.729c0-1.055-0.338-1.619-1.014-1.693
			c-0.074-0.01-0.147-0.016-0.222-0.016c-0.696,0-1.166,0.354-1.409,1.061c-0.084,0.242-0.126,0.465-0.126,0.665
			c0,0.496,0.231,0.923,0.696,1.282c0.654,0.507,1.623,1.021,2.905,1.543c1.282,0.523,2.145,1.412,2.588,2.668
			c0.158,0.475,0.237,0.95,0.237,1.426c0,0.802-0.231,1.609-0.696,2.422c-0.738,1.298-1.884,2.053-3.436,2.264
			c-0.338,0.053-0.67,0.079-0.997,0.079c-1.161,0-2.238-0.301-3.229-0.902C888.111,180.916,887.467,179.317,887.446,176.89z"/>
		<path fill="#7FB8CA" d="M916.75,160.107c-0.062,3.568-0.095,7.31-0.095,11.225c0,3.568,0.026,7.283,0.079,11.146l-3.752,0.016
			l-0.127-2.422c-0.781,1.171-1.82,1.757-3.118,1.757c-3.24,0-4.86-2.48-4.86-7.44c0-0.105,0.005-0.211,0.016-0.317
			c0.063-4.972,1.667-7.456,4.812-7.456c0.127,0,0.259,0.005,0.396,0.016c1.076,0.062,1.947,0.648,2.611,1.757
			c0-2.343-0.058-5.103-0.174-8.28H916.75z M912.793,176.826l-0.08-5.478c-0.611-0.834-1.24-1.251-1.884-1.251
			c-0.264,0-0.527,0.068-0.791,0.206c-0.834,0.433-1.251,1.646-1.251,3.642c0,0.232,0.005,0.469,0.016,0.712
			c0.105,2.417,0.644,3.694,1.615,3.831c0.095,0.011,0.189,0.016,0.285,0.016C911.547,178.504,912.243,177.945,912.793,176.826z"/>
		<path fill="#7FB8CA" d="M923.146,166.25c3.662,0,5.494,2.434,5.494,7.299c0,0.592-0.026,1.225-0.079,1.9h-7.077
			c0,2.713,0.522,4.068,1.567,4.068h0.11c0.919-0.074,1.378-0.775,1.378-2.105c0-0.285-0.021-0.602-0.063-0.95l3.768-0.079
			c0,4.021-1.757,6.059-5.271,6.111c-0.042,0.01-0.079,0.016-0.111,0.016c-3.346,0-5.019-2.538-5.019-7.615v-0.475
			C917.948,168.974,919.717,166.25,923.146,166.25z M921.104,172.535h3.578v-0.379c0-1.922-0.544-2.882-1.631-2.882
			C921.88,169.274,921.231,170.361,921.104,172.535z"/>
		<path fill="#7FB8CA" d="M940.878,166.25c3.662,0,5.494,2.434,5.494,7.299c0,0.592-0.026,1.225-0.079,1.9h-7.077
			c0,2.713,0.522,4.068,1.567,4.068h0.11c0.919-0.074,1.378-0.775,1.378-2.105c0-0.285-0.021-0.602-0.063-0.95l3.768-0.079
			c0,4.021-1.757,6.059-5.271,6.111c-0.042,0.01-0.079,0.016-0.111,0.016c-3.346,0-5.019-2.538-5.019-7.615v-0.475
			C935.68,168.974,937.448,166.25,940.878,166.25z M938.836,172.535h3.578v-0.379c0-1.922-0.544-2.882-1.631-2.882
			C939.611,169.274,938.963,170.361,938.836,172.535z"/>
		<path fill="#7FB8CA" d="M947.369,176.89l3.625-0.175v0.206c0,1.626,0.502,2.448,1.504,2.47h0.063c0.972,0,1.457-0.469,1.457-1.408
			v-0.111c-0.043-1.034-1-1.868-2.874-2.502c-1.873-0.633-3-1.699-3.38-3.197c-0.137-0.527-0.206-1.035-0.206-1.52
			c0-0.887,0.228-1.711,0.682-2.471c0.696-1.16,1.751-1.825,3.166-1.994c0.38-0.043,0.749-0.063,1.108-0.063
			c0.938,0,1.768,0.163,2.485,0.491c0.981,0.453,1.662,1.103,2.042,1.947c0.254,0.58,0.38,1.225,0.38,1.932
			c0,0.338-0.026,0.686-0.079,1.045l-3.388,0.078c0.031-0.264,0.048-0.506,0.048-0.729c0-1.055-0.338-1.619-1.014-1.693
			c-0.074-0.01-0.147-0.016-0.222-0.016c-0.696,0-1.166,0.354-1.409,1.061c-0.084,0.242-0.126,0.465-0.126,0.665
			c0,0.496,0.231,0.923,0.696,1.282c0.654,0.507,1.623,1.021,2.905,1.543c1.282,0.523,2.145,1.412,2.588,2.668
			c0.158,0.475,0.237,0.95,0.237,1.426c0,0.802-0.231,1.609-0.696,2.422c-0.738,1.298-1.884,2.053-3.436,2.264
			c-0.338,0.053-0.67,0.079-0.997,0.079c-1.161,0-2.238-0.301-3.229-0.902C948.034,180.916,947.39,179.317,947.369,176.89z"/>
		<path fill="#7FB8CA" d="M961.443,161.2l3.594-0.237v5.24l3.023-0.079l0.048,2.992l-3.071,0.143v7.203
			c0,1.679,0.712,2.517,2.137,2.517c0.296,0,0.618-0.036,0.966-0.109l-0.143,3.482c-0.506,0.062-0.986,0.095-1.44,0.095
			c-3.335,0-5.034-1.72-5.098-5.161v-7.742l-2.597,0.159l-0.063-3.53l2.66,0.031L961.443,161.2z"/>
		<path fill="#7FB8CA" d="M973.634,171.158l0.158,11.479l-3.879,0.031c0-4.855-0.164-10.307-0.491-16.354l2.913-0.316l0.159,2.58
			c0.442-1.267,1.477-1.99,3.103-2.169c0.242-0.021,0.475-0.032,0.696-0.032c1.277,0,2.248,0.418,2.913,1.251
			c0.771,0.992,1.161,2.57,1.172,4.733l-3.515,0.349c0.011-0.179,0.016-0.354,0.016-0.522c0-1.688-0.438-2.533-1.313-2.533h-0.063
			C974.488,169.707,973.865,170.209,973.634,171.158z"/>
		<path fill="#7FB8CA" d="M986.584,166.25c3.662,0,5.494,2.434,5.494,7.299c0,0.592-0.026,1.225-0.079,1.9h-7.077
			c0,2.713,0.522,4.068,1.567,4.068h0.11c0.919-0.074,1.378-0.775,1.378-2.105c0-0.285-0.021-0.602-0.063-0.95l3.768-0.079
			c0,4.021-1.757,6.059-5.271,6.111c-0.042,0.01-0.079,0.016-0.111,0.016c-3.346,0-5.019-2.538-5.019-7.615v-0.475
			C981.386,168.974,983.154,166.25,986.584,166.25z M984.542,172.535h3.578v-0.379c0-1.922-0.544-2.882-1.631-2.882
			C985.317,169.274,984.669,170.361,984.542,172.535z M984.795,163.164c1.235-1.467,2.248-2.866,3.04-4.195l2.597,2.058
			c-1.119,1.098-2.364,2.443-3.736,4.037L984.795,163.164z"/>
		<path fill="#7FB8CA" d="M993.075,176.89l3.625-0.175v0.206c0,1.626,0.502,2.448,1.504,2.47h0.063c0.972,0,1.457-0.469,1.457-1.408
			v-0.111c-0.043-1.034-1-1.868-2.874-2.502c-1.873-0.633-3-1.699-3.38-3.197c-0.137-0.527-0.206-1.035-0.206-1.52
			c0-0.887,0.228-1.711,0.682-2.471c0.696-1.16,1.751-1.825,3.166-1.994c0.38-0.043,0.749-0.063,1.108-0.063
			c0.938,0,1.768,0.163,2.485,0.491c0.981,0.453,1.662,1.103,2.042,1.947c0.254,0.58,0.38,1.225,0.38,1.932
			c0,0.338-0.026,0.686-0.079,1.045l-3.388,0.078c0.031-0.264,0.048-0.506,0.048-0.729c0-1.055-0.338-1.619-1.014-1.693
			c-0.074-0.01-0.147-0.016-0.222-0.016c-0.696,0-1.166,0.354-1.409,1.061c-0.084,0.242-0.126,0.465-0.126,0.665
			c0,0.496,0.231,0.923,0.696,1.282c0.654,0.507,1.623,1.021,2.905,1.543c1.282,0.523,2.145,1.412,2.588,2.668
			c0.158,0.475,0.237,0.95,0.237,1.426c0,0.802-0.231,1.609-0.696,2.422c-0.738,1.298-1.884,2.053-3.436,2.264
			c-0.338,0.053-0.67,0.079-0.997,0.079c-1.161,0-2.238-0.301-3.229-0.902C993.74,180.916,993.096,179.317,993.075,176.89z"/>
	</g>
	<g id="YuasGz.tif_1_">
		<g>
			<g>
				<path fill-rule="evenodd" clip-rule="evenodd" fill="#7FB8CA" d="M605.485,353.295c-0.225-1.801-0.482-3.6-0.666-5.408
					c-2.041-20.137,7.459-38.67,25.646-47.664c28.998-14.338,56.545,2.773,65.286,24.246c8.854,21.75,0.399,49.066-23.644,60.9
					c-20.891,10.285-48.738,2.057-60.561-18.08c-0.736-1.254-1.576-2.447-2.371-3.666
					C607.946,360.18,606.716,356.736,605.485,353.295z M670.19,326.127c-1.832-2.074-3.355-4.473-5.488-6.047
					c-2.994-2.213-6.447-0.695-7.611,2.869c-1.457,4.465,1.1,11.85,5.003,14.441c3.214,2.133,7.243,0.818,7.974-2.943
					C670.562,331.898,670.179,329.18,670.19,326.127z M628.956,341.096c1.824,2.197,3.336,4.799,5.549,6.475
					c2.789,2.107,6.371,0.498,7.48-2.807c1.427-4.246-1.215-11.994-4.928-14.447c-3.404-2.248-7.25-1.014-8.115,2.977
					C628.437,335.623,628.911,338.166,628.956,341.096z M686.833,357.568c-0.869-1.635-1.648-1.672-3.118-0.695
					c-0.923,0.609-2.513,0.508-3.729,0.295c-0.959-0.166-1.777-1.039-2.703-1.516c-3.123-1.609-6.178-0.508-7.363,2.74
					c-0.533,1.457-0.8,3.014-1.152,4.535c-0.824,3.594-2.664,4.568-6.104,3.148c-2.329-0.961-4.563-2.186-6.947-2.955
					c-3.851-1.244-6.22,0.248-7.106,4.188c-0.266,1.182-0.348,2.416-0.694,3.574c-0.662,2.197-1.825,2.531-3.655,1.166
					c-5.249-3.906-5.289-3.936-8.891,1.328c-0.537,0.789-0.479,1.99-0.693,3.002c0.354,0.162,0.707,0.32,1.058,0.482
					c1.354-1.574,2.708-3.15,4.165-4.846c0.879,0.746,1.744,1.582,2.703,2.291c3.387,2.5,6.686,1.418,7.885-2.605
					c0.371-1.24,0.527-2.547,0.777-3.824c0.435-2.209,1.76-2.924,3.799-2.1c2.332,0.943,4.537,2.309,6.938,2.941
					c1.8,0.473,3.979,0.541,5.718-0.033c3.037-1.006,3.516-3.998,4.041-6.775c0.9-4.783,1.951-5.266,5.932-2.783
					C681.606,361.568,683.578,361.262,686.833,357.568z"/>
				<path fill-rule="evenodd" clip-rule="evenodd" fill="#7FB8CA" d="M688.198,245.018c2.566-0.252,5.131-0.502,8.01-0.783
					c-0.713-1.994-1.361-3.807-2.268-6.34c2.27,1.342,3.938,2.203,5.461,3.27c1.167,0.82,1.978,0.629,2.936-0.289
					c1.545-1.471,3.186-2.84,5.371-4.766c-0.346,2.764-0.474,4.809-0.885,6.793c-0.365,1.775,0.061,2.932,1.67,3.836
					c1.27,0.715,2.379,1.713,3.471,3.184c-1.793-0.055-3.582-0.105-5.625-0.166c0,1.775,0.002,3.43,0.002,5.08
					c-0.156,0.039-0.316,0.074-0.473,0.111c-1.007-1.648-2.013-3.297-3.02-4.943c-0.193,0.025-0.389,0.049-0.582,0.072
					c-0.064,1.922-0.257,3.852-0.165,5.766c0.276,5.725-2.156,9.941-7.064,12.686c-4.913,2.746-9.647,2.1-14.249-1.006
					c-3.447-2.326-5.588-2.295-8.75,0.396c-1.886,1.605-3.469,3.641-4.889,5.688c-0.979,1.412-1.797,2.016-3.299,0.928
					c0.959-5.193,7.626-11.453,12.711-11.375c2.023,0.029,4.252,0.986,5.991,2.123c3.534,2.32,7.079,2.99,10.806,0.949
					c3.859-2.111,6.08-5.336,5.888-9.965c-0.085-2.062,0.054-4.137,0.097-6.326c-0.906-0.154-1.743-0.297-2.814-0.48
					c0.615-0.641,1.119-1.166,1.875-1.953c-3.543-0.709-6.894-1.375-10.246-2.041C688.17,245.314,688.184,245.166,688.198,245.018z"
					/>
				<path fill-rule="evenodd" clip-rule="evenodd" fill="#7FB8CA" d="M675.593,297.705c-8.879-4.793-17.723-6.432-27.5-5.133
					c1.789-4.553,3.322-8.598,4.998-12.58c0.234-0.559,1.128-1.033,1.799-1.189c6.57-1.52,12.807-0.605,18.522,2.996
					c0.919,0.582,1.813,1.949,1.888,3.01C675.578,288.895,675.518,293,675.593,297.705z M652.823,288.48
					c6.748,1.277,13.248,2.51,19.883,3.766c-0.009-1.514-0.078-3.314-0.021-5.115c0.062-1.98-0.762-3.154-2.601-4.016
					c-4.167-1.953-8.485-2.482-12.974-1.863c-0.662,0.09-1.541,0.613-1.812,1.18C654.308,284.518,653.528,286.705,652.823,288.48z"
					/>
			</g>
		</g>
	</g>
</g>
</svg>
