<?xml version="1.0" encoding="utf-8"?>
<!-- Generator: Adobe Illustrator 16.0.0, SVG Export Plug-In . SVG Version: 6.00 Build 0)  -->
<!DOCTYPE svg PUBLIC "-//W3C//DTD SVG 1.1//EN" "http://www.w3.org/Graphics/SVG/1.1/DTD/svg11.dtd">
<svg version="1.1" id="Capa_1" xmlns="http://www.w3.org/2000/svg" xmlns:xlink="http://www.w3.org/1999/xlink" x="0px" y="0px"
	 width="105.208px" height="142.65px" viewBox="0 0 105.208 142.65" enable-background="new 0 0 105.208 142.65"
	 xml:space="preserve">
<g id="iFNEHw.tif">
	<g>
		<path fill-rule="evenodd" clip-rule="evenodd" fill="#FFFFFF" d="M85.427,142.65c2.752-0.981,4.907-2.593,5.657-5.581
			c0.188-0.751,0.223-1.557,0.223-2.338c0.012-24.182,0.01-48.363,0.007-72.544c0-0.366-0.034-0.733-0.063-1.3
			c-8.294,3.134-16.832,4.899-25.592,6.373c0.518,2.596,1.056,5.106,1.512,7.633c0.55,3.052,1.106,6.106,1.519,9.178
			c0.501,3.732-1.577,6.29-4.898,6.22c-2.071-0.043-3.956-1.486-4.539-3.483c-0.127-0.438-0.224-0.886-0.544-1.319
			c0,2.363,0,4.727,0,7.09c0.003,13.507,0.104,27.014-0.048,40.52c-0.052,4.612,1.429,7.893,5.869,9.553c1.115,0,2.229,0,3.345,0
			c4.384-1.61,5.925-4.791,5.889-9.381c-0.141-16.844-0.056-33.688-0.056-50.531c0-0.543,0-1.086,0-1.644c0.973,0,1.78,0,2.72,0
			c0,3.985,0,7.872,0,11.761c0.001,13.875,0.013,27.749-0.005,41.623c-0.004,2.01,0.229,4.006,1.729,5.397
			c1.217,1.128,2.794,1.864,4.21,2.774C83.383,142.65,84.404,142.65,85.427,142.65z"/>
		<path fill-rule="evenodd" clip-rule="evenodd" fill="#FFFFFF" d="M105.208,44.855c-0.499-2.944-1.575-5.625-3.772-7.719
			c-4.285-4.086-9.363-6.58-15.312-6.681c-9.331-0.162-18.665-0.116-27.996-0.024c-3.191,0.03-6.38,0.462-9.736,0.724
			c0.305,3.366-0.381,6.439-1.993,9.683c4.237-0.244,8.179-0.471,12.316-0.71c0,2.317-0.046,4.576,0.026,6.829
			c0.022,0.751,0.259,1.532,0.561,2.23c0.791,1.822,1.635,3.626,2.545,5.392c0.191,0.367,0.812,0.812,1.154,0.754
			c8.081-1.366,16.136-2.867,23.822-5.844c4.451-1.723,4.444-1.743,4.494-6.419c0.005-0.366,0.002-0.732,0.002-1.357
			c1.59,0.775,2.906,1.598,3.727,2.968c0.205,0.345,0.015,1.243-0.309,1.53c-1.066,0.945-2.201,1.867-3.447,2.546
			c-5.172,2.814-10.816,4.312-16.516,5.565c-4.201,0.926-8.45,1.637-12.674,2.471c-2.769,0.548-4.557,2.854-4.191,5.341
			c0.401,2.728,2.603,4.595,5.438,4.167c10.774-1.623,21.468-3.626,31.392-8.405c1.824-0.878,3.538-2.035,5.17-3.243
			c3-2.223,4.757-5.25,5.3-8.961C105.208,45.412,105.208,45.133,105.208,44.855z"/>
		<path fill-rule="evenodd" clip-rule="evenodd" fill="#FFFFFF" d="M22.457,142.65c3.268-1.064,4.846-3.29,4.837-6.751
			c-0.004-1.755,0.194-3.518,0.397-5.265c0.629-5.427,1.308-10.849,1.96-16.272c0.053-0.451,0.053-0.907,0.085-1.509
			c-3.858,0.327-7.537-0.108-11.184-1.901c-0.264,1.573-0.589,3.039-0.746,4.521c-0.695,6.542-1.451,13.077-1.973,19.632
			c-0.357,4.491,0.61,5.809,4.674,7.545C21.156,142.65,21.809,142.65,22.457,142.65z"/>
		<path fill-rule="evenodd" clip-rule="evenodd" fill="#FFFFFF" d="M51.434,142.65c0.462-0.188,0.94-0.349,1.387-0.568
			c2.134-1.057,3.482-2.753,3.34-5.161c-0.313-5.179-0.75-10.35-1.257-15.513c-0.298-3.037-0.825-6.052-1.251-9.076
			c-0.059-0.401-0.14-0.802-0.237-1.349c-3.575,1.675-7.222,2.251-11.243,1.831c0.162,1.279,0.323,2.44,0.451,3.605
			c0.627,5.751,1.249,11.504,1.856,17.258c0.143,1.337,0.135,2.692,0.339,4.018c0.414,2.688,2.244,4.116,4.666,4.955
			C50.133,142.65,50.783,142.65,51.434,142.65z"/>
		<path fill-rule="evenodd" clip-rule="evenodd" fill="#FFFFFF" d="M23.986,37.737c-4.934,1.992-9.83,4.308-14.309,7.358
			c-3.178,2.166-2.481,6.862,1.069,8.341c0.292,0.12,0.587,0.228,0.834,0.323c-1.07,3.505-2.315,6.896-3.121,10.389
			c-1.33,5.767-2.403,11.595-3.521,17.407c-0.227,1.168-0.5,2.058-1.635,2.782c-2.372,1.52-3.298,3.931-3.301,6.689
			C-0.003,107.23,0,123.432,0.011,139.633c0,1.625,0.716,2.479,1.98,2.505c1.327,0.024,2.063-0.853,2.063-2.54
			c0.005-16.107,0.008-32.217-0.01-48.325c0-1.252,0.212-2.372,1.188-3.363c1.685,1.372,3.427,1.644,5.47,0.044
			c0.316,1.011,0.622,1.793,0.801,2.604c0.312,1.432,0.982,2.077,2.199,1.986c1.18-0.088,1.813-0.901,1.781-2.353
			c-0.047-2.167-0.934-3.986-2.568-5.346c-0.781-0.649-0.969-1.227-0.808-2.196c1.42-8.589,2.92-17.161,6.144-25.306
			c0.745-1.883,1.812-3.641,2.765-5.437c0.226-0.426,0.595-0.774,1.083-1.395c-0.204,3.688-0.435,7.039-0.569,10.393
			c-0.19,4.916-0.334,9.834-0.42,14.752c-0.007,0.433,0.449,1.101,0.859,1.281c9.22,4.106,18.478,4.076,27.772,0.199
			c0.953-0.397,1.188-0.938,1.143-1.883c-0.379-8.062-0.726-16.127-1.081-24.19c-0.006-0.091,0.025-0.183,0.106-0.702
			c0.891,1.418,1.699,2.519,2.316,3.716c2.867,5.568,4.354,11.595,5.602,17.673c0.958,4.666,1.683,9.383,2.518,14.076
			c0.368,2.081,2.146,3.521,3.988,3.247c2.104-0.312,3.574-2.158,3.205-4.302c-0.963-5.609-2.021-11.203-3.051-16.801
			c-0.022-0.127-0.12-0.238-0.179-0.347c-4.264,0.094-6.56-1.312-7.442-4.53c-0.821-2.988,0.514-5.502,4.021-7.451
			c-1.583-4.057-3.343-8.015-6.651-11.036c-2.146-1.961-4.643-3.076-7.615-2.55c-0.596,0.106-1.255,0.536-1.648,1.012
			c-2.35,2.859-5.044,5.103-8.967,5.125c-3.996,0.023-6.807-2.197-9.012-5.232C25.842,41.373,25.015,39.549,23.986,37.737z"/>
		<path fill-rule="evenodd" clip-rule="evenodd" fill="#FFFFFF" d="M50.942,78.494c-10.091,4.327-19.945,4.303-29.966-0.012
			c0.146,2.582,0.068,4.977,0.474,7.286c0.438,2.493-0.586,4.645-1.046,6.926c-0.936,4.626-1.925,9.241-2.98,13.841
			c-0.357,1.546,0.157,2.671,1.467,3.199c1.996,0.805,4.066,1.565,6.176,1.9c1.738,0.275,3.588-0.001,5.366-0.216
			c1.009-0.121,1.611-0.819,1.843-1.961c0.935-4.626,1.982-9.229,2.987-13.839c0.03-0.135,0.02-0.292,0.089-0.405
			c0.21-0.351,0.448-0.685,0.677-1.026c0.196,0.329,0.486,0.637,0.571,0.994c0.609,2.518,1.197,5.042,1.746,7.573
			c0.482,2.216,0.973,4.434,1.33,6.67c0.171,1.085,0.735,1.753,1.684,1.969c4.293,0.978,8.381,0.387,12.149-1.929
			c0.899-0.554,1.333-1.405,1.051-2.623c-1.323-5.771-2.669-11.541-3.779-17.355c-0.37-1.946-0.093-4.022-0.058-6.038
			C50.75,81.875,50.859,80.301,50.942,78.494z"/>
		<path fill-rule="evenodd" clip-rule="evenodd" fill="#FFFFFF" d="M74.883,27.048c-7.49-0.074-13.434-6.128-13.403-13.647
			C61.514,5.857,67.672-0.064,75.415,0c7.239,0.062,13.238,6.244,13.183,13.588C88.541,21.175,82.479,27.123,74.883,27.048z
			 M73.951,23.088c3.092,0.03,5.285-1.592,6.847-4.49c-4.551,1.071-8.892,2.333-13.64,0.524
			C68.824,21.935,71.156,23.059,73.951,23.088z"/>
		<path fill-rule="evenodd" clip-rule="evenodd" fill="#FFFFFF" d="M25.121,33.726c0.147,3.791,1.857,7.538,5.168,10.463
			c3.608,3.19,7.838,3.229,11.385-0.026c4.036-3.71,6.059-8.33,4.773-13.855c-1.256-5.41-6.494-8.721-12.146-7.985
			C29.169,22.988,25.13,27.725,25.121,33.726z"/>
	</g>
</g>
</svg>
