<?xml version="1.0" encoding="utf-8"?>
<!-- Generator: Adobe Illustrator 16.0.0, SVG Export Plug-In . SVG Version: 6.00 Build 0)  -->
<!DOCTYPE svg PUBLIC "-//W3C//DTD SVG 1.1//EN" "http://www.w3.org/Graphics/SVG/1.1/DTD/svg11.dtd">
<svg version="1.1" id="Capa_1" xmlns="http://www.w3.org/2000/svg" xmlns:xlink="http://www.w3.org/1999/xlink" x="0px" y="0px"
	 width="943.551px" height="272.952px" viewBox="0 0 943.551 272.952" enable-background="new 0 0 943.551 272.952"
	 xml:space="preserve">
<g>
	
		<rect x="18.732" y="43.936" fill-rule="evenodd" clip-rule="evenodd" fill="#E4B053" fill-opacity="0.1" width="923.439" height="229.017"/>
	<g>
		<g>
			<polygon fill-rule="evenodd" clip-rule="evenodd" fill="#363733" points="247.09,28.342 19.504,28.342 0,0 227.586,0 			"/>
			<g>
				<g>
					<path fill="#FFFFFF" d="M40.541,20.97c0.05-1.789,0.075-3.591,0.075-5.405c0-2.777-0.059-5.582-0.176-8.416
						c1.301-0.1,2.467-0.15,3.499-0.15c2.87,0,4.699,0.391,5.488,1.173c0.738,0.732,1.107,1.539,1.107,2.421
						c0,0.4-0.071,0.813-0.214,1.238c-0.487,1.377-1.511,2.249-3.071,2.618c1.091,0.112,1.917,0.551,2.479,1.313
						c0.537,0.738,0.806,2.596,0.806,5.573v0.403l-3.802,0.038c0.042-0.788,0.063-1.495,0.063-2.12c0-1.896-0.206-3.057-0.617-3.481
						c-0.47-0.476-1.028-0.713-1.674-0.713c-0.126,0-0.256,0.009-0.391,0.028c0.051,1.907,0.159,3.715,0.327,5.423L40.541,20.97z
						 M43.763,9.335l0.089,4.016c1.561-0.057,2.551-0.45,2.971-1.183c0.227-0.388,0.34-0.766,0.34-1.135
						c0-0.319-0.084-0.632-0.252-0.938c-0.303-0.532-1.054-0.798-2.253-0.798C44.38,9.297,44.082,9.31,43.763,9.335z"/>
					<path fill="#FFFFFF" d="M55.696,11.465c2.911,0,4.367,1.441,4.367,4.325c0,0.351-0.021,0.726-0.062,1.126h-5.627
						c0,1.607,0.416,2.411,1.246,2.411h0.088c0.73-0.044,1.096-0.46,1.096-1.248c0-0.169-0.017-0.356-0.051-0.562l2.996-0.047
						c0,2.383-1.397,3.591-4.191,3.622c-0.034,0.006-0.063,0.009-0.088,0.009c-2.66,0-3.99-1.504-3.99-4.513v-0.282
						C51.562,13.078,52.969,11.465,55.696,11.465z M54.072,15.189h2.845v-0.226c0-1.138-0.433-1.707-1.297-1.707
						C54.688,13.257,54.173,13.9,54.072,15.189z"/>
					<path fill="#FFFFFF" d="M65.879,11.192c2.761,0.112,4.141,1.147,4.141,3.105v6.662l-2.933,0.037l-0.101-0.891
						c-0.604,0.513-1.405,0.769-2.404,0.769c-0.428,0-0.89-0.05-1.385-0.149c-1.485-0.275-2.228-1.132-2.228-2.571
						c0-0.175,0.013-0.362,0.038-0.562c0.167-1.482,1.581-2.225,4.241-2.225c0.512,0,1.074,0.028,1.687,0.085v-1.089
						c0-0.882-0.373-1.322-1.12-1.322h-0.05c-0.06-0.006-0.113-0.01-0.164-0.01c-0.813,0-1.221,0.494-1.221,1.482v0.141
						l-2.996-0.188c0-2.183,1.41-3.274,4.229-3.274H65.879z M66.936,18.604v-1.651c-0.36-0.056-0.688-0.084-0.981-0.084
						c-0.764,0-1.284,0.19-1.561,0.572c-0.168,0.231-0.252,0.447-0.252,0.647c0,0.25,0.134,0.473,0.402,0.666
						c0.21,0.15,0.482,0.226,0.818,0.226C65.79,18.98,66.314,18.855,66.936,18.604z"/>
					<path fill="#FFFFFF" d="M76.175,17.235l2.996,0.141c0,2.258-1.397,3.402-4.191,3.434c-0.034,0.007-0.063,0.01-0.088,0.01
						c-2.66,0-3.99-1.505-3.99-4.514v-0.281c0.083-3.228,1.502-4.856,4.254-4.889h0.101c2.534,0,3.802,1.083,3.802,3.247
						c0,0.125-0.005,0.25-0.013,0.375l-2.706,0.15v-0.226c0-1.138-0.433-1.708-1.297-1.708c-0.881,0-1.321,0.923-1.321,2.769v0.31
						c0.05,1.995,0.495,2.993,1.334,2.993h0.075c0.73-0.044,1.096-0.46,1.096-1.248C76.226,17.629,76.209,17.441,76.175,17.235z"/>
					<path fill="#FFFFFF" d="M85.363,17.235l2.996,0.141c0,2.258-1.397,3.402-4.191,3.434c-0.034,0.007-0.063,0.01-0.088,0.01
						c-2.66,0-3.99-1.505-3.99-4.514v-0.281c0.083-3.228,1.502-4.856,4.254-4.889h0.101c2.534,0,3.802,1.083,3.802,3.247
						c0,0.125-0.005,0.25-0.013,0.375l-2.706,0.15v-0.226c0-1.138-0.433-1.708-1.297-1.708c-0.881,0-1.321,0.923-1.321,2.769v0.31
						c0.05,1.995,0.495,2.993,1.334,2.993h0.075c0.73-0.044,1.096-0.46,1.096-1.248C85.414,17.629,85.397,17.441,85.363,17.235z"/>
					<path fill="#FFFFFF" d="M92.929,9.307c0,0.381-0.181,0.707-0.542,0.976c-0.36,0.269-0.797,0.403-1.309,0.403
						c-0.504,0-0.936-0.135-1.297-0.403c-0.36-0.269-0.541-0.595-0.541-0.976c0-0.376,0.181-0.697,0.541-0.967
						c0.361-0.269,0.793-0.403,1.297-0.403c0.512,0,0.948,0.135,1.309,0.403C92.748,8.609,92.929,8.931,92.929,9.307z
						 M89.555,21.147c-0.059-3.659-0.088-6.821-0.088-9.486l3.172-0.141c-0.101,2.553-0.151,5.089-0.151,7.609
						c0,0.676,0.005,1.349,0.013,2.018H89.555z"/>
					<path fill="#FFFFFF" d="M98.052,11.465c2.853,0,4.279,1.476,4.279,4.429c0,0.118-0.005,0.237-0.013,0.356
						c-0.117,3.196-1.637,4.811-4.557,4.842c-0.033,0.006-0.067,0.009-0.101,0.009c-2.777,0-4.166-1.511-4.166-4.532v-0.263
						C93.578,13.078,95.098,11.465,98.052,11.465z M97.636,13.604c-0.528,0.138-0.89,0.647-1.082,1.529
						c-0.118,0.525-0.177,1.055-0.177,1.586c0,0.356,0.025,0.717,0.076,1.079c0.134,0.9,0.566,1.367,1.296,1.398h0.088
						c0.68,0,1.146-0.335,1.397-1.004c0.21-0.558,0.314-1.217,0.314-1.98c0-0.188-0.004-0.378-0.012-0.572
						c-0.067-1.007-0.27-1.636-0.604-1.886c-0.21-0.15-0.462-0.226-0.756-0.226C98.009,13.528,97.829,13.554,97.636,13.604z"/>
					<path fill="#FFFFFF" d="M105.339,11.221l0.126,1.529c0.353-0.813,1.279-1.227,2.782-1.238h0.05
						c1.477,0,2.484,0.432,3.021,1.295c0.369,0.588,0.554,1.964,0.554,4.128c0,1.063-0.047,2.321-0.139,3.772h-3.046
						c0.108-1.934,0.163-3.432,0.163-4.495c0-0.531-0.013-0.957-0.037-1.275c-0.084-0.938-0.487-1.408-1.209-1.408
						s-1.175,0.251-1.359,0.751l0.126,6.803l-2.958,0.019c0-2.877-0.13-6.108-0.39-9.692L105.339,11.221z"/>
					<path fill="#FFFFFF" d="M117.008,11.465c2.911,0,4.367,1.441,4.367,4.325c0,0.351-0.021,0.726-0.062,1.126h-5.627
						c0,1.607,0.416,2.411,1.246,2.411h0.088c0.73-0.044,1.096-0.46,1.096-1.248c0-0.169-0.017-0.356-0.051-0.562l2.996-0.047
						c0,2.383-1.397,3.591-4.191,3.622c-0.034,0.006-0.063,0.009-0.088,0.009c-2.66,0-3.99-1.504-3.99-4.513v-0.282
						C112.874,13.078,114.28,11.465,117.008,11.465z M115.384,15.189h2.845v-0.226c0-1.138-0.433-1.707-1.297-1.707
						C116,13.257,115.484,13.9,115.384,15.189z"/>
					<path fill="#FFFFFF" d="M122.169,17.77l2.883-0.104v0.123c0,0.963,0.398,1.451,1.195,1.463h0.051
						c0.771,0,1.157-0.278,1.157-0.835v-0.065c-0.033-0.613-0.795-1.107-2.284-1.482s-2.386-1.007-2.688-1.896
						c-0.109-0.312-0.163-0.613-0.163-0.9c0-0.525,0.18-1.014,0.541-1.464c0.554-0.688,1.393-1.082,2.518-1.183
						c0.302-0.024,0.596-0.037,0.881-0.037c0.747,0,1.405,0.097,1.977,0.291c0.78,0.269,1.321,0.653,1.623,1.153
						c0.201,0.345,0.303,0.727,0.303,1.146c0,0.2-0.021,0.406-0.063,0.619l-2.693,0.047c0.025-0.156,0.037-0.301,0.037-0.432
						c0-0.626-0.269-0.96-0.805-1.004c-0.06-0.007-0.118-0.01-0.177-0.01c-0.554,0-0.927,0.21-1.12,0.629
						c-0.067,0.144-0.101,0.275-0.101,0.394c0,0.295,0.185,0.548,0.554,0.761c0.521,0.3,1.29,0.604,2.31,0.914
						s1.706,0.837,2.059,1.581c0.125,0.282,0.188,0.563,0.188,0.845c0,0.476-0.185,0.954-0.554,1.436
						c-0.588,0.77-1.498,1.217-2.731,1.342c-0.269,0.031-0.533,0.047-0.793,0.047c-0.924,0-1.779-0.178-2.568-0.534
						C122.697,20.156,122.186,19.209,122.169,17.77z"/>
					<path fill="#FFFFFF" d="M136.103,20.828c0.101-2.139,0.151-4.222,0.151-6.248c0-2.34-0.067-4.607-0.201-6.803l3.7-0.132
						l3.398,7.065c-0.033-2.427-0.126-4.91-0.276-7.45l3.889-0.037c-0.386,3.834-0.578,7.706-0.578,11.616
						c0,0.525,0.004,1.051,0.012,1.576l-3.411,0.027l-3.625-7.562c0.109,2.79,0.21,5.383,0.303,7.779L136.103,20.828z"/>
					<path fill="#FFFFFF" d="M152.303,11.465c2.853,0,4.279,1.476,4.279,4.429c0,0.118-0.005,0.237-0.013,0.356
						c-0.117,3.196-1.637,4.811-4.557,4.842c-0.033,0.006-0.067,0.009-0.101,0.009c-2.777,0-4.166-1.511-4.166-4.532v-0.263
						C147.829,13.078,149.349,11.465,152.303,11.465z M151.887,13.604c-0.528,0.138-0.89,0.647-1.082,1.529
						c-0.118,0.525-0.177,1.055-0.177,1.586c0,0.356,0.025,0.717,0.076,1.079c0.134,0.9,0.566,1.367,1.296,1.398h0.088
						c0.68,0,1.146-0.335,1.397-1.004c0.21-0.558,0.314-1.217,0.314-1.98c0-0.188-0.004-0.378-0.012-0.572
						c-0.067-1.007-0.27-1.636-0.604-1.886c-0.21-0.15-0.462-0.226-0.756-0.226C152.26,13.528,152.08,13.554,151.887,13.604z"/>
					<path fill="#FFFFFF" d="M160.622,14.373l0.126,6.803l-3.084,0.019c0-2.877-0.13-6.108-0.39-9.692l2.315-0.188l0.126,1.529
						c0.353-0.751,1.175-1.179,2.467-1.285c0.193-0.013,0.378-0.02,0.554-0.02c1.016,0,1.788,0.248,2.316,0.742
						c0.612,0.588,0.923,1.522,0.932,2.805l-2.794,0.207c0.008-0.106,0.012-0.21,0.012-0.31c0-1.001-0.348-1.502-1.044-1.502h-0.051
						C161.302,13.514,160.807,13.811,160.622,14.373z"/>
					<path fill="#FFFFFF" d="M168.854,11.268l0.05,1.501c0.453-0.719,0.978-1.166,1.573-1.342c0.353-0.1,0.709-0.15,1.07-0.15
						c0.269,0,0.537,0.025,0.806,0.075c0.654,0.125,1.12,0.626,1.397,1.502c0.218-0.682,0.596-1.137,1.133-1.365
						c0.536-0.229,1.133-0.346,1.787-0.353h0.051c0.637,0,1.25,0.116,1.837,0.348c0.596,0.237,1.052,0.684,1.366,1.337
						s0.48,1.55,0.497,2.688v5.451l-2.719,0.047c0.108-2.058,0.163-3.81,0.163-5.255c0-1.444-0.369-2.224-1.107-2.336
						c-0.109-0.013-0.214-0.019-0.314-0.019c-0.588,0-1.041,0.281-1.359,0.845c-0.051,0.65-0.075,1.41-0.075,2.279
						c0,1.183,0.046,2.562,0.138,4.139l-3.146,0.019c0.117-2.421,0.176-4.185,0.176-5.292v-0.113
						c-0.008-1.094-0.298-1.67-0.868-1.726h-0.163c-0.513,0-1.008,0.219-1.485,0.656l0.024,6.868l-2.97,0.085v-1.539
						c0-2.728-0.055-5.451-0.164-8.173L168.854,11.268z"/>
					<path fill="#FFFFFF" d="M186.049,11.192c2.761,0.112,4.141,1.147,4.141,3.105v6.662l-2.933,0.037l-0.101-0.891
						c-0.604,0.513-1.405,0.769-2.404,0.769c-0.428,0-0.89-0.05-1.385-0.149c-1.485-0.275-2.228-1.132-2.228-2.571
						c0-0.175,0.013-0.362,0.038-0.562c0.167-1.482,1.581-2.225,4.241-2.225c0.512,0,1.074,0.028,1.687,0.085v-1.089
						c0-0.882-0.373-1.322-1.12-1.322h-0.05c-0.06-0.006-0.113-0.01-0.164-0.01c-0.813,0-1.221,0.494-1.221,1.482v0.141
						l-2.996-0.188c0-2.183,1.41-3.274,4.229-3.274H186.049z M187.105,18.604v-1.651c-0.36-0.056-0.688-0.084-0.981-0.084
						c-0.764,0-1.284,0.19-1.561,0.572c-0.168,0.231-0.252,0.447-0.252,0.647c0,0.25,0.134,0.473,0.402,0.666
						c0.21,0.15,0.482,0.226,0.818,0.226C185.96,18.98,186.484,18.855,187.105,18.604z"/>
					<path fill="#FFFFFF" d="M194.732,20.941l-3.134,0.216c0.033-2.07,0.051-4.063,0.051-5.978c0-2.689-0.034-5.226-0.102-7.609
						l3.084-0.037c-0.033,1.532-0.05,3.105-0.05,4.72C194.582,15.036,194.632,17.933,194.732,20.941z"/>
					<path fill="#FFFFFF" d="M199.907,11.465c2.911,0,4.367,1.441,4.367,4.325c0,0.351-0.021,0.726-0.062,1.126h-5.627
						c0,1.607,0.416,2.411,1.246,2.411h0.088c0.73-0.044,1.096-0.46,1.096-1.248c0-0.169-0.017-0.356-0.051-0.562l2.996-0.047
						c0,2.383-1.397,3.591-4.191,3.622c-0.034,0.006-0.063,0.009-0.088,0.009c-2.66,0-3.99-1.504-3.99-4.513v-0.282
						C195.773,13.078,197.18,11.465,199.907,11.465z M198.283,15.189h2.845v-0.226c0-1.138-0.433-1.707-1.297-1.707
						C198.899,13.257,198.384,13.9,198.283,15.189z"/>
					<path fill="#FFFFFF" d="M205.067,17.77l2.883-0.104v0.123c0,0.963,0.398,1.451,1.195,1.463h0.051
						c0.771,0,1.157-0.278,1.157-0.835v-0.065c-0.033-0.613-0.795-1.107-2.284-1.482s-2.386-1.007-2.688-1.896
						c-0.109-0.312-0.163-0.613-0.163-0.9c0-0.525,0.18-1.014,0.541-1.464c0.554-0.688,1.393-1.082,2.518-1.183
						c0.302-0.024,0.596-0.037,0.881-0.037c0.747,0,1.405,0.097,1.977,0.291c0.78,0.269,1.321,0.653,1.623,1.153
						c0.201,0.345,0.303,0.727,0.303,1.146c0,0.2-0.021,0.406-0.063,0.619l-2.693,0.047c0.025-0.156,0.037-0.301,0.037-0.432
						c0-0.626-0.269-0.96-0.805-1.004c-0.06-0.007-0.118-0.01-0.177-0.01c-0.554,0-0.927,0.21-1.12,0.629
						c-0.067,0.144-0.101,0.275-0.101,0.394c0,0.295,0.185,0.548,0.554,0.761c0.521,0.3,1.29,0.604,2.31,0.914
						s1.706,0.837,2.059,1.581c0.125,0.282,0.188,0.563,0.188,0.845c0,0.476-0.185,0.954-0.554,1.436
						c-0.588,0.77-1.498,1.217-2.731,1.342c-0.269,0.031-0.533,0.047-0.793,0.047c-0.924,0-1.779-0.178-2.568-0.534
						C205.596,20.156,205.084,19.209,205.067,17.77z"/>
				</g>
			</g>
		</g>
		<g>
			<polygon fill-rule="evenodd" clip-rule="evenodd" fill="#4B4C49" points="479.439,28.342 251.854,28.342 232.351,0 459.936,0 			
				"/>
			<g>
				<g>
					<path fill="#FFFFFF" d="M259.588,20.379c0.05-1.789,0.075-3.59,0.075-5.404c0-2.777-0.059-5.583-0.176-8.416
						c1.301-0.101,2.467-0.15,3.499-0.15c2.87,0,4.699,0.391,5.488,1.173c0.738,0.731,1.107,1.538,1.107,2.421
						c0,0.4-0.071,0.812-0.214,1.238c-0.487,1.376-1.511,2.249-3.071,2.618c1.091,0.112,1.917,0.55,2.479,1.313
						c0.537,0.738,0.806,2.596,0.806,5.573v0.403l-3.802,0.037c0.042-0.788,0.063-1.494,0.063-2.12c0-1.896-0.206-3.056-0.617-3.481
						c-0.47-0.475-1.028-0.713-1.674-0.713c-0.126,0-0.256,0.01-0.391,0.028c0.051,1.908,0.159,3.716,0.327,5.423L259.588,20.379z
						 M262.81,8.744l0.089,4.016c1.561-0.056,2.551-0.45,2.971-1.182c0.227-0.388,0.34-0.767,0.34-1.136
						c0-0.318-0.084-0.632-0.252-0.938c-0.303-0.531-1.054-0.797-2.253-0.797C263.427,8.707,263.129,8.72,262.81,8.744z"/>
					<path fill="#FFFFFF" d="M274.743,10.874c2.911,0,4.367,1.442,4.367,4.325c0,0.351-0.021,0.727-0.062,1.127h-5.627
						c0,1.607,0.416,2.411,1.246,2.411h0.088c0.73-0.044,1.096-0.46,1.096-1.248c0-0.169-0.017-0.356-0.051-0.563l2.996-0.047
						c0,2.384-1.397,3.591-4.191,3.622c-0.034,0.007-0.063,0.01-0.088,0.01c-2.66,0-3.99-1.505-3.99-4.514v-0.281
						C270.609,12.488,272.016,10.874,274.743,10.874z M273.119,14.6h2.845v-0.226c0-1.139-0.433-1.708-1.297-1.708
						C273.735,12.666,273.22,13.311,273.119,14.6z"/>
					<path fill="#FFFFFF" d="M284.926,10.603c2.761,0.112,4.141,1.147,4.141,3.105v6.662l-2.933,0.037l-0.101-0.892
						c-0.604,0.514-1.405,0.77-2.404,0.77c-0.428,0-0.89-0.05-1.385-0.15c-1.485-0.274-2.228-1.132-2.228-2.57
						c0-0.176,0.013-0.363,0.038-0.563c0.167-1.482,1.581-2.224,4.241-2.224c0.512,0,1.074,0.028,1.687,0.085v-1.089
						c0-0.882-0.373-1.323-1.12-1.323h-0.05c-0.06-0.006-0.113-0.009-0.164-0.009c-0.813,0-1.221,0.494-1.221,1.482v0.141
						l-2.996-0.188c0-2.184,1.41-3.274,4.229-3.274H284.926z M285.982,18.015v-1.651c-0.36-0.057-0.688-0.084-0.981-0.084
						c-0.764,0-1.284,0.19-1.561,0.572c-0.168,0.231-0.252,0.447-0.252,0.646c0,0.251,0.134,0.473,0.402,0.667
						c0.21,0.149,0.482,0.225,0.818,0.225C284.837,18.39,285.361,18.265,285.982,18.015z"/>
					<path fill="#FFFFFF" d="M295.222,16.645l2.996,0.141c0,2.259-1.397,3.403-4.191,3.435c-0.034,0.006-0.063,0.009-0.088,0.009
						c-2.66,0-3.99-1.504-3.99-4.513v-0.281c0.083-3.228,1.502-4.857,4.254-4.889h0.101c2.534,0,3.802,1.082,3.802,3.246
						c0,0.126-0.005,0.251-0.013,0.376l-2.706,0.149v-0.225c0-1.139-0.433-1.708-1.297-1.708c-0.881,0-1.321,0.923-1.321,2.768
						v0.311c0.05,1.995,0.495,2.992,1.334,2.992h0.075c0.73-0.043,1.096-0.459,1.096-1.247
						C295.272,17.039,295.256,16.852,295.222,16.645z"/>
					<path fill="#FFFFFF" d="M304.41,16.645l2.996,0.141c0,2.259-1.397,3.403-4.191,3.435c-0.034,0.006-0.063,0.009-0.088,0.009
						c-2.66,0-3.99-1.504-3.99-4.513v-0.281c0.083-3.228,1.502-4.857,4.254-4.889h0.101c2.534,0,3.802,1.082,3.802,3.246
						c0,0.126-0.005,0.251-0.013,0.376l-2.706,0.149v-0.225c0-1.139-0.433-1.708-1.297-1.708c-0.881,0-1.321,0.923-1.321,2.768
						v0.311c0.05,1.995,0.495,2.992,1.334,2.992h0.075c0.73-0.043,1.096-0.459,1.096-1.247
						C304.461,17.039,304.444,16.852,304.41,16.645z"/>
					<path fill="#FFFFFF" d="M311.976,8.716c0,0.382-0.181,0.707-0.542,0.977c-0.36,0.269-0.797,0.403-1.309,0.403
						c-0.504,0-0.936-0.135-1.297-0.403c-0.36-0.27-0.541-0.595-0.541-0.977c0-0.375,0.181-0.697,0.541-0.966
						c0.361-0.27,0.793-0.403,1.297-0.403c0.512,0,0.948,0.134,1.309,0.403C311.795,8.019,311.976,8.341,311.976,8.716z
						 M308.602,20.558c-0.059-3.659-0.088-6.821-0.088-9.486l3.172-0.141c-0.101,2.552-0.151,5.089-0.151,7.609
						c0,0.676,0.005,1.348,0.013,2.018H308.602z"/>
					<path fill="#FFFFFF" d="M317.099,10.874c2.853,0,4.279,1.477,4.279,4.429c0,0.119-0.005,0.238-0.013,0.356
						c-0.117,3.196-1.637,4.811-4.557,4.842c-0.033,0.007-0.067,0.01-0.101,0.01c-2.777,0-4.166-1.511-4.166-4.532v-0.263
						C312.625,12.488,314.145,10.874,317.099,10.874z M316.683,13.014c-0.528,0.138-0.89,0.647-1.082,1.529
						c-0.118,0.525-0.177,1.054-0.177,1.586c0,0.356,0.025,0.716,0.076,1.079c0.134,0.9,0.566,1.366,1.296,1.397h0.088
						c0.68,0,1.146-0.334,1.397-1.004c0.21-0.557,0.314-1.217,0.314-1.979c0-0.188-0.004-0.379-0.012-0.572
						c-0.067-1.007-0.27-1.636-0.604-1.886c-0.21-0.15-0.462-0.226-0.756-0.226C317.056,12.938,316.876,12.964,316.683,13.014z"/>
					<path fill="#FFFFFF" d="M324.386,10.63l0.126,1.53c0.353-0.813,1.279-1.227,2.782-1.239h0.05c1.477,0,2.484,0.432,3.021,1.295
						c0.369,0.588,0.554,1.965,0.554,4.129c0,1.063-0.047,2.32-0.139,3.771h-3.046c0.108-1.933,0.163-3.431,0.163-4.494
						c0-0.532-0.013-0.957-0.037-1.276c-0.084-0.938-0.487-1.407-1.209-1.407s-1.175,0.25-1.359,0.751l0.126,6.803l-2.958,0.019
						c0-2.878-0.13-6.108-0.39-9.692L324.386,10.63z"/>
					<path fill="#FFFFFF" d="M336.055,10.874c2.911,0,4.367,1.442,4.367,4.325c0,0.351-0.021,0.727-0.062,1.127h-5.627
						c0,1.607,0.416,2.411,1.246,2.411h0.088c0.73-0.044,1.096-0.46,1.096-1.248c0-0.169-0.017-0.356-0.051-0.563l2.996-0.047
						c0,2.384-1.397,3.591-4.191,3.622c-0.034,0.007-0.063,0.01-0.088,0.01c-2.66,0-3.99-1.505-3.99-4.514v-0.281
						C331.921,12.488,333.327,10.874,336.055,10.874z M334.431,14.6h2.845v-0.226c0-1.139-0.433-1.708-1.297-1.708
						C335.047,12.666,334.531,13.311,334.431,14.6z"/>
					<path fill="#FFFFFF" d="M341.216,17.18l2.883-0.104v0.122c0,0.964,0.398,1.451,1.195,1.464h0.051
						c0.771,0,1.157-0.278,1.157-0.835v-0.065c-0.033-0.613-0.795-1.107-2.284-1.482c-1.489-0.376-2.386-1.008-2.688-1.896
						c-0.109-0.313-0.163-0.613-0.163-0.901c0-0.525,0.18-1.013,0.541-1.464c0.554-0.688,1.393-1.082,2.518-1.182
						c0.302-0.025,0.596-0.038,0.881-0.038c0.747,0,1.405,0.098,1.977,0.291c0.78,0.27,1.321,0.654,1.623,1.154
						c0.201,0.344,0.303,0.726,0.303,1.145c0,0.2-0.021,0.407-0.063,0.619l-2.693,0.047c0.025-0.156,0.037-0.3,0.037-0.432
						c0-0.625-0.269-0.96-0.805-1.004c-0.06-0.006-0.118-0.009-0.177-0.009c-0.554,0-0.927,0.209-1.12,0.628
						c-0.067,0.145-0.101,0.275-0.101,0.395c0,0.294,0.185,0.548,0.554,0.76c0.521,0.301,1.29,0.605,2.31,0.915
						s1.706,0.837,2.059,1.581c0.125,0.281,0.188,0.562,0.188,0.845c0,0.476-0.185,0.954-0.554,1.436
						c-0.588,0.77-1.498,1.217-2.731,1.342c-0.269,0.031-0.533,0.047-0.793,0.047c-0.924,0-1.779-0.179-2.568-0.535
						C341.744,19.566,341.232,18.618,341.216,17.18z"/>
					<path fill="#FFFFFF" d="M355.2,20.229c0.05-1.645,0.075-3.327,0.075-5.048c0-2.64-0.059-5.373-0.176-8.2
						c1.435-0.15,2.701-0.226,3.801-0.226c1.729,0,3.029,0.188,3.902,0.563c1.351,0.582,2.026,1.773,2.026,3.574v0.311
						c-0.084,1.977-0.684,3.241-1.8,3.795s-2.492,0.85-4.129,0.887c-0.008,0.193-0.013,0.395-0.013,0.601
						c0,1.038,0.071,2.268,0.214,3.688L355.2,20.229z M358.422,9.157l0.089,4.588c1.561-0.062,2.475-0.479,2.744-1.248
						c0.125-0.35,0.188-0.71,0.188-1.079c0-0.432-0.084-0.875-0.252-1.332c-0.252-0.669-0.881-1.004-1.888-1.004
						C359.035,9.082,358.741,9.107,358.422,9.157z"/>
					<path fill="#FFFFFF" d="M370.934,10.603c2.761,0.112,4.141,1.147,4.141,3.105v6.662l-2.933,0.037l-0.101-0.892
						c-0.604,0.514-1.405,0.77-2.404,0.77c-0.428,0-0.89-0.05-1.385-0.15c-1.485-0.274-2.228-1.132-2.228-2.57
						c0-0.176,0.013-0.363,0.038-0.563c0.167-1.482,1.581-2.224,4.241-2.224c0.512,0,1.074,0.028,1.687,0.085v-1.089
						c0-0.882-0.373-1.323-1.12-1.323h-0.05c-0.06-0.006-0.113-0.009-0.164-0.009c-0.813,0-1.221,0.494-1.221,1.482v0.141
						l-2.996-0.188c0-2.184,1.41-3.274,4.229-3.274H370.934z M371.99,18.015v-1.651c-0.36-0.057-0.688-0.084-0.981-0.084
						c-0.764,0-1.284,0.19-1.561,0.572c-0.168,0.231-0.252,0.447-0.252,0.646c0,0.251,0.134,0.473,0.402,0.667
						c0.21,0.149,0.482,0.225,0.818,0.225C370.845,18.39,371.369,18.265,371.99,18.015z"/>
					<path fill="#FFFFFF" d="M379.43,13.783l0.126,6.803l-3.084,0.019c0-2.878-0.13-6.108-0.39-9.692l2.315-0.188l0.126,1.529
						c0.353-0.751,1.175-1.18,2.467-1.286c0.193-0.013,0.378-0.019,0.554-0.019c1.016,0,1.788,0.247,2.316,0.741
						c0.612,0.588,0.923,1.523,0.932,2.806l-2.794,0.206c0.008-0.106,0.012-0.209,0.012-0.31c0-1-0.348-1.501-1.044-1.501h-0.051
						C380.109,12.923,379.614,13.22,379.43,13.783z"/>
					<path fill="#FFFFFF" d="M390.507,10.603c2.761,0.112,4.141,1.147,4.141,3.105v6.662l-2.933,0.037l-0.101-0.892
						c-0.604,0.514-1.405,0.77-2.404,0.77c-0.428,0-0.89-0.05-1.385-0.15c-1.485-0.274-2.228-1.132-2.228-2.57
						c0-0.176,0.013-0.363,0.038-0.563c0.167-1.482,1.581-2.224,4.241-2.224c0.512,0,1.074,0.028,1.687,0.085v-1.089
						c0-0.882-0.373-1.323-1.12-1.323h-0.05c-0.06-0.006-0.113-0.009-0.164-0.009c-0.813,0-1.221,0.494-1.221,1.482v0.141
						l-2.996-0.188c0-2.184,1.41-3.274,4.229-3.274H390.507z M391.563,18.015v-1.651c-0.36-0.057-0.688-0.084-0.981-0.084
						c-0.764,0-1.284,0.19-1.561,0.572c-0.168,0.231-0.252,0.447-0.252,0.646c0,0.251,0.134,0.473,0.402,0.667
						c0.21,0.149,0.482,0.225,0.818,0.225C390.418,18.39,390.942,18.265,391.563,18.015z"/>
					<path fill="#FFFFFF" d="M399.191,20.351l-3.134,0.216c0.033-2.07,0.051-4.062,0.051-5.977c0-2.689-0.034-5.227-0.102-7.609
						l3.084-0.038c-0.033,1.533-0.05,3.106-0.05,4.72C399.041,14.446,399.091,17.342,399.191,20.351z"/>
					<path fill="#FFFFFF" d="M403.799,8.716c0,0.382-0.181,0.707-0.542,0.977c-0.36,0.269-0.797,0.403-1.309,0.403
						c-0.504,0-0.936-0.135-1.297-0.403c-0.36-0.27-0.541-0.595-0.541-0.977c0-0.375,0.181-0.697,0.541-0.966
						c0.361-0.27,0.793-0.403,1.297-0.403c0.512,0,0.948,0.134,1.309,0.403C403.618,8.019,403.799,8.341,403.799,8.716z
						 M400.425,20.558c-0.059-3.659-0.088-6.821-0.088-9.486l3.172-0.141c-0.101,2.552-0.151,5.089-0.151,7.609
						c0,0.676,0.005,1.348,0.013,2.018H400.425z"/>
					<path fill="#FFFFFF" d="M404.554,10.827c0.738,0.013,1.565,0.019,2.479,0.019c1.469,0,3.168-0.016,5.098-0.047l0.063,1.914
						l-4.481,5.63h4.481l-0.038,2.055c-2.106,0-4.67,0.032-7.69,0.095l-0.101-1.82l4.694-5.959c-1.502,0-2.982,0.041-4.443,0.122
						L404.554,10.827z"/>
					<path fill="#FFFFFF" d="M417.984,10.603c2.761,0.112,4.141,1.147,4.141,3.105v6.662l-2.933,0.037l-0.101-0.892
						c-0.604,0.514-1.405,0.77-2.404,0.77c-0.428,0-0.89-0.05-1.385-0.15c-1.485-0.274-2.228-1.132-2.228-2.57
						c0-0.176,0.013-0.363,0.038-0.563c0.167-1.482,1.581-2.224,4.241-2.224c0.512,0,1.074,0.028,1.687,0.085v-1.089
						c0-0.882-0.373-1.323-1.12-1.323h-0.05c-0.06-0.006-0.113-0.009-0.164-0.009c-0.813,0-1.221,0.494-1.221,1.482v0.141
						l-2.996-0.188c0-2.184,1.41-3.274,4.229-3.274H417.984z M419.041,18.015v-1.651c-0.36-0.057-0.688-0.084-0.981-0.084
						c-0.764,0-1.284,0.19-1.561,0.572c-0.168,0.231-0.252,0.447-0.252,0.646c0,0.251,0.134,0.473,0.402,0.667
						c0.21,0.149,0.482,0.225,0.818,0.225C417.896,18.39,418.42,18.265,419.041,18.015z"/>
					<path fill="#FFFFFF" d="M425.448,10.63l0.126,1.53c0.353-0.813,1.279-1.227,2.782-1.239h0.05c1.477,0,2.484,0.432,3.021,1.295
						c0.369,0.588,0.554,1.965,0.554,4.129c0,1.063-0.047,2.32-0.139,3.771h-3.046c0.108-1.933,0.163-3.431,0.163-4.494
						c0-0.532-0.013-0.957-0.037-1.276c-0.084-0.938-0.487-1.407-1.209-1.407s-1.175,0.25-1.359,0.751l0.126,6.803l-2.958,0.019
						c0-2.878-0.13-6.108-0.39-9.692L425.448,10.63z"/>
					<path fill="#FFFFFF" d="M435.128,7.881l2.857-0.141v3.105l2.404-0.047l0.037,1.773l-2.441,0.085v4.269
						c0,0.995,0.566,1.492,1.699,1.492c0.234,0,0.491-0.021,0.768-0.065l-0.113,2.064c-0.402,0.037-0.784,0.056-1.146,0.056
						c-2.651,0-4.002-1.02-4.053-3.059v-4.588l-2.064,0.094l-0.05-2.093l2.114,0.019L435.128,7.881z"/>
					<path fill="#FFFFFF" d="M445.563,10.874c2.911,0,4.367,1.442,4.367,4.325c0,0.351-0.021,0.727-0.062,1.127h-5.627
						c0,1.607,0.416,2.411,1.246,2.411h0.088c0.73-0.044,1.096-0.46,1.096-1.248c0-0.169-0.017-0.356-0.051-0.563l2.996-0.047
						c0,2.384-1.397,3.591-4.191,3.622c-0.034,0.007-0.063,0.01-0.088,0.01c-2.66,0-3.99-1.505-3.99-4.514v-0.281
						C441.43,12.488,442.836,10.874,445.563,10.874z M443.939,14.6h2.845v-0.226c0-1.139-0.433-1.708-1.297-1.708
						C444.556,12.666,444.04,13.311,443.939,14.6z"/>
					<path fill="#FFFFFF" d="M450.724,17.18l2.883-0.104v0.122c0,0.964,0.398,1.451,1.195,1.464h0.051
						c0.771,0,1.157-0.278,1.157-0.835v-0.065c-0.033-0.613-0.795-1.107-2.284-1.482c-1.489-0.376-2.386-1.008-2.688-1.896
						c-0.109-0.313-0.163-0.613-0.163-0.901c0-0.525,0.18-1.013,0.541-1.464c0.554-0.688,1.393-1.082,2.518-1.182
						c0.302-0.025,0.596-0.038,0.881-0.038c0.747,0,1.405,0.098,1.977,0.291c0.78,0.27,1.321,0.654,1.623,1.154
						c0.201,0.344,0.303,0.726,0.303,1.145c0,0.2-0.021,0.407-0.063,0.619l-2.693,0.047c0.025-0.156,0.037-0.3,0.037-0.432
						c0-0.625-0.269-0.96-0.805-1.004c-0.06-0.006-0.118-0.009-0.177-0.009c-0.554,0-0.927,0.209-1.12,0.628
						c-0.067,0.145-0.101,0.275-0.101,0.395c0,0.294,0.185,0.548,0.554,0.76c0.521,0.301,1.29,0.605,2.31,0.915
						s1.706,0.837,2.059,1.581c0.125,0.281,0.188,0.562,0.188,0.845c0,0.476-0.185,0.954-0.554,1.436
						c-0.588,0.77-1.498,1.217-2.731,1.342c-0.269,0.031-0.533,0.047-0.793,0.047c-0.924,0-1.779-0.179-2.568-0.535
						C451.252,19.566,450.74,18.618,450.724,17.18z"/>
				</g>
			</g>
		</g>
		<g>
			<polygon fill-rule="evenodd" clip-rule="evenodd" fill="#555653" points="711.348,28.342 483.762,28.342 464.258,0 691.844,0 			
				"/>
			<g>
				<g>
					<path fill="#FFFFFF" d="M491.206,20.379c0.05-1.789,0.075-3.59,0.075-5.404c0-2.777-0.059-5.583-0.176-8.416
						c1.301-0.101,2.467-0.15,3.499-0.15c2.87,0,4.699,0.391,5.488,1.173c0.738,0.731,1.107,1.538,1.107,2.421
						c0,0.4-0.071,0.812-0.214,1.238c-0.487,1.376-1.511,2.249-3.071,2.618c1.091,0.112,1.917,0.55,2.479,1.313
						c0.537,0.738,0.806,2.596,0.806,5.573v0.403l-3.802,0.037c0.042-0.788,0.063-1.494,0.063-2.12c0-1.896-0.206-3.056-0.617-3.481
						c-0.47-0.475-1.028-0.713-1.674-0.713c-0.126,0-0.256,0.01-0.391,0.028c0.051,1.908,0.159,3.716,0.327,5.423L491.206,20.379z
						 M494.428,8.744l0.089,4.016c1.561-0.056,2.551-0.45,2.971-1.182c0.227-0.388,0.34-0.767,0.34-1.136
						c0-0.318-0.084-0.632-0.252-0.938c-0.303-0.531-1.054-0.797-2.253-0.797C495.045,8.707,494.747,8.72,494.428,8.744z"/>
					<path fill="#FFFFFF" d="M506.361,10.874c2.911,0,4.367,1.442,4.367,4.325c0,0.351-0.021,0.727-0.062,1.127h-5.627
						c0,1.607,0.416,2.411,1.246,2.411h0.088c0.73-0.044,1.096-0.46,1.096-1.248c0-0.169-0.017-0.356-0.051-0.563l2.996-0.047
						c0,2.384-1.397,3.591-4.191,3.622c-0.034,0.007-0.063,0.01-0.088,0.01c-2.66,0-3.99-1.505-3.99-4.514v-0.281
						C502.228,12.488,503.634,10.874,506.361,10.874z M504.737,14.6h2.845v-0.226c0-1.139-0.433-1.708-1.297-1.708
						C505.354,12.666,504.838,13.311,504.737,14.6z"/>
					<path fill="#FFFFFF" d="M516.544,10.603c2.761,0.112,4.141,1.147,4.141,3.105v6.662l-2.933,0.037l-0.101-0.892
						c-0.604,0.514-1.405,0.77-2.404,0.77c-0.428,0-0.89-0.05-1.385-0.15c-1.485-0.274-2.228-1.132-2.228-2.57
						c0-0.176,0.013-0.363,0.038-0.563c0.167-1.482,1.581-2.224,4.241-2.224c0.512,0,1.074,0.028,1.687,0.085v-1.089
						c0-0.882-0.373-1.323-1.12-1.323h-0.05c-0.06-0.006-0.113-0.009-0.164-0.009c-0.813,0-1.221,0.494-1.221,1.482v0.141
						l-2.996-0.188c0-2.184,1.41-3.274,4.229-3.274H516.544z M517.601,18.015v-1.651c-0.36-0.057-0.688-0.084-0.981-0.084
						c-0.764,0-1.284,0.19-1.561,0.572c-0.168,0.231-0.252,0.447-0.252,0.646c0,0.251,0.134,0.473,0.402,0.667
						c0.21,0.149,0.482,0.225,0.818,0.225C516.455,18.39,516.979,18.265,517.601,18.015z"/>
					<path fill="#FFFFFF" d="M526.84,16.645l2.996,0.141c0,2.259-1.397,3.403-4.191,3.435c-0.034,0.006-0.063,0.009-0.088,0.009
						c-2.66,0-3.99-1.504-3.99-4.513v-0.281c0.083-3.228,1.502-4.857,4.254-4.889h0.101c2.534,0,3.802,1.082,3.802,3.246
						c0,0.126-0.005,0.251-0.013,0.376l-2.706,0.149v-0.225c0-1.139-0.433-1.708-1.297-1.708c-0.881,0-1.321,0.923-1.321,2.768
						v0.311c0.05,1.995,0.495,2.992,1.334,2.992h0.075c0.73-0.043,1.096-0.459,1.096-1.247
						C526.891,17.039,526.874,16.852,526.84,16.645z"/>
					<path fill="#FFFFFF" d="M536.028,16.645l2.996,0.141c0,2.259-1.397,3.403-4.191,3.435c-0.034,0.006-0.063,0.009-0.088,0.009
						c-2.66,0-3.99-1.504-3.99-4.513v-0.281c0.083-3.228,1.502-4.857,4.254-4.889h0.101c2.534,0,3.802,1.082,3.802,3.246
						c0,0.126-0.005,0.251-0.013,0.376l-2.706,0.149v-0.225c0-1.139-0.433-1.708-1.297-1.708c-0.881,0-1.321,0.923-1.321,2.768
						v0.311c0.05,1.995,0.495,2.992,1.334,2.992h0.075c0.73-0.043,1.096-0.459,1.096-1.247
						C536.079,17.039,536.062,16.852,536.028,16.645z"/>
					<path fill="#FFFFFF" d="M543.594,8.716c0,0.382-0.181,0.707-0.542,0.977c-0.36,0.269-0.797,0.403-1.309,0.403
						c-0.504,0-0.936-0.135-1.297-0.403c-0.36-0.27-0.541-0.595-0.541-0.977c0-0.375,0.181-0.697,0.541-0.966
						c0.361-0.27,0.793-0.403,1.297-0.403c0.512,0,0.948,0.134,1.309,0.403C543.413,8.019,543.594,8.341,543.594,8.716z
						 M540.22,20.558c-0.059-3.659-0.088-6.821-0.088-9.486l3.172-0.141c-0.101,2.552-0.151,5.089-0.151,7.609
						c0,0.676,0.005,1.348,0.013,2.018H540.22z"/>
					<path fill="#FFFFFF" d="M548.717,10.874c2.853,0,4.279,1.477,4.279,4.429c0,0.119-0.005,0.238-0.013,0.356
						c-0.117,3.196-1.637,4.811-4.557,4.842c-0.033,0.007-0.067,0.01-0.101,0.01c-2.777,0-4.166-1.511-4.166-4.532v-0.263
						C544.243,12.488,545.763,10.874,548.717,10.874z M548.301,13.014c-0.528,0.138-0.89,0.647-1.082,1.529
						c-0.118,0.525-0.177,1.054-0.177,1.586c0,0.356,0.025,0.716,0.076,1.079c0.134,0.9,0.566,1.366,1.296,1.397h0.088
						c0.68,0,1.146-0.334,1.397-1.004c0.21-0.557,0.314-1.217,0.314-1.979c0-0.188-0.004-0.379-0.012-0.572
						c-0.067-1.007-0.27-1.636-0.604-1.886c-0.21-0.15-0.462-0.226-0.756-0.226C548.674,12.938,548.494,12.964,548.301,13.014z"/>
					<path fill="#FFFFFF" d="M556.004,10.63l0.126,1.53c0.353-0.813,1.279-1.227,2.782-1.239h0.05c1.477,0,2.484,0.432,3.021,1.295
						c0.369,0.588,0.554,1.965,0.554,4.129c0,1.063-0.047,2.32-0.139,3.771h-3.046c0.108-1.933,0.163-3.431,0.163-4.494
						c0-0.532-0.013-0.957-0.037-1.276c-0.084-0.938-0.487-1.407-1.209-1.407s-1.175,0.25-1.359,0.751l0.126,6.803l-2.958,0.019
						c0-2.878-0.13-6.108-0.39-9.692L556.004,10.63z"/>
					<path fill="#FFFFFF" d="M567.673,10.874c2.911,0,4.367,1.442,4.367,4.325c0,0.351-0.021,0.727-0.062,1.127h-5.627
						c0,1.607,0.416,2.411,1.246,2.411h0.088c0.73-0.044,1.096-0.46,1.096-1.248c0-0.169-0.017-0.356-0.051-0.563l2.996-0.047
						c0,2.384-1.397,3.591-4.191,3.622c-0.034,0.007-0.063,0.01-0.088,0.01c-2.66,0-3.99-1.505-3.99-4.514v-0.281
						C563.539,12.488,564.945,10.874,567.673,10.874z M566.049,14.6h2.845v-0.226c0-1.139-0.433-1.708-1.297-1.708
						C566.665,12.666,566.149,13.311,566.049,14.6z"/>
					<path fill="#FFFFFF" d="M572.834,17.18l2.883-0.104v0.122c0,0.964,0.398,1.451,1.195,1.464h0.051
						c0.771,0,1.157-0.278,1.157-0.835v-0.065c-0.033-0.613-0.795-1.107-2.284-1.482c-1.489-0.376-2.386-1.008-2.688-1.896
						c-0.109-0.313-0.163-0.613-0.163-0.901c0-0.525,0.18-1.013,0.541-1.464c0.554-0.688,1.393-1.082,2.518-1.182
						c0.302-0.025,0.596-0.038,0.881-0.038c0.747,0,1.405,0.098,1.977,0.291c0.78,0.27,1.321,0.654,1.623,1.154
						c0.201,0.344,0.303,0.726,0.303,1.145c0,0.2-0.021,0.407-0.063,0.619l-2.693,0.047c0.025-0.156,0.037-0.3,0.037-0.432
						c0-0.625-0.269-0.96-0.805-1.004c-0.06-0.006-0.118-0.009-0.177-0.009c-0.554,0-0.927,0.209-1.12,0.628
						c-0.067,0.145-0.101,0.275-0.101,0.395c0,0.294,0.185,0.548,0.554,0.76c0.521,0.301,1.29,0.605,2.31,0.915
						s1.706,0.837,2.059,1.581c0.125,0.281,0.188,0.562,0.188,0.845c0,0.476-0.185,0.954-0.554,1.436
						c-0.588,0.77-1.498,1.217-2.731,1.342c-0.269,0.031-0.533,0.047-0.793,0.047c-0.924,0-1.779-0.179-2.568-0.535
						C573.362,19.566,572.851,18.618,572.834,17.18z"/>
					<path fill="#FFFFFF" d="M596.888,7.056c-0.101,4.21-0.197,8.745-0.289,13.604h-2.857v-5.47h-3.588v5.029l-3.436-0.01
						c0.101-2.295,0.15-4.541,0.15-6.736c0-2.189-0.05-4.329-0.15-6.418h3.285l-0.139,5.47l3.587,0.113V6.83L596.888,7.056z"/>
					<path fill="#FFFFFF" d="M601.52,8.716c0,0.382-0.181,0.707-0.542,0.977c-0.36,0.269-0.797,0.403-1.309,0.403
						c-0.504,0-0.936-0.135-1.297-0.403c-0.36-0.27-0.541-0.595-0.541-0.977c0-0.375,0.181-0.697,0.541-0.966
						c0.361-0.27,0.793-0.403,1.297-0.403c0.512,0,0.948,0.134,1.309,0.403C601.339,8.019,601.52,8.341,601.52,8.716z
						 M598.146,20.558c-0.059-3.659-0.088-6.821-0.088-9.486l3.172-0.141c-0.101,2.552-0.151,5.089-0.151,7.609
						c0,0.676,0.005,1.348,0.013,2.018H598.146z"/>
					<path fill="#FFFFFF" d="M602.287,24.254c0.05-2.107,0.075-4.35,0.075-6.728c0-2.164-0.021-4.435-0.062-6.812l2.983-0.01
						l0.101,1.445c0.62-0.7,1.447-1.051,2.479-1.051c2.576,0,3.864,1.517,3.864,4.551v0.188c-0.059,3.04-1.343,4.56-3.852,4.56
						c-0.101,0-0.202-0.003-0.303-0.009c-0.855-0.031-1.548-0.379-2.076-1.042c0,1.389,0.046,3.024,0.138,4.907H602.287z
						 M605.434,14.074l0.063,3.527c0.486,0.494,0.978,0.741,1.473,0.741c0.201,0,0.402-0.044,0.604-0.131
						c0.613-0.25,0.919-0.998,0.919-2.243c0-0.149-0.004-0.306-0.013-0.469c-0.084-1.526-0.49-2.33-1.221-2.411
						c-0.075-0.007-0.146-0.01-0.214-0.01C606.407,13.079,605.87,13.411,605.434,14.074z"/>
					<path fill="#FFFFFF" d="M616.813,10.874c2.911,0,4.367,1.442,4.367,4.325c0,0.351-0.021,0.727-0.062,1.127h-5.627
						c0,1.607,0.416,2.411,1.246,2.411h0.088c0.73-0.044,1.096-0.46,1.096-1.248c0-0.169-0.017-0.356-0.051-0.563l2.996-0.047
						c0,2.384-1.397,3.591-4.191,3.622c-0.034,0.007-0.063,0.01-0.088,0.01c-2.66,0-3.99-1.505-3.99-4.514v-0.281
						C612.68,12.488,614.086,10.874,616.813,10.874z M615.189,14.6h2.845v-0.226c0-1.139-0.433-1.708-1.297-1.708
						C615.806,12.666,615.29,13.311,615.189,14.6z"/>
					<path fill="#FFFFFF" d="M625.473,13.783l0.126,6.803l-3.084,0.019c0-2.878-0.13-6.108-0.39-9.692l2.315-0.188l0.126,1.529
						c0.353-0.751,1.175-1.18,2.467-1.286c0.193-0.013,0.378-0.019,0.554-0.019c1.016,0,1.788,0.247,2.316,0.741
						c0.612,0.588,0.923,1.523,0.932,2.806l-2.794,0.206c0.008-0.106,0.012-0.209,0.012-0.31c0-1-0.348-1.501-1.044-1.501h-0.051
						C626.152,12.923,625.657,13.22,625.473,13.783z"/>
					<path fill="#FFFFFF" d="M636.55,10.603c2.761,0.112,4.141,1.147,4.141,3.105v6.662l-2.933,0.037l-0.101-0.892
						c-0.604,0.514-1.405,0.77-2.404,0.77c-0.428,0-0.89-0.05-1.385-0.15c-1.485-0.274-2.228-1.132-2.228-2.57
						c0-0.176,0.013-0.363,0.038-0.563c0.167-1.482,1.581-2.224,4.241-2.224c0.512,0,1.074,0.028,1.687,0.085v-1.089
						c0-0.882-0.373-1.323-1.12-1.323h-0.05c-0.06-0.006-0.113-0.009-0.164-0.009c-0.813,0-1.221,0.494-1.221,1.482v0.141
						l-2.996-0.188c0-2.184,1.41-3.274,4.229-3.274H636.55z M637.606,18.015v-1.651c-0.36-0.057-0.688-0.084-0.981-0.084
						c-0.764,0-1.284,0.19-1.561,0.572c-0.168,0.231-0.252,0.447-0.252,0.646c0,0.251,0.134,0.473,0.402,0.667
						c0.21,0.149,0.482,0.225,0.818,0.225C636.461,18.39,636.985,18.265,637.606,18.015z"/>
					<path fill="#FFFFFF" d="M646.846,16.645l2.996,0.141c0,2.259-1.397,3.403-4.191,3.435c-0.034,0.006-0.063,0.009-0.088,0.009
						c-2.66,0-3.99-1.504-3.99-4.513v-0.281c0.083-3.228,1.502-4.857,4.254-4.889h0.101c2.534,0,3.802,1.082,3.802,3.246
						c0,0.126-0.005,0.251-0.013,0.376l-2.706,0.149v-0.225c0-1.139-0.433-1.708-1.297-1.708c-0.881,0-1.321,0.923-1.321,2.768
						v0.311c0.05,1.995,0.495,2.992,1.334,2.992h0.075c0.73-0.043,1.096-0.459,1.096-1.247
						C646.896,17.039,646.88,16.852,646.846,16.645z"/>
					<path fill="#FFFFFF" d="M652.988,7.881l2.857-0.141v3.105l2.404-0.047l0.037,1.773l-2.441,0.085v4.269
						c0,0.995,0.566,1.492,1.699,1.492c0.234,0,0.491-0.021,0.768-0.065l-0.113,2.064c-0.402,0.037-0.784,0.056-1.146,0.056
						c-2.651,0-4.002-1.02-4.053-3.059v-4.588l-2.064,0.094l-0.05-2.093l2.114,0.019L652.988,7.881z"/>
					<path fill="#FFFFFF" d="M662.857,8.716c0,0.382-0.181,0.707-0.542,0.977c-0.36,0.269-0.797,0.403-1.309,0.403
						c-0.504,0-0.936-0.135-1.297-0.403c-0.36-0.27-0.541-0.595-0.541-0.977c0-0.375,0.181-0.697,0.541-0.966
						c0.361-0.27,0.793-0.403,1.297-0.403c0.512,0,0.948,0.134,1.309,0.403C662.677,8.019,662.857,8.341,662.857,8.716z
						 M659.483,20.558c-0.059-3.659-0.088-6.821-0.088-9.486l3.172-0.141c-0.101,2.552-0.151,5.089-0.151,7.609
						c0,0.676,0.005,1.348,0.013,2.018H659.483z"/>
					<path fill="#FFFFFF" d="M665.891,20.267c-1.058-3.622-2.006-6.73-2.845-9.327l3.059-0.121l1.548,6.821
						c0.806-2.553,1.448-4.88,1.927-6.981l3.008,0.281c-0.948,2.621-2.052,5.718-3.311,9.289L665.891,20.267z"/>
					<path fill="#FFFFFF" d="M677.924,10.603c2.761,0.112,4.141,1.147,4.141,3.105v6.662l-2.933,0.037l-0.101-0.892
						c-0.604,0.514-1.405,0.77-2.404,0.77c-0.428,0-0.89-0.05-1.385-0.15c-1.485-0.274-2.228-1.132-2.228-2.57
						c0-0.176,0.013-0.363,0.038-0.563c0.167-1.482,1.581-2.224,4.241-2.224c0.512,0,1.074,0.028,1.687,0.085v-1.089
						c0-0.882-0.373-1.323-1.12-1.323h-0.05c-0.06-0.006-0.113-0.009-0.164-0.009c-0.813,0-1.221,0.494-1.221,1.482v0.141
						l-2.996-0.188c0-2.184,1.41-3.274,4.229-3.274H677.924z M678.98,18.015v-1.651c-0.36-0.057-0.688-0.084-0.981-0.084
						c-0.764,0-1.284,0.19-1.561,0.572c-0.168,0.231-0.252,0.447-0.252,0.646c0,0.251,0.134,0.473,0.402,0.667
						c0.21,0.149,0.482,0.225,0.818,0.225C677.835,18.39,678.359,18.265,678.98,18.015z"/>
					<path fill="#FFFFFF" d="M682.921,17.18l2.883-0.104v0.122c0,0.964,0.398,1.451,1.195,1.464h0.051
						c0.771,0,1.157-0.278,1.157-0.835v-0.065c-0.033-0.613-0.795-1.107-2.284-1.482c-1.489-0.376-2.386-1.008-2.688-1.896
						c-0.109-0.313-0.163-0.613-0.163-0.901c0-0.525,0.18-1.013,0.541-1.464c0.554-0.688,1.393-1.082,2.518-1.182
						c0.302-0.025,0.596-0.038,0.881-0.038c0.747,0,1.405,0.098,1.977,0.291c0.78,0.27,1.321,0.654,1.623,1.154
						c0.201,0.344,0.303,0.726,0.303,1.145c0,0.2-0.021,0.407-0.063,0.619l-2.693,0.047c0.025-0.156,0.037-0.3,0.037-0.432
						c0-0.625-0.269-0.96-0.805-1.004c-0.06-0.006-0.118-0.009-0.177-0.009c-0.554,0-0.927,0.209-1.12,0.628
						c-0.067,0.145-0.101,0.275-0.101,0.395c0,0.294,0.185,0.548,0.554,0.76c0.521,0.301,1.29,0.605,2.31,0.915
						s1.706,0.837,2.059,1.581c0.125,0.281,0.188,0.562,0.188,0.845c0,0.476-0.185,0.954-0.554,1.436
						c-0.588,0.77-1.498,1.217-2.731,1.342c-0.269,0.031-0.533,0.047-0.793,0.047c-0.924,0-1.779-0.179-2.568-0.535
						C683.449,19.566,682.938,18.618,682.921,17.18z"/>
				</g>
			</g>
		</g>
		<g>
			<polygon fill-rule="evenodd" clip-rule="evenodd" fill="#646663" points="943.551,28.342 715.965,28.342 696.461,0 924.047,0 			
				"/>
			<g>
				<g>
					<path fill="#FFFFFF" d="M727.835,20.379c0.05-1.789,0.075-3.59,0.075-5.404c0-2.777-0.059-5.583-0.176-8.416
						c1.301-0.101,2.467-0.15,3.499-0.15c2.87,0,4.699,0.391,5.488,1.173c0.738,0.731,1.107,1.538,1.107,2.421
						c0,0.4-0.071,0.812-0.214,1.238c-0.487,1.376-1.511,2.249-3.071,2.618c1.091,0.112,1.917,0.55,2.479,1.313
						c0.537,0.738,0.806,2.596,0.806,5.573v0.403l-3.802,0.037c0.042-0.788,0.063-1.494,0.063-2.12c0-1.896-0.206-3.056-0.617-3.481
						c-0.47-0.475-1.028-0.713-1.674-0.713c-0.126,0-0.256,0.01-0.391,0.028c0.051,1.908,0.159,3.716,0.327,5.423L727.835,20.379z
						 M731.057,8.744l0.089,4.016c1.561-0.056,2.551-0.45,2.971-1.182c0.227-0.388,0.34-0.767,0.34-1.136
						c0-0.318-0.084-0.632-0.252-0.938c-0.303-0.531-1.054-0.797-2.253-0.797C731.674,8.707,731.376,8.72,731.057,8.744z"/>
					<path fill="#FFFFFF" d="M742.99,10.874c2.911,0,4.367,1.442,4.367,4.325c0,0.351-0.021,0.727-0.062,1.127h-5.627
						c0,1.607,0.416,2.411,1.246,2.411h0.088c0.73-0.044,1.096-0.46,1.096-1.248c0-0.169-0.017-0.356-0.051-0.563l2.996-0.047
						c0,2.384-1.397,3.591-4.191,3.622c-0.034,0.007-0.063,0.01-0.088,0.01c-2.66,0-3.99-1.505-3.99-4.514v-0.281
						C738.856,12.488,740.263,10.874,742.99,10.874z M741.366,14.6h2.845v-0.226c0-1.139-0.433-1.708-1.297-1.708
						C741.982,12.666,741.467,13.311,741.366,14.6z"/>
					<path fill="#FFFFFF" d="M753.173,10.603c2.761,0.112,4.141,1.147,4.141,3.105v6.662l-2.933,0.037l-0.101-0.892
						c-0.604,0.514-1.405,0.77-2.404,0.77c-0.428,0-0.89-0.05-1.385-0.15c-1.485-0.274-2.228-1.132-2.228-2.57
						c0-0.176,0.013-0.363,0.038-0.563c0.167-1.482,1.581-2.224,4.241-2.224c0.512,0,1.074,0.028,1.687,0.085v-1.089
						c0-0.882-0.373-1.323-1.12-1.323h-0.05c-0.06-0.006-0.113-0.009-0.164-0.009c-0.813,0-1.221,0.494-1.221,1.482v0.141
						l-2.996-0.188c0-2.184,1.41-3.274,4.229-3.274H753.173z M754.229,18.015v-1.651c-0.36-0.057-0.688-0.084-0.981-0.084
						c-0.764,0-1.284,0.19-1.561,0.572c-0.168,0.231-0.252,0.447-0.252,0.646c0,0.251,0.134,0.473,0.402,0.667
						c0.21,0.149,0.482,0.225,0.818,0.225C753.084,18.39,753.608,18.265,754.229,18.015z"/>
					<path fill="#FFFFFF" d="M763.469,16.645l2.996,0.141c0,2.259-1.397,3.403-4.191,3.435c-0.034,0.006-0.063,0.009-0.088,0.009
						c-2.66,0-3.99-1.504-3.99-4.513v-0.281c0.083-3.228,1.502-4.857,4.254-4.889h0.101c2.534,0,3.802,1.082,3.802,3.246
						c0,0.126-0.005,0.251-0.013,0.376l-2.706,0.149v-0.225c0-1.139-0.433-1.708-1.297-1.708c-0.881,0-1.321,0.923-1.321,2.768
						v0.311c0.05,1.995,0.495,2.992,1.334,2.992h0.075c0.73-0.043,1.096-0.459,1.096-1.247
						C763.52,17.039,763.503,16.852,763.469,16.645z"/>
					<path fill="#FFFFFF" d="M772.657,16.645l2.996,0.141c0,2.259-1.397,3.403-4.191,3.435c-0.034,0.006-0.063,0.009-0.088,0.009
						c-2.66,0-3.99-1.504-3.99-4.513v-0.281c0.083-3.228,1.502-4.857,4.254-4.889h0.101c2.534,0,3.802,1.082,3.802,3.246
						c0,0.126-0.005,0.251-0.013,0.376l-2.706,0.149v-0.225c0-1.139-0.433-1.708-1.297-1.708c-0.881,0-1.321,0.923-1.321,2.768
						v0.311c0.05,1.995,0.495,2.992,1.334,2.992h0.075c0.73-0.043,1.096-0.459,1.096-1.247
						C772.708,17.039,772.691,16.852,772.657,16.645z"/>
					<path fill="#FFFFFF" d="M780.223,8.716c0,0.382-0.181,0.707-0.542,0.977c-0.36,0.269-0.797,0.403-1.309,0.403
						c-0.504,0-0.936-0.135-1.297-0.403c-0.36-0.27-0.541-0.595-0.541-0.977c0-0.375,0.181-0.697,0.541-0.966
						c0.361-0.27,0.793-0.403,1.297-0.403c0.512,0,0.948,0.134,1.309,0.403C780.042,8.019,780.223,8.341,780.223,8.716z
						 M776.849,20.558c-0.059-3.659-0.088-6.821-0.088-9.486l3.172-0.141c-0.101,2.552-0.151,5.089-0.151,7.609
						c0,0.676,0.005,1.348,0.013,2.018H776.849z"/>
					<path fill="#FFFFFF" d="M785.346,10.874c2.853,0,4.279,1.477,4.279,4.429c0,0.119-0.005,0.238-0.013,0.356
						c-0.117,3.196-1.637,4.811-4.557,4.842c-0.033,0.007-0.067,0.01-0.101,0.01c-2.777,0-4.166-1.511-4.166-4.532v-0.263
						C780.872,12.488,782.392,10.874,785.346,10.874z M784.93,13.014c-0.528,0.138-0.89,0.647-1.082,1.529
						c-0.118,0.525-0.177,1.054-0.177,1.586c0,0.356,0.025,0.716,0.076,1.079c0.134,0.9,0.566,1.366,1.296,1.397h0.088
						c0.68,0,1.146-0.334,1.397-1.004c0.21-0.557,0.314-1.217,0.314-1.979c0-0.188-0.004-0.379-0.012-0.572
						c-0.067-1.007-0.27-1.636-0.604-1.886c-0.21-0.15-0.462-0.226-0.756-0.226C785.303,12.938,785.123,12.964,784.93,13.014z"/>
					<path fill="#FFFFFF" d="M792.633,10.63l0.126,1.53c0.353-0.813,1.279-1.227,2.782-1.239h0.05c1.477,0,2.484,0.432,3.021,1.295
						c0.369,0.588,0.554,1.965,0.554,4.129c0,1.063-0.047,2.32-0.139,3.771h-3.046c0.108-1.933,0.163-3.431,0.163-4.494
						c0-0.532-0.013-0.957-0.037-1.276c-0.084-0.938-0.487-1.407-1.209-1.407s-1.175,0.25-1.359,0.751l0.126,6.803l-2.958,0.019
						c0-2.878-0.13-6.108-0.39-9.692L792.633,10.63z"/>
					<path fill="#FFFFFF" d="M804.302,10.874c2.911,0,4.367,1.442,4.367,4.325c0,0.351-0.021,0.727-0.062,1.127h-5.627
						c0,1.607,0.416,2.411,1.246,2.411h0.088c0.73-0.044,1.096-0.46,1.096-1.248c0-0.169-0.017-0.356-0.051-0.563l2.996-0.047
						c0,2.384-1.397,3.591-4.191,3.622c-0.034,0.007-0.063,0.01-0.088,0.01c-2.66,0-3.99-1.505-3.99-4.514v-0.281
						C800.168,12.488,801.574,10.874,804.302,10.874z M802.678,14.6h2.845v-0.226c0-1.139-0.433-1.708-1.297-1.708
						C803.294,12.666,802.778,13.311,802.678,14.6z"/>
					<path fill="#FFFFFF" d="M809.463,17.18l2.883-0.104v0.122c0,0.964,0.398,1.451,1.195,1.464h0.051
						c0.771,0,1.157-0.278,1.157-0.835v-0.065c-0.033-0.613-0.795-1.107-2.284-1.482c-1.489-0.376-2.386-1.008-2.688-1.896
						c-0.109-0.313-0.163-0.613-0.163-0.901c0-0.525,0.18-1.013,0.541-1.464c0.554-0.688,1.393-1.082,2.518-1.182
						c0.302-0.025,0.596-0.038,0.881-0.038c0.747,0,1.405,0.098,1.977,0.291c0.78,0.27,1.321,0.654,1.623,1.154
						c0.201,0.344,0.303,0.726,0.303,1.145c0,0.2-0.021,0.407-0.063,0.619l-2.693,0.047c0.025-0.156,0.037-0.3,0.037-0.432
						c0-0.625-0.269-0.96-0.805-1.004c-0.06-0.006-0.118-0.009-0.177-0.009c-0.554,0-0.927,0.209-1.12,0.628
						c-0.067,0.145-0.101,0.275-0.101,0.395c0,0.294,0.185,0.548,0.554,0.76c0.521,0.301,1.29,0.605,2.31,0.915
						s1.706,0.837,2.059,1.581c0.125,0.281,0.188,0.562,0.188,0.845c0,0.476-0.185,0.954-0.554,1.436
						c-0.588,0.77-1.498,1.217-2.731,1.342c-0.269,0.031-0.533,0.047-0.793,0.047c-0.924,0-1.779-0.179-2.568-0.535
						C809.991,19.566,809.479,18.618,809.463,17.18z"/>
					<path fill="#FFFFFF" d="M833.014,11.803l-2.795,0.01V11.56c0-1.47-0.554-2.205-1.661-2.205c-1.184,0-1.775,1.357-1.775,4.072
						c0,3.059,0.621,4.588,1.863,4.588h0.013c1.242-0.006,1.863-0.757,1.863-2.252v-0.929h3.121v0.703
						c0,3.115-1.716,4.745-5.148,4.889c-0.101,0.007-0.201,0.01-0.302,0.01c-3.23,0-4.846-2.314-4.846-6.943
						c0-4.529,1.661-6.793,4.984-6.793c3.13,0,4.695,1.514,4.695,4.541C833.026,11.422,833.021,11.609,833.014,11.803z"/>
					<path fill="#FFFFFF" d="M838.816,10.874c2.853,0,4.279,1.477,4.279,4.429c0,0.119-0.005,0.238-0.013,0.356
						c-0.117,3.196-1.637,4.811-4.557,4.842c-0.033,0.007-0.067,0.01-0.101,0.01c-2.777,0-4.166-1.511-4.166-4.532v-0.263
						C834.343,12.488,835.862,10.874,838.816,10.874z M838.4,13.014c-0.528,0.138-0.89,0.647-1.082,1.529
						c-0.118,0.525-0.177,1.054-0.177,1.586c0,0.356,0.025,0.716,0.076,1.079c0.134,0.9,0.566,1.366,1.296,1.397h0.088
						c0.68,0,1.146-0.334,1.397-1.004c0.21-0.557,0.314-1.217,0.314-1.979c0-0.188-0.004-0.379-0.012-0.572
						c-0.067-1.007-0.27-1.636-0.604-1.886c-0.21-0.15-0.462-0.226-0.756-0.226C838.773,12.938,838.594,12.964,838.4,13.014z"/>
					<path fill="#FFFFFF" d="M847.136,13.783l0.126,6.803l-3.084,0.019c0-2.878-0.13-6.108-0.39-9.692l2.315-0.188l0.126,1.529
						c0.353-0.751,1.175-1.18,2.467-1.286c0.193-0.013,0.378-0.019,0.554-0.019c1.016,0,1.788,0.247,2.316,0.741
						c0.612,0.588,0.923,1.523,0.932,2.806l-2.794,0.206c0.008-0.106,0.012-0.209,0.012-0.31c0-1-0.348-1.501-1.044-1.501h-0.051
						C847.815,12.923,847.32,13.22,847.136,13.783z"/>
					<path fill="#FFFFFF" d="M853.417,24.254c0.05-2.107,0.075-4.35,0.075-6.728c0-2.164-0.021-4.435-0.062-6.812l2.983-0.01
						l0.101,1.445c0.62-0.7,1.447-1.051,2.479-1.051c2.576,0,3.864,1.517,3.864,4.551v0.188c-0.059,3.04-1.343,4.56-3.852,4.56
						c-0.101,0-0.202-0.003-0.303-0.009c-0.855-0.031-1.548-0.379-2.076-1.042c0,1.389,0.046,3.024,0.138,4.907H853.417z
						 M856.563,14.074l0.063,3.527c0.486,0.494,0.978,0.741,1.473,0.741c0.201,0,0.402-0.044,0.604-0.131
						c0.613-0.25,0.919-0.998,0.919-2.243c0-0.149-0.004-0.306-0.013-0.469c-0.084-1.526-0.49-2.33-1.221-2.411
						c-0.075-0.007-0.146-0.01-0.214-0.01C857.537,13.079,857,13.411,856.563,14.074z"/>
					<path fill="#FFFFFF" d="M868.282,10.874c2.853,0,4.279,1.477,4.279,4.429c0,0.119-0.005,0.238-0.013,0.356
						c-0.117,3.196-1.637,4.811-4.557,4.842c-0.033,0.007-0.067,0.01-0.101,0.01c-2.777,0-4.166-1.511-4.166-4.532v-0.263
						C863.809,12.488,865.328,10.874,868.282,10.874z M867.866,13.014c-0.528,0.138-0.89,0.647-1.082,1.529
						c-0.118,0.525-0.177,1.054-0.177,1.586c0,0.356,0.025,0.716,0.076,1.079c0.134,0.9,0.566,1.366,1.296,1.397h0.088
						c0.68,0,1.146-0.334,1.397-1.004c0.21-0.557,0.314-1.217,0.314-1.979c0-0.188-0.004-0.379-0.012-0.572
						c-0.067-1.007-0.27-1.636-0.604-1.886c-0.21-0.15-0.462-0.226-0.756-0.226C868.239,12.938,868.06,12.964,867.866,13.014z"/>
					<path fill="#FFFFFF" d="M876.602,13.783l0.126,6.803l-3.084,0.019c0-2.878-0.13-6.108-0.39-9.692l2.315-0.188l0.126,1.529
						c0.353-0.751,1.175-1.18,2.467-1.286c0.193-0.013,0.378-0.019,0.554-0.019c1.016,0,1.788,0.247,2.316,0.741
						c0.612,0.588,0.923,1.523,0.932,2.806l-2.794,0.206c0.008-0.106,0.012-0.209,0.012-0.31c0-1-0.348-1.501-1.044-1.501h-0.051
						C877.281,12.923,876.786,13.22,876.602,13.783z"/>
					<path fill="#FFFFFF" d="M887.679,10.603c2.761,0.112,4.141,1.147,4.141,3.105v6.662l-2.933,0.037l-0.101-0.892
						c-0.604,0.514-1.405,0.77-2.404,0.77c-0.428,0-0.89-0.05-1.385-0.15c-1.485-0.274-2.228-1.132-2.228-2.57
						c0-0.176,0.013-0.363,0.038-0.563c0.167-1.482,1.581-2.224,4.241-2.224c0.512,0,1.074,0.028,1.687,0.085v-1.089
						c0-0.882-0.373-1.323-1.12-1.323h-0.05c-0.06-0.006-0.113-0.009-0.164-0.009c-0.813,0-1.221,0.494-1.221,1.482v0.141
						l-2.996-0.188c0-2.184,1.41-3.274,4.229-3.274H887.679z M888.735,18.015v-1.651c-0.36-0.057-0.688-0.084-0.981-0.084
						c-0.764,0-1.284,0.19-1.561,0.572c-0.168,0.231-0.252,0.447-0.252,0.646c0,0.251,0.134,0.473,0.402,0.667
						c0.21,0.149,0.482,0.225,0.818,0.225C887.59,18.39,888.114,18.265,888.735,18.015z"/>
					<path fill="#FFFFFF" d="M896.363,20.351l-3.134,0.216c0.033-2.07,0.051-4.062,0.051-5.977c0-2.689-0.034-5.227-0.102-7.609
						l3.084-0.038c-0.033,1.533-0.05,3.106-0.05,4.72C896.213,14.446,896.263,17.342,896.363,20.351z"/>
					<path fill="#FFFFFF" d="M901.538,10.874c2.911,0,4.367,1.442,4.367,4.325c0,0.351-0.021,0.727-0.062,1.127h-5.627
						c0,1.607,0.416,2.411,1.246,2.411h0.088c0.73-0.044,1.096-0.46,1.096-1.248c0-0.169-0.017-0.356-0.051-0.563l2.996-0.047
						c0,2.384-1.397,3.591-4.191,3.622c-0.034,0.007-0.063,0.01-0.088,0.01c-2.66,0-3.99-1.505-3.99-4.514v-0.281
						C897.404,12.488,898.811,10.874,901.538,10.874z M899.914,14.6h2.845v-0.226c0-1.139-0.433-1.708-1.297-1.708
						C900.53,12.666,900.015,13.311,899.914,14.6z"/>
					<path fill="#FFFFFF" d="M906.698,17.18l2.883-0.104v0.122c0,0.964,0.398,1.451,1.195,1.464h0.051
						c0.771,0,1.157-0.278,1.157-0.835v-0.065c-0.033-0.613-0.795-1.107-2.284-1.482c-1.489-0.376-2.386-1.008-2.688-1.896
						c-0.109-0.313-0.163-0.613-0.163-0.901c0-0.525,0.18-1.013,0.541-1.464c0.554-0.688,1.393-1.082,2.518-1.182
						c0.302-0.025,0.596-0.038,0.881-0.038c0.747,0,1.405,0.098,1.977,0.291c0.78,0.27,1.321,0.654,1.623,1.154
						c0.201,0.344,0.303,0.726,0.303,1.145c0,0.2-0.021,0.407-0.063,0.619l-2.693,0.047c0.025-0.156,0.037-0.3,0.037-0.432
						c0-0.625-0.269-0.96-0.805-1.004c-0.06-0.006-0.118-0.009-0.177-0.009c-0.554,0-0.927,0.209-1.12,0.628
						c-0.067,0.145-0.101,0.275-0.101,0.395c0,0.294,0.185,0.548,0.554,0.76c0.521,0.301,1.29,0.605,2.31,0.915
						s1.706,0.837,2.059,1.581c0.125,0.281,0.188,0.562,0.188,0.845c0,0.476-0.185,0.954-0.554,1.436
						c-0.588,0.77-1.498,1.217-2.731,1.342c-0.269,0.031-0.533,0.047-0.793,0.047c-0.924,0-1.779-0.179-2.568-0.535
						C907.227,19.566,906.715,18.618,906.698,17.18z"/>
				</g>
			</g>
		</g>
	</g>
</g>
</svg>
