<?xml version="1.0" encoding="utf-8"?>
<!-- Generator: Adobe Illustrator 16.0.0, SVG Export Plug-In . SVG Version: 6.00 Build 0)  -->
<!DOCTYPE svg PUBLIC "-//W3C//DTD SVG 1.1//EN" "http://www.w3.org/Graphics/SVG/1.1/DTD/svg11.dtd">
<svg version="1.1" id="Capa_1" xmlns="http://www.w3.org/2000/svg" xmlns:xlink="http://www.w3.org/1999/xlink" x="0px" y="0px"
	 width="29.678px" height="31.376px" viewBox="0 0 29.678 31.376" enable-background="new 0 0 29.678 31.376" xml:space="preserve">
<g>
	<path fill-rule="evenodd" clip-rule="evenodd" fill="#3B3C39" d="M29.678,15.689c0-0.035-0.001-0.068-0.002-0.102
		c-0.012-0.576-0.137-1.141-0.381-1.631c-0.092-0.197-0.201-0.387-0.327-0.561c-0.146-0.197-0.328-0.373-0.542-0.523
		c-0.928-0.768-2.188-0.965-3.482-0.51c-0.601,0.211-0.891,0.18-1.004-0.191c-0.023-0.127-0.035-0.281-0.035-0.473
		c-0.003-1.477,0.014-2.953,0.016-4.432c0.002-0.461-0.012-0.725-0.121-0.877c-0.117-0.258-0.365-0.357-0.779-0.352
		c-1.582,0.027-3.163,0.012-4.744,0.031c-0.085,0.002-0.16,0.006-0.23,0.01c-0.418-0.156-0.449-0.523-0.194-1.246
		c0.556-1.572,0.085-3.213-1.196-4.172c-1.15-0.859-2.908-0.885-4.084-0.057c-1.316,0.928-1.827,2.529-1.317,4.135
		c0.276,0.869,0.262,1.227-0.247,1.352C9.562,6.084,8.119,6.078,6.676,6.1C6.51,6.098,6.344,6.094,6.179,6.092
		C6.048,6.09,5.93,6.098,5.825,6.115c-0.006,0-0.011,0-0.017,0c-0.029,0-0.061,0.012-0.093,0.025
		c-0.31,0.094-0.468,0.332-0.448,0.85c0.003,0.074,0.005,0.15,0.008,0.225c-0.02,0.693,0,1.391,0,2.086
		c0,0.82-0.027,1.645,0.008,2.465c0,0.086-0.001,0.166-0.004,0.236c-0.028,0.342-0.184,0.5-0.445,0.545
		c-0.138-0.004-0.316-0.021-0.553-0.047c-0.201-0.021-0.403-0.027-0.604-0.031c-0.244-0.018-0.485-0.025-0.726-0.014
		c-0.004,0-0.008,0-0.01,0c-0.49,0.027-0.973,0.131-1.439,0.387C0.555,13.355-0.017,14.475,0,15.654c0,0.012,0,0.023,0,0.035
		c0,0.01,0,0.021,0,0.031c-0.017,1.182,0.555,2.301,1.502,2.814c0.467,0.254,0.949,0.359,1.439,0.385
		c0.002,0.002,0.006,0.002,0.01,0.002c0.24,0.012,0.481,0.004,0.726-0.014c0.201-0.004,0.403-0.01,0.604-0.031
		c0.236-0.025,0.415-0.045,0.553-0.047c0.262,0.045,0.417,0.203,0.445,0.545c0.003,0.07,0.004,0.15,0.004,0.236
		c-0.035,0.822-0.008,1.645-0.008,2.467c0,0.695-0.02,1.391,0,2.084c-0.003,0.074-0.005,0.148-0.008,0.225
		c-0.02,0.516,0.139,0.756,0.448,0.85c0.032,0.016,0.063,0.023,0.093,0.025c0.006,0,0.011,0,0.017,0
		c0.104,0.02,0.223,0.025,0.354,0.023c0.165-0.004,0.331-0.006,0.497-0.008c1.443,0.021,2.886,0.016,4.33,0.006
		c0.509,0.127,0.523,0.482,0.247,1.354c-0.51,1.605,0.001,3.207,1.317,4.135c1.176,0.828,2.934,0.803,4.084-0.059
		c1.281-0.957,1.752-2.598,1.196-4.17c-0.255-0.723-0.224-1.09,0.194-1.248c0.07,0.008,0.146,0.01,0.23,0.012
		c1.581,0.018,3.162,0.004,4.744,0.029c0.414,0.008,0.662-0.092,0.779-0.348c0.109-0.154,0.123-0.418,0.121-0.879
		c-0.002-1.477-0.019-2.955-0.016-4.434c0-0.189,0.012-0.344,0.035-0.473c0.113-0.369,0.403-0.4,1.004-0.189
		c1.294,0.455,2.555,0.258,3.482-0.51c0.214-0.15,0.396-0.326,0.542-0.523c0.126-0.174,0.235-0.363,0.327-0.561
		c0.244-0.49,0.369-1.055,0.381-1.631C29.677,15.756,29.678,15.723,29.678,15.689z"/>
</g>
</svg>
