<?xml version="1.0" encoding="utf-8"?>
<!-- Generator: Adobe Illustrator 16.0.0, SVG Export Plug-In . SVG Version: 6.00 Build 0)  -->
<!DOCTYPE svg PUBLIC "-//W3C//DTD SVG 1.1//EN" "http://www.w3.org/Graphics/SVG/1.1/DTD/svg11.dtd">
<svg version="1.1" id="Capa_1" xmlns="http://www.w3.org/2000/svg" xmlns:xlink="http://www.w3.org/1999/xlink" x="0px" y="0px"
	 width="282.54px" height="141.344px" viewBox="0 0 282.54 141.344" enable-background="new 0 0 282.54 141.344"
	 xml:space="preserve">
<g>
	<path fill-rule="evenodd" clip-rule="evenodd" fill="#FFFFFF" d="M274.838,84.609c3.884-5.917,3.657-9.697-0.849-16.336
		c-0.998,2.297-2.055,4.516-2.926,6.872c-0.244,0.663-0.162,1.933,0.142,2.573C272.298,80.037,273.551,82.207,274.838,84.609z"/>
	<path fill-rule="evenodd" clip-rule="evenodd" fill="#FFFFFF" d="M269.284,78.734c-1.129,1.723-2.176,3.169-3.071,4.784
		c-0.246,0.444-0.203,1.513-0.003,2.093c0.839,2.426,1.788,4.776,2.824,7.488c1.386-1.83,2.707-3.488,3.933-5.279
		c0.243-0.356,0.32-1.424,0.125-1.821C271.907,83.574,270.62,81.247,269.284,78.734z"/>
	<path fill-rule="evenodd" clip-rule="evenodd" fill="#FFFFFF" d="M263.103,99.467c1.574-1.661,2.898-3.059,4.371-4.614
		c-1.078-2.858-2.115-5.607-3.229-8.561c-1.093,1.16-2.123,2.07-2.976,3.244c-0.347,0.479-0.553,1.646-0.395,2.287
		C261.482,94.285,262.265,96.66,263.103,99.467z"/>
	<path fill-rule="evenodd" clip-rule="evenodd" fill="#FFFFFF" d="M279.046,73.48c1.756-8.253,2.125-7.451-2.652-14.221
		c-0.451,1.754-0.936,3.38-1.259,5.066c-0.108,0.555,0.09,1.373,0.336,1.895C276.603,68.624,277.798,70.965,279.046,73.48z"/>
	<path fill-rule="evenodd" clip-rule="evenodd" fill="#FFFFFF" d="M280.515,60.873c0.568-4.48,0.233-8.381-2.853-10.862
		C276.464,55.113,276.905,56.819,280.515,60.873z"/>
	<path fill-rule="evenodd" clip-rule="evenodd" fill="#FFFFFF" d="M280.159,48.912c-0.285-6.254-0.436-6.694-2.549-7.496
		C277.091,45.318,277.468,46.428,280.159,48.912z"/>
	<path fill-rule="evenodd" clip-rule="evenodd" fill="#FFFFFF" d="M272.952,22.736c1.057,2.993,2.112,5.987,3.168,8.98
		c0.263-0.205,0.526-0.41,0.789-0.616c-1.17-2.907-2.338-5.815-3.508-8.724C273.253,22.496,273.103,22.617,272.952,22.736z"/>
	<path fill-rule="evenodd" clip-rule="evenodd" fill="#FFFFFF" d="M276.214,34.94c0.588,1.331,1.178,2.663,1.769,3.995
		c0.192-0.17,0.386-0.341,0.579-0.51c-0.265-1.641-0.053-3.682-1.813-4.066C276.569,34.552,276.392,34.747,276.214,34.94z"/>
	<path fill-rule="evenodd" clip-rule="evenodd" fill="#2B1C48" d="M92.709,140.669c-1.096,1.155-1.913,0.832-2.039-1.015
		c-0.252-3.69-1.457-7.026-1.334-10.956c0.142-4.555-0.701-9.164-1.062-13.758c-0.191-2.445-0.865-3.363-2.797-3.377
		c-8.999-0.065-17.801-1.922-25.759-8.297c-8.866-7.101-14.746-17.462-15.628-32.26c-0.702-11.791,3.189-20.998,9.188-28.623
		c6.725-8.549,14.945-12.617,23.63-14.602c20.098-4.594,40.233-8.887,60.376-13.078c18.626-3.875,37.271-7.584,55.931-11.13
		c16.035-3.048,32.127-4.362,48.332-3.095c9.866,0.771,18.792,4.932,27.092,12.273c7.587,6.709,10.812,17.5,12.817,28.941
		c1.104,6.307,1.116,13.113,1.068,19.687c-0.084,11.524-2.93,21.542-9,29.61c-10.888,14.469-23.743,23.22-38.408,26.6
		c-18.167,4.187-36.524,5.331-54.882,6.125c-7.295,0.316-14.604,0.045-21.904-0.098c-4.873-0.096-9.744-0.333-14.609-0.69
		c-4.793-0.354-9.587-0.796-14.362-1.461c-4.733-0.66-9.487-0.786-14.224-1.431c-3.62-0.492-7.302-0.11-10.955-0.09
		c-0.37,0.002-0.75,0.15-1.106,0.314c-0.786,0.359-1.561,0.771-2.339,1.162c-0.896,0.868-0.797,1.9,0.175,2.981
		c0.448,0.501,0.624,1.491,0.924,2.261c-0.583,0.264-1.167,0.527-2.057,0.929C98.507,132.828,96.02,137.179,92.709,140.669z
		 M271.462,30.556c-6.854-16.619-16.949-25.388-30.586-25.916c0.247-0.199,0.484-0.432,0.746-0.588
		c0.25-0.15,0.524-0.222,0.787-0.328c-0.018-0.256-0.033-0.512-0.051-0.769c-7.605,0-15.221-0.346-22.816,0.067
		c-20.271,1.102-40.262,5.847-60.297,9.934c-19.966,4.072-39.929,8.188-59.87,12.486c-9.171,1.977-18.343,4.08-27.414,6.796
		c-6.895,2.065-13.207,6.343-18.38,13.437c-9.986,13.701-10.228,32.422-0.692,46.756c6.099,9.168,13.794,13.699,22.376,15.299
		c4.871,0.907,9.834,0.917,14.76,1.135c1.329,0.057,1.991,0.545,2.254,2.419c0.447,3.187,1.017,6.337,1.824,9.56
		c0.277-3.273,0.605-6.54,0.812-9.822c0.123-1.979,0.646-2.775,2.147-2.746c1.476,0.027,3.198,1.016,4.396-1.293
		c0.092-0.182,0.722-0.128,0.847,0.098c1.016,1.84,2.431,1.273,3.72,1.286c3.978,0.036,7.955,0.036,11.93-0.053
		c0.774-0.017,1.544-0.502,2.317-0.759c0.299-0.1,0.654-0.352,0.897-0.217c3.148,1.74,6.274,0.952,9.477,0.252
		c1.821-0.398,3.752,0.348,5.633,0.342c4.553-0.016,9.105-0.146,13.66-0.273c3.396-0.094,6.795-0.201,10.188-0.428
		c0.661-0.044,1.304-0.664,1.871-0.604c2.546,0.094,5.099,0.405,7.636,0.248c11.462-0.717,22.93-1.361,34.378-2.425
		c10.546-0.981,21.073-2.411,31.602-3.769c2.061-0.266,4.251-0.613,6.077-1.836c1.606-1.076,3.001-1.836,4.84-2.011
		c1.756-0.168,3.974-0.664,4.933-3.72c0.072-0.23,0.472-0.447,0.667-0.379c2.497,0.871,3.905-1.834,5.66-3.393
		c0.898-0.797,1.863-1.473,2.688-2.398c8.556-9.611,13.935-21.762,15.062-37.42c1.531-21.33-9.767-41.713-24.838-44.615
		c-0.182-0.035-0.373,0.035-0.92,0.095C261.075,10.25,270.174,20.839,271.462,30.556z M193.752,108.976
		c-0.171-0.443-0.682-0.899-1.026-0.886c-2.799,0.114-5.594,0.337-8.84,0.558c2.006,4.049,3.803,7.707,5.639,11.327
		c0.145,0.286,0.551,0.426,0.836,0.43c2.354,0.033,4.708,0.019,7.062,0.019c0.087-0.311,0.173-0.622,0.26-0.933
		C196.38,115.98,195.099,112.453,193.752,108.976z M174.005,110.541c-0.242-0.53-0.785-1.088-1.199-1.105
		c-2.475-0.103-4.951-0.051-8.092-0.051c2.305,4.206,4.241,7.781,6.225,11.305c0.199,0.352,0.677,0.535,1.027,0.543
		c2.076,0.051,4.152,0.025,6.754,0.025C176.891,117.072,175.482,113.773,174.005,110.541z M199.713,118.85
		c0.205,0.513,0.933,0.876,1.408,0.853c1.776-0.085,3.548-0.359,5.591-0.595c-0.883-4.142-2.02-7.87-4.051-10.931
		c-0.333-0.502-1.007-0.795-1.516-0.772c-1.764,0.071-3.524,0.323-5.539,0.534C197.022,111.748,198.314,115.342,199.713,118.85z
		 M212.589,106.582c-2.338,0.178-4.856,0.368-7.415,0.562c1.192,3.783,2.265,7.338,3.455,10.812c0.166,0.48,0.923,0.814,1.393,0.785
		c1.913-0.119,3.821-0.406,5.881-0.649C214.769,114.154,213.737,110.568,212.589,106.582z M180.14,119.662
		c0.314,0.684,1.102,1.282,1.683,1.304c1.71,0.063,3.425-0.184,5.577-0.341c-1.193-2.438-2.467-4.372-3.19-6.656
		c-1.727-5.45-4.731-5.771-8.492-4.582C177.226,112.931,178.618,116.355,180.14,119.662z M161.714,120.9c1.855,0,4.206,0,6.896,0
		c-1.901-3.555-3.608-6.887-5.448-10.067c-0.373-0.646-1.238-0.992-1.882-1.005c-1.722-0.032-3.445,0.189-5.647,0.344
		C157.728,113.869,159.604,117.179,161.714,120.9z M217.808,116.648c0.18,0.517,0.893,0.941,1.354,0.93
		c1.271-0.029,2.534-0.312,4.153-0.547c-0.404-3.819-0.791-7.492-1.205-11.398c-2.559,0.256-4.826,0.482-7.598,0.76
		C215.697,110.136,216.692,113.433,217.808,116.648z M252.208,97.027c-2.023,1.066-3.975,2.095-6.149,3.242
		c0.952,3.036,1.893,6.041,2.933,9.359c2.221-1.359,4.414-2.702,6.789-4.156C254.544,102.549,253.405,99.857,252.208,97.027z
		 M231.108,115.712c-0.299-3.346-0.527-6.483-0.902-9.584c-0.069-0.568-0.745-1.428-1.119-1.406c-1.639,0.09-3.27,0.457-4.959,0.732
		c0.368,3.756,0.716,7.304,1.103,11.26C227.224,116.375,229.108,116.054,231.108,115.712z M233.073,115.227
		c2.166-0.546,4.076-1.027,6.23-1.571c-0.523-3.635-1.01-7.02-1.526-10.609c-1.85,0.391-3.587,0.758-5.731,1.211
		C232.394,107.98,232.716,111.417,233.073,115.227z M273.989,68.273c-0.998,2.297-2.055,4.516-2.926,6.872
		c-0.244,0.663-0.162,1.933,0.142,2.573c1.093,2.318,2.346,4.488,3.633,6.891C278.722,78.692,278.495,74.912,273.989,68.273z
		 M139.698,110.871c-2.124,0-4.201,0-6.41,0c1.047,2.798,1.961,5.361,2.975,7.842c0.2,0.49,0.772,0.922,1.186,0.945
		c1.774,0.104,3.553,0.045,5.437,0.045C141.78,116.644,140.716,113.691,139.698,110.871z M266.213,83.518
		c-0.246,0.444-0.203,1.513-0.003,2.093c0.839,2.426,1.788,4.776,2.824,7.488c1.386-1.83,2.707-3.488,3.933-5.279
		c0.243-0.356,0.32-1.424,0.125-1.821c-1.185-2.425-2.472-4.752-3.808-7.265C268.155,80.457,267.108,81.903,266.213,83.518z
		 M247.163,110.549c-0.832-2.64-1.656-4.979-2.305-7.413c-0.496-1.852-1.245-2.234-2.486-1.593c-0.768,0.396-1.59,0.585-2.648,0.958
		c0.479,3.396,0.943,6.707,1.479,10.513C243.337,112.132,245.208,111.358,247.163,110.549z M152.451,119.566
		c0.239,0.612,0.95,1.145,1.468,1.193c1.65,0.149,3.313,0.055,5.357,0.055c-0.992-1.646-1.837-3.013-2.654-4.41
		c-0.53-0.904-1.161-1.76-1.507-2.797c-1.228-3.684-3.259-3.997-5.837-2.896C150.365,113.793,151.341,116.734,152.451,119.566z
		 M124.24,111.134c1.258,6.254,3.957,8.473,9.82,7.95C131.804,110.958,130.996,110.32,124.24,111.134z M145.207,119.294
		c0.294,0.631,1.146,0.929,1.77,1.023c1.065,0.162,2.153,0.045,3.576,0.045c-1.196-3.213-2.274-6.236-3.464-9.172
		c-0.18-0.441-0.863-0.623-1.324-0.658c-1.208-0.09-2.422-0.029-4.214-0.029C142.938,113.898,143.985,116.677,145.207,119.294z
		 M258.798,92.008c-1.629,1.304-3.106,2.487-4.816,3.855c1.17,2.745,2.306,5.404,3.514,8.234c1.319-1.068,2.573-2.082,3.934-3.183
		C260.542,97.913,259.691,95.033,258.798,92.008z M267.474,94.853c-1.078-2.858-2.115-5.607-3.229-8.561
		c-1.093,1.16-2.123,2.07-2.976,3.244c-0.347,0.479-0.553,1.646-0.395,2.287c0.608,2.461,1.391,4.836,2.229,7.644
		C264.677,97.806,266.001,96.409,267.474,94.853z M124.341,117.951c-1.076-6.009-2.985-7.277-10.318-6.787
		C116.109,117.688,120.077,118.353,124.341,117.951z M276.394,59.259c-0.451,1.754-0.936,3.38-1.259,5.066
		c-0.108,0.555,0.09,1.373,0.336,1.895c1.132,2.403,2.327,4.745,3.575,7.26C280.802,65.227,281.171,66.029,276.394,59.259z
		 M104.723,111.441c1.104,1.77,2.156,3.455,3.446,5.525c1.792,0,4.012,0,6.425,0C112.2,111.849,109.036,110.044,104.723,111.441z
		 M96.464,131.51c-0.691-0.593-1.223-1.05-1.56-1.34c-0.664,0.796-1.188,1.425-1.712,2.053c-0.284-0.897-0.72-1.761-0.829-2.7
		c-0.626-5.429-1.169-10.877-1.761-16.314c-0.054-0.488-0.249-0.945-0.749-1.298c0.233,1.843,0.525,3.678,0.686,5.534
		c0.364,4.219,0.542,8.479,1.038,12.662c0.235,1.982,1.031,3.83,1.573,5.739c0.255-0.039,0.51-0.077,0.765-0.115
		C94.733,134.375,95.553,133.02,96.464,131.51z M99.514,114.345c2.302,3.439,2.266,3.484,5.685,2.572
		c-2.456-5.66-6.428-7.951-8.146-5.148C97.879,112.617,98.823,113.312,99.514,114.345z M277.662,50.01
		c-1.198,5.103-0.757,6.809,2.853,10.862C281.083,56.392,280.748,52.492,277.662,50.01z M277.61,41.416
		c-0.52,3.902-0.143,5.013,2.549,7.496C279.874,42.658,279.724,42.217,277.61,41.416z M96.064,122.572
		c-1.407,3.813-1.3,4.4,1.25,6.157C98.452,125.025,98.4,124.789,96.064,122.572z M99.444,118.361
		c-0.821-1.305-1.611-2.562-2.438-3.875c-1.027,3.602-1.004,3.742,1.141,6.538C98.636,120.023,99.021,119.23,99.444,118.361z
		 M276.12,31.716c0.263-0.205,0.526-0.41,0.789-0.616c-1.17-2.907-2.338-5.815-3.508-8.724c-0.148,0.119-0.299,0.24-0.449,0.359
		C274.009,25.729,275.064,28.723,276.12,31.716z M277.982,38.935c0.192-0.17,0.386-0.341,0.579-0.51
		c-0.265-1.641-0.053-3.682-1.813-4.066c-0.179,0.193-0.356,0.388-0.534,0.581C276.802,36.271,277.392,37.603,277.982,38.935z"/>
	<path fill-rule="evenodd" clip-rule="evenodd" fill="#FFFFFF" d="M250.702,4.91c15.071,2.902,26.369,23.285,24.838,44.615
		c-1.127,15.658-6.506,27.809-15.062,37.42c-0.825,0.926-1.79,1.602-2.688,2.398c-1.755,1.559-3.163,4.264-5.66,3.393
		c-0.195-0.068-0.595,0.148-0.667,0.379c-0.959,3.056-3.177,3.552-4.933,3.72c-1.839,0.175-3.233,0.935-4.84,2.011
		c-1.826,1.223-4.017,1.57-6.077,1.836c-10.528,1.357-21.056,2.787-31.602,3.769c-11.448,1.063-22.916,1.708-34.378,2.425
		c-2.537,0.157-5.09-0.154-7.636-0.248c-0.567-0.061-1.21,0.56-1.871,0.604c-3.394,0.227-6.792,0.334-10.188,0.428
		c-4.555,0.127-9.107,0.258-13.66,0.273c-1.881,0.006-3.812-0.74-5.633-0.342c-3.202,0.7-6.328,1.488-9.477-0.252
		c-0.243-0.135-0.599,0.117-0.897,0.217c-0.773,0.257-1.543,0.742-2.317,0.759c-3.975,0.089-7.952,0.089-11.93,0.053
		c-1.289-0.013-2.704,0.554-3.72-1.286c-0.125-0.226-0.755-0.279-0.847-0.098c-1.197,2.309-2.92,1.32-4.396,1.293
		c-1.502-0.029-2.024,0.768-2.147,2.746c-0.207,3.282-0.535,6.549-0.812,9.822c-0.808-3.223-1.377-6.373-1.824-9.56
		c-0.263-1.874-0.925-2.362-2.254-2.419c-4.926-0.218-9.889-0.228-14.76-1.135c-8.582-1.6-16.277-6.131-22.376-15.299
		c-9.535-14.334-9.294-33.055,0.692-46.756c5.173-7.094,11.485-11.371,18.38-13.437c9.071-2.716,18.243-4.819,27.414-6.796
		c19.941-4.299,39.904-8.414,59.87-12.486c20.035-4.087,40.025-8.832,60.297-9.934c7.596-0.413,15.211-0.067,22.816-0.067
		c0.018,0.257,0.033,0.513,0.051,0.769c-0.263,0.106-0.537,0.178-0.787,0.328c-0.262,0.156-0.499,0.389-0.746,0.588
		c13.637,0.528,23.732,9.297,30.586,25.916c-1.288-9.717-10.387-20.306-21.68-25.552C250.329,4.945,250.521,4.875,250.702,4.91z
		 M47.735,72.71c-0.99-8.367,0.782-15.395,5.398-21.11c-0.246-0.229-0.493-0.459-0.74-0.688c-0.968,1.387-2.107,2.605-2.876,4.186
		c-3.872,7.967-4.004,16.555-1.132,24.97c1.499,4.396,3.955,8.14,6.019,12.138c0.254,0.493,0.753,0.734,1.136,1.092
		c0.16-0.208,0.321-0.416,0.48-0.626C52.091,86.957,48.695,80.832,47.735,72.71z M238.975,4.873c-0.87-1.313-4.085-1.629-6.278,0
		C234.774,4.873,236.854,4.873,238.975,4.873z"/>
	<path fill-rule="evenodd" clip-rule="evenodd" fill="#FFFFFF" d="M197.683,119.491c-1.303-3.511-2.584-7.038-3.931-10.515
		c-0.171-0.443-0.682-0.899-1.026-0.886c-2.799,0.114-5.594,0.337-8.84,0.558c2.006,4.049,3.803,7.707,5.639,11.327
		c0.145,0.286,0.551,0.426,0.836,0.43c2.354,0.033,4.708,0.019,7.062,0.019C197.51,120.113,197.596,119.801,197.683,119.491z"/>
	<path fill-rule="evenodd" clip-rule="evenodd" fill="#FFFFFF" d="M178.72,121.257c-1.829-4.186-3.237-7.484-4.715-10.717
		c-0.242-0.53-0.785-1.088-1.199-1.105c-2.475-0.103-4.951-0.051-8.092-0.051c2.305,4.206,4.241,7.781,6.225,11.305
		c0.199,0.352,0.677,0.535,1.027,0.543C174.042,121.283,176.118,121.257,178.72,121.257z"/>
	<path fill-rule="evenodd" clip-rule="evenodd" fill="#FFFFFF" d="M195.606,107.939c1.416,3.809,2.708,7.403,4.106,10.911
		c0.205,0.513,0.933,0.876,1.408,0.853c1.776-0.085,3.548-0.359,5.591-0.595c-0.883-4.142-2.02-7.87-4.051-10.931
		c-0.333-0.502-1.007-0.795-1.516-0.772C199.382,107.476,197.621,107.728,195.606,107.939z"/>
	<path fill-rule="evenodd" clip-rule="evenodd" fill="#FFFFFF" d="M215.902,118.092c-1.134-3.938-2.165-7.524-3.313-11.511
		c-2.338,0.178-4.856,0.368-7.415,0.562c1.192,3.783,2.265,7.338,3.455,10.812c0.166,0.48,0.923,0.814,1.393,0.785
		C211.935,118.623,213.843,118.335,215.902,118.092z"/>
	<path fill-rule="evenodd" clip-rule="evenodd" fill="#FFFFFF" d="M175.717,109.386c1.509,3.545,2.901,6.969,4.423,10.275
		c0.314,0.684,1.102,1.282,1.683,1.304c1.71,0.063,3.425-0.184,5.577-0.341c-1.193-2.438-2.467-4.372-3.19-6.656
		C182.482,108.518,179.478,108.197,175.717,109.386z"/>
	<path fill-rule="evenodd" clip-rule="evenodd" fill="#FFFFFF" d="M155.632,110.171c2.096,3.697,3.973,7.008,6.082,10.729
		c1.855,0,4.206,0,6.896,0c-1.901-3.555-3.608-6.887-5.448-10.067c-0.373-0.646-1.238-0.992-1.882-1.005
		C159.558,109.795,157.834,110.017,155.632,110.171z"/>
	<path fill-rule="evenodd" clip-rule="evenodd" fill="#FFFFFF" d="M214.513,106.392c1.185,3.744,2.18,7.041,3.295,10.256
		c0.18,0.517,0.893,0.941,1.354,0.93c1.271-0.029,2.534-0.312,4.153-0.547c-0.404-3.819-0.791-7.492-1.205-11.398
		C219.552,105.888,217.284,106.115,214.513,106.392z"/>
	<path fill-rule="evenodd" clip-rule="evenodd" fill="#FFFFFF" d="M255.78,105.472c-1.236-2.923-2.375-5.615-3.572-8.445
		c-2.023,1.066-3.975,2.095-6.149,3.242c0.952,3.036,1.893,6.041,2.933,9.359C251.212,108.269,253.405,106.926,255.78,105.472z"/>
	<path fill-rule="evenodd" clip-rule="evenodd" fill="#FFFFFF" d="M225.23,116.714c1.993-0.34,3.878-0.66,5.878-1.002
		c-0.299-3.346-0.527-6.483-0.902-9.584c-0.069-0.568-0.745-1.428-1.119-1.406c-1.639,0.09-3.27,0.457-4.959,0.732
		C224.496,109.21,224.844,112.758,225.23,116.714z"/>
	<path fill-rule="evenodd" clip-rule="evenodd" fill="#FFFFFF" d="M232.046,104.257c0.348,3.723,0.67,7.16,1.027,10.97
		c2.166-0.546,4.076-1.027,6.23-1.571c-0.523-3.635-1.01-7.02-1.526-10.609C235.928,103.437,234.19,103.804,232.046,104.257z"/>
	<path fill-rule="evenodd" clip-rule="evenodd" fill="#FFFFFF" d="M142.885,119.703c-1.104-3.059-2.169-6.012-3.187-8.832
		c-2.124,0-4.201,0-6.41,0c1.047,2.798,1.961,5.361,2.975,7.842c0.2,0.49,0.772,0.922,1.186,0.945
		C139.223,119.761,141.001,119.703,142.885,119.703z"/>
	<path fill-rule="evenodd" clip-rule="evenodd" fill="#FFFFFF" d="M241.202,113.014c2.135-0.882,4.006-1.656,5.961-2.465
		c-0.832-2.64-1.656-4.979-2.305-7.413c-0.496-1.852-1.245-2.234-2.486-1.593c-0.768,0.396-1.59,0.585-2.648,0.958
		C240.202,105.898,240.667,109.208,241.202,113.014z"/>
	<path fill-rule="evenodd" clip-rule="evenodd" fill="#FFFFFF" d="M149.278,110.71c1.087,3.083,2.062,6.023,3.173,8.855
		c0.239,0.612,0.95,1.145,1.468,1.193c1.65,0.149,3.313,0.055,5.357,0.055c-0.992-1.646-1.837-3.013-2.654-4.41
		c-0.53-0.904-1.161-1.76-1.507-2.797C153.888,109.923,151.856,109.61,149.278,110.71z"/>
	<path fill-rule="evenodd" clip-rule="evenodd" fill="#FFFFFF" d="M134.061,119.084c-2.257-8.126-3.064-8.765-9.82-7.95
		C125.498,117.388,128.197,119.607,134.061,119.084z"/>
	<path fill-rule="evenodd" clip-rule="evenodd" fill="#FFFFFF" d="M141.551,110.503c1.387,3.395,2.435,6.174,3.656,8.791
		c0.294,0.631,1.146,0.929,1.77,1.023c1.065,0.162,2.153,0.045,3.576,0.045c-1.196-3.213-2.274-6.236-3.464-9.172
		c-0.18-0.441-0.863-0.623-1.324-0.658C144.557,110.443,143.343,110.503,141.551,110.503z"/>
	<path fill-rule="evenodd" clip-rule="evenodd" fill="#FFFFFF" d="M261.429,100.916c-0.887-3.003-1.737-5.883-2.631-8.907
		c-1.629,1.304-3.106,2.487-4.816,3.855c1.17,2.745,2.306,5.404,3.514,8.234C258.814,103.03,260.068,102.016,261.429,100.916z"/>
	<path fill-rule="evenodd" clip-rule="evenodd" fill="#FFFFFF" d="M114.022,111.164c2.087,6.524,6.055,7.189,10.318,6.787
		C123.265,111.942,121.355,110.673,114.022,111.164z"/>
	<path fill-rule="evenodd" clip-rule="evenodd" fill="#FFFFFF" d="M114.594,116.966c-2.394-5.117-5.558-6.922-9.871-5.525
		c1.104,1.77,2.156,3.455,3.446,5.525C109.961,116.966,112.181,116.966,114.594,116.966z"/>
	<path fill-rule="evenodd" clip-rule="evenodd" fill="#FFFFFF" d="M93.915,135.731c0.818-1.355,1.638-2.711,2.549-4.221
		c-0.691-0.593-1.223-1.05-1.56-1.34c-0.664,0.796-1.188,1.425-1.712,2.053c-0.284-0.897-0.72-1.761-0.829-2.7
		c-0.626-5.429-1.169-10.877-1.761-16.314c-0.054-0.488-0.249-0.945-0.749-1.298c0.233,1.843,0.525,3.678,0.686,5.534
		c0.364,4.219,0.542,8.479,1.038,12.662c0.235,1.982,1.031,3.83,1.573,5.739C93.405,135.807,93.66,135.769,93.915,135.731z"/>
	<path fill-rule="evenodd" clip-rule="evenodd" fill="#FFFFFF" d="M97.053,111.769c0.826,0.848,1.771,1.543,2.461,2.576
		c2.302,3.439,2.266,3.484,5.685,2.572C102.742,111.257,98.771,108.966,97.053,111.769z"/>
	<path fill-rule="evenodd" clip-rule="evenodd" fill="#FFFFFF" d="M97.314,128.729c1.138-3.704,1.086-3.94-1.25-6.157
		C94.657,126.385,94.765,126.972,97.314,128.729z"/>
	<path fill-rule="evenodd" clip-rule="evenodd" fill="#FFFFFF" d="M98.147,121.024c0.488-1.001,0.873-1.794,1.297-2.663
		c-0.821-1.305-1.611-2.562-2.438-3.875C95.979,118.087,96.003,118.228,98.147,121.024z"/>
	<path fill-rule="evenodd" clip-rule="evenodd" d="M56.021,92.67c-3.93-5.714-7.325-11.839-8.285-19.96
		c-0.99-8.367,0.782-15.395,5.398-21.11c-0.246-0.229-0.493-0.459-0.74-0.688c-0.968,1.387-2.107,2.605-2.876,4.186
		c-3.872,7.967-4.004,16.555-1.132,24.97c1.499,4.396,3.955,8.14,6.019,12.138c0.254,0.493,0.753,0.734,1.136,1.092
		C55.7,93.088,55.861,92.88,56.021,92.67z"/>
	<path fill-rule="evenodd" clip-rule="evenodd" d="M232.696,4.873c2.078,0,4.157,0,6.278,0
		C238.104,3.559,234.89,3.244,232.696,4.873z"/>
	<g>
		<g>
			<path fill="#2B1C48" d="M97.269,45.63c0.313,0,0.584,0.084,0.81,0.252c0.225,0.168,0.338,0.369,0.338,0.604
				c0,0.238-0.113,0.441-0.338,0.609c-0.226,0.168-0.496,0.252-0.81,0.252c-0.32,0-0.593-0.084-0.818-0.252
				c-0.225-0.168-0.338-0.371-0.338-0.609c0-0.234,0.113-0.436,0.338-0.604C96.676,45.714,96.948,45.63,97.269,45.63z M96.301,53.88
				c0.074-1.988,0.124-3.953,0.149-5.895l1.745-0.029c0.053,1.664,0.113,3.639,0.181,5.924H96.301z"/>
			<path fill="#2B1C48" d="M103.901,43.216v1.652l-3.104-0.088v2.197l2.791-0.053l0.07,1.588h-2.492v2.889l-2.177-0.076
				c0.058-1.098,0.086-2.203,0.086-3.316c0-1.543-0.055-3.1-0.165-4.67C100.095,43.3,101.759,43.259,103.901,43.216z"/>
			<path fill="#2B1C48" d="M107.148,45.759c1.818,0,2.728,0.9,2.728,2.701c0,0.219-0.014,0.453-0.039,0.703h-3.514
				c0,1.004,0.259,1.506,0.778,1.506h0.055c0.456-0.027,0.684-0.287,0.684-0.779c0-0.105-0.011-0.223-0.031-0.352l1.871-0.029
				c0,1.488-0.873,2.242-2.618,2.262c-0.021,0.004-0.039,0.006-0.055,0.006c-1.661,0-2.492-0.939-2.492-2.818v-0.176
				C104.567,46.767,105.445,45.759,107.148,45.759z M106.135,48.085h1.776v-0.141c0-0.711-0.271-1.066-0.81-1.066
				C106.52,46.878,106.197,47.28,106.135,48.085z"/>
			<path fill="#2B1C48" d="M112.675,51.677l-1.957,0.135c0.021-1.293,0.031-2.537,0.031-3.732c0-1.68-0.021-3.264-0.063-4.752
				l1.926-0.023c-0.021,0.957-0.031,1.939-0.031,2.947C112.58,47.989,112.611,49.798,112.675,51.677z"/>
			<path fill="#2B1C48" d="M115.552,44.411c0,0.238-0.113,0.441-0.338,0.609c-0.226,0.168-0.498,0.252-0.818,0.252
				c-0.313,0-0.584-0.084-0.81-0.252c-0.225-0.168-0.338-0.371-0.338-0.609c0-0.234,0.113-0.436,0.338-0.604
				c0.226-0.168,0.496-0.252,0.81-0.252c0.32,0,0.593,0.084,0.818,0.252C115.438,43.976,115.552,44.177,115.552,44.411z
				 M113.445,51.806c-0.037-2.285-0.056-4.26-0.056-5.924l1.981-0.088c-0.063,1.594-0.095,3.178-0.095,4.752
				c0,0.422,0.003,0.842,0.008,1.26H113.445z"/>
			<path fill="#2B1C48" d="M119.198,49.362l1.871,0.088c0,1.41-0.873,2.125-2.618,2.145c-0.021,0.004-0.039,0.006-0.055,0.006
				c-1.661,0-2.492-0.939-2.492-2.818v-0.176c0.053-2.016,0.938-3.033,2.657-3.053h0.062c1.583,0,2.374,0.676,2.374,2.027
				c0,0.078-0.003,0.156-0.008,0.234l-1.689,0.094v-0.141c0-0.711-0.271-1.066-0.81-1.066c-0.551,0-0.826,0.576-0.826,1.729v0.193
				c0.032,1.246,0.31,1.869,0.834,1.869h0.047c0.456-0.027,0.684-0.287,0.684-0.779C119.229,49.608,119.219,49.491,119.198,49.362z"
				/>
			<path fill="#2B1C48" d="M123.923,44.411c0,0.238-0.113,0.441-0.338,0.609c-0.226,0.168-0.498,0.252-0.818,0.252
				c-0.313,0-0.584-0.084-0.81-0.252c-0.225-0.168-0.338-0.371-0.338-0.609c0-0.234,0.113-0.436,0.338-0.604
				c0.226-0.168,0.496-0.252,0.81-0.252c0.32,0,0.593,0.084,0.818,0.252C123.81,43.976,123.923,44.177,123.923,44.411z
				 M121.816,51.806c-0.037-2.285-0.056-4.26-0.056-5.924l1.981-0.088c-0.063,1.594-0.095,3.178-0.095,4.752
				c0,0.422,0.003,0.842,0.008,1.26H121.816z"/>
			<path fill="#2B1C48" d="M125.667,43.89l1.784-0.088v1.939l1.502-0.029l0.023,1.107l-1.525,0.053v2.666
				c0,0.621,0.354,0.932,1.062,0.932c0.146,0,0.307-0.014,0.479-0.041l-0.071,1.289c-0.251,0.023-0.489,0.035-0.715,0.035
				c-1.656,0-2.5-0.637-2.531-1.91v-2.865l-1.289,0.059l-0.031-1.307l1.32,0.012L125.667,43.89z"/>
			<path fill="#2B1C48" d="M132.671,45.589c1.724,0.07,2.586,0.717,2.586,1.939v4.16l-1.831,0.023l-0.063-0.557
				c-0.377,0.32-0.878,0.48-1.501,0.48c-0.268,0-0.556-0.031-0.865-0.094c-0.927-0.172-1.391-0.707-1.391-1.605
				c0-0.109,0.008-0.227,0.023-0.352c0.104-0.926,0.987-1.389,2.648-1.389c0.32,0,0.671,0.018,1.054,0.053v-0.68
				c0-0.551-0.233-0.826-0.699-0.826H132.6c-0.036-0.004-0.07-0.006-0.102-0.006c-0.509,0-0.763,0.309-0.763,0.926v0.088
				l-1.871-0.117c0-1.363,0.881-2.045,2.642-2.045H132.671z M133.331,50.218v-1.031c-0.226-0.035-0.43-0.053-0.613-0.053
				c-0.477,0-0.802,0.119-0.975,0.357c-0.104,0.145-0.157,0.279-0.157,0.404c0,0.156,0.084,0.295,0.252,0.416
				c0.131,0.094,0.301,0.141,0.511,0.141C132.616,50.452,132.943,50.374,133.331,50.218z"/>
			<path fill="#2B1C48" d="M139.101,49.362l1.871,0.088c0,1.41-0.873,2.125-2.618,2.145c-0.021,0.004-0.039,0.006-0.055,0.006
				c-1.661,0-2.492-0.939-2.492-2.818v-0.176c0.053-2.016,0.938-3.033,2.657-3.053h0.062c1.583,0,2.374,0.676,2.374,2.027
				c0,0.078-0.003,0.156-0.008,0.234l-1.689,0.094v-0.141c0-0.711-0.271-1.066-0.81-1.066c-0.551,0-0.826,0.576-0.826,1.729v0.193
				c0.032,1.246,0.31,1.869,0.834,1.869h0.047c0.456-0.027,0.684-0.287,0.684-0.779C139.132,49.608,139.121,49.491,139.101,49.362z"
				/>
			<path fill="#2B1C48" d="M143.825,44.411c0,0.238-0.113,0.441-0.338,0.609c-0.226,0.168-0.498,0.252-0.818,0.252
				c-0.313,0-0.584-0.084-0.81-0.252c-0.225-0.168-0.338-0.371-0.338-0.609c0-0.234,0.113-0.436,0.338-0.604
				c0.226-0.168,0.496-0.252,0.81-0.252c0.32,0,0.593,0.084,0.818,0.252C143.712,43.976,143.825,44.177,143.825,44.411z
				 M141.719,51.806c-0.037-2.285-0.056-4.26-0.056-5.924l1.981-0.088c-0.063,1.594-0.095,3.178-0.095,4.752
				c0,0.422,0.003,0.842,0.008,1.26H141.719z"/>
			<path fill="#2B1C48" d="M147.023,45.759c1.782,0,2.673,0.922,2.673,2.766c0,0.074-0.003,0.148-0.008,0.223
				c-0.073,1.996-1.022,3.004-2.846,3.023c-0.021,0.004-0.042,0.006-0.062,0.006c-1.734,0-2.603-0.943-2.603-2.83v-0.164
				C144.23,46.767,145.179,45.759,147.023,45.759z M146.765,47.095c-0.33,0.086-0.556,0.404-0.677,0.955
				c-0.073,0.328-0.109,0.658-0.109,0.99c0,0.223,0.016,0.447,0.047,0.674c0.084,0.562,0.354,0.854,0.81,0.873h0.055
				c0.425,0,0.716-0.209,0.873-0.627c0.131-0.348,0.196-0.76,0.196-1.236c0-0.117-0.003-0.236-0.008-0.357
				c-0.042-0.629-0.168-1.021-0.377-1.178c-0.132-0.094-0.289-0.141-0.472-0.141C146.997,47.048,146.885,47.063,146.765,47.095z"/>
			<path fill="#2B1C48" d="M151.575,45.606l0.078,0.955c0.221-0.508,0.8-0.766,1.737-0.773h0.031c0.923,0,1.552,0.27,1.887,0.809
				c0.23,0.367,0.346,1.227,0.346,2.578c0,0.664-0.028,1.449-0.086,2.355h-1.902c0.068-1.207,0.103-2.143,0.103-2.807
				c0-0.332-0.008-0.598-0.024-0.797c-0.052-0.586-0.304-0.879-0.754-0.879c-0.451,0-0.734,0.156-0.849,0.469l0.078,4.248
				l-1.848,0.012c0-1.797-0.081-3.814-0.243-6.053L151.575,45.606z"/>
			<path fill="#2B1C48" d="M158.862,45.759c1.818,0,2.728,0.9,2.728,2.701c0,0.219-0.014,0.453-0.039,0.703h-3.514
				c0,1.004,0.259,1.506,0.778,1.506h0.055c0.456-0.027,0.684-0.287,0.684-0.779c0-0.105-0.011-0.223-0.031-0.352l1.871-0.029
				c0,1.488-0.873,2.242-2.618,2.262c-0.021,0.004-0.039,0.006-0.055,0.006c-1.661,0-2.492-0.939-2.492-2.818v-0.176
				C156.281,46.767,157.159,45.759,158.862,45.759z M157.849,48.085h1.776v-0.141c0-0.711-0.271-1.066-0.81-1.066
				C158.233,46.878,157.911,47.28,157.849,48.085z"/>
			<path fill="#2B1C48" d="M162.085,49.696l1.801-0.064v0.076c0,0.602,0.248,0.906,0.746,0.914h0.031
				c0.482,0,0.724-0.174,0.724-0.521V50.06c-0.021-0.383-0.497-0.691-1.427-0.926s-1.489-0.629-1.678-1.184
				c-0.068-0.195-0.103-0.383-0.103-0.562c0-0.328,0.112-0.633,0.338-0.914c0.346-0.43,0.87-0.676,1.572-0.738
				c0.188-0.016,0.372-0.023,0.55-0.023c0.467,0,0.878,0.061,1.234,0.182c0.487,0.168,0.825,0.408,1.014,0.721
				c0.126,0.215,0.188,0.453,0.188,0.715c0,0.125-0.013,0.254-0.039,0.387l-1.682,0.029c0.016-0.098,0.023-0.188,0.023-0.27
				c0-0.391-0.168-0.6-0.503-0.627c-0.037-0.004-0.073-0.006-0.11-0.006c-0.346,0-0.579,0.131-0.699,0.393
				c-0.042,0.09-0.063,0.172-0.063,0.246c0,0.184,0.115,0.342,0.346,0.475c0.325,0.188,0.807,0.378,1.442,0.571
				c0.637,0.193,1.065,0.522,1.285,0.987c0.079,0.176,0.118,0.352,0.118,0.527c0,0.297-0.115,0.596-0.346,0.896
				c-0.367,0.48-0.936,0.76-1.706,0.838c-0.167,0.02-0.332,0.029-0.495,0.029c-0.576,0-1.11-0.111-1.604-0.334
				C162.415,51.187,162.096,50.595,162.085,49.696z"/>
			<path fill="#2B1C48" d="M168.806,51.806c-0.313,0-0.584-0.084-0.81-0.252c-0.225-0.168-0.338-0.369-0.338-0.604
				c0-0.238,0.113-0.441,0.338-0.609c0.226-0.168,0.496-0.252,0.81-0.252c0.32,0,0.593,0.084,0.818,0.252
				c0.225,0.168,0.338,0.371,0.338,0.609c0,0.234-0.113,0.436-0.338,0.604C169.398,51.722,169.126,51.806,168.806,51.806z
				 M169.773,43.556c-0.074,1.988-0.124,3.953-0.149,5.895l-1.745,0.029c-0.053-1.664-0.113-3.639-0.181-5.924H169.773z"/>
			<path fill="#2B1C48" d="M170.394,52.532c0.582-0.125,0.92-0.365,1.014-0.721c-0.403-0.102-0.668-0.223-0.794-0.363
				c-0.125-0.141-0.188-0.299-0.188-0.475s0.05-0.331,0.149-0.466s0.242-0.237,0.429-0.308c0.186-0.07,0.37-0.107,0.554-0.111h0.016
				c0.173,0,0.341,0.023,0.503,0.07c0.163,0.051,0.295,0.127,0.397,0.229s0.174,0.21,0.216,0.325s0.065,0.253,0.071,0.413v0.023
				c0,0.156-0.029,0.328-0.087,0.516c-0.058,0.199-0.157,0.389-0.299,0.568s-0.347,0.351-0.617,0.513
				c-0.27,0.162-0.672,0.259-1.206,0.29L170.394,52.532z"/>
			<path fill="#2B1C48" d="M178.191,43.38l0.078,3.299c0.22-0.508,0.733-0.766,1.541-0.773h0.023c0.796,0,1.362,0.27,1.697,0.809
				c0.231,0.367,0.347,1.227,0.347,2.578c0,0.664-0.029,1.449-0.087,2.355h-1.98c0.067-1.207,0.102-2.143,0.102-2.807
				c0-0.332-0.008-0.598-0.023-0.797c-0.052-0.586-0.277-0.879-0.676-0.879s-0.655,0.156-0.771,0.469l0.079,4.248l-1.926,0.012
				c0-1.797-0.107-4.615-0.322-8.455L178.191,43.38z"/>
			<path fill="#2B1C48" d="M185.58,45.589c1.724,0.07,2.586,0.717,2.586,1.939v4.16l-1.831,0.023l-0.063-0.557
				c-0.377,0.32-0.878,0.48-1.501,0.48c-0.268,0-0.556-0.031-0.865-0.094c-0.927-0.172-1.391-0.707-1.391-1.605
				c0-0.109,0.008-0.227,0.023-0.352c0.104-0.926,0.987-1.389,2.648-1.389c0.32,0,0.671,0.018,1.054,0.053v-0.68
				c0-0.551-0.233-0.826-0.699-0.826h-0.032c-0.036-0.004-0.07-0.006-0.102-0.006c-0.509,0-0.763,0.309-0.763,0.926v0.088
				l-1.871-0.117c0-1.363,0.881-2.045,2.642-2.045H185.58z M186.24,50.218v-1.031c-0.226-0.035-0.43-0.053-0.613-0.053
				c-0.477,0-0.802,0.119-0.975,0.357c-0.104,0.145-0.157,0.279-0.157,0.404c0,0.156,0.084,0.295,0.252,0.416
				c0.131,0.094,0.301,0.141,0.511,0.141C185.525,50.452,185.853,50.374,186.24,50.218z"/>
			<path fill="#2B1C48" d="M193.039,43.89l1.784-0.088v1.939l1.502-0.029l0.023,1.107l-1.525,0.053v2.666
				c0,0.621,0.354,0.932,1.062,0.932c0.146,0,0.307-0.014,0.479-0.041l-0.071,1.289c-0.251,0.023-0.489,0.035-0.715,0.035
				c-1.656,0-2.5-0.637-2.531-1.91v-2.865l-1.289,0.059l-0.031-1.307l1.32,0.012L193.039,43.89z"/>
			<path fill="#2B1C48" d="M199.556,45.759c1.818,0,2.728,0.9,2.728,2.701c0,0.219-0.014,0.453-0.039,0.703h-3.514
				c0,1.004,0.259,1.506,0.778,1.506h0.055c0.456-0.027,0.684-0.287,0.684-0.779c0-0.105-0.011-0.223-0.031-0.352l1.871-0.029
				c0,1.488-0.873,2.242-2.618,2.262c-0.021,0.004-0.039,0.006-0.055,0.006c-1.661,0-2.492-0.939-2.492-2.818v-0.176
				C196.975,46.767,197.853,45.759,199.556,45.759z M198.542,48.085h1.776v-0.141c0-0.711-0.271-1.066-0.81-1.066
				C198.927,46.878,198.604,47.28,198.542,48.085z"/>
			<path fill="#2B1C48" d="M204.964,47.575l0.078,4.248l-1.926,0.012c0-1.797-0.081-3.814-0.243-6.053l1.446-0.117l0.078,0.955
				c0.221-0.469,0.734-0.736,1.541-0.803c0.12-0.008,0.236-0.012,0.346-0.012c0.634,0,1.116,0.154,1.446,0.463
				c0.383,0.367,0.576,0.951,0.582,1.752l-1.745,0.129c0.005-0.066,0.008-0.131,0.008-0.193c0-0.625-0.218-0.938-0.652-0.938h-0.031
				C205.389,47.038,205.079,47.224,204.964,47.575z"/>
			<path fill="#2B1C48" d="M210.104,45.636l0.031,0.938c0.283-0.449,0.61-0.729,0.982-0.838c0.221-0.062,0.443-0.094,0.668-0.094
				c0.168,0,0.336,0.016,0.503,0.047c0.409,0.078,0.7,0.391,0.873,0.938c0.136-0.426,0.372-0.71,0.707-0.853
				c0.336-0.143,0.708-0.216,1.116-0.22h0.031c0.398,0,0.781,0.072,1.148,0.217c0.372,0.148,0.656,0.427,0.853,0.835
				s0.3,0.968,0.311,1.679v3.404l-1.698,0.029c0.068-1.285,0.103-2.379,0.103-3.281s-0.23-1.389-0.691-1.459
				c-0.068-0.008-0.134-0.012-0.197-0.012c-0.366,0-0.649,0.176-0.849,0.527c-0.031,0.406-0.047,0.881-0.047,1.424
				c0,0.738,0.028,1.6,0.086,2.584l-1.965,0.012c0.073-1.512,0.11-2.613,0.11-3.305v-0.07c-0.006-0.684-0.187-1.043-0.543-1.078
				h-0.102c-0.32,0-0.629,0.137-0.928,0.41l0.016,4.289l-1.854,0.053v-0.961c0-1.703-0.034-3.404-0.103-5.104L210.104,45.636z"/>
			<path fill="#2B1C48" d="M220.001,44.411c0,0.238-0.113,0.441-0.338,0.609c-0.226,0.168-0.498,0.252-0.818,0.252
				c-0.313,0-0.584-0.084-0.81-0.252c-0.225-0.168-0.338-0.371-0.338-0.609c0-0.234,0.113-0.436,0.338-0.604
				c0.226-0.168,0.496-0.252,0.81-0.252c0.32,0,0.593,0.084,0.818,0.252C219.888,43.976,220.001,44.177,220.001,44.411z
				 M217.895,51.806c-0.037-2.285-0.056-4.26-0.056-5.924l1.981-0.088c-0.063,1.594-0.095,3.178-0.095,4.752
				c0,0.422,0.003,0.842,0.008,1.26H217.895z"/>
			<path fill="#2B1C48" d="M221.879,45.606l0.078,0.955c0.221-0.508,0.8-0.766,1.737-0.773h0.031c0.923,0,1.552,0.27,1.887,0.809
				c0.23,0.367,0.346,1.227,0.346,2.578c0,0.664-0.028,1.449-0.086,2.355h-1.902c0.068-1.207,0.103-2.143,0.103-2.807
				c0-0.332-0.008-0.598-0.024-0.797c-0.052-0.586-0.304-0.879-0.754-0.879c-0.451,0-0.734,0.156-0.849,0.469l0.078,4.248
				l-1.848,0.012c0-1.797-0.081-3.814-0.243-6.053L221.879,45.606z"/>
			<path fill="#2B1C48" d="M229.653,45.589c1.724,0.07,2.586,0.717,2.586,1.939v4.16l-1.831,0.023l-0.063-0.557
				c-0.377,0.32-0.878,0.48-1.501,0.48c-0.268,0-0.556-0.031-0.865-0.094c-0.927-0.172-1.391-0.707-1.391-1.605
				c0-0.109,0.008-0.227,0.023-0.352c0.104-0.926,0.987-1.389,2.648-1.389c0.32,0,0.671,0.018,1.054,0.053v-0.68
				c0-0.551-0.233-0.826-0.699-0.826h-0.032c-0.036-0.004-0.07-0.006-0.102-0.006c-0.509,0-0.763,0.309-0.763,0.926v0.088
				l-1.871-0.117c0-1.363,0.881-2.045,2.642-2.045H229.653z M230.313,50.218v-1.031c-0.226-0.035-0.43-0.053-0.613-0.053
				c-0.477,0-0.802,0.119-0.975,0.357c-0.104,0.145-0.157,0.279-0.157,0.404c0,0.156,0.084,0.295,0.252,0.416
				c0.131,0.094,0.301,0.141,0.511,0.141C229.599,50.452,229.926,50.374,230.313,50.218z"/>
			<path fill="#2B1C48" d="M238.811,43.485c-0.031,1.32-0.047,2.705-0.047,4.154c0,1.32,0.013,2.695,0.039,4.125l-1.863,0.006
				l-0.062-0.896c-0.388,0.434-0.904,0.65-1.549,0.65c-1.608,0-2.413-0.918-2.413-2.754c0-0.039,0.003-0.078,0.008-0.117
				c0.031-1.84,0.828-2.76,2.39-2.76c0.063,0,0.129,0.002,0.196,0.006c0.535,0.023,0.967,0.24,1.298,0.65
				c0-0.867-0.029-1.889-0.087-3.064H238.811z M236.846,49.673l-0.039-2.027c-0.305-0.309-0.616-0.463-0.936-0.463
				c-0.132,0-0.263,0.025-0.394,0.076c-0.414,0.16-0.621,0.609-0.621,1.348c0,0.086,0.003,0.174,0.008,0.264
				c0.053,0.895,0.32,1.367,0.802,1.418c0.048,0.004,0.095,0.006,0.142,0.006C236.228,50.294,236.573,50.087,236.846,49.673z"/>
			<path fill="#2B1C48" d="M242.198,45.759c1.782,0,2.673,0.922,2.673,2.766c0,0.074-0.003,0.148-0.008,0.223
				c-0.073,1.996-1.022,3.004-2.846,3.023c-0.021,0.004-0.042,0.006-0.062,0.006c-1.734,0-2.603-0.943-2.603-2.83v-0.164
				C239.405,46.767,240.354,45.759,242.198,45.759z M241.939,47.095c-0.33,0.086-0.556,0.404-0.677,0.955
				c-0.073,0.328-0.109,0.658-0.109,0.99c0,0.223,0.016,0.447,0.047,0.674c0.084,0.562,0.354,0.854,0.81,0.873h0.055
				c0.425,0,0.716-0.209,0.873-0.627c0.131-0.348,0.196-0.76,0.196-1.236c0-0.117-0.003-0.236-0.008-0.357
				c-0.042-0.629-0.168-1.021-0.377-1.178c-0.132-0.094-0.289-0.141-0.472-0.141C242.172,47.048,242.06,47.063,241.939,47.095z"/>
			<path fill="#2B1C48" d="M110.384,58.29l1.784-0.088v1.939l1.502-0.029l0.023,1.107l-1.525,0.053v2.666
				c0,0.621,0.354,0.932,1.062,0.932c0.146,0,0.307-0.014,0.479-0.041l-0.071,1.289c-0.251,0.023-0.489,0.035-0.715,0.035
				c-1.656,0-2.5-0.637-2.531-1.91v-2.865l-1.289,0.059l-0.031-1.307l1.32,0.012L110.384,58.29z"/>
			<path fill="#2B1C48" d="M117.112,60.159c1.782,0,2.673,0.922,2.673,2.766c0,0.074-0.003,0.148-0.008,0.223
				c-0.073,1.996-1.022,3.004-2.846,3.023c-0.021,0.004-0.042,0.006-0.062,0.006c-1.734,0-2.603-0.943-2.603-2.83v-0.164
				C114.319,61.167,115.268,60.159,117.112,60.159z M116.854,61.495c-0.33,0.086-0.556,0.404-0.677,0.955
				c-0.073,0.328-0.109,0.658-0.109,0.99c0,0.223,0.016,0.447,0.047,0.674c0.084,0.562,0.354,0.854,0.81,0.873h0.055
				c0.425,0,0.716-0.209,0.873-0.627c0.131-0.348,0.196-0.76,0.196-1.236c0-0.117-0.003-0.236-0.008-0.357
				c-0.042-0.629-0.168-1.021-0.377-1.178c-0.132-0.094-0.289-0.141-0.472-0.141C117.086,61.448,116.974,61.464,116.854,61.495z"/>
			<path fill="#2B1C48" d="M126.16,57.886c-0.031,1.32-0.047,2.705-0.047,4.154c0,1.32,0.013,2.695,0.039,4.125l-1.863,0.006
				l-0.062-0.896c-0.388,0.434-0.904,0.65-1.549,0.65c-1.608,0-2.413-0.918-2.413-2.754c0-0.039,0.003-0.078,0.008-0.117
				c0.031-1.84,0.828-2.76,2.39-2.76c0.063,0,0.129,0.002,0.196,0.006c0.535,0.023,0.967,0.24,1.298,0.65
				c0-0.867-0.029-1.889-0.087-3.064H126.16z M124.195,64.073l-0.039-2.027c-0.305-0.309-0.616-0.463-0.936-0.463
				c-0.132,0-0.263,0.025-0.394,0.076c-0.414,0.16-0.621,0.609-0.621,1.348c0,0.086,0.003,0.174,0.008,0.264
				c0.053,0.895,0.32,1.367,0.802,1.418c0.048,0.004,0.095,0.006,0.142,0.006C123.577,64.694,123.923,64.487,124.195,64.073z"/>
			<path fill="#2B1C48" d="M129.548,60.159c1.782,0,2.673,0.922,2.673,2.766c0,0.074-0.003,0.148-0.008,0.223
				c-0.073,1.996-1.022,3.004-2.846,3.023c-0.021,0.004-0.042,0.006-0.062,0.006c-1.734,0-2.603-0.943-2.603-2.83v-0.164
				C126.755,61.167,127.703,60.159,129.548,60.159z M129.289,61.495c-0.33,0.086-0.556,0.404-0.677,0.955
				c-0.073,0.328-0.109,0.658-0.109,0.99c0,0.223,0.016,0.447,0.047,0.674c0.084,0.562,0.354,0.854,0.81,0.873h0.055
				c0.425,0,0.716-0.209,0.873-0.627c0.131-0.348,0.196-0.76,0.196-1.236c0-0.117-0.003-0.236-0.008-0.357
				c-0.042-0.629-0.168-1.021-0.377-1.178c-0.132-0.094-0.289-0.141-0.472-0.141C129.521,61.448,129.409,61.464,129.289,61.495z"/>
			<path fill="#2B1C48" d="M132.559,64.097l1.801-0.064v0.076c0,0.602,0.248,0.906,0.746,0.914h0.031
				c0.482,0,0.724-0.174,0.724-0.521V64.46c-0.021-0.383-0.497-0.691-1.427-0.926s-1.489-0.629-1.678-1.184
				c-0.068-0.195-0.103-0.383-0.103-0.562c0-0.328,0.112-0.633,0.338-0.914c0.346-0.43,0.87-0.676,1.572-0.738
				c0.188-0.016,0.372-0.023,0.55-0.023c0.467,0,0.878,0.061,1.234,0.182c0.487,0.168,0.825,0.408,1.014,0.721
				c0.126,0.215,0.188,0.453,0.188,0.715c0,0.125-0.013,0.254-0.039,0.387l-1.682,0.029c0.016-0.098,0.023-0.188,0.023-0.27
				c0-0.391-0.168-0.6-0.503-0.627c-0.037-0.004-0.073-0.006-0.11-0.006c-0.346,0-0.579,0.131-0.699,0.393
				c-0.042,0.09-0.063,0.172-0.063,0.246c0,0.184,0.115,0.342,0.346,0.475c0.325,0.188,0.807,0.378,1.442,0.571
				c0.637,0.193,1.065,0.522,1.285,0.987c0.079,0.176,0.118,0.352,0.118,0.527c0,0.297-0.115,0.596-0.346,0.896
				c-0.367,0.48-0.936,0.76-1.706,0.838c-0.167,0.02-0.332,0.029-0.495,0.029c-0.576,0-1.11-0.111-1.604-0.334
				C132.889,65.587,132.569,64.995,132.559,64.097z"/>
			<path fill="#2B1C48" d="M143.375,66.077l-1.957,0.135c0.021-1.293,0.031-2.537,0.031-3.732c0-1.68-0.021-3.264-0.063-4.752
				l1.926-0.023c-0.021,0.957-0.031,1.939-0.031,2.947C143.28,62.39,143.312,64.198,143.375,66.077z"/>
			<path fill="#2B1C48" d="M146.817,60.159c1.782,0,2.673,0.922,2.673,2.766c0,0.074-0.003,0.148-0.008,0.223
				c-0.073,1.996-1.022,3.004-2.846,3.023c-0.021,0.004-0.042,0.006-0.062,0.006c-1.734,0-2.603-0.943-2.603-2.83v-0.164
				C144.024,61.167,144.973,60.159,146.817,60.159z M146.559,61.495c-0.33,0.086-0.556,0.404-0.677,0.955
				c-0.073,0.328-0.109,0.658-0.109,0.99c0,0.223,0.016,0.447,0.047,0.674c0.084,0.562,0.354,0.854,0.81,0.873h0.055
				c0.425,0,0.716-0.209,0.873-0.627c0.131-0.348,0.196-0.76,0.196-1.236c0-0.117-0.003-0.236-0.008-0.357
				c-0.042-0.629-0.168-1.021-0.377-1.178c-0.132-0.094-0.289-0.141-0.472-0.141C146.791,61.448,146.679,61.464,146.559,61.495z"/>
			<path fill="#2B1C48" d="M149.828,64.097l1.801-0.064v0.076c0,0.602,0.248,0.906,0.746,0.914h0.031
				c0.482,0,0.724-0.174,0.724-0.521V64.46c-0.021-0.383-0.497-0.691-1.427-0.926s-1.489-0.629-1.678-1.184
				c-0.068-0.195-0.103-0.383-0.103-0.562c0-0.328,0.112-0.633,0.338-0.914c0.346-0.43,0.87-0.676,1.572-0.738
				c0.188-0.016,0.372-0.023,0.55-0.023c0.467,0,0.878,0.061,1.234,0.182c0.487,0.168,0.825,0.408,1.014,0.721
				c0.126,0.215,0.188,0.453,0.188,0.715c0,0.125-0.013,0.254-0.039,0.387l-1.682,0.029c0.016-0.098,0.023-0.188,0.023-0.27
				c0-0.391-0.168-0.6-0.503-0.627c-0.037-0.004-0.073-0.006-0.11-0.006c-0.346,0-0.579,0.131-0.699,0.393
				c-0.042,0.09-0.063,0.172-0.063,0.246c0,0.184,0.115,0.342,0.346,0.475c0.325,0.188,0.807,0.378,1.442,0.571
				c0.637,0.193,1.065,0.522,1.285,0.987c0.079,0.176,0.118,0.352,0.118,0.527c0,0.297-0.115,0.596-0.346,0.896
				c-0.367,0.48-0.936,0.76-1.706,0.838c-0.167,0.02-0.332,0.029-0.495,0.029c-0.576,0-1.11-0.111-1.604-0.334
				C150.158,65.587,149.839,64.995,149.828,64.097z"/>
			<path fill="#2B1C48" d="M161.65,63.763l1.871,0.088c0,1.41-0.873,2.125-2.618,2.145c-0.021,0.004-0.039,0.006-0.055,0.006
				c-1.661,0-2.492-0.939-2.492-2.818v-0.176c0.053-2.016,0.938-3.033,2.657-3.053h0.062c1.583,0,2.374,0.676,2.374,2.027
				c0,0.078-0.003,0.156-0.008,0.234l-1.689,0.094v-0.141c0-0.711-0.271-1.066-0.81-1.066c-0.551,0-0.826,0.576-0.826,1.729v0.193
				c0.032,1.246,0.31,1.869,0.834,1.869h0.047c0.456-0.027,0.684-0.287,0.684-0.779C161.682,64.009,161.671,63.892,161.65,63.763z"
				/>
			<path fill="#2B1C48" d="M166.94,60.159c1.782,0,2.673,0.922,2.673,2.766c0,0.074-0.003,0.148-0.008,0.223
				c-0.073,1.996-1.022,3.004-2.846,3.023c-0.021,0.004-0.042,0.006-0.062,0.006c-1.734,0-2.603-0.943-2.603-2.83v-0.164
				C164.147,61.167,165.096,60.159,166.94,60.159z M166.682,61.495c-0.33,0.086-0.556,0.404-0.677,0.955
				c-0.073,0.328-0.109,0.658-0.109,0.99c0,0.223,0.016,0.447,0.047,0.674c0.084,0.562,0.354,0.854,0.81,0.873h0.055
				c0.425,0,0.716-0.209,0.873-0.627c0.131-0.348,0.196-0.76,0.196-1.236c0-0.117-0.003-0.236-0.008-0.357
				c-0.042-0.629-0.168-1.021-0.377-1.178c-0.132-0.094-0.289-0.141-0.472-0.141C166.914,61.448,166.802,61.464,166.682,61.495z"/>
			<path fill="#2B1C48" d="M171.492,60.007l0.078,0.955c0.221-0.508,0.8-0.766,1.737-0.773h0.031c0.923,0,1.552,0.27,1.887,0.809
				c0.23,0.367,0.346,1.227,0.346,2.578c0,0.664-0.028,1.449-0.086,2.355h-1.902c0.068-1.207,0.103-2.143,0.103-2.807
				c0-0.332-0.008-0.598-0.024-0.797c-0.052-0.586-0.304-0.879-0.754-0.879c-0.451,0-0.734,0.156-0.849,0.469l0.078,4.248
				l-1.848,0.012c0-1.797-0.081-3.814-0.243-6.053L171.492,60.007z"/>
			<path fill="#2B1C48" d="M177.537,58.29l1.784-0.088v1.939l1.502-0.029l0.023,1.107l-1.525,0.053v2.666
				c0,0.621,0.354,0.932,1.062,0.932c0.146,0,0.307-0.014,0.479-0.041l-0.071,1.289c-0.251,0.023-0.489,0.035-0.715,0.035
				c-1.656,0-2.5-0.637-2.531-1.91v-2.865l-1.289,0.059l-0.031-1.307l1.32,0.012L177.537,58.29z"/>
			<path fill="#2B1C48" d="M184.054,60.159c1.818,0,2.728,0.9,2.728,2.701c0,0.219-0.014,0.453-0.039,0.703h-3.514
				c0,1.004,0.259,1.506,0.778,1.506h0.055c0.456-0.027,0.684-0.287,0.684-0.779c0-0.105-0.011-0.223-0.031-0.352l1.871-0.029
				c0,1.488-0.873,2.242-2.618,2.262c-0.021,0.004-0.039,0.006-0.055,0.006c-1.661,0-2.492-0.939-2.492-2.818v-0.176
				C181.473,61.167,182.351,60.159,184.054,60.159z M183.04,62.485h1.776v-0.141c0-0.711-0.271-1.066-0.81-1.066
				C183.425,61.278,183.103,61.681,183.04,62.485z"/>
			<path fill="#2B1C48" d="M188.817,60.007l0.078,0.955c0.221-0.508,0.8-0.766,1.737-0.773h0.031c0.923,0,1.552,0.27,1.887,0.809
				c0.23,0.367,0.346,1.227,0.346,2.578c0,0.664-0.028,1.449-0.086,2.355h-1.902c0.068-1.207,0.103-2.143,0.103-2.807
				c0-0.332-0.008-0.598-0.024-0.797c-0.052-0.586-0.304-0.879-0.754-0.879c-0.451,0-0.734,0.156-0.849,0.469l0.078,4.248
				l-1.848,0.012c0-1.797-0.081-3.814-0.243-6.053L188.817,60.007z"/>
			<path fill="#2B1C48" d="M195.751,58.812c0,0.238-0.113,0.441-0.338,0.609c-0.226,0.168-0.498,0.252-0.818,0.252
				c-0.313,0-0.584-0.084-0.81-0.252c-0.225-0.168-0.338-0.371-0.338-0.609c0-0.234,0.113-0.436,0.338-0.604
				c0.226-0.168,0.496-0.252,0.81-0.252c0.32,0,0.593,0.084,0.818,0.252C195.638,58.376,195.751,58.577,195.751,58.812z
				 M193.645,66.206c-0.037-2.285-0.056-4.26-0.056-5.924l1.981-0.088c-0.063,1.594-0.095,3.178-0.095,4.752
				c0,0.422,0.003,0.842,0.008,1.26H193.645z"/>
			<path fill="#2B1C48" d="M202.125,57.886c-0.031,1.32-0.047,2.705-0.047,4.154c0,1.32,0.013,2.695,0.039,4.125l-1.863,0.006
				l-0.062-0.896c-0.388,0.434-0.904,0.65-1.549,0.65c-1.608,0-2.413-0.918-2.413-2.754c0-0.039,0.003-0.078,0.008-0.117
				c0.031-1.84,0.828-2.76,2.39-2.76c0.063,0,0.129,0.002,0.196,0.006c0.535,0.023,0.967,0.24,1.298,0.65
				c0-0.867-0.029-1.889-0.087-3.064H202.125z M200.16,64.073l-0.039-2.027c-0.305-0.309-0.616-0.463-0.936-0.463
				c-0.132,0-0.263,0.025-0.394,0.076c-0.414,0.16-0.621,0.609-0.621,1.348c0,0.086,0.003,0.174,0.008,0.264
				c0.053,0.895,0.32,1.367,0.802,1.418c0.048,0.004,0.095,0.006,0.142,0.006C199.542,64.694,199.888,64.487,200.16,64.073z"/>
			<path fill="#2B1C48" d="M205.513,60.159c1.782,0,2.673,0.922,2.673,2.766c0,0.074-0.003,0.148-0.008,0.223
				c-0.073,1.996-1.022,3.004-2.846,3.023c-0.021,0.004-0.042,0.006-0.062,0.006c-1.734,0-2.603-0.943-2.603-2.83v-0.164
				C202.72,61.167,203.668,60.159,205.513,60.159z M205.254,61.495c-0.33,0.086-0.556,0.404-0.677,0.955
				c-0.073,0.328-0.109,0.658-0.109,0.99c0,0.223,0.016,0.447,0.047,0.674c0.084,0.562,0.354,0.854,0.81,0.873h0.055
				c0.425,0,0.716-0.209,0.873-0.627c0.131-0.348,0.196-0.76,0.196-1.236c0-0.117-0.003-0.236-0.008-0.357
				c-0.042-0.629-0.168-1.021-0.377-1.178c-0.132-0.094-0.289-0.141-0.472-0.141C205.486,61.448,205.374,61.464,205.254,61.495z"/>
			<path fill="#2B1C48" d="M208.523,64.097l1.801-0.064v0.076c0,0.602,0.248,0.906,0.746,0.914h0.031
				c0.482,0,0.724-0.174,0.724-0.521V64.46c-0.021-0.383-0.497-0.691-1.427-0.926s-1.489-0.629-1.678-1.184
				c-0.068-0.195-0.103-0.383-0.103-0.562c0-0.328,0.112-0.633,0.338-0.914c0.346-0.43,0.87-0.676,1.572-0.738
				c0.188-0.016,0.372-0.023,0.55-0.023c0.467,0,0.878,0.061,1.234,0.182c0.487,0.168,0.825,0.408,1.014,0.721
				c0.126,0.215,0.188,0.453,0.188,0.715c0,0.125-0.013,0.254-0.039,0.387l-1.682,0.029c0.016-0.098,0.023-0.188,0.023-0.27
				c0-0.391-0.168-0.6-0.503-0.627c-0.037-0.004-0.073-0.006-0.11-0.006c-0.346,0-0.579,0.131-0.699,0.393
				c-0.042,0.09-0.063,0.172-0.063,0.246c0,0.184,0.115,0.342,0.346,0.475c0.325,0.188,0.807,0.378,1.442,0.571
				c0.637,0.193,1.065,0.522,1.285,0.987c0.079,0.176,0.118,0.352,0.118,0.527c0,0.297-0.115,0.596-0.346,0.896
				c-0.367,0.48-0.936,0.76-1.706,0.838c-0.167,0.02-0.332,0.029-0.495,0.029c-0.576,0-1.11-0.111-1.604-0.334
				C208.854,65.587,208.534,64.995,208.523,64.097z"/>
			<path fill="#2B1C48" d="M223.073,57.886c-0.031,1.32-0.047,2.705-0.047,4.154c0,1.32,0.013,2.695,0.039,4.125l-1.863,0.006
				l-0.062-0.896c-0.388,0.434-0.904,0.65-1.549,0.65c-1.608,0-2.413-0.918-2.413-2.754c0-0.039,0.003-0.078,0.008-0.117
				c0.031-1.84,0.828-2.76,2.39-2.76c0.063,0,0.129,0.002,0.196,0.006c0.535,0.023,0.967,0.24,1.298,0.65
				c0-0.867-0.029-1.889-0.087-3.064H223.073z M221.108,64.073l-0.039-2.027c-0.305-0.309-0.616-0.463-0.936-0.463
				c-0.132,0-0.263,0.025-0.394,0.076c-0.414,0.16-0.621,0.609-0.621,1.348c0,0.086,0.003,0.174,0.008,0.264
				c0.053,0.895,0.32,1.367,0.802,1.418c0.048,0.004,0.095,0.006,0.142,0.006C220.49,64.694,220.836,64.487,221.108,64.073z"/>
			<path fill="#2B1C48" d="M226.249,60.159c1.818,0,2.728,0.9,2.728,2.701c0,0.219-0.014,0.453-0.039,0.703h-3.514
				c0,1.004,0.259,1.506,0.778,1.506h0.055c0.456-0.027,0.684-0.287,0.684-0.779c0-0.105-0.011-0.223-0.031-0.352l1.871-0.029
				c0,1.488-0.873,2.242-2.618,2.262c-0.021,0.004-0.039,0.006-0.055,0.006c-1.661,0-2.492-0.939-2.492-2.818v-0.176
				C223.668,61.167,224.546,60.159,226.249,60.159z M225.235,62.485h1.776v-0.141c0-0.711-0.271-1.066-0.81-1.066
				C225.62,61.278,225.298,61.681,225.235,62.485z"/>
			<path fill="#2B1C48" d="M231.775,66.077l-1.957,0.135c0.021-1.293,0.031-2.537,0.031-3.732c0-1.68-0.021-3.264-0.063-4.752
				l1.926-0.023c-0.021,0.957-0.031,1.939-0.031,2.947C231.681,62.39,231.712,64.198,231.775,66.077z"/>
			<path fill="#2B1C48" d="M118.114,82.915c0.031-1.316,0.048-2.717,0.048-4.201c0-1.352-0.014-2.77-0.04-4.254l1.863-0.006
				l0.062,0.902c0.388-0.438,0.904-0.656,1.549-0.656c1.608,0,2.413,0.947,2.413,2.842v0.117c-0.037,1.898-0.839,2.848-2.405,2.848
				c-0.062,0-0.126-0.002-0.188-0.006c-0.534-0.02-0.967-0.236-1.297-0.65c0,0.867,0.028,1.889,0.086,3.064H118.114z M120.08,76.557
				l0.039,2.203c0.304,0.309,0.61,0.463,0.919,0.463c0.126,0,0.252-0.027,0.378-0.082c0.382-0.156,0.573-0.623,0.573-1.4
				c0-0.094-0.002-0.191-0.008-0.293c-0.052-0.953-0.307-1.455-0.762-1.506c-0.048-0.004-0.092-0.006-0.134-0.006
				C120.688,75.936,120.352,76.143,120.08,76.557z"/>
			<path fill="#2B1C48" d="M126.722,76.375l0.078,4.248l-1.926,0.012c0-1.797-0.081-3.814-0.243-6.053l1.446-0.117l0.078,0.955
				c0.221-0.469,0.734-0.736,1.541-0.803c0.12-0.008,0.236-0.012,0.346-0.012c0.634,0,1.116,0.154,1.446,0.463
				c0.383,0.367,0.576,0.951,0.582,1.752l-1.745,0.129c0.005-0.066,0.008-0.131,0.008-0.193c0-0.625-0.218-0.938-0.652-0.938h-0.031
				C127.146,75.838,126.837,76.024,126.722,76.375z"/>
			<path fill="#2B1C48" d="M133.151,74.559c1.818,0,2.728,0.9,2.728,2.701c0,0.219-0.014,0.453-0.039,0.703h-3.514
				c0,1.004,0.259,1.506,0.778,1.506h0.055c0.456-0.027,0.684-0.287,0.684-0.779c0-0.105-0.011-0.223-0.031-0.352l1.871-0.029
				c0,1.488-0.873,2.242-2.618,2.262c-0.021,0.004-0.039,0.006-0.055,0.006c-1.661,0-2.492-0.939-2.492-2.818v-0.176
				C130.57,75.567,131.448,74.559,133.151,74.559z M132.138,76.885h1.776v-0.141c0-0.711-0.271-1.066-0.81-1.066
				C132.522,75.678,132.2,76.081,132.138,76.885z"/>
			<path fill="#2B1C48" d="M136.374,78.497l1.801-0.064v0.076c0,0.602,0.248,0.906,0.746,0.914h0.031
				c0.482,0,0.724-0.174,0.724-0.521V78.86c-0.021-0.383-0.497-0.691-1.427-0.926s-1.489-0.629-1.678-1.184
				c-0.068-0.195-0.103-0.383-0.103-0.562c0-0.328,0.112-0.633,0.338-0.914c0.346-0.43,0.87-0.676,1.572-0.738
				c0.188-0.016,0.372-0.023,0.55-0.023c0.467,0,0.878,0.061,1.234,0.182c0.487,0.168,0.825,0.408,1.014,0.721
				c0.126,0.215,0.188,0.453,0.188,0.715c0,0.125-0.013,0.254-0.039,0.387l-1.682,0.029c0.016-0.098,0.023-0.188,0.023-0.27
				c0-0.391-0.168-0.6-0.503-0.627c-0.037-0.004-0.073-0.006-0.11-0.006c-0.346,0-0.579,0.131-0.699,0.393
				c-0.042,0.09-0.063,0.172-0.063,0.246c0,0.184,0.115,0.342,0.346,0.475c0.325,0.188,0.807,0.378,1.442,0.571
				c0.637,0.193,1.065,0.522,1.285,0.987c0.079,0.176,0.118,0.352,0.118,0.527c0,0.297-0.115,0.596-0.346,0.896
				c-0.367,0.48-0.936,0.76-1.706,0.838c-0.167,0.02-0.332,0.029-0.495,0.029c-0.576,0-1.11-0.111-1.604-0.334
				C136.704,79.987,136.385,79.395,136.374,78.497z"/>
			<path fill="#2B1C48" d="M144.604,74.559c1.818,0,2.728,0.9,2.728,2.701c0,0.219-0.014,0.453-0.039,0.703h-3.514
				c0,1.004,0.259,1.506,0.778,1.506h0.055c0.456-0.027,0.684-0.287,0.684-0.779c0-0.105-0.011-0.223-0.031-0.352l1.871-0.029
				c0,1.488-0.873,2.242-2.618,2.262c-0.021,0.004-0.039,0.006-0.055,0.006c-1.661,0-2.492-0.939-2.492-2.818v-0.176
				C142.023,75.567,142.901,74.559,144.604,74.559z M143.591,76.885h1.776v-0.141c0-0.711-0.271-1.066-0.81-1.066
				C143.976,75.678,143.653,76.081,143.591,76.885z"/>
			<path fill="#2B1C48" d="M149.368,74.407l0.078,0.955c0.221-0.508,0.8-0.766,1.737-0.773h0.031c0.923,0,1.552,0.27,1.887,0.809
				c0.23,0.367,0.346,1.227,0.346,2.578c0,0.664-0.028,1.449-0.086,2.355h-1.902c0.068-1.207,0.103-2.143,0.103-2.807
				c0-0.332-0.008-0.598-0.024-0.797c-0.052-0.586-0.304-0.879-0.754-0.879c-0.451,0-0.734,0.156-0.849,0.469l0.078,4.248
				l-1.848,0.012c0-1.797-0.081-3.814-0.243-6.053L149.368,74.407z"/>
			<path fill="#2B1C48" d="M155.413,72.69l1.784-0.088v1.939l1.502-0.029l0.023,1.107l-1.525,0.053v2.666
				c0,0.621,0.354,0.932,1.062,0.932c0.146,0,0.307-0.014,0.479-0.041l-0.071,1.289c-0.251,0.023-0.489,0.035-0.715,0.035
				c-1.656,0-2.5-0.637-2.531-1.91v-2.865l-1.289,0.059l-0.031-1.307l1.32,0.012L155.413,72.69z"/>
			<path fill="#2B1C48" d="M161.93,74.559c1.818,0,2.728,0.9,2.728,2.701c0,0.219-0.014,0.453-0.039,0.703h-3.514
				c0,1.004,0.259,1.506,0.778,1.506h0.055c0.456-0.027,0.684-0.287,0.684-0.779c0-0.105-0.011-0.223-0.031-0.352l1.871-0.029
				c0,1.488-0.873,2.242-2.618,2.262c-0.021,0.004-0.039,0.006-0.055,0.006c-1.661,0-2.492-0.939-2.492-2.818v-0.176
				C159.349,75.567,160.227,74.559,161.93,74.559z M160.916,76.885h1.776v-0.141c0-0.711-0.271-1.066-0.81-1.066
				C161.301,75.678,160.979,76.081,160.916,76.885z"/>
			<path fill="#2B1C48" d="M168.226,82.915c0.031-1.316,0.048-2.717,0.048-4.201c0-1.352-0.014-2.77-0.04-4.254l1.863-0.006
				l0.062,0.902c0.388-0.438,0.904-0.656,1.549-0.656c1.608,0,2.413,0.947,2.413,2.842v0.117c-0.037,1.898-0.839,2.848-2.405,2.848
				c-0.062,0-0.126-0.002-0.188-0.006c-0.534-0.02-0.967-0.236-1.297-0.65c0,0.867,0.028,1.889,0.086,3.064H168.226z
				 M170.191,76.557l0.039,2.203c0.304,0.309,0.61,0.463,0.919,0.463c0.126,0,0.252-0.027,0.378-0.082
				c0.382-0.156,0.573-0.623,0.573-1.4c0-0.094-0.002-0.191-0.008-0.293c-0.052-0.953-0.307-1.455-0.762-1.506
				c-0.048-0.004-0.092-0.006-0.134-0.006C170.799,75.936,170.463,76.143,170.191,76.557z"/>
			<path fill="#2B1C48" d="M176.833,76.375l0.078,4.248l-1.926,0.012c0-1.797-0.081-3.814-0.243-6.053l1.446-0.117l0.078,0.955
				c0.221-0.469,0.734-0.736,1.541-0.803c0.12-0.008,0.236-0.012,0.346-0.012c0.634,0,1.116,0.154,1.446,0.463
				c0.383,0.367,0.576,0.951,0.582,1.752l-1.745,0.129c0.005-0.066,0.008-0.131,0.008-0.193c0-0.625-0.218-0.938-0.652-0.938h-0.031
				C177.258,75.838,176.948,76.024,176.833,76.375z"/>
			<path fill="#2B1C48" d="M183.475,74.559c1.782,0,2.673,0.922,2.673,2.766c0,0.074-0.003,0.148-0.008,0.223
				c-0.073,1.996-1.022,3.004-2.846,3.023c-0.021,0.004-0.042,0.006-0.062,0.006c-1.734,0-2.603-0.943-2.603-2.83v-0.164
				C180.682,75.567,181.63,74.559,183.475,74.559z M183.216,75.895c-0.33,0.086-0.556,0.404-0.677,0.955
				c-0.073,0.328-0.109,0.658-0.109,0.99c0,0.223,0.016,0.447,0.047,0.674c0.084,0.562,0.354,0.854,0.81,0.873h0.055
				c0.425,0,0.716-0.209,0.873-0.627c0.131-0.348,0.196-0.76,0.196-1.236c0-0.117-0.003-0.236-0.008-0.357
				c-0.042-0.629-0.168-1.021-0.377-1.178c-0.132-0.094-0.289-0.141-0.472-0.141C183.448,75.848,183.336,75.864,183.216,75.895z"/>
			<path fill="#2B1C48" d="M186.8,81.256l1.848-0.076c-0.006,0.047-0.008,0.094-0.008,0.141c0,0.426,0.228,0.658,0.684,0.697
				c0.073,0.008,0.142,0.012,0.204,0.012c0.394,0,0.674-0.117,0.842-0.352c0.146-0.211,0.22-0.605,0.22-1.184
				c0-0.156-0.005-0.328-0.016-0.516c-0.294,0.438-0.839,0.676-1.635,0.715c-1.557-0.012-2.335-0.998-2.335-2.959v-0.041
				c0.011-1.984,0.936-2.982,2.774-2.994c0.504,0,0.954,0.219,1.353,0.656l0.023-0.932l1.722,0.059c0,3.223-0.014,5.219-0.04,5.988
				c-0.025,0.77-0.182,1.387-0.467,1.852c-0.286,0.465-0.772,0.762-1.459,0.891c-0.361,0.07-0.72,0.105-1.076,0.105
				c-0.32,0-0.637-0.027-0.951-0.082c-0.671-0.117-1.132-0.338-1.384-0.662c-0.209-0.266-0.314-0.613-0.314-1.043
				C186.784,81.446,186.79,81.354,186.8,81.256z M190.558,78.936v-2.379c-0.257-0.387-0.582-0.58-0.975-0.58
				c-0.079,0-0.16,0.008-0.244,0.023c-0.508,0.09-0.789,0.611-0.841,1.564c-0.005,0.102-0.008,0.199-0.008,0.293
				c0,0.777,0.193,1.254,0.581,1.43c0.132,0.062,0.271,0.094,0.417,0.094C189.813,79.381,190.17,79.233,190.558,78.936z"/>
			<path fill="#2B1C48" d="M195.172,76.375l0.078,4.248l-1.926,0.012c0-1.797-0.081-3.814-0.243-6.053l1.446-0.117l0.078,0.955
				c0.221-0.469,0.734-0.736,1.541-0.803c0.12-0.008,0.236-0.012,0.346-0.012c0.634,0,1.116,0.154,1.446,0.463
				c0.383,0.367,0.576,0.951,0.582,1.752l-1.745,0.129c0.005-0.066,0.008-0.131,0.008-0.193c0-0.625-0.218-0.938-0.652-0.938H196.1
				C195.597,75.838,195.287,76.024,195.172,76.375z"/>
			<path fill="#2B1C48" d="M202.089,74.389c1.724,0.07,2.586,0.717,2.586,1.939v4.16l-1.831,0.023l-0.063-0.557
				c-0.377,0.32-0.878,0.48-1.501,0.48c-0.268,0-0.556-0.031-0.865-0.094c-0.927-0.172-1.391-0.707-1.391-1.605
				c0-0.109,0.008-0.227,0.023-0.352c0.104-0.926,0.987-1.389,2.648-1.389c0.32,0,0.671,0.018,1.054,0.053v-0.68
				c0-0.551-0.233-0.826-0.699-0.826h-0.032c-0.036-0.004-0.07-0.006-0.102-0.006c-0.509,0-0.763,0.309-0.763,0.926v0.088
				l-1.871-0.117c0-1.363,0.881-2.045,2.642-2.045H202.089z M202.749,79.018v-1.031c-0.226-0.035-0.43-0.053-0.613-0.053
				c-0.477,0-0.802,0.119-0.975,0.357c-0.104,0.145-0.157,0.279-0.157,0.404c0,0.156,0.084,0.295,0.252,0.416
				c0.131,0.094,0.301,0.141,0.511,0.141C202.034,79.252,202.361,79.174,202.749,79.018z"/>
			<path fill="#2B1C48" d="M206.569,74.436l0.031,0.938c0.283-0.449,0.61-0.729,0.982-0.838c0.221-0.062,0.443-0.094,0.668-0.094
				c0.168,0,0.336,0.016,0.503,0.047c0.409,0.078,0.7,0.391,0.873,0.938c0.136-0.426,0.372-0.71,0.707-0.853
				c0.336-0.143,0.708-0.216,1.116-0.22h0.031c0.398,0,0.781,0.072,1.148,0.217c0.372,0.148,0.656,0.427,0.853,0.835
				s0.3,0.968,0.311,1.679v3.404l-1.698,0.029c0.068-1.285,0.103-2.379,0.103-3.281s-0.23-1.389-0.691-1.459
				c-0.068-0.008-0.134-0.012-0.197-0.012c-0.366,0-0.649,0.176-0.849,0.527c-0.031,0.406-0.047,0.881-0.047,1.424
				c0,0.738,0.028,1.6,0.086,2.584l-1.965,0.012c0.073-1.512,0.11-2.613,0.11-3.305v-0.07c-0.006-0.684-0.187-1.043-0.543-1.078H208
				c-0.32,0-0.629,0.137-0.928,0.41l0.016,4.289l-1.854,0.053v-0.961c0-1.703-0.034-3.404-0.103-5.104L206.569,74.436z"/>
			<path fill="#2B1C48" d="M217.307,74.389c1.724,0.07,2.586,0.717,2.586,1.939v4.16l-1.831,0.023l-0.063-0.557
				c-0.377,0.32-0.878,0.48-1.501,0.48c-0.268,0-0.556-0.031-0.865-0.094c-0.927-0.172-1.391-0.707-1.391-1.605
				c0-0.109,0.008-0.227,0.023-0.352c0.104-0.926,0.987-1.389,2.648-1.389c0.32,0,0.671,0.018,1.054,0.053v-0.68
				c0-0.551-0.233-0.826-0.699-0.826h-0.032c-0.036-0.004-0.07-0.006-0.102-0.006c-0.509,0-0.763,0.309-0.763,0.926v0.088
				l-1.871-0.117c0-1.363,0.881-2.045,2.642-2.045H217.307z M217.967,79.018v-1.031c-0.226-0.035-0.43-0.053-0.613-0.053
				c-0.477,0-0.802,0.119-0.975,0.357c-0.104,0.145-0.157,0.279-0.157,0.404c0,0.156,0.084,0.295,0.252,0.416
				c0.131,0.094,0.301,0.141,0.511,0.141C217.252,79.252,217.579,79.174,217.967,79.018z"/>
			<path fill="#2B1C48" d="M221.669,80.606c-0.314,0-0.584-0.084-0.81-0.252s-0.338-0.369-0.338-0.604
				c0-0.238,0.112-0.441,0.338-0.609s0.495-0.252,0.81-0.252c0.319,0,0.592,0.084,0.817,0.252s0.338,0.371,0.338,0.609
				c0,0.234-0.112,0.436-0.338,0.604S221.988,80.606,221.669,80.606z"/>
		</g>
	</g>
	<g>
		<g>
			<g>
				<path fill="#3F2D0F" d="M76.838,46.333c1.676-8.294,5.582-18.33,5.984-26.764c0.193-4.052,0.057-8.262-1.806-11.923
					c-1.86-3.661-5.842-6.639-10.156-6.357c-4.671,0.303-8.439,4.164-13.112,4.422c-3.308,0.183-6.451-1.488-9.763-1.549
					c-2.953-0.055-5.9,1.264-7.712,3.451c-1.543,1.863-2.3,4.296-4.201,5.842c-1.775,1.443-4.282,1.884-6.081,3.303
					c-2.471,1.953-3.051,5.263-3.322,8.282c-0.663,7.423-0.443,14.916,0.655,22.296L76.838,46.333z"/>
				<path fill="#FEFFFF" d="M74.56,138.393H11.226H0c0.47-5.103,2.175-16.874,8.227-27.527c1.852-3.261,4.115-6.417,6.873-9.244
					c2.085-2.143,4.46-4.099,7.16-5.764c0.008-0.005,0.012-0.009,0.015-0.01c0.005-0.003,0.007-0.005,0.007-0.005
					c3.246-2.01,6.962-3.6,11.217-4.606c3.217-0.769,6.745-1.199,10.607-1.224c4.023-0.024,7.661,0.378,10.958,1.131
					c0.003,0,0.005,0,0.01,0.002c0.031,0.007,0.063,0.014,0.096,0.021c3.516,0.812,6.64,2.019,9.411,3.526
					c2.54,1.382,4.785,3.012,6.77,4.821c2.674,2.436,4.878,5.194,6.689,8.088c0.006,0.007,0.012,0.017,0.018,0.024
					c0.065,0.104,0.132,0.209,0.194,0.313c8.46,13.771,8.248,30.452,8.248,30.452H74.56z"/>
				<path fill="#BE9478" d="M75.21,30.358c0.838,7.632,1.459,16.652,1.081,24.952c-0.523,11.537-8.867,21.212-20.229,23.276
					l-1.868,0.341l1.06,13.302l-21.636-0.22L28.88,61.043c0,0-7.804,1.453-12.254-5.645c-4.833-7.708-1.609-21.775,5.523-15.338
					c8.354,7.539,10.158,7.452,10.158,7.452c1.445-9.751-4.067-29.473,18.899-34.483C62.743,10.512,73.919,18.622,75.21,30.358z"/>
				<g>
					<path fill="#896B56" d="M26.295,53.495c-0.04-0.143-0.943,0.16-2.369-0.02c-1.4-0.15-3.36-0.977-4.439-2.86
						c-0.871-1.453-1.058-3.222-0.649-4.335c0.424-1.169,1.678-1.073,1.947-0.74l0.162-0.215c-0.296-0.082-0.448-0.099-0.467-0.055
						c-0.02,0.045,0.094,0.146,0.354,0.309l0.437,0.271l-0.274-0.488c-0.146-0.259-0.585-0.574-1.177-0.537
						c-0.58-0.006-1.309,0.438-1.633,1.163c-0.634,1.426-0.452,3.373,0.539,5.078c1.25,2.186,3.618,3.051,5.155,3.032
						C25.475,54.123,26.343,53.576,26.295,53.495z"/>
				</g>
				<g>
					<path fill="#896B56" d="M18.088,48.544c0.152,0.195,0.975-0.177,1.996,0.028c1.028,0.161,1.672,0.795,1.882,0.662
						c0.096-0.062,0.055-0.351-0.229-0.701c-0.278-0.347-0.82-0.71-1.498-0.832c-0.678-0.12-1.312,0.033-1.692,0.264
						C18.159,48.195,18.021,48.453,18.088,48.544z"/>
				</g>
				<path fill="#DDA87D" d="M61.801,66.528"/>
				<g>
					<path fill="#896B56" d="M48.422,77.776c-0.116,0.207,0.67,0.841,1.86,0.997c1.19,0.162,2.114-0.245,2.056-0.476
						c-0.052-0.245-0.92-0.26-1.938-0.401C49.379,77.766,48.537,77.552,48.422,77.776z"/>
				</g>
				<path fill="#FFFFFF" d="M50.747,46.629c0,0,1.022-5.994-5.383-7.522c-5.381-1.284-7.311,4.753-7.311,4.753L50.747,46.629z"/>
				<path fill="#3F2D0F" d="M45.983,39.282l-2.367,5.792l7.131,1.556C50.747,46.629,51.518,40.656,45.983,39.282z"/>
				<path fill="#FFFFFF" d="M74.466,44.652c0,0-1.691-5.842-8.123-4.427c-5.403,1.188-4.511,7.462-4.511,7.462L74.466,44.652z"/>
				<path fill="#3F2D0F" d="M66.977,40.112l0.392,6.245l7.098-1.705C74.466,44.652,72.557,38.938,66.977,40.112z"/>
				<g>
					<path fill="#3F2D0F" d="M64.61,33.008c0.175,0.342,0.889,0.314,1.836,0.649c0.959,0.294,2.299,1.021,3.961,1.801
						c3.243,1.515,5.991,2.651,6.406,2.037c0.41-0.597-1.823-2.825-5.277-4.44c-1.669-0.78-3.447-1.405-4.933-1.268
						C65.104,31.907,64.425,32.72,64.61,33.008z"/>
				</g>
				<path fill="#BE9478" d="M55.074,91.144c0,0-4.603,15.105-7.874,15.403c-2.77,0.253-13.702-15.311-13.702-15.311L55.074,91.144z"
					/>
				<g>
					<path fill="none" stroke="#DDCFAF" stroke-miterlimit="10" d="M56.722,57.708"/>
				</g>
				<path fill="#3F2D0F" d="M78.17,19.625c1.62,2.89-0.231,6.813-3.199,8.283c-2.969,1.471-6.562,0.98-9.645-0.235
					c-3.081-1.218-5.854-3.102-8.871-4.471c-6.537-2.967-14.194-3.385-21.014-1.144c1.642-5.329,6.183-9.457,11.371-11.503
					c5.188-2.047,10.958-2.207,16.485-1.463c3.715,0.502,7.454,1.432,10.6,3.47c3.146,2.04,5.64,5.33,6.007,9.062L78.17,19.625z"/>
				<g>
					<path fill="#3F2D0F" d="M34.69,34.391c0.128,0.355,1.13,0.326,2.677,0.324c1.551-0.03,3.699,0.052,6.229-0.172
						c2.544-0.228,4.912-1.021,6.344-2.098c1.453-1.066,1.891-2.152,1.633-2.373c-0.283-0.265-1.136,0.248-2.522,0.72
						c-1.385,0.495-3.375,0.894-5.712,1.108c-2.352,0.211-4.65,0.435-6.271,0.963C35.438,33.367,34.567,34.058,34.69,34.391z"/>
				</g>
				<g>
					<path fill="#896B56" d="M45.239,57.847c-0.106,0.025-0.036,0.9,0.486,2.211c0.514,1.302,1.547,3.022,3.188,4.448
						c0.795,0.703,1.755,1.362,2.847,1.393c1.105,0.022,1.901-0.615,2.369-1.157c0.905-1.166,1.047-2.031,0.976-2.07
						c-0.132-0.083-0.525,0.732-1.429,1.639c-0.456,0.422-1.133,0.839-1.879,0.775c-0.754-0.052-1.551-0.575-2.301-1.245
						C46.39,61.153,45.484,57.74,45.239,57.847z"/>
				</g>
				<g>
					<path fill="#896B56" d="M44.427,60.79c0.251-0.006,0.428-0.87,1.073-1.656c0.618-0.811,1.417-1.181,1.366-1.426
						c-0.011-0.244-1.218-0.198-2.06,0.876C43.955,59.651,44.186,60.835,44.427,60.79z"/>
				</g>
				<g opacity="0.44">
					
						<ellipse transform="matrix(-0.9975 -0.0711 0.0711 -0.9975 83.5504 103.1371)" fill="#B5766B" cx="43.611" cy="50.082" rx="5.947" ry="1.329"/>
				</g>
				<g opacity="0.44">
					<path fill="#B5766B" d="M65.928,52.294c0.136,0.716,2.33,0.896,4.826,0.138c2.499-0.754,4.224-2.121,3.94-2.791
						c-0.285-0.681-2.355-0.459-4.71,0.25C67.634,50.606,65.787,51.571,65.928,52.294z"/>
				</g>
				<g opacity="0.44">
					<path fill="#B5766B" d="M16.079,45.247c-0.329-0.074-0.978,1.038-1.044,3.064c-0.081,1.988,0.602,4.912,2.697,7.325
						c2.102,2.41,4.903,3.491,6.883,3.685c2.016,0.215,3.208-0.273,3.181-0.609c-0.015-0.389-1.151-0.596-2.749-1.218
						c-1.593-0.602-3.677-1.725-5.312-3.6c-1.631-1.879-2.454-4.096-2.832-5.758C16.51,46.468,16.462,45.315,16.079,45.247z"/>
				</g>
				<g opacity="0.44">
					<path fill="#B5766B" d="M17.771,44.537c0.694-0.161,1.216-1.276,2.062-1.799c0.778-0.618,2.006-0.73,2.394-1.329
						c0.169-0.309-0.046-0.854-0.797-1.21c-0.72-0.352-2-0.414-3.122,0.366c-1.115,0.791-1.491,2.015-1.404,2.812
						C16.984,44.205,17.423,44.592,17.771,44.537z"/>
				</g>
				<path fill="#896B56" d="M57.673,38.927c0,0,0.115,1.604,0.389,3.988c0.067,0.596,0.138,1.242,0.226,1.924
					c0.084,0.682,0.173,1.399,0.266,2.142c0.189,1.484,0.393,3.066,0.594,4.648c0.107,0.79,0.208,1.579,0.296,2.357
					c0.081,0.777,0.181,1.539,0.239,2.277c0.055,0.734,0.115,1.452,0.092,2.099c-0.004,0.162-0.02,0.316-0.04,0.457
					c-0.014,0.065-0.026,0.134-0.043,0.18c-0.015,0.054-0.036,0.076-0.014,0.064c0.098-0.04-0.034,0.013-0.101,0.033
					c-0.077,0.028-0.15,0.053-0.206,0.058c-0.062,0.013-0.121,0.025-0.182,0.037c-0.069,0.005-0.139,0.012-0.207,0.017
					c-0.555,0.035-1.099-0.027-1.569-0.101c-0.474-0.08-0.887-0.167-1.227-0.248c-0.68-0.161-1.065-0.279-1.065-0.279
					s0.09,0.048,0.258,0.134c0.169,0.082,0.415,0.21,0.742,0.345c0.325,0.137,0.725,0.299,1.201,0.441
					c0.476,0.143,1.022,0.29,1.669,0.313c0.081,0.001,0.163,0.003,0.247,0.005c0.091-0.009,0.184-0.019,0.277-0.026
					c0.102-0.009,0.18-0.025,0.254-0.044l0.116-0.027l0.03-0.007l0.015-0.003l0.007-0.002c-0.005,0.002,0.062-0.022,0.042-0.016
					c0.047-0.021,0.094-0.049,0.137-0.078c0.145-0.119,0.206-0.242,0.25-0.343c0.045-0.105,0.07-0.199,0.098-0.295
					c0.044-0.187,0.075-0.37,0.095-0.551c0.08-0.724,0.079-1.459,0.049-2.22c-0.032-0.758-0.071-1.539-0.153-2.328
					c-0.077-0.787-0.164-1.587-0.262-2.383c-0.113-0.794-0.228-1.589-0.34-2.37c-0.114-0.781-0.258-1.545-0.385-2.285
					s-0.271-1.452-0.407-2.127c-0.131-0.676-0.272-1.312-0.404-1.898C58.136,40.468,57.673,38.927,57.673,38.927z"/>
				<path fill="#B69A6D" d="M11.226,138.393H74.56c0.815-3.101,6.497-25.246,3.691-30.452c-0.061-0.112-0.126-0.22-0.194-0.313
					c-0.006-0.008-0.012-0.018-0.018-0.024c-1.955-2.672-4.164-5.597-6.689-8.088c-2.036-2.006-4.283-3.735-6.77-4.821
					c0,0-3.701,19.151-17.713,18.449c-14.01-0.702-24.586-17.3-24.586-17.3s-0.002,0.002-0.007,0.005
					c-0.003,0.001-0.007,0.005-0.015,0.01c-0.3,0.215-3.76,2.697-7.16,5.764c-2.474,2.229-4.911,4.766-6.075,6.959
					c-0.341,0.645-0.604,1.416-0.798,2.285C6.577,118.253,9.846,132.826,11.226,138.393z"/>
			</g>
			<g>
				<path fill="none" stroke="#9E978A" stroke-width="0.15" stroke-miterlimit="10" d="M57.163,13.196"/>
			</g>
			<g>
				<path fill="#513C1F" d="M37.601,19.378c0.181,0.39,2.695-0.816,6.974-0.533c2.129,0.103,4.658,0.559,7.487,1.205
					c2.812,0.639,6.037,1.482,9.568,1.711c3.511,0.24,7.136-0.26,9.954-1.938c2.867-1.623,4.533-4.284,5.248-6.534
					c0.745-2.294,0.637-4.277,0.354-5.547c-0.296-1.282-0.713-1.893-0.867-1.844c-0.194,0.056-0.126,0.753-0.161,1.942
					c-0.044,1.184-0.233,2.904-1.08,4.781c-0.835,1.859-2.327,3.875-4.686,5.066c-2.329,1.246-5.366,1.64-8.591,1.424
					c-3.246-0.207-6.318-0.93-9.256-1.46c-2.92-0.528-5.655-0.822-7.975-0.685c-2.318,0.104-4.17,0.65-5.34,1.202
					C38.048,18.711,37.528,19.243,37.601,19.378z"/>
			</g>
			<g>
				<path fill="#513C1F" d="M69.973,26.511c0.014,0.357,0.683,0.685,1.806,0.743c1.115,0.062,2.676-0.193,4.224-0.923
					c1.547-0.733,2.735-1.777,3.396-2.677c0.668-0.906,0.84-1.632,0.572-1.867c-0.58-0.48-2.527,0.959-5.102,2.144
					C72.318,25.167,69.97,25.758,69.973,26.511z"/>
			</g>
		</g>
		<path fill="#FFFFFF" d="M26.748,117.552h5.118c0,0,3.772,6.401,0,7.251c-3.77,0.848-13.144,0-13.144,0s-2.581-7.992,0-7.251
			s5.411,0,5.411,0H26.748z"/>
		<g>
			<path fill="#1F1E1C" d="M26.748,117.552l5.118-0.062l0.035-0.001l0.019,0.031c0.451,0.784,0.832,1.603,1.148,2.449
				c0.306,0.847,0.555,1.733,0.552,2.653c0.009,0.229-0.051,0.458-0.074,0.688c-0.083,0.215-0.132,0.453-0.268,0.645
				c-0.14,0.19-0.266,0.395-0.476,0.514c-0.097,0.067-0.189,0.144-0.289,0.203l-0.328,0.119c-0.218,0.095-0.452,0.14-0.669,0.163
				l-0.667,0.102c-0.441,0.082-0.891,0.12-1.344,0.139c-0.904,0.071-1.806,0.096-2.706,0.094c-0.9,0.024-1.8-0.02-2.699-0.041
				c-1.798-0.079-3.594-0.185-5.387-0.347l-0.065-0.006l-0.02-0.062c-0.334-1.091-0.622-2.191-0.843-3.31
				c-0.108-0.559-0.2-1.122-0.251-1.692c-0.041-0.567-0.07-1.15,0.092-1.719c0.078-0.275,0.273-0.574,0.591-0.646
				c0.314-0.07,0.592,0.057,0.865,0.102c0.277,0.053,0.552,0.151,0.832,0.168c0.279,0.028,0.558,0.073,0.84,0.089
				c0.565,0.028,1.132,0.022,1.697-0.021c0.563-0.055,1.128-0.123,1.682-0.251c-0.551,0.141-1.113,0.224-1.678,0.292
				c-0.566,0.058-1.135,0.077-1.705,0.063c-0.285-0.009-0.569-0.048-0.854-0.07c-0.289-0.012-0.56-0.102-0.84-0.148
				c-0.28-0.046-0.56-0.16-0.807-0.096c-0.253,0.06-0.417,0.301-0.491,0.562c-0.146,0.53-0.117,1.105-0.071,1.663
				c0.055,0.562,0.15,1.119,0.263,1.674c0.228,1.107,0.524,2.204,0.865,3.281l-0.084-0.067c1.789,0.146,3.584,0.237,5.377,0.301
				c0.897,0.008,1.795,0.062,2.691,0.046c0.898,0.01,1.793-0.008,2.683-0.07c0.445-0.015,0.892-0.048,1.336-0.126l0.667-0.096
				c0.231-0.025,0.438-0.062,0.636-0.149l0.307-0.107c0.092-0.054,0.174-0.122,0.262-0.183c0.194-0.104,0.306-0.29,0.435-0.46
				c0.126-0.172,0.171-0.394,0.252-0.591c0.021-0.217,0.082-0.43,0.074-0.65c0.012-0.883-0.225-1.76-0.521-2.6
				c-0.305-0.839-0.68-1.658-1.116-2.437l0.053,0.03L26.748,117.552z"/>
		</g>
		<g>
			<path fill="#1F1E1C" d="M25.56,117.504c0,0-0.036-0.102-0.07-0.253s-0.046-0.354-0.055-0.556
				c0.009-0.202,0.021-0.404,0.055-0.556c0.033-0.151,0.07-0.253,0.07-0.253s0.037,0.102,0.07,0.253
				c0.034,0.151,0.046,0.354,0.055,0.556c-0.009,0.202-0.021,0.404-0.055,0.556S25.56,117.504,25.56,117.504z"/>
		</g>
		<g>
			<path fill="#1F1E1C" d="M25.754,116.651c0,0,0.023-0.337,0.118-0.832c0.031-0.125,0.032-0.257,0.048-0.396
				c0.028-0.141,0.002-0.282-0.016-0.427c-0.011-0.066-0.009-0.161-0.029-0.207c-0.03-0.077-0.064-0.153-0.108-0.19
				c-0.075-0.1-0.211-0.189-0.338-0.202c-0.128-0.034-0.251,0.014-0.338,0.114c-0.051,0.065-0.08,0.079-0.104,0.169
				c-0.033,0.076-0.059,0.151-0.051,0.213c-0.021,0.258,0.046,0.562,0.117,0.795c0.15,0.479,0.185,0.822,0.185,0.822
				s-0.026-0.079-0.072-0.219c-0.053-0.137-0.151-0.321-0.245-0.558c-0.051-0.116-0.094-0.249-0.139-0.392
				c-0.033-0.147-0.082-0.296-0.059-0.489c-0.002-0.1,0.024-0.176,0.052-0.25c0.013-0.073,0.085-0.188,0.143-0.249
				c0.118-0.153,0.352-0.252,0.554-0.203c0.205,0.039,0.367,0.152,0.487,0.316c0.069,0.087,0.097,0.163,0.124,0.237
				c0.037,0.104,0.023,0.177,0.036,0.265c0.02,0.169,0.024,0.33-0.019,0.475c-0.031,0.145-0.049,0.287-0.091,0.404
				C25.856,116.33,25.754,116.651,25.754,116.651z"/>
		</g>
	</g>
</g>
</svg>
