<?xml version="1.0" encoding="utf-8"?>
<!-- Generator: Adobe Illustrator 16.0.0, SVG Export Plug-In . SVG Version: 6.00 Build 0)  -->
<!DOCTYPE svg PUBLIC "-//W3C//DTD SVG 1.1//EN" "http://www.w3.org/Graphics/SVG/1.1/DTD/svg11.dtd">
<svg version="1.1" id="Capa_1" xmlns="http://www.w3.org/2000/svg" xmlns:xlink="http://www.w3.org/1999/xlink" x="0px" y="0px"
	 width="294.752px" height="141.344px" viewBox="0 0 294.752 141.344" enable-background="new 0 0 294.752 141.344"
	 xml:space="preserve">
<g>
	<path fill-rule="evenodd" clip-rule="evenodd" fill="#FFFFFF" d="M287.051,84.609c3.884-5.917,3.657-9.697-0.849-16.336
		c-0.998,2.297-2.055,4.516-2.926,6.872c-0.244,0.663-0.162,1.933,0.142,2.573C284.511,80.037,285.764,82.207,287.051,84.609z"/>
	<path fill-rule="evenodd" clip-rule="evenodd" fill="#FFFFFF" d="M281.497,78.734c-1.129,1.723-2.176,3.169-3.071,4.784
		c-0.246,0.444-0.203,1.513-0.003,2.093c0.839,2.426,1.788,4.776,2.824,7.488c1.386-1.83,2.707-3.488,3.933-5.279
		c0.243-0.356,0.32-1.424,0.125-1.821C284.12,83.574,282.833,81.247,281.497,78.734z"/>
	<path fill-rule="evenodd" clip-rule="evenodd" fill="#FFFFFF" d="M275.315,99.468c1.574-1.661,2.898-3.059,4.371-4.614
		c-1.078-2.858-2.115-5.607-3.229-8.561c-1.093,1.16-2.123,2.07-2.976,3.244c-0.347,0.479-0.553,1.646-0.395,2.287
		C273.695,94.285,274.478,96.66,275.315,99.468z"/>
	<path fill-rule="evenodd" clip-rule="evenodd" fill="#FFFFFF" d="M291.259,73.48c1.756-8.253,2.125-7.451-2.652-14.221
		c-0.451,1.754-0.936,3.38-1.259,5.066c-0.108,0.555,0.09,1.373,0.336,1.895C288.815,68.624,290.011,70.966,291.259,73.48z"/>
	<path fill-rule="evenodd" clip-rule="evenodd" fill="#FFFFFF" d="M292.728,60.873c0.568-4.48,0.233-8.381-2.853-10.862
		C288.677,55.113,289.118,56.819,292.728,60.873z"/>
	<path fill-rule="evenodd" clip-rule="evenodd" fill="#FFFFFF" d="M292.372,48.912c-0.285-6.254-0.436-6.694-2.549-7.496
		C289.304,45.318,289.681,46.429,292.372,48.912z"/>
	<path fill-rule="evenodd" clip-rule="evenodd" fill="#FFFFFF" d="M285.165,22.736c1.057,2.993,2.112,5.987,3.168,8.98
		c0.263-0.205,0.526-0.41,0.789-0.616c-1.17-2.907-2.338-5.815-3.508-8.724C285.466,22.496,285.315,22.617,285.165,22.736z"/>
	<path fill-rule="evenodd" clip-rule="evenodd" fill="#FFFFFF" d="M288.427,34.94c0.588,1.331,1.178,2.663,1.769,3.995
		c0.192-0.17,0.386-0.341,0.579-0.51c-0.265-1.641-0.053-3.682-1.813-4.066C288.782,34.553,288.604,34.747,288.427,34.94z"/>
	<path fill-rule="evenodd" clip-rule="evenodd" fill="#311D43" d="M104.922,140.67c-1.096,1.155-1.913,0.832-2.039-1.015
		c-0.252-3.69-1.457-7.026-1.334-10.956c0.142-4.555-0.701-9.164-1.062-13.758c-0.191-2.445-0.865-3.363-2.797-3.377
		c-8.999-0.065-17.801-1.922-25.759-8.297c-8.866-7.101-14.746-17.462-15.628-32.26c-0.702-11.791,3.189-20.998,9.188-28.623
		c6.725-8.549,14.945-12.617,23.63-14.602c20.098-4.594,40.233-8.887,60.376-13.078c18.626-3.875,37.271-7.584,55.931-11.13
		c16.035-3.048,32.127-4.362,48.332-3.095c9.866,0.771,18.792,4.932,27.092,12.273c7.587,6.709,10.812,17.5,12.817,28.941
		c1.104,6.307,1.116,13.113,1.068,19.687c-0.084,11.524-2.93,21.542-9,29.61c-10.888,14.469-23.743,23.22-38.408,26.6
		c-18.167,4.187-36.524,5.331-54.882,6.125c-7.295,0.316-14.604,0.045-21.904-0.098c-4.873-0.096-9.744-0.333-14.609-0.69
		c-4.793-0.354-9.587-0.796-14.362-1.461c-4.733-0.66-9.487-0.786-14.224-1.431c-3.62-0.492-7.302-0.11-10.955-0.09
		c-0.37,0.002-0.75,0.15-1.106,0.314c-0.786,0.359-1.561,0.771-2.339,1.162c-0.896,0.868-0.797,1.9,0.175,2.981
		c0.448,0.501,0.624,1.491,0.924,2.261c-0.583,0.264-1.167,0.527-2.057,0.929C110.72,132.828,108.232,137.18,104.922,140.67z
		 M283.675,30.557c-6.854-16.619-16.949-25.388-30.586-25.916c0.247-0.199,0.484-0.432,0.746-0.588
		c0.25-0.15,0.524-0.222,0.787-0.328c-0.018-0.256-0.033-0.512-0.051-0.769c-7.605,0-15.221-0.346-22.816,0.067
		c-20.271,1.102-40.262,5.847-60.297,9.934c-19.966,4.072-39.929,8.188-59.87,12.486c-9.171,1.977-18.343,4.08-27.414,6.796
		c-6.895,2.065-13.207,6.343-18.38,13.437c-9.986,13.701-10.228,32.422-0.692,46.756c6.099,9.168,13.794,13.699,22.376,15.299
		c4.871,0.907,9.834,0.917,14.76,1.135c1.329,0.057,1.991,0.545,2.254,2.419c0.447,3.187,1.017,6.337,1.824,9.56
		c0.277-3.273,0.605-6.54,0.812-9.822c0.123-1.979,0.646-2.775,2.147-2.746c1.476,0.027,3.198,1.016,4.396-1.293
		c0.092-0.182,0.722-0.128,0.847,0.098c1.016,1.84,2.431,1.273,3.72,1.286c3.978,0.036,7.955,0.036,11.93-0.053
		c0.774-0.017,1.544-0.502,2.317-0.759c0.299-0.1,0.654-0.352,0.897-0.217c3.148,1.74,6.274,0.952,9.477,0.252
		c1.821-0.398,3.752,0.348,5.633,0.342c4.553-0.016,9.105-0.146,13.66-0.273c3.396-0.094,6.795-0.201,10.188-0.428
		c0.661-0.044,1.304-0.664,1.871-0.604c2.546,0.094,5.099,0.405,7.636,0.248c11.462-0.717,22.93-1.361,34.378-2.425
		c10.546-0.981,21.073-2.411,31.602-3.769c2.061-0.266,4.251-0.613,6.077-1.836c1.606-1.076,3.001-1.836,4.84-2.011
		c1.756-0.168,3.974-0.664,4.933-3.72c0.072-0.23,0.472-0.447,0.667-0.379c2.497,0.871,3.905-1.834,5.66-3.393
		c0.898-0.797,1.863-1.473,2.688-2.398c8.556-9.611,13.935-21.762,15.062-37.42c1.531-21.33-9.767-41.713-24.838-44.615
		c-0.182-0.035-0.373,0.035-0.92,0.095C273.288,10.251,282.387,20.84,283.675,30.557z M205.965,108.977
		c-0.171-0.443-0.682-0.899-1.026-0.886c-2.799,0.114-5.594,0.337-8.84,0.558c2.006,4.049,3.803,7.707,5.639,11.327
		c0.145,0.286,0.551,0.426,0.836,0.43c2.354,0.033,4.708,0.019,7.062,0.019c0.087-0.311,0.173-0.622,0.26-0.933
		C208.593,115.98,207.312,112.453,205.965,108.977z M186.218,110.541c-0.242-0.53-0.785-1.088-1.199-1.105
		c-2.475-0.103-4.951-0.051-8.092-0.051c2.305,4.206,4.241,7.781,6.225,11.305c0.199,0.352,0.677,0.535,1.027,0.543
		c2.076,0.051,4.152,0.025,6.754,0.025C189.104,117.072,187.695,113.773,186.218,110.541z M211.926,118.851
		c0.205,0.513,0.933,0.876,1.408,0.853c1.776-0.085,3.548-0.359,5.591-0.595c-0.883-4.142-2.02-7.87-4.051-10.931
		c-0.333-0.502-1.007-0.795-1.516-0.772c-1.764,0.071-3.524,0.323-5.539,0.534C209.235,111.748,210.527,115.343,211.926,118.851z
		 M224.802,106.582c-2.338,0.178-4.856,0.368-7.415,0.562c1.192,3.783,2.265,7.338,3.455,10.812c0.166,0.48,0.923,0.814,1.393,0.785
		c1.913-0.119,3.821-0.406,5.881-0.649C226.981,114.154,225.95,110.568,224.802,106.582z M192.353,119.662
		c0.314,0.684,1.102,1.282,1.683,1.304c1.71,0.063,3.425-0.184,5.577-0.341c-1.193-2.438-2.467-4.372-3.19-6.656
		c-1.727-5.45-4.731-5.771-8.492-4.582C189.438,112.932,190.831,116.355,192.353,119.662z M173.927,120.9c1.855,0,4.206,0,6.896,0
		c-1.901-3.555-3.608-6.887-5.448-10.067c-0.373-0.646-1.238-0.992-1.882-1.005c-1.722-0.032-3.445,0.189-5.647,0.344
		C169.94,113.869,171.817,117.18,173.927,120.9z M230.021,116.648c0.18,0.517,0.893,0.941,1.354,0.93
		c1.271-0.029,2.534-0.312,4.153-0.547c-0.404-3.819-0.791-7.492-1.205-11.398c-2.559,0.256-4.826,0.482-7.598,0.76
		C227.91,110.137,228.905,113.434,230.021,116.648z M264.421,97.027c-2.023,1.066-3.975,2.095-6.149,3.242
		c0.952,3.036,1.893,6.041,2.933,9.359c2.221-1.359,4.414-2.702,6.789-4.156C266.757,102.55,265.618,99.857,264.421,97.027z
		 M243.321,115.713c-0.299-3.346-0.527-6.483-0.902-9.584c-0.069-0.568-0.745-1.428-1.119-1.406c-1.639,0.09-3.27,0.457-4.959,0.732
		c0.368,3.756,0.716,7.304,1.103,11.26C239.437,116.375,241.321,116.055,243.321,115.713z M245.286,115.228
		c2.166-0.546,4.076-1.027,6.23-1.571c-0.523-3.635-1.01-7.02-1.526-10.609c-1.85,0.391-3.587,0.758-5.731,1.211
		C244.606,107.98,244.929,111.418,245.286,115.228z M286.202,68.273c-0.998,2.297-2.055,4.516-2.926,6.872
		c-0.244,0.663-0.162,1.933,0.142,2.573c1.093,2.318,2.346,4.488,3.633,6.891C290.935,78.692,290.708,74.912,286.202,68.273z
		 M151.911,110.871c-2.124,0-4.201,0-6.41,0c1.047,2.798,1.961,5.361,2.975,7.842c0.2,0.49,0.772,0.922,1.186,0.945
		c1.774,0.104,3.553,0.045,5.437,0.045C153.993,116.645,152.929,113.691,151.911,110.871z M278.426,83.519
		c-0.246,0.444-0.203,1.513-0.003,2.093c0.839,2.426,1.788,4.776,2.824,7.488c1.386-1.83,2.707-3.488,3.933-5.279
		c0.243-0.356,0.32-1.424,0.125-1.821c-1.185-2.425-2.472-4.752-3.808-7.265C280.368,80.457,279.321,81.903,278.426,83.519z
		 M259.376,110.55c-0.832-2.64-1.656-4.979-2.305-7.413c-0.496-1.852-1.245-2.234-2.486-1.593c-0.768,0.396-1.59,0.585-2.648,0.958
		c0.479,3.396,0.943,6.707,1.479,10.513C255.55,112.133,257.421,111.358,259.376,110.55z M164.664,119.566
		c0.239,0.612,0.95,1.145,1.468,1.193c1.65,0.149,3.313,0.055,5.357,0.055c-0.992-1.646-1.837-3.013-2.654-4.41
		c-0.53-0.904-1.161-1.76-1.507-2.797c-1.228-3.684-3.259-3.997-5.837-2.896C162.578,113.794,163.554,116.734,164.664,119.566z
		 M136.453,111.135c1.258,6.254,3.957,8.473,9.82,7.95C144.017,110.959,143.209,110.32,136.453,111.135z M157.42,119.295
		c0.294,0.631,1.146,0.929,1.77,1.023c1.065,0.162,2.153,0.045,3.576,0.045c-1.196-3.213-2.274-6.236-3.464-9.172
		c-0.18-0.441-0.863-0.623-1.324-0.658c-1.208-0.09-2.422-0.029-4.214-0.029C155.15,113.898,156.198,116.678,157.42,119.295z
		 M271.011,92.009c-1.629,1.304-3.106,2.487-4.816,3.855c1.17,2.745,2.306,5.404,3.514,8.234c1.319-1.068,2.573-2.082,3.934-3.183
		C272.755,97.913,271.904,95.033,271.011,92.009z M279.687,94.854c-1.078-2.858-2.115-5.607-3.229-8.561
		c-1.093,1.16-2.123,2.07-2.976,3.244c-0.347,0.479-0.553,1.646-0.395,2.287c0.608,2.461,1.391,4.836,2.229,7.644
		C276.89,97.807,278.214,96.409,279.687,94.854z M136.554,117.951c-1.076-6.009-2.985-7.277-10.318-6.787
		C128.322,117.688,132.29,118.354,136.554,117.951z M288.606,59.26c-0.451,1.754-0.936,3.38-1.259,5.066
		c-0.108,0.555,0.09,1.373,0.336,1.895c1.132,2.403,2.327,4.745,3.575,7.26C293.015,65.228,293.384,66.029,288.606,59.26z
		 M116.936,111.441c1.104,1.77,2.156,3.455,3.446,5.525c1.792,0,4.012,0,6.425,0C124.413,111.85,121.249,110.045,116.936,111.441z
		 M108.677,131.511c-0.691-0.593-1.223-1.05-1.56-1.34c-0.664,0.796-1.188,1.425-1.712,2.053c-0.284-0.897-0.72-1.761-0.829-2.7
		c-0.626-5.429-1.169-10.877-1.761-16.314c-0.054-0.488-0.249-0.945-0.749-1.298c0.233,1.843,0.525,3.678,0.686,5.534
		c0.364,4.219,0.542,8.479,1.038,12.662c0.235,1.982,1.031,3.83,1.573,5.739c0.255-0.039,0.51-0.077,0.765-0.115
		C106.946,134.376,107.766,133.021,108.677,131.511z M111.727,114.346c2.302,3.439,2.266,3.484,5.685,2.572
		c-2.456-5.66-6.428-7.951-8.146-5.148C110.092,112.617,111.036,113.312,111.727,114.346z M289.875,50.011
		c-1.198,5.103-0.757,6.809,2.853,10.862C293.296,56.393,292.961,52.492,289.875,50.011z M289.823,41.416
		c-0.52,3.902-0.143,5.013,2.549,7.496C292.087,42.658,291.937,42.218,289.823,41.416z M108.277,122.572
		c-1.407,3.813-1.3,4.4,1.25,6.157C110.665,125.025,110.613,124.789,108.277,122.572z M111.657,118.361
		c-0.821-1.305-1.611-2.562-2.438-3.875c-1.027,3.602-1.004,3.742,1.141,6.538C110.849,120.023,111.233,119.23,111.657,118.361z
		 M288.333,31.717c0.263-0.205,0.526-0.41,0.789-0.616c-1.17-2.907-2.338-5.815-3.508-8.724c-0.148,0.119-0.299,0.24-0.449,0.359
		C286.222,25.729,287.277,28.724,288.333,31.717z M290.195,38.936c0.192-0.17,0.386-0.341,0.579-0.51
		c-0.265-1.641-0.053-3.682-1.813-4.066c-0.179,0.193-0.356,0.388-0.534,0.581C289.015,36.271,289.604,37.604,290.195,38.936z"/>
	<path fill-rule="evenodd" clip-rule="evenodd" fill="#FFFFFF" d="M262.915,4.91c15.071,2.902,26.369,23.285,24.838,44.615
		c-1.127,15.658-6.506,27.809-15.062,37.42c-0.825,0.926-1.79,1.602-2.688,2.398c-1.755,1.559-3.163,4.264-5.66,3.393
		c-0.195-0.068-0.595,0.148-0.667,0.379c-0.959,3.056-3.177,3.552-4.933,3.72c-1.839,0.175-3.233,0.935-4.84,2.011
		c-1.826,1.223-4.017,1.57-6.077,1.836c-10.528,1.357-21.056,2.787-31.602,3.769c-11.448,1.063-22.916,1.708-34.378,2.425
		c-2.537,0.157-5.09-0.154-7.636-0.248c-0.567-0.061-1.21,0.56-1.871,0.604c-3.394,0.227-6.792,0.334-10.188,0.428
		c-4.555,0.127-9.107,0.258-13.66,0.273c-1.881,0.006-3.812-0.74-5.633-0.342c-3.202,0.7-6.328,1.488-9.477-0.252
		c-0.243-0.135-0.599,0.117-0.897,0.217c-0.773,0.257-1.543,0.742-2.317,0.759c-3.975,0.089-7.952,0.089-11.93,0.053
		c-1.289-0.013-2.704,0.554-3.72-1.286c-0.125-0.226-0.755-0.279-0.847-0.098c-1.197,2.309-2.92,1.32-4.396,1.293
		c-1.502-0.029-2.024,0.768-2.147,2.746c-0.207,3.282-0.535,6.549-0.812,9.822c-0.808-3.223-1.377-6.373-1.824-9.56
		c-0.263-1.874-0.925-2.362-2.254-2.419c-4.926-0.218-9.889-0.228-14.76-1.135c-8.582-1.6-16.277-6.131-22.376-15.299
		c-9.535-14.334-9.294-33.055,0.692-46.756c5.173-7.094,11.485-11.371,18.38-13.437c9.071-2.716,18.243-4.819,27.414-6.796
		c19.941-4.299,39.904-8.414,59.87-12.486c20.035-4.087,40.025-8.832,60.297-9.934c7.596-0.413,15.211-0.067,22.816-0.067
		c0.018,0.257,0.033,0.513,0.051,0.769c-0.263,0.106-0.537,0.178-0.787,0.328c-0.262,0.156-0.499,0.389-0.746,0.588
		c13.637,0.528,23.732,9.297,30.586,25.916c-1.288-9.717-10.387-20.306-21.68-25.552C262.542,4.945,262.733,4.875,262.915,4.91z
		 M59.948,72.711c-0.99-8.367,0.782-15.395,5.398-21.11c-0.246-0.229-0.493-0.459-0.74-0.688c-0.968,1.387-2.107,2.605-2.876,4.186
		c-3.872,7.967-4.004,16.555-1.132,24.97c1.499,4.396,3.955,8.14,6.019,12.138c0.254,0.493,0.753,0.734,1.136,1.092
		c0.16-0.208,0.321-0.416,0.48-0.626C64.304,86.957,60.908,80.832,59.948,72.711z M251.188,4.873c-0.87-1.313-4.085-1.629-6.278,0
		C246.987,4.873,249.066,4.873,251.188,4.873z"/>
	<path fill-rule="evenodd" clip-rule="evenodd" fill="#FFFFFF" d="M209.896,119.491c-1.303-3.511-2.584-7.038-3.931-10.515
		c-0.171-0.443-0.682-0.899-1.026-0.886c-2.799,0.114-5.594,0.337-8.84,0.558c2.006,4.049,3.803,7.707,5.639,11.327
		c0.145,0.286,0.551,0.426,0.836,0.43c2.354,0.033,4.708,0.019,7.062,0.019C209.723,120.113,209.809,119.802,209.896,119.491z"/>
	<path fill-rule="evenodd" clip-rule="evenodd" fill="#FFFFFF" d="M190.933,121.258c-1.829-4.186-3.237-7.484-4.715-10.717
		c-0.242-0.53-0.785-1.088-1.199-1.105c-2.475-0.103-4.951-0.051-8.092-0.051c2.305,4.206,4.241,7.781,6.225,11.305
		c0.199,0.352,0.677,0.535,1.027,0.543C186.255,121.283,188.331,121.258,190.933,121.258z"/>
	<path fill-rule="evenodd" clip-rule="evenodd" fill="#FFFFFF" d="M207.819,107.939c1.416,3.809,2.708,7.403,4.106,10.911
		c0.205,0.513,0.933,0.876,1.408,0.853c1.776-0.085,3.548-0.359,5.591-0.595c-0.883-4.142-2.02-7.87-4.051-10.931
		c-0.333-0.502-1.007-0.795-1.516-0.772C211.595,107.477,209.834,107.729,207.819,107.939z"/>
	<path fill-rule="evenodd" clip-rule="evenodd" fill="#FFFFFF" d="M228.115,118.093c-1.134-3.938-2.165-7.524-3.313-11.511
		c-2.338,0.178-4.856,0.368-7.415,0.562c1.192,3.783,2.265,7.338,3.455,10.812c0.166,0.48,0.923,0.814,1.393,0.785
		C224.147,118.623,226.056,118.336,228.115,118.093z"/>
	<path fill-rule="evenodd" clip-rule="evenodd" fill="#FFFFFF" d="M187.93,109.387c1.509,3.545,2.901,6.969,4.423,10.275
		c0.314,0.684,1.102,1.282,1.683,1.304c1.71,0.063,3.425-0.184,5.577-0.341c-1.193-2.438-2.467-4.372-3.19-6.656
		C194.695,108.519,191.69,108.197,187.93,109.387z"/>
	<path fill-rule="evenodd" clip-rule="evenodd" fill="#FFFFFF" d="M167.845,110.172c2.096,3.697,3.973,7.008,6.082,10.729
		c1.855,0,4.206,0,6.896,0c-1.901-3.555-3.608-6.887-5.448-10.067c-0.373-0.646-1.238-0.992-1.882-1.005
		C171.771,109.796,170.047,110.018,167.845,110.172z"/>
	<path fill-rule="evenodd" clip-rule="evenodd" fill="#FFFFFF" d="M226.726,106.393c1.185,3.744,2.18,7.041,3.295,10.256
		c0.18,0.517,0.893,0.941,1.354,0.93c1.271-0.029,2.534-0.312,4.153-0.547c-0.404-3.819-0.791-7.492-1.205-11.398
		C231.765,105.889,229.497,106.115,226.726,106.393z"/>
	<path fill-rule="evenodd" clip-rule="evenodd" fill="#FFFFFF" d="M267.993,105.473c-1.236-2.923-2.375-5.615-3.572-8.445
		c-2.023,1.066-3.975,2.095-6.149,3.242c0.952,3.036,1.893,6.041,2.933,9.359C263.425,108.27,265.618,106.927,267.993,105.473z"/>
	<path fill-rule="evenodd" clip-rule="evenodd" fill="#FFFFFF" d="M237.443,116.715c1.993-0.34,3.878-0.66,5.878-1.002
		c-0.299-3.346-0.527-6.483-0.902-9.584c-0.069-0.568-0.745-1.428-1.119-1.406c-1.639,0.09-3.27,0.457-4.959,0.732
		C236.709,109.211,237.057,112.759,237.443,116.715z"/>
	<path fill-rule="evenodd" clip-rule="evenodd" fill="#FFFFFF" d="M244.259,104.258c0.348,3.723,0.67,7.16,1.027,10.97
		c2.166-0.546,4.076-1.027,6.23-1.571c-0.523-3.635-1.01-7.02-1.526-10.609C248.141,103.438,246.403,103.805,244.259,104.258z"/>
	<path fill-rule="evenodd" clip-rule="evenodd" fill="#FFFFFF" d="M155.098,119.703c-1.104-3.059-2.169-6.012-3.187-8.832
		c-2.124,0-4.201,0-6.41,0c1.047,2.798,1.961,5.361,2.975,7.842c0.2,0.49,0.772,0.922,1.186,0.945
		C151.436,119.762,153.214,119.703,155.098,119.703z"/>
	<path fill-rule="evenodd" clip-rule="evenodd" fill="#FFFFFF" d="M253.415,113.015c2.135-0.882,4.006-1.656,5.961-2.465
		c-0.832-2.64-1.656-4.979-2.305-7.413c-0.496-1.852-1.245-2.234-2.486-1.593c-0.768,0.396-1.59,0.585-2.648,0.958
		C252.415,105.898,252.88,109.209,253.415,113.015z"/>
	<path fill-rule="evenodd" clip-rule="evenodd" fill="#FFFFFF" d="M161.491,110.711c1.087,3.083,2.062,6.023,3.173,8.855
		c0.239,0.612,0.95,1.145,1.468,1.193c1.65,0.149,3.313,0.055,5.357,0.055c-0.992-1.646-1.837-3.013-2.654-4.41
		c-0.53-0.904-1.161-1.76-1.507-2.797C166.101,109.924,164.069,109.61,161.491,110.711z"/>
	<path fill-rule="evenodd" clip-rule="evenodd" fill="#FFFFFF" d="M146.273,119.085c-2.257-8.126-3.064-8.765-9.82-7.95
		C137.711,117.389,140.41,119.607,146.273,119.085z"/>
	<path fill-rule="evenodd" clip-rule="evenodd" fill="#FFFFFF" d="M153.764,110.504c1.387,3.395,2.435,6.174,3.656,8.791
		c0.294,0.631,1.146,0.929,1.77,1.023c1.065,0.162,2.153,0.045,3.576,0.045c-1.196-3.213-2.274-6.236-3.464-9.172
		c-0.18-0.441-0.863-0.623-1.324-0.658C156.77,110.443,155.556,110.504,153.764,110.504z"/>
	<path fill-rule="evenodd" clip-rule="evenodd" fill="#FFFFFF" d="M273.642,100.916c-0.887-3.003-1.737-5.883-2.631-8.907
		c-1.629,1.304-3.106,2.487-4.816,3.855c1.17,2.745,2.306,5.404,3.514,8.234C271.027,103.03,272.281,102.017,273.642,100.916z"/>
	<path fill-rule="evenodd" clip-rule="evenodd" fill="#FFFFFF" d="M126.235,111.164c2.087,6.524,6.055,7.189,10.318,6.787
		C135.478,111.942,133.568,110.674,126.235,111.164z"/>
	<path fill-rule="evenodd" clip-rule="evenodd" fill="#FFFFFF" d="M126.807,116.967c-2.394-5.117-5.558-6.922-9.871-5.525
		c1.104,1.77,2.156,3.455,3.446,5.525C122.174,116.967,124.394,116.967,126.807,116.967z"/>
	<path fill-rule="evenodd" clip-rule="evenodd" fill="#FFFFFF" d="M106.128,135.731c0.818-1.355,1.638-2.711,2.549-4.221
		c-0.691-0.593-1.223-1.05-1.56-1.34c-0.664,0.796-1.188,1.425-1.712,2.053c-0.284-0.897-0.72-1.761-0.829-2.7
		c-0.626-5.429-1.169-10.877-1.761-16.314c-0.054-0.488-0.249-0.945-0.749-1.298c0.233,1.843,0.525,3.678,0.686,5.534
		c0.364,4.219,0.542,8.479,1.038,12.662c0.235,1.982,1.031,3.83,1.573,5.739C105.618,135.808,105.873,135.77,106.128,135.731z"/>
	<path fill-rule="evenodd" clip-rule="evenodd" fill="#FFFFFF" d="M109.266,111.77c0.826,0.848,1.771,1.543,2.461,2.576
		c2.302,3.439,2.266,3.484,5.685,2.572C114.955,111.258,110.983,108.967,109.266,111.77z"/>
	<path fill-rule="evenodd" clip-rule="evenodd" fill="#FFFFFF" d="M109.527,128.729c1.138-3.704,1.086-3.94-1.25-6.157
		C106.87,126.386,106.978,126.973,109.527,128.729z"/>
	<path fill-rule="evenodd" clip-rule="evenodd" fill="#FFFFFF" d="M110.36,121.024c0.488-1.001,0.873-1.794,1.297-2.663
		c-0.821-1.305-1.611-2.562-2.438-3.875C108.192,118.088,108.216,118.229,110.36,121.024z"/>
	<path fill-rule="evenodd" clip-rule="evenodd" d="M68.233,92.671c-3.93-5.714-7.325-11.839-8.285-19.96
		c-0.99-8.367,0.782-15.395,5.398-21.11c-0.246-0.229-0.493-0.459-0.74-0.688c-0.968,1.387-2.107,2.605-2.876,4.186
		c-3.872,7.967-4.004,16.555-1.132,24.97c1.499,4.396,3.955,8.14,6.019,12.138c0.254,0.493,0.753,0.734,1.136,1.092
		C67.913,93.089,68.074,92.881,68.233,92.671z"/>
	<path fill-rule="evenodd" clip-rule="evenodd" d="M244.909,4.873c2.078,0,4.157,0,6.278,0
		C250.317,3.56,247.103,3.244,244.909,4.873z"/>
	<g>
		<g>
			<path fill="#311D43" d="M103.445,45.631c0.313,0,0.584,0.084,0.81,0.252c0.225,0.168,0.338,0.369,0.338,0.604
				c0,0.238-0.113,0.441-0.338,0.609c-0.226,0.168-0.496,0.252-0.81,0.252c-0.32,0-0.593-0.084-0.818-0.252
				c-0.225-0.168-0.338-0.371-0.338-0.609c0-0.234,0.113-0.436,0.338-0.604C102.853,45.715,103.125,45.631,103.445,45.631z
				 M102.478,53.881c0.074-1.988,0.124-3.953,0.149-5.895l1.745-0.029c0.053,1.664,0.113,3.639,0.181,5.924H102.478z"/>
			<path fill="#311D43" d="M110.078,43.217v1.652l-3.104-0.088v2.197l2.791-0.053l0.07,1.588h-2.492v2.889l-2.177-0.076
				c0.058-1.098,0.086-2.203,0.086-3.316c0-1.543-0.055-3.1-0.165-4.67C106.271,43.301,107.936,43.26,110.078,43.217z"/>
			<path fill="#311D43" d="M113.325,45.76c1.818,0,2.728,0.9,2.728,2.701c0,0.219-0.014,0.453-0.039,0.703H112.5
				c0,1.004,0.259,1.506,0.778,1.506h0.055c0.456-0.027,0.684-0.287,0.684-0.779c0-0.105-0.011-0.223-0.031-0.352l1.871-0.029
				c0,1.488-0.873,2.242-2.618,2.262c-0.021,0.004-0.039,0.006-0.055,0.006c-1.661,0-2.492-0.939-2.492-2.818v-0.176
				C110.744,46.768,111.622,45.76,113.325,45.76z M112.312,48.086h1.776v-0.141c0-0.711-0.271-1.066-0.81-1.066
				C112.696,46.879,112.374,47.281,112.312,48.086z"/>
			<path fill="#311D43" d="M118.852,51.678l-1.957,0.135c0.021-1.293,0.031-2.537,0.031-3.732c0-1.68-0.021-3.264-0.063-4.752
				l1.926-0.023c-0.021,0.957-0.031,1.939-0.031,2.947C118.757,47.99,118.788,49.799,118.852,51.678z"/>
			<path fill="#311D43" d="M121.729,44.412c0,0.238-0.113,0.441-0.338,0.609c-0.226,0.168-0.498,0.252-0.818,0.252
				c-0.313,0-0.584-0.084-0.81-0.252c-0.225-0.168-0.338-0.371-0.338-0.609c0-0.234,0.113-0.436,0.338-0.604
				c0.226-0.168,0.496-0.252,0.81-0.252c0.32,0,0.593,0.084,0.818,0.252C121.615,43.977,121.729,44.178,121.729,44.412z
				 M119.622,51.807c-0.037-2.285-0.056-4.26-0.056-5.924l1.981-0.088c-0.063,1.594-0.095,3.178-0.095,4.752
				c0,0.422,0.003,0.842,0.008,1.26H119.622z"/>
			<path fill="#311D43" d="M125.375,49.363l1.871,0.088c0,1.41-0.873,2.125-2.618,2.145c-0.021,0.004-0.039,0.006-0.055,0.006
				c-1.661,0-2.492-0.939-2.492-2.818v-0.176c0.053-2.016,0.938-3.033,2.657-3.053h0.062c1.583,0,2.374,0.676,2.374,2.027
				c0,0.078-0.003,0.156-0.008,0.234l-1.689,0.094V47.77c0-0.711-0.271-1.066-0.81-1.066c-0.551,0-0.826,0.576-0.826,1.729v0.193
				c0.032,1.246,0.31,1.869,0.834,1.869h0.047c0.456-0.027,0.684-0.287,0.684-0.779C125.406,49.609,125.396,49.492,125.375,49.363z"
				/>
			<path fill="#311D43" d="M130.1,44.412c0,0.238-0.113,0.441-0.338,0.609c-0.226,0.168-0.498,0.252-0.818,0.252
				c-0.313,0-0.584-0.084-0.81-0.252c-0.225-0.168-0.338-0.371-0.338-0.609c0-0.234,0.113-0.436,0.338-0.604
				c0.226-0.168,0.496-0.252,0.81-0.252c0.32,0,0.593,0.084,0.818,0.252C129.986,43.977,130.1,44.178,130.1,44.412z M127.993,51.807
				c-0.037-2.285-0.056-4.26-0.056-5.924l1.981-0.088c-0.063,1.594-0.095,3.178-0.095,4.752c0,0.422,0.003,0.842,0.008,1.26H127.993
				z"/>
			<path fill="#311D43" d="M131.844,43.891l1.784-0.088v1.939l1.502-0.029l0.023,1.107l-1.525,0.053v2.666
				c0,0.621,0.354,0.932,1.062,0.932c0.146,0,0.307-0.014,0.479-0.041l-0.071,1.289c-0.251,0.023-0.489,0.035-0.715,0.035
				c-1.656,0-2.5-0.637-2.531-1.91v-2.865l-1.289,0.059l-0.031-1.307l1.32,0.012L131.844,43.891z"/>
			<path fill="#311D43" d="M138.848,45.59c1.724,0.07,2.586,0.717,2.586,1.939v4.16l-1.831,0.023l-0.063-0.557
				c-0.377,0.32-0.878,0.48-1.501,0.48c-0.268,0-0.556-0.031-0.865-0.094c-0.927-0.172-1.391-0.707-1.391-1.605
				c0-0.109,0.008-0.227,0.023-0.352c0.104-0.926,0.987-1.389,2.648-1.389c0.32,0,0.671,0.018,1.054,0.053v-0.68
				c0-0.551-0.233-0.826-0.699-0.826h-0.032c-0.036-0.004-0.07-0.006-0.102-0.006c-0.509,0-0.763,0.309-0.763,0.926v0.088
				l-1.871-0.117c0-1.363,0.881-2.045,2.642-2.045H138.848z M139.508,50.219v-1.031c-0.226-0.035-0.43-0.053-0.613-0.053
				c-0.477,0-0.802,0.119-0.975,0.357c-0.104,0.145-0.157,0.279-0.157,0.404c0,0.156,0.084,0.295,0.252,0.416
				c0.131,0.094,0.301,0.141,0.511,0.141C138.793,50.453,139.12,50.375,139.508,50.219z"/>
			<path fill="#311D43" d="M145.277,49.363l1.871,0.088c0,1.41-0.873,2.125-2.618,2.145c-0.021,0.004-0.039,0.006-0.055,0.006
				c-1.661,0-2.492-0.939-2.492-2.818v-0.176c0.053-2.016,0.938-3.033,2.657-3.053h0.062c1.583,0,2.374,0.676,2.374,2.027
				c0,0.078-0.003,0.156-0.008,0.234l-1.689,0.094V47.77c0-0.711-0.271-1.066-0.81-1.066c-0.551,0-0.826,0.576-0.826,1.729v0.193
				c0.032,1.246,0.31,1.869,0.834,1.869h0.047c0.456-0.027,0.684-0.287,0.684-0.779C145.309,49.609,145.298,49.492,145.277,49.363z"
				/>
			<path fill="#311D43" d="M150.002,44.412c0,0.238-0.113,0.441-0.338,0.609c-0.226,0.168-0.498,0.252-0.818,0.252
				c-0.313,0-0.584-0.084-0.81-0.252c-0.225-0.168-0.338-0.371-0.338-0.609c0-0.234,0.113-0.436,0.338-0.604
				c0.226-0.168,0.496-0.252,0.81-0.252c0.32,0,0.593,0.084,0.818,0.252C149.889,43.977,150.002,44.178,150.002,44.412z
				 M147.896,51.807c-0.037-2.285-0.056-4.26-0.056-5.924l1.981-0.088c-0.063,1.594-0.095,3.178-0.095,4.752
				c0,0.422,0.003,0.842,0.008,1.26H147.896z"/>
			<path fill="#311D43" d="M153.2,45.76c1.782,0,2.673,0.922,2.673,2.766c0,0.074-0.003,0.148-0.008,0.223
				c-0.073,1.996-1.022,3.004-2.846,3.023c-0.021,0.004-0.042,0.006-0.062,0.006c-1.734,0-2.603-0.943-2.603-2.83v-0.164
				C150.407,46.768,151.355,45.76,153.2,45.76z M152.941,47.096c-0.33,0.086-0.556,0.404-0.677,0.955
				c-0.073,0.328-0.109,0.658-0.109,0.99c0,0.223,0.016,0.447,0.047,0.674c0.084,0.562,0.354,0.854,0.81,0.873h0.055
				c0.425,0,0.716-0.209,0.873-0.627c0.131-0.348,0.196-0.76,0.196-1.236c0-0.117-0.003-0.236-0.008-0.357
				c-0.042-0.629-0.168-1.021-0.377-1.178c-0.132-0.094-0.289-0.141-0.472-0.141C153.174,47.049,153.062,47.064,152.941,47.096z"/>
			<path fill="#311D43" d="M157.752,45.607l0.078,0.955c0.221-0.508,0.8-0.766,1.737-0.773h0.031c0.923,0,1.552,0.27,1.887,0.809
				c0.23,0.367,0.346,1.227,0.346,2.578c0,0.664-0.028,1.449-0.086,2.355h-1.902c0.068-1.207,0.103-2.143,0.103-2.807
				c0-0.332-0.008-0.598-0.024-0.797c-0.052-0.586-0.304-0.879-0.754-0.879c-0.451,0-0.734,0.156-0.849,0.469l0.078,4.248
				l-1.848,0.012c0-1.797-0.081-3.814-0.243-6.053L157.752,45.607z"/>
			<path fill="#311D43" d="M165.039,45.76c1.818,0,2.728,0.9,2.728,2.701c0,0.219-0.014,0.453-0.039,0.703h-3.514
				c0,1.004,0.259,1.506,0.778,1.506h0.055c0.456-0.027,0.684-0.287,0.684-0.779c0-0.105-0.011-0.223-0.031-0.352l1.871-0.029
				c0,1.488-0.873,2.242-2.618,2.262c-0.021,0.004-0.039,0.006-0.055,0.006c-1.661,0-2.492-0.939-2.492-2.818v-0.176
				C162.458,46.768,163.336,45.76,165.039,45.76z M164.025,48.086h1.776v-0.141c0-0.711-0.271-1.066-0.81-1.066
				C164.41,46.879,164.088,47.281,164.025,48.086z"/>
			<path fill="#311D43" d="M168.262,49.697l1.801-0.064v0.076c0,0.602,0.248,0.906,0.746,0.914h0.031
				c0.482,0,0.724-0.174,0.724-0.521v-0.041c-0.021-0.383-0.497-0.691-1.427-0.926s-1.489-0.629-1.678-1.184
				c-0.068-0.195-0.103-0.383-0.103-0.562c0-0.328,0.112-0.633,0.338-0.914c0.346-0.43,0.87-0.676,1.572-0.738
				c0.188-0.016,0.372-0.023,0.55-0.023c0.467,0,0.878,0.061,1.234,0.182c0.487,0.168,0.825,0.408,1.014,0.721
				c0.126,0.215,0.188,0.453,0.188,0.715c0,0.125-0.013,0.254-0.039,0.387l-1.682,0.029c0.016-0.098,0.023-0.188,0.023-0.27
				c0-0.391-0.168-0.6-0.503-0.627c-0.037-0.004-0.073-0.006-0.11-0.006c-0.346,0-0.579,0.131-0.699,0.393
				c-0.042,0.09-0.063,0.172-0.063,0.246c0,0.184,0.115,0.342,0.346,0.475c0.325,0.188,0.807,0.378,1.442,0.571
				c0.637,0.193,1.065,0.522,1.285,0.987c0.079,0.176,0.118,0.352,0.118,0.527c0,0.297-0.115,0.596-0.346,0.896
				c-0.367,0.48-0.936,0.76-1.706,0.838c-0.167,0.02-0.332,0.029-0.495,0.029c-0.576,0-1.11-0.111-1.604-0.334
				C168.592,51.188,168.272,50.596,168.262,49.697z"/>
			<path fill="#311D43" d="M174.982,51.807c-0.313,0-0.584-0.084-0.81-0.252c-0.225-0.168-0.338-0.369-0.338-0.604
				c0-0.238,0.113-0.441,0.338-0.609c0.226-0.168,0.496-0.252,0.81-0.252c0.32,0,0.593,0.084,0.818,0.252
				c0.225,0.168,0.338,0.371,0.338,0.609c0,0.234-0.113,0.436-0.338,0.604C175.575,51.723,175.303,51.807,174.982,51.807z
				 M175.95,43.557c-0.074,1.988-0.124,3.953-0.149,5.895l-1.745,0.029c-0.053-1.664-0.113-3.639-0.181-5.924H175.95z"/>
			<path fill="#311D43" d="M176.57,52.533c0.582-0.125,0.92-0.365,1.014-0.721c-0.403-0.102-0.668-0.223-0.794-0.363
				c-0.125-0.141-0.188-0.299-0.188-0.475s0.05-0.331,0.149-0.466s0.242-0.237,0.429-0.308c0.186-0.07,0.37-0.107,0.554-0.111h0.016
				c0.173,0,0.341,0.023,0.503,0.07c0.163,0.051,0.295,0.127,0.397,0.229s0.174,0.21,0.216,0.325s0.065,0.253,0.071,0.413v0.023
				c0,0.156-0.029,0.328-0.087,0.516c-0.058,0.199-0.157,0.389-0.299,0.568s-0.347,0.351-0.617,0.513
				c-0.27,0.162-0.672,0.259-1.206,0.29L176.57,52.533z"/>
			<path fill="#311D43" d="M184.368,43.381l0.078,3.299c0.22-0.508,0.733-0.766,1.541-0.773h0.023c0.796,0,1.362,0.27,1.697,0.809
				c0.231,0.367,0.347,1.227,0.347,2.578c0,0.664-0.029,1.449-0.087,2.355h-1.98c0.067-1.207,0.102-2.143,0.102-2.807
				c0-0.332-0.008-0.598-0.023-0.797c-0.052-0.586-0.277-0.879-0.676-0.879s-0.655,0.156-0.771,0.469l0.079,4.248l-1.926,0.012
				c0-1.797-0.107-4.615-0.322-8.455L184.368,43.381z"/>
			<path fill="#311D43" d="M191.757,45.59c1.724,0.07,2.586,0.717,2.586,1.939v4.16l-1.831,0.023l-0.063-0.557
				c-0.377,0.32-0.878,0.48-1.501,0.48c-0.268,0-0.556-0.031-0.865-0.094c-0.927-0.172-1.391-0.707-1.391-1.605
				c0-0.109,0.008-0.227,0.023-0.352c0.104-0.926,0.987-1.389,2.648-1.389c0.32,0,0.671,0.018,1.054,0.053v-0.68
				c0-0.551-0.233-0.826-0.699-0.826h-0.032c-0.036-0.004-0.07-0.006-0.102-0.006c-0.509,0-0.763,0.309-0.763,0.926v0.088
				l-1.871-0.117c0-1.363,0.881-2.045,2.642-2.045H191.757z M192.417,50.219v-1.031c-0.226-0.035-0.43-0.053-0.613-0.053
				c-0.477,0-0.802,0.119-0.975,0.357c-0.104,0.145-0.157,0.279-0.157,0.404c0,0.156,0.084,0.295,0.252,0.416
				c0.131,0.094,0.301,0.141,0.511,0.141C191.702,50.453,192.029,50.375,192.417,50.219z"/>
			<path fill="#311D43" d="M199.216,43.891L201,43.803v1.939l1.502-0.029l0.023,1.107L201,46.873v2.666
				c0,0.621,0.354,0.932,1.062,0.932c0.146,0,0.307-0.014,0.479-0.041l-0.071,1.289c-0.251,0.023-0.489,0.035-0.715,0.035
				c-1.656,0-2.5-0.637-2.531-1.91v-2.865l-1.289,0.059l-0.031-1.307l1.32,0.012L199.216,43.891z"/>
			<path fill="#311D43" d="M205.732,45.76c1.818,0,2.728,0.9,2.728,2.701c0,0.219-0.014,0.453-0.039,0.703h-3.514
				c0,1.004,0.259,1.506,0.778,1.506h0.055c0.456-0.027,0.684-0.287,0.684-0.779c0-0.105-0.011-0.223-0.031-0.352l1.871-0.029
				c0,1.488-0.873,2.242-2.618,2.262c-0.021,0.004-0.039,0.006-0.055,0.006c-1.661,0-2.492-0.939-2.492-2.818v-0.176
				C203.151,46.768,204.029,45.76,205.732,45.76z M204.719,48.086h1.776v-0.141c0-0.711-0.271-1.066-0.81-1.066
				C205.104,46.879,204.781,47.281,204.719,48.086z"/>
			<path fill="#311D43" d="M211.141,47.576l0.078,4.248l-1.926,0.012c0-1.797-0.081-3.814-0.243-6.053l1.446-0.117l0.078,0.955
				c0.221-0.469,0.734-0.736,1.541-0.803c0.12-0.008,0.236-0.012,0.346-0.012c0.634,0,1.116,0.154,1.446,0.463
				c0.383,0.367,0.576,0.951,0.582,1.752l-1.745,0.129c0.005-0.066,0.008-0.131,0.008-0.193c0-0.625-0.218-0.938-0.652-0.938h-0.031
				C211.565,47.039,211.256,47.225,211.141,47.576z"/>
			<path fill="#311D43" d="M216.281,45.637l0.031,0.938c0.283-0.449,0.61-0.729,0.982-0.838c0.221-0.062,0.443-0.094,0.668-0.094
				c0.168,0,0.336,0.016,0.503,0.047c0.409,0.078,0.7,0.391,0.873,0.938c0.136-0.426,0.372-0.71,0.707-0.853
				c0.336-0.143,0.708-0.216,1.116-0.22h0.031c0.398,0,0.781,0.072,1.148,0.217c0.372,0.148,0.656,0.427,0.853,0.835
				s0.3,0.968,0.311,1.679v3.404l-1.698,0.029c0.068-1.285,0.103-2.379,0.103-3.281s-0.23-1.389-0.691-1.459
				c-0.068-0.008-0.134-0.012-0.197-0.012c-0.366,0-0.649,0.176-0.849,0.527c-0.031,0.406-0.047,0.881-0.047,1.424
				c0,0.738,0.028,1.6,0.086,2.584l-1.965,0.012c0.073-1.512,0.11-2.613,0.11-3.305v-0.07c-0.006-0.684-0.187-1.043-0.543-1.078
				h-0.102c-0.32,0-0.629,0.137-0.928,0.41l0.016,4.289l-1.854,0.053v-0.961c0-1.703-0.034-3.404-0.103-5.104L216.281,45.637z"/>
			<path fill="#311D43" d="M226.178,44.412c0,0.238-0.113,0.441-0.338,0.609c-0.226,0.168-0.498,0.252-0.818,0.252
				c-0.313,0-0.584-0.084-0.81-0.252c-0.225-0.168-0.338-0.371-0.338-0.609c0-0.234,0.113-0.436,0.338-0.604
				c0.226-0.168,0.496-0.252,0.81-0.252c0.32,0,0.593,0.084,0.818,0.252C226.064,43.977,226.178,44.178,226.178,44.412z
				 M224.071,51.807c-0.037-2.285-0.056-4.26-0.056-5.924l1.981-0.088c-0.063,1.594-0.095,3.178-0.095,4.752
				c0,0.422,0.003,0.842,0.008,1.26H224.071z"/>
			<path fill="#311D43" d="M228.056,45.607l0.078,0.955c0.221-0.508,0.8-0.766,1.737-0.773h0.031c0.923,0,1.552,0.27,1.887,0.809
				c0.23,0.367,0.346,1.227,0.346,2.578c0,0.664-0.028,1.449-0.086,2.355h-1.902c0.068-1.207,0.103-2.143,0.103-2.807
				c0-0.332-0.008-0.598-0.024-0.797c-0.052-0.586-0.304-0.879-0.754-0.879c-0.451,0-0.734,0.156-0.849,0.469l0.078,4.248
				l-1.848,0.012c0-1.797-0.081-3.814-0.243-6.053L228.056,45.607z"/>
			<path fill="#311D43" d="M235.83,45.59c1.724,0.07,2.586,0.717,2.586,1.939v4.16l-1.831,0.023l-0.063-0.557
				c-0.377,0.32-0.878,0.48-1.501,0.48c-0.268,0-0.556-0.031-0.865-0.094c-0.927-0.172-1.391-0.707-1.391-1.605
				c0-0.109,0.008-0.227,0.023-0.352c0.104-0.926,0.987-1.389,2.648-1.389c0.32,0,0.671,0.018,1.054,0.053v-0.68
				c0-0.551-0.233-0.826-0.699-0.826h-0.032c-0.036-0.004-0.07-0.006-0.102-0.006c-0.509,0-0.763,0.309-0.763,0.926v0.088
				l-1.871-0.117c0-1.363,0.881-2.045,2.642-2.045H235.83z M236.49,50.219v-1.031c-0.226-0.035-0.43-0.053-0.613-0.053
				c-0.477,0-0.802,0.119-0.975,0.357c-0.104,0.145-0.157,0.279-0.157,0.404c0,0.156,0.084,0.295,0.252,0.416
				c0.131,0.094,0.301,0.141,0.511,0.141C235.775,50.453,236.103,50.375,236.49,50.219z"/>
			<path fill="#311D43" d="M244.987,43.486c-0.031,1.32-0.047,2.705-0.047,4.154c0,1.32,0.013,2.695,0.039,4.125l-1.863,0.006
				l-0.062-0.896c-0.388,0.434-0.904,0.65-1.549,0.65c-1.608,0-2.413-0.918-2.413-2.754c0-0.039,0.003-0.078,0.008-0.117
				c0.031-1.84,0.828-2.76,2.39-2.76c0.063,0,0.129,0.002,0.196,0.006c0.535,0.023,0.967,0.24,1.298,0.65
				c0-0.867-0.029-1.889-0.087-3.064H244.987z M243.022,49.674l-0.039-2.027c-0.305-0.309-0.616-0.463-0.936-0.463
				c-0.132,0-0.263,0.025-0.394,0.076c-0.414,0.16-0.621,0.609-0.621,1.348c0,0.086,0.003,0.174,0.008,0.264
				c0.053,0.895,0.32,1.367,0.802,1.418c0.048,0.004,0.095,0.006,0.142,0.006C242.404,50.295,242.75,50.088,243.022,49.674z"/>
			<path fill="#311D43" d="M248.375,45.76c1.782,0,2.673,0.922,2.673,2.766c0,0.074-0.003,0.148-0.008,0.223
				c-0.073,1.996-1.022,3.004-2.846,3.023c-0.021,0.004-0.042,0.006-0.062,0.006c-1.734,0-2.603-0.943-2.603-2.83v-0.164
				C245.582,46.768,246.53,45.76,248.375,45.76z M248.116,47.096c-0.33,0.086-0.556,0.404-0.677,0.955
				c-0.073,0.328-0.109,0.658-0.109,0.99c0,0.223,0.016,0.447,0.047,0.674c0.084,0.562,0.354,0.854,0.81,0.873h0.055
				c0.425,0,0.716-0.209,0.873-0.627c0.131-0.348,0.196-0.76,0.196-1.236c0-0.117-0.003-0.236-0.008-0.357
				c-0.042-0.629-0.168-1.021-0.377-1.178c-0.132-0.094-0.289-0.141-0.472-0.141C248.349,47.049,248.236,47.064,248.116,47.096z"/>
			<path fill="#311D43" d="M256.621,51.678l-1.957,0.135c0.021-1.293,0.031-2.537,0.031-3.732c0-1.68-0.021-3.264-0.063-4.752
				l1.926-0.023c-0.021,0.957-0.031,1.939-0.031,2.947C256.526,47.99,256.558,49.799,256.621,51.678z"/>
			<path fill="#311D43" d="M260.339,45.59c1.724,0.07,2.586,0.717,2.586,1.939v4.16l-1.831,0.023l-0.063-0.557
				c-0.377,0.32-0.878,0.48-1.501,0.48c-0.268,0-0.556-0.031-0.865-0.094c-0.927-0.172-1.391-0.707-1.391-1.605
				c0-0.109,0.008-0.227,0.023-0.352c0.104-0.926,0.987-1.389,2.648-1.389c0.32,0,0.671,0.018,1.054,0.053v-0.68
				c0-0.551-0.233-0.826-0.699-0.826h-0.032c-0.036-0.004-0.07-0.006-0.102-0.006c-0.509,0-0.763,0.309-0.763,0.926v0.088
				l-1.871-0.117c0-1.363,0.881-2.045,2.642-2.045H260.339z M260.999,50.219v-1.031c-0.226-0.035-0.43-0.053-0.613-0.053
				c-0.477,0-0.802,0.119-0.975,0.357c-0.104,0.145-0.157,0.279-0.157,0.404c0,0.156,0.084,0.295,0.252,0.416
				c0.131,0.094,0.301,0.141,0.511,0.141C260.284,50.453,260.611,50.375,260.999,50.219z"/>
			<path fill="#311D43" d="M106.443,66.177l-0.078-0.955c-0.22,0.508-0.812,0.764-1.776,0.768c-0.011,0.004-0.019,0.006-0.023,0.006
				c-0.954,0-1.586-0.32-1.895-0.961c-0.21-0.426-0.314-1.307-0.314-2.643c0-0.688,0.028-1.498,0.086-2.432h1.91
				c-0.104,1.312-0.157,2.322-0.157,3.029c0,0.355,0.014,0.633,0.04,0.832c0.078,0.609,0.343,0.914,0.794,0.914
				c0.45,0,0.733-0.158,0.849-0.475l-0.079-4.066l1.848-0.012c0,1.68,0.081,3.637,0.243,5.871L106.443,66.177z"/>
			<path fill="#311D43" d="M109.989,60.007l0.078,0.955c0.221-0.508,0.8-0.766,1.737-0.773h0.031c0.923,0,1.552,0.27,1.887,0.809
				c0.23,0.367,0.346,1.227,0.346,2.578c0,0.664-0.028,1.449-0.086,2.355h-1.902c0.068-1.207,0.103-2.143,0.103-2.807
				c0-0.332-0.008-0.598-0.024-0.797c-0.052-0.586-0.304-0.879-0.754-0.879c-0.451,0-0.734,0.156-0.849,0.469l0.078,4.248
				l-1.848,0.012c0-1.797-0.081-3.814-0.243-6.053L109.989,60.007z"/>
			<path fill="#311D43" d="M116.923,58.812c0,0.238-0.113,0.441-0.338,0.609c-0.226,0.168-0.498,0.252-0.818,0.252
				c-0.313,0-0.584-0.084-0.81-0.252c-0.225-0.168-0.338-0.371-0.338-0.609c0-0.234,0.113-0.436,0.338-0.604
				c0.226-0.168,0.496-0.252,0.81-0.252c0.32,0,0.593,0.084,0.818,0.252C116.81,58.376,116.923,58.577,116.923,58.812z
				 M114.816,66.206c-0.037-2.285-0.056-4.26-0.056-5.924l1.981-0.088c-0.063,1.594-0.095,3.178-0.095,4.752
				c0,0.422,0.003,0.842,0.008,1.26H114.816z"/>
			<path fill="#311D43" d="M123.297,57.886c-0.031,1.32-0.047,2.705-0.047,4.154c0,1.32,0.013,2.695,0.039,4.125l-1.863,0.006
				l-0.062-0.896c-0.388,0.434-0.904,0.65-1.549,0.65c-1.608,0-2.413-0.918-2.413-2.754c0-0.039,0.003-0.078,0.008-0.117
				c0.031-1.84,0.828-2.76,2.39-2.76c0.063,0,0.129,0.002,0.196,0.006c0.535,0.023,0.967,0.24,1.298,0.65
				c0-0.867-0.029-1.889-0.087-3.064H123.297z M121.332,64.073l-0.039-2.027c-0.305-0.309-0.616-0.463-0.936-0.463
				c-0.132,0-0.263,0.025-0.394,0.076c-0.414,0.16-0.621,0.609-0.621,1.348c0,0.086,0.003,0.174,0.008,0.264
				c0.053,0.895,0.32,1.367,0.802,1.418c0.048,0.004,0.095,0.006,0.142,0.006C120.714,64.694,121.06,64.487,121.332,64.073z"/>
			<path fill="#311D43" d="M126.96,59.989c1.724,0.07,2.586,0.717,2.586,1.939v4.16l-1.831,0.023l-0.063-0.557
				c-0.377,0.32-0.878,0.48-1.501,0.48c-0.268,0-0.556-0.031-0.865-0.094c-0.927-0.172-1.391-0.707-1.391-1.605
				c0-0.109,0.008-0.227,0.023-0.352c0.104-0.926,0.987-1.389,2.648-1.389c0.32,0,0.671,0.018,1.054,0.053v-0.68
				c0-0.551-0.233-0.826-0.699-0.826h-0.032c-0.036-0.004-0.07-0.006-0.102-0.006c-0.509,0-0.763,0.309-0.763,0.926v0.088
				l-1.871-0.117c0-1.363,0.881-2.045,2.642-2.045H126.96z M127.62,64.618v-1.031c-0.226-0.035-0.43-0.053-0.613-0.053
				c-0.477,0-0.802,0.119-0.975,0.357c-0.104,0.145-0.157,0.279-0.157,0.404c0,0.156,0.084,0.295,0.252,0.416
				c0.131,0.094,0.301,0.141,0.511,0.141C126.905,64.853,127.232,64.774,127.62,64.618z"/>
			<path fill="#311D43" d="M136.117,57.886c-0.031,1.32-0.047,2.705-0.047,4.154c0,1.32,0.013,2.695,0.039,4.125l-1.863,0.006
				l-0.062-0.896c-0.388,0.434-0.904,0.65-1.549,0.65c-1.608,0-2.413-0.918-2.413-2.754c0-0.039,0.003-0.078,0.008-0.117
				c0.031-1.84,0.828-2.76,2.39-2.76c0.063,0,0.129,0.002,0.196,0.006c0.535,0.023,0.967,0.24,1.298,0.65
				c0-0.867-0.029-1.889-0.087-3.064H136.117z M134.152,64.073l-0.039-2.027c-0.305-0.309-0.616-0.463-0.936-0.463
				c-0.132,0-0.263,0.025-0.394,0.076c-0.414,0.16-0.621,0.609-0.621,1.348c0,0.086,0.003,0.174,0.008,0.264
				c0.053,0.895,0.32,1.367,0.802,1.418c0.048,0.004,0.095,0.006,0.142,0.006C133.534,64.694,133.88,64.487,134.152,64.073z"/>
			<path fill="#311D43" d="M139.662,60.247c-0.021-0.207-0.031-0.4-0.031-0.58c0-0.621,0.125-1.1,0.377-1.436
				c0.319-0.43,0.844-0.695,1.572-0.797c0.356-0.051,0.696-0.076,1.021-0.076c0.33,0,0.645,0.027,0.943,0.082
				c0.582,0.105,1.047,0.342,1.396,0.709s0.535,0.871,0.562,1.512v0.176c0,0.555-0.115,0.959-0.346,1.213
				c-0.257,0.285-0.679,0.5-1.266,0.645c0.487,0.055,0.854,0.187,1.097,0.396c0.244,0.209,0.413,0.489,0.507,0.841
				c0.053,0.195,0.079,0.41,0.079,0.645c0,0.191-0.019,0.398-0.056,0.621c-0.078,0.488-0.344,0.91-0.798,1.266
				c-0.453,0.355-1.151,0.541-2.095,0.557H142.5c-0.886,0-1.594-0.172-2.123-0.516c-0.55-0.352-0.825-1.107-0.825-2.268V63.2
				l2.036-0.088c-0.005,0.066-0.008,0.131-0.008,0.193c0,0.82,0.288,1.244,0.864,1.271c0.042,0.004,0.081,0.006,0.118,0.006
				c0.545,0,0.872-0.215,0.982-0.645c0.031-0.121,0.047-0.236,0.047-0.346c0-0.309-0.117-0.576-0.354-0.803
				c-0.325-0.305-0.862-0.457-1.611-0.457l-0.094-1.113c0.089,0.004,0.173,0.006,0.251,0.006c0.655,0,1.105-0.141,1.353-0.422
				c0.23-0.262,0.346-0.602,0.346-1.02c0-0.082-0.006-0.166-0.016-0.252c-0.048-0.5-0.349-0.75-0.904-0.75h-0.103
				c-0.55,0.027-0.825,0.438-0.825,1.23c0,0.094,0.003,0.193,0.008,0.299L139.662,60.247z"/>
			<path fill="#311D43" d="M146.146,66.933c0.582-0.125,0.92-0.365,1.014-0.721c-0.403-0.102-0.668-0.223-0.794-0.363
				c-0.125-0.141-0.188-0.299-0.188-0.475s0.05-0.331,0.149-0.466s0.242-0.237,0.429-0.308c0.186-0.07,0.37-0.107,0.554-0.111h0.016
				c0.173,0,0.341,0.023,0.503,0.07c0.163,0.051,0.295,0.127,0.397,0.229s0.174,0.21,0.216,0.325s0.065,0.253,0.071,0.413v0.023
				c0,0.156-0.029,0.328-0.087,0.516c-0.058,0.199-0.157,0.389-0.299,0.568s-0.347,0.351-0.617,0.513
				c-0.27,0.162-0.672,0.259-1.206,0.29L146.146,66.933z"/>
			<path fill="#311D43" d="M151.617,65.942c0.985-3.336,1.781-6.164,2.39-8.484l2.947-0.035c0.724,2.414,1.552,5.164,2.484,8.25
				l-2.013,0.305l-0.637-2.221h-2.444l-0.66,2.396L151.617,65.942z M156.727,62.11c-0.272-0.844-0.718-1.854-1.336-3.029
				c-0.478,0.988-0.881,2.012-1.211,3.07L156.727,62.11z"/>
			<path fill="#311D43" d="M161.49,57.78l0.078,3.299c0.22-0.508,0.733-0.766,1.541-0.773h0.023c0.796,0,1.362,0.27,1.697,0.809
				c0.231,0.367,0.347,1.227,0.347,2.578c0,0.664-0.029,1.449-0.087,2.355h-1.98c0.067-1.207,0.102-2.143,0.102-2.807
				c0-0.332-0.008-0.598-0.023-0.797c-0.052-0.586-0.277-0.879-0.676-0.879s-0.655,0.156-0.771,0.469l0.079,4.248l-1.926,0.012
				c0-1.797-0.107-4.615-0.322-8.455L161.49,57.78z"/>
			<path fill="#311D43" d="M168.604,60.159c1.782,0,2.673,0.922,2.673,2.766c0,0.074-0.003,0.148-0.008,0.223
				c-0.073,1.996-1.022,3.004-2.846,3.023c-0.021,0.004-0.042,0.006-0.062,0.006c-1.734,0-2.603-0.943-2.603-2.83v-0.164
				C165.811,61.167,166.759,60.159,168.604,60.159z M168.345,61.495c-0.33,0.086-0.556,0.404-0.677,0.955
				c-0.073,0.328-0.109,0.658-0.109,0.99c0,0.223,0.016,0.447,0.047,0.674c0.084,0.562,0.354,0.854,0.81,0.873h0.055
				c0.425,0,0.716-0.209,0.873-0.627c0.131-0.348,0.196-0.76,0.196-1.236c0-0.117-0.003-0.236-0.008-0.357
				c-0.042-0.629-0.168-1.021-0.377-1.178c-0.132-0.094-0.289-0.141-0.472-0.141C168.577,61.448,168.465,61.464,168.345,61.495z"/>
			<path fill="#311D43" d="M173.8,61.976l0.078,4.248l-1.926,0.012c0-1.797-0.081-3.814-0.243-6.053l1.446-0.117l0.078,0.955
				c0.221-0.469,0.734-0.736,1.541-0.803c0.12-0.008,0.236-0.012,0.346-0.012c0.634,0,1.116,0.154,1.446,0.463
				c0.383,0.367,0.576,0.951,0.582,1.752l-1.745,0.129c0.005-0.066,0.008-0.131,0.008-0.193c0-0.625-0.218-0.938-0.652-0.938h-0.031
				C174.225,61.438,173.915,61.624,173.8,61.976z"/>
			<path fill="#311D43" d="M180.717,59.989c1.724,0.07,2.586,0.717,2.586,1.939v4.16l-1.831,0.023l-0.063-0.557
				c-0.377,0.32-0.878,0.48-1.501,0.48c-0.268,0-0.556-0.031-0.865-0.094c-0.927-0.172-1.391-0.707-1.391-1.605
				c0-0.109,0.008-0.227,0.023-0.352c0.104-0.926,0.987-1.389,2.648-1.389c0.32,0,0.671,0.018,1.054,0.053v-0.68
				c0-0.551-0.233-0.826-0.699-0.826h-0.032c-0.036-0.004-0.07-0.006-0.102-0.006c-0.509,0-0.763,0.309-0.763,0.926v0.088
				l-1.871-0.117c0-1.363,0.881-2.045,2.642-2.045H180.717z M181.377,64.618v-1.031c-0.226-0.035-0.43-0.053-0.613-0.053
				c-0.477,0-0.802,0.119-0.975,0.357c-0.104,0.145-0.157,0.279-0.157,0.404c0,0.156,0.084,0.295,0.252,0.416
				c0.131,0.094,0.301,0.141,0.511,0.141C180.662,64.853,180.989,64.774,181.377,64.618z"/>
			<path fill="#311D43" d="M190.078,63.763l1.871,0.088c0,1.41-0.873,2.125-2.618,2.145c-0.021,0.004-0.039,0.006-0.055,0.006
				c-1.661,0-2.492-0.939-2.492-2.818v-0.176c0.053-2.016,0.938-3.033,2.657-3.053h0.062c1.583,0,2.374,0.676,2.374,2.027
				c0,0.078-0.003,0.156-0.008,0.234l-1.689,0.094v-0.141c0-0.711-0.271-1.066-0.81-1.066c-0.551,0-0.826,0.576-0.826,1.729v0.193
				c0.032,1.246,0.31,1.869,0.834,1.869h0.047c0.456-0.027,0.684-0.287,0.684-0.779C190.109,64.009,190.099,63.892,190.078,63.763z"
				/>
			<path fill="#311D43" d="M195.368,60.159c1.782,0,2.673,0.922,2.673,2.766c0,0.074-0.003,0.148-0.008,0.223
				c-0.073,1.996-1.022,3.004-2.846,3.023c-0.021,0.004-0.042,0.006-0.062,0.006c-1.734,0-2.603-0.943-2.603-2.83v-0.164
				C192.575,61.167,193.523,60.159,195.368,60.159z M195.109,61.495c-0.33,0.086-0.556,0.404-0.677,0.955
				c-0.073,0.328-0.109,0.658-0.109,0.99c0,0.223,0.016,0.447,0.047,0.674c0.084,0.562,0.354,0.854,0.81,0.873h0.055
				c0.425,0,0.716-0.209,0.873-0.627c0.131-0.348,0.196-0.76,0.196-1.236c0-0.117-0.003-0.236-0.008-0.357
				c-0.042-0.629-0.168-1.021-0.377-1.178c-0.132-0.094-0.289-0.141-0.472-0.141C195.342,61.448,195.229,61.464,195.109,61.495z"/>
			<path fill="#311D43" d="M199.92,60.007l0.078,0.955c0.221-0.508,0.8-0.766,1.737-0.773h0.031c0.923,0,1.552,0.27,1.887,0.809
				c0.23,0.367,0.346,1.227,0.346,2.578c0,0.664-0.028,1.449-0.086,2.355h-1.902c0.068-1.207,0.103-2.143,0.103-2.807
				c0-0.332-0.008-0.598-0.024-0.797c-0.052-0.586-0.304-0.879-0.754-0.879c-0.451,0-0.734,0.156-0.849,0.469l0.078,4.248
				l-1.848,0.012c0-1.797-0.081-3.814-0.243-6.053L199.92,60.007z"/>
			<path fill="#311D43" d="M205.965,58.29l1.784-0.088v1.939l1.502-0.029l0.023,1.107l-1.525,0.053v2.666
				c0,0.621,0.354,0.932,1.062,0.932c0.146,0,0.307-0.014,0.479-0.041l-0.071,1.289c-0.251,0.023-0.489,0.035-0.715,0.035
				c-1.656,0-2.5-0.637-2.531-1.91v-2.865l-1.289,0.059l-0.031-1.307l1.32,0.012L205.965,58.29z"/>
			<path fill="#311D43" d="M212.128,58.812c0,0.238-0.113,0.441-0.338,0.609c-0.226,0.168-0.498,0.252-0.818,0.252
				c-0.313,0-0.584-0.084-0.81-0.252c-0.225-0.168-0.338-0.371-0.338-0.609c0-0.234,0.113-0.436,0.338-0.604
				c0.226-0.168,0.496-0.252,0.81-0.252c0.32,0,0.593,0.084,0.818,0.252C212.015,58.376,212.128,58.577,212.128,58.812z
				 M210.021,66.206c-0.037-2.285-0.056-4.26-0.056-5.924l1.981-0.088c-0.063,1.594-0.095,3.178-0.095,4.752
				c0,0.422,0.003,0.842,0.008,1.26H210.021z"/>
			<path fill="#311D43" d="M214.006,60.007l0.078,0.955c0.221-0.508,0.8-0.766,1.737-0.773h0.031c0.923,0,1.552,0.27,1.887,0.809
				c0.23,0.367,0.346,1.227,0.346,2.578c0,0.664-0.028,1.449-0.086,2.355h-1.902c0.068-1.207,0.103-2.143,0.103-2.807
				c0-0.332-0.008-0.598-0.024-0.797c-0.052-0.586-0.304-0.879-0.754-0.879c-0.451,0-0.734,0.156-0.849,0.469l0.078,4.248
				l-1.848,0.012c0-1.797-0.081-3.814-0.243-6.053L214.006,60.007z"/>
			<path fill="#311D43" d="M222.817,66.177l-0.078-0.955c-0.22,0.508-0.812,0.764-1.776,0.768c-0.011,0.004-0.019,0.006-0.023,0.006
				c-0.954,0-1.586-0.32-1.895-0.961c-0.21-0.426-0.314-1.307-0.314-2.643c0-0.688,0.028-1.498,0.086-2.432h1.91
				c-0.104,1.312-0.157,2.322-0.157,3.029c0,0.355,0.014,0.633,0.04,0.832c0.078,0.609,0.343,0.914,0.794,0.914
				c0.45,0,0.733-0.158,0.849-0.475l-0.079-4.066l1.848-0.012c0,1.68,0.081,3.637,0.243,5.871L222.817,66.177z M220.569,58.847
				c0.613-0.543,1.116-1.061,1.51-1.553l1.289,0.762c-0.556,0.406-1.174,0.904-1.855,1.494L220.569,58.847z"/>
			<path fill="#311D43" d="M227.472,60.159c1.818,0,2.728,0.9,2.728,2.701c0,0.219-0.014,0.453-0.039,0.703h-3.514
				c0,1.004,0.259,1.506,0.778,1.506h0.055c0.456-0.027,0.684-0.287,0.684-0.779c0-0.105-0.011-0.223-0.031-0.352l1.871-0.029
				c0,1.488-0.873,2.242-2.618,2.262c-0.021,0.004-0.039,0.006-0.055,0.006c-1.661,0-2.492-0.939-2.492-2.818v-0.176
				C224.891,61.167,225.769,60.159,227.472,60.159z M226.458,62.485h1.776v-0.141c0-0.711-0.271-1.066-0.81-1.066
				C226.843,61.278,226.521,61.681,226.458,62.485z"/>
			<path fill="#311D43" d="M236.936,63.763l1.871,0.088c0,1.41-0.873,2.125-2.618,2.145c-0.021,0.004-0.039,0.006-0.055,0.006
				c-1.661,0-2.492-0.939-2.492-2.818v-0.176c0.053-2.016,0.938-3.033,2.657-3.053h0.062c1.583,0,2.374,0.676,2.374,2.027
				c0,0.078-0.003,0.156-0.008,0.234l-1.689,0.094v-0.141c0-0.711-0.271-1.066-0.81-1.066c-0.551,0-0.826,0.576-0.826,1.729v0.193
				c0.032,1.246,0.31,1.869,0.834,1.869h0.047c0.456-0.027,0.684-0.287,0.684-0.779C236.967,64.009,236.956,63.892,236.936,63.763z"
				/>
			<path fill="#311D43" d="M242.226,60.159c1.782,0,2.673,0.922,2.673,2.766c0,0.074-0.003,0.148-0.008,0.223
				c-0.073,1.996-1.022,3.004-2.846,3.023c-0.021,0.004-0.042,0.006-0.062,0.006c-1.734,0-2.603-0.943-2.603-2.83v-0.164
				C239.433,61.167,240.381,60.159,242.226,60.159z M241.967,61.495c-0.33,0.086-0.556,0.404-0.677,0.955
				c-0.073,0.328-0.109,0.658-0.109,0.99c0,0.223,0.016,0.447,0.047,0.674c0.084,0.562,0.354,0.854,0.81,0.873h0.055
				c0.425,0,0.716-0.209,0.873-0.627c0.131-0.348,0.196-0.76,0.196-1.236c0-0.117-0.003-0.236-0.008-0.357
				c-0.042-0.629-0.168-1.021-0.377-1.178c-0.132-0.094-0.289-0.141-0.472-0.141C242.199,61.448,242.087,61.464,241.967,61.495z"/>
			<path fill="#311D43" d="M246.777,60.007l0.078,0.955c0.221-0.508,0.8-0.766,1.737-0.773h0.031c0.923,0,1.552,0.27,1.887,0.809
				c0.23,0.367,0.346,1.227,0.346,2.578c0,0.664-0.028,1.449-0.086,2.355h-1.902c0.068-1.207,0.103-2.143,0.103-2.807
				c0-0.332-0.008-0.598-0.024-0.797c-0.052-0.586-0.304-0.879-0.754-0.879c-0.451,0-0.734,0.156-0.849,0.469l0.078,4.248
				l-1.848,0.012c0-1.797-0.081-3.814-0.243-6.053L246.777,60.007z"/>
			<path fill="#311D43" d="M256.65,66.077l-1.957,0.135c0.021-1.293,0.031-2.537,0.031-3.732c0-1.68-0.021-3.264-0.063-4.752
				l1.926-0.023c-0.021,0.957-0.031,1.939-0.031,2.947C256.556,62.39,256.587,64.198,256.65,66.077z"/>
			<path fill="#311D43" d="M260.368,59.989c1.724,0.07,2.586,0.717,2.586,1.939v4.16l-1.831,0.023l-0.063-0.557
				c-0.377,0.32-0.878,0.48-1.501,0.48c-0.268,0-0.556-0.031-0.865-0.094c-0.927-0.172-1.391-0.707-1.391-1.605
				c0-0.109,0.008-0.227,0.023-0.352c0.104-0.926,0.987-1.389,2.648-1.389c0.32,0,0.671,0.018,1.054,0.053v-0.68
				c0-0.551-0.233-0.826-0.699-0.826h-0.032c-0.036-0.004-0.07-0.006-0.102-0.006c-0.509,0-0.763,0.309-0.763,0.926v0.088
				l-1.871-0.117c0-1.363,0.881-2.045,2.642-2.045H260.368z M261.028,64.618v-1.031c-0.226-0.035-0.43-0.053-0.613-0.053
				c-0.477,0-0.802,0.119-0.975,0.357c-0.104,0.145-0.157,0.279-0.157,0.404c0,0.156,0.084,0.295,0.252,0.416
				c0.131,0.094,0.301,0.141,0.511,0.141C260.313,64.853,260.641,64.774,261.028,64.618z"/>
			<path fill="#311D43" d="M163.312,80.577l-0.078-0.955c-0.22,0.508-0.812,0.764-1.776,0.768c-0.011,0.004-0.019,0.006-0.023,0.006
				c-0.954,0-1.586-0.32-1.895-0.961c-0.21-0.426-0.314-1.307-0.314-2.643c0-0.688,0.028-1.498,0.086-2.432h1.91
				c-0.104,1.312-0.157,2.322-0.157,3.029c0,0.355,0.014,0.633,0.04,0.832c0.078,0.609,0.343,0.914,0.794,0.914
				c0.45,0,0.733-0.158,0.849-0.475l-0.079-4.066l1.848-0.012c0,1.68,0.081,3.637,0.243,5.871L163.312,80.577z"/>
			<path fill="#311D43" d="M166.858,74.407l0.078,0.955c0.221-0.508,0.8-0.766,1.737-0.773h0.031c0.923,0,1.552,0.27,1.887,0.809
				c0.23,0.367,0.346,1.227,0.346,2.578c0,0.664-0.028,1.449-0.086,2.355h-1.902c0.068-1.207,0.103-2.143,0.103-2.807
				c0-0.332-0.008-0.598-0.024-0.797c-0.052-0.586-0.304-0.879-0.754-0.879c-0.451,0-0.734,0.156-0.849,0.469l0.078,4.248
				l-1.848,0.012c0-1.797-0.081-3.814-0.243-6.053L166.858,74.407z"/>
			<path fill="#311D43" d="M173.792,73.212c0,0.238-0.113,0.441-0.338,0.609c-0.226,0.168-0.498,0.252-0.818,0.252
				c-0.313,0-0.584-0.084-0.81-0.252c-0.225-0.168-0.338-0.371-0.338-0.609c0-0.234,0.113-0.436,0.338-0.604
				c0.226-0.168,0.496-0.252,0.81-0.252c0.32,0,0.593,0.084,0.818,0.252C173.679,72.776,173.792,72.978,173.792,73.212z
				 M171.686,80.606c-0.037-2.285-0.056-4.26-0.056-5.924l1.981-0.088c-0.063,1.594-0.095,3.178-0.095,4.752
				c0,0.422,0.003,0.842,0.008,1.26H171.686z"/>
			<path fill="#311D43" d="M180.166,72.286c-0.031,1.32-0.047,2.705-0.047,4.154c0,1.32,0.013,2.695,0.039,4.125l-1.863,0.006
				l-0.062-0.896c-0.388,0.434-0.904,0.65-1.549,0.65c-1.608,0-2.413-0.918-2.413-2.754c0-0.039,0.003-0.078,0.008-0.117
				c0.031-1.84,0.828-2.76,2.39-2.76c0.063,0,0.129,0.002,0.196,0.006c0.535,0.023,0.967,0.24,1.298,0.65
				c0-0.867-0.029-1.889-0.087-3.064H180.166z M178.201,78.474l-0.039-2.027c-0.305-0.309-0.616-0.463-0.936-0.463
				c-0.132,0-0.263,0.025-0.394,0.076c-0.414,0.16-0.621,0.609-0.621,1.348c0,0.086,0.003,0.174,0.008,0.264
				c0.053,0.895,0.32,1.367,0.802,1.418c0.048,0.004,0.095,0.006,0.142,0.006C177.583,79.095,177.929,78.888,178.201,78.474z"/>
			<path fill="#311D43" d="M183.829,74.39c1.724,0.07,2.586,0.717,2.586,1.939v4.16l-1.831,0.023l-0.063-0.557
				c-0.377,0.32-0.878,0.48-1.501,0.48c-0.268,0-0.556-0.031-0.865-0.094c-0.927-0.172-1.391-0.707-1.391-1.605
				c0-0.109,0.008-0.227,0.023-0.352c0.104-0.926,0.987-1.389,2.648-1.389c0.32,0,0.671,0.018,1.054,0.053v-0.68
				c0-0.551-0.233-0.826-0.699-0.826h-0.032c-0.036-0.004-0.07-0.006-0.102-0.006c-0.509,0-0.763,0.309-0.763,0.926v0.088
				l-1.871-0.117c0-1.363,0.881-2.045,2.642-2.045H183.829z M184.489,79.019v-1.031c-0.226-0.035-0.43-0.053-0.613-0.053
				c-0.477,0-0.802,0.119-0.975,0.357c-0.104,0.145-0.157,0.279-0.157,0.404c0,0.156,0.084,0.295,0.252,0.416
				c0.131,0.094,0.301,0.141,0.511,0.141C183.774,79.253,184.102,79.175,184.489,79.019z"/>
			<path fill="#311D43" d="M192.986,72.286c-0.031,1.32-0.047,2.705-0.047,4.154c0,1.32,0.013,2.695,0.039,4.125l-1.863,0.006
				l-0.062-0.896c-0.388,0.434-0.904,0.65-1.549,0.65c-1.608,0-2.413-0.918-2.413-2.754c0-0.039,0.003-0.078,0.008-0.117
				c0.031-1.84,0.828-2.76,2.39-2.76c0.063,0,0.129,0.002,0.196,0.006c0.535,0.023,0.967,0.24,1.298,0.65
				c0-0.867-0.029-1.889-0.087-3.064H192.986z M191.021,78.474l-0.039-2.027c-0.305-0.309-0.616-0.463-0.936-0.463
				c-0.132,0-0.263,0.025-0.394,0.076c-0.414,0.16-0.621,0.609-0.621,1.348c0,0.086,0.003,0.174,0.008,0.264
				c0.053,0.895,0.32,1.367,0.802,1.418c0.048,0.004,0.095,0.006,0.142,0.006C190.403,79.095,190.749,78.888,191.021,78.474z"/>
			<path fill="#311D43" d="M196.531,77.724l-0.165-1.4c0.901-1.469,1.944-2.988,3.128-4.559l2.531,0.105l-0.031,4.523l1.108,0.018
				v1.4h-1.077v2.467l-1.902-0.053l0.023-2.443L196.531,77.724z M200.179,76.411l0.023-3.023c-0.577,0.992-1.189,1.99-1.84,2.994
				L200.179,76.411z"/>
			<path fill="#311D43" d="M204.926,80.606c-0.314,0-0.584-0.084-0.81-0.252s-0.338-0.369-0.338-0.604
				c0-0.238,0.112-0.441,0.338-0.609s0.495-0.252,0.81-0.252c0.319,0,0.592,0.084,0.817,0.252s0.338,0.371,0.338,0.609
				c0,0.234-0.112,0.436-0.338,0.604S205.245,80.606,204.926,80.606z"/>
		</g>
	</g>
	<g>
		<g>
			<g>
				<path fill="#412E1A" d="M89.051,46.334c1.676-8.294,5.582-18.33,5.984-26.764c0.193-4.052,0.057-8.262-1.806-11.923
					c-1.86-3.661-5.842-6.639-10.156-6.357c-4.671,0.303-8.439,4.164-13.112,4.422c-3.308,0.183-6.451-1.488-9.763-1.549
					c-2.953-0.055-5.9,1.264-7.712,3.451c-1.543,1.863-2.3,4.296-4.201,5.842c-1.775,1.443-4.282,1.884-6.081,3.303
					c-2.471,1.953-3.051,5.263-3.322,8.282c-0.663,7.423-0.443,14.916,0.655,22.296L89.051,46.334z"/>
				<path fill="#FEFEFF" d="M86.772,138.394H23.438H12.213c0.47-5.103,2.175-16.874,8.227-27.527
					c1.852-3.261,4.115-6.417,6.873-9.244c2.085-2.143,4.46-4.099,7.16-5.764c0.008-0.005,0.012-0.009,0.015-0.01
					c0.005-0.003,0.007-0.005,0.007-0.005c3.246-2.01,6.962-3.6,11.217-4.606c3.217-0.769,6.745-1.199,10.607-1.224
					c4.023-0.024,7.661,0.378,10.958,1.131c0.003,0,0.005,0,0.01,0.002c0.031,0.007,0.063,0.014,0.096,0.021
					c3.516,0.812,6.64,2.019,9.411,3.526c2.54,1.382,4.785,3.012,6.77,4.821c2.674,2.436,4.878,5.194,6.689,8.088
					c0.006,0.007,0.012,0.017,0.018,0.024c0.065,0.104,0.132,0.209,0.194,0.313c8.46,13.771,8.248,30.452,8.248,30.452H86.772z"/>
				<path fill="#BD9276" d="M87.423,30.358c0.838,7.632,1.459,16.652,1.081,24.952c-0.523,11.537-8.867,21.212-20.229,23.276
					l-1.868,0.341l1.06,13.302L45.83,92.01l-4.737-30.966c0,0-7.804,1.453-12.254-5.645c-4.833-7.708-1.609-21.775,5.523-15.338
					c8.354,7.539,10.158,7.452,10.158,7.452c1.445-9.751-4.067-29.473,18.899-34.483C74.956,10.513,86.132,18.622,87.423,30.358z"/>
				<g>
					<path fill="#8B6E59" d="M38.508,53.495c-0.04-0.143-0.943,0.16-2.369-0.02c-1.4-0.15-3.36-0.977-4.439-2.86
						c-0.871-1.453-1.058-3.222-0.649-4.335c0.424-1.169,1.678-1.073,1.947-0.74l0.162-0.215c-0.296-0.082-0.448-0.099-0.467-0.055
						c-0.02,0.045,0.094,0.146,0.354,0.309l0.437,0.271l-0.274-0.488c-0.146-0.259-0.585-0.574-1.177-0.537
						c-0.58-0.006-1.309,0.438-1.633,1.163c-0.634,1.426-0.452,3.373,0.539,5.078c1.25,2.186,3.618,3.051,5.155,3.032
						C37.688,54.123,38.556,53.576,38.508,53.495z"/>
				</g>
				<g>
					<path fill="#8B6E59" d="M30.301,48.545c0.152,0.195,0.975-0.177,1.996,0.028c1.028,0.161,1.672,0.795,1.882,0.662
						c0.096-0.062,0.055-0.351-0.229-0.701c-0.278-0.347-0.82-0.71-1.498-0.832c-0.678-0.12-1.312,0.033-1.692,0.264
						C30.372,48.195,30.234,48.453,30.301,48.545z"/>
				</g>
				<path fill="#DEA57C" d="M74.014,66.528"/>
				<g>
					<path fill="#8B6E59" d="M60.635,77.776c-0.116,0.207,0.67,0.841,1.86,0.997c1.19,0.162,2.114-0.245,2.056-0.476
						c-0.052-0.245-0.92-0.26-1.938-0.401C61.592,77.767,60.75,77.553,60.635,77.776z"/>
				</g>
				<path fill="#FFFFFF" d="M62.96,46.63c0,0,1.022-5.994-5.383-7.522c-5.381-1.284-7.311,4.753-7.311,4.753L62.96,46.63z"/>
				<path fill="#412E1A" d="M58.196,39.282l-2.367,5.792l7.131,1.556C62.96,46.63,63.73,40.656,58.196,39.282z"/>
				<path fill="#FFFFFF" d="M86.679,44.652c0,0-1.691-5.842-8.123-4.427c-5.403,1.188-4.511,7.462-4.511,7.462L86.679,44.652z"/>
				<path fill="#412E1A" d="M79.189,40.112l0.392,6.245l7.098-1.705C86.679,44.652,84.77,38.938,79.189,40.112z"/>
				<g>
					<path fill="#412E1A" d="M76.823,33.009c0.175,0.342,0.889,0.314,1.836,0.649c0.959,0.294,2.299,1.021,3.961,1.801
						c3.243,1.515,5.991,2.651,6.406,2.037c0.41-0.597-1.823-2.825-5.277-4.44c-1.669-0.78-3.447-1.405-4.933-1.268
						C77.317,31.907,76.638,32.721,76.823,33.009z"/>
				</g>
				<path fill="#BD9276" d="M67.287,91.145c0,0-4.603,15.105-7.874,15.403c-2.77,0.253-13.702-15.311-13.702-15.311L67.287,91.145z"
					/>
				<g>
					<path fill="none" stroke="#DBCCAE" stroke-miterlimit="10" d="M68.935,57.708"/>
				</g>
				<path fill="#412E1A" d="M90.383,19.625c1.62,2.89-0.231,6.813-3.199,8.283c-2.969,1.471-6.562,0.98-9.645-0.235
					c-3.081-1.218-5.854-3.102-8.871-4.471c-6.537-2.967-14.194-3.385-21.014-1.144c1.642-5.329,6.183-9.457,11.371-11.503
					c5.188-2.047,10.958-2.207,16.485-1.463c3.715,0.502,7.454,1.432,10.6,3.47c3.146,2.04,5.64,5.33,6.007,9.062L90.383,19.625z"/>
				<g>
					<path fill="#412E1A" d="M46.903,34.392c0.128,0.355,1.13,0.326,2.677,0.324c1.551-0.03,3.699,0.052,6.229-0.172
						c2.544-0.228,4.912-1.021,6.344-2.098c1.453-1.066,1.891-2.152,1.633-2.373c-0.283-0.265-1.136,0.248-2.522,0.72
						c-1.385,0.495-3.375,0.894-5.712,1.108c-2.352,0.211-4.65,0.435-6.271,0.963C47.651,33.367,46.78,34.059,46.903,34.392z"/>
				</g>
				<g>
					<path fill="#8B6E59" d="M57.452,57.848c-0.106,0.025-0.036,0.9,0.486,2.211c0.514,1.302,1.547,3.022,3.188,4.448
						c0.795,0.703,1.755,1.362,2.847,1.393c1.105,0.022,1.901-0.615,2.369-1.157c0.905-1.166,1.047-2.031,0.976-2.07
						c-0.132-0.083-0.525,0.732-1.429,1.639c-0.456,0.422-1.133,0.839-1.879,0.775c-0.754-0.052-1.551-0.575-2.301-1.245
						C58.603,61.153,57.697,57.74,57.452,57.848z"/>
				</g>
				<g>
					<path fill="#8B6E59" d="M56.64,60.79c0.251-0.006,0.428-0.87,1.073-1.656c0.618-0.811,1.417-1.181,1.366-1.426
						c-0.011-0.244-1.218-0.198-2.06,0.876C56.168,59.651,56.398,60.836,56.64,60.79z"/>
				</g>
				<g opacity="0.44">
					
						<ellipse transform="matrix(-0.9975 -0.0711 0.0711 -0.9975 107.9453 104.0064)" fill="#B46F68" cx="55.824" cy="50.082" rx="5.947" ry="1.329"/>
				</g>
				<g opacity="0.44">
					<path fill="#B46F68" d="M78.141,52.295c0.136,0.716,2.33,0.896,4.826,0.138c2.499-0.754,4.224-2.121,3.94-2.791
						c-0.285-0.681-2.355-0.459-4.71,0.25C79.847,50.606,78,51.571,78.141,52.295z"/>
				</g>
				<g opacity="0.44">
					<path fill="#B46F68" d="M28.292,45.247c-0.329-0.074-0.978,1.038-1.044,3.064c-0.081,1.988,0.602,4.912,2.697,7.325
						c2.102,2.41,4.903,3.491,6.883,3.685c2.016,0.215,3.208-0.273,3.181-0.609c-0.015-0.389-1.151-0.596-2.749-1.218
						c-1.593-0.602-3.677-1.725-5.312-3.6c-1.631-1.879-2.454-4.096-2.832-5.758C28.723,46.469,28.675,45.315,28.292,45.247z"/>
				</g>
				<g opacity="0.44">
					<path fill="#B46F68" d="M29.984,44.537c0.694-0.161,1.216-1.276,2.062-1.799c0.778-0.618,2.006-0.73,2.394-1.329
						c0.169-0.309-0.046-0.854-0.797-1.21c-0.72-0.352-2-0.414-3.122,0.366c-1.115,0.791-1.491,2.015-1.404,2.812
						C29.197,44.205,29.636,44.593,29.984,44.537z"/>
				</g>
				<path fill="#8B6E59" d="M69.886,38.928c0,0,0.115,1.604,0.389,3.988c0.067,0.596,0.138,1.242,0.226,1.924
					c0.084,0.682,0.173,1.399,0.266,2.142c0.189,1.484,0.393,3.066,0.594,4.648c0.107,0.79,0.208,1.579,0.296,2.357
					c0.081,0.777,0.181,1.539,0.239,2.277c0.055,0.734,0.115,1.452,0.092,2.099c-0.004,0.162-0.02,0.316-0.04,0.457
					c-0.014,0.065-0.026,0.134-0.043,0.18c-0.015,0.054-0.036,0.076-0.014,0.064c0.098-0.04-0.034,0.013-0.101,0.033
					c-0.077,0.028-0.15,0.053-0.206,0.058c-0.062,0.013-0.121,0.025-0.182,0.037c-0.069,0.005-0.139,0.012-0.207,0.017
					c-0.555,0.035-1.099-0.027-1.569-0.101c-0.474-0.08-0.887-0.167-1.227-0.248c-0.68-0.161-1.065-0.279-1.065-0.279
					s0.09,0.048,0.258,0.134c0.169,0.082,0.415,0.21,0.742,0.345c0.325,0.137,0.725,0.299,1.201,0.441
					c0.476,0.143,1.022,0.29,1.669,0.313c0.081,0.001,0.163,0.003,0.247,0.005c0.091-0.009,0.184-0.019,0.277-0.026
					c0.102-0.009,0.18-0.025,0.254-0.044l0.116-0.027l0.03-0.007l0.015-0.003l0.007-0.002c-0.005,0.002,0.062-0.022,0.042-0.016
					c0.047-0.021,0.094-0.049,0.137-0.078c0.145-0.119,0.206-0.242,0.25-0.343c0.045-0.105,0.07-0.199,0.098-0.295
					c0.044-0.187,0.075-0.37,0.095-0.551c0.08-0.724,0.079-1.459,0.049-2.22c-0.032-0.758-0.071-1.539-0.153-2.328
					c-0.077-0.787-0.164-1.587-0.262-2.383c-0.113-0.794-0.228-1.589-0.34-2.37c-0.114-0.781-0.258-1.545-0.385-2.285
					s-0.271-1.452-0.407-2.127c-0.131-0.676-0.272-1.312-0.404-1.898C70.349,40.469,69.886,38.928,69.886,38.928z"/>
				<path fill="#B5996B" d="M23.438,138.394h63.334c0.815-3.101,6.497-25.246,3.691-30.452c-0.061-0.112-0.126-0.22-0.194-0.313
					c-0.006-0.008-0.012-0.018-0.018-0.024c-1.955-2.672-4.164-5.597-6.689-8.088c-2.036-2.006-4.283-3.735-6.77-4.821
					c0,0-3.701,19.151-17.713,18.449c-14.01-0.702-24.586-17.3-24.586-17.3s-0.002,0.002-0.007,0.005
					c-0.003,0.001-0.007,0.005-0.015,0.01c-0.3,0.215-3.76,2.697-7.16,5.764c-2.474,2.229-4.911,4.766-6.075,6.959
					c-0.341,0.645-0.604,1.416-0.798,2.285C18.79,118.254,22.059,132.826,23.438,138.394z"/>
			</g>
			<g>
				<path fill="none" stroke="#9F988B" stroke-width="0.15" stroke-miterlimit="10" d="M69.376,13.196"/>
			</g>
			<g>
				<path fill="#553B24" d="M49.813,19.379c0.181,0.39,2.695-0.816,6.974-0.533c2.129,0.103,4.658,0.559,7.487,1.205
					c2.812,0.639,6.037,1.482,9.568,1.711c3.511,0.24,7.136-0.26,9.954-1.938c2.867-1.623,4.533-4.284,5.248-6.534
					c0.745-2.294,0.637-4.277,0.354-5.547c-0.296-1.282-0.713-1.893-0.867-1.844c-0.194,0.056-0.126,0.753-0.161,1.942
					c-0.044,1.184-0.233,2.904-1.08,4.781c-0.835,1.859-2.327,3.875-4.686,5.066c-2.329,1.246-5.366,1.64-8.591,1.424
					c-3.246-0.207-6.318-0.93-9.256-1.46c-2.92-0.528-5.655-0.822-7.975-0.685c-2.318,0.104-4.17,0.65-5.34,1.202
					C50.261,18.712,49.741,19.243,49.813,19.379z"/>
			</g>
			<g>
				<path fill="#553B24" d="M82.186,26.512c0.014,0.357,0.683,0.685,1.806,0.743c1.115,0.062,2.676-0.193,4.224-0.923
					c1.547-0.733,2.735-1.777,3.396-2.677c0.668-0.906,0.84-1.632,0.572-1.867c-0.58-0.48-2.527,0.959-5.102,2.144
					C84.531,25.168,82.183,25.759,82.186,26.512z"/>
			</g>
		</g>
		<path fill="#FFFFFF" d="M38.961,117.553h5.118c0,0,3.772,6.401,0,7.251c-3.77,0.848-13.144,0-13.144,0s-2.581-7.992,0-7.251
			s5.411,0,5.411,0H38.961z"/>
		<g>
			<path fill="#272425" d="M38.961,117.553l5.118-0.062l0.035-0.001l0.019,0.031c0.451,0.784,0.832,1.603,1.148,2.449
				c0.306,0.847,0.555,1.733,0.552,2.653c0.009,0.229-0.051,0.458-0.074,0.688c-0.083,0.215-0.132,0.453-0.268,0.645
				c-0.14,0.19-0.266,0.395-0.476,0.514c-0.097,0.067-0.189,0.144-0.289,0.203l-0.328,0.119c-0.218,0.095-0.452,0.14-0.669,0.163
				l-0.667,0.102c-0.441,0.082-0.891,0.12-1.344,0.139c-0.904,0.071-1.806,0.096-2.706,0.094c-0.9,0.024-1.8-0.02-2.699-0.041
				c-1.798-0.079-3.594-0.185-5.387-0.347l-0.065-0.006l-0.02-0.062c-0.334-1.091-0.622-2.191-0.843-3.31
				c-0.108-0.559-0.2-1.122-0.251-1.692c-0.041-0.567-0.07-1.15,0.092-1.719c0.078-0.275,0.273-0.574,0.591-0.646
				c0.314-0.07,0.592,0.057,0.865,0.102c0.277,0.053,0.552,0.151,0.832,0.168c0.279,0.028,0.558,0.073,0.84,0.089
				c0.565,0.028,1.132,0.022,1.697-0.021c0.563-0.055,1.128-0.123,1.682-0.251c-0.551,0.141-1.113,0.224-1.678,0.292
				c-0.566,0.058-1.135,0.077-1.705,0.063c-0.285-0.009-0.569-0.048-0.854-0.07c-0.289-0.012-0.56-0.102-0.84-0.148
				c-0.28-0.046-0.56-0.16-0.807-0.096c-0.253,0.06-0.417,0.301-0.491,0.562c-0.146,0.53-0.117,1.105-0.071,1.663
				c0.055,0.562,0.15,1.119,0.263,1.674c0.228,1.107,0.524,2.204,0.865,3.281l-0.084-0.067c1.789,0.146,3.584,0.237,5.377,0.301
				c0.897,0.008,1.795,0.062,2.691,0.046c0.898,0.01,1.793-0.008,2.683-0.07c0.445-0.015,0.892-0.048,1.336-0.126l0.667-0.096
				c0.231-0.025,0.438-0.062,0.636-0.149l0.307-0.107c0.092-0.054,0.174-0.122,0.262-0.183c0.194-0.104,0.306-0.29,0.435-0.46
				c0.126-0.172,0.171-0.394,0.252-0.591c0.021-0.217,0.082-0.43,0.074-0.65c0.012-0.883-0.225-1.76-0.521-2.6
				c-0.305-0.839-0.68-1.658-1.116-2.437l0.053,0.03L38.961,117.553z"/>
		</g>
		<g>
			<path fill="#272425" d="M37.772,117.505c0,0-0.036-0.102-0.07-0.253s-0.046-0.354-0.055-0.556
				c0.009-0.202,0.021-0.404,0.055-0.556c0.033-0.151,0.07-0.253,0.07-0.253s0.037,0.102,0.07,0.253
				c0.034,0.151,0.046,0.354,0.055,0.556c-0.009,0.202-0.021,0.404-0.055,0.556S37.772,117.505,37.772,117.505z"/>
		</g>
		<g>
			<path fill="#272425" d="M37.967,116.651c0,0,0.023-0.337,0.118-0.832c0.031-0.125,0.032-0.257,0.048-0.396
				c0.028-0.141,0.002-0.282-0.016-0.427c-0.011-0.066-0.009-0.161-0.029-0.207c-0.03-0.077-0.064-0.153-0.108-0.19
				c-0.075-0.1-0.211-0.189-0.338-0.202c-0.128-0.034-0.251,0.014-0.338,0.114c-0.051,0.065-0.08,0.079-0.104,0.169
				c-0.033,0.076-0.059,0.151-0.051,0.213c-0.021,0.258,0.046,0.562,0.117,0.795c0.15,0.479,0.185,0.822,0.185,0.822
				s-0.026-0.079-0.072-0.219c-0.053-0.137-0.151-0.321-0.245-0.558c-0.051-0.116-0.094-0.249-0.139-0.392
				c-0.033-0.147-0.082-0.296-0.059-0.489c-0.002-0.1,0.024-0.176,0.052-0.25c0.013-0.073,0.085-0.188,0.143-0.249
				c0.118-0.153,0.352-0.252,0.554-0.203c0.205,0.039,0.367,0.152,0.487,0.316c0.069,0.087,0.097,0.163,0.124,0.237
				c0.037,0.104,0.023,0.177,0.036,0.265c0.02,0.169,0.024,0.33-0.019,0.475c-0.031,0.145-0.049,0.287-0.091,0.404
				C38.069,116.33,37.967,116.651,37.967,116.651z"/>
		</g>
	</g>
</g>
</svg>
