<?xml version="1.0" encoding="utf-8"?>
<!-- Generator: Adobe Illustrator 16.0.0, SVG Export Plug-In . SVG Version: 6.00 Build 0)  -->
<!DOCTYPE svg PUBLIC "-//W3C//DTD SVG 1.1//EN" "http://www.w3.org/Graphics/SVG/1.1/DTD/svg11.dtd">
<svg version="1.1" id="Capa_1" xmlns="http://www.w3.org/2000/svg" xmlns:xlink="http://www.w3.org/1999/xlink" x="0px" y="0px"
	 width="580.586px" height="203.243px" viewBox="0 0 580.586 203.243" enable-background="new 0 0 580.586 203.243"
	 xml:space="preserve">
<g>
	<g>
		<path fill-rule="evenodd" clip-rule="evenodd" fill="#2B1C48" d="M159.19,43.619c-0.031-0.1-0.065-0.19-0.098-0.283
			c-0.184-0.438-0.415-0.793-0.696-1.109c0,0-0.017-0.008-0.024-0.023c-0.896-0.938-2.32-1.359-4.426-1.318
			c-9.734,0.174-19.47,0.049-29.213,0.031c-0.596,0-1.168-0.006-1.689-0.031h-0.009c-5.675-0.223-6.14-1.674-3.919-7.863
			c4.424-12.346-1.931-25.178-14.234-28.783c-1.771-0.523-3.529-0.838-5.26-0.971c-3.473-0.264-6.812,0.207-9.859,1.278
			C79.621,8.107,72.719,18.264,75.197,29.758c2.419,11.211,2.419,11.186-9.61,11.127c-8.841-0.041-17.673-0.01-26.198-0.01V78
			c-0.712,3.597-2.991,4.178-7.821,2.513c-11.84-4.077-23.72,0.173-29.014,10.364c-4.316,8.309-3.066,18.922,3.049,25.916
			c5.948,6.802,16.545,9.403,25.368,6.213c5.22-1.889,7.465-1.84,8.311,1.318c-0.009,0-0.017-0.01-0.024-0.01v37.01
			c0.662,0.109,1.309,0.309,1.955,0.309h0.397c9.934,0.064,19.884,0.041,29.817,0.181c1.6,0.024,2.784,0.175,3.629,0.515
			c2.03,0.803,2.071,2.685,1.202,6.379c-1.069,4.59-2.047,9.752-1.011,14.176c2.635,11.26,13,17.729,24.325,16.635
			c1.921-0.182,3.877-0.586,5.832-1.225c12.287-4.01,17.804-16.471,12.991-29.336c-2.006-5.395-1.193-6.629,4.582-6.629
			c0.713,0,1.367-0.209,1.971-0.547c1.898,0,3.771,0,5.635,0.008h4.432c1.145,0.008,2.279,0.008,3.406,0h1.242
			c0.944,0,1.89,0,2.834-0.008c0.488,0,0.978,0,1.467-0.01c0.902,0,1.798-0.008,2.701-0.016c0.488,0,0.984,0,1.475-0.009
			c0.943-0.009,1.889-0.017,2.824-0.032c0.431-0.01,0.871-0.01,1.301-0.018c0.92-0.009,1.84-0.023,2.76-0.049
			c0.447,0,0.887-0.016,1.334-0.025c1.003-0.018,2.801-2.238,2.832-3.455c0.232-9.885,0.134-19.785,0.134-30.531
			c-3.281-0.182-6.089-0.455-8.915-0.463c-1.4,0-2.734-0.092-4.018-0.256c-16.662-2.131-23.39-17.25-20.654-31.127
			c2.111-10.747,11.325-19.057,21.697-20.166c2.006-0.217,4.051-0.158,6.098,0.197c3.613,0.623,5.725-0.131,5.949-3.843v-1.551
			c-0.018-7.952-0.018-15.899,0.1-23.853C159.605,45.4,159.481,44.414,159.19,43.619z"/>
		<g>
			<g>
				<path fill="#FFFFFF" d="M49.172,131.737h15.671c4.828,0,7.241,2.962,7.241,8.885v0.468c-0.422,4.96-2.445,7.524-6.068,7.694
					c-7.236,0-12.94,0.1-17.113,0.298v-5.654c2.388,0.143,5.192,0.213,8.414,0.213c2.261,0,4.732-0.035,7.416-0.106
					c1.965-0.028,2.947-0.978,2.947-2.849c0.011,0,0.016-0.007,0.016-0.021c0-1.856-1.257-2.785-3.771-2.785l-14.609,0.106
					L49.172,131.737z"/>
				<path fill="#FFFFFF" d="M55.716,125.955l2.583-0.212c-1.373-0.596-2.07-2.161-2.092-4.698v-0.085
					c0-2.494,0.729-4.194,2.187-5.102c0.993-0.623,3.317-0.936,6.972-0.936c1.796,0,3.919,0.078,6.37,0.234v5.144
					c-3.264-0.184-5.793-0.276-7.59-0.276c-0.897,0-1.616,0.021-2.155,0.064c-1.584,0.142-2.377,0.821-2.377,2.04
					s0.423,1.984,1.268,2.296l11.488-0.213l0.031,4.996c-4.859,0-10.315,0.22-16.368,0.658L55.716,125.955z"/>
				<path fill="#FFFFFF" d="M52.484,107.207c0.645,0,1.194,0.305,1.648,0.914c0.455,0.609,0.682,1.346,0.682,2.21
					c0,0.851-0.227,1.581-0.682,2.189c-0.454,0.609-1.003,0.914-1.648,0.914c-0.634,0-1.178-0.305-1.632-0.914
					c-0.454-0.608-0.682-1.339-0.682-2.189c0-0.864,0.228-1.601,0.682-2.21S51.85,107.207,52.484,107.207z M72.481,112.903
					c-6.18,0.1-11.52,0.149-16.02,0.149l-0.238-5.357c4.31,0.17,8.593,0.256,12.851,0.256c1.141,0,2.276-0.008,3.407-0.021V112.903z
					"/>
				<path fill="#FFFFFF" d="M49.98,89.969c3.571,0.085,7.315,0.127,11.234,0.127c3.571,0,7.289-0.035,11.155-0.105l0.016,5.037
					l-2.424,0.17c1.172,1.049,1.759,2.445,1.759,4.188c0,4.351-2.482,6.526-7.447,6.526c-0.105,0-0.211-0.007-0.317-0.021
					c-4.976-0.085-7.463-2.239-7.463-6.462c0-0.17,0.006-0.347,0.016-0.531c0.063-1.445,0.649-2.615,1.759-3.508
					c-2.345,0-5.107,0.078-8.287,0.234V89.969z M66.713,95.282l-5.482,0.106c-0.834,0.822-1.251,1.666-1.251,2.529
					c0,0.354,0.069,0.709,0.206,1.063c0.433,1.119,1.648,1.679,3.644,1.679c0.232,0,0.47-0.007,0.713-0.021
					c2.419-0.142,3.697-0.864,3.834-2.169c0.011-0.127,0.016-0.255,0.016-0.382C68.393,96.955,67.833,96.02,66.713,95.282z"/>
				<path fill="#FFFFFF" d="M55.669,80.062c0.19-4.662,1.938-6.993,5.245-6.993h11.25l0.063,4.952l-1.505,0.17
					c0.866,1.021,1.299,2.374,1.299,4.061c0,0.723-0.084,1.502-0.254,2.338c-0.464,2.508-1.912,3.763-4.341,3.763
					c-0.296,0-0.613-0.021-0.951-0.064c-2.504-0.283-3.755-2.671-3.755-7.163c0-0.864,0.047-1.813,0.143-2.849h-1.838
					c-1.49,0-2.234,0.631-2.234,1.892v0.086c-0.01,0.099-0.016,0.19-0.016,0.276c0,1.374,0.835,2.062,2.504,2.062h0.238
					l-0.317,5.059c-3.686,0-5.53-2.381-5.53-7.142V80.062z M68.187,78.276h-2.789c-0.095,0.609-0.143,1.162-0.143,1.658
					c0,1.29,0.322,2.168,0.966,2.636c0.391,0.284,0.756,0.425,1.094,0.425c0.422,0,0.797-0.227,1.125-0.68
					c0.253-0.354,0.38-0.814,0.38-1.382C68.82,80.211,68.609,79.325,68.187,78.276z"/>
				<path fill="#FFFFFF" d="M49.98,55.299c3.571,0.085,7.315,0.128,11.234,0.128c3.571,0,7.289-0.035,11.155-0.107l0.016,5.038
					l-2.424,0.171c1.172,1.049,1.759,2.443,1.759,4.188c0,4.35-2.482,6.525-7.447,6.525c-0.105,0-0.211-0.008-0.317-0.021
					c-4.976-0.085-7.463-2.238-7.463-6.462c0-0.17,0.006-0.347,0.016-0.531c0.063-1.446,0.649-2.614,1.759-3.507
					c-2.345,0-5.107,0.077-8.287,0.232V55.299z M66.713,60.612L61.23,60.72c-0.834,0.821-1.251,1.664-1.251,2.529
					c0,0.354,0.069,0.709,0.206,1.062c0.433,1.119,1.648,1.68,3.644,1.68c0.232,0,0.47-0.008,0.713-0.021
					c2.419-0.143,3.697-0.865,3.834-2.168c0.011-0.128,0.016-0.256,0.016-0.383C68.393,62.285,67.833,61.35,66.713,60.612z"/>
			</g>
		</g>
		<g>
			<g>
				<path fill="#FFFFFF" d="M105.835,83.435c-0.183,9.166-0.274,18.282-0.274,27.351c0,4.544,0.026,9.078,0.078,13.603l-9.69,0.379
					c-0.182-11.67-0.404-22.477-0.664-32.419c-2.188,0.33-5.158,1.146-8.909,2.447L84.5,88.416l10.863-5.127L105.835,83.435z"/>
			</g>
		</g>
	</g>
	<g>
		<path fill-rule="evenodd" clip-rule="evenodd" fill="#ABC02F" d="M417.396,159.215c0.032,0.1,0.065,0.191,0.099,0.283
			c0.184,0.438,0.414,0.793,0.695,1.109c0,0,0.018,0.008,0.025,0.023c0.895,0.938,2.32,1.359,4.426,1.318
			c9.734-0.174,23.469-0.049,33.212-0.031c0.597,0,1.169,0.006,1.69,0.031h0.008c5.676,0.223,6.139,1.674,3.918,7.862
			c-4.424,12.345,1.932,25.179,14.234,28.785c1.773,0.522,3.529,0.837,5.262,0.968c3.472,0.266,6.811-0.207,9.859-1.275
			c10.141-3.564,17.043-13.721,14.564-25.212c-2.42-11.212-2.42-11.187,9.611-11.128c8.84,0.041,17.672,0.01,26.197,0.01v-37.125
			c0.713-3.596,2.99-4.178,7.821-2.512c11.839,4.075,23.72-0.174,29.015-10.365c4.316-8.31,3.066-18.922-3.049-25.916
			c-5.949-6.801-16.545-9.402-25.369-6.213c-5.221,1.889-7.465,1.84-8.311-1.317c0.008,0,0.018,0.009,0.025,0.009V41.51
			c-0.662-0.109-1.31-0.309-1.955-0.309h-0.398c-9.934-0.064-19.883-0.04-29.818-0.18c-1.599-0.025-2.783-0.175-3.627-0.516
			c-2.031-0.803-2.072-2.684-1.203-6.378c1.07-4.591,2.047-9.753,1.012-14.177c-2.635-11.26-13-17.729-24.326-16.635
			c-1.922,0.182-3.877,0.586-5.832,1.225c-12.287,4.01-17.805,16.472-12.99,29.337c2.004,5.394,1.193,6.628-4.582,6.628
			c-0.713,0-1.367,0.209-1.973,0.547c-1.896,0-3.77,0-5.633-0.008h-4.432c-1.145-0.008-2.279-0.008-3.406,0h-1.242
			c-0.945,0-1.891,0-2.834,0.008c-0.488,0-0.979,0-1.467,0.01c-0.902,0-1.799,0.008-2.701,0.017c-0.488,0-0.985,0-1.475,0.009
			c-0.945,0.009-1.889,0.016-2.824,0.031c-0.432,0.01-0.871,0.01-1.301,0.018c-0.92,0.009-5.84,0.024-6.761,0.049
			c-0.446,0-0.886,0.016-1.334,0.025c-1.003,0.018-2.8,2.238-2.832,3.455c-0.231,9.885-0.134,20.785-0.134,31.531
			c3.281,0.183,10.09-0.545,12.916-0.537c1.4,0,2.734,0.092,4.018,0.256c16.662,2.131,23.389,17.25,20.654,31.128
			c-2.111,10.747-11.326,19.056-21.697,20.165c-2.007,0.217-8.051,0.158-10.098-0.197c-3.613-0.623-5.725,0.131-5.95,3.844v1.551
			c0.019,7.951,0.019,15.898-0.099,23.852C416.981,157.434,417.105,158.42,417.396,159.215z"/>
		<g>
			<g>
				<path fill="#FFFFFF" d="M470.174,131.737h15.671c4.827,0,7.241,2.962,7.241,8.885v0.468c-0.422,4.96-2.445,7.524-6.068,7.694
					c-7.236,0-12.94,0.1-17.113,0.298v-5.654c2.388,0.143,5.192,0.213,8.414,0.213c2.261,0,4.732-0.035,7.416-0.106
					c1.965-0.028,2.947-0.978,2.947-2.849c0.01,0,0.016-0.007,0.016-0.021c0-1.856-1.258-2.785-3.771-2.785l-14.609,0.106
					L470.174,131.737z"/>
				<path fill="#FFFFFF" d="M476.718,125.955l2.583-0.212c-1.373-0.596-2.07-2.161-2.092-4.698v-0.085
					c0-2.494,0.729-4.194,2.188-5.102c0.992-0.623,3.316-0.936,6.971-0.936c1.797,0,3.92,0.078,6.37,0.234v5.144
					c-3.264-0.184-5.794-0.276-7.59-0.276c-0.897,0-1.616,0.021-2.155,0.064c-1.584,0.142-2.377,0.821-2.377,2.04
					s0.424,1.984,1.268,2.296l11.488-0.213l0.031,4.996c-4.858,0-10.314,0.22-16.367,0.658L476.718,125.955z"/>
				<path fill="#FFFFFF" d="M473.486,107.207c0.645,0,1.194,0.305,1.647,0.914c0.455,0.609,0.682,1.346,0.682,2.21
					c0,0.851-0.227,1.581-0.682,2.189c-0.453,0.609-1.003,0.914-1.647,0.914c-0.634,0-1.178-0.305-1.632-0.914
					c-0.454-0.608-0.682-1.339-0.682-2.189c0-0.864,0.228-1.601,0.682-2.21S472.852,107.207,473.486,107.207z M493.483,112.903
					c-6.18,0.1-11.52,0.149-16.02,0.149l-0.238-5.357c4.311,0.17,8.594,0.256,12.852,0.256c1.141,0,2.275-0.008,3.406-0.021V112.903
					z"/>
				<path fill="#FFFFFF" d="M470.983,89.969c3.57,0.085,7.314,0.127,11.234,0.127c3.57,0,7.288-0.035,11.154-0.105l0.016,5.037
					l-2.424,0.17c1.172,1.049,1.759,2.445,1.759,4.188c0,4.351-2.482,6.526-7.447,6.526c-0.105,0-0.212-0.007-0.317-0.021
					c-4.975-0.085-7.463-2.239-7.463-6.462c0-0.17,0.006-0.347,0.016-0.531c0.064-1.445,0.65-2.615,1.76-3.508
					c-2.346,0-5.107,0.078-8.287,0.234V89.969z M487.715,95.282l-5.482,0.106c-0.834,0.822-1.252,1.666-1.252,2.529
					c0,0.354,0.068,0.709,0.206,1.063c0.433,1.119,1.647,1.679,3.644,1.679c0.232,0,0.471-0.007,0.714-0.021
					c2.419-0.142,3.697-0.864,3.835-2.169c0.01-0.127,0.016-0.255,0.016-0.382C489.395,96.955,488.834,96.02,487.715,95.282z"/>
				<path fill="#FFFFFF" d="M476.67,80.062c0.19-4.662,1.939-6.993,5.245-6.993h11.251l0.062,4.952l-1.505,0.17
					c0.866,1.021,1.3,2.374,1.3,4.061c0,0.723-0.085,1.502-0.254,2.338c-0.465,2.508-1.912,3.763-4.342,3.763
					c-0.296,0-0.613-0.021-0.951-0.064c-2.504-0.283-3.755-2.671-3.755-7.163c0-0.864,0.048-1.813,0.143-2.849h-1.838
					c-1.489,0-2.234,0.631-2.234,1.892v0.086c-0.011,0.099-0.017,0.19-0.017,0.276c0,1.374,0.836,2.062,2.504,2.062h0.238
					l-0.317,5.059c-3.687,0-5.53-2.381-5.53-7.142V80.062z M489.188,78.276H486.4c-0.095,0.609-0.143,1.162-0.143,1.658
					c0,1.29,0.322,2.168,0.966,2.636c0.392,0.284,0.756,0.425,1.094,0.425c0.423,0,0.798-0.227,1.125-0.68
					c0.254-0.354,0.381-0.814,0.381-1.382C489.823,80.211,489.612,79.325,489.188,78.276z"/>
				<path fill="#FFFFFF" d="M470.983,55.299c3.57,0.085,7.314,0.128,11.234,0.128c3.57,0,7.288-0.035,11.154-0.107l0.016,5.038
					l-2.424,0.171c1.172,1.049,1.759,2.443,1.759,4.188c0,4.35-2.482,6.525-7.447,6.525c-0.105,0-0.212-0.008-0.317-0.021
					c-4.975-0.085-7.463-2.238-7.463-6.462c0-0.17,0.006-0.347,0.016-0.531c0.064-1.446,0.65-2.614,1.76-3.507
					c-2.346,0-5.107,0.077-8.287,0.232V55.299z M487.715,60.612l-5.482,0.107c-0.834,0.821-1.252,1.664-1.252,2.529
					c0,0.354,0.068,0.709,0.206,1.062c0.433,1.119,1.647,1.68,3.644,1.68c0.232,0,0.471-0.008,0.714-0.021
					c2.419-0.143,3.697-0.865,3.835-2.168c0.01-0.128,0.016-0.256,0.016-0.383C489.395,62.285,488.834,61.35,487.715,60.612z"/>
			</g>
		</g>
		<g>
			<g>
				<path fill="#FFFFFF" d="M500.227,111.95l-0.82-6.961c4.48-7.301,9.664-14.855,15.551-22.661l12.582,0.524l-0.156,22.486
					l5.51,0.087v6.962h-5.354v12.263l-9.455-0.263l0.117-12.146L500.227,111.95z M518.358,105.426l0.117-15.029
					c-2.866,4.933-5.914,9.894-9.144,14.884L518.358,105.426z"/>
			</g>
		</g>
	</g>
	<g>
		<path fill-rule="evenodd" clip-rule="evenodd" fill="#DC9B2F" d="M288.729,159.215c0.033,0.1,0.066,0.191,0.1,0.283
			c0.182,0.438,0.414,0.793,0.695,1.109c0,0,0.018,0.008,0.025,0.023c0.895,0.938,2.319,1.359,4.425,1.318
			c9.735-0.174,23.47-0.049,33.213-0.031c0.597,0,1.169,0.006,1.689,0.031h0.009c5.675,0.223,6.139,1.674,3.918,7.862
			c-4.424,12.345,1.932,25.179,14.234,28.785c1.772,0.522,3.529,0.837,5.262,0.968c3.472,0.266,6.811-0.207,9.859-1.275
			c10.141-3.564,17.043-13.721,14.564-25.212c-2.42-11.212-2.42-11.187,9.611-11.128c8.84,0.041,17.672,0.01,26.197,0.01v-37.125
			c0.713-3.596,2.989-4.178,7.821-2.512c11.839,4.075,23.72-0.174,29.015-10.365c4.316-8.31,3.064-18.922-3.049-25.916
			c-5.949-6.801-16.545-9.402-25.369-6.213c-5.222,1.889-7.465,1.84-8.311-1.317c0.007,0,0.018,0.009,0.025,0.009V41.51
			c-0.662-0.109-1.31-0.309-1.955-0.309h-0.399c-9.933-0.064-19.882-0.04-29.817-0.18c-1.598-0.025-2.783-0.175-3.627-0.516
			c-2.031-0.803-2.072-2.684-1.203-6.378c1.07-4.591,2.047-9.753,1.012-14.177c-2.635-11.26-13-17.729-24.326-16.635
			c-1.922,0.182-3.877,0.586-5.832,1.225c-12.287,4.01-17.805,16.472-12.991,29.337c2.005,5.394,1.193,6.628-4.582,6.628
			c-0.712,0-1.366,0.209-1.972,0.547c-1.897,0-3.77,0-5.634-0.008h-4.433c-1.143-0.008-2.278-0.008-3.406,0h-1.242
			c-0.943,0-1.889,0-2.833,0.008c-0.489,0-0.978,0-1.468,0.01c-0.902,0-1.797,0.008-2.699,0.017c-0.489,0-0.986,0-1.475,0.009
			c-0.945,0.009-1.89,0.016-2.826,0.031c-0.43,0.01-0.869,0.01-1.301,0.018c-0.919,0.009-5.839,0.024-6.759,0.049
			c-0.447,0-0.887,0.016-1.334,0.025c-1.003,0.018-2.8,2.238-2.833,3.455c-0.232,9.885-0.133,20.785-0.133,31.531
			c3.281,0.183,10.089-0.545,12.915-0.537c1.399,0,2.734,0.092,4.019,0.256c16.661,2.131,23.389,17.25,20.654,31.128
			c-2.112,10.747-11.326,19.056-21.699,20.165c-2.005,0.217-8.051,0.158-10.097-0.197c-3.612-0.623-5.726,0.131-5.949,3.844v1.551
			c0.017,7.951,0.017,15.898-0.1,23.852C288.315,157.434,288.439,158.42,288.729,159.215z"/>
		<g>
			<g>
				<path fill="#FFFFFF" d="M341.508,131.737h15.671c4.827,0,7.241,2.962,7.241,8.885v0.468c-0.422,4.96-2.445,7.524-6.068,7.694
					c-7.236,0-12.94,0.1-17.113,0.298v-5.654c2.388,0.143,5.192,0.213,8.414,0.213c2.261,0,4.732-0.035,7.416-0.106
					c1.965-0.028,2.947-0.978,2.947-2.849c0.01,0,0.016-0.007,0.016-0.021c0-1.856-1.258-2.785-3.771-2.785l-14.609,0.106
					L341.508,131.737z"/>
				<path fill="#FFFFFF" d="M348.052,125.955l2.583-0.212c-1.373-0.596-2.07-2.161-2.092-4.698v-0.085
					c0-2.494,0.729-4.194,2.188-5.102c0.992-0.623,3.316-0.936,6.971-0.936c1.797,0,3.92,0.078,6.37,0.234v5.144
					c-3.264-0.184-5.794-0.276-7.59-0.276c-0.897,0-1.616,0.021-2.155,0.064c-1.584,0.142-2.377,0.821-2.377,2.04
					s0.424,1.984,1.268,2.296l11.488-0.213l0.031,4.996c-4.858,0-10.314,0.22-16.367,0.658L348.052,125.955z"/>
				<path fill="#FFFFFF" d="M344.82,107.207c0.645,0,1.194,0.305,1.647,0.914c0.455,0.609,0.682,1.346,0.682,2.21
					c0,0.851-0.227,1.581-0.682,2.189c-0.453,0.609-1.003,0.914-1.647,0.914c-0.634,0-1.178-0.305-1.632-0.914
					c-0.454-0.608-0.682-1.339-0.682-2.189c0-0.864,0.228-1.601,0.682-2.21S344.186,107.207,344.82,107.207z M364.817,112.903
					c-6.18,0.1-11.52,0.149-16.02,0.149l-0.238-5.357c4.311,0.17,8.594,0.256,12.852,0.256c1.141,0,2.275-0.008,3.406-0.021V112.903
					z"/>
				<path fill="#FFFFFF" d="M342.317,89.969c3.57,0.085,7.314,0.127,11.234,0.127c3.57,0,7.288-0.035,11.154-0.105l0.016,5.037
					l-2.424,0.17c1.172,1.049,1.759,2.445,1.759,4.188c0,4.351-2.482,6.526-7.447,6.526c-0.105,0-0.212-0.007-0.317-0.021
					c-4.975-0.085-7.463-2.239-7.463-6.462c0-0.17,0.006-0.347,0.016-0.531c0.064-1.445,0.65-2.615,1.76-3.508
					c-2.346,0-5.107,0.078-8.287,0.234V89.969z M359.049,95.282l-5.482,0.106c-0.834,0.822-1.252,1.666-1.252,2.529
					c0,0.354,0.068,0.709,0.206,1.063c0.433,1.119,1.647,1.679,3.644,1.679c0.232,0,0.471-0.007,0.714-0.021
					c2.419-0.142,3.697-0.864,3.835-2.169c0.01-0.127,0.016-0.255,0.016-0.382C360.729,96.955,360.168,96.02,359.049,95.282z"/>
				<path fill="#FFFFFF" d="M348.004,80.062c0.19-4.662,1.939-6.993,5.245-6.993H364.5l0.062,4.952l-1.505,0.17
					c0.866,1.021,1.3,2.374,1.3,4.061c0,0.723-0.085,1.502-0.254,2.338c-0.465,2.508-1.912,3.763-4.342,3.763
					c-0.296,0-0.613-0.021-0.951-0.064c-2.504-0.283-3.755-2.671-3.755-7.163c0-0.864,0.048-1.813,0.143-2.849h-1.838
					c-1.489,0-2.234,0.631-2.234,1.892v0.086c-0.011,0.099-0.017,0.19-0.017,0.276c0,1.374,0.836,2.062,2.504,2.062h0.238
					l-0.317,5.059c-3.687,0-5.53-2.381-5.53-7.142V80.062z M360.522,78.276h-2.788c-0.095,0.609-0.143,1.162-0.143,1.658
					c0,1.29,0.322,2.168,0.966,2.636c0.392,0.284,0.756,0.425,1.094,0.425c0.423,0,0.798-0.227,1.125-0.68
					c0.254-0.354,0.381-0.814,0.381-1.382C361.157,80.211,360.946,79.325,360.522,78.276z"/>
				<path fill="#FFFFFF" d="M342.317,55.299c3.57,0.085,7.314,0.128,11.234,0.128c3.57,0,7.288-0.035,11.154-0.107l0.016,5.038
					l-2.424,0.171c1.172,1.049,1.759,2.443,1.759,4.188c0,4.35-2.482,6.525-7.447,6.525c-0.105,0-0.212-0.008-0.317-0.021
					c-4.975-0.085-7.463-2.238-7.463-6.462c0-0.17,0.006-0.347,0.016-0.531c0.064-1.446,0.65-2.614,1.76-3.507
					c-2.346,0-5.107,0.077-8.287,0.232V55.299z M359.049,60.612l-5.482,0.107c-0.834,0.821-1.252,1.664-1.252,2.529
					c0,0.354,0.068,0.709,0.206,1.062c0.433,1.119,1.647,1.68,3.644,1.68c0.232,0,0.471-0.008,0.714-0.021
					c2.419-0.143,3.697-0.865,3.835-2.168c0.01-0.128,0.016-0.256,0.016-0.383C360.729,62.285,360.168,61.35,359.049,60.612z"/>
			</g>
		</g>
		<g>
			<g>
				<path fill="#FFFFFF" d="M373.456,96.658c-0.104-1.028-0.156-1.99-0.156-2.883c0-3.088,0.625-5.467,1.876-7.137
					c1.589-2.136,4.194-3.456,7.815-3.961c1.771-0.252,3.463-0.379,5.079-0.379c1.642,0,3.204,0.136,4.688,0.408
					c2.893,0.523,5.203,1.699,6.936,3.524s2.664,4.33,2.795,7.515v0.874c0,2.757-0.574,4.767-1.72,6.029
					c-1.276,1.417-3.374,2.485-6.291,3.204c2.423,0.271,4.239,0.927,5.45,1.966c1.212,1.039,2.053,2.432,2.521,4.18
					c0.26,0.971,0.391,2.039,0.391,3.204c0,0.951-0.092,1.98-0.273,3.087c-0.391,2.428-1.714,4.525-3.967,6.292
					c-2.254,1.767-5.725,2.689-10.413,2.767h-0.625c-4.403,0-7.919-0.854-10.55-2.562c-2.736-1.748-4.104-5.506-4.104-11.272v-0.175
					l10.121-0.438c-0.027,0.331-0.039,0.651-0.039,0.962c0,4.077,1.432,6.185,4.297,6.32c0.209,0.02,0.404,0.029,0.587,0.029
					c2.709,0,4.337-1.067,4.884-3.204c0.156-0.602,0.234-1.175,0.234-1.719c0-1.533-0.586-2.864-1.758-3.99
					c-1.615-1.515-4.285-2.271-8.01-2.271l-0.469-5.534c0.441,0.02,0.859,0.028,1.25,0.028c3.256,0,5.496-0.698,6.721-2.097
					c1.146-1.301,1.719-2.99,1.719-5.068c0-0.407-0.025-0.825-0.078-1.252c-0.234-2.485-1.732-3.729-4.493-3.729h-0.508
					c-2.735,0.136-4.103,2.175-4.103,6.116c0,0.467,0.012,0.962,0.039,1.485L373.456,96.658z"/>
			</g>
		</g>
	</g>
	<g>
		<path fill-rule="evenodd" clip-rule="evenodd" fill="#81AD38" d="M322.002,101.623c0-0.219-0.006-0.439-0.013-0.658
			c-0.069-3.727-0.883-7.388-2.459-10.561c-0.604-1.277-1.304-2.5-2.126-3.627c-0.935-1.287-2.13-2.421-3.508-3.399
			c-6.016-4.962-14.178-6.247-22.56-3.298c-3.89,1.371-5.77,1.17-6.503-1.232c-0.15-0.822-0.221-1.828-0.225-3.062
			c-0.019-9.57,0.09-19.141,0.104-28.711c0.003-2.984-0.081-4.695-0.789-5.686c-0.761-1.662-2.371-2.312-5.058-2.268
			c-10.24,0.17-20.484,0.078-30.726,0.199c-0.546,0.01-1.032,0.031-1.487,0.064c-2.707-1.016-2.909-3.393-1.258-8.071
			c3.596-10.186,0.545-20.819-7.751-27.022c-7.456-5.577-18.835-5.734-26.456-0.371c-8.529,6.006-11.834,16.379-8.533,26.787
			c1.786,5.631,1.698,7.94-1.603,8.758c-9.35-0.061-18.702-0.096-28.05,0.048c-1.072-0.017-2.144-0.038-3.215-0.056
			c-0.854-0.016-1.615,0.033-2.293,0.153c-0.033,0.001-0.069,0.001-0.104,0.003c-0.185,0.002-0.392,0.066-0.606,0.164
			c-2.004,0.603-3.025,2.153-2.896,5.506c0.02,0.482,0.027,0.965,0.045,1.448c-0.125,4.496,0,9.005,0.001,13.505
			c0.003,5.324-0.175,10.656,0.054,15.969c0,0.567-0.007,1.082-0.02,1.535c-0.191,2.213-1.192,3.238-2.885,3.532
			c-0.896-0.019-2.059-0.142-3.593-0.308c-1.296-0.138-2.601-0.176-3.909-0.201c-1.574-0.116-3.147-0.16-4.707-0.082
			c-0.021,0-0.039,0.002-0.059,0.002c-3.172,0.168-6.296,0.85-9.324,2.492c-6.141,3.336-9.834,10.588-9.73,18.23
			c-0.002,0.073,0,0.145-0.002,0.217c0.002,0.07,0,0.141,0.002,0.213c-0.104,7.645,3.59,14.898,9.73,18.232
			c3.028,1.644,6.152,2.324,9.324,2.49c0.02,0.003,0.038,0.003,0.059,0.004c1.56,0.078,3.131,0.034,4.707-0.082
			c1.308-0.025,2.613-0.062,3.909-0.202c1.534-0.165,2.696-0.288,3.593-0.308c1.692,0.295,2.693,1.316,2.885,3.533
			c0.013,0.453,0.02,0.967,0.02,1.533c-0.229,5.314-0.051,10.645-0.054,15.969c-0.001,4.502-0.126,9.014-0.001,13.506
			c-0.018,0.483-0.025,0.967-0.045,1.45c-0.129,3.352,0.893,4.903,2.896,5.505c0.215,0.097,0.422,0.161,0.606,0.164
			c0.035,0,0.071,0,0.104,0.002c0.678,0.123,1.439,0.168,2.293,0.152c1.071-0.016,2.143-0.035,3.215-0.055
			c9.348,0.145,18.7,0.107,28.05,0.048c3.301,0.817,3.389,3.128,1.603,8.759c-3.301,10.406,0.004,20.781,8.533,26.785
			c7.621,5.365,19,5.206,26.456-0.369c8.296-6.203,11.347-16.836,7.751-27.022c-1.651-4.679-1.449-7.058,1.258-8.073
			c0.455,0.033,0.941,0.059,1.487,0.064c10.241,0.124,20.485,0.029,30.726,0.199c2.687,0.045,4.297-0.604,5.058-2.266
			c0.708-0.99,0.792-2.701,0.789-5.686c-0.015-9.57-0.123-19.14-0.104-28.711c0.004-1.234,0.074-2.24,0.225-3.062
			c0.733-2.4,2.613-2.604,6.503-1.232c8.382,2.949,16.544,1.665,22.56-3.299c1.378-0.979,2.573-2.113,3.508-3.398
			c0.822-1.129,1.522-2.35,2.126-3.629c1.576-3.17,2.39-6.832,2.459-10.558C321.997,102.061,322.002,101.84,322.002,101.623z"/>
		<g>
			<g>
				<path fill="#FFFFFF" d="M192.87,69.307v15.671c0,4.828-2.961,7.241-8.885,7.241h-0.468c-4.96-0.422-7.524-2.445-7.694-6.068
					c0-7.236-0.1-12.94-0.298-17.113h5.653c-0.141,2.388-0.212,5.192-0.212,8.414c0,2.261,0.035,4.732,0.106,7.416
					c0.028,1.965,0.978,2.947,2.848,2.947c0,0.01,0.008,0.016,0.021,0.016c1.856,0,2.785-1.257,2.785-3.771l-0.106-14.609
					L192.87,69.307z"/>
				<path fill="#FFFFFF" d="M198.651,75.851l0.213,2.583c0.596-1.373,2.161-2.07,4.698-2.092h0.085c2.494,0,4.194,0.729,5.102,2.187
					c0.623,0.993,0.936,3.317,0.936,6.973c0,1.796-0.078,3.919-0.234,6.369h-5.145c0.185-3.264,0.277-5.794,0.277-7.59
					c0-0.897-0.021-1.616-0.064-2.154c-0.142-1.585-0.822-2.377-2.041-2.377s-1.983,0.422-2.295,1.268l0.213,11.487l-4.996,0.032
					c0-4.859-0.219-10.315-0.658-16.368L198.651,75.851z"/>
				<path fill="#FFFFFF" d="M217.4,72.618c0,0.645-0.306,1.193-0.914,1.648c-0.609,0.454-1.347,0.682-2.211,0.682
					c-0.851,0-1.58-0.228-2.189-0.682c-0.609-0.455-0.914-1.004-0.914-1.648c0-0.634,0.305-1.178,0.914-1.632
					s1.339-0.682,2.189-0.682c0.864,0,1.602,0.228,2.211,0.682C217.094,71.44,217.4,71.984,217.4,72.618z M211.704,92.615
					c-0.1-6.18-0.149-11.52-0.149-16.02l5.356-0.238c-0.17,4.311-0.255,8.594-0.255,12.851c0,1.142,0.007,2.277,0.021,3.407H211.704
					z"/>
				<path fill="#FFFFFF" d="M234.639,70.114c-0.086,3.571-0.128,7.315-0.128,11.234c0,3.571,0.035,7.289,0.106,11.155l-5.037,0.016
					l-0.171-2.424c-1.049,1.173-2.444,1.759-4.188,1.759c-4.351,0-6.525-2.482-6.525-7.447c0-0.105,0.007-0.211,0.021-0.317
					c0.086-4.975,2.239-7.463,6.463-7.463c0.17,0,0.347,0.006,0.531,0.016c1.445,0.063,2.614,0.65,3.507,1.76
					c0-2.346-0.077-5.108-0.233-8.288H234.639z M229.325,86.848l-0.106-5.482c-0.821-0.835-1.665-1.252-2.529-1.252
					c-0.354,0-0.709,0.068-1.063,0.206c-1.119,0.433-1.679,1.647-1.679,3.645c0,0.232,0.007,0.47,0.021,0.713
					c0.142,2.419,0.864,3.697,2.168,3.834c0.128,0.011,0.255,0.017,0.383,0.017C227.653,88.527,228.588,87.967,229.325,86.848z"/>
				<path fill="#FFFFFF" d="M244.544,75.803c4.662,0.19,6.993,1.939,6.993,5.245v11.25l-4.953,0.063l-0.17-1.505
					c-1.02,0.866-2.373,1.299-4.06,1.299c-0.723,0-1.503-0.084-2.339-0.253c-2.508-0.465-3.762-1.912-3.762-4.342
					c0-0.296,0.021-0.612,0.063-0.951c0.284-2.503,2.671-3.755,7.163-3.755c0.865,0,1.814,0.048,2.849,0.143v-1.838
					c0-1.489-0.63-2.234-1.892-2.234h-0.085c-0.099-0.011-0.191-0.016-0.276-0.016c-1.375,0-2.062,0.834-2.062,2.503v0.238
					l-5.059-0.317c0-3.687,2.381-5.53,7.143-5.53H244.544z M246.33,88.321v-2.789c-0.609-0.095-1.162-0.143-1.657-0.143
					c-1.29,0-2.169,0.322-2.637,0.967c-0.283,0.391-0.425,0.755-0.425,1.093c0,0.423,0.227,0.798,0.681,1.125
					c0.354,0.254,0.814,0.381,1.381,0.381C244.395,88.955,245.281,88.743,246.33,88.321z"/>
				<path fill="#FFFFFF" d="M269.308,70.114c-0.085,3.571-0.128,7.315-0.128,11.234c0,3.571,0.035,7.289,0.107,11.155l-5.038,0.016
					l-0.171-2.424c-1.049,1.173-2.443,1.759-4.188,1.759c-4.35,0-6.525-2.482-6.525-7.447c0-0.105,0.008-0.211,0.021-0.317
					c0.085-4.975,2.238-7.463,6.462-7.463c0.17,0,0.347,0.006,0.531,0.016c1.446,0.063,2.614,0.65,3.507,1.76
					c0-2.346-0.077-5.108-0.232-8.288H269.308z M263.995,86.848l-0.107-5.482c-0.821-0.835-1.664-1.252-2.529-1.252
					c-0.354,0-0.709,0.068-1.062,0.206c-1.119,0.433-1.68,1.647-1.68,3.645c0,0.232,0.008,0.47,0.021,0.713
					c0.143,2.419,0.865,3.697,2.168,3.834c0.128,0.011,0.256,0.017,0.383,0.017C262.322,88.527,263.257,87.967,263.995,86.848z"/>
			</g>
		</g>
		<g>
			<g>
				<path fill="#FFFFFF" d="M208.43,118.39c-0.131-1.165-0.195-2.243-0.195-3.233c0-3.476,0.846-5.98,2.539-7.515
					c2.162-1.961,4.924-3.136,8.284-3.524c1.198-0.136,2.37-0.204,3.517-0.204c2.058,0,4.037,0.214,5.939,0.641
					c2.97,0.68,5.21,2.02,6.721,4.02c1.225,1.671,1.836,3.807,1.836,6.408c0,0.505-0.013,1.039-0.039,1.602
					c-0.312,3.341-1.66,6.413-4.043,9.219c-2.385,2.807-6.506,6.821-12.367,12.045l17.075,0.087l-0.117,7.312
					c-7.477,0.252-17.114,0.378-28.915,0.378l-0.898-7.951c7.085-5.709,12.139-10.098,15.16-13.166
					c2.762-2.815,4.143-5.582,4.143-8.301v-0.729c-0.287-2.913-1.928-4.369-4.924-4.369h-0.156
					c-2.605,0.059-3.907,1.825-3.907,5.301c0,0.661,0.039,1.369,0.117,2.127L208.43,118.39z"/>
			</g>
		</g>
	</g>
</g>
</svg>
