<?xml version="1.0" encoding="utf-8"?>
<!-- Generator: Adobe Illustrator 16.0.0, SVG Export Plug-In . SVG Version: 6.00 Build 0)  -->
<!DOCTYPE svg PUBLIC "-//W3C//DTD SVG 1.1//EN" "http://www.w3.org/Graphics/SVG/1.1/DTD/svg11.dtd">
<svg version="1.1" id="Capa_1" xmlns="http://www.w3.org/2000/svg" xmlns:xlink="http://www.w3.org/1999/xlink" x="0px" y="0px"
	 width="850.297px" height="312.95px" viewBox="0 0 850.297 312.95" enable-background="new 0 0 850.297 312.95"
	 xml:space="preserve">
<g>
	<g id="DXXN6s.tif">
		<g>
			<path fill="#7FB8CA" d="M144.604,91.803c-25.49,0.518-45.982-21.83-45.836-46.021C98.9,22.838,117.82,0.086,144.702,0
				c25.241-0.08,46.111,20.772,45.985,46.031C190.553,73.109,168.07,92.397,144.604,91.803z M144.395,79.05
				c18.324,0.102,33.417-14.496,33.573-32.475c0.162-18.396-14.851-33.763-33.062-33.843c-18.049-0.079-32.689,14.684-33.326,32.5
				C110.94,63.295,126.911,79.62,144.395,79.05z"/>
			<path fill="#99BB5D" d="M94.247,46.392c-0.945,27.034-21.614,46.431-48.692,45.304C23.258,90.768,1.971,72.21,2.528,45.269
				C3.072,18.99,24.351-0.838,49.857,0.063C74.622,0.938,95.088,22.297,94.247,46.392z M48.392,79.178
				c18.387-0.074,33.147-14.84,33.231-33.241c0.08-18.113-15.106-33.233-33.353-33.208c-18.196,0.026-33.228,15.095-33.241,33.322
				C15.013,64.246,30.123,79.251,48.392,79.178z"/>
			<path fill="#9786B5" d="M142.99,190.952c-25.479,0.069-46.121-20.379-46.148-45.722c-0.028-25.094,20.631-45.939,45.647-46.053
				c25.283-0.116,46.039,20.56,46.057,45.881C188.566,170.424,168.26,190.885,142.99,190.952z M142.751,178.267
				c18.506,0,33.148-14.585,33.179-33.054c0.028-18.316-14.818-33.299-33.045-33.348c-18.307-0.049-33.327,14.832-33.361,33.049
				C109.492,163.573,124.129,178.269,142.751,178.267z"/>
			<path fill="#BB688B" d="M43.32,190.932c-0.044-1.689-0.118-3.379-0.124-5.071c-0.016-4.433-0.006-4.458,4.395-4.426
				c5.251,0.038,4.467-0.562,4.522,4.583c0.018,1.586-0.066,3.172-0.104,4.757C49.113,190.827,46.217,190.879,43.32,190.932z"/>
			<path fill="#EAF2F4" d="M144.395,79.05c-17.483,0.57-33.454-15.755-32.814-33.817c0.637-17.816,15.277-32.579,33.326-32.5
				c18.211,0.08,33.224,15.447,33.062,33.843C177.812,64.554,162.719,79.151,144.395,79.05z M143.916,70.082
				c5.92,0.053,10.711-1.361,15.053-4.3c1.837-1.244,3.206-2.729,1.605-4.96c-1.381-1.928-3.114-1.693-4.998-0.479
				c-7.117,4.6-14.334,4.595-21.497,0.128c-1.937-1.21-3.773-1.891-5.197,0.36c-1.483,2.34-0.119,4.013,1.896,5.223
				C135.026,68.604,139.542,70.285,143.916,70.082z M128.987,47.802c4.204-0.016,7.561-3.358,7.491-7.46
				c-0.065-3.854-3.499-7.213-7.418-7.254c-4.155-0.045-7.623,3.288-7.637,7.342C121.413,44.572,124.742,47.819,128.987,47.802z
				 M153.153,40.358c-0.035,4.388,2.945,7.432,7.296,7.449c4.334,0.019,7.394-3.042,7.381-7.38
				c-0.015-4.121-3.084-7.263-7.168-7.335C156.382,33.012,153.188,36.106,153.153,40.358z"/>
			<path fill="#EAF2F4" d="M48.392,79.178C30.123,79.251,15.013,64.246,15.03,46.051c0.014-18.228,15.045-33.296,33.241-33.322
				c18.246-0.025,33.433,15.095,33.353,33.208C81.539,64.338,66.778,79.104,48.392,79.178z M39.908,40.541
				c0.025-4.269-3.174-7.481-7.412-7.441c-4.033,0.037-7.277,3.266-7.319,7.282c-0.044,4.158,3.276,7.444,7.481,7.415
				C36.789,47.768,39.881,44.673,39.908,40.541z M64.002,47.797c4.208,0.053,7.593-3.252,7.548-7.361
				c-0.045-3.993-3.302-7.271-7.294-7.338c-4.223-0.068-7.436,3.131-7.429,7.399C56.833,44.65,59.877,47.746,64.002,47.797z
				 M48.324,63.521c1.625-0.105,3.232-0.073,4.783-0.35c1.519-0.271,2.4-1.395,2.397-2.959c-0.003-1.722-1.01-2.931-2.676-3.031
				c-2.96-0.178-5.941-0.167-8.907-0.014c-1.707,0.086-2.629,1.363-2.688,3.033c-0.054,1.574,0.871,2.68,2.381,2.958
				C45.166,63.442,46.772,63.414,48.324,63.521z"/>
			<path fill="#EAF2F4" d="M142.751,178.267c-18.622,0.002-33.259-14.692-33.228-33.353c0.034-18.217,15.055-33.098,33.361-33.049
				c18.227,0.049,33.073,15.031,33.045,33.348C175.899,163.682,161.257,178.267,142.751,178.267z M140.325,156.428
				c-2.886,0.047-7.811,1.43-12.144,4.618c-1.589,1.168-2.643,2.646-1.232,4.578c1.294,1.769,2.944,1.793,4.729,0.598
				c7.325-4.903,14.693-4.762,22.055-0.092c1.911,1.213,3.692,1.293,4.938-0.734c1.199-1.947,0.116-3.41-1.542-4.531
				C152.795,157.934,148.023,156.412,140.325,156.428z M134.336,139.705c0.027-4.058-3.103-7.325-7.131-7.44
				c-4.208-0.118-7.495,3.061-7.539,7.29c-0.045,4.318,3.045,7.4,7.391,7.375C131.162,146.907,134.303,143.789,134.336,139.705z
				 M158.503,132.265c-4.125,0.022-7.524,3.442-7.44,7.486c0.084,4.052,3.25,7.136,7.37,7.177c4.294,0.046,7.344-3.069,7.289-7.442
				C165.663,135.299,162.611,132.243,158.503,132.265z"/>
			<path fill="#EAF1F3" d="M57.005,176.866c-6.29-0.014-12.593-0.625-18.87,0.315c-12.528-3.25-20.611-11.298-23.844-23.626
				c-3.342-12.749-0.03-24.155,9.857-32.974c10.789-9.619,23.361-11.601,36.404-5.372c12.729,6.079,19.369,16.768,18.926,30.97
				c-0.446,14.194-7.936,24.012-20.756,29.875C58.147,176.317,57.578,176.594,57.005,176.866z M46.43,156.258
				c-5.513,0-11.028,0.082-16.538-0.035c-2.323-0.051-2.397,0.766-1.66,2.609c2.729,6.803,10.039,11.859,17.661,12.09
				c7.586,0.23,15.375-4.662,18.34-11.521c1.228-2.847,1.046-3.126-2.217-3.137C56.822,156.244,51.625,156.258,46.43,156.258z
				 M69.442,140.725c-0.018-4.287-3.21-7.395-7.507-7.312c-4.057,0.077-7.208,3.299-7.201,7.357
				c0.008,4.002,3.249,7.293,7.255,7.364C66.188,148.207,69.46,144.957,69.442,140.725z M23.281,140.832
				c0.047,4.051,3.26,7.281,7.254,7.295c4.029,0.016,7.592-3.533,7.502-7.475c-0.096-4.163-3.476-7.35-7.678-7.235
				C26.286,133.525,23.234,136.727,23.281,140.832z"/>
			<path fill="#7FB8CA" d="M143.916,70.082c-4.374,0.203-8.89-1.479-13.138-4.026c-2.016-1.21-3.38-2.883-1.896-5.223
				c1.424-2.251,3.261-1.57,5.197-0.36c7.163,4.467,14.38,4.472,21.497-0.128c1.884-1.216,3.617-1.45,4.998,0.479
				c1.601,2.229,0.231,3.716-1.605,4.96C154.627,68.721,149.836,70.135,143.916,70.082z"/>
			<path fill="#7FB8CA" d="M128.987,47.802c-4.245,0.018-7.574-3.229-7.563-7.372c0.014-4.054,3.481-7.387,7.637-7.342
				c3.919,0.041,7.353,3.399,7.418,7.254C136.548,44.443,133.191,47.786,128.987,47.802z"/>
			<path fill="#7FB8CA" d="M153.153,40.358c0.034-4.252,3.229-7.347,7.509-7.266c4.084,0.072,7.153,3.214,7.168,7.335
				c0.013,4.338-3.047,7.398-7.381,7.38C156.099,47.79,153.118,44.746,153.153,40.358z"/>
			<path fill="#99BB5D" d="M39.908,40.541c-0.027,4.132-3.119,7.227-7.25,7.256c-4.205,0.029-7.525-3.257-7.481-7.415
				c0.042-4.017,3.286-7.245,7.319-7.282C36.734,33.06,39.934,36.272,39.908,40.541z"/>
			<path fill="#99BB5D" d="M64.002,47.797c-4.125-0.051-7.169-3.146-7.175-7.3c-0.007-4.269,3.206-7.468,7.429-7.399
				c3.992,0.067,7.249,3.345,7.294,7.338C71.595,44.545,68.21,47.85,64.002,47.797z"/>
			<path fill="#99BB5D" d="M48.324,63.521c-1.552-0.107-3.158-0.079-4.709-0.362c-1.51-0.278-2.435-1.384-2.381-2.958
				c0.059-1.67,0.98-2.947,2.688-3.033c2.966-0.153,5.947-0.164,8.907,0.014c1.666,0.101,2.673,1.31,2.676,3.031
				c0.003,1.564-0.879,2.688-2.397,2.959C51.557,63.448,49.949,63.416,48.324,63.521z"/>
			<path fill="#9786B5" d="M140.325,156.428c7.698-0.016,12.47,1.506,16.805,4.435c1.658,1.122,2.741,2.585,1.542,4.532
				c-1.246,2.027-3.027,1.947-4.938,0.734c-7.361-4.67-14.729-4.813-22.055,0.092c-1.785,1.195-3.436,1.171-4.729-0.598
				c-1.41-1.932-0.356-3.41,1.232-4.578C132.515,157.857,137.439,156.475,140.325,156.428z"/>
			<path fill="#9786B5" d="M134.336,139.705c-0.033,4.084-3.174,7.202-7.279,7.225c-4.346,0.025-7.436-3.057-7.391-7.375
				c0.044-4.229,3.331-7.408,7.539-7.29C131.233,132.38,134.363,135.647,134.336,139.705z"/>
			<path fill="#9786B5" d="M158.503,132.265c4.108-0.021,7.16,3.034,7.219,7.221c0.055,4.373-2.995,7.488-7.289,7.442
				c-4.12-0.041-7.286-3.125-7.37-7.177C150.979,135.707,154.378,132.287,158.503,132.265z"/>
			<path fill="#BB688B" d="M46.43,156.258c5.195,0,10.393-0.014,15.586,0.007c3.263,0.011,3.444,0.29,2.217,3.137
				c-2.965,6.858-10.754,11.752-18.34,11.521c-7.622-0.229-14.932-5.287-17.661-12.09c-0.737-1.844-0.663-2.66,1.66-2.608
				C35.401,156.34,40.917,156.258,46.43,156.258z"/>
			<path fill="#BB688B" d="M69.442,140.725c0.018,4.232-3.254,7.482-7.453,7.409c-4.006-0.071-7.247-3.362-7.255-7.364
				c-0.007-4.059,3.145-7.28,7.201-7.357C66.232,133.33,69.425,136.438,69.442,140.725z"/>
			<path fill="#BB688B" d="M23.281,140.832c-0.047-4.105,3.005-7.307,7.078-7.415c4.202-0.114,7.582,3.072,7.678,7.235
				c0.09,3.941-3.473,7.49-7.502,7.475C26.541,148.113,23.328,144.883,23.281,140.832z"/>
			<path fill="#BB688B" d="M46.146,190.297C20.668,190.363,0.027,169.917,0,144.574c-0.028-25.096,20.632-45.939,45.647-46.055
				c25.283-0.115,46.036,20.561,46.057,45.879C91.725,169.769,71.417,190.229,46.146,190.297z M45.908,177.61
				c18.507-0.002,33.147-14.587,33.178-33.054c0.027-18.316-14.816-33.301-33.044-33.35c-18.306-0.047-33.327,14.832-33.36,33.047
				C12.647,162.917,27.285,177.612,45.908,177.61z"/>
		</g>
	</g>
	<g>
		<g>
			<g>
				<path fill="#AFC76F" d="M256.906,251.27v4.148l-5.811-0.221v5.516l5.223-0.133l0.132,3.986h-4.663v7.253l-4.074-0.19
					c0.107-2.756,0.161-5.531,0.161-8.326c0-3.874-0.103-7.782-0.309-11.725C249.781,251.48,252.896,251.377,256.906,251.27z"/>
				<path fill="#AFC76F" d="M265.835,272.762l-0.146-2.398c-0.412,1.275-1.521,1.918-3.325,1.928
					c-0.02,0.01-0.034,0.015-0.044,0.015c-1.785,0-2.967-0.804-3.545-2.412c-0.393-1.067-0.589-3.28-0.589-6.636
					c0-1.725,0.055-3.76,0.162-6.104h3.575c-0.196,3.295-0.295,5.83-0.295,7.604c0,0.894,0.024,1.59,0.074,2.09
					c0.146,1.529,0.642,2.295,1.485,2.295c0.843,0,1.373-0.396,1.589-1.191l-0.147-10.209l3.457-0.029
					c0,4.218,0.152,9.131,0.456,14.74L265.835,272.762z"/>
				<path fill="#AFC76F" d="M274.544,257.654c3.403,0,5.104,2.261,5.104,6.781c0,0.549-0.024,1.137-0.073,1.765h-6.576
					c0,2.521,0.486,3.78,1.457,3.78h0.103c0.854-0.067,1.28-0.722,1.28-1.956c0-0.266-0.021-0.561-0.06-0.883l3.501-0.073
					c0,3.736-1.633,5.63-4.898,5.679c-0.039,0.01-0.073,0.016-0.103,0.016c-3.109,0-4.663-2.359-4.663-7.076v-0.441
					C269.714,260.184,271.356,257.654,274.544,257.654z M272.646,263.495h3.324v-0.354c0-1.785-0.505-2.679-1.515-2.679
					C273.367,260.463,272.764,261.474,272.646,263.495z"/>
				<path fill="#AFC76F" d="M283.458,257.271l0.147,2.397c0.412-1.274,1.495-1.922,3.251-1.942h0.059c1.726,0,2.902,0.678,3.53,2.03
					c0.432,0.923,0.647,3.08,0.647,6.474c0,1.666-0.054,3.638-0.162,5.912h-3.56c0.127-3.029,0.191-5.379,0.191-7.045
					c0-0.834-0.015-1.501-0.044-2.001c-0.099-1.473-0.569-2.206-1.412-2.206c-0.844,0-1.374,0.392-1.589,1.176l0.146,10.665
					l-3.457,0.029c0-4.512-0.151-9.576-0.455-15.195L283.458,257.271z"/>
				<path fill="#AFC76F" d="M294.771,252.961l3.339-0.221v4.868l2.811-0.073l0.044,2.78l-2.854,0.134v6.691
					c0,1.561,0.662,2.339,1.986,2.339c0.274,0,0.573-0.034,0.897-0.103l-0.133,3.234c-0.471,0.061-0.917,0.09-1.338,0.09
					c-3.1,0-4.679-1.6-4.737-4.797v-7.193l-2.412,0.147l-0.059-3.28l2.471,0.029L294.771,252.961z"/>
				<path fill="#AFC76F" d="M306.965,257.654c3.403,0,5.104,2.261,5.104,6.781c0,0.549-0.024,1.137-0.073,1.765h-6.576
					c0,2.521,0.486,3.78,1.457,3.78h0.103c0.854-0.067,1.28-0.722,1.28-1.956c0-0.266-0.021-0.561-0.06-0.883l3.501-0.073
					c0,3.736-1.633,5.63-4.898,5.679c-0.039,0.01-0.073,0.016-0.103,0.016c-3.109,0-4.663-2.359-4.663-7.076v-0.441
					C302.135,260.184,303.777,257.654,306.965,257.654z M305.067,263.495h3.324v-0.354c0-1.785-0.505-2.679-1.515-2.679
					C305.788,260.463,305.185,261.474,305.067,263.495z"/>
				<path fill="#AFC76F" d="M312.996,267.54l3.368-0.162v0.19c0,1.511,0.466,2.274,1.397,2.296h0.06c0.901,0,1.353-0.438,1.353-1.31
					v-0.104c-0.039-0.961-0.929-1.736-2.67-2.324c-1.74-0.588-2.787-1.578-3.141-2.971c-0.127-0.49-0.19-0.962-0.19-1.412
					c0-0.824,0.21-1.59,0.632-2.295c0.647-1.08,1.628-1.697,2.942-1.854c0.353-0.039,0.696-0.06,1.029-0.06
					c0.873,0,1.643,0.151,2.31,0.457c0.912,0.422,1.545,1.024,1.897,1.809c0.235,0.539,0.354,1.139,0.354,1.795
					c0,0.314-0.024,0.638-0.073,0.971l-3.148,0.074c0.029-0.245,0.044-0.471,0.044-0.678c0-0.979-0.313-1.504-0.941-1.573
					c-0.068-0.009-0.138-0.015-0.206-0.015c-0.646,0-1.083,0.328-1.309,0.985c-0.079,0.226-0.118,0.433-0.118,0.617
					c0,0.461,0.216,0.858,0.647,1.19c0.608,0.472,1.508,0.949,2.699,1.436s1.993,1.313,2.405,2.479
					c0.147,0.441,0.221,0.883,0.221,1.324c0,0.745-0.216,1.495-0.647,2.252c-0.687,1.204-1.75,1.905-3.192,2.104
					c-0.313,0.049-0.622,0.072-0.927,0.072c-1.078,0-2.079-0.279-3.001-0.838C313.613,271.28,313.016,269.795,312.996,267.54z"/>
				<path fill="#AFC76F" d="M340.225,251.946c-0.059,3.314-0.088,6.791-0.088,10.43c0,3.314,0.024,6.768,0.073,10.355l-3.486,0.016
					l-0.117-2.25c-0.726,1.088-1.691,1.633-2.898,1.633c-3.011,0-4.516-2.305-4.516-6.914c0-0.098,0.005-0.196,0.015-0.295
					c0.059-4.619,1.55-6.928,4.472-6.928c0.118,0,0.24,0.004,0.368,0.014c1,0.06,1.81,0.604,2.427,1.634
					c0-2.177-0.054-4.741-0.161-7.693L340.225,251.946L340.225,251.946z M336.548,267.48l-0.074-5.09
					c-0.568-0.774-1.152-1.162-1.75-1.162c-0.245,0-0.491,0.063-0.735,0.19c-0.775,0.402-1.162,1.529-1.162,3.384
					c0,0.216,0.004,0.437,0.015,0.661c0.098,2.246,0.598,3.434,1.5,3.562c0.088,0.011,0.177,0.015,0.265,0.015
					C335.39,269.04,336.037,268.52,336.548,267.48z"/>
				<path fill="#AFC76F" d="M346.168,257.654c3.403,0,5.104,2.261,5.104,6.781c0,0.549-0.024,1.137-0.073,1.765h-6.576
					c0,2.521,0.486,3.78,1.457,3.78h0.103c0.854-0.067,1.28-0.722,1.28-1.956c0-0.266-0.021-0.561-0.06-0.883l3.501-0.073
					c0,3.736-1.633,5.63-4.898,5.679c-0.039,0.01-0.073,0.016-0.103,0.016c-3.109,0-4.663-2.359-4.663-7.076v-0.441
					C341.338,260.184,342.98,257.654,346.168,257.654z M344.271,263.495h3.324v-0.354c0-1.785-0.505-2.679-1.515-2.679
					C344.991,260.463,344.388,261.474,344.271,263.495z"/>
				<path fill="#AFC76F" d="M368.983,251.946c-0.059,3.314-0.088,6.791-0.088,10.43c0,3.314,0.024,6.768,0.073,10.355l-3.486,0.016
					l-0.117-2.25c-0.726,1.088-1.691,1.633-2.898,1.633c-3.011,0-4.516-2.305-4.516-6.914c0-0.098,0.005-0.196,0.015-0.295
					c0.059-4.619,1.55-6.928,4.472-6.928c0.118,0,0.24,0.004,0.368,0.014c1,0.06,1.81,0.604,2.427,1.634
					c0-2.177-0.054-4.741-0.161-7.693L368.983,251.946L368.983,251.946z M365.307,267.48l-0.074-5.09
					c-0.568-0.774-1.152-1.162-1.75-1.162c-0.245,0-0.491,0.063-0.735,0.19c-0.775,0.402-1.162,1.529-1.162,3.384
					c0,0.216,0.004,0.437,0.015,0.661c0.098,2.246,0.598,3.434,1.5,3.562c0.088,0.011,0.177,0.015,0.265,0.015
					C364.148,269.04,364.796,268.52,365.307,267.48z"/>
				<path fill="#AFC76F" d="M374.926,257.654c3.403,0,5.104,2.261,5.104,6.781c0,0.549-0.024,1.137-0.073,1.765h-6.576
					c0,2.521,0.486,3.78,1.457,3.78h0.103c0.854-0.067,1.28-0.722,1.28-1.956c0-0.266-0.021-0.561-0.06-0.883l3.501-0.073
					c0,3.736-1.633,5.63-4.898,5.679c-0.039,0.01-0.073,0.016-0.103,0.016c-3.109,0-4.663-2.359-4.663-7.076v-0.441
					C370.096,260.184,371.738,257.654,374.926,257.654z M373.028,263.495h3.324v-0.354c0-1.785-0.505-2.679-1.515-2.679
					C373.749,260.463,373.146,261.474,373.028,263.495z"/>
				<path fill="#AFC76F" d="M380.958,267.54l3.368-0.162v0.19c0,1.511,0.466,2.274,1.397,2.296h0.06c0.901,0,1.353-0.438,1.353-1.31
					v-0.104c-0.039-0.961-0.929-1.736-2.67-2.324c-1.74-0.588-2.787-1.578-3.141-2.971c-0.127-0.49-0.19-0.962-0.19-1.412
					c0-0.824,0.21-1.59,0.632-2.295c0.647-1.08,1.628-1.697,2.942-1.854c0.353-0.039,0.696-0.06,1.029-0.06
					c0.873,0,1.643,0.151,2.31,0.457c0.912,0.422,1.545,1.024,1.897,1.809c0.235,0.539,0.354,1.139,0.354,1.795
					c0,0.314-0.024,0.638-0.073,0.971l-3.148,0.074c0.029-0.245,0.044-0.471,0.044-0.678c0-0.979-0.313-1.504-0.941-1.573
					c-0.068-0.009-0.138-0.015-0.206-0.015c-0.646,0-1.083,0.328-1.309,0.985c-0.079,0.226-0.118,0.433-0.118,0.617
					c0,0.461,0.216,0.858,0.647,1.19c0.608,0.472,1.508,0.949,2.699,1.436s1.993,1.313,2.405,2.479
					c0.147,0.441,0.221,0.883,0.221,1.324c0,0.745-0.216,1.495-0.647,2.252c-0.687,1.204-1.75,1.905-3.192,2.104
					c-0.313,0.049-0.622,0.072-0.927,0.072c-1.078,0-2.079-0.279-3.001-0.838C381.575,271.28,380.978,269.795,380.958,267.54z"/>
				<path fill="#AFC76F" d="M391.989,274.467l3.457-0.19c-0.01,0.118-0.015,0.235-0.015,0.353c0,1.07,0.427,1.652,1.28,1.752
					c0.137,0.02,0.265,0.029,0.382,0.029c0.735,0,1.261-0.295,1.574-0.884c0.274-0.528,0.412-1.521,0.412-2.972
					c0-0.393-0.01-0.823-0.029-1.294c-0.55,1.099-1.568,1.696-3.061,1.794c-2.912-0.029-4.368-2.506-4.368-7.428v-0.104
					c0.02-4.981,1.75-7.487,5.191-7.517c0.941,0,1.785,0.55,2.53,1.646l0.044-2.339l3.223,0.147c0,8.09-0.024,13.102-0.073,15.033
					c-0.05,1.932-0.341,3.48-0.876,4.647c-0.534,1.167-1.443,1.912-2.729,2.235c-0.677,0.177-1.349,0.266-2.016,0.266
					c-0.598,0-1.191-0.068-1.779-0.206c-1.256-0.294-2.118-0.849-2.589-1.662c-0.393-0.667-0.589-1.54-0.589-2.618
					C391.96,274.943,391.97,274.713,391.989,274.467z M399.021,268.643v-5.973c-0.481-0.971-1.09-1.457-1.824-1.457
					c-0.147,0-0.3,0.021-0.456,0.06c-0.951,0.226-1.477,1.534-1.574,3.929c-0.01,0.254-0.015,0.5-0.015,0.734
					c0,1.951,0.362,3.148,1.089,3.59c0.244,0.156,0.505,0.234,0.778,0.234C397.628,269.76,398.295,269.388,399.021,268.643z"/>
				<path fill="#AFC76F" d="M409.438,257.227c3.227,0.178,4.84,1.801,4.84,4.869v10.445l-3.429,0.059l-0.116-1.398
					c-0.706,0.805-1.645,1.207-2.812,1.207c-0.5,0-1.039-0.078-1.617-0.234c-1.735-0.432-2.604-1.774-2.604-4.03
					c0-0.274,0.015-0.569,0.045-0.884c0.195-2.323,1.848-3.485,4.957-3.485c0.598,0,1.255,0.044,1.971,0.134v-1.707
					c0-1.384-0.437-2.074-1.309-2.074h-0.061c-0.067-0.01-0.132-0.016-0.189-0.016c-0.952,0-1.429,0.773-1.429,2.324v0.221
					l-3.501-0.294c0-3.423,1.648-5.135,4.943-5.135L409.438,257.227L409.438,257.227z M410.672,268.848v-2.588
					c-0.422-0.09-0.804-0.133-1.146-0.133c-0.894,0-1.5,0.299-1.823,0.896c-0.196,0.362-0.295,0.702-0.295,1.017
					c0,0.393,0.157,0.739,0.471,1.045c0.245,0.233,0.564,0.353,0.956,0.353C409.334,269.437,409.946,269.241,410.672,268.848z"/>
				<path fill="#AFC76F" d="M415.276,267.54l3.367-0.162v0.19c0,1.511,0.467,2.274,1.397,2.296h0.06c0.901,0,1.354-0.438,1.354-1.31
					v-0.104c-0.039-0.961-0.929-1.736-2.67-2.324c-1.74-0.588-2.787-1.578-3.142-2.971c-0.127-0.49-0.189-0.962-0.189-1.412
					c0-0.824,0.21-1.59,0.632-2.295c0.647-1.08,1.628-1.697,2.942-1.854c0.353-0.039,0.695-0.06,1.028-0.06
					c0.873,0,1.644,0.151,2.311,0.457c0.912,0.422,1.545,1.024,1.896,1.809c0.235,0.539,0.354,1.139,0.354,1.795
					c0,0.314-0.024,0.638-0.073,0.971l-3.148,0.074c0.029-0.245,0.045-0.471,0.045-0.678c0-0.979-0.313-1.504-0.941-1.573
					c-0.068-0.009-0.138-0.015-0.206-0.015c-0.646,0-1.083,0.328-1.309,0.985c-0.079,0.226-0.118,0.433-0.118,0.617
					c0,0.461,0.216,0.858,0.646,1.19c0.608,0.472,1.508,0.949,2.699,1.436s1.993,1.313,2.405,2.479
					c0.146,0.441,0.221,0.883,0.221,1.324c0,0.745-0.216,1.495-0.646,2.252c-0.688,1.204-1.75,1.905-3.192,2.104
					c-0.313,0.049-0.622,0.072-0.927,0.072c-1.078,0-2.079-0.279-3.001-0.838C415.894,271.28,415.296,269.795,415.276,267.54z"/>
				<path fill="#AFC76F" d="M428.354,252.961l3.34-0.221v4.868l2.811-0.073l0.043,2.78l-2.854,0.134v6.691
					c0,1.561,0.662,2.339,1.986,2.339c0.273,0,0.572-0.034,0.896-0.103l-0.133,3.234c-0.471,0.061-0.916,0.09-1.338,0.09
					c-3.1,0-4.68-1.6-4.736-4.797v-7.193l-2.412,0.147l-0.059-3.28l2.471,0.029L428.354,252.961z"/>
				<path fill="#AFC76F" d="M440.547,257.654c3.404,0,5.105,2.261,5.105,6.781c0,0.549-0.025,1.137-0.074,1.765h-6.576
					c0,2.521,0.486,3.78,1.457,3.78h0.104c0.854-0.067,1.279-0.722,1.279-1.956c0-0.266-0.02-0.561-0.059-0.883l3.5-0.073
					c0,3.736-1.633,5.63-4.898,5.679c-0.039,0.01-0.072,0.016-0.102,0.016c-3.109,0-4.664-2.359-4.664-7.076v-0.441
					C435.717,260.184,437.36,257.654,440.547,257.654z M438.651,263.495h3.322v-0.354c0-1.785-0.504-2.679-1.514-2.679
					C439.372,260.463,438.768,261.474,438.651,263.495z"/>
				<path fill="#AFC76F" d="M457.024,257.654c3.402,0,5.104,2.261,5.104,6.781c0,0.549-0.023,1.137-0.074,1.765h-6.574
					c0,2.521,0.484,3.78,1.455,3.78h0.104c0.854-0.067,1.281-0.722,1.281-1.956c0-0.266-0.021-0.561-0.061-0.883l3.5-0.073
					c0,3.736-1.633,5.63-4.896,5.679c-0.039,0.01-0.074,0.016-0.104,0.016c-3.109,0-4.664-2.359-4.664-7.076v-0.441
					C452.194,260.184,453.836,257.654,457.024,257.654z M455.125,263.495h3.324v-0.354c0-1.785-0.504-2.679-1.516-2.679
					C455.846,260.463,455.243,261.474,455.125,263.495z"/>
				<path fill="#AFC76F" d="M465.6,257.345l0.059,2.354c0.529-1.129,1.143-1.83,1.84-2.104c0.412-0.157,0.828-0.235,1.25-0.235
					c0.313,0,0.627,0.039,0.941,0.117c0.766,0.197,1.309,0.98,1.633,2.354c0.254-1.068,0.695-1.781,1.324-2.141
					c0.627-0.359,1.322-0.542,2.088-0.552h0.059c0.746,0,1.461,0.182,2.148,0.545c0.695,0.373,1.229,1.071,1.596,2.097
					c0.367,1.024,0.563,2.43,0.582,4.215v8.547l-3.178,0.072c0.127-3.227,0.189-5.973,0.189-8.236c0-2.267-0.432-3.486-1.295-3.664
					c-0.127-0.021-0.25-0.029-0.367-0.029c-0.686,0-1.215,0.441-1.588,1.324c-0.059,1.02-0.088,2.212-0.088,3.574
					c0,1.854,0.053,4.016,0.16,6.488l-3.676,0.028c0.137-3.796,0.205-6.562,0.205-8.297v-0.177c-0.012-1.717-0.35-2.619-1.016-2.707
					h-0.191c-0.598,0-1.178,0.344-1.734,1.029l0.029,10.768l-3.473,0.134v-2.412c0-4.276-0.063-8.547-0.191-12.812L465.6,257.345z"
					/>
				<path fill="#AFC76F" d="M485.18,257.654c3.334,0,5,2.313,5,6.942c0,0.188-0.004,0.373-0.014,0.56
					c-0.139,5.013-1.912,7.541-5.326,7.591c-0.039,0.01-0.078,0.016-0.117,0.016c-3.246,0-4.867-2.369-4.867-7.105v-0.412
					C479.952,260.184,481.727,257.654,485.18,257.654z M484.694,261.008c-0.617,0.216-1.039,1.015-1.266,2.396
					c-0.137,0.823-0.207,1.653-0.207,2.486c0,0.559,0.031,1.123,0.09,1.691c0.156,1.412,0.662,2.144,1.516,2.191h0.104
					c0.793,0,1.338-0.525,1.633-1.574c0.244-0.873,0.367-1.908,0.367-3.104c0-0.295-0.006-0.594-0.016-0.898
					c-0.078-1.578-0.313-2.564-0.705-2.955c-0.246-0.236-0.539-0.354-0.883-0.354C485.129,260.891,484.92,260.93,484.694,261.008z"
					/>
				<path fill="#AFC76F" d="M497.006,266.702l3.5,0.219c0,3.541-1.633,5.336-4.896,5.385c-0.039,0.01-0.074,0.016-0.104,0.016
					c-3.109,0-4.664-2.359-4.664-7.076v-0.44c0.1-5.062,1.756-7.615,4.973-7.664h0.117c2.961,0,4.443,1.696,4.443,5.09
					c0,0.196-0.006,0.394-0.016,0.588l-3.162,0.236V262.7c0-1.785-0.506-2.678-1.516-2.678c-1.029,0-1.545,1.447-1.545,4.34v0.486
					c0.059,3.128,0.578,4.691,1.561,4.691h0.088c0.854-0.068,1.279-0.722,1.279-1.957
					C497.065,267.318,497.045,267.023,497.006,266.702z"/>
				<path fill="#AFC76F" d="M505.846,254.271c0,0.599-0.211,1.108-0.631,1.53c-0.422,0.422-0.934,0.632-1.531,0.632
					c-0.588,0-1.094-0.21-1.516-0.632c-0.42-0.422-0.631-0.932-0.631-1.53c0-0.589,0.211-1.095,0.631-1.515
					c0.422-0.422,0.928-0.633,1.516-0.633c0.6,0,1.109,0.211,1.531,0.633C505.635,253.176,505.846,253.682,505.846,254.271z
					 M501.905,272.834c-0.068-5.736-0.104-10.693-0.104-14.871l3.707-0.221c-0.119,4-0.178,7.978-0.178,11.93
					c0,1.059,0.006,2.113,0.016,3.162H501.905L501.905,272.834z"/>
				<path fill="#AFC76F" d="M511.834,257.654c3.334,0,5,2.313,5,6.942c0,0.188-0.004,0.373-0.014,0.56
					c-0.139,5.013-1.912,7.541-5.326,7.591c-0.039,0.01-0.078,0.016-0.117,0.016c-3.246,0-4.869-2.369-4.869-7.105v-0.412
					C506.606,260.184,508.381,257.654,511.834,257.654z M511.348,261.008c-0.617,0.216-1.039,1.015-1.266,2.396
					c-0.137,0.823-0.205,1.653-0.205,2.486c0,0.559,0.029,1.123,0.088,1.691c0.156,1.412,0.662,2.144,1.516,2.191h0.104
					c0.795,0,1.338-0.525,1.633-1.574c0.246-0.873,0.367-1.908,0.367-3.104c0-0.295-0.004-0.594-0.014-0.898
					c-0.078-1.578-0.314-2.564-0.707-2.955c-0.244-0.236-0.539-0.354-0.883-0.354C511.784,260.891,511.575,260.93,511.348,261.008z"
					/>
				<path fill="#AFC76F" d="M520.35,257.271l0.148,2.397c0.412-1.274,1.494-1.922,3.25-1.942h0.059c1.727,0,2.902,0.678,3.531,2.03
					c0.432,0.923,0.646,3.08,0.646,6.474c0,1.666-0.055,3.638-0.162,5.912h-3.561c0.127-3.029,0.191-5.379,0.191-7.045
					c0-0.834-0.014-1.501-0.043-2.001c-0.1-1.473-0.57-2.206-1.412-2.206c-0.844,0-1.375,0.392-1.59,1.176l0.146,10.665
					l-3.457,0.029c0-4.512-0.15-9.576-0.455-15.195L520.35,257.271z"/>
				<path fill="#AFC76F" d="M534.899,257.227c3.227,0.178,4.84,1.801,4.84,4.869v10.445l-3.428,0.059l-0.117-1.398
					c-0.705,0.805-1.645,1.207-2.811,1.207c-0.5,0-1.039-0.078-1.617-0.234c-1.736-0.432-2.604-1.774-2.604-4.03
					c0-0.274,0.014-0.569,0.045-0.884c0.195-2.323,1.848-3.485,4.957-3.485c0.598,0,1.254,0.044,1.971,0.134v-1.707
					c0-1.384-0.438-2.074-1.309-2.074h-0.061c-0.068-0.01-0.133-0.016-0.189-0.016c-0.953,0-1.428,0.773-1.428,2.324v0.221
					l-3.502-0.294c0-3.423,1.648-5.135,4.943-5.135L534.899,257.227L534.899,257.227z M536.135,268.848v-2.588
					c-0.422-0.09-0.805-0.133-1.146-0.133c-0.895,0-1.5,0.299-1.824,0.896c-0.195,0.362-0.295,0.702-0.295,1.017
					c0,0.393,0.158,0.739,0.471,1.045c0.246,0.233,0.564,0.353,0.957,0.353C534.797,269.437,535.409,269.241,536.135,268.848z"/>
				<path fill="#AFC76F" d="M545.049,272.512l-3.662,0.338c0.039-3.246,0.059-6.369,0.059-9.371c0-4.217-0.039-8.193-0.117-11.93
					l3.604-0.059c-0.039,2.401-0.059,4.868-0.059,7.397C544.874,263.254,544.932,267.793,545.049,272.512z"/>
			</g>
			<g>
				<path fill="#7FB8CA" d="M578.028,250.984l3.463,15.397l2.541-14.27l6.777,0.074c-0.117,3.221-0.178,6.473-0.178,9.752
					c0,3.656,0.074,7.357,0.223,11.104l-4.324,0.297c0-3.942-0.045-8.764-0.135-14.463l-2.424,13.066l-4.607,0.313l-2.973-14.092
					l-0.061,14.271l-3.627,0.252c0.07-3.261,0.104-6.496,0.104-9.706c0-4.003-0.055-7.958-0.162-11.861L578.028,250.984z"/>
				<path fill="#7FB8CA" d="M597.915,257.331c3.262,0.18,4.891,1.818,4.891,4.92v10.555l-3.463,0.061l-0.119-1.412
					c-0.713,0.812-1.658,1.219-2.838,1.219c-0.506,0-1.051-0.08-1.637-0.237c-1.754-0.437-2.631-1.794-2.631-4.073
					c0-0.277,0.016-0.574,0.045-0.892c0.199-2.349,1.867-3.523,5.01-3.523c0.604,0,1.27,0.046,1.992,0.136v-1.726
					c0-1.397-0.441-2.097-1.324-2.097h-0.059c-0.07-0.01-0.135-0.016-0.193-0.016c-0.961,0-1.441,0.783-1.441,2.35v0.224
					l-3.537-0.298c0-3.458,1.664-5.188,4.994-5.188h0.311V257.331z M599.165,269.075v-2.617c-0.426-0.088-0.813-0.133-1.16-0.133
					c-0.9,0-1.516,0.303-1.844,0.905c-0.197,0.367-0.297,0.709-0.297,1.024c0,0.396,0.158,0.75,0.477,1.057
					c0.248,0.236,0.568,0.355,0.965,0.355C597.813,269.668,598.43,269.471,599.165,269.075z"/>
				<path fill="#7FB8CA" d="M606.731,257.375l0.146,2.424c0.416-1.289,1.512-1.942,3.285-1.963h0.059
					c1.744,0,2.936,0.684,3.568,2.052c0.436,0.932,0.654,3.112,0.654,6.54c0,1.686-0.057,3.677-0.164,5.976h-3.598
					c0.129-3.062,0.193-5.435,0.193-7.12c0-0.842-0.016-1.516-0.045-2.021c-0.1-1.486-0.574-2.229-1.428-2.229
					s-1.387,0.396-1.605,1.188l0.15,10.776l-3.494,0.029c0-4.558-0.154-9.676-0.461-15.354L606.731,257.375z"/>
				<path fill="#7FB8CA" d="M619.84,254.344c0,0.604-0.213,1.119-0.639,1.545c-0.426,0.427-0.941,0.64-1.547,0.64
					c-0.596,0-1.104-0.213-1.531-0.64c-0.426-0.426-0.639-0.941-0.639-1.545c0-0.596,0.213-1.105,0.639-1.531
					c0.428-0.426,0.938-0.641,1.531-0.641c0.604,0,1.121,0.215,1.547,0.641S619.84,253.749,619.84,254.344z M615.856,273.102
					c-0.068-5.797-0.104-10.807-0.104-15.027l3.746-0.223c-0.119,4.043-0.18,8.063-0.18,12.055c0,1.07,0.006,2.137,0.016,3.195
					H615.856z"/>
				<path fill="#7FB8CA" d="M622.829,258.297c-0.021-0.269-0.029-0.539-0.029-0.817c0-0.931,0.094-1.888,0.281-2.868
					c0.229-1.279,0.922-2.299,2.082-3.063c0.861-0.573,1.951-0.861,3.27-0.861c0.438,0,0.902,0.035,1.396,0.104l-0.029,3.256
					c-0.297-0.041-0.574-0.061-0.832-0.061c-0.822,0-1.428,0.203-1.813,0.609c-0.428,0.426-0.641,1.259-0.641,2.498
					c0,0.297,0.016,0.623,0.045,0.98l3.182-0.046v3.019l-3.271,0.209c0.08,3.25,0.119,6.322,0.119,9.215
					c0,0.873-0.004,1.725-0.014,2.557l-3.775,0.164c0.029-3.3,0.078-7.203,0.148-11.713l-2.408,0.119l-0.061-3.196L622.829,258.297z
					"/>
				<path fill="#7FB8CA" d="M635.879,257.762c3.438,0,5.156,2.285,5.156,6.854c0,0.555-0.023,1.148-0.074,1.783h-6.645
					c0,2.547,0.49,3.82,1.473,3.82h0.104c0.861-0.069,1.293-0.729,1.293-1.979c0-0.267-0.02-0.564-0.061-0.892l3.539-0.074
					c0,3.774-1.65,5.688-4.951,5.737c-0.039,0.011-0.074,0.015-0.104,0.015c-3.143,0-4.711-2.383-4.711-7.149v-0.445
					C630.999,260.318,632.659,257.762,635.879,257.762z M633.961,263.663h3.359v-0.355c0-1.805-0.512-2.705-1.531-2.705
					C634.69,260.602,634.081,261.622,633.961,263.663z"/>
				<path fill="#7FB8CA" d="M641.973,267.75l3.404-0.162v0.193c0,1.524,0.471,2.299,1.412,2.317h0.061
					c0.91,0,1.367-0.44,1.367-1.323v-0.104c-0.041-0.971-0.938-1.754-2.699-2.348c-1.758-0.596-2.814-1.597-3.172-3.004
					c-0.129-0.494-0.193-0.972-0.193-1.427c0-0.832,0.213-1.604,0.639-2.317c0.654-1.092,1.646-1.716,2.975-1.873
					c0.355-0.041,0.703-0.062,1.039-0.062c0.883,0,1.66,0.153,2.334,0.461c0.922,0.427,1.563,1.036,1.918,1.828
					c0.238,0.546,0.357,1.149,0.357,1.813c0,0.316-0.025,0.646-0.076,0.98l-3.18,0.074c0.029-0.247,0.045-0.477,0.045-0.684
					c0-0.99-0.318-1.521-0.951-1.591c-0.07-0.01-0.141-0.016-0.209-0.016c-0.654,0-1.096,0.331-1.322,0.995
					c-0.08,0.229-0.119,0.437-0.119,0.625c0,0.466,0.219,0.867,0.654,1.203c0.613,0.478,1.523,0.959,2.729,1.449
					c1.203,0.49,2.014,1.326,2.43,2.506c0.148,0.445,0.223,0.892,0.223,1.338c0,0.752-0.217,1.511-0.652,2.273
					c-0.693,1.219-1.77,1.928-3.227,2.125c-0.316,0.051-0.629,0.074-0.938,0.074c-1.09,0-2.102-0.281-3.031-0.848
					C642.598,271.532,641.993,270.03,641.973,267.75z"/>
				<path fill="#7FB8CA" d="M655.188,253.021l3.375-0.224v4.92l2.838-0.074l0.045,2.811l-2.883,0.133v6.765
					c0,1.575,0.668,2.362,2.006,2.362c0.277,0,0.58-0.034,0.906-0.104l-0.135,3.27c-0.475,0.061-0.926,0.091-1.352,0.091
					c-3.131,0-4.729-1.615-4.787-4.847v-7.27l-2.438,0.148l-0.061-3.314l2.498,0.029L655.188,253.021z"/>
				<path fill="#7FB8CA" d="M668.432,257.331c3.262,0.18,4.891,1.818,4.891,4.92v10.555l-3.463,0.061l-0.119-1.412
					c-0.713,0.812-1.66,1.219-2.838,1.219c-0.506,0-1.053-0.08-1.637-0.237c-1.754-0.437-2.631-1.794-2.631-4.073
					c0-0.277,0.016-0.574,0.045-0.892c0.197-2.349,1.867-3.523,5.01-3.523c0.604,0,1.268,0.046,1.99,0.136v-1.726
					c0-1.397-0.439-2.097-1.322-2.097h-0.061c-0.068-0.01-0.133-0.016-0.191-0.016c-0.963,0-1.441,0.783-1.441,2.35v0.224
					l-3.539-0.298c0-3.458,1.666-5.188,4.996-5.188h0.311V257.331z M669.68,269.075v-2.617c-0.426-0.088-0.811-0.133-1.158-0.133
					c-0.902,0-1.518,0.303-1.844,0.905c-0.197,0.367-0.297,0.709-0.297,1.024c0,0.396,0.158,0.75,0.477,1.057
					c0.248,0.236,0.568,0.355,0.965,0.355C668.329,269.668,668.948,269.471,669.68,269.075z"/>
				<path fill="#7FB8CA" d="M680.59,266.904l3.539,0.224c0,3.576-1.65,5.391-4.951,5.438c-0.039,0.011-0.072,0.017-0.104,0.017
					c-3.143,0-4.711-2.383-4.711-7.15v-0.445c0.098-5.113,1.771-7.695,5.021-7.744h0.119c2.994,0,4.49,1.715,4.49,5.143
					c0,0.199-0.006,0.396-0.016,0.596l-3.195,0.236v-0.355c0-1.804-0.512-2.705-1.531-2.705c-1.041,0-1.561,1.463-1.561,4.385v0.492
					c0.059,3.159,0.584,4.74,1.576,4.74h0.088c0.861-0.068,1.293-0.729,1.293-1.979C680.651,267.527,680.631,267.23,680.59,266.904z
					"/>
				<path fill="#7FB8CA" d="M689.524,254.344c0,0.604-0.215,1.119-0.641,1.545c-0.426,0.427-0.939,0.64-1.545,0.64
					c-0.596,0-1.104-0.213-1.531-0.64c-0.426-0.426-0.639-0.941-0.639-1.545c0-0.596,0.213-1.105,0.639-1.531
					c0.428-0.426,0.938-0.641,1.531-0.641c0.604,0,1.119,0.215,1.545,0.641S689.524,253.749,689.524,254.344z M685.54,273.102
					c-0.068-5.797-0.104-10.807-0.104-15.027l3.746-0.223c-0.119,4.043-0.18,8.063-0.18,12.055c0,1.07,0.006,2.137,0.016,3.195
					H685.54z"/>
				<path fill="#7FB8CA" d="M695.575,257.762c3.369,0,5.053,2.34,5.053,7.016c0,0.189-0.004,0.377-0.014,0.564
					c-0.141,5.063-1.934,7.621-5.381,7.671c-0.041,0.011-0.08,0.015-0.119,0.015c-3.281,0-4.92-2.393-4.92-7.18v-0.416
					C690.292,260.318,692.086,257.762,695.575,257.762z M695.083,261.151c-0.623,0.219-1.049,1.025-1.277,2.424
					c-0.139,0.832-0.209,1.67-0.209,2.512c0,0.563,0.031,1.135,0.092,1.709c0.156,1.428,0.668,2.166,1.529,2.215h0.104
					c0.803,0,1.354-0.529,1.648-1.59c0.248-0.883,0.373-1.928,0.373-3.137c0-0.298-0.006-0.601-0.016-0.906
					c-0.08-1.596-0.316-2.592-0.713-2.988c-0.248-0.237-0.545-0.355-0.893-0.355C695.524,261.032,695.313,261.072,695.083,261.151z"
					/>
				<path fill="#7FB8CA" d="M704.182,257.375l0.148,2.424c0.416-1.289,1.51-1.942,3.285-1.963h0.059
					c1.744,0,2.934,0.684,3.568,2.052c0.436,0.932,0.652,3.112,0.652,6.54c0,1.686-0.055,3.677-0.162,5.976h-3.6
					c0.129-3.062,0.193-5.435,0.193-7.12c0-0.842-0.016-1.516-0.043-2.021c-0.102-1.486-0.576-2.229-1.428-2.229
					c-0.854,0-1.389,0.396-1.605,1.188l0.148,10.776l-3.492,0.029c0-4.558-0.154-9.676-0.461-15.354L704.182,257.375z"/>
				<path fill="#7FB8CA" d="M717.959,257.762c3.439,0,5.158,2.285,5.158,6.854c0,0.555-0.025,1.148-0.074,1.783h-6.645
					c0,2.547,0.49,3.82,1.471,3.82h0.104c0.863-0.069,1.293-0.729,1.293-1.979c0-0.267-0.02-0.564-0.059-0.892l3.537-0.074
					c0,3.774-1.65,5.688-4.949,5.737c-0.039,0.011-0.074,0.015-0.104,0.015c-3.143,0-4.713-2.383-4.713-7.149v-0.445
					C713.079,260.318,714.739,257.762,717.959,257.762z M716.042,263.663h3.359v-0.355c0-1.805-0.512-2.705-1.531-2.705
					C716.772,260.602,716.161,261.622,716.042,263.663z"/>
				<path fill="#7FB8CA" d="M724.055,267.75l3.404-0.162v0.193c0,1.524,0.471,2.299,1.412,2.317h0.059
					c0.912,0,1.367-0.44,1.367-1.323v-0.104c-0.039-0.971-0.938-1.754-2.697-2.348c-1.76-0.596-2.816-1.597-3.174-3.004
					c-0.129-0.494-0.191-0.972-0.191-1.427c0-0.832,0.213-1.604,0.639-2.317c0.654-1.092,1.645-1.716,2.973-1.873
					c0.357-0.041,0.703-0.062,1.041-0.062c0.881,0,1.66,0.153,2.334,0.461c0.92,0.427,1.561,1.036,1.916,1.828
					c0.238,0.546,0.357,1.149,0.357,1.813c0,0.316-0.025,0.646-0.074,0.98l-3.182,0.074c0.029-0.247,0.045-0.477,0.045-0.684
					c0-0.99-0.316-1.521-0.951-1.591c-0.068-0.01-0.139-0.016-0.207-0.016c-0.654,0-1.096,0.331-1.324,0.995
					c-0.078,0.229-0.119,0.437-0.119,0.625c0,0.466,0.219,0.867,0.654,1.203c0.615,0.478,1.523,0.959,2.729,1.449
					s2.014,1.326,2.432,2.506c0.146,0.445,0.223,0.892,0.223,1.338c0,0.752-0.219,1.511-0.654,2.273
					c-0.693,1.219-1.77,1.928-3.227,2.125c-0.316,0.051-0.629,0.074-0.936,0.074c-1.092,0-2.102-0.281-3.033-0.848
					C724.678,271.532,724.075,270.03,724.055,267.75z"/>
				<path fill="#7FB8CA" d="M751.569,251.995c-0.061,3.35-0.09,6.862-0.09,10.539c0,3.35,0.023,6.838,0.074,10.465l-3.523,0.015
					l-0.117-2.274c-0.734,1.102-1.711,1.65-2.93,1.65c-3.041,0-4.563-2.328-4.563-6.986c0-0.1,0.004-0.197,0.014-0.297
					c0.061-4.668,1.566-7.002,4.521-7.002c0.117,0,0.242,0.006,0.371,0.016c1.01,0.06,1.828,0.609,2.453,1.649
					c0-2.2-0.057-4.791-0.164-7.774H751.569L751.569,251.995z M747.854,267.691l-0.074-5.144c-0.576-0.782-1.166-1.174-1.771-1.174
					c-0.246,0-0.494,0.063-0.742,0.192c-0.781,0.406-1.174,1.546-1.174,3.419c0,0.219,0.004,0.441,0.016,0.669
					c0.098,2.269,0.604,3.468,1.516,3.597c0.09,0.011,0.178,0.017,0.27,0.017C746.682,269.268,747.336,268.743,747.854,267.691z"/>
				<path fill="#7FB8CA" d="M757.575,257.762c3.438,0,5.156,2.285,5.156,6.854c0,0.555-0.023,1.148-0.074,1.783h-6.645
					c0,2.547,0.49,3.82,1.473,3.82h0.104c0.861-0.069,1.293-0.729,1.293-1.979c0-0.267-0.02-0.564-0.061-0.892l3.539-0.074
					c0,3.774-1.65,5.688-4.951,5.737c-0.039,0.011-0.074,0.015-0.104,0.015c-3.143,0-4.713-2.383-4.713-7.149v-0.445
					C752.694,260.318,754.354,257.762,757.575,257.762z M755.657,263.663h3.357v-0.355c0-1.805-0.51-2.705-1.529-2.705
					C756.385,260.602,755.776,261.622,755.657,263.663z"/>
				<path fill="#7FB8CA" d="M774.221,257.762c3.439,0,5.158,2.285,5.158,6.854c0,0.555-0.023,1.148-0.074,1.783h-6.645
					c0,2.547,0.49,3.82,1.471,3.82h0.105c0.861-0.069,1.293-0.729,1.293-1.979c0-0.267-0.021-0.564-0.061-0.892l3.537-0.074
					c0,3.774-1.648,5.688-4.949,5.737c-0.039,0.011-0.074,0.015-0.104,0.015c-3.143,0-4.713-2.383-4.713-7.149v-0.445
					C769.34,260.318,771,257.762,774.221,257.762z M772.303,263.663h3.359v-0.355c0-1.805-0.51-2.705-1.531-2.705
					C773.032,260.602,772.422,261.622,772.303,263.663z"/>
				<path fill="#7FB8CA" d="M780.315,267.75l3.404-0.162v0.193c0,1.524,0.471,2.299,1.412,2.317h0.061
					c0.91,0,1.365-0.44,1.365-1.323v-0.104c-0.039-0.971-0.938-1.754-2.697-2.348c-1.76-0.596-2.816-1.597-3.172-3.004
					c-0.131-0.494-0.193-0.972-0.193-1.427c0-0.832,0.213-1.604,0.639-2.317c0.654-1.092,1.646-1.716,2.975-1.873
					c0.355-0.041,0.701-0.062,1.039-0.062c0.883,0,1.66,0.153,2.334,0.461c0.922,0.427,1.561,1.036,1.918,1.828
					c0.236,0.546,0.355,1.149,0.355,1.813c0,0.316-0.025,0.646-0.074,0.98l-3.182,0.074c0.031-0.247,0.045-0.477,0.045-0.684
					c0-0.99-0.316-1.521-0.951-1.591c-0.068-0.01-0.139-0.016-0.207-0.016c-0.654,0-1.096,0.331-1.324,0.995
					c-0.078,0.229-0.117,0.437-0.117,0.625c0,0.466,0.217,0.867,0.652,1.203c0.615,0.478,1.523,0.959,2.729,1.449
					s2.014,1.326,2.432,2.506c0.148,0.445,0.223,0.892,0.223,1.338c0,0.752-0.219,1.511-0.654,2.273
					c-0.693,1.219-1.77,1.928-3.227,2.125c-0.316,0.051-0.629,0.074-0.936,0.074c-1.09,0-2.102-0.281-3.033-0.848
					C780.94,271.532,780.334,270.03,780.315,267.75z"/>
				<path fill="#7FB8CA" d="M793.53,253.021l3.375-0.224v4.92l2.838-0.074l0.045,2.811l-2.883,0.133v6.765
					c0,1.575,0.668,2.362,2.006,2.362c0.277,0,0.58-0.034,0.906-0.104l-0.133,3.27c-0.477,0.061-0.928,0.091-1.354,0.091
					c-3.131,0-4.727-1.615-4.787-4.847v-7.27l-2.438,0.148l-0.061-3.314l2.498,0.029L793.53,253.021z"/>
				<path fill="#7FB8CA" d="M804.977,262.37l0.148,10.776l-3.643,0.028c0-4.557-0.154-9.676-0.461-15.354l2.734-0.297l0.148,2.423
					c0.416-1.188,1.387-1.868,2.914-2.036c0.227-0.021,0.445-0.029,0.652-0.029c1.199,0,2.111,0.392,2.734,1.174
					c0.725,0.932,1.092,2.414,1.102,4.445l-3.301,0.326c0.01-0.168,0.016-0.332,0.016-0.49c0-1.586-0.41-2.379-1.232-2.379h-0.061
					C805.78,261.008,805.194,261.479,804.977,262.37z"/>
				<path fill="#7FB8CA" d="M817.135,257.762c3.439,0,5.158,2.285,5.158,6.854c0,0.555-0.025,1.148-0.074,1.783h-6.645
					c0,2.547,0.49,3.82,1.471,3.82h0.105c0.861-0.069,1.293-0.729,1.293-1.979c0-0.267-0.021-0.564-0.061-0.892l3.537-0.074
					c0,3.774-1.648,5.688-4.949,5.737c-0.039,0.011-0.074,0.015-0.104,0.015c-3.143,0-4.713-2.383-4.713-7.149v-0.445
					C812.254,260.318,813.915,257.762,817.135,257.762z M815.217,263.663h3.359v-0.355c0-1.805-0.51-2.705-1.531-2.705
					C815.946,260.602,815.336,261.622,815.217,263.663z M815.456,254.863c1.16-1.377,2.111-2.69,2.854-3.938l2.439,1.934
					c-1.051,1.03-2.221,2.293-3.508,3.79L815.456,254.863z"/>
				<path fill="#7FB8CA" d="M823.229,267.75l3.404-0.162v0.193c0,1.524,0.471,2.299,1.412,2.317h0.061
					c0.91,0,1.365-0.44,1.365-1.323v-0.104c-0.039-0.971-0.938-1.754-2.697-2.348c-1.76-0.596-2.816-1.597-3.174-3.004
					c-0.129-0.494-0.191-0.972-0.191-1.427c0-0.832,0.213-1.604,0.639-2.317c0.654-1.092,1.646-1.716,2.975-1.873
					c0.355-0.041,0.701-0.062,1.039-0.062c0.883,0,1.66,0.153,2.334,0.461c0.922,0.427,1.561,1.036,1.916,1.828
					c0.238,0.546,0.357,1.149,0.357,1.813c0,0.316-0.025,0.646-0.074,0.98l-3.182,0.074c0.031-0.247,0.045-0.477,0.045-0.684
					c0-0.99-0.316-1.521-0.951-1.591c-0.068-0.01-0.139-0.016-0.207-0.016c-0.654,0-1.096,0.331-1.324,0.995
					c-0.078,0.229-0.119,0.437-0.119,0.625c0,0.466,0.219,0.867,0.654,1.203c0.615,0.478,1.523,0.959,2.729,1.449
					s2.014,1.326,2.432,2.506c0.148,0.445,0.223,0.892,0.223,1.338c0,0.752-0.219,1.511-0.654,2.273
					c-0.693,1.219-1.77,1.928-3.227,2.125c-0.316,0.051-0.629,0.074-0.936,0.074c-1.09,0-2.102-0.281-3.033-0.848
					C823.854,271.532,823.249,270.03,823.229,267.75z"/>
			</g>
			<path fill="none" stroke="#2C0C41" stroke-miterlimit="10" stroke-dasharray="12" d="M849.797,274.422
				c0,6.222-5.043,11.266-11.266,11.266H241.419c-6.223,0-11.267-5.044-11.267-11.266v-21.357c0-6.223,5.044-11.266,11.267-11.266
				h597.113c6.223,0,11.266,5.043,11.266,11.266V274.422z"/>
		</g>
	</g>
	<g>
		<g>
			<path fill="#BB688B" d="M381.027,215.988c0.06-2.604,0.09-5.271,0.09-7.997c0-4.182-0.069-8.512-0.208-12.99
				c1.694-0.237,3.19-0.356,4.488-0.356c2.042,0,3.577,0.297,4.608,0.892c1.596,0.922,2.394,2.811,2.394,5.664v0.49
				c-0.1,3.131-0.809,5.135-2.126,6.014c-1.318,0.877-2.943,1.344-4.876,1.403c-0.01,0.308-0.015,0.624-0.015,0.951
				c0,1.646,0.084,3.593,0.253,5.842L381.027,215.988z M384.833,198.448l0.104,7.27c1.843-0.1,2.923-0.758,3.24-1.977
				c0.148-0.556,0.223-1.125,0.223-1.709c0-0.685-0.099-1.389-0.297-2.111c-0.298-1.061-1.041-1.59-2.23-1.59
				C385.557,198.331,385.21,198.37,384.833,198.448z"/>
			<path fill="#BB688B" d="M399.607,200.737c3.261,0.18,4.891,1.819,4.891,4.922v10.553l-3.463,0.061l-0.119-1.412
				c-0.714,0.813-1.66,1.219-2.839,1.219c-0.506,0-1.051-0.078-1.636-0.238c-1.754-0.436-2.631-1.793-2.631-4.071
				c0-0.276,0.015-0.575,0.045-0.894c0.198-2.349,1.867-3.521,5.009-3.521c0.604,0,1.269,0.045,1.992,0.134v-1.725
				c0-1.397-0.441-2.097-1.323-2.097h-0.061c-0.068-0.01-0.134-0.015-0.191-0.015c-0.962,0-1.442,0.783-1.442,2.349v0.224
				l-3.538-0.298c0-3.459,1.665-5.188,4.995-5.188h0.312V200.737z M400.856,212.48v-2.616c-0.427-0.089-0.813-0.134-1.159-0.134
				c-0.902,0-1.518,0.304-1.845,0.907c-0.197,0.365-0.297,0.707-0.297,1.025c0,0.396,0.158,0.748,0.477,1.055
				c0.248,0.238,0.568,0.357,0.966,0.357C399.504,213.075,400.123,212.877,400.856,212.48z"/>
			<path fill="#BB688B" d="M409.642,205.776l0.148,10.777l-3.642,0.029c0-4.559-0.154-9.678-0.461-15.354l2.734-0.298l0.148,2.423
				c0.416-1.188,1.387-1.867,2.913-2.036c0.228-0.02,0.445-0.029,0.653-0.029c1.198,0,2.11,0.393,2.734,1.174
				c0.724,0.933,1.091,2.414,1.101,4.445l-3.3,0.326c0.01-0.168,0.016-0.332,0.016-0.49c0-1.586-0.411-2.379-1.233-2.379h-0.06
				C410.444,204.415,409.859,204.885,409.642,205.776z"/>
			<path fill="#BB688B" d="M419.452,196.426l3.374-0.223v4.92l2.838-0.074l0.045,2.811l-2.883,0.135v6.762
				c0,1.576,0.669,2.365,2.007,2.365c0.277,0,0.579-0.035,0.906-0.104l-0.133,3.271c-0.477,0.061-0.928,0.09-1.354,0.09
				c-3.131,0-4.727-1.615-4.786-4.846v-7.27l-2.438,0.148l-0.061-3.314l2.497,0.029L419.452,196.426z"/>
			<path fill="#BB688B" d="M431.106,197.75c0,0.604-0.215,1.119-0.641,1.545c-0.426,0.427-0.939,0.641-1.545,0.641
				c-0.596,0-1.104-0.214-1.531-0.641c-0.426-0.426-0.639-0.94-0.639-1.545c0-0.596,0.213-1.104,0.639-1.531
				c0.428-0.426,0.938-0.639,1.531-0.639c0.604,0,1.119,0.213,1.545,0.639C430.893,196.646,431.106,197.155,431.106,197.75z
				 M427.122,216.508c-0.068-5.797-0.104-10.807-0.104-15.026l3.746-0.224c-0.119,4.043-0.18,8.062-0.18,12.056
				c0,1.069,0.006,2.136,0.016,3.194H427.122z"/>
			<path fill="#BB688B" d="M438.002,210.311l3.539,0.223c0,3.577-1.65,5.391-4.951,5.44c-0.039,0.01-0.074,0.015-0.104,0.015
				c-3.143,0-4.711-2.383-4.711-7.148v-0.446c0.098-5.112,1.771-7.694,5.021-7.744h0.119c2.994,0,4.49,1.716,4.49,5.144
				c0,0.199-0.006,0.396-0.016,0.595l-3.195,0.237v-0.355c0-1.805-0.512-2.706-1.531-2.706c-1.041,0-1.563,1.462-1.563,4.386v0.49
				c0.061,3.161,0.586,4.742,1.576,4.742h0.09c0.861-0.068,1.293-0.729,1.293-1.979
				C438.063,210.935,438.043,210.638,438.002,210.311z"/>
			<path fill="#BB688B" d="M450.489,216.435l-0.148-2.423c-0.416,1.287-1.537,1.938-3.359,1.947c-0.02,0.01-0.033,0.015-0.043,0.015
				c-1.805,0-2.998-0.812-3.584-2.438c-0.396-1.08-0.594-3.313-0.594-6.703c0-1.744,0.055-3.801,0.162-6.17h3.613
				c-0.199,3.33-0.299,5.893-0.299,7.687c0,0.901,0.025,1.604,0.074,2.11c0.148,1.545,0.648,2.318,1.502,2.318
				c0.852,0,1.387-0.4,1.605-1.203l-0.148-10.316l3.492-0.029c0,4.262,0.154,9.227,0.461,14.895L450.489,216.435z"/>
			<path fill="#BB688B" d="M458.635,216.182l-3.701,0.342c0.039-3.279,0.061-6.436,0.061-9.469c0-4.262-0.041-8.279-0.119-12.055
				l3.641-0.061c-0.037,2.428-0.059,4.92-0.059,7.477C458.456,206.827,458.516,211.415,458.635,216.182z"/>
			<path fill="#BB688B" d="M465.665,200.737c3.262,0.18,4.891,1.819,4.891,4.922v10.553l-3.463,0.061l-0.119-1.412
				c-0.713,0.813-1.658,1.219-2.838,1.219c-0.506,0-1.051-0.078-1.637-0.238c-1.754-0.436-2.631-1.793-2.631-4.071
				c0-0.276,0.016-0.575,0.045-0.894c0.199-2.349,1.867-3.521,5.01-3.521c0.604,0,1.27,0.045,1.992,0.134v-1.725
				c0-1.397-0.441-2.097-1.324-2.097h-0.059c-0.07-0.01-0.135-0.015-0.193-0.015c-0.961,0-1.441,0.783-1.441,2.349v0.224
				l-3.537-0.298c0-3.459,1.664-5.188,4.994-5.188h0.311V200.737z M466.915,212.48v-2.616c-0.426-0.089-0.813-0.134-1.16-0.134
				c-0.902,0-1.516,0.304-1.844,0.907c-0.197,0.365-0.297,0.707-0.297,1.025c0,0.396,0.158,0.748,0.477,1.055
				c0.248,0.238,0.568,0.357,0.965,0.357C465.563,213.075,466.18,212.877,466.915,212.48z"/>
			<path fill="#BB688B" d="M475.7,205.776l0.146,10.777l-3.641,0.029c0-4.559-0.154-9.678-0.461-15.354l2.734-0.298l0.148,2.423
				c0.416-1.188,1.387-1.867,2.912-2.036c0.229-0.02,0.447-0.029,0.654-0.029c1.197,0,2.109,0.393,2.734,1.174
				c0.725,0.933,1.09,2.414,1.102,4.445l-3.301,0.326c0.01-0.168,0.016-0.332,0.016-0.49c0-1.586-0.412-2.379-1.234-2.379h-0.059
				C476.502,204.415,475.917,204.885,475.7,205.776z"/>
			<path fill="#BB688B" d="M487.19,197.75c0,0.604-0.215,1.119-0.641,1.545c-0.426,0.427-0.941,0.641-1.547,0.641
				c-0.594,0-1.104-0.214-1.531-0.641c-0.426-0.426-0.639-0.94-0.639-1.545c0-0.596,0.213-1.104,0.639-1.531
				c0.428-0.426,0.938-0.639,1.531-0.639c0.605,0,1.121,0.213,1.547,0.639C486.975,196.646,487.19,197.155,487.19,197.75z
				 M483.206,216.508c-0.07-5.797-0.105-10.807-0.105-15.026l3.746-0.224c-0.119,4.043-0.178,8.062-0.178,12.056
				c0,1.069,0.004,2.136,0.014,3.194H483.206z"/>
			<path fill="#BB688B" d="M499.245,195.401c-0.061,3.35-0.09,6.862-0.09,10.539c0,3.35,0.023,6.838,0.074,10.465l-3.523,0.016
				l-0.117-2.274c-0.732,1.101-1.711,1.649-2.93,1.649c-3.041,0-4.563-2.328-4.563-6.985c0-0.101,0.004-0.198,0.016-0.298
				c0.059-4.667,1.564-7.002,4.52-7.002c0.117,0,0.242,0.006,0.371,0.016c1.01,0.061,1.828,0.609,2.453,1.65
				c0-2.2-0.055-4.791-0.164-7.774L499.245,195.401L499.245,195.401z M495.528,211.099l-0.074-5.144
				c-0.574-0.783-1.164-1.174-1.77-1.174c-0.246,0-0.494,0.063-0.742,0.191c-0.783,0.406-1.176,1.546-1.176,3.419
				c0,0.219,0.006,0.44,0.016,0.669c0.1,2.27,0.604,3.469,1.518,3.598c0.088,0.01,0.178,0.016,0.268,0.016
				C494.358,212.674,495.012,212.148,495.528,211.099z"/>
			<path fill="#BB688B" d="M506.17,200.737c3.26,0.18,4.891,1.819,4.891,4.922v10.553l-3.463,0.061l-0.119-1.412
				c-0.715,0.813-1.66,1.219-2.84,1.219c-0.506,0-1.051-0.078-1.635-0.238c-1.754-0.436-2.631-1.793-2.631-4.071
				c0-0.276,0.014-0.575,0.045-0.894c0.197-2.349,1.867-3.521,5.008-3.521c0.605,0,1.27,0.045,1.992,0.134v-1.725
				c0-1.397-0.439-2.097-1.322-2.097h-0.061c-0.068-0.01-0.133-0.015-0.191-0.015c-0.963,0-1.441,0.783-1.441,2.349v0.224
				l-3.539-0.298c0-3.459,1.666-5.188,4.996-5.188h0.311V200.737z M507.418,212.48v-2.616c-0.426-0.089-0.811-0.134-1.158-0.134
				c-0.902,0-1.518,0.304-1.844,0.907c-0.199,0.365-0.297,0.707-0.297,1.025c0,0.396,0.158,0.748,0.475,1.055
				c0.248,0.238,0.57,0.357,0.967,0.357C506.067,213.075,506.686,212.877,507.418,212.48z"/>
			<path fill="#BB688B" d="M523.487,195.401c-0.061,3.35-0.088,6.862-0.088,10.539c0,3.35,0.023,6.838,0.072,10.465l-3.521,0.016
				l-0.119-2.274c-0.732,1.101-1.709,1.649-2.928,1.649c-3.043,0-4.564-2.328-4.564-6.985c0-0.101,0.006-0.198,0.016-0.298
				c0.061-4.667,1.566-7.002,4.52-7.002c0.119,0,0.242,0.006,0.371,0.016c1.012,0.061,1.828,0.609,2.453,1.65
				c0-2.2-0.055-4.791-0.164-7.774L523.487,195.401L523.487,195.401z M519.772,211.099l-0.074-5.144
				c-0.576-0.783-1.166-1.174-1.771-1.174c-0.246,0-0.494,0.063-0.742,0.191c-0.781,0.406-1.174,1.546-1.174,3.419
				c0,0.219,0.004,0.44,0.016,0.669c0.098,2.27,0.604,3.469,1.516,3.598c0.09,0.01,0.178,0.016,0.27,0.016
				C518.602,212.674,519.256,212.148,519.772,211.099z"/>
			<path fill="#BB688B" d="M529.493,201.168c3.438,0,5.158,2.285,5.158,6.854c0,0.555-0.025,1.148-0.074,1.783h-6.646
				c0,2.547,0.492,3.82,1.473,3.82h0.104c0.863-0.069,1.293-0.729,1.293-1.978c0-0.269-0.02-0.565-0.059-0.894l3.537-0.073
				c0,3.776-1.65,5.688-4.949,5.737c-0.039,0.011-0.074,0.016-0.105,0.016c-3.141,0-4.711-2.383-4.711-7.148v-0.447
				C524.612,203.726,526.272,201.168,529.493,201.168z M527.575,207.07h3.359v-0.356c0-1.803-0.512-2.705-1.531-2.705
				C528.303,204.008,527.694,205.028,527.575,207.07z"/>
			<path fill="#BB688B" d="M535.586,211.157l3.404-0.162v0.192c0,1.526,0.471,2.299,1.412,2.317h0.061
				c0.91,0,1.367-0.439,1.367-1.321v-0.104c-0.041-0.971-0.939-1.754-2.699-2.349c-1.758-0.595-2.814-1.595-3.172-3.002
				c-0.129-0.496-0.193-0.972-0.193-1.429c0-0.832,0.213-1.604,0.639-2.317c0.654-1.09,1.646-1.715,2.975-1.873
				c0.355-0.039,0.703-0.06,1.039-0.06c0.883,0,1.66,0.154,2.334,0.461c0.922,0.426,1.561,1.035,1.918,1.828
				c0.238,0.545,0.357,1.148,0.357,1.813c0,0.316-0.025,0.645-0.076,0.98l-3.182,0.074c0.031-0.248,0.045-0.476,0.045-0.684
				c0-0.99-0.316-1.521-0.949-1.591c-0.07-0.011-0.141-0.015-0.209-0.015c-0.654,0-1.096,0.332-1.322,0.996
				c-0.08,0.228-0.119,0.436-0.119,0.623c0,0.467,0.217,0.867,0.654,1.205c0.613,0.475,1.521,0.959,2.727,1.448
				c1.205,0.49,2.016,1.325,2.432,2.505c0.148,0.445,0.223,0.893,0.223,1.338c0,0.754-0.217,1.512-0.654,2.273
				c-0.691,1.219-1.768,1.928-3.225,2.126c-0.318,0.05-0.629,0.073-0.938,0.073c-1.09,0-2.102-0.281-3.031-0.848
				C536.211,214.938,535.606,213.438,535.586,211.157z"/>
			<path fill="#BB688B" d="M556.696,201.168c3.438,0,5.156,2.285,5.156,6.854c0,0.555-0.023,1.148-0.074,1.783h-6.645
				c0,2.547,0.49,3.82,1.473,3.82h0.104c0.861-0.069,1.293-0.729,1.293-1.978c0-0.269-0.02-0.565-0.061-0.894l3.539-0.073
				c0,3.776-1.65,5.688-4.951,5.737c-0.039,0.011-0.074,0.016-0.104,0.016c-3.143,0-4.713-2.383-4.713-7.148v-0.447
				C551.815,203.726,553.475,201.168,556.696,201.168z M554.778,207.07h3.357v-0.356c0-1.803-0.51-2.705-1.529-2.705
				C555.506,204.008,554.897,205.028,554.778,207.07z"/>
			<path fill="#BB688B" d="M565.704,200.782l0.146,2.424c0.416-1.289,1.512-1.942,3.285-1.963h0.061
				c1.744,0,2.934,0.684,3.566,2.051c0.438,0.933,0.654,3.113,0.654,6.541c0,1.686-0.055,3.678-0.164,5.977h-3.598
				c0.129-3.063,0.193-5.436,0.193-7.12c0-0.843-0.016-1.517-0.045-2.021c-0.1-1.486-0.574-2.229-1.428-2.229
				c-0.852,0-1.387,0.396-1.604,1.188l0.148,10.777l-3.494,0.028c0-4.56-0.152-9.677-0.461-15.354L565.704,200.782z"/>
			<path fill="#BB688B" d="M584.372,216.182l-3.701,0.342c0.039-3.279,0.061-6.436,0.061-9.469c0-4.262-0.039-8.279-0.119-12.055
				l3.643-0.061c-0.039,2.428-0.061,4.92-0.061,7.477C584.194,206.827,584.252,211.415,584.372,216.182z"/>
			<path fill="#BB688B" d="M591.403,200.737c3.26,0.18,4.891,1.819,4.891,4.922v10.553l-3.463,0.061l-0.119-1.412
				c-0.715,0.813-1.66,1.219-2.84,1.219c-0.506,0-1.051-0.078-1.635-0.238c-1.754-0.436-2.631-1.793-2.631-4.071
				c0-0.276,0.014-0.575,0.045-0.894c0.197-2.349,1.865-3.521,5.008-3.521c0.604,0,1.27,0.045,1.992,0.134v-1.725
				c0-1.397-0.441-2.097-1.322-2.097h-0.061c-0.068-0.01-0.135-0.015-0.191-0.015c-0.963,0-1.443,0.783-1.443,2.349v0.224
				l-3.537-0.298c0-3.459,1.664-5.188,4.994-5.188h0.313V200.737z M592.651,212.48v-2.616c-0.426-0.089-0.813-0.134-1.158-0.134
				c-0.902,0-1.518,0.304-1.844,0.907c-0.199,0.365-0.299,0.707-0.299,1.025c0,0.396,0.158,0.748,0.477,1.055
				c0.248,0.238,0.57,0.357,0.967,0.357C591.299,213.075,591.918,212.877,592.651,212.48z"/>
			<path fill="#BB688B" d="M608.78,200.737c3.26,0.18,4.891,1.819,4.891,4.922v10.553l-3.463,0.061l-0.119-1.412
				c-0.715,0.813-1.66,1.219-2.84,1.219c-0.506,0-1.051-0.078-1.635-0.238c-1.754-0.436-2.631-1.793-2.631-4.071
				c0-0.276,0.014-0.575,0.045-0.894c0.197-2.349,1.865-3.521,5.008-3.521c0.604,0,1.27,0.045,1.992,0.134v-1.725
				c0-1.397-0.441-2.097-1.322-2.097h-0.061c-0.068-0.01-0.135-0.015-0.191-0.015c-0.963,0-1.443,0.783-1.443,2.349v0.224
				l-3.537-0.298c0-3.459,1.664-5.188,4.994-5.188h0.313V200.737z M610.028,212.48v-2.616c-0.426-0.089-0.813-0.134-1.158-0.134
				c-0.902,0-1.518,0.304-1.844,0.907c-0.199,0.365-0.297,0.707-0.297,1.025c0,0.396,0.156,0.748,0.475,1.055
				c0.248,0.238,0.57,0.357,0.967,0.357C608.676,213.075,609.295,212.877,610.028,212.48z"/>
			<path fill="#BB688B" d="M617.342,196.426l3.373-0.223v4.92l2.84-0.074l0.045,2.811l-2.885,0.135v6.762
				c0,1.576,0.67,2.365,2.008,2.365c0.277,0,0.578-0.035,0.906-0.104l-0.135,3.271c-0.475,0.061-0.926,0.09-1.354,0.09
				c-3.131,0-4.727-1.615-4.785-4.846v-7.27l-2.438,0.148l-0.061-3.314l2.498,0.029L617.342,196.426z"/>
			<path fill="#BB688B" d="M629.665,201.168c3.438,0,5.156,2.285,5.156,6.854c0,0.555-0.023,1.148-0.074,1.783h-6.645
				c0,2.547,0.49,3.82,1.473,3.82h0.104c0.861-0.069,1.293-0.729,1.293-1.978c0-0.269-0.02-0.565-0.061-0.894l3.539-0.073
				c0,3.776-1.65,5.688-4.951,5.737c-0.039,0.011-0.074,0.016-0.104,0.016c-3.143,0-4.713-2.383-4.713-7.148v-0.447
				C624.784,203.726,626.444,201.168,629.665,201.168z M627.747,207.07h3.359v-0.356c0-1.803-0.512-2.705-1.531-2.705
				C628.475,204.008,627.866,205.028,627.747,207.07z"/>
			<path fill="#BB688B" d="M638.672,200.782l0.148,2.424c0.416-1.289,1.51-1.942,3.285-1.963h0.059c1.744,0,2.934,0.684,3.568,2.051
				c0.436,0.933,0.652,3.113,0.652,6.541c0,1.686-0.055,3.678-0.164,5.977h-3.598c0.129-3.063,0.193-5.436,0.193-7.12
				c0-0.843-0.016-1.517-0.043-2.021c-0.102-1.486-0.576-2.229-1.43-2.229c-0.852,0-1.387,0.396-1.604,1.188l0.148,10.777
				l-3.492,0.028c0-4.56-0.154-9.677-0.463-15.354L638.672,200.782z"/>
			<path fill="#BB688B" d="M653.7,210.311l3.537,0.223c0,3.577-1.65,5.391-4.949,5.44c-0.039,0.01-0.074,0.015-0.105,0.015
				c-3.141,0-4.711-2.383-4.711-7.148v-0.446c0.1-5.112,1.773-7.694,5.023-7.744h0.119c2.992,0,4.488,1.716,4.488,5.144
				c0,0.199-0.006,0.396-0.016,0.595l-3.195,0.237v-0.355c0-1.805-0.512-2.706-1.531-2.706c-1.039,0-1.561,1.462-1.561,4.386v0.49
				c0.061,3.161,0.584,4.742,1.576,4.742h0.088c0.863-0.068,1.293-0.729,1.293-1.979C653.758,210.935,653.739,210.638,653.7,210.311
				z"/>
			<path fill="#BB688B" d="M662.633,197.75c0,0.604-0.215,1.119-0.641,1.545c-0.426,0.427-0.941,0.641-1.545,0.641
				c-0.596,0-1.105-0.214-1.531-0.641c-0.426-0.426-0.639-0.94-0.639-1.545c0-0.596,0.213-1.104,0.639-1.531
				c0.426-0.426,0.936-0.639,1.531-0.639c0.604,0,1.119,0.213,1.545,0.639C662.418,196.646,662.633,197.155,662.633,197.75z
				 M658.649,216.508c-0.07-5.797-0.105-10.807-0.105-15.026l3.746-0.224c-0.119,4.043-0.178,8.062-0.178,12.056
				c0,1.069,0.004,2.136,0.014,3.194H658.649z"/>
			<path fill="#BB688B" d="M668.684,201.168c3.369,0,5.055,2.34,5.055,7.017c0,0.188-0.006,0.377-0.016,0.565
				c-0.141,5.063-1.934,7.619-5.381,7.67c-0.041,0.01-0.08,0.015-0.119,0.015c-3.279,0-4.92-2.394-4.92-7.181v-0.416
				C663.401,203.726,665.196,201.168,668.684,201.168z M668.192,204.558c-0.623,0.219-1.051,1.026-1.277,2.423
				c-0.139,0.833-0.209,1.67-0.209,2.514c0,0.563,0.031,1.135,0.09,1.709c0.158,1.426,0.67,2.164,1.531,2.215h0.104
				c0.803,0,1.354-0.53,1.648-1.592c0.248-0.882,0.373-1.927,0.373-3.136c0-0.298-0.006-0.601-0.016-0.907
				c-0.08-1.595-0.316-2.591-0.715-2.986c-0.248-0.238-0.545-0.356-0.891-0.356C668.633,204.439,668.42,204.479,668.192,204.558z
				 M666.75,198.271c1.16-1.378,2.111-2.69,2.855-3.938l2.438,1.933c-1.051,1.03-2.221,2.294-3.51,3.79L666.75,198.271z"/>
			<path fill="#BB688B" d="M677.29,200.782l0.148,2.424c0.416-1.289,1.512-1.942,3.285-1.963h0.059c1.744,0,2.934,0.684,3.568,2.051
				c0.436,0.933,0.652,3.113,0.652,6.541c0,1.686-0.055,3.678-0.162,5.977h-3.598c0.129-3.063,0.191-5.436,0.191-7.12
				c0-0.843-0.014-1.517-0.043-2.021c-0.1-1.486-0.574-2.229-1.428-2.229s-1.387,0.396-1.605,1.188l0.148,10.777l-3.492,0.028
				c0-4.56-0.154-9.677-0.461-15.354L677.29,200.782z"/>
		</g>
		<path fill="none" stroke="#2C0C41" stroke-miterlimit="10" stroke-dasharray="12" d="M702.336,213.474
			c0,8.089-6.557,14.647-14.645,14.647h-312.21c-8.089,0-14.646-6.56-14.646-14.647v-15.272c0-8.088,6.558-14.646,14.646-14.646
			H687.69c8.09,0,14.646,6.56,14.646,14.646V213.474L702.336,213.474z"/>
	</g>
</g>
</svg>
