<?xml version="1.0" encoding="utf-8"?>
<!-- Generator: Adobe Illustrator 16.0.0, SVG Export Plug-In . SVG Version: 6.00 Build 0)  -->
<!DOCTYPE svg PUBLIC "-//W3C//DTD SVG 1.1//EN" "http://www.w3.org/Graphics/SVG/1.1/DTD/svg11.dtd">
<svg version="1.1" id="Capa_1" xmlns="http://www.w3.org/2000/svg" xmlns:xlink="http://www.w3.org/1999/xlink" x="0px" y="0px"
	 width="941.77px" height="34.581px" viewBox="0 0 941.77 34.581" enable-background="new 0 0 941.77 34.581" xml:space="preserve">
<g>
	<g>
		<g>
			<path fill="#674D94" d="M664.159,11.038v-3.32c1.659,0.033,3.303,0.051,4.929,0.051c2.529,0,5.008-0.038,7.437-0.114l0.152,3.536
				h-4.269c0,5.984,0.085,10.732,0.254,14.242l-4.776,0.178c0.248-5.977,0.429-10.852,0.542-14.622L664.159,11.038z"/>
			<path fill="#674D94" d="M683.672,12.995c3.919,0,5.878,1.941,5.878,5.821c0,0.472-0.028,0.977-0.085,1.516h-7.571
				c0,2.163,0.559,3.245,1.677,3.245h0.118c0.982-0.059,1.474-0.619,1.474-1.68c0-0.228-0.022-0.479-0.067-0.758l4.031-0.062
				c0,3.207-1.88,4.832-5.641,4.873c-0.045,0.009-0.084,0.014-0.118,0.014c-3.58,0-5.37-2.025-5.37-6.074v-0.379
				C678.11,15.167,680.002,12.995,683.672,12.995z M681.487,18.009h3.828v-0.304c0-1.532-0.582-2.298-1.745-2.298
				C682.316,15.407,681.622,16.274,681.487,18.009z M681.758,10.533c1.321-1.17,2.405-2.285,3.252-3.346l2.778,1.642
				c-1.197,0.875-2.529,1.948-3.997,3.22L681.758,10.533z"/>
			<path fill="#674D94" d="M697.748,20.761l4.031,0.189c0,3.039-1.88,4.58-5.641,4.622c-0.045,0.008-0.084,0.013-0.118,0.013
				c-3.58,0-5.37-2.025-5.37-6.074v-0.379c0.113-4.344,2.021-6.536,5.726-6.578h0.136c3.41,0,5.115,1.456,5.115,4.369
				c0,0.168-0.006,0.336-0.017,0.505l-3.642,0.202v-0.303c0-1.532-0.582-2.299-1.745-2.299c-1.186,0-1.778,1.242-1.778,3.725v0.417
				c0.067,2.686,0.666,4.028,1.795,4.028h0.102c0.982-0.059,1.474-0.619,1.474-1.68C697.815,21.292,697.793,21.039,697.748,20.761z"
				/>
			<path fill="#674D94" d="M706.303,12.667l0.17,2.059c0.475-1.094,1.722-1.65,3.743-1.667h0.068c1.987,0,3.342,0.581,4.064,1.743
				c0.497,0.791,0.746,2.643,0.746,5.556c0,1.431-0.062,3.123-0.187,5.075h-4.1c0.146-2.601,0.221-4.617,0.221-6.048
				c0-0.716-0.018-1.288-0.051-1.718c-0.113-1.262-0.655-1.894-1.626-1.894c-0.972,0-1.582,0.337-1.83,1.011l0.17,9.154l-3.98,0.025
				c0-3.873-0.176-8.221-0.525-13.044L706.303,12.667z"/>
			<path fill="#674D94" d="M721.243,10.092c0,0.513-0.243,0.951-0.729,1.312c-0.486,0.362-1.073,0.543-1.762,0.543
				c-0.678,0-1.26-0.181-1.745-0.543c-0.485-0.361-0.729-0.8-0.729-1.312c0-0.505,0.243-0.938,0.729-1.301s1.067-0.543,1.745-0.543
				c0.688,0,1.275,0.181,1.762,0.543C721,9.153,721.243,9.587,721.243,10.092z M716.703,26.026
				c-0.079-4.924-0.118-9.18-0.118-12.766l4.269-0.189c-0.136,3.435-0.204,6.848-0.204,10.24c0,0.909,0.006,1.814,0.018,2.715
				H716.703z"/>
			<path fill="#674D94" d="M729.103,20.761l4.031,0.189c0,3.039-1.88,4.58-5.641,4.622c-0.045,0.008-0.084,0.013-0.118,0.013
				c-3.58,0-5.37-2.025-5.37-6.074v-0.379c0.113-4.344,2.021-6.536,5.726-6.578h0.136c3.41,0,5.115,1.456,5.115,4.369
				c0,0.168-0.006,0.336-0.017,0.505l-3.642,0.202v-0.303c0-1.532-0.582-2.299-1.745-2.299c-1.186,0-1.778,1.242-1.778,3.725v0.417
				c0.067,2.686,0.666,4.028,1.795,4.028h0.102c0.982-0.059,1.474-0.619,1.474-1.68C729.17,21.292,729.147,21.039,729.103,20.761z"
				/>
			<path fill="#674D94" d="M741.096,12.63c3.715,0.151,5.572,1.545,5.572,4.179v8.966l-3.946,0.05l-0.136-1.199
				c-0.813,0.69-1.892,1.035-3.235,1.035c-0.576,0-1.197-0.067-1.863-0.202c-1.999-0.37-2.998-1.523-2.998-3.459
				c0-0.236,0.017-0.488,0.051-0.758c0.226-1.995,2.128-2.993,5.708-2.993c0.688,0,1.445,0.038,2.271,0.114v-1.465
				c0-1.188-0.503-1.78-1.508-1.78h-0.068c-0.079-0.009-0.152-0.013-0.22-0.013c-1.096,0-1.644,0.665-1.644,1.995v0.189
				l-4.031-0.253c0-2.938,1.897-4.406,5.691-4.406H741.096z M742.519,22.604v-2.223c-0.486-0.075-0.927-0.113-1.321-0.113
				c-1.028,0-1.729,0.257-2.101,0.771c-0.227,0.312-0.339,0.602-0.339,0.871c0,0.337,0.181,0.636,0.542,0.896
				c0.282,0.202,0.649,0.303,1.101,0.303C740.977,23.109,741.683,22.941,742.519,22.604z"/>
			<path fill="#674D94" d="M747.82,21.481l3.879-0.14v0.164c0,1.297,0.536,1.953,1.609,1.97h0.067c1.039,0,1.559-0.374,1.559-1.123
				v-0.089c-0.046-0.825-1.07-1.49-3.074-1.995c-2.005-0.505-3.21-1.355-3.617-2.551c-0.146-0.421-0.22-0.824-0.22-1.212
				c0-0.707,0.242-1.364,0.729-1.97c0.745-0.926,1.874-1.456,3.388-1.591c0.406-0.034,0.802-0.051,1.186-0.051
				c1.005,0,1.892,0.131,2.659,0.392c1.051,0.361,1.778,0.88,2.186,1.553c0.271,0.463,0.406,0.977,0.406,1.541
				c0,0.27-0.028,0.547-0.085,0.833l-3.625,0.063c0.034-0.211,0.051-0.404,0.051-0.581c0-0.842-0.361-1.292-1.084-1.351
				c-0.079-0.009-0.158-0.014-0.237-0.014c-0.745,0-1.247,0.283-1.507,0.847c-0.091,0.193-0.136,0.37-0.136,0.53
				c0,0.396,0.248,0.736,0.745,1.022c0.7,0.404,1.736,0.814,3.108,1.231c1.372,0.416,2.295,1.126,2.77,2.127
				c0.169,0.379,0.254,0.758,0.254,1.137c0,0.641-0.248,1.284-0.745,1.932c-0.791,1.036-2.016,1.638-3.676,1.807
				c-0.361,0.042-0.717,0.062-1.067,0.062c-1.242,0-2.394-0.24-3.455-0.72C748.531,24.692,747.843,23.417,747.82,21.481z"/>
			<path fill="#674D94" d="M766.639,25.585c0.068-2.214,0.102-4.479,0.102-6.794c0-3.552-0.079-7.23-0.236-11.036
				c1.931-0.201,3.636-0.303,5.115-0.303c2.326,0,4.076,0.253,5.251,0.758c1.818,0.783,2.728,2.387,2.728,4.811v0.417
				c-0.113,2.66-0.921,4.362-2.423,5.107s-3.354,1.143-5.556,1.193c-0.012,0.261-0.017,0.53-0.017,0.808
				c0,1.398,0.096,3.052,0.287,4.963L766.639,25.585z M770.976,10.685l0.118,6.175c2.101-0.084,3.331-0.644,3.693-1.679
				c0.169-0.472,0.254-0.956,0.254-1.453c0-0.58-0.113-1.178-0.339-1.793c-0.339-0.9-1.186-1.351-2.541-1.351
				C771.8,10.584,771.404,10.618,770.976,10.685z"/>
			<path fill="#674D94" d="M786.763,12.995c3.919,0,5.878,1.941,5.878,5.821c0,0.472-0.028,0.977-0.085,1.516h-7.571
				c0,2.163,0.559,3.245,1.677,3.245h0.118c0.982-0.059,1.474-0.619,1.474-1.68c0-0.228-0.022-0.479-0.067-0.758l4.031-0.062
				c0,3.207-1.88,4.832-5.641,4.873c-0.045,0.009-0.084,0.014-0.118,0.014c-3.58,0-5.37-2.025-5.37-6.074v-0.379
				C781.201,15.167,783.093,12.995,786.763,12.995z M784.578,18.009h3.828v-0.304c0-1.532-0.582-2.298-1.745-2.298
				C785.407,15.407,784.713,16.274,784.578,18.009z"/>
			<path fill="#674D94" d="M798.417,16.91l0.169,9.154l-4.149,0.025c0-3.872-0.176-8.22-0.525-13.044l3.116-0.252l0.17,2.058
				c0.475-1.01,1.581-1.587,3.32-1.729c0.259-0.017,0.508-0.025,0.745-0.025c1.366,0,2.405,0.332,3.116,0.998
				c0.824,0.791,1.242,2.049,1.254,3.775l-3.761,0.277c0.012-0.143,0.018-0.282,0.018-0.417c0-1.347-0.469-2.021-1.406-2.021h-0.068
				C799.331,15.753,798.665,16.152,798.417,16.91z"/>
			<path fill="#674D94" d="M809.24,13.45c-0.022-0.228-0.033-0.459-0.033-0.694c0-0.791,0.106-1.604,0.321-2.438
				c0.26-1.085,1.051-1.952,2.371-2.601c0.983-0.488,2.225-0.732,3.727-0.732c0.497,0,1.028,0.029,1.593,0.088l-0.034,2.766
				c-0.339-0.033-0.655-0.051-0.948-0.051c-0.938,0-1.626,0.173-2.066,0.518c-0.486,0.362-0.729,1.069-0.729,2.122
				c0,0.252,0.017,0.53,0.051,0.833l3.625-0.038v2.563l-3.727,0.177c0.09,2.761,0.136,5.371,0.136,7.829
				c0,0.74-0.006,1.465-0.018,2.172l-4.302,0.139c0.033-2.804,0.09-6.12,0.169-9.95l-2.744,0.101l-0.067-2.715L809.24,13.45z"/>
			<path fill="#674D94" d="M824.569,12.995c3.84,0,5.76,1.987,5.76,5.961c0,0.159-0.006,0.319-0.017,0.479
				c-0.159,4.302-2.202,6.474-6.133,6.515c-0.045,0.009-0.09,0.014-0.135,0.014c-3.738,0-5.607-2.033-5.607-6.1v-0.354
				C818.551,15.167,820.595,12.995,824.569,12.995z M824.011,15.874c-0.711,0.186-1.197,0.872-1.457,2.059
				c-0.158,0.707-0.237,1.419-0.237,2.134c0,0.479,0.034,0.964,0.103,1.452c0.18,1.213,0.762,1.84,1.744,1.882h0.119
				c0.914,0,1.541-0.45,1.88-1.352c0.282-0.749,0.424-1.637,0.424-2.664c0-0.253-0.006-0.509-0.018-0.771
				c-0.091-1.355-0.361-2.201-0.812-2.537c-0.283-0.203-0.621-0.304-1.017-0.304C824.513,15.773,824.271,15.808,824.011,15.874z"/>
			<path fill="#674D94" d="M835.768,16.91l0.169,9.154l-4.149,0.025c0-3.872-0.176-8.22-0.525-13.044l3.116-0.252l0.17,2.058
				c0.475-1.01,1.581-1.587,3.32-1.729c0.259-0.017,0.508-0.025,0.745-0.025c1.366,0,2.405,0.332,3.116,0.998
				c0.824,0.791,1.242,2.049,1.254,3.775l-3.761,0.277c0.012-0.143,0.018-0.282,0.018-0.417c0-1.347-0.469-2.021-1.406-2.021h-0.068
				C836.682,15.753,836.016,16.152,835.768,16.91z"/>
			<path fill="#674D94" d="M846.845,12.73l0.068,2.021c0.609-0.969,1.315-1.57,2.117-1.806c0.475-0.135,0.954-0.202,1.439-0.202
				c0.361,0,0.723,0.033,1.084,0.101c0.881,0.169,1.508,0.843,1.881,2.021c0.293-0.917,0.802-1.529,1.524-1.837
				s1.524-0.465,2.405-0.474h0.067c0.858,0,1.683,0.156,2.474,0.467c0.802,0.32,1.414,0.92,1.838,1.8
				c0.423,0.88,0.646,2.085,0.669,3.617v7.337l-3.659,0.062c0.146-2.77,0.221-5.126,0.221-7.07c0-1.945-0.497-2.993-1.491-3.145
				c-0.146-0.017-0.287-0.025-0.423-0.025c-0.791,0-1.4,0.379-1.83,1.137c-0.067,0.875-0.102,1.898-0.102,3.068
				c0,1.591,0.062,3.447,0.187,5.568l-4.234,0.025c0.158-3.258,0.237-5.632,0.237-7.122v-0.151
				c-0.012-1.473-0.401-2.248-1.169-2.323h-0.221c-0.688,0-1.354,0.295-1.998,0.884l0.033,9.243l-3.997,0.113v-2.071
				c0-3.67-0.074-7.336-0.221-10.997L846.845,12.73z"/>
			<path fill="#674D94" d="M869.984,12.63c3.715,0.151,5.572,1.545,5.572,4.179v8.966l-3.946,0.05l-0.136-1.199
				c-0.813,0.69-1.892,1.035-3.235,1.035c-0.576,0-1.197-0.067-1.863-0.202c-1.999-0.37-2.998-1.523-2.998-3.459
				c0-0.236,0.017-0.488,0.051-0.758c0.226-1.995,2.128-2.993,5.708-2.993c0.688,0,1.445,0.038,2.271,0.114v-1.465
				c0-1.188-0.503-1.78-1.508-1.78h-0.068c-0.079-0.009-0.152-0.013-0.22-0.013c-1.096,0-1.644,0.665-1.644,1.995v0.189
				l-4.031-0.253c0-2.938,1.897-4.406,5.691-4.406H869.984z M871.407,22.604v-2.223c-0.486-0.075-0.927-0.113-1.321-0.113
				c-1.028,0-1.729,0.257-2.101,0.771c-0.227,0.312-0.339,0.602-0.339,0.871c0,0.337,0.181,0.636,0.542,0.896
				c0.282,0.202,0.649,0.303,1.101,0.303C869.865,23.109,870.571,22.941,871.407,22.604z"/>
			<path fill="#674D94" d="M879.741,8.968l3.845-0.189v4.18l3.235-0.063l0.051,2.387l-3.286,0.113v5.745
				c0,1.339,0.762,2.008,2.287,2.008c0.315,0,0.66-0.029,1.033-0.088l-0.152,2.777c-0.543,0.051-1.057,0.076-1.542,0.076
				c-3.568,0-5.387-1.372-5.454-4.116v-6.175l-2.778,0.126l-0.067-2.815l2.846,0.025L879.741,8.968z"/>
			<path fill="#674D94" d="M893.021,10.092c0,0.513-0.243,0.951-0.729,1.312c-0.486,0.362-1.073,0.543-1.762,0.543
				c-0.678,0-1.26-0.181-1.745-0.543c-0.485-0.361-0.729-0.8-0.729-1.312c0-0.505,0.243-0.938,0.729-1.301s1.067-0.543,1.745-0.543
				c0.688,0,1.275,0.181,1.762,0.543C892.777,9.153,893.021,9.587,893.021,10.092z M888.48,26.026
				c-0.079-4.924-0.118-9.18-0.118-12.766l4.269-0.189c-0.136,3.435-0.204,6.848-0.204,10.24c0,0.909,0.006,1.814,0.018,2.715
				H888.48z"/>
			<path fill="#674D94" d="M897.103,25.635c-1.423-4.874-2.699-9.058-3.828-12.551l4.116-0.164l2.083,9.18
				c1.085-3.435,1.948-6.565,2.592-9.395l4.049,0.379c-1.276,3.527-2.761,7.694-4.455,12.501L897.103,25.635z"/>
			<path fill="#674D94" d="M913.297,12.63c3.715,0.151,5.572,1.545,5.572,4.179v8.966l-3.946,0.05l-0.136-1.199
				c-0.813,0.69-1.892,1.035-3.235,1.035c-0.576,0-1.197-0.067-1.863-0.202c-1.999-0.37-2.998-1.523-2.998-3.459
				c0-0.236,0.017-0.488,0.051-0.758c0.226-1.995,2.128-2.993,5.708-2.993c0.688,0,1.445,0.038,2.271,0.114v-1.465
				c0-1.188-0.503-1.78-1.508-1.78h-0.068c-0.079-0.009-0.152-0.013-0.22-0.013c-1.096,0-1.644,0.665-1.644,1.995v0.189
				l-4.031-0.253c0-2.938,1.897-4.406,5.691-4.406H913.297z M914.72,22.604v-2.223c-0.486-0.075-0.927-0.113-1.321-0.113
				c-1.028,0-1.729,0.257-2.101,0.771c-0.227,0.312-0.339,0.602-0.339,0.871c0,0.337,0.181,0.636,0.542,0.896
				c0.282,0.202,0.649,0.303,1.101,0.303C913.178,23.109,913.884,22.941,914.72,22.604z"/>
			<path fill="#674D94" d="M920.021,21.481l3.879-0.14v0.164c0,1.297,0.536,1.953,1.609,1.97h0.067c1.039,0,1.559-0.374,1.559-1.123
				v-0.089c-0.046-0.825-1.07-1.49-3.074-1.995c-2.005-0.505-3.21-1.355-3.617-2.551c-0.146-0.421-0.22-0.824-0.22-1.212
				c0-0.707,0.242-1.364,0.729-1.97c0.745-0.926,1.874-1.456,3.388-1.591c0.406-0.034,0.802-0.051,1.186-0.051
				c1.005,0,1.892,0.131,2.659,0.392c1.051,0.361,1.778,0.88,2.186,1.553c0.271,0.463,0.406,0.977,0.406,1.541
				c0,0.27-0.028,0.547-0.085,0.833l-3.625,0.063c0.034-0.211,0.051-0.404,0.051-0.581c0-0.842-0.361-1.292-1.084-1.351
				c-0.079-0.009-0.158-0.014-0.237-0.014c-0.745,0-1.247,0.283-1.507,0.847c-0.091,0.193-0.136,0.37-0.136,0.53
				c0,0.396,0.248,0.736,0.745,1.022c0.7,0.404,1.736,0.814,3.108,1.231c1.372,0.416,2.295,1.126,2.77,2.127
				c0.169,0.379,0.254,0.758,0.254,1.137c0,0.641-0.248,1.284-0.745,1.932c-0.791,1.036-2.016,1.638-3.676,1.807
				c-0.361,0.042-0.717,0.062-1.067,0.062c-1.242,0-2.394-0.24-3.455-0.72C920.732,24.692,920.044,23.417,920.021,21.481z"/>
		</g>
		<path fill="none" stroke="#674D94" stroke-width="2" stroke-miterlimit="10" d="M940.77,21.581c0,6.627-5.373,12-12,12h-263
			c-6.627,0-12-5.373-12-12V13c0-6.627,5.373-12,12-12h263c6.627,0,12,5.373,12,12V21.581z"/>
	</g>
	<g>
		<g>
			<path fill="#674D94" d="M359.062,11.038v-3.32c1.659,0.033,3.303,0.051,4.929,0.051c2.529,0,5.008-0.038,7.437-0.114l0.152,3.536
				h-4.269c0,5.984,0.085,10.732,0.254,14.242l-4.776,0.178c0.248-5.977,0.429-10.852,0.542-14.622L359.062,11.038z"/>
			<path fill="#674D94" d="M378.575,12.995c3.919,0,5.878,1.941,5.878,5.821c0,0.472-0.028,0.977-0.085,1.516h-7.571
				c0,2.163,0.559,3.245,1.677,3.245h0.118c0.982-0.059,1.474-0.619,1.474-1.68c0-0.228-0.022-0.479-0.067-0.758l4.031-0.062
				c0,3.207-1.88,4.832-5.641,4.873c-0.045,0.009-0.084,0.014-0.118,0.014c-3.58,0-5.37-2.025-5.37-6.074v-0.379
				C373.014,15.167,374.905,12.995,378.575,12.995z M376.391,18.009h3.828v-0.304c0-1.532-0.582-2.298-1.745-2.298
				C377.22,15.407,376.525,16.274,376.391,18.009z M376.661,10.533c1.321-1.17,2.405-2.285,3.252-3.346l2.778,1.642
				c-1.197,0.875-2.529,1.948-3.997,3.22L376.661,10.533z"/>
			<path fill="#674D94" d="M392.651,20.761l4.031,0.189c0,3.039-1.88,4.58-5.641,4.622c-0.045,0.008-0.084,0.013-0.118,0.013
				c-3.58,0-5.37-2.025-5.37-6.074v-0.379c0.113-4.344,2.021-6.536,5.726-6.578h0.136c3.41,0,5.115,1.456,5.115,4.369
				c0,0.168-0.006,0.336-0.017,0.505l-3.642,0.202v-0.303c0-1.532-0.582-2.299-1.745-2.299c-1.186,0-1.778,1.242-1.778,3.725v0.417
				c0.067,2.686,0.666,4.028,1.795,4.028h0.102c0.982-0.059,1.474-0.619,1.474-1.68C392.719,21.292,392.696,21.039,392.651,20.761z"
				/>
			<path fill="#674D94" d="M401.206,12.667l0.17,2.059c0.475-1.094,1.722-1.65,3.743-1.667h0.068c1.987,0,3.342,0.581,4.064,1.743
				c0.497,0.791,0.746,2.643,0.746,5.556c0,1.431-0.062,3.123-0.187,5.075h-4.1c0.146-2.601,0.221-4.617,0.221-6.048
				c0-0.716-0.018-1.288-0.051-1.718c-0.113-1.262-0.655-1.894-1.626-1.894c-0.972,0-1.582,0.337-1.83,1.011l0.17,9.154l-3.98,0.025
				c0-3.873-0.176-8.221-0.525-13.044L401.206,12.667z"/>
			<path fill="#674D94" d="M416.146,10.092c0,0.513-0.243,0.951-0.729,1.312c-0.486,0.362-1.073,0.543-1.762,0.543
				c-0.678,0-1.26-0.181-1.745-0.543c-0.485-0.361-0.729-0.8-0.729-1.312c0-0.505,0.243-0.938,0.729-1.301s1.067-0.543,1.745-0.543
				c0.688,0,1.275,0.181,1.762,0.543C415.903,9.153,416.146,9.587,416.146,10.092z M411.606,26.026
				c-0.079-4.924-0.118-9.18-0.118-12.766l4.269-0.189c-0.136,3.435-0.204,6.848-0.204,10.24c0,0.909,0.006,1.814,0.018,2.715
				H411.606z"/>
			<path fill="#674D94" d="M424.006,20.761l4.031,0.189c0,3.039-1.88,4.58-5.641,4.622c-0.045,0.008-0.084,0.013-0.118,0.013
				c-3.58,0-5.37-2.025-5.37-6.074v-0.379c0.113-4.344,2.021-6.536,5.726-6.578h0.136c3.41,0,5.115,1.456,5.115,4.369
				c0,0.168-0.006,0.336-0.017,0.505l-3.642,0.202v-0.303c0-1.532-0.582-2.299-1.745-2.299c-1.186,0-1.778,1.242-1.778,3.725v0.417
				c0.067,2.686,0.666,4.028,1.795,4.028h0.102c0.982-0.059,1.474-0.619,1.474-1.68C424.073,21.292,424.051,21.039,424.006,20.761z"
				/>
			<path fill="#674D94" d="M435.999,12.63c3.715,0.151,5.572,1.545,5.572,4.179v8.966l-3.946,0.05l-0.136-1.199
				c-0.813,0.69-1.892,1.035-3.235,1.035c-0.576,0-1.197-0.067-1.863-0.202c-1.999-0.37-2.998-1.523-2.998-3.459
				c0-0.236,0.017-0.488,0.051-0.758c0.226-1.995,2.128-2.993,5.708-2.993c0.688,0,1.445,0.038,2.271,0.114v-1.465
				c0-1.188-0.503-1.78-1.508-1.78h-0.068c-0.079-0.009-0.152-0.013-0.22-0.013c-1.096,0-1.644,0.665-1.644,1.995v0.189
				l-4.031-0.253c0-2.938,1.897-4.406,5.691-4.406H435.999z M437.422,22.604v-2.223c-0.486-0.075-0.927-0.113-1.321-0.113
				c-1.028,0-1.729,0.257-2.101,0.771c-0.227,0.312-0.339,0.602-0.339,0.871c0,0.337,0.181,0.636,0.542,0.896
				c0.282,0.202,0.649,0.303,1.101,0.303C435.88,23.109,436.586,22.941,437.422,22.604z"/>
			<path fill="#674D94" d="M442.724,21.481l3.879-0.14v0.164c0,1.297,0.536,1.953,1.609,1.97h0.067c1.039,0,1.559-0.374,1.559-1.123
				v-0.089c-0.046-0.825-1.07-1.49-3.074-1.995c-2.005-0.505-3.21-1.355-3.617-2.551c-0.146-0.421-0.22-0.824-0.22-1.212
				c0-0.707,0.242-1.364,0.729-1.97c0.745-0.926,1.874-1.456,3.388-1.591c0.406-0.034,0.802-0.051,1.186-0.051
				c1.005,0,1.892,0.131,2.659,0.392c1.051,0.361,1.778,0.88,2.186,1.553c0.271,0.463,0.406,0.977,0.406,1.541
				c0,0.27-0.028,0.547-0.085,0.833l-3.625,0.063c0.034-0.211,0.051-0.404,0.051-0.581c0-0.842-0.361-1.292-1.084-1.351
				c-0.079-0.009-0.158-0.014-0.237-0.014c-0.745,0-1.247,0.283-1.507,0.847c-0.091,0.193-0.136,0.37-0.136,0.53
				c0,0.396,0.248,0.736,0.745,1.022c0.7,0.404,1.736,0.814,3.108,1.231c1.372,0.416,2.295,1.126,2.77,2.127
				c0.169,0.379,0.254,0.758,0.254,1.137c0,0.641-0.248,1.284-0.745,1.932c-0.791,1.036-2.016,1.638-3.676,1.807
				c-0.361,0.042-0.717,0.062-1.067,0.062c-1.242,0-2.394-0.24-3.455-0.72C443.435,24.692,442.746,23.417,442.724,21.481z"/>
			<path fill="#674D94" d="M472.163,7.78v3.562l-6.691-0.202v4.142l6.014-0.126l0.152,3.422h-5.369v3.207h7.029v3.586l-11.722-0.127
				c0.124-2.365,0.187-4.747,0.187-7.146c0-3.324-0.119-6.68-0.355-10.063C463.959,7.958,467.544,7.874,472.163,7.78z"/>
			<path fill="#674D94" d="M479.041,12.756l1.778,4.962l1.762-5l4.472,0.392c-1.039,1.642-2.146,3.641-3.32,5.997
				c1.039,2.038,2.186,4.121,3.438,6.251l-4.37,0.354l-2.134-4.861l-2.033,4.823l-4.149-0.404c1.208-2.045,2.349-4.057,3.421-6.035
				l-3.319-5.973L479.041,12.756z"/>
			<path fill="#674D94" d="M488.645,31.001c0.067-2.836,0.102-5.854,0.102-9.053c0-2.912-0.028-5.969-0.085-9.167l4.015-0.013
				l0.136,1.944c0.835-0.942,1.948-1.414,3.337-1.414c3.467,0,5.2,2.041,5.2,6.124v0.252c-0.079,4.092-1.807,6.137-5.184,6.137
				c-0.135,0-0.271-0.004-0.406-0.012c-1.152-0.043-2.084-0.51-2.795-1.402c0,1.869,0.062,4.07,0.187,6.604H488.645z
				 M492.879,17.302l0.085,4.747c0.654,0.665,1.315,0.998,1.981,0.998c0.271,0,0.542-0.06,0.813-0.177
				c0.824-0.337,1.236-1.343,1.236-3.018c0-0.203-0.006-0.413-0.017-0.632c-0.113-2.054-0.661-3.136-1.644-3.245
				c-0.102-0.008-0.197-0.013-0.288-0.013C494.189,15.963,493.466,16.409,492.879,17.302z"/>
			<path fill="#674D94" d="M507.193,16.91l0.169,9.154l-4.149,0.025c0-3.872-0.176-8.22-0.525-13.044l3.116-0.252l0.17,2.058
				c0.475-1.01,1.581-1.587,3.32-1.729c0.259-0.017,0.508-0.025,0.745-0.025c1.366,0,2.405,0.332,3.116,0.998
				c0.824,0.791,1.242,2.049,1.254,3.775l-3.761,0.277c0.012-0.143,0.018-0.282,0.018-0.417c0-1.347-0.469-2.021-1.406-2.021h-0.068
				C508.107,15.753,507.441,16.152,507.193,16.91z"/>
			<path fill="#674D94" d="M521.049,12.995c3.919,0,5.878,1.941,5.878,5.821c0,0.472-0.028,0.977-0.085,1.516h-7.571
				c0,2.163,0.559,3.245,1.677,3.245h0.118c0.982-0.059,1.474-0.619,1.474-1.68c0-0.228-0.022-0.479-0.067-0.758l4.031-0.062
				c0,3.207-1.88,4.832-5.641,4.873c-0.045,0.009-0.084,0.014-0.118,0.014c-3.58,0-5.37-2.025-5.37-6.074v-0.379
				C515.487,15.167,517.379,12.995,521.049,12.995z M518.864,18.009h3.828v-0.304c0-1.532-0.582-2.298-1.745-2.298
				C519.693,15.407,518.999,16.274,518.864,18.009z"/>
			<path fill="#674D94" d="M527.994,21.481l3.879-0.14v0.164c0,1.297,0.536,1.953,1.609,1.97h0.067c1.039,0,1.559-0.374,1.559-1.123
				v-0.089c-0.046-0.825-1.07-1.49-3.074-1.995c-2.005-0.505-3.21-1.355-3.617-2.551c-0.146-0.421-0.22-0.824-0.22-1.212
				c0-0.707,0.242-1.364,0.729-1.97c0.745-0.926,1.874-1.456,3.388-1.591c0.406-0.034,0.802-0.051,1.186-0.051
				c1.005,0,1.892,0.131,2.659,0.392c1.051,0.361,1.778,0.88,2.186,1.553c0.271,0.463,0.406,0.977,0.406,1.541
				c0,0.27-0.028,0.547-0.085,0.833l-3.625,0.063c0.034-0.211,0.051-0.404,0.051-0.581c0-0.842-0.361-1.292-1.084-1.351
				c-0.079-0.009-0.158-0.014-0.237-0.014c-0.745,0-1.247,0.283-1.507,0.847c-0.091,0.193-0.136,0.37-0.136,0.53
				c0,0.396,0.248,0.736,0.745,1.022c0.7,0.404,1.736,0.814,3.108,1.231c1.372,0.416,2.295,1.126,2.77,2.127
				c0.169,0.379,0.254,0.758,0.254,1.137c0,0.641-0.248,1.284-0.745,1.932c-0.791,1.036-2.016,1.638-3.676,1.807
				c-0.361,0.042-0.717,0.062-1.067,0.062c-1.242,0-2.394-0.24-3.455-0.72C528.705,24.692,528.017,23.417,527.994,21.481z"/>
			<path fill="#674D94" d="M544.967,10.092c0,0.513-0.243,0.951-0.729,1.312c-0.486,0.362-1.073,0.543-1.762,0.543
				c-0.678,0-1.26-0.181-1.745-0.543c-0.485-0.361-0.729-0.8-0.729-1.312c0-0.505,0.243-0.938,0.729-1.301s1.067-0.543,1.745-0.543
				c0.688,0,1.275,0.181,1.762,0.543C544.724,9.153,544.967,9.587,544.967,10.092z M540.427,26.026
				c-0.079-4.924-0.118-9.18-0.118-12.766l4.269-0.189c-0.136,3.435-0.204,6.848-0.204,10.24c0,0.909,0.006,1.814,0.018,2.715
				H540.427z"/>
			<path fill="#674D94" d="M549.049,25.635c-1.423-4.874-2.699-9.058-3.828-12.551l4.116-0.164l2.083,9.18
				c1.085-3.435,1.948-6.565,2.592-9.395l4.049,0.379c-1.276,3.527-2.761,7.694-4.455,12.501L549.049,25.635z"/>
			<path fill="#674D94" d="M565.243,12.63c3.715,0.151,5.572,1.545,5.572,4.179v8.966l-3.946,0.05l-0.136-1.199
				c-0.813,0.69-1.892,1.035-3.235,1.035c-0.576,0-1.197-0.067-1.863-0.202c-1.999-0.37-2.998-1.523-2.998-3.459
				c0-0.236,0.017-0.488,0.051-0.758c0.226-1.995,2.128-2.993,5.708-2.993c0.688,0,1.445,0.038,2.271,0.114v-1.465
				c0-1.188-0.503-1.78-1.508-1.78h-0.068c-0.079-0.009-0.152-0.013-0.22-0.013c-1.096,0-1.644,0.665-1.644,1.995v0.189
				l-4.031-0.253c0-2.938,1.897-4.406,5.691-4.406H565.243z M566.666,22.604v-2.223c-0.486-0.075-0.927-0.113-1.321-0.113
				c-1.028,0-1.729,0.257-2.101,0.771c-0.227,0.312-0.339,0.602-0.339,0.871c0,0.337,0.181,0.636,0.542,0.896
				c0.282,0.202,0.649,0.303,1.101,0.303C565.124,23.109,565.83,22.941,566.666,22.604z"/>
			<path fill="#674D94" d="M571.968,21.481l3.879-0.14v0.164c0,1.297,0.536,1.953,1.609,1.97h0.067c1.039,0,1.559-0.374,1.559-1.123
				v-0.089c-0.046-0.825-1.07-1.49-3.074-1.995c-2.005-0.505-3.21-1.355-3.617-2.551c-0.146-0.421-0.22-0.824-0.22-1.212
				c0-0.707,0.242-1.364,0.729-1.97c0.745-0.926,1.874-1.456,3.388-1.591c0.406-0.034,0.802-0.051,1.186-0.051
				c1.005,0,1.892,0.131,2.659,0.392c1.051,0.361,1.778,0.88,2.186,1.553c0.271,0.463,0.406,0.977,0.406,1.541
				c0,0.27-0.028,0.547-0.085,0.833l-3.625,0.063c0.034-0.211,0.051-0.404,0.051-0.581c0-0.842-0.361-1.292-1.084-1.351
				c-0.079-0.009-0.158-0.014-0.237-0.014c-0.745,0-1.247,0.283-1.507,0.847c-0.091,0.193-0.136,0.37-0.136,0.53
				c0,0.396,0.248,0.736,0.745,1.022c0.7,0.404,1.736,0.814,3.108,1.231c1.372,0.416,2.295,1.126,2.77,2.127
				c0.169,0.379,0.254,0.758,0.254,1.137c0,0.641-0.248,1.284-0.745,1.932c-0.791,1.036-2.016,1.638-3.676,1.807
				c-0.361,0.042-0.717,0.062-1.067,0.062c-1.242,0-2.394-0.24-3.455-0.72C572.679,24.692,571.99,23.417,571.968,21.481z"/>
		</g>
		<path fill="none" stroke="#674D94" stroke-width="2" stroke-miterlimit="10" d="M614.385,21.581c0,6.627-5.373,12-12,12h-263
			c-6.627,0-12-5.373-12-12V13c0-6.627,5.373-12,12-12h263c6.627,0,12,5.373,12,12V21.581z"/>
	</g>
	<g>
		<g>
			<path fill="#674D94" d="M32.11,11.038v-3.32c1.659,0.033,3.303,0.051,4.929,0.051c2.529,0,5.008-0.038,7.437-0.114l0.152,3.536
				h-4.269c0,5.984,0.085,10.732,0.254,14.242l-4.776,0.178c0.248-5.977,0.429-10.852,0.542-14.622L32.11,11.038z"/>
			<path fill="#674D94" d="M51.623,12.995c3.919,0,5.878,1.941,5.878,5.821c0,0.472-0.028,0.977-0.085,1.516h-7.571
				c0,2.163,0.559,3.245,1.677,3.245h0.118c0.982-0.059,1.474-0.619,1.474-1.68c0-0.228-0.022-0.479-0.067-0.758l4.031-0.062
				c0,3.207-1.88,4.832-5.641,4.873c-0.045,0.009-0.084,0.014-0.118,0.014c-3.58,0-5.37-2.025-5.37-6.074v-0.379
				C46.062,15.167,47.953,12.995,51.623,12.995z M49.438,18.009h3.828v-0.304c0-1.532-0.582-2.298-1.745-2.298
				C50.268,15.407,49.573,16.274,49.438,18.009z M49.709,10.533c1.321-1.17,2.405-2.285,3.252-3.346l2.778,1.642
				c-1.197,0.875-2.529,1.948-3.997,3.22L49.709,10.533z"/>
			<path fill="#674D94" d="M65.699,20.761l4.031,0.189c0,3.039-1.88,4.58-5.641,4.622c-0.045,0.008-0.084,0.013-0.118,0.013
				c-3.58,0-5.37-2.025-5.37-6.074v-0.379c0.113-4.344,2.021-6.536,5.726-6.578h0.136c3.41,0,5.115,1.456,5.115,4.369
				c0,0.168-0.006,0.336-0.017,0.505L65.92,17.63v-0.303c0-1.532-0.582-2.299-1.745-2.299c-1.186,0-1.778,1.242-1.778,3.725v0.417
				c0.067,2.686,0.666,4.028,1.795,4.028h0.102c0.982-0.059,1.474-0.619,1.474-1.68C65.767,21.292,65.744,21.039,65.699,20.761z"/>
			<path fill="#674D94" d="M74.254,12.667l0.17,2.059c0.475-1.094,1.722-1.65,3.743-1.667h0.068c1.987,0,3.342,0.581,4.064,1.743
				c0.497,0.791,0.746,2.643,0.746,5.556c0,1.431-0.062,3.123-0.187,5.075h-4.1c0.146-2.601,0.221-4.617,0.221-6.048
				c0-0.716-0.018-1.288-0.051-1.718c-0.113-1.262-0.655-1.894-1.626-1.894c-0.972,0-1.582,0.337-1.83,1.011l0.17,9.154l-3.98,0.025
				c0-3.873-0.176-8.221-0.525-13.044L74.254,12.667z"/>
			<path fill="#674D94" d="M89.194,10.092c0,0.513-0.243,0.951-0.729,1.312c-0.486,0.362-1.073,0.543-1.762,0.543
				c-0.678,0-1.26-0.181-1.745-0.543c-0.485-0.361-0.729-0.8-0.729-1.312c0-0.505,0.243-0.938,0.729-1.301s1.067-0.543,1.745-0.543
				c0.688,0,1.275,0.181,1.762,0.543C88.951,9.153,89.194,9.587,89.194,10.092z M84.654,26.026
				c-0.079-4.924-0.118-9.18-0.118-12.766l4.269-0.189c-0.136,3.435-0.204,6.848-0.204,10.24c0,0.909,0.006,1.814,0.018,2.715
				H84.654z"/>
			<path fill="#674D94" d="M97.054,20.761l4.031,0.189c0,3.039-1.88,4.58-5.641,4.622c-0.045,0.008-0.084,0.013-0.118,0.013
				c-3.58,0-5.37-2.025-5.37-6.074v-0.379c0.113-4.344,2.021-6.536,5.726-6.578h0.136c3.41,0,5.115,1.456,5.115,4.369
				c0,0.168-0.006,0.336-0.017,0.505l-3.642,0.202v-0.303c0-1.532-0.582-2.299-1.745-2.299c-1.186,0-1.778,1.242-1.778,3.725v0.417
				c0.067,2.686,0.666,4.028,1.795,4.028h0.102c0.982-0.059,1.474-0.619,1.474-1.68C97.121,21.292,97.099,21.039,97.054,20.761z"/>
			<path fill="#674D94" d="M109.047,12.63c3.715,0.151,5.572,1.545,5.572,4.179v8.966l-3.946,0.05l-0.136-1.199
				c-0.813,0.69-1.892,1.035-3.235,1.035c-0.576,0-1.197-0.067-1.863-0.202c-1.999-0.37-2.998-1.523-2.998-3.459
				c0-0.236,0.017-0.488,0.051-0.758c0.226-1.995,2.128-2.993,5.708-2.993c0.688,0,1.445,0.038,2.271,0.114v-1.465
				c0-1.188-0.503-1.78-1.508-1.78h-0.068c-0.079-0.009-0.152-0.013-0.22-0.013c-1.096,0-1.644,0.665-1.644,1.995v0.189
				l-4.031-0.253c0-2.938,1.897-4.406,5.691-4.406H109.047z M110.47,22.604v-2.223c-0.486-0.075-0.927-0.113-1.321-0.113
				c-1.028,0-1.729,0.257-2.101,0.771c-0.227,0.312-0.339,0.602-0.339,0.871c0,0.337,0.181,0.636,0.542,0.896
				c0.282,0.202,0.649,0.303,1.101,0.303C108.928,23.109,109.634,22.941,110.47,22.604z"/>
			<path fill="#674D94" d="M115.771,21.481l3.879-0.14v0.164c0,1.297,0.536,1.953,1.609,1.97h0.067c1.039,0,1.559-0.374,1.559-1.123
				v-0.089c-0.046-0.825-1.07-1.49-3.074-1.995c-2.005-0.505-3.21-1.355-3.617-2.551c-0.146-0.421-0.22-0.824-0.22-1.212
				c0-0.707,0.242-1.364,0.729-1.97c0.745-0.926,1.874-1.456,3.388-1.591c0.406-0.034,0.802-0.051,1.186-0.051
				c1.005,0,1.892,0.131,2.659,0.392c1.051,0.361,1.778,0.88,2.186,1.553c0.271,0.463,0.406,0.977,0.406,1.541
				c0,0.27-0.028,0.547-0.085,0.833l-3.625,0.063c0.034-0.211,0.051-0.404,0.051-0.581c0-0.842-0.361-1.292-1.084-1.351
				c-0.079-0.009-0.158-0.014-0.237-0.014c-0.745,0-1.247,0.283-1.507,0.847c-0.091,0.193-0.136,0.37-0.136,0.53
				c0,0.396,0.248,0.736,0.745,1.022c0.7,0.404,1.736,0.814,3.108,1.231c1.372,0.416,2.295,1.126,2.77,2.127
				c0.169,0.379,0.254,0.758,0.254,1.137c0,0.641-0.248,1.284-0.745,1.932c-0.791,1.036-2.016,1.638-3.676,1.807
				c-0.361,0.042-0.717,0.062-1.067,0.062c-1.242,0-2.394-0.24-3.455-0.72C116.482,24.692,115.794,23.417,115.771,21.481z"/>
			<path fill="#674D94" d="M134.522,25.597c0.136-2.879,0.203-5.682,0.203-8.409c0-3.147-0.091-6.199-0.271-9.154l4.979-0.177
				l4.573,9.508c-0.045-3.266-0.169-6.607-0.372-10.025l5.234-0.051c-0.52,5.16-0.779,10.371-0.779,15.633
				c0,0.707,0.005,1.414,0.017,2.121l-4.591,0.037l-4.878-10.177c0.146,3.755,0.282,7.243,0.406,10.468L134.522,25.597z"/>
			<path fill="#674D94" d="M156.916,12.63c3.715,0.151,5.572,1.545,5.572,4.179v8.966l-3.946,0.05l-0.136-1.199
				c-0.813,0.69-1.892,1.035-3.235,1.035c-0.576,0-1.197-0.067-1.863-0.202c-1.999-0.37-2.998-1.523-2.998-3.459
				c0-0.236,0.017-0.488,0.051-0.758c0.226-1.995,2.128-2.993,5.708-2.993c0.688,0,1.445,0.038,2.271,0.114v-1.465
				c0-1.188-0.503-1.78-1.508-1.78h-0.068c-0.079-0.009-0.152-0.013-0.22-0.013c-1.096,0-1.644,0.665-1.644,1.995v0.189
				l-4.031-0.253c0-2.938,1.897-4.406,5.691-4.406H156.916z M158.339,22.604v-2.223c-0.486-0.075-0.927-0.113-1.321-0.113
				c-1.028,0-1.729,0.257-2.101,0.771c-0.227,0.312-0.339,0.602-0.339,0.871c0,0.337,0.181,0.636,0.542,0.896
				c0.282,0.202,0.649,0.303,1.101,0.303C156.797,23.109,157.503,22.941,158.339,22.604z"/>
			<path fill="#674D94" d="M168.35,16.91l0.169,9.154l-4.149,0.025c0-3.872-0.176-8.22-0.525-13.044l3.116-0.252l0.17,2.058
				c0.475-1.01,1.581-1.587,3.32-1.729c0.259-0.017,0.508-0.025,0.745-0.025c1.366,0,2.405,0.332,3.116,0.998
				c0.824,0.791,1.242,2.049,1.254,3.775l-3.761,0.277c0.012-0.143,0.018-0.282,0.018-0.417c0-1.347-0.469-2.021-1.406-2.021h-0.068
				C169.264,15.753,168.598,16.152,168.35,16.91z"/>
			<path fill="#674D94" d="M181.206,16.91l0.169,9.154l-4.149,0.025c0-3.872-0.176-8.22-0.525-13.044l3.116-0.252l0.17,2.058
				c0.475-1.01,1.581-1.587,3.32-1.729c0.259-0.017,0.508-0.025,0.745-0.025c1.366,0,2.405,0.332,3.116,0.998
				c0.824,0.791,1.242,2.049,1.254,3.775l-3.761,0.277c0.012-0.143,0.018-0.282,0.018-0.417c0-1.347-0.469-2.021-1.406-2.021h-0.068
				C182.12,15.753,181.454,16.152,181.206,16.91z"/>
			<path fill="#674D94" d="M196.113,12.63c3.715,0.151,5.572,1.545,5.572,4.179v8.966l-3.946,0.05l-0.136-1.199
				c-0.813,0.69-1.892,1.035-3.235,1.035c-0.576,0-1.197-0.067-1.863-0.202c-1.999-0.37-2.998-1.523-2.998-3.459
				c0-0.236,0.017-0.488,0.051-0.758c0.226-1.995,2.128-2.993,5.708-2.993c0.688,0,1.445,0.038,2.271,0.114v-1.465
				c0-1.188-0.503-1.78-1.508-1.78h-0.068c-0.079-0.009-0.152-0.013-0.22-0.013c-1.096,0-1.644,0.665-1.644,1.995v0.189
				l-4.031-0.253c0-2.938,1.897-4.406,5.691-4.406H196.113z M197.536,22.604v-2.223c-0.486-0.075-0.927-0.113-1.321-0.113
				c-1.028,0-1.729,0.257-2.101,0.771c-0.227,0.312-0.339,0.602-0.339,0.871c0,0.337,0.181,0.636,0.542,0.896
				c0.282,0.202,0.649,0.303,1.101,0.303C195.994,23.109,196.7,22.941,197.536,22.604z"/>
			<path fill="#674D94" d="M205.87,8.968l3.845-0.189v4.18l3.235-0.063l0.051,2.387l-3.286,0.113v5.745
				c0,1.339,0.762,2.008,2.287,2.008c0.315,0,0.66-0.029,1.033-0.088l-0.152,2.777c-0.543,0.051-1.057,0.076-1.542,0.076
				c-3.568,0-5.387-1.372-5.454-4.116v-6.175l-2.778,0.126l-0.067-2.815l2.846,0.025L205.87,8.968z"/>
			<path fill="#674D94" d="M219.149,10.092c0,0.513-0.243,0.951-0.729,1.312c-0.486,0.362-1.073,0.543-1.762,0.543
				c-0.678,0-1.26-0.181-1.745-0.543c-0.485-0.361-0.729-0.8-0.729-1.312c0-0.505,0.243-0.938,0.729-1.301s1.067-0.543,1.745-0.543
				c0.688,0,1.275,0.181,1.762,0.543C218.906,9.153,219.149,9.587,219.149,10.092z M214.609,26.026
				c-0.079-4.924-0.118-9.18-0.118-12.766l4.269-0.189c-0.136,3.435-0.204,6.848-0.204,10.24c0,0.909,0.006,1.814,0.018,2.715
				H214.609z"/>
			<path fill="#674D94" d="M223.231,25.635c-1.423-4.874-2.699-9.058-3.828-12.551l4.116-0.164l2.083,9.18
				c1.085-3.435,1.948-6.565,2.592-9.395l4.049,0.379c-1.276,3.527-2.761,7.694-4.455,12.501L223.231,25.635z"/>
			<path fill="#674D94" d="M239.426,12.63c3.715,0.151,5.572,1.545,5.572,4.179v8.966l-3.946,0.05l-0.136-1.199
				c-0.813,0.69-1.892,1.035-3.235,1.035c-0.576,0-1.197-0.067-1.863-0.202c-1.999-0.37-2.998-1.523-2.998-3.459
				c0-0.236,0.017-0.488,0.051-0.758c0.226-1.995,2.128-2.993,5.708-2.993c0.688,0,1.445,0.038,2.271,0.114v-1.465
				c0-1.188-0.503-1.78-1.508-1.78h-0.068c-0.079-0.009-0.152-0.013-0.22-0.013c-1.096,0-1.644,0.665-1.644,1.995v0.189
				l-4.031-0.253c0-2.938,1.897-4.406,5.691-4.406H239.426z M240.849,22.604v-2.223c-0.486-0.075-0.927-0.113-1.321-0.113
				c-1.028,0-1.729,0.257-2.101,0.771c-0.227,0.312-0.339,0.602-0.339,0.871c0,0.337,0.181,0.636,0.542,0.896
				c0.282,0.202,0.649,0.303,1.101,0.303C239.307,23.109,240.013,22.941,240.849,22.604z"/>
			<path fill="#674D94" d="M246.15,21.481l3.879-0.14v0.164c0,1.297,0.536,1.953,1.609,1.97h0.067c1.039,0,1.559-0.374,1.559-1.123
				v-0.089c-0.046-0.825-1.07-1.49-3.074-1.995c-2.005-0.505-3.21-1.355-3.617-2.551c-0.146-0.421-0.22-0.824-0.22-1.212
				c0-0.707,0.242-1.364,0.729-1.97c0.745-0.926,1.874-1.456,3.388-1.591c0.406-0.034,0.802-0.051,1.186-0.051
				c1.005,0,1.892,0.131,2.659,0.392c1.051,0.361,1.778,0.88,2.186,1.553c0.271,0.463,0.406,0.977,0.406,1.541
				c0,0.27-0.028,0.547-0.085,0.833l-3.625,0.063c0.034-0.211,0.051-0.404,0.051-0.581c0-0.842-0.361-1.292-1.084-1.351
				c-0.079-0.009-0.158-0.014-0.237-0.014c-0.745,0-1.247,0.283-1.507,0.847c-0.091,0.193-0.136,0.37-0.136,0.53
				c0,0.396,0.248,0.736,0.745,1.022c0.7,0.404,1.736,0.814,3.108,1.231c1.372,0.416,2.295,1.126,2.77,2.127
				c0.169,0.379,0.254,0.758,0.254,1.137c0,0.641-0.248,1.284-0.745,1.932c-0.791,1.036-2.016,1.638-3.676,1.807
				c-0.361,0.042-0.717,0.062-1.067,0.062c-1.242,0-2.394-0.24-3.455-0.72C246.861,24.692,246.173,23.417,246.15,21.481z"/>
		</g>
		<path fill="none" stroke="#674D94" stroke-width="2" stroke-miterlimit="10" d="M288,21.581c0,6.627-5.373,12-12,12H13
			c-6.627,0-12-5.373-12-12V13C1,6.373,6.373,1,13,1h263c6.627,0,12,5.373,12,12V21.581z"/>
	</g>
</g>
</svg>
