<?xml version="1.0" encoding="utf-8"?>
<!-- Generator: Adobe Illustrator 16.0.0, SVG Export Plug-In . SVG Version: 6.00 Build 0)  -->
<!DOCTYPE svg PUBLIC "-//W3C//DTD SVG 1.1//EN" "http://www.w3.org/Graphics/SVG/1.1/DTD/svg11.dtd">
<svg version="1.1" id="Capa_1" xmlns="http://www.w3.org/2000/svg" xmlns:xlink="http://www.w3.org/1999/xlink" x="0px" y="0px"
	 width="192.653px" height="330.032px" viewBox="0 0 192.653 330.032" enable-background="new 0 0 192.653 330.032"
	 xml:space="preserve">
<g>
	<path fill-rule="evenodd" clip-rule="evenodd" fill="#331842" d="M178.972,15.391c0,6.918-6.244,12.526-13.945,12.526h-9.379
		c-7.701,0-43.282-5.608-43.282-12.526v-1.575c0-6.917,6.242-12.526,13.942-12.526h38.719c7.701,0,13.945,5.609,13.945,12.526
		V15.391z"/>
	<g>
		<path fill="#FFFFFF" d="M159.042,19.751c0-3.43,0-6.861,0-10.289c0.02-0.041,0.047-0.078,0.055-0.121
			c0.219-1.362,1.371-2.387,2.762-2.393c3.236-0.018,6.471-0.019,9.705,0c1.537,0.009,2.795,1.265,2.803,2.802
			c0.017,3.236,0.012,6.47,0,9.703c-0.002,0.703-0.254,1.322-0.733,1.853c-0.482,0.539-1.089,0.824-1.781,0.965
			c-3.43,0-6.859,0-10.289,0c-0.541-0.123-1.051-0.303-1.486-0.674C159.501,21.107,159.184,20.48,159.042,19.751z M166.708,19.738
			c1.523,0,3.043,0,4.564-0.003c0.455,0,0.562-0.106,0.562-0.557c0.004-3.042,0.004-6.084,0-9.126c0-0.469-0.104-0.573-0.582-0.573
			c-3.031-0.001-6.061-0.001-9.092,0c-0.475,0-0.58,0.104-0.58,0.575c-0.002,3.03-0.002,6.061,0,9.093c0,0.491,0.1,0.589,0.6,0.589
			C163.69,19.738,165.198,19.738,166.708,19.738z"/>
		<path fill-rule="evenodd" clip-rule="evenodd" fill="#FFFFFF" d="M166.733,12.053c1.02,0,2.041,0.001,3.062-0.003
			c0.281,0,0.512,0.067,0.658,0.327c0.156,0.277,0.088,0.513-0.084,0.753c-1.039,1.444-2.071,2.895-3.109,4.339
			c-0.324,0.453-0.787,0.445-1.117-0.011c-1.029-1.436-2.055-2.878-3.086-4.312c-0.172-0.237-0.26-0.473-0.105-0.755
			c0.148-0.273,0.391-0.344,0.684-0.341C164.667,12.055,165.7,12.053,166.733,12.053z"/>
	</g>
	<polygon fill="#00A19A" points="192.433,277.254 51.818,284.023 27.582,330.032 180.94,326.544 182.069,321.715 	"/>
	<polygon fill="#331842" points="192.653,277.091 52.072,284.533 23.32,241.201 176.249,229.211 177.86,233.903 	"/>
	<polygon fill="#331842" points="8.039,192.67 148.684,186.552 173.131,140.656 19.76,143.435 18.607,148.259 	"/>
	<polygon fill="#00A19A" points="7.816,192.833 148.433,186.042 176.983,229.505 24,240.789 22.41,236.09 	"/>
	<polygon fill="#00A19A" points="184.616,91.214 44,97.983 19.764,143.992 173.124,140.503 174.253,135.674 	"/>
	<polygon fill="#331842" points="184.837,91.051 44.254,98.492 15.504,55.161 168.433,43.17 170.044,47.862 	"/>
	<polygon fill="#00A19A" points="0,6.792 140.616,0 169.167,43.465 16.184,54.748 14.594,50.05 	"/>
	<g>
		<path fill-rule="evenodd" clip-rule="evenodd" fill="#FFFFFF" d="M114.52,13.418c-0.1-0.071-0.26-0.106-0.482-0.106h-0.446v0.914
			h0.446c0.223,0,0.375-0.04,0.478-0.114c0.112-0.074,0.157-0.19,0.157-0.351C114.672,13.607,114.627,13.495,114.52,13.418z
			 M114.52,13.418c-0.1-0.071-0.26-0.106-0.482-0.106h-0.446v0.914h0.446c0.223,0,0.375-0.04,0.478-0.114
			c0.112-0.074,0.157-0.19,0.157-0.351C114.672,13.607,114.627,13.495,114.52,13.418z M114.52,13.418
			c-0.1-0.071-0.26-0.106-0.482-0.106h-0.446v0.914h0.446c0.223,0,0.375-0.04,0.478-0.114c0.112-0.074,0.157-0.19,0.157-0.351
			C114.672,13.607,114.627,13.495,114.52,13.418z M118.5,13.58c-0.189-0.172-0.488-0.261-0.901-0.261h-0.36v2.163h0.36
			c0.414,0,0.718-0.088,0.901-0.254c0.181-0.167,0.275-0.444,0.275-0.822C118.775,14.023,118.681,13.75,118.5,13.58z M114.52,13.418
			c-0.1-0.071-0.26-0.106-0.482-0.106h-0.446v0.914h0.446c0.223,0,0.375-0.04,0.478-0.114c0.112-0.074,0.157-0.19,0.157-0.351
			C114.672,13.607,114.627,13.495,114.52,13.418z M118.5,13.58c-0.189-0.172-0.488-0.261-0.901-0.261h-0.36v2.163h0.36
			c0.414,0,0.718-0.088,0.901-0.254c0.181-0.167,0.275-0.444,0.275-0.822C118.775,14.023,118.681,13.75,118.5,13.58z M131.579,9.196
			h-20.792c-0.92,0-1.664,0.708-1.664,1.582v25.44c0,0.875,0.744,1.584,1.664,1.584H120l-0.608-0.699h-6.656
			c-0.914,0-1.66-0.709-1.66-1.585V19.198h20.468v16.319c0,0.876-0.738,1.585-1.661,1.585h-0.937l-0.557,0.699h3.189
			c0.92,0,1.658-0.709,1.658-1.584v-25.44C133.237,9.904,132.499,9.196,131.579,9.196z M115.336,14.61
			c-0.242,0.2-0.58,0.299-1.016,0.299h-0.729v1.233h-1.013v-3.478h1.674c0.472,0,0.837,0.095,1.078,0.282
			c0.248,0.188,0.367,0.464,0.367,0.827C115.697,14.131,115.578,14.41,115.336,14.61z M119.293,15.712
			c-0.354,0.286-0.885,0.43-1.596,0.43h-1.474v-3.478h1.474c0.711,0,1.242,0.147,1.596,0.432c0.355,0.293,0.529,0.727,0.529,1.309
			S119.648,15.421,119.293,15.712z M122.98,13.327h-1.553v0.809h1.439v0.656h-1.439v1.351h-1.012v-3.478h2.564V13.327z
			 M117.599,13.319h-0.36v2.163h0.36c0.414,0,0.718-0.088,0.901-0.254c0.181-0.167,0.275-0.444,0.275-0.822
			c0-0.382-0.095-0.655-0.275-0.826C118.311,13.407,118.012,13.319,117.599,13.319z M114.52,13.418
			c-0.1-0.071-0.26-0.106-0.482-0.106h-0.446v0.914h0.446c0.223,0,0.375-0.04,0.478-0.114c0.112-0.074,0.157-0.19,0.157-0.351
			C114.672,13.607,114.627,13.495,114.52,13.418z M118.5,13.58c-0.189-0.172-0.488-0.261-0.901-0.261h-0.36v2.163h0.36
			c0.414,0,0.718-0.088,0.901-0.254c0.181-0.167,0.275-0.444,0.275-0.822C118.775,14.023,118.681,13.75,118.5,13.58z M114.52,13.418
			c-0.1-0.071-0.26-0.106-0.482-0.106h-0.446v0.914h0.446c0.223,0,0.375-0.04,0.478-0.114c0.112-0.074,0.157-0.19,0.157-0.351
			C114.672,13.607,114.627,13.495,114.52,13.418z M118.5,13.58c-0.189-0.172-0.488-0.261-0.901-0.261h-0.36v2.163h0.36
			c0.414,0,0.718-0.088,0.901-0.254c0.181-0.167,0.275-0.444,0.275-0.822C118.775,14.023,118.681,13.75,118.5,13.58z M114.52,13.418
			c-0.1-0.071-0.26-0.106-0.482-0.106h-0.446v0.914h0.446c0.223,0,0.375-0.04,0.478-0.114c0.112-0.074,0.157-0.19,0.157-0.351
			C114.672,13.607,114.627,13.495,114.52,13.418z"/>
		<polygon fill-rule="evenodd" clip-rule="evenodd" fill="#FFFFFF" points="119.162,35.286 124.27,41.196 129.005,35.286 
			126.661,35.286 126.657,33.846 121.732,33.846 121.75,35.286 		"/>
		<path fill-rule="evenodd" clip-rule="evenodd" fill="#FFFFFF" d="M126.644,32.401c0,0.209-0.18,0.384-0.402,0.384h-3.984
			c-0.224,0-0.409-0.175-0.409-0.384l0,0c0-0.215,0.185-0.387,0.409-0.387h3.984C126.464,32.014,126.644,32.186,126.644,32.401
			L126.644,32.401z"/>
		<path fill-rule="evenodd" clip-rule="evenodd" fill="#FFFFFF" d="M126.644,30.844c0,0.235-0.197,0.428-0.447,0.428h-3.901
			c-0.245,0-0.446-0.193-0.446-0.428l0,0c0-0.235,0.202-0.423,0.446-0.423h3.901C126.446,30.421,126.644,30.609,126.644,30.844
			L126.644,30.844z"/>
	</g>
	<g>
		<path fill="#FFFFFF" d="M28.023,22.005h-2.98v-9.401h2.636c0.925,0,1.622,0.065,2.084,0.192c0.457,0.123,0.879,0.33,1.245,0.62
			c0.528,0.416,0.928,0.971,1.212,1.659c0.282,0.688,0.42,1.477,0.42,2.361c0,0.711-0.099,1.377-0.3,1.974
			c-0.205,0.595-0.486,1.096-0.855,1.49c-0.391,0.398-0.832,0.679-1.348,0.849C29.632,21.92,28.923,22.005,28.023,22.005z
			 M28.306,20.884c1.007,0,1.761-0.287,2.265-0.862c0.504-0.572,0.752-1.435,0.752-2.586c0-1.216-0.279-2.157-0.834-2.815
			c-0.561-0.654-1.363-0.983-2.402-0.983h-1.782v7.246H28.306z"/>
		<path fill="#FFFFFF" d="M39.732,19.901c0,0.683-0.248,1.229-0.73,1.644c-0.479,0.416-1.121,0.624-1.911,0.624
			c-1.019,0-1.794-0.283-2.322-0.845c-0.525-0.561-0.789-1.378-0.789-2.461c0-1.156,0.258-2.036,0.775-2.649
			c0.52-0.612,1.27-0.917,2.236-0.917c0.889,0,1.588,0.255,2.097,0.759c0.512,0.509,0.77,1.204,0.77,2.079
			c0,0.21-0.004,0.373-0.015,0.483c0,0.11-0.011,0.209-0.017,0.311h-4.643v0.13v0.262c0,0.617,0.158,1.097,0.479,1.435
			c0.318,0.339,0.765,0.505,1.346,0.505c0.482,0,0.865-0.118,1.146-0.363c0.285-0.248,0.43-0.573,0.435-0.995H39.732z
			 M35.246,18.078h3.381v-0.144c0-0.547-0.146-0.981-0.449-1.317c-0.301-0.331-0.689-0.501-1.168-0.501
			c-0.518,0-0.941,0.182-1.268,0.542C35.414,17.02,35.246,17.497,35.246,18.078z"/>
		<path fill="#FFFFFF" d="M41.054,20.034h1.209v0.028c0,0.357,0.129,0.644,0.384,0.861c0.25,0.218,0.586,0.322,1.008,0.322
			c0.406,0,0.735-0.092,0.992-0.288c0.248-0.191,0.377-0.436,0.377-0.738c0-0.231-0.062-0.415-0.193-0.555
			c-0.129-0.142-0.328-0.239-0.596-0.309l-1.391-0.327c-0.588-0.136-1.025-0.346-1.311-0.628c-0.285-0.285-0.428-0.646-0.428-1.077
			c0-0.602,0.239-1.085,0.727-1.458c0.49-0.366,1.129-0.557,1.928-0.557c0.732,0,1.312,0.156,1.73,0.461
			c0.432,0.31,0.641,0.73,0.641,1.264c0,0.051,0,0.092,0,0.12c0,0.025-0.012,0.054-0.012,0.075h-1.207v-0.055
			c0-0.311-0.104-0.565-0.334-0.741c-0.219-0.183-0.524-0.278-0.91-0.278c-0.383,0-0.689,0.095-0.938,0.278
			c-0.246,0.175-0.369,0.404-0.369,0.678c0,0.215,0.072,0.386,0.221,0.514c0.148,0.129,0.396,0.241,0.738,0.334l1.494,0.406
			c0.512,0.136,0.893,0.354,1.143,0.645c0.248,0.282,0.365,0.654,0.365,1.119c0,0.62-0.233,1.112-0.705,1.481
			c-0.473,0.371-1.107,0.559-1.912,0.559c-0.914,0-1.584-0.164-2.01-0.482c-0.428-0.32-0.642-0.819-0.642-1.498V20.034z"/>
		<path fill="#FFFFFF" d="M53.023,19.803c-0.055,0.766-0.297,1.347-0.73,1.754c-0.442,0.405-1.053,0.611-1.828,0.611
			c-0.928,0-1.646-0.288-2.154-0.859c-0.505-0.571-0.76-1.384-0.76-2.443c0-1.121,0.268-1.995,0.796-2.628
			c0.53-0.629,1.263-0.942,2.212-0.942c0.73,0,1.316,0.205,1.752,0.598c0.441,0.397,0.658,0.93,0.658,1.595v0.024h-1.176
			c0-0.387-0.127-0.717-0.377-0.975c-0.258-0.266-0.575-0.394-0.951-0.394c-0.508,0-0.918,0.219-1.213,0.651
			c-0.299,0.437-0.443,1.034-0.443,1.787c0,0.88,0.137,1.546,0.408,1.992c0.282,0.448,0.688,0.67,1.223,0.67
			c0.422,0,0.758-0.129,1.01-0.389c0.262-0.261,0.39-0.616,0.402-1.053H53.023z"/>
		<path fill="#FFFFFF" d="M59.707,22.005h-1.082c-0.045-0.134-0.09-0.463-0.129-0.994v-0.038c-0.164,0.388-0.426,0.683-0.789,0.888
			c-0.358,0.203-0.795,0.308-1.312,0.308c-0.668,0-1.193-0.179-1.594-0.543c-0.398-0.364-0.601-0.839-0.601-1.436
			c0-0.694,0.277-1.239,0.83-1.648c0.553-0.407,1.307-0.606,2.264-0.606h1.132v-0.797c0-0.349-0.099-0.618-0.324-0.798
			c-0.216-0.185-0.539-0.273-0.966-0.273c-0.4,0-0.721,0.101-0.956,0.299c-0.239,0.198-0.356,0.472-0.373,0.824h-1.159v-0.104
			c0-0.574,0.207-1.019,0.618-1.327c0.416-0.311,1.013-0.462,1.791-0.462c0.903,0,1.562,0.163,1.972,0.479
			c0.406,0.324,0.617,0.843,0.617,1.56v4.047c0,0.056,0.006,0.136,0.012,0.254C59.673,21.745,59.684,21.871,59.707,22.005z
			 M58.425,18.755h-1.009c-0.629,0-1.112,0.12-1.457,0.349c-0.344,0.23-0.514,0.554-0.514,0.971c0,0.318,0.115,0.586,0.348,0.792
			c0.23,0.212,0.529,0.317,0.886,0.317c0.563,0,0.995-0.152,1.304-0.454c0.301-0.301,0.443-0.743,0.443-1.323V18.755z"/>
		<path fill="#FFFFFF" d="M61.586,22.005v-5.521c0-0.212-0.002-0.401-0.008-0.559c-0.008-0.155-0.018-0.312-0.035-0.467h1.217
			l0.023,1.25c0.121-0.41,0.332-0.727,0.642-0.938c0.307-0.213,0.709-0.312,1.202-0.312c0.086,0,0.173,0.003,0.258,0.009
			c0.082,0.004,0.164,0.017,0.238,0.033v1.133c-0.129-0.028-0.25-0.049-0.363-0.064c-0.107-0.01-0.209-0.018-0.293-0.018
			c-0.538,0-0.954,0.15-1.248,0.458c-0.285,0.306-0.436,0.744-0.436,1.313v3.682H61.586z"/>
		<path fill="#FFFFFF" d="M70.877,20.762c-0.127,0.26-0.379,0.48-0.756,0.671c-0.379,0.182-0.777,0.277-1.186,0.277
			c-0.926,0-1.632-0.274-2.121-0.826c-0.498-0.55-0.74-1.34-0.74-2.378c0-0.974,0.248-1.754,0.758-2.33
			c0.502-0.579,1.181-0.867,2.037-0.867c0.508,0,0.937,0.078,1.285,0.242c0.346,0.157,0.619,0.396,0.811,0.714l0.047-0.807h1.137
			c-0.018,0.183-0.033,0.367-0.039,0.546c-0.011,0.177-0.015,0.385-0.015,0.613v5.178c0,0.978-0.241,1.693-0.729,2.134
			c-0.488,0.451-1.26,0.678-2.317,0.678c-0.917,0-1.585-0.18-2.007-0.525c-0.418-0.352-0.633-0.907-0.639-1.667h1.305
			c0.004,0.436,0.131,0.767,0.379,0.994c0.246,0.23,0.613,0.347,1.087,0.347c0.579,0,1.007-0.144,1.286-0.43
			c0.281-0.285,0.418-0.729,0.418-1.331V20.762z M71.023,18.443c0-0.703-0.168-1.27-0.504-1.685
			c-0.339-0.419-0.791-0.633-1.346-0.633c-0.564,0-1.005,0.231-1.335,0.678c-0.334,0.454-0.499,1.065-0.499,1.84
			c0,0.706,0.173,1.266,0.509,1.682c0.329,0.413,0.776,0.624,1.347,0.624c0.553,0,0.994-0.225,1.33-0.673
			C70.859,19.824,71.023,19.218,71.023,18.443z"/>
		<path fill="#FFFFFF" d="M79.201,22.005h-1.082c-0.039-0.134-0.082-0.463-0.129-0.994v-0.038c-0.166,0.388-0.426,0.683-0.787,0.888
			c-0.358,0.203-0.797,0.308-1.315,0.308c-0.664,0-1.194-0.179-1.591-0.543c-0.402-0.364-0.604-0.839-0.604-1.436
			c0-0.694,0.283-1.239,0.83-1.648c0.553-0.407,1.303-0.606,2.266-0.606h1.139v-0.797c0-0.349-0.113-0.618-0.331-0.798
			c-0.22-0.185-0.536-0.273-0.962-0.273c-0.404,0-0.729,0.101-0.967,0.299c-0.234,0.198-0.355,0.472-0.37,0.824h-1.152v-0.104
			c0-0.574,0.202-1.019,0.616-1.327c0.415-0.311,1.013-0.462,1.786-0.462c0.903,0,1.563,0.163,1.977,0.479
			c0.41,0.324,0.612,0.843,0.612,1.56v4.047c0,0.056,0.009,0.136,0.015,0.254C79.162,21.745,79.179,21.871,79.201,22.005z
			 M77.928,18.755h-1.021c-0.623,0-1.113,0.12-1.449,0.349c-0.348,0.23-0.52,0.554-0.52,0.971c0,0.318,0.116,0.586,0.354,0.792
			c0.234,0.212,0.527,0.317,0.882,0.317c0.567,0,1-0.152,1.299-0.454c0.305-0.301,0.455-0.743,0.455-1.323V18.755z"/>
		<path fill="#FFFFFF" d="M81.086,22.005v-5.521c0-0.212-0.006-0.401-0.016-0.559c-0.006-0.155-0.015-0.312-0.027-0.467h1.213
			l0.02,1.25c0.123-0.41,0.336-0.727,0.643-0.938c0.311-0.213,0.713-0.312,1.203-0.312c0.09,0,0.172,0.003,0.256,0.009
			c0.084,0.004,0.16,0.017,0.24,0.033v1.133c-0.135-0.028-0.254-0.049-0.365-0.064c-0.105-0.01-0.205-0.018-0.291-0.018
			c-0.539,0-0.955,0.15-1.246,0.458c-0.292,0.306-0.439,0.744-0.439,1.313v3.682H81.086z"/>
		<path fill="#FFFFFF" d="M43.484,33.791v-8.876h3.094c0.97,0,1.695,0.203,2.174,0.606c0.477,0.413,0.714,1.021,0.714,1.837
			c0,0.872-0.279,1.515-0.832,1.928c-0.562,0.406-1.439,0.613-2.639,0.613h-1.328v3.892H43.484z M46.381,28.8
			c0.656,0,1.125-0.112,1.41-0.332c0.281-0.226,0.422-0.586,0.422-1.084c0-0.518-0.137-0.89-0.42-1.112
			c-0.281-0.219-0.75-0.334-1.412-0.334h-1.713V28.8H46.381z"/>
		<path fill="#FFFFFF" d="M53.724,33.791h-2.81v-8.876h2.488c0.869,0,1.523,0.062,1.963,0.183c0.433,0.114,0.828,0.311,1.174,0.583
			c0.5,0.395,0.879,0.917,1.142,1.568c0.271,0.648,0.401,1.393,0.401,2.227c0,0.673-0.096,1.298-0.289,1.862
			c-0.186,0.566-0.455,1.034-0.805,1.404c-0.363,0.375-0.785,0.647-1.269,0.804C55.244,33.708,54.574,33.791,53.724,33.791z
			 M53.992,32.727c0.949,0,1.662-0.27,2.133-0.81c0.479-0.541,0.711-1.352,0.711-2.442c0-1.15-0.262-2.036-0.786-2.657
			c-0.531-0.617-1.288-0.928-2.267-0.928h-1.685v6.836H53.992z"/>
		<path fill="#FFFFFF" d="M59.752,33.791v-8.876h5.162v1.069h-3.977v2.718h3.766v1.057h-3.766v4.033H59.752z"/>
	</g>
	<g>
		<path fill="#FFFFFF" d="M56.724,118.658v-1.149l4.151-0.004v3.634c-0.635,0.508-1.291,0.891-1.973,1.145
			c-0.674,0.258-1.371,0.384-2.082,0.384c-0.965,0-1.838-0.207-2.623-0.617c-0.789-0.416-1.381-1.009-1.783-1.789
			c-0.401-0.778-0.6-1.65-0.6-2.613c0-0.953,0.197-1.844,0.598-2.671c0.398-0.827,0.973-1.44,1.72-1.842
			c0.749-0.401,1.61-0.599,2.587-0.599c0.709,0,1.349,0.111,1.92,0.344c0.575,0.228,1.022,0.548,1.349,0.958
			c0.324,0.41,0.572,0.945,0.74,1.605l-1.17,0.319c-0.146-0.499-0.328-0.89-0.547-1.176c-0.221-0.287-0.533-0.515-0.936-0.685
			c-0.406-0.173-0.854-0.257-1.353-0.257c-0.589,0-1.101,0.089-1.532,0.27c-0.436,0.181-0.783,0.418-1.049,0.711
			c-0.267,0.296-0.47,0.617-0.617,0.971c-0.252,0.604-0.375,1.263-0.375,1.969c0,0.876,0.152,1.606,0.453,2.193
			c0.299,0.59,0.736,1.026,1.312,1.312c0.572,0.285,1.185,0.428,1.83,0.428c0.562,0,1.109-0.11,1.644-0.326
			c0.536-0.215,0.942-0.446,1.218-0.689v-1.826H56.724z"/>
		<path fill="#FFFFFF" d="M62.605,122.503v-9.798h1.205v9.798H62.605z"/>
		<path fill="#FFFFFF" d="M65.226,118.953c0-1.315,0.365-2.289,1.1-2.921c0.609-0.526,1.353-0.788,2.229-0.788
			c0.976,0,1.772,0.319,2.394,0.957c0.619,0.641,0.928,1.524,0.928,2.652c0,0.911-0.135,1.631-0.411,2.154
			c-0.273,0.524-0.675,0.931-1.197,1.219c-0.523,0.292-1.094,0.436-1.714,0.436c-0.993,0-1.796-0.318-2.409-0.958
			C65.533,121.07,65.226,120.15,65.226,118.953z M66.465,118.953c0,0.91,0.199,1.589,0.596,2.042
			c0.395,0.452,0.896,0.679,1.495,0.679s1.095-0.229,1.489-0.684c0.396-0.456,0.595-1.147,0.595-2.079
			c0-0.877-0.198-1.542-0.595-1.993c-0.398-0.452-0.896-0.681-1.489-0.681c-0.599,0-1.101,0.226-1.495,0.675
			C66.664,117.363,66.465,118.043,66.465,118.953z"/>
		<path fill="#FFFFFF" d="M72.804,120.384l1.192-0.189c0.068,0.478,0.254,0.843,0.557,1.096c0.309,0.254,0.736,0.382,1.283,0.382
			c0.551,0,0.961-0.114,1.229-0.338c0.266-0.226,0.402-0.489,0.402-0.793c0-0.271-0.12-0.485-0.353-0.641
			c-0.166-0.109-0.576-0.243-1.232-0.409c-0.881-0.222-1.494-0.415-1.833-0.576c-0.341-0.163-0.601-0.389-0.777-0.677
			c-0.177-0.282-0.264-0.604-0.264-0.953c0-0.316,0.073-0.606,0.216-0.877c0.147-0.271,0.343-0.493,0.593-0.67
			c0.186-0.138,0.443-0.256,0.766-0.355c0.324-0.093,0.668-0.14,1.039-0.14c0.558,0,1.049,0.078,1.467,0.239
			c0.418,0.163,0.732,0.378,0.932,0.652c0.2,0.274,0.338,0.642,0.414,1.102l-1.176,0.159c-0.052-0.365-0.207-0.651-0.462-0.857
			c-0.258-0.202-0.617-0.306-1.088-0.306c-0.553,0-0.947,0.091-1.184,0.273c-0.232,0.182-0.352,0.396-0.352,0.64
			c0,0.157,0.051,0.299,0.145,0.421c0.1,0.129,0.252,0.238,0.463,0.321c0.121,0.046,0.477,0.149,1.065,0.31
			c0.847,0.228,1.444,0.414,1.778,0.558c0.336,0.145,0.603,0.354,0.795,0.63c0.188,0.278,0.285,0.622,0.285,1.033
			c0,0.399-0.119,0.777-0.352,1.13c-0.236,0.354-0.572,0.627-1.013,0.821c-0.441,0.195-0.941,0.293-1.493,0.293
			c-0.927,0-1.628-0.194-2.11-0.575C73.248,121.705,72.939,121.136,72.804,120.384z"/>
		<path fill="#FFFFFF" d="M84.765,121.626c-0.446,0.378-0.877,0.646-1.289,0.804c-0.41,0.153-0.853,0.232-1.324,0.232
			c-0.779,0-1.381-0.19-1.799-0.571c-0.423-0.382-0.63-0.869-0.63-1.461c0-0.347,0.077-0.664,0.237-0.954
			c0.158-0.286,0.367-0.518,0.623-0.688c0.257-0.174,0.545-0.308,0.863-0.396c0.24-0.062,0.594-0.124,1.07-0.182
			c0.971-0.115,1.69-0.254,2.149-0.413c0.004-0.165,0.004-0.269,0.004-0.315c0-0.49-0.111-0.833-0.342-1.035
			c-0.307-0.272-0.762-0.41-1.367-0.41c-0.569,0-0.985,0.099-1.254,0.296c-0.27,0.201-0.473,0.551-0.6,1.055l-1.177-0.161
			c0.108-0.503,0.284-0.91,0.528-1.22c0.25-0.308,0.602-0.548,1.064-0.713c0.465-0.167,1-0.25,1.611-0.25
			c0.605,0,1.096,0.073,1.475,0.213c0.381,0.144,0.66,0.323,0.838,0.537c0.178,0.217,0.303,0.49,0.373,0.82
			c0.041,0.206,0.059,0.577,0.059,1.109v1.604c0,1.12,0.027,1.827,0.078,2.12c0.049,0.299,0.154,0.583,0.303,0.856h-1.254
			C84.879,122.253,84.798,121.959,84.765,121.626z M84.666,118.938c-0.438,0.178-1.092,0.328-1.967,0.455
			c-0.494,0.073-0.844,0.152-1.051,0.242c-0.201,0.086-0.363,0.219-0.475,0.391c-0.111,0.17-0.164,0.36-0.164,0.57
			c0,0.32,0.121,0.589,0.363,0.803s0.596,0.32,1.066,0.32c0.463,0,0.875-0.101,1.234-0.303c0.364-0.206,0.627-0.481,0.795-0.833
			c0.13-0.269,0.197-0.672,0.197-1.202V118.938z"/>
		<path fill="#FFFFFF" d="M87.73,122.503v-7.1h1.084v1.076c0.277-0.504,0.53-0.833,0.764-0.996c0.234-0.162,0.494-0.239,0.775-0.239
			c0.404,0,0.814,0.13,1.234,0.387l-0.415,1.116c-0.294-0.174-0.589-0.262-0.882-0.262c-0.264,0-0.498,0.08-0.709,0.239
			c-0.209,0.158-0.362,0.377-0.447,0.657c-0.133,0.428-0.201,0.897-0.201,1.403v3.719H87.73z"/>
		<path fill="#FFFFFF" d="M92.311,114.088v-1.383h1.201v1.383H92.311z M92.311,122.503v-7.1h1.201v7.1H92.311z"/>
		<path fill="#FFFFFF" d="M94.896,118.953c0-1.315,0.365-2.289,1.096-2.921c0.611-0.526,1.354-0.788,2.234-0.788
			c0.977,0,1.773,0.319,2.391,0.957c0.619,0.641,0.928,1.524,0.928,2.652c0,0.911-0.135,1.631-0.41,2.154
			c-0.273,0.524-0.672,0.931-1.193,1.219c-0.523,0.292-1.097,0.436-1.715,0.436c-0.996,0-1.801-0.318-2.41-0.958
			C95.203,121.07,94.896,120.15,94.896,118.953z M96.132,118.953c0,0.91,0.198,1.589,0.594,2.042c0.396,0.452,0.896,0.679,1.5,0.679
			c0.594,0,1.092-0.229,1.488-0.684c0.396-0.456,0.596-1.147,0.596-2.079c0-0.877-0.199-1.542-0.6-1.993
			c-0.398-0.452-0.893-0.681-1.484-0.681c-0.604,0-1.104,0.226-1.5,0.675C96.33,117.363,96.132,118.043,96.132,118.953z"/>
	</g>
	<g>
		<path fill="#FFFFFF" d="M28.298,169.401v-8.847h3.319c0.678,0,1.219,0.089,1.627,0.268c0.408,0.18,0.729,0.457,0.959,0.827
			c0.23,0.374,0.347,0.763,0.347,1.168c0,0.378-0.105,0.734-0.306,1.068c-0.207,0.334-0.518,0.604-0.93,0.808
			c0.534,0.158,0.945,0.425,1.232,0.805c0.287,0.376,0.434,0.823,0.434,1.337c0,0.415-0.091,0.801-0.266,1.156
			c-0.172,0.356-0.391,0.631-0.648,0.824c-0.256,0.194-0.578,0.338-0.968,0.438c-0.386,0.098-0.864,0.147-1.427,0.147H28.298z
			 M29.469,164.271h1.914c0.52,0,0.891-0.033,1.118-0.102c0.297-0.086,0.52-0.235,0.673-0.439c0.151-0.207,0.223-0.462,0.223-0.772
			c0-0.293-0.068-0.553-0.209-0.776c-0.141-0.223-0.344-0.377-0.605-0.46s-0.709-0.123-1.344-0.123h-1.77V164.271z M29.469,168.357
			h2.203c0.378,0,0.645-0.015,0.797-0.042c0.268-0.049,0.494-0.129,0.676-0.242c0.182-0.113,0.328-0.278,0.445-0.491
			c0.118-0.217,0.178-0.464,0.178-0.747c0-0.328-0.086-0.615-0.254-0.861c-0.169-0.241-0.405-0.412-0.704-0.512
			c-0.301-0.097-0.732-0.146-1.294-0.146h-2.046V168.357z"/>
		<path fill="#FFFFFF" d="M36.459,161.803v-1.25h1.088v1.25H36.459z M36.459,169.401v-6.412h1.088v6.412H36.459z"/>
		<path fill="#FFFFFF" d="M40.199,169.401h-1.01v-8.847h1.088v3.156c0.457-0.574,1.045-0.864,1.756-0.864
			c0.395,0,0.77,0.081,1.123,0.239c0.35,0.159,0.639,0.384,0.867,0.67c0.225,0.288,0.404,0.633,0.53,1.042
			c0.13,0.405,0.194,0.841,0.194,1.306c0,1.095-0.274,1.944-0.812,2.543c-0.546,0.602-1.197,0.9-1.957,0.9
			c-0.756,0-1.352-0.317-1.779-0.948V169.401z M40.188,166.147c0,0.77,0.105,1.324,0.314,1.667c0.342,0.561,0.802,0.837,1.386,0.837
			c0.476,0,0.886-0.206,1.231-0.617c0.346-0.413,0.519-1.027,0.519-1.845c0-0.835-0.165-1.454-0.498-1.851
			c-0.329-0.399-0.731-0.597-1.202-0.597c-0.477,0-0.887,0.206-1.232,0.618C40.361,164.771,40.188,165.367,40.188,166.147z"/>
		<path fill="#FFFFFF" d="M46.047,169.401v-8.847h1.084v8.847H46.047z"/>
		<path fill="#FFFFFF" d="M48.824,161.803v-1.25h1.084v1.25H48.824z M48.824,169.401v-6.412h1.084v6.412H48.824z"/>
		<path fill="#FFFFFF" d="M51.16,166.197c0-1.188,0.328-2.066,0.986-2.637c0.551-0.475,1.223-0.714,2.016-0.714
			c0.885,0,1.601,0.29,2.16,0.869c0.559,0.575,0.84,1.374,0.84,2.392c0,0.824-0.123,1.472-0.371,1.944
			c-0.248,0.474-0.605,0.84-1.08,1.103c-0.475,0.261-0.988,0.392-1.549,0.392c-0.897,0-1.623-0.288-2.176-0.865
			C51.434,168.106,51.16,167.279,51.16,166.197z M52.273,166.197c0,0.82,0.18,1.434,0.537,1.844c0.359,0.409,0.809,0.61,1.352,0.61
			c0.539,0,0.99-0.206,1.348-0.614c0.355-0.412,0.535-1.038,0.535-1.88c0-0.791-0.182-1.39-0.539-1.798
			c-0.361-0.408-0.807-0.614-1.344-0.614c-0.543,0-0.992,0.204-1.352,0.609C52.453,164.762,52.273,165.375,52.273,166.197z"/>
		<path fill="#FFFFFF" d="M58.236,169.933l1.055,0.158c0.045,0.322,0.166,0.562,0.369,0.71c0.269,0.202,0.637,0.301,1.104,0.301
			c0.498,0,0.89-0.099,1.163-0.301c0.273-0.204,0.459-0.483,0.557-0.843c0.057-0.225,0.082-0.688,0.078-1.396
			c-0.475,0.559-1.068,0.839-1.773,0.839c-0.881,0-1.565-0.319-2.047-0.955c-0.482-0.633-0.723-1.396-0.723-2.288
			c0-0.61,0.109-1.17,0.329-1.69c0.224-0.516,0.546-0.916,0.964-1.197c0.42-0.281,0.918-0.424,1.482-0.424
			c0.755,0,1.378,0.307,1.867,0.917v-0.774h1.004v5.544c0,0.996-0.1,1.705-0.305,2.121c-0.201,0.417-0.522,0.743-0.963,0.984
			c-0.441,0.245-0.984,0.364-1.629,0.364c-0.764,0-1.383-0.173-1.852-0.517C58.447,171.141,58.22,170.626,58.236,169.933z
			 M59.137,166.083c0,0.841,0.162,1.453,0.498,1.841c0.334,0.384,0.752,0.578,1.255,0.578c0.498,0,0.921-0.19,1.257-0.575
			c0.338-0.386,0.506-0.987,0.506-1.81c0-0.782-0.172-1.374-0.521-1.773c-0.35-0.396-0.768-0.598-1.256-0.598
			c-0.487,0-0.895,0.198-1.235,0.589C59.303,164.725,59.137,165.311,59.137,166.083z"/>
		<path fill="#FFFFFF" d="M65.297,169.401v-6.412h0.979v0.974c0.248-0.455,0.479-0.755,0.689-0.899
			c0.213-0.146,0.445-0.218,0.697-0.218c0.367,0,0.738,0.119,1.115,0.351l-0.373,1.007c-0.265-0.155-0.529-0.234-0.795-0.234
			c-0.236,0-0.453,0.071-0.64,0.214c-0.192,0.142-0.325,0.343-0.405,0.595c-0.123,0.385-0.182,0.808-0.182,1.266v3.356H65.297z"/>
		<path fill="#FFFFFF" d="M73.607,168.611c-0.404,0.34-0.789,0.582-1.164,0.723c-0.371,0.142-0.771,0.212-1.197,0.212
			c-0.703,0-1.246-0.171-1.623-0.517c-0.377-0.342-0.569-0.784-0.569-1.316c0-0.314,0.075-0.602,0.216-0.862
			c0.143-0.259,0.329-0.465,0.562-0.625c0.232-0.155,0.49-0.274,0.781-0.354c0.211-0.059,0.535-0.11,0.963-0.166
			c0.881-0.104,1.527-0.228,1.938-0.372c0.007-0.148,0.007-0.243,0.007-0.284c0-0.442-0.102-0.754-0.305-0.934
			c-0.281-0.247-0.693-0.371-1.24-0.371c-0.513,0-0.89,0.092-1.131,0.269c-0.239,0.181-0.421,0.498-0.541,0.952l-1.06-0.145
			c0.095-0.454,0.256-0.821,0.476-1.102c0.222-0.279,0.542-0.496,0.959-0.646c0.42-0.149,0.905-0.228,1.456-0.228
			c0.544,0,0.99,0.067,1.334,0.195c0.34,0.129,0.592,0.288,0.754,0.486c0.16,0.193,0.273,0.44,0.338,0.738
			c0.038,0.185,0.053,0.518,0.053,1.001v1.449c0,1.01,0.024,1.648,0.07,1.916c0.045,0.268,0.137,0.522,0.273,0.77h-1.135
			C73.711,169.178,73.637,168.913,73.607,168.611z M73.515,166.186c-0.394,0.16-0.985,0.294-1.772,0.409
			c-0.447,0.063-0.764,0.138-0.949,0.218c-0.184,0.082-0.327,0.197-0.428,0.351c-0.101,0.155-0.149,0.328-0.149,0.517
			c0,0.29,0.108,0.532,0.329,0.723c0.218,0.194,0.539,0.291,0.962,0.291c0.418,0,0.79-0.09,1.114-0.274s0.568-0.434,0.72-0.752
			c0.118-0.246,0.173-0.606,0.173-1.086V166.186z"/>
		<path fill="#FFFFFF" d="M76.559,169.401v-5.564h-0.964v-0.848h0.964v-0.679c0-0.43,0.036-0.75,0.113-0.958
			c0.105-0.281,0.287-0.513,0.552-0.686c0.265-0.175,0.632-0.262,1.106-0.262c0.307,0,0.644,0.034,1.014,0.107l-0.163,0.947
			c-0.226-0.04-0.438-0.06-0.638-0.06c-0.33,0-0.564,0.071-0.704,0.213c-0.134,0.139-0.203,0.403-0.203,0.792v0.586h1.248v0.848
			h-1.248v5.564H76.559z"/>
		<path fill="#FFFFFF" d="M80.056,162.196l0.806-1.691h1.422l-1.326,1.691H80.056z M80.111,169.401v-6.412h1.086v6.412H80.111z"/>
		<path fill="#FFFFFF" d="M87.345,168.611c-0.401,0.34-0.789,0.582-1.161,0.723c-0.373,0.142-0.77,0.212-1.197,0.212
			c-0.703,0-1.242-0.171-1.623-0.517c-0.377-0.342-0.566-0.784-0.566-1.316c0-0.314,0.072-0.602,0.215-0.862
			c0.143-0.259,0.332-0.465,0.561-0.625c0.23-0.155,0.49-0.274,0.783-0.354c0.209-0.059,0.534-0.11,0.961-0.166
			c0.877-0.104,1.523-0.228,1.939-0.372c0.006-0.148,0.009-0.243,0.009-0.284c0-0.442-0.103-0.754-0.31-0.934
			c-0.282-0.247-0.69-0.371-1.24-0.371c-0.512,0-0.885,0.092-1.127,0.269c-0.247,0.181-0.426,0.498-0.543,0.952l-1.061-0.145
			c0.096-0.454,0.256-0.821,0.477-1.102c0.22-0.279,0.543-0.496,0.961-0.646c0.416-0.149,0.9-0.228,1.453-0.228
			c0.543,0,0.99,0.067,1.332,0.195c0.341,0.129,0.596,0.288,0.754,0.486c0.162,0.193,0.275,0.44,0.339,0.738
			c0.034,0.185,0.053,0.518,0.053,1.001v1.449c0,1.01,0.025,1.648,0.07,1.916c0.045,0.268,0.139,0.522,0.274,0.77h-1.131
			C87.451,169.178,87.379,168.913,87.345,168.611z M87.256,166.186c-0.396,0.16-0.984,0.294-1.773,0.409
			c-0.447,0.063-0.763,0.138-0.947,0.218c-0.187,0.082-0.33,0.197-0.43,0.351c-0.102,0.155-0.152,0.328-0.152,0.517
			c0,0.29,0.109,0.532,0.33,0.723c0.219,0.194,0.541,0.291,0.965,0.291c0.416,0,0.789-0.09,1.115-0.274
			c0.324-0.184,0.562-0.434,0.719-0.752c0.115-0.246,0.174-0.606,0.174-1.086V166.186z"/>
	</g>
	<g>
		<path fill-rule="evenodd" clip-rule="evenodd" fill="#FFFFFF" d="M141.049,171.319c0,0.85,0,1.583,0,2.411
			c-0.334,0.018-0.65,0.047-0.966,0.047c-8.627,0.002-17.253,0.084-25.878-0.042c-3.221-0.047-3.459,2.024-2.912,4.181
			c0.148,0.587,0.906,1.215,1.523,1.441c0.869,0.316,1.869,0.365,2.812,0.369c8.059,0.025,16.118,0.014,24.177,0.014
			c0.385,0,0.77,0,1.223,0c0,0.824,0,1.579,0,2.414c-0.354,0.016-0.674,0.043-0.992,0.043c-8.207,0.003-16.415,0.024-24.624-0.022
			c-1.231-0.007-2.504-0.204-3.684-0.561c-1.906-0.573-2.914-2.025-3.053-3.988c-0.066-0.969-0.023-1.979,0.18-2.924
			c0.455-2.111,1.977-3.302,4.152-3.371c1.252-0.039,2.505-0.012,3.76-0.012c7.731,0,15.46,0,23.191,0
			C140.306,171.319,140.653,171.319,141.049,171.319z"/>
		<path fill-rule="evenodd" clip-rule="evenodd" fill="#FFFFFF" d="M111.395,169.73c0-0.785,0-1.434,0-2.224
			c0.406,0,0.779,0,1.152,0c7.463,0,14.923,0,22.386,0c0.178,0,0.357,0,0.537,0c2.355-0.005,3.287-1.224,2.697-3.524
			c-0.203-0.794-0.697-1.347-1.483-1.515c-0.75-0.162-1.531-0.249-2.298-0.252c-7.283-0.018-14.565-0.01-21.847-0.01
			c-0.354,0-0.705,0-1.119,0c0-0.75,0-1.422,0-2.183c0.312-0.015,0.628-0.043,0.945-0.043c7.521,0,15.042-0.015,22.563,0.023
			c0.938,0.005,1.904,0.189,2.799,0.475c1.367,0.434,2.379,1.413,2.537,2.853c0.139,1.27,0.115,2.631-0.193,3.862
			c-0.44,1.758-1.928,2.395-3.623,2.526c-0.682,0.053-1.371,0.012-2.057,0.012c-7.283,0-14.565,0-21.849,0
			C112.191,169.73,111.838,169.73,111.395,169.73z"/>
		<path fill-rule="evenodd" clip-rule="evenodd" fill="#FFFFFF" d="M135.786,150.292c0,0.579,0,1.138,0,1.807
			c-0.357,0-0.676,0-0.994-0.001c-6.475-0.014-12.951-0.03-19.425-0.044c-1.449-0.003-1.985,0.473-2.103,1.851
			c-0.128,1.485,0.435,2.309,1.772,2.529c0.469,0.076,0.953,0.068,1.429,0.068c6.087,0.004,12.175,0.003,18.263,0.003
			c0.322,0,0.646,0,1.033,0c0,0.653,0,1.233,0,1.939c-0.324,0-0.641,0-0.957,0c-6.088,0-12.175,0.014-18.263-0.016
			c-0.883-0.004-1.793-0.124-2.643-0.365c-1.332-0.376-2.264-1.283-2.404-2.701c-0.094-0.957-0.067-1.975,0.162-2.902
			c0.344-1.402,1.529-2.238,3.094-2.243c6.923-0.025,13.847-0.007,20.771-0.002C135.577,150.215,135.633,150.247,135.786,150.292z"
			/>
		<path fill-rule="evenodd" clip-rule="evenodd" fill="#FFFFFF" d="M139.675,178.204c-0.205,0.271-0.289,0.487-0.441,0.558
			c-0.176,0.08-0.41,0.035-0.619,0.035c-7.996,0.001-15.993,0.005-23.989-0.012c-0.35,0-0.967,0.269-0.916-0.581
			C122.314,178.204,130.892,178.204,139.675,178.204z"/>
		<path fill-rule="evenodd" clip-rule="evenodd" fill="#FFFFFF" d="M136.015,164.774c-0.168,0.156-0.324,0.334-0.514,0.463
			c-0.082,0.056-0.23,0.013-0.352,0.013c-7.191,0-14.385,0.003-21.577-0.005c-0.369-0.001-0.922,0.169-0.791-0.639
			c7.676,0,15.352,0,23.03,0C135.88,164.663,135.948,164.718,136.015,164.774z"/>
		<path fill-rule="evenodd" clip-rule="evenodd" fill="#FFFFFF" d="M124.369,163.637c-3.551,0-7.102,0-10.65,0
			c-0.238,0-0.484,0.017-0.713-0.035c-0.102-0.023-0.234-0.197-0.234-0.303c-0.002-0.107,0.129-0.285,0.23-0.307
			c0.227-0.054,0.472-0.038,0.711-0.038c7.1-0.001,14.198-0.001,21.3,0c0.207,0,0.432-0.034,0.619,0.029
			c0.124,0.041,0.241,0.221,0.27,0.357c0.014,0.074-0.154,0.247-0.26,0.268c-0.23,0.047-0.475,0.029-0.713,0.029
			C131.407,163.638,127.888,163.637,124.369,163.637z"/>
		<path fill-rule="evenodd" clip-rule="evenodd" fill="#FFFFFF" d="M135.874,166.666c-7.707,0-15.39,0-23.31,0
			c0.246-0.289,0.344-0.495,0.5-0.562c0.178-0.077,0.409-0.035,0.616-0.035c7.13,0,14.256-0.002,21.385,0.008
			C135.421,166.079,136.056,165.839,135.874,166.666z"/>
		<path fill-rule="evenodd" clip-rule="evenodd" fill="#FFFFFF" d="M139.684,176.409c-0.212,0.277-0.303,0.479-0.455,0.564
			c-0.141,0.077-0.35,0.031-0.529,0.031c-8.057,0-16.114,0.004-24.171-0.009c-0.34,0-0.935,0.233-0.793-0.586
			C122.314,176.409,130.896,176.409,139.684,176.409z"/>
		<path fill-rule="evenodd" clip-rule="evenodd" fill="#FFFFFF" d="M114.955,155.917c0.302-0.329,0.439-0.514,0.613-0.651
			c0.076-0.058,0.232-0.015,0.352-0.015c5.996-0.001,11.991-0.001,17.987,0.001c0.406,0,0.916-0.098,0.709,0.664
			C128.165,155.917,121.707,155.917,114.955,155.917z"/>
		<path fill-rule="evenodd" clip-rule="evenodd" fill="#FFFFFF" d="M126.692,174.674c3.939,0,7.879,0,11.818,0
			c0.209,0,0.434-0.043,0.623,0.019c0.153,0.05,0.26,0.231,0.389,0.354c-0.121,0.097-0.229,0.236-0.365,0.278
			c-0.164,0.049-0.355,0.017-0.533,0.017c-8,0-15.997,0-23.997-0.001c-0.209,0-0.43,0.034-0.621-0.025
			c-0.124-0.039-0.249-0.207-0.282-0.339c-0.017-0.069,0.151-0.248,0.259-0.271c0.23-0.046,0.475-0.03,0.713-0.03
			C118.695,174.674,122.693,174.674,126.692,174.674z"/>
		<path fill-rule="evenodd" clip-rule="evenodd" fill="#FFFFFF" d="M124.888,154.607c-2.95,0-5.899,0.01-8.851-0.017
			c-0.289-0.002-0.574-0.223-0.864-0.342c0.272-0.103,0.54-0.294,0.809-0.296c5.961-0.017,11.919-0.014,17.88-0.014
			c0.117,0,0.252-0.032,0.353,0.011c0.163,0.071,0.301,0.191,0.45,0.29c-0.16,0.122-0.316,0.339-0.482,0.347
			c-0.803,0.038-1.607,0.02-2.412,0.02C129.476,154.607,127.181,154.607,124.888,154.607z"/>
		<path fill-rule="evenodd" clip-rule="evenodd" fill="#FFFFFF" d="M124.895,152.687c3.007,0,6.019-0.009,9.026,0.015
			c0.248,0.001,0.496,0.225,0.742,0.345c-0.238,0.102-0.479,0.293-0.719,0.293c-6.02,0.016-12.038,0.016-18.057-0.001
			c-0.237-0.001-0.476-0.205-0.712-0.316c0.229-0.112,0.459-0.32,0.69-0.321C118.875,152.68,121.885,152.688,124.895,152.687z"/>
	</g>
	<g>
		<g>
			<path fill="#FFFFFF" d="M67.463,258.839c-0.02,0.804-0.334,1.437-0.924,1.908c-0.605,0.47-1.407,0.705-2.418,0.705
				c-1.234,0-2.178-0.402-2.823-1.197c-0.65-0.8-0.974-1.957-0.974-3.468c0-1.516,0.34-2.69,1.02-3.511
				c0.68-0.83,1.648-1.247,2.895-1.247c0.982,0,1.754,0.227,2.322,0.677c0.557,0.447,0.857,1.069,0.877,1.857h-1.293
				c-0.043-0.47-0.252-0.843-0.623-1.134c-0.371-0.29-0.83-0.431-1.4-0.431c-0.785,0-1.398,0.327-1.832,0.985
				c-0.441,0.659-0.66,1.579-0.66,2.766c0,1.165,0.219,2.061,0.648,2.697c0.432,0.636,1.047,0.958,1.844,0.958
				c0.576,0,1.039-0.14,1.393-0.415c0.35-0.28,0.543-0.664,0.587-1.15H67.463z"/>
			<path fill="#FFFFFF" d="M68.966,261.299v-5.365c0-0.207,0-0.394-0.007-0.545c-0.002-0.15-0.016-0.302-0.021-0.454h1.172
				l0.021,1.214c0.117-0.399,0.322-0.705,0.629-0.911c0.291-0.207,0.684-0.303,1.162-0.303c0.085,0,0.169,0,0.248,0.006
				c0.084,0.007,0.16,0.017,0.232,0.032v1.1c-0.127-0.023-0.24-0.045-0.352-0.056c-0.107-0.013-0.199-0.021-0.283-0.021
				c-0.527,0-0.928,0.148-1.208,0.45c-0.281,0.291-0.428,0.717-0.428,1.273v3.579H68.966z"/>
			<path fill="#FFFFFF" d="M78.918,259.254c-0.004,0.66-0.238,1.193-0.707,1.591c-0.473,0.406-1.09,0.606-1.863,0.606
				c-0.984,0-1.74-0.27-2.252-0.817c-0.512-0.549-0.764-1.341-0.764-2.394c0-1.124,0.252-1.976,0.752-2.571
				c0.505-0.591,1.232-0.889,2.17-0.889c0.865,0,1.544,0.241,2.039,0.738c0.496,0.497,0.738,1.164,0.738,2.015
				c0,0.206,0,0.363-0.004,0.474c-0.004,0.104-0.01,0.203-0.018,0.302h-4.508v0.12v0.256c0,0.606,0.15,1.07,0.459,1.392
				c0.306,0.333,0.744,0.495,1.316,0.495c0.463,0,0.838-0.118,1.105-0.358c0.28-0.234,0.416-0.554,0.432-0.96H78.918z
				 M74.561,257.481h3.281v-0.142c0-0.527-0.148-0.954-0.435-1.281c-0.291-0.321-0.674-0.48-1.129-0.48
				c-0.508,0-0.92,0.177-1.242,0.526C74.719,256.45,74.561,256.915,74.561,257.481z M75.311,254.096l1.26-2.154h1.246l-1.764,2.154
				H75.311z"/>
			<path fill="#FFFFFF" d="M85.221,261.299l-0.053-0.941c-0.293,0.385-0.602,0.666-0.926,0.838
				c-0.317,0.169-0.694,0.255-1.113,0.255c-0.873,0-1.564-0.296-2.07-0.879c-0.51-0.583-0.764-1.388-0.764-2.406
				c0-1.05,0.244-1.862,0.742-2.447c0.496-0.591,1.176-0.885,2.054-0.885c0.43,0,0.827,0.088,1.176,0.264
				c0.356,0.184,0.655,0.452,0.901,0.798v-3.733h1.168v7.866c0,0.226,0.005,0.436,0.018,0.644c0.014,0.211,0.027,0.415,0.057,0.626
				H85.221z M81.52,258.038c0,0.81,0.164,1.457,0.5,1.928c0.33,0.473,0.771,0.711,1.311,0.711c0.564,0,1.008-0.221,1.342-0.662
				c0.332-0.437,0.496-1.026,0.496-1.775c0-0.809-0.161-1.454-0.493-1.926c-0.332-0.472-0.769-0.717-1.314-0.717
				c-0.559,0-1.006,0.224-1.338,0.662C81.684,256.705,81.52,257.295,81.52,258.038z"/>
			<path fill="#FFFFFF" d="M89.584,253.462h-1.375v-1.3h1.375V253.462z M88.316,261.299v-6.363h1.172v6.363H88.316z"/>
			<path fill="#FFFFFF" d="M90.607,254.936h1.082v-1.311l1.164-0.396v1.707h1.418v0.837h-1.418v3.903
				c0,0.328,0.057,0.547,0.16,0.653c0.113,0.102,0.331,0.158,0.65,0.158c0.086,0,0.17-0.01,0.264-0.022
				c0.1-0.018,0.203-0.034,0.318-0.061v0.879c-0.191,0.05-0.365,0.087-0.518,0.111c-0.15,0.032-0.289,0.044-0.402,0.044
				c-0.604,0-1.018-0.099-1.268-0.307c-0.246-0.208-0.369-0.553-0.369-1.046v-4.312h-1.082V254.936z"/>
			<path fill="#FFFFFF" d="M95.158,258.24c0-1.066,0.279-1.907,0.849-2.521c0.567-0.621,1.336-0.926,2.317-0.926
				c0.99,0,1.762,0.285,2.308,0.863c0.551,0.573,0.825,1.379,0.825,2.407c0,1.072-0.282,1.902-0.854,2.494
				c-0.561,0.598-1.359,0.894-2.391,0.894c-0.941,0-1.693-0.289-2.24-0.859C95.43,260.015,95.158,259.23,95.158,258.24z
				 M98.324,255.635c-0.605,0-1.08,0.227-1.435,0.682c-0.351,0.456-0.528,1.077-0.528,1.857c0,0.767,0.166,1.347,0.51,1.766
				c0.336,0.411,0.816,0.618,1.427,0.618c0.616,0,1.096-0.215,1.444-0.653c0.354-0.443,0.527-1.049,0.527-1.831
				c0-0.772-0.168-1.369-0.51-1.798C99.42,255.843,98.941,255.635,98.324,255.635z"/>
			<path fill="#FFFFFF" d="M102.654,259.383h1.176v0.022c0,0.351,0.119,0.627,0.367,0.838c0.244,0.211,0.574,0.314,0.985,0.314
				c0.392,0,0.714-0.089,0.962-0.278c0.244-0.182,0.367-0.423,0.367-0.722c0-0.223-0.064-0.402-0.189-0.531
				c-0.125-0.136-0.32-0.244-0.58-0.301l-1.352-0.319c-0.568-0.133-0.994-0.338-1.273-0.612c-0.276-0.275-0.416-0.623-0.416-1.045
				c0-0.582,0.236-1.056,0.709-1.416c0.477-0.363,1.096-0.54,1.867-0.54c0.711,0,1.279,0.149,1.691,0.446
				c0.412,0.298,0.615,0.71,0.615,1.229c0,0.048,0,0.093,0,0.115c0,0.029-0.004,0.05-0.01,0.07h-1.168v-0.052
				c0-0.301-0.108-0.547-0.326-0.723c-0.217-0.173-0.516-0.263-0.889-0.263c-0.369,0-0.672,0.09-0.912,0.263
				c-0.236,0.176-0.354,0.402-0.354,0.662c0,0.214,0.065,0.374,0.211,0.5c0.146,0.13,0.387,0.238,0.717,0.322l1.447,0.397
				c0.504,0.13,0.873,0.337,1.114,0.619c0.242,0.28,0.359,0.646,0.359,1.089c0,0.608-0.23,1.084-0.691,1.443
				c-0.457,0.36-1.076,0.54-1.855,0.54c-0.887,0-1.537-0.152-1.951-0.464c-0.416-0.31-0.621-0.792-0.621-1.454V259.383z"/>
		</g>
	</g>
	<g>
		<path fill-rule="evenodd" clip-rule="evenodd" fill="#FFFFFF" d="M150.413,259.448c-0.811,0.508-1.649,0.589-2.473,0.174
			c-0.346-0.174-0.658-0.323-1.051-0.395c-0.832-0.147-1.611-1.055-1.695-1.887c-0.015-0.181,0.084-0.384,0.028-0.545
			c-0.056-0.16-0.259-0.261-0.358-0.416c-0.404-0.643-0.332-1.829,0.277-2.333c0.045-0.031,0.057-0.129,0.049-0.196
			c-0.109-0.759,0.08-1.413,0.67-1.921c0.145-0.118,0.377-0.165,0.473-0.306c0.096-0.139,0.047-0.365,0.101-0.542
			c0.194-0.587,0.567-1.005,1.182-1.182c0.056-0.017,0.137-0.063,0.156-0.116c0.338-0.955,1.85-1.166,2.568-0.415
			c0.016,0.018,0.032,0.03,0.057,0.049c0.434-0.434,0.957-0.58,1.555-0.465c0.49,0.093,0.861,0.347,1.068,0.812
			c0.023,0.056,0.074,0.112,0.127,0.125c0.865,0.264,1.252,0.881,1.307,1.746c0,0.01,0.004,0.014,0.006,0.021
			c0.92,0.46,1.301,1.205,1.145,2.216c-0.012,0.057,0.014,0.147,0.057,0.179c0.717,0.591,0.699,2.166-0.037,2.688
			c-0.034,0.023-0.065,0.094-0.057,0.138c0.164,0.826-0.248,1.41-0.816,1.917c-0.375,0.331-0.812,0.535-1.338,0.471
			c-0.047-0.003-0.117,0.015-0.149,0.054c-0.293,0.349-0.688,0.48-1.118,0.523C151.526,259.904,150.922,259.846,150.413,259.448z
			 M150.657,256.069c0,0.861,0,1.744,0,2.625c0,0.318,0.106,0.487,0.4,0.589c0.436,0.162,0.879,0.15,1.318,0.049
			c0.094-0.02,0.186-0.081,0.262-0.142c0.406-0.324,0.572-1.125,0.338-1.584c-0.13-0.253-0.447-0.416-0.697-0.357
			c-0.277,0.068-0.455,0.311-0.455,0.628c-0.004,0.064,0,0.123,0,0.194c-0.166,0.039-0.307,0.075-0.451,0.113
			c-0.256-0.637,0.248-1.425,0.92-1.462c0.77-0.04,1.35,0.595,1.289,1.413c-0.016,0.201-0.053,0.407-0.086,0.63
			c0.59-0.002,0.973-0.332,1.287-0.744c0.236-0.306,0.402-0.645,0.265-1.05c-0.136,0-0.259,0.007-0.382,0
			c-1.016-0.022-1.512-0.77-1.127-1.71c0.088-0.206,0.217-0.4,0.343-0.594c0.231-0.35,0.116-0.727-0.279-0.867
			c-0.102-0.035-0.207-0.059-0.314-0.076c-0.289-0.044-0.53,0.076-0.6,0.359c-0.062,0.229-0.084,0.481-0.053,0.715
			c0.1,0.765-0.354,1.345-1.123,1.359C151.235,256.167,150.964,256.103,150.657,256.069z M148.978,258.067c0-0.062,0-0.101,0-0.143
			c0.008-0.366-0.188-0.637-0.492-0.683c-0.299-0.042-0.623,0.175-0.713,0.5c-0.123,0.476-0.047,0.918,0.252,1.308
			c0.092,0.115,0.238,0.228,0.375,0.269c0.459,0.13,0.922,0.127,1.373-0.05c0.258-0.097,0.375-0.283,0.373-0.565
			c-0.012-0.826-0.004-1.653-0.004-2.478c0-0.06-0.008-0.127-0.012-0.196c-0.133,0.038-0.249,0.074-0.367,0.099
			c-1.021,0.218-1.779-0.407-1.576-1.407c0.033-0.162,0.008-0.341-0.021-0.512c-0.043-0.262-0.195-0.454-0.473-0.485
			c-0.314-0.038-0.615,0.037-0.806,0.306c-0.169,0.236-0.067,0.466,0.069,0.698c0.16,0.269,0.314,0.55,0.398,0.85
			c0.17,0.624-0.139,1.141-0.76,1.309c-0.264,0.076-0.547,0.08-0.855,0.115c-0.135,0.45,0.096,0.823,0.387,1.154
			c0.307,0.35,0.66,0.629,1.178,0.604c-0.033-0.239-0.072-0.453-0.086-0.669c-0.039-0.691,0.354-1.215,1.01-1.345
			c0.393-0.076,0.732,0.032,0.984,0.344c0.259,0.32,0.337,0.683,0.236,1.103C149.282,258.146,149.131,258.106,148.978,258.067z
			 M145.913,254.255c-0.666,0.317-0.834,0.61-0.777,1.337c0.053,0.625,0.423,0.929,1.041,0.856c0.564-0.069,0.814-0.454,0.609-0.981
			c-0.086-0.214-0.23-0.412-0.357-0.606c-0.293-0.452-0.249-0.92,0.152-1.281c0.34-0.312,0.748-0.403,1.199-0.334
			c0.064,0.012,0.145,0.024,0.203-0.003c0.279-0.137,0.545-0.296,0.83-0.428c0.5-0.231,0.678-0.712,0.373-1.168
			c-0.113-0.17-0.322-0.307-0.521-0.381c-0.438-0.164-0.85-0.324-0.951-0.86c-0.467,0.15-0.771,0.427-0.836,0.893
			c-0.073,0.499,0.184,0.833,0.627,1.061c-0.066,0.154-0.129,0.301-0.219,0.515c-0.295-0.24-0.557-0.457-0.836-0.686
			C145.749,252.38,145.515,253.199,145.913,254.255z M153.095,250.43c-0.205,0.495-0.307,0.592-0.836,0.784
			c-0.087,0.029-0.175,0.063-0.259,0.098c-0.307,0.118-0.459,0.355-0.514,0.666c-0.07,0.392,0.145,0.692,0.576,0.865
			c0.236,0.098,0.457,0.23,0.688,0.337c0.084,0.037,0.184,0.077,0.266,0.065c0.453-0.067,0.857,0.024,1.205,0.33
			c0.377,0.333,0.445,0.818,0.178,1.242c-0.084,0.134-0.205,0.252-0.262,0.395c-0.086,0.207-0.172,0.43-0.178,0.653
			c-0.006,0.293,0.217,0.494,0.529,0.559c0.475,0.1,0.838-0.015,1.018-0.318c0.404-0.689,0.158-1.481-0.562-1.819
			c-0.018-0.006-0.031-0.022-0.031-0.022c0.059-0.264,0.136-0.507,0.17-0.758c0.072-0.571-0.184-1.081-0.604-1.278
			c-0.123-0.058-0.199-0.061-0.285,0.067c-0.17,0.247-0.41,0.408-0.707,0.521c-0.064-0.164-0.129-0.312-0.188-0.453
			c0.504-0.3,0.704-0.667,0.625-1.105C153.845,250.843,153.511,250.506,153.095,250.43z M152.399,253.532
			c-0.146-0.062-0.277-0.116-0.406-0.174c-0.17-0.078-0.35-0.142-0.5-0.243c-0.416-0.29-0.596-0.699-0.52-1.197
			c0.082-0.508,0.316-0.903,0.854-1.051c0.125-0.032,0.25-0.075,0.365-0.132c0.488-0.234,0.543-0.764,0.1-1.082
			c-0.389-0.282-0.812-0.301-1.24-0.094c-0.26,0.129-0.395,0.351-0.395,0.646c0,1.593-0.006,3.186,0.004,4.78
			c0.002,0.538,0.068,0.594,0.617,0.625c0.041,0.003,0.084,0.003,0.129,0.003c0.557-0.005,0.771-0.271,0.697-0.822
			C152.038,254.346,152.057,253.914,152.399,253.532z M148.388,253.531c0.277,0.281,0.35,0.586,0.332,0.922
			c-0.004,0.142-0.01,0.285-0.029,0.427c-0.059,0.427,0.135,0.696,0.559,0.716c0.246,0.011,0.498-0.049,0.744-0.084
			c0.119-0.017,0.152-0.094,0.152-0.216c-0.004-1.7,0-3.399-0.012-5.097c0-0.17-0.086-0.362-0.193-0.484
			c-0.371-0.421-1.234-0.368-1.582,0.075c-0.25,0.323-0.18,0.713,0.184,0.91c0.162,0.09,0.341,0.141,0.52,0.199
			c0.312,0.105,0.523,0.316,0.65,0.614c0.322,0.772,0.014,1.502-0.771,1.801C148.771,253.381,148.595,253.45,148.388,253.531z"/>
		<path fill-rule="evenodd" clip-rule="evenodd" fill="#FFFFFF" d="M158.36,254.45c0,4.46-3.613,8.076-8.078,8.076
			c-4.463,0-8.08-3.616-8.08-8.076c0-4.465,3.617-8.083,8.08-8.083C154.747,246.367,158.36,249.984,158.36,254.45z M160.157,254.45
			c0-5.458-4.42-9.876-9.875-9.876c-5.453,0-9.875,4.418-9.875,9.876c0,4.095,2.492,7.605,6.043,9.102
			c0.006,0.002,0.963,1.116,1.002,1.918c0.039,0.803,0,1.072,0,1.072h5.588c0,0-0.184-0.977,0.269-1.913
			c0.219-0.449,0.417-0.774,0.571-0.992C157.554,262.197,160.157,258.631,160.157,254.45z"/>
		<path fill-rule="evenodd" clip-rule="evenodd" fill="#FFFFFF" d="M150.358,269.393c0.721,0,1.451-0.066,2.158,0.029
			c0.332,0.044,0.848,0.363,0.879,0.609c0.039,0.307-0.309,0.686-0.537,0.999c-0.195,0.267-0.479,0.467-0.689,0.726
			c-0.85,1.046-2.277,1.26-3.35,0.444c-0.559-0.426-1.094-0.9-1.566-1.419c-0.168-0.184-0.247-0.641-0.135-0.842
			c0.14-0.25,0.512-0.49,0.801-0.515c0.809-0.069,1.625-0.023,2.439-0.023C150.358,269.397,150.358,269.396,150.358,269.393z"/>
		<path fill-rule="evenodd" clip-rule="evenodd" fill="#FFFFFF" d="M150.226,268.674c-0.719,0-1.436,0.01-2.154-0.002
			c-0.549-0.01-1.024-0.188-1.037-0.828c-0.012-0.652,0.445-0.818,1.012-0.816c1.498,0.005,2.998,0.006,4.496,0
			c0.551-0.002,1.014,0.243,0.908,0.786c-0.067,0.332-0.543,0.763-0.891,0.821C151.802,268.758,151.006,268.671,150.226,268.674z"/>
		<path fill-rule="evenodd" clip-rule="evenodd" fill="#FFFFFF" d="M139.585,250.042c-0.766-0.442-1.385-0.8-2.152-1.246
			c0.404-0.701,0.773-1.346,1.225-2.132c0.756,0.453,1.433,0.858,2.15,1.287C140.392,248.665,140.028,249.286,139.585,250.042z"/>
		<path fill-rule="evenodd" clip-rule="evenodd" fill="#FFFFFF" d="M159.866,247.93c0.785-0.448,1.412-0.806,2.162-1.235
			c0.418,0.688,0.809,1.333,1.268,2.088c-0.721,0.428-1.375,0.814-2.135,1.267C160.739,249.358,160.343,248.712,159.866,247.93z"/>
		<path fill-rule="evenodd" clip-rule="evenodd" fill="#FFFFFF" d="M142.177,243.158c0.753-0.444,1.369-0.805,2.104-1.239
			c0.435,0.731,0.82,1.375,1.276,2.143c-0.722,0.434-1.364,0.818-2.112,1.266C143.019,244.6,142.636,243.946,142.177,243.158z"/>
		<path fill-rule="evenodd" clip-rule="evenodd" fill="#FFFFFF" d="M158.538,243.14c-0.467,0.793-0.838,1.422-1.266,2.148
			c-0.719-0.409-1.375-0.784-2.111-1.205c0.422-0.738,0.781-1.367,1.225-2.142C157.098,242.338,157.753,242.702,158.538,243.14z"/>
		<path fill-rule="evenodd" clip-rule="evenodd" fill="#FFFFFF" d="M136.278,253.758c0.752,0,1.467,0,2.273,0
			c0,0.722,0,1.424,0,2.212c-0.752,0-1.465,0-2.273,0C136.278,255.23,136.278,254.529,136.278,253.758z"/>
		<path fill-rule="evenodd" clip-rule="evenodd" fill="#FFFFFF" d="M149.286,240.698c0.783,0,1.463,0,2.23,0c0,0.777,0,1.49,0,2.315
			c-0.703,0-1.414,0-2.23,0C149.286,242.305,149.286,241.557,149.286,240.698z"/>
		<path fill-rule="evenodd" clip-rule="evenodd" fill="#FFFFFF" d="M162.188,255.938c0-0.718,0-1.388,0-2.154
			c0.752,0,1.502,0,2.332,0c0,0.699,0,1.37,0,2.154C163.769,255.938,163.021,255.938,162.188,255.938z"/>
		<path fill-rule="evenodd" clip-rule="evenodd" fill="#FFFFFF" d="M138.646,263.041c-0.432-0.762-0.789-1.387-1.219-2.146
			c0.713-0.411,1.373-0.791,2.171-1.25c0.354,0.762,0.671,1.443,1.032,2.226C139.989,262.247,139.405,262.591,138.646,263.041z"/>
		<path fill-rule="evenodd" clip-rule="evenodd" fill="#FFFFFF" d="M162.069,263.013c-0.686-0.387-1.268-0.715-1.969-1.111
			c0.314-0.752,0.602-1.436,0.958-2.287c0.793,0.46,1.473,0.855,2.219,1.288C162.848,261.653,162.473,262.305,162.069,263.013z"/>
	</g>
	<g>
		<g>
			<path fill="#FFFFFF" d="M146.604,207.55c0,1,0,2.001,0,3.001c-0.066,0.403-0.133,0.808-0.193,1.212
				c-1.112,7.204-6.838,11.671-12.232,12.874c-0.736,0.163-1.49,0.271-2.236,0.405c-0.914,0-1.832,0-2.75,0
				c-0.279-0.05-0.562-0.109-0.846-0.147c-6.435-0.907-11.83-5.836-13.317-12.188c-0.168-0.741-0.275-1.493-0.41-2.241
				c0-0.939,0-1.886,0-2.831c0.025-0.058,0.062-0.119,0.072-0.184c0.508-4.684,2.717-8.416,6.396-11.281
				c3.511-2.734,7.554-3.52,11.89-2.952c6.453,0.838,11.781,5.728,13.211,12.066C146.354,206.032,146.462,206.794,146.604,207.55z
				 M130.628,222.083c6.044,0.094,13.111-4.787,13.082-12.91c-0.027-7.382-5.729-13.139-12.99-13.233
				c-7.968-0.098-13.257,6.9-13.212,13.067C117.566,216.155,123.466,222.083,130.628,222.083z"/>
			<path fill-rule="evenodd" clip-rule="evenodd" fill="#FFFFFF" d="M128.503,210.495c0.674,0.344,1.311,0.669,1.984,1.006
				c-0.715,1.288-1.752,2.085-3.15,2.417c-2.156,0.502-4.396-0.435-5.292-2.261c-0.666-1.346-0.701-2.782-0.354-4.22
				c0.301-1.227,1.021-2.143,2.1-2.774c1.771-1.042,5.296-0.902,6.655,1.741c-0.705,0.365-1.406,0.733-2.014,1.048
				c-0.436-0.375-0.773-0.779-1.197-1.017c-0.936-0.508-2.101-0.09-2.512,0.886c-0.462,1.088-0.459,2.211-0.032,3.321
				c0.297,0.754,0.871,1.174,1.679,1.222c0.85,0.047,1.516-0.273,1.951-1.025C128.37,210.745,128.421,210.65,128.503,210.495z"/>
			<path fill-rule="evenodd" clip-rule="evenodd" fill="#FFFFFF" d="M139.665,206.405c-0.697,0.369-1.381,0.731-2.092,1.11
				c-0.113-0.17-0.213-0.333-0.328-0.481c-0.443-0.59-1.037-0.86-1.77-0.786c-0.77,0.074-1.338,0.463-1.602,1.205
				c-0.352,1.013-0.369,2.037-0.014,3.058c0.283,0.807,0.846,1.295,1.717,1.353c0.879,0.056,1.562-0.291,1.996-1.083
				c0.041-0.072,0.082-0.146,0.127-0.212c0.004-0.015,0.02-0.019,0.062-0.051c0.635,0.314,1.285,0.635,1.971,0.98
				c-0.729,1.275-1.752,2.124-3.156,2.409c-1.842,0.352-3.518,0.018-4.793-1.484c-0.85-1.013-1.053-2.235-1.043-3.509
				c0.02-1.075,0.242-2.104,0.892-2.984c1.059-1.433,2.528-1.963,4.258-1.848c1.514,0.105,2.76,0.68,3.602,1.995
				C139.552,206.173,139.599,206.268,139.665,206.405z"/>
		</g>
	</g>
	<g>
		<g>
			<path fill="#FFFFFF" d="M48.086,205.329c-0.018,0.802-0.324,1.441-0.922,1.909c-0.602,0.472-1.404,0.715-2.422,0.715
				c-1.23,0-2.18-0.407-2.834-1.211c-0.648-0.8-0.975-1.953-0.975-3.477c0-1.516,0.342-2.688,1.027-3.52
				c0.679-0.827,1.65-1.241,2.902-1.241c0.978,0,1.756,0.224,2.314,0.676c0.574,0.45,0.863,1.069,0.887,1.862h-1.302
				c-0.037-0.467-0.239-0.843-0.61-1.134c-0.373-0.291-0.844-0.439-1.41-0.439c-0.781,0-1.398,0.328-1.838,0.993
				c-0.443,0.655-0.66,1.581-0.66,2.767c0,1.174,0.215,2.071,0.654,2.704c0.432,0.639,1.049,0.957,1.844,0.957
				c0.578,0,1.049-0.136,1.39-0.413c0.354-0.276,0.553-0.659,0.598-1.148H48.086z"/>
			<path fill="#FFFFFF" d="M49.601,207.791v-5.375c0-0.209-0.002-0.386-0.007-0.538c-0.008-0.156-0.016-0.315-0.027-0.468h1.176
				l0.029,1.227c0.115-0.407,0.32-0.711,0.618-0.915c0.302-0.209,0.694-0.312,1.169-0.312c0.092,0,0.174,0.004,0.254,0.012
				c0.084,0.007,0.156,0.019,0.23,0.038v1.096c-0.127-0.032-0.243-0.042-0.352-0.055c-0.111-0.015-0.203-0.021-0.283-0.021
				c-0.527,0-0.932,0.148-1.219,0.45c-0.275,0.292-0.418,0.72-0.418,1.279v3.582H49.601z"/>
			<path fill="#FFFFFF" d="M59.568,205.745c0,0.655-0.24,1.196-0.703,1.601c-0.473,0.399-1.101,0.607-1.865,0.607
				c-0.996,0-1.748-0.28-2.26-0.825c-0.514-0.551-0.771-1.344-0.771-2.403c0-1.118,0.255-1.98,0.762-2.574
				c0.508-0.594,1.23-0.892,2.178-0.892c0.856,0,1.541,0.245,2.037,0.741c0.5,0.493,0.746,1.167,0.746,2.021
				c0,0.207-0.002,0.358-0.008,0.47c0,0.104-0.008,0.211-0.018,0.304H55.14v0.119v0.26c0,0.605,0.157,1.068,0.472,1.398
				c0.309,0.327,0.748,0.492,1.312,0.492c0.466,0,0.836-0.119,1.112-0.358c0.277-0.234,0.42-0.557,0.426-0.961H59.568z
				 M55.205,203.97h3.289v-0.141c0-0.536-0.15-0.957-0.438-1.287c-0.296-0.323-0.668-0.485-1.132-0.485
				c-0.509,0-0.919,0.177-1.243,0.532C55.361,202.937,55.205,203.397,55.205,203.97z"/>
			<path fill="#FFFFFF" d="M66.219,207.791h-1.061c-0.035-0.132-0.082-0.454-0.117-0.966v-0.039c-0.16,0.377-0.42,0.661-0.771,0.862
				c-0.348,0.203-0.771,0.306-1.277,0.306c-0.647,0-1.164-0.179-1.551-0.527c-0.393-0.361-0.586-0.829-0.586-1.401
				c0-0.675,0.271-1.212,0.809-1.606c0.535-0.391,1.271-0.589,2.203-0.589h1.106v-0.779c0-0.342-0.103-0.604-0.315-0.776
				c-0.217-0.177-0.527-0.264-0.943-0.264c-0.389,0-0.702,0.099-0.93,0.291c-0.231,0.2-0.352,0.465-0.363,0.796h-1.135v-0.093
				c0-0.57,0.203-0.994,0.609-1.294c0.404-0.302,0.984-0.45,1.741-0.45c0.877,0,1.519,0.155,1.921,0.463
				c0.4,0.315,0.6,0.82,0.6,1.52v3.94c0,0.056,0.006,0.136,0.012,0.244C66.179,207.538,66.195,207.658,66.219,207.791z
				 M64.974,204.625h-0.981c-0.615,0-1.084,0.112-1.424,0.343c-0.332,0.219-0.5,0.534-0.5,0.941c0,0.313,0.119,0.57,0.34,0.772
				c0.227,0.206,0.517,0.308,0.861,0.308c0.553,0,0.971-0.152,1.27-0.442c0.289-0.293,0.435-0.723,0.435-1.29V204.625z"/>
			<path fill="#FFFFFF" d="M67.207,201.41h1.084v-1.303l1.166-0.399v1.702h1.42v0.84h-1.42v3.918c0,0.333,0.053,0.547,0.16,0.649
				c0.113,0.108,0.33,0.16,0.652,0.16c0.082,0,0.172-0.005,0.268-0.02c0.092-0.013,0.199-0.038,0.318-0.068v0.887
				c-0.193,0.054-0.365,0.089-0.518,0.119c-0.154,0.022-0.288,0.037-0.409,0.037c-0.599,0-1.022-0.103-1.272-0.309
				c-0.244-0.203-0.365-0.552-0.365-1.047v-4.327h-1.084V201.41z"/>
			<path fill="#FFFFFF" d="M73.385,199.936h-1.381v-1.292h1.381V199.936z M72.111,207.791v-6.38h1.18v6.38H72.111z"/>
			<path fill="#FFFFFF" d="M77.094,207.791l-2.604-6.38h1.185l2.041,5.058l2.059-5.058h1.166l-2.693,6.38H77.094z"/>
			<path fill="#FFFFFF" d="M87.418,205.745c-0.006,0.655-0.246,1.196-0.713,1.601c-0.467,0.399-1.09,0.607-1.866,0.607
				c-0.991,0-1.743-0.28-2.257-0.825c-0.512-0.551-0.766-1.344-0.766-2.403c0-1.118,0.252-1.98,0.754-2.574
				c0.512-0.594,1.238-0.892,2.18-0.892c0.865,0,1.545,0.245,2.039,0.741c0.498,0.493,0.744,1.167,0.744,2.021
				c0,0.207,0,0.358-0.006,0.47c-0.004,0.104-0.01,0.211-0.018,0.304h-4.525v0.119v0.26c0,0.605,0.155,1.068,0.469,1.398
				c0.309,0.327,0.746,0.492,1.316,0.492c0.465,0,0.834-0.119,1.109-0.358c0.279-0.234,0.418-0.557,0.427-0.961H87.418z
				 M83.048,203.97h3.29v-0.141c0-0.536-0.145-0.957-0.434-1.287c-0.293-0.323-0.676-0.485-1.135-0.485
				c-0.508,0-0.925,0.177-1.24,0.532C83.211,202.937,83.048,203.397,83.048,203.97z"/>
			<path fill="#FFFFFF" d="M41.767,216.956c-0.021,0.806-0.33,1.443-0.928,1.911c-0.593,0.479-1.402,0.714-2.421,0.714
				c-1.237,0-2.18-0.4-2.83-1.203c-0.65-0.795-0.979-1.961-0.979-3.478c0-1.514,0.346-2.686,1.027-3.521
				c0.686-0.83,1.648-1.243,2.902-1.243c0.98,0,1.761,0.222,2.322,0.677c0.561,0.446,0.855,1.064,0.879,1.866h-1.293
				c-0.047-0.468-0.252-0.853-0.621-1.139c-0.367-0.289-0.84-0.434-1.408-0.434c-0.781,0-1.395,0.33-1.838,0.987
				c-0.438,0.658-0.66,1.589-0.66,2.771c0,1.167,0.215,2.065,0.652,2.706c0.435,0.632,1.047,0.952,1.846,0.952
				c0.58,0,1.047-0.134,1.396-0.415c0.35-0.273,0.551-0.658,0.594-1.151H41.767z"/>
			<path fill="#FFFFFF" d="M42.966,216.359c0-1.066,0.29-1.913,0.856-2.533c0.565-0.612,1.348-0.927,2.324-0.927
				c0.996,0,1.76,0.292,2.314,0.871c0.549,0.574,0.826,1.381,0.826,2.414c0,1.07-0.287,1.903-0.856,2.498s-1.362,0.899-2.396,0.899
				c-0.947,0-1.697-0.288-2.24-0.869C43.244,218.141,42.966,217.355,42.966,216.359z M46.146,213.745
				c-0.602,0-1.082,0.23-1.438,0.685c-0.358,0.457-0.53,1.08-0.53,1.865c0,0.76,0.17,1.35,0.509,1.769
				c0.338,0.414,0.818,0.618,1.432,0.618c0.621,0,1.104-0.216,1.447-0.66c0.355-0.438,0.527-1.049,0.527-1.823
				c0-0.78-0.165-1.38-0.51-1.811C47.252,213.962,46.763,213.745,46.146,213.745z"/>
			<path fill="#FFFFFF" d="M52.17,219.425h-1.176v-5.06c0-0.112-0.01-0.291-0.012-0.528c-0.013-0.24-0.021-0.499-0.047-0.792h1.197
				l0.038,1.083c0.166-0.355,0.421-0.636,0.768-0.843c0.35-0.207,0.741-0.315,1.17-0.315c0.432,0,0.814,0.094,1.164,0.272
				c0.342,0.183,0.652,0.468,0.926,0.848c0.334-0.401,0.658-0.689,0.992-0.856c0.328-0.175,0.715-0.264,1.146-0.264
				c0.449,0,0.855,0.097,1.229,0.279c0.363,0.189,0.625,0.433,0.787,0.748c0.072,0.141,0.127,0.332,0.162,0.56
				c0.026,0.224,0.041,0.547,0.041,0.965v3.903h-1.136v-4.068c0-0.493-0.115-0.867-0.354-1.115c-0.23-0.245-0.578-0.373-1.047-0.373
				c-0.48,0-0.863,0.147-1.17,0.448c-0.304,0.297-0.457,0.681-0.457,1.154v3.953h-1.19v-3.854c0-0.588-0.113-1.019-0.346-1.294
				c-0.227-0.28-0.574-0.418-1.057-0.418c-0.51,0-0.909,0.15-1.193,0.447c-0.287,0.303-0.434,0.722-0.434,1.266V219.425z"/>
			<path fill="#FFFFFF" d="M63.762,219.425h-1.186v-5.06c0-0.112,0-0.291-0.008-0.528c-0.013-0.24-0.021-0.499-0.039-0.792h1.194
				l0.038,1.083c0.164-0.355,0.426-0.636,0.768-0.843c0.352-0.207,0.733-0.315,1.164-0.315c0.432,0,0.819,0.094,1.164,0.272
				c0.35,0.183,0.66,0.468,0.934,0.848c0.33-0.401,0.656-0.689,0.99-0.856c0.328-0.175,0.709-0.264,1.147-0.264
				c0.446,0,0.853,0.097,1.218,0.279c0.373,0.189,0.635,0.433,0.795,0.748c0.078,0.141,0.127,0.332,0.16,0.56
				c0.031,0.224,0.045,0.547,0.045,0.965v3.903H71.01v-4.068c0-0.493-0.123-0.867-0.354-1.115c-0.236-0.245-0.584-0.373-1.051-0.373
				c-0.477,0-0.865,0.147-1.172,0.448c-0.303,0.297-0.455,0.681-0.455,1.154v3.953h-1.193v-3.854c0-0.588-0.11-1.019-0.338-1.294
				c-0.229-0.28-0.584-0.418-1.061-0.418c-0.506,0-0.911,0.15-1.195,0.447c-0.287,0.303-0.43,0.722-0.43,1.266V219.425z"/>
			<path fill="#FFFFFF" d="M73.795,216.359c0-1.066,0.291-1.913,0.852-2.533c0.582-0.612,1.348-0.927,2.33-0.927
				c0.993,0,1.764,0.292,2.319,0.871c0.544,0.574,0.82,1.381,0.82,2.414c0,1.07-0.285,1.903-0.855,2.498
				c-0.566,0.595-1.368,0.899-2.395,0.899c-0.943,0-1.693-0.288-2.244-0.869C74.07,218.141,73.795,217.355,73.795,216.359z
				 M76.976,213.745c-0.607,0-1.082,0.23-1.435,0.685c-0.348,0.457-0.531,1.08-0.531,1.865c0,0.76,0.169,1.35,0.503,1.769
				c0.347,0.414,0.819,0.618,1.44,0.618c0.613,0,1.095-0.216,1.445-0.66c0.354-0.438,0.529-1.049,0.529-1.823
				c0-0.78-0.17-1.38-0.512-1.811C78.076,213.962,77.597,213.745,76.976,213.745z"/>
			<path fill="#FFFFFF" d="M83.002,214.09c0.143-0.345,0.393-0.617,0.752-0.818c0.355-0.201,0.77-0.302,1.242-0.302
				c0.426,0,0.804,0.075,1.16,0.23c0.348,0.155,0.619,0.363,0.816,0.632c0.121,0.154,0.193,0.329,0.24,0.541
				c0.052,0.213,0.074,0.573,0.074,1.089v3.962h-1.172v-4.026c0-0.54-0.119-0.938-0.344-1.185c-0.23-0.251-0.593-0.382-1.078-0.382
				c-0.494,0-0.898,0.139-1.224,0.406c-0.313,0.263-0.468,0.617-0.468,1.039v4.148h-1.186v-5.066c0-0.236,0-0.468-0.008-0.683
				c-0.012-0.217-0.021-0.426-0.033-0.63h1.189L83.002,214.09z"/>
			<path fill="#FFFFFF" d="M88.779,217.51h1.18v0.022c0,0.345,0.123,0.626,0.375,0.836c0.244,0.213,0.564,0.314,0.979,0.314
				c0.398,0,0.717-0.093,0.967-0.273c0.246-0.187,0.367-0.428,0.367-0.729c0-0.218-0.064-0.396-0.186-0.535
				c-0.125-0.138-0.319-0.235-0.582-0.307l-1.354-0.308c-0.57-0.139-0.994-0.346-1.271-0.619c-0.288-0.277-0.42-0.629-0.42-1.047
				c0-0.583,0.234-1.054,0.705-1.414c0.473-0.363,1.103-0.551,1.869-0.551c0.723,0,1.281,0.156,1.695,0.456
				c0.414,0.294,0.623,0.706,0.623,1.23c0,0.048,0,0.084-0.007,0.114c0,0.022,0,0.05-0.007,0.073h-1.168v-0.053
				c0-0.31-0.114-0.545-0.33-0.723c-0.219-0.183-0.51-0.267-0.891-0.267c-0.367,0-0.672,0.084-0.908,0.267
				c-0.243,0.178-0.36,0.4-0.36,0.661c0,0.212,0.071,0.374,0.211,0.497c0.149,0.127,0.393,0.242,0.727,0.327l1.449,0.403
				c0.502,0.13,0.871,0.332,1.107,0.616c0.243,0.284,0.364,0.644,0.364,1.086c0,0.61-0.23,1.093-0.69,1.45
				c-0.459,0.361-1.079,0.543-1.864,0.543c-0.886,0-1.541-0.156-1.953-0.466c-0.416-0.315-0.627-0.797-0.627-1.458V217.51z"/>
		</g>
	</g>
	<g>
		<g>
			<g>
				<path fill="#FFFFFF" d="M72.42,305.341l2.758-7.181h1.025l2.937,7.181h-1.081l-0.839-2.176h-3.001l-0.79,2.176H72.42z
					 M74.492,302.393h2.433l-0.748-1.993c-0.229-0.603-0.4-1.1-0.51-1.487c-0.09,0.46-0.221,0.917-0.387,1.37L74.492,302.393z"/>
			</g>
			<g>
				<path fill="#FFFFFF" d="M83.181,303.434l0.87,0.114c-0.093,0.597-0.335,1.064-0.726,1.406c-0.391,0.337-0.871,0.505-1.439,0.505
					c-0.713,0-1.284-0.233-1.717-0.698c-0.432-0.466-0.648-1.134-0.648-2.001c0-0.562,0.094-1.054,0.279-1.476
					c0.186-0.419,0.473-0.736,0.85-0.949c0.381-0.21,0.795-0.313,1.241-0.313c0.565,0,1.028,0.142,1.388,0.429
					c0.359,0.284,0.59,0.688,0.689,1.216l-0.855,0.132c-0.082-0.348-0.227-0.612-0.434-0.79c-0.209-0.175-0.458-0.263-0.75-0.263
					c-0.447,0-0.809,0.159-1.086,0.478c-0.275,0.318-0.418,0.82-0.418,1.511c0,0.699,0.135,1.208,0.403,1.524
					c0.268,0.315,0.619,0.476,1.051,0.476c0.346,0,0.635-0.108,0.865-0.318C82.976,304.2,83.121,303.875,83.181,303.434z"/>
			</g>
			<g>
				<path fill="#FFFFFF" d="M86.73,304.551l0.129,0.779c-0.25,0.055-0.475,0.079-0.666,0.079c-0.32,0-0.568-0.05-0.746-0.15
					c-0.176-0.103-0.299-0.236-0.371-0.398c-0.072-0.167-0.11-0.513-0.11-1.045v-2.994h-0.648v-0.686h0.648v-1.286l0.877-0.529
					v1.814h0.887v0.686h-0.887v3.043c0,0.253,0.018,0.415,0.046,0.486c0.03,0.072,0.083,0.128,0.151,0.171
					c0.07,0.042,0.172,0.062,0.303,0.062C86.441,304.584,86.572,304.573,86.73,304.551z"/>
			</g>
			<g>
				<path fill="#FFFFFF" d="M87.599,299.171v-1.012h0.88v1.012H87.599z M87.599,305.341v-5.206h0.88v5.206H87.599z"/>
			</g>
			<g>
				<path fill="#FFFFFF" d="M91.267,305.341l-1.978-5.206h0.927l1.12,3.119c0.119,0.335,0.232,0.684,0.33,1.047
					c0.082-0.272,0.191-0.603,0.33-0.989l1.156-3.177h0.908l-1.969,5.206H91.267z"/>
			</g>
			<g>
				<path fill="#FFFFFF" d="M94.844,299.171v-1.012h0.883v1.012H94.844z M94.844,305.341v-5.206h0.883v5.206H94.844z"/>
			</g>
			<g>
				<path fill="#FFFFFF" d="M100.443,305.341v-0.656c-0.33,0.512-0.814,0.773-1.455,0.773c-0.414,0-0.795-0.115-1.144-0.343
					c-0.347-0.23-0.616-0.545-0.808-0.958c-0.192-0.408-0.287-0.882-0.287-1.415c0-0.517,0.086-0.991,0.26-1.413
					c0.174-0.422,0.434-0.746,0.779-0.971c0.346-0.226,0.732-0.337,1.16-0.337c0.313,0,0.594,0.062,0.838,0.198
					c0.246,0.131,0.445,0.304,0.598,0.515v-2.574h0.877v7.181H100.443z M97.656,302.742c0,0.667,0.141,1.166,0.42,1.496
					c0.283,0.332,0.613,0.496,0.996,0.496c0.385,0,0.713-0.159,0.98-0.474c0.273-0.314,0.406-0.798,0.406-1.444
					c0-0.712-0.137-1.234-0.412-1.566c-0.273-0.333-0.611-0.5-1.014-0.5c-0.394,0-0.719,0.158-0.98,0.479
					C97.785,301.549,97.656,302.051,97.656,302.742z"/>
			</g>
			<g>
				<path fill="#FFFFFF" d="M106.045,304.698c-0.326,0.28-0.643,0.474-0.943,0.587c-0.303,0.117-0.628,0.173-0.973,0.173
					c-0.573,0-1.012-0.14-1.318-0.42c-0.309-0.277-0.459-0.634-0.459-1.069c0-0.254,0.057-0.486,0.172-0.699
					c0.116-0.21,0.27-0.378,0.457-0.507c0.186-0.127,0.398-0.225,0.633-0.288c0.174-0.046,0.434-0.09,0.783-0.132
					c0.713-0.085,1.238-0.187,1.572-0.305c0.004-0.122,0.005-0.197,0.005-0.232c0-0.355-0.082-0.609-0.247-0.759
					c-0.227-0.197-0.561-0.296-1.007-0.296c-0.411,0-0.72,0.07-0.917,0.218c-0.197,0.144-0.344,0.401-0.438,0.771l-0.865-0.117
					c0.08-0.371,0.209-0.669,0.39-0.894c0.181-0.228,0.44-0.405,0.776-0.524c0.341-0.127,0.736-0.184,1.183-0.184
					c0.444,0,0.806,0.053,1.08,0.155c0.28,0.104,0.481,0.233,0.612,0.394c0.134,0.159,0.226,0.36,0.277,0.599
					c0.028,0.153,0.045,0.425,0.045,0.817v1.175c0,0.818,0.016,1.339,0.057,1.556c0.037,0.216,0.111,0.424,0.222,0.624h-0.919
					C106.129,305.157,106.072,304.942,106.045,304.698z M105.969,302.729c-0.316,0.13-0.797,0.241-1.438,0.333
					c-0.365,0.053-0.619,0.111-0.77,0.176c-0.15,0.065-0.264,0.161-0.348,0.287c-0.082,0.125-0.123,0.265-0.123,0.419
					c0,0.235,0.088,0.43,0.268,0.587c0.176,0.155,0.439,0.233,0.779,0.233s0.645-0.073,0.908-0.222
					c0.261-0.146,0.459-0.351,0.584-0.61c0.093-0.199,0.139-0.491,0.139-0.882V302.729z"/>
			</g>
			<g>
				<path fill="#FFFFFF" d="M111.604,305.341v-0.656c-0.328,0.512-0.814,0.773-1.455,0.773c-0.414,0-0.795-0.115-1.145-0.343
					c-0.344-0.23-0.616-0.545-0.807-0.958c-0.19-0.408-0.285-0.882-0.285-1.415c0-0.517,0.086-0.991,0.258-1.413
					c0.174-0.422,0.432-0.746,0.777-0.971c0.346-0.226,0.736-0.337,1.164-0.337c0.312,0,0.594,0.062,0.836,0.198
					c0.246,0.131,0.445,0.304,0.598,0.515v-2.574h0.878v7.181H111.604z M108.818,302.742c0,0.667,0.139,1.166,0.42,1.496
					c0.279,0.332,0.61,0.496,0.992,0.496c0.389,0,0.715-0.159,0.984-0.474s0.402-0.798,0.402-1.444c0-0.712-0.135-1.234-0.412-1.566
					c-0.271-0.333-0.608-0.5-1.01-0.5c-0.395,0-0.722,0.158-0.982,0.479C108.947,301.549,108.818,302.051,108.818,302.742z"/>
			</g>
		</g>
		<g>
			<g>
				<path fill="#FFFFFF" d="M60.986,314.562l2.756-7.181h1.022l2.94,7.181h-1.082l-0.836-2.175h-3.004l-0.787,2.175H60.986z
					 M63.059,311.616h2.434l-0.75-1.991c-0.228-0.603-0.397-1.099-0.51-1.49c-0.093,0.461-0.221,0.918-0.386,1.373L63.059,311.616z"
					/>
			</g>
			<g>
				<path fill="#FFFFFF" d="M68.564,314.562v-4.516h-0.777v-0.688h0.777v-0.553c0-0.349,0.032-0.606,0.094-0.776
					c0.084-0.227,0.234-0.416,0.449-0.558c0.213-0.141,0.512-0.212,0.896-0.212c0.248,0,0.523,0.029,0.824,0.087l-0.133,0.771
					c-0.184-0.034-0.357-0.05-0.52-0.05c-0.267,0-0.457,0.058-0.568,0.17c-0.109,0.116-0.166,0.329-0.166,0.644v0.477h1.016v0.688
					h-1.016v4.516H68.564z"/>
			</g>
			<g>
				<path fill="#FFFFFF" d="M71.146,308.397v-1.016h0.881v1.016H71.146z M71.146,314.562v-5.204h0.881v5.204H71.146z"/>
			</g>
			<g>
				<path fill="#FFFFFF" d="M76.765,313.922c-0.325,0.278-0.64,0.475-0.94,0.587c-0.305,0.115-0.629,0.171-0.973,0.171
					c-0.572,0-1.012-0.14-1.32-0.419c-0.308-0.278-0.459-0.634-0.459-1.07c0-0.254,0.059-0.488,0.174-0.699
					c0.117-0.209,0.267-0.378,0.455-0.505c0.187-0.128,0.4-0.226,0.635-0.29c0.171-0.045,0.436-0.09,0.785-0.133
					c0.711-0.083,1.236-0.187,1.572-0.304c0-0.12,0.004-0.199,0.004-0.23c0-0.358-0.084-0.615-0.25-0.76
					c-0.228-0.199-0.56-0.297-1.004-0.297c-0.414,0-0.724,0.071-0.918,0.215c-0.199,0.144-0.347,0.404-0.439,0.773l-0.862-0.118
					c0.077-0.371,0.207-0.667,0.388-0.894c0.178-0.228,0.437-0.4,0.776-0.523c0.341-0.123,0.735-0.186,1.185-0.186
					c0.44,0,0.803,0.053,1.08,0.157c0.276,0.104,0.482,0.234,0.612,0.396c0.132,0.159,0.224,0.357,0.274,0.598
					c0.029,0.153,0.047,0.421,0.047,0.813v1.178c0,0.819,0.018,1.337,0.052,1.554c0.04,0.218,0.114,0.427,0.226,0.624h-0.92
					C76.849,314.378,76.791,314.167,76.765,313.922z M76.693,311.953c-0.318,0.13-0.801,0.241-1.439,0.33
					c-0.366,0.055-0.619,0.114-0.771,0.175c-0.148,0.069-0.268,0.165-0.348,0.291c-0.081,0.125-0.122,0.266-0.122,0.418
					c0,0.237,0.088,0.43,0.267,0.588c0.18,0.156,0.439,0.236,0.783,0.236c0.338,0,0.641-0.074,0.906-0.225
					c0.264-0.147,0.457-0.351,0.582-0.609c0.094-0.199,0.143-0.491,0.143-0.882V311.953z"/>
			</g>
			<g>
				<path fill="#FFFFFF" d="M78.953,314.562v-5.204h0.793v0.741c0.381-0.571,0.929-0.857,1.654-0.857
					c0.311,0,0.602,0.058,0.862,0.172c0.267,0.111,0.461,0.258,0.593,0.441c0.131,0.182,0.223,0.401,0.273,0.653
					c0.035,0.165,0.049,0.446,0.049,0.856v3.198h-0.879v-3.163c0-0.361-0.036-0.628-0.105-0.806
					c-0.068-0.178-0.189-0.322-0.365-0.427c-0.174-0.104-0.379-0.16-0.615-0.16c-0.375,0-0.698,0.118-0.973,0.357
					c-0.271,0.24-0.408,0.69-0.408,1.357v2.841H78.953z"/>
			</g>
			<g>
				<path fill="#FFFFFF" d="M84.066,314.562v-0.716l3.312-3.8c-0.375,0.021-0.709,0.029-0.997,0.029H84.26v-0.717h4.253v0.586
					l-2.817,3.3l-0.543,0.601c0.396-0.025,0.766-0.041,1.112-0.041h2.407v0.757H84.066z"/>
			</g>
			<g>
				<path fill="#FFFFFF" d="M92.943,313.922c-0.328,0.278-0.641,0.475-0.943,0.587c-0.301,0.115-0.625,0.171-0.973,0.171
					c-0.574,0-1.013-0.14-1.32-0.419c-0.307-0.278-0.459-0.634-0.459-1.07c0-0.254,0.058-0.488,0.172-0.699
					c0.119-0.209,0.273-0.378,0.459-0.505c0.189-0.128,0.398-0.226,0.634-0.29c0.175-0.045,0.433-0.09,0.786-0.133
					c0.711-0.083,1.235-0.187,1.571-0.304c0.004-0.12,0.006-0.199,0.006-0.23c0-0.358-0.082-0.615-0.248-0.76
					c-0.23-0.199-0.562-0.297-1.008-0.297c-0.414,0-0.721,0.071-0.916,0.215c-0.199,0.144-0.344,0.404-0.441,0.773l-0.861-0.118
					c0.078-0.371,0.207-0.667,0.389-0.894c0.18-0.228,0.439-0.4,0.777-0.523c0.34-0.123,0.734-0.186,1.184-0.186
					c0.441,0,0.803,0.053,1.08,0.157s0.482,0.234,0.615,0.396c0.129,0.159,0.219,0.357,0.273,0.598
					c0.029,0.153,0.043,0.421,0.043,0.813v1.178c0,0.819,0.018,1.337,0.057,1.554c0.035,0.218,0.11,0.427,0.223,0.624h-0.92
					C93.029,314.378,92.969,314.167,92.943,313.922z M92.869,311.953c-0.321,0.13-0.797,0.241-1.441,0.33
					c-0.359,0.055-0.615,0.114-0.768,0.175c-0.148,0.069-0.266,0.165-0.35,0.291c-0.082,0.125-0.119,0.266-0.119,0.418
					c0,0.237,0.086,0.43,0.264,0.588c0.177,0.156,0.439,0.236,0.783,0.236c0.342,0,0.641-0.074,0.906-0.225
					c0.266-0.147,0.461-0.351,0.582-0.609c0.096-0.199,0.143-0.491,0.143-0.882V311.953z"/>
			</g>
			<g>
				<path fill="#FFFFFF" d="M95.127,314.562v-5.204h0.789v0.733c0.164-0.256,0.379-0.46,0.65-0.617
					c0.275-0.152,0.582-0.232,0.928-0.232c0.385,0,0.701,0.08,0.949,0.241c0.246,0.162,0.418,0.384,0.521,0.67
					c0.408-0.606,0.947-0.912,1.607-0.912c0.514,0,0.91,0.144,1.19,0.431c0.278,0.286,0.415,0.724,0.415,1.316v3.573H101.3v-3.275
					c0-0.354-0.027-0.606-0.085-0.763c-0.057-0.154-0.159-0.278-0.311-0.374c-0.152-0.096-0.328-0.143-0.529-0.143
					c-0.365,0-0.67,0.123-0.912,0.366c-0.24,0.243-0.361,0.633-0.361,1.169v3.02H98.22v-3.379c0-0.391-0.073-0.686-0.214-0.882
					c-0.145-0.197-0.383-0.294-0.709-0.294c-0.247,0-0.477,0.065-0.686,0.194c-0.213,0.132-0.367,0.325-0.461,0.576
					c-0.097,0.252-0.141,0.613-0.141,1.087v2.698H95.127z"/>
			</g>
			<g>
				<path fill="#FFFFFF" d="M103.49,308.397v-1.016h0.881v1.016H103.49z M103.49,314.562v-5.204h0.881v5.204H103.49z"/>
			</g>
			<g>
				<path fill="#FFFFFF" d="M109.277,312.888l0.91,0.114c-0.145,0.531-0.41,0.944-0.798,1.237c-0.388,0.294-0.884,0.441-1.491,0.441
					c-0.759,0-1.359-0.233-1.805-0.702c-0.452-0.466-0.672-1.128-0.672-1.972c0-0.875,0.225-1.556,0.677-2.039
					c0.448-0.482,1.034-0.725,1.753-0.725c0.695,0,1.266,0.237,1.704,0.712c0.44,0.473,0.664,1.139,0.664,1.999
					c0,0.053-0.003,0.13-0.007,0.234h-3.881c0.035,0.573,0.195,1.01,0.484,1.312c0.293,0.305,0.653,0.455,1.088,0.455
					c0.324,0,0.602-0.084,0.83-0.253C108.963,313.533,109.142,313.262,109.277,312.888z M106.382,311.459h2.905
					c-0.039-0.434-0.15-0.763-0.332-0.981c-0.283-0.341-0.646-0.512-1.092-0.512c-0.406,0-0.75,0.137-1.024,0.409
					C106.564,310.646,106.41,311.008,106.382,311.459z"/>
			</g>
			<g>
				<path fill="#FFFFFF" d="M111.297,314.562v-5.204h0.791v0.741c0.382-0.571,0.934-0.857,1.658-0.857
					c0.312,0,0.599,0.058,0.865,0.172c0.262,0.111,0.459,0.258,0.592,0.441c0.131,0.182,0.22,0.401,0.273,0.653
					c0.031,0.165,0.045,0.446,0.045,0.856v3.198h-0.879v-3.163c0-0.361-0.035-0.628-0.103-0.806
					c-0.07-0.178-0.192-0.322-0.366-0.427c-0.173-0.104-0.378-0.16-0.613-0.16c-0.38,0-0.703,0.118-0.975,0.357
					c-0.271,0.24-0.408,0.69-0.408,1.357v2.841H111.297z"/>
			</g>
			<g>
				<path fill="#FFFFFF" d="M118.803,313.777l0.126,0.778c-0.25,0.05-0.47,0.076-0.667,0.076c-0.32,0-0.568-0.047-0.742-0.151
					c-0.178-0.101-0.301-0.233-0.375-0.396c-0.072-0.167-0.105-0.514-0.105-1.042v-2.995h-0.649v-0.688h0.649v-1.286l0.875-0.53
					v1.816h0.889v0.688h-0.889v3.044c0,0.251,0.015,0.411,0.047,0.483c0.031,0.073,0.082,0.13,0.152,0.172
					c0.07,0.044,0.172,0.062,0.299,0.062C118.512,313.807,118.642,313.799,118.803,313.777z"/>
			</g>
			<g>
				<path fill="#FFFFFF" d="M119.336,311.962c0-0.964,0.266-1.679,0.802-2.142c0.452-0.384,0.995-0.579,1.64-0.579
					c0.715,0,1.299,0.232,1.754,0.704c0.453,0.47,0.68,1.115,0.68,1.944c0,0.669-0.102,1.194-0.303,1.579
					c-0.199,0.385-0.492,0.682-0.877,0.895c-0.383,0.213-0.803,0.317-1.254,0.317c-0.73,0-1.32-0.233-1.768-0.701
					C119.556,313.513,119.336,312.842,119.336,311.962z M120.242,311.962c0,0.665,0.146,1.164,0.433,1.496
					c0.293,0.333,0.661,0.497,1.102,0.497c0.436,0,0.801-0.163,1.092-0.5c0.289-0.33,0.435-0.838,0.435-1.521
					c0-0.643-0.147-1.131-0.44-1.464c-0.287-0.33-0.654-0.495-1.086-0.495c-0.441,0-0.809,0.163-1.102,0.494
					C120.388,310.798,120.242,311.295,120.242,311.962z"/>
			</g>
		</g>
	</g>
	<g>
		<path fill-rule="evenodd" clip-rule="evenodd" fill="#FFFFFF" d="M146.976,314.914c0.043-0.181,0.07-0.368,0.129-0.543
			c0.322-0.969,1.041-1.51,1.979-1.809c0.078-0.024,0.156-0.041,0.25-0.068c0-0.86,0-1.719,0-2.577c0-0.172-0.004-0.344,0.002-0.515
			c0.014-0.435,0.349-0.797,0.785-0.825c0.301-0.019,0.602-0.003,0.896-0.003c0.094-0.562,0.229-0.729,0.58-0.74
			c0.379-0.012,0.527,0.15,0.646,0.717c0.262,0,0.525,0,0.806,0c-0.093-0.422-0.056-0.816,0.293-1.079
			c0.184-0.139,0.439-0.254,0.664-0.255c4.075-0.016,8.149-0.013,12.225-0.01c0.633,0.001,1.098,0.564,0.988,1.184
			c-0.008,0.048-0.008,0.096-0.014,0.175c0.1,0,0.188,0,0.275,0c0.811,0,1.619-0.001,2.43,0.001
			c0.658,0.001,1.002,0.334,1.004,0.994c0.007,1.564,0.006,3.126,0,4.689c-0.002,0.664-0.342,0.996-1.002,0.998
			c-6.532,0.001-13.061,0.001-19.59-0.001c-0.66,0-0.988-0.336-0.99-1.002c0-0.146,0-0.293,0-0.441
			c-0.504,0.055-1.002,0.631-1.034,1.187c-0.043,0.757,0.432,1.373,1.25,1.594c0.625,0.17,1.264,0.234,1.915,0.223
			c0.867-0.014,1.74-0.06,2.598,0.038c1.775,0.207,3.217,1.077,4.352,2.448c0.309,0.371,0.199,0.737-0.291,1.074
			c-0.098,0-0.195,0-0.295,0c-0.113-0.103-0.229-0.206-0.344-0.307c-0.434-0.382-0.834-0.813-1.309-1.135
			c-1.123-0.762-2.402-0.945-3.736-0.931c-0.887,0.01-1.783,0.006-2.66-0.101c-1.07-0.129-1.918-0.697-2.439-1.653
			c-0.191-0.354-0.246-0.782-0.363-1.175C146.976,315.013,146.976,314.963,146.976,314.914z"/>
		<path fill-rule="evenodd" clip-rule="evenodd" fill="#FFFFFF" d="M158.565,292.475c0.236,0.055,0.48,0.089,0.707,0.171
			c1.361,0.497,2.229,1.446,2.467,2.884c0.238,1.451-0.281,2.633-1.445,3.524c-0.137,0.106-0.182,0.196-0.146,0.364
			c0.346,1.627,0.684,3.256,1.023,4.883c0.013,0.064,0.035,0.126,0.061,0.214c0.084,0,0.172,0,0.26,0
			c0.646,0,1.293-0.006,1.939,0.003c0.516,0.007,0.838,0.43,0.674,0.865c-0.047,0.125-0.115,0.194-0.268,0.194
			c-2.471-0.005-4.943-0.006-7.415,0c-0.224,0-0.283-0.127-0.308-0.298c-0.07-0.437,0.223-0.754,0.709-0.761
			c0.539-0.007,1.078-0.003,1.619-0.003c0.088,0,0.178,0,0.305,0c-0.096-0.465-0.186-0.909-0.277-1.353
			c-0.225-1.067-0.455-2.137-0.668-3.208c-0.033-0.169-0.102-0.221-0.26-0.247c-1.5-0.252-2.646-1.365-2.961-2.863
			c-0.428-2.047,0.965-4.031,3.039-4.325c0.037-0.007,0.072-0.03,0.109-0.045C158.008,292.475,158.286,292.475,158.565,292.475z
			 M160.422,295.965c-0.037-0.865-0.328-1.473-0.988-1.87c-0.324-0.194-0.611-0.128-0.783,0.158
			c-0.168,0.274-0.092,0.475,0.254,0.692c0.43,0.268,0.613,0.736,0.482,1.227c-0.021,0.079-0.049,0.156-0.059,0.237
			c-0.027,0.247,0.168,0.52,0.4,0.579c0.229,0.058,0.453-0.073,0.537-0.346C160.345,296.387,160.388,296.12,160.422,295.965z"/>
		<path fill-rule="evenodd" clip-rule="evenodd" fill="#FFFFFF" d="M160.116,306.908c-1.85,0-3.697,0-5.547,0
			c-0.248-0.001-0.293-0.054-0.27-0.303c0.038-0.396,0.338-0.697,0.733-0.731c0.082-0.007,0.162-0.01,0.244-0.01
			c3.232,0,6.465,0.001,9.695-0.002c0.336,0,0.637,0.055,0.832,0.361c0.051,0.082,0.096,0.174,0.117,0.267
			c0.078,0.347,0.018,0.418-0.332,0.418C163.765,306.908,161.94,306.908,160.116,306.908z"/>
	</g>
	<g>
		<path fill="#FFFFFF" d="M62.697,68.923v-9.077h1.932l1.951,6.24c0.035,0.132,0.086,0.316,0.15,0.558
			c0.062,0.239,0.139,0.532,0.225,0.882c0.06-0.296,0.121-0.569,0.18-0.821c0.061-0.255,0.115-0.463,0.164-0.631l1.901-6.228h1.865
			v9.077h-1.107v-6.492c0-0.368,0.002-0.701,0.006-0.995c0.003-0.298,0.01-0.597,0.018-0.905l-2.559,8.392H66.4l-2.621-8.478
			c0.014,0.323,0.021,0.671,0.026,1.044c0.009,0.375,0.011,0.771,0.011,1.195v6.238H62.697z"/>
		<path fill="#FFFFFF" d="M73.646,64.245h-1.162v-0.123c0-0.549,0.189-0.965,0.569-1.25c0.38-0.285,0.938-0.427,1.677-0.427
			c0.729,0,1.266,0.147,1.611,0.445c0.344,0.298,0.516,0.763,0.516,1.394v2.955c0,0.291,0.01,0.576,0.029,0.858
			c0.018,0.279,0.044,0.555,0.082,0.827h-1.082l-0.074-0.796c-0.214,0.277-0.461,0.486-0.744,0.634
			c-0.283,0.147-0.58,0.22-0.893,0.22c-0.538,0-0.974-0.177-1.308-0.532c-0.338-0.358-0.506-0.826-0.506-1.404
			c0-0.725,0.233-1.273,0.705-1.642c0.469-0.371,1.17-0.555,2.102-0.555h0.607v-0.312c0-0.499-0.072-0.84-0.22-1.03
			c-0.144-0.187-0.396-0.282-0.752-0.282c-0.382,0-0.669,0.08-0.864,0.243c-0.193,0.163-0.293,0.401-0.293,0.717V64.245z
			 M75.787,65.605c-0.873,0-1.481,0.102-1.826,0.306c-0.344,0.203-0.516,0.547-0.516,1.03c0,0.313,0.094,0.572,0.281,0.779
			c0.19,0.207,0.428,0.311,0.715,0.311c0.426,0,0.758-0.167,0.992-0.501c0.236-0.334,0.354-0.813,0.354-1.431V65.605z"/>
		<path fill="#FFFFFF" d="M78.25,71.314v-7.597c0-0.324-0.004-0.562-0.012-0.713c-0.01-0.15-0.023-0.287-0.043-0.406h1.11
			l0.063,0.604c0.197-0.259,0.418-0.451,0.662-0.579c0.244-0.127,0.519-0.191,0.826-0.191c0.711,0,1.23,0.26,1.564,0.783
			c0.332,0.52,0.498,1.34,0.498,2.46c0,1.16-0.168,2.018-0.506,2.571c-0.336,0.554-0.854,0.83-1.557,0.83
			c-0.324,0-0.611-0.071-0.863-0.218c-0.252-0.146-0.469-0.364-0.65-0.656v3.113H78.25z M79.332,65.785
			c0,0.82,0.105,1.42,0.314,1.798c0.209,0.38,0.537,0.57,0.984,0.57c0.406,0,0.703-0.191,0.889-0.577
			c0.188-0.382,0.279-0.996,0.279-1.84c0-0.941-0.093-1.592-0.281-1.955c-0.189-0.363-0.511-0.544-0.967-0.544
			c-0.425,0-0.736,0.199-0.929,0.596C79.429,64.23,79.332,64.883,79.332,65.785z"/>
		<path fill="#FFFFFF" d="M85.22,64.245h-1.164v-0.123c0-0.549,0.19-0.965,0.571-1.25c0.379-0.285,0.938-0.427,1.676-0.427
			c0.73,0,1.268,0.147,1.611,0.445c0.343,0.298,0.517,0.763,0.517,1.394v2.955c0,0.291,0.009,0.576,0.028,0.858
			c0.02,0.279,0.047,0.555,0.084,0.827h-1.084l-0.074-0.796c-0.213,0.277-0.461,0.486-0.745,0.634c-0.28,0.147-0.579,0.22-0.89,0.22
			c-0.537,0-0.975-0.177-1.311-0.532c-0.336-0.358-0.504-0.826-0.504-1.404c0-0.725,0.234-1.273,0.702-1.642
			c0.47-0.371,1.171-0.555,2.103-0.555h0.606v-0.312c0-0.499-0.071-0.84-0.216-1.03c-0.146-0.187-0.396-0.282-0.754-0.282
			c-0.383,0-0.67,0.08-0.865,0.243c-0.193,0.163-0.292,0.401-0.292,0.717V64.245z M87.361,65.605c-0.875,0-1.482,0.102-1.828,0.306
			c-0.344,0.203-0.516,0.547-0.516,1.03c0,0.313,0.094,0.572,0.281,0.779c0.19,0.207,0.428,0.311,0.714,0.311
			c0.427,0,0.759-0.167,0.995-0.501c0.237-0.334,0.354-0.813,0.354-1.431V65.605z"/>
		<path fill="#FFFFFF" d="M56.469,76.623v0.203c0,0.862-0.227,1.532-0.682,2.014c-0.457,0.482-1.09,0.724-1.902,0.724
			c-0.385,0-0.745-0.056-1.081-0.167c-0.334-0.111-0.603-0.262-0.808-0.456c-0.344-0.315-0.588-0.77-0.729-1.364
			c-0.142-0.596-0.213-1.562-0.213-2.892c0-0.931,0.045-1.647,0.134-2.147c0.088-0.5,0.236-0.919,0.445-1.254
			c0.206-0.336,0.502-0.595,0.889-0.776c0.389-0.181,0.838-0.27,1.352-0.27c0.824,0,1.453,0.23,1.884,0.69
			c0.434,0.461,0.649,1.134,0.649,2.015h-1.271v-0.134c0-0.542-0.107-0.945-0.324-1.213c-0.216-0.267-0.541-0.4-0.975-0.4
			c-0.275,0-0.516,0.055-0.723,0.159c-0.207,0.107-0.375,0.263-0.502,0.469c-0.127,0.205-0.217,0.514-0.272,0.931
			c-0.052,0.418-0.078,1.208-0.078,2.372c0,1.375,0.115,2.294,0.348,2.762c0.23,0.467,0.641,0.701,1.227,0.701
			c0.467,0,0.812-0.152,1.037-0.457c0.222-0.308,0.336-0.777,0.336-1.407v-0.104H56.469z"/>
		<path fill="#FFFFFF" d="M57.681,76.247c0-1.15,0.19-1.989,0.569-2.509c0.379-0.522,0.984-0.782,1.812-0.782
			c0.832,0,1.436,0.259,1.809,0.777c0.373,0.52,0.558,1.363,0.558,2.527c0,1.163-0.187,2.006-0.562,2.53
			c-0.375,0.523-0.978,0.784-1.805,0.784c-0.839,0-1.443-0.261-1.818-0.784C57.869,78.266,57.681,77.418,57.681,76.247z
			 M60.062,73.878c-0.451,0-0.777,0.186-0.977,0.553c-0.198,0.371-0.297,0.979-0.297,1.829c0,0.865,0.098,1.479,0.295,1.844
			c0.197,0.365,0.523,0.55,0.979,0.55c0.45,0,0.773-0.185,0.969-0.55c0.192-0.365,0.291-0.974,0.291-1.832
			c0-0.871-0.099-1.487-0.291-1.85C60.836,74.059,60.513,73.878,60.062,73.878z"/>
		<path fill="#FFFFFF" d="M67.056,79.422v-4.042c0-0.615-0.077-1.035-0.235-1.266c-0.158-0.226-0.428-0.341-0.811-0.341
			c-0.43,0-0.745,0.16-0.939,0.479c-0.197,0.318-0.297,0.822-0.297,1.515v3.656h-1.082v-5.327c0-0.137-0.006-0.286-0.016-0.45
			c-0.009-0.165-0.025-0.346-0.044-0.548h1.105l0.049,0.732c0.222-0.308,0.469-0.532,0.736-0.674
			c0.27-0.142,0.582-0.212,0.938-0.212c0.521,0,0.933,0.154,1.238,0.459c0.303,0.305,0.455,0.721,0.455,1.246v4.774H67.056z"/>
		<path fill="#FFFFFF" d="M72.925,77.282h1.087c-0.011,0.725-0.216,1.29-0.616,1.689c-0.4,0.403-0.953,0.604-1.658,0.604
			c-0.834,0-1.436-0.258-1.81-0.775c-0.373-0.516-0.56-1.361-0.56-2.527c0-1.168,0.187-2.015,0.56-2.535
			c0.374-0.522,0.976-0.782,1.81-0.782c0.672,0,1.215,0.18,1.627,0.537c0.412,0.36,0.619,0.832,0.619,1.42v0.133h-1.072
			c0-0.367-0.096-0.653-0.291-0.861c-0.196-0.204-0.469-0.307-0.823-0.307c-0.48,0-0.82,0.177-1.021,0.529
			c-0.201,0.353-0.301,0.974-0.301,1.865c0,0.865,0.098,1.478,0.293,1.837c0.193,0.362,0.518,0.544,0.969,0.544
			c0.351,0,0.635-0.124,0.85-0.374C72.8,78.032,72.912,77.698,72.925,77.282z"/>
		<path fill="#FFFFFF" d="M79.693,77.438c-0.033,0.671-0.25,1.194-0.65,1.571c-0.398,0.377-0.939,0.565-1.62,0.565
			c-0.845,0-1.454-0.258-1.818-0.775c-0.367-0.516-0.552-1.381-0.552-2.589c0-1.136,0.188-1.963,0.565-2.479
			c0.379-0.518,0.978-0.775,1.804-0.775c0.782,0,1.356,0.205,1.723,0.618c0.363,0.414,0.547,1.063,0.547,1.955v0.983h-3.52v0.362
			c0,0.624,0.1,1.075,0.299,1.355c0.197,0.282,0.516,0.424,0.951,0.424c0.333,0,0.598-0.106,0.8-0.316
			c0.204-0.208,0.332-0.508,0.388-0.899H79.693z M76.179,75.694h2.444v-0.541c0-0.477-0.1-0.839-0.295-1.083
			c-0.197-0.246-0.487-0.369-0.869-0.369c-0.426,0-0.743,0.158-0.952,0.479C76.3,74.5,76.193,75.003,76.179,75.694z"/>
		<path fill="#FFFFFF" d="M80.881,81.814v-7.597c0-0.324-0.004-0.561-0.012-0.713c-0.01-0.15-0.024-0.288-0.043-0.406h1.113
			L82,73.701c0.197-0.26,0.418-0.452,0.662-0.579s0.519-0.192,0.826-0.192c0.711,0,1.23,0.261,1.564,0.784
			c0.332,0.519,0.498,1.339,0.498,2.46c0,1.16-0.168,2.018-0.505,2.571c-0.336,0.554-0.854,0.83-1.557,0.83
			c-0.322,0-0.611-0.071-0.863-0.219c-0.252-0.144-0.469-0.362-0.651-0.654v3.113H80.881z M81.963,76.283
			c0,0.821,0.105,1.422,0.314,1.8c0.209,0.379,0.537,0.57,0.984,0.57c0.406,0,0.703-0.191,0.889-0.577
			c0.188-0.383,0.278-0.998,0.278-1.843c0-0.94-0.093-1.589-0.28-1.952c-0.189-0.363-0.512-0.544-0.968-0.544
			c-0.425,0-0.735,0.198-0.929,0.596C82.061,74.731,81.963,75.381,81.963,76.283z"/>
		<path fill="#FFFFFF" d="M88.224,71.306v1.791h1.263v0.781h-1.263v3.789c0,0.341,0.054,0.575,0.159,0.706
			c0.104,0.129,0.296,0.192,0.575,0.192c0.099,0,0.263-0.006,0.492-0.023h0.037l-0.006,0.819c-0.168,0.036-0.326,0.064-0.473,0.081
			c-0.148,0.021-0.288,0.029-0.414,0.029c-0.533,0-0.908-0.105-1.125-0.313c-0.217-0.208-0.327-0.58-0.327-1.107v-4.171h-0.961
			v-0.781h0.961v-1.273L88.224,71.306z"/>
		<path fill="#FFFFFF" d="M91.443,73.097v4.029c0,0.612,0.078,1.031,0.232,1.258c0.157,0.228,0.428,0.342,0.813,0.342
			c0.428,0,0.738-0.157,0.935-0.472c0.198-0.313,0.295-0.816,0.295-1.503v-3.654h1.084v5.328c0.003,0.14,0.01,0.291,0.02,0.456
			c0.012,0.163,0.024,0.343,0.041,0.541h-1.102l-0.055-0.746c-0.221,0.31-0.469,0.535-0.738,0.679
			c-0.271,0.148-0.582,0.219-0.936,0.219c-0.521,0-0.932-0.152-1.236-0.458c-0.303-0.304-0.456-0.72-0.456-1.246v-4.774H91.443z"/>
		<path fill="#FFFFFF" d="M97.275,74.745h-1.164v-0.123c0-0.549,0.189-0.966,0.569-1.253c0.38-0.284,0.938-0.427,1.677-0.427
			c0.73,0,1.268,0.148,1.611,0.445c0.346,0.299,0.518,0.762,0.518,1.395v2.952c0,0.291,0.008,0.577,0.026,0.859
			c0.021,0.281,0.048,0.555,0.084,0.828h-1.084l-0.073-0.794c-0.213,0.274-0.461,0.486-0.744,0.634
			c-0.281,0.148-0.58,0.222-0.892,0.222c-0.537,0-0.974-0.178-1.31-0.534c-0.336-0.358-0.504-0.827-0.504-1.403
			c0-0.727,0.233-1.273,0.703-1.644c0.469-0.369,1.17-0.556,2.102-0.556h0.609v-0.312c0-0.496-0.074-0.838-0.219-1.027
			c-0.146-0.188-0.396-0.282-0.755-0.282c-0.382,0-0.669,0.08-0.862,0.243c-0.195,0.162-0.293,0.399-0.293,0.717V74.745z
			 M99.416,76.104c-0.873,0-1.482,0.103-1.827,0.306c-0.345,0.203-0.517,0.547-0.517,1.029c0,0.313,0.094,0.574,0.281,0.781
			c0.191,0.208,0.428,0.311,0.715,0.311c0.428,0,0.758-0.167,0.994-0.501c0.236-0.335,0.354-0.811,0.354-1.432V76.104z"/>
		<path fill="#FFFFFF" d="M102.947,79.422h-1.082v-9.076h1.082V79.422z"/>
	</g>
	<g>
		<path fill-rule="evenodd" clip-rule="evenodd" fill="#FFFFFF" d="M151.808,66.651h-8.436v-4.149h0.102
			c0.814-0.018,2.395-0.183,3.777-0.332c0.041,0.004,0.082,0.004,0.125,0.006l0.17-0.021c1.053,0.021,2.107,0.092,3.148,0.003
			c0.34-0.03,0.9-0.54,0.912-0.846c0.082-2.104,0.043-4.214,0.043-6.39h-13.424c0,0.021,0,0.046-0.004,0.067
			c-0.488-0.019-0.852-0.021-1.129-0.012c-0.018-0.049-0.034-0.098-0.053-0.146c-0.164,0.07-0.361,0.14-0.568,0.207
			c-0.004,0-0.004,0-0.004,0c-0.123,0.025-0.172,0.052-0.188,0.061c-0.008,0.004-0.01,0.006-0.01,0.006
			c-0.646,0.211-1.309,0.421-1.318,0.658c-0.094,2.193,0.097,4.399,0.203,6.755c2.594,0,5.129,0.03,7.656-0.006
			c-0.07,0.636-0.18,1.583-0.113,2.059c0.305,2.139,0.205,2.25-1.98,2.331c-1.787,0.067-3.568,0.247-5.348,0.377
			c0,1.028,0.018,2.001,0.021,2.941v0.002c-0.018-0.083-0.035-0.166-0.053-0.248c-1.252,0.228-6.369,0.901-7.396,1.511
			c-0.529,0.317-0.373,1.791-0.521,2.744c-0.023,0.148,0.031,0.333-0.04,0.447c-0.716,1.166,0.045,1.998,0.528,2.894
			c0.168-0.019,0.338-0.039,0.506-0.061c-0.139-1.287-0.236-2.58-0.428-3.858c-0.168-1.099-0.053-1.901,1.293-2.04
			c0.81-0.083,5.189-0.981,6.111-1.159v0.002c0.002,0.733-0.01,1.449-0.047,2.164c-0.055,1.121,0.283,1.508,1.438,1.492
			c4.096-0.06,8.197-0.009,12.295-0.042c0.512-0.004,1.02-0.242,1.527-0.373c0.004-0.002,0.004-0.002,0.008-0.006h0.016
			c-0.008,0.003-0.016,0.003-0.023,0.006c-0.004,0.004-0.006,0.009-0.008,0.013c1.43,0.346,1.67-0.653,1.643-1.634
			C152.194,70.367,151.978,68.669,151.808,66.651z"/>
		<path fill-rule="evenodd" clip-rule="evenodd" fill="#FFFFFF" d="M147.981,81.373c-0.074,0.002-0.148,0.009-0.223,0.015
			c-0.011-1.271-0.076-1.988-0.144-2.396c0.232,0.311,0.385,0.756,0.432,1.389c0.393-1.915-0.369-2.901-1.928-2.816
			c-1.783,0.096-3.571,0.234-5.357,0.268c-1.367,0.028-1.76,0.563-1.182,1.798c-0.182,0.213-0.523,0.423-0.525,0.64
			c-0.031,1.77-0.076,3.543,0.078,5.301c0.038,0.376,0.872,0.952,1.356,0.971c2.219,0.084,4.447-0.009,6.672-0.008
			c0.724,0,1.181-0.188,1.117-1.016C148.172,84.138,148.079,82.754,147.981,81.373z"/>
		<path fill-rule="evenodd" clip-rule="evenodd" fill="#FFFFFF" d="M163.001,81.004c0-0.003,0-0.003,0-0.006
			c-0.225-1.498-0.246-1.382-0.775-3.425c0.133,0,0.264-0.002,0.398-0.002c-0.004-0.202-0.006-0.403-0.006-0.606
			c-1.998,0-4.008-0.119-5.982,0.069c-0.639,0.064-1.199,0.944-1.797,1.453v6.255h8.326
			C163.099,83.333,163.438,82.109,163.001,81.004z"/>
		<path fill-rule="evenodd" clip-rule="evenodd" fill="#FFFFFF" d="M130.14,78.158c-1.814,0.312-3.635,0.598-5.448,0.896
			c-0.865-0.059-1.309,0.237-1.203,1.212c0.162,1.5,0.162,3.019,0.369,4.514c0.268,1.954,0.471,2.106,2.532,2.04
			c1.029-0.034,2.049-0.247,3.074-0.378c-0.025-0.005-0.053-0.012-0.076-0.018c0.943-0.056,1.635-0.231,1.711-0.253
			c0.004,0,0.006,0,0.006,0c0.533-0.058,1.068-0.116,1.613-0.173c-0.094-2.091-0.121-4.006-0.285-5.912
			C132.319,78.773,131.675,77.896,130.14,78.158z"/>
		<path fill-rule="evenodd" clip-rule="evenodd" fill="#FFFFFF" d="M159.79,75.862c0.184-0.031,0.365-0.062,0.549-0.094
			c-0.348-1.646-0.691-3.293-1.037-4.94c-0.25-0.281-0.49-0.8-0.75-0.809c-1.955-0.07-3.914-0.037-5.871-0.037
			c0.003,0.187,0.003,0.375,0.006,0.561c0.711,0,1.426-0.05,2.131,0.012c1.422,0.126,2.838,0.313,4.256,0.475
			C159.276,72.646,158.546,74.428,159.79,75.862z"/>
	</g>
	<g>
		<path fill="#FFFFFF" d="M144.95,101.603c0.758,0,1.518,0,2.275,0c0.131,0.042,0.26,0.105,0.393,0.125
			c5.248,0.77,8.812,3.647,10.662,8.603c0.367,0.981,0.506,2.049,0.75,3.077c0,0.759,0,1.518,0,2.275
			c-0.176,0.83-0.301,1.673-0.533,2.486c-2.279,7.973-11.168,11.72-18.465,7.773c-0.637-0.345-1.024-0.292-1.526,0.226
			c-1.845,1.904-3.751,3.75-5.607,5.645c-0.789,0.805-1.627,1.499-2.74,1.791c-0.332,0-0.664,0-0.996,0
			c-1.03-0.391-1.741-1.103-2.133-2.133c0-0.332,0-0.664,0-0.995c0.291-1.113,0.986-1.951,1.791-2.741
			c1.928-1.891,3.812-3.825,5.742-5.713c0.434-0.425,0.484-0.757,0.184-1.29c-1.116-1.971-1.65-4.093-1.645-6.373
			c0.018-5.281,3.479-10.208,8.494-11.925C142.681,102.061,143.831,101.875,144.95,101.603z M146.024,104.999
			c-5.297,0.027-9.576,4.302-9.588,9.575c-0.012,5.252,4.4,9.656,9.641,9.623c5.311-0.034,9.607-4.383,9.556-9.676
			C155.581,109.207,151.306,104.97,146.024,104.999z"/>
		<path fill-rule="evenodd" clip-rule="evenodd" fill="#FFFFFF" d="M149.304,110.011c-0.518-0.132-1.146-0.353-1.793-0.446
			c-2.584-0.374-4.848,0.828-6.057,3.136c-0.18,0.344-0.428,0.703-0.74,0.911c-0.499,0.331-1.047,0.24-1.504-0.167
			c-0.49-0.438-0.557-1.01-0.301-1.561c1.381-2.962,3.701-4.664,6.957-5.021c1.385-0.153,2.74,0.05,4.027,0.605
			c0.639,0.275,0.916,0.837,0.783,1.5C150.547,109.605,150.077,109.997,149.304,110.011z"/>
	</g>
</g>
</svg>
