<?xml version="1.0" encoding="utf-8"?>
<!-- Generator: Adobe Illustrator 16.0.0, SVG Export Plug-In . SVG Version: 6.00 Build 0)  -->
<!DOCTYPE svg PUBLIC "-//W3C//DTD SVG 1.1//EN" "http://www.w3.org/Graphics/SVG/1.1/DTD/svg11.dtd">
<svg version="1.1" id="Capa_1" xmlns="http://www.w3.org/2000/svg" xmlns:xlink="http://www.w3.org/1999/xlink" x="0px" y="0px"
	 width="364.252px" height="577.423px" viewBox="0 0 364.252 577.423" enable-background="new 0 0 364.252 577.423"
	 xml:space="preserve">
<g>
	<g>
		<g>
			<path fill="#462A13" d="M323.565,189.759c7.057-34.928,23.505-77.188,25.199-112.703c0.816-17.061,0.242-34.788-7.6-50.206
				c-7.835-15.417-24.604-27.956-42.771-26.773c-19.668,1.278-35.538,17.538-55.218,18.622c-13.926,0.77-27.161-6.266-41.11-6.523
				c-12.433-0.23-24.842,5.324-32.471,14.538c-6.499,7.845-9.688,18.087-17.693,24.595c-7.479,6.08-18.033,7.934-25.606,13.911
				c-10.408,8.222-12.851,22.159-13.99,34.876c-2.793,31.259-1.869,62.81,2.756,93.887L323.565,189.759z"/>
			<path fill="#FEFEFF" d="M313.972,577.423H47.273H0c1.979-21.484,9.158-71.054,34.64-115.918
				c7.803-13.732,17.33-27.021,28.947-38.928c8.779-9.02,18.778-17.256,30.149-24.27c0.03-0.021,0.051-0.033,0.061-0.041
				c0.022-0.012,0.03-0.023,0.03-0.023c13.67-8.459,29.318-15.154,47.232-19.398c13.547-3.23,28.405-5.045,44.669-5.146
				c16.941-0.104,32.261,1.588,46.145,4.756c0.011,0,0.022,0,0.042,0.012c0.133,0.029,0.266,0.061,0.401,0.09
				c14.806,3.416,27.962,8.502,39.632,14.849c10.697,5.817,20.15,12.687,28.508,20.304c11.26,10.258,20.54,21.875,28.17,34.057
				c0.02,0.031,0.049,0.073,0.072,0.104c0.277,0.439,0.553,0.883,0.818,1.322c35.626,57.988,34.733,128.232,34.733,128.232H313.972z
				"/>
			<path fill="#CD9376" d="M316.709,122.488c3.529,32.135,6.145,70.123,4.554,105.074c-2.203,48.581-37.338,89.324-85.187,98.02
				l-7.868,1.432l4.465,56.016l-91.111-0.927l-19.947-130.396c0,0-32.862,6.118-51.604-23.77
				c-20.351-32.46-6.775-91.696,23.26-64.591c35.178,31.749,42.778,31.385,42.778,31.385
				c6.087-41.066-17.127-124.113,79.586-145.214C264.212,38.914,311.274,73.064,316.709,122.488z"/>
			<g>
				<path fill="#976E58" d="M110.729,219.916c-0.169-0.599-3.973,0.675-9.977-0.079c-5.897-0.637-14.149-4.116-18.696-12.049
					c-3.667-6.117-4.452-13.563-2.735-18.251c1.785-4.923,7.069-4.521,8.201-3.119l0.682-0.902
					c-1.245-0.349-1.886-0.417-1.967-0.231c-0.082,0.186,0.396,0.611,1.492,1.297l1.838,1.145l-1.157-2.054
					c-0.61-1.092-2.461-2.422-4.956-2.263c-2.442-0.022-5.511,1.847-6.873,4.898c-2.671,6.003-1.907,14.202,2.271,21.384
					c5.261,9.2,15.233,12.847,21.706,12.77C107.271,222.562,110.929,220.257,110.729,219.916z"/>
			</g>
			<g>
				<path fill="#976E58" d="M76.171,199.073c0.641,0.823,4.103-0.747,8.403,0.117c4.329,0.68,7.039,3.348,7.926,2.79
					c0.402-0.261,0.228-1.478-0.963-2.953c-1.17-1.463-3.456-2.994-6.311-3.505c-2.85-0.504-5.526,0.14-7.126,1.11
					C76.469,197.598,75.887,198.682,76.171,199.073z"/>
			</g>
			<path fill="#F0A67B" d="M260.244,274.8"/>
			<g>
				<path fill="#976E58" d="M203.907,322.165c-0.492,0.867,2.816,3.541,7.831,4.195c5.015,0.684,8.905-1.029,8.657-2
					c-0.216-1.031-3.873-1.092-8.164-1.69C207.933,322.124,204.389,321.226,203.907,322.165z"/>
			</g>
			<path fill="#FFFFFF" d="M213.698,191.006c0,0,4.306-25.239-22.67-31.679c-22.658-5.406-30.782,20.016-30.782,20.016
				L213.698,191.006z"/>
			<path fill="#462A13" d="M193.64,160.066l-9.971,24.387l30.029,6.553C213.698,191.006,216.942,165.849,193.64,160.066z"/>
			<path fill="#FFFFFF" d="M313.577,182.675c0,0-7.123-24.596-34.207-18.64c-22.754,5.002-18.994,31.425-18.994,31.425
				L313.577,182.675z"/>
			<path fill="#462A13" d="M282.038,163.56l1.649,26.298l29.89-7.183C313.577,182.675,305.535,158.618,282.038,163.56z"/>
			<g>
				<path fill="#462A13" d="M272.073,133.65c0.738,1.438,3.745,1.321,7.736,2.733c4.037,1.236,9.678,4.294,16.676,7.581
					c13.658,6.379,25.23,11.166,26.979,8.582c1.729-2.517-7.68-11.898-22.227-18.703c-7.027-3.285-14.514-5.916-20.768-5.336
					C274.155,129.007,271.295,132.433,272.073,133.65z"/>
			</g>
			<path fill="#CD9376" d="M231.919,378.458c0,0-19.381,63.61-33.158,64.865c-11.664,1.064-57.702-64.479-57.702-64.479
				L231.919,378.458z"/>
			<g>
				<path fill="none" stroke="#E2CDAE" stroke-miterlimit="10" d="M238.856,237.659"/>
			</g>
			<path fill="#462A13" d="M329.176,77.288c6.823,12.167-0.975,28.693-13.472,34.883c-12.504,6.19-27.639,4.128-40.613-0.993
				c-12.975-5.129-24.652-13.058-37.355-18.823c-27.528-12.498-59.771-14.255-88.491-4.817
				c6.912-22.444,26.038-39.825,47.886-48.442c21.846-8.618,46.143-9.294,69.42-6.157c15.643,2.112,31.39,6.028,44.633,14.61
				c13.248,8.589,23.752,22.447,25.297,38.158L329.176,77.288z"/>
			<g>
				<path fill="#462A13" d="M146.083,139.469c0.536,1.498,4.757,1.376,11.273,1.369c6.529-0.129,15.573,0.215,26.231-0.725
					c10.712-0.958,20.688-4.298,26.711-8.834c6.121-4.491,7.966-9.064,6.878-9.991c-1.192-1.116-4.782,1.042-10.624,3.027
					c-5.828,2.09-14.209,3.765-24.052,4.67c-9.901,0.887-19.582,1.828-26.4,4.053C149.231,135.156,145.566,138.07,146.083,139.469z"
					/>
			</g>
			<g>
				<path fill="#976E58" d="M190.503,238.246c-0.449,0.106-0.154,3.792,2.049,9.31c2.164,5.478,6.514,12.725,13.422,18.732
					c3.347,2.956,7.391,5.734,11.988,5.863c4.654,0.091,8.006-2.589,9.977-4.874c3.812-4.908,4.408-8.555,4.109-8.717
					c-0.556-0.349-2.215,3.081-6.02,6.901c-1.918,1.774-4.769,3.533-7.909,3.264c-3.178-0.216-6.532-2.421-9.69-5.242
					C195.347,252.165,191.537,237.794,190.503,238.246z"/>
			</g>
			<g>
				<path fill="#976E58" d="M187.082,250.633c1.054-0.022,1.8-3.661,4.521-6.975c2.602-3.415,5.965-4.97,5.752-6
					c-0.043-1.035-5.129-0.834-8.675,3.684C185.097,245.838,186.069,250.83,187.082,250.633z"/>
			</g>
			<g opacity="0.44">
				<path fill="#C97068" d="M158.666,203.761c-0.218,3.082,10.787,6.375,24.583,7.361c13.799,0.981,25.162-0.72,25.38-3.799
					c0.219-3.077-10.783-6.371-24.584-7.356C170.249,198.986,158.883,200.683,158.666,203.761z"/>
			</g>
			<g opacity="0.44">
				<path fill="#C97068" d="M277.622,214.863c0.573,3.014,9.811,3.772,20.324,0.58c10.525-3.175,17.787-8.934,16.595-11.754
					c-1.202-2.868-9.919-1.932-19.833,1.051C284.808,207.752,277.033,211.812,277.622,214.863z"/>
			</g>
			<g opacity="0.44">
				<path fill="#C97068" d="M67.708,185.181c-1.385-0.31-4.116,4.374-4.395,12.907c-0.343,8.373,2.534,20.684,11.358,30.845
					c8.851,10.15,20.65,14.699,28.987,15.518c8.485,0.902,13.507-1.153,13.392-2.566c-0.062-1.641-4.85-2.512-11.578-5.128
					c-6.705-2.536-15.48-7.263-22.365-15.157c-6.866-7.914-10.334-17.25-11.923-24.248
					C69.523,190.328,69.322,185.469,67.708,185.181z"/>
			</g>
			<g opacity="0.44">
				<path fill="#C97068" d="M74.835,182.194c2.924-0.679,5.121-5.378,8.682-7.578c3.277-2.599,8.445-3.074,10.079-5.594
					c0.712-1.3-0.195-3.593-3.354-5.098c-3.032-1.481-8.422-1.743-13.148,1.542c-4.693,3.332-6.281,8.487-5.91,11.842
					C71.522,180.796,73.368,182.429,74.835,182.194z"/>
			</g>
			<path fill="#976E58" d="M242.861,158.572c0,0,0.487,6.755,1.638,16.796c0.282,2.509,0.579,5.23,0.947,8.1
				c0.356,2.871,0.731,5.895,1.118,9.021c0.802,6.248,1.656,12.91,2.505,19.573c0.451,3.325,0.872,6.648,1.242,9.924
				c0.343,3.274,0.764,6.484,1.01,9.593c0.229,3.092,0.483,6.114,0.389,8.839c-0.021,0.682-0.084,1.331-0.173,1.921
				c-0.055,0.277-0.11,0.562-0.178,0.758c-0.064,0.225-0.156,0.319-0.06,0.27c0.412-0.17-0.144,0.053-0.424,0.141
				c-0.324,0.121-0.631,0.223-0.866,0.242c-0.258,0.053-0.512,0.106-0.766,0.156c-0.294,0.021-0.585,0.049-0.874,0.072
				c-2.336,0.147-4.622-0.117-6.608-0.425c-1.989-0.333-3.733-0.701-5.163-1.042c-2.861-0.679-4.486-1.175-4.486-1.175
				s0.379,0.197,1.084,0.56c0.712,0.346,1.75,0.887,3.127,1.452c1.369,0.576,3.051,1.255,5.056,1.857
				c2.005,0.599,4.31,1.22,7.031,1.319c0.341,0.007,0.687,0.015,1.038,0.022c0.385-0.038,0.773-0.076,1.172-0.114
				c0.424-0.03,0.752-0.105,1.066-0.181l0.491-0.117l0.124-0.028l0.062-0.014l0.029-0.008c-0.019,0.012,0.258-0.091,0.177-0.064
				c0.198-0.091,0.394-0.204,0.574-0.329c0.61-0.501,0.87-1.017,1.054-1.441c0.193-0.443,0.299-0.841,0.413-1.242
				c0.185-0.785,0.314-1.559,0.397-2.32c0.338-3.047,0.334-6.145,0.209-9.348c-0.141-3.192-0.303-6.48-0.648-9.801
				c-0.326-3.316-0.691-6.684-1.103-10.037c-0.478-3.344-0.959-6.69-1.432-9.98c-0.479-3.291-1.085-6.504-1.622-9.621
				c-0.532-3.119-1.143-6.117-1.711-8.96c-0.555-2.846-1.148-5.523-1.701-7.994C244.81,165.062,242.861,158.572,242.861,158.572z"/>
			<path fill="#C19A69" d="M47.273,577.423h266.698c3.436-13.054,27.359-106.309,15.545-128.232
				c-0.256-0.475-0.532-0.926-0.818-1.322c-0.023-0.03-0.053-0.072-0.072-0.104c-8.234-11.25-17.536-23.563-28.17-34.057
				c-8.574-8.447-18.039-15.73-28.508-20.304c0,0-15.586,80.651-74.591,77.69c-58.993-2.957-103.53-72.852-103.53-72.852
				s-0.008,0.012-0.03,0.023c-0.01,0.008-0.03,0.02-0.061,0.041c-1.262,0.902-15.833,11.361-30.149,24.27
				c-10.418,9.387-20.682,20.07-25.585,29.309c-1.435,2.709-2.543,5.959-3.362,9.619C27.696,492.616,41.459,553.979,47.273,577.423z
				"/>
		</g>
		<g>
			<path fill="none" stroke="#A3998C" stroke-width="0.15" stroke-miterlimit="10" d="M240.718,50.216"/>
		</g>
		<g>
			<path fill="#5D381E" d="M158.334,76.254c0.765,1.64,11.35-3.439,29.367-2.249c8.967,0.432,19.618,2.354,31.532,5.075
				c11.838,2.687,25.421,6.243,40.294,7.205c14.782,1.013,30.044-1.095,41.914-8.161c12.073-6.837,19.093-18.041,22.101-27.518
				c3.136-9.658,2.678-18.008,1.487-23.357c-1.245-5.4-3.002-7.971-3.652-7.765c-0.817,0.236-0.53,3.17-0.679,8.182
				c-0.184,4.984-0.981,12.226-4.547,20.132c-3.517,7.831-9.801,16.321-19.732,21.332c-9.809,5.246-22.594,6.907-36.175,6
				c-13.667-0.875-26.608-3.915-38.974-6.147c-12.301-2.229-23.818-3.463-33.584-2.885c-9.762,0.44-17.561,2.738-22.488,5.061
				C160.221,73.444,158.034,75.68,158.334,76.254z"/>
		</g>
		<g>
			<path fill="#5D381E" d="M294.657,106.288c0.057,1.505,2.873,2.885,7.602,3.131c4.697,0.258,11.271-0.815,17.789-3.889
				c6.513-3.085,11.518-7.482,14.298-11.272c2.811-3.813,3.534-6.868,2.409-7.861c-2.443-2.024-10.642,4.037-21.484,9.028
				C304.534,100.628,294.644,103.115,294.657,106.288z"/>
		</g>
	</g>
	<path fill="#FFFFFF" d="M112.637,489.663h21.554c0,0,15.882,26.959,0,30.533c-15.878,3.574-55.347,0-55.347,0
		s-10.871-33.652,0-30.533c10.867,3.121,22.784,0,22.784,0H112.637z"/>
	<g>
		<path fill="#242021" d="M112.637,489.663l21.554-0.031h0.019l0.009,0.016c1.874,3.292,3.489,6.731,4.799,10.287
			c0.649,1.779,1.212,3.593,1.629,5.442c0.413,1.849,0.685,3.739,0.653,5.642c-0.031,1.887-0.375,3.836-1.398,5.467
			c-0.985,1.645-2.623,2.846-4.437,3.43c-0.46,0.127-0.911,0.275-1.378,0.385l-1.396,0.257c-0.931,0.172-1.859,0.356-2.805,0.445
			l-2.826,0.329l-2.834,0.214c-1.889,0.146-3.783,0.188-5.675,0.271c-1.894,0.022-3.787,0.096-5.681,0.075
			c-3.788,0.017-7.575-0.067-11.359-0.205c-7.569-0.28-15.128-0.755-22.674-1.405l-0.057-0.004l-0.017-0.055
			c-1.417-4.569-2.643-9.198-3.582-13.891c-0.46-2.346-0.853-4.709-1.069-7.094c-0.094-1.192-0.172-2.389-0.135-3.587
			c0.042-1.194,0.141-2.399,0.491-3.553c0.325-1.132,1.09-2.285,2.309-2.565c0.584-0.155,1.206-0.095,1.786,0.041
			c0.587,0.117,1.161,0.285,1.742,0.425c0.576,0.162,1.167,0.254,1.752,0.367c0.585,0.12,1.174,0.215,1.768,0.281
			c1.182,0.173,2.375,0.259,3.567,0.326c1.193,0.058,2.389,0.063,3.583,0.04c1.195-0.037,2.388-0.104,3.579-0.215
			c2.377-0.229,4.749-0.578,7.074-1.135c-2.324,0.563-4.695,0.919-7.073,1.156c-1.19,0.113-2.383,0.184-3.579,0.225
			c-1.195,0.027-2.391,0.025-3.586-0.029c-1.193-0.063-2.388-0.146-3.572-0.315c-0.595-0.064-1.186-0.158-1.772-0.277
			c-0.588-0.111-1.181-0.201-1.757-0.362c-0.581-0.138-1.157-0.305-1.742-0.419c-0.574-0.134-1.184-0.189-1.752-0.036
			c-1.182,0.275-1.926,1.396-2.246,2.519c-0.343,1.142-0.438,2.341-0.477,3.53c-0.034,1.192,0.048,2.386,0.146,3.574
			c0.223,2.378,0.622,4.737,1.089,7.079c0.952,4.683,2.19,9.307,3.618,13.863l-0.073-0.058c7.542,0.627,15.103,1.078,22.667,1.336
			c3.783,0.118,7.566,0.217,11.35,0.213c1.893,0.026,3.784-0.042,5.676-0.059c1.889-0.076,3.783-0.114,5.668-0.254l2.829-0.205
			l2.815-0.319c0.941-0.085,1.871-0.267,2.802-0.437l1.396-0.252c0.453-0.104,0.904-0.252,1.356-0.375
			c1.79-0.57,3.394-1.742,4.366-3.353c1.008-1.596,1.356-3.52,1.393-5.393c0.037-1.887-0.229-3.771-0.635-5.614
			c-0.409-1.845-0.966-3.656-1.608-5.434c-1.297-3.553-2.902-6.996-4.763-10.288l0.027,0.016L112.637,489.663z"/>
	</g>
	<g>
		<path fill="#242021" d="M107.632,489.46c0,0-0.036-0.426-0.07-1.064c-0.034-0.638-0.046-1.489-0.055-2.34
			c0.008-0.852,0.021-1.702,0.055-2.34c0.034-0.639,0.07-1.063,0.07-1.063s0.037,0.425,0.07,1.063
			c0.034,0.638,0.046,1.488,0.055,2.34c-0.009,0.851-0.021,1.702-0.055,2.34C107.668,489.034,107.632,489.46,107.632,489.46z"/>
	</g>
	<g>
		<path fill="#242021" d="M108.452,485.87c0,0,0.056-0.35,0.155-0.961c0.125-0.606,0.323-1.473,0.568-2.502
			c0.124-0.516,0.232-1.079,0.308-1.677c0.078-0.599,0.093-1.237,0.025-1.886c-0.068-0.317-0.093-0.658-0.196-0.968
			c-0.1-0.333-0.272-0.598-0.475-0.872c-0.42-0.524-1.021-0.927-1.685-1.046c-0.33-0.052-0.669-0.043-0.984,0.063
			c-0.303,0.125-0.598,0.298-0.81,0.559c-0.457,0.498-0.689,1.158-0.731,1.797c-0.078,1.305,0.328,2.509,0.652,3.507
			c0.347,1.001,0.639,1.839,0.804,2.437c0.166,0.6,0.196,0.953,0.196,0.953s-0.046-0.353-0.237-0.941
			c-0.182-0.591-0.533-1.402-0.891-2.404c-0.339-0.999-0.772-2.201-0.712-3.565c0.038-0.68,0.273-1.388,0.756-1.929
			c0.227-0.286,0.552-0.489,0.894-0.633c0.355-0.126,0.738-0.145,1.107-0.088c0.736,0.145,1.371,0.589,1.812,1.156
			c0.209,0.282,0.405,0.616,0.496,0.941c0.107,0.34,0.126,0.681,0.191,1.012c0.061,0.67,0.035,1.321-0.054,1.928
			c-0.084,0.604-0.203,1.172-0.335,1.687c-0.256,1.033-0.514,1.877-0.658,2.479C108.523,485.522,108.452,485.87,108.452,485.87z"/>
	</g>
</g>
</svg>
