<?xml version="1.0" encoding="utf-8"?>
<!-- Generator: Adobe Illustrator 16.0.0, SVG Export Plug-In . SVG Version: 6.00 Build 0)  -->
<!DOCTYPE svg PUBLIC "-//W3C//DTD SVG 1.1//EN" "http://www.w3.org/Graphics/SVG/1.1/DTD/svg11.dtd">
<svg version="1.1" id="Capa_1" xmlns="http://www.w3.org/2000/svg" xmlns:xlink="http://www.w3.org/1999/xlink" x="0px" y="0px"
	 width="164.37px" height="301.091px" viewBox="0 0 164.37 301.091" enable-background="new 0 0 164.37 301.091"
	 xml:space="preserve">
<g>
	<g>
		<path fill="#7D8A2B" d="M35.214,51.533h2.576v8.609h2.808v-8.609h2.576v20h-2.576v-9.355H37.79v9.355h-2.576V51.533z"/>
		<path fill="#7D8A2B" d="M52.787,61.012v10.521h-2.332l-0.136-1.139c-0.289,0.488-0.626,0.856-1.01,1.105
			c-0.385,0.248-0.807,0.372-1.269,0.372c-0.831,0-1.433-0.273-1.803-0.82c-0.371-0.547-0.557-1.431-0.557-2.651v-2.399
			c0-1.121,0.349-1.933,1.045-2.435c0.695-0.501,1.894-0.788,3.593-0.86v-1.614c0-0.831-0.077-1.387-0.23-1.668
			c-0.153-0.279-0.43-0.42-0.827-0.42c-0.361,0-0.624,0.139-0.786,0.414c-0.163,0.275-0.244,0.721-0.244,1.336v0.582h-2.278v-0.324
			c0-1.402,0.258-2.378,0.773-2.93c0.515-0.551,1.414-0.827,2.698-0.827c1.22,0,2.086,0.28,2.597,0.841S52.787,59.628,52.787,61.012
			z M50.306,64.428c-0.831,0.045-1.395,0.199-1.688,0.461c-0.294,0.263-0.441,0.729-0.441,1.396v1.777
			c0,0.75,0.084,1.276,0.251,1.579c0.167,0.304,0.445,0.454,0.834,0.454c0.38,0,0.651-0.148,0.813-0.447
			c0.163-0.299,0.244-0.827,0.244-1.586L50.306,64.428z"/>
		<path fill="#7D8A2B" d="M55.282,51.533h2.441v7.173c0.28-0.47,0.612-0.829,0.996-1.078c0.385-0.249,0.803-0.373,1.255-0.373
			c0.822,0,1.417,0.269,1.782,0.808c0.366,0.537,0.55,1.426,0.55,2.664V68.4c0,1.239-0.184,2.127-0.55,2.665
			c-0.365,0.538-0.969,0.807-1.81,0.807c-0.434,0-0.843-0.126-1.228-0.38c-0.384-0.252-0.716-0.619-0.996-1.098l-0.108,1.139h-2.333
			V51.533z M59.812,61.146c0-0.75-0.077-1.266-0.23-1.546c-0.154-0.28-0.42-0.42-0.8-0.42s-0.651,0.147-0.813,0.44
			c-0.163,0.294-0.244,0.803-0.244,1.525v6.807c0,0.724,0.081,1.236,0.244,1.539c0.162,0.303,0.434,0.455,0.813,0.455
			s0.646-0.145,0.8-0.435c0.153-0.289,0.23-0.809,0.23-1.56V61.146z"/>
		<path fill="#7D8A2B" d="M64.638,51.533h2.617v2.508h-2.617V51.533z M64.719,57.594h2.441v13.939h-2.441V57.594z"/>
		<path fill="#7D8A2B" d="M69.669,51.533h2.441v20h-2.441V51.533z"/>
		<path fill="#7D8A2B" d="M74.537,51.533h2.617v2.508h-2.617V51.533z M74.618,57.594h2.441v13.939h-2.441V57.594z"/>
		<path fill="#7D8A2B" d="M84.069,51.533h2.468v20h-2.332l-0.136-1.139c-0.28,0.479-0.612,0.846-0.996,1.098
			c-0.385,0.254-0.803,0.38-1.255,0.38c-0.813,0-1.401-0.269-1.763-0.807s-0.542-1.426-0.542-2.665v-7.674
			c0-1.257,0.181-2.149,0.542-2.678c0.361-0.529,0.958-0.794,1.79-0.794c0.443,0,0.854,0.124,1.234,0.373
			c0.379,0.249,0.709,0.608,0.989,1.078V51.533z M84.069,61.146c0-0.732-0.077-1.242-0.23-1.532c-0.153-0.289-0.42-0.434-0.8-0.434
			c-0.389,0-0.662,0.142-0.82,0.427s-0.237,0.798-0.237,1.539v6.807c0,0.76,0.076,1.281,0.23,1.566
			c0.153,0.285,0.42,0.428,0.8,0.428s0.651-0.152,0.813-0.455c0.163-0.303,0.244-0.815,0.244-1.539V61.146z"/>
		<path fill="#7D8A2B" d="M95.865,61.012v10.521h-2.332l-0.136-1.139c-0.289,0.488-0.626,0.856-1.01,1.105
			c-0.385,0.248-0.807,0.372-1.269,0.372c-0.831,0-1.433-0.273-1.803-0.82c-0.371-0.547-0.557-1.431-0.557-2.651v-2.399
			c0-1.121,0.349-1.933,1.045-2.435c0.695-0.501,1.894-0.788,3.593-0.86v-1.614c0-0.831-0.077-1.387-0.23-1.668
			c-0.153-0.279-0.43-0.42-0.827-0.42c-0.361,0-0.624,0.139-0.786,0.414c-0.163,0.275-0.244,0.721-0.244,1.336v0.582h-2.278v-0.324
			c0-1.402,0.258-2.378,0.773-2.93c0.515-0.551,1.414-0.827,2.698-0.827c1.22,0,2.086,0.28,2.597,0.841S95.865,59.628,95.865,61.012
			z M93.384,64.428c-0.831,0.045-1.395,0.199-1.688,0.461c-0.294,0.263-0.441,0.729-0.441,1.396v1.777
			c0,0.75,0.084,1.276,0.251,1.579c0.167,0.304,0.445,0.454,0.834,0.454c0.38,0,0.651-0.148,0.813-0.447
			c0.163-0.299,0.244-0.827,0.244-1.586L93.384,64.428z"/>
		<path fill="#7D8A2B" d="M102.862,51.533h2.468v20h-2.332l-0.136-1.139c-0.28,0.479-0.612,0.846-0.996,1.098
			c-0.385,0.254-0.803,0.38-1.255,0.38c-0.813,0-1.401-0.269-1.763-0.807s-0.542-1.426-0.542-2.665v-7.674
			c0-1.257,0.181-2.149,0.542-2.678c0.361-0.529,0.958-0.794,1.79-0.794c0.443,0,0.854,0.124,1.234,0.373
			c0.379,0.249,0.709,0.608,0.989,1.078V51.533z M102.862,61.146c0-0.732-0.077-1.242-0.23-1.532c-0.153-0.289-0.42-0.434-0.8-0.434
			c-0.389,0-0.662,0.142-0.82,0.427s-0.237,0.798-0.237,1.539v6.807c0,0.76,0.076,1.281,0.23,1.566
			c0.153,0.285,0.42,0.428,0.8,0.428s0.651-0.152,0.813-0.455c0.163-0.303,0.244-0.815,0.244-1.539V61.146z"/>
		<path fill="#7D8A2B" d="M114.85,62.041v3.241h-4.61v2.753c0,0.813,0.081,1.365,0.244,1.654c0.162,0.289,0.442,0.434,0.841,0.434
			c0.388,0,0.661-0.154,0.82-0.461c0.157-0.307,0.237-0.85,0.237-1.627v-1.193h2.468v0.908c0,1.429-0.283,2.468-0.848,3.119
			c-0.565,0.65-1.467,0.977-2.705,0.977c-1.338,0-2.27-0.338-2.794-1.011s-0.786-1.923-0.786-3.749v-5.045
			c0-1.834,0.265-3.092,0.793-3.77c0.529-0.678,1.467-1.017,2.814-1.017c1.311,0,2.226,0.344,2.745,1.03
			C114.589,58.973,114.85,60.225,114.85,62.041z M112.382,61.065c0-0.805-0.08-1.358-0.237-1.661
			c-0.159-0.303-0.433-0.455-0.82-0.455c-0.398,0-0.679,0.15-0.841,0.448c-0.163,0.298-0.244,0.854-0.244,1.668v2.522h2.143V61.065z
			"/>
		<path fill="#7D8A2B" d="M123.514,60.957v0.664h-2.359v-0.719c0-0.795-0.061-1.311-0.183-1.545
			c-0.122-0.236-0.351-0.354-0.685-0.354c-0.308,0-0.527,0.111-0.658,0.332c-0.131,0.223-0.196,0.586-0.196,1.092v0.529
			c0,0.226,0.081,0.479,0.244,0.76c0.163,0.279,0.425,0.619,0.786,1.016l1.993,2.103c0.435,0.47,0.751,0.903,0.949,1.302
			c0.199,0.397,0.299,0.8,0.299,1.207v1.111c0,1.148-0.28,2.005-0.841,2.57c-0.561,0.564-1.419,0.847-2.576,0.847
			c-1.212,0-2.06-0.267-2.543-0.8s-0.726-1.492-0.726-2.875v-0.162v-0.949h2.278v1.111c0,0.76,0.063,1.271,0.19,1.533
			c0.126,0.262,0.356,0.393,0.691,0.393c0.397,0,0.678-0.122,0.841-0.366c0.162-0.244,0.243-0.659,0.243-1.247V67.98
			c0-0.325-0.081-0.652-0.243-0.982c-0.163-0.33-0.416-0.672-0.76-1.024l-1.939-2.021c-0.542-0.588-0.895-1.064-1.058-1.43
			c-0.162-0.367-0.244-0.78-0.244-1.241v-0.8c0-1.059,0.28-1.859,0.841-2.407c0.561-0.547,1.388-0.82,2.481-0.82
			c1.14,0,1.953,0.284,2.441,0.854C123.27,58.679,123.514,59.628,123.514,60.957z"/>
		<path fill="#7D8A2B" d="M41.349,74.68h2.468v20.001h-2.332l-0.136-1.14c-0.28,0.48-0.612,0.846-0.996,1.1
			c-0.385,0.252-0.803,0.379-1.255,0.379c-0.813,0-1.401-0.27-1.763-0.807s-0.542-1.426-0.542-2.664v-7.676
			c0-1.256,0.181-2.148,0.542-2.678c0.361-0.528,0.958-0.793,1.79-0.793c0.443,0,0.854,0.125,1.234,0.373
			c0.379,0.248,0.709,0.607,0.989,1.078V74.68z M41.349,84.294c0-0.731-0.077-1.243-0.23-1.532s-0.42-0.434-0.8-0.434
			c-0.389,0-0.662,0.143-0.82,0.427s-0.237,0.798-0.237,1.539v6.808c0,0.759,0.076,1.281,0.23,1.565
			c0.153,0.284,0.42,0.427,0.8,0.427s0.651-0.15,0.813-0.453c0.163-0.303,0.244-0.816,0.244-1.539V84.294z"/>
		<path fill="#7D8A2B" d="M53.336,85.189v3.24h-4.61v2.752c0,0.814,0.081,1.365,0.244,1.654c0.162,0.29,0.442,0.435,0.841,0.435
			c0.388,0,0.661-0.153,0.82-0.461c0.157-0.308,0.237-0.85,0.237-1.628v-1.192h2.468v0.908c0,1.429-0.283,2.468-0.848,3.118
			c-0.565,0.651-1.467,0.977-2.705,0.977c-1.338,0-2.27-0.336-2.794-1.01s-0.786-1.924-0.786-3.75v-5.043
			c0-1.836,0.265-3.092,0.793-3.77c0.529-0.679,1.467-1.018,2.814-1.018c1.311,0,2.226,0.344,2.745,1.031
			C53.075,82.12,53.336,83.372,53.336,85.189z M50.868,84.213c0-0.805-0.08-1.358-0.237-1.661c-0.159-0.303-0.433-0.454-0.82-0.454
			c-0.398,0-0.679,0.148-0.841,0.447c-0.163,0.299-0.244,0.854-0.244,1.668v2.521h2.143V84.213z"/>
		<path fill="#7D8A2B" d="M60.888,74.68h5.967v2.115h-3.391v6.387h3.228v2.115h-3.228v7.269h3.58v2.115h-6.156V74.68z"/>
		<path fill="#7D8A2B" d="M75.464,84.104v0.665h-2.359V84.05c0-0.796-0.061-1.311-0.183-1.546c-0.122-0.234-0.351-0.352-0.685-0.352
			c-0.308,0-0.527,0.109-0.658,0.332c-0.131,0.221-0.196,0.585-0.196,1.091v0.528c0,0.227,0.081,0.48,0.244,0.76
			c0.163,0.281,0.425,0.619,0.786,1.018l1.993,2.102c0.435,0.47,0.751,0.904,0.949,1.302c0.199,0.397,0.299,0.8,0.299,1.206v1.112
			c0,1.148-0.28,2.005-0.841,2.569s-1.419,0.848-2.576,0.848c-1.212,0-2.06-0.267-2.543-0.8s-0.726-1.491-0.726-2.874v-0.164v-0.949
			h2.278v1.113c0,0.759,0.063,1.27,0.19,1.531c0.126,0.263,0.356,0.394,0.691,0.394c0.397,0,0.678-0.122,0.841-0.366
			c0.162-0.244,0.243-0.66,0.243-1.248v-0.528c0-0.325-0.081-0.653-0.243-0.983c-0.163-0.33-0.416-0.671-0.76-1.023l-1.939-2.02
			c-0.542-0.588-0.895-1.064-1.058-1.432c-0.162-0.365-0.244-0.779-0.244-1.24v-0.801c0-1.057,0.28-1.859,0.841-2.406
			s1.388-0.82,2.481-0.82c1.14,0,1.953,0.285,2.441,0.854C75.22,81.826,75.464,82.775,75.464,84.104z"/>
		<path fill="#7D8A2B" d="M84.55,84.512v0.812h-2.468v-1.139c0-0.777-0.072-1.307-0.217-1.586c-0.145-0.281-0.398-0.421-0.76-0.421
			c-0.316,0-0.54,0.145-0.671,0.435c-0.131,0.289-0.196,0.831-0.196,1.627v6.941c0,0.814,0.069,1.365,0.21,1.654
			c0.14,0.29,0.377,0.435,0.712,0.435c0.325,0,0.556-0.14,0.691-0.421c0.136-0.279,0.203-0.836,0.203-1.668v-1.355h2.495v1.071
			c0,1.392-0.28,2.423-0.841,3.092s-1.419,1.003-2.576,1.003c-1.274,0-2.163-0.336-2.664-1.01c-0.502-0.674-0.753-1.924-0.753-3.75
			v-5.043c0-1.826,0.256-3.08,0.767-3.764c0.51-0.682,1.403-1.023,2.678-1.023c1.157,0,2.011,0.334,2.562,1.004
			C84.274,82.074,84.55,83.109,84.55,84.512z"/>
		<path fill="#7D8A2B" d="M86.651,80.741h2.468v10.36c0,0.759,0.079,1.281,0.237,1.565s0.432,0.427,0.82,0.427
			c0.38,0,0.65-0.15,0.813-0.453c0.162-0.303,0.244-0.816,0.244-1.539v-10.36h2.468v13.939h-2.359l-0.108-1.14
			c-0.299,0.48-0.645,0.842-1.037,1.086c-0.394,0.244-0.825,0.365-1.295,0.365c-0.823,0-1.404-0.253-1.743-0.759
			c-0.339-0.507-0.508-1.424-0.508-2.753V80.741z"/>
		<path fill="#7D8A2B" d="M102.95,84.512v0.812h-2.468v-1.139c0-0.777-0.072-1.307-0.217-1.586c-0.145-0.281-0.398-0.421-0.76-0.421
			c-0.316,0-0.54,0.145-0.671,0.435c-0.131,0.289-0.196,0.831-0.196,1.627v6.941c0,0.814,0.069,1.365,0.21,1.654
			c0.14,0.29,0.377,0.435,0.712,0.435c0.325,0,0.556-0.14,0.691-0.421c0.136-0.279,0.203-0.836,0.203-1.668v-1.355h2.495v1.071
			c0,1.392-0.28,2.423-0.841,3.092s-1.419,1.003-2.576,1.003c-1.274,0-2.163-0.336-2.664-1.01c-0.502-0.674-0.753-1.924-0.753-3.75
			v-5.043c0-1.826,0.256-3.08,0.767-3.764c0.51-0.682,1.403-1.023,2.678-1.023c1.157,0,2.011,0.334,2.562,1.004
			C102.675,82.074,102.95,83.109,102.95,84.512z"/>
		<path fill="#7D8A2B" d="M105.078,74.68h2.441v7.174c0.298-0.479,0.646-0.841,1.044-1.085c0.397-0.244,0.827-0.366,1.288-0.366
			c0.831,0,1.415,0.256,1.749,0.766c0.334,0.512,0.502,1.432,0.502,2.76v10.753h-2.468V84.294c0-0.75-0.079-1.266-0.237-1.546
			c-0.158-0.279-0.432-0.42-0.82-0.42c-0.38,0-0.651,0.146-0.813,0.44c-0.163,0.294-0.244,0.802-0.244,1.525v10.387h-2.441V74.68z"
			/>
		<path fill="#7D8A2B" d="M121.458,84.158v10.522h-2.332l-0.136-1.14c-0.289,0.488-0.626,0.857-1.01,1.105
			c-0.385,0.249-0.807,0.373-1.269,0.373c-0.831,0-1.433-0.273-1.803-0.82c-0.371-0.547-0.557-1.431-0.557-2.65v-2.4
			c0-1.121,0.349-1.932,1.045-2.434c0.695-0.502,1.894-0.789,3.593-0.861V84.24c0-0.832-0.077-1.389-0.23-1.668
			c-0.153-0.28-0.43-0.42-0.827-0.42c-0.361,0-0.624,0.137-0.786,0.413c-0.163,0.275-0.244,0.721-0.244,1.335v0.584h-2.278v-0.326
			c0-1.4,0.258-2.377,0.773-2.929c0.515-0.552,1.414-0.827,2.698-0.827c1.22,0,2.086,0.28,2.597,0.841
			S121.458,82.775,121.458,84.158z M118.977,87.576c-0.831,0.045-1.395,0.198-1.688,0.461c-0.294,0.262-0.441,0.727-0.441,1.396
			v1.775c0,0.751,0.084,1.277,0.251,1.58s0.445,0.454,0.834,0.454c0.38,0,0.651-0.149,0.813-0.447
			c0.163-0.298,0.244-0.827,0.244-1.587L118.977,87.576z"/>
	</g>
	<g>
		<path fill="#2B1C48" d="M33.66,124.422h5.967v2.115h-3.391v6.522h3.2v2.115h-3.2v9.247H33.66V124.422z"/>
		<path fill="#2B1C48" d="M48.345,133.9v10.521h-2.332l-0.136-1.139c-0.289,0.488-0.626,0.857-1.01,1.105
			c-0.385,0.248-0.807,0.373-1.269,0.373c-0.831,0-1.433-0.273-1.803-0.82c-0.371-0.547-0.557-1.432-0.557-2.651v-2.399
			c0-1.121,0.349-1.933,1.045-2.435c0.695-0.501,1.894-0.788,3.593-0.86v-1.614c0-0.831-0.077-1.388-0.23-1.668
			s-0.43-0.42-0.827-0.42c-0.361,0-0.624,0.138-0.786,0.413c-0.163,0.275-0.244,0.721-0.244,1.336v0.583h-2.278V133.9
			c0-1.401,0.258-2.377,0.773-2.93c0.515-0.551,1.414-0.826,2.698-0.826c1.22,0,2.086,0.279,2.597,0.84S48.345,132.518,48.345,133.9
			z M45.863,137.317c-0.831,0.045-1.395,0.198-1.688,0.461c-0.294,0.263-0.441,0.728-0.441,1.396v1.776
			c0,0.75,0.084,1.277,0.251,1.58s0.445,0.453,0.834,0.453c0.38,0,0.651-0.148,0.813-0.447c0.163-0.298,0.244-0.826,0.244-1.586
			L45.863,137.317z"/>
		<path fill="#2B1C48" d="M57.593,134.253v0.813h-2.468v-1.139c0-0.777-0.072-1.307-0.217-1.587s-0.398-0.421-0.76-0.421
			c-0.316,0-0.54,0.145-0.671,0.435c-0.131,0.289-0.196,0.831-0.196,1.627v6.942c0,0.814,0.069,1.365,0.21,1.654
			c0.14,0.289,0.377,0.434,0.712,0.434c0.325,0,0.556-0.14,0.691-0.42s0.203-0.836,0.203-1.668v-1.355h2.495v1.07
			c0,1.393-0.28,2.424-0.841,3.092c-0.561,0.67-1.419,1.004-2.576,1.004c-1.274,0-2.163-0.337-2.664-1.01
			c-0.502-0.674-0.753-1.924-0.753-3.75v-5.044c0-1.825,0.256-3.08,0.767-3.763c0.51-0.683,1.403-1.023,2.678-1.023
			c1.157,0,2.011,0.334,2.562,1.003S57.593,132.852,57.593,134.253z"/>
		<path fill="#2B1C48" d="M59.641,124.422h2.617v2.509h-2.617V124.422z M59.722,130.482h2.441v13.939h-2.441V130.482z"/>
		<path fill="#2B1C48" d="M64.671,124.422h2.441v20h-2.441V124.422z"/>
		<path fill="#2B1C48" d="M69.539,124.422h2.617v2.509h-2.617V124.422z M69.62,130.482h2.441v13.939H69.62V130.482z"/>
		<path fill="#2B1C48" d="M77.241,126.795v3.688h1.438v1.75h-1.438v9.193c0,0.516,0.074,0.87,0.224,1.064s0.404,0.291,0.766,0.291
			c0.063,0,0.131-0.002,0.204-0.006c0.072-0.005,0.189-0.021,0.353-0.048v1.911c-0.036,0.01-0.096,0.019-0.177,0.027
			c-0.578,0.063-0.98,0.096-1.207,0.096c-1.003,0-1.694-0.26-2.074-0.78c-0.38-0.52-0.569-1.53-0.569-3.03v-8.719h-1.099v-1.75
			h1.099v-2.725L77.241,126.795z"/>
		<path fill="#2B1C48" d="M87.207,133.9v10.521h-2.332l-0.136-1.139c-0.289,0.488-0.626,0.857-1.01,1.105
			c-0.385,0.248-0.807,0.373-1.269,0.373c-0.831,0-1.433-0.273-1.803-0.82c-0.371-0.547-0.557-1.432-0.557-2.651v-2.399
			c0-1.121,0.349-1.933,1.045-2.435c0.695-0.501,1.894-0.788,3.593-0.86v-1.614c0-0.831-0.077-1.388-0.23-1.668
			s-0.43-0.42-0.827-0.42c-0.361,0-0.624,0.138-0.786,0.413c-0.163,0.275-0.244,0.721-0.244,1.336v0.583h-2.278V133.9
			c0-1.401,0.258-2.377,0.773-2.93c0.515-0.551,1.414-0.826,2.698-0.826c1.22,0,2.086,0.279,2.597,0.84S87.207,132.518,87.207,133.9
			z M84.726,137.317c-0.831,0.045-1.395,0.198-1.688,0.461c-0.294,0.263-0.441,0.728-0.441,1.396v1.776
			c0,0.75,0.084,1.277,0.251,1.58s0.445,0.453,0.834,0.453c0.38,0,0.651-0.148,0.813-0.447c0.163-0.298,0.244-0.826,0.244-1.586
			L84.726,137.317z"/>
		<path fill="#2B1C48" d="M96.454,134.253v0.813h-2.468v-1.139c0-0.777-0.072-1.307-0.217-1.587s-0.398-0.421-0.76-0.421
			c-0.316,0-0.54,0.145-0.671,0.435c-0.131,0.289-0.196,0.831-0.196,1.627v6.942c0,0.814,0.069,1.365,0.21,1.654
			c0.14,0.289,0.377,0.434,0.712,0.434c0.325,0,0.556-0.14,0.691-0.42s0.203-0.836,0.203-1.668v-1.355h2.495v1.07
			c0,1.393-0.28,2.424-0.841,3.092c-0.561,0.67-1.419,1.004-2.576,1.004c-1.274,0-2.163-0.337-2.664-1.01
			c-0.502-0.674-0.753-1.924-0.753-3.75v-5.044c0-1.825,0.256-3.08,0.767-3.763c0.51-0.683,1.403-1.023,2.678-1.023
			c1.157,0,2.011,0.334,2.562,1.003S96.454,132.852,96.454,134.253z"/>
		<path fill="#2B1C48" d="M98.502,124.422h2.617v2.509h-2.617V124.422z M98.583,130.482h2.441v13.939h-2.441V130.482z"/>
		<path fill="#2B1C48" d="M110.584,134.931v5.044c0,1.826-0.265,3.08-0.794,3.764c-0.528,0.682-1.467,1.023-2.813,1.023
			c-1.302,0-2.215-0.344-2.739-1.031c-0.524-0.687-0.786-1.938-0.786-3.756v-5.044c0-1.835,0.265-3.092,0.793-3.77
			c0.529-0.679,1.467-1.017,2.814-1.017c1.292,0,2.203,0.348,2.731,1.044C110.319,131.885,110.584,133.132,110.584,134.931z
			 M108.089,133.981c0-0.786-0.079-1.327-0.237-1.62c-0.158-0.294-0.432-0.441-0.82-0.441s-0.662,0.147-0.82,0.441
			c-0.158,0.293-0.237,0.834-0.237,1.62v6.942c0,0.814,0.079,1.365,0.237,1.654s0.432,0.434,0.82,0.434s0.662-0.153,0.82-0.461
			c0.158-0.307,0.237-0.85,0.237-1.627V133.981z M107.275,125.398h2.305l-1.885,3.254h-1.586L107.275,125.398z"/>
		<path fill="#2B1C48" d="M120.021,133.67v10.752h-2.468v-10.387c0-0.75-0.079-1.266-0.237-1.545c-0.158-0.28-0.432-0.42-0.82-0.42
			c-0.38,0-0.651,0.146-0.813,0.439c-0.163,0.295-0.244,0.803-0.244,1.525v10.387h-2.441v-13.939h2.333l0.108,1.113
			c0.298-0.479,0.646-0.842,1.044-1.086c0.397-0.244,0.827-0.365,1.288-0.365c0.831,0,1.415,0.256,1.749,0.766
			C119.854,131.421,120.021,132.341,120.021,133.67z"/>
		<path fill="#2B1C48" d="M25.571,147.57h2.468v20h-2.332l-0.136-1.139c-0.28,0.479-0.612,0.845-0.996,1.098
			c-0.385,0.253-0.803,0.38-1.255,0.38c-0.813,0-1.401-0.269-1.763-0.807s-0.542-1.426-0.542-2.664v-7.675
			c0-1.257,0.181-2.149,0.542-2.678c0.361-0.529,0.958-0.794,1.79-0.794c0.443,0,0.854,0.124,1.234,0.373
			c0.379,0.249,0.709,0.608,0.989,1.078V147.57z M25.571,157.184c0-0.732-0.077-1.242-0.23-1.532c-0.153-0.289-0.42-0.434-0.8-0.434
			c-0.389,0-0.662,0.142-0.82,0.427s-0.237,0.798-0.237,1.539v6.808c0,0.759,0.076,1.28,0.23,1.565
			c0.153,0.285,0.42,0.427,0.8,0.427s0.651-0.15,0.813-0.454c0.163-0.303,0.244-0.815,0.244-1.538V157.184z"/>
		<path fill="#2B1C48" d="M37.559,158.078v3.241h-4.61v2.752c0,0.814,0.081,1.366,0.244,1.655c0.162,0.289,0.442,0.434,0.841,0.434
			c0.388,0,0.661-0.153,0.82-0.461c0.157-0.308,0.237-0.85,0.237-1.628v-1.192h2.468v0.908c0,1.429-0.283,2.468-0.848,3.119
			c-0.565,0.65-1.467,0.976-2.705,0.976c-1.338,0-2.27-0.336-2.794-1.01s-0.786-1.923-0.786-3.749v-5.045
			c0-1.834,0.265-3.092,0.793-3.77c0.529-0.678,1.467-1.017,2.814-1.017c1.311,0,2.226,0.344,2.745,1.03
			C37.298,155.01,37.559,156.262,37.559,158.078z M35.091,157.103c0-0.805-0.08-1.358-0.237-1.661
			c-0.159-0.303-0.433-0.455-0.82-0.455c-0.398,0-0.679,0.15-0.841,0.448c-0.163,0.298-0.244,0.854-0.244,1.668v2.522h2.143V157.103
			z"/>
		<path fill="#2B1C48" d="M44.853,147.57h2.441v20h-2.441V147.57z"/>
		<path fill="#2B1C48" d="M56.663,157.049v10.521h-2.332l-0.136-1.139c-0.289,0.488-0.626,0.856-1.01,1.104
			c-0.385,0.249-0.807,0.373-1.269,0.373c-0.831,0-1.433-0.273-1.803-0.82c-0.371-0.547-0.557-1.431-0.557-2.65v-2.4
			c0-1.121,0.349-1.933,1.045-2.435c0.695-0.501,1.894-0.788,3.593-0.86v-1.614c0-0.831-0.077-1.387-0.23-1.668
			c-0.153-0.279-0.43-0.42-0.827-0.42c-0.361,0-0.624,0.139-0.786,0.414c-0.163,0.275-0.244,0.721-0.244,1.336v0.582h-2.278v-0.324
			c0-1.402,0.258-2.378,0.773-2.93c0.515-0.551,1.414-0.827,2.698-0.827c1.22,0,2.086,0.28,2.597,0.841
			S56.663,155.665,56.663,157.049z M54.182,160.465c-0.831,0.045-1.395,0.199-1.688,0.461c-0.294,0.263-0.441,0.729-0.441,1.396
			v1.776c0,0.751,0.084,1.277,0.251,1.58s0.445,0.454,0.834,0.454c0.38,0,0.651-0.149,0.813-0.447
			c0.163-0.298,0.244-0.827,0.244-1.587L54.182,160.465z"/>
		<path fill="#2B1C48" d="M66.29,147.57h3.499l3.023,20h-2.604l-0.638-5.085h-3.335l-0.746,5.085h-2.454L66.29,147.57z
			 M67.931,149.74l-1.424,10.725h2.78l-1.248-10.725H67.931z"/>
		<path fill="#2B1C48" d="M81.098,157.4v0.814H78.63v-1.14c0-0.777-0.072-1.306-0.217-1.587c-0.145-0.279-0.398-0.42-0.76-0.42
			c-0.316,0-0.54,0.145-0.671,0.434s-0.196,0.832-0.196,1.627v6.942c0,0.814,0.069,1.366,0.21,1.655
			c0.14,0.289,0.377,0.434,0.712,0.434c0.325,0,0.556-0.14,0.691-0.42s0.203-0.837,0.203-1.669v-1.355h2.495v1.071
			c0,1.393-0.28,2.423-0.841,3.092s-1.419,1.003-2.576,1.003c-1.274,0-2.163-0.336-2.664-1.01c-0.502-0.674-0.753-1.923-0.753-3.749
			v-5.045c0-1.825,0.256-3.08,0.767-3.762c0.51-0.684,1.403-1.024,2.678-1.024c1.157,0,2.011,0.335,2.562,1.003
			C80.822,154.965,81.098,156,81.098,157.4z"/>
		<path fill="#2B1C48" d="M85.898,149.943v3.688h1.438v1.75h-1.438v9.192c0,0.516,0.074,0.87,0.224,1.064
			c0.149,0.195,0.404,0.292,0.766,0.292c0.063,0,0.131-0.002,0.204-0.007c0.072-0.005,0.189-0.021,0.353-0.048v1.912
			c-0.036,0.009-0.096,0.019-0.177,0.027c-0.578,0.063-0.98,0.095-1.207,0.095c-1.003,0-1.694-0.26-2.074-0.779
			s-0.569-1.53-0.569-3.031v-8.718h-1.099v-1.75h1.099v-2.725L85.898,149.943z"/>
		<path fill="#2B1C48" d="M88.922,147.57h2.617v2.508h-2.617V147.57z M89.003,153.631h2.441v13.939h-2.441V153.631z"/>
		<path fill="#2B1C48" d="M92.977,153.631h2.373l1.192,11.472h0.136l1.329-11.472h2.143l-2.088,13.939h-2.97L92.977,153.631z"/>
		<path fill="#2B1C48" d="M101.586,147.57h2.617v2.508h-2.617V147.57z M101.667,153.631h2.441v13.939h-2.441V153.631z"/>
		<path fill="#2B1C48" d="M111.118,147.57h2.468v20h-2.332l-0.136-1.139c-0.28,0.479-0.612,0.845-0.996,1.098
			c-0.385,0.253-0.803,0.38-1.255,0.38c-0.813,0-1.401-0.269-1.763-0.807s-0.542-1.426-0.542-2.664v-7.675
			c0-1.257,0.181-2.149,0.542-2.678c0.361-0.529,0.958-0.794,1.79-0.794c0.443,0,0.854,0.124,1.234,0.373
			c0.379,0.249,0.709,0.608,0.989,1.078V147.57z M111.118,157.184c0-0.732-0.077-1.242-0.23-1.532
			c-0.153-0.289-0.42-0.434-0.8-0.434c-0.389,0-0.662,0.142-0.82,0.427s-0.237,0.798-0.237,1.539v6.808
			c0,0.759,0.076,1.28,0.23,1.565c0.153,0.285,0.42,0.427,0.8,0.427s0.651-0.15,0.813-0.454c0.163-0.303,0.244-0.815,0.244-1.538
			V157.184z"/>
		<path fill="#2B1C48" d="M122.915,157.049v10.521h-2.332l-0.136-1.139c-0.289,0.488-0.626,0.856-1.01,1.104
			c-0.385,0.249-0.807,0.373-1.269,0.373c-0.831,0-1.433-0.273-1.803-0.82c-0.371-0.547-0.557-1.431-0.557-2.65v-2.4
			c0-1.121,0.349-1.933,1.045-2.435c0.695-0.501,1.894-0.788,3.593-0.86v-1.614c0-0.831-0.077-1.387-0.23-1.668
			c-0.153-0.279-0.43-0.42-0.827-0.42c-0.361,0-0.624,0.139-0.786,0.414c-0.163,0.275-0.244,0.721-0.244,1.336v0.582h-2.278v-0.324
			c0-1.402,0.258-2.378,0.773-2.93c0.515-0.551,1.414-0.827,2.698-0.827c1.22,0,2.086,0.28,2.597,0.841
			S122.915,155.665,122.915,157.049z M120.434,160.465c-0.831,0.045-1.395,0.199-1.688,0.461c-0.294,0.263-0.441,0.729-0.441,1.396
			v1.776c0,0.751,0.084,1.277,0.251,1.58s0.445,0.454,0.834,0.454c0.38,0,0.651-0.149,0.813-0.447
			c0.163-0.298,0.244-0.827,0.244-1.587L120.434,160.465z"/>
		<path fill="#2B1C48" d="M129.912,147.57h2.468v20h-2.332l-0.136-1.139c-0.28,0.479-0.612,0.845-0.996,1.098
			c-0.385,0.253-0.803,0.38-1.255,0.38c-0.813,0-1.401-0.269-1.763-0.807s-0.542-1.426-0.542-2.664v-7.675
			c0-1.257,0.181-2.149,0.542-2.678c0.361-0.529,0.958-0.794,1.79-0.794c0.443,0,0.854,0.124,1.234,0.373
			c0.379,0.249,0.709,0.608,0.989,1.078V147.57z M129.912,157.184c0-0.732-0.077-1.242-0.23-1.532
			c-0.153-0.289-0.42-0.434-0.8-0.434c-0.389,0-0.662,0.142-0.82,0.427s-0.237,0.798-0.237,1.539v6.808
			c0,0.759,0.076,1.28,0.23,1.565c0.153,0.285,0.42,0.427,0.8,0.427s0.651-0.15,0.813-0.454c0.163-0.303,0.244-0.815,0.244-1.538
			V157.184z"/>
		<path fill="#2B1C48" d="M45.633,170.718h3.403l2.93,18.17h0.108l-0.258-18.17h2.169v20h-3.443l-2.861-17.993h-0.136l0.244,17.993
			h-2.156V170.718z"/>
		<path fill="#2B1C48" d="M63.6,180.195v10.522h-2.332l-0.136-1.139c-0.289,0.488-0.626,0.856-1.01,1.104
			c-0.385,0.249-0.807,0.373-1.269,0.373c-0.831,0-1.433-0.273-1.803-0.82c-0.371-0.547-0.557-1.431-0.557-2.65v-2.4
			c0-1.121,0.349-1.933,1.045-2.434c0.695-0.502,1.894-0.789,3.593-0.861v-1.613c0-0.832-0.077-1.388-0.23-1.668
			s-0.43-0.421-0.827-0.421c-0.361,0-0.624,0.139-0.786,0.414c-0.163,0.275-0.244,0.721-0.244,1.335v0.583h-2.278v-0.325
			c0-1.4,0.258-2.377,0.773-2.929c0.515-0.551,1.414-0.827,2.698-0.827c1.22,0,2.086,0.28,2.597,0.841S63.6,178.812,63.6,180.195z
			 M61.118,183.612c-0.831,0.046-1.395,0.199-1.688,0.461c-0.294,0.263-0.441,0.729-0.441,1.397v1.775
			c0,0.751,0.084,1.277,0.251,1.58s0.445,0.454,0.834,0.454c0.38,0,0.651-0.149,0.813-0.447c0.163-0.298,0.244-0.827,0.244-1.587
			L61.118,183.612z"/>
		<path fill="#2B1C48" d="M70.989,176.589v2.129h-0.122c-0.859,0-1.462,0.189-1.811,0.569c-0.348,0.38-0.521,1.053-0.521,2.021v9.41
			h-2.441v-13.939h2.333l0.108,1.14c0.307-0.462,0.637-0.803,0.989-1.024c0.353-0.221,0.737-0.332,1.153-0.332
			c0.035,0,0.088,0.005,0.155,0.014C70.901,176.584,70.953,176.589,70.989,176.589z"/>
		<path fill="#2B1C48" d="M77.078,176.589v2.129h-0.122c-0.859,0-1.462,0.189-1.811,0.569c-0.348,0.38-0.521,1.053-0.521,2.021v9.41
			h-2.441v-13.939h2.333l0.108,1.14c0.307-0.462,0.637-0.803,0.989-1.024c0.353-0.221,0.737-0.332,1.153-0.332
			c0.035,0,0.088,0.005,0.155,0.014C76.99,176.584,77.042,176.589,77.078,176.589z"/>
		<path fill="#2B1C48" d="M85.132,180.195v10.522H82.8l-0.136-1.139c-0.289,0.488-0.626,0.856-1.01,1.104
			c-0.385,0.249-0.807,0.373-1.269,0.373c-0.831,0-1.433-0.273-1.803-0.82c-0.371-0.547-0.557-1.431-0.557-2.65v-2.4
			c0-1.121,0.349-1.933,1.045-2.434c0.695-0.502,1.894-0.789,3.593-0.861v-1.613c0-0.832-0.077-1.388-0.23-1.668
			s-0.43-0.421-0.827-0.421c-0.361,0-0.624,0.139-0.786,0.414c-0.163,0.275-0.244,0.721-0.244,1.335v0.583h-2.278v-0.325
			c0-1.4,0.258-2.377,0.773-2.929c0.515-0.551,1.414-0.827,2.698-0.827c1.22,0,2.086,0.28,2.597,0.841
			S85.132,178.812,85.132,180.195z M82.65,183.612c-0.831,0.046-1.395,0.199-1.688,0.461c-0.294,0.263-0.441,0.729-0.441,1.397
			v1.775c0,0.751,0.084,1.277,0.251,1.58s0.445,0.454,0.834,0.454c0.38,0,0.651-0.149,0.813-0.447
			c0.163-0.298,0.244-0.827,0.244-1.587L82.65,183.612z"/>
		<path fill="#2B1C48" d="M90.299,173.091v3.688h1.438v1.749h-1.438v9.193c0,0.516,0.074,0.87,0.224,1.064
			c0.149,0.195,0.404,0.292,0.766,0.292c0.063,0,0.131-0.002,0.204-0.007c0.072-0.005,0.189-0.021,0.353-0.048v1.912
			c-0.036,0.009-0.096,0.019-0.177,0.027c-0.578,0.063-0.98,0.095-1.207,0.095c-1.003,0-1.694-0.26-2.074-0.779
			s-0.569-1.53-0.569-3.031v-8.719h-1.099v-1.749h1.099v-2.726L90.299,173.091z"/>
		<path fill="#2B1C48" d="M93.322,170.718h2.617v2.508h-2.617V170.718z M93.403,176.778h2.441v13.939h-2.441V176.778z"/>
		<path fill="#2B1C48" d="M97.377,176.778h2.373l1.192,11.472h0.136l1.329-11.472h2.143l-2.088,13.939h-2.97L97.377,176.778z"/>
		<path fill="#2B1C48" d="M112.929,180.195v10.522h-2.332l-0.136-1.139c-0.289,0.488-0.626,0.856-1.01,1.104
			c-0.385,0.249-0.807,0.373-1.269,0.373c-0.831,0-1.433-0.273-1.803-0.82c-0.371-0.547-0.557-1.431-0.557-2.65v-2.4
			c0-1.121,0.349-1.933,1.045-2.434c0.695-0.502,1.894-0.789,3.593-0.861v-1.613c0-0.832-0.077-1.388-0.23-1.668
			s-0.43-0.421-0.827-0.421c-0.361,0-0.624,0.139-0.786,0.414c-0.163,0.275-0.244,0.721-0.244,1.335v0.583h-2.278v-0.325
			c0-1.4,0.258-2.377,0.773-2.929c0.515-0.551,1.414-0.827,2.698-0.827c1.22,0,2.086,0.28,2.597,0.841
			S112.929,178.812,112.929,180.195z M110.447,183.612c-0.831,0.046-1.395,0.199-1.688,0.461c-0.294,0.263-0.441,0.729-0.441,1.397
			v1.775c0,0.751,0.084,1.277,0.251,1.58s0.445,0.454,0.834,0.454c0.38,0,0.651-0.149,0.813-0.447
			c0.163-0.298,0.244-0.827,0.244-1.587L110.447,183.612z"/>
	</g>
	<g>
		<path fill="#DC9B2F" d="M40.365,217.328h5.967v2.115h-3.391v6.387h3.228v2.115h-3.228v7.268h3.58v2.115h-6.156V217.328z"/>
		<path fill="#DC9B2F" d="M54.941,226.752v0.664h-2.359v-0.719c0-0.795-0.061-1.311-0.183-1.546
			c-0.122-0.234-0.351-0.353-0.685-0.353c-0.308,0-0.527,0.111-0.658,0.332c-0.131,0.222-0.196,0.586-0.196,1.092v0.529
			c0,0.226,0.081,0.479,0.244,0.759s0.425,0.619,0.786,1.018l1.993,2.102c0.435,0.47,0.751,0.904,0.949,1.302
			c0.199,0.397,0.299,0.8,0.299,1.207v1.111c0,1.148-0.28,2.005-0.841,2.569c-0.561,0.565-1.419,0.848-2.576,0.848
			c-1.212,0-2.06-0.267-2.543-0.8s-0.726-1.491-0.726-2.875v-0.162v-0.949h2.278v1.111c0,0.76,0.063,1.271,0.19,1.532
			c0.126,0.263,0.356,0.394,0.691,0.394c0.397,0,0.678-0.122,0.841-0.366c0.162-0.244,0.243-0.66,0.243-1.247v-0.529
			c0-0.325-0.081-0.653-0.243-0.983c-0.163-0.329-0.416-0.671-0.76-1.023l-1.939-2.021c-0.542-0.587-0.895-1.064-1.058-1.431
			c-0.162-0.365-0.244-0.779-0.244-1.24v-0.8c0-1.058,0.28-1.86,0.841-2.407s1.388-0.82,2.481-0.82c1.14,0,1.953,0.285,2.441,0.854
			C54.697,224.474,54.941,225.423,54.941,226.752z"/>
		<path fill="#DC9B2F" d="M59.945,219.701v3.688h1.438v1.749h-1.438v9.193c0,0.516,0.074,0.87,0.224,1.064
			c0.149,0.195,0.404,0.292,0.766,0.292c0.063,0,0.131-0.002,0.204-0.007c0.072-0.005,0.189-0.021,0.353-0.048v1.912
			c-0.036,0.009-0.096,0.019-0.177,0.027c-0.578,0.063-0.98,0.095-1.207,0.095c-1.003,0-1.694-0.26-2.074-0.779
			s-0.569-1.53-0.569-3.031v-8.719h-1.099v-1.749h1.099v-2.726L59.945,219.701z"/>
		<path fill="#DC9B2F" d="M69.911,226.806v10.522h-2.332l-0.136-1.139c-0.289,0.488-0.626,0.856-1.01,1.104
			c-0.385,0.249-0.807,0.373-1.269,0.373c-0.831,0-1.433-0.273-1.803-0.82c-0.371-0.547-0.557-1.431-0.557-2.65v-2.4
			c0-1.121,0.349-1.933,1.045-2.434c0.695-0.502,1.894-0.789,3.593-0.861v-1.613c0-0.832-0.077-1.388-0.23-1.668
			s-0.43-0.421-0.827-0.421c-0.361,0-0.624,0.139-0.786,0.414c-0.163,0.275-0.244,0.721-0.244,1.335v0.583h-2.278v-0.325
			c0-1.4,0.258-2.377,0.773-2.929c0.515-0.551,1.414-0.827,2.698-0.827c1.22,0,2.086,0.28,2.597,0.841
			S69.911,225.423,69.911,226.806z M67.43,230.223c-0.831,0.046-1.395,0.199-1.688,0.461c-0.294,0.263-0.441,0.729-0.441,1.397
			v1.775c0,0.751,0.084,1.277,0.251,1.58s0.445,0.454,0.834,0.454c0.38,0,0.651-0.149,0.813-0.447
			c0.163-0.298,0.244-0.827,0.244-1.587L67.43,230.223z"/>
		<path fill="#DC9B2F" d="M72.406,217.328h2.441v7.173c0.28-0.47,0.612-0.829,0.996-1.078c0.385-0.249,0.803-0.373,1.255-0.373
			c0.822,0,1.417,0.27,1.782,0.807c0.366,0.538,0.55,1.427,0.55,2.665v7.675c0,1.238-0.184,2.126-0.55,2.664
			c-0.365,0.538-0.969,0.807-1.81,0.807c-0.434,0-0.843-0.127-1.228-0.38c-0.384-0.253-0.716-0.619-0.996-1.098l-0.108,1.139h-2.333
			V217.328z M76.936,226.941c0-0.75-0.077-1.266-0.23-1.546c-0.154-0.28-0.42-0.42-0.8-0.42s-0.651,0.146-0.813,0.44
			c-0.163,0.294-0.244,0.803-0.244,1.525v6.807c0,0.724,0.081,1.236,0.244,1.539c0.162,0.304,0.434,0.454,0.813,0.454
			s0.646-0.145,0.8-0.434c0.153-0.289,0.23-0.809,0.23-1.56V226.941z"/>
		<path fill="#DC9B2F" d="M81.844,217.328h2.441v20h-2.441V217.328z"/>
		<path fill="#DC9B2F" d="M93.845,227.837v3.24h-4.61v2.753c0,0.813,0.081,1.365,0.244,1.654c0.162,0.289,0.442,0.434,0.841,0.434
			c0.388,0,0.661-0.153,0.82-0.461c0.157-0.308,0.237-0.85,0.237-1.627v-1.193h2.468v0.908c0,1.429-0.283,2.468-0.848,3.119
			c-0.565,0.65-1.467,0.976-2.705,0.976c-1.338,0-2.27-0.336-2.794-1.01s-0.786-1.923-0.786-3.749v-5.044
			c0-1.836,0.265-3.092,0.793-3.771c0.529-0.678,1.467-1.017,2.814-1.017c1.311,0,2.226,0.344,2.745,1.03
			C93.584,224.768,93.845,226.02,93.845,227.837z M91.377,226.86c0-0.805-0.08-1.358-0.237-1.661
			c-0.159-0.303-0.433-0.454-0.82-0.454c-0.398,0-0.679,0.148-0.841,0.447c-0.163,0.298-0.244,0.854-0.244,1.668v2.521h2.143V226.86
			z"/>
		<path fill="#DC9B2F" d="M103.011,227.158v0.813h-2.468v-1.139c0-0.777-0.072-1.306-0.217-1.587c-0.145-0.279-0.398-0.42-0.76-0.42
			c-0.316,0-0.54,0.145-0.671,0.434c-0.131,0.29-0.196,0.832-0.196,1.628v6.942c0,0.813,0.069,1.365,0.21,1.654
			c0.14,0.289,0.377,0.434,0.712,0.434c0.325,0,0.556-0.14,0.691-0.42s0.203-0.837,0.203-1.668v-1.356h2.495v1.071
			c0,1.393-0.28,2.423-0.841,3.092s-1.419,1.003-2.576,1.003c-1.274,0-2.163-0.336-2.664-1.01c-0.502-0.674-0.753-1.923-0.753-3.749
			v-5.044c0-1.826,0.256-3.081,0.767-3.764c0.51-0.682,1.403-1.023,2.678-1.023c1.157,0,2.011,0.335,2.562,1.004
			S103.011,225.758,103.011,227.158z"/>
		<path fill="#DC9B2F" d="M112.19,227.837v3.24h-4.61v2.753c0,0.813,0.081,1.365,0.244,1.654c0.162,0.289,0.442,0.434,0.841,0.434
			c0.388,0,0.661-0.153,0.82-0.461c0.157-0.308,0.237-0.85,0.237-1.627v-1.193h2.468v0.908c0,1.429-0.283,2.468-0.848,3.119
			c-0.565,0.65-1.467,0.976-2.705,0.976c-1.338,0-2.27-0.336-2.794-1.01s-0.786-1.923-0.786-3.749v-5.044
			c0-1.836,0.265-3.092,0.793-3.771c0.529-0.678,1.467-1.017,2.814-1.017c1.311,0,2.226,0.344,2.745,1.03
			C111.93,224.768,112.19,226.02,112.19,227.837z M109.723,226.86c0-0.805-0.08-1.358-0.237-1.661
			c-0.159-0.303-0.433-0.454-0.82-0.454c-0.398,0-0.679,0.148-0.841,0.447c-0.163,0.298-0.244,0.854-0.244,1.668v2.521h2.143V226.86
			z"/>
		<path fill="#DC9B2F" d="M119.499,223.199v2.129h-0.122c-0.859,0-1.462,0.189-1.811,0.569c-0.348,0.38-0.521,1.053-0.521,2.021
			v9.41h-2.441v-13.939h2.333l0.108,1.14c0.307-0.462,0.637-0.803,0.989-1.024c0.353-0.221,0.737-0.332,1.153-0.332
			c0.035,0,0.088,0.005,0.155,0.014C119.411,223.194,119.463,223.199,119.499,223.199z"/>
		<path fill="#DC9B2F" d="M32.399,246.536h2.468v10.359c0,0.76,0.079,1.281,0.237,1.566s0.432,0.427,0.82,0.427
			c0.38,0,0.65-0.15,0.813-0.454c0.162-0.303,0.244-0.815,0.244-1.539v-10.359h2.468v13.939h-2.359l-0.108-1.139
			c-0.299,0.479-0.645,0.841-1.037,1.084c-0.394,0.244-0.825,0.366-1.295,0.366c-0.823,0-1.404-0.253-1.743-0.759
			c-0.339-0.507-0.508-1.424-0.508-2.753V246.536z"/>
		<path fill="#DC9B2F" d="M48.969,249.723v10.753h-2.468v-10.387c0-0.75-0.079-1.266-0.237-1.546s-0.432-0.42-0.82-0.42
			c-0.38,0-0.651,0.146-0.813,0.44c-0.163,0.294-0.244,0.803-0.244,1.525v10.387h-2.441v-13.939h2.333l0.108,1.112
			c0.298-0.479,0.646-0.841,1.044-1.085c0.397-0.244,0.827-0.366,1.288-0.366c0.831,0,1.415,0.256,1.749,0.767
			S48.969,248.394,48.969,249.723z"/>
		<path fill="#DC9B2F" d="M58.324,249.953v10.522h-2.332l-0.136-1.139c-0.289,0.488-0.626,0.856-1.01,1.104
			c-0.385,0.249-0.807,0.373-1.269,0.373c-0.831,0-1.433-0.273-1.803-0.82c-0.371-0.547-0.557-1.431-0.557-2.65v-2.4
			c0-1.121,0.349-1.933,1.045-2.434c0.695-0.502,1.894-0.789,3.593-0.861v-1.613c0-0.832-0.077-1.388-0.23-1.668
			s-0.43-0.421-0.827-0.421c-0.361,0-0.624,0.139-0.786,0.414c-0.163,0.275-0.244,0.721-0.244,1.335v0.583H51.49v-0.325
			c0-1.4,0.258-2.377,0.773-2.929c0.515-0.551,1.414-0.827,2.698-0.827c1.22,0,2.086,0.28,2.597,0.841S58.324,248.57,58.324,249.953
			z M55.843,253.37c-0.831,0.046-1.395,0.199-1.688,0.461c-0.294,0.263-0.441,0.729-0.441,1.397v1.775
			c0,0.751,0.084,1.277,0.251,1.58s0.445,0.454,0.834,0.454c0.38,0,0.651-0.149,0.813-0.447c0.163-0.298,0.244-0.827,0.244-1.587
			L55.843,253.37z"/>
		<path fill="#DC9B2F" d="M70.597,246.347v2.129h-0.122c-0.859,0-1.462,0.189-1.811,0.569c-0.348,0.38-0.521,1.053-0.521,2.021v9.41
			h-2.441v-13.939h2.333l0.108,1.14c0.307-0.462,0.637-0.803,0.989-1.024c0.353-0.221,0.737-0.332,1.153-0.332
			c0.035,0,0.088,0.005,0.155,0.014C70.509,246.342,70.561,246.347,70.597,246.347z"/>
		<path fill="#DC9B2F" d="M78.841,250.984v3.24h-4.61v2.753c0,0.813,0.081,1.365,0.244,1.654c0.162,0.289,0.442,0.434,0.841,0.434
			c0.388,0,0.661-0.153,0.82-0.461c0.157-0.308,0.237-0.85,0.237-1.627v-1.193h2.468v0.908c0,1.429-0.283,2.468-0.848,3.119
			c-0.565,0.65-1.467,0.976-2.705,0.976c-1.338,0-2.27-0.336-2.794-1.01s-0.786-1.923-0.786-3.749v-5.044
			c0-1.836,0.265-3.092,0.793-3.771c0.529-0.678,1.467-1.017,2.814-1.017c1.311,0,2.226,0.344,2.745,1.03
			C78.58,247.915,78.841,249.167,78.841,250.984z M76.373,250.008c0-0.805-0.08-1.358-0.237-1.661
			c-0.159-0.303-0.433-0.454-0.82-0.454c-0.398,0-0.679,0.148-0.841,0.447c-0.163,0.298-0.244,0.854-0.244,1.668v2.521h2.143
			V250.008z"/>
		<path fill="#DC9B2F" d="M81.254,240.476h2.441v20h-2.441V240.476z"/>
		<path fill="#DC9B2F" d="M93.064,249.953v10.522h-2.332l-0.136-1.139c-0.289,0.488-0.626,0.856-1.01,1.104
			c-0.385,0.249-0.807,0.373-1.269,0.373c-0.831,0-1.433-0.273-1.803-0.82c-0.371-0.547-0.557-1.431-0.557-2.65v-2.4
			c0-1.121,0.349-1.933,1.045-2.434c0.695-0.502,1.894-0.789,3.593-0.861v-1.613c0-0.832-0.077-1.388-0.23-1.668
			s-0.43-0.421-0.827-0.421c-0.361,0-0.624,0.139-0.786,0.414c-0.163,0.275-0.244,0.721-0.244,1.335v0.583H86.23v-0.325
			c0-1.4,0.258-2.377,0.773-2.929c0.515-0.551,1.414-0.827,2.698-0.827c1.22,0,2.086,0.28,2.597,0.841S93.064,248.57,93.064,249.953
			z M90.583,253.37c-0.831,0.046-1.395,0.199-1.688,0.461c-0.294,0.263-0.441,0.729-0.441,1.397v1.775
			c0,0.751,0.084,1.277,0.251,1.58s0.445,0.454,0.834,0.454c0.38,0,0.651-0.149,0.813-0.447c0.163-0.298,0.244-0.827,0.244-1.587
			L90.583,253.37z"/>
		<path fill="#DC9B2F" d="M102.312,250.306v0.813h-2.468v-1.139c0-0.777-0.072-1.306-0.217-1.587c-0.145-0.279-0.398-0.42-0.76-0.42
			c-0.316,0-0.54,0.145-0.671,0.434c-0.131,0.29-0.196,0.832-0.196,1.628v6.942c0,0.813,0.069,1.365,0.21,1.654
			c0.14,0.289,0.377,0.434,0.712,0.434c0.325,0,0.556-0.14,0.691-0.42s0.203-0.837,0.203-1.668v-1.356h2.495v1.071
			c0,1.393-0.28,2.423-0.841,3.092s-1.419,1.003-2.576,1.003c-1.274,0-2.163-0.336-2.664-1.01c-0.502-0.674-0.753-1.923-0.753-3.749
			v-5.044c0-1.826,0.256-3.081,0.767-3.764c0.51-0.682,1.403-1.023,2.678-1.023c1.157,0,2.011,0.335,2.562,1.004
			S102.312,248.905,102.312,250.306z"/>
		<path fill="#DC9B2F" d="M104.359,240.476h2.617v2.508h-2.617V240.476z M104.44,246.536h2.441v13.939h-2.441V246.536z"/>
		<path fill="#DC9B2F" d="M116.441,250.984v5.044c0,1.826-0.265,3.08-0.794,3.763c-0.528,0.683-1.467,1.023-2.813,1.023
			c-1.302,0-2.215-0.344-2.739-1.03s-0.786-1.939-0.786-3.756v-5.044c0-1.836,0.265-3.092,0.793-3.771
			c0.529-0.678,1.467-1.017,2.814-1.017c1.292,0,2.203,0.349,2.731,1.044C116.177,247.938,116.441,249.186,116.441,250.984z
			 M113.946,250.035c0-0.787-0.079-1.327-0.237-1.621c-0.158-0.293-0.432-0.44-0.82-0.44s-0.662,0.147-0.82,0.44
			c-0.158,0.294-0.237,0.834-0.237,1.621v6.942c0,0.813,0.079,1.365,0.237,1.654s0.432,0.434,0.82,0.434s0.662-0.153,0.82-0.461
			s0.237-0.85,0.237-1.627V250.035z M113.133,241.451h2.305l-1.885,3.255h-1.586L113.133,241.451z"/>
		<path fill="#DC9B2F" d="M125.879,249.723v10.753h-2.468v-10.387c0-0.75-0.079-1.266-0.237-1.546s-0.432-0.42-0.82-0.42
			c-0.38,0-0.651,0.146-0.813,0.44c-0.163,0.294-0.244,0.803-0.244,1.525v10.387h-2.441v-13.939h2.333l0.108,1.112
			c0.298-0.479,0.646-0.841,1.044-1.085c0.397-0.244,0.827-0.366,1.288-0.366c0.831,0,1.415,0.256,1.749,0.767
			S125.879,248.394,125.879,249.723z"/>
		<path fill="#DC9B2F" d="M52.033,274.132v3.24h-4.61v2.753c0,0.813,0.081,1.365,0.244,1.654c0.162,0.289,0.442,0.434,0.841,0.434
			c0.388,0,0.661-0.153,0.82-0.461c0.157-0.308,0.237-0.85,0.237-1.627v-1.193h2.468v0.908c0,1.429-0.283,2.468-0.848,3.119
			c-0.565,0.65-1.467,0.976-2.705,0.976c-1.338,0-2.27-0.336-2.794-1.01s-0.786-1.923-0.786-3.749v-5.044
			c0-1.836,0.265-3.092,0.793-3.771c0.529-0.678,1.467-1.017,2.814-1.017c1.311,0,2.226,0.344,2.745,1.03
			C51.772,271.062,52.033,272.314,52.033,274.132z M49.565,273.155c0-0.805-0.08-1.358-0.237-1.661
			c-0.159-0.303-0.433-0.454-0.82-0.454c-0.398,0-0.679,0.148-0.841,0.447c-0.163,0.298-0.244,0.854-0.244,1.668v2.521h2.143
			V273.155z"/>
		<path fill="#DC9B2F" d="M61.091,270.904c0.361-0.533,0.729-0.927,1.105-1.18c0.375-0.253,0.784-0.38,1.227-0.38
			c0.787,0,1.338,0.251,1.654,0.753c0.316,0.501,0.475,1.426,0.475,2.772v10.753h-2.413v-10.387c0-0.732-0.073-1.243-0.217-1.532
			c-0.146-0.289-0.385-0.434-0.719-0.434c-0.353,0-0.604,0.151-0.753,0.454s-0.224,0.807-0.224,1.512v10.387h-2.44v-10.387
			c0-0.75-0.07-1.266-0.211-1.546c-0.14-0.28-0.377-0.42-0.712-0.42c-0.353,0-0.607,0.153-0.766,0.461s-0.237,0.809-0.237,1.505
			v10.387h-2.414v-13.939h2.333l0.108,1.112c0.307-0.497,0.646-0.863,1.017-1.099c0.371-0.234,0.8-0.353,1.288-0.353
			c0.479,0,0.897,0.147,1.255,0.44C60.804,270.079,61.019,270.452,61.091,270.904z"/>
		<path fill="#DC9B2F" d="M75.084,272.816v7.675c0,1.238-0.184,2.126-0.55,2.664c-0.365,0.538-0.969,0.807-1.81,0.807
			c-0.434,0-0.843-0.127-1.228-0.38c-0.384-0.253-0.716-0.619-0.996-1.098v6.413H68.06v-19.214h2.333l0.108,1.112
			c0.28-0.47,0.612-0.829,0.996-1.078c0.385-0.249,0.803-0.373,1.255-0.373c0.822,0,1.417,0.27,1.782,0.807
			C74.9,270.689,75.084,271.578,75.084,272.816z M72.589,273.236c0-0.75-0.077-1.266-0.23-1.546c-0.154-0.28-0.42-0.42-0.8-0.42
			s-0.651,0.146-0.813,0.44c-0.163,0.294-0.244,0.803-0.244,1.525v6.807c0,0.724,0.081,1.236,0.244,1.539
			c0.162,0.304,0.434,0.454,0.813,0.454s0.646-0.145,0.8-0.434c0.153-0.289,0.23-0.809,0.23-1.56V273.236z"/>
		<path fill="#DC9B2F" d="M84.358,273.101v10.522h-2.332l-0.136-1.139c-0.289,0.488-0.626,0.856-1.01,1.104
			c-0.385,0.249-0.807,0.373-1.269,0.373c-0.831,0-1.433-0.273-1.803-0.82c-0.371-0.547-0.557-1.431-0.557-2.65v-2.4
			c0-1.121,0.349-1.933,1.045-2.434c0.695-0.502,1.894-0.789,3.593-0.861v-1.613c0-0.832-0.077-1.388-0.23-1.668
			s-0.43-0.421-0.827-0.421c-0.361,0-0.624,0.139-0.786,0.414c-0.163,0.275-0.244,0.721-0.244,1.335v0.583h-2.278v-0.325
			c0-1.4,0.258-2.377,0.773-2.929c0.515-0.551,1.414-0.827,2.698-0.827c1.22,0,2.086,0.28,2.597,0.841
			S84.358,271.718,84.358,273.101z M81.877,276.518c-0.831,0.046-1.395,0.199-1.688,0.461c-0.294,0.263-0.441,0.729-0.441,1.397
			v1.775c0,0.751,0.084,1.277,0.251,1.58s0.445,0.454,0.834,0.454c0.38,0,0.651-0.149,0.813-0.447
			c0.163-0.298,0.244-0.827,0.244-1.587L81.877,276.518z M81.186,264.599h2.306l-1.885,3.255H80.02L81.186,264.599z"/>
		<path fill="#DC9B2F" d="M89.525,265.996v3.688h1.438v1.749h-1.438v9.193c0,0.516,0.074,0.87,0.224,1.064
			c0.149,0.195,0.404,0.292,0.766,0.292c0.063,0,0.131-0.002,0.204-0.007c0.072-0.005,0.189-0.021,0.353-0.048v1.912
			c-0.036,0.009-0.096,0.019-0.177,0.027c-0.578,0.063-0.98,0.095-1.207,0.095c-1.003,0-1.694-0.26-2.074-0.779
			s-0.569-1.53-0.569-3.031v-8.719h-1.099v-1.749h1.099v-2.726L89.525,265.996z"/>
		<path fill="#DC9B2F" d="M92.549,263.623h2.617v2.508h-2.617V263.623z M92.63,269.684h2.441v13.939H92.63V269.684z"/>
		<path fill="#DC9B2F" d="M104.332,273.453v0.813h-2.468v-1.139c0-0.777-0.072-1.306-0.217-1.587c-0.145-0.279-0.398-0.42-0.76-0.42
			c-0.316,0-0.54,0.145-0.671,0.434c-0.131,0.29-0.196,0.832-0.196,1.628v6.942c0,0.813,0.069,1.365,0.21,1.654
			c0.14,0.289,0.377,0.434,0.712,0.434c0.325,0,0.556-0.14,0.691-0.42s0.203-0.837,0.203-1.668v-1.356h2.495v1.071
			c0,1.393-0.28,2.423-0.841,3.092s-1.419,1.003-2.576,1.003c-1.274,0-2.163-0.336-2.664-1.01c-0.502-0.674-0.753-1.923-0.753-3.749
			v-5.044c0-1.826,0.256-3.081,0.767-3.764c0.51-0.682,1.403-1.023,2.678-1.023c1.157,0,2.011,0.335,2.562,1.004
			S104.332,272.053,104.332,273.453z"/>
		<path fill="#DC9B2F" d="M113.321,273.101v10.522h-2.332l-0.136-1.139c-0.289,0.488-0.626,0.856-1.01,1.104
			c-0.385,0.249-0.807,0.373-1.269,0.373c-0.831,0-1.433-0.273-1.803-0.82c-0.371-0.547-0.557-1.431-0.557-2.65v-2.4
			c0-1.121,0.349-1.933,1.045-2.434c0.695-0.502,1.894-0.789,3.593-0.861v-1.613c0-0.832-0.077-1.388-0.23-1.668
			s-0.43-0.421-0.827-0.421c-0.361,0-0.624,0.139-0.786,0.414c-0.163,0.275-0.244,0.721-0.244,1.335v0.583h-2.278v-0.325
			c0-1.4,0.258-2.377,0.773-2.929c0.515-0.551,1.414-0.827,2.698-0.827c1.22,0,2.086,0.28,2.597,0.841
			S113.321,271.718,113.321,273.101z M110.84,276.518c-0.831,0.046-1.395,0.199-1.688,0.461c-0.294,0.263-0.441,0.729-0.441,1.397
			v1.775c0,0.751,0.084,1.277,0.251,1.58s0.445,0.454,0.834,0.454c0.38,0,0.651-0.149,0.813-0.447
			c0.163-0.298,0.244-0.827,0.244-1.587L110.84,276.518z"/>
	</g>
	<g>
		<g>
			<line fill="none" stroke="#858585" stroke-width="3" stroke-miterlimit="10" x1="164.37" y1="38.69" x2="158.37" y2="38.69"/>
			
				<line fill="none" stroke="#858585" stroke-width="3" stroke-miterlimit="10" stroke-dasharray="11.7208,11.7208" x1="146.649" y1="38.69" x2="11.86" y2="38.69"/>
			<line fill="none" stroke="#858585" stroke-width="3" stroke-miterlimit="10" x1="6" y1="38.69" x2="0" y2="38.69"/>
		</g>
	</g>
	<g>
		<g>
			
				<line fill="none" stroke="#858585" stroke-width="3" stroke-miterlimit="10" x1="164.37" y1="109.356" x2="158.37" y2="109.356"/>
			
				<line fill="none" stroke="#858585" stroke-width="3" stroke-miterlimit="10" stroke-dasharray="11.7208,11.7208" x1="146.649" y1="109.356" x2="11.86" y2="109.356"/>
			<line fill="none" stroke="#858585" stroke-width="3" stroke-miterlimit="10" x1="6" y1="109.356" x2="0" y2="109.356"/>
		</g>
	</g>
	<g>
		<path fill="#5AACCE" d="M58.97,7.343h2.631v20.001H58.97V7.343z"/>
		<path fill="#5AACCE" d="M71.377,16.59v10.754h-2.468V16.957c0-0.75-0.079-1.266-0.237-1.547c-0.158-0.279-0.432-0.42-0.82-0.42
			c-0.38,0-0.651,0.147-0.813,0.441c-0.163,0.293-0.244,0.802-0.244,1.525v10.387h-2.441V13.404h2.333l0.108,1.111
			c0.298-0.479,0.646-0.84,1.044-1.084c0.397-0.244,0.827-0.367,1.288-0.367c0.831,0,1.415,0.256,1.749,0.767
			S71.377,15.262,71.377,16.59z"/>
		<path fill="#5AACCE" d="M73.79,7.343h2.617v2.509H73.79V7.343z M73.871,13.404h2.441v13.939h-2.441V13.404z"/>
		<path fill="#5AACCE" d="M85.573,17.174v0.813h-2.468v-1.14c0-0.777-0.072-1.306-0.217-1.586s-0.398-0.42-0.76-0.42
			c-0.316,0-0.54,0.145-0.671,0.434s-0.196,0.832-0.196,1.627v6.942c0,0.813,0.069,1.365,0.21,1.654
			c0.14,0.29,0.377,0.435,0.712,0.435c0.325,0,0.556-0.141,0.691-0.421s0.203-0.836,0.203-1.668v-1.356h2.495v1.072
			c0,1.392-0.28,2.422-0.841,3.092c-0.561,0.668-1.419,1.003-2.576,1.003c-1.274,0-2.163-0.337-2.664-1.011
			c-0.502-0.673-0.753-1.923-0.753-3.749v-5.044c0-1.826,0.256-3.08,0.767-3.763c0.51-0.683,1.403-1.024,2.678-1.024
			c1.157,0,2.011,0.335,2.562,1.004S85.573,15.772,85.573,17.174z"/>
		<path fill="#5AACCE" d="M87.621,7.343h2.617v2.509h-2.617V7.343z M87.702,13.404h2.441v13.939h-2.441V13.404z"/>
		<path fill="#5AACCE" d="M99.703,17.852v5.044c0,1.826-0.265,3.081-0.794,3.763c-0.528,0.684-1.467,1.023-2.813,1.023
			c-1.302,0-2.215-0.343-2.739-1.029c-0.524-0.688-0.786-1.939-0.786-3.757v-5.044c0-1.835,0.265-3.092,0.793-3.77
			c0.529-0.678,1.467-1.018,2.814-1.018c1.292,0,2.203,0.349,2.731,1.045C99.438,14.805,99.703,16.053,99.703,17.852z
			 M97.208,16.902c0-0.787-0.079-1.326-0.237-1.62s-0.432-0.44-0.82-0.44s-0.662,0.146-0.82,0.44s-0.237,0.833-0.237,1.62v6.942
			c0,0.813,0.079,1.365,0.237,1.654c0.158,0.29,0.432,0.435,0.82,0.435s0.662-0.154,0.82-0.461c0.158-0.308,0.237-0.85,0.237-1.628
			V16.902z"/>
	</g>
	<g>
		<g>
			<line fill="none" stroke="#858585" stroke-width="3" stroke-miterlimit="10" x1="164.37" y1="1.5" x2="158.37" y2="1.5"/>
			
				<line fill="none" stroke="#858585" stroke-width="3" stroke-miterlimit="10" stroke-dasharray="11.7208,11.7208" x1="146.649" y1="1.5" x2="11.86" y2="1.5"/>
			<line fill="none" stroke="#858585" stroke-width="3" stroke-miterlimit="10" x1="6" y1="1.5" x2="0" y2="1.5"/>
		</g>
	</g>
	<g>
		<g>
			
				<line fill="none" stroke="#858585" stroke-width="3" stroke-miterlimit="10" x1="164.37" y1="204.474" x2="158.37" y2="204.474"/>
			
				<line fill="none" stroke="#858585" stroke-width="3" stroke-miterlimit="10" stroke-dasharray="11.7208,11.7208" x1="146.649" y1="204.474" x2="11.86" y2="204.474"/>
			<line fill="none" stroke="#858585" stroke-width="3" stroke-miterlimit="10" x1="6" y1="204.474" x2="0" y2="204.474"/>
		</g>
	</g>
	<g>
		<g>
			
				<line fill="none" stroke="#858585" stroke-width="3" stroke-miterlimit="10" x1="164.37" y1="299.591" x2="158.37" y2="299.591"/>
			
				<line fill="none" stroke="#858585" stroke-width="3" stroke-miterlimit="10" stroke-dasharray="11.7208,11.7208" x1="146.649" y1="299.591" x2="11.86" y2="299.591"/>
			<line fill="none" stroke="#858585" stroke-width="3" stroke-miterlimit="10" x1="6" y1="299.591" x2="0" y2="299.591"/>
		</g>
	</g>
</g>
</svg>
