<?xml version="1.0" encoding="utf-8"?>
<!-- Generator: Adobe Illustrator 16.0.0, SVG Export Plug-In . SVG Version: 6.00 Build 0)  -->
<!DOCTYPE svg PUBLIC "-//W3C//DTD SVG 1.1//EN" "http://www.w3.org/Graphics/SVG/1.1/DTD/svg11.dtd">
<svg version="1.1" id="Capa_1" xmlns="http://www.w3.org/2000/svg" xmlns:xlink="http://www.w3.org/1999/xlink" x="0px" y="0px"
	 width="1018.41px" height="396.816px" viewBox="0 0 1018.41 396.816" enable-background="new 0 0 1018.41 396.816"
	 xml:space="preserve">
<g>
	<polygon fill="#ABC02F" points="1005.167,391.408 0,391.408 13.242,0 1018.41,0 	"/>
	<g>
		<g>
			<path fill="#5B5D5C" d="M116.228,362.141h-2.458v-0.888h5.984v0.888h-2.471v7.196h-1.056L116.228,362.141L116.228,362.141z"/>
			<path fill="#5B5D5C" d="M125.022,366.386c0,2.147-1.499,3.082-2.891,3.082c-1.56,0-2.782-1.149-2.782-2.985
				c0-1.932,1.283-3.07,2.878-3.07C123.895,363.411,125.022,364.623,125.022,366.386z M120.429,366.446
				c0,1.271,0.72,2.229,1.751,2.229c1.008,0,1.763-0.947,1.763-2.255c0-0.983-0.491-2.219-1.738-2.219
				C120.969,364.203,120.429,365.354,120.429,366.446z"/>
			<path fill="#5B5D5C" d="M126.357,365.104c0-0.611-0.024-1.093-0.049-1.57h0.924l0.048,0.947h0.036
				c0.324-0.553,0.863-1.068,1.835-1.068c0.779,0,1.379,0.48,1.631,1.164h0.024c0.18-0.336,0.42-0.576,0.659-0.756
				c0.348-0.264,0.72-0.408,1.271-0.408c0.779,0,1.919,0.504,1.919,2.52v3.406h-1.031v-3.273c0-1.129-0.42-1.787-1.26-1.787
				c-0.611,0-1.067,0.442-1.259,0.947c-0.048,0.155-0.084,0.336-0.084,0.527v3.586h-1.031v-3.479c0-0.924-0.408-1.584-1.212-1.584
				c-0.647,0-1.139,0.527-1.307,1.057c-0.061,0.145-0.084,0.336-0.084,0.516v3.49h-1.031L126.357,365.104L126.357,365.104z"/>
			<path fill="#5B5D5C" d="M140.442,367.945c0,0.504,0.024,0.994,0.084,1.392h-0.947l-0.084-0.731h-0.036
				c-0.323,0.455-0.947,0.862-1.775,0.862c-1.175,0-1.774-0.827-1.774-1.666c0-1.403,1.247-2.172,3.49-2.159v-0.119
				c0-0.469-0.132-1.344-1.319-1.332c-0.552,0-1.115,0.156-1.523,0.433l-0.24-0.708c0.48-0.3,1.188-0.504,1.919-0.504
				c1.775,0,2.207,1.212,2.207,2.363v2.17H140.442z M139.423,366.374c-1.151-0.022-2.458,0.18-2.458,1.308
				c0,0.695,0.455,1.008,0.983,1.008c0.768,0,1.259-0.479,1.427-0.972c0.036-0.12,0.048-0.239,0.048-0.336V366.374L139.423,366.374z
				"/>
			<path fill="#5B5D5C" d="M147.15,360.821v7.016c0,0.517,0.023,1.104,0.048,1.5h-0.936l-0.048-1.008h-0.036
				c-0.312,0.647-1.008,1.139-1.955,1.139c-1.403,0-2.494-1.187-2.494-2.948c-0.013-1.933,1.199-3.107,2.603-3.107
				c0.899,0,1.487,0.42,1.751,0.876h0.023v-3.466L147.15,360.821L147.15,360.821z M146.106,365.895c0-0.131-0.012-0.312-0.048-0.443
				c-0.155-0.659-0.731-1.211-1.522-1.211c-1.092,0-1.739,0.959-1.739,2.229c0,1.177,0.587,2.146,1.715,2.146
				c0.708,0,1.355-0.479,1.547-1.259c0.036-0.145,0.048-0.289,0.048-0.457L146.106,365.895L146.106,365.895z"/>
			<path fill="#5B5D5C" d="M154.17,366.386c0,2.147-1.499,3.082-2.891,3.082c-1.56,0-2.782-1.149-2.782-2.985
				c0-1.932,1.283-3.07,2.878-3.07C153.042,363.411,154.17,364.623,154.17,366.386z M149.576,366.446
				c0,1.271,0.72,2.229,1.751,2.229c1.008,0,1.763-0.947,1.763-2.255c0-0.983-0.491-2.219-1.738-2.219
				C150.116,364.203,149.576,365.354,149.576,366.446z"/>
			<path fill="#5B5D5C" d="M163.05,360.821v7.016c0,0.517,0.023,1.104,0.048,1.5h-0.936l-0.048-1.008h-0.036
				c-0.312,0.647-1.008,1.139-1.955,1.139c-1.403,0-2.494-1.187-2.494-2.948c-0.013-1.933,1.199-3.107,2.603-3.107
				c0.899,0,1.487,0.42,1.751,0.876h0.023v-3.466L163.05,360.821L163.05,360.821z M162.006,365.895c0-0.131-0.012-0.312-0.048-0.443
				c-0.155-0.659-0.731-1.211-1.523-1.211c-1.091,0-1.738,0.959-1.738,2.229c0,1.177,0.588,2.146,1.715,2.146
				c0.708,0,1.355-0.479,1.547-1.259c0.036-0.145,0.048-0.289,0.048-0.457L162.006,365.895L162.006,365.895z"/>
			<path fill="#5B5D5C" d="M165.403,366.626c0.024,1.429,0.924,2.015,1.991,2.015c0.756,0,1.224-0.132,1.607-0.3l0.191,0.757
				c-0.372,0.168-1.02,0.37-1.942,0.37c-1.787,0-2.854-1.187-2.854-2.938c0-1.752,1.031-3.119,2.723-3.119
				c1.906,0,2.398,1.655,2.398,2.723c0,0.218-0.013,0.372-0.036,0.492H165.403L165.403,366.626z M168.498,365.87
				c0.012-0.659-0.276-1.703-1.463-1.703c-1.08,0-1.535,0.972-1.619,1.703H168.498z"/>
			<path fill="#5B5D5C" d="M170.588,364.491c0-0.443,0.3-0.757,0.708-0.757c0.432,0,0.707,0.312,0.707,0.757
				c0,0.42-0.275,0.743-0.72,0.743C170.876,365.234,170.588,364.911,170.588,364.491z M170.588,368.725
				c0-0.442,0.3-0.755,0.708-0.755c0.432,0,0.707,0.312,0.707,0.755c0,0.42-0.275,0.743-0.72,0.743
				C170.876,369.468,170.588,369.145,170.588,368.725z"/>
			<path fill="#5B5D5C" d="M179.479,361.253v4.797c0,1.8,0.804,2.566,1.883,2.566c1.188,0,1.967-0.791,1.967-2.566v-4.797h1.056
				v4.726c0,2.482-1.308,3.489-3.059,3.489c-1.655,0-2.902-0.935-2.902-3.452v-4.763H179.479L179.479,361.253z"/>
			<path fill="#5B5D5C" d="M186.163,365.104c0-0.611-0.013-1.093-0.049-1.57h0.936l0.061,0.959h0.023
				c0.288-0.54,0.96-1.08,1.919-1.08c0.804,0,2.051,0.48,2.051,2.471v3.455h-1.055v-3.347c0-0.937-0.349-1.716-1.344-1.716
				c-0.684,0-1.224,0.492-1.415,1.08c-0.048,0.132-0.072,0.312-0.072,0.492v3.489h-1.055V365.104L186.163,365.104z"/>
			<path fill="#5B5D5C" d="M193.998,361.9c0,0.359-0.252,0.646-0.672,0.646c-0.384,0-0.636-0.287-0.636-0.646
				s0.265-0.659,0.66-0.659C193.734,361.241,193.998,361.527,193.998,361.9z M192.823,369.337v-5.805h1.055v5.805H192.823z"/>
			<path fill="#5B5D5C" d="M196.038,363.532l1.14,3.25c0.191,0.539,0.348,1.02,0.468,1.499h0.036c0.132-0.479,0.3-0.96,0.491-1.499
				l1.128-3.25h1.103l-2.278,5.805h-1.008l-2.206-5.805H196.038z"/>
			<path fill="#5B5D5C" d="M201.869,366.626c0.024,1.429,0.924,2.015,1.991,2.015c0.756,0,1.224-0.132,1.607-0.3l0.191,0.757
				c-0.372,0.168-1.02,0.37-1.942,0.37c-1.787,0-2.854-1.187-2.854-2.938c0-1.752,1.031-3.119,2.723-3.119
				c1.906,0,2.398,1.655,2.398,2.723c0,0.218-0.012,0.372-0.036,0.492H201.869L201.869,366.626z M204.964,365.87
				c0.012-0.659-0.276-1.703-1.463-1.703c-1.08,0-1.535,0.972-1.619,1.703H204.964z"/>
			<path fill="#5B5D5C" d="M207.294,365.343c0-0.684-0.013-1.271-0.049-1.811h0.924l0.048,1.149h0.036
				c0.264-0.779,0.911-1.271,1.619-1.271c0.108,0,0.191,0.013,0.288,0.024v0.994c-0.108-0.022-0.216-0.022-0.36-0.022
				c-0.743,0-1.271,0.552-1.415,1.344c-0.023,0.144-0.036,0.323-0.036,0.491v3.095h-1.055V365.343z"/>
			<path fill="#5B5D5C" d="M211.073,368.27c0.324,0.191,0.876,0.407,1.403,0.407c0.756,0,1.115-0.372,1.115-0.862
				c0-0.504-0.3-0.769-1.067-1.057c-1.056-0.384-1.547-0.947-1.547-1.644c0-0.937,0.768-1.703,2.003-1.703
				c0.588,0,1.104,0.155,1.415,0.36l-0.252,0.768c-0.228-0.145-0.647-0.348-1.188-0.348c-0.623,0-0.959,0.358-0.959,0.791
				c0,0.479,0.336,0.695,1.091,0.996c0.996,0.371,1.523,0.875,1.523,1.738c0,1.031-0.804,1.75-2.159,1.75
				c-0.635,0-1.223-0.167-1.631-0.406L211.073,368.27z"/>
			<path fill="#5B5D5C" d="M217.145,361.9c0,0.359-0.252,0.646-0.672,0.646c-0.384,0-0.636-0.287-0.636-0.646
				s0.265-0.659,0.66-0.659C216.881,361.241,217.145,361.527,217.145,361.9z M215.97,369.337v-5.805h1.055v5.805H215.97z"/>
			<path fill="#5B5D5C" d="M223.778,360.821v7.016c0,0.517,0.023,1.104,0.048,1.5h-0.936l-0.048-1.008h-0.036
				c-0.312,0.647-1.008,1.139-1.955,1.139c-1.403,0-2.494-1.187-2.494-2.948c-0.013-1.933,1.199-3.107,2.603-3.107
				c0.899,0,1.487,0.42,1.751,0.876h0.023v-3.466L223.778,360.821L223.778,360.821z M222.734,365.895
				c0-0.131-0.012-0.312-0.048-0.443c-0.155-0.659-0.731-1.211-1.523-1.211c-1.091,0-1.738,0.959-1.738,2.229
				c0,1.177,0.588,2.146,1.715,2.146c0.708,0,1.355-0.479,1.547-1.259c0.036-0.145,0.048-0.289,0.048-0.457L222.734,365.895
				L222.734,365.895z"/>
			<path fill="#5B5D5C" d="M229.622,367.945c0,0.504,0.024,0.994,0.084,1.392h-0.947l-0.084-0.731h-0.036
				c-0.323,0.455-0.947,0.862-1.775,0.862c-1.175,0-1.774-0.827-1.774-1.666c0-1.403,1.247-2.172,3.49-2.159v-0.119
				c0-0.469-0.132-1.344-1.319-1.332c-0.552,0-1.115,0.156-1.523,0.433l-0.24-0.708c0.48-0.3,1.188-0.504,1.919-0.504
				c1.775,0,2.207,1.212,2.207,2.363v2.17H229.622z M228.603,366.374c-1.151-0.022-2.458,0.18-2.458,1.308
				c0,0.695,0.455,1.008,0.983,1.008c0.768,0,1.259-0.479,1.427-0.972c0.036-0.12,0.048-0.239,0.048-0.336V366.374L228.603,366.374z
				"/>
			<path fill="#5B5D5C" d="M236.33,360.821v7.016c0,0.517,0.023,1.104,0.048,1.5h-0.936l-0.048-1.008h-0.036
				c-0.312,0.647-1.008,1.139-1.955,1.139c-1.403,0-2.494-1.187-2.494-2.948c-0.013-1.933,1.199-3.107,2.603-3.107
				c0.899,0,1.487,0.42,1.751,0.876h0.023v-3.466L236.33,360.821L236.33,360.821z M235.286,365.895c0-0.131-0.012-0.312-0.048-0.443
				c-0.155-0.659-0.731-1.211-1.522-1.211c-1.092,0-1.739,0.959-1.739,2.229c0,1.177,0.587,2.146,1.715,2.146
				c0.708,0,1.355-0.479,1.547-1.259c0.036-0.145,0.048-0.289,0.048-0.457L235.286,365.895L235.286,365.895z"/>
			<path fill="#5B5D5C" d="M240.676,369.337v-8.084h1.151l2.579,4.09c0.588,0.947,1.067,1.8,1.438,2.627l0.035-0.013
				c-0.096-1.079-0.119-2.062-0.119-3.322v-3.382h0.983v8.084h-1.056l-2.566-4.103c-0.563-0.899-1.104-1.823-1.499-2.698
				l-0.036,0.012c0.06,1.021,0.071,1.991,0.071,3.334v3.455H240.676z"/>
			<path fill="#5B5D5C" d="M252.613,367.945c0,0.504,0.024,0.994,0.084,1.392h-0.947l-0.084-0.731h-0.036
				c-0.324,0.455-0.947,0.862-1.775,0.862c-1.175,0-1.774-0.827-1.774-1.666c0-1.403,1.247-2.172,3.49-2.159v-0.119
				c0-0.469-0.132-1.344-1.319-1.332c-0.552,0-1.115,0.156-1.523,0.433l-0.24-0.708c0.479-0.3,1.188-0.504,1.919-0.504
				c1.775,0,2.207,1.212,2.207,2.363v2.17H252.613z M251.594,366.374c-1.151-0.022-2.458,0.18-2.458,1.308
				c0,0.695,0.455,1.008,0.983,1.008c0.768,0,1.259-0.479,1.427-0.972c0.036-0.12,0.048-0.239,0.048-0.336V366.374z"/>
			<path fill="#5B5D5C" d="M258.458,369.133c-0.276,0.133-0.888,0.335-1.668,0.335c-1.751,0-2.89-1.187-2.89-2.962
				c0-1.787,1.223-3.095,3.118-3.095c0.623,0,1.175,0.155,1.463,0.312l-0.24,0.805c-0.251-0.133-0.647-0.276-1.223-0.276
				c-1.331,0-2.051,0.996-2.051,2.194c0,1.344,0.863,2.171,2.015,2.171c0.6,0,0.995-0.144,1.295-0.275L258.458,369.133z"/>
			<path fill="#5B5D5C" d="M260.871,361.9c0,0.359-0.252,0.646-0.672,0.646c-0.384,0-0.636-0.287-0.636-0.646
				s0.265-0.659,0.66-0.659C260.607,361.241,260.871,361.527,260.871,361.9z M259.696,369.337v-5.805h1.055v5.805H259.696z"/>
			<path fill="#5B5D5C" d="M267.757,366.386c0,2.147-1.499,3.082-2.891,3.082c-1.56,0-2.782-1.149-2.782-2.985
				c0-1.932,1.283-3.07,2.878-3.07C266.629,363.411,267.757,364.623,267.757,366.386z M263.163,366.446
				c0,1.271,0.72,2.229,1.751,2.229c1.008,0,1.763-0.947,1.763-2.255c0-0.983-0.491-2.219-1.738-2.219
				C263.703,364.203,263.163,365.354,263.163,366.446z"/>
			<path fill="#5B5D5C" d="M269.092,365.104c0-0.611-0.013-1.093-0.049-1.57h0.936l0.061,0.959h0.023
				c0.288-0.54,0.96-1.08,1.919-1.08c0.804,0,2.051,0.48,2.051,2.471v3.455h-1.055v-3.347c0-0.937-0.348-1.716-1.344-1.716
				c-0.684,0-1.224,0.492-1.415,1.08c-0.048,0.132-0.072,0.312-0.072,0.492v3.489h-1.055V365.104L269.092,365.104z"/>
			<path fill="#5B5D5C" d="M279.829,367.945c0,0.504,0.024,0.994,0.084,1.392h-0.947l-0.084-0.731h-0.036
				c-0.323,0.455-0.947,0.862-1.775,0.862c-1.175,0-1.774-0.827-1.774-1.666c0-1.403,1.247-2.172,3.49-2.159v-0.119
				c0-0.469-0.132-1.344-1.319-1.332c-0.552,0-1.115,0.156-1.523,0.433l-0.24-0.708c0.48-0.3,1.188-0.504,1.919-0.504
				c1.775,0,2.207,1.212,2.207,2.363v2.17H279.829z M278.81,366.374c-1.151-0.022-2.458,0.18-2.458,1.308
				c0,0.695,0.455,1.008,0.983,1.008c0.768,0,1.259-0.479,1.427-0.972c0.036-0.12,0.048-0.239,0.048-0.336V366.374z"/>
			<path fill="#5B5D5C" d="M281.536,360.821h1.055v8.516h-1.055V360.821z"/>
			<path fill="#5B5D5C" d="M291.913,360.821v7.016c0,0.517,0.023,1.104,0.048,1.5h-0.936l-0.048-1.008h-0.036
				c-0.312,0.647-1.008,1.139-1.955,1.139c-1.403,0-2.494-1.187-2.494-2.948c-0.013-1.933,1.199-3.107,2.603-3.107
				c0.899,0,1.487,0.42,1.751,0.876h0.023v-3.466L291.913,360.821L291.913,360.821z M290.869,365.895
				c0-0.131-0.012-0.312-0.048-0.443c-0.155-0.659-0.731-1.211-1.523-1.211c-1.091,0-1.738,0.959-1.738,2.229
				c0,1.177,0.588,2.146,1.715,2.146c0.708,0,1.355-0.479,1.547-1.259c0.036-0.145,0.048-0.289,0.048-0.457L290.869,365.895
				L290.869,365.895z"/>
			<path fill="#5B5D5C" d="M294.267,366.626c0.024,1.429,0.924,2.015,1.991,2.015c0.756,0,1.224-0.132,1.607-0.3l0.191,0.757
				c-0.372,0.168-1.02,0.37-1.942,0.37c-1.787,0-2.854-1.187-2.854-2.938c0-1.752,1.031-3.119,2.723-3.119
				c1.906,0,2.398,1.655,2.398,2.723c0,0.218-0.013,0.372-0.036,0.492H294.267L294.267,366.626z M297.361,365.87
				c0.012-0.659-0.276-1.703-1.463-1.703c-1.08,0-1.535,0.972-1.619,1.703H297.361z"/>
			<path fill="#5B5D5C" d="M307.908,369.085c-0.372,0.19-1.151,0.383-2.136,0.383c-2.278,0-3.981-1.438-3.981-4.102
				c0-2.542,1.715-4.245,4.222-4.245c0.995,0,1.645,0.216,1.919,0.359l-0.264,0.852c-0.384-0.191-0.947-0.335-1.619-0.335
				c-1.895,0-3.154,1.211-3.154,3.334c0,1.99,1.14,3.25,3.095,3.25c0.646,0,1.295-0.132,1.715-0.336L307.908,369.085z"/>
			<path fill="#5B5D5C" d="M314.316,366.386c0,2.147-1.499,3.082-2.892,3.082c-1.56,0-2.782-1.149-2.782-2.985
				c0-1.932,1.283-3.07,2.879-3.07C313.188,363.411,314.316,364.623,314.316,366.386z M309.723,366.446
				c0,1.271,0.721,2.229,1.751,2.229c1.009,0,1.764-0.947,1.764-2.255c0-0.983-0.491-2.219-1.738-2.219
				C310.263,364.203,309.723,365.354,309.723,366.446z"/>
			<path fill="#5B5D5C" d="M315.651,360.821h1.055v8.516h-1.055V360.821z"/>
			<path fill="#5B5D5C" d="M323.736,366.386c0,2.147-1.499,3.082-2.892,3.082c-1.56,0-2.782-1.149-2.782-2.985
				c0-1.932,1.283-3.07,2.879-3.07C322.608,363.411,323.736,364.623,323.736,366.386z M319.143,366.446
				c0,1.271,0.721,2.229,1.751,2.229c1.009,0,1.764-0.947,1.764-2.255c0-0.983-0.491-2.219-1.738-2.219
				C319.683,364.203,319.143,365.354,319.143,366.446z"/>
			<path fill="#5B5D5C" d="M325.071,365.104c0-0.611-0.024-1.093-0.049-1.57h0.924l0.048,0.947h0.036
				c0.324-0.553,0.862-1.068,1.835-1.068c0.778,0,1.379,0.48,1.631,1.164h0.023c0.181-0.336,0.421-0.576,0.659-0.756
				c0.35-0.264,0.721-0.408,1.271-0.408c0.778,0,1.919,0.504,1.919,2.52v3.406h-1.031v-3.273c0-1.129-0.42-1.787-1.26-1.787
				c-0.611,0-1.067,0.442-1.259,0.947c-0.048,0.155-0.084,0.336-0.084,0.527v3.586h-1.031v-3.479c0-0.924-0.408-1.584-1.212-1.584
				c-0.647,0-1.14,0.527-1.308,1.057c-0.061,0.145-0.084,0.336-0.084,0.516v3.49h-1.03L325.071,365.104L325.071,365.104z"/>
			<path fill="#5B5D5C" d="M335.079,360.821h1.043v3.646h0.024c0.37-0.646,1.043-1.056,1.979-1.056c1.451,0,2.459,1.2,2.459,2.95
				c0,2.074-1.319,3.105-2.615,3.105c-0.839,0-1.511-0.322-1.955-1.078h-0.022l-0.061,0.947h-0.899
				c0.023-0.396,0.049-0.984,0.049-1.5L335.079,360.821L335.079,360.821z M336.122,367.01c0,0.133,0.012,0.264,0.048,0.385
				c0.192,0.73,0.815,1.234,1.583,1.234c1.115,0,1.764-0.898,1.764-2.23c0-1.164-0.6-2.158-1.738-2.158
				c-0.708,0-1.38,0.504-1.597,1.295c-0.034,0.133-0.06,0.275-0.06,0.443V367.01z"/>
			<path fill="#5B5D5C" d="M343.082,361.9c0,0.359-0.252,0.646-0.672,0.646c-0.384,0-0.636-0.287-0.636-0.646
				s0.265-0.659,0.659-0.659C342.818,361.241,343.082,361.527,343.082,361.9z M341.907,369.337v-5.805h1.055v5.805H341.907z"/>
			<path fill="#5B5D5C" d="M348.792,367.945c0,0.504,0.024,0.994,0.084,1.392h-0.947l-0.084-0.731h-0.036
				c-0.322,0.455-0.946,0.862-1.774,0.862c-1.175,0-1.774-0.827-1.774-1.666c0-1.403,1.247-2.172,3.49-2.159v-0.119
				c0-0.469-0.132-1.344-1.319-1.332c-0.552,0-1.114,0.156-1.522,0.433l-0.24-0.708c0.48-0.3,1.188-0.504,1.919-0.504
				c1.775,0,2.207,1.212,2.207,2.363v2.17H348.792z M347.772,366.374c-1.151-0.022-2.458,0.18-2.458,1.308
				c0,0.695,0.454,1.008,0.982,1.008c0.769,0,1.259-0.479,1.427-0.972c0.036-0.12,0.049-0.239,0.049-0.336V366.374z"/>
			<path fill="#5B5D5C" d="M350.247,368.713c0-0.432,0.3-0.756,0.719-0.756c0.42,0,0.708,0.312,0.708,0.756
				c0,0.432-0.288,0.755-0.73,0.755C350.534,369.468,350.247,369.145,350.247,368.713z"/>
			<path fill="#5B5D5C" d="M355.562,361.373c0.636-0.107,1.392-0.182,2.219-0.182c1.5,0,2.566,0.36,3.273,1.009
				c0.731,0.659,1.151,1.596,1.151,2.901c0,1.319-0.42,2.398-1.163,3.144c-0.768,0.756-2.015,1.163-3.586,1.163
				c-0.756,0-1.367-0.036-1.896-0.096v-7.939H355.562z M356.605,368.521c0.264,0.035,0.646,0.049,1.056,0.049
				c2.242,0,3.44-1.248,3.44-3.432c0.014-1.906-1.066-3.117-3.272-3.117c-0.54,0-0.948,0.047-1.224,0.106V368.521z"/>
			<path fill="#5B5D5C" d="M364.693,361.9c0,0.359-0.252,0.646-0.672,0.646c-0.385,0-0.637-0.287-0.637-0.646
				s0.266-0.659,0.66-0.659C364.43,361.241,364.693,361.527,364.693,361.9z M363.519,369.337v-5.805h1.056v5.805H363.519z"/>
			<path fill="#5B5D5C" d="M366.326,365.427c0-0.743-0.024-1.344-0.049-1.895h0.936l0.062,0.995h0.022
				c0.42-0.709,1.115-1.116,2.063-1.116c1.415,0,2.471,1.188,2.471,2.938c0,2.086-1.283,3.117-2.651,3.117
				c-0.768,0-1.438-0.335-1.786-0.91h-0.023v3.153h-1.043L366.326,365.427L366.326,365.427z M367.369,366.975
				c0,0.155,0.012,0.299,0.048,0.432c0.192,0.732,0.828,1.234,1.583,1.234c1.115,0,1.764-0.91,1.764-2.242
				c0-1.15-0.611-2.146-1.728-2.146c-0.72,0-1.403,0.504-1.595,1.295c-0.036,0.133-0.072,0.289-0.072,0.42V366.975L367.369,366.975z
				"/>
			<path fill="#5B5D5C" d="M373.154,360.821h1.055v8.516h-1.055V360.821z"/>
			<path fill="#5B5D5C" d="M381.239,366.386c0,2.147-1.499,3.082-2.892,3.082c-1.56,0-2.781-1.149-2.781-2.985
				c0-1.932,1.282-3.07,2.878-3.07C380.111,363.411,381.239,364.623,381.239,366.386z M376.646,366.446
				c0,1.271,0.72,2.229,1.751,2.229c1.008,0,1.763-0.947,1.763-2.255c0-0.983-0.491-2.219-1.738-2.219
				C377.186,364.203,376.646,365.354,376.646,366.446z"/>
			<path fill="#5B5D5C" d="M382.574,365.104c0-0.611-0.024-1.093-0.049-1.57h0.924l0.048,0.947h0.036
				c0.324-0.553,0.863-1.068,1.835-1.068c0.779,0,1.379,0.48,1.631,1.164h0.024c0.18-0.336,0.42-0.576,0.658-0.756
				c0.349-0.264,0.721-0.408,1.271-0.408c0.779,0,1.919,0.504,1.919,2.52v3.406h-1.031v-3.273c0-1.129-0.42-1.787-1.26-1.787
				c-0.611,0-1.067,0.442-1.259,0.947c-0.048,0.155-0.084,0.336-0.084,0.527v3.586h-1.031v-3.479c0-0.924-0.408-1.584-1.212-1.584
				c-0.647,0-1.14,0.527-1.308,1.057c-0.061,0.145-0.084,0.336-0.084,0.516v3.49h-1.03L382.574,365.104L382.574,365.104z"/>
			<path fill="#5B5D5C" d="M396.659,367.945c0,0.504,0.023,0.994,0.084,1.392h-0.947l-0.084-0.731h-0.036
				c-0.323,0.455-0.947,0.862-1.774,0.862c-1.176,0-1.774-0.827-1.774-1.666c0-1.403,1.247-2.172,3.49-2.159v-0.119
				c0-0.469-0.132-1.344-1.319-1.332c-0.552,0-1.115,0.156-1.522,0.433l-0.24-0.708c0.479-0.3,1.188-0.504,1.919-0.504
				c1.774,0,2.207,1.212,2.207,2.363v2.17H396.659z M395.64,366.374c-1.15-0.022-2.458,0.18-2.458,1.308
				c0,0.695,0.455,1.008,0.983,1.008c0.768,0,1.259-0.479,1.427-0.972c0.036-0.12,0.048-0.239,0.048-0.336V366.374z"/>
			<path fill="#5B5D5C" d="M403.367,360.821v7.016c0,0.517,0.022,1.104,0.048,1.5h-0.937l-0.048-1.008h-0.036
				c-0.312,0.647-1.008,1.139-1.954,1.139c-1.403,0-2.494-1.187-2.494-2.948c-0.014-1.933,1.198-3.107,2.603-3.107
				c0.899,0,1.487,0.42,1.751,0.876h0.023v-3.466L403.367,360.821L403.367,360.821z M402.323,365.895
				c0-0.131-0.013-0.312-0.048-0.443c-0.155-0.659-0.731-1.211-1.522-1.211c-1.092,0-1.739,0.959-1.739,2.229
				c0,1.177,0.587,2.146,1.715,2.146c0.708,0,1.355-0.479,1.548-1.259c0.035-0.145,0.048-0.289,0.048-0.457L402.323,365.895
				L402.323,365.895z"/>
			<path fill="#5B5D5C" d="M410.387,366.386c0,2.147-1.499,3.082-2.891,3.082c-1.561,0-2.782-1.149-2.782-2.985
				c0-1.932,1.283-3.07,2.878-3.07C409.259,363.411,410.387,364.623,410.387,366.386z M405.793,366.446
				c0,1.271,0.72,2.229,1.751,2.229c1.008,0,1.763-0.947,1.763-2.255c0-0.983-0.49-2.219-1.737-2.219
				C406.333,364.203,405.793,365.354,405.793,366.446z"/>
			<path fill="#5B5D5C" d="M414.853,366.626c0.024,1.429,0.925,2.015,1.991,2.015c0.756,0,1.225-0.132,1.607-0.3l0.19,0.757
				c-0.372,0.168-1.02,0.37-1.941,0.37c-1.787,0-2.854-1.187-2.854-2.938c0-1.752,1.031-3.119,2.724-3.119
				c1.905,0,2.397,1.655,2.397,2.723c0,0.218-0.013,0.372-0.036,0.492H414.853L414.853,366.626z M417.947,365.87
				c0.012-0.659-0.276-1.703-1.463-1.703c-1.08,0-1.535,0.972-1.619,1.703H417.947z"/>
			<path fill="#5B5D5C" d="M420.277,365.104c0-0.611-0.014-1.093-0.05-1.57h0.937l0.061,0.959h0.023
				c0.288-0.54,0.96-1.08,1.919-1.08c0.804,0,2.051,0.48,2.051,2.471v3.455h-1.055v-3.347c0-0.937-0.348-1.716-1.344-1.716
				c-0.685,0-1.225,0.492-1.415,1.08c-0.048,0.132-0.072,0.312-0.072,0.492v3.489h-1.055V365.104L420.277,365.104z"/>
			<path fill="#5B5D5C" d="M430.561,361.253v3.382h3.91v-3.382h1.056v8.084h-1.056v-3.791h-3.91v3.791h-1.056v-8.084H430.561z"/>
			<path fill="#5B5D5C" d="M437.893,366.626c0.024,1.429,0.925,2.015,1.991,2.015c0.756,0,1.225-0.132,1.607-0.3l0.19,0.757
				c-0.372,0.168-1.02,0.37-1.941,0.37c-1.787,0-2.854-1.187-2.854-2.938c0-1.752,1.031-3.119,2.724-3.119
				c1.905,0,2.397,1.655,2.397,2.723c0,0.218-0.012,0.372-0.036,0.492H437.893L437.893,366.626z M440.987,365.87
				c0.012-0.659-0.276-1.703-1.463-1.703c-1.08,0-1.535,0.972-1.619,1.703H440.987z"/>
			<path fill="#5B5D5C" d="M443.317,365.343c0-0.684-0.014-1.271-0.05-1.811h0.925l0.048,1.149h0.036
				c0.264-0.779,0.911-1.271,1.618-1.271c0.108,0,0.191,0.013,0.288,0.024v0.994c-0.107-0.022-0.216-0.022-0.359-0.022
				c-0.743,0-1.271,0.552-1.415,1.344c-0.023,0.144-0.036,0.323-0.036,0.491v3.095h-1.055V365.343z"/>
			<path fill="#5B5D5C" d="M447.289,365.343c0-0.684-0.013-1.271-0.049-1.811h0.924l0.048,1.149h0.036
				c0.264-0.779,0.911-1.271,1.619-1.271c0.107,0,0.191,0.013,0.288,0.024v0.994c-0.108-0.022-0.216-0.022-0.36-0.022
				c-0.743,0-1.271,0.552-1.415,1.344c-0.022,0.144-0.036,0.323-0.036,0.491v3.095h-1.055V365.343z"/>
			<path fill="#5B5D5C" d="M455.23,367.945c0,0.504,0.023,0.994,0.084,1.392h-0.947l-0.084-0.731h-0.036
				c-0.324,0.455-0.947,0.862-1.775,0.862c-1.175,0-1.773-0.827-1.773-1.666c0-1.403,1.247-2.172,3.489-2.159v-0.119
				c0-0.469-0.132-1.344-1.318-1.332c-0.552,0-1.115,0.156-1.523,0.433l-0.239-0.708c0.479-0.3,1.188-0.504,1.919-0.504
				c1.774,0,2.207,1.212,2.207,2.363v2.17H455.23z M454.211,366.374c-1.151-0.022-2.458,0.18-2.458,1.308
				c0,0.695,0.455,1.008,0.983,1.008c0.768,0,1.259-0.479,1.427-0.972c0.036-0.12,0.048-0.239,0.048-0.336V366.374z"/>
			<path fill="#5B5D5C" d="M456.938,365.104c0-0.611-0.023-1.093-0.049-1.57h0.924l0.049,0.947h0.035
				c0.324-0.553,0.863-1.068,1.836-1.068c0.778,0,1.379,0.48,1.631,1.164h0.023c0.181-0.336,0.42-0.576,0.659-0.756
				c0.348-0.264,0.72-0.408,1.271-0.408c0.778,0,1.919,0.504,1.919,2.52v3.406h-1.031v-3.273c0-1.129-0.42-1.787-1.26-1.787
				c-0.611,0-1.067,0.442-1.26,0.947c-0.048,0.155-0.084,0.336-0.084,0.527v3.586h-1.03v-3.479c0-0.924-0.408-1.584-1.212-1.584
				c-0.647,0-1.14,0.527-1.308,1.057c-0.061,0.145-0.084,0.336-0.084,0.516v3.49h-1.031L456.938,365.104L456.938,365.104z"/>
			<path fill="#5B5D5C" d="M468.12,361.9c0,0.359-0.252,0.646-0.672,0.646c-0.384,0-0.636-0.287-0.636-0.646
				s0.265-0.659,0.659-0.659C467.855,361.241,468.12,361.527,468.12,361.9z M466.945,369.337v-5.805H468v5.805H466.945z"/>
			<path fill="#5B5D5C" d="M470.34,366.626c0.024,1.429,0.924,2.015,1.991,2.015c0.756,0,1.224-0.132,1.606-0.3l0.191,0.757
				c-0.372,0.168-1.02,0.37-1.941,0.37c-1.787,0-2.854-1.187-2.854-2.938c0-1.752,1.031-3.119,2.723-3.119
				c1.906,0,2.398,1.655,2.398,2.723c0,0.218-0.012,0.372-0.036,0.492H470.34L470.34,366.626z M473.435,365.87
				c0.013-0.659-0.275-1.703-1.463-1.703c-1.08,0-1.534,0.972-1.618,1.703H473.435z"/>
			<path fill="#5B5D5C" d="M475.765,365.104c0-0.611-0.013-1.093-0.049-1.57h0.937l0.061,0.959h0.023
				c0.288-0.54,0.96-1.08,1.919-1.08c0.804,0,2.051,0.48,2.051,2.471v3.455h-1.055v-3.347c0-0.937-0.35-1.716-1.345-1.716
				c-0.684,0-1.224,0.492-1.415,1.08c-0.048,0.132-0.071,0.312-0.071,0.492v3.489h-1.056V365.104z"/>
			<path fill="#5B5D5C" d="M483.646,362.141v1.393h1.513v0.803h-1.513v3.131c0,0.719,0.204,1.127,0.793,1.127
				c0.287,0,0.455-0.022,0.61-0.072l0.048,0.805c-0.203,0.072-0.526,0.145-0.936,0.145c-0.491,0-0.887-0.168-1.139-0.443
				c-0.288-0.324-0.408-0.84-0.408-1.523v-3.166h-0.899v-0.803h0.899v-1.08L483.646,362.141z"/>
			<path fill="#5B5D5C" d="M490.426,367.945c0,0.504,0.024,0.994,0.084,1.392h-0.947l-0.084-0.731h-0.035
				c-0.324,0.455-0.947,0.862-1.775,0.862c-1.175,0-1.773-0.827-1.773-1.666c0-1.403,1.246-2.172,3.489-2.159v-0.119
				c0-0.469-0.132-1.344-1.318-1.332c-0.553,0-1.115,0.156-1.523,0.433l-0.24-0.708c0.48-0.3,1.188-0.504,1.919-0.504
				c1.775,0,2.207,1.212,2.207,2.363v2.17H490.426z M489.406,366.374c-1.151-0.022-2.458,0.18-2.458,1.308
				c0,0.695,0.455,1.008,0.982,1.008c0.769,0,1.26-0.479,1.428-0.972c0.036-0.12,0.048-0.239,0.048-0.336V366.374z"/>
			<path fill="#5B5D5C" d="M491.988,368.27c0.324,0.191,0.876,0.407,1.402,0.407c0.757,0,1.115-0.372,1.115-0.862
				c0-0.504-0.3-0.769-1.066-1.057c-1.057-0.384-1.548-0.947-1.548-1.644c0-0.937,0.769-1.703,2.003-1.703
				c0.589,0,1.104,0.155,1.416,0.36l-0.253,0.768c-0.228-0.145-0.646-0.348-1.188-0.348c-0.623,0-0.959,0.358-0.959,0.791
				c0,0.479,0.336,0.695,1.091,0.996c0.996,0.371,1.523,0.875,1.523,1.738c0,1.031-0.805,1.75-2.158,1.75
				c-0.636,0-1.225-0.167-1.632-0.406L491.988,368.27z"/>
			<path fill="#5B5D5C" d="M504.43,360.821v7.016c0,0.517,0.023,1.104,0.049,1.5h-0.937l-0.048-1.008h-0.036
				c-0.312,0.647-1.008,1.139-1.955,1.139c-1.403,0-2.494-1.187-2.494-2.948c-0.013-1.933,1.199-3.107,2.604-3.107
				c0.898,0,1.486,0.42,1.751,0.876h0.022v-3.466L504.43,360.821L504.43,360.821z M503.386,365.895c0-0.131-0.012-0.312-0.048-0.443
				c-0.155-0.659-0.73-1.211-1.521-1.211c-1.093,0-1.739,0.959-1.739,2.229c0,1.177,0.587,2.146,1.715,2.146
				c0.708,0,1.354-0.479,1.547-1.259c0.036-0.145,0.048-0.289,0.048-0.457L503.386,365.895L503.386,365.895z"/>
			<path fill="#5B5D5C" d="M506.783,366.626c0.023,1.429,0.924,2.015,1.991,2.015c0.756,0,1.223-0.132,1.606-0.3l0.191,0.757
				c-0.371,0.168-1.02,0.37-1.942,0.37c-1.787,0-2.854-1.187-2.854-2.938c0-1.752,1.03-3.119,2.723-3.119
				c1.907,0,2.397,1.655,2.397,2.723c0,0.218-0.012,0.372-0.035,0.492H506.783L506.783,366.626z M509.878,365.87
				c0.012-0.659-0.277-1.703-1.463-1.703c-1.08,0-1.535,0.972-1.619,1.703H509.878z"/>
			<path fill="#5B5D5C" d="M516.095,366.794l-0.84,2.543h-1.08l2.76-8.084h1.246l2.76,8.084h-1.115l-0.863-2.543H516.095
				L516.095,366.794z M518.757,365.979l-0.803-2.326c-0.182-0.527-0.301-1.008-0.42-1.476h-0.025
				c-0.119,0.468-0.238,0.972-0.406,1.464l-0.791,2.338H518.757z"/>
			<path fill="#5B5D5C" d="M526.089,369.133c-0.277,0.133-0.889,0.335-1.668,0.335c-1.752,0-2.891-1.187-2.891-2.962
				c0-1.787,1.223-3.095,3.117-3.095c0.623,0,1.176,0.155,1.465,0.312l-0.24,0.805c-0.252-0.133-0.648-0.276-1.225-0.276
				c-1.33,0-2.051,0.996-2.051,2.194c0,1.344,0.863,2.171,2.016,2.171c0.6,0,0.994-0.144,1.295-0.275L526.089,369.133z"/>
			<path fill="#5B5D5C" d="M532.509,366.386c0,2.147-1.5,3.082-2.891,3.082c-1.561,0-2.783-1.149-2.783-2.985
				c0-1.932,1.283-3.07,2.879-3.07C531.38,363.411,532.509,364.623,532.509,366.386z M527.916,366.446
				c0,1.271,0.719,2.229,1.75,2.229c1.008,0,1.764-0.947,1.764-2.255c0-0.983-0.492-2.219-1.738-2.219
				C528.455,364.203,527.916,365.354,527.916,366.446z"/>
			<path fill="#5B5D5C" d="M533.843,365.104c0-0.611-0.023-1.093-0.049-1.57h0.924l0.049,0.947h0.035
				c0.324-0.553,0.863-1.068,1.836-1.068c0.779,0,1.379,0.48,1.631,1.164h0.023c0.18-0.336,0.42-0.576,0.66-0.756
				c0.348-0.264,0.719-0.408,1.27-0.408c0.779,0,1.92,0.504,1.92,2.52v3.406h-1.031v-3.273c0-1.129-0.42-1.787-1.26-1.787
				c-0.611,0-1.066,0.442-1.26,0.947c-0.047,0.155-0.084,0.336-0.084,0.527v3.586h-1.031v-3.479c0-0.924-0.406-1.584-1.211-1.584
				c-0.646,0-1.139,0.527-1.307,1.057c-0.061,0.145-0.084,0.336-0.084,0.516v3.49h-1.031V365.104L533.843,365.104z"/>
			<path fill="#5B5D5C" d="M543.851,365.427c0-0.743-0.023-1.344-0.049-1.895h0.938l0.061,0.995h0.023
				c0.42-0.709,1.113-1.116,2.062-1.116c1.414,0,2.471,1.188,2.471,2.938c0,2.086-1.283,3.117-2.65,3.117
				c-0.77,0-1.439-0.335-1.787-0.91h-0.023v3.153h-1.043v-6.283H543.851z M544.894,366.975c0,0.155,0.014,0.299,0.049,0.432
				c0.191,0.732,0.828,1.234,1.584,1.234c1.113,0,1.764-0.91,1.764-2.242c0-1.15-0.613-2.146-1.729-2.146
				c-0.721,0-1.402,0.504-1.596,1.295c-0.035,0.133-0.072,0.289-0.072,0.42V366.975L544.894,366.975z"/>
			<path fill="#5B5D5C" d="M554.757,367.945c0,0.504,0.023,0.994,0.084,1.392h-0.947l-0.084-0.731h-0.035
				c-0.324,0.455-0.947,0.862-1.775,0.862c-1.176,0-1.775-0.827-1.775-1.666c0-1.403,1.248-2.172,3.49-2.159v-0.119
				c0-0.469-0.131-1.344-1.318-1.332c-0.553,0-1.115,0.156-1.523,0.433l-0.24-0.708c0.48-0.3,1.189-0.504,1.92-0.504
				c1.775,0,2.207,1.212,2.207,2.363v2.17H554.757z M553.738,366.374c-1.152-0.022-2.459,0.18-2.459,1.308
				c0,0.695,0.455,1.008,0.982,1.008c0.77,0,1.26-0.479,1.428-0.972c0.035-0.12,0.049-0.239,0.049-0.336V366.374L553.738,366.374z"
				/>
			<path fill="#5B5D5C" d="M556.464,365.104c0-0.611-0.014-1.093-0.049-1.57h0.936l0.061,0.959h0.023
				c0.287-0.54,0.959-1.08,1.918-1.08c0.805,0,2.053,0.48,2.053,2.471v3.455h-1.057v-3.347c0-0.937-0.348-1.716-1.344-1.716
				c-0.684,0-1.223,0.492-1.414,1.08c-0.049,0.132-0.072,0.312-0.072,0.492v3.489h-1.055V365.104z M557.447,362.536
				c-0.023-0.779,0.301-1.247,0.814-1.247c0.266,0,0.469,0.12,0.744,0.264c0.191,0.108,0.348,0.204,0.504,0.204
				c0.18,0,0.299-0.108,0.324-0.504h0.562c0.012,0.791-0.252,1.211-0.814,1.211c-0.266,0-0.492-0.118-0.732-0.252
				c-0.238-0.132-0.371-0.215-0.516-0.215c-0.191,0-0.287,0.203-0.312,0.539H557.447z"/>
			<path fill="#5B5D5C" d="M567.201,367.945c0,0.504,0.023,0.994,0.084,1.392h-0.947l-0.084-0.731h-0.035
				c-0.324,0.455-0.947,0.862-1.775,0.862c-1.176,0-1.773-0.827-1.773-1.666c0-1.403,1.246-2.172,3.49-2.159v-0.119
				c0-0.469-0.133-1.344-1.32-1.332c-0.551,0-1.115,0.156-1.521,0.433l-0.24-0.708c0.479-0.3,1.188-0.504,1.918-0.504
				c1.775,0,2.207,1.212,2.207,2.363v2.17H567.201z M566.181,366.374c-1.15-0.022-2.457,0.18-2.457,1.308
				c0,0.695,0.455,1.008,0.982,1.008c0.768,0,1.26-0.479,1.428-0.972c0.035-0.12,0.047-0.239,0.047-0.336V366.374L566.181,366.374z"
				/>
			<path fill="#5B5D5C" d="M568.908,365.104c0-0.611-0.023-1.093-0.049-1.57h0.924l0.049,0.947h0.035
				c0.324-0.553,0.863-1.068,1.836-1.068c0.779,0,1.379,0.48,1.631,1.164h0.023c0.18-0.336,0.42-0.576,0.658-0.756
				c0.35-0.264,0.721-0.408,1.271-0.408c0.779,0,1.92,0.504,1.92,2.52v3.406h-1.031v-3.273c0-1.129-0.42-1.787-1.26-1.787
				c-0.611,0-1.068,0.442-1.26,0.947c-0.047,0.155-0.084,0.336-0.084,0.527v3.586h-1.031v-3.479c0-0.924-0.408-1.584-1.211-1.584
				c-0.648,0-1.139,0.527-1.307,1.057c-0.062,0.145-0.084,0.336-0.084,0.516v3.49h-1.031V365.104L568.908,365.104z"/>
			<path fill="#5B5D5C" d="M580.091,361.9c0,0.359-0.252,0.646-0.672,0.646c-0.385,0-0.637-0.287-0.637-0.646
				s0.266-0.659,0.66-0.659C579.828,361.241,580.091,361.527,580.091,361.9z M578.916,369.337v-5.805h1.055v5.805H578.916z"/>
			<path fill="#5B5D5C" d="M582.31,366.626c0.025,1.429,0.926,2.015,1.992,2.015c0.756,0,1.225-0.132,1.607-0.3l0.189,0.757
				c-0.371,0.168-1.02,0.37-1.941,0.37c-1.787,0-2.854-1.187-2.854-2.938c0-1.752,1.031-3.119,2.723-3.119
				c1.906,0,2.398,1.655,2.398,2.723c0,0.218-0.012,0.372-0.037,0.492H582.31L582.31,366.626z M585.406,365.87
				c0.012-0.659-0.277-1.703-1.463-1.703c-1.08,0-1.535,0.972-1.619,1.703H585.406z"/>
			<path fill="#5B5D5C" d="M587.736,365.104c0-0.611-0.014-1.093-0.051-1.57h0.938l0.061,0.959h0.023
				c0.287-0.54,0.959-1.08,1.918-1.08c0.805,0,2.051,0.48,2.051,2.471v3.455h-1.055v-3.347c0-0.937-0.35-1.716-1.344-1.716
				c-0.684,0-1.225,0.492-1.414,1.08c-0.049,0.132-0.072,0.312-0.072,0.492v3.489h-1.055V365.104z"/>
			<path fill="#5B5D5C" d="M595.619,362.141v1.393h1.512v0.803h-1.512v3.131c0,0.719,0.203,1.127,0.791,1.127
				c0.289,0,0.457-0.022,0.611-0.072l0.049,0.805c-0.203,0.072-0.527,0.145-0.938,0.145c-0.49,0-0.887-0.168-1.139-0.443
				c-0.287-0.324-0.408-0.84-0.408-1.523v-3.166h-0.898v-0.803h0.898v-1.08L595.619,362.141z"/>
			<path fill="#5B5D5C" d="M603.5,366.386c0,2.147-1.498,3.082-2.891,3.082c-1.561,0-2.781-1.149-2.781-2.985
				c0-1.932,1.283-3.07,2.877-3.07C602.373,363.411,603.5,364.623,603.5,366.386z M598.906,366.446c0,1.271,0.721,2.229,1.752,2.229
				c1.008,0,1.762-0.947,1.762-2.255c0-0.983-0.49-2.219-1.738-2.219C599.447,364.203,598.906,365.354,598.906,366.446z"/>
			<path fill="#5B5D5C" d="M607.414,361.35c0.504-0.084,1.164-0.156,2.004-0.156c1.031,0,1.787,0.24,2.268,0.672
				c0.432,0.384,0.707,0.972,0.707,1.691c0,0.73-0.217,1.307-0.625,1.727c-0.562,0.588-1.449,0.888-2.469,0.888
				c-0.312,0-0.602-0.012-0.84-0.071v3.238h-1.045V361.35L607.414,361.35z M608.458,365.247c0.227,0.06,0.516,0.084,0.863,0.084
				c1.26,0,2.025-0.624,2.025-1.716c0-1.079-0.768-1.596-1.906-1.596c-0.455,0-0.805,0.037-0.982,0.084V365.247z"/>
			<path fill="#5B5D5C" d="M613.353,368.27c0.324,0.191,0.877,0.407,1.404,0.407c0.756,0,1.115-0.372,1.115-0.862
				c0-0.504-0.301-0.769-1.068-1.057c-1.055-0.384-1.547-0.947-1.547-1.644c0-0.937,0.77-1.703,2.004-1.703
				c0.588,0,1.104,0.155,1.414,0.36l-0.252,0.768c-0.227-0.145-0.646-0.348-1.188-0.348c-0.623,0-0.959,0.358-0.959,0.791
				c0,0.479,0.336,0.695,1.092,0.996c0.996,0.371,1.521,0.875,1.521,1.738c0,1.031-0.803,1.75-2.158,1.75
				c-0.635,0-1.223-0.167-1.631-0.406L613.353,368.27z"/>
			<path fill="#5B5D5C" d="M619.425,361.9c0,0.359-0.252,0.646-0.672,0.646c-0.383,0-0.635-0.287-0.635-0.646
				s0.264-0.659,0.66-0.659C619.162,361.241,619.425,361.527,619.425,361.9z M618.251,369.337v-5.805h1.055v5.805H618.251z"/>
			<path fill="#5B5D5C" d="M625.197,369.133c-0.277,0.133-0.889,0.335-1.668,0.335c-1.752,0-2.891-1.187-2.891-2.962
				c0-1.787,1.223-3.095,3.117-3.095c0.623,0,1.176,0.155,1.463,0.312l-0.24,0.805c-0.25-0.133-0.646-0.276-1.223-0.276
				c-1.33,0-2.051,0.996-2.051,2.194c0,1.344,0.863,2.171,2.016,2.171c0.6,0,0.994-0.144,1.295-0.275L625.197,369.133z"/>
			<path fill="#5B5D5C" d="M631.615,366.386c0,2.147-1.498,3.082-2.891,3.082c-1.561,0-2.781-1.149-2.781-2.985
				c0-1.932,1.281-3.07,2.877-3.07C630.488,363.411,631.615,364.623,631.615,366.386z M627.021,366.446
				c0,1.271,0.721,2.229,1.75,2.229c1.01,0,1.764-0.947,1.764-2.255c0-0.983-0.49-2.219-1.738-2.219
				C627.562,364.203,627.021,365.354,627.021,366.446z"/>
			<path fill="#5B5D5C" d="M632.806,368.27c0.324,0.191,0.875,0.407,1.402,0.407c0.756,0,1.115-0.372,1.115-0.862
				c0-0.504-0.299-0.769-1.066-1.057c-1.057-0.384-1.547-0.947-1.547-1.644c0-0.937,0.768-1.703,2.002-1.703
				c0.588,0,1.105,0.155,1.416,0.36l-0.252,0.768c-0.229-0.145-0.648-0.348-1.189-0.348c-0.621,0-0.959,0.358-0.959,0.791
				c0,0.479,0.338,0.695,1.092,0.996c0.996,0.371,1.523,0.875,1.523,1.738c0,1.031-0.805,1.75-2.16,1.75
				c-0.635,0-1.223-0.167-1.631-0.406L632.806,368.27z"/>
			<path fill="#5B5D5C" d="M642.955,366.386c0,2.147-1.498,3.082-2.891,3.082c-1.561,0-2.781-1.149-2.781-2.985
				c0-1.932,1.283-3.07,2.877-3.07C641.828,363.411,642.955,364.623,642.955,366.386z M638.361,366.446
				c0,1.271,0.721,2.229,1.752,2.229c1.008,0,1.762-0.947,1.762-2.255c0-0.983-0.49-2.219-1.738-2.219
				C638.902,364.203,638.361,365.354,638.361,366.446z"/>
			<path fill="#5B5D5C" d="M648.427,369.133c-0.275,0.133-0.887,0.335-1.668,0.335c-1.75,0-2.889-1.187-2.889-2.962
				c0-1.787,1.223-3.095,3.117-3.095c0.623,0,1.176,0.155,1.463,0.312l-0.238,0.805c-0.252-0.133-0.648-0.276-1.225-0.276
				c-1.33,0-2.051,0.996-2.051,2.194c0,1.344,0.863,2.171,2.016,2.171c0.6,0,0.994-0.144,1.295-0.275L648.427,369.133z"/>
			<path fill="#5B5D5C" d="M650.841,361.9c0,0.359-0.252,0.646-0.672,0.646c-0.385,0-0.637-0.287-0.637-0.646
				s0.266-0.659,0.66-0.659C650.578,361.241,650.841,361.527,650.841,361.9z M649.666,369.337v-5.805h1.055v5.805H649.666z"/>
			<path fill="#5B5D5C" d="M656.55,367.945c0,0.504,0.025,0.994,0.084,1.392h-0.947l-0.084-0.731h-0.035
				c-0.324,0.455-0.947,0.862-1.775,0.862c-1.174,0-1.773-0.827-1.773-1.666c0-1.403,1.246-2.172,3.49-2.159v-0.119
				c0-0.469-0.133-1.344-1.318-1.332c-0.553,0-1.115,0.156-1.523,0.433l-0.24-0.708c0.48-0.3,1.188-0.504,1.918-0.504
				c1.775,0,2.207,1.212,2.207,2.363v2.17H656.55z M655.531,366.374c-1.15-0.022-2.457,0.18-2.457,1.308
				c0,0.695,0.455,1.008,0.982,1.008c0.768,0,1.258-0.479,1.428-0.972c0.035-0.12,0.047-0.239,0.047-0.336V366.374L655.531,366.374z
				"/>
			<path fill="#5B5D5C" d="M658.257,360.821h1.055v8.516h-1.055V360.821z"/>
			<path fill="#5B5D5C" d="M667.71,367.945c0,0.504,0.025,0.994,0.084,1.392h-0.947l-0.084-0.731h-0.035
				c-0.324,0.455-0.947,0.862-1.775,0.862c-1.174,0-1.773-0.827-1.773-1.666c0-1.403,1.246-2.172,3.49-2.159v-0.119
				c0-0.469-0.133-1.344-1.32-1.332c-0.551,0-1.113,0.156-1.521,0.433l-0.24-0.708c0.48-0.3,1.188-0.504,1.918-0.504
				c1.775,0,2.207,1.212,2.207,2.363v2.17H667.71z M666.691,366.374c-1.15-0.022-2.457,0.18-2.457,1.308
				c0,0.695,0.453,1.008,0.982,1.008c0.768,0,1.258-0.479,1.426-0.972c0.037-0.12,0.049-0.239,0.049-0.336V366.374L666.691,366.374z
				"/>
			<path fill="#5B5D5C" d="M673.341,369.337l-2.65-8.084h1.141l1.258,3.981c0.336,1.092,0.637,2.074,0.863,3.021h0.023
				c0.229-0.936,0.553-1.955,0.926-3.01l1.365-3.994h1.115l-2.891,8.084L673.341,369.337L673.341,369.337z"/>
			<path fill="#5B5D5C" d="M680.181,361.023l-1.463,1.717h-0.744l1.057-1.717H680.181z M678.035,369.337v-5.805h1.055v5.805H678.035
				z"/>
			<path fill="#5B5D5C" d="M684.978,369.133c-0.275,0.133-0.887,0.335-1.668,0.335c-1.75,0-2.889-1.187-2.889-2.962
				c0-1.787,1.223-3.095,3.117-3.095c0.623,0,1.176,0.155,1.463,0.312l-0.24,0.805c-0.25-0.133-0.646-0.276-1.223-0.276
				c-1.33,0-2.051,0.996-2.051,2.194c0,1.344,0.863,2.171,2.016,2.171c0.6,0,0.994-0.144,1.295-0.275L684.978,369.133z"/>
			<path fill="#5B5D5C" d="M687.644,362.141v1.393h1.514v0.803h-1.514v3.131c0,0.719,0.205,1.127,0.793,1.127
				c0.287,0,0.455-0.022,0.611-0.072l0.047,0.805c-0.203,0.072-0.525,0.145-0.936,0.145c-0.49,0-0.887-0.168-1.139-0.443
				c-0.287-0.324-0.408-0.84-0.408-1.523v-3.166h-0.898v-0.803h0.898v-1.08L687.644,362.141z"/>
			<path fill="#5B5D5C" d="M691.521,361.9c0,0.359-0.252,0.646-0.672,0.646c-0.385,0-0.637-0.287-0.637-0.646
				s0.266-0.659,0.66-0.659C691.257,361.241,691.521,361.527,691.521,361.9z M690.345,369.337v-5.805h1.057v5.805H690.345z"/>
			<path fill="#5B5D5C" d="M693.154,365.104c0-0.611-0.025-1.093-0.051-1.57h0.926l0.047,0.947h0.037
				c0.322-0.553,0.861-1.068,1.834-1.068c0.779,0,1.379,0.48,1.631,1.164h0.023c0.182-0.336,0.42-0.576,0.66-0.756
				c0.35-0.264,0.719-0.408,1.271-0.408c0.777,0,1.918,0.504,1.918,2.52v3.406h-1.031v-3.273c0-1.129-0.42-1.787-1.26-1.787
				c-0.611,0-1.066,0.442-1.258,0.947c-0.049,0.155-0.084,0.336-0.084,0.527v3.586h-1.031v-3.479c0-0.924-0.408-1.584-1.213-1.584
				c-0.646,0-1.139,0.527-1.307,1.057c-0.061,0.145-0.084,0.336-0.084,0.516v3.49h-1.031v-4.234H693.154z"/>
			<path fill="#5B5D5C" d="M707.238,367.945c0,0.504,0.023,0.994,0.084,1.392h-0.947l-0.084-0.731h-0.035
				c-0.324,0.455-0.947,0.862-1.775,0.862c-1.176,0-1.773-0.827-1.773-1.666c0-1.403,1.246-2.172,3.49-2.159v-0.119
				c0-0.469-0.133-1.344-1.32-1.332c-0.551,0-1.115,0.156-1.523,0.433l-0.238-0.708c0.479-0.3,1.188-0.504,1.918-0.504
				c1.775,0,2.207,1.212,2.207,2.363v2.17H707.238z M706.218,366.374c-1.15-0.022-2.457,0.18-2.457,1.308
				c0,0.695,0.455,1.008,0.982,1.008c0.768,0,1.26-0.479,1.428-0.972c0.035-0.12,0.047-0.239,0.047-0.336V366.374L706.218,366.374z"
				/>
			<path fill="#5B5D5C" d="M708.8,368.27c0.324,0.191,0.877,0.407,1.404,0.407c0.756,0,1.115-0.372,1.115-0.862
				c0-0.504-0.301-0.769-1.068-1.057c-1.055-0.384-1.547-0.947-1.547-1.644c0-0.937,0.768-1.703,2.004-1.703
				c0.588,0,1.104,0.155,1.414,0.36l-0.252,0.768c-0.229-0.145-0.646-0.348-1.188-0.348c-0.623,0-0.959,0.358-0.959,0.791
				c0,0.479,0.336,0.695,1.092,0.996c0.994,0.371,1.521,0.875,1.521,1.738c0,1.031-0.803,1.75-2.158,1.75
				c-0.635,0-1.223-0.167-1.631-0.406L708.8,368.27z"/>
			<path fill="#5B5D5C" d="M721.242,360.821v7.016c0,0.517,0.023,1.104,0.049,1.5h-0.938l-0.047-1.008h-0.037
				c-0.311,0.647-1.008,1.139-1.953,1.139c-1.404,0-2.494-1.187-2.494-2.948c-0.014-1.933,1.197-3.107,2.602-3.107
				c0.9,0,1.488,0.42,1.752,0.876h0.023v-3.466L721.242,360.821L721.242,360.821z M720.199,365.895c0-0.131-0.014-0.312-0.049-0.443
				c-0.154-0.659-0.73-1.211-1.521-1.211c-1.092,0-1.74,0.959-1.74,2.229c0,1.177,0.588,2.146,1.717,2.146
				c0.707,0,1.354-0.479,1.547-1.259c0.035-0.145,0.047-0.289,0.047-0.457V365.895L720.199,365.895z"/>
			<path fill="#5B5D5C" d="M723.595,366.626c0.025,1.429,0.924,2.015,1.992,2.015c0.756,0,1.223-0.132,1.607-0.3l0.189,0.757
				c-0.371,0.168-1.02,0.37-1.941,0.37c-1.787,0-2.854-1.187-2.854-2.938c0-1.752,1.031-3.119,2.723-3.119
				c1.906,0,2.398,1.655,2.398,2.723c0,0.218-0.012,0.372-0.037,0.492H723.595L723.595,366.626z M726.691,365.87
				c0.012-0.659-0.277-1.703-1.465-1.703c-1.08,0-1.533,0.972-1.617,1.703H726.691z"/>
			<path fill="#5B5D5C" d="M732.943,369.337l-2.65-8.084h1.139l1.26,3.981c0.336,1.092,0.637,2.074,0.863,3.021h0.023
				c0.229-0.936,0.553-1.955,0.924-3.01l1.367-3.994h1.115l-2.891,8.084L732.943,369.337L732.943,369.337z"/>
			<path fill="#5B5D5C" d="M738.812,361.9c0,0.359-0.252,0.646-0.672,0.646c-0.385,0-0.637-0.287-0.637-0.646
				s0.266-0.659,0.66-0.659C738.548,361.241,738.812,361.527,738.812,361.9z M737.636,369.337v-5.805h1.057v5.805H737.636z"/>
			<path fill="#5B5D5C" d="M745.697,366.386c0,2.147-1.498,3.082-2.891,3.082c-1.561,0-2.781-1.149-2.781-2.985
				c0-1.932,1.281-3.07,2.877-3.07C744.57,363.411,745.697,364.623,745.697,366.386z M741.103,366.446
				c0,1.271,0.721,2.229,1.752,2.229c1.008,0,1.764-0.947,1.764-2.255c0-0.983-0.492-2.219-1.738-2.219
				C741.644,364.203,741.103,365.354,741.103,366.446z"/>
			<path fill="#5B5D5C" d="M747.033,360.821h1.055v8.516h-1.055V360.821z"/>
			<path fill="#5B5D5C" d="M750.451,366.626c0.023,1.429,0.924,2.015,1.992,2.015c0.756,0,1.223-0.132,1.605-0.3l0.191,0.757
				c-0.371,0.168-1.02,0.37-1.941,0.37c-1.787,0-2.854-1.187-2.854-2.938c0-1.752,1.029-3.119,2.723-3.119
				c1.906,0,2.398,1.655,2.398,2.723c0,0.218-0.014,0.372-0.037,0.492H750.451L750.451,366.626z M753.546,365.87
				c0.012-0.659-0.277-1.703-1.463-1.703c-1.08,0-1.535,0.972-1.619,1.703H753.546z"/>
			<path fill="#5B5D5C" d="M755.876,365.104c0-0.611-0.014-1.093-0.049-1.57h0.936l0.061,0.959h0.023
				c0.287-0.54,0.959-1.08,1.918-1.08c0.805,0,2.053,0.48,2.053,2.471v3.455h-1.057v-3.347c0-0.937-0.348-1.716-1.344-1.716
				c-0.684,0-1.223,0.492-1.414,1.08c-0.049,0.132-0.072,0.312-0.072,0.492v3.489h-1.055V365.104z"/>
			<path fill="#5B5D5C" d="M766.673,369.133c-0.275,0.133-0.887,0.335-1.668,0.335c-1.75,0-2.889-1.187-2.889-2.962
				c0-1.787,1.223-3.095,3.117-3.095c0.623,0,1.176,0.155,1.463,0.312l-0.238,0.805c-0.252-0.133-0.648-0.276-1.225-0.276
				c-1.33,0-2.051,0.996-2.051,2.194c0,1.344,0.863,2.171,2.016,2.171c0.6,0,0.994-0.144,1.295-0.275L766.673,369.133z"/>
			<path fill="#5B5D5C" d="M769.087,361.9c0,0.359-0.252,0.646-0.672,0.646c-0.385,0-0.637-0.287-0.637-0.646
				s0.266-0.659,0.66-0.659C768.824,361.241,769.087,361.527,769.087,361.9z M767.912,369.337v-5.805h1.055v5.805H767.912z"/>
			<path fill="#5B5D5C" d="M774.796,367.945c0,0.504,0.025,0.994,0.084,1.392h-0.947l-0.084-0.731h-0.035
				c-0.324,0.455-0.947,0.862-1.775,0.862c-1.174,0-1.773-0.827-1.773-1.666c0-1.403,1.246-2.172,3.49-2.159v-0.119
				c0-0.469-0.133-1.344-1.32-1.332c-0.551,0-1.113,0.156-1.521,0.433l-0.24-0.708c0.48-0.3,1.188-0.504,1.918-0.504
				c1.775,0,2.207,1.212,2.207,2.363v2.17H774.796z M773.777,366.374c-1.15-0.022-2.457,0.18-2.457,1.308
				c0,0.695,0.455,1.008,0.982,1.008c0.768,0,1.258-0.479,1.426-0.972c0.037-0.12,0.049-0.239,0.049-0.336V366.374L773.777,366.374z
				"/>
			<path fill="#5B5D5C" d="M779.083,361.35c0.504-0.084,1.164-0.156,2.002-0.156c1.033,0,1.787,0.24,2.268,0.672
				c0.434,0.384,0.707,0.972,0.707,1.691c0,0.73-0.215,1.307-0.623,1.727c-0.562,0.588-1.451,0.888-2.471,0.888
				c-0.311,0-0.6-0.012-0.84-0.071v3.238h-1.043V361.35z M780.126,365.247c0.229,0.06,0.516,0.084,0.863,0.084
				c1.26,0,2.027-0.624,2.027-1.716c0-1.079-0.768-1.596-1.906-1.596c-0.457,0-0.805,0.037-0.984,0.084V365.247z"/>
			<path fill="#5B5D5C" d="M790.384,366.386c0,2.147-1.498,3.082-2.891,3.082c-1.561,0-2.781-1.149-2.781-2.985
				c0-1.932,1.283-3.07,2.877-3.07C789.257,363.411,790.384,364.623,790.384,366.386z M785.791,366.446
				c0,1.271,0.721,2.229,1.752,2.229c1.008,0,1.762-0.947,1.762-2.255c0-0.983-0.49-2.219-1.736-2.219
				C786.332,364.203,785.791,365.354,785.791,366.446z"/>
			<path fill="#5B5D5C" d="M791.72,360.821h1.055v8.516h-1.055V360.821z"/>
			<path fill="#5B5D5C" d="M796.699,361.023l-1.463,1.717h-0.744l1.055-1.717H796.699z M794.552,369.337v-5.805h1.055v5.805H794.552
				z"/>
			<path fill="#5B5D5C" d="M798.63,362.141v1.393h1.512v0.803h-1.512v3.131c0,0.719,0.203,1.127,0.791,1.127
				c0.289,0,0.457-0.022,0.611-0.072l0.049,0.805c-0.203,0.072-0.527,0.145-0.938,0.145c-0.49,0-0.887-0.168-1.139-0.443
				c-0.287-0.324-0.408-0.84-0.408-1.523v-3.166h-0.898v-0.803h0.898v-1.08L798.63,362.141z"/>
			<path fill="#5B5D5C" d="M802.505,361.9c0,0.359-0.252,0.646-0.672,0.646c-0.383,0-0.635-0.287-0.635-0.646
				s0.264-0.659,0.66-0.659C802.242,361.241,802.505,361.527,802.505,361.9z M801.332,369.337v-5.805h1.055v5.805H801.332z"/>
			<path fill="#5B5D5C" d="M808.175,369.133c-0.275,0.133-0.887,0.335-1.668,0.335c-1.75,0-2.889-1.187-2.889-2.962
				c0-1.787,1.223-3.095,3.117-3.095c0.623,0,1.176,0.155,1.463,0.312l-0.238,0.805c-0.252-0.133-0.648-0.276-1.225-0.276
				c-1.33,0-2.051,0.996-2.051,2.194c0,1.344,0.863,2.171,2.016,2.171c0.6,0,0.994-0.144,1.295-0.275L808.175,369.133z"/>
			<path fill="#5B5D5C" d="M813.492,367.945c0,0.504,0.023,0.994,0.084,1.392h-0.947l-0.084-0.731h-0.037
				c-0.322,0.455-0.947,0.862-1.773,0.862c-1.176,0-1.775-0.827-1.775-1.666c0-1.403,1.248-2.172,3.49-2.159v-0.119
				c0-0.469-0.131-1.344-1.318-1.332c-0.553,0-1.115,0.156-1.523,0.433l-0.24-0.708c0.48-0.3,1.188-0.504,1.92-0.504
				c1.773,0,2.207,1.212,2.207,2.363v2.17H813.492z M812.472,366.374c-1.15-0.022-2.459,0.18-2.459,1.308
				c0,0.695,0.455,1.008,0.984,1.008c0.768,0,1.258-0.479,1.426-0.972c0.037-0.12,0.049-0.239,0.049-0.336V366.374L812.472,366.374z
				"/>
			<path fill="#5B5D5C" d="M814.947,368.713c0-0.432,0.299-0.756,0.719-0.756s0.707,0.312,0.707,0.756
				c0,0.432-0.287,0.755-0.73,0.755C815.234,369.468,814.947,369.145,814.947,368.713z"/>
			<path fill="#5B5D5C" d="M820.25,361.253h4.354v0.875h-3.299v2.688h3.047v0.862h-3.047v3.658h-1.055V361.253z"/>
			<path fill="#5B5D5C" d="M826.933,361.9c0,0.359-0.252,0.646-0.672,0.646c-0.385,0-0.637-0.287-0.637-0.646
				s0.266-0.659,0.66-0.659C826.669,361.241,826.933,361.527,826.933,361.9z M825.757,369.337v-5.805h1.055v5.805H825.757z"/>
			<path fill="#5B5D5C" d="M828.566,365.104c0-0.611-0.014-1.093-0.051-1.57h0.938l0.061,0.959h0.023
				c0.287-0.54,0.959-1.08,1.918-1.08c0.805,0,2.051,0.48,2.051,2.471v3.455h-1.055v-3.347c0-0.937-0.35-1.716-1.344-1.716
				c-0.684,0-1.225,0.492-1.414,1.08c-0.049,0.132-0.072,0.312-0.072,0.492v3.489h-1.055V365.104z"/>
			<path fill="#5B5D5C" d="M839.302,367.945c0,0.504,0.025,0.994,0.084,1.392h-0.947l-0.084-0.731h-0.035
				c-0.324,0.455-0.947,0.862-1.775,0.862c-1.174,0-1.773-0.827-1.773-1.666c0-1.403,1.246-2.172,3.49-2.159v-0.119
				c0-0.469-0.133-1.344-1.318-1.332c-0.553,0-1.115,0.156-1.523,0.433l-0.24-0.708c0.48-0.3,1.188-0.504,1.918-0.504
				c1.775,0,2.207,1.212,2.207,2.363v2.17H839.302z M838.283,366.374c-1.15-0.022-2.457,0.18-2.457,1.308
				c0,0.695,0.455,1.008,0.982,1.008c0.768,0,1.26-0.479,1.428-0.972c0.035-0.12,0.047-0.239,0.047-0.336V366.374L838.283,366.374z"
				/>
			<path fill="#5B5D5C" d="M841.009,365.104c0-0.611-0.012-1.093-0.049-1.57h0.936l0.062,0.959h0.021
				c0.289-0.54,0.961-1.08,1.92-1.08c0.805,0,2.051,0.48,2.051,2.471v3.455h-1.055v-3.347c0-0.937-0.348-1.716-1.344-1.716
				c-0.684,0-1.225,0.492-1.416,1.08c-0.047,0.132-0.07,0.312-0.07,0.492v3.489h-1.057V365.104z"/>
			<path fill="#5B5D5C" d="M851.808,369.133c-0.275,0.133-0.889,0.335-1.668,0.335c-1.752,0-2.891-1.187-2.891-2.962
				c0-1.787,1.223-3.095,3.119-3.095c0.623,0,1.174,0.155,1.463,0.312l-0.24,0.805c-0.252-0.133-0.646-0.276-1.223-0.276
				c-1.332,0-2.053,0.996-2.053,2.194c0,1.344,0.863,2.171,2.016,2.171c0.6,0,0.996-0.144,1.295-0.275L851.808,369.133z"/>
			<path fill="#5B5D5C" d="M854.22,361.9c0,0.359-0.252,0.646-0.672,0.646c-0.383,0-0.635-0.287-0.635-0.646s0.264-0.659,0.66-0.659
				C853.957,361.241,854.22,361.527,854.22,361.9z M853.046,369.337v-5.805h1.055v5.805H853.046z"/>
			<path fill="#5B5D5C" d="M859.931,367.945c0,0.504,0.023,0.994,0.084,1.392h-0.947l-0.084-0.731h-0.035
				c-0.324,0.455-0.947,0.862-1.775,0.862c-1.176,0-1.773-0.827-1.773-1.666c0-1.403,1.246-2.172,3.488-2.159v-0.119
				c0-0.469-0.131-1.344-1.318-1.332c-0.553,0-1.115,0.156-1.523,0.433l-0.24-0.708c0.48-0.3,1.189-0.504,1.92-0.504
				c1.775,0,2.207,1.212,2.207,2.363v2.17H859.931z M858.912,366.374c-1.152-0.022-2.459,0.18-2.459,1.308
				c0,0.695,0.455,1.008,0.982,1.008c0.77,0,1.26-0.479,1.428-0.972c0.037-0.12,0.049-0.239,0.049-0.336V366.374L858.912,366.374z"
				/>
			<path fill="#5B5D5C" d="M866.638,360.821v7.016c0,0.517,0.023,1.104,0.049,1.5h-0.936l-0.049-1.008h-0.035
				c-0.312,0.647-1.008,1.139-1.955,1.139c-1.404,0-2.494-1.187-2.494-2.948c-0.014-1.933,1.199-3.107,2.604-3.107
				c0.898,0,1.486,0.42,1.75,0.876h0.023v-3.466L866.638,360.821L866.638,360.821z M865.595,365.895
				c0-0.131-0.012-0.312-0.049-0.443c-0.154-0.659-0.73-1.211-1.521-1.211c-1.092,0-1.738,0.959-1.738,2.229
				c0,1.177,0.586,2.146,1.715,2.146c0.707,0,1.355-0.479,1.547-1.259c0.035-0.145,0.047-0.289,0.047-0.457V365.895L865.595,365.895
				z"/>
			<path fill="#5B5D5C" d="M873.658,366.386c0,2.147-1.498,3.082-2.891,3.082c-1.561,0-2.781-1.149-2.781-2.985
				c0-1.932,1.281-3.07,2.877-3.07C872.531,363.411,873.658,364.623,873.658,366.386z M869.064,366.446
				c0,1.271,0.721,2.229,1.752,2.229c1.008,0,1.762-0.947,1.762-2.255c0-0.983-0.49-2.219-1.738-2.219
				C869.603,364.203,869.064,365.354,869.064,366.446z"/>
			<path fill="#5B5D5C" d="M877.537,365.427c0-0.743-0.023-1.344-0.049-1.895h0.936l0.062,0.995h0.021
				c0.42-0.709,1.115-1.116,2.064-1.116c1.414,0,2.471,1.188,2.471,2.938c0,2.086-1.283,3.117-2.652,3.117
				c-0.768,0-1.438-0.335-1.785-0.91h-0.023v3.153h-1.043v-6.283H877.537z M878.58,366.975c0,0.155,0.012,0.299,0.049,0.432
				c0.191,0.732,0.828,1.234,1.582,1.234c1.115,0,1.764-0.91,1.764-2.242c0-1.15-0.611-2.146-1.727-2.146
				c-0.721,0-1.404,0.504-1.596,1.295c-0.035,0.133-0.072,0.289-0.072,0.42V366.975L878.58,366.975z"/>
			<path fill="#5B5D5C" d="M889.619,366.386c0,2.147-1.5,3.082-2.893,3.082c-1.559,0-2.781-1.149-2.781-2.985
				c0-1.932,1.283-3.07,2.879-3.07C888.49,363.411,889.619,364.623,889.619,366.386z M885.025,366.446
				c0,1.271,0.719,2.229,1.75,2.229c1.008,0,1.764-0.947,1.764-2.255c0-0.983-0.492-2.219-1.738-2.219
				C885.564,364.203,885.025,365.354,885.025,366.446z"/>
			<path fill="#5B5D5C" d="M890.953,365.343c0-0.684-0.012-1.271-0.049-1.811h0.924l0.049,1.149h0.035
				c0.264-0.779,0.912-1.271,1.619-1.271c0.107,0,0.191,0.013,0.289,0.024v0.994c-0.109-0.022-0.217-0.022-0.361-0.022
				c-0.742,0-1.27,0.552-1.414,1.344c-0.023,0.144-0.037,0.323-0.037,0.491v3.095h-1.055V365.343L890.953,365.343z"/>
			<path fill="#5B5D5C" d="M270.569,375.652v4.798c0,1.799,0.804,2.565,1.883,2.565c1.188,0,1.967-0.791,1.967-2.565v-4.798h1.056
				v4.726c0,2.481-1.308,3.49-3.059,3.49c-1.655,0-2.902-0.937-2.902-3.454v-4.762H270.569z"/>
			<path fill="#5B5D5C" d="M277.254,379.503c0-0.61-0.013-1.092-0.049-1.571h0.936l0.061,0.961h0.023
				c0.288-0.541,0.96-1.08,1.919-1.08c0.804,0,2.051,0.479,2.051,2.471v3.453h-1.055v-3.346c0-0.937-0.348-1.716-1.344-1.716
				c-0.684,0-1.224,0.492-1.415,1.08c-0.048,0.132-0.072,0.312-0.072,0.491v3.49h-1.055V379.503L277.254,379.503z"/>
			<path fill="#5B5D5C" d="M285.089,376.3c0,0.36-0.252,0.648-0.672,0.648c-0.384,0-0.636-0.288-0.636-0.648
				c0-0.358,0.265-0.659,0.66-0.659C284.825,375.641,285.089,375.929,285.089,376.3z M283.914,383.736v-5.805h1.055v5.805H283.914z"
				/>
			<path fill="#5B5D5C" d="M291.975,380.786c0,2.146-1.499,3.082-2.891,3.082c-1.56,0-2.782-1.151-2.782-2.986
				c0-1.931,1.283-3.069,2.878-3.069C290.847,377.812,291.975,379.021,291.975,380.786z M287.381,380.846
				c0,1.271,0.72,2.231,1.751,2.231c1.008,0,1.763-0.948,1.763-2.255c0-0.983-0.491-2.221-1.738-2.221
				C287.921,378.604,287.381,379.755,287.381,380.846z M290.715,375.425l-1.463,1.716h-0.744l1.044-1.716H290.715z"/>
			<path fill="#5B5D5C" d="M293.31,379.503c0-0.61-0.013-1.092-0.049-1.571h0.936l0.061,0.961h0.023
				c0.288-0.541,0.96-1.08,1.919-1.08c0.804,0,2.051,0.479,2.051,2.471v3.453h-1.055v-3.346c0-0.937-0.349-1.716-1.344-1.716
				c-0.684,0-1.224,0.492-1.415,1.08c-0.048,0.132-0.072,0.312-0.072,0.491v3.49h-1.055V379.503L293.31,379.503z"/>
			<path fill="#5B5D5C" d="M306.723,379.946h-3.13v2.913h3.502v0.877h-4.558v-8.084h4.378v0.875h-3.322v2.556h3.13V379.946z"/>
			<path fill="#5B5D5C" d="M313.19,382.143c0,0.61,0.013,1.139,0.049,1.594h-0.937l-0.061-0.946h-0.023
				c-0.265,0.468-0.888,1.079-1.919,1.079c-0.912,0-2.003-0.516-2.003-2.543v-3.395h1.055v3.202c0,1.104,0.35,1.859,1.297,1.859
				c0.707,0,1.198-0.492,1.391-0.972c0.061-0.145,0.097-0.336,0.097-0.541v-3.549h1.056L313.19,382.143L313.19,382.143z"/>
			<path fill="#5B5D5C" d="M314.946,379.742c0-0.684-0.014-1.271-0.049-1.811h0.924l0.048,1.15h0.036
				c0.264-0.779,0.911-1.271,1.619-1.271c0.107,0,0.19,0.013,0.288,0.023v0.996c-0.108-0.023-0.217-0.023-0.36-0.023
				c-0.743,0-1.271,0.551-1.415,1.344c-0.023,0.144-0.036,0.322-0.036,0.49v3.096h-1.055V379.742z"/>
			<path fill="#5B5D5C" d="M324.003,380.786c0,2.146-1.499,3.082-2.891,3.082c-1.561,0-2.782-1.151-2.782-2.986
				c0-1.931,1.283-3.069,2.878-3.069C322.875,377.812,324.003,379.021,324.003,380.786z M319.409,380.846
				c0,1.271,0.72,2.231,1.751,2.231c1.008,0,1.763-0.948,1.763-2.255c0-0.983-0.491-2.221-1.738-2.221
				C319.949,378.604,319.409,379.755,319.409,380.846z"/>
			<path fill="#5B5D5C" d="M325.338,379.826c0-0.743-0.023-1.344-0.049-1.895h0.936l0.062,0.994h0.022
				c0.421-0.707,1.115-1.115,2.063-1.115c1.415,0,2.471,1.188,2.471,2.938c0,2.087-1.283,3.118-2.65,3.118
				c-0.769,0-1.438-0.336-1.786-0.911h-0.024v3.153h-1.043L325.338,379.826L325.338,379.826z M326.381,381.374
				c0,0.155,0.012,0.299,0.048,0.433c0.192,0.73,0.828,1.234,1.583,1.234c1.115,0,1.765-0.912,1.765-2.243
				c0-1.151-0.612-2.146-1.729-2.146c-0.72,0-1.403,0.504-1.595,1.295c-0.036,0.132-0.072,0.287-0.072,0.42V381.374L326.381,381.374
				z"/>
			<path fill="#5B5D5C" d="M332.753,381.025c0.024,1.428,0.924,2.016,1.991,2.016c0.756,0,1.224-0.132,1.606-0.3l0.191,0.756
				c-0.372,0.167-1.02,0.371-1.942,0.371c-1.786,0-2.854-1.188-2.854-2.938s1.031-3.117,2.723-3.117
				c1.906,0,2.398,1.654,2.398,2.723c0,0.216-0.014,0.371-0.036,0.492h-4.078V381.025z M335.848,380.271
				c0.013-0.66-0.275-1.703-1.463-1.703c-1.08,0-1.535,0.971-1.619,1.703H335.848z"/>
			<path fill="#5B5D5C" d="M342.255,382.345c0,0.505,0.024,0.996,0.084,1.392h-0.947l-0.084-0.73h-0.035
				c-0.323,0.455-0.947,0.863-1.775,0.863c-1.175,0-1.774-0.827-1.774-1.667c0-1.403,1.247-2.171,3.49-2.159v-0.119
				c0-0.469-0.132-1.344-1.319-1.332c-0.552,0-1.114,0.156-1.522,0.432l-0.24-0.707c0.48-0.299,1.188-0.504,1.919-0.504
				c1.775,0,2.207,1.211,2.207,2.363v2.169H342.255z M341.235,380.773c-1.151-0.023-2.458,0.181-2.458,1.308
				c0,0.694,0.455,1.008,0.982,1.008c0.769,0,1.259-0.479,1.427-0.972c0.036-0.12,0.049-0.239,0.049-0.336V380.773z"/>
			<path fill="#5B5D5C" d="M351.267,380.33v0.72h-5.276v-0.72H351.267z"/>
			<path fill="#5B5D5C" d="M360.723,383.484c-0.372,0.191-1.15,0.384-2.136,0.384c-2.278,0-3.98-1.438-3.98-4.103
				c0-2.543,1.715-4.246,4.222-4.246c0.995,0,1.644,0.218,1.919,0.36l-0.264,0.853c-0.385-0.192-0.947-0.336-1.619-0.336
				c-1.896,0-3.154,1.211-3.154,3.334c0,1.99,1.14,3.25,3.095,3.25c0.647,0,1.295-0.133,1.715-0.336L360.723,383.484z"/>
			<path fill="#5B5D5C" d="M367.131,380.786c0,2.146-1.499,3.082-2.891,3.082c-1.561,0-2.782-1.151-2.782-2.986
				c0-1.931,1.283-3.069,2.878-3.069C366.003,377.812,367.131,379.021,367.131,380.786z M362.537,380.846
				c0,1.271,0.72,2.231,1.751,2.231c1.008,0,1.763-0.948,1.763-2.255c0-0.983-0.491-2.221-1.738-2.221
				C363.077,378.604,362.537,379.755,362.537,380.846z"/>
			<path fill="#5B5D5C" d="M368.466,379.742c0-0.684-0.013-1.271-0.049-1.811h0.924l0.048,1.15h0.036
				c0.265-0.779,0.911-1.271,1.619-1.271c0.108,0,0.191,0.013,0.288,0.023v0.996c-0.108-0.023-0.216-0.023-0.36-0.023
				c-0.743,0-1.271,0.551-1.415,1.344c-0.022,0.144-0.035,0.322-0.035,0.49v3.096h-1.056V379.742z"/>
			<path fill="#5B5D5C" d="M377.271,375.221v7.018c0,0.516,0.022,1.104,0.048,1.498h-0.937l-0.048-1.006h-0.036
				c-0.312,0.646-1.008,1.139-1.955,1.139c-1.402,0-2.494-1.188-2.494-2.95c-0.013-1.931,1.199-3.106,2.604-3.106
				c0.898,0,1.487,0.42,1.751,0.875h0.022v-3.465h1.045V375.221z M376.227,380.294c0-0.132-0.012-0.312-0.048-0.442
				c-0.154-0.66-0.73-1.211-1.522-1.211c-1.091,0-1.738,0.959-1.738,2.229c0,1.175,0.588,2.146,1.715,2.146
				c0.708,0,1.355-0.479,1.547-1.26c0.036-0.145,0.048-0.287,0.048-0.455L376.227,380.294L376.227,380.294z"/>
			<path fill="#5B5D5C" d="M383.114,382.345c0,0.505,0.023,0.996,0.084,1.392h-0.947l-0.084-0.73h-0.036
				c-0.323,0.455-0.947,0.863-1.774,0.863c-1.176,0-1.774-0.827-1.774-1.667c0-1.403,1.247-2.171,3.49-2.159v-0.119
				c0-0.469-0.132-1.344-1.319-1.332c-0.552,0-1.115,0.156-1.522,0.432l-0.24-0.707c0.479-0.299,1.188-0.504,1.919-0.504
				c1.774,0,2.207,1.211,2.207,2.363v2.169H383.114z M382.095,380.773c-1.15-0.023-2.458,0.181-2.458,1.308
				c0,0.694,0.455,1.008,0.983,1.008c0.768,0,1.259-0.479,1.427-0.972c0.036-0.12,0.048-0.239,0.048-0.336V380.773z"/>
			<path fill="#5B5D5C" d="M385.997,376.3c0,0.36-0.252,0.648-0.672,0.648c-0.384,0-0.636-0.288-0.636-0.648
				c0-0.358,0.265-0.659,0.659-0.659C385.733,375.641,385.997,375.929,385.997,376.3z M384.822,383.736v-5.805h1.055v5.805H384.822z
				"/>
			<path fill="#5B5D5C" d="M392.63,375.221v7.018c0,0.516,0.023,1.104,0.048,1.498h-0.936l-0.048-1.006h-0.036
				c-0.312,0.646-1.008,1.139-1.955,1.139c-1.403,0-2.494-1.188-2.494-2.95c-0.013-1.931,1.199-3.106,2.604-3.106
				c0.898,0,1.486,0.42,1.751,0.875h0.022v-3.465h1.044V375.221z M391.586,380.294c0-0.132-0.012-0.312-0.048-0.442
				c-0.155-0.66-0.731-1.211-1.523-1.211c-1.091,0-1.737,0.959-1.737,2.229c0,1.175,0.588,2.146,1.715,2.146
				c0.708,0,1.354-0.479,1.547-1.26c0.036-0.145,0.048-0.287,0.048-0.455L391.586,380.294L391.586,380.294z"/>
			<path fill="#5B5D5C" d="M397.325,377.932l1.259,3.43c0.145,0.385,0.288,0.841,0.384,1.188h0.024
				c0.106-0.348,0.228-0.792,0.371-1.211l1.15-3.405h1.115l-1.583,4.137c-0.755,1.99-1.271,2.998-1.99,3.635
				c-0.527,0.443-1.031,0.624-1.296,0.672l-0.264-0.876c0.264-0.084,0.611-0.252,0.924-0.517c0.288-0.228,0.636-0.635,0.888-1.174
				c0.049-0.108,0.084-0.192,0.084-0.252c0-0.061-0.023-0.145-0.084-0.276l-2.135-5.349h1.152V377.932z"/>
			<path fill="#5B5D5C" d="M405.172,375.771c0.636-0.106,1.393-0.18,2.219-0.18c1.5,0,2.567,0.359,3.274,1.008
				c0.73,0.659,1.151,1.596,1.151,2.902c0,1.319-0.421,2.398-1.163,3.143c-0.769,0.756-2.016,1.164-3.586,1.164
				c-0.757,0-1.367-0.037-1.896-0.098L405.172,375.771L405.172,375.771z M406.216,382.921c0.265,0.036,0.647,0.048,1.057,0.048
				c2.241,0,3.44-1.246,3.44-3.431c0.013-1.906-1.066-3.117-3.272-3.117c-0.54,0-0.948,0.047-1.225,0.106V382.921z"/>
			<path fill="#5B5D5C" d="M414.304,376.3c0,0.36-0.252,0.648-0.672,0.648c-0.384,0-0.636-0.288-0.636-0.648
				c0-0.358,0.265-0.659,0.66-0.659C414.04,375.641,414.304,375.929,414.304,376.3z M413.129,383.736v-5.805h1.055v5.805H413.129z"
				/>
			<path fill="#5B5D5C" d="M420.015,382.345c0,0.505,0.024,0.996,0.084,1.392h-0.946l-0.084-0.73h-0.036
				c-0.323,0.455-0.947,0.863-1.775,0.863c-1.175,0-1.773-0.827-1.773-1.667c0-1.403,1.247-2.171,3.489-2.159v-0.119
				c0-0.469-0.132-1.344-1.318-1.332c-0.553,0-1.115,0.156-1.523,0.432l-0.24-0.707c0.48-0.299,1.188-0.504,1.919-0.504
				c1.775,0,2.207,1.211,2.207,2.363v2.169H420.015z M418.995,380.773c-1.151-0.023-2.458,0.181-2.458,1.308
				c0,0.694,0.455,1.008,0.982,1.008c0.769,0,1.26-0.479,1.428-0.972c0.036-0.12,0.048-0.239,0.048-0.336V380.773z"/>
			<path fill="#5B5D5C" d="M422.764,380.594h0.024c0.144-0.203,0.335-0.455,0.503-0.658l1.716-2.004h1.259l-2.229,2.387l2.555,3.418
				h-1.296l-1.99-2.781l-0.54,0.6v2.184h-1.043v-8.516h1.043L422.764,380.594L422.764,380.594z"/>
			<path fill="#5B5D5C" d="M432.604,380.786c0,2.146-1.5,3.082-2.892,3.082c-1.56,0-2.782-1.151-2.782-2.986
				c0-1.931,1.283-3.069,2.878-3.069C431.475,377.812,432.604,379.021,432.604,380.786z M428.009,380.846
				c0,1.271,0.72,2.231,1.751,2.231c1.008,0,1.764-0.948,1.764-2.255c0-0.983-0.491-2.221-1.738-2.221
				C428.549,378.604,428.009,379.755,428.009,380.846z"/>
			<path fill="#5B5D5C" d="M433.938,379.503c0-0.61-0.013-1.092-0.049-1.571h0.937l0.061,0.961h0.023
				c0.288-0.541,0.96-1.08,1.919-1.08c0.804,0,2.051,0.479,2.051,2.471v3.453h-1.055v-3.346c0-0.937-0.349-1.716-1.344-1.716
				c-0.685,0-1.225,0.492-1.415,1.08c-0.049,0.132-0.072,0.312-0.072,0.491v3.49h-1.056V379.503z"/>
			<path fill="#5B5D5C" d="M441.771,376.3c0,0.36-0.252,0.648-0.672,0.648c-0.384,0-0.636-0.288-0.636-0.648
				c0-0.358,0.265-0.659,0.66-0.659C441.509,375.641,441.771,375.929,441.771,376.3z M440.598,383.736v-5.805h1.056v5.805H440.598z"
				/>
			<path fill="#5B5D5C" d="M447.48,382.345c0,0.505,0.024,0.996,0.085,1.392h-0.947l-0.084-0.73h-0.036
				c-0.323,0.455-0.947,0.863-1.775,0.863c-1.175,0-1.773-0.827-1.773-1.667c0-1.403,1.247-2.171,3.49-2.159v-0.119
				c0-0.469-0.133-1.344-1.319-1.332c-0.552,0-1.115,0.156-1.523,0.432l-0.239-0.707c0.479-0.299,1.188-0.504,1.919-0.504
				c1.774,0,2.207,1.211,2.207,2.363v2.169H447.48z M446.462,380.773c-1.151-0.023-2.458,0.181-2.458,1.308
				c0,0.694,0.455,1.008,0.983,1.008c0.768,0,1.259-0.479,1.427-0.972c0.036-0.12,0.048-0.239,0.048-0.336V380.773z"/>
			<path fill="#5B5D5C" d="M448.938,383.111c0-0.432,0.301-0.754,0.721-0.754c0.419,0,0.707,0.312,0.707,0.754
				c0,0.433-0.288,0.757-0.731,0.757C449.225,383.868,448.938,383.544,448.938,383.111z"/>
			<path fill="#5B5D5C" d="M454.252,375.771c0.636-0.106,1.393-0.18,2.219-0.18c1.5,0,2.567,0.359,3.274,1.008
				c0.73,0.659,1.151,1.596,1.151,2.902c0,1.319-0.421,2.398-1.163,3.143c-0.769,0.756-2.016,1.164-3.587,1.164
				c-0.756,0-1.366-0.037-1.896-0.098L454.252,375.771L454.252,375.771z M455.296,382.921c0.264,0.036,0.647,0.048,1.056,0.048
				c2.242,0,3.441-1.246,3.441-3.431c0.013-1.906-1.067-3.117-3.273-3.117c-0.539,0-0.947,0.047-1.224,0.106V382.921z"/>
			<path fill="#5B5D5C" d="M462.844,381.025c0.024,1.428,0.924,2.016,1.991,2.016c0.756,0,1.224-0.132,1.607-0.3l0.19,0.756
				c-0.372,0.167-1.02,0.371-1.941,0.371c-1.787,0-2.854-1.188-2.854-2.938s1.031-3.117,2.723-3.117
				c1.906,0,2.398,1.654,2.398,2.723c0,0.216-0.012,0.371-0.036,0.492h-4.078V381.025z M465.938,380.271
				c0.013-0.66-0.275-1.703-1.463-1.703c-1.08,0-1.535,0.971-1.619,1.703H465.938z"/>
			<path fill="#5B5D5C" d="M468.124,382.669c0.324,0.19,0.876,0.408,1.403,0.408c0.756,0,1.114-0.372,1.114-0.864
				c0-0.503-0.3-0.768-1.066-1.056c-1.056-0.384-1.547-0.947-1.547-1.644c0-0.936,0.768-1.703,2.003-1.703
				c0.588,0,1.104,0.156,1.415,0.359l-0.252,0.768c-0.229-0.144-0.647-0.348-1.188-0.348c-0.623,0-0.959,0.36-0.959,0.792
				c0,0.479,0.336,0.695,1.091,0.995c0.996,0.372,1.523,0.876,1.523,1.739c0,1.03-0.804,1.751-2.159,1.751
				c-0.635,0-1.223-0.168-1.631-0.408L468.124,382.669z"/>
			<path fill="#5B5D5C" d="M477.098,382.345c0,0.505,0.024,0.996,0.084,1.392h-0.946l-0.084-0.73h-0.036
				c-0.324,0.455-0.947,0.863-1.775,0.863c-1.175,0-1.773-0.827-1.773-1.667c0-1.403,1.246-2.171,3.489-2.159v-0.119
				c0-0.469-0.132-1.344-1.318-1.332c-0.553,0-1.115,0.156-1.523,0.432l-0.24-0.707c0.48-0.299,1.188-0.504,1.919-0.504
				c1.775,0,2.207,1.211,2.207,2.363v2.169H477.098z M476.078,380.773c-1.151-0.023-2.458,0.181-2.458,1.308
				c0,0.694,0.455,1.008,0.983,1.008c0.768,0,1.259-0.479,1.427-0.972c0.036-0.12,0.048-0.239,0.048-0.336V380.773z"/>
			<path fill="#5B5D5C" d="M478.805,379.742c0-0.684-0.013-1.271-0.049-1.811h0.924l0.049,1.15h0.035
				c0.265-0.779,0.911-1.271,1.619-1.271c0.108,0,0.192,0.013,0.288,0.023v0.996c-0.108-0.023-0.216-0.023-0.36-0.023
				c-0.742,0-1.271,0.551-1.414,1.344c-0.023,0.144-0.036,0.322-0.036,0.49v3.096h-1.056V379.742z"/>
			<path fill="#5B5D5C" d="M482.776,379.742c0-0.684-0.014-1.271-0.05-1.811h0.925l0.048,1.15h0.036
				c0.264-0.779,0.911-1.271,1.618-1.271c0.108,0,0.191,0.013,0.288,0.023v0.996c-0.107-0.023-0.216-0.023-0.359-0.023
				c-0.743,0-1.271,0.551-1.415,1.344c-0.023,0.144-0.036,0.322-0.036,0.49v3.096h-1.055V379.742z"/>
			<path fill="#5B5D5C" d="M491.833,380.786c0,2.146-1.499,3.082-2.891,3.082c-1.561,0-2.782-1.151-2.782-2.986
				c0-1.931,1.283-3.069,2.878-3.069C490.705,377.812,491.833,379.021,491.833,380.786z M487.239,380.846
				c0,1.271,0.72,2.231,1.751,2.231c1.008,0,1.763-0.948,1.763-2.255c0-0.983-0.491-2.221-1.738-2.221
				C487.779,378.604,487.239,379.755,487.239,380.846z"/>
			<path fill="#5B5D5C" d="M493.168,375.221h1.055v8.516h-1.055V375.221z"/>
			<path fill="#5B5D5C" d="M496,375.221h1.055v8.516H496V375.221z"/>
			<path fill="#5B5D5C" d="M502.909,382.345c0,0.505,0.023,0.996,0.084,1.392h-0.947l-0.084-0.73h-0.036
				c-0.322,0.455-0.947,0.863-1.774,0.863c-1.176,0-1.774-0.827-1.774-1.667c0-1.403,1.247-2.171,3.49-2.159v-0.119
				c0-0.469-0.132-1.344-1.319-1.332c-0.552,0-1.115,0.156-1.522,0.432l-0.24-0.707c0.479-0.299,1.188-0.504,1.919-0.504
				c1.774,0,2.207,1.211,2.207,2.363v2.169H502.909z M501.89,380.773c-1.15-0.023-2.458,0.181-2.458,1.308
				c0,0.694,0.455,1.008,0.983,1.008c0.768,0,1.259-0.479,1.427-0.972c0.036-0.12,0.048-0.239,0.048-0.336V380.773z"/>
			<path fill="#5B5D5C" d="M509.617,375.221v7.018c0,0.516,0.022,1.104,0.048,1.498h-0.937l-0.048-1.006h-0.036
				c-0.312,0.646-1.008,1.139-1.954,1.139c-1.403,0-2.494-1.188-2.494-2.95c-0.014-1.931,1.198-3.106,2.603-3.106
				c0.899,0,1.487,0.42,1.751,0.875h0.023v-3.465h1.044V375.221z M508.573,380.294c0-0.132-0.013-0.312-0.048-0.442
				c-0.155-0.66-0.731-1.211-1.522-1.211c-1.092,0-1.739,0.959-1.739,2.229c0,1.175,0.587,2.146,1.715,2.146
				c0.709,0,1.355-0.479,1.548-1.26c0.036-0.145,0.048-0.287,0.048-0.455L508.573,380.294L508.573,380.294z"/>
			<path fill="#5B5D5C" d="M516.636,380.786c0,2.146-1.498,3.082-2.891,3.082c-1.561,0-2.781-1.151-2.781-2.986
				c0-1.931,1.283-3.069,2.877-3.069C515.509,377.812,516.636,379.021,516.636,380.786z M512.042,380.846
				c0,1.271,0.721,2.231,1.752,2.231c1.008,0,1.762-0.948,1.762-2.255c0-0.983-0.49-2.221-1.736-2.221
				C512.583,378.604,512.042,379.755,512.042,380.846z"/>
			<path fill="#5B5D5C" d="M520.515,379.826c0-0.743-0.023-1.344-0.049-1.895h0.938l0.061,0.994h0.023
				c0.42-0.707,1.113-1.115,2.062-1.115c1.414,0,2.471,1.188,2.471,2.938c0,2.087-1.283,3.118-2.65,3.118
				c-0.77,0-1.439-0.336-1.787-0.911h-0.023v3.153h-1.043v-6.283H520.515z M521.558,381.374c0,0.155,0.014,0.299,0.049,0.433
				c0.191,0.73,0.828,1.234,1.584,1.234c1.113,0,1.764-0.912,1.764-2.243c0-1.151-0.613-2.146-1.729-2.146
				c-0.721,0-1.402,0.504-1.596,1.295c-0.035,0.132-0.072,0.287-0.072,0.42V381.374L521.558,381.374z"/>
			<path fill="#5B5D5C" d="M532.597,380.786c0,2.146-1.5,3.082-2.891,3.082c-1.561,0-2.783-1.151-2.783-2.986
				c0-1.931,1.283-3.069,2.879-3.069C531.468,377.812,532.597,379.021,532.597,380.786z M528.003,380.846
				c0,1.271,0.719,2.231,1.75,2.231c1.008,0,1.764-0.948,1.764-2.255c0-0.983-0.49-2.221-1.738-2.221
				C528.542,378.604,528.003,379.755,528.003,380.846z"/>
			<path fill="#5B5D5C" d="M533.931,379.742c0-0.684-0.012-1.271-0.049-1.811h0.924l0.049,1.15h0.035
				c0.266-0.779,0.912-1.271,1.619-1.271c0.109,0,0.193,0.013,0.289,0.023v0.996c-0.107-0.023-0.217-0.023-0.359-0.023
				c-0.744,0-1.271,0.551-1.416,1.344c-0.023,0.144-0.035,0.322-0.035,0.49v3.096h-1.057V379.742L533.931,379.742z"/>
			<path fill="#5B5D5C" d="M546.072,383.484c-0.371,0.191-1.15,0.384-2.137,0.384c-2.277,0-3.98-1.438-3.98-4.103
				c0-2.543,1.715-4.246,4.223-4.246c0.994,0,1.645,0.218,1.918,0.36l-0.264,0.853c-0.383-0.192-0.947-0.336-1.619-0.336
				c-1.895,0-3.154,1.211-3.154,3.334c0,1.99,1.141,3.25,3.096,3.25c0.646,0,1.295-0.133,1.715-0.336L546.072,383.484z"/>
			<path fill="#5B5D5C" d="M552.48,380.786c0,2.146-1.5,3.082-2.891,3.082c-1.561,0-2.783-1.151-2.783-2.986
				c0-1.931,1.283-3.069,2.879-3.069C551.353,377.812,552.48,379.021,552.48,380.786z M547.886,380.846
				c0,1.271,0.721,2.231,1.752,2.231c1.008,0,1.764-0.948,1.764-2.255c0-0.983-0.492-2.221-1.738-2.221
				C548.427,378.604,547.886,379.755,547.886,380.846z"/>
			<path fill="#5B5D5C" d="M553.816,379.742c0-0.684-0.014-1.271-0.051-1.811h0.926l0.047,1.15h0.037
				c0.264-0.779,0.91-1.271,1.617-1.271c0.109,0,0.191,0.013,0.289,0.023v0.996c-0.107-0.023-0.217-0.023-0.359-0.023
				c-0.744,0-1.271,0.551-1.416,1.344c-0.023,0.144-0.035,0.322-0.035,0.49v3.096h-1.055V379.742L553.816,379.742z"/>
			<path fill="#5B5D5C" d="M557.787,379.826c0-0.743-0.023-1.344-0.049-1.895h0.936l0.062,0.994h0.021
				c0.42-0.707,1.115-1.115,2.064-1.115c1.414,0,2.471,1.188,2.471,2.938c0,2.087-1.283,3.118-2.652,3.118
				c-0.768,0-1.438-0.336-1.785-0.911h-0.023v3.153h-1.043v-6.283H557.787z M558.83,381.374c0,0.155,0.012,0.299,0.049,0.433
				c0.191,0.73,0.828,1.234,1.582,1.234c1.115,0,1.764-0.912,1.764-2.243c0-1.151-0.611-2.146-1.727-2.146
				c-0.721,0-1.404,0.504-1.596,1.295c-0.035,0.132-0.072,0.287-0.072,0.42V381.374L558.83,381.374z"/>
			<path fill="#5B5D5C" d="M569.869,380.786c0,2.146-1.5,3.082-2.893,3.082c-1.559,0-2.781-1.151-2.781-2.986
				c0-1.931,1.283-3.069,2.879-3.069C568.74,377.812,569.869,379.021,569.869,380.786z M565.275,380.846
				c0,1.271,0.719,2.231,1.75,2.231c1.008,0,1.764-0.948,1.764-2.255c0-0.983-0.492-2.221-1.738-2.221
				C565.814,378.604,565.275,379.755,565.275,380.846z"/>
			<path fill="#5B5D5C" d="M571.203,379.742c0-0.684-0.012-1.271-0.049-1.811h0.924l0.049,1.15h0.035
				c0.264-0.779,0.912-1.271,1.619-1.271c0.107,0,0.191,0.013,0.289,0.023v0.996c-0.109-0.023-0.217-0.023-0.361-0.023
				c-0.742,0-1.27,0.551-1.414,1.344c-0.023,0.144-0.037,0.322-0.037,0.49v3.096h-1.055V379.742L571.203,379.742z"/>
			<path fill="#5B5D5C" d="M579.144,382.345c0,0.505,0.025,0.996,0.084,1.392h-0.945l-0.084-0.73h-0.037
				c-0.324,0.455-0.947,0.863-1.775,0.863c-1.174,0-1.773-0.827-1.773-1.667c0-1.403,1.248-2.171,3.49-2.159v-0.119
				c0-0.469-0.133-1.344-1.318-1.332c-0.553,0-1.115,0.156-1.523,0.432l-0.24-0.707c0.48-0.299,1.188-0.504,1.92-0.504
				c1.773,0,2.205,1.211,2.205,2.363v2.169H579.144z M578.125,380.773c-1.15-0.023-2.457,0.181-2.457,1.308
				c0,0.694,0.455,1.008,0.982,1.008c0.768,0,1.26-0.479,1.428-0.972c0.035-0.12,0.047-0.239,0.047-0.336V380.773L578.125,380.773z"
				/>
			<path fill="#5B5D5C" d="M584.99,383.532c-0.277,0.132-0.889,0.336-1.668,0.336c-1.752,0-2.891-1.188-2.891-2.963
				c0-1.786,1.223-3.095,3.117-3.095c0.623,0,1.176,0.156,1.463,0.312l-0.24,0.803c-0.25-0.132-0.646-0.275-1.223-0.275
				c-1.33,0-2.051,0.996-2.051,2.195c0,1.344,0.863,2.17,2.016,2.17c0.6,0,0.994-0.144,1.295-0.274L584.99,383.532z"/>
			<path fill="#5B5D5C" d="M587.402,376.3c0,0.36-0.252,0.648-0.672,0.648c-0.385,0-0.637-0.288-0.637-0.648
				c0-0.358,0.266-0.659,0.66-0.659C587.138,375.641,587.402,375.929,587.402,376.3z M586.228,383.736v-5.805h1.055v5.805H586.228z"
				/>
			<path fill="#5B5D5C" d="M594.289,380.786c0,2.146-1.5,3.082-2.891,3.082c-1.561,0-2.783-1.151-2.783-2.986
				c0-1.931,1.283-3.069,2.879-3.069C593.16,377.812,594.289,379.021,594.289,380.786z M589.695,380.846
				c0,1.271,0.719,2.231,1.75,2.231c1.008,0,1.764-0.948,1.764-2.255c0-0.983-0.492-2.221-1.738-2.221
				C590.234,378.604,589.695,379.755,589.695,380.846z M593.029,375.425l-1.463,1.716h-0.744l1.043-1.716H593.029z"/>
			<path fill="#5B5D5C" d="M595.623,379.503c0-0.61-0.012-1.092-0.049-1.571h0.936l0.062,0.961h0.021
				c0.289-0.541,0.961-1.08,1.92-1.08c0.805,0,2.051,0.479,2.051,2.471v3.453h-1.055v-3.346c0-0.937-0.348-1.716-1.344-1.716
				c-0.686,0-1.225,0.492-1.416,1.08c-0.047,0.132-0.072,0.312-0.072,0.491v3.49h-1.055V379.503z"/>
			<path fill="#5B5D5C" d="M606.169,381.193l-0.84,2.543h-1.078l2.758-8.084h1.248l2.758,8.084H609.9l-0.863-2.543H606.169z
				 M608.832,380.378l-0.803-2.326c-0.182-0.528-0.301-1.008-0.42-1.476h-0.023c-0.121,0.468-0.24,0.972-0.408,1.464l-0.791,2.338
				H608.832z"/>
			<path fill="#5B5D5C" d="M613.345,383.736l-2.648-8.084h1.139l1.26,3.981c0.336,1.091,0.635,2.075,0.863,3.022h0.023
				c0.229-0.937,0.553-1.955,0.924-3.012l1.367-3.992h1.115l-2.891,8.082h-1.152V383.736z"/>
			<path fill="#5B5D5C" d="M618.267,375.761c0.527-0.096,1.297-0.168,2.002-0.168c1.117,0,1.85,0.216,2.34,0.66
				c0.396,0.358,0.637,0.911,0.637,1.547c0,1.056-0.672,1.763-1.512,2.052v0.035c0.611,0.217,0.982,0.791,1.176,1.631
				c0.264,1.129,0.455,1.907,0.623,2.219h-1.078c-0.133-0.238-0.312-0.924-0.529-1.93c-0.238-1.115-0.684-1.535-1.631-1.572h-0.982
				v3.502h-1.045V375.761L618.267,375.761z M619.31,379.441h1.068c1.115,0,1.822-0.61,1.822-1.534c0-1.043-0.756-1.499-1.859-1.499
				c-0.504,0-0.852,0.035-1.031,0.084V379.441z"/>
			<path fill="#5B5D5C" d="M628.896,379.946h-3.131v2.913h3.502v0.877h-4.557v-8.084h4.377v0.875h-3.322v2.556h3.131V379.946z"/>
			<path fill="#5B5D5C" d="M629.859,385.225c0.264-0.721,0.588-2.004,0.719-2.88l1.176-0.118c-0.287,1.02-0.814,2.351-1.15,2.914
				L629.859,385.225z"/>
			<path fill="#5B5D5C" d="M641.244,383.484c-0.373,0.191-1.152,0.384-2.135,0.384c-2.279,0-3.982-1.438-3.982-4.103
				c0-2.543,1.715-4.246,4.221-4.246c0.996,0,1.645,0.218,1.92,0.36l-0.264,0.853c-0.385-0.192-0.947-0.336-1.619-0.336
				c-1.895,0-3.154,1.211-3.154,3.334c0,1.99,1.141,3.25,3.096,3.25c0.646,0,1.295-0.133,1.715-0.336L641.244,383.484z"/>
			<path fill="#5B5D5C" d="M647.652,380.786c0,2.146-1.5,3.082-2.893,3.082c-1.559,0-2.781-1.151-2.781-2.986
				c0-1.931,1.283-3.069,2.879-3.069C646.523,377.812,647.652,379.021,647.652,380.786z M643.058,380.846
				c0,1.271,0.721,2.231,1.75,2.231c1.01,0,1.764-0.948,1.764-2.255c0-0.983-0.49-2.221-1.738-2.221
				C643.597,378.604,643.058,379.755,643.058,380.846z"/>
			<path fill="#5B5D5C" d="M648.986,379.742c0-0.684-0.014-1.271-0.049-1.811h0.924l0.049,1.15h0.035
				c0.264-0.779,0.912-1.271,1.619-1.271c0.107,0,0.191,0.013,0.287,0.023v0.996c-0.107-0.023-0.215-0.023-0.359-0.023
				c-0.742,0-1.271,0.551-1.414,1.344c-0.023,0.144-0.037,0.322-0.037,0.49v3.096h-1.055V379.742L648.986,379.742z"/>
			<path fill="#5B5D5C" d="M652.958,379.826c0-0.743-0.023-1.344-0.049-1.895h0.936l0.062,0.994h0.021
				c0.42-0.707,1.115-1.115,2.064-1.115c1.414,0,2.471,1.188,2.471,2.938c0,2.087-1.283,3.118-2.652,3.118
				c-0.768,0-1.438-0.336-1.785-0.911h-0.023v3.153h-1.043v-6.283H652.958z M654.001,381.374c0,0.155,0.012,0.299,0.049,0.433
				c0.191,0.73,0.828,1.234,1.582,1.234c1.115,0,1.764-0.912,1.764-2.243c0-1.151-0.611-2.146-1.727-2.146
				c-0.721,0-1.404,0.504-1.596,1.295c-0.035,0.132-0.072,0.287-0.072,0.42V381.374L654.001,381.374z"/>
			<path fill="#5B5D5C" d="M665.041,380.786c0,2.146-1.5,3.082-2.891,3.082c-1.561,0-2.783-1.151-2.783-2.986
				c0-1.931,1.283-3.069,2.879-3.069C663.912,377.812,665.041,379.021,665.041,380.786z M660.447,380.846
				c0,1.271,0.719,2.231,1.75,2.231c1.008,0,1.764-0.948,1.764-2.255c0-0.983-0.492-2.221-1.738-2.221
				C660.986,378.604,660.447,379.755,660.447,380.846z"/>
			<path fill="#5B5D5C" d="M666.375,379.742c0-0.684-0.012-1.271-0.049-1.811h0.924l0.049,1.15h0.035
				c0.264-0.779,0.912-1.271,1.619-1.271c0.107,0,0.191,0.013,0.289,0.023v0.996c-0.109-0.023-0.217-0.023-0.361-0.023
				c-0.742,0-1.27,0.551-1.414,1.344c-0.023,0.144-0.037,0.322-0.037,0.49v3.096h-1.055V379.742L666.375,379.742z"/>
			<path fill="#5B5D5C" d="M674.316,382.345c0,0.505,0.023,0.996,0.084,1.392h-0.947l-0.084-0.73h-0.037
				c-0.322,0.455-0.947,0.863-1.775,0.863c-1.174,0-1.773-0.827-1.773-1.667c0-1.403,1.248-2.171,3.49-2.159v-0.119
				c0-0.469-0.133-1.344-1.318-1.332c-0.553,0-1.115,0.156-1.523,0.432l-0.24-0.707c0.48-0.299,1.188-0.504,1.92-0.504
				c1.773,0,2.207,1.211,2.207,2.363v2.169H674.316z M673.296,380.773c-1.152-0.023-2.459,0.181-2.459,1.308
				c0,0.694,0.455,1.008,0.984,1.008c0.768,0,1.258-0.479,1.426-0.972c0.037-0.12,0.049-0.239,0.049-0.336V380.773L673.296,380.773z
				"/>
			<path fill="#5B5D5C" d="M680.16,383.532c-0.275,0.132-0.889,0.336-1.668,0.336c-1.75,0-2.891-1.188-2.891-2.963
				c0-1.786,1.225-3.095,3.119-3.095c0.623,0,1.174,0.156,1.463,0.312l-0.238,0.803c-0.254-0.132-0.648-0.275-1.225-0.275
				c-1.332,0-2.051,0.996-2.051,2.195c0,1.344,0.863,2.17,2.014,2.17c0.602,0,0.996-0.144,1.295-0.274L680.16,383.532z"/>
			<path fill="#5B5D5C" d="M682.574,376.3c0,0.36-0.252,0.648-0.672,0.648c-0.385,0-0.637-0.288-0.637-0.648
				c0-0.358,0.266-0.659,0.66-0.659C682.31,375.641,682.574,375.929,682.574,376.3z M681.398,383.736v-5.805h1.055v5.805H681.398z"
				/>
			<path fill="#5B5D5C" d="M689.458,380.786c0,2.146-1.498,3.082-2.891,3.082c-1.561,0-2.781-1.151-2.781-2.986
				c0-1.931,1.283-3.069,2.877-3.069C688.332,377.812,689.458,379.021,689.458,380.786z M684.865,380.846
				c0,1.271,0.721,2.231,1.752,2.231c1.008,0,1.762-0.948,1.762-2.255c0-0.983-0.49-2.221-1.738-2.221
				C685.406,378.604,684.865,379.755,684.865,380.846z M688.199,375.425l-1.463,1.716h-0.744l1.045-1.716H688.199z"/>
			<path fill="#5B5D5C" d="M690.794,379.503c0-0.61-0.014-1.092-0.049-1.571h0.936l0.061,0.961h0.023
				c0.287-0.541,0.959-1.08,1.918-1.08c0.805,0,2.053,0.479,2.053,2.471v3.453h-1.057v-3.346c0-0.937-0.348-1.716-1.344-1.716
				c-0.684,0-1.223,0.492-1.414,1.08c-0.049,0.132-0.072,0.312-0.072,0.491v3.49h-1.055V379.503z"/>
			<path fill="#5B5D5C" d="M701.376,383.736l-2.65-8.084h1.141l1.26,3.981c0.336,1.091,0.635,2.075,0.863,3.022h0.023
				c0.229-0.937,0.551-1.955,0.924-3.012l1.367-3.992h1.115l-2.891,8.082h-1.152V383.736z"/>
			<path fill="#5B5D5C" d="M708.216,375.425l-1.463,1.716h-0.744l1.057-1.716H708.216z M706.07,383.736v-5.805h1.055v5.805H706.07z"
				/>
			<path fill="#5B5D5C" d="M708.878,379.503c0-0.61-0.014-1.092-0.049-1.571h0.936l0.061,0.961h0.023
				c0.287-0.541,0.959-1.08,1.918-1.08c0.805,0,2.053,0.479,2.053,2.471v3.453h-1.057v-3.346c0-0.937-0.348-1.716-1.344-1.716
				c-0.684,0-1.223,0.492-1.414,1.08c-0.049,0.132-0.072,0.312-0.072,0.491v3.49h-1.055V379.503z"/>
			<path fill="#5B5D5C" d="M719.675,383.532c-0.275,0.132-0.887,0.336-1.668,0.336c-1.75,0-2.889-1.188-2.889-2.963
				c0-1.786,1.223-3.095,3.117-3.095c0.623,0,1.176,0.156,1.463,0.312l-0.238,0.803c-0.252-0.132-0.648-0.275-1.225-0.275
				c-1.33,0-2.051,0.996-2.051,2.195c0,1.344,0.863,2.17,2.016,2.17c0.6,0,0.994-0.144,1.295-0.274L719.675,383.532z"/>
			<path fill="#5B5D5C" d="M725.771,382.143c0,0.61,0.014,1.139,0.049,1.594h-0.936l-0.061-0.946H724.8
				c-0.266,0.468-0.889,1.079-1.92,1.079c-0.912,0-2.002-0.516-2.002-2.543v-3.395h1.055v3.202c0,1.104,0.35,1.859,1.295,1.859
				c0.707,0,1.199-0.492,1.393-0.972c0.061-0.145,0.096-0.336,0.096-0.541v-3.549h1.055V382.143L725.771,382.143z"/>
			<path fill="#5B5D5C" d="M727.527,375.221h1.055v8.516h-1.055V375.221z"/>
			<path fill="#5B5D5C" d="M735.611,380.786c0,2.146-1.498,3.082-2.891,3.082c-1.561,0-2.781-1.151-2.781-2.986
				c0-1.931,1.281-3.069,2.877-3.069C734.484,377.812,735.611,379.021,735.611,380.786z M731.017,380.846
				c0,1.271,0.721,2.231,1.752,2.231c1.008,0,1.764-0.948,1.764-2.255c0-0.983-0.492-2.221-1.738-2.221
				C731.558,378.604,731.017,379.755,731.017,380.846z"/>
			<path fill="#5B5D5C" d="M736.802,382.669c0.324,0.19,0.875,0.408,1.402,0.408c0.756,0,1.115-0.372,1.115-0.864
				c0-0.503-0.301-0.768-1.066-1.056c-1.057-0.384-1.547-0.947-1.547-1.644c0-0.936,0.768-1.703,2.002-1.703
				c0.588,0,1.104,0.156,1.416,0.359l-0.252,0.768c-0.229-0.144-0.648-0.348-1.189-0.348c-0.623,0-0.959,0.36-0.959,0.792
				c0,0.479,0.336,0.695,1.092,0.995c0.996,0.372,1.523,0.876,1.523,1.739c0,1.03-0.805,1.751-2.16,1.751
				c-0.635,0-1.223-0.168-1.631-0.408L736.802,382.669z"/>
			<path fill="#5B5D5C" d="M741.314,383.111c0-0.432,0.301-0.754,0.721-0.754c0.418,0,0.707,0.312,0.707,0.754
				c0,0.433-0.289,0.757-0.732,0.757C741.601,383.868,741.314,383.544,741.314,383.111z"/>
		</g>
	</g>
	<g>
		<g>
			<g>
				<rect x="287.854" y="9.965" fill="#99A72D" width="34.451" height="43.334"/>
			</g>
			<path fill="#FFFFFF" d="M311.452,17.898c-0.124,6.234-0.187,12.436-0.187,18.604c0,3.09,0.019,6.174,0.054,9.251l-6.591,0.257
				c-0.124-7.937-0.274-15.287-0.451-22.049c-1.488,0.225-3.509,0.779-6.06,1.664l-1.276-4.338l7.389-3.487L311.452,17.898z"/>
		</g>
		<g>
			<g>
				<rect x="332.083" y="9.965" fill="#99A72D" width="34.451" height="43.334"/>
			</g>
			<path fill="#FFFFFF" d="M339.582,27.091c-0.089-0.792-0.133-1.525-0.133-2.198c0-2.365,0.575-4.068,1.728-5.111
				c1.471-1.334,3.35-2.133,5.634-2.397c0.814-0.093,1.612-0.139,2.393-0.139c1.398,0,2.746,0.146,4.04,0.436
				c2.02,0.463,3.543,1.374,4.57,2.733c0.834,1.137,1.25,2.59,1.25,4.359c0,0.344-0.011,0.707-0.027,1.09
				c-0.213,2.271-1.129,4.361-2.75,6.27c-1.621,1.909-4.425,4.639-8.412,8.191l11.615,0.061l-0.08,4.973
				c-5.086,0.171-11.642,0.257-19.667,0.257l-0.611-5.408c4.819-3.884,8.256-6.868,10.312-8.954
				c1.878-1.916,2.816-3.797,2.816-5.646v-0.496c-0.194-1.98-1.312-2.971-3.349-2.971h-0.106c-1.771,0.039-2.656,1.241-2.656,3.605
				c0,0.449,0.025,0.931,0.078,1.445L339.582,27.091z"/>
		</g>
		<g>
			<g>
				<rect x="376.312" y="9.965" fill="#99A72D" width="34.45" height="43.334"/>
			</g>
			<path fill="#FFFFFF" d="M383.73,26.893c-0.07-0.699-0.106-1.354-0.106-1.961c0-2.1,0.426-3.718,1.276-4.854
				c1.08-1.453,2.853-2.352,5.314-2.694c1.204-0.171,2.355-0.258,3.454-0.258c1.116,0,2.18,0.093,3.189,0.277
				c1.967,0.356,3.539,1.156,4.718,2.397c1.178,1.241,1.811,2.945,1.898,5.111v0.594c0,1.876-0.39,3.242-1.169,4.102
				c-0.868,0.964-2.295,1.69-4.277,2.179c1.646,0.185,2.883,0.631,3.707,1.337c0.823,0.707,1.396,1.654,1.714,2.844
				c0.177,0.66,0.266,1.387,0.266,2.179c0,0.647-0.062,1.347-0.186,2.101c-0.267,1.65-1.165,3.076-2.697,4.278
				c-1.533,1.202-3.895,1.829-7.083,1.882h-0.425c-2.995,0-5.387-0.58-7.176-1.743c-1.86-1.188-2.791-3.744-2.791-7.667v-0.119
				l6.884-0.297c-0.019,0.225-0.026,0.443-0.026,0.654c0,2.773,0.975,4.207,2.923,4.299c0.143,0.014,0.274,0.02,0.398,0.02
				c1.843,0,2.95-0.727,3.322-2.179c0.105-0.409,0.158-0.8,0.158-1.169c0-1.043-0.397-1.948-1.194-2.715
				c-1.1-1.029-2.915-1.545-5.448-1.545l-0.319-3.764c0.303,0.014,0.585,0.02,0.852,0.02c2.215,0,3.738-0.475,4.57-1.426
				c0.779-0.885,1.17-2.034,1.17-3.447c0-0.277-0.019-0.562-0.054-0.852c-0.159-1.691-1.179-2.536-3.057-2.536h-0.345
				c-1.86,0.093-2.791,1.479-2.791,4.16c0,0.317,0.009,0.653,0.025,1.011L383.73,26.893z"/>
		</g>
		<g>
			<g>
				<rect x="420.54" y="9.965" fill="#99A72D" width="34.451" height="43.334"/>
			</g>
			<path fill="#FFFFFF" d="M427.438,37.293l-0.558-4.734c3.047-4.965,6.573-10.104,10.577-15.412l8.558,0.355l-0.105,15.295
				l3.747,0.059v4.735h-3.642v8.341l-6.432-0.179l0.08-8.261L427.438,37.293z M439.771,32.855l0.078-10.222
				c-1.948,3.354-4.021,6.729-6.219,10.123L439.771,32.855z"/>
		</g>
		<g>
			<g>
				<rect x="464.77" y="9.965" fill="#99A72D" width="34.45" height="43.334"/>
			</g>
			<path fill="#FFFFFF" d="M471.815,37.135l6.245-0.396c0,2.893,1.222,4.34,3.666,4.34c2.429,0,3.748-0.865,3.961-2.596
				c0.089-0.806,0.134-1.617,0.134-2.438c0-0.938-0.062-1.881-0.187-2.832c-0.229-1.73-1.188-2.596-2.871-2.596h-0.16
				c-1.807,0.066-3.116,1.116-3.934,3.15l-6.457-0.119l0.744-16.424l17.859-0.237l0.08,4.814L479.07,21.98l-0.479,6.734
				c0.814-1.756,2.293-2.76,4.438-3.011c0.514-0.065,1.02-0.099,1.516-0.099c1.541,0,2.959,0.304,4.252,0.911
				c1.701,0.792,2.764,2.681,3.189,5.666c0.141,1.017,0.211,2.015,0.211,2.991c0,1.85-0.267,3.6-0.797,5.25
				c-0.814,2.523-2.408,4.088-4.783,4.695c-1.685,0.436-3.375,0.654-5.076,0.654c-0.691,0-1.391-0.041-2.1-0.119
				c-2.41-0.251-4.314-1.023-5.714-2.318c-1.295-1.176-1.94-2.991-1.94-5.447C471.788,37.65,471.798,37.399,471.815,37.135z"/>
		</g>
		<g>
			<g>
				<rect x="508.997" y="9.965" fill="#99A72D" width="34.452" height="43.334"/>
			</g>
			<path fill="#FFFFFF" d="M522.542,32.004c1.381-1.941,3.383-2.912,6.006-2.912h0.053c2.641,0.014,4.65,0.736,6.033,2.17
				c1.381,1.433,2.117,3.08,2.205,4.942v0.495c0,1.703-0.389,3.4-1.168,5.092c-0.852,1.85-2.188,3.077-4.014,3.685
				c-1.328,0.462-2.826,0.693-4.492,0.693c-0.604,0-1.23-0.032-1.887-0.099c-2.428-0.225-4.367-1.057-5.82-2.496
				c-1.453-1.439-2.498-3.355-3.135-5.746c-0.48-1.756-0.719-3.725-0.719-5.903c0-0.766,0.035-1.552,0.105-2.357
				c0.213-3.116,0.744-5.655,1.596-7.617c0.85-1.962,2.115-3.358,3.799-4.19c1.648-0.805,3.525-1.208,5.637-1.208h0.158
				c2.16,0.026,3.99,0.548,5.488,1.565c1.496,1.017,2.467,2.403,2.91,4.16c0.283,1.162,0.424,2.305,0.424,3.427
				c0,0.595-0.035,1.176-0.105,1.743h-5.953c0.035-0.462,0.055-0.891,0.055-1.287c0-2.47-0.611-3.824-1.834-4.062
				c-0.32-0.053-0.621-0.079-0.904-0.079c-1.027,0-1.887,0.39-2.578,1.169c-0.902,1.004-1.461,2.391-1.674,4.16
				c-0.16,1.202-0.238,2.305-0.238,3.309C522.488,31.133,522.505,31.582,522.542,32.004z M523.074,35.768
				c0.035,1.744,0.34,3.049,0.916,3.913c0.576,0.865,1.432,1.364,2.564,1.496c0.178,0.026,0.363,0.04,0.559,0.04
				c0.887,0,1.674-0.271,2.365-0.812c0.762-0.595,1.143-1.664,1.143-3.209V36.8c-0.07-1.757-0.895-2.787-2.471-3.091
				c-0.248-0.04-0.496-0.06-0.744-0.06C526.041,33.648,524.597,34.355,523.074,35.768z"/>
		</g>
		<g>
			<g>
				<rect x="553.226" y="9.965" fill="#99A72D" width="34.451" height="43.334"/>
			</g>
			<path fill="#FFFFFF" d="M561.044,22.693l0.266-4.953c6.432-0.079,12.613-0.139,18.551-0.178v5.031
				c-4.928,7.528-7.777,14.997-8.559,22.406l-6.299-0.535c0.779-7.172,3.34-14.448,7.682-21.831L561.044,22.693z"/>
		</g>
		<g>
			<g>
				<rect x="597.455" y="9.965" fill="#99A72D" width="34.451" height="43.334"/>
			</g>
			<path fill="#FFFFFF" d="M620.214,31.984c2.408,0.806,3.906,1.969,4.49,3.486c0.408,1.057,0.611,2.141,0.611,3.25
				c0,0.502-0.045,1.01-0.133,1.525c-0.268,1.65-1.166,3.076-2.697,4.278c-1.533,1.202-3.895,1.829-7.082,1.882h-0.428
				c-2.992,0-5.385-0.58-7.174-1.743c-1.879-1.201-2.854-2.898-2.924-5.091c-0.018-0.146-0.027-0.291-0.027-0.436
				c0-1.994,0.516-3.586,1.541-4.775c1.1-1.268,2.455-2.066,4.066-2.396c-1.188-0.357-2.391-1.066-3.613-2.13
				s-1.852-2.592-1.887-4.587V25.07c0-1.902,0.531-3.566,1.594-4.992c1.08-1.453,2.854-2.352,5.314-2.694
				c1.205-0.171,2.355-0.258,3.455-0.258c1.117,0,2.18,0.093,3.189,0.277c1.967,0.356,3.539,1.156,4.717,2.397
				c1.18,1.241,1.812,2.879,1.9,4.913v0.574c0,1.771-0.391,3.144-1.17,4.12C623.093,30.506,621.843,31.363,620.214,31.984z
				 M615.191,33.985c-1.809,0.713-2.871,1.559-3.189,2.536c-0.178,0.555-0.266,1.09-0.266,1.604c0,0.396,0.053,0.78,0.158,1.15
				c0.248,0.871,0.719,1.492,1.408,1.861c0.496,0.277,1.072,0.416,1.729,0.416c0.248,0,0.514-0.02,0.797-0.059
				c0.992-0.133,1.715-0.453,2.166-0.961c0.453-0.509,0.713-1.212,0.785-2.11c0.018-0.105,0.025-0.218,0.025-0.337
				c0-0.766-0.213-1.492-0.639-2.18C617.671,35.114,616.679,34.475,615.191,33.985z M615.138,28.992
				c1.842-0.594,2.914-1.551,3.215-2.872c0.123-0.501,0.188-0.964,0.188-1.387c0-0.66-0.15-1.215-0.453-1.664
				c-0.477-0.726-1.318-1.116-2.523-1.169h-0.238c-1.1,0-1.959,0.344-2.578,1.03c-0.496,0.555-0.744,1.269-0.744,2.14
				c0,0.316,0.035,0.66,0.105,1.03C612.355,27.461,613.365,28.426,615.138,28.992z"/>
		</g>
		<g>
			<g>
				<rect x="641.683" y="9.965" fill="#99A72D" width="34.451" height="43.334"/>
			</g>
			<path fill="#FFFFFF" d="M662.722,32.697c-1.383,1.941-3.385,2.912-6.006,2.912c-0.02,0-0.025-0.006-0.025-0.02
				c-2.658,0-4.725-0.717-6.193-2.149c-1.471-1.433-2.242-3.417-2.312-5.953c-0.018-0.185-0.025-0.376-0.025-0.575
				c0-2.284,0.434-4.278,1.303-5.982c0.939-1.849,2.408-3.084,4.412-3.705c1.471-0.448,3.002-0.673,4.598-0.673
				c0.584,0,1.178,0.033,1.779,0.099c2.25,0.225,4.102,1.057,5.555,2.496s2.498,3.349,3.137,5.726
				c0.479,1.771,0.719,3.745,0.719,5.924c0,0.767-0.027,1.545-0.08,2.337c-0.23,3.131-0.771,5.676-1.621,7.638
				s-2.117,3.352-3.801,4.171c-1.648,0.818-3.605,1.228-5.873,1.228c-0.053,0-0.105-0.007-0.16-0.021
				c-2.355-0.012-4.367-0.66-6.033-1.941c-1.629-1.24-2.443-3.459-2.443-6.656v-0.297h5.953c-0.035,0.305-0.055,0.594-0.055,0.871
				c0,1.467,0.533,2.424,1.596,2.873c0.514,0.238,1.027,0.357,1.541,0.357c0.709,0,1.4-0.219,2.072-0.654
				c1.152-0.727,1.799-1.915,1.941-3.566c0.068-0.911,0.105-1.77,0.105-2.575C662.802,33.899,662.775,33.279,662.722,32.697z
				 M662.457,28.934c0.018-0.449,0.025-0.871,0.025-1.268c0-1.889-0.266-3.303-0.797-4.24c-0.674-1.122-1.568-1.75-2.686-1.882
				c-0.158-0.013-0.309-0.021-0.451-0.021c-0.957,0-1.834,0.364-2.631,1.09c-0.852,0.779-1.275,2.187-1.275,4.221v0.475
				c0.07,2.285,1.08,3.507,3.029,3.666c0.178,0.025,0.363,0.039,0.559,0.039C659.914,31.014,661.322,30.32,662.457,28.934z"/>
		</g>
		<g>
			<g>
				<rect x="685.912" y="9.965" fill="#99A72D" width="44.666" height="43.334"/>
			</g>
			<path fill="#FFFFFF" d="M702.798,17.898c-0.123,6.234-0.186,12.436-0.186,18.604c0,3.09,0.018,6.174,0.053,9.251l-6.59,0.257
				c-0.125-7.937-0.275-15.287-0.453-22.049c-1.488,0.225-3.508,0.779-6.061,1.664l-1.273-4.338l7.389-3.487L702.798,17.898z"/>
			<path fill="#FFFFFF" d="M716.591,17.344c6.998,0,10.498,4.755,10.498,14.264c0,9.523-3.746,14.284-11.242,14.284
				c-7.494,0-11.24-4.933-11.24-14.799C704.607,21.928,708.601,17.344,716.591,17.344z M711.808,31.746
				c-0.018,0.357-0.025,0.701-0.025,1.031c0,5.217,1.443,7.824,4.332,7.824c3.047,0,4.57-2.951,4.57-8.855
				c0-5.903-1.426-8.855-4.277-8.855C713.552,22.891,712.021,25.843,711.808,31.746z"/>
		</g>
	</g>
</g>
</svg>
