<?xml version="1.0" encoding="utf-8"?>
<!-- Generator: Adobe Illustrator 24.2.3, SVG Export Plug-In . SVG Version: 6.00 Build 0)  -->
<svg version="1.1" id="Capa_1" xmlns="http://www.w3.org/2000/svg" xmlns:xlink="http://www.w3.org/1999/xlink" x="0px" y="0px"
	 viewBox="0 0 1018.4 391.4" style="enable-background:new 0 0 1018.4 391.4;" xml:space="preserve">
<style type="text/css">
	.st0{fill:#D8904B;}
	.st1{fill:#5B5D5C;}
	.st2{fill:#C07E46;}
	.st3{fill:#FFFFFF;}
</style>
<polygon class="st0" points="1005.2,391.4 0,391.4 13.2,0 1018.4,0 "/>
<g>
	<g>
		<path class="st1" d="M116.2,361.2h-2.5v-0.9h6v0.9h-2.5v7.2h-1.1L116.2,361.2L116.2,361.2z"/>
		<path class="st1" d="M125,365.5c0,2.1-1.5,3.1-2.9,3.1c-1.6,0-2.8-1.2-2.8-3c0-1.9,1.3-3.1,2.9-3.1
			C123.9,362.5,125,363.7,125,365.5z M120.4,365.5c0,1.3,0.7,2.2,1.8,2.2c1,0,1.8-0.9,1.8-2.3c0-1-0.5-2.2-1.7-2.2
			C121,363.3,120.4,364.4,120.4,365.5z"/>
		<path class="st1" d="M126.4,364.2c0-0.6,0-1.1,0-1.6h0.9l0,0.9h0c0.3-0.6,0.9-1.1,1.8-1.1c0.8,0,1.4,0.5,1.6,1.2h0
			c0.2-0.3,0.4-0.6,0.7-0.8c0.3-0.3,0.7-0.4,1.3-0.4c0.8,0,1.9,0.5,1.9,2.5v3.4h-1v-3.3c0-1.1-0.4-1.8-1.3-1.8
			c-0.6,0-1.1,0.4-1.3,0.9c0,0.2-0.1,0.3-0.1,0.5v3.6h-1V365c0-0.9-0.4-1.6-1.2-1.6c-0.6,0-1.1,0.5-1.3,1.1
			c-0.1,0.1-0.1,0.3-0.1,0.5v3.5h-1L126.4,364.2L126.4,364.2z"/>
		<path class="st1" d="M140.4,367c0,0.5,0,1,0.1,1.4h-0.9l-0.1-0.7h0c-0.3,0.5-0.9,0.9-1.8,0.9c-1.2,0-1.8-0.8-1.8-1.7
			c0-1.4,1.2-2.2,3.5-2.2v-0.1c0-0.5-0.1-1.3-1.3-1.3c-0.6,0-1.1,0.2-1.5,0.4l-0.2-0.7c0.5-0.3,1.2-0.5,1.9-0.5
			c1.8,0,2.2,1.2,2.2,2.4L140.4,367L140.4,367z M139.4,365.5c-1.2,0-2.5,0.2-2.5,1.3c0,0.7,0.5,1,1,1c0.8,0,1.3-0.5,1.4-1
			c0-0.1,0-0.2,0-0.3L139.4,365.5L139.4,365.5z"/>
		<path class="st1" d="M147.1,359.9v7c0,0.5,0,1.1,0,1.5h-0.9l0-1h0c-0.3,0.6-1,1.1-2,1.1c-1.4,0-2.5-1.2-2.5-3
			c0-1.9,1.2-3.1,2.6-3.1c0.9,0,1.5,0.4,1.8,0.9h0v-3.5L147.1,359.9L147.1,359.9z M146.1,365c0-0.1,0-0.3,0-0.4
			c-0.2-0.7-0.7-1.2-1.5-1.2c-1.1,0-1.7,1-1.7,2.2c0,1.2,0.6,2.1,1.7,2.1c0.7,0,1.4-0.5,1.5-1.3c0-0.1,0-0.3,0-0.5L146.1,365
			L146.1,365z"/>
		<path class="st1" d="M154.2,365.5c0,2.1-1.5,3.1-2.9,3.1c-1.6,0-2.8-1.2-2.8-3c0-1.9,1.3-3.1,2.9-3.1
			C153,362.5,154.2,363.7,154.2,365.5z M149.6,365.5c0,1.3,0.7,2.2,1.8,2.2c1,0,1.8-0.9,1.8-2.3c0-1-0.5-2.2-1.7-2.2
			C150.1,363.3,149.6,364.4,149.6,365.5z"/>
		<path class="st1" d="M163.1,359.9v7c0,0.5,0,1.1,0,1.5h-0.9l0-1h0c-0.3,0.6-1,1.1-2,1.1c-1.4,0-2.5-1.2-2.5-3
			c0-1.9,1.2-3.1,2.6-3.1c0.9,0,1.5,0.4,1.8,0.9h0v-3.5L163.1,359.9L163.1,359.9z M162,365c0-0.1,0-0.3,0-0.4
			c-0.2-0.7-0.7-1.2-1.5-1.2c-1.1,0-1.7,1-1.7,2.2c0,1.2,0.6,2.1,1.7,2.1c0.7,0,1.4-0.5,1.5-1.3c0-0.1,0-0.3,0-0.5L162,365L162,365z
			"/>
		<path class="st1" d="M165.4,365.7c0,1.4,0.9,2,2,2c0.8,0,1.2-0.1,1.6-0.3l0.2,0.8c-0.4,0.2-1,0.4-1.9,0.4c-1.8,0-2.9-1.2-2.9-2.9
			s1-3.1,2.7-3.1c1.9,0,2.4,1.7,2.4,2.7c0,0.2,0,0.4,0,0.5L165.4,365.7L165.4,365.7z M168.5,365c0-0.7-0.3-1.7-1.5-1.7
			c-1.1,0-1.5,1-1.6,1.7H168.5z"/>
		<path class="st1" d="M170.6,363.6c0-0.4,0.3-0.8,0.7-0.8c0.4,0,0.7,0.3,0.7,0.8c0,0.4-0.3,0.7-0.7,0.7
			C170.9,364.3,170.6,364,170.6,363.6z M170.6,367.8c0-0.4,0.3-0.8,0.7-0.8c0.4,0,0.7,0.3,0.7,0.8c0,0.4-0.3,0.7-0.7,0.7
			C170.9,368.6,170.6,368.2,170.6,367.8z"/>
		<path class="st1" d="M179.5,360.3v4.8c0,1.8,0.8,2.6,1.9,2.6c1.2,0,2-0.8,2-2.6v-4.8h1.1v4.7c0,2.5-1.3,3.5-3.1,3.5
			c-1.7,0-2.9-0.9-2.9-3.5v-4.8L179.5,360.3L179.5,360.3z"/>
		<path class="st1" d="M186.2,364.2c0-0.6,0-1.1,0-1.6h0.9l0.1,1h0c0.3-0.5,1-1.1,1.9-1.1c0.8,0,2.1,0.5,2.1,2.5v3.5H190v-3.3
			c0-0.9-0.3-1.7-1.3-1.7c-0.7,0-1.2,0.5-1.4,1.1c0,0.1-0.1,0.3-0.1,0.5v3.5h-1.1L186.2,364.2L186.2,364.2z"/>
		<path class="st1" d="M194,361c0,0.4-0.3,0.6-0.7,0.6c-0.4,0-0.6-0.3-0.6-0.6s0.3-0.7,0.7-0.7C193.7,360.3,194,360.6,194,361z
			 M192.8,368.4v-5.8h1.1v5.8H192.8z"/>
		<path class="st1" d="M196,362.6l1.1,3.2c0.2,0.5,0.3,1,0.5,1.5h0c0.1-0.5,0.3-1,0.5-1.5l1.1-3.2h1.1l-2.3,5.8h-1l-2.2-5.8H196z"/>
		<path class="st1" d="M201.9,365.7c0,1.4,0.9,2,2,2c0.8,0,1.2-0.1,1.6-0.3l0.2,0.8c-0.4,0.2-1,0.4-1.9,0.4c-1.8,0-2.9-1.2-2.9-2.9
			s1-3.1,2.7-3.1c1.9,0,2.4,1.7,2.4,2.7c0,0.2,0,0.4,0,0.5L201.9,365.7L201.9,365.7z M205,365c0-0.7-0.3-1.7-1.5-1.7
			c-1.1,0-1.5,1-1.6,1.7H205z"/>
		<path class="st1" d="M207.3,364.4c0-0.7,0-1.3,0-1.8h0.9l0,1.2h0c0.3-0.8,0.9-1.3,1.6-1.3c0.1,0,0.2,0,0.3,0v1c-0.1,0-0.2,0-0.4,0
			c-0.7,0-1.3,0.6-1.4,1.3c0,0.1,0,0.3,0,0.5v3.1h-1.1L207.3,364.4L207.3,364.4z"/>
		<path class="st1" d="M211.1,367.4c0.3,0.2,0.9,0.4,1.4,0.4c0.8,0,1.1-0.4,1.1-0.9c0-0.5-0.3-0.8-1.1-1.1c-1.1-0.4-1.5-0.9-1.5-1.6
			c0-0.9,0.8-1.7,2-1.7c0.6,0,1.1,0.2,1.4,0.4l-0.3,0.8c-0.2-0.1-0.6-0.3-1.2-0.3c-0.6,0-1,0.4-1,0.8c0,0.5,0.3,0.7,1.1,1
			c1,0.4,1.5,0.9,1.5,1.7c0,1-0.8,1.8-2.2,1.8c-0.6,0-1.2-0.2-1.6-0.4L211.1,367.4z"/>
		<path class="st1" d="M217.1,361c0,0.4-0.3,0.6-0.7,0.6c-0.4,0-0.6-0.3-0.6-0.6s0.3-0.7,0.7-0.7C216.9,360.3,217.1,360.6,217.1,361
			z M216,368.4v-5.8h1.1v5.8H216z"/>
		<path class="st1" d="M223.8,359.9v7c0,0.5,0,1.1,0,1.5h-0.9l0-1h0c-0.3,0.6-1,1.1-2,1.1c-1.4,0-2.5-1.2-2.5-3
			c0-1.9,1.2-3.1,2.6-3.1c0.9,0,1.5,0.4,1.8,0.9h0v-3.5L223.8,359.9L223.8,359.9z M222.7,365c0-0.1,0-0.3,0-0.4
			c-0.2-0.7-0.7-1.2-1.5-1.2c-1.1,0-1.7,1-1.7,2.2c0,1.2,0.6,2.1,1.7,2.1c0.7,0,1.4-0.5,1.5-1.3c0-0.1,0-0.3,0-0.5L222.7,365
			L222.7,365z"/>
		<path class="st1" d="M229.6,367c0,0.5,0,1,0.1,1.4h-0.9l-0.1-0.7h0c-0.3,0.5-0.9,0.9-1.8,0.9c-1.2,0-1.8-0.8-1.8-1.7
			c0-1.4,1.2-2.2,3.5-2.2v-0.1c0-0.5-0.1-1.3-1.3-1.3c-0.6,0-1.1,0.2-1.5,0.4l-0.2-0.7c0.5-0.3,1.2-0.5,1.9-0.5
			c1.8,0,2.2,1.2,2.2,2.4L229.6,367L229.6,367z M228.6,365.5c-1.2,0-2.5,0.2-2.5,1.3c0,0.7,0.5,1,1,1c0.8,0,1.3-0.5,1.4-1
			c0-0.1,0-0.2,0-0.3L228.6,365.5L228.6,365.5z"/>
		<path class="st1" d="M236.3,359.9v7c0,0.5,0,1.1,0,1.5h-0.9l0-1h0c-0.3,0.6-1,1.1-2,1.1c-1.4,0-2.5-1.2-2.5-3
			c0-1.9,1.2-3.1,2.6-3.1c0.9,0,1.5,0.4,1.8,0.9h0v-3.5L236.3,359.9L236.3,359.9z M235.3,365c0-0.1,0-0.3,0-0.4
			c-0.2-0.7-0.7-1.2-1.5-1.2c-1.1,0-1.7,1-1.7,2.2c0,1.2,0.6,2.1,1.7,2.1c0.7,0,1.4-0.5,1.5-1.3c0-0.1,0-0.3,0-0.5L235.3,365
			L235.3,365z"/>
		<path class="st1" d="M240.7,368.4v-8.1h1.2l2.6,4.1c0.6,0.9,1.1,1.8,1.4,2.6l0,0c-0.1-1.1-0.1-2.1-0.1-3.3v-3.4h1v8.1h-1.1
			l-2.6-4.1c-0.6-0.9-1.1-1.8-1.5-2.7l0,0c0.1,1,0.1,2,0.1,3.3v3.5L240.7,368.4L240.7,368.4z"/>
		<path class="st1" d="M252.6,367c0,0.5,0,1,0.1,1.4h-0.9l-0.1-0.7h0c-0.3,0.5-0.9,0.9-1.8,0.9c-1.2,0-1.8-0.8-1.8-1.7
			c0-1.4,1.2-2.2,3.5-2.2v-0.1c0-0.5-0.1-1.3-1.3-1.3c-0.6,0-1.1,0.2-1.5,0.4l-0.2-0.7c0.5-0.3,1.2-0.5,1.9-0.5
			c1.8,0,2.2,1.2,2.2,2.4L252.6,367L252.6,367z M251.6,365.5c-1.2,0-2.5,0.2-2.5,1.3c0,0.7,0.5,1,1,1c0.8,0,1.3-0.5,1.4-1
			c0-0.1,0-0.2,0-0.3L251.6,365.5L251.6,365.5z"/>
		<path class="st1" d="M258.5,368.2c-0.3,0.1-0.9,0.3-1.7,0.3c-1.8,0-2.9-1.2-2.9-3c0-1.8,1.2-3.1,3.1-3.1c0.6,0,1.2,0.2,1.5,0.3
			l-0.2,0.8c-0.3-0.1-0.6-0.3-1.2-0.3c-1.3,0-2.1,1-2.1,2.2c0,1.3,0.9,2.2,2,2.2c0.6,0,1-0.1,1.3-0.3L258.5,368.2z"/>
		<path class="st1" d="M260.9,361c0,0.4-0.3,0.6-0.7,0.6c-0.4,0-0.6-0.3-0.6-0.6s0.3-0.7,0.7-0.7C260.6,360.3,260.9,360.6,260.9,361
			z M259.7,368.4v-5.8h1.1v5.8H259.7z"/>
		<path class="st1" d="M267.8,365.5c0,2.1-1.5,3.1-2.9,3.1c-1.6,0-2.8-1.2-2.8-3c0-1.9,1.3-3.1,2.9-3.1
			C266.6,362.5,267.8,363.7,267.8,365.5z M263.2,365.5c0,1.3,0.7,2.2,1.8,2.2c1,0,1.8-0.9,1.8-2.3c0-1-0.5-2.2-1.7-2.2
			C263.7,363.3,263.2,364.4,263.2,365.5z"/>
		<path class="st1" d="M269.1,364.2c0-0.6,0-1.1,0-1.6h0.9l0.1,1h0c0.3-0.5,1-1.1,1.9-1.1c0.8,0,2.1,0.5,2.1,2.5v3.5H273v-3.3
			c0-0.9-0.3-1.7-1.3-1.7c-0.7,0-1.2,0.5-1.4,1.1c0,0.1-0.1,0.3-0.1,0.5v3.5h-1.1L269.1,364.2L269.1,364.2z"/>
		<path class="st1" d="M279.8,367c0,0.5,0,1,0.1,1.4H279l-0.1-0.7h0c-0.3,0.5-0.9,0.9-1.8,0.9c-1.2,0-1.8-0.8-1.8-1.7
			c0-1.4,1.2-2.2,3.5-2.2v-0.1c0-0.5-0.1-1.3-1.3-1.3c-0.6,0-1.1,0.2-1.5,0.4l-0.2-0.7c0.5-0.3,1.2-0.5,1.9-0.5
			c1.8,0,2.2,1.2,2.2,2.4L279.8,367L279.8,367z M278.8,365.5c-1.2,0-2.5,0.2-2.5,1.3c0,0.7,0.5,1,1,1c0.8,0,1.3-0.5,1.4-1
			c0-0.1,0-0.2,0-0.3V365.5z"/>
		<path class="st1" d="M281.5,359.9h1.1v8.5h-1.1V359.9z"/>
		<path class="st1" d="M291.9,359.9v7c0,0.5,0,1.1,0,1.5H291l0-1h0c-0.3,0.6-1,1.1-2,1.1c-1.4,0-2.5-1.2-2.5-3
			c0-1.9,1.2-3.1,2.6-3.1c0.9,0,1.5,0.4,1.8,0.9h0v-3.5L291.9,359.9L291.9,359.9z M290.9,365c0-0.1,0-0.3,0-0.4
			c-0.2-0.7-0.7-1.2-1.5-1.2c-1.1,0-1.7,1-1.7,2.2c0,1.2,0.6,2.1,1.7,2.1c0.7,0,1.4-0.5,1.5-1.3c0-0.1,0-0.3,0-0.5L290.9,365
			L290.9,365z"/>
		<path class="st1" d="M294.3,365.7c0,1.4,0.9,2,2,2c0.8,0,1.2-0.1,1.6-0.3l0.2,0.8c-0.4,0.2-1,0.4-1.9,0.4c-1.8,0-2.9-1.2-2.9-2.9
			s1-3.1,2.7-3.1c1.9,0,2.4,1.7,2.4,2.7c0,0.2,0,0.4,0,0.5L294.3,365.7L294.3,365.7z M297.4,365c0-0.7-0.3-1.7-1.5-1.7
			c-1.1,0-1.5,1-1.6,1.7H297.4z"/>
		<path class="st1" d="M307.9,368.2c-0.4,0.2-1.2,0.4-2.1,0.4c-2.3,0-4-1.4-4-4.1c0-2.5,1.7-4.2,4.2-4.2c1,0,1.6,0.2,1.9,0.4
			l-0.3,0.9c-0.4-0.2-0.9-0.3-1.6-0.3c-1.9,0-3.2,1.2-3.2,3.3c0,2,1.1,3.3,3.1,3.3c0.6,0,1.3-0.1,1.7-0.3L307.9,368.2z"/>
		<path class="st1" d="M314.3,365.5c0,2.1-1.5,3.1-2.9,3.1c-1.6,0-2.8-1.2-2.8-3c0-1.9,1.3-3.1,2.9-3.1
			C313.2,362.5,314.3,363.7,314.3,365.5z M309.7,365.5c0,1.3,0.7,2.2,1.8,2.2c1,0,1.8-0.9,1.8-2.3c0-1-0.5-2.2-1.7-2.2
			C310.3,363.3,309.7,364.4,309.7,365.5z"/>
		<path class="st1" d="M315.7,359.9h1.1v8.5h-1.1V359.9z"/>
		<path class="st1" d="M323.7,365.5c0,2.1-1.5,3.1-2.9,3.1c-1.6,0-2.8-1.2-2.8-3c0-1.9,1.3-3.1,2.9-3.1
			C322.6,362.5,323.7,363.7,323.7,365.5z M319.1,365.5c0,1.3,0.7,2.2,1.8,2.2c1,0,1.8-0.9,1.8-2.3c0-1-0.5-2.2-1.7-2.2
			C319.7,363.3,319.1,364.4,319.1,365.5z"/>
		<path class="st1" d="M325.1,364.2c0-0.6,0-1.1,0-1.6h0.9l0,0.9h0c0.3-0.6,0.9-1.1,1.8-1.1c0.8,0,1.4,0.5,1.6,1.2h0
			c0.2-0.3,0.4-0.6,0.7-0.8c0.3-0.3,0.7-0.4,1.3-0.4c0.8,0,1.9,0.5,1.9,2.5v3.4h-1v-3.3c0-1.1-0.4-1.8-1.3-1.8
			c-0.6,0-1.1,0.4-1.3,0.9c0,0.2-0.1,0.3-0.1,0.5v3.6h-1V365c0-0.9-0.4-1.6-1.2-1.6c-0.6,0-1.1,0.5-1.3,1.1
			c-0.1,0.1-0.1,0.3-0.1,0.5v3.5h-1L325.1,364.2L325.1,364.2z"/>
		<path class="st1" d="M335.1,359.9h1v3.6h0c0.4-0.6,1-1.1,2-1.1c1.5,0,2.5,1.2,2.5,3c0,2.1-1.3,3.1-2.6,3.1c-0.8,0-1.5-0.3-2-1.1h0
			l-0.1,0.9H335c0-0.4,0-1,0-1.5L335.1,359.9L335.1,359.9z M336.1,366.1c0,0.1,0,0.3,0,0.4c0.2,0.7,0.8,1.2,1.6,1.2
			c1.1,0,1.8-0.9,1.8-2.2c0-1.2-0.6-2.2-1.7-2.2c-0.7,0-1.4,0.5-1.6,1.3c0,0.1-0.1,0.3-0.1,0.4V366.1z"/>
		<path class="st1" d="M343.1,361c0,0.4-0.3,0.6-0.7,0.6c-0.4,0-0.6-0.3-0.6-0.6s0.3-0.7,0.7-0.7C342.8,360.3,343.1,360.6,343.1,361
			z M341.9,368.4v-5.8h1.1v5.8H341.9z"/>
		<path class="st1" d="M348.8,367c0,0.5,0,1,0.1,1.4h-0.9l-0.1-0.7h0c-0.3,0.5-0.9,0.9-1.8,0.9c-1.2,0-1.8-0.8-1.8-1.7
			c0-1.4,1.2-2.2,3.5-2.2v-0.1c0-0.5-0.1-1.3-1.3-1.3c-0.6,0-1.1,0.2-1.5,0.4l-0.2-0.7c0.5-0.3,1.2-0.5,1.9-0.5
			c1.8,0,2.2,1.2,2.2,2.4L348.8,367L348.8,367z M347.8,365.5c-1.2,0-2.5,0.2-2.5,1.3c0,0.7,0.5,1,1,1c0.8,0,1.3-0.5,1.4-1
			c0-0.1,0-0.2,0-0.3V365.5z"/>
		<path class="st1" d="M350.2,367.8c0-0.4,0.3-0.8,0.7-0.8c0.4,0,0.7,0.3,0.7,0.8c0,0.4-0.3,0.8-0.7,0.8
			C350.5,368.6,350.2,368.2,350.2,367.8z"/>
		<path class="st1" d="M355.6,360.5c0.6-0.1,1.4-0.2,2.2-0.2c1.5,0,2.6,0.4,3.3,1c0.7,0.7,1.2,1.6,1.2,2.9c0,1.3-0.4,2.4-1.2,3.1
			c-0.8,0.8-2,1.2-3.6,1.2c-0.8,0-1.4,0-1.9-0.1L355.6,360.5L355.6,360.5z M356.6,367.6c0.3,0,0.6,0,1.1,0c2.2,0,3.4-1.2,3.4-3.4
			c0-1.9-1.1-3.1-3.3-3.1c-0.5,0-0.9,0-1.2,0.1V367.6z"/>
		<path class="st1" d="M364.7,361c0,0.4-0.3,0.6-0.7,0.6c-0.4,0-0.6-0.3-0.6-0.6s0.3-0.7,0.7-0.7C364.4,360.3,364.7,360.6,364.7,361
			z M363.5,368.4v-5.8h1.1v5.8H363.5z"/>
		<path class="st1" d="M366.3,364.5c0-0.7,0-1.3,0-1.9h0.9l0.1,1h0c0.4-0.7,1.1-1.1,2.1-1.1c1.4,0,2.5,1.2,2.5,2.9
			c0,2.1-1.3,3.1-2.7,3.1c-0.8,0-1.4-0.3-1.8-0.9h0v3.2h-1L366.3,364.5L366.3,364.5z M367.4,366.1c0,0.2,0,0.3,0,0.4
			c0.2,0.7,0.8,1.2,1.6,1.2c1.1,0,1.8-0.9,1.8-2.2c0-1.2-0.6-2.1-1.7-2.1c-0.7,0-1.4,0.5-1.6,1.3c0,0.1-0.1,0.3-0.1,0.4L367.4,366.1
			L367.4,366.1z"/>
		<path class="st1" d="M373.2,359.9h1.1v8.5h-1.1V359.9z"/>
		<path class="st1" d="M381.2,365.5c0,2.1-1.5,3.1-2.9,3.1c-1.6,0-2.8-1.2-2.8-3c0-1.9,1.3-3.1,2.9-3.1
			C380.1,362.5,381.2,363.7,381.2,365.5z M376.6,365.5c0,1.3,0.7,2.2,1.8,2.2c1,0,1.8-0.9,1.8-2.3c0-1-0.5-2.2-1.7-2.2
			C377.2,363.3,376.6,364.4,376.6,365.5z"/>
		<path class="st1" d="M382.6,364.2c0-0.6,0-1.1,0-1.6h0.9l0,0.9h0c0.3-0.6,0.9-1.1,1.8-1.1c0.8,0,1.4,0.5,1.6,1.2h0
			c0.2-0.3,0.4-0.6,0.7-0.8c0.3-0.3,0.7-0.4,1.3-0.4c0.8,0,1.9,0.5,1.9,2.5v3.4h-1v-3.3c0-1.1-0.4-1.8-1.3-1.8
			c-0.6,0-1.1,0.4-1.3,0.9c0,0.2-0.1,0.3-0.1,0.5v3.6h-1V365c0-0.9-0.4-1.6-1.2-1.6c-0.6,0-1.1,0.5-1.3,1.1
			c-0.1,0.1-0.1,0.3-0.1,0.5v3.5h-1L382.6,364.2L382.6,364.2z"/>
		<path class="st1" d="M396.7,367c0,0.5,0,1,0.1,1.4h-0.9l-0.1-0.7h0c-0.3,0.5-0.9,0.9-1.8,0.9c-1.2,0-1.8-0.8-1.8-1.7
			c0-1.4,1.2-2.2,3.5-2.2v-0.1c0-0.5-0.1-1.3-1.3-1.3c-0.6,0-1.1,0.2-1.5,0.4l-0.2-0.7c0.5-0.3,1.2-0.5,1.9-0.5
			c1.8,0,2.2,1.2,2.2,2.4L396.7,367L396.7,367z M395.6,365.5c-1.2,0-2.5,0.2-2.5,1.3c0,0.7,0.5,1,1,1c0.8,0,1.3-0.5,1.4-1
			c0-0.1,0-0.2,0-0.3V365.5z"/>
		<path class="st1" d="M403.4,359.9v7c0,0.5,0,1.1,0,1.5h-0.9l0-1h0c-0.3,0.6-1,1.1-2,1.1c-1.4,0-2.5-1.2-2.5-3
			c0-1.9,1.2-3.1,2.6-3.1c0.9,0,1.5,0.4,1.8,0.9h0v-3.5L403.4,359.9L403.4,359.9z M402.3,365c0-0.1,0-0.3,0-0.4
			c-0.2-0.7-0.7-1.2-1.5-1.2c-1.1,0-1.7,1-1.7,2.2c0,1.2,0.6,2.1,1.7,2.1c0.7,0,1.4-0.5,1.5-1.3c0-0.1,0-0.3,0-0.5L402.3,365
			L402.3,365z"/>
		<path class="st1" d="M410.4,365.5c0,2.1-1.5,3.1-2.9,3.1c-1.6,0-2.8-1.2-2.8-3c0-1.9,1.3-3.1,2.9-3.1
			C409.3,362.5,410.4,363.7,410.4,365.5z M405.8,365.5c0,1.3,0.7,2.2,1.8,2.2c1,0,1.8-0.9,1.8-2.3c0-1-0.5-2.2-1.7-2.2
			C406.3,363.3,405.8,364.4,405.8,365.5z"/>
		<path class="st1" d="M414.9,365.7c0,1.4,0.9,2,2,2c0.8,0,1.2-0.1,1.6-0.3l0.2,0.8c-0.4,0.2-1,0.4-1.9,0.4c-1.8,0-2.9-1.2-2.9-2.9
			s1-3.1,2.7-3.1c1.9,0,2.4,1.7,2.4,2.7c0,0.2,0,0.4,0,0.5L414.9,365.7L414.9,365.7z M417.9,365c0-0.7-0.3-1.7-1.5-1.7
			c-1.1,0-1.5,1-1.6,1.7H417.9z"/>
		<path class="st1" d="M420.3,364.2c0-0.6,0-1.1,0-1.6h0.9l0.1,1h0c0.3-0.5,1-1.1,1.9-1.1c0.8,0,2.1,0.5,2.1,2.5v3.5h-1.1v-3.3
			c0-0.9-0.3-1.7-1.3-1.7c-0.7,0-1.2,0.5-1.4,1.1c0,0.1-0.1,0.3-0.1,0.5v3.5h-1.1L420.3,364.2L420.3,364.2z"/>
		<path class="st1" d="M430.6,360.3v3.4h3.9v-3.4h1.1v8.1h-1.1v-3.8h-3.9v3.8h-1.1v-8.1H430.6z"/>
		<path class="st1" d="M437.9,365.7c0,1.4,0.9,2,2,2c0.8,0,1.2-0.1,1.6-0.3l0.2,0.8c-0.4,0.2-1,0.4-1.9,0.4c-1.8,0-2.9-1.2-2.9-2.9
			s1-3.1,2.7-3.1c1.9,0,2.4,1.7,2.4,2.7c0,0.2,0,0.4,0,0.5L437.9,365.7L437.9,365.7z M441,365c0-0.7-0.3-1.7-1.5-1.7
			c-1.1,0-1.5,1-1.6,1.7H441z"/>
		<path class="st1" d="M443.3,364.4c0-0.7,0-1.3,0-1.8h0.9l0,1.2h0c0.3-0.8,0.9-1.3,1.6-1.3c0.1,0,0.2,0,0.3,0v1c-0.1,0-0.2,0-0.4,0
			c-0.7,0-1.3,0.6-1.4,1.3c0,0.1,0,0.3,0,0.5v3.1h-1.1V364.4z"/>
		<path class="st1" d="M447.3,364.4c0-0.7,0-1.3,0-1.8h0.9l0,1.2h0c0.3-0.8,0.9-1.3,1.6-1.3c0.1,0,0.2,0,0.3,0v1c-0.1,0-0.2,0-0.4,0
			c-0.7,0-1.3,0.6-1.4,1.3c0,0.1,0,0.3,0,0.5v3.1h-1.1V364.4z"/>
		<path class="st1" d="M455.2,367c0,0.5,0,1,0.1,1.4h-0.9l-0.1-0.7h0c-0.3,0.5-0.9,0.9-1.8,0.9c-1.2,0-1.8-0.8-1.8-1.7
			c0-1.4,1.2-2.2,3.5-2.2v-0.1c0-0.5-0.1-1.3-1.3-1.3c-0.6,0-1.1,0.2-1.5,0.4l-0.2-0.7c0.5-0.3,1.2-0.5,1.9-0.5
			c1.8,0,2.2,1.2,2.2,2.4L455.2,367L455.2,367z M454.2,365.5c-1.2,0-2.5,0.2-2.5,1.3c0,0.7,0.5,1,1,1c0.8,0,1.3-0.5,1.4-1
			c0-0.1,0-0.2,0-0.3V365.5z"/>
		<path class="st1" d="M456.9,364.2c0-0.6,0-1.1,0-1.6h0.9l0,0.9h0c0.3-0.6,0.9-1.1,1.8-1.1c0.8,0,1.4,0.5,1.6,1.2h0
			c0.2-0.3,0.4-0.6,0.7-0.8c0.3-0.3,0.7-0.4,1.3-0.4c0.8,0,1.9,0.5,1.9,2.5v3.4h-1v-3.3c0-1.1-0.4-1.8-1.3-1.8
			c-0.6,0-1.1,0.4-1.3,0.9c0,0.2-0.1,0.3-0.1,0.5v3.6h-1V365c0-0.9-0.4-1.6-1.2-1.6c-0.6,0-1.1,0.5-1.3,1.1
			c-0.1,0.1-0.1,0.3-0.1,0.5v3.5h-1L456.9,364.2L456.9,364.2z"/>
		<path class="st1" d="M468.1,361c0,0.4-0.3,0.6-0.7,0.6c-0.4,0-0.6-0.3-0.6-0.6s0.3-0.7,0.7-0.7C467.9,360.3,468.1,360.6,468.1,361
			z M466.9,368.4v-5.8h1.1v5.8H466.9z"/>
		<path class="st1" d="M470.3,365.7c0,1.4,0.9,2,2,2c0.8,0,1.2-0.1,1.6-0.3l0.2,0.8c-0.4,0.2-1,0.4-1.9,0.4c-1.8,0-2.9-1.2-2.9-2.9
			s1-3.1,2.7-3.1c1.9,0,2.4,1.7,2.4,2.7c0,0.2,0,0.4,0,0.5L470.3,365.7L470.3,365.7z M473.4,365c0-0.7-0.3-1.7-1.5-1.7
			c-1.1,0-1.5,1-1.6,1.7H473.4z"/>
		<path class="st1" d="M475.8,364.2c0-0.6,0-1.1,0-1.6h0.9l0.1,1h0c0.3-0.5,1-1.1,1.9-1.1c0.8,0,2.1,0.5,2.1,2.5v3.5h-1.1v-3.3
			c0-0.9-0.3-1.7-1.3-1.7c-0.7,0-1.2,0.5-1.4,1.1c0,0.1-0.1,0.3-0.1,0.5v3.5h-1.1L475.8,364.2L475.8,364.2z"/>
		<path class="st1" d="M483.6,361.2v1.4h1.5v0.8h-1.5v3.1c0,0.7,0.2,1.1,0.8,1.1c0.3,0,0.5,0,0.6-0.1l0,0.8
			c-0.2,0.1-0.5,0.1-0.9,0.1c-0.5,0-0.9-0.2-1.1-0.4c-0.3-0.3-0.4-0.8-0.4-1.5v-3.2h-0.9v-0.8h0.9v-1.1L483.6,361.2z"/>
		<path class="st1" d="M490.4,367c0,0.5,0,1,0.1,1.4h-0.9l-0.1-0.7h0c-0.3,0.5-0.9,0.9-1.8,0.9c-1.2,0-1.8-0.8-1.8-1.7
			c0-1.4,1.2-2.2,3.5-2.2v-0.1c0-0.5-0.1-1.3-1.3-1.3c-0.6,0-1.1,0.2-1.5,0.4l-0.2-0.7c0.5-0.3,1.2-0.5,1.9-0.5
			c1.8,0,2.2,1.2,2.2,2.4L490.4,367L490.4,367z M489.4,365.5c-1.2,0-2.5,0.2-2.5,1.3c0,0.7,0.5,1,1,1c0.8,0,1.3-0.5,1.4-1
			c0-0.1,0-0.2,0-0.3V365.5z"/>
		<path class="st1" d="M492,367.4c0.3,0.2,0.9,0.4,1.4,0.4c0.8,0,1.1-0.4,1.1-0.9c0-0.5-0.3-0.8-1.1-1.1c-1.1-0.4-1.5-0.9-1.5-1.6
			c0-0.9,0.8-1.7,2-1.7c0.6,0,1.1,0.2,1.4,0.4l-0.3,0.8c-0.2-0.1-0.6-0.3-1.2-0.3c-0.6,0-1,0.4-1,0.8c0,0.5,0.3,0.7,1.1,1
			c1,0.4,1.5,0.9,1.5,1.7c0,1-0.8,1.8-2.2,1.8c-0.6,0-1.2-0.2-1.6-0.4L492,367.4z"/>
		<path class="st1" d="M504.4,359.9v7c0,0.5,0,1.1,0,1.5h-0.9l0-1h0c-0.3,0.6-1,1.1-2,1.1c-1.4,0-2.5-1.2-2.5-3
			c0-1.9,1.2-3.1,2.6-3.1c0.9,0,1.5,0.4,1.8,0.9h0v-3.5L504.4,359.9L504.4,359.9z M503.4,365c0-0.1,0-0.3,0-0.4
			c-0.2-0.7-0.7-1.2-1.5-1.2c-1.1,0-1.7,1-1.7,2.2c0,1.2,0.6,2.1,1.7,2.1c0.7,0,1.4-0.5,1.5-1.3c0-0.1,0-0.3,0-0.5L503.4,365
			L503.4,365z"/>
		<path class="st1" d="M506.8,365.7c0,1.4,0.9,2,2,2c0.8,0,1.2-0.1,1.6-0.3l0.2,0.8c-0.4,0.2-1,0.4-1.9,0.4c-1.8,0-2.9-1.2-2.9-2.9
			s1-3.1,2.7-3.1c1.9,0,2.4,1.7,2.4,2.7c0,0.2,0,0.4,0,0.5L506.8,365.7L506.8,365.7z M509.9,365c0-0.7-0.3-1.7-1.5-1.7
			c-1.1,0-1.5,1-1.6,1.7H509.9z"/>
		<path class="st1" d="M516.1,365.9l-0.8,2.5h-1.1l2.8-8.1h1.2l2.8,8.1h-1.1l-0.9-2.5H516.1z M518.8,365.1l-0.8-2.3
			c-0.2-0.5-0.3-1-0.4-1.5h0c-0.1,0.5-0.2,1-0.4,1.5l-0.8,2.3L518.8,365.1L518.8,365.1z"/>
		<path class="st1" d="M526.1,368.2c-0.3,0.1-0.9,0.3-1.7,0.3c-1.8,0-2.9-1.2-2.9-3c0-1.8,1.2-3.1,3.1-3.1c0.6,0,1.2,0.2,1.5,0.3
			l-0.2,0.8c-0.3-0.1-0.6-0.3-1.2-0.3c-1.3,0-2.1,1-2.1,2.2c0,1.3,0.9,2.2,2,2.2c0.6,0,1-0.1,1.3-0.3L526.1,368.2z"/>
		<path class="st1" d="M532.5,365.5c0,2.1-1.5,3.1-2.9,3.1c-1.6,0-2.8-1.2-2.8-3c0-1.9,1.3-3.1,2.9-3.1
			C531.4,362.5,532.5,363.7,532.5,365.5z M527.9,365.5c0,1.3,0.7,2.2,1.8,2.2c1,0,1.8-0.9,1.8-2.3c0-1-0.5-2.2-1.7-2.2
			C528.5,363.3,527.9,364.4,527.9,365.5z"/>
		<path class="st1" d="M533.8,364.2c0-0.6,0-1.1,0-1.6h0.9l0,0.9h0c0.3-0.6,0.9-1.1,1.8-1.1c0.8,0,1.4,0.5,1.6,1.2h0
			c0.2-0.3,0.4-0.6,0.7-0.8c0.3-0.3,0.7-0.4,1.3-0.4c0.8,0,1.9,0.5,1.9,2.5v3.4h-1v-3.3c0-1.1-0.4-1.8-1.3-1.8
			c-0.6,0-1.1,0.4-1.3,0.9c0,0.2-0.1,0.3-0.1,0.5v3.6h-1V365c0-0.9-0.4-1.6-1.2-1.6c-0.6,0-1.1,0.5-1.3,1.1
			c-0.1,0.1-0.1,0.3-0.1,0.5v3.5h-1L533.8,364.2L533.8,364.2z"/>
		<path class="st1" d="M543.9,364.5c0-0.7,0-1.3,0-1.9h0.9l0.1,1h0c0.4-0.7,1.1-1.1,2.1-1.1c1.4,0,2.5,1.2,2.5,2.9
			c0,2.1-1.3,3.1-2.7,3.1c-0.8,0-1.4-0.3-1.8-0.9h0v3.2h-1L543.9,364.5L543.9,364.5z M544.9,366.1c0,0.2,0,0.3,0,0.4
			c0.2,0.7,0.8,1.2,1.6,1.2c1.1,0,1.8-0.9,1.8-2.2c0-1.2-0.6-2.1-1.7-2.1c-0.7,0-1.4,0.5-1.6,1.3c0,0.1-0.1,0.3-0.1,0.4L544.9,366.1
			L544.9,366.1z"/>
		<path class="st1" d="M554.8,367c0,0.5,0,1,0.1,1.4h-0.9l-0.1-0.7h0c-0.3,0.5-0.9,0.9-1.8,0.9c-1.2,0-1.8-0.8-1.8-1.7
			c0-1.4,1.2-2.2,3.5-2.2v-0.1c0-0.5-0.1-1.3-1.3-1.3c-0.6,0-1.1,0.2-1.5,0.4l-0.2-0.7c0.5-0.3,1.2-0.5,1.9-0.5
			c1.8,0,2.2,1.2,2.2,2.4L554.8,367L554.8,367z M553.7,365.5c-1.2,0-2.5,0.2-2.5,1.3c0,0.7,0.5,1,1,1c0.8,0,1.3-0.5,1.4-1
			c0-0.1,0-0.2,0-0.3L553.7,365.5L553.7,365.5z"/>
		<path class="st1" d="M556.5,364.2c0-0.6,0-1.1,0-1.6h0.9l0.1,1h0c0.3-0.5,1-1.1,1.9-1.1c0.8,0,2.1,0.5,2.1,2.5v3.5h-1.1v-3.3
			c0-0.9-0.3-1.7-1.3-1.7c-0.7,0-1.2,0.5-1.4,1.1c0,0.1-0.1,0.3-0.1,0.5v3.5h-1.1V364.2z M557.4,361.6c0-0.8,0.3-1.2,0.8-1.2
			c0.3,0,0.5,0.1,0.7,0.3c0.2,0.1,0.3,0.2,0.5,0.2c0.2,0,0.3-0.1,0.3-0.5h0.6c0,0.8-0.3,1.2-0.8,1.2c-0.3,0-0.5-0.1-0.7-0.3
			c-0.2-0.1-0.4-0.2-0.5-0.2c-0.2,0-0.3,0.2-0.3,0.5H557.4z"/>
		<path class="st1" d="M567.2,367c0,0.5,0,1,0.1,1.4h-0.9l-0.1-0.7h0c-0.3,0.5-0.9,0.9-1.8,0.9c-1.2,0-1.8-0.8-1.8-1.7
			c0-1.4,1.2-2.2,3.5-2.2v-0.1c0-0.5-0.1-1.3-1.3-1.3c-0.6,0-1.1,0.2-1.5,0.4l-0.2-0.7c0.5-0.3,1.2-0.5,1.9-0.5
			c1.8,0,2.2,1.2,2.2,2.4L567.2,367L567.2,367z M566.2,365.5c-1.2,0-2.5,0.2-2.5,1.3c0,0.7,0.5,1,1,1c0.8,0,1.3-0.5,1.4-1
			c0-0.1,0-0.2,0-0.3L566.2,365.5L566.2,365.5z"/>
		<path class="st1" d="M568.9,364.2c0-0.6,0-1.1,0-1.6h0.9l0,0.9h0c0.3-0.6,0.9-1.1,1.8-1.1c0.8,0,1.4,0.5,1.6,1.2h0
			c0.2-0.3,0.4-0.6,0.7-0.8c0.3-0.3,0.7-0.4,1.3-0.4c0.8,0,1.9,0.5,1.9,2.5v3.4h-1v-3.3c0-1.1-0.4-1.8-1.3-1.8
			c-0.6,0-1.1,0.4-1.3,0.9c0,0.2-0.1,0.3-0.1,0.5v3.6h-1V365c0-0.9-0.4-1.6-1.2-1.6c-0.6,0-1.1,0.5-1.3,1.1
			c-0.1,0.1-0.1,0.3-0.1,0.5v3.5h-1L568.9,364.2L568.9,364.2z"/>
		<path class="st1" d="M580.1,361c0,0.4-0.3,0.6-0.7,0.6c-0.4,0-0.6-0.3-0.6-0.6s0.3-0.7,0.7-0.7C579.8,360.3,580.1,360.6,580.1,361
			z M578.9,368.4v-5.8h1.1v5.8H578.9z"/>
		<path class="st1" d="M582.3,365.7c0,1.4,0.9,2,2,2c0.8,0,1.2-0.1,1.6-0.3l0.2,0.8c-0.4,0.2-1,0.4-1.9,0.4c-1.8,0-2.9-1.2-2.9-2.9
			s1-3.1,2.7-3.1c1.9,0,2.4,1.7,2.4,2.7c0,0.2,0,0.4,0,0.5L582.3,365.7L582.3,365.7z M585.4,365c0-0.7-0.3-1.7-1.5-1.7
			c-1.1,0-1.5,1-1.6,1.7H585.4z"/>
		<path class="st1" d="M587.7,364.2c0-0.6,0-1.1,0-1.6h0.9l0.1,1h0c0.3-0.5,1-1.1,1.9-1.1c0.8,0,2.1,0.5,2.1,2.5v3.5h-1.1v-3.3
			c0-0.9-0.3-1.7-1.3-1.7c-0.7,0-1.2,0.5-1.4,1.1c0,0.1-0.1,0.3-0.1,0.5v3.5h-1.1V364.2z"/>
		<path class="st1" d="M595.6,361.2v1.4h1.5v0.8h-1.5v3.1c0,0.7,0.2,1.1,0.8,1.1c0.3,0,0.5,0,0.6-0.1l0,0.8
			c-0.2,0.1-0.5,0.1-0.9,0.1c-0.5,0-0.9-0.2-1.1-0.4c-0.3-0.3-0.4-0.8-0.4-1.5v-3.2h-0.9v-0.8h0.9v-1.1L595.6,361.2z"/>
		<path class="st1" d="M603.5,365.5c0,2.1-1.5,3.1-2.9,3.1c-1.6,0-2.8-1.2-2.8-3c0-1.9,1.3-3.1,2.9-3.1
			C602.4,362.5,603.5,363.7,603.5,365.5z M598.9,365.5c0,1.3,0.7,2.2,1.8,2.2c1,0,1.8-0.9,1.8-2.3c0-1-0.5-2.2-1.7-2.2
			C599.4,363.3,598.9,364.4,598.9,365.5z"/>
		<path class="st1" d="M607.4,360.4c0.5-0.1,1.2-0.2,2-0.2c1,0,1.8,0.2,2.3,0.7c0.4,0.4,0.7,1,0.7,1.7c0,0.7-0.2,1.3-0.6,1.7
			c-0.6,0.6-1.5,0.9-2.5,0.9c-0.3,0-0.6,0-0.8-0.1v3.2h-1L607.4,360.4L607.4,360.4z M608.5,364.3c0.2,0.1,0.5,0.1,0.9,0.1
			c1.3,0,2-0.6,2-1.7c0-1.1-0.8-1.6-1.9-1.6c-0.5,0-0.8,0-1,0.1V364.3z"/>
		<path class="st1" d="M613.4,367.4c0.3,0.2,0.9,0.4,1.4,0.4c0.8,0,1.1-0.4,1.1-0.9c0-0.5-0.3-0.8-1.1-1.1c-1.1-0.4-1.5-0.9-1.5-1.6
			c0-0.9,0.8-1.7,2-1.7c0.6,0,1.1,0.2,1.4,0.4l-0.3,0.8c-0.2-0.1-0.6-0.3-1.2-0.3c-0.6,0-1,0.4-1,0.8c0,0.5,0.3,0.7,1.1,1
			c1,0.4,1.5,0.9,1.5,1.7c0,1-0.8,1.8-2.2,1.8c-0.6,0-1.2-0.2-1.6-0.4L613.4,367.4z"/>
		<path class="st1" d="M619.4,361c0,0.4-0.3,0.6-0.7,0.6c-0.4,0-0.6-0.3-0.6-0.6s0.3-0.7,0.7-0.7C619.2,360.3,619.4,360.6,619.4,361
			z M618.3,368.4v-5.8h1.1v5.8H618.3z"/>
		<path class="st1" d="M625.2,368.2c-0.3,0.1-0.9,0.3-1.7,0.3c-1.8,0-2.9-1.2-2.9-3c0-1.8,1.2-3.1,3.1-3.1c0.6,0,1.2,0.2,1.5,0.3
			l-0.2,0.8c-0.3-0.1-0.6-0.3-1.2-0.3c-1.3,0-2.1,1-2.1,2.2c0,1.3,0.9,2.2,2,2.2c0.6,0,1-0.1,1.3-0.3L625.2,368.2z"/>
		<path class="st1" d="M631.6,365.5c0,2.1-1.5,3.1-2.9,3.1c-1.6,0-2.8-1.2-2.8-3c0-1.9,1.3-3.1,2.9-3.1
			C630.5,362.5,631.6,363.7,631.6,365.5z M627,365.5c0,1.3,0.7,2.2,1.8,2.2c1,0,1.8-0.9,1.8-2.3c0-1-0.5-2.2-1.7-2.2
			C627.6,363.3,627,364.4,627,365.5z"/>
		<path class="st1" d="M632.8,367.4c0.3,0.2,0.9,0.4,1.4,0.4c0.8,0,1.1-0.4,1.1-0.9c0-0.5-0.3-0.8-1.1-1.1c-1.1-0.4-1.5-0.9-1.5-1.6
			c0-0.9,0.8-1.7,2-1.7c0.6,0,1.1,0.2,1.4,0.4l-0.3,0.8c-0.2-0.1-0.6-0.3-1.2-0.3c-0.6,0-1,0.4-1,0.8c0,0.5,0.3,0.7,1.1,1
			c1,0.4,1.5,0.9,1.5,1.7c0,1-0.8,1.8-2.2,1.8c-0.6,0-1.2-0.2-1.6-0.4L632.8,367.4z"/>
		<path class="st1" d="M643,365.5c0,2.1-1.5,3.1-2.9,3.1c-1.6,0-2.8-1.2-2.8-3c0-1.9,1.3-3.1,2.9-3.1
			C641.8,362.5,643,363.7,643,365.5z M638.4,365.5c0,1.3,0.7,2.2,1.8,2.2c1,0,1.8-0.9,1.8-2.3c0-1-0.5-2.2-1.7-2.2
			C638.9,363.3,638.4,364.4,638.4,365.5z"/>
		<path class="st1" d="M648.4,368.2c-0.3,0.1-0.9,0.3-1.7,0.3c-1.8,0-2.9-1.2-2.9-3c0-1.8,1.2-3.1,3.1-3.1c0.6,0,1.2,0.2,1.5,0.3
			l-0.2,0.8c-0.3-0.1-0.6-0.3-1.2-0.3c-1.3,0-2.1,1-2.1,2.2c0,1.3,0.9,2.2,2,2.2c0.6,0,1-0.1,1.3-0.3L648.4,368.2z"/>
		<path class="st1" d="M650.8,361c0,0.4-0.3,0.6-0.7,0.6c-0.4,0-0.6-0.3-0.6-0.6s0.3-0.7,0.7-0.7C650.6,360.3,650.8,360.6,650.8,361
			z M649.7,368.4v-5.8h1.1v5.8H649.7z"/>
		<path class="st1" d="M656.6,367c0,0.5,0,1,0.1,1.4h-0.9l-0.1-0.7h0c-0.3,0.5-0.9,0.9-1.8,0.9c-1.2,0-1.8-0.8-1.8-1.7
			c0-1.4,1.2-2.2,3.5-2.2v-0.1c0-0.5-0.1-1.3-1.3-1.3c-0.6,0-1.1,0.2-1.5,0.4l-0.2-0.7c0.5-0.3,1.2-0.5,1.9-0.5
			c1.8,0,2.2,1.2,2.2,2.4L656.6,367L656.6,367z M655.5,365.5c-1.2,0-2.5,0.2-2.5,1.3c0,0.7,0.5,1,1,1c0.8,0,1.3-0.5,1.4-1
			c0-0.1,0-0.2,0-0.3L655.5,365.5L655.5,365.5z"/>
		<path class="st1" d="M658.3,359.9h1.1v8.5h-1.1V359.9z"/>
		<path class="st1" d="M667.7,367c0,0.5,0,1,0.1,1.4h-0.9l-0.1-0.7h0c-0.3,0.5-0.9,0.9-1.8,0.9c-1.2,0-1.8-0.8-1.8-1.7
			c0-1.4,1.2-2.2,3.5-2.2v-0.1c0-0.5-0.1-1.3-1.3-1.3c-0.6,0-1.1,0.2-1.5,0.4l-0.2-0.7c0.5-0.3,1.2-0.5,1.9-0.5
			c1.8,0,2.2,1.2,2.2,2.4L667.7,367L667.7,367z M666.7,365.5c-1.2,0-2.5,0.2-2.5,1.3c0,0.7,0.5,1,1,1c0.8,0,1.3-0.5,1.4-1
			c0-0.1,0-0.2,0-0.3L666.7,365.5L666.7,365.5z"/>
		<path class="st1" d="M673.3,368.4l-2.7-8.1h1.1l1.3,4c0.3,1.1,0.6,2.1,0.9,3h0c0.2-0.9,0.6-2,0.9-3l1.4-4h1.1l-2.9,8.1
			L673.3,368.4L673.3,368.4z"/>
		<path class="st1" d="M680.2,360.1l-1.5,1.7H678l1.1-1.7H680.2z M678,368.4v-5.8h1.1v5.8H678z"/>
		<path class="st1" d="M685,368.2c-0.3,0.1-0.9,0.3-1.7,0.3c-1.8,0-2.9-1.2-2.9-3c0-1.8,1.2-3.1,3.1-3.1c0.6,0,1.2,0.2,1.5,0.3
			l-0.2,0.8c-0.3-0.1-0.6-0.3-1.2-0.3c-1.3,0-2.1,1-2.1,2.2c0,1.3,0.9,2.2,2,2.2c0.6,0,1-0.1,1.3-0.3L685,368.2z"/>
		<path class="st1" d="M687.6,361.2v1.4h1.5v0.8h-1.5v3.1c0,0.7,0.2,1.1,0.8,1.1c0.3,0,0.5,0,0.6-0.1l0,0.8
			c-0.2,0.1-0.5,0.1-0.9,0.1c-0.5,0-0.9-0.2-1.1-0.4c-0.3-0.3-0.4-0.8-0.4-1.5v-3.2h-0.9v-0.8h0.9v-1.1L687.6,361.2z"/>
		<path class="st1" d="M691.5,361c0,0.4-0.3,0.6-0.7,0.6c-0.4,0-0.6-0.3-0.6-0.6s0.3-0.7,0.7-0.7C691.3,360.3,691.5,360.6,691.5,361
			z M690.3,368.4v-5.8h1.1v5.8H690.3z"/>
		<path class="st1" d="M693.2,364.2c0-0.6,0-1.1,0-1.6h0.9l0,0.9h0c0.3-0.6,0.9-1.1,1.8-1.1c0.8,0,1.4,0.5,1.6,1.2h0
			c0.2-0.3,0.4-0.6,0.7-0.8c0.3-0.3,0.7-0.4,1.3-0.4c0.8,0,1.9,0.5,1.9,2.5v3.4h-1v-3.3c0-1.1-0.4-1.8-1.3-1.8
			c-0.6,0-1.1,0.4-1.3,0.9c0,0.2-0.1,0.3-0.1,0.5v3.6h-1V365c0-0.9-0.4-1.6-1.2-1.6c-0.6,0-1.1,0.5-1.3,1.1
			c-0.1,0.1-0.1,0.3-0.1,0.5v3.5h-1L693.2,364.2L693.2,364.2z"/>
		<path class="st1" d="M707.2,367c0,0.5,0,1,0.1,1.4h-0.9l-0.1-0.7h0c-0.3,0.5-0.9,0.9-1.8,0.9c-1.2,0-1.8-0.8-1.8-1.7
			c0-1.4,1.2-2.2,3.5-2.2v-0.1c0-0.5-0.1-1.3-1.3-1.3c-0.6,0-1.1,0.2-1.5,0.4l-0.2-0.7c0.5-0.3,1.2-0.5,1.9-0.5
			c1.8,0,2.2,1.2,2.2,2.4L707.2,367L707.2,367z M706.2,365.5c-1.2,0-2.5,0.2-2.5,1.3c0,0.7,0.5,1,1,1c0.8,0,1.3-0.5,1.4-1
			c0-0.1,0-0.2,0-0.3L706.2,365.5L706.2,365.5z"/>
		<path class="st1" d="M708.8,367.4c0.3,0.2,0.9,0.4,1.4,0.4c0.8,0,1.1-0.4,1.1-0.9c0-0.5-0.3-0.8-1.1-1.1c-1.1-0.4-1.5-0.9-1.5-1.6
			c0-0.9,0.8-1.7,2-1.7c0.6,0,1.1,0.2,1.4,0.4l-0.3,0.8c-0.2-0.1-0.6-0.3-1.2-0.3c-0.6,0-1,0.4-1,0.8c0,0.5,0.3,0.7,1.1,1
			c1,0.4,1.5,0.9,1.5,1.7c0,1-0.8,1.8-2.2,1.8c-0.6,0-1.2-0.2-1.6-0.4L708.8,367.4z"/>
		<path class="st1" d="M721.2,359.9v7c0,0.5,0,1.1,0,1.5h-0.9l0-1h0c-0.3,0.6-1,1.1-2,1.1c-1.4,0-2.5-1.2-2.5-3
			c0-1.9,1.2-3.1,2.6-3.1c0.9,0,1.5,0.4,1.8,0.9h0v-3.5L721.2,359.9L721.2,359.9z M720.2,365c0-0.1,0-0.3,0-0.4
			c-0.2-0.7-0.7-1.2-1.5-1.2c-1.1,0-1.7,1-1.7,2.2c0,1.2,0.6,2.1,1.7,2.1c0.7,0,1.4-0.5,1.5-1.3c0-0.1,0-0.3,0-0.5L720.2,365
			L720.2,365z"/>
		<path class="st1" d="M723.6,365.7c0,1.4,0.9,2,2,2c0.8,0,1.2-0.1,1.6-0.3l0.2,0.8c-0.4,0.2-1,0.4-1.9,0.4c-1.8,0-2.9-1.2-2.9-2.9
			s1-3.1,2.7-3.1c1.9,0,2.4,1.7,2.4,2.7c0,0.2,0,0.4,0,0.5L723.6,365.7L723.6,365.7z M726.7,365c0-0.7-0.3-1.7-1.5-1.7
			c-1.1,0-1.5,1-1.6,1.7H726.7z"/>
		<path class="st1" d="M732.9,368.4l-2.7-8.1h1.1l1.3,4c0.3,1.1,0.6,2.1,0.9,3h0c0.2-0.9,0.6-2,0.9-3l1.4-4h1.1l-2.9,8.1
			L732.9,368.4L732.9,368.4z"/>
		<path class="st1" d="M738.8,361c0,0.4-0.3,0.6-0.7,0.6c-0.4,0-0.6-0.3-0.6-0.6s0.3-0.7,0.7-0.7C738.5,360.3,738.8,360.6,738.8,361
			z M737.6,368.4v-5.8h1.1v5.8H737.6z"/>
		<path class="st1" d="M745.7,365.5c0,2.1-1.5,3.1-2.9,3.1c-1.6,0-2.8-1.2-2.8-3c0-1.9,1.3-3.1,2.9-3.1
			C744.6,362.5,745.7,363.7,745.7,365.5z M741.1,365.5c0,1.3,0.7,2.2,1.8,2.2c1,0,1.8-0.9,1.8-2.3c0-1-0.5-2.2-1.7-2.2
			C741.6,363.3,741.1,364.4,741.1,365.5z"/>
		<path class="st1" d="M747,359.9h1.1v8.5H747V359.9z"/>
		<path class="st1" d="M750.5,365.7c0,1.4,0.9,2,2,2c0.8,0,1.2-0.1,1.6-0.3l0.2,0.8c-0.4,0.2-1,0.4-1.9,0.4c-1.8,0-2.9-1.2-2.9-2.9
			s1-3.1,2.7-3.1c1.9,0,2.4,1.7,2.4,2.7c0,0.2,0,0.4,0,0.5L750.5,365.7L750.5,365.7z M753.5,365c0-0.7-0.3-1.7-1.5-1.7
			c-1.1,0-1.5,1-1.6,1.7H753.5z"/>
		<path class="st1" d="M755.9,364.2c0-0.6,0-1.1,0-1.6h0.9l0.1,1h0c0.3-0.5,1-1.1,1.9-1.1c0.8,0,2.1,0.5,2.1,2.5v3.5h-1.1v-3.3
			c0-0.9-0.3-1.7-1.3-1.7c-0.7,0-1.2,0.5-1.4,1.1c0,0.1-0.1,0.3-0.1,0.5v3.5h-1.1V364.2z"/>
		<path class="st1" d="M766.7,368.2c-0.3,0.1-0.9,0.3-1.7,0.3c-1.8,0-2.9-1.2-2.9-3c0-1.8,1.2-3.1,3.1-3.1c0.6,0,1.2,0.2,1.5,0.3
			l-0.2,0.8c-0.3-0.1-0.6-0.3-1.2-0.3c-1.3,0-2.1,1-2.1,2.2c0,1.3,0.9,2.2,2,2.2c0.6,0,1-0.1,1.3-0.3L766.7,368.2z"/>
		<path class="st1" d="M769.1,361c0,0.4-0.3,0.6-0.7,0.6c-0.4,0-0.6-0.3-0.6-0.6s0.3-0.7,0.7-0.7C768.8,360.3,769.1,360.6,769.1,361
			z M767.9,368.4v-5.8h1.1v5.8H767.9z"/>
		<path class="st1" d="M774.8,367c0,0.5,0,1,0.1,1.4h-0.9l-0.1-0.7h0c-0.3,0.5-0.9,0.9-1.8,0.9c-1.2,0-1.8-0.8-1.8-1.7
			c0-1.4,1.2-2.2,3.5-2.2v-0.1c0-0.5-0.1-1.3-1.3-1.3c-0.6,0-1.1,0.2-1.5,0.4l-0.2-0.7c0.5-0.3,1.2-0.5,1.9-0.5
			c1.8,0,2.2,1.2,2.2,2.4L774.8,367L774.8,367z M773.8,365.5c-1.2,0-2.5,0.2-2.5,1.3c0,0.7,0.5,1,1,1c0.8,0,1.3-0.5,1.4-1
			c0-0.1,0-0.2,0-0.3L773.8,365.5L773.8,365.5z"/>
		<path class="st1" d="M779.1,360.4c0.5-0.1,1.2-0.2,2-0.2c1,0,1.8,0.2,2.3,0.7c0.4,0.4,0.7,1,0.7,1.7c0,0.7-0.2,1.3-0.6,1.7
			c-0.6,0.6-1.5,0.9-2.5,0.9c-0.3,0-0.6,0-0.8-0.1v3.2h-1V360.4z M780.1,364.3c0.2,0.1,0.5,0.1,0.9,0.1c1.3,0,2-0.6,2-1.7
			c0-1.1-0.8-1.6-1.9-1.6c-0.5,0-0.8,0-1,0.1V364.3z"/>
		<path class="st1" d="M790.4,365.5c0,2.1-1.5,3.1-2.9,3.1c-1.6,0-2.8-1.2-2.8-3c0-1.9,1.3-3.1,2.9-3.1
			C789.3,362.5,790.4,363.7,790.4,365.5z M785.8,365.5c0,1.3,0.7,2.2,1.8,2.2c1,0,1.8-0.9,1.8-2.3c0-1-0.5-2.2-1.7-2.2
			C786.3,363.3,785.8,364.4,785.8,365.5z"/>
		<path class="st1" d="M791.7,359.9h1.1v8.5h-1.1V359.9z"/>
		<path class="st1" d="M796.7,360.1l-1.5,1.7h-0.7l1.1-1.7H796.7z M794.6,368.4v-5.8h1.1v5.8H794.6z"/>
		<path class="st1" d="M798.6,361.2v1.4h1.5v0.8h-1.5v3.1c0,0.7,0.2,1.1,0.8,1.1c0.3,0,0.5,0,0.6-0.1l0,0.8
			c-0.2,0.1-0.5,0.1-0.9,0.1c-0.5,0-0.9-0.2-1.1-0.4c-0.3-0.3-0.4-0.8-0.4-1.5v-3.2h-0.9v-0.8h0.9v-1.1L798.6,361.2z"/>
		<path class="st1" d="M802.5,361c0,0.4-0.3,0.6-0.7,0.6c-0.4,0-0.6-0.3-0.6-0.6s0.3-0.7,0.7-0.7C802.2,360.3,802.5,360.6,802.5,361
			z M801.3,368.4v-5.8h1.1v5.8H801.3z"/>
		<path class="st1" d="M808.2,368.2c-0.3,0.1-0.9,0.3-1.7,0.3c-1.8,0-2.9-1.2-2.9-3c0-1.8,1.2-3.1,3.1-3.1c0.6,0,1.2,0.2,1.5,0.3
			l-0.2,0.8c-0.3-0.1-0.6-0.3-1.2-0.3c-1.3,0-2.1,1-2.1,2.2c0,1.3,0.9,2.2,2,2.2c0.6,0,1-0.1,1.3-0.3L808.2,368.2z"/>
		<path class="st1" d="M813.5,367c0,0.5,0,1,0.1,1.4h-0.9l-0.1-0.7h0c-0.3,0.5-0.9,0.9-1.8,0.9c-1.2,0-1.8-0.8-1.8-1.7
			c0-1.4,1.2-2.2,3.5-2.2v-0.1c0-0.5-0.1-1.3-1.3-1.3c-0.6,0-1.1,0.2-1.5,0.4l-0.2-0.7c0.5-0.3,1.2-0.5,1.9-0.5
			c1.8,0,2.2,1.2,2.2,2.4L813.5,367L813.5,367z M812.5,365.5c-1.2,0-2.5,0.2-2.5,1.3c0,0.7,0.5,1,1,1c0.8,0,1.3-0.5,1.4-1
			c0-0.1,0-0.2,0-0.3L812.5,365.5L812.5,365.5z"/>
		<path class="st1" d="M814.9,367.8c0-0.4,0.3-0.8,0.7-0.8c0.4,0,0.7,0.3,0.7,0.8c0,0.4-0.3,0.8-0.7,0.8
			C815.2,368.6,814.9,368.2,814.9,367.8z"/>
		<path class="st1" d="M820.2,360.3h4.4v0.9h-3.3v2.7h3v0.9h-3v3.7h-1.1V360.3z"/>
		<path class="st1" d="M826.9,361c0,0.4-0.3,0.6-0.7,0.6c-0.4,0-0.6-0.3-0.6-0.6s0.3-0.7,0.7-0.7C826.7,360.3,826.9,360.6,826.9,361
			z M825.8,368.4v-5.8h1.1v5.8H825.8z"/>
		<path class="st1" d="M828.6,364.2c0-0.6,0-1.1,0-1.6h0.9l0.1,1h0c0.3-0.5,1-1.1,1.9-1.1c0.8,0,2.1,0.5,2.1,2.5v3.5h-1.1v-3.3
			c0-0.9-0.3-1.7-1.3-1.7c-0.7,0-1.2,0.5-1.4,1.1c0,0.1-0.1,0.3-0.1,0.5v3.5h-1.1V364.2z"/>
		<path class="st1" d="M839.3,367c0,0.5,0,1,0.1,1.4h-0.9l-0.1-0.7h0c-0.3,0.5-0.9,0.9-1.8,0.9c-1.2,0-1.8-0.8-1.8-1.7
			c0-1.4,1.2-2.2,3.5-2.2v-0.1c0-0.5-0.1-1.3-1.3-1.3c-0.6,0-1.1,0.2-1.5,0.4l-0.2-0.7c0.5-0.3,1.2-0.5,1.9-0.5
			c1.8,0,2.2,1.2,2.2,2.4L839.3,367L839.3,367z M838.3,365.5c-1.2,0-2.5,0.2-2.5,1.3c0,0.7,0.5,1,1,1c0.8,0,1.3-0.5,1.4-1
			c0-0.1,0-0.2,0-0.3L838.3,365.5L838.3,365.5z"/>
		<path class="st1" d="M841,364.2c0-0.6,0-1.1,0-1.6h0.9l0.1,1h0c0.3-0.5,1-1.1,1.9-1.1c0.8,0,2.1,0.5,2.1,2.5v3.5h-1.1v-3.3
			c0-0.9-0.3-1.7-1.3-1.7c-0.7,0-1.2,0.5-1.4,1.1c0,0.1-0.1,0.3-0.1,0.5v3.5H841V364.2z"/>
		<path class="st1" d="M851.8,368.2c-0.3,0.1-0.9,0.3-1.7,0.3c-1.8,0-2.9-1.2-2.9-3c0-1.8,1.2-3.1,3.1-3.1c0.6,0,1.2,0.2,1.5,0.3
			l-0.2,0.8c-0.3-0.1-0.6-0.3-1.2-0.3c-1.3,0-2.1,1-2.1,2.2c0,1.3,0.9,2.2,2,2.2c0.6,0,1-0.1,1.3-0.3L851.8,368.2z"/>
		<path class="st1" d="M854.2,361c0,0.4-0.3,0.6-0.7,0.6c-0.4,0-0.6-0.3-0.6-0.6s0.3-0.7,0.7-0.7C854,360.3,854.2,360.6,854.2,361z
			 M853,368.4v-5.8h1.1v5.8H853z"/>
		<path class="st1" d="M859.9,367c0,0.5,0,1,0.1,1.4h-0.9l-0.1-0.7h0c-0.3,0.5-0.9,0.9-1.8,0.9c-1.2,0-1.8-0.8-1.8-1.7
			c0-1.4,1.2-2.2,3.5-2.2v-0.1c0-0.5-0.1-1.3-1.3-1.3c-0.6,0-1.1,0.2-1.5,0.4l-0.2-0.7c0.5-0.3,1.2-0.5,1.9-0.5
			c1.8,0,2.2,1.2,2.2,2.4L859.9,367L859.9,367z M858.9,365.5c-1.2,0-2.5,0.2-2.5,1.3c0,0.7,0.5,1,1,1c0.8,0,1.3-0.5,1.4-1
			c0-0.1,0-0.2,0-0.3L858.9,365.5L858.9,365.5z"/>
		<path class="st1" d="M866.6,359.9v7c0,0.5,0,1.1,0,1.5h-0.9l0-1h0c-0.3,0.6-1,1.1-2,1.1c-1.4,0-2.5-1.2-2.5-3
			c0-1.9,1.2-3.1,2.6-3.1c0.9,0,1.5,0.4,1.8,0.9h0v-3.5L866.6,359.9L866.6,359.9z M865.6,365c0-0.1,0-0.3,0-0.4
			c-0.2-0.7-0.7-1.2-1.5-1.2c-1.1,0-1.7,1-1.7,2.2c0,1.2,0.6,2.1,1.7,2.1c0.7,0,1.4-0.5,1.5-1.3c0-0.1,0-0.3,0-0.5L865.6,365
			L865.6,365z"/>
		<path class="st1" d="M873.7,365.5c0,2.1-1.5,3.1-2.9,3.1c-1.6,0-2.8-1.2-2.8-3c0-1.9,1.3-3.1,2.9-3.1
			C872.5,362.5,873.7,363.7,873.7,365.5z M869.1,365.5c0,1.3,0.7,2.2,1.8,2.2c1,0,1.8-0.9,1.8-2.3c0-1-0.5-2.2-1.7-2.2
			C869.6,363.3,869.1,364.4,869.1,365.5z"/>
		<path class="st1" d="M877.5,364.5c0-0.7,0-1.3,0-1.9h0.9l0.1,1h0c0.4-0.7,1.1-1.1,2.1-1.1c1.4,0,2.5,1.2,2.5,2.9
			c0,2.1-1.3,3.1-2.7,3.1c-0.8,0-1.4-0.3-1.8-0.9h0v3.2h-1L877.5,364.5L877.5,364.5z M878.6,366.1c0,0.2,0,0.3,0,0.4
			c0.2,0.7,0.8,1.2,1.6,1.2c1.1,0,1.8-0.9,1.8-2.2c0-1.2-0.6-2.1-1.7-2.1c-0.7,0-1.4,0.5-1.6,1.3c0,0.1-0.1,0.3-0.1,0.4L878.6,366.1
			L878.6,366.1z"/>
		<path class="st1" d="M889.6,365.5c0,2.1-1.5,3.1-2.9,3.1c-1.6,0-2.8-1.2-2.8-3c0-1.9,1.3-3.1,2.9-3.1
			C888.5,362.5,889.6,363.7,889.6,365.5z M885,365.5c0,1.3,0.7,2.2,1.8,2.2c1,0,1.8-0.9,1.8-2.3c0-1-0.5-2.2-1.7-2.2
			C885.6,363.3,885,364.4,885,365.5z"/>
		<path class="st1" d="M891,364.4c0-0.7,0-1.3,0-1.8h0.9l0,1.2h0c0.3-0.8,0.9-1.3,1.6-1.3c0.1,0,0.2,0,0.3,0v1c-0.1,0-0.2,0-0.4,0
			c-0.7,0-1.3,0.6-1.4,1.3c0,0.1,0,0.3,0,0.5v3.1H891L891,364.4L891,364.4z"/>
		<path class="st1" d="M270.6,374.7v4.8c0,1.8,0.8,2.6,1.9,2.6c1.2,0,2-0.8,2-2.6v-4.8h1.1v4.7c0,2.5-1.3,3.5-3.1,3.5
			c-1.7,0-2.9-0.9-2.9-3.5v-4.8H270.6z"/>
		<path class="st1" d="M277.3,378.6c0-0.6,0-1.1,0-1.6h0.9l0.1,1h0c0.3-0.5,1-1.1,1.9-1.1c0.8,0,2.1,0.5,2.1,2.5v3.5h-1.1v-3.3
			c0-0.9-0.3-1.7-1.3-1.7c-0.7,0-1.2,0.5-1.4,1.1c0,0.1-0.1,0.3-0.1,0.5v3.5h-1.1L277.3,378.6L277.3,378.6z"/>
		<path class="st1" d="M285.1,375.4c0,0.4-0.3,0.6-0.7,0.6c-0.4,0-0.6-0.3-0.6-0.6c0-0.4,0.3-0.7,0.7-0.7
			C284.8,374.7,285.1,375,285.1,375.4z M283.9,382.8V377h1.1v5.8H283.9z"/>
		<path class="st1" d="M292,379.9c0,2.1-1.5,3.1-2.9,3.1c-1.6,0-2.8-1.2-2.8-3c0-1.9,1.3-3.1,2.9-3.1
			C290.8,376.9,292,378.1,292,379.9z M287.4,379.9c0,1.3,0.7,2.2,1.8,2.2c1,0,1.8-0.9,1.8-2.3c0-1-0.5-2.2-1.7-2.2
			C287.9,377.7,287.4,378.8,287.4,379.9z M290.7,374.5l-1.5,1.7h-0.7l1-1.7H290.7z"/>
		<path class="st1" d="M293.3,378.6c0-0.6,0-1.1,0-1.6h0.9l0.1,1h0c0.3-0.5,1-1.1,1.9-1.1c0.8,0,2.1,0.5,2.1,2.5v3.5h-1.1v-3.3
			c0-0.9-0.3-1.7-1.3-1.7c-0.7,0-1.2,0.5-1.4,1.1c0,0.1-0.1,0.3-0.1,0.5v3.5h-1.1L293.3,378.6L293.3,378.6z"/>
		<path class="st1" d="M306.7,379h-3.1v2.9h3.5v0.9h-4.6v-8.1h4.4v0.9h-3.3v2.6h3.1V379z"/>
		<path class="st1" d="M313.2,381.2c0,0.6,0,1.1,0,1.6h-0.9l-0.1-0.9h0c-0.3,0.5-0.9,1.1-1.9,1.1c-0.9,0-2-0.5-2-2.5V377h1.1v3.2
			c0,1.1,0.3,1.9,1.3,1.9c0.7,0,1.2-0.5,1.4-1c0.1-0.1,0.1-0.3,0.1-0.5V377h1.1L313.2,381.2L313.2,381.2z"/>
		<path class="st1" d="M314.9,378.8c0-0.7,0-1.3,0-1.8h0.9l0,1.2h0c0.3-0.8,0.9-1.3,1.6-1.3c0.1,0,0.2,0,0.3,0v1c-0.1,0-0.2,0-0.4,0
			c-0.7,0-1.3,0.6-1.4,1.3c0,0.1,0,0.3,0,0.5v3.1h-1.1V378.8z"/>
		<path class="st1" d="M324,379.9c0,2.1-1.5,3.1-2.9,3.1c-1.6,0-2.8-1.2-2.8-3c0-1.9,1.3-3.1,2.9-3.1
			C322.9,376.9,324,378.1,324,379.9z M319.4,379.9c0,1.3,0.7,2.2,1.8,2.2c1,0,1.8-0.9,1.8-2.3c0-1-0.5-2.2-1.7-2.2
			C319.9,377.7,319.4,378.8,319.4,379.9z"/>
		<path class="st1" d="M325.3,378.9c0-0.7,0-1.3,0-1.9h0.9l0.1,1h0c0.4-0.7,1.1-1.1,2.1-1.1c1.4,0,2.5,1.2,2.5,2.9
			c0,2.1-1.3,3.1-2.7,3.1c-0.8,0-1.4-0.3-1.8-0.9h0v3.2h-1L325.3,378.9L325.3,378.9z M326.4,380.5c0,0.2,0,0.3,0,0.4
			c0.2,0.7,0.8,1.2,1.6,1.2c1.1,0,1.8-0.9,1.8-2.2c0-1.2-0.6-2.1-1.7-2.1c-0.7,0-1.4,0.5-1.6,1.3c0,0.1-0.1,0.3-0.1,0.4L326.4,380.5
			L326.4,380.5z"/>
		<path class="st1" d="M332.8,380.1c0,1.4,0.9,2,2,2c0.8,0,1.2-0.1,1.6-0.3l0.2,0.8c-0.4,0.2-1,0.4-1.9,0.4c-1.8,0-2.9-1.2-2.9-2.9
			s1-3.1,2.7-3.1c1.9,0,2.4,1.7,2.4,2.7c0,0.2,0,0.4,0,0.5L332.8,380.1L332.8,380.1z M335.8,379.4c0-0.7-0.3-1.7-1.5-1.7
			c-1.1,0-1.5,1-1.6,1.7H335.8z"/>
		<path class="st1" d="M342.3,381.4c0,0.5,0,1,0.1,1.4h-0.9l-0.1-0.7h0c-0.3,0.5-0.9,0.9-1.8,0.9c-1.2,0-1.8-0.8-1.8-1.7
			c0-1.4,1.2-2.2,3.5-2.2V379c0-0.5-0.1-1.3-1.3-1.3c-0.6,0-1.1,0.2-1.5,0.4l-0.2-0.7c0.5-0.3,1.2-0.5,1.9-0.5
			c1.8,0,2.2,1.2,2.2,2.4L342.3,381.4L342.3,381.4z M341.2,379.9c-1.2,0-2.5,0.2-2.5,1.3c0,0.7,0.5,1,1,1c0.8,0,1.3-0.5,1.4-1
			c0-0.1,0-0.2,0-0.3V379.9z"/>
		<path class="st1" d="M351.3,379.4v0.7H346v-0.7H351.3z"/>
		<path class="st1" d="M360.7,382.6c-0.4,0.2-1.2,0.4-2.1,0.4c-2.3,0-4-1.4-4-4.1c0-2.5,1.7-4.2,4.2-4.2c1,0,1.6,0.2,1.9,0.4
			l-0.3,0.9c-0.4-0.2-0.9-0.3-1.6-0.3c-1.9,0-3.2,1.2-3.2,3.3c0,2,1.1,3.2,3.1,3.2c0.6,0,1.3-0.1,1.7-0.3L360.7,382.6z"/>
		<path class="st1" d="M367.1,379.9c0,2.1-1.5,3.1-2.9,3.1c-1.6,0-2.8-1.2-2.8-3c0-1.9,1.3-3.1,2.9-3.1
			C366,376.9,367.1,378.1,367.1,379.9z M362.5,379.9c0,1.3,0.7,2.2,1.8,2.2c1,0,1.8-0.9,1.8-2.3c0-1-0.5-2.2-1.7-2.2
			C363.1,377.7,362.5,378.8,362.5,379.9z"/>
		<path class="st1" d="M368.5,378.8c0-0.7,0-1.3,0-1.8h0.9l0,1.2h0c0.3-0.8,0.9-1.3,1.6-1.3c0.1,0,0.2,0,0.3,0v1c-0.1,0-0.2,0-0.4,0
			c-0.7,0-1.3,0.6-1.4,1.3c0,0.1,0,0.3,0,0.5v3.1h-1.1V378.8z"/>
		<path class="st1" d="M377.3,374.3v7c0,0.5,0,1.1,0,1.5h-0.9l0-1h0c-0.3,0.6-1,1.1-2,1.1c-1.4,0-2.5-1.2-2.5-3
			c0-1.9,1.2-3.1,2.6-3.1c0.9,0,1.5,0.4,1.8,0.9h0v-3.5L377.3,374.3L377.3,374.3z M376.2,379.4c0-0.1,0-0.3,0-0.4
			c-0.2-0.7-0.7-1.2-1.5-1.2c-1.1,0-1.7,1-1.7,2.2c0,1.2,0.6,2.1,1.7,2.1c0.7,0,1.4-0.5,1.5-1.3c0-0.1,0-0.3,0-0.5L376.2,379.4
			L376.2,379.4z"/>
		<path class="st1" d="M383.1,381.4c0,0.5,0,1,0.1,1.4h-0.9l-0.1-0.7h0c-0.3,0.5-0.9,0.9-1.8,0.9c-1.2,0-1.8-0.8-1.8-1.7
			c0-1.4,1.2-2.2,3.5-2.2V379c0-0.5-0.1-1.3-1.3-1.3c-0.6,0-1.1,0.2-1.5,0.4l-0.2-0.7c0.5-0.3,1.2-0.5,1.9-0.5
			c1.8,0,2.2,1.2,2.2,2.4L383.1,381.4L383.1,381.4z M382.1,379.9c-1.2,0-2.5,0.2-2.5,1.3c0,0.7,0.5,1,1,1c0.8,0,1.3-0.5,1.4-1
			c0-0.1,0-0.2,0-0.3V379.9z"/>
		<path class="st1" d="M386,375.4c0,0.4-0.3,0.6-0.7,0.6c-0.4,0-0.6-0.3-0.6-0.6c0-0.4,0.3-0.7,0.7-0.7
			C385.7,374.7,386,375,386,375.4z M384.8,382.8V377h1.1v5.8H384.8z"/>
		<path class="st1" d="M392.6,374.3v7c0,0.5,0,1.1,0,1.5h-0.9l0-1h0c-0.3,0.6-1,1.1-2,1.1c-1.4,0-2.5-1.2-2.5-3
			c0-1.9,1.2-3.1,2.6-3.1c0.9,0,1.5,0.4,1.8,0.9h0v-3.5L392.6,374.3L392.6,374.3z M391.6,379.4c0-0.1,0-0.3,0-0.4
			c-0.2-0.7-0.7-1.2-1.5-1.2c-1.1,0-1.7,1-1.7,2.2c0,1.2,0.6,2.1,1.7,2.1c0.7,0,1.4-0.5,1.5-1.3c0-0.1,0-0.3,0-0.5L391.6,379.4
			L391.6,379.4z"/>
		<path class="st1" d="M397.3,377l1.3,3.4c0.1,0.4,0.3,0.8,0.4,1.2h0c0.1-0.3,0.2-0.8,0.4-1.2l1.2-3.4h1.1l-1.6,4.1
			c-0.8,2-1.3,3-2,3.6c-0.5,0.4-1,0.6-1.3,0.7l-0.3-0.9c0.3-0.1,0.6-0.3,0.9-0.5c0.3-0.2,0.6-0.6,0.9-1.2c0-0.1,0.1-0.2,0.1-0.3
			c0-0.1,0-0.1-0.1-0.3l-2.1-5.3L397.3,377L397.3,377z"/>
		<path class="st1" d="M405.2,374.9c0.6-0.1,1.4-0.2,2.2-0.2c1.5,0,2.6,0.4,3.3,1c0.7,0.7,1.2,1.6,1.2,2.9c0,1.3-0.4,2.4-1.2,3.1
			c-0.8,0.8-2,1.2-3.6,1.2c-0.8,0-1.4,0-1.9-0.1L405.2,374.9L405.2,374.9z M406.2,382c0.3,0,0.6,0,1.1,0c2.2,0,3.4-1.2,3.4-3.4
			c0-1.9-1.1-3.1-3.3-3.1c-0.5,0-0.9,0-1.2,0.1V382z"/>
		<path class="st1" d="M414.3,375.4c0,0.4-0.3,0.6-0.7,0.6c-0.4,0-0.6-0.3-0.6-0.6c0-0.4,0.3-0.7,0.7-0.7
			C414,374.7,414.3,375,414.3,375.4z M413.1,382.8V377h1.1v5.8H413.1z"/>
		<path class="st1" d="M420,381.4c0,0.5,0,1,0.1,1.4h-0.9l-0.1-0.7h0c-0.3,0.5-0.9,0.9-1.8,0.9c-1.2,0-1.8-0.8-1.8-1.7
			c0-1.4,1.2-2.2,3.5-2.2V379c0-0.5-0.1-1.3-1.3-1.3c-0.6,0-1.1,0.2-1.5,0.4l-0.2-0.7c0.5-0.3,1.2-0.5,1.9-0.5
			c1.8,0,2.2,1.2,2.2,2.4L420,381.4L420,381.4z M419,379.9c-1.2,0-2.5,0.2-2.5,1.3c0,0.7,0.5,1,1,1c0.8,0,1.3-0.5,1.4-1
			c0-0.1,0-0.2,0-0.3V379.9z"/>
		<path class="st1" d="M422.8,379.7L422.8,379.7c0.2-0.2,0.4-0.5,0.5-0.7l1.7-2h1.3l-2.2,2.4l2.6,3.4h-1.3l-2-2.8l-0.5,0.6v2.2h-1
			v-8.5h1L422.8,379.7L422.8,379.7z"/>
		<path class="st1" d="M432.6,379.9c0,2.1-1.5,3.1-2.9,3.1c-1.6,0-2.8-1.2-2.8-3c0-1.9,1.3-3.1,2.9-3.1
			C431.5,376.9,432.6,378.1,432.6,379.9z M428,379.9c0,1.3,0.7,2.2,1.8,2.2c1,0,1.8-0.9,1.8-2.3c0-1-0.5-2.2-1.7-2.2
			C428.5,377.7,428,378.8,428,379.9z"/>
		<path class="st1" d="M433.9,378.6c0-0.6,0-1.1,0-1.6h0.9l0.1,1h0c0.3-0.5,1-1.1,1.9-1.1c0.8,0,2.1,0.5,2.1,2.5v3.5h-1.1v-3.3
			c0-0.9-0.3-1.7-1.3-1.7c-0.7,0-1.2,0.5-1.4,1.1c0,0.1-0.1,0.3-0.1,0.5v3.5h-1.1L433.9,378.6L433.9,378.6z"/>
		<path class="st1" d="M441.8,375.4c0,0.4-0.3,0.6-0.7,0.6c-0.4,0-0.6-0.3-0.6-0.6c0-0.4,0.3-0.7,0.7-0.7
			C441.5,374.7,441.8,375,441.8,375.4z M440.6,382.8V377h1.1v5.8H440.6z"/>
		<path class="st1" d="M447.5,381.4c0,0.5,0,1,0.1,1.4h-0.9l-0.1-0.7h0c-0.3,0.5-0.9,0.9-1.8,0.9c-1.2,0-1.8-0.8-1.8-1.7
			c0-1.4,1.2-2.2,3.5-2.2V379c0-0.5-0.1-1.3-1.3-1.3c-0.6,0-1.1,0.2-1.5,0.4l-0.2-0.7c0.5-0.3,1.2-0.5,1.9-0.5
			c1.8,0,2.2,1.2,2.2,2.4L447.5,381.4L447.5,381.4z M446.5,379.9c-1.2,0-2.5,0.2-2.5,1.3c0,0.7,0.5,1,1,1c0.8,0,1.3-0.5,1.4-1
			c0-0.1,0-0.2,0-0.3V379.9z"/>
		<path class="st1" d="M448.9,382.2c0-0.4,0.3-0.8,0.7-0.8c0.4,0,0.7,0.3,0.7,0.8c0,0.4-0.3,0.8-0.7,0.8
			C449.2,383,448.9,382.6,448.9,382.2z"/>
		<path class="st1" d="M454.3,374.9c0.6-0.1,1.4-0.2,2.2-0.2c1.5,0,2.6,0.4,3.3,1c0.7,0.7,1.2,1.6,1.2,2.9c0,1.3-0.4,2.4-1.2,3.1
			c-0.8,0.8-2,1.2-3.6,1.2c-0.8,0-1.4,0-1.9-0.1L454.3,374.9L454.3,374.9z M455.3,382c0.3,0,0.6,0,1.1,0c2.2,0,3.4-1.2,3.4-3.4
			c0-1.9-1.1-3.1-3.3-3.1c-0.5,0-0.9,0-1.2,0.1V382z"/>
		<path class="st1" d="M462.8,380.1c0,1.4,0.9,2,2,2c0.8,0,1.2-0.1,1.6-0.3l0.2,0.8c-0.4,0.2-1,0.4-1.9,0.4c-1.8,0-2.9-1.2-2.9-2.9
			s1-3.1,2.7-3.1c1.9,0,2.4,1.7,2.4,2.7c0,0.2,0,0.4,0,0.5L462.8,380.1L462.8,380.1z M465.9,379.4c0-0.7-0.3-1.7-1.5-1.7
			c-1.1,0-1.5,1-1.6,1.7H465.9z"/>
		<path class="st1" d="M468.1,381.8c0.3,0.2,0.9,0.4,1.4,0.4c0.8,0,1.1-0.4,1.1-0.9c0-0.5-0.3-0.8-1.1-1.1c-1.1-0.4-1.5-0.9-1.5-1.6
			c0-0.9,0.8-1.7,2-1.7c0.6,0,1.1,0.2,1.4,0.4l-0.3,0.8c-0.2-0.1-0.6-0.3-1.2-0.3c-0.6,0-1,0.4-1,0.8c0,0.5,0.3,0.7,1.1,1
			c1,0.4,1.5,0.9,1.5,1.7c0,1-0.8,1.8-2.2,1.8c-0.6,0-1.2-0.2-1.6-0.4L468.1,381.8z"/>
		<path class="st1" d="M477.1,381.4c0,0.5,0,1,0.1,1.4h-0.9l-0.1-0.7h0c-0.3,0.5-0.9,0.9-1.8,0.9c-1.2,0-1.8-0.8-1.8-1.7
			c0-1.4,1.2-2.2,3.5-2.2V379c0-0.5-0.1-1.3-1.3-1.3c-0.6,0-1.1,0.2-1.5,0.4l-0.2-0.7c0.5-0.3,1.2-0.5,1.9-0.5
			c1.8,0,2.2,1.2,2.2,2.4L477.1,381.4L477.1,381.4z M476.1,379.9c-1.2,0-2.5,0.2-2.5,1.3c0,0.7,0.5,1,1,1c0.8,0,1.3-0.5,1.4-1
			c0-0.1,0-0.2,0-0.3V379.9z"/>
		<path class="st1" d="M478.8,378.8c0-0.7,0-1.3,0-1.8h0.9l0,1.2h0c0.3-0.8,0.9-1.3,1.6-1.3c0.1,0,0.2,0,0.3,0v1c-0.1,0-0.2,0-0.4,0
			c-0.7,0-1.3,0.6-1.4,1.3c0,0.1,0,0.3,0,0.5v3.1h-1.1V378.8z"/>
		<path class="st1" d="M482.8,378.8c0-0.7,0-1.3,0-1.8h0.9l0,1.2h0c0.3-0.8,0.9-1.3,1.6-1.3c0.1,0,0.2,0,0.3,0v1c-0.1,0-0.2,0-0.4,0
			c-0.7,0-1.3,0.6-1.4,1.3c0,0.1,0,0.3,0,0.5v3.1h-1.1V378.8z"/>
		<path class="st1" d="M491.8,379.9c0,2.1-1.5,3.1-2.9,3.1c-1.6,0-2.8-1.2-2.8-3c0-1.9,1.3-3.1,2.9-3.1
			C490.7,376.9,491.8,378.1,491.8,379.9z M487.2,379.9c0,1.3,0.7,2.2,1.8,2.2c1,0,1.8-0.9,1.8-2.3c0-1-0.5-2.2-1.7-2.2
			C487.8,377.7,487.2,378.8,487.2,379.9z"/>
		<path class="st1" d="M493.2,374.3h1.1v8.5h-1.1V374.3z"/>
		<path class="st1" d="M496,374.3h1.1v8.5H496V374.3z"/>
		<path class="st1" d="M502.9,381.4c0,0.5,0,1,0.1,1.4H502l-0.1-0.7h0c-0.3,0.5-0.9,0.9-1.8,0.9c-1.2,0-1.8-0.8-1.8-1.7
			c0-1.4,1.2-2.2,3.5-2.2V379c0-0.5-0.1-1.3-1.3-1.3c-0.6,0-1.1,0.2-1.5,0.4l-0.2-0.7c0.5-0.3,1.2-0.5,1.9-0.5
			c1.8,0,2.2,1.2,2.2,2.4L502.9,381.4L502.9,381.4z M501.9,379.9c-1.2,0-2.5,0.2-2.5,1.3c0,0.7,0.5,1,1,1c0.8,0,1.3-0.5,1.4-1
			c0-0.1,0-0.2,0-0.3V379.9z"/>
		<path class="st1" d="M509.6,374.3v7c0,0.5,0,1.1,0,1.5h-0.9l0-1h0c-0.3,0.6-1,1.1-2,1.1c-1.4,0-2.5-1.2-2.5-3
			c0-1.9,1.2-3.1,2.6-3.1c0.9,0,1.5,0.4,1.8,0.9h0v-3.5L509.6,374.3L509.6,374.3z M508.6,379.4c0-0.1,0-0.3,0-0.4
			c-0.2-0.7-0.7-1.2-1.5-1.2c-1.1,0-1.7,1-1.7,2.2c0,1.2,0.6,2.1,1.7,2.1c0.7,0,1.4-0.5,1.5-1.3c0-0.1,0-0.3,0-0.5L508.6,379.4
			L508.6,379.4z"/>
		<path class="st1" d="M516.6,379.9c0,2.1-1.5,3.1-2.9,3.1c-1.6,0-2.8-1.2-2.8-3c0-1.9,1.3-3.1,2.9-3.1
			C515.5,376.9,516.6,378.1,516.6,379.9z M512,379.9c0,1.3,0.7,2.2,1.8,2.2c1,0,1.8-0.9,1.8-2.3c0-1-0.5-2.2-1.7-2.2
			C512.6,377.7,512,378.8,512,379.9z"/>
		<path class="st1" d="M520.5,378.9c0-0.7,0-1.3,0-1.9h0.9l0.1,1h0c0.4-0.7,1.1-1.1,2.1-1.1c1.4,0,2.5,1.2,2.5,2.9
			c0,2.1-1.3,3.1-2.7,3.1c-0.8,0-1.4-0.3-1.8-0.9h0v3.2h-1L520.5,378.9L520.5,378.9z M521.6,380.5c0,0.2,0,0.3,0,0.4
			c0.2,0.7,0.8,1.2,1.6,1.2c1.1,0,1.8-0.9,1.8-2.2c0-1.2-0.6-2.1-1.7-2.1c-0.7,0-1.4,0.5-1.6,1.3c0,0.1-0.1,0.3-0.1,0.4L521.6,380.5
			L521.6,380.5z"/>
		<path class="st1" d="M532.6,379.9c0,2.1-1.5,3.1-2.9,3.1c-1.6,0-2.8-1.2-2.8-3c0-1.9,1.3-3.1,2.9-3.1
			C531.5,376.9,532.6,378.1,532.6,379.9z M528,379.9c0,1.3,0.7,2.2,1.8,2.2c1,0,1.8-0.9,1.8-2.3c0-1-0.5-2.2-1.7-2.2
			C528.5,377.7,528,378.8,528,379.9z"/>
		<path class="st1" d="M533.9,378.8c0-0.7,0-1.3,0-1.8h0.9l0,1.2h0c0.3-0.8,0.9-1.3,1.6-1.3c0.1,0,0.2,0,0.3,0v1c-0.1,0-0.2,0-0.4,0
			c-0.7,0-1.3,0.6-1.4,1.3c0,0.1,0,0.3,0,0.5v3.1h-1.1L533.9,378.8L533.9,378.8z"/>
		<path class="st1" d="M546.1,382.6c-0.4,0.2-1.2,0.4-2.1,0.4c-2.3,0-4-1.4-4-4.1c0-2.5,1.7-4.2,4.2-4.2c1,0,1.6,0.2,1.9,0.4
			l-0.3,0.9c-0.4-0.2-0.9-0.3-1.6-0.3c-1.9,0-3.2,1.2-3.2,3.3c0,2,1.1,3.2,3.1,3.2c0.6,0,1.3-0.1,1.7-0.3L546.1,382.6z"/>
		<path class="st1" d="M552.5,379.9c0,2.1-1.5,3.1-2.9,3.1c-1.6,0-2.8-1.2-2.8-3c0-1.9,1.3-3.1,2.9-3.1
			C551.4,376.9,552.5,378.1,552.5,379.9z M547.9,379.9c0,1.3,0.7,2.2,1.8,2.2c1,0,1.8-0.9,1.8-2.3c0-1-0.5-2.2-1.7-2.2
			C548.4,377.7,547.9,378.8,547.9,379.9z"/>
		<path class="st1" d="M553.8,378.8c0-0.7,0-1.3,0-1.8h0.9l0,1.2h0c0.3-0.8,0.9-1.3,1.6-1.3c0.1,0,0.2,0,0.3,0v1c-0.1,0-0.2,0-0.4,0
			c-0.7,0-1.3,0.6-1.4,1.3c0,0.1,0,0.3,0,0.5v3.1h-1.1L553.8,378.8L553.8,378.8z"/>
		<path class="st1" d="M557.8,378.9c0-0.7,0-1.3,0-1.9h0.9l0.1,1h0c0.4-0.7,1.1-1.1,2.1-1.1c1.4,0,2.5,1.2,2.5,2.9
			c0,2.1-1.3,3.1-2.7,3.1c-0.8,0-1.4-0.3-1.8-0.9h0v3.2h-1L557.8,378.9L557.8,378.9z M558.8,380.5c0,0.2,0,0.3,0,0.4
			c0.2,0.7,0.8,1.2,1.6,1.2c1.1,0,1.8-0.9,1.8-2.2c0-1.2-0.6-2.1-1.7-2.1c-0.7,0-1.4,0.5-1.6,1.3c0,0.1-0.1,0.3-0.1,0.4L558.8,380.5
			L558.8,380.5z"/>
		<path class="st1" d="M569.9,379.9c0,2.1-1.5,3.1-2.9,3.1c-1.6,0-2.8-1.2-2.8-3c0-1.9,1.3-3.1,2.9-3.1
			C568.7,376.9,569.9,378.1,569.9,379.9z M565.3,379.9c0,1.3,0.7,2.2,1.8,2.2c1,0,1.8-0.9,1.8-2.3c0-1-0.5-2.2-1.7-2.2
			C565.8,377.7,565.3,378.8,565.3,379.9z"/>
		<path class="st1" d="M571.2,378.8c0-0.7,0-1.3,0-1.8h0.9l0,1.2h0c0.3-0.8,0.9-1.3,1.6-1.3c0.1,0,0.2,0,0.3,0v1c-0.1,0-0.2,0-0.4,0
			c-0.7,0-1.3,0.6-1.4,1.3c0,0.1,0,0.3,0,0.5v3.1h-1.1L571.2,378.8L571.2,378.8z"/>
		<path class="st1" d="M579.1,381.4c0,0.5,0,1,0.1,1.4h-0.9l-0.1-0.7h0c-0.3,0.5-0.9,0.9-1.8,0.9c-1.2,0-1.8-0.8-1.8-1.7
			c0-1.4,1.2-2.2,3.5-2.2V379c0-0.5-0.1-1.3-1.3-1.3c-0.6,0-1.1,0.2-1.5,0.4l-0.2-0.7c0.5-0.3,1.2-0.5,1.9-0.5
			c1.8,0,2.2,1.2,2.2,2.4L579.1,381.4L579.1,381.4z M578.1,379.9c-1.2,0-2.5,0.2-2.5,1.3c0,0.7,0.5,1,1,1c0.8,0,1.3-0.5,1.4-1
			c0-0.1,0-0.2,0-0.3L578.1,379.9L578.1,379.9z"/>
		<path class="st1" d="M585,382.6c-0.3,0.1-0.9,0.3-1.7,0.3c-1.8,0-2.9-1.2-2.9-3c0-1.8,1.2-3.1,3.1-3.1c0.6,0,1.2,0.2,1.5,0.3
			l-0.2,0.8c-0.3-0.1-0.6-0.3-1.2-0.3c-1.3,0-2.1,1-2.1,2.2c0,1.3,0.9,2.2,2,2.2c0.6,0,1-0.1,1.3-0.3L585,382.6z"/>
		<path class="st1" d="M587.4,375.4c0,0.4-0.3,0.6-0.7,0.6c-0.4,0-0.6-0.3-0.6-0.6c0-0.4,0.3-0.7,0.7-0.7
			C587.1,374.7,587.4,375,587.4,375.4z M586.2,382.8V377h1.1v5.8H586.2z"/>
		<path class="st1" d="M594.3,379.9c0,2.1-1.5,3.1-2.9,3.1c-1.6,0-2.8-1.2-2.8-3c0-1.9,1.3-3.1,2.9-3.1
			C593.2,376.9,594.3,378.1,594.3,379.9z M589.7,379.9c0,1.3,0.7,2.2,1.8,2.2c1,0,1.8-0.9,1.8-2.3c0-1-0.5-2.2-1.7-2.2
			C590.2,377.7,589.7,378.8,589.7,379.9z M593,374.5l-1.5,1.7h-0.7l1-1.7H593z"/>
		<path class="st1" d="M595.6,378.6c0-0.6,0-1.1,0-1.6h0.9l0.1,1h0c0.3-0.5,1-1.1,1.9-1.1c0.8,0,2.1,0.5,2.1,2.5v3.5h-1.1v-3.3
			c0-0.9-0.3-1.7-1.3-1.7c-0.7,0-1.2,0.5-1.4,1.1c0,0.1-0.1,0.3-0.1,0.5v3.5h-1.1V378.6z"/>
		<path class="st1" d="M606.2,380.3l-0.8,2.5h-1.1l2.8-8.1h1.2l2.8,8.1h-1.1l-0.9-2.5L606.2,380.3L606.2,380.3z M608.8,379.5
			l-0.8-2.3c-0.2-0.5-0.3-1-0.4-1.5h0c-0.1,0.5-0.2,1-0.4,1.5l-0.8,2.3H608.8z"/>
		<path class="st1" d="M613.3,382.8l-2.7-8.1h1.1l1.3,4c0.3,1.1,0.6,2.1,0.9,3h0c0.2-0.9,0.6-2,0.9-3l1.4-4h1.1l-2.9,8.1
			L613.3,382.8L613.3,382.8z"/>
		<path class="st1" d="M618.3,374.9c0.5-0.1,1.3-0.2,2-0.2c1.1,0,1.8,0.2,2.3,0.7c0.4,0.4,0.6,0.9,0.6,1.5c0,1.1-0.7,1.8-1.5,2.1v0
			c0.6,0.2,1,0.8,1.2,1.6c0.3,1.1,0.5,1.9,0.6,2.2h-1.1c-0.1-0.2-0.3-0.9-0.5-1.9c-0.2-1.1-0.7-1.5-1.6-1.6h-1v3.5h-1L618.3,374.9
			L618.3,374.9z M619.3,378.5h1.1c1.1,0,1.8-0.6,1.8-1.5c0-1-0.8-1.5-1.9-1.5c-0.5,0-0.9,0-1,0.1V378.5z"/>
		<path class="st1" d="M628.9,379h-3.1v2.9h3.5v0.9h-4.6v-8.1h4.4v0.9h-3.3v2.6h3.1V379z"/>
		<path class="st1" d="M629.9,384.3c0.3-0.7,0.6-2,0.7-2.9l1.2-0.1c-0.3,1-0.8,2.4-1.2,2.9L629.9,384.3z"/>
		<path class="st1" d="M641.2,382.6c-0.4,0.2-1.2,0.4-2.1,0.4c-2.3,0-4-1.4-4-4.1c0-2.5,1.7-4.2,4.2-4.2c1,0,1.6,0.2,1.9,0.4
			l-0.3,0.9c-0.4-0.2-0.9-0.3-1.6-0.3c-1.9,0-3.2,1.2-3.2,3.3c0,2,1.1,3.2,3.1,3.2c0.6,0,1.3-0.1,1.7-0.3L641.2,382.6z"/>
		<path class="st1" d="M647.7,379.9c0,2.1-1.5,3.1-2.9,3.1c-1.6,0-2.8-1.2-2.8-3c0-1.9,1.3-3.1,2.9-3.1
			C646.5,376.9,647.7,378.1,647.7,379.9z M643.1,379.9c0,1.3,0.7,2.2,1.8,2.2c1,0,1.8-0.9,1.8-2.3c0-1-0.5-2.2-1.7-2.2
			C643.6,377.7,643.1,378.8,643.1,379.9z"/>
		<path class="st1" d="M649,378.8c0-0.7,0-1.3,0-1.8h0.9l0,1.2h0c0.3-0.8,0.9-1.3,1.6-1.3c0.1,0,0.2,0,0.3,0v1c-0.1,0-0.2,0-0.4,0
			c-0.7,0-1.3,0.6-1.4,1.3c0,0.1,0,0.3,0,0.5v3.1H649L649,378.8L649,378.8z"/>
		<path class="st1" d="M653,378.9c0-0.7,0-1.3,0-1.9h0.9l0.1,1h0c0.4-0.7,1.1-1.1,2.1-1.1c1.4,0,2.5,1.2,2.5,2.9
			c0,2.1-1.3,3.1-2.7,3.1c-0.8,0-1.4-0.3-1.8-0.9h0v3.2h-1L653,378.9L653,378.9z M654,380.5c0,0.2,0,0.3,0,0.4
			c0.2,0.7,0.8,1.2,1.6,1.2c1.1,0,1.8-0.9,1.8-2.2c0-1.2-0.6-2.1-1.7-2.1c-0.7,0-1.4,0.5-1.6,1.3c0,0.1-0.1,0.3-0.1,0.4L654,380.5
			L654,380.5z"/>
		<path class="st1" d="M665,379.9c0,2.1-1.5,3.1-2.9,3.1c-1.6,0-2.8-1.2-2.8-3c0-1.9,1.3-3.1,2.9-3.1
			C663.9,376.9,665,378.1,665,379.9z M660.4,379.9c0,1.3,0.7,2.2,1.8,2.2c1,0,1.8-0.9,1.8-2.3c0-1-0.5-2.2-1.7-2.2
			C661,377.7,660.4,378.8,660.4,379.9z"/>
		<path class="st1" d="M666.4,378.8c0-0.7,0-1.3,0-1.8h0.9l0,1.2h0c0.3-0.8,0.9-1.3,1.6-1.3c0.1,0,0.2,0,0.3,0v1c-0.1,0-0.2,0-0.4,0
			c-0.7,0-1.3,0.6-1.4,1.3c0,0.1,0,0.3,0,0.5v3.1h-1.1L666.4,378.8L666.4,378.8z"/>
		<path class="st1" d="M674.3,381.4c0,0.5,0,1,0.1,1.4h-0.9l-0.1-0.7h0c-0.3,0.5-0.9,0.9-1.8,0.9c-1.2,0-1.8-0.8-1.8-1.7
			c0-1.4,1.2-2.2,3.5-2.2V379c0-0.5-0.1-1.3-1.3-1.3c-0.6,0-1.1,0.2-1.5,0.4l-0.2-0.7c0.5-0.3,1.2-0.5,1.9-0.5
			c1.8,0,2.2,1.2,2.2,2.4L674.3,381.4L674.3,381.4z M673.3,379.9c-1.2,0-2.5,0.2-2.5,1.3c0,0.7,0.5,1,1,1c0.8,0,1.3-0.5,1.4-1
			c0-0.1,0-0.2,0-0.3L673.3,379.9L673.3,379.9z"/>
		<path class="st1" d="M680.2,382.6c-0.3,0.1-0.9,0.3-1.7,0.3c-1.8,0-2.9-1.2-2.9-3c0-1.8,1.2-3.1,3.1-3.1c0.6,0,1.2,0.2,1.5,0.3
			l-0.2,0.8c-0.3-0.1-0.6-0.3-1.2-0.3c-1.3,0-2.1,1-2.1,2.2c0,1.3,0.9,2.2,2,2.2c0.6,0,1-0.1,1.3-0.3L680.2,382.6z"/>
		<path class="st1" d="M682.6,375.4c0,0.4-0.3,0.6-0.7,0.6c-0.4,0-0.6-0.3-0.6-0.6c0-0.4,0.3-0.7,0.7-0.7
			C682.3,374.7,682.6,375,682.6,375.4z M681.4,382.8V377h1.1v5.8H681.4z"/>
		<path class="st1" d="M689.5,379.9c0,2.1-1.5,3.1-2.9,3.1c-1.6,0-2.8-1.2-2.8-3c0-1.9,1.3-3.1,2.9-3.1
			C688.3,376.9,689.5,378.1,689.5,379.9z M684.9,379.9c0,1.3,0.7,2.2,1.8,2.2c1,0,1.8-0.9,1.8-2.3c0-1-0.5-2.2-1.7-2.2
			C685.4,377.7,684.9,378.8,684.9,379.9z M688.2,374.5l-1.5,1.7H686l1-1.7H688.2z"/>
		<path class="st1" d="M690.8,378.6c0-0.6,0-1.1,0-1.6h0.9l0.1,1h0c0.3-0.5,1-1.1,1.9-1.1c0.8,0,2.1,0.5,2.1,2.5v3.5h-1.1v-3.3
			c0-0.9-0.3-1.7-1.3-1.7c-0.7,0-1.2,0.5-1.4,1.1c0,0.1-0.1,0.3-0.1,0.5v3.5h-1.1V378.6z"/>
		<path class="st1" d="M701.4,382.8l-2.7-8.1h1.1l1.3,4c0.3,1.1,0.6,2.1,0.9,3h0c0.2-0.9,0.6-2,0.9-3l1.4-4h1.1l-2.9,8.1
			L701.4,382.8L701.4,382.8z"/>
		<path class="st1" d="M708.2,374.5l-1.5,1.7H706l1.1-1.7H708.2z M706.1,382.8V377h1.1v5.8H706.1z"/>
		<path class="st1" d="M708.9,378.6c0-0.6,0-1.1,0-1.6h0.9l0.1,1h0c0.3-0.5,1-1.1,1.9-1.1c0.8,0,2.1,0.5,2.1,2.5v3.5h-1.1v-3.3
			c0-0.9-0.3-1.7-1.3-1.7c-0.7,0-1.2,0.5-1.4,1.1c0,0.1-0.1,0.3-0.1,0.5v3.5h-1.1V378.6z"/>
		<path class="st1" d="M719.7,382.6c-0.3,0.1-0.9,0.3-1.7,0.3c-1.8,0-2.9-1.2-2.9-3c0-1.8,1.2-3.1,3.1-3.1c0.6,0,1.2,0.2,1.5,0.3
			l-0.2,0.8c-0.3-0.1-0.6-0.3-1.2-0.3c-1.3,0-2.1,1-2.1,2.2c0,1.3,0.9,2.2,2,2.2c0.6,0,1-0.1,1.3-0.3L719.7,382.6z"/>
		<path class="st1" d="M725.8,381.2c0,0.6,0,1.1,0,1.6h-0.9l-0.1-0.9h0c-0.3,0.5-0.9,1.1-1.9,1.1c-0.9,0-2-0.5-2-2.5V377h1.1v3.2
			c0,1.1,0.3,1.9,1.3,1.9c0.7,0,1.2-0.5,1.4-1c0.1-0.1,0.1-0.3,0.1-0.5V377h1.1L725.8,381.2L725.8,381.2z"/>
		<path class="st1" d="M727.5,374.3h1.1v8.5h-1.1V374.3z"/>
		<path class="st1" d="M735.6,379.9c0,2.1-1.5,3.1-2.9,3.1c-1.6,0-2.8-1.2-2.8-3c0-1.9,1.3-3.1,2.9-3.1
			C734.5,376.9,735.6,378.1,735.6,379.9z M731,379.9c0,1.3,0.7,2.2,1.8,2.2c1,0,1.8-0.9,1.8-2.3c0-1-0.5-2.2-1.7-2.2
			C731.6,377.7,731,378.8,731,379.9z"/>
		<path class="st1" d="M736.8,381.8c0.3,0.2,0.9,0.4,1.4,0.4c0.8,0,1.1-0.4,1.1-0.9c0-0.5-0.3-0.8-1.1-1.1c-1.1-0.4-1.5-0.9-1.5-1.6
			c0-0.9,0.8-1.7,2-1.7c0.6,0,1.1,0.2,1.4,0.4l-0.3,0.8c-0.2-0.1-0.6-0.3-1.2-0.3c-0.6,0-1,0.4-1,0.8c0,0.5,0.3,0.7,1.1,1
			c1,0.4,1.5,0.9,1.5,1.7c0,1-0.8,1.8-2.2,1.8c-0.6,0-1.2-0.2-1.6-0.4L736.8,381.8z"/>
		<path class="st1" d="M741.3,382.2c0-0.4,0.3-0.8,0.7-0.8c0.4,0,0.7,0.3,0.7,0.8c0,0.4-0.3,0.8-0.7,0.8
			C741.6,383,741.3,382.6,741.3,382.2z"/>
	</g>
</g>
<g>
	<g>
		<g>
			<rect x="260.9" y="14.3" class="st2" width="34.5" height="43.3"/>
		</g>
		<path class="st3" d="M284.5,22.3c-0.1,6.2-0.2,12.4-0.2,18.6c0,3.1,0,6.2,0.1,9.3l-6.6,0.3c-0.1-7.9-0.3-15.3-0.5-22
			c-1.5,0.2-3.5,0.8-6.1,1.7l-1.3-4.3l7.4-3.5L284.5,22.3z"/>
	</g>
	<g>
		<g>
			<rect x="305.1" y="14.3" class="st2" width="34.5" height="43.3"/>
		</g>
		<path class="st3" d="M312.6,31.5c-0.1-0.8-0.1-1.5-0.1-2.2c0-2.4,0.6-4.1,1.7-5.1c1.5-1.3,3.3-2.1,5.6-2.4
			c0.8-0.1,1.6-0.1,2.4-0.1c1.4,0,2.7,0.1,4,0.4c2,0.5,3.5,1.4,4.6,2.7c0.8,1.1,1.2,2.6,1.2,4.4c0,0.3,0,0.7,0,1.1
			c-0.2,2.3-1.1,4.4-2.8,6.3s-4.4,4.6-8.4,8.2l11.6,0.1l-0.1,5c-5.1,0.2-11.6,0.3-19.7,0.3l-0.6-5.4c4.8-3.9,8.3-6.9,10.3-9
			c1.9-1.9,2.8-3.8,2.8-5.6v-0.5c-0.2-2-1.3-3-3.3-3h-0.1c-1.8,0-2.7,1.2-2.7,3.6c0,0.4,0,0.9,0.1,1.4L312.6,31.5z"/>
	</g>
	<g>
		<g>
			<rect x="349.4" y="14.3" class="st2" width="34.5" height="43.3"/>
		</g>
		<path class="st3" d="M356.8,31.3c-0.1-0.7-0.1-1.4-0.1-2c0-2.1,0.4-3.7,1.3-4.9c1.1-1.5,2.9-2.4,5.3-2.7c1.2-0.2,2.4-0.3,3.5-0.3
			c1.1,0,2.2,0.1,3.2,0.3c2,0.4,3.5,1.2,4.7,2.4c1.2,1.2,1.8,2.9,1.9,5.1v0.6c0,1.9-0.4,3.2-1.2,4.1c-0.9,1-2.3,1.7-4.3,2.2
			c1.6,0.2,2.9,0.6,3.7,1.3c0.8,0.7,1.4,1.7,1.7,2.8c0.2,0.7,0.3,1.4,0.3,2.2c0,0.6-0.1,1.3-0.2,2.1c-0.3,1.7-1.2,3.1-2.7,4.3
			c-1.5,1.2-3.9,1.8-7.1,1.9h-0.4c-3,0-5.4-0.6-7.2-1.7c-1.9-1.2-2.8-3.7-2.8-7.7v-0.1l6.9-0.3c0,0.2,0,0.4,0,0.7
			c0,2.8,1,4.2,2.9,4.3c0.1,0,0.3,0,0.4,0c1.8,0,3-0.7,3.3-2.2c0.1-0.4,0.2-0.8,0.2-1.2c0-1-0.4-1.9-1.2-2.7c-1.1-1-2.9-1.5-5.4-1.5
			l-0.3-3.8c0.3,0,0.6,0,0.9,0c2.2,0,3.7-0.5,4.6-1.4c0.8-0.9,1.2-2,1.2-3.4c0-0.3,0-0.6-0.1-0.9c-0.2-1.7-1.2-2.5-3.1-2.5h-0.3
			c-1.9,0.1-2.8,1.5-2.8,4.2c0,0.3,0,0.7,0,1L356.8,31.3z"/>
	</g>
	<g>
		<g>
			<rect x="393.6" y="14.3" class="st2" width="34.5" height="43.3"/>
		</g>
		<path class="st3" d="M400.5,41.7l-0.6-4.7c3-5,6.6-10.1,10.6-15.4l8.6,0.4L419,37.2l3.7,0.1V42h-3.6v8.3l-6.4-0.2l0.1-8.3
			L400.5,41.7z M412.8,37.2l0.1-10.2c-1.9,3.4-4,6.7-6.2,10.1L412.8,37.2z"/>
	</g>
	<g>
		<g>
			<rect x="437.8" y="14.3" class="st2" width="34.5" height="43.3"/>
		</g>
		<path class="st3" d="M444.9,41.5l6.2-0.4c0,2.9,1.2,4.3,3.7,4.3c2.4,0,3.7-0.9,4-2.6c0.1-0.8,0.1-1.6,0.1-2.4
			c0-0.9-0.1-1.9-0.2-2.8c-0.2-1.7-1.2-2.6-2.9-2.6h-0.2c-1.8,0.1-3.1,1.1-3.9,3.1l-6.5-0.1l0.7-16.4l17.9-0.2l0.1,4.8l-11.8,0.2
			l-0.5,6.7c0.8-1.8,2.3-2.8,4.4-3c0.5-0.1,1-0.1,1.5-0.1c1.5,0,3,0.3,4.3,0.9c1.7,0.8,2.8,2.7,3.2,5.7c0.1,1,0.2,2,0.2,3
			c0,1.8-0.3,3.6-0.8,5.2c-0.8,2.5-2.4,4.1-4.8,4.7c-1.7,0.4-3.4,0.7-5.1,0.7c-0.7,0-1.4,0-2.1-0.1c-2.4-0.2-4.3-1-5.7-2.3
			c-1.3-1.2-1.9-3-1.9-5.4C444.8,42,444.8,41.8,444.9,41.5z"/>
	</g>
	<g>
		<g>
			<rect x="482" y="14.3" class="st2" width="34.5" height="43.3"/>
		</g>
		<path class="st3" d="M495.6,36.4c1.4-1.9,3.4-2.9,6-2.9h0.1c2.6,0,4.6,0.7,6,2.2c1.4,1.4,2.1,3.1,2.2,4.9v0.5
			c0,1.7-0.4,3.4-1.2,5.1c-0.9,1.8-2.2,3.1-4,3.7c-1.3,0.5-2.8,0.7-4.5,0.7c-0.6,0-1.2,0-1.9-0.1c-2.4-0.2-4.4-1.1-5.8-2.5
			c-1.5-1.4-2.5-3.4-3.1-5.7c-0.5-1.8-0.7-3.7-0.7-5.9c0-0.8,0-1.6,0.1-2.4c0.2-3.1,0.7-5.7,1.6-7.6c0.9-2,2.1-3.4,3.8-4.2
			c1.6-0.8,3.5-1.2,5.6-1.2h0.2c2.2,0,4,0.5,5.5,1.6c1.5,1,2.5,2.4,2.9,4.2c0.3,1.2,0.4,2.3,0.4,3.4c0,0.6,0,1.2-0.1,1.7h-6
			c0-0.5,0.1-0.9,0.1-1.3c0-2.5-0.6-3.8-1.8-4.1c-0.3-0.1-0.6-0.1-0.9-0.1c-1,0-1.9,0.4-2.6,1.2c-0.9,1-1.5,2.4-1.7,4.2
			c-0.2,1.2-0.2,2.3-0.2,3.3C495.5,35.5,495.6,35.9,495.6,36.4z M496.1,40.1c0,1.7,0.3,3,0.9,3.9c0.6,0.9,1.4,1.4,2.6,1.5
			c0.2,0,0.4,0,0.6,0c0.9,0,1.7-0.3,2.4-0.8c0.8-0.6,1.1-1.7,1.1-3.2v-0.4c-0.1-1.8-0.9-2.8-2.5-3.1c-0.2,0-0.5-0.1-0.7-0.1
			C499.1,38,497.6,38.7,496.1,40.1z"/>
	</g>
	<g>
		<g>
			<rect x="526.3" y="14.3" class="st2" width="34.5" height="43.3"/>
		</g>
		<path class="st3" d="M534.1,27.1l0.3-5c6.4-0.1,12.6-0.1,18.5-0.2v5c-4.9,7.5-7.8,15-8.6,22.4l-6.3-0.5c0.8-7.2,3.3-14.4,7.7-21.8
			L534.1,27.1z"/>
	</g>
	<g>
		<g>
			<rect x="570.5" y="14.3" class="st2" width="34.5" height="43.3"/>
		</g>
		<path class="st3" d="M593.3,36.3c2.4,0.8,3.9,2,4.5,3.5c0.4,1.1,0.6,2.1,0.6,3.2c0,0.5,0,1-0.1,1.5c-0.3,1.7-1.2,3.1-2.7,4.3
			s-3.9,1.8-7.1,1.9H588c-3,0-5.4-0.6-7.2-1.7c-1.9-1.2-2.9-2.9-2.9-5.1c0-0.1,0-0.3,0-0.4c0-2,0.5-3.6,1.5-4.8
			c1.1-1.3,2.5-2.1,4.1-2.4c-1.2-0.4-2.4-1.1-3.6-2.1c-1.2-1.1-1.9-2.6-1.9-4.6v-0.2c0-1.9,0.5-3.6,1.6-5c1.1-1.5,2.9-2.4,5.3-2.7
			c1.2-0.2,2.4-0.3,3.5-0.3c1.1,0,2.2,0.1,3.2,0.3c2,0.4,3.5,1.2,4.7,2.4c1.2,1.2,1.8,2.9,1.9,4.9v0.6c0,1.8-0.4,3.1-1.2,4.1
			C596.1,34.9,594.9,35.7,593.3,36.3z M588.2,38.3c-1.8,0.7-2.9,1.6-3.2,2.5c-0.2,0.6-0.3,1.1-0.3,1.6c0,0.4,0.1,0.8,0.2,1.1
			c0.2,0.9,0.7,1.5,1.4,1.9c0.5,0.3,1.1,0.4,1.7,0.4c0.2,0,0.5,0,0.8-0.1c1-0.1,1.7-0.5,2.2-1c0.5-0.5,0.7-1.2,0.8-2.1
			c0-0.1,0-0.2,0-0.3c0-0.8-0.2-1.5-0.6-2.2C590.7,39.5,589.7,38.8,588.2,38.3z M588.2,33.4c1.8-0.6,2.9-1.6,3.2-2.9
			c0.1-0.5,0.2-1,0.2-1.4c0-0.7-0.2-1.2-0.5-1.7c-0.5-0.7-1.3-1.1-2.5-1.2h-0.2c-1.1,0-2,0.3-2.6,1c-0.5,0.6-0.7,1.3-0.7,2.1
			c0,0.3,0,0.7,0.1,1C585.4,31.8,586.4,32.8,588.2,33.4z"/>
	</g>
	<g>
		<g>
			<rect x="614.7" y="14.3" class="st2" width="34.5" height="43.3"/>
		</g>
		<path class="st3" d="M635.8,37.1c-1.4,1.9-3.4,2.9-6,2.9c0,0,0,0,0,0c-2.7,0-4.7-0.7-6.2-2.1c-1.5-1.4-2.2-3.4-2.3-6
			c0-0.2,0-0.4,0-0.6c0-2.3,0.4-4.3,1.3-6c0.9-1.8,2.4-3.1,4.4-3.7c1.5-0.4,3-0.7,4.6-0.7c0.6,0,1.2,0,1.8,0.1
			c2.2,0.2,4.1,1.1,5.6,2.5c1.5,1.4,2.5,3.3,3.1,5.7c0.5,1.8,0.7,3.7,0.7,5.9c0,0.8,0,1.5-0.1,2.3c-0.2,3.1-0.8,5.7-1.6,7.6
			c-0.9,2-2.1,3.4-3.8,4.2c-1.6,0.8-3.6,1.2-5.9,1.2c-0.1,0-0.1,0-0.2,0c-2.4,0-4.4-0.7-6-1.9c-1.6-1.2-2.4-3.5-2.4-6.7v-0.3h6
			c0,0.3-0.1,0.6-0.1,0.9c0,1.5,0.5,2.4,1.6,2.9c0.5,0.2,1,0.4,1.5,0.4c0.7,0,1.4-0.2,2.1-0.7c1.2-0.7,1.8-1.9,1.9-3.6
			c0.1-0.9,0.1-1.8,0.1-2.6C635.8,38.3,635.8,37.6,635.8,37.1z M635.5,33.3c0-0.4,0-0.9,0-1.3c0-1.9-0.3-3.3-0.8-4.2
			c-0.7-1.1-1.6-1.8-2.7-1.9c-0.2,0-0.3,0-0.5,0c-1,0-1.8,0.4-2.6,1.1c-0.9,0.8-1.3,2.2-1.3,4.2v0.5c0.1,2.3,1.1,3.5,3,3.7
			c0.2,0,0.4,0,0.6,0C633,35.4,634.4,34.7,635.5,33.3z"/>
	</g>
	<g>
		<g>
			<rect x="659" y="14.3" class="st2" width="44.7" height="43.3"/>
		</g>
		<path class="st3" d="M675.8,22.3c-0.1,6.2-0.2,12.4-0.2,18.6c0,3.1,0,6.2,0.1,9.3l-6.6,0.3c-0.1-7.9-0.3-15.3-0.5-22
			c-1.5,0.2-3.5,0.8-6.1,1.7l-1.3-4.3l7.4-3.5L675.8,22.3z"/>
		<path class="st3" d="M689.6,21.7c7,0,10.5,4.8,10.5,14.3c0,9.5-3.7,14.3-11.2,14.3c-7.5,0-11.2-4.9-11.2-14.8
			C677.7,26.3,681.6,21.7,689.6,21.7z M684.9,36.1c0,0.4,0,0.7,0,1c0,5.2,1.4,7.8,4.3,7.8c3,0,4.6-3,4.6-8.9c0-5.9-1.4-8.9-4.3-8.9
			C686.6,27.3,685.1,30.2,684.9,36.1z"/>
	</g>
	<g>
		<g>
			<rect x="712.8" y="14.3" class="st2" width="44.7" height="43.3"/>
		</g>
		<path class="st3" d="M734.1,22.3c-0.1,6.2-0.2,12.4-0.2,18.6c0,3.1,0,6.2,0.1,9.3l-6.6,0.3c-0.1-7.9-0.3-15.3-0.5-22
			c-1.5,0.2-3.5,0.8-6.1,1.7l-1.3-4.3l7.4-3.5L734.1,22.3z"/>
		<path class="st3" d="M750.1,22.3c-0.1,6.2-0.2,12.4-0.2,18.6c0,3.1,0,6.2,0.1,9.3l-6.6,0.3c-0.1-7.9-0.3-15.3-0.5-22
			c-1.5,0.2-3.5,0.8-6.1,1.7l-1.3-4.3l7.4-3.5L750.1,22.3z"/>
	</g>
</g>
</svg>
