<?xml version="1.0" encoding="utf-8"?>
<!-- Generator: Adobe Illustrator 16.0.0, SVG Export Plug-In . SVG Version: 6.00 Build 0)  -->
<!DOCTYPE svg PUBLIC "-//W3C//DTD SVG 1.1//EN" "http://www.w3.org/Graphics/SVG/1.1/DTD/svg11.dtd">
<svg version="1.1" id="Capa_1" xmlns="http://www.w3.org/2000/svg" xmlns:xlink="http://www.w3.org/1999/xlink" x="0px" y="0px"
	 width="323.048px" height="428.178px" viewBox="0 0 323.048 428.178" enable-background="new 0 0 323.048 428.178"
	 xml:space="preserve">
<g>
	<g>
		<path fill="#2B1C48" d="M82.986,36.088c0.075-3.582,0.113-7.188,0.113-10.82c0-5.562-0.088-11.179-0.264-16.852
			c1.941-0.201,3.683-0.301,5.223-0.301c4.284,0,7.014,0.783,8.191,2.348c1.102,1.466,1.653,3.082,1.653,4.848
			c0,0.801-0.106,1.628-0.319,2.479c-0.727,2.755-2.255,4.503-4.584,5.241c1.628,0.226,2.861,1.103,3.701,2.631
			c0.801,1.478,1.202,5.197,1.202,11.158v0.809l-5.674,0.074c0.062-1.577,0.094-2.992,0.094-4.245c0-3.795-0.307-6.118-0.92-6.97
			c-0.702-0.951-1.534-1.428-2.499-1.428c-0.188,0-0.382,0.019-0.582,0.057c0.075,3.82,0.237,7.439,0.488,10.858L82.986,36.088z
			 M87.796,12.793l0.132,8.041c2.329-0.113,3.807-0.902,4.434-2.367c0.338-0.777,0.507-1.535,0.507-2.273
			c0-0.639-0.125-1.266-0.376-1.879c-0.45-1.064-1.571-1.597-3.362-1.597C88.717,12.718,88.271,12.742,87.796,12.793z"/>
		<path fill="#2B1C48" d="M111.58,9.299v5.297l-7.421-0.3v6.161l6.67-0.188l0.169,5.092h-5.955v4.771h7.796v5.336l-13-0.188
			c0.138-3.519,0.206-7.063,0.206-10.634c0-4.946-0.131-9.938-0.395-14.973C102.481,9.562,106.458,9.437,111.58,9.299z"/>
		<path fill="#2B1C48" d="M114.717,25.85l5.58-0.376c-0.075,0.776-0.113,1.478-0.113,2.104c0,2.843,0.708,4.264,2.123,4.264h0.075
			c1.716-0.049,2.574-0.964,2.574-2.742v-0.169c-0.063-1.892-1.685-3.745-4.866-5.562c-3.094-1.753-4.64-4.646-4.64-8.679
			c0-0.126,0.006-0.251,0.019-0.376c0.087-4.221,2.454-6.369,7.102-6.443h0.15c4.195,0,6.293,2.674,6.293,8.021
			c0,0.426-0.013,0.877-0.037,1.353l-4.903,0.282c0.05-0.564,0.075-1.084,0.075-1.56c0-2.241-0.545-3.362-1.635-3.362
			c-1.315,0-2.035,0.67-2.16,2.01c-0.013,0.188-0.02,0.375-0.02,0.563c0,1.114,0.332,2.154,0.996,3.118
			c0.764,1.115,2.076,2.136,3.936,3.062c1.86,0.928,3.159,2.198,3.898,3.814c0.526,1.164,0.789,2.404,0.789,3.719
			c0,0.502-0.038,1.015-0.112,1.541c-0.289,1.891-1.09,3.46-2.405,4.706c-1.314,1.246-3.081,1.925-5.298,2.038
			c-0.15,0.013-0.301,0.02-0.451,0.02c-2.017,0-3.7-0.74-5.053-2.217c-1.303-1.416-1.954-3.99-1.954-7.723
			C114.68,26.808,114.691,26.338,114.717,25.85z"/>
		<path fill="#2B1C48" d="M140.342,8.66c5.273,0,7.909,4.508,7.909,13.525c0,9.031-2.824,13.546-8.473,13.546
			s-8.473-4.679-8.473-14.034C131.306,13.006,134.317,8.66,140.342,8.66z M136.585,22.693c-0.013,0.326-0.019,0.639-0.019,0.939
			c0,4.722,1.102,7.082,3.306,7.082c2.343,0,3.514-2.674,3.514-8.021s-1.09-8.021-3.269-8.021
			C137.925,14.672,136.747,17.346,136.585,22.693z"/>
		<path fill="#2B1C48" d="M155.259,8.096c-0.226,6.525-0.338,12.117-0.338,16.777c0,1.854,0.019,3.562,0.056,5.129l8.379-0.414
			l0.132,6.125l-13.414,0.301c0.013-1.654,0.02-3.301,0.02-4.941c0-7.527-0.163-15.017-0.489-22.469L155.259,8.096z"/>
		<path fill="#2B1C48" d="M180.752,8.811v18.58c0,5.723-2.617,8.585-7.853,8.585h-0.413c-4.384-0.501-6.65-2.899-6.801-7.195
			c0-8.579-0.088-15.343-0.264-20.29h4.998c-0.126,2.831-0.188,6.156-0.188,9.977c0,2.68,0.031,5.61,0.094,8.791
			c0.025,2.33,0.864,3.495,2.518,3.495c0,0.013,0.007,0.019,0.019,0.019c1.641,0,2.462-1.49,2.462-4.471l-0.095-17.322
			L180.752,8.811z"/>
		<path fill="#2B1C48" d="M196.984,18.917l-4.171,0.019v-0.507c0-2.942-0.826-4.415-2.479-4.415c-1.767,0-2.649,2.719-2.649,8.154
			c0,6.123,0.927,9.186,2.78,9.186h0.02c1.854-0.012,2.78-1.515,2.78-4.508v-1.86h4.659v1.409c0,6.236-2.562,9.5-7.684,9.787
			c-0.15,0.014-0.301,0.02-0.451,0.02c-4.822,0-7.233-4.635-7.233-13.902c0-9.067,2.48-13.602,7.439-13.602
			c4.672,0,7.008,3.031,7.008,9.093C197.003,18.153,196.996,18.529,196.984,18.917z"/>
		<path fill="#2B1C48" d="M204.311,34.904l-4.678,0.433c0-9.192-0.15-17.822-0.451-25.888l5.354-0.451
			C204.398,17.502,204.323,26.138,204.311,34.904z"/>
		<path fill="#2B1C48" d="M214.962,8.66c5.273,0,7.909,4.508,7.909,13.525c0,9.031-2.824,13.546-8.473,13.546
			s-8.473-4.679-8.473-14.034C205.926,13.006,208.938,8.66,214.962,8.66z M211.205,22.693c-0.013,0.326-0.019,0.639-0.019,0.939
			c0,4.722,1.102,7.082,3.306,7.082c2.343,0,3.514-2.674,3.514-8.021s-1.09-8.021-3.269-8.021
			C212.545,14.672,211.367,17.346,211.205,22.693z M212.163,4.978c1.466-1.741,2.668-3.4,3.607-4.979l3.081,2.442
			c-1.328,1.303-2.806,2.899-4.434,4.791L212.163,4.978z"/>
		<path fill="#2B1C48" d="M224.299,35.807c0.15-4.283,0.226-8.454,0.226-12.512c0-4.685-0.101-9.225-0.301-13.621l5.523-0.263
			l5.072,14.146c-0.05-4.859-0.188-9.831-0.413-14.917l5.806-0.074c-0.577,7.677-0.864,15.43-0.864,23.258
			c0,1.051,0.006,2.104,0.019,3.156l-5.092,0.056l-5.41-15.142c0.163,5.586,0.312,10.777,0.451,15.574L224.299,35.807z"/>
		<path fill="#2B1C48" d="M91.572,43.438c-0.088,5.912-0.131,11.792-0.131,17.641c0,2.931,0.012,5.855,0.037,8.773l-4.659,0.244
			c-0.088-7.527-0.194-14.497-0.319-20.91c-1.052,0.214-2.479,0.74-4.283,1.578l-0.901-4.113l5.223-3.307L91.572,43.438z"/>
		<path fill="#2B1C48" d="M102.9,43.438c-0.088,5.912-0.131,11.792-0.131,17.641c0,2.931,0.012,5.855,0.037,8.773l-4.659,0.244
			c-0.088-7.527-0.194-14.497-0.319-20.91c-1.052,0.214-2.479,0.74-4.283,1.578l-0.901-4.113l5.223-3.307L102.9,43.438z"/>
		<path fill="#2B1C48" d="M109.551,56.813c0.977-1.841,2.393-2.762,4.246-2.762h0.037c1.866,0.013,3.288,0.698,4.265,2.058
			c0.978,1.359,1.497,2.921,1.56,4.688v0.469c0,1.616-0.275,3.226-0.827,4.828c-0.601,1.754-1.547,2.919-2.836,3.494
			c-0.939,0.439-1.998,0.658-3.176,0.658c-0.426,0-0.87-0.031-1.333-0.094c-1.717-0.213-3.088-1.002-4.114-2.367
			c-1.027-1.365-1.767-3.182-2.217-5.448c-0.339-1.665-0.508-3.532-0.508-5.599c0-0.727,0.025-1.471,0.075-2.235
			c0.15-2.956,0.526-5.364,1.127-7.224c0.602-1.859,1.497-3.184,2.687-3.973c1.165-0.765,2.492-1.146,3.983-1.146h0.112
			c1.528,0.025,2.821,0.52,3.88,1.484c1.058,0.965,1.743,2.279,2.057,3.945c0.2,1.102,0.301,2.186,0.301,3.25
			c0,0.562-0.025,1.114-0.075,1.652h-4.208c0.024-0.438,0.037-0.846,0.037-1.221c0-2.342-0.432-3.626-1.296-3.852
			c-0.226-0.05-0.438-0.074-0.639-0.074c-0.727,0-1.334,0.369-1.822,1.107c-0.639,0.952-1.033,2.268-1.184,3.945
			c-0.113,1.141-0.169,2.186-0.169,3.138C109.514,55.986,109.525,56.412,109.551,56.813z M109.927,60.383
			c0.024,1.653,0.241,2.891,0.648,3.711c0.406,0.82,1.011,1.293,1.812,1.418c0.125,0.025,0.257,0.037,0.395,0.037
			c0.626,0,1.184-0.256,1.672-0.77c0.538-0.564,0.808-1.578,0.808-3.043v-0.377c-0.05-1.665-0.632-2.643-1.747-2.93
			c-0.176-0.038-0.351-0.057-0.525-0.057C112.024,58.373,111.004,59.043,109.927,60.383z"/>
		<path fill="#2B1C48" d="M126.178,56.813c0.977-1.841,2.393-2.762,4.246-2.762h0.037c1.866,0.013,3.288,0.698,4.265,2.058
			c0.978,1.359,1.497,2.921,1.56,4.688v0.469c0,1.616-0.275,3.226-0.827,4.828c-0.601,1.754-1.547,2.919-2.836,3.494
			c-0.939,0.439-1.998,0.658-3.176,0.658c-0.426,0-0.87-0.031-1.333-0.094c-1.717-0.213-3.088-1.002-4.114-2.367
			c-1.027-1.365-1.767-3.182-2.217-5.448c-0.339-1.665-0.508-3.532-0.508-5.599c0-0.727,0.025-1.471,0.075-2.235
			c0.15-2.956,0.526-5.364,1.127-7.224c0.602-1.859,1.497-3.184,2.687-3.973c1.165-0.765,2.492-1.146,3.983-1.146h0.112
			c1.528,0.025,2.821,0.52,3.88,1.484c1.058,0.965,1.743,2.279,2.057,3.945c0.2,1.102,0.301,2.186,0.301,3.25
			c0,0.562-0.025,1.114-0.075,1.652h-4.208c0.024-0.438,0.037-0.846,0.037-1.221c0-2.342-0.432-3.626-1.296-3.852
			c-0.226-0.05-0.438-0.074-0.639-0.074c-0.727,0-1.334,0.369-1.822,1.107c-0.639,0.952-1.033,2.268-1.184,3.945
			c-0.113,1.141-0.169,2.186-0.169,3.138C126.141,55.986,126.152,56.412,126.178,56.813z M126.554,60.383
			c0.024,1.653,0.241,2.891,0.648,3.711c0.406,0.82,1.011,1.293,1.812,1.418c0.125,0.025,0.257,0.037,0.395,0.037
			c0.626,0,1.184-0.256,1.672-0.77c0.538-0.564,0.808-1.578,0.808-3.043v-0.377c-0.05-1.665-0.632-2.643-1.747-2.93
			c-0.176-0.038-0.351-0.057-0.525-0.057C128.651,58.373,127.631,59.043,126.554,60.383z"/>
		<path fill="#2B1C48" d="M144.851,70.265c0.025-4.22,0.038-8.566,0.038-13.038c0-4.483-0.013-9.086-0.038-13.809
			c1.44-0.174,2.769-0.262,3.983-0.262c3.382,0,5.873,0.676,7.477,2.028c2.18,1.854,3.319,5.279,3.42,10.276v1.353
			c0,4.283-0.414,7.339-1.24,9.168c-0.914,2.017-2.587,3.356-5.017,4.021c-1.402,0.389-2.943,0.582-4.621,0.582
			C147.6,70.584,146.267,70.479,144.851,70.265z M149.51,48.791c-0.213,4.121-0.319,8.104-0.319,11.949
			c0,1.453,0.013,2.881,0.038,4.283c0.438,0.1,0.857,0.15,1.259,0.15c1.102,0,2.028-0.383,2.78-1.146
			c1.026-1.026,1.54-3.331,1.54-6.913v-0.075c-0.013-3.607-0.514-5.975-1.503-7.102c-0.764-0.852-1.672-1.277-2.724-1.277
			C150.243,48.66,149.886,48.704,149.51,48.791z"/>
		<path fill="#2B1C48" d="M173.219,43.926v5.298l-7.421-0.3v6.161l6.67-0.188l0.169,5.091h-5.955v4.771h7.796v5.336l-13-0.188
			c0.138-3.52,0.206-7.064,0.206-10.634c0-4.946-0.131-9.938-0.395-14.973C164.12,44.189,168.097,44.064,173.219,43.926z"/>
		<path fill="#2B1C48" d="M183.739,52.154c-0.062-0.752-0.094-1.446-0.094-2.085c0-2.242,0.407-3.857,1.221-4.847
			c1.04-1.266,2.367-2.023,3.983-2.273c0.575-0.088,1.14-0.132,1.69-0.132c0.989,0,1.941,0.138,2.855,0.413
			c1.428,0.439,2.505,1.303,3.231,2.593c0.589,1.077,0.883,2.455,0.883,4.134c0,0.325-0.006,0.67-0.019,1.033
			c-0.15,2.154-0.799,4.136-1.944,5.945c-1.146,1.811-3.128,4.399-5.946,7.769l8.21,0.056l-0.057,4.716
			c-3.595,0.163-8.229,0.244-13.901,0.244l-0.433-5.128c3.406-3.683,5.836-6.514,7.289-8.492c1.327-1.816,1.991-3.601,1.991-5.354
			v-0.471c-0.138-1.879-0.927-2.817-2.367-2.817h-0.074c-1.253,0.037-1.879,1.177-1.879,3.419c0,0.426,0.019,0.883,0.056,1.371
			L183.739,52.154z"/>
		<path fill="#2B1C48" d="M207.41,42.912c4.947,0,7.421,4.508,7.421,13.525c0,9.03-2.648,13.545-7.946,13.545
			s-7.947-4.678-7.947-14.033C198.938,47.258,201.762,42.912,207.41,42.912z M204.029,56.569c-0.013,0.338-0.02,0.664-0.02,0.978
			c0,4.947,1.021,7.42,3.062,7.42c2.154,0,3.231-2.799,3.231-8.397s-1.009-8.397-3.024-8.397
			C205.263,48.172,204.179,50.971,204.029,56.569z"/>
		<path fill="#2B1C48" d="M225.821,43.438c-0.088,5.912-0.131,11.792-0.131,17.641c0,2.931,0.012,5.855,0.037,8.773l-4.659,0.244
			c-0.088-7.527-0.194-14.497-0.319-20.91c-1.052,0.214-2.479,0.74-4.283,1.578l-0.901-4.113l5.223-3.307L225.821,43.438z"/>
		<path fill="#2B1C48" d="M237.977,56.795c1.703,0.764,2.762,1.866,3.175,3.307c0.288,1.002,0.432,2.029,0.432,3.08
			c0,0.477-0.031,0.959-0.094,1.447c-0.188,1.565-0.823,2.918-1.907,4.058c-1.083,1.14-2.752,1.735-5.006,1.784h-0.301
			c-2.117,0-3.808-0.551-5.072-1.652c-1.328-1.14-2.017-2.749-2.066-4.828c-0.013-0.138-0.02-0.275-0.02-0.414
			c0-1.891,0.363-3.4,1.09-4.527c0.776-1.202,1.734-1.959,2.875-2.273c-0.84-0.338-1.691-1.011-2.556-2.02
			c-0.864-1.008-1.309-2.457-1.334-4.349v-0.169c0-1.804,0.376-3.382,1.128-4.734c0.764-1.377,2.016-2.229,3.757-2.555
			c0.852-0.163,1.666-0.244,2.442-0.244c0.789,0,1.54,0.088,2.254,0.263c1.391,0.339,2.502,1.097,3.335,2.272
			c0.833,1.178,1.28,2.731,1.344,4.66v0.545c0,1.678-0.276,2.98-0.827,3.907C240.012,55.393,239.128,56.206,237.977,56.795z
			 M234.426,58.692c-1.277,0.677-2.029,1.478-2.255,2.404c-0.125,0.526-0.188,1.034-0.188,1.522c0,0.375,0.037,0.738,0.112,1.089
			c0.176,0.827,0.508,1.415,0.996,1.767c0.351,0.263,0.758,0.395,1.221,0.395c0.176,0,0.363-0.02,0.564-0.057
			c0.701-0.125,1.211-0.43,1.53-0.911c0.319-0.482,0.504-1.149,0.555-2.001c0.012-0.1,0.019-0.207,0.019-0.319
			c0-0.726-0.15-1.415-0.451-2.066C236.179,59.764,235.478,59.156,234.426,58.692z M234.388,53.958
			c1.303-0.563,2.061-1.472,2.273-2.724c0.088-0.477,0.132-0.914,0.132-1.315c0-0.626-0.106-1.152-0.319-1.578
			c-0.339-0.688-0.934-1.058-1.785-1.108h-0.169c-0.776,0-1.384,0.326-1.822,0.977c-0.351,0.526-0.526,1.203-0.526,2.029
			c0,0.301,0.025,0.627,0.075,0.977C232.422,52.506,233.136,53.42,234.388,53.958z"/>
	</g>
	<g>
		<path fill-rule="evenodd" clip-rule="evenodd" fill="#BB688B" d="M323.048,321.409c0,7.832-6.23,14.184-13.916,14.184H13.914
			C6.229,335.593,0,329.241,0,321.409v-79.928c0-7.834,6.229-14.184,13.914-14.184h295.218c7.686,0,13.916,6.35,13.916,14.184
			V321.409z"/>
		<g id="s87dzn.tif_1_">
			<g>
				<path fill-rule="evenodd" clip-rule="evenodd" fill="#894868" d="M244.742,317.911c-3.154-1.33-3.82-2.348-3.82-5.856
					c0-5.981,0-11.964,0-17.946c0-0.571,0-1.143,0-1.812c3.19,0,6.26,0,9.458,0c0,5.354,0,10.633,0,16.021
					c16.518,0,32.911,0,49.489,0c0-5.312,0-10.629,0-16.023c3.255,0,6.323,0,9.518,0c0,3.135,0,6.172,0,9.209
					c0,3.516-0.11,7.035,0.035,10.545c0.126,2.982-1.037,4.914-3.854,5.863C285.292,317.911,265.018,317.911,244.742,317.911z"/>
				<path fill-rule="evenodd" clip-rule="evenodd" fill="#894868" d="M281.964,271.802c2.944,0,5.687,0,8.752,0
					c-0.378,0.817-0.507,1.324-0.803,1.707c-4.151,5.411-8.313,10.811-12.502,16.194c-1.575,2.024-2.206,1.979-3.863-0.028
					c-4.312-5.219-8.646-10.418-12.956-15.637c-0.343-0.414-0.566-0.926-1.034-1.709c3.142,0,5.934,0,8.897,0
					c0.042-0.756,0.098-1.307,0.098-1.858c0.006-7.247,0.039-14.495-0.031-21.741c-0.01-1.394,0.572-1.738,1.769-1.732
					c3.254,0.018,6.513,0.051,9.765-0.016c1.407-0.026,1.947,0.428,1.934,1.9c-0.058,6.934-0.024,13.863-0.024,20.797
					C281.964,270.247,281.964,270.819,281.964,271.802z"/>
			</g>
		</g>
		<g>
			<g>
				<path fill="#FFFFFF" d="M13.978,255.662h3.234c1.752,0,2.98,0.298,3.685,0.894s1.056,1.612,1.056,3.05v4.533
					c0,1.408-0.35,2.42-1.049,3.035s-1.851,0.924-3.455,0.924h-0.783v9.348h-2.688V255.662z M16.665,257.848v8.078h0.487
					c0.758,0,1.275-0.172,1.551-0.517s0.414-1.038,0.414-2.082v-2.909c0-1.044-0.136-1.733-0.406-2.068
					c-0.271-0.334-0.79-0.502-1.559-0.502H16.665z"/>
				<path fill="#FFFFFF" d="M31.449,265.985v11.46h-2.541l-0.147-1.24c-0.315,0.531-0.682,0.934-1.1,1.203
					c-0.419,0.271-0.879,0.406-1.381,0.406c-0.906,0-1.562-0.297-1.965-0.893s-0.605-1.559-0.605-2.888v-2.614
					c0-1.221,0.379-2.104,1.138-2.65c0.758-0.547,2.062-0.859,3.913-0.938v-1.758c0-0.906-0.084-1.512-0.251-1.816
					c-0.167-0.306-0.468-0.459-0.9-0.459c-0.395,0-0.68,0.15-0.857,0.451c-0.177,0.301-0.266,0.785-0.266,1.455v0.635h-2.48v-0.354
					c0-1.526,0.28-2.589,0.842-3.19c0.561-0.6,1.54-0.9,2.938-0.9c1.329,0,2.271,0.305,2.828,0.916
					C31.171,263.42,31.449,264.479,31.449,265.985z M28.746,269.707c-0.906,0.049-1.519,0.217-1.839,0.502
					c-0.319,0.285-0.479,0.793-0.479,1.521v1.935c0,0.817,0.091,1.391,0.273,1.721c0.182,0.329,0.484,0.495,0.908,0.495
					c0.413,0,0.709-0.163,0.886-0.488c0.177-0.324,0.266-0.9,0.266-1.728L28.746,269.707z"/>
				<path fill="#FFFFFF" d="M39.498,262.057v2.318h-0.133c-0.936,0-1.593,0.207-1.972,0.621c-0.38,0.413-0.569,1.146-0.569,2.2
					v10.249h-2.658v-15.182h2.541l0.117,1.24c0.335-0.502,0.694-0.873,1.078-1.115c0.385-0.24,0.803-0.361,1.256-0.361
					c0.039,0,0.096,0.005,0.17,0.015C39.401,262.052,39.458,262.057,39.498,262.057z"/>
				<path fill="#FFFFFF" d="M48.271,265.985v11.46h-2.541l-0.147-1.24c-0.315,0.531-0.682,0.934-1.1,1.203
					c-0.419,0.271-0.879,0.406-1.381,0.406c-0.906,0-1.562-0.297-1.965-0.893s-0.605-1.559-0.605-2.888v-2.614
					c0-1.221,0.379-2.104,1.138-2.65c0.758-0.547,2.062-0.859,3.913-0.938v-1.758c0-0.906-0.084-1.512-0.251-1.816
					c-0.167-0.306-0.468-0.459-0.9-0.459c-0.395,0-0.68,0.15-0.857,0.451c-0.177,0.301-0.266,0.785-0.266,1.455v0.635h-2.48v-0.354
					c0-1.526,0.28-2.589,0.842-3.19c0.561-0.6,1.54-0.9,2.938-0.9c1.329,0,2.271,0.305,2.828,0.916
					C47.992,263.42,48.271,264.479,48.271,265.985z M45.567,269.707c-0.906,0.049-1.519,0.217-1.839,0.502
					c-0.319,0.285-0.479,0.793-0.479,1.521v1.935c0,0.817,0.091,1.391,0.273,1.721c0.182,0.329,0.484,0.495,0.908,0.495
					c0.413,0,0.709-0.163,0.886-0.488c0.177-0.324,0.266-0.9,0.266-1.728L45.567,269.707z"/>
				<path fill="#FFFFFF" d="M55.24,262.264h2.585l1.3,12.494h0.147l1.447-12.494h2.334l-2.274,15.182h-3.234L55.24,262.264z"/>
				<path fill="#FFFFFF" d="M72.387,267.107v3.529h-5.021v2.998c0,0.887,0.089,1.487,0.267,1.803
					c0.177,0.314,0.482,0.473,0.915,0.473c0.424,0,0.722-0.168,0.894-0.502c0.173-0.335,0.259-0.926,0.259-1.773v-1.299h2.688v0.989
					c0,1.556-0.308,2.688-0.923,3.397s-1.598,1.062-2.946,1.062c-1.457,0-2.472-0.366-3.042-1.1
					c-0.571-0.734-0.856-2.095-0.856-4.084v-5.494c0-1.998,0.287-3.367,0.863-4.105s1.598-1.107,3.064-1.107
					c1.428,0,2.425,0.374,2.991,1.122C72.104,263.766,72.387,265.129,72.387,267.107z M69.699,266.045
					c0-0.877-0.086-1.479-0.259-1.81c-0.172-0.33-0.47-0.495-0.894-0.495c-0.433,0-0.738,0.162-0.915,0.488
					c-0.178,0.324-0.267,0.93-0.267,1.816v2.746h2.334V266.045z"/>
				<path fill="#FFFFFF" d="M80.348,262.057v2.318h-0.133c-0.936,0-1.593,0.207-1.972,0.621c-0.38,0.413-0.569,1.146-0.569,2.2
					v10.249h-2.658v-15.182h2.541l0.117,1.24c0.335-0.502,0.694-0.873,1.078-1.115c0.385-0.24,0.803-0.361,1.256-0.361
					c0.039,0,0.096,0.005,0.17,0.015C80.251,262.052,80.308,262.057,80.348,262.057z"/>
				<path fill="#FFFFFF" d="M94.201,263.593c0.394-0.581,0.795-1.009,1.203-1.284c0.408-0.276,0.854-0.414,1.337-0.414
					c0.856,0,1.457,0.273,1.802,0.819s0.517,1.554,0.517,3.021v11.711h-2.629v-11.312c0-0.797-0.079-1.354-0.236-1.668
					c-0.157-0.316-0.418-0.473-0.782-0.473c-0.384,0-0.657,0.164-0.82,0.494c-0.162,0.33-0.243,0.879-0.243,1.646v11.312H91.69
					v-11.312c0-0.816-0.076-1.378-0.229-1.684c-0.152-0.305-0.411-0.457-0.775-0.457c-0.384,0-0.662,0.167-0.834,0.502
					c-0.173,0.334-0.259,0.881-0.259,1.639v11.312h-2.629v-15.182h2.541l0.117,1.211c0.335-0.541,0.704-0.939,1.108-1.196
					c0.403-0.256,0.871-0.384,1.402-0.384c0.522,0,0.978,0.16,1.366,0.48C93.888,262.694,94.122,263.101,94.201,263.593z"/>
				<path fill="#FFFFFF" d="M109.265,265.985v11.46h-2.541l-0.147-1.24c-0.315,0.531-0.682,0.934-1.1,1.203
					c-0.419,0.271-0.879,0.406-1.381,0.406c-0.906,0-1.562-0.297-1.965-0.893s-0.605-1.559-0.605-2.888v-2.614
					c0-1.221,0.379-2.104,1.138-2.65c0.758-0.547,2.062-0.859,3.913-0.938v-1.758c0-0.906-0.084-1.512-0.251-1.816
					c-0.167-0.306-0.468-0.459-0.9-0.459c-0.395,0-0.68,0.15-0.857,0.451c-0.177,0.301-0.266,0.785-0.266,1.455v0.635h-2.48v-0.354
					c0-1.526,0.28-2.589,0.842-3.19c0.561-0.6,1.54-0.9,2.938-0.9c1.329,0,2.271,0.305,2.828,0.916
					C108.986,263.42,109.265,264.479,109.265,265.985z M106.562,269.707c-0.906,0.049-1.519,0.217-1.839,0.502
					c-0.319,0.285-0.479,0.793-0.479,1.521v1.935c0,0.817,0.091,1.391,0.273,1.721c0.182,0.329,0.484,0.495,0.908,0.495
					c0.413,0,0.709-0.163,0.886-0.488c0.177-0.324,0.266-0.9,0.266-1.728L106.562,269.707z M105.809,256.725h2.511l-2.053,3.545
					h-1.729L105.809,256.725z"/>
				<path fill="#FFFFFF" d="M118.79,265.926v0.725h-2.569v-0.783c0-0.866-0.066-1.428-0.199-1.684
					c-0.134-0.256-0.382-0.385-0.746-0.385c-0.335,0-0.574,0.121-0.717,0.362s-0.214,0.638-0.214,1.188v0.576
					c0,0.246,0.089,0.522,0.266,0.828c0.178,0.305,0.463,0.674,0.856,1.107l2.171,2.289c0.473,0.512,0.817,0.984,1.034,1.418
					s0.325,0.871,0.325,1.314v1.211c0,1.25-0.306,2.184-0.916,2.799s-1.546,0.922-2.806,0.922c-1.319,0-2.243-0.29-2.77-0.871
					c-0.526-0.58-0.79-1.624-0.79-3.131v-0.178v-1.033h2.481v1.211c0,0.827,0.068,1.384,0.207,1.669
					c0.138,0.286,0.389,0.429,0.753,0.429c0.433,0,0.738-0.133,0.915-0.398c0.178-0.267,0.267-0.719,0.267-1.359v-0.576
					c0-0.354-0.089-0.711-0.267-1.07c-0.177-0.359-0.452-0.731-0.826-1.115l-2.112-2.201c-0.591-0.639-0.975-1.158-1.152-1.558
					c-0.177-0.398-0.266-0.849-0.266-1.351v-0.872c0-1.151,0.305-2.025,0.916-2.621c0.61-0.596,1.511-0.894,2.702-0.894
					c1.241,0,2.127,0.311,2.658,0.93C118.524,263.445,118.79,264.479,118.79,265.926z"/>
				<path fill="#FFFFFF" d="M121.419,274.477h2.791l-1.698,5.48h-2.023L121.419,274.477z"/>
				<path fill="#FFFFFF" d="M136.867,255.662h2.688v21.783h-2.541l-0.147-1.24c-0.305,0.521-0.667,0.921-1.085,1.196
					c-0.419,0.276-0.874,0.413-1.366,0.413c-0.887,0-1.526-0.293-1.92-0.878c-0.395-0.586-0.591-1.554-0.591-2.902v-8.358
					c0-1.369,0.196-2.342,0.591-2.918c0.394-0.576,1.043-0.863,1.949-0.863c0.482,0,0.931,0.135,1.344,0.406
					c0.414,0.271,0.773,0.662,1.078,1.174V255.662z M136.867,266.133c0-0.797-0.084-1.354-0.251-1.668
					c-0.167-0.316-0.458-0.473-0.871-0.473c-0.424,0-0.722,0.154-0.894,0.465c-0.173,0.311-0.259,0.869-0.259,1.676v7.414
					c0,0.827,0.084,1.396,0.251,1.705c0.168,0.311,0.458,0.466,0.872,0.466c0.413,0,0.709-0.165,0.886-0.495
					c0.177-0.329,0.266-0.889,0.266-1.676V266.133z"/>
				<path fill="#FFFFFF" d="M149.923,267.107v3.529h-5.021v2.998c0,0.887,0.089,1.487,0.267,1.803
					c0.177,0.314,0.482,0.473,0.915,0.473c0.424,0,0.722-0.168,0.894-0.502c0.173-0.335,0.259-0.926,0.259-1.773v-1.299h2.688v0.989
					c0,1.556-0.308,2.688-0.923,3.397s-1.598,1.062-2.946,1.062c-1.457,0-2.472-0.366-3.042-1.1
					c-0.571-0.734-0.856-2.095-0.856-4.084v-5.494c0-1.998,0.287-3.367,0.863-4.105s1.598-1.107,3.064-1.107
					c1.428,0,2.425,0.374,2.991,1.122C149.64,263.766,149.923,265.129,149.923,267.107z M147.235,266.045
					c0-0.877-0.086-1.479-0.259-1.81c-0.172-0.33-0.47-0.495-0.894-0.495c-0.433,0-0.738,0.162-0.915,0.488
					c-0.178,0.324-0.267,0.93-0.267,1.816v2.746h2.334V266.045z"/>
				<path fill="#FFFFFF" d="M159.36,265.926v0.725h-2.569v-0.783c0-0.866-0.066-1.428-0.199-1.684
					c-0.134-0.256-0.382-0.385-0.746-0.385c-0.335,0-0.574,0.121-0.717,0.362s-0.214,0.638-0.214,1.188v0.576
					c0,0.246,0.089,0.522,0.266,0.828c0.178,0.305,0.463,0.674,0.856,1.107l2.171,2.289c0.473,0.512,0.817,0.984,1.034,1.418
					s0.325,0.871,0.325,1.314v1.211c0,1.25-0.306,2.184-0.916,2.799s-1.546,0.922-2.806,0.922c-1.319,0-2.243-0.29-2.77-0.871
					c-0.526-0.58-0.79-1.624-0.79-3.131v-0.178v-1.033h2.481v1.211c0,0.827,0.068,1.384,0.207,1.669
					c0.138,0.286,0.389,0.429,0.753,0.429c0.433,0,0.738-0.133,0.915-0.398c0.178-0.267,0.267-0.719,0.267-1.359v-0.576
					c0-0.354-0.089-0.711-0.267-1.07c-0.177-0.359-0.452-0.731-0.826-1.115l-2.112-2.201c-0.591-0.639-0.975-1.158-1.152-1.558
					c-0.177-0.398-0.266-0.849-0.266-1.351v-0.872c0-1.151,0.305-2.025,0.916-2.621c0.61-0.596,1.511-0.894,2.702-0.894
					c1.241,0,2.127,0.311,2.658,0.93C159.095,263.445,159.36,264.479,159.36,265.926z"/>
				<path fill="#FFFFFF" d="M169.256,266.369v0.887h-2.688v-1.241c0-0.847-0.079-1.423-0.236-1.728s-0.434-0.458-0.827-0.458
					c-0.345,0-0.588,0.157-0.73,0.473s-0.215,0.905-0.215,1.772v7.561c0,0.887,0.076,1.487,0.229,1.803
					c0.152,0.314,0.411,0.473,0.775,0.473c0.354,0,0.605-0.152,0.753-0.458s0.222-0.911,0.222-1.817v-1.477h2.718v1.167
					c0,1.517-0.306,2.639-0.916,3.367c-0.61,0.729-1.546,1.093-2.806,1.093c-1.389,0-2.356-0.366-2.902-1.1
					c-0.547-0.734-0.819-2.095-0.819-4.084v-5.494c0-1.988,0.277-3.354,0.834-4.098c0.557-0.744,1.528-1.115,2.917-1.115
					c1.26,0,2.19,0.364,2.791,1.093S169.256,264.844,169.256,266.369z"/>
				<path fill="#FFFFFF" d="M179.047,265.985v11.46h-2.541l-0.147-1.24c-0.315,0.531-0.682,0.934-1.1,1.203
					c-0.419,0.271-0.879,0.406-1.381,0.406c-0.906,0-1.562-0.297-1.965-0.893s-0.605-1.559-0.605-2.888v-2.614
					c0-1.221,0.379-2.104,1.138-2.65c0.758-0.547,2.062-0.859,3.913-0.938v-1.758c0-0.906-0.084-1.512-0.251-1.816
					c-0.167-0.306-0.468-0.459-0.9-0.459c-0.395,0-0.68,0.15-0.857,0.451c-0.177,0.301-0.266,0.785-0.266,1.455v0.635h-2.48v-0.354
					c0-1.526,0.28-2.589,0.842-3.19c0.561-0.6,1.54-0.9,2.938-0.9c1.329,0,2.271,0.305,2.828,0.916
					C178.769,263.42,179.047,264.479,179.047,265.985z M176.344,269.707c-0.906,0.049-1.519,0.217-1.839,0.502
					c-0.319,0.285-0.479,0.793-0.479,1.521v1.935c0,0.817,0.091,1.391,0.273,1.721c0.182,0.329,0.484,0.495,0.908,0.495
					c0.413,0,0.709-0.163,0.886-0.488c0.177-0.324,0.266-0.9,0.266-1.728L176.344,269.707z"/>
				<path fill="#FFFFFF" d="M187.096,262.057v2.318h-0.133c-0.936,0-1.593,0.207-1.972,0.621c-0.38,0.413-0.569,1.146-0.569,2.2
					v10.249h-2.658v-15.182h2.541l0.117,1.24c0.335-0.502,0.694-0.873,1.078-1.115c0.385-0.24,0.803-0.361,1.256-0.361
					c0.039,0,0.096,0.005,0.17,0.015C186.999,262.052,187.056,262.057,187.096,262.057z"/>
				<path fill="#FFFFFF" d="M193.298,263.475l0.147-1.211h2.541v16.6c0,1.693-0.286,2.873-0.857,3.537
					c-0.57,0.665-1.565,0.997-2.982,0.997c-1.329,0-2.297-0.315-2.902-0.945s-0.908-1.634-0.908-3.013v-0.635h2.717v0.605
					c0,0.748,0.082,1.277,0.244,1.588c0.162,0.31,0.426,0.465,0.79,0.465c0.443,0,0.756-0.165,0.938-0.494
					c0.183-0.33,0.273-0.908,0.273-1.736v-3.691c-0.295,0.521-0.649,0.913-1.063,1.174c-0.413,0.261-0.876,0.391-1.388,0.391
					c-0.896,0-1.539-0.285-1.928-0.855c-0.389-0.571-0.583-1.531-0.583-2.881v-7.724c0-1.349,0.196-2.312,0.591-2.888
					c0.394-0.576,1.043-0.863,1.949-0.863c0.482,0,0.931,0.135,1.344,0.406C192.634,262.571,192.993,262.963,193.298,263.475z
					 M193.298,266.133c0-0.807-0.086-1.371-0.258-1.691c-0.173-0.319-0.461-0.479-0.864-0.479c-0.414,0-0.709,0.16-0.887,0.479
					c-0.177,0.32-0.266,0.885-0.266,1.691v6.75c0,0.826,0.084,1.395,0.251,1.705c0.168,0.311,0.458,0.465,0.872,0.465
					c0.413,0,0.709-0.164,0.886-0.494s0.266-0.889,0.266-1.676V266.133z"/>
				<path fill="#FFFFFF" d="M198.645,262.264h2.688v11.283c0,0.827,0.087,1.396,0.259,1.705c0.172,0.311,0.47,0.466,0.894,0.466
					c0.414,0,0.709-0.165,0.886-0.495c0.178-0.329,0.267-0.889,0.267-1.676v-11.283h2.688v15.182h-2.569l-0.118-1.24
					c-0.325,0.521-0.702,0.916-1.13,1.182c-0.429,0.266-0.898,0.398-1.41,0.398c-0.896,0-1.529-0.275-1.898-0.826
					c-0.369-0.552-0.554-1.551-0.554-2.998V262.264z"/>
				<path fill="#FFFFFF" d="M216.722,267.107v3.529H211.7v2.998c0,0.887,0.089,1.487,0.267,1.803
					c0.177,0.314,0.482,0.473,0.915,0.473c0.424,0,0.722-0.168,0.894-0.502c0.173-0.335,0.259-0.926,0.259-1.773v-1.299h2.688v0.989
					c0,1.556-0.308,2.688-0.923,3.397s-1.598,1.062-2.946,1.062c-1.457,0-2.472-0.366-3.042-1.1
					c-0.571-0.734-0.856-2.095-0.856-4.084v-5.494c0-1.998,0.287-3.367,0.863-4.105s1.598-1.107,3.064-1.107
					c1.428,0,2.425,0.374,2.991,1.122C216.438,263.766,216.722,265.129,216.722,267.107z M214.034,266.045
					c0-0.877-0.086-1.479-0.259-1.81c-0.172-0.33-0.47-0.495-0.894-0.495c-0.433,0-0.738,0.162-0.915,0.488
					c-0.178,0.324-0.267,0.93-0.267,1.816v2.746h2.334V266.045z"/>
				<path fill="#FFFFFF" d="M15.447,295.985v11.46h-2.541l-0.147-1.24c-0.315,0.531-0.682,0.934-1.1,1.203
					c-0.419,0.271-0.879,0.406-1.381,0.406c-0.906,0-1.562-0.297-1.965-0.893s-0.605-1.559-0.605-2.888v-2.614
					c0-1.221,0.379-2.104,1.138-2.65c0.758-0.547,2.062-0.859,3.913-0.938v-1.758c0-0.906-0.084-1.512-0.251-1.816
					c-0.167-0.306-0.468-0.459-0.9-0.459c-0.395,0-0.68,0.15-0.857,0.451c-0.177,0.301-0.266,0.785-0.266,1.455v0.635h-2.48v-0.354
					c0-1.526,0.28-2.589,0.842-3.19c0.561-0.6,1.54-0.9,2.938-0.9c1.329,0,2.271,0.305,2.828,0.916
					C15.169,293.42,15.447,294.479,15.447,295.985z M12.744,299.707c-0.906,0.049-1.519,0.217-1.839,0.502
					c-0.319,0.285-0.479,0.793-0.479,1.521v1.935c0,0.817,0.091,1.391,0.273,1.721c0.182,0.329,0.484,0.495,0.908,0.495
					c0.413,0,0.709-0.163,0.886-0.488c0.177-0.324,0.266-0.9,0.266-1.728L12.744,299.707z"/>
				<path fill="#FFFFFF" d="M23.067,293.475l0.118-1.211h2.57v20.928h-2.688v-6.986c-0.305,0.512-0.664,0.904-1.078,1.174
					c-0.413,0.271-0.871,0.406-1.373,0.406c-0.896,0-1.544-0.29-1.942-0.871c-0.398-0.58-0.598-1.541-0.598-2.88v-8.389
					c0-1.349,0.199-2.312,0.598-2.888s1.056-0.863,1.972-0.863c0.482,0,0.931,0.135,1.344,0.406
					C22.403,292.571,22.763,292.963,23.067,293.475z M23.067,296.133c0-0.787-0.086-1.346-0.258-1.676
					c-0.173-0.33-0.461-0.495-0.864-0.495c-0.414,0-0.709,0.16-0.887,0.479c-0.177,0.32-0.266,0.885-0.266,1.691v7.414
					c0,0.817,0.086,1.383,0.259,1.698c0.172,0.315,0.46,0.473,0.864,0.473c0.413,0,0.709-0.165,0.886-0.495
					c0.177-0.329,0.266-0.889,0.266-1.676V296.133z"/>
				<path fill="#FFFFFF" d="M28.414,292.264h2.688v11.283c0,0.827,0.087,1.396,0.259,1.705c0.172,0.311,0.47,0.466,0.894,0.466
					c0.414,0,0.709-0.165,0.886-0.495c0.178-0.329,0.267-0.889,0.267-1.676v-11.283h2.688v15.182h-2.569l-0.118-1.24
					c-0.325,0.521-0.702,0.916-1.13,1.182c-0.429,0.266-0.898,0.398-1.41,0.398c-0.896,0-1.529-0.275-1.898-0.826
					c-0.369-0.552-0.554-1.551-0.554-2.998V292.264z"/>
				<path fill="#FFFFFF" d="M38.811,292.264h2.658v15.182h-2.658V292.264z M40.406,286.725h2.511l-2.054,3.545h-1.728
					L40.406,286.725z"/>
				<path fill="#FFFFFF" d="M49.518,285.662h2.658v21.783h-2.658V285.662z"/>
				<path fill="#FFFFFF" d="M62.382,295.985v11.46h-2.541l-0.147-1.24c-0.315,0.531-0.682,0.934-1.1,1.203
					c-0.419,0.271-0.879,0.406-1.381,0.406c-0.906,0-1.562-0.297-1.965-0.893s-0.605-1.559-0.605-2.888v-2.614
					c0-1.221,0.379-2.104,1.138-2.65c0.758-0.547,2.062-0.859,3.913-0.938v-1.758c0-0.906-0.084-1.512-0.251-1.816
					c-0.167-0.306-0.468-0.459-0.9-0.459c-0.395,0-0.68,0.15-0.857,0.451c-0.177,0.301-0.266,0.785-0.266,1.455v0.635h-2.48v-0.354
					c0-1.526,0.28-2.589,0.842-3.19c0.561-0.6,1.54-0.9,2.938-0.9c1.329,0,2.271,0.305,2.828,0.916
					C62.104,293.42,62.382,294.479,62.382,295.985z M59.679,299.707c-0.906,0.049-1.519,0.217-1.839,0.502
					c-0.319,0.285-0.479,0.793-0.479,1.521v1.935c0,0.817,0.091,1.391,0.273,1.721c0.182,0.329,0.484,0.495,0.908,0.495
					c0.413,0,0.709-0.163,0.886-0.488c0.177-0.324,0.266-0.9,0.266-1.728L59.679,299.707z"/>
				<path fill="#FFFFFF" d="M77.771,296.369v0.887h-2.688v-1.241c0-0.847-0.079-1.423-0.236-1.728s-0.434-0.458-0.827-0.458
					c-0.345,0-0.588,0.157-0.73,0.473s-0.215,0.905-0.215,1.772v7.561c0,0.887,0.076,1.487,0.229,1.803
					c0.152,0.314,0.411,0.473,0.775,0.473c0.354,0,0.605-0.152,0.753-0.458s0.222-0.911,0.222-1.817v-1.477h2.718v1.167
					c0,1.517-0.306,2.639-0.916,3.367c-0.61,0.729-1.546,1.093-2.806,1.093c-1.389,0-2.356-0.366-2.902-1.1
					c-0.547-0.734-0.819-2.095-0.819-4.084v-5.494c0-1.988,0.277-3.354,0.834-4.098c0.557-0.744,1.528-1.115,2.917-1.115
					c1.26,0,2.19,0.364,2.791,1.093S77.771,294.844,77.771,296.369z"/>
				<path fill="#FFFFFF" d="M87.562,295.985v11.46h-2.541l-0.147-1.24c-0.315,0.531-0.682,0.934-1.1,1.203
					c-0.419,0.271-0.879,0.406-1.381,0.406c-0.906,0-1.562-0.297-1.965-0.893s-0.605-1.559-0.605-2.888v-2.614
					c0-1.221,0.379-2.104,1.138-2.65c0.758-0.547,2.062-0.859,3.913-0.938v-1.758c0-0.906-0.084-1.512-0.251-1.816
					c-0.167-0.306-0.468-0.459-0.9-0.459c-0.395,0-0.68,0.15-0.857,0.451c-0.177,0.301-0.266,0.785-0.266,1.455v0.635h-2.48v-0.354
					c0-1.526,0.28-2.589,0.842-3.19c0.561-0.6,1.54-0.9,2.938-0.9c1.329,0,2.271,0.305,2.828,0.916
					C87.284,293.42,87.562,294.479,87.562,295.985z M84.859,299.707c-0.906,0.049-1.519,0.217-1.839,0.502
					c-0.319,0.285-0.479,0.793-0.479,1.521v1.935c0,0.817,0.091,1.391,0.273,1.721c0.182,0.329,0.484,0.495,0.908,0.495
					c0.413,0,0.709-0.163,0.886-0.488c0.177-0.324,0.266-0.9,0.266-1.728L84.859,299.707z"/>
				<path fill="#FFFFFF" d="M95.611,292.057v2.318h-0.133c-0.936,0-1.593,0.207-1.972,0.621c-0.38,0.413-0.569,1.146-0.569,2.2
					v10.249h-2.658v-15.182h2.541l0.117,1.24c0.335-0.502,0.694-0.873,1.078-1.115c0.385-0.24,0.803-0.361,1.256-0.361
					c0.039,0,0.096,0.005,0.17,0.015C95.515,292.052,95.571,292.057,95.611,292.057z"/>
				<path fill="#FFFFFF" d="M99.82,288.246v4.018h1.565v1.905H99.82v10.013c0,0.562,0.081,0.948,0.243,1.16
					c0.162,0.211,0.44,0.316,0.835,0.316c0.068,0,0.143-0.002,0.221-0.007c0.079-0.005,0.207-0.022,0.385-0.052v2.082
					c-0.04,0.01-0.104,0.02-0.192,0.029c-0.63,0.069-1.068,0.104-1.314,0.104c-1.093,0-1.846-0.283-2.26-0.849
					c-0.413-0.565-0.62-1.667-0.62-3.301v-9.496h-1.196v-1.905h1.196v-2.969L99.82,288.246z"/>
				<path fill="#FFFFFF" d="M103.114,285.662h2.85v2.732h-2.85V285.662z M103.202,292.264h2.658v15.182h-2.658V292.264z"/>
				<path fill="#FFFFFF" d="M108.593,285.662h2.658v21.783h-2.658V285.662z"/>
				<path fill="#FFFFFF" d="M113.983,285.662h2.658v21.783h-2.658V285.662z"/>
				<path fill="#FFFFFF" d="M126.848,295.985v11.46h-2.541l-0.147-1.24c-0.315,0.531-0.682,0.934-1.1,1.203
					c-0.419,0.271-0.879,0.406-1.381,0.406c-0.906,0-1.562-0.297-1.965-0.893s-0.605-1.559-0.605-2.888v-2.614
					c0-1.221,0.379-2.104,1.138-2.65c0.758-0.547,2.062-0.859,3.913-0.938v-1.758c0-0.906-0.084-1.512-0.251-1.816
					c-0.167-0.306-0.468-0.459-0.9-0.459c-0.395,0-0.68,0.15-0.857,0.451c-0.177,0.301-0.266,0.785-0.266,1.455v0.635h-2.48v-0.354
					c0-1.526,0.28-2.589,0.842-3.19c0.561-0.6,1.54-0.9,2.938-0.9c1.329,0,2.271,0.305,2.828,0.916
					C126.569,293.42,126.848,294.479,126.848,295.985z M124.145,299.707c-0.906,0.049-1.519,0.217-1.839,0.502
					c-0.319,0.285-0.479,0.793-0.479,1.521v1.935c0,0.817,0.091,1.391,0.273,1.721c0.182,0.329,0.484,0.495,0.908,0.495
					c0.413,0,0.709-0.163,0.886-0.488c0.177-0.324,0.266-0.9,0.266-1.728L124.145,299.707z"/>
				<path fill="#FFFFFF" d="M142.561,297.107v3.529h-5.021v2.998c0,0.887,0.089,1.487,0.267,1.803
					c0.177,0.314,0.482,0.473,0.915,0.473c0.424,0,0.722-0.168,0.894-0.502c0.173-0.335,0.259-0.926,0.259-1.773v-1.299h2.688v0.989
					c0,1.556-0.308,2.688-0.923,3.397s-1.598,1.062-2.946,1.062c-1.457,0-2.472-0.366-3.042-1.1
					c-0.571-0.734-0.856-2.095-0.856-4.084v-5.494c0-1.998,0.287-3.367,0.863-4.105s1.598-1.107,3.064-1.107
					c1.428,0,2.425,0.374,2.991,1.122C142.277,293.766,142.561,295.129,142.561,297.107z M139.873,296.045
					c0-0.877-0.086-1.479-0.259-1.81c-0.172-0.33-0.47-0.495-0.894-0.495c-0.433,0-0.738,0.162-0.915,0.488
					c-0.178,0.324-0.267,0.93-0.267,1.816v2.746h2.334V296.045z"/>
				<path fill="#FFFFFF" d="M144.466,292.264h2.688l1.211,5.199l1.24-5.199h2.452l-2.274,7.252l2.362,7.93h-2.717l-1.447-5.893
					l-1.521,5.893h-2.393l2.511-7.93L144.466,292.264z"/>
				<path fill="#FFFFFF" d="M161.523,295.676v8.358c0,1.349-0.199,2.316-0.598,2.902c-0.399,0.585-1.057,0.878-1.972,0.878
					c-0.473,0-0.919-0.137-1.337-0.413c-0.419-0.275-0.78-0.675-1.086-1.196v6.986h-2.658v-20.928h2.541l0.117,1.211
					c0.306-0.512,0.667-0.903,1.086-1.174c0.418-0.271,0.874-0.406,1.366-0.406c0.896,0,1.543,0.293,1.942,0.879
					C161.324,293.359,161.523,294.326,161.523,295.676z M158.806,296.133c0-0.816-0.083-1.378-0.251-1.684
					c-0.167-0.305-0.457-0.457-0.871-0.457c-0.413,0-0.709,0.16-0.886,0.479c-0.178,0.319-0.267,0.874-0.267,1.661v7.414
					c0,0.787,0.089,1.347,0.267,1.676c0.177,0.33,0.473,0.495,0.886,0.495c0.414,0,0.704-0.157,0.871-0.473
					c0.168-0.315,0.251-0.881,0.251-1.698V296.133z"/>
				<path fill="#FFFFFF" d="M164.152,285.662h2.658v21.783h-2.658V285.662z"/>
				<path fill="#FFFFFF" d="M169.455,285.662h2.85v2.732h-2.85V285.662z M169.543,292.264h2.658v15.182h-2.658V292.264z"/>
				<path fill="#FFFFFF" d="M182.289,296.369v0.887h-2.688v-1.241c0-0.847-0.079-1.423-0.236-1.728s-0.434-0.458-0.827-0.458
					c-0.345,0-0.588,0.157-0.73,0.473s-0.215,0.905-0.215,1.772v7.561c0,0.887,0.076,1.487,0.229,1.803
					c0.152,0.314,0.411,0.473,0.775,0.473c0.354,0,0.605-0.152,0.753-0.458s0.222-0.911,0.222-1.817v-1.477h2.718v1.167
					c0,1.517-0.306,2.639-0.916,3.367c-0.61,0.729-1.546,1.093-2.806,1.093c-1.389,0-2.356-0.366-2.902-1.1
					c-0.547-0.734-0.819-2.095-0.819-4.084v-5.494c0-1.988,0.277-3.354,0.834-4.098c0.557-0.744,1.528-1.115,2.917-1.115
					c1.26,0,2.19,0.364,2.791,1.093S182.289,294.844,182.289,296.369z"/>
				<path fill="#FFFFFF" d="M192.081,295.985v11.46h-2.541l-0.147-1.24c-0.315,0.531-0.682,0.934-1.1,1.203
					c-0.419,0.271-0.879,0.406-1.381,0.406c-0.906,0-1.562-0.297-1.965-0.893s-0.605-1.559-0.605-2.888v-2.614
					c0-1.221,0.379-2.104,1.138-2.65c0.758-0.547,2.062-0.859,3.913-0.938v-1.758c0-0.906-0.084-1.512-0.251-1.816
					c-0.167-0.306-0.468-0.459-0.9-0.459c-0.395,0-0.68,0.15-0.857,0.451c-0.177,0.301-0.266,0.785-0.266,1.455v0.635h-2.48v-0.354
					c0-1.526,0.28-2.589,0.842-3.19c0.561-0.6,1.54-0.9,2.938-0.9c1.329,0,2.271,0.305,2.828,0.916
					C191.803,293.42,192.081,294.479,192.081,295.985z M189.378,299.707c-0.906,0.049-1.519,0.217-1.839,0.502
					c-0.319,0.285-0.479,0.793-0.479,1.521v1.935c0,0.817,0.091,1.391,0.273,1.721c0.182,0.329,0.484,0.495,0.908,0.495
					c0.413,0,0.709-0.163,0.886-0.488c0.177-0.324,0.266-0.9,0.266-1.728L189.378,299.707z"/>
				<path fill="#FFFFFF" d="M197.708,288.246v4.018h1.565v1.905h-1.565v10.013c0,0.562,0.081,0.948,0.243,1.16
					c0.162,0.211,0.44,0.316,0.835,0.316c0.068,0,0.143-0.002,0.221-0.007c0.079-0.005,0.207-0.022,0.385-0.052v2.082
					c-0.04,0.01-0.104,0.02-0.192,0.029c-0.63,0.069-1.068,0.104-1.314,0.104c-1.093,0-1.846-0.283-2.26-0.849
					c-0.413-0.565-0.62-1.667-0.62-3.301v-9.496h-1.196v-1.905h1.196v-2.969L197.708,288.246z"/>
				<path fill="#FFFFFF" d="M201.001,285.662h2.85v2.732h-2.85V285.662z M201.089,292.264h2.658v15.182h-2.658V292.264z"/>
				<path fill="#FFFFFF" d="M205.416,292.264h2.585l1.3,12.494h0.147l1.447-12.494h2.334l-2.274,15.182h-3.234L205.416,292.264z"/>
				<path fill="#FFFFFF" d="M222.356,295.985v11.46h-2.541l-0.147-1.24c-0.315,0.531-0.682,0.934-1.1,1.203
					c-0.419,0.271-0.879,0.406-1.381,0.406c-0.906,0-1.562-0.297-1.965-0.893s-0.605-1.559-0.605-2.888v-2.614
					c0-1.221,0.379-2.104,1.138-2.65c0.758-0.547,2.062-0.859,3.913-0.938v-1.758c0-0.906-0.084-1.512-0.251-1.816
					c-0.167-0.306-0.468-0.459-0.9-0.459c-0.395,0-0.68,0.15-0.857,0.451c-0.177,0.301-0.266,0.785-0.266,1.455v0.635h-2.48v-0.354
					c0-1.526,0.28-2.589,0.842-3.19c0.561-0.6,1.54-0.9,2.938-0.9c1.329,0,2.271,0.305,2.828,0.916
					C222.078,293.42,222.356,294.479,222.356,295.985z M219.653,299.707c-0.906,0.049-1.519,0.217-1.839,0.502
					c-0.319,0.285-0.479,0.793-0.479,1.521v1.935c0,0.817,0.091,1.391,0.273,1.721c0.182,0.329,0.484,0.495,0.908,0.495
					c0.413,0,0.709-0.163,0.886-0.488c0.177-0.324,0.266-0.9,0.266-1.728L219.653,299.707z"/>
				<path fill="#FFFFFF" d="M225.073,304.477h2.6v2.969h-2.6V304.477z"/>
			</g>
		</g>
	</g>
	<path fill="#ABC02F" d="M323.048,397.343c0,6.628-5.372,12-12,12H12c-6.627,0-12-5.372-12-12v-37.921c0-6.627,5.373-12,12-12
		h299.048c6.628,0,12,5.373,12,12V397.343z"/>
	<g id="s87dzn.tif_2_">
		<g>
			<path fill-rule="evenodd" clip-rule="evenodd" fill="#9BA92E" d="M270.254,401.228c-2.166-0.912-2.623-1.611-2.623-4.021
				c0-4.106,0-8.215,0-12.323c0-0.392,0-0.783,0-1.244c2.191,0,4.299,0,6.494,0c0,3.677,0,7.301,0,11.002c11.342,0,22.598,0,33.98,0
				c0-3.648,0-7.299,0-11.002c2.235,0,4.342,0,6.535,0c0,2.151,0,4.236,0,6.322c0,2.414-0.076,4.831,0.024,7.241
				c0.087,2.048-0.714,3.374-2.646,4.024C298.097,401.228,284.178,401.228,270.254,401.228z"/>
			<path fill-rule="evenodd" clip-rule="evenodd" fill="#9BA92E" d="M295.812,369.568c2.022,0,3.905,0,6.009,0
				c-0.259,0.562-0.348,0.909-0.551,1.173c-2.85,3.715-5.708,7.422-8.584,11.119c-1.082,1.391-1.516,1.359-2.652-0.02
				c-2.961-3.583-5.938-7.152-8.896-10.736c-0.234-0.284-0.389-0.636-0.709-1.174c2.156,0,4.072,0,6.107,0
				c0.029-0.519,0.068-0.897,0.068-1.276c0.004-4.976,0.026-9.951-0.021-14.928c-0.008-0.957,0.393-1.192,1.215-1.188
				c2.233,0.012,4.471,0.035,6.703-0.012c0.967-0.018,1.338,0.294,1.328,1.305c-0.039,4.761-0.017,9.52-0.017,14.279
				C295.812,368.501,295.812,368.894,295.812,369.568z"/>
		</g>
	</g>
	<g>
		<g>
			<path fill="#FFFFFF" d="M31.766,354.391h2.684c1.454,0,2.474,0.248,3.059,0.742c0.584,0.494,0.876,1.338,0.876,2.531v3.762
				c0,1.169-0.29,2.008-0.87,2.519s-1.536,0.767-2.868,0.767h-0.649v7.758h-2.23V354.391z M33.996,356.205v6.703H34.4
				c0.629,0,1.059-0.143,1.287-0.428c0.229-0.286,0.343-0.862,0.343-1.729v-2.414c0-0.866-0.112-1.438-0.337-1.716
				s-0.655-0.417-1.293-0.417H33.996z"/>
			<path fill="#FFFFFF" d="M46.265,362.958v9.511h-2.108l-0.122-1.029c-0.262,0.44-0.566,0.773-0.913,0.998
				c-0.348,0.225-0.729,0.337-1.146,0.337c-0.752,0-1.295-0.247-1.63-0.741s-0.502-1.293-0.502-2.396v-2.169
				c0-1.013,0.314-1.746,0.943-2.2c0.629-0.453,1.712-0.713,3.248-0.777v-1.459c0-0.752-0.07-1.254-0.209-1.508
				c-0.139-0.252-0.388-0.379-0.747-0.379c-0.327,0-0.563,0.125-0.711,0.373c-0.147,0.25-0.221,0.652-0.221,1.207v0.527h-2.059
				v-0.294c0-1.267,0.232-2.149,0.698-2.647s1.278-0.748,2.438-0.748c1.104,0,1.886,0.254,2.348,0.761
				C46.033,360.83,46.265,361.708,46.265,362.958z M44.021,366.047c-0.752,0.041-1.261,0.18-1.525,0.416
				c-0.266,0.237-0.398,0.658-0.398,1.263v1.605c0,0.679,0.075,1.153,0.227,1.428c0.151,0.273,0.402,0.41,0.754,0.41
				c0.343,0,0.588-0.135,0.735-0.404c0.146-0.27,0.221-0.747,0.221-1.434L44.021,366.047z"/>
			<path fill="#FFFFFF" d="M52.943,359.697v1.925h-0.11c-0.776,0-1.321,0.171-1.636,0.515s-0.472,0.952-0.472,1.826v8.506H48.52
				v-12.6h2.107l0.099,1.029c0.277-0.416,0.575-0.725,0.895-0.925c0.318-0.2,0.665-0.3,1.041-0.3c0.033,0,0.08,0.004,0.142,0.012
				C52.863,359.693,52.91,359.697,52.943,359.697z"/>
			<path fill="#FFFFFF" d="M60.224,362.958v9.511h-2.108l-0.122-1.029c-0.262,0.44-0.566,0.773-0.913,0.998
				c-0.348,0.225-0.729,0.337-1.146,0.337c-0.752,0-1.295-0.247-1.63-0.741s-0.502-1.293-0.502-2.396v-2.169
				c0-1.013,0.314-1.746,0.943-2.2c0.629-0.453,1.712-0.713,3.248-0.777v-1.459c0-0.752-0.07-1.254-0.209-1.508
				c-0.139-0.252-0.388-0.379-0.747-0.379c-0.327,0-0.563,0.125-0.711,0.373c-0.147,0.25-0.221,0.652-0.221,1.207v0.527h-2.059
				v-0.294c0-1.267,0.232-2.149,0.698-2.647s1.278-0.748,2.438-0.748c1.104,0,1.886,0.254,2.348,0.761
				C59.992,360.83,60.224,361.708,60.224,362.958z M57.98,366.047c-0.752,0.041-1.261,0.18-1.525,0.416
				c-0.266,0.237-0.398,0.658-0.398,1.263v1.605c0,0.679,0.075,1.153,0.227,1.428c0.151,0.273,0.402,0.41,0.754,0.41
				c0.343,0,0.588-0.135,0.735-0.404c0.146-0.27,0.221-0.747,0.221-1.434L57.98,366.047z"/>
			<path fill="#FFFFFF" d="M66.008,359.869h2.145l1.079,10.369h0.122l1.201-10.369h1.937l-1.888,12.6H67.92L66.008,359.869z"/>
			<path fill="#FFFFFF" d="M80.236,363.889v2.93H76.07v2.488c0,0.734,0.073,1.233,0.22,1.494c0.147,0.262,0.4,0.393,0.76,0.393
				c0.352,0,0.599-0.139,0.742-0.416c0.143-0.277,0.214-0.768,0.214-1.471v-1.078h2.23v0.82c0,1.291-0.255,2.23-0.766,2.818
				c-0.511,0.589-1.325,0.883-2.445,0.883c-1.209,0-2.051-0.305-2.524-0.913s-0.711-1.737-0.711-3.389v-4.56
				c0-1.658,0.239-2.793,0.717-3.406c0.479-0.613,1.326-0.92,2.543-0.92c1.185,0,2.013,0.311,2.482,0.932
				S80.236,362.247,80.236,363.889z M78.006,363.007c0-0.728-0.071-1.228-0.214-1.501c-0.144-0.273-0.391-0.41-0.742-0.41
				c-0.359,0-0.612,0.135-0.76,0.404c-0.146,0.27-0.22,0.771-0.22,1.507v2.28h1.936V363.007z"/>
			<path fill="#FFFFFF" d="M86.842,359.697v1.925h-0.11c-0.776,0-1.321,0.171-1.636,0.515s-0.472,0.952-0.472,1.826v8.506h-2.206
				v-12.6h2.107l0.099,1.029c0.277-0.416,0.575-0.725,0.895-0.925c0.318-0.2,0.665-0.3,1.041-0.3c0.033,0,0.08,0.004,0.142,0.012
				C86.762,359.693,86.809,359.697,86.842,359.697z"/>
			<path fill="#FFFFFF" d="M98.338,360.973c0.326-0.482,0.659-0.838,0.999-1.066c0.339-0.229,0.708-0.344,1.108-0.344
				c0.711,0,1.21,0.228,1.496,0.681c0.285,0.454,0.429,1.289,0.429,2.507v9.719h-2.182v-9.389c0-0.661-0.065-1.123-0.196-1.385
				s-0.348-0.393-0.649-0.393c-0.318,0-0.545,0.138-0.681,0.411c-0.135,0.274-0.202,0.729-0.202,1.366v9.389h-2.206v-9.389
				c0-0.678-0.062-1.144-0.189-1.396c-0.127-0.254-0.341-0.381-0.644-0.381c-0.318,0-0.55,0.14-0.692,0.418
				c-0.143,0.277-0.215,0.73-0.215,1.359v9.389h-2.181v-12.6h2.107l0.099,1.006c0.277-0.449,0.584-0.781,0.919-0.993
				s0.723-0.319,1.164-0.319c0.433,0,0.811,0.134,1.134,0.398C98.078,360.227,98.272,360.564,98.338,360.973z"/>
			<path fill="#FFFFFF" d="M110.839,362.958v9.511h-2.108l-0.122-1.029c-0.262,0.44-0.566,0.773-0.913,0.998
				c-0.348,0.225-0.729,0.337-1.146,0.337c-0.752,0-1.295-0.247-1.63-0.741s-0.502-1.293-0.502-2.396v-2.169
				c0-1.013,0.314-1.746,0.943-2.2c0.629-0.453,1.712-0.713,3.248-0.777v-1.459c0-0.752-0.07-1.254-0.209-1.508
				c-0.139-0.252-0.388-0.379-0.747-0.379c-0.327,0-0.563,0.125-0.711,0.373c-0.147,0.25-0.221,0.652-0.221,1.207v0.527h-2.059
				v-0.294c0-1.267,0.232-2.149,0.698-2.647s1.278-0.748,2.438-0.748c1.104,0,1.886,0.254,2.348,0.761
				C110.607,360.83,110.839,361.708,110.839,362.958z M108.596,366.047c-0.752,0.041-1.261,0.18-1.525,0.416
				c-0.266,0.237-0.398,0.658-0.398,1.263v1.605c0,0.679,0.075,1.153,0.227,1.428c0.151,0.273,0.402,0.41,0.754,0.41
				c0.343,0,0.588-0.135,0.735-0.404c0.146-0.27,0.221-0.747,0.221-1.434L108.596,366.047z M107.971,355.273h2.084l-1.704,2.941
				h-1.434L107.971,355.273z"/>
			<path fill="#FFFFFF" d="M118.743,362.908v0.602h-2.133v-0.65c0-0.719-0.055-1.184-0.165-1.396s-0.316-0.318-0.619-0.318
				c-0.277,0-0.476,0.1-0.595,0.3c-0.118,0.2-0.177,0.529-0.177,0.987v0.477c0,0.205,0.073,0.434,0.22,0.688
				c0.147,0.253,0.385,0.559,0.711,0.919l1.802,1.899c0.393,0.425,0.678,0.816,0.858,1.176c0.18,0.36,0.27,0.724,0.27,1.092v1.004
				c0,1.039-0.254,1.812-0.76,2.323c-0.507,0.511-1.283,0.766-2.329,0.766c-1.095,0-1.86-0.241-2.298-0.723
				s-0.655-1.349-0.655-2.599v-0.146v-0.858h2.059v1.005c0,0.687,0.057,1.148,0.172,1.385c0.114,0.237,0.322,0.355,0.625,0.355
				c0.359,0,0.612-0.109,0.76-0.33c0.146-0.221,0.221-0.597,0.221-1.128v-0.478c0-0.295-0.074-0.591-0.221-0.889
				c-0.147-0.299-0.376-0.607-0.687-0.926l-1.753-1.826c-0.49-0.531-0.809-0.962-0.955-1.293c-0.147-0.33-0.221-0.705-0.221-1.121
				v-0.723c0-0.957,0.253-1.682,0.76-2.176c0.506-0.494,1.254-0.742,2.242-0.742c1.03,0,1.766,0.258,2.206,0.773
				C118.522,360.85,118.743,361.708,118.743,362.908z"/>
			<path fill="#FFFFFF" d="M120.925,370.005h2.316l-1.409,4.547h-1.68L120.925,370.005z"/>
			<path fill="#FFFFFF" d="M133.744,354.391h2.23v18.078h-2.107l-0.123-1.029c-0.253,0.433-0.554,0.764-0.9,0.992
				c-0.348,0.229-0.726,0.343-1.134,0.343c-0.735,0-1.267-0.243-1.594-0.729c-0.326-0.485-0.49-1.288-0.49-2.408v-6.936
				c0-1.137,0.164-1.943,0.49-2.421c0.327-0.478,0.866-0.718,1.618-0.718c0.4,0,0.772,0.113,1.115,0.338s0.642,0.549,0.895,0.975
				V354.391z M133.744,363.08c0-0.661-0.069-1.123-0.208-1.385c-0.14-0.262-0.38-0.393-0.724-0.393
				c-0.352,0-0.599,0.129-0.741,0.387s-0.215,0.721-0.215,1.391v6.152c0,0.687,0.069,1.158,0.209,1.416
				c0.139,0.258,0.38,0.386,0.723,0.386c0.344,0,0.589-0.137,0.735-0.41c0.147-0.274,0.221-0.737,0.221-1.392V363.08z"/>
			<path fill="#FFFFFF" d="M144.577,363.889v2.93h-4.166v2.488c0,0.734,0.073,1.233,0.22,1.494c0.147,0.262,0.4,0.393,0.76,0.393
				c0.352,0,0.599-0.139,0.742-0.416c0.143-0.277,0.214-0.768,0.214-1.471v-1.078h2.23v0.82c0,1.291-0.255,2.23-0.766,2.818
				c-0.511,0.589-1.325,0.883-2.445,0.883c-1.209,0-2.051-0.305-2.524-0.913s-0.711-1.737-0.711-3.389v-4.56
				c0-1.658,0.239-2.793,0.717-3.406c0.479-0.613,1.326-0.92,2.543-0.92c1.185,0,2.013,0.311,2.482,0.932
				S144.577,362.247,144.577,363.889z M142.347,363.007c0-0.728-0.071-1.228-0.214-1.501c-0.144-0.273-0.391-0.41-0.742-0.41
				c-0.359,0-0.612,0.135-0.76,0.404c-0.146,0.27-0.22,0.771-0.22,1.507v2.28h1.936V363.007z"/>
			<path fill="#FFFFFF" d="M152.409,362.908v0.602h-2.133v-0.65c0-0.719-0.055-1.184-0.165-1.396s-0.316-0.318-0.619-0.318
				c-0.277,0-0.476,0.1-0.595,0.3c-0.118,0.2-0.177,0.529-0.177,0.987v0.477c0,0.205,0.073,0.434,0.22,0.688
				c0.147,0.253,0.385,0.559,0.711,0.919l1.802,1.899c0.393,0.425,0.678,0.816,0.858,1.176c0.18,0.36,0.27,0.724,0.27,1.092v1.004
				c0,1.039-0.254,1.812-0.76,2.323c-0.507,0.511-1.283,0.766-2.329,0.766c-1.095,0-1.86-0.241-2.298-0.723
				s-0.655-1.349-0.655-2.599v-0.146v-0.858h2.059v1.005c0,0.687,0.057,1.148,0.172,1.385c0.114,0.237,0.322,0.355,0.625,0.355
				c0.359,0,0.612-0.109,0.76-0.33c0.146-0.221,0.221-0.597,0.221-1.128v-0.478c0-0.295-0.074-0.591-0.221-0.889
				c-0.147-0.299-0.376-0.607-0.687-0.926l-1.753-1.826c-0.49-0.531-0.809-0.962-0.955-1.293c-0.147-0.33-0.221-0.705-0.221-1.121
				v-0.723c0-0.957,0.253-1.682,0.76-2.176c0.506-0.494,1.254-0.742,2.242-0.742c1.03,0,1.766,0.258,2.206,0.773
				C152.188,360.85,152.409,361.708,152.409,362.908z"/>
			<path fill="#FFFFFF" d="M160.62,363.276v0.735h-2.23v-1.029c0-0.703-0.065-1.181-0.196-1.434
				c-0.13-0.254-0.359-0.381-0.686-0.381c-0.286,0-0.488,0.131-0.607,0.393c-0.118,0.262-0.177,0.752-0.177,1.471v6.275
				c0,0.734,0.062,1.233,0.189,1.494c0.127,0.262,0.341,0.393,0.644,0.393c0.294,0,0.502-0.127,0.625-0.379
				c0.122-0.254,0.184-0.756,0.184-1.508v-1.227h2.255v0.969c0,1.258-0.253,2.189-0.76,2.795c-0.507,0.604-1.282,0.906-2.328,0.906
				c-1.152,0-1.955-0.305-2.408-0.913c-0.454-0.608-0.681-1.737-0.681-3.389v-4.56c0-1.649,0.231-2.783,0.692-3.4
				c0.462-0.617,1.269-0.926,2.421-0.926c1.046,0,1.817,0.303,2.316,0.908C160.371,361.074,160.62,362.01,160.62,363.276z"/>
			<path fill="#FFFFFF" d="M168.746,362.958v9.511h-2.108l-0.122-1.029c-0.262,0.44-0.566,0.773-0.913,0.998
				c-0.348,0.225-0.729,0.337-1.146,0.337c-0.752,0-1.295-0.247-1.63-0.741s-0.502-1.293-0.502-2.396v-2.169
				c0-1.013,0.314-1.746,0.943-2.2c0.629-0.453,1.712-0.713,3.248-0.777v-1.459c0-0.752-0.07-1.254-0.209-1.508
				c-0.139-0.252-0.388-0.379-0.747-0.379c-0.327,0-0.563,0.125-0.711,0.373c-0.147,0.25-0.221,0.652-0.221,1.207v0.527h-2.059
				v-0.294c0-1.267,0.232-2.149,0.698-2.647s1.278-0.748,2.438-0.748c1.104,0,1.886,0.254,2.348,0.761
				C168.515,360.83,168.746,361.708,168.746,362.958z M166.503,366.047c-0.752,0.041-1.261,0.18-1.525,0.416
				c-0.266,0.237-0.398,0.658-0.398,1.263v1.605c0,0.679,0.075,1.153,0.227,1.428c0.151,0.273,0.402,0.41,0.754,0.41
				c0.343,0,0.588-0.135,0.735-0.404c0.146-0.27,0.221-0.747,0.221-1.434L166.503,366.047z"/>
			<path fill="#FFFFFF" d="M175.425,359.697v1.925h-0.11c-0.776,0-1.321,0.171-1.636,0.515s-0.472,0.952-0.472,1.826v8.506h-2.206
				v-12.6h2.107l0.099,1.029c0.277-0.416,0.575-0.725,0.895-0.925c0.318-0.2,0.665-0.3,1.041-0.3c0.033,0,0.08,0.004,0.142,0.012
				C175.345,359.693,175.392,359.697,175.425,359.697z"/>
			<path fill="#FFFFFF" d="M180.572,360.875l0.123-1.006h2.107v13.775c0,1.405-0.237,2.384-0.711,2.936
				c-0.474,0.551-1.299,0.827-2.476,0.827c-1.103,0-1.905-0.262-2.408-0.784c-0.502-0.523-0.754-1.356-0.754-2.5v-0.527h2.256v0.502
				c0,0.621,0.067,1.061,0.202,1.318c0.135,0.257,0.353,0.386,0.655,0.386c0.367,0,0.627-0.137,0.778-0.411
				c0.151-0.273,0.227-0.753,0.227-1.439v-3.064c-0.245,0.434-0.539,0.758-0.883,0.975c-0.343,0.217-0.727,0.325-1.151,0.325
				c-0.744,0-1.277-0.237-1.6-0.711c-0.323-0.474-0.484-1.271-0.484-2.39v-6.41c0-1.119,0.164-1.918,0.49-2.396
				c0.327-0.478,0.866-0.718,1.618-0.718c0.4,0,0.772,0.113,1.115,0.338S180.319,360.449,180.572,360.875z M180.572,363.08
				c0-0.67-0.071-1.137-0.215-1.402c-0.143-0.266-0.382-0.398-0.717-0.398c-0.343,0-0.588,0.133-0.735,0.398
				c-0.146,0.266-0.221,0.732-0.221,1.402v5.602c0,0.686,0.069,1.158,0.209,1.415c0.139,0.257,0.38,0.386,0.723,0.386
				c0.344,0,0.589-0.137,0.735-0.41c0.147-0.273,0.221-0.737,0.221-1.391V363.08z"/>
			<path fill="#FFFFFF" d="M185.009,359.869h2.231v9.363c0,0.687,0.071,1.158,0.214,1.416s0.391,0.386,0.741,0.386
				c0.344,0,0.589-0.137,0.735-0.41c0.147-0.274,0.221-0.737,0.221-1.392v-9.363h2.23v12.6h-2.132l-0.099-1.029
				c-0.27,0.433-0.582,0.76-0.938,0.98c-0.355,0.22-0.745,0.33-1.17,0.33c-0.744,0-1.269-0.229-1.575-0.686
				c-0.307-0.458-0.46-1.287-0.46-2.488V359.869z"/>
			<path fill="#FFFFFF" d="M200.01,363.889v2.93h-4.166v2.488c0,0.734,0.073,1.233,0.22,1.494c0.147,0.262,0.4,0.393,0.76,0.393
				c0.352,0,0.599-0.139,0.742-0.416c0.143-0.277,0.214-0.768,0.214-1.471v-1.078h2.23v0.82c0,1.291-0.255,2.23-0.766,2.818
				c-0.511,0.589-1.325,0.883-2.445,0.883c-1.209,0-2.051-0.305-2.524-0.913s-0.711-1.737-0.711-3.389v-4.56
				c0-1.658,0.239-2.793,0.717-3.406c0.479-0.613,1.326-0.92,2.543-0.92c1.185,0,2.013,0.311,2.482,0.932
				S200.01,362.247,200.01,363.889z M197.779,363.007c0-0.728-0.071-1.228-0.214-1.501c-0.144-0.273-0.391-0.41-0.742-0.41
				c-0.359,0-0.612,0.135-0.76,0.404c-0.146,0.27-0.22,0.771-0.22,1.507v2.28h1.936V363.007z"/>
			<path fill="#FFFFFF" d="M212.805,362.958v9.511h-2.108l-0.122-1.029c-0.262,0.44-0.566,0.773-0.913,0.998
				c-0.348,0.225-0.729,0.337-1.146,0.337c-0.752,0-1.295-0.247-1.63-0.741s-0.502-1.293-0.502-2.396v-2.169
				c0-1.013,0.314-1.746,0.943-2.2c0.629-0.453,1.712-0.713,3.248-0.777v-1.459c0-0.752-0.07-1.254-0.209-1.508
				c-0.139-0.252-0.388-0.379-0.747-0.379c-0.327,0-0.563,0.125-0.711,0.373c-0.147,0.25-0.221,0.652-0.221,1.207v0.527h-2.059
				v-0.294c0-1.267,0.232-2.149,0.698-2.647s1.278-0.748,2.438-0.748c1.104,0,1.886,0.254,2.348,0.761
				C212.573,360.83,212.805,361.708,212.805,362.958z M210.562,366.047c-0.752,0.041-1.261,0.18-1.525,0.416
				c-0.266,0.237-0.398,0.658-0.398,1.263v1.605c0,0.679,0.075,1.153,0.227,1.428c0.151,0.273,0.402,0.41,0.754,0.41
				c0.343,0,0.588-0.135,0.735-0.404c0.146-0.27,0.221-0.747,0.221-1.434L210.562,366.047z"/>
			<path fill="#FFFFFF" d="M219.128,360.875l0.098-1.006h2.133v17.367h-2.23v-5.797c-0.253,0.424-0.552,0.749-0.895,0.974
				s-0.723,0.337-1.14,0.337c-0.744,0-1.281-0.24-1.611-0.723c-0.331-0.482-0.497-1.279-0.497-2.391v-6.961
				c0-1.119,0.166-1.918,0.497-2.396c0.33-0.478,0.876-0.718,1.636-0.718c0.4,0,0.772,0.113,1.115,0.338
				S218.875,360.449,219.128,360.875z M219.128,363.08c0-0.653-0.071-1.117-0.215-1.391c-0.143-0.273-0.382-0.41-0.717-0.41
				c-0.343,0-0.588,0.133-0.735,0.398c-0.146,0.266-0.221,0.732-0.221,1.402v6.152c0,0.679,0.072,1.148,0.215,1.41
				s0.382,0.392,0.717,0.392c0.344,0,0.589-0.137,0.735-0.41c0.147-0.274,0.221-0.737,0.221-1.392V363.08z"/>
			<path fill="#FFFFFF" d="M223.564,359.869h2.231v9.363c0,0.687,0.071,1.158,0.214,1.416s0.391,0.386,0.741,0.386
				c0.344,0,0.589-0.137,0.735-0.41c0.147-0.274,0.221-0.737,0.221-1.392v-9.363h2.23v12.6h-2.132l-0.099-1.029
				c-0.27,0.433-0.582,0.76-0.938,0.98c-0.355,0.22-0.745,0.33-1.17,0.33c-0.744,0-1.269-0.229-1.575-0.686
				c-0.307-0.458-0.46-1.287-0.46-2.488V359.869z"/>
			<path fill="#FFFFFF" d="M232.193,359.869h2.206v12.6h-2.206V359.869z M233.517,355.273h2.083l-1.703,2.941h-1.434
				L233.517,355.273z"/>
			<path fill="#FFFFFF" d="M36.233,379.286h2.206v18.077h-2.206V379.286z"/>
			<path fill="#FFFFFF" d="M46.908,387.854v9.51H44.8l-0.122-1.029c-0.262,0.441-0.566,0.773-0.913,0.998
				c-0.348,0.225-0.729,0.338-1.146,0.338c-0.752,0-1.295-0.248-1.63-0.742s-0.502-1.293-0.502-2.396v-2.169
				c0-1.014,0.314-1.746,0.943-2.2s1.712-0.713,3.248-0.778v-1.459c0-0.751-0.07-1.254-0.209-1.507s-0.388-0.38-0.747-0.38
				c-0.327,0-0.563,0.125-0.711,0.374s-0.221,0.651-0.221,1.207v0.526h-2.059v-0.293c0-1.268,0.232-2.149,0.698-2.648
				c0.466-0.498,1.278-0.747,2.438-0.747c1.104,0,1.886,0.253,2.348,0.761C46.677,385.725,46.908,386.604,46.908,387.854z
				 M44.665,390.941c-0.752,0.041-1.261,0.18-1.525,0.416c-0.266,0.238-0.398,0.658-0.398,1.264v1.605
				c0,0.678,0.075,1.153,0.227,1.428c0.151,0.273,0.402,0.41,0.754,0.41c0.343,0,0.588-0.135,0.735-0.404
				c0.146-0.27,0.221-0.748,0.221-1.434L44.665,390.941z"/>
			<path fill="#FFFFFF" d="M53.808,379.286h3.138c1.396,0,2.377,0.229,2.941,0.687c0.563,0.457,0.846,1.234,0.846,2.328v2.918
				c0,0.931-0.192,1.611-0.576,2.04c-0.385,0.429-1.038,0.692-1.961,0.79c0.964,0.074,1.64,0.331,2.028,0.772
				c0.388,0.44,0.582,1.188,0.582,2.243v6.299h-2.39v-6.324c0-0.874-0.121-1.436-0.362-1.685c-0.24-0.249-0.737-0.374-1.488-0.374
				h-0.527v8.383h-2.23V379.286z M56.038,381.1v6.079h0.478c0.72,0,1.203-0.137,1.453-0.41c0.249-0.274,0.373-0.823,0.373-1.648
				v-1.961c0-0.833-0.124-1.385-0.373-1.655c-0.25-0.27-0.733-0.404-1.453-0.404H56.038z"/>
			<path fill="#FFFFFF" d="M69.531,388.784v2.929h-4.166v2.488c0,0.735,0.073,1.234,0.22,1.495c0.147,0.262,0.4,0.393,0.76,0.393
				c0.352,0,0.599-0.14,0.742-0.417c0.143-0.277,0.214-0.768,0.214-1.471v-1.078h2.23v0.82c0,1.291-0.255,2.23-0.766,2.819
				s-1.325,0.882-2.445,0.882c-1.209,0-2.051-0.304-2.524-0.912c-0.474-0.609-0.711-1.738-0.711-3.389v-4.56
				c0-1.658,0.239-2.794,0.717-3.407c0.479-0.612,1.326-0.919,2.543-0.919c1.185,0,2.013,0.311,2.482,0.932
				S69.531,387.143,69.531,388.784z M67.301,387.902c0-0.728-0.071-1.229-0.214-1.502c-0.144-0.273-0.391-0.41-0.742-0.41
				c-0.359,0-0.612,0.135-0.76,0.404c-0.146,0.27-0.22,0.771-0.22,1.508v2.279h1.936V387.902z"/>
			<path fill="#FFFFFF" d="M77.362,387.804v0.601h-2.133v-0.649c0-0.719-0.055-1.185-0.165-1.397
				c-0.11-0.212-0.316-0.318-0.619-0.318c-0.277,0-0.476,0.1-0.595,0.301c-0.118,0.199-0.177,0.529-0.177,0.986v0.478
				c0,0.204,0.073,0.434,0.22,0.687c0.147,0.254,0.385,0.56,0.711,0.92l1.802,1.898c0.393,0.426,0.678,0.817,0.858,1.177
				c0.18,0.36,0.27,0.724,0.27,1.091v1.005c0,1.038-0.254,1.812-0.76,2.323c-0.507,0.51-1.283,0.766-2.329,0.766
				c-1.095,0-1.86-0.241-2.298-0.723c-0.438-0.482-0.655-1.349-0.655-2.599v-0.147v-0.857h2.059v1.005
				c0,0.687,0.057,1.147,0.172,1.385c0.114,0.237,0.322,0.355,0.625,0.355c0.359,0,0.612-0.11,0.76-0.331
				c0.146-0.221,0.221-0.596,0.221-1.127v-0.479c0-0.294-0.074-0.59-0.221-0.889c-0.147-0.298-0.376-0.606-0.687-0.926l-1.753-1.826
				c-0.49-0.53-0.809-0.961-0.955-1.293c-0.147-0.33-0.221-0.704-0.221-1.121v-0.723c0-0.956,0.253-1.682,0.76-2.176
				c0.506-0.494,1.254-0.741,2.242-0.741c1.03,0,1.766,0.257,2.206,0.772C77.142,385.745,77.362,386.604,77.362,387.804z"/>
			<path fill="#FFFFFF" d="M85.843,388.784v4.56c0,1.65-0.238,2.783-0.717,3.4c-0.478,0.617-1.325,0.926-2.543,0.926
				c-1.177,0-2.002-0.311-2.476-0.932s-0.711-1.752-0.711-3.395v-4.56c0-1.658,0.239-2.794,0.717-3.407
				c0.479-0.612,1.326-0.919,2.543-0.919c1.169,0,1.992,0.315,2.47,0.944C85.604,386.031,85.843,387.158,85.843,388.784z
				 M83.588,387.926c0-0.71-0.071-1.198-0.214-1.464c-0.144-0.265-0.391-0.398-0.742-0.398c-0.351,0-0.599,0.134-0.741,0.398
				c-0.143,0.266-0.214,0.754-0.214,1.464v6.275c0,0.735,0.071,1.234,0.214,1.495c0.143,0.262,0.391,0.393,0.741,0.393
				c0.352,0,0.599-0.14,0.742-0.417c0.143-0.277,0.214-0.768,0.214-1.471V387.926z"/>
			<path fill="#FFFFFF" d="M88.025,379.286h2.206v18.077h-2.206V379.286z"/>
			<path fill="#FFFFFF" d="M92.474,384.765h2.231v9.363c0,0.687,0.071,1.158,0.214,1.415c0.143,0.258,0.391,0.387,0.741,0.387
				c0.344,0,0.589-0.137,0.735-0.41c0.147-0.274,0.221-0.738,0.221-1.392v-9.363h2.23v12.599h-2.132l-0.099-1.029
				c-0.27,0.434-0.582,0.76-0.938,0.98s-0.745,0.33-1.17,0.33c-0.744,0-1.269-0.229-1.575-0.686s-0.46-1.287-0.46-2.488V384.765z"/>
			<path fill="#FFFFFF" d="M107.204,388.172v0.734h-2.23v-1.029c0-0.702-0.065-1.18-0.196-1.434c-0.13-0.253-0.359-0.38-0.686-0.38
				c-0.286,0-0.488,0.131-0.607,0.393c-0.118,0.261-0.177,0.751-0.177,1.47v6.275c0,0.735,0.062,1.234,0.189,1.495
				c0.127,0.262,0.341,0.393,0.644,0.393c0.294,0,0.502-0.127,0.625-0.38c0.122-0.254,0.184-0.756,0.184-1.508v-1.226h2.255v0.968
				c0,1.259-0.253,2.19-0.76,2.795s-1.282,0.906-2.328,0.906c-1.152,0-1.955-0.304-2.408-0.912
				c-0.454-0.609-0.681-1.738-0.681-3.389v-4.56c0-1.649,0.231-2.784,0.692-3.401c0.462-0.616,1.269-0.925,2.421-0.925
				c1.046,0,1.817,0.303,2.316,0.907C106.955,385.97,107.204,386.905,107.204,388.172z"/>
			<path fill="#FFFFFF" d="M109.055,379.286h2.365v2.268h-2.365V379.286z M109.129,384.765h2.206v12.599h-2.206V384.765z"/>
			<path fill="#FFFFFF" d="M119.975,388.784v4.56c0,1.65-0.238,2.783-0.717,3.4c-0.478,0.617-1.325,0.926-2.543,0.926
				c-1.177,0-2.002-0.311-2.476-0.932s-0.711-1.752-0.711-3.395v-4.56c0-1.658,0.239-2.794,0.717-3.407
				c0.479-0.612,1.326-0.919,2.543-0.919c1.169,0,1.992,0.315,2.47,0.944C119.736,386.031,119.975,387.158,119.975,388.784z
				 M117.72,387.926c0-0.71-0.071-1.198-0.214-1.464c-0.144-0.265-0.391-0.398-0.742-0.398c-0.351,0-0.599,0.134-0.741,0.398
				c-0.143,0.266-0.214,0.754-0.214,1.464v6.275c0,0.735,0.071,1.234,0.214,1.495c0.143,0.262,0.391,0.393,0.741,0.393
				c0.352,0,0.599-0.14,0.742-0.417c0.143-0.277,0.214-0.768,0.214-1.471V387.926z M116.984,380.169h2.084l-1.704,2.94h-1.434
				L116.984,380.169z"/>
			<path fill="#FFFFFF" d="M128.505,387.645v9.719h-2.23v-9.388c0-0.679-0.071-1.144-0.214-1.397
				c-0.144-0.253-0.391-0.38-0.742-0.38c-0.343,0-0.588,0.134-0.735,0.398c-0.146,0.266-0.22,0.726-0.22,1.379v9.388h-2.206v-12.599
				h2.107l0.099,1.005c0.27-0.434,0.584-0.76,0.943-0.98s0.747-0.331,1.164-0.331c0.752,0,1.278,0.231,1.581,0.692
				C128.354,385.612,128.505,386.443,128.505,387.645z"/>
			<path fill="#FFFFFF" d="M137.586,379.875h2.034v17.488h-2.193v-14.658c-0.262,0.254-0.548,0.477-0.858,0.668
				c-0.311,0.192-0.649,0.362-1.017,0.51v-2.207c0.416-0.212,0.794-0.469,1.133-0.771
				C137.024,380.602,137.324,380.259,137.586,379.875z"/>
			<path fill="#FFFFFF" d="M146.447,379.875h2.034v17.488h-2.193v-14.658c-0.262,0.254-0.548,0.477-0.858,0.668
				c-0.311,0.192-0.649,0.362-1.017,0.51v-2.207c0.416-0.212,0.794-0.469,1.133-0.771
				C145.886,380.602,146.186,380.259,146.447,379.875z"/>
			<path fill="#FFFFFF" d="M159.4,383.588v0.846h-2.267v-1.005c0-0.882-0.067-1.479-0.202-1.789s-0.378-0.466-0.729-0.466
				c-0.343,0-0.582,0.151-0.717,0.453c-0.135,0.303-0.202,0.903-0.202,1.802v3.849c0.236-0.27,0.504-0.473,0.803-0.607
				c0.298-0.135,0.614-0.201,0.949-0.201c0.891,0,1.524,0.268,1.9,0.803c0.375,0.535,0.563,1.447,0.563,2.738v3.162
				c0,1.732-0.239,2.915-0.717,3.548c-0.479,0.634-1.326,0.95-2.543,0.95c-1.186,0-2.019-0.327-2.501-0.98
				c-0.481-0.654-0.723-1.826-0.723-3.518v-9.105c0-1.717,0.239-2.891,0.717-3.523c0.479-0.633,1.313-0.95,2.507-0.95
				c1.127,0,1.936,0.306,2.426,0.919S159.4,382.15,159.4,383.588z M157.207,390.414c0-0.865-0.071-1.46-0.215-1.783
				c-0.143-0.322-0.386-0.484-0.729-0.484c-0.368,0-0.623,0.158-0.767,0.473c-0.143,0.314-0.214,0.913-0.214,1.795v3.383
				c0,0.866,0.069,1.461,0.208,1.783s0.388,0.484,0.748,0.484c0.351,0,0.601-0.166,0.747-0.496c0.147-0.332,0.221-0.922,0.221-1.771
				V390.414z"/>
			<path fill="#FFFFFF" d="M168.262,383.588v0.846h-2.267v-1.005c0-0.882-0.067-1.479-0.202-1.789s-0.378-0.466-0.729-0.466
				c-0.343,0-0.582,0.151-0.717,0.453c-0.135,0.303-0.202,0.903-0.202,1.802v3.849c0.236-0.27,0.504-0.473,0.803-0.607
				c0.298-0.135,0.614-0.201,0.949-0.201c0.891,0,1.524,0.268,1.9,0.803c0.375,0.535,0.563,1.447,0.563,2.738v3.162
				c0,1.732-0.239,2.915-0.717,3.548c-0.479,0.634-1.326,0.95-2.543,0.95c-1.186,0-2.019-0.327-2.501-0.98
				c-0.481-0.654-0.723-1.826-0.723-3.518v-9.105c0-1.717,0.239-2.891,0.717-3.523c0.479-0.633,1.313-0.95,2.507-0.95
				c1.127,0,1.936,0.306,2.426,0.919S168.262,382.15,168.262,383.588z M166.068,390.414c0-0.865-0.071-1.46-0.215-1.783
				c-0.143-0.322-0.386-0.484-0.729-0.484c-0.368,0-0.623,0.158-0.767,0.473c-0.143,0.314-0.214,0.913-0.214,1.795v3.383
				c0,0.866,0.069,1.461,0.208,1.783s0.388,0.484,0.748,0.484c0.351,0,0.601-0.166,0.747-0.496c0.147-0.332,0.221-0.922,0.221-1.771
				V390.414z"/>
			<path fill="#FFFFFF" d="M179.096,379.286h2.23v18.077h-2.107l-0.123-1.029c-0.253,0.434-0.554,0.764-0.9,0.992
				c-0.348,0.229-0.726,0.344-1.134,0.344c-0.735,0-1.267-0.244-1.594-0.729c-0.326-0.485-0.49-1.288-0.49-2.408v-6.937
				c0-1.136,0.164-1.942,0.49-2.42c0.327-0.479,0.866-0.718,1.618-0.718c0.4,0,0.772,0.112,1.115,0.337s0.642,0.55,0.895,0.975
				V379.286z M179.096,387.976c0-0.661-0.069-1.124-0.208-1.385c-0.14-0.262-0.38-0.393-0.724-0.393
				c-0.352,0-0.599,0.129-0.741,0.386c-0.143,0.258-0.215,0.722-0.215,1.392v6.152c0,0.687,0.069,1.158,0.209,1.415
				c0.139,0.258,0.38,0.387,0.723,0.387c0.344,0,0.589-0.137,0.735-0.41c0.147-0.274,0.221-0.738,0.221-1.392V387.976z"/>
			<path fill="#FFFFFF" d="M189.93,388.784v2.929h-4.166v2.488c0,0.735,0.073,1.234,0.22,1.495c0.147,0.262,0.4,0.393,0.76,0.393
				c0.352,0,0.599-0.14,0.742-0.417c0.143-0.277,0.214-0.768,0.214-1.471v-1.078h2.23v0.82c0,1.291-0.255,2.23-0.766,2.819
				s-1.325,0.882-2.445,0.882c-1.209,0-2.051-0.304-2.524-0.912c-0.474-0.609-0.711-1.738-0.711-3.389v-4.56
				c0-1.658,0.239-2.794,0.717-3.407c0.479-0.612,1.326-0.919,2.543-0.919c1.185,0,2.013,0.311,2.482,0.932
				S189.93,387.143,189.93,388.784z M187.699,387.902c0-0.728-0.071-1.229-0.214-1.502c-0.144-0.273-0.391-0.41-0.742-0.41
				c-0.359,0-0.612,0.135-0.76,0.404c-0.146,0.27-0.22,0.771-0.22,1.508v2.279h1.936V387.902z"/>
			<path fill="#FFFFFF" d="M203.056,383.478v0.833c0,0.826-0.286,1.867-0.858,3.126l-0.073,0.159l-3.591,7.966h4.571v1.802h-6.729
				v-2.279l3.432-7.599c0.032-0.065,0.069-0.144,0.11-0.233c0.58-1.25,0.87-2.254,0.87-3.014v-0.957
				c0-0.768-0.073-1.311-0.221-1.629c-0.147-0.319-0.393-0.479-0.735-0.479c-0.384,0-0.649,0.155-0.797,0.466
				c-0.146,0.311-0.221,0.907-0.221,1.789v1.005h-2.267v-0.674c0-1.568,0.251-2.655,0.753-3.26c0.503-0.605,1.383-0.907,2.642-0.907
				c1.119,0,1.918,0.294,2.396,0.882C202.816,381.063,203.056,382.064,203.056,383.478z"/>
			<path fill="#FFFFFF" d="M211.941,384.066v9.105c0,1.725-0.243,2.904-0.729,3.542s-1.342,0.956-2.567,0.956
				c-1.185,0-2.017-0.325-2.494-0.975c-0.479-0.649-0.717-1.824-0.717-3.523v-9.105c0-1.708,0.243-2.881,0.729-3.518
				c0.486-0.637,1.343-0.956,2.568-0.956c1.176,0,2.005,0.325,2.487,0.974C211.7,381.217,211.941,382.383,211.941,384.066z
				 M209.674,383.429c0-0.858-0.071-1.448-0.215-1.771c-0.143-0.323-0.398-0.484-0.766-0.484c-0.368,0-0.625,0.161-0.772,0.484
				c-0.146,0.322-0.221,0.912-0.221,1.771v10.368c0,0.875,0.072,1.471,0.215,1.789s0.395,0.479,0.754,0.479
				c0.376,0,0.637-0.164,0.784-0.49c0.147-0.327,0.221-0.92,0.221-1.777V383.429z"/>
			<path fill="#FFFFFF" d="M216.659,379.875h2.034v17.488H216.5v-14.658c-0.262,0.254-0.548,0.477-0.858,0.668
				c-0.311,0.192-0.649,0.362-1.017,0.51v-2.207c0.416-0.212,0.794-0.469,1.133-0.771
				C216.098,380.602,216.397,380.259,216.659,379.875z"/>
			<path fill="#FFFFFF" d="M225.041,388.196c-0.661-0.196-1.138-0.513-1.428-0.95c-0.29-0.437-0.435-1.056-0.435-1.856v-1.802
				c0-1.445,0.251-2.473,0.754-3.082c0.502-0.609,1.342-0.913,2.519-0.913c1.127,0,1.94,0.309,2.438,0.925
				c0.498,0.617,0.748,1.641,0.748,3.07v1.802c0,0.801-0.146,1.42-0.436,1.856c-0.29,0.438-0.766,0.754-1.428,0.95
				c0.678,0.212,1.162,0.541,1.452,0.986s0.436,1.097,0.436,1.955v2.513c0,1.445-0.254,2.477-0.76,3.094
				c-0.507,0.617-1.353,0.926-2.537,0.926c-1.145,0-1.965-0.311-2.464-0.932c-0.498-0.621-0.747-1.65-0.747-3.088v-2.513
				c0-0.858,0.145-1.51,0.435-1.955S224.363,388.408,225.041,388.196z M225.396,391.138v2.917c0,0.792,0.072,1.325,0.215,1.6
				c0.143,0.273,0.395,0.41,0.754,0.41c0.392,0,0.666-0.149,0.821-0.447c0.154-0.299,0.232-0.819,0.232-1.562v-2.917
				c0-0.769-0.073-1.3-0.221-1.593c-0.146-0.295-0.408-0.441-0.784-0.441s-0.64,0.141-0.79,0.422
				C225.473,389.808,225.396,390.346,225.396,391.138z M225.421,383.208v2.133c0,0.792,0.069,1.329,0.209,1.611
				c0.139,0.282,0.384,0.423,0.735,0.423c0.376,0,0.641-0.153,0.797-0.459c0.154-0.307,0.232-0.832,0.232-1.575v-2.133
				c0-0.751-0.075-1.278-0.227-1.581c-0.151-0.302-0.411-0.453-0.778-0.453c-0.359,0-0.611,0.143-0.754,0.429
				S225.421,382.424,225.421,383.208z"/>
			<path fill="#FFFFFF" d="M231.967,394.9h2.156v2.463h-2.156V394.9z"/>
		</g>
	</g>
</g>
</svg>
