<?xml version="1.0" encoding="utf-8"?>
<!-- Generator: Adobe Illustrator 16.0.0, SVG Export Plug-In . SVG Version: 6.00 Build 0)  -->
<!DOCTYPE svg PUBLIC "-//W3C//DTD SVG 1.1//EN" "http://www.w3.org/Graphics/SVG/1.1/DTD/svg11.dtd">
<svg version="1.1" id="Capa_1" xmlns="http://www.w3.org/2000/svg" xmlns:xlink="http://www.w3.org/1999/xlink" x="0px" y="0px"
	 width="434.867px" height="349.502px" viewBox="0 0 434.867 349.502" enable-background="new 0 0 434.867 349.502"
	 xml:space="preserve">
<g>
	<g>
		<g>
			<line fill="none" stroke="#2B1C48" stroke-width="7" stroke-miterlimit="10" x1="0" y1="346.002" x2="6" y2="346.002"/>
			
				<line fill="none" stroke="#2B1C48" stroke-width="7" stroke-miterlimit="10" stroke-dasharray="11.9819,11.9819" x1="17.982" y1="346.002" x2="419.376" y2="346.002"/>
			<polyline fill="none" stroke="#2B1C48" stroke-width="7" stroke-miterlimit="10" points="425.367,346.002 431.367,346.002 
				431.367,340.002 			"/>
			
				<line fill="none" stroke="#2B1C48" stroke-width="7" stroke-miterlimit="10" stroke-dasharray="12.3704,12.3704" x1="431.367" y1="327.632" x2="431.367" y2="12.186"/>
			<line fill="none" stroke="#2B1C48" stroke-width="7" stroke-miterlimit="10" x1="431.367" y1="6" x2="431.367" y2="0"/>
		</g>
	</g>
	<g>
		<path fill="#ABC02F" d="M104.161,321.615c0,6.629-5.373,12-12,12H18.317c-6.627,0-12-5.371-12-12v-10.318c0-6.627,5.373-12,12-12
			h73.844c6.627,0,12,5.373,12,12V321.615z"/>
		<path fill="#ABC02F" d="M210.002,321.615c0,6.629-5.374,12-12,12h-73.844c-6.627,0-12-5.371-12-12v-10.318c0-6.627,5.373-12,12-12
			h73.844c6.626,0,12,5.373,12,12V321.615z"/>
		<path fill="#ABC02F" d="M315.694,321.615c0,6.629-5.372,12-12,12h-73.843c-6.627,0-12-5.371-12-12v-10.318c0-6.627,5.373-12,12-12
			h73.843c6.628,0,12,5.373,12,12V321.615z"/>
		<g>
			<path fill="#ECEDEF" d="M20.44,318.913l5.516-0.277c-0.074,0.573-0.111,1.09-0.111,1.551c0,2.096,0.699,3.143,2.099,3.143h0.074
				c1.696-0.036,2.544-0.71,2.544-2.021v-0.124c-0.062-1.394-1.665-2.759-4.81-4.098c-3.059-1.292-4.587-3.424-4.587-6.396
				c0-0.092,0.006-0.186,0.019-0.277c0.086-3.109,2.426-4.693,7.02-4.748h0.148c4.147,0,6.222,1.971,6.222,5.911
				c0,0.313-0.013,0.646-0.037,0.997l-4.847,0.207c0.049-0.415,0.074-0.798,0.074-1.148c0-1.652-0.539-2.479-1.616-2.479
				c-1.3,0-2.012,0.494-2.136,1.481c-0.013,0.138-0.019,0.276-0.019,0.415c0,0.822,0.328,1.588,0.984,2.299
				c0.755,0.82,2.052,1.573,3.891,2.256c1.839,0.684,3.123,1.619,3.854,2.811c0.521,0.858,0.78,1.771,0.78,2.741
				c0,0.369-0.037,0.747-0.111,1.135c-0.285,1.394-1.077,2.55-2.377,3.468c-1.301,0.919-3.046,1.42-5.237,1.502
				c-0.148,0.01-0.298,0.014-0.446,0.014c-1.993,0-3.658-0.544-4.995-1.633c-1.288-1.043-1.932-2.939-1.932-5.689
				C20.403,319.619,20.415,319.273,20.44,318.913z"/>
			<path fill="#ECEDEF" d="M44.286,312.032c4.073,0.167,6.11,1.694,6.11,4.583v9.829l-4.327,0.056l-0.148-1.315
				c-0.892,0.757-2.074,1.135-3.547,1.135c-0.632,0-1.312-0.073-2.043-0.221c-2.191-0.406-3.287-1.671-3.287-3.793
				c0-0.259,0.019-0.535,0.056-0.831c0.247-2.188,2.333-3.281,6.259-3.281c0.755,0,1.584,0.042,2.488,0.124v-1.605
				c0-1.301-0.551-1.951-1.653-1.951h-0.074c-0.087-0.01-0.167-0.015-0.241-0.015c-1.201,0-1.802,0.729-1.802,2.188v0.208
				l-4.42-0.277c0-3.221,2.08-4.832,6.24-4.832H44.286z M45.847,322.97v-2.437c-0.532-0.083-1.016-0.124-1.449-0.124
				c-1.126,0-1.894,0.281-2.303,0.844c-0.247,0.342-0.371,0.66-0.371,0.955c0,0.369,0.198,0.697,0.595,0.982
				c0.309,0.223,0.711,0.333,1.207,0.333C44.156,323.523,44.93,323.339,45.847,322.97z"/>
			<path fill="#ECEDEF" d="M56.933,307.063c-0.136,2.777-0.204,5.191-0.204,7.24c0.656-0.877,1.492-1.389,2.508-1.537
				c0.173-0.01,0.34-0.014,0.501-0.014c4.036,0,6.098,2.174,6.185,6.521v0.249c0,4.356-2.148,6.534-6.444,6.534
				c-1.028,0-2-0.513-2.916-1.536l-0.148,2.117l-4.401-0.014c0.062-3.377,0.093-6.626,0.093-9.746c0-3.424-0.037-6.695-0.111-9.814
				H56.933z M56.729,316.892l-0.093,4.791c0.644,0.979,1.461,1.467,2.451,1.467c0.112,0,0.224-0.004,0.335-0.014
				c1.139-0.12,1.771-1.26,1.894-3.42c0.013-0.221,0.019-0.434,0.019-0.637c0-1.771-0.482-2.828-1.448-3.17
				c-0.297-0.102-0.588-0.152-0.873-0.152C58.233,315.757,57.472,316.136,56.729,316.892z"/>
			<path fill="#ECEDEF" d="M73.425,312.435c4.297,0,6.444,2.127,6.444,6.382c0,0.517-0.03,1.071-0.093,1.661h-8.302
				c0,2.372,0.613,3.559,1.839,3.559h0.13c1.077-0.064,1.616-0.679,1.616-1.842c0-0.249-0.025-0.525-0.074-0.83l4.42-0.07
				c0,3.518-2.062,5.299-6.185,5.344c-0.05,0.01-0.093,0.014-0.13,0.014c-3.925,0-5.887-2.219-5.887-6.658v-0.416
				C67.327,314.815,69.401,312.435,73.425,312.435z M71.029,317.931h4.197v-0.332c0-1.68-0.638-2.52-1.913-2.52
				C71.939,315.079,71.178,316.029,71.029,317.931z"/>
			<path fill="#ECEDEF" d="M86.202,316.726l0.186,10.037l-4.55,0.027c0-4.244-0.191-9.012-0.575-14.301l3.417-0.276l0.186,2.257
				c0.521-1.107,1.733-1.74,3.64-1.896c0.285-0.02,0.558-0.028,0.817-0.028c1.498,0,2.638,0.364,3.417,1.094
				c0.904,0.868,1.362,2.247,1.375,4.14l-4.123,0.305c0.012-0.157,0.019-0.31,0.019-0.457c0-1.477-0.514-2.215-1.542-2.215h-0.074
				C87.205,315.457,86.475,315.896,86.202,316.726z"/>
		</g>
		<g>
			<path fill="#ECEDEF" d="M139.621,318.913l5.516-0.277c-0.074,0.573-0.111,1.09-0.111,1.551c0,2.096,0.699,3.143,2.099,3.143
				h0.074c1.696-0.036,2.544-0.71,2.544-2.021v-0.124c-0.062-1.394-1.665-2.759-4.81-4.098c-3.059-1.292-4.587-3.424-4.587-6.396
				c0-0.092,0.006-0.186,0.019-0.277c0.086-3.109,2.426-4.693,7.02-4.748h0.148c4.147,0,6.222,1.971,6.222,5.911
				c0,0.313-0.013,0.646-0.037,0.997l-4.847,0.207c0.049-0.415,0.074-0.798,0.074-1.148c0-1.652-0.539-2.479-1.616-2.479
				c-1.3,0-2.012,0.494-2.136,1.481c-0.013,0.138-0.019,0.276-0.019,0.415c0,0.822,0.328,1.588,0.984,2.299
				c0.755,0.82,2.052,1.573,3.891,2.256c1.839,0.684,3.123,1.619,3.854,2.811c0.521,0.858,0.78,1.771,0.78,2.741
				c0,0.369-0.037,0.747-0.111,1.135c-0.285,1.394-1.077,2.55-2.377,3.468c-1.301,0.919-3.046,1.42-5.237,1.502
				c-0.148,0.01-0.298,0.014-0.446,0.014c-1.993,0-3.658-0.544-4.995-1.633c-1.288-1.043-1.932-2.939-1.932-5.689
				C139.584,319.619,139.596,319.273,139.621,318.913z"/>
			<path fill="#ECEDEF" d="M162.315,312.435c4.297,0,6.444,2.127,6.444,6.382c0,0.517-0.03,1.071-0.093,1.661h-8.302
				c0,2.372,0.613,3.559,1.839,3.559h0.13c1.077-0.064,1.616-0.679,1.616-1.842c0-0.249-0.025-0.525-0.074-0.83l4.42-0.07
				c0,3.518-2.062,5.299-6.185,5.344c-0.05,0.01-0.093,0.014-0.13,0.014c-3.925,0-5.887-2.219-5.887-6.658v-0.416
				C156.218,314.815,158.292,312.435,162.315,312.435z M159.92,317.931h4.197v-0.332c0-1.68-0.638-2.52-1.913-2.52
				C160.83,315.079,160.068,316.029,159.92,317.931z"/>
			<path fill="#ECEDEF" d="M175.093,316.726l0.186,10.037l-4.55,0.027c0-4.244-0.191-9.012-0.575-14.301l3.417-0.276l0.186,2.257
				c0.521-1.107,1.733-1.74,3.64-1.896c0.285-0.02,0.558-0.028,0.817-0.028c1.498,0,2.638,0.364,3.417,1.094
				c0.904,0.868,1.362,2.247,1.375,4.14l-4.123,0.305c0.012-0.157,0.019-0.31,0.019-0.457c0-1.477-0.514-2.215-1.542-2.215h-0.074
				C176.096,315.457,175.365,315.896,175.093,316.726z"/>
		</g>
		<g>
			<path fill="#ECEDEF" d="M246.122,306.8c-0.148,6.211-0.291,12.902-0.428,20.074h-4.216v-8.071h-5.292v7.42l-5.07-0.014
				c0.148-3.387,0.223-6.7,0.223-9.94c0-3.229-0.074-6.387-0.223-9.469h4.847l-0.204,8.071l5.293,0.166v-8.569L246.122,306.8z"/>
			<path fill="#ECEDEF" d="M254.943,312.032c4.073,0.167,6.11,1.694,6.11,4.583v9.829l-4.327,0.056l-0.148-1.315
				c-0.892,0.757-2.074,1.135-3.547,1.135c-0.632,0-1.312-0.073-2.043-0.221c-2.191-0.406-3.287-1.671-3.287-3.793
				c0-0.259,0.019-0.535,0.056-0.831c0.247-2.188,2.333-3.281,6.259-3.281c0.755,0,1.584,0.042,2.488,0.124v-1.605
				c0-1.301-0.551-1.951-1.653-1.951h-0.074c-0.087-0.01-0.167-0.015-0.241-0.015c-1.201,0-1.802,0.729-1.802,2.188v0.208
				l-4.42-0.277c0-3.221,2.08-4.832,6.24-4.832H254.943z M256.504,322.97v-2.437c-0.532-0.083-1.016-0.124-1.449-0.124
				c-1.126,0-1.894,0.281-2.303,0.844c-0.247,0.342-0.371,0.66-0.371,0.955c0,0.369,0.198,0.697,0.595,0.982
				c0.309,0.223,0.711,0.333,1.207,0.333C254.813,323.523,255.587,323.339,256.504,322.97z"/>
			<path fill="#ECEDEF" d="M270.135,320.948l4.42,0.208c0,3.331-2.062,5.021-6.185,5.066c-0.05,0.01-0.093,0.015-0.13,0.015
				c-3.925,0-5.887-2.221-5.887-6.66v-0.414c0.123-4.763,2.216-7.167,6.276-7.213h0.148c3.739,0,5.609,1.597,5.609,4.789
				c0,0.186-0.007,0.369-0.019,0.555l-3.993,0.221v-0.332c0-1.68-0.638-2.52-1.913-2.52c-1.3,0-1.95,1.361-1.95,4.084v0.457
				c0.074,2.944,0.73,4.416,1.969,4.416h0.111c1.077-0.064,1.616-0.678,1.616-1.842C270.209,321.53,270.184,321.253,270.135,320.948
				z"/>
			<path fill="#ECEDEF" d="M282.132,312.435c4.297,0,6.444,2.127,6.444,6.382c0,0.517-0.03,1.071-0.093,1.661h-8.302
				c0,2.372,0.613,3.559,1.839,3.559h0.13c1.077-0.064,1.616-0.679,1.616-1.842c0-0.249-0.025-0.525-0.074-0.83l4.42-0.07
				c0,3.518-2.062,5.299-6.185,5.344c-0.05,0.01-0.093,0.014-0.13,0.014c-3.925,0-5.887-2.219-5.887-6.658v-0.416
				C276.034,314.815,278.108,312.435,282.132,312.435z M279.736,317.931h4.197v-0.332c0-1.68-0.638-2.52-1.913-2.52
				C280.646,315.079,279.885,316.029,279.736,317.931z"/>
			<path fill="#ECEDEF" d="M294.909,316.726l0.186,10.037l-4.55,0.027c0-4.244-0.191-9.012-0.575-14.301l3.417-0.276l0.186,2.257
				c0.521-1.107,1.733-1.74,3.64-1.896c0.285-0.02,0.558-0.028,0.817-0.028c1.498,0,2.638,0.364,3.417,1.094
				c0.904,0.868,1.362,2.247,1.375,4.14l-4.123,0.305c0.012-0.157,0.019-0.31,0.019-0.457c0-1.477-0.514-2.215-1.542-2.215h-0.074
				C295.912,315.457,295.182,315.896,294.909,316.726z"/>
		</g>
	</g>
</g>
</svg>
