<?xml version="1.0" encoding="utf-8"?>
<!-- Generator: Adobe Illustrator 16.0.0, SVG Export Plug-In . SVG Version: 6.00 Build 0)  -->
<!DOCTYPE svg PUBLIC "-//W3C//DTD SVG 1.1//EN" "http://www.w3.org/Graphics/SVG/1.1/DTD/svg11.dtd">
<svg version="1.1" id="Capa_1" xmlns="http://www.w3.org/2000/svg" xmlns:xlink="http://www.w3.org/1999/xlink" x="0px" y="0px"
	 width="118.672px" height="140.572px" viewBox="0 0 118.672 140.572" enable-background="new 0 0 118.672 140.572"
	 xml:space="preserve">
<g id="CpXHXM.tif">
	<g>
		<path fill-rule="evenodd" clip-rule="evenodd" fill="#FFFFFF" d="M19.044,140.572c0.967-14.51,0.164-28.887-3.559-42.991
			C13.17,88.811,9.398,80.57,5.771,72.285c-1.594-3.636-3.306-7.263-4.426-11.053c-1.921-6.496-1.674-13.158,0.04-19.657
			C7.152,19.714,21.004,5.731,43.177,1.191c20.467-4.189,41.553,2.498,54.521,22.717c5.243,8.175,8.452,17.166,10.841,26.51
			c3.268,12.784,6.61,25.549,9.918,38.322c0.906,3.5-1.108,6.104-4.743,6.123c-2.6,0.014-5.199,0.003-7.933,0.003
			c-0.026,0.585-0.065,1.069-0.065,1.553c-0.007,4.896,0.009,9.79-0.009,14.685c-0.025,6.898-4.981,11.838-11.865,11.846
			c-3.843,0.004-7.686,0-11.528,0c-0.493,0-0.987,0-1.645,0c1.17,5.994,2.305,11.809,3.439,17.623
			C62.42,140.572,40.731,140.572,19.044,140.572z M114.335,90.582c-0.165-0.717-0.255-1.158-0.368-1.594
			c-2.458-9.503-4.896-19.012-7.387-28.506c-2.072-7.902-3.898-15.878-7.078-23.451c-3.109-7.402-7.085-14.23-12.878-19.891
			C78.963,9.654,69.725,5.612,59.117,4.625c-10.407-0.97-20.381,0.59-29.52,5.834C14.822,18.939,6.409,31.758,4.569,48.693
			c-0.5,4.605-0.541,9.324,1.521,13.75c1.407,3.02,2.637,6.123,4.009,9.16c3.649,8.079,7.228,16.189,9.455,24.802
			c3.202,12.392,4.15,25.04,4.068,37.792c-0.004,0.626,0,1.252,0,1.942c18.505,0,36.867,0,55.36,0
			c-0.887-4.438-1.751-8.764-2.638-13.204c-3.377,0-6.651,0-9.971,0c0-1.483,0-2.824,0-4.282c0.73,0,1.362,0,1.994,0
			c8.418,0.003,16.836,0.007,25.253,0.007c5.126,0,8.019-2.861,8.026-7.958c0.008-4.757-0.008-9.515-0.012-14.272
			c-0.001-1.904,0-3.809,0-5.848C105.949,90.582,110.049,90.582,114.335,90.582z"/>
		<path fill-rule="evenodd" clip-rule="evenodd" fill="#FFFFFF" d="M36.146,74.561c0.882-0.048,1.559-0.084,2.318-0.125
			c0.361-4.06,0.194-7.699-3.257-10.833c-8.15-7.401-10.873-16.745-7.741-27.274c3.121-10.486,10.524-16.771,21.299-18.59
			c17.066-2.879,32.035,11.33,30.434,28.633c-0.669,7.227-3.739,13.197-9.306,17.864c-1.646,1.38-2.51,3.073-2.405,5.265
			c0.072,1.542,0.014,3.09,0.014,4.678c0.803,0.062,1.472,0.115,2.351,0.185c0,2.137-0.129,4.23,0.034,6.302
			c0.19,2.438-0.304,4.604-1.804,6.533c-1.123,1.445-1.407,3.072-1.315,4.882c0.117,2.319,0.026,4.649,0.026,7.181
			c-2.303,0-4.484,0.002-6.667,0c-6.403-0.01-12.807-0.063-19.209,0.003c-1.438,0.015-1.841-0.448-1.724-1.808
			c0.11-1.316-0.104-2.666,0.051-3.975c0.35-2.983-0.54-5.521-2.265-7.921c-0.534-0.743-0.762-1.837-0.798-2.782
			C36.079,80.09,36.146,77.395,36.146,74.561z M63.217,74.684c0-1.301,0.098-2.486-0.018-3.652
			c-0.433-4.394,1.274-7.689,4.614-10.534c4.368-3.722,6.979-8.622,7.496-14.353c1.292-14.26-11.266-26.09-25.42-23.949
			c-9.23,1.396-15.489,6.742-18.113,15.625c-2.649,8.967-0.283,16.902,6.704,23.25c2.889,2.624,4.384,5.768,4.395,9.645
			c0.004,1.307,0,2.614,0,3.969C49.688,74.684,56.306,74.684,63.217,74.684z M52.668,78.563c0-0.003,0-0.005,0-0.007
			c-3.703,0-7.405,0.043-11.106-0.025c-1.135-0.021-1.257,0.426-1.396,1.426c-0.347,2.5,0.728,4.428,2.153,6.251
			c0.253,0.325,0.813,0.579,1.233,0.582c6.308,0.036,12.615,0.04,18.923-0.013c0.465-0.004,1.037-0.414,1.368-0.801
			c1.486-1.733,1.74-3.8,1.604-6.014c-0.063-1.035-0.283-1.441-1.399-1.424C60.256,78.603,56.46,78.563,52.668,78.563z
			 M43.509,91.147c0,0.802,0.064,1.481-0.013,2.144c-0.15,1.287,0.289,1.734,1.647,1.714c5.25-0.077,10.503-0.03,15.754-0.034
			c0.489-0.001,0.978-0.045,1.475-0.07c0-1.33,0-2.525,0-3.753C56.085,91.147,49.928,91.147,43.509,91.147z"/>
		<path fill-rule="evenodd" clip-rule="evenodd" fill="#FFFFFF" d="M21.42,59.596c1.409-0.713,2.58-1.307,3.826-1.937
			c0.724,1.152,1.413,2.253,2.161,3.444c-1.188,0.768-2.328,1.504-3.581,2.314C23.025,62.146,22.263,60.934,21.42,59.596z"/>
		<path fill-rule="evenodd" clip-rule="evenodd" fill="#FFFFFF" d="M36.971,12.398c0.666,1.33,1.25,2.498,1.919,3.838
			c-1.125,0.697-2.217,1.375-3.406,2.111c-0.789-1.191-1.53-2.312-2.377-3.59C34.41,13.961,35.622,13.222,36.971,12.398z"/>
		<path fill-rule="evenodd" clip-rule="evenodd" fill="#FFFFFF" d="M63.925,10.583c-0.457,1.553-0.85,2.882-1.254,4.257
			c-1.336-0.39-2.502-0.729-3.826-1.115c0.23-1.209,0.406-2.41,0.729-3.569c0.066-0.237,0.719-0.499,1.046-0.439
			C61.677,9.912,62.71,10.252,63.925,10.583z"/>
		<path fill-rule="evenodd" clip-rule="evenodd" fill="#FFFFFF" d="M72.082,14.475c-0.854,1.33-1.586,2.471-2.361,3.68
			c-1.186-0.658-2.279-1.266-3.444-1.912c0.663-1.316,1.271-2.52,1.959-3.885C69.524,13.067,70.736,13.734,72.082,14.475z"/>
		<path fill-rule="evenodd" clip-rule="evenodd" fill="#FFFFFF" d="M23.684,53.818c-1.374,0.496-2.638,0.953-3.953,1.428
			c-0.199-0.393-0.361-0.66-0.479-0.945c-1.266-3.104-0.675-3.986,2.722-3.981c0.285,0.001,0.721,0.325,0.827,0.599
			C23.142,51.801,23.363,52.73,23.684,53.818z"/>
		<path fill-rule="evenodd" clip-rule="evenodd" fill="#FFFFFF" d="M87.82,45.441c-1.42,0-2.729,0-4.126,0c0-1.328,0-2.534,0-3.875
			c1.35-0.129,2.688-0.258,4.126-0.395C87.82,42.67,87.82,44.019,87.82,45.441z"/>
		<path fill-rule="evenodd" clip-rule="evenodd" fill="#FFFFFF" d="M87.307,36.626c-1.646,0.322-2.924,0.573-4.27,0.837
			c-0.371-1.208-0.714-2.318-1.107-3.598c1.294-0.484,2.584-0.967,4.113-1.538C86.47,33.777,86.866,35.129,87.307,36.626z"/>
		<path fill-rule="evenodd" clip-rule="evenodd" fill="#FFFFFF" d="M81.813,24.232c0.828,1.338,1.564,2.524,2.369,3.822
			c-1.337,0.677-2.535,1.283-3.754,1.9c-0.734-1.148-1.415-2.209-2.188-3.414C79.393,25.797,80.52,25.068,81.813,24.232z"/>
		<path fill-rule="evenodd" clip-rule="evenodd" fill="#FFFFFF" d="M21.207,28.504c0.76-1.359,1.422-2.539,2.15-3.844
			c1.279,0.829,2.447,1.584,3.66,2.371c-0.655,1.16-1.257,2.221-1.931,3.416C23.821,29.812,22.588,29.195,21.207,28.504z"/>
		<path fill-rule="evenodd" clip-rule="evenodd" fill="#FFFFFF" d="M54.52,13.076c-1.363,0-2.536,0-3.808,0
			c-0.09-1.401-0.175-2.74-0.268-4.161c1.541,0,2.938,0,4.48,0C54.79,10.299,54.659,11.633,54.52,13.076z"/>
		<path fill-rule="evenodd" clip-rule="evenodd" fill="#FFFFFF" d="M21.944,46.041c-1.393,0.088-2.701,0.172-4.122,0.263
			c0-1.513,0-2.944,0-4.497c1.377,0.146,2.717,0.289,4.122,0.438C21.944,43.519,21.944,44.691,21.944,46.041z"/>
		<path fill-rule="evenodd" clip-rule="evenodd" fill="#FFFFFF" d="M78.639,60.865c0.652-1.15,1.255-2.213,1.931-3.4
			c1.209,0.592,2.416,1.184,3.796,1.857c-0.69,1.287-1.346,2.509-2.082,3.884C81.014,62.391,79.846,61.641,78.639,60.865z"/>
		<path fill-rule="evenodd" clip-rule="evenodd" fill="#FFFFFF" d="M76.088,23.035c-0.944-0.977-1.791-1.855-2.771-2.87
			c0.685-0.796,1.558-1.81,2.485-2.888c1.03,1.135,1.995,2.197,3.056,3.365C78.008,21.377,76.997,22.25,76.088,23.035z"/>
		<path fill-rule="evenodd" clip-rule="evenodd" fill="#FFFFFF" d="M41.416,10.684c1.518-0.441,2.836-0.824,4.057-1.18
			c0.222,0.275,0.315,0.338,0.33,0.416c0.223,1.203,0.945,2.674,0.498,3.535c-0.404,0.777-2.091,0.889-3.359,1.346
			C42.458,13.494,41.99,12.233,41.416,10.684z"/>
		<path fill-rule="evenodd" clip-rule="evenodd" fill="#FFFFFF" d="M22.612,37.904c-1.243-0.236-2.369-0.381-3.443-0.7
			c-0.288-0.086-0.637-0.733-0.585-1.063c0.162-1.021,0.503-2.016,0.853-3.31c1.273,0.403,2.494,0.77,3.691,1.198
			c0.139,0.05,0.246,0.47,0.204,0.687C23.136,35.732,22.882,36.738,22.612,37.904z"/>
		<path fill-rule="evenodd" clip-rule="evenodd" fill="#FFFFFF" d="M29.711,17.885c0.789,0.914,1.646,1.904,2.455,2.842
			c-0.928,0.945-1.783,1.816-2.752,2.804c-0.938-0.804-1.954-1.674-2.943-2.522C27.556,19.962,28.561,18.994,29.711,17.885z"/>
		<path fill-rule="evenodd" clip-rule="evenodd" fill="#FFFFFF" d="M86.204,54.842c-1.426-0.443-2.67-0.829-4.013-1.246
			c0.303-1.298,0.587-2.512,0.898-3.847c1.363,0.278,2.667,0.543,4.159,0.847C86.894,52.037,86.574,53.337,86.204,54.842z"/>
		<path fill-rule="evenodd" clip-rule="evenodd" fill="#FFFFFF" d="M32.286,67.498c-0.732,0.842-1.565,1.799-2.353,2.703
			c-1.022-1.056-2.012-2.08-3.117-3.223c0.793-0.691,1.797-1.566,2.708-2.361C30.484,65.619,31.373,66.545,32.286,67.498z"/>
		<path fill-rule="evenodd" clip-rule="evenodd" fill="#FFFFFF" d="M79.215,66.705c-1.1,1.129-2.081,2.137-3.146,3.23
			c-0.906-1.034-1.768-2.018-2.678-3.057c1.016-0.844,1.984-1.647,3.08-2.557C77.168,64.926,78.155,65.785,79.215,66.705z"/>
		<path fill-rule="evenodd" clip-rule="evenodd" fill="#FFFFFF" d="M70.049,45.003c-1.018,0.979-1.966,1.891-3.279,3.154
			c-0.527-0.662-1.054-1.466-1.718-2.128c-2.075-2.071-4.231-2.086-6.381-0.117c-3.393,3.107-8.131,3.161-11.568,0.13
			c-2.474-2.18-4.45-2.12-6.794,0.224c-0.481,0.482-0.92,1.006-1.364,1.492c-1.085-1.07-2.044-2.016-3.058-3.014
			c1.76-1.928,3.54-3.866,6.353-4.374c2.74-0.494,5.159,0.151,7.284,1.931c2.479,2.075,4.245,2.055,6.627-0.092
			c3.662-3.299,9.159-2.902,12.323,0.889C68.973,43.693,69.464,44.295,70.049,45.003z"/>
	</g>
</g>
</svg>
