<?xml version="1.0" encoding="utf-8"?>
<!-- Generator: Adobe Illustrator 16.0.0, SVG Export Plug-In . SVG Version: 6.00 Build 0)  -->
<!DOCTYPE svg PUBLIC "-//W3C//DTD SVG 1.1//EN" "http://www.w3.org/Graphics/SVG/1.1/DTD/svg11.dtd">
<svg version="1.1" id="Capa_1" xmlns="http://www.w3.org/2000/svg" xmlns:xlink="http://www.w3.org/1999/xlink" x="0px" y="0px"
	 width="164.37px" height="325.663px" viewBox="0 0 164.37 325.663" enable-background="new 0 0 164.37 325.663"
	 xml:space="preserve">
<g>
	<g>
		<path fill="#3D82C1" d="M10.167,13.122h2.687c1.456,0,2.477,0.248,3.062,0.742c0.585,0.495,0.878,1.34,0.878,2.534v3.767
			c0,1.17-0.291,2.011-0.872,2.521c-0.58,0.512-1.537,0.768-2.871,0.768h-0.65v7.767h-2.232V13.122z M12.399,14.938v6.712h0.405
			c0.63,0,1.06-0.144,1.288-0.43c0.229-0.286,0.344-0.863,0.344-1.73v-2.417c0-0.867-0.112-1.439-0.337-1.718
			c-0.226-0.278-0.657-0.417-1.295-0.417H12.399z"/>
		<path fill="#3D82C1" d="M18.707,13.122h3.141c1.399,0,2.381,0.229,2.945,0.688s0.847,1.235,0.847,2.331v2.921
			c0,0.932-0.192,1.613-0.577,2.043c-0.385,0.429-1.039,0.692-1.963,0.791c0.965,0.073,1.642,0.331,2.03,0.773
			c0.389,0.441,0.583,1.189,0.583,2.245v6.307H23.32V24.89c0-0.876-0.121-1.438-0.362-1.688c-0.241-0.249-0.738-0.374-1.49-0.374
			h-0.528v8.393h-2.232V13.122z M20.939,14.938v6.086h0.479c0.72,0,1.205-0.137,1.454-0.411c0.25-0.274,0.375-0.824,0.375-1.65V17
			c0-0.835-0.125-1.387-0.375-1.657c-0.249-0.27-0.734-0.404-1.454-0.404H20.939z"/>
		<path fill="#3D82C1" d="M28.327,13.122h2.38v18.099h-2.38V13.122z"/>
		<path fill="#3D82C1" d="M33.432,13.122h3.558l1.718,15.362h0.123l1.779-15.362h3.473v18.099h-1.964V15.135h-0.245l-1.89,16.086
			h-2.589l-1.828-16.086h-0.233v16.086h-1.901V13.122z"/>
		<path fill="#3D82C1" d="M46.806,13.122h5.398v1.914h-3.067v5.779h2.92v1.914h-2.92v6.577h3.239v1.914h-5.57V13.122z"/>
		<path fill="#3D82C1" d="M54.572,13.122h3.141c1.399,0,2.381,0.229,2.945,0.688s0.847,1.235,0.847,2.331v2.921
			c0,0.932-0.192,1.613-0.577,2.043c-0.385,0.429-1.039,0.692-1.963,0.791c0.965,0.073,1.642,0.331,2.03,0.773
			c0.389,0.441,0.583,1.189,0.583,2.245v6.307h-2.393V24.89c0-0.876-0.121-1.438-0.362-1.688c-0.241-0.249-0.738-0.374-1.49-0.374
			h-0.528v8.393h-2.232V13.122z M56.805,14.938v6.086h0.479c0.72,0,1.205-0.137,1.454-0.411c0.25-0.274,0.375-0.824,0.375-1.65V17
			c0-0.835-0.125-1.387-0.375-1.657c-0.249-0.27-0.734-0.404-1.454-0.404H56.805z"/>
		<path fill="#3D82C1" d="M71.346,17.675v8.994c0,1.864-0.268,3.141-0.804,3.828c-0.536,0.687-1.491,1.03-2.865,1.03
			c-1.317,0-2.241-0.35-2.772-1.049c-0.532-0.699-0.798-1.97-0.798-3.81v-8.994c0-1.857,0.268-3.125,0.804-3.804
			c0.535-0.68,1.495-1.019,2.877-1.019c1.325,0,2.25,0.344,2.773,1.03C71.084,14.57,71.346,15.834,71.346,17.675z M68.99,17.221
			c0-0.99-0.093-1.661-0.276-2.013c-0.185-0.352-0.514-0.527-0.988-0.527c-0.466,0-0.791,0.17-0.975,0.509
			c-0.185,0.34-0.276,1.017-0.276,2.031v9.901c0,1.023,0.092,1.702,0.276,2.037c0.184,0.336,0.509,0.503,0.975,0.503
			c0.475,0,0.804-0.174,0.988-0.521c0.184-0.348,0.276-1.021,0.276-2.019V17.221z"/>
		<path fill="#3D82C1" d="M80.303,16.398v1.583h-2.344v-1.742c0-0.59-0.067-1-0.202-1.233c-0.136-0.233-0.37-0.35-0.706-0.35
			c-0.368,0-0.628,0.131-0.779,0.393s-0.227,0.769-0.227,1.521v0.884c0,0.646,0.319,1.41,0.957,2.294v0.013l2.221,3.165
			c0.458,0.663,0.765,1.229,0.92,1.7c0.155,0.47,0.233,1,0.233,1.589v1.189c0,1.383-0.297,2.416-0.89,3.099
			c-0.593,0.684-1.486,1.024-2.681,1.024c-1.202,0-2.052-0.27-2.546-0.81c-0.495-0.54-0.742-1.484-0.742-2.835v-1.791h2.38v1.841
			c0,0.646,0.075,1.096,0.228,1.35c0.15,0.254,0.41,0.38,0.778,0.38c0.409,0,0.691-0.141,0.847-0.423s0.233-0.845,0.233-1.688
			v-1.055c0-0.68-0.307-1.473-0.92-2.381l-0.062-0.086l-2.331-3.387c-0.336-0.474-0.579-0.926-0.73-1.355s-0.227-0.865-0.227-1.307
			v-1.264c0-1.276,0.292-2.24,0.877-2.89c0.585-0.65,1.458-0.976,2.619-0.976c1.088,0,1.876,0.273,2.362,0.822
			C80.059,14.223,80.303,15.131,80.303,16.398z"/>
		<path fill="#3D82C1" d="M88.782,13.122h3.165l2.736,18.099h-2.355l-0.577-4.602h-3.019l-0.675,4.602h-2.221L88.782,13.122z
			 M90.267,15.085l-1.288,9.706h2.515l-1.128-9.706H90.267z"/>
		<path fill="#3D82C1" d="M96.279,13.122h2.355v14c0,1.015,0.09,1.691,0.27,2.031c0.181,0.34,0.499,0.509,0.957,0.509
			c0.45,0,0.766-0.172,0.945-0.515c0.18-0.344,0.27-1.019,0.27-2.025v-14h2.381v13.547c0,1.856-0.269,3.131-0.804,3.821
			c-0.536,0.691-1.491,1.037-2.865,1.037c-1.301,0-2.211-0.348-2.73-1.043s-0.778-1.967-0.778-3.815V13.122z"/>
		<path fill="#3D82C1" d="M105.101,13.122h2.381l1.533,6.896l1.461-6.896h2.11l-2.368,8.822l2.613,9.276h-2.381l-1.705-7.288
			l-1.693,7.288h-2.184l2.613-9.252L105.101,13.122z"/>
		<path fill="#3D82C1" d="M114.328,13.122h2.38v18.099h-2.38V13.122z"/>
		<path fill="#3D82C1" d="M119.433,13.122h2.331v16.185h3.312v1.914h-5.644V13.122z"/>
		<path fill="#3D82C1" d="M126.488,13.122h2.38v18.099h-2.38V13.122z"/>
		<path fill="#3D82C1" d="M138.771,17.675v8.994c0,1.864-0.268,3.141-0.804,3.828c-0.536,0.687-1.491,1.03-2.865,1.03
			c-1.317,0-2.241-0.35-2.772-1.049c-0.532-0.699-0.798-1.97-0.798-3.81v-8.994c0-1.857,0.268-3.125,0.804-3.804
			c0.535-0.68,1.495-1.019,2.877-1.019c1.325,0,2.25,0.344,2.773,1.03C138.509,14.57,138.771,15.834,138.771,17.675z
			 M136.415,17.221c0-0.99-0.093-1.661-0.276-2.013c-0.185-0.352-0.514-0.527-0.988-0.527c-0.466,0-0.791,0.17-0.975,0.509
			c-0.185,0.34-0.276,1.017-0.276,2.031v9.901c0,1.023,0.092,1.702,0.276,2.037c0.184,0.336,0.509,0.503,0.975,0.503
			c0.475,0,0.804-0.174,0.988-0.521c0.184-0.348,0.276-1.021,0.276-2.019V17.221z"/>
		<path fill="#3D82C1" d="M147.728,16.398v1.583h-2.344v-1.742c0-0.59-0.067-1-0.202-1.233c-0.136-0.233-0.37-0.35-0.706-0.35
			c-0.368,0-0.628,0.131-0.779,0.393s-0.227,0.769-0.227,1.521v0.884c0,0.646,0.319,1.41,0.957,2.294v0.013l2.221,3.165
			c0.458,0.663,0.765,1.229,0.92,1.7c0.155,0.47,0.233,1,0.233,1.589v1.189c0,1.383-0.297,2.416-0.89,3.099
			c-0.593,0.684-1.486,1.024-2.681,1.024c-1.202,0-2.052-0.27-2.546-0.81c-0.495-0.54-0.742-1.484-0.742-2.835v-1.791h2.38v1.841
			c0,0.646,0.075,1.096,0.228,1.35c0.15,0.254,0.41,0.38,0.778,0.38c0.409,0,0.691-0.141,0.847-0.423s0.233-0.845,0.233-1.688
			v-1.055c0-0.68-0.307-1.473-0.92-2.381l-0.062-0.086l-2.331-3.387c-0.336-0.474-0.579-0.926-0.73-1.355s-0.227-0.865-0.227-1.307
			v-1.264c0-1.276,0.292-2.24,0.877-2.89c0.585-0.65,1.458-0.976,2.619-0.976c1.088,0,1.876,0.273,2.362,0.822
			C147.483,14.223,147.728,15.131,147.728,16.398z"/>
		<path fill="#3D82C1" d="M32.29,34.068h2.687c1.456,0,2.477,0.248,3.062,0.743c0.585,0.494,0.878,1.339,0.878,2.533v3.768
			c0,1.17-0.291,2.01-0.872,2.521c-0.58,0.511-1.537,0.767-2.871,0.767h-0.65v7.767H32.29V34.068z M34.522,35.885v6.712h0.405
			c0.63,0,1.06-0.144,1.288-0.43c0.229-0.286,0.344-0.863,0.344-1.73V38.02c0-0.866-0.112-1.439-0.337-1.718
			c-0.226-0.277-0.657-0.417-1.295-0.417H34.522z"/>
		<path fill="#3D82C1" d="M47.112,37.345v1.583h-2.344v-1.742c0-0.589-0.067-1-0.202-1.233c-0.136-0.233-0.37-0.35-0.706-0.35
			c-0.368,0-0.628,0.131-0.779,0.393s-0.227,0.77-0.227,1.521V38.4c0,0.646,0.319,1.411,0.957,2.294v0.013l2.221,3.165
			c0.458,0.663,0.765,1.229,0.92,1.7c0.155,0.47,0.233,1,0.233,1.589v1.19c0,1.382-0.297,2.415-0.89,3.098
			c-0.593,0.684-1.486,1.024-2.681,1.024c-1.202,0-2.052-0.27-2.546-0.81c-0.495-0.54-0.742-1.484-0.742-2.834v-1.792h2.38v1.841
			c0,0.646,0.075,1.097,0.228,1.35c0.15,0.254,0.41,0.38,0.778,0.38c0.409,0,0.691-0.141,0.847-0.423s0.233-0.845,0.233-1.688
			v-1.055c0-0.679-0.307-1.473-0.92-2.381l-0.062-0.086l-2.331-3.386c-0.336-0.475-0.579-0.927-0.73-1.356s-0.227-0.865-0.227-1.307
			v-1.264c0-1.276,0.292-2.239,0.877-2.89s1.458-0.976,2.619-0.976c1.088,0,1.876,0.274,2.362,0.822S47.112,36.077,47.112,37.345z"
			/>
		<path fill="#3D82C1" d="M49.395,34.068h2.38v18.099h-2.38V34.068z"/>
		<path fill="#3D82C1" d="M61.284,37.688v1.362H58.94v-1.228c0-0.817-0.075-1.389-0.227-1.712c-0.151-0.322-0.403-0.484-0.755-0.484
			c-0.434,0-0.734,0.162-0.902,0.484c-0.167,0.323-0.251,1.009-0.251,2.056v9.902c0,1.063,0.079,1.752,0.239,2.067
			c0.159,0.314,0.447,0.472,0.865,0.472c0.376,0,0.642-0.152,0.797-0.46c0.155-0.307,0.233-0.849,0.233-1.626v-1.631h2.368v1.656
			c0,1.48-0.254,2.505-0.761,3.073s-1.403,0.853-2.688,0.853c-1.26,0-2.145-0.345-2.656-1.036c-0.511-0.691-0.767-1.966-0.767-3.822
			v-8.994c0-1.841,0.256-3.104,0.767-3.792c0.512-0.687,1.413-1.03,2.706-1.03c1.251,0,2.126,0.282,2.625,0.847
			S61.284,36.225,61.284,37.688z"/>
		<path fill="#3D82C1" d="M70.548,38.621v8.994c0,1.865-0.268,3.141-0.804,3.828c-0.536,0.687-1.491,1.03-2.865,1.03
			c-1.317,0-2.241-0.35-2.772-1.049c-0.532-0.699-0.798-1.969-0.798-3.81v-8.994c0-1.856,0.268-3.125,0.804-3.804
			c0.535-0.679,1.495-1.019,2.877-1.019c1.325,0,2.25,0.344,2.773,1.03C70.286,35.517,70.548,36.78,70.548,38.621z M68.192,38.167
			c0-0.989-0.093-1.66-0.276-2.013c-0.185-0.352-0.514-0.527-0.988-0.527c-0.466,0-0.791,0.17-0.975,0.509
			c-0.185,0.34-0.276,1.018-0.276,2.031v9.902c0,1.022,0.092,1.701,0.276,2.036c0.184,0.336,0.509,0.503,0.975,0.503
			c0.475,0,0.804-0.173,0.988-0.521c0.184-0.347,0.276-1.02,0.276-2.018V38.167z"/>
		<path fill="#3D82C1" d="M73.224,34.068h2.331v16.185h3.312v1.914h-5.644V34.068z"/>
		<path fill="#3D82C1" d="M87.432,38.621v8.994c0,1.865-0.268,3.141-0.804,3.828c-0.536,0.687-1.491,1.03-2.865,1.03
			c-1.317,0-2.241-0.35-2.772-1.049c-0.532-0.699-0.798-1.969-0.798-3.81v-8.994c0-1.856,0.268-3.125,0.804-3.804
			c0.535-0.679,1.495-1.019,2.877-1.019c1.325,0,2.25,0.344,2.773,1.03C87.17,35.517,87.432,36.78,87.432,38.621z M85.076,38.167
			c0-0.989-0.093-1.66-0.276-2.013c-0.185-0.352-0.514-0.527-0.988-0.527c-0.466,0-0.791,0.17-0.975,0.509
			c-0.185,0.34-0.276,1.018-0.276,2.031v9.902c0,1.022,0.092,1.701,0.276,2.036c0.184,0.336,0.509,0.503,0.975,0.503
			c0.475,0,0.804-0.173,0.988-0.521c0.184-0.347,0.276-1.02,0.276-2.018V38.167z M84.033,29.479h2.086l-1.706,2.945h-1.436
			L84.033,29.479z"/>
		<path fill="#3D82C1" d="M97.261,38.216v0.859H94.93v-0.908c0-0.989-0.095-1.66-0.282-2.013c-0.188-0.352-0.524-0.527-1.007-0.527
			c-0.449,0-0.767,0.178-0.95,0.534c-0.185,0.355-0.276,1.024-0.276,2.006v9.902c0,1.014,0.099,1.691,0.296,2.03
			c0.197,0.34,0.555,0.509,1.072,0.509c0.132,0,0.294-0.014,0.487-0.042c0.193-0.029,0.413-0.072,0.66-0.129l0.012-5.534h-1.276
			v-1.853h3.596v8.687c-0.639,0.254-1.252,0.44-1.841,0.559c-0.589,0.119-1.174,0.178-1.755,0.178c-1.333,0-2.27-0.35-2.81-1.049
			s-0.81-1.969-0.81-3.81v-8.994c0-1.808,0.264-3.063,0.791-3.767c0.528-0.704,1.43-1.056,2.706-1.056
			c1.391,0,2.357,0.319,2.901,0.957S97.261,36.548,97.261,38.216z"/>
		<path fill="#3D82C1" d="M99.911,34.068h2.38v18.099h-2.38V34.068z"/>
		<path fill="#3D82C1" d="M111.801,37.688v1.362h-2.344v-1.228c0-0.817-0.075-1.389-0.227-1.712
			c-0.151-0.322-0.403-0.484-0.755-0.484c-0.434,0-0.734,0.162-0.902,0.484c-0.167,0.323-0.251,1.009-0.251,2.056v9.902
			c0,1.063,0.079,1.752,0.239,2.067c0.159,0.314,0.447,0.472,0.865,0.472c0.376,0,0.642-0.152,0.797-0.46
			c0.155-0.307,0.233-0.849,0.233-1.626v-1.631h2.368v1.656c0,1.48-0.254,2.505-0.761,3.073s-1.403,0.853-2.688,0.853
			c-1.26,0-2.145-0.345-2.656-1.036c-0.511-0.691-0.767-1.966-0.767-3.822v-8.994c0-1.841,0.256-3.104,0.767-3.792
			c0.512-0.687,1.413-1.03,2.706-1.03c1.251,0,2.126,0.282,2.625,0.847S111.801,36.225,111.801,37.688z"/>
		<path fill="#3D82C1" d="M121.064,38.621v8.994c0,1.865-0.268,3.141-0.804,3.828c-0.536,0.687-1.491,1.03-2.865,1.03
			c-1.317,0-2.241-0.35-2.772-1.049c-0.532-0.699-0.798-1.969-0.798-3.81v-8.994c0-1.856,0.268-3.125,0.804-3.804
			c0.535-0.679,1.495-1.019,2.877-1.019c1.325,0,2.25,0.344,2.773,1.03C120.803,35.517,121.064,36.78,121.064,38.621z
			 M118.709,38.167c0-0.989-0.093-1.66-0.276-2.013c-0.185-0.352-0.514-0.527-0.988-0.527c-0.466,0-0.791,0.17-0.975,0.509
			c-0.185,0.34-0.276,1.018-0.276,2.031v9.902c0,1.022,0.092,1.701,0.276,2.036c0.184,0.336,0.509,0.503,0.975,0.503
			c0.475,0,0.804-0.173,0.988-0.521c0.184-0.347,0.276-1.02,0.276-2.018V38.167z"/>
		<path fill="#3D82C1" d="M130.021,37.345v1.583h-2.344v-1.742c0-0.589-0.067-1-0.202-1.233c-0.136-0.233-0.37-0.35-0.706-0.35
			c-0.368,0-0.628,0.131-0.779,0.393s-0.227,0.77-0.227,1.521V38.4c0,0.646,0.319,1.411,0.957,2.294v0.013l2.221,3.165
			c0.458,0.663,0.765,1.229,0.92,1.7c0.155,0.47,0.233,1,0.233,1.589v1.19c0,1.382-0.297,2.415-0.89,3.098
			c-0.593,0.684-1.486,1.024-2.681,1.024c-1.202,0-2.052-0.27-2.546-0.81c-0.495-0.54-0.742-1.484-0.742-2.834v-1.792h2.38v1.841
			c0,0.646,0.075,1.097,0.228,1.35c0.15,0.254,0.41,0.38,0.778,0.38c0.409,0,0.691-0.141,0.847-0.423s0.233-0.845,0.233-1.688
			v-1.055c0-0.679-0.307-1.473-0.92-2.381l-0.062-0.086l-2.331-3.386c-0.336-0.475-0.579-0.927-0.73-1.356s-0.227-0.865-0.227-1.307
			v-1.264c0-1.276,0.292-2.239,0.877-2.89s1.458-0.976,2.619-0.976c1.088,0,1.876,0.274,2.362,0.822S130.021,36.077,130.021,37.345z
			"/>
	</g>
	<g>
		<path fill="#75B2C4" d="M12.093,75.446h3.117V86.87h1.607v1.717H15.21v4.369h-2.111v-4.369H9.295v-2.061L12.093,75.446z
			 M13.148,77.127l-2.086,9.743h2.062l0.196-9.743H13.148z"/>
		<path fill="#75B2C4" d="M23.197,74.857h2.687c1.456,0,2.477,0.247,3.062,0.742s0.878,1.339,0.878,2.533V81.9
			c0,1.17-0.291,2.01-0.872,2.521c-0.58,0.511-1.537,0.767-2.871,0.767h-0.65v7.768h-2.232V74.857z M25.43,76.673v6.712h0.405
			c0.63,0,1.06-0.143,1.288-0.43c0.229-0.286,0.344-0.862,0.344-1.729v-2.418c0-0.866-0.112-1.439-0.337-1.718
			c-0.226-0.277-0.657-0.417-1.295-0.417H25.43z"/>
		<path fill="#75B2C4" d="M35.934,80.17v1.927h-0.11c-0.777,0-1.323,0.172-1.639,0.516c-0.314,0.343-0.472,0.952-0.472,1.828v8.516
			h-2.209V80.342h2.11l0.099,1.03c0.277-0.417,0.576-0.726,0.896-0.926c0.318-0.2,0.666-0.301,1.043-0.301
			c0.032,0,0.079,0.004,0.141,0.013C35.854,80.166,35.9,80.17,35.934,80.17z"/>
		<path fill="#75B2C4" d="M36.94,74.857h2.368v2.27H36.94V74.857z M37.014,80.342h2.209v12.614h-2.209V80.342z"/>
		<path fill="#75B2C4" d="M47.848,83.226v9.73h-2.232v-9.399c0-0.679-0.072-1.146-0.215-1.398c-0.144-0.254-0.391-0.381-0.742-0.381
			c-0.344,0-0.589,0.133-0.736,0.399c-0.147,0.266-0.221,0.726-0.221,1.38v9.399h-2.209V80.342h2.11l0.099,1.006
			c0.27-0.433,0.584-0.761,0.944-0.981s0.749-0.331,1.166-0.331c0.752,0,1.28,0.231,1.583,0.693
			C47.696,81.19,47.848,82.022,47.848,83.226z"/>
		<path fill="#75B2C4" d="M56.216,83.753v0.736h-2.233v-1.031c0-0.703-0.065-1.182-0.196-1.436c-0.131-0.253-0.359-0.38-0.687-0.38
			c-0.287,0-0.489,0.131-0.607,0.393c-0.119,0.262-0.178,0.753-0.178,1.473v6.282c0,0.736,0.062,1.235,0.189,1.497
			s0.342,0.393,0.645,0.393c0.295,0,0.503-0.127,0.626-0.381c0.122-0.253,0.184-0.756,0.184-1.509v-1.228h2.258v0.97
			c0,1.26-0.254,2.192-0.761,2.798s-1.284,0.907-2.331,0.907c-1.153,0-1.957-0.305-2.411-0.914s-0.681-1.74-0.681-3.393v-4.564
			c0-1.652,0.23-2.787,0.692-3.404c0.463-0.618,1.271-0.927,2.424-0.927c1.047,0,1.82,0.303,2.319,0.908
			S56.216,82.485,56.216,83.753z"/>
		<path fill="#75B2C4" d="M58.069,74.857h2.368v2.27h-2.368V74.857z M58.143,80.342h2.209v12.614h-2.209V80.342z"/>
		<path fill="#75B2C4" d="M68.977,83.177v6.944c0,1.121-0.165,1.925-0.496,2.411c-0.332,0.486-0.878,0.73-1.639,0.73
			c-0.393,0-0.763-0.115-1.11-0.344c-0.348-0.229-0.648-0.561-0.901-0.994v5.804h-2.209V80.342h2.11l0.099,1.006
			c0.253-0.425,0.554-0.75,0.901-0.976c0.348-0.225,0.726-0.337,1.135-0.337c0.744,0,1.282,0.243,1.614,0.729
			C68.812,81.252,68.977,82.056,68.977,83.177z M66.72,83.557c0-0.679-0.07-1.146-0.209-1.398c-0.14-0.254-0.381-0.381-0.724-0.381
			c-0.344,0-0.589,0.133-0.736,0.399c-0.147,0.266-0.221,0.726-0.221,1.38v6.159c0,0.655,0.073,1.119,0.221,1.393
			c0.147,0.274,0.393,0.412,0.736,0.412c0.343,0,0.584-0.131,0.724-0.394c0.139-0.262,0.209-0.731,0.209-1.411V83.557z"/>
		<path fill="#75B2C4" d="M71.088,74.857h2.368v2.27h-2.368V74.857z M71.161,80.342h2.209v12.614h-2.209V80.342z"/>
		<path fill="#75B2C4" d="M82.021,84.366v4.564c0,1.652-0.239,2.788-0.718,3.405c-0.479,0.618-1.328,0.927-2.547,0.927
			c-1.178,0-2.004-0.312-2.479-0.933c-0.475-0.622-0.711-1.755-0.711-3.399v-4.564c0-1.66,0.239-2.797,0.718-3.411
			c0.479-0.613,1.327-0.92,2.546-0.92c1.17,0,1.994,0.315,2.473,0.944C81.781,81.61,82.021,82.739,82.021,84.366z M79.763,83.508
			c0-0.712-0.072-1.2-0.215-1.467c-0.144-0.266-0.391-0.398-0.742-0.398c-0.353,0-0.6,0.133-0.743,0.398
			c-0.143,0.267-0.214,0.755-0.214,1.467v6.282c0,0.736,0.071,1.235,0.214,1.497c0.144,0.262,0.391,0.393,0.743,0.393
			c0.352,0,0.599-0.14,0.742-0.417c0.143-0.278,0.215-0.77,0.215-1.473V83.508z"/>
		<path fill="#75B2C4" d="M89.861,83.385v0.602h-2.135v-0.65c0-0.72-0.056-1.187-0.166-1.399c-0.11-0.212-0.316-0.318-0.619-0.318
			c-0.278,0-0.477,0.1-0.596,0.301c-0.118,0.2-0.178,0.529-0.178,0.987v0.479c0,0.204,0.074,0.434,0.221,0.688
			c0.147,0.253,0.385,0.56,0.712,0.92l1.804,1.902c0.393,0.425,0.679,0.817,0.859,1.178c0.18,0.36,0.27,0.724,0.27,1.092v1.006
			c0,1.039-0.254,1.814-0.761,2.325c-0.507,0.512-1.284,0.768-2.331,0.768c-1.097,0-1.863-0.242-2.301-0.725
			s-0.656-1.35-0.656-2.601V89.79v-0.859h2.062v1.007c0,0.687,0.057,1.149,0.172,1.386c0.114,0.238,0.322,0.356,0.625,0.356
			c0.36,0,0.614-0.11,0.761-0.331c0.147-0.222,0.222-0.598,0.222-1.129v-0.479c0-0.295-0.074-0.592-0.222-0.89
			c-0.146-0.299-0.376-0.607-0.687-0.927l-1.755-1.828c-0.491-0.531-0.81-0.963-0.957-1.295c-0.147-0.331-0.221-0.705-0.221-1.122
			v-0.725c0-0.957,0.253-1.683,0.761-2.178c0.507-0.495,1.256-0.742,2.245-0.742c1.031,0,1.767,0.258,2.209,0.772
			C89.641,81.323,89.861,82.183,89.861,83.385z"/>
		<path fill="#75B2C4" d="M96.389,74.857h2.209v6.49c0.253-0.425,0.554-0.75,0.901-0.976c0.348-0.225,0.726-0.337,1.135-0.337
			c0.744,0,1.282,0.243,1.614,0.729c0.331,0.487,0.496,1.291,0.496,2.412v6.944c0,1.121-0.165,1.925-0.496,2.411
			c-0.332,0.486-0.878,0.73-1.639,0.73c-0.393,0-0.763-0.115-1.11-0.344c-0.348-0.229-0.648-0.561-0.901-0.994l-0.099,1.031h-2.11
			V74.857z M100.487,83.557c0-0.679-0.07-1.146-0.209-1.398c-0.14-0.254-0.381-0.381-0.724-0.381c-0.344,0-0.589,0.133-0.736,0.399
			c-0.147,0.266-0.221,0.726-0.221,1.38v6.159c0,0.655,0.073,1.119,0.221,1.393c0.147,0.274,0.393,0.412,0.736,0.412
			c0.343,0,0.584-0.131,0.724-0.394c0.139-0.262,0.209-0.731,0.209-1.411V83.557z"/>
		<path fill="#75B2C4" d="M111.138,83.434v9.522h-2.11l-0.123-1.031c-0.262,0.441-0.566,0.775-0.914,1s-0.73,0.338-1.147,0.338
			c-0.753,0-1.297-0.248-1.632-0.742c-0.336-0.495-0.503-1.295-0.503-2.399v-2.172c0-1.014,0.314-1.748,0.944-2.202
			s1.714-0.714,3.252-0.779v-1.46c0-0.753-0.069-1.256-0.209-1.51c-0.139-0.253-0.389-0.38-0.748-0.38
			c-0.327,0-0.564,0.125-0.712,0.374c-0.147,0.25-0.221,0.652-0.221,1.209v0.527h-2.062v-0.295c0-1.268,0.233-2.151,0.699-2.65
			c0.467-0.499,1.28-0.748,2.442-0.748c1.104,0,1.887,0.254,2.35,0.761C110.906,81.303,111.138,82.183,111.138,83.434z
			 M108.892,86.526c-0.752,0.041-1.262,0.18-1.527,0.417s-0.398,0.658-0.398,1.264v1.607c0,0.679,0.075,1.155,0.227,1.43
			s0.403,0.411,0.755,0.411c0.344,0,0.589-0.135,0.736-0.405c0.147-0.27,0.221-0.748,0.221-1.436L108.892,86.526z M108.267,75.74
			h2.086l-1.706,2.945h-1.436L108.267,75.74z"/>
		<path fill="#75B2C4" d="M119.052,83.385v0.602h-2.135v-0.65c0-0.72-0.056-1.187-0.166-1.399c-0.11-0.212-0.316-0.318-0.619-0.318
			c-0.278,0-0.477,0.1-0.596,0.301c-0.118,0.2-0.178,0.529-0.178,0.987v0.479c0,0.204,0.074,0.434,0.221,0.688
			c0.147,0.253,0.385,0.56,0.712,0.92l1.804,1.902c0.393,0.425,0.679,0.817,0.859,1.178c0.18,0.36,0.27,0.724,0.27,1.092v1.006
			c0,1.039-0.254,1.814-0.761,2.325c-0.507,0.512-1.284,0.768-2.331,0.768c-1.097,0-1.863-0.242-2.301-0.725
			s-0.656-1.35-0.656-2.601V89.79v-0.859h2.062v1.007c0,0.687,0.057,1.149,0.172,1.386c0.114,0.238,0.322,0.356,0.625,0.356
			c0.36,0,0.614-0.11,0.761-0.331c0.147-0.222,0.222-0.598,0.222-1.129v-0.479c0-0.295-0.074-0.592-0.222-0.89
			c-0.146-0.299-0.376-0.607-0.687-0.927l-1.755-1.828c-0.491-0.531-0.81-0.963-0.957-1.295c-0.147-0.331-0.221-0.705-0.221-1.122
			v-0.725c0-0.957,0.253-1.683,0.761-2.178c0.507-0.495,1.256-0.742,2.245-0.742c1.031,0,1.767,0.258,2.209,0.772
			C118.831,81.323,119.052,82.183,119.052,83.385z"/>
		<path fill="#75B2C4" d="M121.089,74.857h2.368v2.27h-2.368V74.857z M121.162,80.342h2.209v12.614h-2.209V80.342z"/>
		<path fill="#75B2C4" d="M131.751,83.753v0.736h-2.233v-1.031c0-0.703-0.065-1.182-0.196-1.436c-0.131-0.253-0.359-0.38-0.687-0.38
			c-0.287,0-0.489,0.131-0.607,0.393c-0.119,0.262-0.178,0.753-0.178,1.473v6.282c0,0.736,0.062,1.235,0.189,1.497
			s0.342,0.393,0.645,0.393c0.295,0,0.503-0.127,0.626-0.381c0.122-0.253,0.184-0.756,0.184-1.509v-1.228h2.258v0.97
			c0,1.26-0.254,2.192-0.761,2.798s-1.284,0.907-2.331,0.907c-1.153,0-1.957-0.305-2.411-0.914s-0.681-1.74-0.681-3.393v-4.564
			c0-1.652,0.23-2.787,0.692-3.404c0.463-0.618,1.271-0.927,2.424-0.927c1.047,0,1.82,0.303,2.319,0.908
			S131.751,82.485,131.751,83.753z"/>
		<path fill="#75B2C4" d="M140.059,84.366v4.564c0,1.652-0.239,2.788-0.718,3.405c-0.479,0.618-1.328,0.927-2.547,0.927
			c-1.178,0-2.004-0.312-2.479-0.933c-0.475-0.622-0.711-1.755-0.711-3.399v-4.564c0-1.66,0.239-2.797,0.718-3.411
			c0.479-0.613,1.327-0.92,2.546-0.92c1.17,0,1.994,0.315,2.473,0.944C139.819,81.61,140.059,82.739,140.059,84.366z
			 M137.801,83.508c0-0.712-0.072-1.2-0.215-1.467c-0.144-0.266-0.391-0.398-0.742-0.398c-0.353,0-0.6,0.133-0.743,0.398
			c-0.143,0.267-0.214,0.755-0.214,1.467v6.282c0,0.736,0.071,1.235,0.214,1.497c0.144,0.262,0.391,0.393,0.743,0.393
			c0.352,0,0.599-0.14,0.742-0.417c0.143-0.278,0.215-0.77,0.215-1.473V83.508z"/>
		<path fill="#75B2C4" d="M147.898,83.385v0.602h-2.135v-0.65c0-0.72-0.056-1.187-0.166-1.399c-0.11-0.212-0.316-0.318-0.619-0.318
			c-0.278,0-0.477,0.1-0.596,0.301c-0.118,0.2-0.178,0.529-0.178,0.987v0.479c0,0.204,0.074,0.434,0.221,0.688
			c0.147,0.253,0.385,0.56,0.712,0.92l1.804,1.902c0.393,0.425,0.679,0.817,0.859,1.178c0.18,0.36,0.27,0.724,0.27,1.092v1.006
			c0,1.039-0.254,1.814-0.761,2.325c-0.507,0.512-1.284,0.768-2.331,0.768c-1.097,0-1.863-0.242-2.301-0.725
			s-0.656-1.35-0.656-2.601V89.79v-0.859h2.062v1.007c0,0.687,0.057,1.149,0.172,1.386c0.114,0.238,0.322,0.356,0.625,0.356
			c0.36,0,0.614-0.11,0.761-0.331c0.147-0.222,0.222-0.598,0.222-1.129v-0.479c0-0.295-0.074-0.592-0.222-0.89
			c-0.146-0.299-0.376-0.607-0.687-0.927l-1.755-1.828c-0.491-0.531-0.81-0.963-0.957-1.295c-0.147-0.331-0.221-0.705-0.221-1.122
			v-0.725c0-0.957,0.253-1.683,0.761-2.178c0.507-0.495,1.256-0.742,2.245-0.742c1.031,0,1.767,0.258,2.209,0.772
			C147.678,81.323,147.898,82.183,147.898,83.385z"/>
		<path fill="#75B2C4" d="M29.914,95.804h2.233v18.099h-2.11l-0.123-1.031c-0.253,0.434-0.554,0.766-0.901,0.994
			c-0.348,0.229-0.727,0.344-1.135,0.344c-0.736,0-1.269-0.243-1.596-0.73c-0.327-0.486-0.49-1.29-0.49-2.411v-6.944
			c0-1.138,0.163-1.945,0.49-2.424s0.867-0.718,1.62-0.718c0.4,0,0.772,0.112,1.116,0.338c0.344,0.225,0.643,0.55,0.896,0.976
			V95.804z M29.914,104.503c0-0.662-0.069-1.124-0.208-1.387c-0.14-0.262-0.381-0.393-0.725-0.393c-0.352,0-0.599,0.129-0.742,0.387
			c-0.143,0.258-0.215,0.723-0.215,1.393v6.16c0,0.687,0.07,1.159,0.209,1.417s0.381,0.387,0.724,0.387
			c0.344,0,0.589-0.138,0.736-0.411c0.147-0.274,0.221-0.738,0.221-1.393V104.503z"/>
		<path fill="#75B2C4" d="M40.762,105.313v2.932H36.59v2.491c0,0.736,0.073,1.235,0.221,1.497s0.4,0.393,0.761,0.393
			c0.352,0,0.599-0.139,0.742-0.417c0.143-0.278,0.215-0.769,0.215-1.473v-1.08h2.233v0.822c0,1.293-0.256,2.233-0.768,2.822
			c-0.511,0.589-1.327,0.884-2.447,0.884c-1.211,0-2.054-0.305-2.528-0.914s-0.711-1.74-0.711-3.393v-4.564
			c0-1.661,0.239-2.798,0.718-3.412c0.479-0.613,1.327-0.92,2.546-0.92c1.186,0,2.014,0.312,2.484,0.933
			C40.526,102.536,40.762,103.669,40.762,105.313z M38.528,104.43c0-0.729-0.072-1.229-0.215-1.503
			c-0.144-0.274-0.391-0.411-0.742-0.411c-0.36,0-0.613,0.135-0.761,0.404c-0.147,0.271-0.221,0.773-0.221,1.51v2.282h1.938V104.43z
			"/>
		<path fill="#75B2C4" d="M47.362,95.804h2.209v18.099h-2.209V95.804z"/>
		<path fill="#75B2C4" d="M58.222,105.313v4.564c0,1.652-0.239,2.787-0.718,3.404c-0.479,0.618-1.328,0.927-2.547,0.927
			c-1.178,0-2.004-0.311-2.479-0.933c-0.475-0.621-0.711-1.755-0.711-3.398v-4.564c0-1.661,0.239-2.798,0.718-3.412
			c0.479-0.613,1.327-0.92,2.546-0.92c1.17,0,1.994,0.315,2.473,0.945S58.222,103.686,58.222,105.313z M55.964,104.454
			c0-0.712-0.072-1.2-0.215-1.467c-0.144-0.266-0.391-0.398-0.742-0.398c-0.353,0-0.6,0.133-0.743,0.398
			c-0.143,0.267-0.214,0.755-0.214,1.467v6.282c0,0.736,0.071,1.235,0.214,1.497c0.144,0.262,0.391,0.393,0.743,0.393
			c0.352,0,0.599-0.139,0.742-0.417c0.143-0.278,0.215-0.769,0.215-1.473V104.454z"/>
		<path fill="#75B2C4" d="M66.062,104.331v0.602h-2.135v-0.65c0-0.72-0.056-1.186-0.166-1.398s-0.316-0.319-0.619-0.319
			c-0.278,0-0.477,0.101-0.596,0.301c-0.118,0.2-0.178,0.529-0.178,0.987v0.479c0,0.205,0.074,0.434,0.221,0.688
			c0.147,0.254,0.385,0.561,0.712,0.92l1.804,1.902c0.393,0.426,0.679,0.818,0.859,1.178c0.18,0.36,0.27,0.724,0.27,1.092v1.007
			c0,1.038-0.254,1.813-0.761,2.325c-0.507,0.511-1.284,0.767-2.331,0.767c-1.097,0-1.863-0.241-2.301-0.724
			c-0.438-0.483-0.656-1.35-0.656-2.602v-0.147v-0.858h2.062v1.006c0,0.688,0.057,1.149,0.172,1.387
			c0.114,0.237,0.322,0.355,0.625,0.355c0.36,0,0.614-0.11,0.761-0.331c0.147-0.221,0.222-0.598,0.222-1.129v-0.479
			c0-0.295-0.074-0.591-0.222-0.89c-0.146-0.299-0.376-0.607-0.687-0.927l-1.755-1.828c-0.491-0.531-0.81-0.963-0.957-1.294
			c-0.147-0.332-0.221-0.706-0.221-1.123v-0.724c0-0.958,0.253-1.684,0.761-2.179c0.507-0.494,1.256-0.742,2.245-0.742
			c1.031,0,1.767,0.258,2.209,0.773C65.842,102.271,66.062,103.129,66.062,104.331z"/>
		<path fill="#75B2C4" d="M78.945,104.123v6.944c0,1.121-0.165,1.925-0.496,2.411c-0.332,0.487-0.878,0.73-1.639,0.73
			c-0.393,0-0.763-0.114-1.11-0.344c-0.348-0.229-0.648-0.561-0.901-0.994v5.804H72.59v-17.387h2.11l0.099,1.007
			c0.253-0.426,0.554-0.751,0.901-0.976c0.348-0.226,0.726-0.338,1.135-0.338c0.744,0,1.282,0.244,1.614,0.73
			C78.78,102.198,78.945,103.002,78.945,104.123z M76.688,104.503c0-0.679-0.07-1.145-0.209-1.398
			c-0.14-0.254-0.381-0.381-0.724-0.381c-0.344,0-0.589,0.134-0.736,0.399s-0.221,0.726-0.221,1.38v6.16
			c0,0.654,0.073,1.118,0.221,1.393c0.147,0.273,0.393,0.411,0.736,0.411c0.343,0,0.584-0.131,0.724-0.393
			c0.139-0.262,0.209-0.732,0.209-1.411V104.503z"/>
		<path fill="#75B2C4" d="M85.56,101.116v1.927h-0.11c-0.777,0-1.323,0.172-1.639,0.516c-0.314,0.344-0.472,0.953-0.472,1.828v8.516
			H81.13v-12.614h2.11l0.099,1.031c0.277-0.418,0.576-0.727,0.896-0.927c0.318-0.2,0.666-0.301,1.043-0.301
			c0.032,0,0.079,0.005,0.141,0.013S85.526,101.116,85.56,101.116z"/>
		<path fill="#75B2C4" d="M86.566,95.804h2.368v2.27h-2.368V95.804z M86.64,101.288h2.209v12.614H86.64V101.288z"/>
		<path fill="#75B2C4" d="M97.131,102.393c0.327-0.482,0.66-0.838,1-1.067c0.339-0.229,0.709-0.344,1.11-0.344
			c0.711,0,1.21,0.228,1.497,0.682c0.286,0.453,0.429,1.29,0.429,2.509v9.73h-2.184v-9.399c0-0.662-0.065-1.124-0.196-1.387
			c-0.131-0.262-0.348-0.393-0.65-0.393c-0.319,0-0.546,0.138-0.681,0.411c-0.136,0.274-0.203,0.73-0.203,1.368v9.399h-2.208v-9.399
			c0-0.679-0.063-1.145-0.19-1.398s-0.342-0.381-0.645-0.381c-0.318,0-0.55,0.14-0.693,0.418c-0.143,0.277-0.215,0.731-0.215,1.361
			v9.399h-2.184v-12.614h2.11l0.099,1.007c0.277-0.45,0.584-0.781,0.92-0.994c0.335-0.213,0.724-0.319,1.166-0.319
			c0.433,0,0.812,0.133,1.135,0.398C96.871,101.646,97.064,101.983,97.131,102.393z"/>
		<path fill="#75B2C4" d="M109.818,105.313v2.932h-4.172v2.491c0,0.736,0.073,1.235,0.221,1.497s0.4,0.393,0.761,0.393
			c0.352,0,0.599-0.139,0.742-0.417c0.143-0.278,0.215-0.769,0.215-1.473v-1.08h2.233v0.822c0,1.293-0.256,2.233-0.768,2.822
			c-0.511,0.589-1.327,0.884-2.447,0.884c-1.211,0-2.054-0.305-2.528-0.914s-0.711-1.74-0.711-3.393v-4.564
			c0-1.661,0.239-2.798,0.718-3.412c0.479-0.613,1.327-0.92,2.546-0.92c1.186,0,2.014,0.312,2.484,0.933
			C109.583,102.536,109.818,103.669,109.818,105.313z M107.585,104.43c0-0.729-0.072-1.229-0.215-1.503
			c-0.144-0.274-0.391-0.411-0.742-0.411c-0.36,0-0.613,0.135-0.761,0.404c-0.147,0.271-0.221,0.773-0.221,1.51v2.282h1.938V104.43z
			"/>
		<path fill="#75B2C4" d="M116.432,101.116v1.927h-0.11c-0.777,0-1.323,0.172-1.639,0.516c-0.314,0.344-0.472,0.953-0.472,1.828
			v8.516h-2.209v-12.614h2.11l0.099,1.031c0.277-0.418,0.576-0.727,0.896-0.927c0.318-0.2,0.666-0.301,1.043-0.301
			c0.032,0,0.079,0.005,0.141,0.013S116.398,101.116,116.432,101.116z"/>
		<path fill="#75B2C4" d="M123.892,105.313v4.564c0,1.652-0.239,2.787-0.718,3.404c-0.479,0.618-1.328,0.927-2.547,0.927
			c-1.178,0-2.004-0.311-2.479-0.933c-0.475-0.621-0.711-1.755-0.711-3.398v-4.564c0-1.661,0.239-2.798,0.718-3.412
			c0.479-0.613,1.327-0.92,2.546-0.92c1.17,0,1.994,0.315,2.473,0.945S123.892,103.686,123.892,105.313z M121.634,104.454
			c0-0.712-0.072-1.2-0.215-1.467c-0.144-0.266-0.391-0.398-0.742-0.398c-0.353,0-0.6,0.133-0.743,0.398
			c-0.143,0.267-0.214,0.755-0.214,1.467v6.282c0,0.736,0.071,1.235,0.214,1.497c0.144,0.262,0.391,0.393,0.743,0.393
			c0.352,0,0.599-0.139,0.742-0.417c0.143-0.278,0.215-0.769,0.215-1.473V104.454z"/>
		<path fill="#75B2C4" d="M131.731,104.331v0.602h-2.135v-0.65c0-0.72-0.056-1.186-0.166-1.398s-0.316-0.319-0.619-0.319
			c-0.278,0-0.477,0.101-0.596,0.301c-0.118,0.2-0.178,0.529-0.178,0.987v0.479c0,0.205,0.074,0.434,0.221,0.688
			c0.147,0.254,0.385,0.561,0.712,0.92l1.804,1.902c0.393,0.426,0.679,0.818,0.859,1.178c0.18,0.36,0.27,0.724,0.27,1.092v1.007
			c0,1.038-0.254,1.813-0.761,2.325c-0.507,0.511-1.284,0.767-2.331,0.767c-1.097,0-1.863-0.241-2.301-0.724
			c-0.438-0.483-0.656-1.35-0.656-2.602v-0.147v-0.858h2.062v1.006c0,0.688,0.057,1.149,0.172,1.387
			c0.114,0.237,0.322,0.355,0.625,0.355c0.36,0,0.614-0.11,0.761-0.331c0.147-0.221,0.222-0.598,0.222-1.129v-0.479
			c0-0.295-0.074-0.591-0.222-0.89c-0.146-0.299-0.376-0.607-0.687-0.927l-1.755-1.828c-0.491-0.531-0.81-0.963-0.957-1.294
			c-0.147-0.332-0.221-0.706-0.221-1.123v-0.724c0-0.958,0.253-1.684,0.761-2.179c0.507-0.494,1.256-0.742,2.245-0.742
			c1.031,0,1.767,0.258,2.209,0.773C131.511,102.271,131.731,103.129,131.731,104.331z"/>
		<path fill="#75B2C4" d="M15.111,125.327v9.521h-2.11l-0.123-1.031c-0.262,0.442-0.566,0.775-0.914,1
			c-0.348,0.226-0.73,0.338-1.147,0.338c-0.753,0-1.297-0.248-1.632-0.742c-0.336-0.495-0.503-1.295-0.503-2.398v-2.172
			c0-1.015,0.314-1.749,0.944-2.203s1.714-0.713,3.252-0.779v-1.46c0-0.753-0.069-1.256-0.209-1.509
			c-0.139-0.254-0.389-0.381-0.748-0.381c-0.327,0-0.564,0.125-0.712,0.374c-0.147,0.25-0.221,0.653-0.221,1.209v0.527H8.927v-0.294
			c0-1.269,0.233-2.151,0.699-2.65c0.467-0.499,1.28-0.749,2.442-0.749c1.104,0,1.887,0.254,2.35,0.761
			C14.88,123.196,15.111,124.075,15.111,125.327z M12.865,128.419c-0.752,0.041-1.262,0.18-1.527,0.417s-0.398,0.659-0.398,1.264
			v1.607c0,0.68,0.075,1.156,0.227,1.43c0.151,0.274,0.403,0.411,0.755,0.411c0.344,0,0.589-0.135,0.736-0.405
			c0.147-0.27,0.221-0.748,0.221-1.436L12.865,128.419z"/>
		<path fill="#75B2C4" d="M17.345,122.234h2.233v9.375c0,0.687,0.071,1.159,0.214,1.417c0.144,0.258,0.391,0.387,0.743,0.387
			c0.343,0,0.589-0.137,0.736-0.411c0.146-0.274,0.221-0.738,0.221-1.393v-9.375h2.232v12.614H21.59l-0.098-1.031
			c-0.271,0.434-0.583,0.762-0.939,0.982c-0.355,0.221-0.746,0.331-1.171,0.331c-0.745,0-1.271-0.229-1.577-0.688
			s-0.46-1.288-0.46-2.49V122.234z"/>
		<path fill="#75B2C4" d="M25.381,122.234h2.233l1.006,4.319l1.031-4.319h2.037l-1.89,6.025l1.963,6.589h-2.258l-1.202-4.896
			l-1.264,4.896H25.05l2.086-6.589L25.381,122.234z"/>
		<path fill="#75B2C4" d="M33.124,116.75h2.368v2.271h-2.368V116.75z M33.197,122.234h2.209v12.614h-2.209V122.234z"/>
		<path fill="#75B2C4" d="M37.676,116.75h2.209v18.099h-2.209V116.75z"/>
		<path fill="#75B2C4" d="M42.081,116.75h2.368v2.271h-2.368V116.75z M42.154,122.234h2.209v12.614h-2.209V122.234z"/>
		<path fill="#75B2C4" d="M53.014,126.26v4.564c0,1.652-0.239,2.787-0.718,3.404c-0.479,0.618-1.328,0.927-2.547,0.927
			c-1.178,0-2.004-0.311-2.479-0.933c-0.475-0.621-0.711-1.755-0.711-3.398v-4.564c0-1.661,0.239-2.798,0.718-3.411
			c0.479-0.614,1.327-0.921,2.546-0.921c1.17,0,1.994,0.315,2.473,0.945S53.014,124.632,53.014,126.26z M50.756,125.4
			c0-0.712-0.072-1.2-0.215-1.466c-0.144-0.266-0.391-0.399-0.742-0.399c-0.353,0-0.6,0.134-0.743,0.399
			c-0.143,0.266-0.214,0.754-0.214,1.466v6.282c0,0.736,0.071,1.235,0.214,1.497c0.144,0.262,0.391,0.393,0.743,0.393
			c0.352,0,0.599-0.139,0.742-0.417c0.143-0.278,0.215-0.769,0.215-1.473V125.4z"/>
		<path fill="#75B2C4" d="M60.854,125.278v0.601h-2.135v-0.65c0-0.72-0.056-1.186-0.166-1.398s-0.316-0.319-0.619-0.319
			c-0.278,0-0.477,0.101-0.596,0.301c-0.118,0.2-0.178,0.529-0.178,0.988v0.479c0,0.204,0.074,0.434,0.221,0.687
			c0.147,0.254,0.385,0.561,0.712,0.92l1.804,1.902c0.393,0.426,0.679,0.818,0.859,1.178c0.18,0.36,0.27,0.724,0.27,1.092v1.007
			c0,1.039-0.254,1.813-0.761,2.325c-0.507,0.511-1.284,0.767-2.331,0.767c-1.097,0-1.863-0.241-2.301-0.724
			c-0.438-0.483-0.656-1.35-0.656-2.602v-0.147v-0.858h2.062v1.006c0,0.688,0.057,1.149,0.172,1.387
			c0.114,0.237,0.322,0.355,0.625,0.355c0.36,0,0.614-0.11,0.761-0.331c0.147-0.221,0.222-0.598,0.222-1.129v-0.479
			c0-0.295-0.074-0.591-0.222-0.89c-0.146-0.299-0.376-0.607-0.687-0.927l-1.755-1.828c-0.491-0.531-0.81-0.963-0.957-1.294
			c-0.147-0.332-0.221-0.706-0.221-1.123v-0.724c0-0.957,0.253-1.684,0.761-2.178c0.507-0.495,1.256-0.743,2.245-0.743
			c1.031,0,1.767,0.258,2.209,0.773C60.633,123.217,60.854,124.075,60.854,125.278z"/>
		<path fill="#75B2C4" d="M73.737,125.069v6.945c0,1.12-0.165,1.924-0.496,2.41c-0.332,0.487-0.878,0.73-1.639,0.73
			c-0.393,0-0.763-0.114-1.11-0.344c-0.348-0.229-0.648-0.561-0.901-0.994v5.805h-2.209v-17.388h2.11l0.099,1.007
			c0.253-0.426,0.554-0.751,0.901-0.976c0.348-0.226,0.726-0.338,1.135-0.338c0.744,0,1.282,0.244,1.614,0.73
			C73.572,123.145,73.737,123.948,73.737,125.069z M71.48,125.449c0-0.679-0.07-1.145-0.209-1.398
			c-0.14-0.253-0.381-0.38-0.724-0.38c-0.344,0-0.589,0.133-0.736,0.398s-0.221,0.726-0.221,1.38v6.16
			c0,0.654,0.073,1.118,0.221,1.393s0.393,0.411,0.736,0.411c0.343,0,0.584-0.131,0.724-0.393c0.139-0.262,0.209-0.732,0.209-1.411
			V125.449z"/>
		<path fill="#75B2C4" d="M81.578,125.278v0.601h-2.135v-0.65c0-0.72-0.056-1.186-0.166-1.398s-0.316-0.319-0.619-0.319
			c-0.278,0-0.477,0.101-0.596,0.301c-0.118,0.2-0.178,0.529-0.178,0.988v0.479c0,0.204,0.074,0.434,0.221,0.687
			c0.147,0.254,0.385,0.561,0.712,0.92l1.804,1.902c0.393,0.426,0.679,0.818,0.859,1.178c0.18,0.36,0.27,0.724,0.27,1.092v1.007
			c0,1.039-0.254,1.813-0.761,2.325c-0.507,0.511-1.284,0.767-2.331,0.767c-1.097,0-1.863-0.241-2.301-0.724
			c-0.438-0.483-0.656-1.35-0.656-2.602v-0.147v-0.858h2.062v1.006c0,0.688,0.057,1.149,0.172,1.387
			c0.114,0.237,0.322,0.355,0.625,0.355c0.36,0,0.614-0.11,0.761-0.331c0.147-0.221,0.222-0.598,0.222-1.129v-0.479
			c0-0.295-0.074-0.591-0.222-0.89c-0.146-0.299-0.376-0.607-0.687-0.927l-1.755-1.828c-0.491-0.531-0.81-0.963-0.957-1.294
			c-0.147-0.332-0.221-0.706-0.221-1.123v-0.724c0-0.957,0.253-1.684,0.761-2.178c0.507-0.495,1.256-0.743,2.245-0.743
			c1.031,0,1.767,0.258,2.209,0.773C81.357,123.217,81.578,124.075,81.578,125.278z"/>
		<path fill="#75B2C4" d="M83.615,116.75h2.368v2.271h-2.368V116.75z M83.688,122.234h2.209v12.614h-2.209V122.234z"/>
		<path fill="#75B2C4" d="M94.277,125.646v0.736h-2.233v-1.03c0-0.704-0.065-1.183-0.196-1.436
			c-0.131-0.254-0.359-0.381-0.687-0.381c-0.287,0-0.489,0.131-0.607,0.393c-0.119,0.263-0.178,0.753-0.178,1.473v6.282
			c0,0.736,0.062,1.235,0.189,1.497s0.342,0.393,0.645,0.393c0.295,0,0.503-0.127,0.626-0.38c0.122-0.254,0.184-0.757,0.184-1.51
			v-1.227h2.258v0.969c0,1.26-0.254,2.192-0.761,2.798s-1.284,0.908-2.331,0.908c-1.153,0-1.957-0.305-2.411-0.914
			s-0.681-1.74-0.681-3.393v-4.564c0-1.652,0.23-2.788,0.692-3.405c0.463-0.617,1.271-0.927,2.424-0.927
			c1.047,0,1.82,0.303,2.319,0.908S94.277,124.378,94.277,125.646z"/>
		<path fill="#75B2C4" d="M102.585,126.26v4.564c0,1.652-0.239,2.787-0.718,3.404c-0.479,0.618-1.328,0.927-2.547,0.927
			c-1.178,0-2.004-0.311-2.479-0.933c-0.475-0.621-0.711-1.755-0.711-3.398v-4.564c0-1.661,0.239-2.798,0.718-3.411
			c0.479-0.614,1.327-0.921,2.546-0.921c1.17,0,1.994,0.315,2.473,0.945S102.585,124.632,102.585,126.26z M100.327,125.4
			c0-0.712-0.072-1.2-0.215-1.466c-0.144-0.266-0.391-0.399-0.742-0.399c-0.353,0-0.6,0.134-0.743,0.399
			c-0.143,0.266-0.214,0.754-0.214,1.466v6.282c0,0.736,0.071,1.235,0.214,1.497c0.144,0.262,0.391,0.393,0.743,0.393
			c0.352,0,0.599-0.139,0.742-0.417c0.143-0.278,0.215-0.769,0.215-1.473V125.4z"/>
		<path fill="#75B2C4" d="M104.769,116.75h2.209v18.099h-2.209V116.75z"/>
		<path fill="#75B2C4" d="M115.628,126.26v4.564c0,1.652-0.239,2.787-0.718,3.404c-0.479,0.618-1.328,0.927-2.547,0.927
			c-1.178,0-2.004-0.311-2.479-0.933c-0.475-0.621-0.711-1.755-0.711-3.398v-4.564c0-1.661,0.239-2.798,0.718-3.411
			c0.479-0.614,1.327-0.921,2.546-0.921c1.17,0,1.994,0.315,2.473,0.945S115.628,124.632,115.628,126.26z M113.37,125.4
			c0-0.712-0.072-1.2-0.215-1.466c-0.144-0.266-0.391-0.399-0.742-0.399c-0.353,0-0.6,0.134-0.743,0.399
			c-0.143,0.266-0.214,0.754-0.214,1.466v6.282c0,0.736,0.071,1.235,0.214,1.497c0.144,0.262,0.391,0.393,0.743,0.393
			c0.352,0,0.599-0.139,0.742-0.417c0.143-0.278,0.215-0.769,0.215-1.473V125.4z M112.634,117.634h2.086l-1.706,2.944h-1.436
			L112.634,117.634z"/>
		<path fill="#75B2C4" d="M121.886,123.241l0.123-1.007h2.11v13.792c0,1.407-0.237,2.387-0.712,2.938
			c-0.474,0.553-1.3,0.828-2.479,0.828c-1.104,0-1.907-0.262-2.411-0.785c-0.503-0.523-0.754-1.357-0.754-2.503v-0.527h2.258v0.503
			c0,0.622,0.067,1.062,0.202,1.319s0.354,0.387,0.656,0.387c0.368,0,0.628-0.138,0.779-0.412c0.151-0.273,0.227-0.754,0.227-1.441
			v-3.067c-0.245,0.434-0.539,0.759-0.883,0.976s-0.729,0.325-1.153,0.325c-0.745,0-1.278-0.237-1.602-0.712
			s-0.484-1.271-0.484-2.393v-6.417c0-1.121,0.163-1.921,0.49-2.399s0.867-0.718,1.62-0.718c0.4,0,0.772,0.112,1.116,0.338
			C121.334,122.49,121.633,122.815,121.886,123.241z M121.886,125.449c0-0.67-0.071-1.139-0.214-1.404
			c-0.144-0.266-0.383-0.399-0.719-0.399c-0.343,0-0.589,0.134-0.735,0.399c-0.147,0.266-0.222,0.734-0.222,1.404v5.607
			c0,0.688,0.07,1.16,0.209,1.418c0.139,0.257,0.381,0.386,0.724,0.386c0.344,0,0.589-0.137,0.736-0.41
			c0.147-0.274,0.221-0.738,0.221-1.394V125.449z"/>
		<path fill="#75B2C4" d="M126.279,116.75h2.368v2.271h-2.368V116.75z M126.353,122.234h2.209v12.614h-2.209V122.234z"/>
		<path fill="#75B2C4" d="M136.941,125.646v0.736h-2.233v-1.03c0-0.704-0.065-1.183-0.196-1.436
			c-0.131-0.254-0.359-0.381-0.687-0.381c-0.287,0-0.489,0.131-0.607,0.393c-0.119,0.263-0.178,0.753-0.178,1.473v6.282
			c0,0.736,0.062,1.235,0.189,1.497s0.342,0.393,0.645,0.393c0.295,0,0.503-0.127,0.626-0.38c0.122-0.254,0.184-0.757,0.184-1.51
			v-1.227h2.258v0.969c0,1.26-0.254,2.192-0.761,2.798s-1.284,0.908-2.331,0.908c-1.153,0-1.957-0.305-2.411-0.914
			s-0.681-1.74-0.681-3.393v-4.564c0-1.652,0.23-2.788,0.692-3.405c0.463-0.617,1.271-0.927,2.424-0.927
			c1.047,0,1.82,0.303,2.319,0.908S136.941,124.378,136.941,125.646z"/>
		<path fill="#75B2C4" d="M145.248,126.26v4.564c0,1.652-0.239,2.787-0.718,3.404c-0.479,0.618-1.328,0.927-2.547,0.927
			c-1.178,0-2.004-0.311-2.479-0.933c-0.475-0.621-0.711-1.755-0.711-3.398v-4.564c0-1.661,0.239-2.798,0.718-3.411
			c0.479-0.614,1.327-0.921,2.546-0.921c1.17,0,1.994,0.315,2.473,0.945S145.248,124.632,145.248,126.26z M142.99,125.4
			c0-0.712-0.072-1.2-0.215-1.466c-0.144-0.266-0.391-0.399-0.742-0.399c-0.353,0-0.6,0.134-0.743,0.399
			c-0.143,0.266-0.214,0.754-0.214,1.466v6.282c0,0.736,0.071,1.235,0.214,1.497c0.144,0.262,0.391,0.393,0.743,0.393
			c0.352,0,0.599-0.139,0.742-0.417c0.143-0.278,0.215-0.769,0.215-1.473V125.4z"/>
		<path fill="#75B2C4" d="M153.089,125.278v0.601h-2.135v-0.65c0-0.72-0.056-1.186-0.166-1.398s-0.316-0.319-0.619-0.319
			c-0.278,0-0.477,0.101-0.596,0.301c-0.118,0.2-0.178,0.529-0.178,0.988v0.479c0,0.204,0.074,0.434,0.221,0.687
			c0.147,0.254,0.385,0.561,0.712,0.92l1.804,1.902c0.393,0.426,0.679,0.818,0.859,1.178c0.18,0.36,0.27,0.724,0.27,1.092v1.007
			c0,1.039-0.254,1.813-0.761,2.325c-0.507,0.511-1.284,0.767-2.331,0.767c-1.097,0-1.863-0.241-2.301-0.724
			c-0.438-0.483-0.656-1.35-0.656-2.602v-0.147v-0.858h2.062v1.006c0,0.688,0.057,1.149,0.172,1.387
			c0.114,0.237,0.322,0.355,0.625,0.355c0.36,0,0.614-0.11,0.761-0.331c0.147-0.221,0.222-0.598,0.222-1.129v-0.479
			c0-0.295-0.074-0.591-0.222-0.89c-0.146-0.299-0.376-0.607-0.687-0.927l-1.755-1.828c-0.491-0.531-0.81-0.963-0.957-1.294
			c-0.147-0.332-0.221-0.706-0.221-1.123v-0.724c0-0.957,0.253-1.684,0.761-2.178c0.507-0.495,1.256-0.743,2.245-0.743
			c1.031,0,1.767,0.258,2.209,0.773C152.868,123.217,153.089,124.075,153.089,125.278z"/>
	</g>
	<g>
		<path fill="#75B2C4" d="M28.994,265.358h2.013v2.368c0,0.753-0.045,1.381-0.135,1.884s-0.237,0.996-0.442,1.479l-0.711,1.607
			c-0.155,0.385-0.274,0.744-0.356,1.08c-0.081,0.335-0.122,0.646-0.122,0.932v1.362c0,0.54,0.069,0.925,0.208,1.153
			c0.14,0.229,0.364,0.344,0.675,0.344c0.352,0,0.596-0.131,0.73-0.393s0.202-0.773,0.202-1.534v-1.129h2.086v1.276
			c0,1.227-0.243,2.104-0.729,2.632c-0.487,0.528-1.291,0.792-2.411,0.792c-1.031,0-1.779-0.252-2.246-0.755
			c-0.466-0.503-0.699-1.319-0.699-2.448v-1.129c0-0.417,0.047-0.834,0.142-1.251c0.094-0.417,0.23-0.835,0.411-1.252l1.03-2.417
			c0.106-0.262,0.192-0.579,0.258-0.951s0.098-0.742,0.098-1.11V265.358z M28.921,260.807h2.159v2.466h-2.159V260.807z"/>
		<path fill="#75B2C4" d="M35.424,265.358c0-1.856,0.268-3.125,0.804-3.804c0.535-0.679,1.495-1.019,2.877-1.019
			c1.317,0,2.239,0.346,2.768,1.037c0.527,0.691,0.791,1.953,0.791,3.785v8.994c0,1.031-0.084,1.755-0.252,2.172
			c-0.167,0.417-0.46,0.748-0.877,0.994l0.024,0.086c0.303-0.164,0.613-0.284,0.933-0.362c0.319-0.077,0.638-0.116,0.957-0.116
			h0.319v1.779c-0.835,0.008-1.781,0.047-2.841,0.116s-1.703,0.104-1.933,0.104c-1.35,0-2.282-0.329-2.798-0.988
			c-0.515-0.658-0.772-1.92-0.772-3.785V265.358z M37.792,264.904v9.902c0,1.022,0.092,1.701,0.276,2.037
			c0.184,0.335,0.509,0.503,0.975,0.503c0.475,0,0.804-0.174,0.988-0.521c0.184-0.348,0.276-1.021,0.276-2.019v-9.902
			c0-1.014-0.093-1.69-0.276-2.03c-0.185-0.34-0.514-0.51-0.988-0.51c-0.466,0-0.791,0.177-0.975,0.528
			C37.884,263.244,37.792,263.915,37.792,264.904z"/>
		<path fill="#75B2C4" d="M45.13,266.291h2.233v9.374c0,0.688,0.071,1.16,0.214,1.418c0.144,0.258,0.391,0.387,0.743,0.387
			c0.343,0,0.589-0.138,0.736-0.412c0.146-0.273,0.221-0.737,0.221-1.393v-9.374h2.232v12.614h-2.135l-0.098-1.031
			c-0.271,0.434-0.583,0.761-0.939,0.981c-0.355,0.221-0.746,0.331-1.171,0.331c-0.745,0-1.271-0.229-1.577-0.687
			s-0.46-1.288-0.46-2.491V266.291z"/>
		<path fill="#75B2C4" d="M60.148,270.315v2.933h-4.172v2.491c0,0.736,0.073,1.235,0.221,1.497s0.4,0.393,0.761,0.393
			c0.352,0,0.599-0.14,0.742-0.417c0.143-0.278,0.215-0.77,0.215-1.473v-1.08h2.233v0.822c0,1.293-0.256,2.233-0.768,2.822
			c-0.511,0.589-1.327,0.883-2.447,0.883c-1.211,0-2.054-0.305-2.528-0.914s-0.711-1.74-0.711-3.393v-4.564
			c0-1.66,0.239-2.797,0.718-3.411c0.479-0.613,1.327-0.92,2.546-0.92c1.186,0,2.014,0.311,2.484,0.933
			C59.913,267.538,60.148,268.672,60.148,270.315z M57.915,269.433c0-0.729-0.072-1.229-0.215-1.504
			c-0.144-0.273-0.391-0.41-0.742-0.41c-0.36,0-0.613,0.135-0.761,0.404c-0.147,0.271-0.221,0.773-0.221,1.51v2.282h1.938V269.433z
			 M57.154,261.689h2.086l-1.706,2.945h-1.436L57.154,261.689z"/>
		<path fill="#75B2C4" d="M73.105,269.175v9.73h-2.232v-9.399c0-0.679-0.072-1.146-0.215-1.398
			c-0.144-0.254-0.391-0.381-0.742-0.381c-0.344,0-0.589,0.133-0.736,0.399c-0.147,0.266-0.221,0.726-0.221,1.38v9.399H66.75
			v-12.614h2.11l0.099,1.006c0.27-0.433,0.584-0.761,0.944-0.981s0.749-0.331,1.166-0.331c0.752,0,1.28,0.231,1.583,0.693
			C72.954,267.14,73.105,267.972,73.105,269.175z"/>
		<path fill="#75B2C4" d="M81.744,270.315v4.564c0,1.652-0.239,2.788-0.718,3.405c-0.479,0.618-1.328,0.927-2.547,0.927
			c-1.178,0-2.004-0.312-2.479-0.933c-0.475-0.622-0.711-1.755-0.711-3.399v-4.564c0-1.66,0.239-2.797,0.718-3.411
			c0.479-0.613,1.327-0.92,2.546-0.92c1.17,0,1.994,0.315,2.473,0.944C81.505,267.56,81.744,268.688,81.744,270.315z
			 M79.486,269.457c0-0.712-0.072-1.2-0.215-1.467c-0.144-0.266-0.391-0.398-0.742-0.398c-0.353,0-0.6,0.133-0.743,0.398
			c-0.143,0.267-0.214,0.755-0.214,1.467v6.282c0,0.736,0.071,1.235,0.214,1.497c0.144,0.262,0.391,0.393,0.743,0.393
			c0.352,0,0.599-0.14,0.742-0.417c0.143-0.278,0.215-0.77,0.215-1.473V269.457z"/>
		<path fill="#75B2C4" d="M88.579,260.807h2.331v7.791h2.54v-7.791h2.331v18.099H93.45v-8.467h-2.54v8.467h-2.331V260.807z"/>
		<path fill="#75B2C4" d="M104.48,269.383v9.522h-2.11l-0.123-1.031c-0.262,0.441-0.566,0.775-0.914,1s-0.73,0.338-1.147,0.338
			c-0.753,0-1.297-0.248-1.632-0.742c-0.336-0.495-0.503-1.295-0.503-2.399v-2.172c0-1.014,0.314-1.748,0.944-2.202
			s1.714-0.714,3.252-0.779v-1.46c0-0.753-0.069-1.256-0.209-1.51c-0.139-0.253-0.389-0.38-0.748-0.38
			c-0.327,0-0.564,0.125-0.712,0.374c-0.147,0.25-0.221,0.652-0.221,1.209v0.527h-2.062v-0.295c0-1.268,0.233-2.151,0.699-2.65
			c0.467-0.499,1.28-0.748,2.442-0.748c1.104,0,1.887,0.254,2.35,0.761C104.249,267.252,104.48,268.132,104.48,269.383z
			 M102.234,272.476c-0.752,0.041-1.262,0.18-1.527,0.417s-0.398,0.658-0.398,1.264v1.607c0,0.679,0.075,1.155,0.227,1.43
			s0.403,0.411,0.755,0.411c0.344,0,0.589-0.135,0.736-0.405c0.147-0.27,0.221-0.748,0.221-1.436L102.234,272.476z"/>
		<path fill="#75B2C4" d="M112.849,269.702v0.736h-2.233v-1.031c0-0.703-0.065-1.182-0.196-1.436
			c-0.131-0.253-0.359-0.38-0.687-0.38c-0.287,0-0.489,0.131-0.607,0.393c-0.119,0.262-0.178,0.753-0.178,1.473v6.282
			c0,0.736,0.062,1.235,0.189,1.497s0.342,0.393,0.645,0.393c0.295,0,0.503-0.127,0.626-0.381c0.122-0.253,0.184-0.756,0.184-1.509
			v-1.228h2.258v0.97c0,1.26-0.254,2.192-0.761,2.798s-1.284,0.907-2.331,0.907c-1.153,0-1.957-0.305-2.411-0.914
			s-0.681-1.74-0.681-3.393v-4.564c0-1.652,0.23-2.787,0.692-3.404c0.463-0.618,1.271-0.927,2.424-0.927
			c1.047,0,1.82,0.303,2.319,0.908S112.849,268.435,112.849,269.702z"/>
		<path fill="#75B2C4" d="M121.156,270.315v2.933h-4.172v2.491c0,0.736,0.073,1.235,0.221,1.497s0.4,0.393,0.761,0.393
			c0.352,0,0.599-0.14,0.742-0.417c0.143-0.278,0.215-0.77,0.215-1.473v-1.08h2.233v0.822c0,1.293-0.256,2.233-0.768,2.822
			c-0.511,0.589-1.327,0.883-2.447,0.883c-1.211,0-2.054-0.305-2.528-0.914s-0.711-1.74-0.711-3.393v-4.564
			c0-1.66,0.239-2.797,0.718-3.411c0.479-0.613,1.327-0.92,2.546-0.92c1.186,0,2.014,0.311,2.484,0.933
			C120.921,267.538,121.156,268.672,121.156,270.315z M118.923,269.433c0-0.729-0.072-1.229-0.215-1.504
			c-0.144-0.273-0.391-0.41-0.742-0.41c-0.36,0-0.613,0.135-0.761,0.404c-0.147,0.271-0.221,0.773-0.221,1.51v2.282h1.938V269.433z"
			/>
		<path fill="#75B2C4" d="M127.77,266.119v1.927h-0.11c-0.777,0-1.323,0.172-1.639,0.516c-0.314,0.343-0.472,0.952-0.472,1.828
			v8.516h-2.209v-12.614h2.11l0.099,1.03c0.277-0.417,0.576-0.726,0.896-0.926c0.318-0.2,0.666-0.301,1.043-0.301
			c0.032,0,0.079,0.004,0.141,0.013C127.689,266.115,127.736,266.119,127.77,266.119z"/>
		<path fill="#75B2C4" d="M134.604,263.702v1.129c0,0.4-0.045,0.812-0.135,1.233c-0.091,0.421-0.229,0.856-0.418,1.307l-1.03,2.393
			c-0.099,0.221-0.176,0.515-0.233,0.884c-0.058,0.367-0.086,0.756-0.086,1.165v2.54h-2.036v-2.355c0-0.695,0.047-1.307,0.141-1.835
			c0.094-0.527,0.247-1.041,0.46-1.54l0.675-1.607c0.155-0.352,0.274-0.701,0.356-1.049c0.081-0.348,0.122-0.669,0.122-0.963v-1.35
			c0-0.532-0.069-0.916-0.208-1.153c-0.14-0.237-0.364-0.356-0.675-0.356c-0.336,0-0.569,0.129-0.7,0.387s-0.196,0.775-0.196,1.552
			v1.153h-2.11v-1.312c0-1.219,0.241-2.088,0.725-2.607c0.482-0.52,1.296-0.779,2.441-0.779c1.022,0,1.763,0.25,2.221,0.749
			S134.604,262.59,134.604,263.702z M130.615,276.438h2.136v2.467h-2.136V276.438z"/>
	</g>
	<g>
		<path fill="#75B2C4" d="M44.872,296.807h3.141c1.399,0,2.381,0.229,2.945,0.687c0.564,0.459,0.847,1.235,0.847,2.332v2.92
			c0,0.933-0.192,1.613-0.577,2.043s-1.039,0.693-1.963,0.791c0.965,0.074,1.642,0.332,2.03,0.773s0.583,1.19,0.583,2.245v6.308
			h-2.393v-6.332c0-0.875-0.121-1.438-0.362-1.688c-0.241-0.249-0.738-0.374-1.49-0.374h-0.528v8.394h-2.232V296.807z
			 M47.104,298.622v6.086h0.479c0.72,0,1.205-0.137,1.454-0.411c0.25-0.273,0.375-0.823,0.375-1.65v-1.963
			c0-0.834-0.125-1.387-0.375-1.656c-0.249-0.271-0.734-0.405-1.454-0.405H47.104z"/>
		<path fill="#75B2C4" d="M60.615,306.315v2.933h-4.172v2.491c0,0.736,0.073,1.235,0.221,1.497s0.4,0.393,0.761,0.393
			c0.352,0,0.599-0.14,0.742-0.417c0.143-0.278,0.215-0.77,0.215-1.473v-1.08h2.233v0.822c0,1.293-0.256,2.233-0.768,2.822
			c-0.511,0.589-1.327,0.883-2.447,0.883c-1.211,0-2.054-0.305-2.528-0.914s-0.711-1.74-0.711-3.393v-4.564
			c0-1.66,0.239-2.797,0.718-3.411c0.479-0.613,1.327-0.92,2.546-0.92c1.186,0,2.014,0.311,2.484,0.933
			C60.38,303.538,60.615,304.672,60.615,306.315z M58.382,305.433c0-0.729-0.072-1.229-0.215-1.504
			c-0.144-0.273-0.391-0.41-0.742-0.41c-0.36,0-0.613,0.135-0.761,0.404c-0.147,0.271-0.221,0.773-0.221,1.51v2.282h1.938V305.433z"
			/>
		<path fill="#75B2C4" d="M68.909,305.702v0.736h-2.233v-1.031c0-0.703-0.065-1.182-0.196-1.436c-0.131-0.253-0.359-0.38-0.687-0.38
			c-0.287,0-0.489,0.131-0.607,0.393c-0.119,0.262-0.178,0.753-0.178,1.473v6.282c0,0.736,0.062,1.235,0.189,1.497
			s0.342,0.393,0.645,0.393c0.295,0,0.503-0.127,0.626-0.381c0.122-0.253,0.184-0.756,0.184-1.509v-1.228h2.258v0.97
			c0,1.26-0.254,2.192-0.761,2.798s-1.284,0.907-2.331,0.907c-1.153,0-1.957-0.305-2.411-0.914s-0.681-1.74-0.681-3.393v-4.564
			c0-1.652,0.23-2.787,0.692-3.404c0.463-0.618,1.271-0.927,2.424-0.927c1.047,0,1.82,0.303,2.319,0.908
			S68.909,304.435,68.909,305.702z"/>
		<path fill="#75B2C4" d="M70.811,302.291h2.233v9.374c0,0.688,0.071,1.16,0.214,1.418c0.144,0.258,0.391,0.387,0.743,0.387
			c0.343,0,0.589-0.138,0.736-0.412c0.146-0.273,0.221-0.737,0.221-1.393v-9.374h2.232v12.614h-2.135l-0.098-1.031
			c-0.271,0.434-0.583,0.761-0.939,0.981c-0.355,0.221-0.746,0.331-1.171,0.331c-0.745,0-1.271-0.229-1.577-0.687
			s-0.46-1.288-0.46-2.491V302.291z"/>
		<path fill="#75B2C4" d="M85.83,306.315v2.933h-4.172v2.491c0,0.736,0.073,1.235,0.221,1.497s0.4,0.393,0.761,0.393
			c0.352,0,0.599-0.14,0.742-0.417c0.143-0.278,0.215-0.77,0.215-1.473v-1.08h2.233v0.822c0,1.293-0.256,2.233-0.768,2.822
			c-0.511,0.589-1.327,0.883-2.447,0.883c-1.211,0-2.054-0.305-2.528-0.914s-0.711-1.74-0.711-3.393v-4.564
			c0-1.66,0.239-2.797,0.718-3.411c0.479-0.613,1.327-0.92,2.546-0.92c1.186,0,2.014,0.311,2.484,0.933
			C85.595,303.538,85.83,304.672,85.83,306.315z M83.597,305.433c0-0.729-0.072-1.229-0.215-1.504
			c-0.144-0.273-0.391-0.41-0.742-0.41c-0.36,0-0.613,0.135-0.761,0.404c-0.147,0.271-0.221,0.773-0.221,1.51v2.282h1.938V305.433z"
			/>
		<path fill="#75B2C4" d="M92.443,302.119v1.927h-0.11c-0.777,0-1.323,0.172-1.639,0.516c-0.314,0.343-0.472,0.952-0.472,1.828
			v8.516h-2.209v-12.614h2.11l0.099,1.03c0.277-0.417,0.576-0.726,0.896-0.926c0.318-0.2,0.666-0.301,1.043-0.301
			c0.032,0,0.079,0.004,0.141,0.013C92.363,302.115,92.41,302.119,92.443,302.119z"/>
		<path fill="#75B2C4" d="M97.596,296.807h2.233v18.099h-2.11l-0.123-1.031c-0.253,0.434-0.554,0.765-0.901,0.994
			c-0.348,0.229-0.727,0.344-1.135,0.344c-0.736,0-1.269-0.244-1.596-0.73s-0.49-1.29-0.49-2.411v-6.944
			c0-1.138,0.163-1.945,0.49-2.424s0.867-0.718,1.62-0.718c0.4,0,0.772,0.112,1.116,0.337c0.344,0.226,0.643,0.551,0.896,0.976
			V296.807z M97.596,305.506c0-0.663-0.069-1.125-0.208-1.387c-0.14-0.262-0.381-0.393-0.725-0.393
			c-0.352,0-0.599,0.129-0.742,0.387c-0.143,0.258-0.215,0.722-0.215,1.393v6.159c0,0.688,0.07,1.16,0.209,1.418
			s0.381,0.387,0.724,0.387c0.344,0,0.589-0.138,0.736-0.412c0.147-0.273,0.221-0.737,0.221-1.393V305.506z"/>
		<path fill="#75B2C4" d="M108.443,306.315v2.933h-4.172v2.491c0,0.736,0.073,1.235,0.221,1.497s0.4,0.393,0.761,0.393
			c0.352,0,0.599-0.14,0.742-0.417c0.143-0.278,0.215-0.77,0.215-1.473v-1.08h2.233v0.822c0,1.293-0.256,2.233-0.768,2.822
			c-0.511,0.589-1.327,0.883-2.447,0.883c-1.211,0-2.054-0.305-2.528-0.914s-0.711-1.74-0.711-3.393v-4.564
			c0-1.66,0.239-2.797,0.718-3.411c0.479-0.613,1.327-0.92,2.546-0.92c1.186,0,2.014,0.311,2.484,0.933
			C108.208,303.538,108.443,304.672,108.443,306.315z M106.21,305.433c0-0.729-0.072-1.229-0.215-1.504
			c-0.144-0.273-0.391-0.41-0.742-0.41c-0.36,0-0.613,0.135-0.761,0.404c-0.147,0.271-0.221,0.773-0.221,1.51v2.282h1.938V305.433z"
			/>
		<path fill="#75B2C4" d="M110.628,312.438h2.159v2.467h-2.159V312.438z"/>
		<path fill="#75B2C4" d="M115.045,312.438h2.159v2.467h-2.159V312.438z"/>
	</g>
	<g>
		<path fill="#75B2C4" d="M2.865,161.024h6.012v1.779H5.062v5.448c0.237-0.311,0.516-0.542,0.834-0.693
			c0.319-0.151,0.691-0.228,1.117-0.228c0.817,0,1.4,0.246,1.748,0.736c0.348,0.491,0.521,1.35,0.521,2.577v3.89
			c0,1.579-0.239,2.691-0.718,3.338c-0.479,0.646-1.286,0.969-2.424,0.969c-1.21,0-2.075-0.305-2.595-0.914s-0.779-1.63-0.779-3.062
			v-0.981h2.271v1.153c0,0.843,0.069,1.419,0.208,1.73c0.14,0.311,0.385,0.466,0.736,0.466c0.376,0,0.639-0.163,0.785-0.49
			c0.147-0.327,0.221-0.921,0.221-1.779v-3.988c0-0.736-0.073-1.243-0.221-1.521c-0.146-0.277-0.409-0.417-0.785-0.417
			c-0.319,0-0.552,0.14-0.699,0.417c-0.147,0.278-0.221,0.725-0.221,1.338v0.38H2.865V161.024z"/>
		<path fill="#75B2C4" d="M23.024,164.056v1.361h-2.344v-1.227c0-0.818-0.075-1.389-0.227-1.712s-0.403-0.484-0.755-0.484
			c-0.434,0-0.734,0.161-0.902,0.484c-0.167,0.323-0.251,1.009-0.251,2.056v9.901c0,1.063,0.079,1.753,0.239,2.067
			c0.159,0.315,0.447,0.473,0.865,0.473c0.376,0,0.642-0.153,0.797-0.46s0.233-0.849,0.233-1.626v-1.632h2.368v1.656
			c0,1.481-0.254,2.506-0.761,3.074s-1.403,0.853-2.688,0.853c-1.26,0-2.145-0.346-2.656-1.037c-0.511-0.69-0.767-1.965-0.767-3.822
			v-8.993c0-1.841,0.256-3.104,0.767-3.792c0.512-0.688,1.413-1.03,2.706-1.03c1.251,0,2.126,0.282,2.625,0.847
			S23.024,162.591,23.024,164.056z"/>
		<path fill="#75B2C4" d="M31.259,169.945v4.564c0,1.652-0.239,2.787-0.718,3.405c-0.479,0.617-1.328,0.926-2.547,0.926
			c-1.178,0-2.004-0.311-2.479-0.933c-0.475-0.621-0.711-1.755-0.711-3.398v-4.564c0-1.661,0.239-2.798,0.718-3.411
			s1.327-0.92,2.546-0.92c1.17,0,1.994,0.314,2.473,0.944S31.259,168.317,31.259,169.945z M29.001,169.086
			c0-0.712-0.072-1.2-0.215-1.466c-0.144-0.266-0.391-0.399-0.742-0.399c-0.353,0-0.6,0.134-0.743,0.399
			c-0.143,0.266-0.214,0.754-0.214,1.466v6.282c0,0.736,0.071,1.235,0.214,1.497c0.144,0.262,0.391,0.393,0.743,0.393
			c0.352,0,0.599-0.139,0.742-0.417c0.143-0.278,0.215-0.769,0.215-1.473V169.086z"/>
		<path fill="#75B2C4" d="M39.455,167.024c0.327-0.482,0.66-0.838,1-1.067c0.339-0.229,0.709-0.343,1.11-0.343
			c0.711,0,1.21,0.227,1.497,0.681c0.286,0.454,0.429,1.29,0.429,2.509v9.73h-2.184v-9.398c0-0.663-0.065-1.125-0.196-1.387
			s-0.348-0.393-0.65-0.393c-0.319,0-0.546,0.137-0.681,0.41c-0.136,0.274-0.203,0.73-0.203,1.369v9.398h-2.208v-9.398
			c0-0.68-0.063-1.146-0.19-1.399c-0.127-0.253-0.342-0.38-0.645-0.38c-0.318,0-0.55,0.139-0.693,0.417
			c-0.143,0.278-0.215,0.732-0.215,1.362v9.398h-2.184v-12.613h2.11l0.099,1.006c0.277-0.45,0.584-0.781,0.92-0.994
			c0.335-0.213,0.724-0.318,1.166-0.318c0.433,0,0.812,0.133,1.135,0.398S39.389,166.616,39.455,167.024z"/>
		<path fill="#75B2C4" d="M52.117,168.755v6.945c0,1.12-0.165,1.924-0.496,2.41c-0.332,0.487-0.878,0.73-1.639,0.73
			c-0.393,0-0.763-0.114-1.11-0.344c-0.348-0.229-0.648-0.56-0.901-0.993v5.804h-2.209v-17.387h2.11l0.099,1.006
			c0.253-0.426,0.554-0.75,0.901-0.976c0.348-0.225,0.726-0.337,1.135-0.337c0.744,0,1.282,0.243,1.614,0.729
			C51.952,166.831,52.117,167.634,52.117,168.755z M49.86,169.136c0-0.68-0.07-1.146-0.209-1.399c-0.14-0.253-0.381-0.38-0.724-0.38
			c-0.344,0-0.589,0.133-0.736,0.398s-0.221,0.727-0.221,1.381v6.159c0,0.654,0.073,1.118,0.221,1.393s0.393,0.411,0.736,0.411
			c0.343,0,0.584-0.131,0.724-0.393c0.139-0.262,0.209-0.732,0.209-1.411V169.136z"/>
		<path fill="#75B2C4" d="M60.683,169.945v4.564c0,1.652-0.239,2.787-0.718,3.405c-0.479,0.617-1.328,0.926-2.547,0.926
			c-1.178,0-2.004-0.311-2.479-0.933c-0.475-0.621-0.711-1.755-0.711-3.398v-4.564c0-1.661,0.239-2.798,0.718-3.411
			s1.327-0.92,2.546-0.92c1.17,0,1.994,0.314,2.473,0.944S60.683,168.317,60.683,169.945z M58.425,169.086
			c0-0.712-0.072-1.2-0.215-1.466c-0.144-0.266-0.391-0.399-0.742-0.399c-0.353,0-0.6,0.134-0.743,0.399
			c-0.143,0.266-0.214,0.754-0.214,1.466v6.282c0,0.736,0.071,1.235,0.214,1.497c0.144,0.262,0.391,0.393,0.743,0.393
			c0.352,0,0.599-0.139,0.742-0.417c0.143-0.278,0.215-0.769,0.215-1.473V169.086z"/>
		<path fill="#75B2C4" d="M69.222,168.804v9.73h-2.232v-9.398c0-0.68-0.072-1.146-0.215-1.399c-0.144-0.253-0.391-0.38-0.742-0.38
			c-0.344,0-0.589,0.133-0.736,0.398s-0.221,0.727-0.221,1.381v9.398h-2.209v-12.613h2.11l0.099,1.006
			c0.27-0.434,0.584-0.761,0.944-0.981c0.36-0.222,0.749-0.331,1.166-0.331c0.752,0,1.28,0.23,1.583,0.692
			C69.07,166.77,69.222,167.602,69.222,168.804z"/>
		<path fill="#75B2C4" d="M77.86,169.945v2.933h-4.172v2.49c0,0.736,0.073,1.235,0.221,1.497s0.4,0.393,0.761,0.393
			c0.352,0,0.599-0.139,0.742-0.417c0.143-0.278,0.215-0.769,0.215-1.473v-1.079h2.233v0.821c0,1.293-0.256,2.233-0.768,2.822
			c-0.511,0.589-1.327,0.884-2.447,0.884c-1.211,0-2.054-0.305-2.528-0.914s-0.711-1.74-0.711-3.393v-4.564
			c0-1.661,0.239-2.798,0.718-3.411s1.327-0.92,2.546-0.92c1.186,0,2.014,0.311,2.484,0.932
			C77.625,167.168,77.86,168.301,77.86,169.945z M75.627,169.062c0-0.728-0.072-1.229-0.215-1.503
			c-0.144-0.274-0.391-0.411-0.742-0.411c-0.36,0-0.613,0.135-0.761,0.405c-0.147,0.27-0.221,0.772-0.221,1.509v2.282h1.938V169.062
			z"/>
		<path fill="#75B2C4" d="M86.399,168.804v9.73h-2.232v-9.398c0-0.68-0.072-1.146-0.215-1.399c-0.144-0.253-0.391-0.38-0.742-0.38
			c-0.344,0-0.589,0.133-0.736,0.398s-0.221,0.727-0.221,1.381v9.398h-2.209v-12.613h2.11l0.099,1.006
			c0.27-0.434,0.584-0.761,0.944-0.981c0.36-0.222,0.749-0.331,1.166-0.331c0.752,0,1.28,0.23,1.583,0.692
			C86.248,166.77,86.399,167.602,86.399,168.804z"/>
		<path fill="#75B2C4" d="M91.075,162.583v3.338h1.301v1.582h-1.301v8.319c0,0.467,0.067,0.788,0.202,0.964
			c0.136,0.176,0.366,0.264,0.693,0.264c0.058,0,0.119-0.002,0.185-0.007c0.065-0.004,0.172-0.019,0.319-0.043v1.73
			c-0.033,0.008-0.086,0.017-0.16,0.024c-0.523,0.058-0.888,0.086-1.092,0.086c-0.908,0-1.534-0.235-1.877-0.705
			c-0.344-0.471-0.516-1.385-0.516-2.742v-7.891h-0.994v-1.582h0.994v-2.467L91.075,162.583z"/>
		<path fill="#75B2C4" d="M100.266,169.945v2.933h-4.172v2.49c0,0.736,0.073,1.235,0.221,1.497s0.4,0.393,0.761,0.393
			c0.352,0,0.599-0.139,0.742-0.417c0.143-0.278,0.215-0.769,0.215-1.473v-1.079h2.233v0.821c0,1.293-0.256,2.233-0.768,2.822
			c-0.511,0.589-1.327,0.884-2.447,0.884c-1.211,0-2.054-0.305-2.528-0.914s-0.711-1.74-0.711-3.393v-4.564
			c0-1.661,0.239-2.798,0.718-3.411s1.327-0.92,2.546-0.92c1.186,0,2.014,0.311,2.484,0.932
			C100.03,167.168,100.266,168.301,100.266,169.945z M98.032,169.062c0-0.728-0.072-1.229-0.215-1.503
			c-0.144-0.274-0.391-0.411-0.742-0.411c-0.36,0-0.613,0.135-0.761,0.405c-0.147,0.27-0.221,0.772-0.221,1.509v2.282h1.938V169.062
			z"/>
		<path fill="#75B2C4" d="M108.105,168.964v0.601h-2.135v-0.65c0-0.72-0.056-1.186-0.166-1.398s-0.316-0.319-0.619-0.319
			c-0.278,0-0.477,0.101-0.596,0.301c-0.118,0.201-0.178,0.529-0.178,0.988v0.479c0,0.204,0.074,0.434,0.221,0.687
			c0.147,0.254,0.385,0.561,0.712,0.921l1.804,1.901c0.393,0.426,0.679,0.818,0.859,1.178c0.18,0.36,0.27,0.725,0.27,1.093v1.006
			c0,1.039-0.254,1.813-0.761,2.325c-0.507,0.511-1.284,0.767-2.331,0.767c-1.097,0-1.863-0.241-2.301-0.724
			s-0.656-1.35-0.656-2.602v-0.147v-0.858h2.062v1.006c0,0.688,0.057,1.149,0.172,1.387c0.114,0.237,0.322,0.355,0.625,0.355
			c0.36,0,0.614-0.11,0.761-0.331c0.147-0.221,0.222-0.597,0.222-1.129v-0.479c0-0.295-0.074-0.591-0.222-0.89
			c-0.146-0.298-0.376-0.607-0.687-0.927l-1.755-1.828c-0.491-0.531-0.81-0.963-0.957-1.294s-0.221-0.706-0.221-1.123v-0.724
			c0-0.957,0.253-1.684,0.761-2.178c0.507-0.495,1.256-0.742,2.245-0.742c1.031,0,1.767,0.257,2.209,0.772
			C107.885,166.902,108.105,167.761,108.105,168.964z"/>
		<path fill="#75B2C4" d="M118.707,160.436h2.233v18.099h-2.11l-0.123-1.03c-0.253,0.434-0.554,0.765-0.901,0.993
			c-0.348,0.229-0.727,0.344-1.135,0.344c-0.736,0-1.269-0.243-1.596-0.73c-0.327-0.486-0.49-1.29-0.49-2.41v-6.945
			c0-1.137,0.163-1.945,0.49-2.424s0.867-0.717,1.62-0.717c0.4,0,0.772,0.112,1.116,0.337c0.344,0.226,0.643,0.55,0.896,0.976
			V160.436z M118.707,169.136c0-0.663-0.069-1.125-0.208-1.387c-0.14-0.262-0.381-0.393-0.725-0.393
			c-0.352,0-0.599,0.129-0.742,0.386c-0.143,0.258-0.215,0.723-0.215,1.394v6.159c0,0.687,0.07,1.159,0.209,1.417
			s0.381,0.387,0.724,0.387c0.344,0,0.589-0.137,0.736-0.411s0.221-0.738,0.221-1.393V169.136z"/>
		<path fill="#75B2C4" d="M129.555,169.945v2.933h-4.172v2.49c0,0.736,0.073,1.235,0.221,1.497s0.4,0.393,0.761,0.393
			c0.352,0,0.599-0.139,0.742-0.417c0.143-0.278,0.215-0.769,0.215-1.473v-1.079h2.233v0.821c0,1.293-0.256,2.233-0.768,2.822
			c-0.511,0.589-1.327,0.884-2.447,0.884c-1.211,0-2.054-0.305-2.528-0.914s-0.711-1.74-0.711-3.393v-4.564
			c0-1.661,0.239-2.798,0.718-3.411s1.327-0.92,2.546-0.92c1.186,0,2.014,0.311,2.484,0.932
			C129.319,167.168,129.555,168.301,129.555,169.945z M127.321,169.062c0-0.728-0.072-1.229-0.215-1.503
			c-0.144-0.274-0.391-0.411-0.742-0.411c-0.36,0-0.613,0.135-0.761,0.405c-0.147,0.27-0.221,0.772-0.221,1.509v2.282h1.938V169.062
			z"/>
		<path fill="#75B2C4" d="M136.155,160.436h2.209v18.099h-2.209V160.436z"/>
		<path fill="#75B2C4" d="M147.015,169.945v4.564c0,1.652-0.239,2.787-0.718,3.405c-0.479,0.617-1.328,0.926-2.547,0.926
			c-1.178,0-2.004-0.311-2.479-0.933c-0.475-0.621-0.711-1.755-0.711-3.398v-4.564c0-1.661,0.239-2.798,0.718-3.411
			s1.327-0.92,2.546-0.92c1.17,0,1.994,0.314,2.473,0.944S147.015,168.317,147.015,169.945z M144.757,169.086
			c0-0.712-0.072-1.2-0.215-1.466c-0.144-0.266-0.391-0.399-0.742-0.399c-0.353,0-0.6,0.134-0.743,0.399
			c-0.143,0.266-0.214,0.754-0.214,1.466v6.282c0,0.736,0.071,1.235,0.214,1.497c0.144,0.262,0.391,0.393,0.743,0.393
			c0.352,0,0.599-0.139,0.742-0.417c0.143-0.278,0.215-0.769,0.215-1.473V169.086z"/>
		<path fill="#75B2C4" d="M154.855,168.964v0.601h-2.135v-0.65c0-0.72-0.056-1.186-0.166-1.398s-0.316-0.319-0.619-0.319
			c-0.278,0-0.477,0.101-0.596,0.301c-0.118,0.201-0.178,0.529-0.178,0.988v0.479c0,0.204,0.074,0.434,0.221,0.687
			c0.147,0.254,0.385,0.561,0.712,0.921l1.804,1.901c0.393,0.426,0.679,0.818,0.859,1.178c0.18,0.36,0.27,0.725,0.27,1.093v1.006
			c0,1.039-0.254,1.813-0.761,2.325c-0.507,0.511-1.284,0.767-2.331,0.767c-1.097,0-1.863-0.241-2.301-0.724
			s-0.656-1.35-0.656-2.602v-0.147v-0.858h2.062v1.006c0,0.688,0.057,1.149,0.172,1.387c0.114,0.237,0.322,0.355,0.625,0.355
			c0.36,0,0.614-0.11,0.761-0.331c0.147-0.221,0.222-0.597,0.222-1.129v-0.479c0-0.295-0.074-0.591-0.222-0.89
			c-0.146-0.298-0.376-0.607-0.687-0.927l-1.755-1.828c-0.491-0.531-0.81-0.963-0.957-1.294s-0.221-0.706-0.221-1.123v-0.724
			c0-0.957,0.253-1.684,0.761-2.178c0.507-0.495,1.256-0.742,2.245-0.742c1.031,0,1.767,0.257,2.209,0.772
			C154.635,166.902,154.855,167.761,154.855,168.964z"/>
		<path fill="#75B2C4" d="M26.332,189.701v6.945c0,1.12-0.165,1.925-0.496,2.411c-0.332,0.486-0.878,0.729-1.639,0.729
			c-0.393,0-0.763-0.114-1.11-0.343c-0.348-0.229-0.648-0.561-0.901-0.994v5.804h-2.209v-17.387h2.11l0.099,1.006
			c0.253-0.425,0.554-0.75,0.901-0.976c0.348-0.225,0.726-0.337,1.135-0.337c0.744,0,1.282,0.243,1.614,0.729
			C26.167,187.777,26.332,188.581,26.332,189.701z M24.075,190.082c0-0.679-0.07-1.146-0.209-1.399
			c-0.14-0.253-0.381-0.38-0.724-0.38c-0.344,0-0.589,0.133-0.736,0.398c-0.147,0.267-0.221,0.727-0.221,1.381v6.159
			c0,0.654,0.073,1.119,0.221,1.393c0.147,0.274,0.393,0.411,0.736,0.411c0.343,0,0.584-0.131,0.724-0.393
			c0.139-0.262,0.209-0.731,0.209-1.411V190.082z"/>
		<path fill="#75B2C4" d="M32.946,186.695v1.927h-0.11c-0.777,0-1.323,0.172-1.639,0.515c-0.314,0.344-0.472,0.953-0.472,1.828
			v8.516h-2.209v-12.613h2.11l0.099,1.03c0.277-0.417,0.576-0.726,0.896-0.926c0.318-0.201,0.666-0.301,1.043-0.301
			c0.032,0,0.079,0.004,0.141,0.012C32.866,186.691,32.913,186.695,32.946,186.695z"/>
		<path fill="#75B2C4" d="M33.953,181.382h2.368v2.271h-2.368V181.382z M34.026,186.867h2.209v12.613h-2.209V186.867z"/>
		<path fill="#75B2C4" d="M44.518,187.972c0.327-0.482,0.66-0.839,1-1.068c0.339-0.229,0.709-0.343,1.11-0.343
			c0.711,0,1.21,0.227,1.497,0.681c0.286,0.454,0.429,1.291,0.429,2.51v9.729H46.37v-9.398c0-0.663-0.065-1.125-0.196-1.387
			s-0.348-0.393-0.65-0.393c-0.319,0-0.546,0.137-0.681,0.411c-0.136,0.273-0.203,0.729-0.203,1.368v9.398h-2.208v-9.398
			c0-0.679-0.063-1.146-0.19-1.399c-0.127-0.253-0.342-0.38-0.645-0.38c-0.318,0-0.55,0.139-0.693,0.417
			c-0.143,0.278-0.215,0.732-0.215,1.362v9.398h-2.184v-12.613h2.11l0.099,1.006c0.277-0.45,0.584-0.781,0.92-0.994
			c0.335-0.212,0.724-0.318,1.166-0.318c0.433,0,0.812,0.133,1.135,0.398S44.451,187.562,44.518,187.972z"/>
		<path fill="#75B2C4" d="M57.204,190.892v2.933h-4.172v2.491c0,0.736,0.073,1.234,0.221,1.496c0.147,0.263,0.4,0.393,0.761,0.393
			c0.352,0,0.599-0.139,0.742-0.417c0.143-0.277,0.215-0.769,0.215-1.472v-1.08h2.233v0.822c0,1.292-0.256,2.232-0.768,2.822
			c-0.511,0.589-1.327,0.883-2.447,0.883c-1.211,0-2.054-0.305-2.528-0.914s-0.711-1.74-0.711-3.393v-4.564
			c0-1.66,0.239-2.798,0.718-3.411s1.327-0.92,2.546-0.92c1.186,0,2.014,0.311,2.484,0.933
			C56.969,188.114,57.204,189.247,57.204,190.892z M54.971,190.008c0-0.728-0.072-1.229-0.215-1.503
			c-0.144-0.273-0.391-0.411-0.742-0.411c-0.36,0-0.613,0.136-0.761,0.405s-0.221,0.773-0.221,1.509v2.282h1.938V190.008z"/>
		<path fill="#75B2C4" d="M63.818,186.695v1.927h-0.11c-0.777,0-1.323,0.172-1.639,0.515c-0.314,0.344-0.472,0.953-0.472,1.828
			v8.516h-2.209v-12.613h2.11l0.099,1.03c0.277-0.417,0.576-0.726,0.896-0.926c0.318-0.201,0.666-0.301,1.043-0.301
			c0.032,0,0.079,0.004,0.141,0.012C63.738,186.691,63.785,186.695,63.818,186.695z"/>
		<path fill="#75B2C4" d="M71.278,190.892v4.564c0,1.652-0.239,2.787-0.718,3.405c-0.479,0.617-1.328,0.926-2.547,0.926
			c-1.178,0-2.004-0.311-2.479-0.933c-0.475-0.621-0.711-1.754-0.711-3.398v-4.564c0-1.66,0.239-2.798,0.718-3.411
			s1.327-0.92,2.546-0.92c1.17,0,1.994,0.314,2.473,0.944S71.278,189.264,71.278,190.892z M69.021,190.032
			c0-0.711-0.072-1.2-0.215-1.466c-0.144-0.266-0.391-0.398-0.742-0.398c-0.353,0-0.6,0.133-0.743,0.398
			c-0.143,0.266-0.214,0.755-0.214,1.466v6.283c0,0.736,0.071,1.234,0.214,1.496c0.144,0.263,0.391,0.393,0.743,0.393
			c0.352,0,0.599-0.139,0.742-0.417c0.143-0.277,0.215-0.769,0.215-1.472V190.032z"/>
		<path fill="#75B2C4" d="M79.118,189.91v0.601h-2.135v-0.649c0-0.72-0.056-1.187-0.166-1.399s-0.316-0.318-0.619-0.318
			c-0.278,0-0.477,0.1-0.596,0.3c-0.118,0.201-0.178,0.53-0.178,0.988v0.479c0,0.204,0.074,0.434,0.221,0.687
			c0.147,0.254,0.385,0.561,0.712,0.921l1.804,1.901c0.393,0.426,0.679,0.818,0.859,1.178c0.18,0.36,0.27,0.725,0.27,1.093v1.006
			c0,1.039-0.254,1.814-0.761,2.325c-0.507,0.512-1.284,0.767-2.331,0.767c-1.097,0-1.863-0.241-2.301-0.724
			s-0.656-1.35-0.656-2.602v-0.146v-0.859h2.062v1.006c0,0.688,0.057,1.149,0.172,1.387c0.114,0.237,0.322,0.355,0.625,0.355
			c0.36,0,0.614-0.109,0.761-0.331c0.147-0.221,0.222-0.597,0.222-1.129v-0.479c0-0.294-0.074-0.591-0.222-0.89
			c-0.146-0.298-0.376-0.607-0.687-0.926l-1.755-1.828c-0.491-0.532-0.81-0.964-0.957-1.295s-0.221-0.705-0.221-1.123v-0.724
			c0-0.957,0.253-1.683,0.761-2.178c0.507-0.495,1.256-0.742,2.245-0.742c1.031,0,1.767,0.257,2.209,0.772
			C78.897,187.849,79.118,188.708,79.118,189.91z"/>
		<path fill="#75B2C4" d="M91.855,189.959v9.521h-2.11l-0.123-1.03c-0.262,0.441-0.566,0.775-0.914,1s-0.73,0.337-1.147,0.337
			c-0.753,0-1.297-0.247-1.632-0.742c-0.336-0.495-0.503-1.294-0.503-2.398v-2.172c0-1.015,0.314-1.749,0.944-2.202
			c0.63-0.454,1.714-0.714,3.252-0.779v-1.461c0-0.752-0.069-1.255-0.209-1.509c-0.139-0.253-0.389-0.38-0.748-0.38
			c-0.327,0-0.564,0.124-0.712,0.374c-0.147,0.249-0.221,0.652-0.221,1.208v0.528h-2.062v-0.295c0-1.268,0.233-2.151,0.699-2.65
			c0.467-0.499,1.28-0.748,2.442-0.748c1.104,0,1.887,0.253,2.35,0.761C91.624,187.828,91.855,188.708,91.855,189.959z
			 M89.609,193.051c-0.752,0.041-1.262,0.181-1.527,0.418s-0.398,0.658-0.398,1.264v1.607c0,0.679,0.075,1.155,0.227,1.429
			c0.151,0.274,0.403,0.411,0.755,0.411c0.344,0,0.589-0.135,0.736-0.404c0.147-0.271,0.221-0.749,0.221-1.436L89.609,193.051z"/>
		<path fill="#75B2C4" d="M94.088,186.867h2.233v9.374c0,0.688,0.071,1.16,0.214,1.417c0.144,0.258,0.391,0.387,0.743,0.387
			c0.343,0,0.589-0.137,0.736-0.411c0.146-0.273,0.221-0.738,0.221-1.393v-9.374h2.232v12.613h-2.135l-0.098-1.03
			c-0.271,0.434-0.583,0.761-0.939,0.981c-0.355,0.221-0.746,0.331-1.171,0.331c-0.745,0-1.271-0.229-1.577-0.687
			s-0.46-1.289-0.46-2.491V186.867z"/>
		<path fill="#75B2C4" d="M102.125,186.867h2.233l1.006,4.319l1.031-4.319h2.037l-1.89,6.024l1.963,6.589h-2.258l-1.202-4.896
			l-1.264,4.896h-1.988l2.086-6.589L102.125,186.867z"/>
		<path fill="#75B2C4" d="M109.868,181.382h2.368v2.271h-2.368V181.382z M109.941,186.867h2.209v12.613h-2.209V186.867z"/>
		<path fill="#75B2C4" d="M114.42,181.382h2.209v18.099h-2.209V181.382z"/>
		<path fill="#75B2C4" d="M118.825,181.382h2.368v2.271h-2.368V181.382z M118.898,186.867h2.209v12.613h-2.209V186.867z"/>
		<path fill="#75B2C4" d="M129.758,190.892v4.564c0,1.652-0.239,2.787-0.718,3.405c-0.479,0.617-1.328,0.926-2.547,0.926
			c-1.178,0-2.004-0.311-2.479-0.933c-0.475-0.621-0.711-1.754-0.711-3.398v-4.564c0-1.66,0.239-2.798,0.718-3.411
			s1.327-0.92,2.546-0.92c1.17,0,1.994,0.314,2.473,0.944S129.758,189.264,129.758,190.892z M127.5,190.032
			c0-0.711-0.072-1.2-0.215-1.466c-0.144-0.266-0.391-0.398-0.742-0.398c-0.353,0-0.6,0.133-0.743,0.398
			c-0.143,0.266-0.214,0.755-0.214,1.466v6.283c0,0.736,0.071,1.234,0.214,1.496c0.144,0.263,0.391,0.393,0.743,0.393
			c0.352,0,0.599-0.139,0.742-0.417c0.143-0.277,0.215-0.769,0.215-1.472V190.032z"/>
		<path fill="#75B2C4" d="M137.598,189.91v0.601h-2.135v-0.649c0-0.72-0.056-1.187-0.166-1.399s-0.316-0.318-0.619-0.318
			c-0.278,0-0.477,0.1-0.596,0.3c-0.118,0.201-0.178,0.53-0.178,0.988v0.479c0,0.204,0.074,0.434,0.221,0.687
			c0.147,0.254,0.385,0.561,0.712,0.921l1.804,1.901c0.393,0.426,0.679,0.818,0.859,1.178c0.18,0.36,0.27,0.725,0.27,1.093v1.006
			c0,1.039-0.254,1.814-0.761,2.325c-0.507,0.512-1.284,0.767-2.331,0.767c-1.097,0-1.863-0.241-2.301-0.724
			s-0.656-1.35-0.656-2.602v-0.146v-0.859h2.062v1.006c0,0.688,0.057,1.149,0.172,1.387c0.114,0.237,0.322,0.355,0.625,0.355
			c0.36,0,0.614-0.109,0.761-0.331c0.147-0.221,0.222-0.597,0.222-1.129v-0.479c0-0.294-0.074-0.591-0.222-0.89
			c-0.146-0.298-0.376-0.607-0.687-0.926l-1.755-1.828c-0.491-0.532-0.81-0.964-0.957-1.295s-0.221-0.705-0.221-1.123v-0.724
			c0-0.957,0.253-1.683,0.761-2.178c0.507-0.495,1.256-0.742,2.245-0.742c1.031,0,1.767,0.257,2.209,0.772
			C137.377,187.849,137.598,188.708,137.598,189.91z"/>
		<path fill="#75B2C4" d="M42.289,210.647v6.945c0,1.121-0.165,1.925-0.496,2.411c-0.332,0.486-0.878,0.729-1.639,0.729
			c-0.393,0-0.763-0.114-1.11-0.343c-0.348-0.229-0.648-0.561-0.901-0.994v5.804h-2.209v-17.387h2.11l0.099,1.006
			c0.253-0.425,0.554-0.75,0.901-0.976c0.348-0.225,0.726-0.337,1.135-0.337c0.744,0,1.282,0.243,1.614,0.729
			C42.124,208.724,42.289,209.527,42.289,210.647z M40.032,211.028c0-0.679-0.07-1.146-0.209-1.398
			c-0.14-0.254-0.381-0.381-0.724-0.381c-0.344,0-0.589,0.133-0.736,0.398c-0.147,0.267-0.221,0.727-0.221,1.381v6.159
			c0,0.655,0.073,1.119,0.221,1.393c0.147,0.274,0.393,0.411,0.736,0.411c0.343,0,0.584-0.131,0.724-0.393
			c0.139-0.262,0.209-0.731,0.209-1.411V211.028z"/>
		<path fill="#75B2C4" d="M50.13,210.856v0.602h-2.135v-0.65c0-0.72-0.056-1.187-0.166-1.399c-0.11-0.212-0.316-0.318-0.619-0.318
			c-0.278,0-0.477,0.1-0.596,0.3c-0.118,0.201-0.178,0.53-0.178,0.988v0.479c0,0.204,0.074,0.434,0.221,0.688
			c0.147,0.253,0.385,0.56,0.712,0.92l1.804,1.902c0.393,0.425,0.679,0.817,0.859,1.178c0.18,0.359,0.27,0.724,0.27,1.092v1.006
			c0,1.039-0.254,1.814-0.761,2.325c-0.507,0.512-1.284,0.767-2.331,0.767c-1.097,0-1.863-0.241-2.301-0.724
			s-0.656-1.35-0.656-2.601v-0.147v-0.859h2.062v1.007c0,0.687,0.057,1.148,0.172,1.386c0.114,0.237,0.322,0.356,0.625,0.356
			c0.36,0,0.614-0.11,0.761-0.332c0.147-0.221,0.222-0.597,0.222-1.129v-0.479c0-0.294-0.074-0.591-0.222-0.889
			c-0.146-0.299-0.376-0.607-0.687-0.927l-1.755-1.828c-0.491-0.532-0.81-0.964-0.957-1.295s-0.221-0.705-0.221-1.122v-0.725
			c0-0.957,0.253-1.683,0.761-2.178c0.507-0.495,1.256-0.742,2.245-0.742c1.031,0,1.767,0.258,2.209,0.772
			C49.909,208.795,50.13,209.654,50.13,210.856z"/>
		<path fill="#75B2C4" d="M52.167,202.329h2.368v2.27h-2.368V202.329z M52.24,207.813h2.209v12.613H52.24V207.813z"/>
		<path fill="#75B2C4" d="M62.829,211.225v0.736h-2.233v-1.031c0-0.703-0.065-1.182-0.196-1.436c-0.131-0.253-0.359-0.38-0.687-0.38
			c-0.287,0-0.489,0.131-0.607,0.393c-0.119,0.262-0.178,0.753-0.178,1.473v6.282c0,0.736,0.062,1.235,0.189,1.497
			s0.342,0.393,0.645,0.393c0.295,0,0.503-0.127,0.626-0.381c0.122-0.253,0.184-0.756,0.184-1.509v-1.228h2.258v0.97
			c0,1.26-0.254,2.192-0.761,2.798s-1.284,0.907-2.331,0.907c-1.153,0-1.957-0.305-2.411-0.914s-0.681-1.74-0.681-3.393v-4.564
			c0-1.652,0.23-2.787,0.692-3.405c0.463-0.617,1.271-0.926,2.424-0.926c1.047,0,1.82,0.303,2.319,0.908
			S62.829,209.957,62.829,211.225z"/>
		<path fill="#75B2C4" d="M71.137,211.838v4.564c0,1.652-0.239,2.788-0.718,3.405s-1.328,0.926-2.547,0.926
			c-1.178,0-2.004-0.311-2.479-0.932c-0.475-0.622-0.711-1.755-0.711-3.399v-4.564c0-1.66,0.239-2.798,0.718-3.411
			s1.327-0.92,2.546-0.92c1.17,0,1.994,0.314,2.473,0.944S71.137,210.21,71.137,211.838z M68.879,210.979
			c0-0.712-0.072-1.201-0.215-1.467c-0.144-0.266-0.391-0.398-0.742-0.398c-0.353,0-0.6,0.133-0.743,0.398
			c-0.143,0.266-0.214,0.755-0.214,1.467v6.282c0,0.736,0.071,1.235,0.214,1.497c0.144,0.262,0.391,0.393,0.743,0.393
			c0.352,0,0.599-0.14,0.742-0.418c0.143-0.277,0.215-0.769,0.215-1.472V210.979z"/>
		<path fill="#75B2C4" d="M73.32,202.329h2.209v18.098H73.32V202.329z"/>
		<path fill="#75B2C4" d="M84.18,211.838v4.564c0,1.652-0.239,2.788-0.718,3.405s-1.328,0.926-2.547,0.926
			c-1.178,0-2.004-0.311-2.479-0.932c-0.475-0.622-0.711-1.755-0.711-3.399v-4.564c0-1.66,0.239-2.798,0.718-3.411
			s1.327-0.92,2.546-0.92c1.17,0,1.994,0.314,2.473,0.944S84.18,210.21,84.18,211.838z M81.922,210.979
			c0-0.712-0.072-1.201-0.215-1.467c-0.144-0.266-0.391-0.398-0.742-0.398c-0.353,0-0.6,0.133-0.743,0.398
			c-0.143,0.266-0.214,0.755-0.214,1.467v6.282c0,0.736,0.071,1.235,0.214,1.497c0.144,0.262,0.391,0.393,0.743,0.393
			c0.352,0,0.599-0.14,0.742-0.418c0.143-0.277,0.215-0.769,0.215-1.472V210.979z M81.186,203.212h2.086l-1.706,2.945H80.13
			L81.186,203.212z"/>
		<path fill="#75B2C4" d="M90.438,208.819l0.123-1.006h2.11v13.792c0,1.406-0.237,2.386-0.712,2.938
			c-0.474,0.552-1.3,0.828-2.479,0.828c-1.104,0-1.907-0.262-2.411-0.785c-0.503-0.523-0.754-1.358-0.754-2.503v-0.528h2.258v0.504
			c0,0.621,0.067,1.061,0.202,1.318s0.354,0.387,0.656,0.387c0.368,0,0.628-0.137,0.779-0.411s0.227-0.755,0.227-1.441v-3.067
			c-0.245,0.434-0.539,0.759-0.883,0.975c-0.344,0.217-0.729,0.325-1.153,0.325c-0.745,0-1.278-0.237-1.602-0.711
			c-0.323-0.475-0.484-1.272-0.484-2.394v-6.417c0-1.12,0.163-1.92,0.49-2.398s0.867-0.718,1.62-0.718
			c0.4,0,0.772,0.112,1.116,0.337C89.886,208.069,90.185,208.395,90.438,208.819z M90.438,211.028c0-0.671-0.071-1.139-0.214-1.405
			c-0.144-0.266-0.383-0.398-0.719-0.398c-0.343,0-0.589,0.133-0.735,0.398c-0.147,0.267-0.222,0.734-0.222,1.405v5.607
			c0,0.688,0.07,1.159,0.209,1.417s0.381,0.387,0.724,0.387c0.344,0,0.589-0.137,0.736-0.411c0.147-0.273,0.221-0.738,0.221-1.393
			V211.028z"/>
		<path fill="#75B2C4" d="M94.831,202.329h2.368v2.27h-2.368V202.329z M94.904,207.813h2.209v12.613h-2.209V207.813z"/>
		<path fill="#75B2C4" d="M105.493,211.225v0.736h-2.233v-1.031c0-0.703-0.065-1.182-0.196-1.436
			c-0.131-0.253-0.359-0.38-0.687-0.38c-0.287,0-0.489,0.131-0.607,0.393c-0.119,0.262-0.178,0.753-0.178,1.473v6.282
			c0,0.736,0.062,1.235,0.189,1.497s0.342,0.393,0.645,0.393c0.295,0,0.503-0.127,0.626-0.381c0.122-0.253,0.184-0.756,0.184-1.509
			v-1.228h2.258v0.97c0,1.26-0.254,2.192-0.761,2.798s-1.284,0.907-2.331,0.907c-1.153,0-1.957-0.305-2.411-0.914
			s-0.681-1.74-0.681-3.393v-4.564c0-1.652,0.23-2.787,0.692-3.405c0.463-0.617,1.271-0.926,2.424-0.926
			c1.047,0,1.82,0.303,2.319,0.908S105.493,209.957,105.493,211.225z"/>
		<path fill="#75B2C4" d="M113.8,211.838v4.564c0,1.652-0.239,2.788-0.718,3.405s-1.328,0.926-2.547,0.926
			c-1.178,0-2.004-0.311-2.479-0.932c-0.475-0.622-0.711-1.755-0.711-3.399v-4.564c0-1.66,0.239-2.798,0.718-3.411
			s1.327-0.92,2.546-0.92c1.17,0,1.994,0.314,2.473,0.944S113.8,210.21,113.8,211.838z M111.542,210.979
			c0-0.712-0.072-1.201-0.215-1.467c-0.144-0.266-0.391-0.398-0.742-0.398c-0.353,0-0.6,0.133-0.743,0.398
			c-0.143,0.266-0.214,0.755-0.214,1.467v6.282c0,0.736,0.071,1.235,0.214,1.497c0.144,0.262,0.391,0.393,0.743,0.393
			c0.352,0,0.599-0.14,0.742-0.418c0.143-0.277,0.215-0.769,0.215-1.472V210.979z"/>
		<path fill="#75B2C4" d="M121.641,210.856v0.602h-2.135v-0.65c0-0.72-0.056-1.187-0.166-1.399c-0.11-0.212-0.316-0.318-0.619-0.318
			c-0.278,0-0.477,0.1-0.596,0.3c-0.118,0.201-0.178,0.53-0.178,0.988v0.479c0,0.204,0.074,0.434,0.221,0.688
			c0.147,0.253,0.385,0.56,0.712,0.92l1.804,1.902c0.393,0.425,0.679,0.817,0.859,1.178c0.18,0.359,0.27,0.724,0.27,1.092v1.006
			c0,1.039-0.254,1.814-0.761,2.325c-0.507,0.512-1.284,0.767-2.331,0.767c-1.097,0-1.863-0.241-2.301-0.724
			s-0.656-1.35-0.656-2.601v-0.147v-0.859h2.062v1.007c0,0.687,0.057,1.148,0.172,1.386c0.114,0.237,0.322,0.356,0.625,0.356
			c0.36,0,0.614-0.11,0.761-0.332c0.147-0.221,0.222-0.597,0.222-1.129v-0.479c0-0.294-0.074-0.591-0.222-0.889
			c-0.146-0.299-0.376-0.607-0.687-0.927l-1.755-1.828c-0.491-0.532-0.81-0.964-0.957-1.295s-0.221-0.705-0.221-1.122v-0.725
			c0-0.957,0.253-1.683,0.761-2.178c0.507-0.495,1.256-0.742,2.245-0.742c1.031,0,1.767,0.258,2.209,0.772
			C121.42,208.795,121.641,209.654,121.641,210.856z"/>
		<path fill="#75B2C4" d="M31.185,223.005h1.485c-0.589,2.095-1.024,4.039-1.307,5.835s-0.424,3.495-0.424,5.099
			c0,1.603,0.142,3.3,0.424,5.092c0.282,1.791,0.718,3.738,1.307,5.84h-1.485c-0.769-1.995-1.346-3.899-1.729-5.711
			c-0.385-1.812-0.577-3.553-0.577-5.221c0-1.669,0.192-3.412,0.577-5.228C29.839,226.895,30.416,224.993,31.185,223.005z"/>
		<path fill="#75B2C4" d="M40.939,226.552v1.582h-2.344v-1.742c0-0.589-0.067-1-0.202-1.232c-0.136-0.233-0.37-0.351-0.706-0.351
			c-0.368,0-0.628,0.132-0.779,0.393c-0.151,0.263-0.227,0.77-0.227,1.522v0.883c0,0.646,0.319,1.411,0.957,2.295v0.012l2.221,3.166
			c0.458,0.662,0.765,1.229,0.92,1.699s0.233,1,0.233,1.589v1.19c0,1.383-0.297,2.415-0.89,3.099
			c-0.593,0.683-1.486,1.024-2.681,1.024c-1.202,0-2.052-0.271-2.546-0.811c-0.495-0.539-0.742-1.484-0.742-2.834v-1.791h2.38v1.84
			c0,0.646,0.075,1.097,0.228,1.35c0.15,0.254,0.41,0.381,0.778,0.381c0.409,0,0.691-0.142,0.847-0.424
			c0.155-0.281,0.233-0.844,0.233-1.687v-1.056c0-0.679-0.307-1.473-0.92-2.38l-0.062-0.086l-2.331-3.387
			c-0.336-0.475-0.579-0.927-0.73-1.356c-0.151-0.429-0.227-0.864-0.227-1.307v-1.264c0-1.275,0.292-2.239,0.877-2.89
			s1.458-0.976,2.619-0.976c1.088,0,1.876,0.274,2.362,0.822C40.695,224.376,40.939,225.283,40.939,226.552z"/>
		<path fill="#75B2C4" d="M42.964,223.275h2.209v18.099h-2.209V223.275z"/>
		<path fill="#75B2C4" d="M53.652,231.853v9.521h-2.11l-0.123-1.031c-0.262,0.441-0.566,0.775-0.914,1s-0.73,0.338-1.147,0.338
			c-0.753,0-1.297-0.248-1.632-0.742c-0.336-0.495-0.503-1.295-0.503-2.399v-2.172c0-1.014,0.314-1.748,0.944-2.202
			s1.714-0.714,3.252-0.779v-1.46c0-0.753-0.069-1.256-0.209-1.51c-0.139-0.253-0.389-0.38-0.748-0.38
			c-0.327,0-0.564,0.125-0.712,0.374c-0.147,0.25-0.221,0.652-0.221,1.209v0.527h-2.062v-0.294c0-1.269,0.233-2.152,0.699-2.65
			c0.467-0.499,1.28-0.749,2.442-0.749c1.104,0,1.887,0.254,2.35,0.761C53.421,229.722,53.652,230.601,53.652,231.853z
			 M51.406,234.944c-0.752,0.041-1.262,0.18-1.527,0.417s-0.398,0.658-0.398,1.264v1.607c0,0.679,0.075,1.155,0.227,1.43
			s0.403,0.411,0.755,0.411c0.344,0,0.589-0.135,0.736-0.405c0.147-0.27,0.221-0.748,0.221-1.436L51.406,234.944z"/>
		<path fill="#75B2C4" d="M55.836,223.275h2.368v2.27h-2.368V223.275z M55.909,228.76h2.209v12.614h-2.209V228.76z"/>
		<path fill="#75B2C4" d="M60.388,223.275h2.184v10.834l2.246-5.35h2.024l-2.307,5.448l2.54,7.166h-2.185l-2.319-6.786v6.786h-2.184
			V223.275z"/>
		<path fill="#75B2C4" d="M74.561,232.784v2.933h-4.172v2.491c0,0.736,0.073,1.235,0.221,1.497s0.4,0.393,0.761,0.393
			c0.352,0,0.599-0.139,0.742-0.417c0.143-0.278,0.215-0.77,0.215-1.473v-1.08h2.233v0.822c0,1.293-0.256,2.233-0.768,2.822
			c-0.511,0.589-1.327,0.884-2.447,0.884c-1.211,0-2.054-0.305-2.528-0.915c-0.475-0.608-0.711-1.74-0.711-3.393v-4.564
			c0-1.66,0.239-2.797,0.718-3.411c0.479-0.613,1.327-0.92,2.546-0.92c1.186,0,2.014,0.312,2.484,0.933
			C74.325,230.008,74.561,231.141,74.561,232.784z M72.327,231.901c0-0.729-0.072-1.229-0.215-1.504
			c-0.144-0.273-0.391-0.41-0.742-0.41c-0.36,0-0.613,0.135-0.761,0.404c-0.147,0.271-0.221,0.773-0.221,1.51v2.282h1.938V231.901z"
			/>
		<path fill="#75B2C4" d="M76.72,228.76h2.233v9.374c0,0.688,0.071,1.16,0.214,1.418c0.144,0.258,0.391,0.387,0.743,0.387
			c0.343,0,0.589-0.138,0.736-0.411c0.146-0.274,0.221-0.738,0.221-1.394v-9.374H83.1v12.614h-2.135l-0.098-1.031
			c-0.271,0.434-0.583,0.761-0.939,0.981c-0.355,0.222-0.746,0.332-1.171,0.332c-0.745,0-1.271-0.229-1.577-0.688
			s-0.46-1.288-0.46-2.491V228.76z"/>
		<path fill="#75B2C4" d="M85.431,238.907h2.319l-1.411,4.553h-1.681L85.431,238.907z"/>
		<path fill="#75B2C4" d="M96.609,223.864h2.037v17.51H96.45v-14.676c-0.262,0.254-0.548,0.477-0.859,0.669
			c-0.311,0.192-0.65,0.362-1.019,0.509v-2.208c0.418-0.213,0.796-0.471,1.136-0.773C96.047,224.593,96.348,224.249,96.609,223.864z
			"/>
		<path fill="#75B2C4" d="M109.555,228.061v9.142c0,1.701-0.237,2.873-0.712,3.515c-0.475,0.643-1.313,0.964-2.516,0.964
			c-1.129,0-1.938-0.307-2.43-0.921c-0.49-0.613-0.736-1.647-0.736-3.104v-0.932h2.271v1.079c0,0.892,0.067,1.497,0.202,1.816
			s0.374,0.479,0.718,0.479c0.352,0,0.596-0.155,0.73-0.466c0.135-0.312,0.202-0.921,0.202-1.829v-3.815
			c-0.245,0.278-0.518,0.48-0.815,0.607c-0.299,0.127-0.637,0.189-1.013,0.189c-0.851,0-1.462-0.273-1.834-0.821
			c-0.373-0.548-0.559-1.461-0.559-2.736v-3.166c0-1.718,0.241-2.894,0.724-3.527s1.338-0.951,2.564-0.951
			c1.187,0,2.017,0.321,2.491,0.963C109.317,225.188,109.555,226.359,109.555,228.061z M107.284,227.447
			c0-0.867-0.071-1.464-0.215-1.792c-0.143-0.327-0.391-0.49-0.742-0.49c-0.36,0-0.611,0.161-0.755,0.484
			c-0.143,0.323-0.214,0.922-0.214,1.798v3.374c0,0.867,0.071,1.465,0.214,1.791c0.144,0.328,0.387,0.491,0.73,0.491
			c0.368,0,0.624-0.161,0.767-0.484c0.144-0.323,0.215-0.923,0.215-1.798V227.447z"/>
		<path fill="#75B2C4" d="M118.426,228.061v9.142c0,1.701-0.237,2.873-0.712,3.515c-0.475,0.643-1.313,0.964-2.516,0.964
			c-1.129,0-1.938-0.307-2.43-0.921c-0.49-0.613-0.736-1.647-0.736-3.104v-0.932h2.271v1.079c0,0.892,0.067,1.497,0.202,1.816
			s0.374,0.479,0.718,0.479c0.352,0,0.596-0.155,0.73-0.466c0.135-0.312,0.202-0.921,0.202-1.829v-3.815
			c-0.245,0.278-0.518,0.48-0.815,0.607c-0.299,0.127-0.637,0.189-1.013,0.189c-0.851,0-1.462-0.273-1.834-0.821
			c-0.373-0.548-0.559-1.461-0.559-2.736v-3.166c0-1.718,0.241-2.894,0.724-3.527s1.338-0.951,2.564-0.951
			c1.187,0,2.017,0.321,2.491,0.963C118.188,225.188,118.426,226.359,118.426,228.061z M116.155,227.447
			c0-0.867-0.071-1.464-0.215-1.792c-0.143-0.327-0.391-0.49-0.742-0.49c-0.36,0-0.611,0.161-0.755,0.484
			c-0.143,0.323-0.214,0.922-0.214,1.798v3.374c0,0.867,0.071,1.465,0.214,1.791c0.144,0.328,0.387,0.491,0.73,0.491
			c0.368,0,0.624-0.161,0.767-0.484c0.144-0.323,0.215-0.923,0.215-1.798V227.447z"/>
		<path fill="#75B2C4" d="M127.321,227.582v0.847h-2.271v-1.006c0-0.884-0.067-1.48-0.202-1.792
			c-0.135-0.311-0.379-0.466-0.73-0.466c-0.343,0-0.582,0.151-0.718,0.454c-0.135,0.303-0.202,0.903-0.202,1.804v3.853
			c0.237-0.271,0.505-0.473,0.804-0.607s0.615-0.202,0.951-0.202c0.892,0,1.525,0.268,1.901,0.804
			c0.376,0.535,0.564,1.449,0.564,2.742v3.165c0,1.734-0.239,2.919-0.718,3.553s-1.327,0.951-2.546,0.951
			c-1.187,0-2.021-0.327-2.503-0.981c-0.482-0.655-0.724-1.829-0.724-3.522v-9.116c0-1.718,0.239-2.894,0.718-3.527
			s1.314-0.951,2.509-0.951c1.129,0,1.938,0.307,2.43,0.92C127.075,225.116,127.321,226.143,127.321,227.582z M125.125,234.417
			c0-0.867-0.072-1.463-0.215-1.786c-0.144-0.323-0.387-0.484-0.73-0.484c-0.368,0-0.624,0.157-0.767,0.473
			c-0.144,0.314-0.215,0.914-0.215,1.798v3.386c0,0.867,0.069,1.463,0.209,1.786c0.139,0.322,0.388,0.484,0.748,0.484
			c0.352,0,0.602-0.166,0.749-0.497c0.146-0.331,0.221-0.922,0.221-1.773V234.417z"/>
		<path fill="#75B2C4" d="M129.175,223.005h1.484c0.785,2.029,1.37,3.949,1.755,5.762c0.384,1.812,0.576,3.535,0.576,5.172
			c0,1.636-0.192,3.357-0.576,5.165c-0.385,1.808-0.97,3.73-1.755,5.767h-1.484c0.605-2.208,1.051-4.193,1.337-5.957
			c0.286-1.763,0.43-3.421,0.43-4.975c0-1.547-0.141-3.201-0.423-4.964S129.788,225.222,129.175,223.005z"/>
	</g>
	<g>
		<g>
			<line fill="none" stroke="#73B7DE" stroke-width="3" stroke-miterlimit="10" x1="164.37" y1="1.5" x2="158.37" y2="1.5"/>
			
				<line fill="none" stroke="#73B7DE" stroke-width="3" stroke-miterlimit="10" stroke-dasharray="11.7208,11.7208" x1="146.649" y1="1.5" x2="11.86" y2="1.5"/>
			<line fill="none" stroke="#73B7DE" stroke-width="3" stroke-miterlimit="10" x1="6" y1="1.5" x2="0" y2="1.5"/>
		</g>
	</g>
	<g>
		<g>
			<line fill="none" stroke="#73B7DE" stroke-width="3" stroke-miterlimit="10" x1="164.37" y1="65.447" x2="158.37" y2="65.447"/>
			
				<line fill="none" stroke="#73B7DE" stroke-width="3" stroke-miterlimit="10" stroke-dasharray="11.7208,11.7208" x1="146.649" y1="65.447" x2="11.86" y2="65.447"/>
			<line fill="none" stroke="#73B7DE" stroke-width="3" stroke-miterlimit="10" x1="6" y1="65.447" x2="0" y2="65.447"/>
		</g>
	</g>
	<g>
		<g>
			
				<line fill="none" stroke="#73B7DE" stroke-width="3" stroke-miterlimit="10" x1="164.37" y1="151.519" x2="158.37" y2="151.519"/>
			
				<line fill="none" stroke="#73B7DE" stroke-width="3" stroke-miterlimit="10" stroke-dasharray="11.7208,11.7208" x1="146.649" y1="151.519" x2="11.86" y2="151.519"/>
			<line fill="none" stroke="#73B7DE" stroke-width="3" stroke-miterlimit="10" x1="6" y1="151.519" x2="0" y2="151.519"/>
		</g>
	</g>
	<g>
		<g>
			
				<line fill="none" stroke="#73B7DE" stroke-width="3" stroke-miterlimit="10" x1="164.37" y1="252.644" x2="158.37" y2="252.644"/>
			
				<line fill="none" stroke="#73B7DE" stroke-width="3" stroke-miterlimit="10" stroke-dasharray="11.7208,11.7208" x1="146.649" y1="252.644" x2="11.86" y2="252.644"/>
			<line fill="none" stroke="#73B7DE" stroke-width="3" stroke-miterlimit="10" x1="6" y1="252.644" x2="0" y2="252.644"/>
		</g>
	</g>
	<g>
		<g>
			
				<line fill="none" stroke="#73B7DE" stroke-width="3" stroke-miterlimit="10" x1="164.37" y1="288.403" x2="158.37" y2="288.403"/>
			
				<line fill="none" stroke="#73B7DE" stroke-width="3" stroke-miterlimit="10" stroke-dasharray="11.7208,11.7208" x1="146.649" y1="288.403" x2="11.86" y2="288.403"/>
			<line fill="none" stroke="#73B7DE" stroke-width="3" stroke-miterlimit="10" x1="6" y1="288.403" x2="0" y2="288.403"/>
		</g>
	</g>
	<g>
		<g>
			
				<line fill="none" stroke="#73B7DE" stroke-width="3" stroke-miterlimit="10" x1="164.37" y1="324.163" x2="158.37" y2="324.163"/>
			
				<line fill="none" stroke="#73B7DE" stroke-width="3" stroke-miterlimit="10" stroke-dasharray="11.7208,11.7208" x1="146.649" y1="324.163" x2="11.86" y2="324.163"/>
			<line fill="none" stroke="#73B7DE" stroke-width="3" stroke-miterlimit="10" x1="6" y1="324.163" x2="0" y2="324.163"/>
		</g>
	</g>
</g>
</svg>
