<?xml version="1.0" encoding="utf-8"?>
<!-- Generator: Adobe Illustrator 16.0.0, SVG Export Plug-In . SVG Version: 6.00 Build 0)  -->
<!DOCTYPE svg PUBLIC "-//W3C//DTD SVG 1.1//EN" "http://www.w3.org/Graphics/SVG/1.1/DTD/svg11.dtd">
<svg version="1.1" id="Capa_1" xmlns="http://www.w3.org/2000/svg" xmlns:xlink="http://www.w3.org/1999/xlink" x="0px" y="0px"
	 width="163.284px" height="115.681px" viewBox="0 0 163.284 115.681" enable-background="new 0 0 163.284 115.681"
	 xml:space="preserve">
<g id="pw4cYN.tif">
	<g>
		<path fill-rule="evenodd" clip-rule="evenodd" fill="#FFFFFF" d="M0,97.422c0.645-3.104,1.09-6.267,1.967-9.305
			C6.678,71.795,16.12,59.316,31.752,51.965c0.666-0.312,1.351-0.582,2.207-0.95c0.417,1.056,0.799,2.02,1.179,2.983
			c0.389,0.983,0.775,1.969,1.212,3.081c-9.448,3.823-16.904,9.974-22.223,18.624c-4.029,6.558-6.397,13.691-7.365,21.701
			c6.229,1.073,12.406,2.139,18.716,3.228c-0.25,2.042-0.505,4.118-0.791,6.449c-5.016-0.835-9.871-1.616-14.715-2.46
			c-1.72-0.301-3.4-0.843-5.125-1.106c-1.745-0.267-3.067-0.992-3.888-2.597c-0.238-0.463-0.635-0.843-0.959-1.262
			C0,98.911,0,98.166,0,97.422z"/>
		<path fill-rule="evenodd" clip-rule="evenodd" fill="#FFFFFF" d="M62.143,58.068c0.809,2.055,1.562,3.969,2.353,5.979
			c-17.704,7.619-26.804,21.501-29.641,40.335c31.331,6.451,62.339,6.467,93.597,0.016c-1.053-8.992-3.964-17.061-9.101-24.299
			c-5.182-7.299-12-12.551-20.451-15.967c0.786-2.018,1.545-3.961,2.482-6.367c3.407,1.93,6.83,3.521,9.878,5.652
			c12.694,8.874,20.021,21.252,23.088,36.289c0.307,1.504,0.511,3.035,0.666,4.562c0.34,3.364-1.191,5.465-4.449,6.232
			c-10.097,2.379-20.336,3.746-30.679,4.512c-11.266,0.835-22.531,0.865-33.793,0.205c-11.407-0.672-22.718-2.16-33.847-4.84
			c-2.584-0.623-4.184-3.104-3.876-5.93c1.188-10.916,5.051-20.781,11.697-29.521C45.821,67.365,53.054,61.697,62.143,58.068z"/>
		<path fill-rule="evenodd" clip-rule="evenodd" fill="#FFFFFF" d="M109.896,35.363C109.822,50.76,96.797,63.656,81.41,63.566
			C66.399,63.479,53.437,50.31,53.516,35.229C53.597,19.89,66.587,6.98,81.863,7.061C97.074,7.139,109.968,20.158,109.896,35.363z
			 M81.616,56.976c12.398,0.062,21.723-9.067,21.802-21.346c0.081-12.646-9.1-22.048-21.602-22.12
			c-12.268-0.07-21.745,9.244-21.812,21.439C59.935,47.667,69.007,56.912,81.616,56.976z"/>
		<path fill-rule="evenodd" clip-rule="evenodd" fill="#FFFFFF" d="M55.616,49.956c0.201,2.144,0.392,4.191,0.582,6.226
			c-7.558,1.516-20.612-2.537-27.256-14.414c-6.658-11.902-3.952-26.002,6.712-35.093c10.435-8.896,24.293-8.19,33.248-2.05
			c-1.141,1.75-2.282,3.504-3.412,5.239c-9.591-5.098-18.839-4.921-26.908,2.45c-7.112,6.494-8.49,15.039-5.278,23.867
			C36.969,46.255,44.996,50.207,55.616,49.956z"/>
		<path fill-rule="evenodd" clip-rule="evenodd" fill="#FFFFFF" d="M98,9.975c-1.198-1.832-2.329-3.557-3.454-5.278
			c7.354-5.478,20.712-7.138,31.225,0.401c11.17,8.008,15.346,21.993,10.075,33.969c-5.817,13.213-19.084,18.584-28.569,17.209
			c0.188-2.069,0.375-4.152,0.569-6.289c11.42,0.193,19.756-4.378,22.849-15.662c2.501-9.116,0.229-17.322-7.407-23.438
			C117.071,5.908,106.55,4.527,98,9.975z"/>
		<path fill-rule="evenodd" clip-rule="evenodd" fill="#FFFFFF" d="M138.703,107.271c-0.311-2.507-0.569-4.589-0.822-6.646
			c6.28-1.072,12.427-2.121,18.853-3.219c-2.82-18.846-11.883-32.735-29.638-40.393c0.781-1.987,1.545-3.936,2.342-5.967
			c6.267,2.428,11.683,5.912,16.376,10.467c9.935,9.644,15.471,21.455,17.391,35.125c0.345,2.441-0.462,4.074-1.813,5.738
			c-0.25,0.309-0.643,0.621-1.017,0.694C153.21,104.481,146.039,105.855,138.703,107.271z"/>
	</g>
</g>
</svg>
