<?xml version="1.0" encoding="utf-8"?>
<!-- Generator: Adobe Illustrator 16.0.0, SVG Export Plug-In . SVG Version: 6.00 Build 0)  -->
<!DOCTYPE svg PUBLIC "-//W3C//DTD SVG 1.1//EN" "http://www.w3.org/Graphics/SVG/1.1/DTD/svg11.dtd">
<svg version="1.1" id="Capa_1" xmlns="http://www.w3.org/2000/svg" xmlns:xlink="http://www.w3.org/1999/xlink" x="0px" y="0px"
	 width="203.48px" height="219.728px" viewBox="0 0 203.48 219.728" enable-background="new 0 0 203.48 219.728"
	 xml:space="preserve">
<g>
	<g>
		<path fill="#2B1C48" d="M81.06,15.989h2.865v21.783H81.06V15.989z"/>
		<path fill="#2B1C48" d="M94.572,26.062v11.711h-2.688V26.46c0-0.816-0.087-1.378-0.259-1.684
			c-0.172-0.305-0.472-0.457-0.895-0.457c-0.413,0-0.709,0.16-0.886,0.479c-0.178,0.319-0.267,0.874-0.267,1.661v11.312H86.92
			v-15.18h2.541l0.117,1.211c0.324-0.521,0.704-0.916,1.138-1.182c0.434-0.266,0.9-0.398,1.403-0.398
			c0.904,0,1.54,0.278,1.904,0.834C94.39,23.612,94.572,24.614,94.572,26.062z"/>
		<path fill="#2B1C48" d="M97.202,15.989h2.85v2.732h-2.85V15.989z M97.29,22.591h2.658v15.182H97.29V22.591z"/>
		<path fill="#2B1C48" d="M110.036,26.696v0.887h-2.688v-1.241c0-0.847-0.079-1.423-0.236-1.728
			c-0.156-0.305-0.434-0.458-0.826-0.458c-0.346,0-0.589,0.157-0.73,0.473s-0.215,0.905-0.215,1.772v7.561
			c0,0.887,0.076,1.487,0.229,1.803c0.152,0.314,0.411,0.473,0.775,0.473c0.354,0,0.605-0.152,0.753-0.458
			c0.148-0.306,0.222-0.911,0.222-1.817v-1.477h2.719v1.167c0,1.517-0.307,2.639-0.916,3.367c-0.61,0.729-1.546,1.093-2.807,1.093
			c-1.389,0-2.355-0.366-2.901-1.1c-0.547-0.734-0.819-2.095-0.819-4.084v-5.494c0-1.988,0.277-3.354,0.834-4.098
			s1.528-1.115,2.917-1.115c1.26,0,2.19,0.364,2.791,1.093S110.036,25.171,110.036,26.696z"/>
		<path fill="#2B1C48" d="M112.266,15.989h2.851v2.732h-2.851V15.989z M112.354,22.591h2.658v15.182h-2.658V22.591z"/>
		<path fill="#2B1C48" d="M125.424,27.435v5.494c0,1.989-0.288,3.355-0.863,4.099c-0.576,0.743-1.598,1.114-3.063,1.114
			c-1.418,0-2.413-0.373-2.983-1.122c-0.571-0.748-0.855-2.112-0.855-4.091v-5.494c0-1.998,0.286-3.367,0.862-4.105
			c0.576-0.738,1.599-1.107,3.064-1.107c1.408,0,2.399,0.379,2.977,1.137C125.136,24.117,125.424,25.476,125.424,27.435z
			 M122.707,26.401c0-0.857-0.087-1.445-0.259-1.766c-0.173-0.319-0.472-0.479-0.895-0.479c-0.424,0-0.722,0.16-0.894,0.479
			c-0.173,0.32-0.26,0.908-0.26,1.766v7.561c0,0.887,0.087,1.487,0.26,1.803c0.172,0.314,0.47,0.473,0.894,0.473
			c0.423,0,0.722-0.168,0.895-0.502c0.172-0.335,0.259-0.926,0.259-1.773V26.401z"/>
	</g>
	<g>
		<path fill="#553085" d="M61.432,62.61h6.498v2.305h-3.692v7.104h3.485v2.304h-3.485v10.072h-2.806V62.61z"/>
		<path fill="#553085" d="M77.632,74.057v5.493c0,1.99-0.288,3.355-0.863,4.1c-0.576,0.742-1.598,1.114-3.063,1.114
			c-1.418,0-2.413-0.374-2.983-1.122c-0.571-0.748-0.855-2.112-0.855-4.092v-5.493c0-1.999,0.286-3.368,0.862-4.106
			c0.576-0.738,1.599-1.107,3.064-1.107c1.408,0,2.399,0.379,2.977,1.138C77.344,70.739,77.632,72.097,77.632,74.057z
			 M74.915,73.022c0-0.856-0.087-1.445-0.259-1.765c-0.173-0.32-0.472-0.479-0.895-0.479c-0.424,0-0.722,0.16-0.894,0.479
			c-0.173,0.319-0.26,0.908-0.26,1.765v7.562c0,0.886,0.087,1.487,0.26,1.802c0.172,0.315,0.47,0.473,0.894,0.473
			c0.423,0,0.722-0.167,0.895-0.502c0.172-0.334,0.259-0.926,0.259-1.772V73.022z"/>
		<path fill="#553085" d="M85.593,69.005v2.319H85.46c-0.937,0-1.593,0.207-1.973,0.62c-0.38,0.414-0.568,1.147-0.568,2.201v10.249
			h-2.658V69.212h2.541l0.117,1.241c0.335-0.503,0.693-0.874,1.078-1.115c0.385-0.241,0.803-0.362,1.256-0.362
			c0.039,0,0.096,0.006,0.17,0.016C85.496,69.001,85.553,69.005,85.593,69.005z"/>
		<path fill="#553085" d="M94.13,70.542c0.394-0.582,0.795-1.01,1.203-1.285c0.408-0.275,0.854-0.414,1.337-0.414
			c0.855,0,1.457,0.273,1.802,0.82c0.345,0.546,0.517,1.553,0.517,3.02v11.712H96.36V73.081c0-0.797-0.078-1.354-0.235-1.668
			c-0.157-0.315-0.418-0.473-0.782-0.473c-0.384,0-0.657,0.165-0.82,0.494c-0.162,0.33-0.243,0.879-0.243,1.646v11.313h-2.657
			V73.081c0-0.816-0.076-1.377-0.229-1.684c-0.151-0.305-0.411-0.457-0.774-0.457c-0.385,0-0.662,0.168-0.834,0.502
			c-0.174,0.335-0.26,0.881-0.26,1.639v11.313h-2.629V69.212h2.541l0.117,1.211c0.335-0.541,0.704-0.939,1.108-1.195
			c0.402-0.256,0.871-0.385,1.401-0.385c0.522,0,0.979,0.16,1.366,0.48C93.817,69.643,94.051,70.05,94.13,70.542z"/>
		<path fill="#553085" d="M109.193,72.935v11.46h-2.541l-0.146-1.241c-0.315,0.532-0.682,0.934-1.101,1.204
			c-0.419,0.271-0.879,0.406-1.381,0.406c-0.905,0-1.562-0.298-1.965-0.894c-0.402-0.596-0.604-1.559-0.604-2.887v-2.614
			c0-1.222,0.379-2.104,1.138-2.651c0.758-0.547,2.062-0.859,3.913-0.938v-1.758c0-0.906-0.084-1.512-0.251-1.816
			c-0.167-0.304-0.468-0.458-0.9-0.458c-0.395,0-0.68,0.15-0.856,0.45c-0.178,0.301-0.267,0.785-0.267,1.455v0.635h-2.479v-0.354
			c0-1.526,0.28-2.59,0.842-3.19c0.561-0.601,1.54-0.901,2.938-0.901c1.328,0,2.271,0.306,2.827,0.916
			C108.916,70.369,109.193,71.428,109.193,72.935z M106.49,76.655c-0.906,0.05-1.52,0.217-1.84,0.502
			c-0.318,0.286-0.479,0.793-0.479,1.521v1.937c0,0.816,0.091,1.391,0.272,1.721c0.183,0.329,0.484,0.494,0.908,0.494
			c0.413,0,0.709-0.162,0.887-0.487c0.177-0.325,0.266-0.901,0.266-1.728L106.49,76.655z"/>
		<path fill="#553085" d="M119.266,73.317v0.887h-2.688v-1.24c0-0.848-0.079-1.423-0.236-1.729
			c-0.157-0.305-0.434-0.457-0.827-0.457c-0.345,0-0.588,0.157-0.729,0.473c-0.144,0.314-0.216,0.905-0.216,1.771v7.562
			c0,0.886,0.076,1.487,0.229,1.802c0.152,0.315,0.411,0.473,0.775,0.473c0.354,0,0.604-0.152,0.753-0.457
			c0.146-0.306,0.222-0.911,0.222-1.817v-1.477h2.718v1.167c0,1.516-0.306,2.639-0.916,3.367c-0.609,0.728-1.546,1.093-2.806,1.093
			c-1.39,0-2.356-0.366-2.902-1.101c-0.547-0.733-0.818-2.094-0.818-4.084v-5.493c0-1.989,0.276-3.354,0.834-4.099
			c0.557-0.743,1.527-1.115,2.917-1.115c1.26,0,2.189,0.365,2.791,1.094C118.967,70.666,119.266,71.792,119.266,73.317z"/>
		<path fill="#553085" d="M121.496,62.61h2.85v2.732h-2.85V62.61z M121.584,69.212h2.658v15.183h-2.658V69.212z"/>
		<path fill="#553085" d="M134.654,74.057v5.493c0,1.99-0.287,3.355-0.862,4.1c-0.576,0.742-1.599,1.114-3.064,1.114
			c-1.418,0-2.413-0.374-2.982-1.122c-0.571-0.748-0.856-2.112-0.856-4.092v-5.493c0-1.999,0.287-3.368,0.863-4.106
			c0.576-0.738,1.598-1.107,3.063-1.107c1.408,0,2.4,0.379,2.978,1.138C134.366,70.739,134.654,72.097,134.654,74.057z
			 M131.938,73.022c0-0.856-0.087-1.445-0.259-1.765c-0.172-0.32-0.471-0.479-0.894-0.479c-0.425,0-0.723,0.16-0.895,0.479
			c-0.172,0.319-0.259,0.908-0.259,1.765v7.562c0,0.886,0.087,1.487,0.259,1.802c0.172,0.315,0.47,0.473,0.895,0.473
			c0.423,0,0.722-0.167,0.894-0.502c0.172-0.334,0.259-0.926,0.259-1.772V73.022z M131.051,63.674h2.511l-2.053,3.545h-1.728
			L131.051,63.674z"/>
		<path fill="#553085" d="M144.934,72.683v11.712h-2.688V73.081c0-0.816-0.087-1.377-0.26-1.684
			c-0.172-0.305-0.471-0.457-0.894-0.457c-0.413,0-0.709,0.16-0.886,0.48c-0.179,0.319-0.268,0.873-0.268,1.66v11.313h-2.657V69.212
			h2.541l0.116,1.211c0.325-0.521,0.704-0.915,1.139-1.182c0.434-0.266,0.899-0.398,1.402-0.398c0.905,0,1.54,0.279,1.905,0.835
			C144.751,70.233,144.934,71.235,144.934,72.683z"/>
	</g>
	<g>
		<path fill="#553085" d="M33.541,117.788v1.639H30.72v-1.477c0-0.984-0.091-1.671-0.273-2.061
			c-0.182-0.389-0.483-0.583-0.907-0.583c-0.521,0-0.885,0.194-1.085,0.583c-0.202,0.39-0.304,1.214-0.304,2.475v11.918
			c0,1.279,0.097,2.109,0.288,2.488s0.539,0.568,1.041,0.568c0.453,0,0.772-0.185,0.96-0.555c0.188-0.369,0.28-1.021,0.28-1.955
			v-1.965h2.851v1.993c0,1.781-0.306,3.017-0.916,3.699c-0.609,0.683-1.688,1.026-3.233,1.026c-1.517,0-2.582-0.416-3.197-1.248
			s-0.923-2.365-0.923-4.602v-10.822c0-2.217,0.308-3.736,0.923-4.563s1.701-1.24,3.257-1.24c1.506,0,2.561,0.341,3.16,1.019
			C33.24,114.805,33.541,116.025,33.541,117.788z"/>
		<path fill="#553085" d="M35.741,120.032h2.688v11.283c0,0.828,0.087,1.396,0.259,1.706c0.172,0.312,0.471,0.466,0.895,0.466
			c0.414,0,0.709-0.164,0.886-0.494c0.178-0.33,0.267-0.89,0.267-1.678v-11.283h2.688v15.184h-2.569l-0.118-1.241
			c-0.324,0.522-0.701,0.916-1.13,1.183c-0.429,0.266-0.897,0.398-1.41,0.398c-0.896,0-1.528-0.275-1.897-0.827
			s-0.554-1.552-0.554-2.998v-11.698H35.741z"/>
		<path fill="#553085" d="M46.05,113.431h2.85v2.731h-2.85V113.431z M46.138,120.032h2.658v15.184h-2.658V120.032z"/>
		<path fill="#553085" d="M56.432,113.431h2.688v21.784h-2.541l-0.147-1.241c-0.305,0.522-0.667,0.922-1.085,1.196
			c-0.419,0.275-0.874,0.414-1.366,0.414c-0.887,0-1.525-0.293-1.92-0.879s-0.591-1.554-0.591-2.901v-8.359
			c0-1.368,0.196-2.341,0.591-2.917s1.043-0.863,1.949-0.863c0.482,0,0.931,0.135,1.344,0.405c0.414,0.271,0.773,0.662,1.078,1.175
			V113.431z M56.432,123.901c0-0.797-0.084-1.354-0.251-1.668s-0.458-0.473-0.871-0.473c-0.424,0-0.722,0.154-0.894,0.465
			c-0.173,0.311-0.259,0.869-0.259,1.676v7.414c0,0.828,0.084,1.396,0.251,1.706c0.168,0.312,0.458,0.466,0.871,0.466
			s0.709-0.164,0.887-0.494c0.177-0.33,0.266-0.89,0.266-1.678V123.901z"/>
		<path fill="#553085" d="M69.281,123.754v11.461H66.74l-0.147-1.241c-0.315,0.532-0.682,0.935-1.1,1.204
			c-0.419,0.271-0.88,0.406-1.382,0.406c-0.905,0-1.562-0.299-1.965-0.895c-0.402-0.596-0.604-1.559-0.604-2.887v-2.614
			c0-1.222,0.379-2.104,1.138-2.651c0.758-0.547,2.062-0.858,3.913-0.938v-1.758c0-0.906-0.084-1.512-0.251-1.816
			c-0.167-0.304-0.468-0.458-0.9-0.458c-0.395,0-0.68,0.149-0.856,0.45s-0.267,0.785-0.267,1.455v0.635h-2.479v-0.354
			c0-1.526,0.28-2.59,0.842-3.19s1.54-0.901,2.938-0.901c1.329,0,2.271,0.307,2.827,0.916
			C69.004,121.189,69.281,122.249,69.281,123.754z M66.578,127.476c-0.906,0.05-1.52,0.217-1.839,0.502
			c-0.319,0.286-0.479,0.793-0.479,1.521v1.937c0,0.815,0.091,1.392,0.273,1.722c0.182,0.328,0.483,0.493,0.907,0.493
			c0.413,0,0.709-0.162,0.887-0.487c0.177-0.324,0.266-0.9,0.266-1.728L66.578,127.476z"/>
		<path fill="#553085" d="M76.901,113.431h2.688v21.784h-2.541l-0.147-1.241c-0.305,0.522-0.667,0.922-1.085,1.196
			c-0.419,0.275-0.874,0.414-1.365,0.414c-0.888,0-1.526-0.293-1.921-0.879s-0.591-1.554-0.591-2.901v-8.359
			c0-1.368,0.196-2.341,0.591-2.917s1.044-0.863,1.949-0.863c0.482,0,0.932,0.135,1.345,0.405s0.772,0.662,1.077,1.175V113.431z
			 M76.901,123.901c0-0.797-0.084-1.354-0.251-1.668s-0.458-0.473-0.871-0.473c-0.424,0-0.722,0.154-0.894,0.465
			c-0.173,0.311-0.259,0.869-0.259,1.676v7.414c0,0.828,0.084,1.396,0.251,1.706c0.168,0.312,0.458,0.466,0.872,0.466
			c0.413,0,0.709-0.164,0.886-0.494s0.266-0.89,0.266-1.678V123.901z"/>
		<path fill="#553085" d="M89.957,124.877v5.492c0,1.99-0.288,3.355-0.863,4.1c-0.576,0.742-1.598,1.115-3.064,1.115
			c-1.418,0-2.412-0.375-2.982-1.123c-0.571-0.748-0.856-2.111-0.856-4.092v-5.492c0-2,0.287-3.369,0.863-4.106
			s1.598-1.106,3.064-1.106c1.407,0,2.399,0.379,2.977,1.137C89.669,121.56,89.957,122.917,89.957,124.877z M87.24,123.842
			c0-0.855-0.088-1.444-0.26-1.764c-0.172-0.32-0.471-0.479-0.894-0.479c-0.424,0-0.722,0.159-0.895,0.479
			c-0.172,0.318-0.259,0.907-0.259,1.764v7.562c0,0.887,0.087,1.487,0.259,1.803c0.173,0.314,0.471,0.473,0.895,0.473
			c0.423,0,0.722-0.167,0.894-0.502c0.172-0.334,0.26-0.926,0.26-1.771V123.842z"/>
		<path fill="#553085" d="M98.184,113.431h6.498v2.305h-3.691v6.955h3.515v2.306h-3.515v7.916h3.898v2.303h-6.705V113.431z"/>
		<path fill="#553085" d="M114.488,121.362c0.395-0.582,0.796-1.01,1.203-1.285c0.408-0.275,0.854-0.414,1.337-0.414
			c0.856,0,1.457,0.273,1.803,0.82c0.345,0.546,0.517,1.553,0.517,3.02v11.713h-2.629v-11.313c0-0.797-0.079-1.354-0.236-1.668
			c-0.156-0.315-0.418-0.474-0.781-0.474c-0.385,0-0.657,0.166-0.82,0.494c-0.162,0.33-0.243,0.879-0.243,1.646v11.312h-2.658
			v-11.312c0-0.816-0.076-1.377-0.229-1.684c-0.152-0.305-0.411-0.457-0.775-0.457c-0.384,0-0.662,0.168-0.834,0.502
			c-0.173,0.335-0.259,0.881-0.259,1.639v11.312h-2.629v-15.182h2.541l0.117,1.211c0.335-0.541,0.704-0.939,1.107-1.195
			s0.871-0.385,1.402-0.385c0.521,0,0.978,0.16,1.366,0.479C114.175,120.461,114.409,120.87,114.488,121.362z"/>
		<path fill="#553085" d="M129.759,124.877v5.492c0,1.99-0.288,3.355-0.863,4.1c-0.576,0.742-1.598,1.115-3.063,1.115
			c-1.418,0-2.413-0.375-2.983-1.123c-0.571-0.748-0.855-2.111-0.855-4.092v-5.492c0-2,0.286-3.369,0.862-4.106
			s1.599-1.106,3.064-1.106c1.408,0,2.399,0.379,2.977,1.137C129.471,121.56,129.759,122.917,129.759,124.877z M127.042,123.842
			c0-0.855-0.087-1.444-0.259-1.764c-0.173-0.32-0.472-0.479-0.895-0.479c-0.424,0-0.722,0.159-0.894,0.479
			c-0.172,0.318-0.26,0.907-0.26,1.764v7.562c0,0.887,0.088,1.487,0.26,1.803c0.172,0.314,0.47,0.473,0.894,0.473
			c0.423,0,0.722-0.167,0.895-0.502c0.172-0.334,0.259-0.926,0.259-1.771V123.842z"/>
		<path fill="#553085" d="M139.743,124.138v0.887h-2.688v-1.239c0-0.849-0.079-1.424-0.236-1.729
			c-0.156-0.306-0.434-0.457-0.826-0.457c-0.346,0-0.589,0.157-0.73,0.474c-0.143,0.312-0.215,0.904-0.215,1.77v7.562
			c0,0.887,0.076,1.487,0.229,1.803c0.152,0.314,0.411,0.473,0.775,0.473c0.354,0,0.605-0.152,0.753-0.457
			c0.147-0.307,0.222-0.911,0.222-1.816v-1.478h2.719v1.167c0,1.516-0.307,2.639-0.916,3.367c-0.61,0.728-1.546,1.093-2.807,1.093
			c-1.389,0-2.355-0.366-2.901-1.101c-0.547-0.733-0.819-2.095-0.819-4.084v-5.494c0-1.988,0.277-3.354,0.834-4.098
			s1.528-1.115,2.917-1.115c1.26,0,2.19,0.365,2.791,1.094S139.743,122.612,139.743,124.138z"/>
		<path fill="#553085" d="M141.973,113.431h2.851v2.731h-2.851V113.431z M142.061,120.032h2.658v15.184h-2.658V120.032z"/>
		<path fill="#553085" d="M155.131,124.877v5.492c0,1.99-0.288,3.355-0.863,4.1c-0.576,0.742-1.598,1.115-3.063,1.115
			c-1.418,0-2.413-0.375-2.983-1.123c-0.571-0.748-0.855-2.111-0.855-4.092v-5.492c0-2,0.286-3.369,0.862-4.106
			s1.599-1.106,3.064-1.106c1.408,0,2.399,0.379,2.977,1.137C154.843,121.56,155.131,122.917,155.131,124.877z M152.414,123.842
			c0-0.855-0.087-1.444-0.26-1.764c-0.172-0.32-0.471-0.479-0.894-0.479c-0.424,0-0.722,0.159-0.894,0.479
			c-0.173,0.318-0.26,0.907-0.26,1.764v7.562c0,0.887,0.087,1.487,0.26,1.803c0.172,0.314,0.47,0.473,0.894,0.473
			c0.423,0,0.722-0.167,0.894-0.502c0.173-0.334,0.26-0.926,0.26-1.771V123.842z"/>
		<path fill="#553085" d="M165.41,123.502v11.713h-2.688v-11.313c0-0.815-0.087-1.377-0.259-1.685
			c-0.172-0.305-0.471-0.457-0.895-0.457c-0.412,0-0.709,0.16-0.886,0.48c-0.178,0.319-0.267,0.873-0.267,1.66v11.312h-2.658
			v-15.182h2.541l0.117,1.211c0.325-0.521,0.704-0.916,1.138-1.183s0.9-0.397,1.403-0.397c0.904,0,1.54,0.278,1.904,0.834
			C165.228,121.054,165.41,122.056,165.41,123.502z"/>
		<path fill="#553085" d="M175.601,123.754v11.461h-2.541l-0.146-1.241c-0.315,0.532-0.683,0.935-1.101,1.204
			c-0.419,0.271-0.879,0.406-1.381,0.406c-0.906,0-1.562-0.299-1.965-0.895s-0.605-1.559-0.605-2.887v-2.614
			c0-1.222,0.38-2.104,1.139-2.651c0.758-0.547,2.062-0.858,3.913-0.938v-1.758c0-0.906-0.084-1.512-0.251-1.816
			c-0.167-0.304-0.469-0.458-0.9-0.458c-0.395,0-0.68,0.149-0.857,0.45c-0.177,0.301-0.266,0.785-0.266,1.455v0.635h-2.479v-0.354
			c0-1.526,0.279-2.59,0.842-3.19c0.561-0.601,1.54-0.901,2.938-0.901c1.329,0,2.271,0.307,2.828,0.916
			C175.324,121.189,175.601,122.249,175.601,123.754z M172.897,127.476c-0.905,0.05-1.519,0.217-1.839,0.502
			c-0.318,0.286-0.479,0.793-0.479,1.521v1.937c0,0.815,0.091,1.392,0.272,1.722c0.183,0.328,0.484,0.493,0.908,0.493
			c0.413,0,0.709-0.162,0.886-0.487c0.178-0.324,0.267-0.9,0.267-1.728L172.897,127.476z"/>
		<path fill="#553085" d="M178.317,113.431h2.658v21.784h-2.658V113.431z"/>
	</g>
	<g>
		<g>
			<line fill="none" stroke="#73B7DE" stroke-width="3" stroke-miterlimit="10" x1="203.481" y1="2" x2="197.481" y2="2"/>
			
				<line fill="none" stroke="#73B7DE" stroke-width="3" stroke-miterlimit="10" stroke-dasharray="12.3893,12.3893" x1="185.093" y1="2" x2="17.836" y2="2"/>
			<line fill="none" stroke="#73B7DE" stroke-width="3" stroke-miterlimit="10" x1="11.642" y1="2" x2="5.642" y2="2"/>
		</g>
	</g>
	<g>
		<g>
			
				<line fill="none" stroke="#73B7DE" stroke-width="3" stroke-miterlimit="10" x1="203.481" y1="48.531" x2="197.481" y2="48.531"/>
			
				<line fill="none" stroke="#73B7DE" stroke-width="3" stroke-miterlimit="10" stroke-dasharray="12.3893,12.3893" x1="185.093" y1="48.531" x2="17.836" y2="48.531"/>
			<line fill="none" stroke="#73B7DE" stroke-width="3" stroke-miterlimit="10" x1="11.642" y1="48.531" x2="5.642" y2="48.531"/>
		</g>
	</g>
	<g>
		<g>
			
				<line fill="none" stroke="#73B7DE" stroke-width="3" stroke-miterlimit="10" x1="203.481" y1="100.829" x2="197.481" y2="100.829"/>
			
				<line fill="none" stroke="#73B7DE" stroke-width="3" stroke-miterlimit="10" stroke-dasharray="12.3893,12.3893" x1="185.093" y1="100.829" x2="17.836" y2="100.829"/>
			<line fill="none" stroke="#73B7DE" stroke-width="3" stroke-miterlimit="10" x1="11.642" y1="100.829" x2="5.642" y2="100.829"/>
		</g>
	</g>
	<g>
		<g>
			
				<line fill="none" stroke="#73B7DE" stroke-width="3" stroke-miterlimit="10" x1="203.481" y1="150.84" x2="197.481" y2="150.84"/>
			
				<line fill="none" stroke="#73B7DE" stroke-width="3" stroke-miterlimit="10" stroke-dasharray="12.3893,12.3893" x1="185.093" y1="150.84" x2="17.836" y2="150.84"/>
			<line fill="none" stroke="#73B7DE" stroke-width="3" stroke-miterlimit="10" x1="11.642" y1="150.84" x2="5.642" y2="150.84"/>
		</g>
	</g>
	<g>
		<g>
			
				<line fill="none" stroke="#73B7DE" stroke-width="3" stroke-miterlimit="10" x1="203.481" y1="217.228" x2="197.481" y2="217.228"/>
			
				<line fill="none" stroke="#73B7DE" stroke-width="3" stroke-miterlimit="10" stroke-dasharray="12.3893,12.3893" x1="185.093" y1="217.228" x2="17.836" y2="217.228"/>
			<line fill="none" stroke="#73B7DE" stroke-width="3" stroke-miterlimit="10" x1="11.642" y1="217.228" x2="5.642" y2="217.228"/>
		</g>
	</g>
</g>
<g>
	<path fill="#553085" stroke="#553085" stroke-width="0.5" stroke-miterlimit="10" d="M30.5,160.635h3.488
		c1.798,0,3.014,0.205,3.65,0.615c0.635,0.41,0.953,1.147,0.953,2.212v4.893c0,0.898-0.209,1.533-0.629,1.904
		c-0.42,0.371-1.163,0.596-2.229,0.674c1.139,0.059,1.93,0.273,2.373,0.645s0.666,1.016,0.666,1.934v8.73h-2.427v-8.071
		c0-1.016-0.177-1.675-0.531-1.978s-1.082-0.454-2.184-0.454h-0.845v10.503H30.5V160.635z M32.783,162.232v7.896h0.809
		c1.043,0,1.738-0.148,2.085-0.446s0.521-0.96,0.521-1.985v-3.003c0-1.035-0.174-1.704-0.521-2.007s-1.042-0.454-2.085-0.454H32.783
		z"/>
	<path fill="#553085" stroke="#553085" stroke-width="0.5" stroke-miterlimit="10" d="M49.828,171.109v4.468h-5.232v3.179
		c0,0.898,0.108,1.509,0.324,1.831s0.599,0.483,1.151,0.483c0.527,0,0.899-0.166,1.115-0.498s0.324-0.938,0.324-1.816v-1.67h2.319
		v1.23c0,1.66-0.276,2.791-0.827,3.391c-0.552,0.602-1.528,0.901-2.931,0.901c-1.391,0-2.364-0.306-2.922-0.915
		c-0.557-0.61-0.836-1.746-0.836-3.406v-7.178c0-1.67,0.272-2.803,0.818-3.398s1.525-0.894,2.94-0.894
		c1.39,0,2.364,0.306,2.921,0.915C49.549,168.343,49.828,169.468,49.828,171.109z M47.509,170.655c0-0.889-0.108-1.494-0.324-1.816
		s-0.587-0.483-1.115-0.483c-0.54,0-0.92,0.171-1.142,0.513c-0.222,0.342-0.333,0.938-0.333,1.787v3.398h2.913V170.655z"/>
	<path fill="#553085" stroke="#553085" stroke-width="0.5" stroke-miterlimit="10" d="M59.392,170.655v0.85h-2.211v-0.85
		c0-0.928-0.081-1.543-0.243-1.846s-0.458-0.454-0.89-0.454c-0.384,0-0.656,0.139-0.818,0.418c-0.162,0.277-0.243,0.749-0.243,1.413
		v0.601c0,0.322,0.075,0.64,0.225,0.952s0.393,0.645,0.728,0.996l2.679,2.9c0.299,0.332,0.53,0.674,0.692,1.025
		c0.162,0.352,0.243,0.684,0.243,0.996v1.436c0,1.299-0.261,2.21-0.782,2.731c-0.521,0.522-1.406,0.784-2.652,0.784
		c-1.294,0-2.194-0.273-2.697-0.82s-0.755-1.558-0.755-3.032v-1.289h2.193v1.289c0,0.957,0.087,1.582,0.261,1.875
		s0.482,0.439,0.926,0.439c0.456,0,0.779-0.146,0.971-0.439c0.191-0.293,0.288-0.806,0.288-1.538v-0.571
		c0-0.82-0.366-1.611-1.097-2.373c-0.024-0.029-0.042-0.049-0.054-0.059l-2.607-2.871c-0.276-0.303-0.474-0.603-0.593-0.9
		c-0.12-0.298-0.18-0.628-0.18-0.989v-1.084c0-1.24,0.254-2.121,0.764-2.644c0.509-0.522,1.357-0.784,2.544-0.784
		c1.234,0,2.095,0.273,2.58,0.82S59.392,169.19,59.392,170.655z"/>
	<path fill="#553085" stroke="#553085" stroke-width="0.5" stroke-miterlimit="10" d="M69.857,171.109v7.207
		c0,1.66-0.276,2.791-0.827,3.391c-0.552,0.602-1.528,0.901-2.931,0.901c-1.391,0-2.364-0.306-2.922-0.915
		c-0.557-0.61-0.836-1.746-0.836-3.406v-7.178c0-1.67,0.272-2.803,0.818-3.398s1.525-0.894,2.94-0.894
		c1.39,0,2.364,0.306,2.921,0.915C69.578,168.343,69.857,169.468,69.857,171.109z M67.537,170.655c0-0.889-0.108-1.494-0.324-1.816
		s-0.587-0.483-1.115-0.483c-0.54,0-0.92,0.171-1.142,0.513c-0.222,0.342-0.333,0.938-0.333,1.787v8.101
		c0,0.898,0.108,1.509,0.324,1.831s0.599,0.483,1.151,0.483c0.527,0,0.899-0.166,1.115-0.498s0.324-0.938,0.324-1.816V170.655z"/>
	<path fill="#553085" stroke="#553085" stroke-width="0.5" stroke-miterlimit="10" d="M73.165,160.635h2.211v21.606h-2.211V160.635z
		"/>
	<path fill="#553085" stroke="#553085" stroke-width="0.5" stroke-miterlimit="10" d="M78.792,167.183h2.211v11.543
		c0,0.889,0.117,1.502,0.351,1.838c0.234,0.338,0.632,0.506,1.196,0.506c0.551,0,0.941-0.173,1.168-0.52
		c0.228-0.347,0.342-0.955,0.342-1.824v-11.543h2.248v15.059H84.24l-0.18-0.923c-0.3,0.42-0.671,0.735-1.115,0.944
		c-0.443,0.21-0.965,0.315-1.564,0.315c-0.947,0-1.616-0.254-2.005-0.762c-0.39-0.508-0.584-1.396-0.584-2.666V167.183z"/>
	<path fill="#553085" stroke="#553085" stroke-width="0.5" stroke-miterlimit="10" d="M96.502,171.109v0.967h-2.319v-1.421
		c0-0.986-0.081-1.616-0.243-1.89c-0.162-0.273-0.458-0.41-0.89-0.41s-0.731,0.154-0.899,0.461
		c-0.168,0.309-0.252,0.921-0.252,1.839v8.101c0,0.938,0.087,1.558,0.261,1.86s0.482,0.454,0.926,0.454
		c0.419,0,0.707-0.139,0.863-0.418c0.156-0.277,0.234-0.91,0.234-1.896v-1.611h2.319v1.172c0,1.66-0.255,2.791-0.764,3.391
		c-0.51,0.602-1.406,0.901-2.688,0.901c-1.271,0-2.161-0.308-2.67-0.923c-0.51-0.615-0.764-1.748-0.764-3.398v-7.178
		c0-1.67,0.251-2.803,0.755-3.398c0.504-0.596,1.396-0.894,2.679-0.894c1.271,0,2.164,0.306,2.679,0.915
		C96.244,168.343,96.502,169.468,96.502,171.109z"/>
	<path fill="#553085" stroke="#553085" stroke-width="0.5" stroke-miterlimit="10" d="M99.307,160.635h2.463v2.285h-2.463V160.635z
		 M99.415,167.183h2.211v15.059h-2.211V167.183z"/>
	<path fill="#553085" stroke="#553085" stroke-width="0.5" stroke-miterlimit="10" d="M112.487,171.109v7.207
		c0,1.66-0.276,2.791-0.828,3.391c-0.551,0.602-1.527,0.901-2.93,0.901c-1.391,0-2.365-0.306-2.922-0.915
		c-0.558-0.61-0.836-1.746-0.836-3.406v-7.178c0-1.67,0.271-2.803,0.817-3.398s1.525-0.894,2.94-0.894
		c1.39,0,2.363,0.306,2.921,0.915C112.207,168.343,112.487,169.468,112.487,171.109z M110.166,170.655
		c0-0.889-0.107-1.494-0.323-1.816s-0.587-0.483-1.114-0.483c-0.54,0-0.92,0.171-1.143,0.513c-0.222,0.342-0.332,0.938-0.332,1.787
		v8.101c0,0.898,0.107,1.509,0.323,1.831s0.599,0.483,1.151,0.483c0.527,0,0.898-0.166,1.114-0.498s0.323-0.938,0.323-1.816V170.655
		z M109.285,161.939h2.535l-2.355,3.267h-1.762L109.285,161.939z"/>
	<path fill="#553085" stroke="#553085" stroke-width="0.5" stroke-miterlimit="10" d="M123.309,170.274v11.968h-2.211v-11.587
		c0-0.859-0.117-1.458-0.351-1.794c-0.233-0.338-0.632-0.506-1.196-0.506c-0.551,0-0.946,0.174-1.186,0.52
		c-0.24,0.348-0.36,0.94-0.36,1.78v11.587h-2.212v-15.059h2.068l0.144,0.923c0.3-0.42,0.681-0.739,1.142-0.96
		c0.461-0.219,0.992-0.329,1.592-0.329c0.935,0,1.597,0.257,1.986,0.769C123.115,168.099,123.309,168.995,123.309,170.274z"/>
	<path fill="#553085" stroke="#553085" stroke-width="0.5" stroke-miterlimit="10" d="M135.158,161.338h2.247v20.903h-2.247v-18.604
		c-0.432,0.312-0.863,0.576-1.295,0.791s-0.875,0.391-1.33,0.527v-2.036c0.515-0.205,0.991-0.439,1.429-0.703
		S134.799,161.661,135.158,161.338z"/>
	<path fill="#553085" stroke="#553085" stroke-width="0.5" stroke-miterlimit="10" d="M146.431,161.338h2.247v20.903h-2.247v-18.604
		c-0.432,0.312-0.862,0.576-1.294,0.791s-0.875,0.391-1.331,0.527v-2.036c0.515-0.205,0.991-0.439,1.429-0.703
		S146.072,161.661,146.431,161.338z"/>
	<path fill="#553085" stroke="#553085" stroke-width="0.5" stroke-miterlimit="10" d="M162.559,165.586v1.45h-2.32v-1.743
		c0-1.025-0.11-1.743-0.332-2.153c-0.223-0.41-0.603-0.615-1.142-0.615c-0.528,0-0.894,0.168-1.097,0.506
		c-0.204,0.336-0.306,1.091-0.306,2.263v4.805c0.312-0.254,0.653-0.439,1.024-0.557s0.821-0.176,1.349-0.176
		c1.067,0,1.827,0.303,2.283,0.908s0.684,1.636,0.684,3.091v4.614c0,1.807-0.278,3.03-0.837,3.669
		c-0.557,0.64-1.555,0.96-2.992,0.96c-1.415,0-2.407-0.329-2.977-0.989c-0.569-0.658-0.854-1.882-0.854-3.669v-12.363
		c0-1.777,0.275-2.985,0.826-3.626c0.552-0.639,1.517-0.959,2.896-0.959c1.414,0,2.399,0.327,2.958,0.981
		C162.28,162.637,162.559,163.838,162.559,165.586z M160.418,173.599c0-1.035-0.116-1.758-0.35-2.168
		c-0.234-0.41-0.633-0.615-1.195-0.615c-0.564,0-0.963,0.205-1.196,0.615s-0.351,1.133-0.351,2.168v4.688
		c0,1.035,0.117,1.753,0.351,2.153s0.632,0.601,1.196,0.601c0.574,0,0.977-0.2,1.204-0.601s0.341-1.118,0.341-2.153V173.599z"/>
	<path fill="#553085" stroke="#553085" stroke-width="0.5" stroke-miterlimit="10" d="M173.832,165.586v1.45h-2.32v-1.743
		c0-1.025-0.11-1.743-0.332-2.153c-0.223-0.41-0.603-0.615-1.142-0.615c-0.528,0-0.894,0.168-1.097,0.506
		c-0.204,0.336-0.306,1.091-0.306,2.263v4.805c0.312-0.254,0.653-0.439,1.024-0.557s0.821-0.176,1.349-0.176
		c1.067,0,1.827,0.303,2.283,0.908s0.684,1.636,0.684,3.091v4.614c0,1.807-0.278,3.03-0.837,3.669
		c-0.557,0.64-1.555,0.96-2.992,0.96c-1.415,0-2.407-0.329-2.977-0.989c-0.569-0.658-0.854-1.882-0.854-3.669v-12.363
		c0-1.777,0.275-2.985,0.826-3.626c0.552-0.639,1.517-0.959,2.896-0.959c1.414,0,2.399,0.327,2.958,0.981
		C173.553,162.637,173.832,163.838,173.832,165.586z M171.692,173.599c0-1.035-0.116-1.758-0.35-2.168
		c-0.234-0.41-0.633-0.615-1.195-0.615c-0.564,0-0.963,0.205-1.196,0.615s-0.351,1.133-0.351,2.168v4.688
		c0,1.035,0.117,1.753,0.351,2.153s0.632,0.601,1.196,0.601c0.574,0,0.977-0.2,1.204-0.601s0.341-1.118,0.341-2.153V173.599z"/>
	<path fill="#553085" stroke="#553085" stroke-width="0.5" stroke-miterlimit="10" d="M75.628,186.635h2.248v21.606h-2.068
		l-0.18-0.923c-0.3,0.43-0.674,0.752-1.124,0.967c-0.449,0.215-0.974,0.322-1.573,0.322c-0.923,0-1.583-0.257-1.978-0.769
		c-0.396-0.514-0.593-1.409-0.593-2.688v-8.877c0-1.279,0.198-2.175,0.593-2.688c0.396-0.512,1.055-0.769,1.978-0.769
		c0.599,0,1.126,0.11,1.582,0.329c0.455,0.221,0.827,0.54,1.115,0.96V186.635z M75.628,196.655c0-0.85-0.111-1.445-0.333-1.787
		c-0.222-0.342-0.603-0.513-1.142-0.513c-0.551,0-0.941,0.166-1.168,0.498c-0.228,0.332-0.342,0.933-0.342,1.802v8.101
		c0,0.879,0.114,1.484,0.342,1.816c0.228,0.332,0.617,0.498,1.168,0.498c0.54,0,0.92-0.171,1.142-0.513
		c0.222-0.342,0.333-0.942,0.333-1.802V196.655z"/>
	<path fill="#553085" stroke="#553085" stroke-width="0.5" stroke-miterlimit="10" d="M88.699,197.109v4.468h-5.232v3.179
		c0,0.898,0.108,1.509,0.324,1.831s0.599,0.483,1.151,0.483c0.527,0,0.899-0.166,1.115-0.498s0.324-0.938,0.324-1.816v-1.67h2.319
		v1.23c0,1.66-0.276,2.791-0.827,3.391c-0.552,0.602-1.528,0.901-2.931,0.901c-1.391,0-2.364-0.306-2.922-0.915
		c-0.557-0.61-0.836-1.746-0.836-3.406v-7.178c0-1.67,0.272-2.803,0.818-3.398s1.525-0.894,2.94-0.894
		c1.39,0,2.364,0.306,2.921,0.915C88.421,194.343,88.699,195.468,88.699,197.109z M86.38,196.655c0-0.889-0.108-1.494-0.324-1.816
		s-0.587-0.483-1.115-0.483c-0.54,0-0.92,0.171-1.142,0.513c-0.222,0.342-0.333,0.938-0.333,1.787v3.398h2.913V196.655z"/>
	<path fill="#553085" stroke="#553085" stroke-width="0.5" stroke-miterlimit="10" d="M105.366,191.118v1.377
		c0,0.371-0.072,0.825-0.216,1.362c-0.145,0.537-0.354,1.113-0.629,1.729l-4.963,11.06h5.699v1.597h-7.731v-2.124l4.531-10.137
		l0.054-0.132c0.648-1.377,0.97-2.544,0.97-3.501v-1.333c0-0.898-0.116-1.538-0.35-1.919c-0.234-0.381-0.621-0.571-1.16-0.571
		c-0.563,0-0.962,0.203-1.195,0.607c-0.234,0.406-0.351,1.126-0.351,2.161v1.406h-2.319v-1.113c0-1.758,0.288-2.961,0.863-3.61
		s1.576-0.975,3.002-0.975c1.367,0,2.34,0.312,2.922,0.938C105.075,188.564,105.366,189.624,105.366,191.118z"/>
	<path fill="#553085" stroke="#553085" stroke-width="0.5" stroke-miterlimit="10" d="M116.675,191.586v12.393
		c0,1.807-0.278,3.03-0.836,3.669c-0.558,0.64-1.556,0.96-2.993,0.96c-1.415,0-2.406-0.329-2.977-0.989
		c-0.568-0.658-0.854-1.882-0.854-3.669v-12.363c0-1.768,0.281-2.974,0.846-3.618c0.562-0.645,1.558-0.967,2.984-0.967
		c1.414,0,2.406,0.327,2.975,0.981C116.391,188.637,116.675,189.838,116.675,191.586z M114.356,191.293
		c0-1.055-0.111-1.78-0.332-2.175c-0.223-0.396-0.615-0.594-1.178-0.594c-0.564,0-0.963,0.203-1.195,0.607
		c-0.234,0.406-0.352,1.126-0.352,2.161v12.993c0,1.035,0.117,1.753,0.352,2.153c0.232,0.4,0.631,0.601,1.195,0.601
		c0.562,0,0.955-0.197,1.178-0.594c0.221-0.395,0.332-1.115,0.332-2.16V191.293z"/>
	<path fill="#553085" stroke="#553085" stroke-width="0.5" stroke-miterlimit="10" d="M123.022,187.338h2.248v20.903h-2.248v-18.604
		c-0.432,0.312-0.863,0.576-1.295,0.791s-0.875,0.391-1.33,0.527v-2.036c0.516-0.205,0.992-0.439,1.43-0.703
		S122.662,187.661,123.022,187.338z"/>
	<path fill="#553085" stroke="#553085" stroke-width="0.5" stroke-miterlimit="10" d="M133.881,197.358
		c-0.862-0.215-1.465-0.527-1.807-0.938s-0.512-1.128-0.512-2.153v-2.681c0-1.768,0.281-2.974,0.845-3.618s1.558-0.967,2.984-0.967
		c1.415,0,2.406,0.327,2.976,0.981s0.854,1.855,0.854,3.604v2.681c0,0.996-0.17,1.707-0.512,2.131
		c-0.342,0.426-0.956,0.745-1.843,0.96c0.887,0.225,1.501,0.55,1.843,0.974c0.342,0.426,0.512,1.131,0.512,2.117v3.53
		c0,1.807-0.277,3.03-0.836,3.669c-0.557,0.64-1.555,0.96-2.993,0.96c-1.415,0-2.406-0.329-2.976-0.989
		c-0.569-0.658-0.854-1.882-0.854-3.669v-3.501c0-1.025,0.168-1.743,0.503-2.153S133.006,197.573,133.881,197.358z M133.846,190.869
		v3.369c0,0.908,0.11,1.523,0.332,1.846c0.223,0.322,0.614,0.483,1.178,0.483s0.963-0.173,1.195-0.521
		c0.234-0.346,0.352-0.949,0.352-1.809v-3.369c0-0.879-0.111-1.489-0.333-1.831s-0.614-0.513-1.178-0.513s-0.962,0.168-1.195,0.506
		C133.963,189.367,133.846,189.98,133.846,190.869z M133.846,200.449v4.248c0,0.918,0.11,1.538,0.332,1.86
		c0.223,0.322,0.614,0.483,1.178,0.483s0.963-0.173,1.195-0.52c0.234-0.347,0.352-0.955,0.352-1.824v-4.248
		c0-0.879-0.111-1.489-0.333-1.831s-0.614-0.513-1.178-0.513s-0.962,0.166-1.195,0.498S133.846,199.55,133.846,200.449z"/>
</g>
</svg>
