<?xml version="1.0" encoding="utf-8"?>
<!-- Generator: Adobe Illustrator 16.0.0, SVG Export Plug-In . SVG Version: 6.00 Build 0)  -->
<!DOCTYPE svg PUBLIC "-//W3C//DTD SVG 1.1//EN" "http://www.w3.org/Graphics/SVG/1.1/DTD/svg11.dtd">
<svg version="1.1" id="Capa_1" xmlns="http://www.w3.org/2000/svg" xmlns:xlink="http://www.w3.org/1999/xlink" x="0px" y="0px"
	 width="627.936px" height="104.382px" viewBox="0 0 627.936 104.382" enable-background="new 0 0 627.936 104.382"
	 xml:space="preserve">
<g>
	
		<rect x="20.229" y="6.968" transform="matrix(-0.9997 0.0243 -0.0243 -0.9997 613.1847 63.0534)" fill="#2B1C48" width="571.961" height="56.568"/>
	<g>
		<path fill="#FFFFFF" d="M43.402,28.249c0.003,6.957,0.026,14.45,0.069,22.479l-4.719,0.115l-0.22-9.033l-5.924,0.145l0.203,8.305
			l-5.676,0.123c0.074-3.795,0.067-7.506-0.021-11.131c-0.088-3.616-0.257-7.147-0.508-10.594l5.426-0.132l-0.009,9.039l5.929,0.042
			l-0.233-9.592L43.402,28.249z"/>
		<path fill="#FFFFFF" d="M58.596,27.785l0.106,4.37l-8.217-0.048l0.124,5.082l7.375-0.334l0.29,4.195l-6.589,0.16l0.096,3.936
			l8.626-0.209l0.107,4.4l-14.388,0.194c0.081-2.905,0.086-5.831,0.014-8.776c-0.099-4.08-0.345-8.193-0.737-12.338
			C48.533,28.248,52.93,28.037,58.596,27.785z"/>
		<path fill="#FFFFFF" d="M62.688,49.796c0.011-2.956-0.02-5.933-0.093-8.929c-0.112-4.586-0.322-9.217-0.63-13.893
			c2.144-0.217,4.069-0.346,5.773-0.388c4.739-0.115,7.776,0.456,9.11,1.716c1.249,1.18,1.891,2.497,1.927,3.953
			c0.016,0.662-0.085,1.346-0.304,2.055c-0.749,2.291-2.404,3.774-4.966,4.445c1.806,0.143,3.188,0.833,4.148,2.07
			c0.916,1.197,1.435,4.255,1.554,9.172l0.016,0.666l-6.276,0.215c0.038-1.303,0.044-2.471,0.019-3.504
			c-0.076-3.13-0.463-5.037-1.158-5.725c-0.796-0.766-1.727-1.136-2.794-1.109c-0.208,0.005-0.422,0.025-0.643,0.062
			c0.16,3.148,0.413,6.129,0.758,8.943L62.688,49.796z M67.541,30.452l0.307,6.628c2.576-0.155,4.195-0.846,4.858-2.072
			c0.359-0.648,0.531-1.278,0.516-1.888c-0.013-0.526-0.164-1.04-0.453-1.54c-0.521-0.865-1.772-1.274-3.753-1.227
			C68.558,30.365,68.067,30.397,67.541,30.452z"/>
		<path fill="#FFFFFF" d="M81.292,49.343c0.011-2.956-0.02-5.933-0.093-8.929c-0.112-4.586-0.322-9.217-0.63-13.893
			c2.144-0.217,4.069-0.346,5.773-0.388c4.74-0.115,7.776,0.456,9.11,1.716c1.249,1.18,1.891,2.497,1.927,3.953
			c0.016,0.662-0.085,1.346-0.304,2.055c-0.749,2.291-2.404,3.774-4.967,4.445c1.806,0.143,3.188,0.833,4.148,2.07
			c0.916,1.197,1.435,4.255,1.554,9.172l0.016,0.666l-6.276,0.215c0.038-1.303,0.044-2.471,0.019-3.504
			c-0.076-3.13-0.463-5.037-1.159-5.725c-0.795-0.766-1.727-1.136-2.793-1.109c-0.208,0.005-0.422,0.025-0.643,0.062
			c0.16,3.149,0.413,6.13,0.758,8.944L81.292,49.343z M86.146,29.999l0.307,6.628c2.576-0.155,4.195-0.846,4.858-2.072
			c0.358-0.648,0.53-1.278,0.515-1.888c-0.013-0.526-0.164-1.04-0.453-1.54c-0.52-0.865-1.771-1.274-3.753-1.227
			C87.163,29.912,86.671,29.944,86.146,29.999z"/>
		<path fill="#FFFFFF" d="M98.348,48.524c2.391-8.886,4.315-16.416,5.773-22.591l7.792-0.283c2.068,6.338,4.435,13.557,7.1,21.657
			l-5.302,0.936l-1.827-5.832l-6.465,0.157l-1.592,6.381L98.348,48.524z M111.613,38.061c-0.774-2.213-2.018-4.855-3.729-7.924
			c-1.198,2.644-2.198,5.377-3.003,8.197L111.613,38.061z"/>
		<path fill="#FFFFFF" d="M126.366,25.469l5.234,15.937l3.192-14.963l9.48-0.152c-0.084,3.361-0.085,6.752-0.002,10.17
			c0.093,3.812,0.291,7.668,0.594,11.568l-6.041,0.457c-0.1-4.111-0.285-9.136-0.554-15.073l-3.057,13.703l-6.436,0.483
			l-4.516-14.589l0.279,14.878l-5.066,0.387c0.014-3.401-0.02-6.775-0.101-10.122c-0.102-4.174-0.278-8.294-0.53-12.36
			L126.366,25.469z"/>
		<path fill="#FFFFFF" d="M152.505,46.631l-5.167,0.483c-0.185-7.583-0.524-14.696-1.019-21.341l5.915-0.517
			C152.253,32.275,152.343,39.4,152.505,46.631z"/>
		<path fill="#FFFFFF" d="M167.436,25.135l0.106,4.369l-8.217-0.047l0.123,5.082l7.376-0.334l0.29,4.194l-6.59,0.161l0.096,3.936
			l8.627-0.21l0.106,4.4l-14.388,0.194c0.082-2.906,0.086-5.83,0.014-8.775c-0.099-4.08-0.344-8.193-0.736-12.34
			C157.373,25.598,161.771,25.387,167.436,25.135z"/>
		<path fill="#FFFFFF" d="M171.44,46.914c0.08-3.537,0.079-6.979-0.002-10.326c-0.095-3.863-0.296-7.605-0.606-11.226l6.106-0.366
			l5.896,11.531c-0.153-4.006-0.405-8.104-0.757-12.292l6.422-0.219c-0.484,6.349-0.646,12.751-0.489,19.207
			c0.021,0.868,0.05,1.735,0.084,2.603l-5.632,0.184l-6.291-12.343c0.292,4.603,0.562,8.881,0.812,12.833L171.44,46.914z"/>
		<path fill="#FFFFFF" d="M190.607,28.57l-0.1-4.074c2.039-0.01,4.056-0.037,6.051-0.086c3.104-0.076,6.146-0.196,9.123-0.361
			l0.292,4.334l-5.238,0.127c0.179,7.346,0.425,13.169,0.737,17.472l-5.855,0.36c0.125-7.342,0.201-13.329,0.227-17.961
			L190.607,28.57z"/>
		<path fill="#FFFFFF" d="M207.023,45.877c2.391-8.885,4.315-16.416,5.773-22.591l7.793-0.283c2.067,6.338,4.434,13.558,7.1,21.657
			l-5.302,0.936l-1.827-5.832l-6.465,0.158l-1.592,6.38L207.023,45.877z M220.288,35.414c-0.774-2.215-2.018-4.855-3.729-7.925
			c-1.198,2.644-2.198,5.377-3.003,8.197L220.288,35.414z"/>
		<path fill="#FFFFFF" d="M228.238,37.313l6.166-0.46c-0.066,0.643-0.094,1.222-0.082,1.738c0.058,2.346,0.868,3.498,2.435,3.461
			l0.083-0.003c1.897-0.087,2.829-0.864,2.793-2.331l-0.004-0.141c-0.106-1.557-1.939-3.043-5.494-4.455
			c-3.459-1.362-5.229-3.707-5.311-7.033c-0.002-0.104,0.002-0.207,0.014-0.311c0.012-3.483,2.588-5.318,7.729-5.506l0.166-0.004
			c4.643-0.113,7.018,2.035,7.125,6.446c0.008,0.351,0.004,0.724-0.014,1.116l-5.42,0.365c0.043-0.467,0.061-0.896,0.051-1.288
			c-0.045-1.849-0.67-2.76-1.875-2.73c-1.455,0.036-2.239,0.608-2.351,1.716c-0.011,0.156-0.013,0.311-0.009,0.466
			c0.021,0.92,0.409,1.769,1.164,2.546c0.867,0.897,2.34,1.705,4.416,2.42c2.076,0.715,3.539,1.728,4.391,3.04
			c0.604,0.946,0.921,1.962,0.947,3.047c0.01,0.413-0.021,0.839-0.094,1.273c-0.281,1.567-1.137,2.884-2.566,3.946
			c-1.43,1.063-3.371,1.672-5.821,1.824c-0.165,0.015-0.331,0.023-0.498,0.027c-2.231,0.055-4.11-0.51-5.637-1.691
			c-1.47-1.133-2.242-3.238-2.317-6.316C228.215,38.105,228.22,37.717,228.238,37.313z"/>
		<path fill="#FFFFFF" d="M255.17,44.859c0.017-2.719-0.01-5.498-0.079-8.34c-0.105-4.359-0.312-8.871-0.621-13.535
			c2.365-0.307,4.453-0.48,6.27-0.525c2.855-0.069,5.01,0.188,6.467,0.773c2.254,0.906,3.418,2.847,3.49,5.822l0.012,0.512
			c-0.059,3.268-0.998,5.381-2.819,6.34c-1.821,0.959-4.081,1.502-6.782,1.63c-0.006,0.321-0.006,0.651,0.003,0.992
			c0.042,1.715,0.209,3.741,0.502,6.081L255.17,44.859z M260.046,26.445l0.33,7.573c2.574-0.165,4.068-0.89,4.481-2.171
			c0.194-0.584,0.283-1.18,0.269-1.789c-0.018-0.713-0.174-1.443-0.47-2.191c-0.442-1.094-1.495-1.621-3.159-1.581
			C261.054,26.297,260.57,26.35,260.046,26.445z"/>
		<path fill="#FFFFFF" d="M271.9,44.297c2.391-8.886,4.314-16.416,5.772-22.591l7.792-0.283c2.068,6.338,4.436,13.558,7.101,21.657
			l-5.302,0.936l-1.826-5.832l-6.465,0.158l-1.592,6.38L271.9,44.297z M285.164,33.834c-0.774-2.215-2.018-4.855-3.729-7.925
			c-1.197,2.644-2.198,5.377-3.003,8.197L285.164,33.834z"/>
		<path fill="#FFFFFF" d="M293.404,44.176c0.012-2.956-0.021-5.932-0.094-8.928c-0.111-4.586-0.32-9.217-0.629-13.893
			c2.144-0.217,4.068-0.347,5.773-0.389c4.738-0.115,7.774,0.457,9.109,1.717c1.249,1.179,1.891,2.496,1.927,3.953
			c0.017,0.661-0.085,1.346-0.305,2.054c-0.747,2.292-2.403,3.774-4.966,4.446c1.807,0.143,3.189,0.832,4.148,2.07
			c0.916,1.197,1.435,4.254,1.555,9.172l0.017,0.666l-6.276,0.215c0.038-1.303,0.044-2.471,0.019-3.504
			c-0.076-3.131-0.463-5.038-1.158-5.725c-0.795-0.766-1.727-1.137-2.793-1.11c-0.208,0.005-0.422,0.026-0.643,0.062
			c0.159,3.148,0.412,6.13,0.758,8.943L293.404,44.176z M298.256,24.832l0.308,6.629c2.576-0.156,4.195-0.846,4.857-2.072
			c0.359-0.648,0.531-1.279,0.516-1.889c-0.012-0.526-0.164-1.039-0.453-1.539c-0.52-0.865-1.771-1.275-3.753-1.227
			C299.274,24.746,298.783,24.777,298.256,24.832z"/>
		<path fill="#FFFFFF" d="M310.459,43.357c2.391-8.885,4.315-16.416,5.772-22.59l7.793-0.283c2.067,6.337,4.436,13.557,7.1,21.656
			l-5.301,0.936l-1.826-5.832l-6.465,0.158l-1.592,6.38L310.459,43.357z M323.724,32.895c-0.774-2.214-2.018-4.855-3.729-7.925
			c-1.197,2.645-2.199,5.377-3.004,8.198L323.724,32.895z"/>
		<path fill="#FFFFFF" d="M345.246,19.812c-0.119,5.387-0.131,10.004-0.037,13.846c0.037,1.529,0.092,2.938,0.164,4.229l9.264-0.566
			l0.269,5.049l-14.836,0.608c-0.021-1.364-0.045-2.723-0.078-4.075c-0.15-6.209-0.482-12.382-0.992-18.52L345.246,19.812z"/>
		<path fill="#FFFFFF" d="M355.671,42.256c2.391-8.885,4.314-16.416,5.771-22.59l7.793-0.283c2.067,6.338,4.436,13.557,7.102,21.657
			l-5.303,0.936l-1.826-5.832l-6.465,0.157l-1.592,6.381L355.671,42.256z M368.935,31.793c-0.772-2.214-2.018-4.855-3.729-7.924
			c-1.197,2.644-2.197,5.377-3.004,8.197L368.935,31.793z"/>
		<path fill="#FFFFFF" d="M383.38,41.582c2.392-8.887,4.314-16.416,5.773-22.592l7.793-0.283c2.065,6.338,4.434,13.557,7.1,21.658
			l-5.301,0.936l-1.828-5.832l-6.465,0.157l-1.592,6.38L383.38,41.582z M396.646,31.118c-0.775-2.214-2.021-4.854-3.73-7.925
			c-1.197,2.645-2.197,5.377-3.002,8.197L396.646,31.118z"/>
		<path fill="#FFFFFF" d="M404.277,23.366l-0.101-4.075c2.039-0.008,4.056-0.037,6.051-0.085c3.104-0.075,6.146-0.196,9.123-0.362
			l0.293,4.334l-5.237,0.128c0.178,7.345,0.424,13.169,0.735,17.472l-5.854,0.359c0.125-7.342,0.201-13.328,0.227-17.96
			L404.277,23.366z"/>
		<path fill="#FFFFFF" d="M434.736,18.624l0.106,4.37l-8.217-0.048l0.123,5.082l7.377-0.335l0.289,4.195l-6.59,0.16l0.096,3.937
			l8.627-0.21l0.107,4.4l-14.39,0.195c0.08-2.906,0.086-5.832,0.015-8.776c-0.101-4.08-0.345-8.193-0.736-12.339
			C424.673,19.086,429.072,18.876,434.736,18.624z"/>
		<path fill="#FFFFFF" d="M438.74,40.404c0.08-3.537,0.08-6.98-0.002-10.326c-0.095-3.864-0.295-7.605-0.605-11.227l6.105-0.365
			l5.896,11.531c-0.151-4.008-0.403-8.104-0.756-12.293l6.422-0.219c-0.483,6.349-0.646,12.751-0.49,19.207
			c0.021,0.867,0.052,1.736,0.084,2.603l-5.631,0.185l-6.291-12.344c0.291,4.604,0.562,8.881,0.812,12.834L438.74,40.404z"/>
		<path fill="#FFFFFF" d="M473.968,25.607l-4.614,0.127l-0.011-0.418c-0.059-2.428-1.004-3.619-2.832-3.574
			c-1.955,0.047-2.877,2.312-2.768,6.797c0.123,5.051,1.209,7.552,3.262,7.502l0.021-0.001c2.051-0.06,3.047-1.324,2.985-3.794
			l-0.037-1.533l5.154-0.126l0.029,1.161c0.125,5.145-2.646,7.906-8.308,8.281c-0.166,0.014-0.332,0.023-0.498,0.027
			c-5.334,0.13-8.096-3.627-8.28-11.271c-0.185-7.479,2.469-11.285,7.957-11.42c5.17-0.125,7.813,2.312,7.938,7.312
			C473.974,24.977,473.974,25.287,473.968,25.607z"/>
		<path fill="#FFFFFF" d="M482.396,38.596l-5.166,0.482c-0.187-7.582-0.525-14.695-1.021-21.34l5.914-0.517
			C482.145,24.24,482.234,31.365,482.396,38.596z"/>
		<path fill="#FFFFFF" d="M493.654,16.662c5.836-0.143,8.844,3.506,9.022,10.943c0.183,7.448-2.852,11.248-9.102,11.4
			c-6.25,0.152-9.472-3.63-9.658-11.347C483.744,20.49,486.99,16.824,493.654,16.662z M489.779,28.338
			c-0.006,0.27-0.008,0.527-0.002,0.775c0.096,3.895,1.36,5.812,3.801,5.753c2.592-0.063,3.834-2.3,3.727-6.712
			c-0.106-4.41-1.367-6.587-3.778-6.527C491.101,21.686,489.851,23.924,489.779,28.338z M490.484,13.7
			c1.586-1.476,2.883-2.876,3.891-4.203l3.459,1.932c-1.443,1.11-3.047,2.467-4.811,4.07L490.484,13.7z"/>
		<path fill="#FFFFFF" d="M504.531,38.801c0.082-3.536,0.08-6.979-0.002-10.325c-0.095-3.864-0.295-7.606-0.605-11.227l6.105-0.366
			l5.897,11.531c-0.153-4.006-0.405-8.104-0.758-12.292l6.422-0.218c-0.483,6.348-0.646,12.75-0.487,19.206
			c0.02,0.868,0.049,1.735,0.084,2.603l-5.634,0.184l-6.291-12.343c0.293,4.603,0.562,8.881,0.812,12.833L504.531,38.801z"/>
		<path fill="#FFFFFF" d="M547.513,23.815l-4.614,0.128l-0.011-0.418c-0.059-2.428-1.004-3.619-2.834-3.574
			c-1.953,0.047-2.875,2.312-2.766,6.796c0.123,5.052,1.209,7.552,3.26,7.503l0.021-0.001c2.051-0.061,3.045-1.325,2.985-3.794
			l-0.037-1.534l5.154-0.126l0.029,1.162c0.125,5.145-2.646,7.905-8.307,8.28c-0.166,0.015-0.332,0.024-0.498,0.028
			c-5.336,0.129-8.097-3.627-8.283-11.271c-0.183-7.479,2.471-11.286,7.959-11.42c5.168-0.125,7.813,2.312,7.938,7.312
			C547.517,23.186,547.519,23.495,547.513,23.815z"/>
		<path fill="#FFFFFF" d="M559.279,15.063c5.836-0.142,8.842,3.506,9.022,10.944c0.183,7.447-2.852,11.248-9.102,11.4
			c-6.25,0.152-9.472-3.631-9.658-11.348C549.369,18.892,552.613,15.226,559.279,15.063z M555.404,26.74
			c-0.008,0.269-0.008,0.527-0.002,0.775c0.096,3.895,1.36,5.812,3.801,5.752c2.592-0.062,3.834-2.299,3.727-6.711
			c-0.106-4.41-1.367-6.588-3.778-6.529C556.724,20.087,555.476,22.324,555.404,26.74z"/>
		<path fill="#FFFFFF" d="M570.156,37.203c0.08-3.537,0.08-6.979-0.002-10.326c-0.095-3.863-0.297-7.605-0.605-11.227l6.105-0.365
			l5.896,11.531c-0.151-4.008-0.403-8.104-0.758-12.293l6.424-0.219c-0.483,6.35-0.647,12.752-0.49,19.207
			c0.021,0.868,0.05,1.736,0.084,2.604l-5.633,0.184l-6.289-12.344c0.293,4.604,0.562,8.881,0.812,12.834L570.156,37.203z"/>
	</g>
	
		<rect x="0.398" y="56.208" transform="matrix(-0.9997 0.0243 -0.0243 -0.9997 629.6931 145.324)" fill="#DC9B2F" width="627.132" height="40.559"/>
	<g>
		<g>
			<path fill="#FFFFFF" d="M43.033,72.232l0.106,4.369l-8.217-0.049l0.124,5.084l7.375-0.336l0.29,4.195l-6.589,0.162l0.096,3.936
				l8.626-0.211l0.107,4.4l-14.388,0.194c0.082-2.905,0.086-5.832,0.015-8.774c-0.099-4.08-0.345-8.193-0.737-12.341
				C32.971,72.695,37.368,72.484,43.033,72.232z"/>
			<path fill="#FFFFFF" d="M47.038,94.012c0.08-3.537,0.079-6.979-0.002-10.326c-0.094-3.862-0.296-7.604-0.606-11.226l6.106-0.367
				l5.896,11.531c-0.153-4.006-0.405-8.104-0.757-12.291l6.422-0.219c-0.484,6.348-0.646,12.75-0.489,19.206
				c0.021,0.868,0.049,1.735,0.084,2.603l-5.632,0.185l-6.291-12.343c0.292,4.604,0.562,8.88,0.812,12.833L47.038,94.012z"/>
			<path fill="#FFFFFF" d="M79.298,71.023l0.106,4.369l-8.216-0.031l0.142,5.811l7.376-0.318l0.289,4.193l-6.589,0.16l0.186,7.641
				l-5.763-0.062c0.082-2.906,0.086-5.83,0.015-8.775c-0.1-4.079-0.345-8.192-0.737-12.34
				C69.236,71.492,73.633,71.275,79.298,71.023z"/>
			<path fill="#FFFFFF" d="M90.831,70.541c5.834-0.143,8.842,3.506,9.023,10.943c0.182,7.448-2.853,11.248-9.103,11.4
				s-9.469-3.629-9.657-11.346C80.92,74.369,84.165,70.703,90.831,70.541z M86.955,82.216c-0.007,0.271-0.008,0.527-0.001,0.775
				c0.095,3.896,1.361,5.812,3.801,5.754c2.591-0.063,3.833-2.301,3.726-6.711c-0.107-4.412-1.367-6.588-3.778-6.529
				C88.277,75.564,87.028,77.802,86.955,82.216z"/>
			<path fill="#FFFFFF" d="M117.317,93.99c-0.726-0.777-1.509-1.602-2.348-2.471c-1.207,0.568-2.648,0.871-4.325,0.912
				c-6.25,0.152-9.47-3.635-9.658-11.362c-0.175-7.169,3.071-10.835,9.736-10.997c5.834-0.143,8.842,3.512,9.024,10.959
				c0.085,3.521-0.548,6.23-1.903,8.125c0.823,0.775,1.631,1.516,2.425,2.219L117.317,93.99z M106.849,81.764
				c-0.007,0.271-0.008,0.526-0.002,0.774c0.095,3.896,1.362,5.812,3.801,5.752c0.346-0.008,0.671-0.057,0.974-0.146
				c-0.882-0.89-1.812-1.812-2.792-2.771l2.913-2.506c0.769,0.84,1.524,1.652,2.264,2.441c0.281-1,0.403-2.242,0.367-3.73
				c-0.108-4.42-1.367-6.602-3.779-6.543C108.17,75.096,106.921,77.337,106.849,81.764z"/>
			<path fill="#FFFFFF" d="M137.937,69.518l0.373,15.325c0.115,4.721-2.724,7.15-8.516,7.293l-0.458,0.011
				c-4.861-0.295-7.417-2.212-7.669-5.751c-0.172-7.076-0.406-12.65-0.699-16.729l5.529-0.135c-0.082,2.338-0.084,5.082-0.007,8.232
				c0.054,2.211,0.147,4.627,0.281,7.25c0.074,1.92,1.026,2.857,2.855,2.814c0,0.01,0.007,0.014,0.021,0.014
				c1.814-0.043,2.692-1.295,2.633-3.754l-0.452-14.283L137.937,69.518z"/>
			<path fill="#FFFFFF" d="M153.142,69.55l0.106,4.369l-8.217-0.047l0.124,5.082l7.375-0.334l0.29,4.193l-6.589,0.161l0.096,3.937
				l8.625-0.211l0.107,4.4l-14.388,0.195c0.082-2.906,0.086-5.832,0.015-8.775c-0.1-4.08-0.345-8.193-0.738-12.34
				C143.08,70.013,147.478,69.802,153.142,69.55z"/>
			<path fill="#FFFFFF" d="M164.982,91.123c0.018-2.719-0.009-5.498-0.078-8.338c-0.105-4.359-0.313-8.871-0.621-13.537
				c2.364-0.306,4.453-0.479,6.27-0.524c2.854-0.067,5.01,0.188,6.466,0.772c2.255,0.906,3.418,2.848,3.491,5.822l0.012,0.512
				c-0.059,3.269-0.999,5.381-2.82,6.34c-1.82,0.959-4.08,1.502-6.781,1.631c-0.007,0.32-0.006,0.65,0.002,0.992
				c0.043,1.715,0.209,3.742,0.502,6.082L164.982,91.123z M169.859,72.71l0.33,7.572c2.574-0.166,4.068-0.891,4.48-2.172
				c0.194-0.583,0.283-1.18,0.27-1.789c-0.018-0.713-0.174-1.443-0.471-2.189c-0.442-1.096-1.494-1.623-3.158-1.582
				C170.867,72.561,170.383,72.613,169.859,72.71z"/>
			<path fill="#FFFFFF" d="M182.971,82.484l6.167-0.461c-0.068,0.643-0.096,1.223-0.083,1.738c0.058,2.346,0.868,3.498,2.435,3.461
				l0.084-0.002c1.896-0.088,2.828-0.865,2.792-2.332l-0.003-0.141c-0.107-1.558-1.939-3.043-5.496-4.455
				c-3.459-1.362-5.229-3.707-5.309-7.033c-0.003-0.104,0.002-0.207,0.013-0.311c0.013-3.484,2.589-5.318,7.729-5.507l0.166-0.004
				c4.643-0.112,7.017,2.035,7.124,6.446c0.01,0.351,0.004,0.724-0.014,1.115l-5.419,0.365c0.044-0.467,0.062-0.896,0.052-1.287
				c-0.045-1.85-0.671-2.761-1.877-2.73c-1.455,0.035-2.238,0.607-2.35,1.717c-0.011,0.154-0.014,0.311-0.01,0.467
				c0.022,0.918,0.41,1.768,1.164,2.545c0.868,0.898,2.34,1.705,4.417,2.42c2.077,0.713,3.54,1.728,4.39,3.039
				c0.605,0.946,0.922,1.963,0.948,3.047c0.011,0.414-0.021,0.84-0.094,1.273c-0.281,1.566-1.137,2.885-2.567,3.945
				c-1.43,1.064-3.37,1.673-5.82,1.824c-0.166,0.016-0.332,0.023-0.498,0.027c-2.231,0.055-4.11-0.51-5.637-1.691
				c-1.47-1.133-2.242-3.237-2.316-6.315C182.949,83.275,182.953,82.887,182.971,82.484z"/>
			<path fill="#FFFFFF" d="M207.641,89.355l-5.168,0.482c-0.185-7.582-0.524-14.695-1.019-21.34l5.916-0.518
				C207.388,75,207.478,82.125,207.641,89.355z"/>
			<path fill="#FFFFFF" d="M225.529,75.726l-4.615,0.128l-0.01-0.418c-0.059-2.429-1.003-3.619-2.832-3.574
				c-1.955,0.048-2.877,2.312-2.768,6.796c0.123,5.053,1.209,7.553,3.261,7.504l0.021-0.002c2.051-0.061,3.047-1.324,2.986-3.793
				l-0.037-1.535l5.154-0.125l0.029,1.162c0.125,5.145-2.644,7.903-8.306,8.279c-0.166,0.016-0.331,0.023-0.498,0.027
				c-5.335,0.13-8.097-3.627-8.282-11.271c-0.182-7.479,2.471-11.285,7.958-11.419c5.169-0.125,7.815,2.312,7.937,7.312
				C225.535,75.096,225.535,75.406,225.529,75.726z"/>
			<path fill="#FFFFFF" d="M237.296,66.974c5.834-0.143,8.842,3.506,9.023,10.943c0.182,7.447-2.854,11.248-9.104,11.4
				c-6.25,0.15-9.469-3.631-9.656-11.348C227.385,70.802,230.63,67.136,237.296,66.974z M233.42,78.65
				c-0.007,0.27-0.008,0.527-0.001,0.775c0.094,3.895,1.361,5.812,3.801,5.752c2.59-0.062,3.832-2.301,3.725-6.711
				s-1.366-6.588-3.777-6.529C234.742,71.998,233.494,74.234,233.42,78.65z"/>
			<path fill="#FFFFFF" d="M247.972,80.9l6.166-0.461c-0.067,0.643-0.095,1.223-0.082,1.738c0.057,2.346,0.869,3.498,2.436,3.461
				l0.082-0.002c1.898-0.088,2.828-0.865,2.793-2.332l-0.004-0.139c-0.107-1.56-1.939-3.045-5.495-4.455
				c-3.458-1.363-5.228-3.709-5.309-7.035c-0.003-0.104,0.002-0.207,0.013-0.311c0.012-3.482,2.588-5.318,7.729-5.507l0.166-0.004
				c4.643-0.112,7.018,2.035,7.125,6.446c0.008,0.352,0.004,0.724-0.015,1.117l-5.419,0.363c0.043-0.466,0.061-0.895,0.051-1.287
				c-0.045-1.85-0.67-2.76-1.875-2.729c-1.455,0.034-2.239,0.606-2.351,1.717c-0.011,0.153-0.014,0.312-0.01,0.465
				c0.022,0.921,0.411,1.769,1.165,2.546c0.867,0.899,2.34,1.705,4.416,2.42c2.076,0.715,3.54,1.729,4.39,3.041
				c0.605,0.945,0.922,1.961,0.948,3.047c0.01,0.412-0.021,0.838-0.094,1.272c-0.281,1.567-1.137,2.884-2.566,3.946
				c-1.431,1.062-3.371,1.671-5.821,1.824c-0.165,0.015-0.332,0.022-0.499,0.026c-2.23,0.056-4.109-0.509-5.635-1.692
				c-1.471-1.131-2.242-3.236-2.318-6.314C247.95,81.691,247.955,81.304,247.972,80.9z"/>
			<path fill="#FFFFFF" d="M275.981,66.031c5.834-0.143,8.842,3.506,9.022,10.943c0.182,7.447-2.853,11.248-9.102,11.4
				c-6.25,0.151-9.47-3.629-9.658-11.347C266.07,69.859,269.316,66.193,275.981,66.031z M272.105,77.707
				c-0.008,0.271-0.008,0.527-0.002,0.775c0.096,3.895,1.361,5.812,3.801,5.754c2.592-0.064,3.834-2.301,3.727-6.712
				s-1.367-6.587-3.778-6.528C273.427,71.055,272.177,73.292,272.105,77.707z"/>
			<path fill="#FFFFFF" d="M302.399,73.854l-4.614,0.127l-0.01-0.418c-0.06-2.429-1.004-3.619-2.833-3.573
				c-1.954,0.047-2.876,2.312-2.767,6.795c0.123,5.053,1.209,7.553,3.26,7.504h0.021c2.051-0.062,3.046-1.324,2.986-3.795
				l-0.038-1.533l5.155-0.127l0.028,1.162c0.126,5.145-2.644,7.905-8.306,8.28c-0.166,0.015-0.332,0.022-0.498,0.026
				c-5.335,0.131-8.096-3.627-8.282-11.27c-0.183-7.48,2.471-11.285,7.958-11.42c5.17-0.126,7.814,2.312,7.937,7.312
				C302.404,73.223,302.405,73.533,302.399,73.854z"/>
			<path fill="#FFFFFF" d="M310.828,86.843l-5.168,0.482c-0.184-7.584-0.523-14.697-1.019-21.342l5.915-0.518
				C310.574,72.486,310.666,79.611,310.828,86.843z"/>
			<path fill="#FFFFFF" d="M311.714,87.395c2.392-8.886,4.314-16.416,5.772-22.593l7.792-0.282
				c2.067,6.339,4.436,13.56,7.102,21.657l-5.302,0.938l-1.827-5.832l-6.465,0.157l-1.592,6.38L311.714,87.395z M324.979,76.932
				c-0.774-2.216-2.019-4.854-3.729-7.925c-1.197,2.644-2.198,5.377-3.003,8.197L324.979,76.932z"/>
			<path fill="#FFFFFF" d="M338.746,64.037c-0.119,5.389-0.131,10.004-0.037,13.848c0.037,1.527,0.092,2.938,0.166,4.229
				l9.262-0.566l0.271,5.049l-14.836,0.609c-0.021-1.363-0.045-2.724-0.078-4.076c-0.152-6.209-0.482-12.381-0.992-18.521
				L338.746,64.037z"/>
			<path fill="#FFFFFF" d="M370.475,65.294c2.447,1.472,3.777,4.267,3.988,8.386l0.027,1.114c0.086,3.533-0.31,6.064-1.188,7.597
				c-0.971,1.688-2.795,2.838-5.471,3.45c-1.543,0.357-3.244,0.56-5.1,0.604c-1.385,0.034-2.862-0.019-4.434-0.155
				c-0.057-3.481-0.131-7.066-0.221-10.756c-0.09-3.697-0.195-7.492-0.318-11.388 M363.023,68.453
				c-0.154,3.405-0.191,6.693-0.113,9.864c0.029,1.199,0.07,2.376,0.127,3.532c0.488,0.07,0.953,0.102,1.396,0.09
				c1.22-0.029,2.236-0.369,3.054-1.02c1.114-0.875,1.639-2.791,1.565-5.744l-0.002-0.062c-0.086-2.975-0.688-4.914-1.805-5.816
				c-0.863-0.682-1.877-1.008-3.041-0.979C363.832,68.326,363.438,68.373,363.023,68.453z"/>
			<path fill="#FFFFFF" d="M389.158,63.802l0.104,4.369l-8.217-0.049l0.125,5.082l7.375-0.334l0.289,4.195l-6.588,0.16l0.096,3.936
				l8.625-0.209l0.107,4.4l-14.39,0.195c0.082-2.906,0.089-5.832,0.017-8.777c-0.101-4.08-0.347-8.191-0.736-12.338
				C379.095,64.264,383.494,64.052,389.158,63.802z"/>
			<path fill="#FFFFFF" d="M406.533,62.387c-0.119,5.388-0.131,10.003-0.037,13.846c0.037,1.529,0.092,2.938,0.166,4.229
				l9.262-0.566l0.271,5.049l-14.836,0.607c-0.021-1.363-0.048-2.721-0.08-4.074c-0.15-6.209-0.48-12.381-0.99-18.52L406.533,62.387
				z"/>
			<path fill="#FFFFFF" d="M416.958,84.832c2.391-8.887,4.314-16.416,5.773-22.592l7.793-0.283c2.065,6.338,4.434,13.558,7.1,21.658
				l-5.301,0.936l-1.828-5.832l-6.465,0.156l-1.593,6.381L416.958,84.832z M430.224,74.367c-0.774-2.213-2.018-4.854-3.729-7.924
				c-1.197,2.645-2.197,5.377-3.002,8.197L430.224,74.367z"/>
			<path fill="#FFFFFF" d="M438.173,76.268l6.166-0.461c-0.065,0.644-0.094,1.224-0.082,1.737c0.058,2.347,0.869,3.5,2.437,3.461
				l0.082-0.002c1.897-0.088,2.828-0.864,2.793-2.332l-0.004-0.139c-0.107-1.559-1.939-3.043-5.496-4.455
				c-3.457-1.363-5.228-3.709-5.31-7.035c-0.002-0.103,0.002-0.207,0.015-0.311c0.012-3.482,2.588-5.318,7.729-5.506l0.166-0.004
				c4.643-0.113,7.018,2.035,7.125,6.447c0.008,0.351,0.004,0.723-0.016,1.115l-5.418,0.364c0.043-0.466,0.061-0.896,0.051-1.287
				c-0.045-1.851-0.67-2.76-1.875-2.729c-1.455,0.035-2.24,0.607-2.353,1.717c-0.01,0.154-0.012,0.311-0.01,0.465
				c0.023,0.92,0.412,1.768,1.166,2.545c0.867,0.9,2.34,1.706,4.416,2.42c2.076,0.715,3.539,1.729,4.392,3.041
				c0.604,0.946,0.922,1.963,0.946,3.047c0.01,0.413-0.021,0.838-0.094,1.273c-0.281,1.566-1.137,2.883-2.566,3.945
				c-1.429,1.063-3.371,1.672-5.819,1.826c-0.166,0.014-0.334,0.021-0.5,0.026c-2.23,0.054-4.109-0.511-5.636-1.692
				c-1.471-1.133-2.241-3.238-2.317-6.315C438.152,77.059,438.156,76.671,438.173,76.268z"/>
			<path fill="#FFFFFF" d="M469.423,83.492c-1.858-6.922-4.039-14.152-6.539-21.688l6.06-0.613l3.969,16.896
				c1.67-5.984,3.021-11.396,4.055-16.238l5.771,0.387c-2.683,9.439-4.683,16.409-6,20.906L469.423,83.492z"/>
			<path fill="#FFFFFF" d="M489.576,82.488l-5.168,0.482c-0.185-7.582-0.523-14.695-1.021-21.34l5.916-0.518
				C489.322,68.132,489.414,75.257,489.576,82.488z M483.802,58.085c1.586-1.476,2.883-2.877,3.892-4.203l3.457,1.931
				c-1.441,1.11-3.045,2.47-4.81,4.071L483.802,58.085z"/>
			<path fill="#FFFFFF" d="M507.462,68.858l-4.613,0.128l-0.012-0.418c-0.059-2.428-1.002-3.619-2.832-3.574
				c-1.953,0.047-2.875,2.312-2.766,6.795c0.123,5.053,1.209,7.553,3.26,7.504h0.021c2.052-0.062,3.046-1.326,2.984-3.795
				l-0.037-1.533l5.156-0.127L508.652,75c0.125,5.146-2.644,7.904-8.306,8.281c-0.166,0.014-0.332,0.023-0.498,0.027
				c-5.336,0.129-8.096-3.627-8.282-11.271c-0.183-7.479,2.471-11.285,7.959-11.42c5.17-0.125,7.813,2.312,7.936,7.312
				C507.468,68.229,507.468,68.539,507.462,68.858z"/>
			<path fill="#FFFFFF" d="M509.8,64.863l-0.1-4.074c2.037-0.01,4.055-0.037,6.051-0.086c3.104-0.076,6.146-0.197,9.121-0.361
				l0.293,4.334l-5.238,0.127c0.181,7.347,0.427,13.169,0.738,17.473l-5.857,0.359c0.127-7.342,0.203-13.329,0.229-17.961
				L509.8,64.863z"/>
			<path fill="#FFFFFF" d="M533.248,81.425l-5.166,0.482c-0.186-7.584-0.523-14.697-1.021-21.342l5.914-0.516
				C532.996,67.068,533.085,74.193,533.248,81.425z"/>
			<path fill="#FFFFFF" d="M542.197,59.408l5.233,15.936l3.191-14.963l9.479-0.152c-0.084,3.361-0.084,6.751,0,10.171
				c0.093,3.812,0.289,7.668,0.593,11.567l-6.041,0.457c-0.101-4.11-0.285-9.137-0.556-15.073l-3.055,13.702l-6.438,0.482
				l-4.515-14.588l0.277,14.879l-5.064,0.387c0.015-3.401-0.02-6.774-0.102-10.123c-0.103-4.174-0.277-8.293-0.529-12.358
				L542.197,59.408z"/>
			<path fill="#FFFFFF" d="M561.304,81.315c2.392-8.886,4.314-16.416,5.773-22.591l7.791-0.283
				c2.067,6.338,4.436,13.557,7.102,21.657l-5.303,0.937l-1.826-5.832l-6.465,0.156l-1.592,6.381L561.304,81.315z M574.57,70.852
				c-0.777-2.213-2.021-4.854-3.73-7.925c-1.197,2.645-2.199,5.378-3.002,8.197L574.57,70.852z"/>
			<path fill="#FFFFFF" d="M582.519,72.751l6.166-0.461c-0.067,0.644-0.096,1.224-0.081,1.738c0.057,2.346,0.866,3.499,2.434,3.461
				l0.084-0.002c1.896-0.088,2.828-0.865,2.793-2.332l-0.004-0.139c-0.107-1.559-1.939-3.044-5.496-4.456
				c-3.457-1.362-5.227-3.708-5.309-7.034c-0.002-0.104,0.002-0.207,0.014-0.311c0.012-3.482,2.588-5.318,7.729-5.506l0.166-0.004
				c4.644-0.113,7.019,2.035,7.125,6.446c0.009,0.351,0.002,0.724-0.016,1.116l-5.418,0.363c0.043-0.465,0.061-0.896,0.051-1.286
				c-0.045-1.851-0.672-2.761-1.875-2.729c-1.457,0.034-2.24,0.606-2.352,1.717c-0.01,0.153-0.013,0.311-0.01,0.465
				c0.022,0.92,0.411,1.768,1.166,2.545c0.866,0.9,2.34,1.705,4.416,2.42c2.075,0.715,3.538,1.729,4.389,3.041
				c0.604,0.945,0.922,1.962,0.949,3.047c0.01,0.413-0.021,0.838-0.095,1.273c-0.28,1.566-1.137,2.883-2.565,3.945
				c-1.43,1.062-3.371,1.672-5.82,1.824c-0.168,0.016-0.334,0.023-0.5,0.027c-2.229,0.054-4.109-0.51-5.635-1.692
				c-1.471-1.132-2.242-3.237-2.318-6.315C582.498,73.542,582.501,73.154,582.519,72.751z"/>
		</g>
	</g>
</g>
</svg>
