<?xml version="1.0" encoding="utf-8"?>
<!-- Generator: Adobe Illustrator 16.0.0, SVG Export Plug-In . SVG Version: 6.00 Build 0)  -->
<!DOCTYPE svg PUBLIC "-//W3C//DTD SVG 1.1//EN" "http://www.w3.org/Graphics/SVG/1.1/DTD/svg11.dtd">
<svg version="1.1" id="Capa_1" xmlns="http://www.w3.org/2000/svg" xmlns:xlink="http://www.w3.org/1999/xlink" x="0px" y="0px"
	 width="520.914px" height="89.607px" viewBox="0 0 520.914 89.607" enable-background="new 0 0 520.914 89.607"
	 xml:space="preserve">
<g>
	<g>
		<g>
			<g>
				<polygon fill="#331842" points="520.914,72.222 42.416,72.222 42.416,17.387 482.249,17.387 				"/>
				<g>
					<g enable-background="new    ">
						<path fill="#FFFFFF" d="M90.216,37.968v2.876l-5.406-0.153v3.825l4.858-0.092l0.123,2.764h-4.338v5.029l-3.791-0.133
							c0.1-1.91,0.15-3.835,0.15-5.773c0-2.686-0.096-5.396-0.288-8.13C83.588,38.114,86.484,38.042,90.216,37.968z"/>
						<path fill="#FFFFFF" d="M97.811,37.835c3.841,0,5.761,2.448,5.761,7.345c0,4.904-2.057,7.355-6.172,7.355
							c-4.114,0-6.171-2.54-6.171-7.62C91.229,40.195,93.422,37.835,97.811,37.835z M95.074,45.454
							c-0.009,0.178-0.014,0.348-0.014,0.511c0,2.563,0.803,3.846,2.409,3.846c1.706,0,2.559-1.452,2.559-4.356
							c0-2.903-0.793-4.355-2.381-4.355C96.05,41.099,95.192,42.551,95.074,45.454z"/>
						<path fill="#FFFFFF" d="M104.667,52.728c0.055-1.944,0.083-3.902,0.083-5.875c0-3.02-0.064-6.07-0.192-9.15
							c1.414-0.109,2.682-0.163,3.804-0.163c3.12,0,5.109,0.425,5.967,1.275c0.803,0.795,1.204,1.673,1.204,2.632
							c0,0.435-0.078,0.884-0.232,1.347c-0.529,1.496-1.642,2.445-3.339,2.845c1.186,0.123,2.084,0.6,2.696,1.429
							c0.584,0.803,0.876,2.822,0.876,6.06v0.438l-4.133,0.041c0.045-0.856,0.068-1.626,0.068-2.306c0-2.061-0.224-3.322-0.67-3.785
							c-0.511-0.516-1.118-0.774-1.82-0.774c-0.137,0-0.279,0.011-0.424,0.03c0.055,2.074,0.173,4.039,0.355,5.896L104.667,52.728z
							 M108.17,40.079l0.096,4.366c1.697-0.061,2.773-0.49,3.229-1.285c0.247-0.422,0.37-0.833,0.37-1.234
							c0-0.347-0.091-0.687-0.273-1.02c-0.329-0.578-1.145-0.867-2.45-0.867C108.84,40.038,108.517,40.052,108.17,40.079z"/>
						<path fill="#FFFFFF" d="M116.805,40.814v-2.683c1.341,0.027,2.668,0.041,3.982,0.041c2.043,0,4.046-0.031,6.007-0.092
							l0.123,2.856h-3.448c0,4.835,0.068,8.671,0.205,11.507l-3.859,0.143c0.201-4.828,0.347-8.766,0.438-11.812L116.805,40.814z"/>
						<path fill="#FFFFFF" d="M127.329,52.463c1.715-5.808,3.102-10.731,4.16-14.771l5.132-0.061c1.259,4.203,2.7,8.99,4.324,14.362
							l-3.503,0.531l-1.108-3.867h-4.256l-1.15,4.173L127.329,52.463z M136.223,45.792c-0.474-1.47-1.25-3.228-2.326-5.274
							c-0.83,1.721-1.533,3.502-2.107,5.345L136.223,45.792z"/>
						<path fill="#FFFFFF" d="M145.487,37.529c-0.164,3.543-0.246,6.58-0.246,9.109c0,1.007,0.014,1.936,0.041,2.785l6.103-0.225
							l0.096,3.326l-9.771,0.162c0.009-0.896,0.014-1.791,0.014-2.682c0-4.088-0.119-8.154-0.356-12.201L145.487,37.529z"/>
						<path fill="#FFFFFF" d="M161.581,38.182v2.876l-5.406-0.163v3.346l4.858-0.102l0.123,2.765h-4.338v2.591h5.679v2.897
							l-9.469-0.102c0.1-1.912,0.15-3.836,0.15-5.774c0-2.686-0.096-5.396-0.288-8.13C154.953,38.324,157.849,38.257,161.581,38.182
							z"/>
						<path fill="#FFFFFF" d="M174.321,43.405l-3.038,0.01v-0.275c0-1.598-0.602-2.397-1.806-2.397c-1.286,0-1.93,1.476-1.93,4.427
							c0,3.326,0.675,4.988,2.025,4.988h0.014c1.35-0.006,2.025-0.822,2.025-2.448v-1.01h3.394v0.765
							c0,3.387-1.866,5.158-5.597,5.314c-0.109,0.008-0.219,0.011-0.329,0.011c-3.512,0-5.269-2.517-5.269-7.548
							c0-4.924,1.807-7.386,5.419-7.386c3.402,0,5.104,1.646,5.104,4.938C174.334,42.99,174.33,43.194,174.321,43.405z"/>
						<path fill="#FFFFFF" d="M179.658,52.085l-3.407,0.234c0-4.991-0.109-9.677-0.329-14.056l3.9-0.245
							C179.722,42.636,179.667,47.325,179.658,52.085z"/>
						<path fill="#FFFFFF" d="M185.898,37.743l3.188,10.569l2.34-9.793l6.24,0.051c-0.11,2.21-0.165,4.441-0.165,6.691
							c0,2.51,0.068,5.05,0.206,7.62l-3.982,0.204c0-2.707-0.041-6.016-0.123-9.925l-2.23,8.966l-4.242,0.215l-2.737-9.671
							l-0.055,9.793l-3.339,0.173c0.063-2.236,0.096-4.457,0.096-6.66c0-2.748-0.05-5.461-0.15-8.141L185.898,37.743z"/>
						<path fill="#FFFFFF" d="M202.757,52.085l-3.407,0.234c0-4.991-0.109-9.677-0.329-14.056l3.9-0.245
							C202.821,42.636,202.767,47.325,202.757,52.085z"/>
						<path fill="#FFFFFF" d="M212.925,38.182v2.876l-5.406-0.163v3.346l4.858-0.102l0.123,2.765h-4.338v2.591h5.679v2.897
							l-9.469-0.102c0.1-1.912,0.15-3.836,0.15-5.774c0-2.686-0.096-5.396-0.288-8.13C206.297,38.324,209.194,38.257,212.925,38.182
							z"/>
						<path fill="#FFFFFF" d="M215.21,52.575c0.11-2.326,0.165-4.591,0.165-6.794c0-2.543-0.073-5.009-0.219-7.396l4.023-0.143
							l3.695,7.681c-0.037-2.638-0.137-5.338-0.301-8.1l4.229-0.041c-0.419,4.169-0.629,8.378-0.629,12.629
							c0,0.57,0.004,1.142,0.014,1.713l-3.708,0.031l-3.941-8.223c0.118,3.033,0.228,5.852,0.328,8.457L215.21,52.575z"/>
						<path fill="#FFFFFF" d="M228.115,40.814v-2.683c1.341,0.027,2.668,0.041,3.982,0.041c2.043,0,4.046-0.031,6.007-0.092
							l0.123,2.856h-3.448c0,4.835,0.068,8.671,0.205,11.507l-3.859,0.143c0.201-4.828,0.347-8.766,0.438-11.812L228.115,40.814z"/>
						<path fill="#FFFFFF" d="M245.823,37.835c3.841,0,5.761,2.448,5.761,7.345c0,4.904-2.057,7.355-6.172,7.355
							c-4.114,0-6.171-2.54-6.171-7.62C239.241,40.195,241.435,37.835,245.823,37.835z M243.086,45.454
							c-0.009,0.178-0.014,0.348-0.014,0.511c0,2.563,0.803,3.846,2.409,3.846c1.706,0,2.559-1.452,2.559-4.356
							c0-2.903-0.793-4.355-2.381-4.355C244.062,41.099,243.205,42.551,243.086,45.454z"/>
						<path fill="#FFFFFF" d="M257.673,52.484c0.018-2.292,0.027-4.652,0.027-7.08c0-2.434-0.009-4.933-0.027-7.497
							c1.049-0.095,2.016-0.143,2.901-0.143c2.462,0,4.279,0.367,5.447,1.102c1.587,1.007,2.417,2.867,2.49,5.58v0.734
							c0,2.326-0.301,3.986-0.903,4.978c-0.666,1.096-1.884,1.822-3.653,2.184c-1.022,0.211-2.145,0.316-3.367,0.316
							C259.676,52.657,258.704,52.599,257.673,52.484z M261.067,40.824c-0.155,2.237-0.233,4.4-0.233,6.488
							c0,0.789,0.009,1.564,0.027,2.326c0.32,0.054,0.625,0.081,0.917,0.081c0.803,0,1.478-0.208,2.025-0.622
							c0.748-0.558,1.121-1.809,1.121-3.754v-0.041c-0.009-1.958-0.373-3.244-1.094-3.856c-0.557-0.462-1.219-0.694-1.984-0.694
							C261.602,40.752,261.341,40.776,261.067,40.824z"/>
						<path fill="#FFFFFF" d="M278.338,38.182v2.876l-5.406-0.163v3.346l4.858-0.102l0.123,2.765h-4.338v2.591h5.679v2.897
							l-9.469-0.102c0.1-1.912,0.15-3.836,0.15-5.774c0-2.686-0.096-5.396-0.288-8.13C271.709,38.324,274.605,38.257,278.338,38.182
							z"/>
						<path fill="#FFFFFF" d="M284.687,37.529c-0.164,3.543-0.246,6.58-0.246,9.109c0,1.007,0.014,1.936,0.041,2.785l6.103-0.225
							l0.096,3.326l-9.77,0.162c0.008-0.896,0.014-1.791,0.014-2.682c0-4.088-0.119-8.154-0.356-12.201L284.687,37.529z"/>
						<path fill="#FFFFFF" d="M297.194,40.814v-2.683c1.341,0.027,2.669,0.041,3.982,0.041c2.044,0,4.046-0.031,6.007-0.092
							l0.123,2.856h-3.447c0,4.835,0.068,8.671,0.205,11.507l-3.859,0.143c0.201-4.828,0.347-8.766,0.438-11.812L297.194,40.814z"/>
						<path fill="#FFFFFF" d="M307.718,52.463c1.715-5.808,3.102-10.731,4.16-14.771l5.132-0.061c1.259,4.203,2.7,8.99,4.324,14.362
							l-3.504,0.531l-1.108-3.867h-4.256l-1.149,4.173L307.718,52.463z M316.612,45.792c-0.475-1.47-1.25-3.228-2.326-5.274
							c-0.83,1.721-1.532,3.502-2.107,5.345L316.612,45.792z"/>
						<path fill="#FFFFFF" d="M325.878,37.529c-0.165,3.543-0.247,6.58-0.247,9.109c0,1.007,0.014,1.936,0.041,2.785l6.104-0.225
							l0.096,3.326l-9.771,0.162c0.009-0.896,0.014-1.791,0.014-2.682c0-4.088-0.119-8.154-0.355-12.201L325.878,37.529z"/>
						<path fill="#FFFFFF" d="M341.971,38.182v2.876l-5.405-0.163v3.346l4.857-0.102l0.123,2.765h-4.338v2.591h5.68v2.897
							l-9.47-0.102c0.1-1.912,0.15-3.836,0.15-5.774c0-2.686-0.096-5.396-0.287-8.13C335.343,38.324,338.239,38.257,341.971,38.182z
							"/>
						<path fill="#FFFFFF" d="M344.256,52.575c0.109-2.326,0.164-4.591,0.164-6.794c0-2.543-0.073-5.009-0.219-7.396l4.022-0.143
							l3.695,7.681c-0.037-2.638-0.137-5.338-0.301-8.1l4.229-0.041c-0.42,4.169-0.63,8.378-0.63,12.629
							c0,0.57,0.005,1.142,0.014,1.713l-3.708,0.031l-3.941-8.223c0.118,3.033,0.228,5.852,0.328,8.457L344.256,52.575z"/>
						<path fill="#FFFFFF" d="M357.16,40.814v-2.683c1.341,0.027,2.668,0.041,3.981,0.041c2.044,0,4.046-0.031,6.008-0.092
							l0.123,2.856h-3.448c0,4.835,0.068,8.671,0.205,11.507l-3.859,0.143c0.201-4.828,0.347-8.766,0.438-11.812L357.16,40.814z"/>
						<path fill="#FFFFFF" d="M374.868,37.835c3.84,0,5.761,2.448,5.761,7.345c0,4.904-2.058,7.355-6.172,7.355
							s-6.172-2.54-6.172-7.62C368.285,40.195,370.479,37.835,374.868,37.835z M372.131,45.454
							c-0.009,0.178-0.014,0.348-0.014,0.511c0,2.563,0.803,3.846,2.408,3.846c1.706,0,2.56-1.452,2.56-4.356
							c0-2.903-0.794-4.355-2.382-4.355C373.107,41.099,372.249,42.551,372.131,45.454z"/>
						<path fill="#FFFFFF" d="M397.775,38.243c-0.109,4.577-0.215,9.507-0.314,14.792h-3.106v-5.947h-3.9v5.468l-3.735-0.011
							c0.109-2.495,0.164-4.938,0.164-7.324c0-2.38-0.055-4.706-0.164-6.978h3.571l-0.15,5.947l3.9,0.122v-6.314L397.775,38.243z"/>
						<path fill="#FFFFFF" d="M410.256,37.916v10.089c0,3.107-1.906,4.662-5.72,4.662h-0.301c-3.193-0.271-4.845-1.574-4.954-3.907
							c0-4.658-0.064-8.331-0.191-11.017h3.64c-0.091,1.537-0.137,3.343-0.137,5.417c0,1.455,0.022,3.046,0.068,4.774
							c0.019,1.265,0.63,1.897,1.834,1.897c0,0.007,0.004,0.01,0.014,0.01c1.194,0,1.792-0.809,1.792-2.428l-0.068-9.405
							L410.256,37.916z"/>
						<path fill="#FFFFFF" d="M416.332,37.743l3.188,10.569l2.34-9.793l6.24,0.051c-0.109,2.21-0.164,4.441-0.164,6.691
							c0,2.51,0.068,5.05,0.205,7.62l-3.981,0.204c0-2.707-0.041-6.016-0.124-9.925l-2.23,8.966l-4.242,0.215l-2.736-9.671
							l-0.055,9.793l-3.34,0.173c0.064-2.236,0.097-4.457,0.097-6.66c0-2.748-0.051-5.461-0.151-8.141L416.332,37.743z"/>
						<path fill="#FFFFFF" d="M428.553,52.463c1.715-5.808,3.102-10.731,4.16-14.771l5.132-0.061c1.259,4.203,2.7,8.99,4.324,14.362
							l-3.504,0.531l-1.108-3.867h-4.256l-1.149,4.173L428.553,52.463z M437.447,45.792c-0.475-1.47-1.25-3.228-2.326-5.274
							c-0.83,1.721-1.532,3.502-2.107,5.345L437.447,45.792z"/>
						<path fill="#FFFFFF" d="M442.647,52.575c0.109-2.326,0.164-4.591,0.164-6.794c0-2.543-0.073-5.009-0.219-7.396l4.022-0.143
							l3.695,7.681c-0.037-2.638-0.137-5.338-0.301-8.1l4.229-0.041c-0.42,4.169-0.63,8.378-0.63,12.629
							c0,0.57,0.005,1.142,0.014,1.713l-3.708,0.031l-3.941-8.223c0.118,3.033,0.228,5.852,0.328,8.457L442.647,52.575z"/>
						<path fill="#FFFFFF" d="M461.833,37.835c3.84,0,5.761,2.448,5.761,7.345c0,4.904-2.058,7.355-6.172,7.355
							s-6.172-2.54-6.172-7.62C455.25,40.195,457.444,37.835,461.833,37.835z M459.096,45.454c-0.009,0.178-0.014,0.348-0.014,0.511
							c0,2.563,0.803,3.846,2.408,3.846c1.706,0,2.56-1.452,2.56-4.356c0-2.903-0.794-4.355-2.382-4.355
							C460.072,41.099,459.214,42.551,459.096,45.454z"/>
					</g>
				</g>
			</g>
		</g>
	</g>
	<g>
		<path fill="#A0C219" d="M0.18,71.169c0.014,0.045,0.029,0.086,0.044,0.129c0.084,0.199,0.189,0.361,0.317,0.506
			c0,0,0.008,0.004,0.012,0.012c0.408,0.427,1.059,0.619,2.019,0.601c4.44-0.078,10.706-0.021,15.15-0.015
			c0.272,0,0.533,0.005,0.771,0.015h0.004c2.589,0.104,2.801,0.766,1.787,3.586c-2.018,5.633,0.881,11.488,6.493,13.131
			c0.81,0.238,1.61,0.383,2.4,0.443c1.583,0.118,3.106-0.097,4.497-0.584c4.626-1.625,7.773-6.259,6.644-11.5
			c-1.104-5.113-1.104-5.103,4.385-5.076c4.032,0.02,8.062,0.006,11.95,0.006V55.486c0.324-1.641,1.363-1.903,3.567-1.146
			c5.399,1.859,10.819-0.078,13.235-4.728c1.968-3.79,1.398-8.633-1.391-11.821c-2.714-3.103-7.548-4.29-11.572-2.834
			c-2.382,0.86-3.405,0.84-3.791-0.603l0.012,0.005V17.478c-0.303-0.05-0.598-0.141-0.893-0.141h-0.182
			c-4.531-0.029-9.069-0.02-13.602-0.083c-0.729-0.012-1.27-0.079-1.654-0.234c-0.927-0.367-0.946-1.225-0.549-2.91
			c0.487-2.094,0.934-4.447,0.461-6.466c-1.201-5.136-5.93-8.087-11.096-7.589c-0.877,0.083-1.769,0.269-2.66,0.56
			c-5.605,1.828-8.122,7.514-5.927,13.382c0.915,2.462,0.544,3.023-2.089,3.023c-0.326,0-0.624,0.096-0.9,0.249
			c-0.865,0-1.719,0-2.57-0.004h-2.021c-0.521-0.003-1.039-0.003-1.553,0h-0.567c-0.431,0-0.862,0-1.292,0.004
			c-0.223,0-0.446,0-0.67,0.005c-0.411,0-0.82,0.003-1.231,0.008c-0.223,0-0.449,0-0.673,0.004C6.614,17.29,6.184,17.293,5.757,17.3
			c-0.196,0.005-0.397,0.005-0.594,0.009c-0.419,0.003-2.664,0.011-3.083,0.022c-0.204,0-0.405,0.007-0.609,0.01
			c-0.457,0.009-1.277,1.021-1.291,1.577C0.074,23.426,0.118,28.398,0.118,33.3c1.497,0.084,4.603-0.248,5.892-0.245
			c0.639,0,1.246,0.042,1.832,0.117c7.602,0.972,10.67,7.869,9.422,14.199c-0.963,4.901-5.166,8.692-9.896,9.198
			c-0.916,0.099-3.673,0.072-4.606-0.092c-1.649-0.28-2.612,0.062-2.714,1.754v0.709c0.008,3.627,0.008,7.252-0.046,10.879
			C-0.01,70.357,0.047,70.806,0.18,71.169z"/>
		<g>
			<g enable-background="new    ">
				<path fill="#FFFFFF" d="M24.253,58.636h7.148c2.202,0,3.303,1.352,3.303,4.053v0.213c-0.193,2.264-1.116,3.434-2.769,3.511
					c-3.3,0-5.902,0.046-7.806,0.136v-2.579c1.089,0.064,2.369,0.097,3.838,0.097c1.031,0,2.159-0.016,3.382-0.049
					c0.896-0.012,1.345-0.445,1.345-1.299c0.005,0,0.007-0.004,0.007-0.01c0-0.847-0.573-1.27-1.72-1.27l-6.664,0.048L24.253,58.636
					z"/>
				<path fill="#FFFFFF" d="M27.239,55.999l1.178-0.098c-0.626-0.271-0.944-0.985-0.954-2.143V53.72
					c0-1.138,0.332-1.913,0.997-2.327c0.453-0.284,1.513-0.427,3.18-0.427c0.819,0,1.788,0.036,2.906,0.107v2.346
					c-1.489-0.084-2.643-0.125-3.462-0.125c-0.41,0-0.737,0.009-0.983,0.028c-0.723,0.065-1.084,0.375-1.084,0.931
					c0,0.557,0.193,0.905,0.578,1.047l5.24-0.096l0.015,2.277c-2.216,0-4.706,0.101-7.466,0.301L27.239,55.999z"/>
				<path fill="#FFFFFF" d="M25.764,47.447c0.294,0,0.544,0.139,0.751,0.416c0.208,0.279,0.311,0.615,0.311,1.01
					c0,0.387-0.104,0.721-0.311,0.998c-0.207,0.277-0.458,0.417-0.751,0.417c-0.289,0-0.537-0.14-0.745-0.417
					c-0.207-0.277-0.311-0.611-0.311-0.998c0-0.395,0.104-0.73,0.311-1.01C25.227,47.585,25.475,47.447,25.764,47.447z
					 M34.886,50.044c-2.819,0.046-5.255,0.068-7.308,0.068l-0.108-2.443c1.966,0.078,3.92,0.117,5.862,0.117
					c0.521,0,1.039-0.004,1.554-0.01V50.044z"/>
				<path fill="#FFFFFF" d="M24.622,39.583c1.629,0.039,3.337,0.058,5.125,0.058c1.629,0,3.325-0.016,5.088-0.048l0.007,2.298
					l-1.106,0.078c0.535,0.479,0.802,1.115,0.802,1.91c0,1.984-1.132,2.977-3.397,2.977c-0.048,0-0.096-0.003-0.145-0.01
					c-2.27-0.039-3.404-1.021-3.404-2.947c0-0.078,0.002-0.158,0.007-0.243c0.029-0.659,0.296-1.192,0.802-1.6
					c-1.07,0-2.33,0.036-3.78,0.106V39.583z M32.255,42.007l-2.501,0.048c-0.38,0.375-0.571,0.76-0.571,1.154
					c0,0.162,0.031,0.323,0.094,0.485c0.198,0.511,0.751,0.766,1.663,0.766c0.106,0,0.214-0.003,0.325-0.01
					c1.104-0.064,1.687-0.395,1.749-0.989c0.005-0.058,0.007-0.116,0.007-0.174C33.021,42.77,32.766,42.343,32.255,42.007z"/>
				<path fill="#FFFFFF" d="M27.217,35.065c0.087-2.127,0.884-3.19,2.393-3.19h5.132l0.029,2.259l-0.687,0.078
					c0.395,0.465,0.593,1.083,0.593,1.852c0,0.33-0.039,0.685-0.116,1.066c-0.212,1.145-0.872,1.716-1.98,1.716
					c-0.135,0-0.279-0.01-0.434-0.029c-1.142-0.129-1.713-1.219-1.713-3.268c0-0.395,0.022-0.828,0.065-1.299H29.66
					c-0.68,0-1.02,0.288-1.02,0.863v0.039c-0.004,0.045-0.007,0.087-0.007,0.126c0,0.627,0.38,0.94,1.142,0.94h0.108l-0.145,2.308
					c-1.682,0-2.522-1.086-2.522-3.258V35.065z M32.927,34.25h-1.272c-0.043,0.278-0.065,0.53-0.065,0.756
					c0,0.588,0.147,0.989,0.441,1.202c0.178,0.129,0.344,0.194,0.499,0.194c0.193,0,0.364-0.104,0.513-0.31
					c0.116-0.162,0.173-0.372,0.173-0.63C33.216,35.133,33.12,34.729,32.927,34.25z"/>
				<path fill="#FFFFFF" d="M24.622,23.768c1.629,0.039,3.337,0.058,5.125,0.058c1.629,0,3.325-0.016,5.088-0.048l0.007,2.298
					l-1.106,0.078c0.535,0.479,0.802,1.115,0.802,1.91c0,1.985-1.132,2.977-3.397,2.977c-0.048,0-0.096-0.003-0.145-0.01
					c-2.27-0.039-3.404-1.021-3.404-2.948c0-0.078,0.002-0.158,0.007-0.243c0.029-0.659,0.296-1.192,0.802-1.6
					c-1.07,0-2.33,0.036-3.78,0.106V23.768z M32.255,26.193l-2.501,0.048c-0.38,0.375-0.571,0.76-0.571,1.154
					c0,0.162,0.031,0.323,0.094,0.485c0.198,0.511,0.751,0.766,1.663,0.766c0.106,0,0.214-0.003,0.325-0.01
					c1.104-0.064,1.687-0.395,1.749-0.989c0.005-0.058,0.007-0.116,0.007-0.174C33.021,26.955,32.766,26.529,32.255,26.193z"/>
			</g>
		</g>
		<g>
			<g enable-background="new    ">
				<path fill="#FFFFFF" d="M37.963,49.61l-0.375-3.176c2.043-3.33,4.408-6.776,7.094-10.337l5.739,0.239L50.35,46.593l2.513,0.041
					v3.175h-2.442v5.594l-4.313-0.12l0.053-5.54L37.963,49.61z M46.233,46.634l0.054-6.856c-1.308,2.25-2.698,4.513-4.171,6.79
					L46.233,46.634z"/>
			</g>
		</g>
	</g>
</g>
</svg>
