<?xml version="1.0" encoding="utf-8"?>
<!-- Generator: Adobe Illustrator 16.0.0, SVG Export Plug-In . SVG Version: 6.00 Build 0)  -->
<!DOCTYPE svg PUBLIC "-//W3C//DTD SVG 1.1//EN" "http://www.w3.org/Graphics/SVG/1.1/DTD/svg11.dtd">
<svg version="1.1" id="Capa_1" xmlns="http://www.w3.org/2000/svg" xmlns:xlink="http://www.w3.org/1999/xlink" x="0px" y="0px"
	 width="406.146px" height="89.607px" viewBox="0 0 406.146 89.607" enable-background="new 0 0 406.146 89.607"
	 xml:space="preserve">
<g>
	<polygon fill="#DC9B2F" points="406.146,72.041 56.896,72.041 56.896,17.206 367.48,17.206 	"/>
	<g>
		<path fill-rule="evenodd" clip-rule="evenodd" fill="#2B1C48" d="M72.615,18.439c-0.016-0.045-0.031-0.088-0.045-0.129
			c-0.084-0.201-0.189-0.363-0.318-0.506c0,0-0.008-0.006-0.012-0.012c-0.408-0.428-1.059-0.619-2.018-0.602
			c-4.441,0.078-8.881,0.023-13.326,0.015c-0.271,0-0.533-0.003-0.77-0.015h-0.005c-2.589-0.101-2.8-0.764-1.788-3.586
			c2.02-5.632-0.88-11.486-6.492-13.13c-0.809-0.239-1.609-0.382-2.4-0.442c-1.584-0.121-3.105,0.094-4.498,0.582
			c-4.625,1.625-7.773,6.259-6.643,11.5c1.104,5.115,1.104,5.104-4.385,5.076c-4.031-0.018-8.061-0.004-11.949-0.004v16.934
			c-0.324,1.641-1.365,1.906-3.568,1.146c-5.4-1.858-10.82,0.08-13.234,4.729c-1.969,3.789-1.398,8.631,1.391,11.822
			c2.713,3.102,7.547,4.287,11.572,2.834c2.381-0.863,3.404-0.84,3.791,0.6c-0.005,0-0.008-0.004-0.012-0.004v16.883
			c0.303,0.049,0.598,0.141,0.893,0.141h0.18c4.533,0.029,9.07,0.018,13.602,0.082c0.73,0.012,1.271,0.08,1.656,0.234
			c0.926,0.367,0.945,1.225,0.549,2.91c-0.488,2.094-0.934,4.447-0.461,6.467c1.201,5.135,5.93,8.088,11.096,7.588
			c0.875-0.084,1.768-0.268,2.659-0.559c5.606-1.828,8.122-7.514,5.927-13.383c-0.914-2.459-0.545-3.023,2.09-3.023
			c0.326,0,0.623-0.094,0.9-0.25c0.865,0,1.719,0,2.568,0.004h2.023c0.52,0.004,1.039,0.004,1.553,0h0.566
			c0.432,0,0.861,0,1.293-0.004c0.223,0,0.445,0,0.668-0.002c0.412,0,0.82-0.004,1.232-0.01c0.223,0,0.449,0,0.674-0.004
			c0.43-0.002,0.861-0.006,1.287-0.014c0.197-0.004,0.398-0.004,0.594-0.008c0.42-0.004,0.84-0.012,1.258-0.021
			c0.205,0,0.406-0.008,0.609-0.012c0.459-0.008,1.277-1.021,1.293-1.576c0.105-4.51,0.061-9.025,0.061-13.928
			c-1.496-0.084-2.777-0.207-4.066-0.211c-0.639,0-1.248-0.043-1.834-0.117c-7.6-0.971-10.668-7.867-9.42-14.199
			c0.963-4.9,5.166-8.691,9.896-9.197c0.914-0.099,1.848-0.072,2.781,0.09c1.648,0.283,2.611-0.061,2.714-1.754v-0.707
			c-0.007-3.627-0.007-7.252,0.046-10.881C72.805,19.25,72.747,18.803,72.615,18.439z"/>
		<g>
			<g>
				<path fill="#FFFFFF" d="M22.429,58.633h7.148c2.202,0,3.303,1.352,3.303,4.054v0.213c-0.193,2.263-1.116,3.433-2.769,3.51
					c-3.3,0-5.902,0.046-7.806,0.136v-2.579c1.089,0.065,2.369,0.098,3.838,0.098c1.031,0,2.159-0.017,3.382-0.049
					c0.896-0.013,1.345-0.446,1.345-1.3c0.005,0,0.007-0.003,0.007-0.009c0-0.848-0.573-1.271-1.72-1.271l-6.664,0.049
					L22.429,58.633z"/>
				<path fill="#FFFFFF" d="M25.415,55.996l1.178-0.097c-0.626-0.271-0.944-0.986-0.954-2.144v-0.038
					c0-1.138,0.333-1.914,0.998-2.327c0.453-0.285,1.513-0.427,3.18-0.427c0.819,0,1.788,0.035,2.906,0.106v2.347
					c-1.489-0.084-2.643-0.126-3.462-0.126c-0.41,0-0.737,0.01-0.983,0.029c-0.723,0.064-1.084,0.375-1.084,0.931
					s0.193,0.905,0.578,1.047l5.24-0.097l0.015,2.278c-2.216,0-4.706,0.101-7.466,0.301L25.415,55.996z"/>
				<path fill="#FFFFFF" d="M23.94,47.444c0.294,0,0.544,0.139,0.751,0.417c0.208,0.277,0.311,0.614,0.311,1.008
					c0,0.388-0.104,0.721-0.311,0.999c-0.207,0.278-0.458,0.417-0.751,0.417c-0.289,0-0.537-0.139-0.745-0.417
					c-0.207-0.278-0.311-0.611-0.311-0.999c0-0.394,0.104-0.73,0.311-1.008C23.403,47.583,23.651,47.444,23.94,47.444z
					 M33.062,50.043c-2.819,0.045-5.255,0.067-7.308,0.067l-0.108-2.443c1.966,0.078,3.92,0.116,5.862,0.116
					c0.521,0,1.039-0.003,1.554-0.01V50.043z"/>
				<path fill="#FFFFFF" d="M22.798,39.581c1.629,0.038,3.337,0.058,5.125,0.058c1.629,0,3.325-0.016,5.088-0.048l0.007,2.298
					l-1.106,0.077c0.535,0.479,0.802,1.115,0.802,1.91c0,1.984-1.132,2.977-3.397,2.977c-0.048,0-0.096-0.003-0.145-0.01
					c-2.27-0.038-3.404-1.021-3.404-2.947c0-0.077,0.002-0.158,0.007-0.242c0.029-0.659,0.296-1.193,0.802-1.601
					c-1.07,0-2.33,0.036-3.78,0.107V39.581z M30.431,42.005l-2.501,0.048c-0.381,0.375-0.571,0.76-0.571,1.154
					c0,0.162,0.031,0.323,0.094,0.484c0.198,0.511,0.751,0.767,1.663,0.767c0.106,0,0.214-0.003,0.325-0.01
					c1.104-0.064,1.687-0.395,1.749-0.989c0.005-0.058,0.007-0.116,0.007-0.175C31.197,42.768,30.941,42.341,30.431,42.005z"/>
				<path fill="#FFFFFF" d="M25.393,35.062c0.087-2.126,0.884-3.189,2.393-3.189h5.132l0.029,2.259l-0.687,0.078
					c0.395,0.465,0.593,1.082,0.593,1.852c0,0.33-0.039,0.686-0.116,1.066c-0.212,1.145-0.872,1.717-1.98,1.717
					c-0.135,0-0.279-0.01-0.434-0.029c-1.142-0.129-1.713-1.219-1.713-3.268c0-0.395,0.022-0.827,0.065-1.3h-0.838
					c-0.68,0-1.02,0.288-1.02,0.863v0.039c-0.004,0.045-0.007,0.087-0.007,0.126c0,0.627,0.38,0.94,1.142,0.94h0.108l-0.145,2.308
					c-1.682,0-2.522-1.086-2.522-3.258V35.062z M31.103,34.247h-1.272c-0.043,0.278-0.065,0.53-0.065,0.757
					c0,0.588,0.147,0.989,0.441,1.202c0.178,0.129,0.344,0.194,0.499,0.194c0.193,0,0.364-0.104,0.513-0.311
					c0.116-0.162,0.173-0.372,0.173-0.631C31.392,35.13,31.295,34.726,31.103,34.247z"/>
				<path fill="#FFFFFF" d="M22.798,23.766c1.629,0.038,3.337,0.058,5.125,0.058c1.629,0,3.325-0.016,5.088-0.048l0.007,2.298
					l-1.106,0.077c0.535,0.479,0.802,1.115,0.802,1.91c0,1.984-1.132,2.977-3.397,2.977c-0.048,0-0.096-0.003-0.145-0.01
					c-2.27-0.038-3.404-1.021-3.404-2.947c0-0.077,0.002-0.158,0.007-0.242c0.029-0.659,0.296-1.193,0.802-1.601
					c-1.07,0-2.33,0.036-3.78,0.107V23.766z M30.431,26.189l-2.501,0.048c-0.381,0.375-0.571,0.76-0.571,1.154
					c0,0.162,0.031,0.323,0.094,0.484c0.198,0.511,0.751,0.767,1.663,0.767c0.106,0,0.214-0.003,0.325-0.01
					c1.104-0.064,1.687-0.395,1.749-0.989c0.005-0.058,0.007-0.116,0.007-0.175C31.197,26.952,30.941,26.525,30.431,26.189z"/>
			</g>
		</g>
		<g>
			<g>
				<path fill="#FFFFFF" d="M48.275,36.599c-0.083,4.181-0.125,8.34-0.125,12.477c0,2.072,0.012,4.141,0.036,6.204l-4.42,0.173
					c-0.083-5.323-0.185-10.252-0.303-14.788c-0.998,0.151-2.353,0.523-4.063,1.116l-0.855-2.909l4.955-2.339L48.275,36.599z"/>
			</g>
		</g>
	</g>
	<g>
		<g>
			<path fill="#FFFFFF" d="M87.998,44.281c1.715-5.808,3.102-10.731,4.16-14.771l5.132-0.061c1.259,4.202,2.7,8.99,4.324,14.362
				l-3.503,0.531l-1.108-3.866h-4.256l-1.15,4.172L87.998,44.281z M96.893,37.609c-0.474-1.469-1.25-3.227-2.326-5.273
				c-0.83,1.721-1.533,3.502-2.107,5.345L96.893,37.609z"/>
			<path fill="#FFFFFF" d="M112.548,35.223l-3.038,0.011v-0.276c0-1.598-0.602-2.396-1.806-2.396c-1.286,0-1.93,1.476-1.93,4.427
				c0,3.325,0.675,4.988,2.025,4.988h0.014c1.35-0.007,2.025-0.822,2.025-2.448v-1.01h3.394v0.765c0,3.387-1.866,5.159-5.597,5.315
				c-0.109,0.007-0.219,0.01-0.329,0.01c-3.512,0-5.269-2.516-5.269-7.549c0-4.923,1.807-7.385,5.419-7.385
				c3.402,0,5.104,1.646,5.104,4.937C112.562,34.808,112.557,35.012,112.548,35.223z"/>
			<path fill="#FFFFFF" d="M120.43,29.653c3.842,0,5.762,2.448,5.762,7.345c0,4.903-2.057,7.354-6.172,7.354
				c-4.114,0-6.172-2.54-6.172-7.62C113.848,32.013,116.042,29.653,120.43,29.653z M117.693,37.273
				c-0.01,0.177-0.014,0.347-0.014,0.51c0,2.563,0.803,3.846,2.408,3.846c1.706,0,2.559-1.452,2.559-4.355
				c0-2.904-0.793-4.356-2.381-4.356C118.67,32.917,117.812,34.369,117.693,37.273z"/>
			<path fill="#FFFFFF" d="M131.938,29.562l3.188,10.567l2.34-9.792l6.24,0.051c-0.109,2.21-0.164,4.44-0.164,6.691
				c0,2.51,0.068,5.05,0.205,7.62l-3.982,0.204c0-2.706-0.041-6.015-0.123-9.926l-2.23,8.967l-4.242,0.215l-2.736-9.671
				l-0.055,9.793l-3.34,0.173c0.064-2.237,0.096-4.457,0.096-6.661c0-2.747-0.05-5.461-0.15-8.14L131.938,29.562z"/>
			<path fill="#FFFFFF" d="M145.172,44.383c0.055-1.788,0.082-3.617,0.082-5.487c0-2.87-0.064-5.842-0.191-8.916
				c1.56-0.163,2.938-0.245,4.133-0.245c1.879,0,3.293,0.204,4.242,0.612c1.469,0.633,2.203,1.928,2.203,3.887v0.337
				c-0.092,2.148-0.744,3.524-1.957,4.126c-1.214,0.602-2.71,0.923-4.488,0.964c-0.01,0.211-0.014,0.429-0.014,0.652
				c0,1.13,0.077,2.466,0.232,4.01L145.172,44.383z M148.675,32.346l0.096,4.988c1.696-0.067,2.691-0.52,2.983-1.356
				c0.137-0.381,0.205-0.771,0.205-1.173c0-0.47-0.092-0.952-0.273-1.449c-0.273-0.728-0.958-1.091-2.053-1.091
				C149.341,32.265,149.021,32.292,148.675,32.346z"/>
			<path fill="#FFFFFF" d="M156.188,44.281c1.715-5.808,3.102-10.731,4.16-14.771l5.132-0.061c1.259,4.202,2.7,8.99,4.324,14.362
				l-3.503,0.531l-1.108-3.866h-4.256l-1.149,4.172L156.188,44.281z M165.082,37.609c-0.474-1.469-1.25-3.227-2.326-5.273
				c-0.83,1.721-1.532,3.502-2.107,5.345L165.082,37.609z"/>
			<path fill="#FFFFFF" d="M170.283,44.394c0.109-2.326,0.164-4.591,0.164-6.794c0-2.543-0.073-5.009-0.219-7.396l4.023-0.143
				l3.694,7.681c-0.036-2.639-0.137-5.338-0.302-8.1l4.229-0.041c-0.419,4.169-0.629,8.379-0.629,12.629
				c0,0.571,0.004,1.143,0.014,1.714l-3.709,0.031l-3.94-8.223c0.118,3.033,0.228,5.853,0.328,8.457L170.283,44.394z M171.61,28.174
				c0-2.04,0.912-3.061,2.737-3.061c0.912,0,1.619,0.255,2.121,0.766c0.419,0.422,0.807,0.632,1.162,0.632
				c0.074,0,0.143-0.006,0.206-0.02c0.41-0.103,0.616-0.562,0.616-1.378h2.053c0,2.04-0.913,3.061-2.737,3.061
				c-0.913,0-1.643-0.255-2.19-0.765c-0.455-0.429-0.848-0.643-1.176-0.643c-0.064,0-0.129,0.01-0.191,0.03
				c-0.365,0.102-0.548,0.561-0.548,1.377H171.61z"/>
			<path fill="#FFFFFF" d="M182.285,44.281c1.715-5.808,3.102-10.731,4.159-14.771l5.132-0.061c1.26,4.202,2.7,8.99,4.324,14.362
				l-3.503,0.531l-1.108-3.866h-4.256l-1.15,4.172L182.285,44.281z M191.18,37.609c-0.475-1.469-1.25-3.227-2.326-5.273
				c-0.83,1.721-1.533,3.502-2.107,5.345L191.18,37.609z"/>
			<path fill="#FFFFFF" d="M196.434,44.546c0.055-1.944,0.082-3.903,0.082-5.875c0-3.02-0.063-6.069-0.191-9.15
				c1.414-0.108,2.682-0.163,3.805-0.163c3.119,0,5.108,0.425,5.967,1.274c0.803,0.796,1.203,1.674,1.203,2.632
				c0,0.436-0.077,0.885-0.232,1.347c-0.529,1.496-1.643,2.445-3.339,2.847c1.187,0.122,2.085,0.599,2.696,1.428
				c0.584,0.803,0.875,2.822,0.875,6.06v0.438l-4.133,0.041c0.046-0.857,0.068-1.625,0.068-2.306c0-2.061-0.223-3.322-0.67-3.784
				c-0.512-0.517-1.117-0.775-1.82-0.775c-0.137,0-0.278,0.01-0.424,0.03c0.055,2.074,0.174,4.04,0.355,5.896L196.434,44.546z
				 M199.938,31.897l0.096,4.366c1.696-0.062,2.773-0.49,3.229-1.286c0.247-0.421,0.37-0.833,0.37-1.234
				c0-0.347-0.091-0.687-0.273-1.02c-0.329-0.578-1.146-0.867-2.45-0.867C200.607,31.856,200.283,31.87,199.938,31.897z"/>
			<path fill="#FFFFFF" d="M217.795,29.347c-0.164,3.544-0.246,6.58-0.246,9.109c0,1.007,0.014,1.936,0.041,2.785l6.104-0.225
				l0.096,3.326l-9.771,0.163c0.009-0.898,0.014-1.792,0.014-2.684c0-4.087-0.118-8.153-0.356-12.2L217.795,29.347z"/>
			<path fill="#FFFFFF" d="M231.48,29.653c3.84,0,5.761,2.448,5.761,7.345c0,4.903-2.058,7.354-6.172,7.354s-6.171-2.54-6.171-7.62
				C224.898,32.013,227.092,29.653,231.48,29.653z M228.743,37.273c-0.009,0.177-0.014,0.347-0.014,0.51
				c0,2.563,0.803,3.846,2.408,3.846c1.706,0,2.56-1.452,2.56-4.355c0-2.904-0.794-4.356-2.381-4.356
				C229.719,32.917,228.861,34.369,228.743,37.273z"/>
			<path fill="#FFFFFF" d="M238.281,38.987l4.064-0.204c-0.055,0.421-0.082,0.802-0.082,1.143c0,1.543,0.516,2.315,1.547,2.315
				h0.055c1.249-0.027,1.874-0.523,1.874-1.489V40.66c-0.046-1.027-1.228-2.033-3.544-3.02c-2.254-0.952-3.381-2.523-3.381-4.713
				c0-0.068,0.006-0.136,0.014-0.204c0.064-2.292,1.789-3.458,5.174-3.499h0.109c3.056,0,4.584,1.452,4.584,4.355
				c0,0.231-0.01,0.477-0.027,0.734l-3.572,0.153c0.037-0.306,0.055-0.588,0.055-0.847c0-1.217-0.396-1.826-1.189-1.826
				c-0.959,0-1.482,0.364-1.574,1.092c-0.01,0.102-0.014,0.204-0.014,0.306c0,0.605,0.242,1.17,0.725,1.693
				c0.557,0.605,1.513,1.16,2.867,1.663c1.355,0.503,2.302,1.193,2.84,2.07c0.383,0.633,0.574,1.307,0.574,2.021
				c0,0.271-0.027,0.551-0.082,0.836c-0.209,1.027-0.793,1.879-1.751,2.556s-2.244,1.046-3.858,1.106
				c-0.11,0.007-0.22,0.011-0.329,0.011c-1.469,0-2.696-0.401-3.681-1.204c-0.949-0.769-1.424-2.166-1.424-4.192
				C238.254,39.507,238.264,39.252,238.281,38.987z"/>
			<path fill="#FFFFFF" d="M255.879,44.383c0.056-1.788,0.083-3.617,0.083-5.487c0-2.87-0.063-5.842-0.192-8.916
				c1.561-0.163,2.938-0.245,4.133-0.245c1.88,0,3.294,0.204,4.242,0.612c1.469,0.633,2.203,1.928,2.203,3.887v0.337
				c-0.091,2.148-0.743,3.524-1.956,4.126c-1.214,0.602-2.71,0.923-4.489,0.964c-0.009,0.211-0.014,0.429-0.014,0.652
				c0,1.13,0.078,2.466,0.232,4.01L255.879,44.383z M259.383,32.346l0.096,4.988c1.697-0.067,2.691-0.52,2.983-1.356
				c0.137-0.381,0.205-0.771,0.205-1.173c0-0.47-0.091-0.952-0.273-1.449c-0.274-0.728-0.958-1.091-2.053-1.091
				C260.049,32.265,259.729,32.292,259.383,32.346z"/>
			<path fill="#FFFFFF" d="M267.908,44.546c0.055-1.944,0.082-3.903,0.082-5.875c0-3.02-0.063-6.069-0.191-9.15
				c1.414-0.108,2.682-0.163,3.805-0.163c3.119,0,5.108,0.425,5.967,1.274c0.803,0.796,1.203,1.674,1.203,2.632
				c0,0.436-0.077,0.885-0.232,1.347c-0.529,1.496-1.643,2.445-3.339,2.847c1.187,0.122,2.085,0.599,2.696,1.428
				c0.584,0.803,0.875,2.822,0.875,6.06v0.438l-4.133,0.041c0.046-0.857,0.068-1.625,0.068-2.306c0-2.061-0.223-3.322-0.67-3.784
				c-0.512-0.517-1.117-0.775-1.82-0.775c-0.137,0-0.278,0.01-0.424,0.03c0.055,2.074,0.174,4.04,0.355,5.896L267.908,44.546z
				 M271.412,31.897l0.096,4.366c1.696-0.062,2.773-0.49,3.229-1.286c0.247-0.421,0.37-0.833,0.37-1.234
				c0-0.347-0.091-0.687-0.273-1.02c-0.329-0.578-1.146-0.867-2.45-0.867C272.082,31.856,271.758,31.87,271.412,31.897z"/>
			<path fill="#FFFFFF" d="M286.328,29.653c3.84,0,5.761,2.448,5.761,7.345c0,4.903-2.058,7.354-6.172,7.354s-6.171-2.54-6.171-7.62
				C279.746,32.013,281.939,29.653,286.328,29.653z M283.591,37.273c-0.009,0.177-0.014,0.347-0.014,0.51
				c0,2.563,0.803,3.846,2.408,3.846c1.706,0,2.56-1.452,2.56-4.355c0-2.904-0.794-4.356-2.381-4.356
				C284.566,32.917,283.709,34.369,283.591,37.273z"/>
			<path fill="#FFFFFF" d="M303.584,35.223l-3.038,0.011v-0.276c0-1.598-0.603-2.396-1.806-2.396c-1.287,0-1.93,1.476-1.93,4.427
				c0,3.325,0.675,4.988,2.025,4.988h0.014c1.35-0.007,2.025-0.822,2.025-2.448v-1.01h3.393v0.765c0,3.387-1.865,5.159-5.596,5.315
				c-0.109,0.007-0.22,0.01-0.329,0.01c-3.513,0-5.269-2.516-5.269-7.549c0-4.923,1.807-7.385,5.42-7.385
				c3.402,0,5.104,1.646,5.104,4.937C303.598,34.808,303.594,35.012,303.584,35.223z"/>
			<path fill="#FFFFFF" d="M313.875,30v2.877l-5.406-0.164v3.347l4.858-0.103l0.123,2.765h-4.338v2.591h5.679v2.897l-9.469-0.103
				c0.1-1.91,0.15-3.835,0.15-5.773c0-2.687-0.096-5.396-0.288-8.13C307.246,30.143,310.143,30.075,313.875,30z"/>
			<path fill="#FFFFFF" d="M316.16,38.987l4.064-0.204c-0.055,0.421-0.082,0.802-0.082,1.143c0,1.543,0.515,2.315,1.546,2.315h0.055
				c1.249-0.027,1.874-0.523,1.874-1.489V40.66c-0.045-1.027-1.227-2.033-3.543-3.02c-2.254-0.952-3.381-2.523-3.381-4.713
				c0-0.068,0.005-0.136,0.014-0.204c0.064-2.292,1.788-3.458,5.173-3.499h0.109c3.056,0,4.585,1.452,4.585,4.355
				c0,0.231-0.01,0.477-0.027,0.734l-3.572,0.153c0.037-0.306,0.055-0.588,0.055-0.847c0-1.217-0.396-1.826-1.19-1.826
				c-0.958,0-1.482,0.364-1.573,1.092c-0.01,0.102-0.014,0.204-0.014,0.306c0,0.605,0.241,1.17,0.725,1.693
				c0.557,0.605,1.512,1.16,2.867,1.663c1.354,0.503,2.301,1.193,2.84,2.07c0.383,0.633,0.574,1.307,0.574,2.021
				c0,0.271-0.027,0.551-0.082,0.836c-0.21,1.027-0.793,1.879-1.752,2.556c-0.957,0.677-2.244,1.046-3.858,1.106
				c-0.11,0.007-0.22,0.011-0.329,0.011c-1.469,0-2.695-0.401-3.681-1.204c-0.948-0.769-1.423-2.166-1.423-4.192
				C316.133,39.507,316.142,39.252,316.16,38.987z"/>
			<path fill="#FFFFFF" d="M334.826,29.653c3.84,0,5.761,2.448,5.761,7.345c0,4.903-2.058,7.354-6.172,7.354s-6.171-2.54-6.171-7.62
				C328.244,32.013,330.438,29.653,334.826,29.653z M332.089,37.273c-0.009,0.177-0.014,0.347-0.014,0.51
				c0,2.563,0.803,3.846,2.408,3.846c1.706,0,2.56-1.452,2.56-4.355c0-2.904-0.794-4.356-2.381-4.356
				C333.064,32.917,332.207,34.369,332.089,37.273z"/>
			<path fill="#FFFFFF" d="M341.627,38.987l4.064-0.204c-0.055,0.421-0.082,0.802-0.082,1.143c0,1.543,0.515,2.315,1.546,2.315
				h0.055c1.249-0.027,1.874-0.523,1.874-1.489V40.66c-0.045-1.027-1.227-2.033-3.543-3.02c-2.254-0.952-3.381-2.523-3.381-4.713
				c0-0.068,0.005-0.136,0.014-0.204c0.064-2.292,1.788-3.458,5.173-3.499h0.109c3.056,0,4.585,1.452,4.585,4.355
				c0,0.231-0.01,0.477-0.027,0.734l-3.572,0.153c0.037-0.306,0.055-0.588,0.055-0.847c0-1.217-0.396-1.826-1.19-1.826
				c-0.958,0-1.482,0.364-1.573,1.092c-0.01,0.102-0.014,0.204-0.014,0.306c0,0.605,0.241,1.17,0.725,1.693
				c0.557,0.605,1.512,1.16,2.867,1.663c1.354,0.503,2.301,1.193,2.84,2.07c0.383,0.633,0.574,1.307,0.574,2.021
				c0,0.271-0.027,0.551-0.082,0.836c-0.21,1.027-0.793,1.879-1.752,2.556c-0.957,0.677-2.244,1.046-3.858,1.106
				c-0.11,0.007-0.22,0.011-0.329,0.011c-1.469,0-2.695-0.401-3.681-1.204c-0.948-0.769-1.423-2.166-1.423-4.192
				C341.6,39.507,341.608,39.252,341.627,38.987z"/>
			<path fill="#FFFFFF" d="M141.395,62.303c0.018-2.292,0.027-4.651,0.027-7.08c0-2.435-0.01-4.934-0.027-7.497
				c1.049-0.096,2.016-0.143,2.901-0.143c2.463,0,4.278,0.367,5.446,1.102c1.588,1.006,2.418,2.866,2.49,5.58v0.734
				c0,2.325-0.301,3.984-0.902,4.978c-0.666,1.095-1.885,1.823-3.654,2.184c-1.021,0.21-2.145,0.315-3.366,0.315
				C143.396,62.476,142.426,62.418,141.395,62.303z M144.789,50.643c-0.156,2.238-0.233,4.4-0.233,6.488
				c0,0.789,0.009,1.564,0.027,2.325c0.319,0.055,0.625,0.082,0.917,0.082c0.803,0,1.479-0.207,2.025-0.622
				c0.748-0.558,1.122-1.81,1.122-3.754v-0.041c-0.009-1.959-0.374-3.244-1.095-3.856c-0.557-0.462-1.218-0.693-1.984-0.693
				C145.322,50.571,145.062,50.596,144.789,50.643z"/>
			<path fill="#FFFFFF" d="M162.059,48.001v2.877l-5.406-0.164v3.347l4.859-0.103l0.123,2.765h-4.338v2.591h5.678v2.897
				l-9.469-0.103c0.1-1.91,0.15-3.835,0.15-5.773c0-2.687-0.096-5.396-0.287-8.13C155.431,48.144,158.327,48.076,162.059,48.001z"/>
			<path fill="#FFFFFF" d="M173.512,47.348c-0.164,3.544-0.246,6.58-0.246,9.109c0,1.007,0.014,1.936,0.041,2.785l6.104-0.225
				l0.096,3.326l-9.771,0.163c0.009-0.898,0.014-1.792,0.014-2.684c0-4.087-0.118-8.153-0.356-12.2L173.512,47.348z"/>
			<path fill="#FFFFFF" d="M180.013,62.282c1.715-5.808,3.102-10.731,4.159-14.771l5.133-0.061c1.259,4.202,2.699,8.99,4.324,14.362
				l-3.504,0.531l-1.107-3.866h-4.256l-1.15,4.172L180.013,62.282z M188.907,55.61c-0.474-1.469-1.25-3.227-2.326-5.273
				c-0.83,1.721-1.532,3.502-2.107,5.345L188.907,55.61z"/>
			<path fill="#FFFFFF" d="M194.107,56.988l4.064-0.204c-0.055,0.421-0.082,0.802-0.082,1.143c0,1.543,0.516,2.315,1.547,2.315
				h0.055c1.249-0.027,1.874-0.523,1.874-1.489v-0.092c-0.046-1.027-1.228-2.033-3.544-3.02c-2.254-0.952-3.381-2.523-3.381-4.713
				c0-0.068,0.006-0.136,0.014-0.204c0.064-2.292,1.789-3.458,5.174-3.499h0.109c3.056,0,4.584,1.452,4.584,4.355
				c0,0.231-0.01,0.477-0.027,0.734l-3.572,0.153c0.037-0.306,0.055-0.588,0.055-0.847c0-1.217-0.396-1.826-1.189-1.826
				c-0.959,0-1.482,0.364-1.574,1.092c-0.01,0.102-0.014,0.204-0.014,0.306c0,0.605,0.242,1.17,0.725,1.693
				c0.557,0.605,1.513,1.16,2.867,1.663c1.355,0.503,2.302,1.193,2.84,2.07c0.383,0.633,0.574,1.307,0.574,2.021
				c0,0.271-0.027,0.551-0.082,0.836c-0.209,1.027-0.793,1.879-1.751,2.556s-2.244,1.046-3.858,1.106
				c-0.11,0.007-0.22,0.011-0.329,0.011c-1.469,0-2.696-0.401-3.681-1.204c-0.949-0.769-1.424-2.166-1.424-4.192
				C194.08,57.508,194.09,57.253,194.107,56.988z"/>
			<path fill="#FFFFFF" d="M214.553,62.241c-1.113-4.583-2.432-9.375-3.955-14.373l3.996-0.306l2.34,11.18
				c1.195-3.91,2.171-7.45,2.928-10.619l3.791,0.347c-1.916,6.169-3.344,10.722-4.283,13.659L214.553,62.241z"/>
			<path fill="#FFFFFF" d="M227.826,61.904l-3.407,0.235c0-4.992-0.109-9.678-0.329-14.058l3.9-0.244
				C227.891,52.455,227.836,57.145,227.826,61.904z M224.419,45.757c1.067-0.945,1.943-1.847,2.628-2.703l2.244,1.326
				c-0.968,0.707-2.044,1.574-3.23,2.601L224.419,45.757z"/>
			<path fill="#FFFFFF" d="M239.813,53.224l-3.038,0.011v-0.276c0-1.598-0.602-2.396-1.807-2.396c-1.285,0-1.93,1.476-1.93,4.427
				c0,3.325,0.676,4.988,2.025,4.988h0.014c1.351-0.007,2.025-0.822,2.025-2.448v-1.01h3.395v0.765c0,3.387-1.866,5.159-5.598,5.315
				c-0.109,0.007-0.219,0.01-0.328,0.01c-3.512,0-5.269-2.516-5.269-7.549c0-4.923,1.807-7.385,5.419-7.385
				c3.402,0,5.104,1.646,5.104,4.937C239.827,52.809,239.822,53.013,239.813,53.224z"/>
			<path fill="#FFFFFF" d="M241.414,50.633V47.95c1.342,0.027,2.669,0.04,3.982,0.04c2.044,0,4.047-0.03,6.008-0.092l0.123,2.856
				h-3.448c0,4.835,0.068,8.671,0.205,11.507l-3.858,0.143c0.2-4.828,0.346-8.766,0.438-11.812L241.414,50.633z"/>
			<path fill="#FFFFFF" d="M256.577,61.904l-3.407,0.235c0-4.992-0.109-9.678-0.328-14.058l3.9-0.244
				C256.641,52.455,256.586,57.145,256.577,61.904z"/>
			<path fill="#FFFFFF" d="M262.817,47.562l3.188,10.567l2.34-9.792l6.24,0.051c-0.109,2.21-0.164,4.44-0.164,6.691
				c0,2.51,0.068,5.05,0.205,7.62l-3.982,0.204c0-2.706-0.041-6.015-0.123-9.926l-2.23,8.967l-4.242,0.215l-2.736-9.671
				l-0.055,9.793l-3.34,0.173c0.064-2.237,0.096-4.457,0.096-6.661c0-2.747-0.05-5.461-0.15-8.14L262.817,47.562z"/>
			<path fill="#FFFFFF" d="M275.038,62.282c1.715-5.808,3.102-10.731,4.159-14.771l5.133-0.061c1.259,4.202,2.699,8.99,4.324,14.362
				l-3.504,0.531l-1.107-3.866h-4.256l-1.15,4.172L275.038,62.282z M283.933,55.61c-0.474-1.469-1.25-3.227-2.326-5.273
				c-0.83,1.721-1.532,3.502-2.107,5.345L283.933,55.61z"/>
			<path fill="#FFFFFF" d="M289.133,56.988l4.064-0.204c-0.055,0.421-0.082,0.802-0.082,1.143c0,1.543,0.516,2.315,1.547,2.315
				h0.055c1.249-0.027,1.874-0.523,1.874-1.489v-0.092c-0.046-1.027-1.228-2.033-3.544-3.02c-2.254-0.952-3.381-2.523-3.381-4.713
				c0-0.068,0.006-0.136,0.014-0.204c0.064-2.292,1.789-3.458,5.174-3.499h0.109c3.056,0,4.584,1.452,4.584,4.355
				c0,0.231-0.01,0.477-0.027,0.734l-3.572,0.153c0.037-0.306,0.055-0.588,0.055-0.847c0-1.217-0.396-1.826-1.189-1.826
				c-0.959,0-1.482,0.364-1.574,1.092c-0.01,0.102-0.014,0.204-0.014,0.306c0,0.605,0.242,1.17,0.725,1.693
				c0.557,0.605,1.513,1.16,2.867,1.663c1.355,0.503,2.302,1.193,2.84,2.07c0.383,0.633,0.574,1.307,0.574,2.021
				c0,0.271-0.027,0.551-0.082,0.836c-0.209,1.027-0.793,1.879-1.751,2.556s-2.244,1.046-3.858,1.106
				c-0.11,0.007-0.22,0.011-0.329,0.011c-1.469,0-2.696-0.401-3.681-1.204c-0.949-0.769-1.424-2.166-1.424-4.192
				C289.105,57.508,289.115,57.253,289.133,56.988z"/>
		</g>
	</g>
</g>
</svg>
