<?xml version="1.0" encoding="utf-8"?>
<!-- Generator: Adobe Illustrator 16.0.0, SVG Export Plug-In . SVG Version: 6.00 Build 0)  -->
<!DOCTYPE svg PUBLIC "-//W3C//DTD SVG 1.1//EN" "http://www.w3.org/Graphics/SVG/1.1/DTD/svg11.dtd">
<svg version="1.1" id="Capa_1" xmlns="http://www.w3.org/2000/svg" xmlns:xlink="http://www.w3.org/1999/xlink" x="0px" y="0px"
	 width="529.082px" height="89.607px" viewBox="0 0 529.082 89.607" enable-background="new 0 0 529.082 89.607"
	 xml:space="preserve">
<g>
	<g>
		<g>
			<polygon fill="#A0C219" points="529.082,72.219 50.582,72.219 50.582,17.385 490.416,17.385 			"/>
			<g>
				<g enable-background="new    ">
					<path fill="#FFFFFF" d="M119.661,52.563c0.055-1.788,0.083-3.617,0.083-5.488c0-2.869-0.064-5.841-0.192-8.915
						c1.56-0.163,2.938-0.245,4.133-0.245c1.879,0,3.293,0.204,4.242,0.612c1.469,0.632,2.203,1.928,2.203,3.887v0.336
						c-0.091,2.149-0.744,3.524-1.957,4.126c-1.214,0.602-2.71,0.923-4.489,0.964c-0.009,0.211-0.014,0.428-0.014,0.652
						c0,1.129,0.078,2.466,0.232,4.01L119.661,52.563z M123.164,40.527l0.096,4.988c1.697-0.067,2.691-0.52,2.983-1.356
						c0.137-0.381,0.205-0.771,0.205-1.173c0-0.469-0.091-0.952-0.273-1.449c-0.274-0.728-0.958-1.091-2.053-1.091
						C123.83,40.445,123.511,40.472,123.164,40.527z"/>
					<path fill="#FFFFFF" d="M131.689,52.727c0.055-1.945,0.083-3.904,0.083-5.877c0-3.019-0.064-6.069-0.192-9.149
						c1.414-0.109,2.682-0.163,3.804-0.163c3.12,0,5.109,0.425,5.967,1.275c0.803,0.795,1.204,1.673,1.204,2.632
						c0,0.435-0.078,0.884-0.232,1.347c-0.529,1.496-1.642,2.445-3.339,2.846c1.186,0.122,2.084,0.598,2.696,1.428
						c0.584,0.803,0.876,2.822,0.876,6.06v0.438l-4.133,0.041c0.045-0.857,0.068-1.625,0.068-2.306c0-2.061-0.224-3.321-0.67-3.784
						c-0.511-0.518-1.118-0.775-1.82-0.775c-0.137,0-0.279,0.01-0.424,0.03c0.055,2.074,0.173,4.04,0.355,5.896L131.689,52.727z
						 M135.193,40.077l0.096,4.366c1.697-0.061,2.773-0.49,3.229-1.285c0.247-0.422,0.37-0.833,0.37-1.234
						c0-0.347-0.091-0.687-0.273-1.02c-0.329-0.578-1.145-0.867-2.45-0.867C135.863,40.037,135.54,40.051,135.193,40.077z"/>
					<path fill="#FFFFFF" d="M147.563,52.085l-3.407,0.234c0-4.992-0.109-9.678-0.329-14.057l3.9-0.245
						C147.627,42.635,147.573,47.324,147.563,52.085z"/>
					<path fill="#FFFFFF" d="M153.804,37.741l3.188,10.568l2.34-9.792l6.24,0.051c-0.11,2.21-0.165,4.441-0.165,6.691
						c0,2.51,0.068,5.05,0.206,7.62l-3.982,0.204c0-2.706-0.041-6.015-0.123-9.925l-2.23,8.966l-4.242,0.214l-2.737-9.67
						l-0.055,9.793l-3.339,0.174c0.063-2.238,0.096-4.459,0.096-6.662c0-2.747-0.05-5.46-0.15-8.14L153.804,37.741z"/>
					<path fill="#FFFFFF" d="M175.617,38.18v2.876l-5.406-0.163v3.346l4.858-0.102l0.123,2.765h-4.338v2.591h5.679v2.897
						l-9.469-0.103c0.1-1.91,0.15-3.836,0.15-5.773c0-2.686-0.096-5.396-0.288-8.13C168.989,38.323,171.886,38.255,175.617,38.18z"
						/>
					<path fill="#FFFFFF" d="M177.957,52.727c0.055-1.945,0.083-3.904,0.083-5.877c0-3.019-0.064-6.069-0.192-9.149
						c1.414-0.109,2.682-0.163,3.804-0.163c3.12,0,5.109,0.425,5.967,1.275c0.803,0.795,1.204,1.673,1.204,2.632
						c0,0.435-0.078,0.884-0.232,1.347c-0.529,1.496-1.642,2.445-3.339,2.846c1.186,0.122,2.084,0.598,2.696,1.428
						c0.584,0.803,0.876,2.822,0.876,6.06v0.438l-4.133,0.041c0.045-0.857,0.068-1.625,0.068-2.306c0-2.061-0.224-3.321-0.67-3.784
						c-0.511-0.518-1.118-0.775-1.82-0.775c-0.137,0-0.279,0.01-0.424,0.03c0.055,2.074,0.173,4.04,0.355,5.896L177.957,52.727z
						 M181.46,40.077l0.096,4.366c1.697-0.061,2.773-0.49,3.229-1.285c0.247-0.422,0.37-0.833,0.37-1.234
						c0-0.347-0.091-0.687-0.273-1.02c-0.329-0.578-1.145-0.867-2.45-0.867C182.13,40.037,181.807,40.051,181.46,40.077z"/>
					<path fill="#FFFFFF" d="M196.376,37.833c3.841,0,5.761,2.448,5.761,7.345c0,4.903-2.057,7.355-6.172,7.355
						c-4.114,0-6.171-2.54-6.171-7.62C189.794,40.193,191.988,37.833,196.376,37.833z M193.64,45.454
						c-0.009,0.177-0.014,0.347-0.014,0.51c0,2.564,0.803,3.846,2.409,3.846c1.706,0,2.559-1.451,2.559-4.355
						s-0.793-4.356-2.381-4.356C194.616,41.098,193.758,42.55,193.64,45.454z"/>
					<path fill="#FFFFFF" d="M203.177,47.167l4.064-0.203c-0.055,0.422-0.082,0.803-0.082,1.143c0,1.543,0.515,2.314,1.546,2.314
						h0.055c1.25-0.026,1.875-0.523,1.875-1.488v-0.092c-0.045-1.027-1.227-2.033-3.544-3.02c-2.253-0.952-3.38-2.523-3.38-4.713
						c0-0.068,0.005-0.136,0.014-0.204c0.064-2.292,1.788-3.458,5.173-3.499h0.109c3.056,0,4.584,1.452,4.584,4.356
						c0,0.231-0.009,0.476-0.027,0.734l-3.572,0.153c0.037-0.306,0.055-0.588,0.055-0.847c0-1.217-0.396-1.826-1.19-1.826
						c-0.958,0-1.482,0.364-1.574,1.091c-0.009,0.102-0.014,0.204-0.014,0.306c0,0.605,0.242,1.169,0.725,1.693
						c0.557,0.605,1.512,1.159,2.867,1.663c1.354,0.503,2.301,1.193,2.839,2.07c0.383,0.633,0.575,1.307,0.575,2.02
						c0,0.273-0.027,0.552-0.082,0.838c-0.21,1.026-0.793,1.878-1.751,2.555s-2.244,1.045-3.859,1.107
						c-0.11,0.006-0.219,0.01-0.329,0.01c-1.469,0-2.696-0.401-3.681-1.204c-0.949-0.769-1.423-2.166-1.423-4.192
						C203.15,47.688,203.159,47.432,203.177,47.167z"/>
					<path fill="#FFFFFF" d="M219.764,52.462c1.715-5.808,3.102-10.731,4.16-14.771l5.132-0.061c1.259,4.203,2.7,8.99,4.324,14.363
						l-3.503,0.529l-1.108-3.865h-4.256l-1.15,4.172L219.764,52.462z M228.658,45.79c-0.474-1.469-1.25-3.227-2.326-5.273
						c-0.83,1.721-1.533,3.502-2.107,5.346L228.658,45.79z"/>
					<path fill="#FFFFFF" d="M244.97,37.915v10.089c0,3.108-1.907,4.662-5.72,4.662h-0.301c-3.193-0.272-4.844-1.575-4.954-3.907
						c0-4.658-0.064-8.331-0.192-11.017h3.64c-0.091,1.537-0.137,3.343-0.137,5.417c0,1.455,0.022,3.046,0.068,4.774
						c0.018,1.265,0.629,1.897,1.833,1.897c0,0.007,0.005,0.011,0.014,0.011c1.195,0,1.792-0.811,1.792-2.429l-0.068-9.405
						L244.97,37.915z"/>
					<path fill="#FFFFFF" d="M249.637,37.946l2.477,5.407l2.272-5.396l3.654,0.133c-0.685,1.469-1.761,3.791-3.23,6.967
						c0.821,1.972,1.938,4.451,3.353,7.436l-3.846,0.286l-2.299-5.713l-2.312,5.468l-3.887-0.408
						c0.967-1.931,2.14-4.288,3.517-7.069l-3.626-6.672L249.637,37.946z"/>
					<path fill="#FFFFFF" d="M262.514,52.085l-3.407,0.234c0-4.992-0.109-9.678-0.329-14.057l3.9-0.245
						C262.578,42.635,262.523,47.324,262.514,52.085z"/>
					<path fill="#FFFFFF" d="M268.111,37.528c-0.164,3.543-0.246,6.58-0.246,9.11c0,1.006,0.014,1.934,0.041,2.784l6.104-0.225
						l0.096,3.325l-9.771,0.164c0.009-0.898,0.014-1.792,0.014-2.684c0-4.086-0.119-8.153-0.356-12.2L268.111,37.528z"/>
					<path fill="#FFFFFF" d="M279.25,52.085l-3.406,0.234c0-4.992-0.109-9.678-0.329-14.057l3.9-0.245
						C279.314,42.635,279.259,47.324,279.25,52.085z"/>
					<path fill="#FFFFFF" d="M287.009,37.833c3.841,0,5.762,2.448,5.762,7.345c0,4.903-2.058,7.355-6.172,7.355
						c-4.115,0-6.172-2.54-6.172-7.62C280.427,40.193,282.621,37.833,287.009,37.833z M284.273,45.454
						c-0.01,0.177-0.014,0.347-0.014,0.51c0,2.564,0.803,3.846,2.408,3.846c1.705,0,2.559-1.451,2.559-4.355
						s-0.793-4.356-2.381-4.356C285.249,41.098,284.391,42.55,284.273,45.454z"/>
					<path fill="#FFFFFF" d="M293.81,47.167l4.064-0.203c-0.055,0.422-0.082,0.803-0.082,1.143c0,1.543,0.516,2.314,1.547,2.314
						h0.055c1.249-0.026,1.874-0.523,1.874-1.488v-0.092c-0.046-1.027-1.228-2.033-3.544-3.02c-2.254-0.952-3.381-2.523-3.381-4.713
						c0-0.068,0.006-0.136,0.014-0.204c0.064-2.292,1.789-3.458,5.174-3.499h0.109c3.056,0,4.584,1.452,4.584,4.356
						c0,0.231-0.01,0.476-0.027,0.734l-3.572,0.153c0.037-0.306,0.055-0.588,0.055-0.847c0-1.217-0.396-1.826-1.189-1.826
						c-0.959,0-1.482,0.364-1.574,1.091c-0.01,0.102-0.014,0.204-0.014,0.306c0,0.605,0.242,1.169,0.725,1.693
						c0.557,0.605,1.513,1.159,2.867,1.663c1.355,0.503,2.302,1.193,2.84,2.07c0.383,0.633,0.574,1.307,0.574,2.02
						c0,0.273-0.027,0.552-0.082,0.838c-0.209,1.026-0.793,1.878-1.751,2.555s-2.244,1.045-3.858,1.107
						c-0.11,0.006-0.22,0.01-0.329,0.01c-1.469,0-2.696-0.401-3.681-1.204c-0.949-0.769-1.424-2.166-1.424-4.192
						C293.783,47.688,293.792,47.432,293.81,47.167z"/>
					<path fill="#FFFFFF" d="M311.41,52.563c0.055-1.788,0.082-3.617,0.082-5.488c0-2.869-0.064-5.841-0.191-8.915
						c1.559-0.163,2.938-0.245,4.133-0.245c1.879,0,3.293,0.204,4.242,0.612c1.469,0.632,2.203,1.928,2.203,3.887v0.336
						c-0.092,2.149-0.744,3.524-1.957,4.126c-1.215,0.602-2.711,0.923-4.488,0.964c-0.01,0.211-0.014,0.428-0.014,0.652
						c0,1.129,0.076,2.466,0.232,4.01L311.41,52.563z M314.912,40.527l0.096,4.988c1.697-0.067,2.691-0.52,2.984-1.356
						c0.137-0.381,0.205-0.771,0.205-1.173c0-0.469-0.092-0.952-0.273-1.449c-0.273-0.728-0.959-1.091-2.053-1.091
						C315.578,40.445,315.259,40.472,314.912,40.527z"/>
					<path fill="#FFFFFF" d="M323.382,47.167l4.064-0.203c-0.055,0.422-0.082,0.803-0.082,1.143c0,1.543,0.516,2.314,1.547,2.314
						h0.055c1.25-0.026,1.875-0.523,1.875-1.488v-0.092c-0.047-1.027-1.229-2.033-3.545-3.02c-2.254-0.952-3.381-2.523-3.381-4.713
						c0-0.068,0.006-0.136,0.014-0.204c0.064-2.292,1.789-3.458,5.174-3.499h0.109c3.057,0,4.584,1.452,4.584,4.356
						c0,0.231-0.01,0.476-0.027,0.734l-3.572,0.153c0.037-0.306,0.055-0.588,0.055-0.847c0-1.217-0.396-1.826-1.189-1.826
						c-0.959,0-1.482,0.364-1.574,1.091c-0.01,0.102-0.014,0.204-0.014,0.306c0,0.605,0.242,1.169,0.725,1.693
						c0.557,0.605,1.514,1.159,2.867,1.663c1.355,0.503,2.301,1.193,2.84,2.07c0.383,0.633,0.574,1.307,0.574,2.02
						c0,0.273-0.027,0.552-0.082,0.838c-0.209,1.026-0.793,1.878-1.752,2.555c-0.957,0.677-2.244,1.045-3.857,1.107
						c-0.109,0.006-0.219,0.01-0.33,0.01c-1.469,0-2.695-0.401-3.68-1.204c-0.949-0.769-1.424-2.166-1.424-4.192
						C323.355,47.688,323.365,47.432,323.382,47.167z"/>
					<path fill="#FFFFFF" d="M339.503,52.085l-3.408,0.234c0-4.992-0.109-9.678-0.328-14.057l3.9-0.245
						C339.566,42.635,339.511,47.324,339.503,52.085z"/>
					<path fill="#FFFFFF" d="M351.492,43.403l-3.039,0.01v-0.275c0-1.598-0.602-2.397-1.807-2.397c-1.285,0-1.93,1.476-1.93,4.427
						c0,3.325,0.676,4.988,2.025,4.988h0.014c1.352-0.007,2.025-0.823,2.025-2.448v-1.01h3.395v0.766
						c0,3.387-1.865,5.158-5.598,5.314c-0.109,0.006-0.219,0.01-0.328,0.01c-3.512,0-5.268-2.516-5.268-7.548
						c0-4.924,1.805-7.386,5.418-7.386c3.402,0,5.105,1.646,5.105,4.938C351.505,42.989,351.5,43.193,351.492,43.403z"/>
					<path fill="#FFFFFF" d="M359.373,37.833c3.84,0,5.762,2.448,5.762,7.345c0,4.903-2.059,7.355-6.172,7.355
						c-4.115,0-6.172-2.54-6.172-7.62C352.791,40.193,354.984,37.833,359.373,37.833z M356.636,45.454
						c-0.01,0.177-0.014,0.347-0.014,0.51c0,2.564,0.803,3.846,2.408,3.846c1.705,0,2.559-1.451,2.559-4.355
						s-0.793-4.356-2.381-4.356C357.613,41.098,356.753,42.55,356.636,45.454z"/>
					<path fill="#FFFFFF" d="M370.24,37.528c-0.166,3.543-0.248,6.58-0.248,9.11c0,1.006,0.014,1.934,0.041,2.784l6.104-0.225
						l0.096,3.325l-9.77,0.164c0.008-0.898,0.014-1.792,0.014-2.684c0-4.086-0.119-8.153-0.355-12.2L370.24,37.528z"/>
					<path fill="#FFFFFF" d="M383.923,37.833c3.84,0,5.762,2.448,5.762,7.345c0,4.903-2.059,7.355-6.172,7.355
						c-4.115,0-6.172-2.54-6.172-7.62C377.341,40.193,379.535,37.833,383.923,37.833z M381.187,45.454
						c-0.01,0.177-0.014,0.347-0.014,0.51c0,2.564,0.803,3.846,2.408,3.846c1.705,0,2.559-1.451,2.559-4.355
						s-0.793-4.356-2.381-4.356C382.164,41.098,381.304,42.55,381.187,45.454z M381.884,35.834c1.068-0.945,1.943-1.847,2.627-2.704
						l2.244,1.326c-0.967,0.708-2.043,1.575-3.229,2.602L381.884,35.834z"/>
					<path fill="#FFFFFF" d="M402.082,43.597l-3.105,0.021c-0.045-1.728-0.629-2.635-1.752-2.724h-0.246
						c-1.004,0-1.816,0.493-2.436,1.479c-0.621,0.986-0.932,2.384-0.932,4.192v0.449c0.055,2.026,1.01,3.039,2.861,3.039
						c1.277,0,1.916-0.774,1.916-2.325c0-0.156-0.006-0.316-0.014-0.479l-2.725,0.031l0.137-2.296l6.994,0.082v2.5l-1.396,0.021
						c0,3.55-1.896,5.325-5.693,5.325c-3.512,0-5.268-2.088-5.268-6.264c0-0.348,0.014-0.711,0.041-1.092
						c0.318-4.903,2.412-7.457,6.281-7.661c0.191-0.007,0.373-0.01,0.547-0.01c3.221,0,4.83,1.619,4.83,4.855
						C402.123,43.012,402.109,43.298,402.082,43.597z"/>
					<path fill="#FFFFFF" d="M407.83,52.085l-3.406,0.234c0-4.992-0.109-9.678-0.328-14.057l3.898-0.245
						C407.894,42.635,407.839,47.324,407.83,52.085z"/>
					<path fill="#FFFFFF" d="M419.818,43.403l-3.037,0.01v-0.275c0-1.598-0.604-2.397-1.807-2.397c-1.287,0-1.93,1.476-1.93,4.427
						c0,3.325,0.674,4.988,2.025,4.988h0.014c1.35-0.007,2.025-0.823,2.025-2.448v-1.01h3.393v0.766
						c0,3.387-1.865,5.158-5.596,5.314c-0.109,0.006-0.219,0.01-0.328,0.01c-3.514,0-5.27-2.516-5.27-7.548
						c0-4.924,1.807-7.386,5.42-7.386c3.402,0,5.104,1.646,5.104,4.938C419.832,42.989,419.828,43.193,419.818,43.403z"/>
					<path fill="#FFFFFF" d="M427.701,37.833c3.84,0,5.76,2.448,5.76,7.345c0,4.903-2.057,7.355-6.172,7.355
						c-4.113,0-6.172-2.54-6.172-7.62C421.117,40.193,423.312,37.833,427.701,37.833z M424.962,45.454
						c-0.008,0.177-0.014,0.347-0.014,0.51c0,2.564,0.803,3.846,2.408,3.846c1.707,0,2.561-1.451,2.561-4.355
						s-0.795-4.356-2.383-4.356C425.939,41.098,425.082,42.55,424.962,45.454z"/>
					<path fill="#FFFFFF" d="M434.501,47.167l4.064-0.203c-0.057,0.422-0.084,0.803-0.084,1.143c0,1.543,0.516,2.314,1.547,2.314
						h0.055c1.25-0.026,1.875-0.523,1.875-1.488v-0.092c-0.045-1.027-1.227-2.033-3.545-3.02c-2.252-0.952-3.379-2.523-3.379-4.713
						c0-0.068,0.004-0.136,0.014-0.204c0.062-2.292,1.787-3.458,5.172-3.499h0.109c3.057,0,4.586,1.452,4.586,4.356
						c0,0.231-0.01,0.476-0.027,0.734l-3.572,0.153c0.035-0.306,0.055-0.588,0.055-0.847c0-1.217-0.396-1.826-1.191-1.826
						c-0.957,0-1.482,0.364-1.572,1.091c-0.01,0.102-0.014,0.204-0.014,0.306c0,0.605,0.24,1.169,0.725,1.693
						c0.557,0.605,1.512,1.159,2.867,1.663c1.354,0.503,2.301,1.193,2.84,2.07c0.383,0.633,0.574,1.307,0.574,2.02
						c0,0.273-0.027,0.552-0.082,0.838c-0.211,1.026-0.795,1.878-1.752,2.555s-2.244,1.045-3.859,1.107
						c-0.109,0.006-0.219,0.01-0.328,0.01c-1.469,0-2.695-0.401-3.682-1.204c-0.949-0.769-1.422-2.166-1.422-4.192
						C434.474,47.688,434.482,47.432,434.501,47.167z"/>
				</g>
			</g>
		</g>
	</g>
	<g>
		<path fill="#F2961C" d="M0.18,71.168c0.015,0.046,0.03,0.087,0.045,0.13c0.083,0.199,0.188,0.361,0.317,0.507
			c0,0,0.008,0.003,0.012,0.012c0.408,0.426,1.059,0.619,2.019,0.6c4.44-0.079,10.706-0.021,15.15-0.015
			c0.271,0,0.533,0.004,0.771,0.015h0.004c2.588,0.104,2.8,0.766,1.787,3.586c-2.018,5.633,0.881,11.486,6.492,13.131
			c0.81,0.237,1.61,0.384,2.4,0.442c1.584,0.12,3.107-0.095,4.498-0.583c4.625-1.625,7.773-6.259,6.644-11.5
			c-1.104-5.114-1.104-5.103,4.384-5.076c4.032,0.021,8.062,0.005,11.95,0.005V55.485c0.325-1.641,1.364-1.903,3.568-1.146
			c5.399,1.859,10.819-0.078,13.234-4.727c1.97-3.791,1.398-8.633-1.391-11.822c-2.714-3.103-7.547-4.289-11.572-2.835
			c-2.382,0.861-3.405,0.841-3.791-0.602c0.004,0,0.009,0.005,0.012,0.005V17.477c-0.302-0.051-0.597-0.142-0.892-0.142H55.64
			c-4.531-0.028-9.07-0.019-13.602-0.083c-0.729-0.012-1.27-0.079-1.654-0.233c-0.928-0.367-0.945-1.226-0.55-2.91
			c0.488-2.094,0.935-4.448,0.462-6.466c-1.202-5.137-5.93-8.087-11.097-7.589c-0.876,0.083-1.769,0.268-2.66,0.559
			c-5.604,1.829-8.122,7.514-5.926,13.383c0.915,2.461,0.544,3.023-2.09,3.023c-0.325,0-0.624,0.094-0.899,0.249
			c-0.865,0-1.72,0-2.57-0.004h-2.021c-0.521-0.004-1.039-0.004-1.554,0h-0.566c-0.431,0-0.862,0-1.292,0.004
			c-0.224,0-0.446,0-0.67,0.005c-0.412,0-0.82,0.003-1.232,0.008c-0.223,0-0.449,0-0.672,0.002
			c-0.432,0.006-0.862,0.009-1.289,0.016c-0.195,0.006-0.396,0.006-0.594,0.01c-0.42,0.002-2.664,0.01-3.083,0.021
			c-0.205,0-0.405,0.007-0.609,0.01c-0.457,0.01-1.277,1.021-1.292,1.578c-0.106,4.508-0.062,9.48-0.062,14.382
			c1.497,0.084,4.604-0.248,5.893-0.244c0.639,0,1.246,0.043,1.832,0.116c7.601,0.973,10.669,7.868,9.422,14.198
			c-0.963,4.903-5.166,8.694-9.898,9.2c-0.914,0.097-3.672,0.072-4.605-0.092c-1.647-0.281-2.611,0.061-2.714,1.754v0.708
			c0.008,3.628,0.008,7.252-0.045,10.88C-0.01,70.356,0.047,70.805,0.18,71.168z"/>
		<g>
			<g enable-background="new    ">
				<path fill="#FFFFFF" d="M24.254,58.634h7.148c2.202,0,3.303,1.352,3.303,4.053v0.213c-0.193,2.264-1.116,3.434-2.769,3.511
					c-3.3,0-5.902,0.046-7.806,0.136v-2.579c1.089,0.064,2.369,0.097,3.838,0.097c1.031,0,2.159-0.016,3.382-0.049
					c0.896-0.012,1.345-0.445,1.345-1.299c0.005,0,0.007-0.004,0.007-0.01c0-0.847-0.573-1.27-1.72-1.27l-6.664,0.048L24.254,58.634
					z"/>
				<path fill="#FFFFFF" d="M27.24,55.997l1.178-0.098c-0.626-0.271-0.944-0.985-0.954-2.143v-0.039
					c0-1.138,0.332-1.913,0.997-2.327c0.453-0.284,1.513-0.427,3.18-0.427c0.819,0,1.788,0.036,2.906,0.107v2.346
					c-1.489-0.084-2.643-0.125-3.462-0.125c-0.41,0-0.737,0.009-0.983,0.028c-0.723,0.065-1.084,0.375-1.084,0.931
					c0,0.557,0.193,0.905,0.578,1.047l5.24-0.096l0.015,2.277c-2.216,0-4.706,0.101-7.466,0.301L27.24,55.997z"/>
				<path fill="#FFFFFF" d="M25.765,47.444c0.294,0,0.544,0.139,0.751,0.416c0.208,0.279,0.311,0.615,0.311,1.01
					c0,0.387-0.104,0.721-0.311,0.998c-0.207,0.277-0.458,0.417-0.751,0.417c-0.289,0-0.537-0.14-0.745-0.417
					c-0.207-0.277-0.311-0.611-0.311-0.998c0-0.395,0.104-0.73,0.311-1.01C25.228,47.583,25.476,47.444,25.765,47.444z
					 M34.887,50.042c-2.819,0.046-5.255,0.068-7.308,0.068l-0.108-2.443c1.966,0.078,3.92,0.117,5.862,0.117
					c0.521,0,1.039-0.004,1.554-0.01V50.042z"/>
				<path fill="#FFFFFF" d="M24.623,39.58c1.629,0.039,3.337,0.058,5.125,0.058c1.629,0,3.325-0.016,5.088-0.048l0.007,2.298
					l-1.106,0.078c0.535,0.479,0.802,1.115,0.802,1.91c0,1.984-1.132,2.977-3.397,2.977c-0.048,0-0.096-0.003-0.145-0.01
					c-2.27-0.039-3.404-1.021-3.404-2.947c0-0.078,0.002-0.158,0.007-0.243c0.029-0.659,0.296-1.192,0.802-1.6
					c-1.07,0-2.33,0.036-3.78,0.106V39.58z M32.256,42.005l-2.501,0.048c-0.38,0.375-0.571,0.76-0.571,1.154
					c0,0.162,0.031,0.323,0.094,0.485c0.198,0.511,0.751,0.766,1.663,0.766c0.106,0,0.214-0.003,0.325-0.01
					c1.104-0.064,1.687-0.395,1.749-0.989c0.005-0.058,0.007-0.116,0.007-0.174C33.022,42.767,32.767,42.341,32.256,42.005z"/>
				<path fill="#FFFFFF" d="M27.218,35.062c0.087-2.127,0.884-3.19,2.393-3.19h5.132l0.029,2.259l-0.687,0.078
					c0.395,0.465,0.593,1.083,0.593,1.852c0,0.33-0.039,0.685-0.116,1.066c-0.212,1.145-0.872,1.716-1.98,1.716
					c-0.135,0-0.279-0.01-0.434-0.029c-1.142-0.129-1.713-1.219-1.713-3.268c0-0.395,0.022-0.828,0.065-1.299h-0.838
					c-0.68,0-1.02,0.288-1.02,0.863v0.039c-0.004,0.045-0.007,0.087-0.007,0.126c0,0.627,0.38,0.94,1.142,0.94h0.108l-0.145,2.308
					c-1.682,0-2.522-1.086-2.522-3.258V35.062z M32.928,34.248h-1.272c-0.043,0.278-0.065,0.53-0.065,0.756
					c0,0.588,0.147,0.989,0.441,1.202c0.178,0.129,0.344,0.194,0.499,0.194c0.193,0,0.364-0.104,0.513-0.31
					c0.116-0.162,0.173-0.372,0.173-0.63C33.217,35.13,33.121,34.726,32.928,34.248z"/>
				<path fill="#FFFFFF" d="M24.623,23.766c1.629,0.039,3.337,0.058,5.125,0.058c1.629,0,3.325-0.016,5.088-0.048l0.007,2.298
					l-1.106,0.078c0.535,0.479,0.802,1.115,0.802,1.91c0,1.985-1.132,2.977-3.397,2.977c-0.048,0-0.096-0.003-0.145-0.01
					c-2.27-0.039-3.404-1.021-3.404-2.948c0-0.078,0.002-0.158,0.007-0.243c0.029-0.659,0.296-1.192,0.802-1.6
					c-1.07,0-2.33,0.036-3.78,0.106V23.766z M32.256,26.19l-2.501,0.048c-0.38,0.375-0.571,0.76-0.571,1.154
					c0,0.162,0.031,0.323,0.094,0.485c0.198,0.511,0.751,0.766,1.663,0.766c0.106,0,0.214-0.003,0.325-0.01
					c1.104-0.064,1.687-0.395,1.749-0.989c0.005-0.058,0.007-0.116,0.007-0.174C33.022,26.953,32.767,26.526,32.256,26.19z"/>
			</g>
		</g>
		<g>
			<g enable-background="new    ">
				<path fill="#FFFFFF" d="M38.828,42.632c-0.048-0.469-0.071-0.908-0.071-1.315c0-1.408,0.285-2.493,0.855-3.255
					c0.725-0.975,1.913-1.577,3.564-1.807c0.808-0.115,1.581-0.173,2.317-0.173c0.749,0,1.461,0.062,2.139,0.186
					c1.319,0.239,2.374,0.775,3.164,1.608c0.79,0.833,1.215,1.975,1.274,3.428v0.398c0,1.258-0.262,2.175-0.785,2.75
					c-0.582,0.646-1.539,1.134-2.87,1.461c1.105,0.125,1.934,0.424,2.487,0.897c0.552,0.474,0.936,1.109,1.149,1.907
					c0.119,0.442,0.178,0.93,0.178,1.461c0,0.434-0.042,0.903-0.125,1.408c-0.178,1.107-0.782,2.064-1.81,2.87
					s-2.611,1.227-4.75,1.263h-0.285c-2.008,0-3.612-0.391-4.812-1.17c-1.248-0.797-1.871-2.512-1.871-5.142v-0.08l4.616-0.199
					c-0.012,0.151-0.018,0.297-0.018,0.438c0,1.86,0.654,2.821,1.961,2.883c0.095,0.01,0.184,0.014,0.267,0.014
					c1.236,0,1.979-0.486,2.228-1.461c0.071-0.275,0.107-0.536,0.107-0.785c0-0.699-0.267-1.306-0.802-1.819
					c-0.737-0.69-1.955-1.036-3.654-1.036l-0.214-2.525c0.202,0.009,0.392,0.013,0.571,0.013c1.485,0,2.507-0.319,3.065-0.957
					c0.523-0.593,0.784-1.364,0.784-2.312c0-0.186-0.012-0.376-0.036-0.571c-0.107-1.133-0.79-1.701-2.05-1.701h-0.231
					c-1.248,0.062-1.872,0.992-1.872,2.791c0,0.212,0.006,0.438,0.018,0.677L38.828,42.632z"/>
			</g>
		</g>
	</g>
</g>
</svg>
