<?xml version="1.0" encoding="utf-8"?>
<!-- Generator: Adobe Illustrator 16.0.0, SVG Export Plug-In . SVG Version: 6.00 Build 0)  -->
<!DOCTYPE svg PUBLIC "-//W3C//DTD SVG 1.1//EN" "http://www.w3.org/Graphics/SVG/1.1/DTD/svg11.dtd">
<svg version="1.1" id="Capa_1" xmlns="http://www.w3.org/2000/svg" xmlns:xlink="http://www.w3.org/1999/xlink" x="0px" y="0px"
	 width="549.182px" height="92.711px" viewBox="0 0 549.182 92.711" enable-background="new 0 0 549.182 92.711"
	 xml:space="preserve">
<g>
	<g>
		<polygon fill="#2B1C48" points="549.182,73.197 70.684,73.197 70.684,18.361 510.516,18.361 		"/>
		<g>
			<g>
				<path fill="#FFFFFF" d="M105.168,31.218c-0.109,4.576-0.215,9.507-0.314,14.791h-3.107v-5.947h-3.9v5.468l-3.735-0.011
					c0.109-2.495,0.165-4.937,0.165-7.324c0-2.38-0.056-4.706-0.165-6.977h3.571l-0.15,5.946l3.9,0.123v-6.314L105.168,31.218z"/>
				<path fill="#FFFFFF" d="M115.171,31.156v2.877l-5.405-0.164v3.347l4.857-0.103l0.123,2.765h-4.338v2.591h5.68v2.897l-9.47-0.103
					c0.101-1.91,0.15-3.835,0.15-5.773c0-2.687-0.096-5.396-0.288-8.13C108.543,31.299,111.439,31.231,115.171,31.156z"/>
				<path fill="#FFFFFF" d="M117.511,45.702c0.056-1.944,0.083-3.903,0.083-5.875c0-3.02-0.064-6.069-0.192-9.15
					c1.414-0.108,2.683-0.163,3.804-0.163c3.121,0,5.109,0.425,5.967,1.274c0.803,0.796,1.205,1.674,1.205,2.632
					c0,0.436-0.078,0.885-0.232,1.347c-0.529,1.496-1.643,2.445-3.34,2.847c1.186,0.122,2.084,0.599,2.695,1.428
					c0.584,0.803,0.877,2.822,0.877,6.06v0.438l-4.133,0.041c0.045-0.857,0.068-1.625,0.068-2.306c0-2.061-0.225-3.322-0.671-3.784
					c-0.511-0.517-1.118-0.775-1.819-0.775c-0.138,0-0.279,0.01-0.425,0.03c0.055,2.074,0.173,4.04,0.355,5.896L117.511,45.702z
					 M121.014,33.054l0.096,4.366c1.697-0.062,2.773-0.49,3.23-1.286c0.246-0.421,0.369-0.833,0.369-1.234
					c0-0.347-0.092-0.687-0.273-1.02c-0.328-0.578-1.145-0.867-2.449-0.867C121.685,33.013,121.361,33.026,121.014,33.054z"/>
				<path fill="#FFFFFF" d="M129.758,45.702c0.056-1.944,0.083-3.903,0.083-5.875c0-3.02-0.063-6.069-0.192-9.15
					c1.414-0.108,2.683-0.163,3.805-0.163c3.12,0,5.109,0.425,5.967,1.274c0.803,0.796,1.204,1.674,1.204,2.632
					c0,0.436-0.077,0.885-0.232,1.347c-0.529,1.496-1.643,2.445-3.339,2.847c1.186,0.122,2.084,0.599,2.695,1.428
					c0.584,0.803,0.876,2.822,0.876,6.06v0.438l-4.133,0.041c0.046-0.857,0.068-1.625,0.068-2.306c0-2.061-0.224-3.322-0.671-3.784
					c-0.511-0.517-1.117-0.775-1.819-0.775c-0.138,0-0.278,0.01-0.425,0.03c0.055,2.074,0.174,4.04,0.355,5.896L129.758,45.702z
					 M133.262,33.054l0.096,4.366c1.697-0.062,2.773-0.49,3.229-1.286c0.247-0.421,0.37-0.833,0.37-1.234
					c0-0.347-0.092-0.687-0.273-1.02c-0.329-0.578-1.146-0.867-2.45-0.867C133.932,33.013,133.608,33.026,133.262,33.054z"/>
				<path fill="#FFFFFF" d="M140.994,45.438c1.715-5.808,3.102-10.731,4.159-14.771l5.132-0.061c1.26,4.202,2.7,8.99,4.324,14.362
					l-3.503,0.531l-1.108-3.866h-4.256l-1.15,4.172L140.994,45.438z M149.889,38.766c-0.475-1.469-1.25-3.227-2.326-5.273
					c-0.83,1.721-1.533,3.502-2.107,5.345L149.889,38.766z"/>
				<path fill="#FFFFFF" d="M159.796,30.718l3.188,10.567l2.34-9.792l6.24,0.051c-0.109,2.21-0.164,4.44-0.164,6.691
					c0,2.51,0.068,5.05,0.205,7.62l-3.982,0.204c0-2.706-0.041-6.015-0.123-9.926l-2.23,8.967l-4.242,0.215l-2.736-9.671
					l-0.055,9.793l-3.34,0.173c0.064-2.237,0.096-4.457,0.096-6.661c0-2.747-0.05-5.461-0.15-8.14L159.796,30.718z"/>
				<path fill="#FFFFFF" d="M176.655,45.06l-3.407,0.235c0-4.992-0.109-9.678-0.328-14.058l3.9-0.244
					C176.719,35.61,176.664,40.3,176.655,45.06z"/>
				<path fill="#FFFFFF" d="M186.823,31.156v2.877l-5.405-0.164v3.347l4.857-0.103l0.123,2.765h-4.338v2.591h5.68v2.897l-9.47-0.103
					c0.101-1.91,0.15-3.835,0.15-5.773c0-2.687-0.096-5.396-0.288-8.13C180.195,31.299,183.092,31.231,186.823,31.156z"/>
				<path fill="#FFFFFF" d="M189.108,45.55c0.11-2.326,0.165-4.591,0.165-6.794c0-2.543-0.074-5.009-0.22-7.396l4.023-0.143
					l3.694,7.681c-0.036-2.639-0.137-5.338-0.301-8.1l4.229-0.041c-0.42,4.169-0.629,8.379-0.629,12.629
					c0,0.571,0.004,1.143,0.014,1.714l-3.709,0.031l-3.941-8.223c0.119,3.033,0.229,5.853,0.328,8.457L189.108,45.55z"/>
				<path fill="#FFFFFF" d="M202.013,33.788v-2.683c1.341,0.027,2.669,0.04,3.982,0.04c2.044,0,4.046-0.03,6.007-0.092l0.123,2.856
					h-3.447c0,4.835,0.068,8.671,0.205,11.507l-3.859,0.143c0.201-4.828,0.347-8.766,0.438-11.812L202.013,33.788z"/>
				<path fill="#FFFFFF" d="M212.537,45.438c1.715-5.808,3.102-10.731,4.159-14.771l5.132-0.061c1.26,4.202,2.7,8.99,4.324,14.362
					l-3.503,0.531l-1.108-3.866h-4.256l-1.15,4.172L212.537,45.438z M221.432,38.766c-0.475-1.469-1.25-3.227-2.326-5.273
					c-0.83,1.721-1.533,3.502-2.107,5.345L221.432,38.766z"/>
				<path fill="#FFFFFF" d="M226.631,40.144l4.064-0.204c-0.055,0.421-0.082,0.802-0.082,1.143c0,1.543,0.516,2.315,1.547,2.315
					h0.055c1.25-0.027,1.875-0.523,1.875-1.489v-0.092c-0.046-1.027-1.228-2.033-3.545-3.02c-2.253-0.952-3.38-2.523-3.38-4.713
					c0-0.068,0.005-0.136,0.014-0.204c0.063-2.292,1.788-3.458,5.173-3.499h0.109c3.057,0,4.584,1.452,4.584,4.355
					c0,0.231-0.009,0.477-0.027,0.734l-3.571,0.153c0.036-0.306,0.055-0.588,0.055-0.847c0-1.217-0.396-1.826-1.19-1.826
					c-0.958,0-1.482,0.364-1.574,1.092c-0.009,0.102-0.014,0.204-0.014,0.306c0,0.605,0.242,1.17,0.726,1.693
					c0.557,0.605,1.513,1.16,2.867,1.663s2.302,1.193,2.839,2.07c0.384,0.633,0.575,1.307,0.575,2.021
					c0,0.271-0.027,0.551-0.082,0.836c-0.21,1.027-0.794,1.879-1.751,2.556c-0.959,0.677-2.244,1.046-3.859,1.106
					c-0.109,0.007-0.219,0.011-0.328,0.011c-1.469,0-2.696-0.401-3.682-1.204c-0.949-0.769-1.424-2.166-1.424-4.192
					C226.604,40.663,226.613,40.408,226.631,40.144z"/>
				<path fill="#FFFFFF" d="M244.216,45.488c0.036-1.897,0.056-3.764,0.056-5.601c0-3.169-0.056-6.246-0.165-9.231
					c1.551-0.122,2.91-0.184,4.078-0.184c2.144,0,3.631,0.207,4.461,0.622c1.277,0.64,1.998,1.503,2.162,2.591
					c0.036,0.279,0.056,0.548,0.056,0.807c0,0.741-0.17,1.384-0.507,1.928c-0.466,0.741-1.291,1.271-2.478,1.591
					c1.323,0.15,2.271,0.507,2.847,1.071c0.483,0.477,0.726,1.156,0.726,2.04c0,0.17-0.01,0.347-0.027,0.531
					c-0.109,1.155-0.6,2.02-1.471,2.591c-0.872,0.571-2.083,0.962-3.634,1.173c-0.876,0.115-1.902,0.174-3.079,0.174
					C246.318,45.591,245.311,45.557,244.216,45.488z M247.732,33.003l0.096,4.376c1.697-0.068,2.773-0.5,3.23-1.296
					c0.246-0.422,0.369-0.836,0.369-1.244c0-0.34-0.092-0.677-0.273-1.01c-0.32-0.578-1.137-0.867-2.449-0.867
					C248.412,32.962,248.089,32.976,247.732,33.003z M247.993,39.48v3.417c0.21,0.007,0.41,0.01,0.603,0.01
					c1.696,0,2.768-0.347,3.215-1.04c0.246-0.388,0.37-0.738,0.37-1.051c0-0.306-0.119-0.574-0.356-0.806
					c-0.393-0.374-1.305-0.562-2.736-0.562C248.75,39.449,248.385,39.46,247.993,39.48z"/>
				<path fill="#FFFFFF" d="M255.766,45.438c1.715-5.808,3.102-10.731,4.16-14.771l5.132-0.061c1.259,4.202,2.7,8.99,4.324,14.362
					l-3.503,0.531l-1.108-3.866h-4.256l-1.149,4.172L255.766,45.438z M264.66,38.766c-0.474-1.469-1.25-3.227-2.326-5.273
					c-0.83,1.721-1.532,3.502-2.107,5.345L264.66,38.766z M260.952,28.708c1.067-0.945,1.943-1.847,2.628-2.703l2.244,1.326
					c-0.967,0.707-2.044,1.574-3.23,2.601L260.952,28.708z"/>
				<path fill="#FFFFFF" d="M269.861,40.144l4.064-0.204c-0.055,0.421-0.082,0.802-0.082,1.143c0,1.543,0.515,2.315,1.546,2.315
					h0.055c1.249-0.027,1.874-0.523,1.874-1.489v-0.092c-0.045-1.027-1.227-2.033-3.543-3.02c-2.254-0.952-3.381-2.523-3.381-4.713
					c0-0.068,0.005-0.136,0.014-0.204c0.064-2.292,1.788-3.458,5.173-3.499h0.109c3.056,0,4.585,1.452,4.585,4.355
					c0,0.231-0.01,0.477-0.027,0.734l-3.572,0.153c0.037-0.306,0.055-0.588,0.055-0.847c0-1.217-0.396-1.826-1.19-1.826
					c-0.958,0-1.482,0.364-1.573,1.092c-0.01,0.102-0.014,0.204-0.014,0.306c0,0.605,0.241,1.17,0.725,1.693
					c0.557,0.605,1.512,1.16,2.867,1.663c1.354,0.503,2.301,1.193,2.84,2.07c0.383,0.633,0.574,1.307,0.574,2.021
					c0,0.271-0.027,0.551-0.082,0.836c-0.21,1.027-0.793,1.879-1.752,2.556c-0.957,0.677-2.244,1.046-3.858,1.106
					c-0.11,0.007-0.22,0.011-0.329,0.011c-1.469,0-2.695-0.401-3.681-1.204c-0.948-0.769-1.423-2.166-1.423-4.192
					C269.834,40.663,269.843,40.408,269.861,40.144z"/>
				<path fill="#FFFFFF" d="M285.98,45.06l-3.406,0.235c0-4.992-0.109-9.678-0.329-14.058l3.9-0.244
					C286.045,35.61,285.99,40.3,285.98,45.06z"/>
				<path fill="#FFFFFF" d="M297.969,36.379l-3.038,0.011v-0.276c0-1.598-0.603-2.396-1.806-2.396c-1.287,0-1.93,1.476-1.93,4.427
					c0,3.325,0.675,4.988,2.025,4.988h0.014c1.35-0.007,2.025-0.822,2.025-2.448v-1.01h3.393v0.765c0,3.387-1.865,5.159-5.596,5.315
					c-0.109,0.007-0.22,0.01-0.329,0.01c-3.513,0-5.269-2.516-5.269-7.549c0-4.923,1.807-7.385,5.42-7.385
					c3.402,0,5.104,1.646,5.104,4.937C297.982,35.964,297.979,36.168,297.969,36.379z"/>
				<path fill="#FFFFFF" d="M298.667,45.438c1.715-5.808,3.102-10.731,4.159-14.771l5.133-0.061
					c1.259,4.202,2.699,8.99,4.324,14.362l-3.504,0.531l-1.107-3.866h-4.256l-1.15,4.172L298.667,45.438z M307.562,38.766
					c-0.474-1.469-1.25-3.227-2.326-5.273c-0.83,1.721-1.532,3.502-2.107,5.345L307.562,38.766z"/>
				<path fill="#FFFFFF" d="M312.762,40.144l4.064-0.204c-0.055,0.421-0.082,0.802-0.082,1.143c0,1.543,0.516,2.315,1.547,2.315
					h0.055c1.249-0.027,1.874-0.523,1.874-1.489v-0.092c-0.046-1.027-1.228-2.033-3.544-3.02c-2.254-0.952-3.381-2.523-3.381-4.713
					c0-0.068,0.006-0.136,0.014-0.204c0.064-2.292,1.789-3.458,5.174-3.499h0.109c3.056,0,4.584,1.452,4.584,4.355
					c0,0.231-0.01,0.477-0.027,0.734l-3.572,0.153c0.037-0.306,0.055-0.588,0.055-0.847c0-1.217-0.396-1.826-1.189-1.826
					c-0.959,0-1.482,0.364-1.574,1.092c-0.01,0.102-0.014,0.204-0.014,0.306c0,0.605,0.242,1.17,0.725,1.693
					c0.557,0.605,1.513,1.16,2.867,1.663c1.355,0.503,2.302,1.193,2.84,2.07c0.383,0.633,0.574,1.307,0.574,2.021
					c0,0.271-0.027,0.551-0.082,0.836c-0.209,1.027-0.793,1.879-1.751,2.556s-2.244,1.046-3.858,1.106
					c-0.11,0.007-0.22,0.011-0.329,0.011c-1.469,0-2.696-0.401-3.681-1.204c-0.949-0.769-1.424-2.166-1.424-4.192
					C312.734,40.663,312.744,40.408,312.762,40.144z"/>
				<path fill="#FFFFFF" d="M330.359,45.539c0.056-1.788,0.083-3.617,0.083-5.487c0-2.87-0.063-5.842-0.192-8.916
					c1.561-0.163,2.938-0.245,4.133-0.245c1.88,0,3.294,0.204,4.242,0.612c1.469,0.633,2.203,1.928,2.203,3.887v0.337
					c-0.091,2.148-0.743,3.524-1.956,4.126c-1.214,0.602-2.71,0.923-4.489,0.964c-0.009,0.211-0.014,0.429-0.014,0.652
					c0,1.13,0.078,2.466,0.232,4.01L330.359,45.539z M333.863,33.502l0.096,4.988c1.697-0.067,2.691-0.52,2.983-1.356
					c0.137-0.381,0.205-0.771,0.205-1.173c0-0.47-0.091-0.952-0.273-1.449c-0.274-0.728-0.958-1.091-2.053-1.091
					C334.529,33.421,334.21,33.448,333.863,33.502z"/>
				<path fill="#FFFFFF" d="M341.377,45.438c1.715-5.808,3.102-10.731,4.159-14.771l5.132-0.061c1.26,4.202,2.7,8.99,4.324,14.362
					l-3.503,0.531l-1.108-3.866h-4.256l-1.15,4.172L341.377,45.438z M350.271,38.766c-0.475-1.469-1.25-3.227-2.326-5.273
					c-0.83,1.721-1.533,3.502-2.107,5.345L350.271,38.766z"/>
				<path fill="#FFFFFF" d="M355.525,45.702c0.056-1.944,0.083-3.903,0.083-5.875c0-3.02-0.063-6.069-0.192-9.15
					c1.414-0.108,2.683-0.163,3.805-0.163c3.12,0,5.109,0.425,5.967,1.274c0.803,0.796,1.204,1.674,1.204,2.632
					c0,0.436-0.077,0.885-0.232,1.347c-0.529,1.496-1.643,2.445-3.339,2.847c1.186,0.122,2.084,0.599,2.695,1.428
					c0.584,0.803,0.876,2.822,0.876,6.06v0.438l-4.133,0.041c0.046-0.857,0.068-1.625,0.068-2.306c0-2.061-0.224-3.322-0.671-3.784
					c-0.511-0.517-1.117-0.775-1.819-0.775c-0.138,0-0.278,0.01-0.425,0.03c0.055,2.074,0.174,4.04,0.355,5.896L355.525,45.702z
					 M359.029,33.054l0.096,4.366c1.697-0.062,2.773-0.49,3.229-1.286c0.247-0.421,0.37-0.833,0.37-1.234
					c0-0.347-0.092-0.687-0.273-1.02c-0.329-0.578-1.146-0.867-2.45-0.867C359.699,33.013,359.376,33.026,359.029,33.054z"/>
				<path fill="#FFFFFF" d="M366.762,45.438c1.715-5.808,3.102-10.731,4.159-14.771l5.132-0.061c1.26,4.202,2.7,8.99,4.324,14.362
					l-3.503,0.531l-1.108-3.866h-4.256l-1.15,4.172L366.762,45.438z M375.656,38.766c-0.475-1.469-1.25-3.227-2.326-5.273
					c-0.83,1.721-1.533,3.502-2.107,5.345L375.656,38.766z"/>
				<path fill="#FFFFFF" d="M390.024,30.503c-0.164,3.544-0.246,6.58-0.246,9.109c0,1.007,0.014,1.936,0.041,2.785l6.103-0.225
					l0.096,3.326l-9.77,0.163c0.008-0.898,0.014-1.792,0.014-2.684c0-4.087-0.119-8.153-0.356-12.2L390.024,30.503z"/>
				<path fill="#FFFFFF" d="M396.525,45.438c1.715-5.808,3.102-10.731,4.159-14.771l5.132-0.061c1.26,4.202,2.7,8.99,4.324,14.362
					l-3.503,0.531l-1.108-3.866h-4.256l-1.15,4.172L396.525,45.438z M405.42,38.766c-0.475-1.469-1.25-3.227-2.326-5.273
					c-0.83,1.721-1.533,3.502-2.107,5.345L405.42,38.766z"/>
				<path fill="#FFFFFF" d="M414.767,45.438c1.715-5.808,3.102-10.731,4.159-14.771l5.133-0.061
					c1.259,4.202,2.699,8.99,4.324,14.362l-3.504,0.531l-1.107-3.866h-4.256l-1.15,4.172L414.767,45.438z M423.661,38.766
					c-0.474-1.469-1.25-3.227-2.326-5.273c-0.83,1.721-1.532,3.502-2.107,5.345L423.661,38.766z"/>
				<path fill="#FFFFFF" d="M428.807,33.788v-2.683c1.342,0.027,2.668,0.04,3.982,0.04c2.043,0,4.046-0.03,6.008-0.092l0.123,2.856
					h-3.449c0,4.835,0.068,8.671,0.205,11.507l-3.858,0.143c0.2-4.828,0.347-8.766,0.438-11.812L428.807,33.788z"/>
				<path fill="#FFFFFF" d="M448.923,31.156v2.877l-5.405-0.164v3.347l4.857-0.103l0.123,2.765h-4.338v2.591h5.68v2.897l-9.47-0.103
					c0.101-1.91,0.15-3.835,0.15-5.773c0-2.687-0.096-5.396-0.288-8.13C442.295,31.299,445.191,31.231,448.923,31.156z"/>
				<path fill="#FFFFFF" d="M451.208,45.55c0.11-2.326,0.165-4.591,0.165-6.794c0-2.543-0.074-5.009-0.22-7.396l4.023-0.143
					l3.694,7.681c-0.036-2.639-0.137-5.338-0.301-8.1l4.229-0.041c-0.42,4.169-0.629,8.379-0.629,12.629
					c0,0.571,0.004,1.143,0.014,1.714l-3.709,0.031l-3.941-8.223c0.119,3.033,0.229,5.853,0.328,8.457L451.208,45.55z"/>
				<path fill="#FFFFFF" d="M474.623,36.379l-3.039,0.011v-0.276c0-1.598-0.602-2.396-1.806-2.396c-1.286,0-1.93,1.476-1.93,4.427
					c0,3.325,0.675,4.988,2.025,4.988h0.014c1.351-0.007,2.025-0.822,2.025-2.448v-1.01h3.394v0.765
					c0,3.387-1.865,5.159-5.597,5.315c-0.109,0.007-0.22,0.01-0.329,0.01c-3.512,0-5.268-2.516-5.268-7.549
					c0-4.923,1.807-7.385,5.419-7.385c3.402,0,5.104,1.646,5.104,4.937C474.637,35.964,474.632,36.168,474.623,36.379z"/>
				<path fill="#FFFFFF" d="M479.959,45.06l-3.406,0.235c0-4.992-0.109-9.678-0.329-14.058l3.9-0.244
					C480.023,35.61,479.969,40.3,479.959,45.06z"/>
				<path fill="#FFFFFF" d="M487.719,30.81c3.84,0,5.761,2.448,5.761,7.345c0,4.903-2.058,7.354-6.172,7.354s-6.171-2.54-6.171-7.62
					C481.137,33.169,483.33,30.81,487.719,30.81z M484.981,38.43c-0.009,0.177-0.014,0.347-0.014,0.51
					c0,2.563,0.803,3.846,2.408,3.846c1.706,0,2.56-1.452,2.56-4.355c0-2.904-0.794-4.356-2.381-4.356
					C485.957,34.073,485.1,35.525,484.981,38.43z M485.68,28.81c1.066-0.945,1.943-1.846,2.627-2.703l2.244,1.326
					c-0.967,0.708-2.043,1.574-3.229,2.602L485.68,28.81z"/>
				<path fill="#FFFFFF" d="M494.52,45.55c0.109-2.326,0.164-4.591,0.164-6.794c0-2.543-0.072-5.009-0.219-7.396l4.023-0.143
					l3.695,7.681c-0.037-2.639-0.137-5.338-0.302-8.1l4.229-0.041c-0.419,4.169-0.63,8.379-0.63,12.629
					c0,0.571,0.005,1.143,0.014,1.714l-3.708,0.031l-3.94-8.223c0.117,3.033,0.227,5.853,0.328,8.457L494.52,45.55z"/>
				<path fill="#FFFFFF" d="M109.102,54.38l-3.038,0.011v-0.276c0-1.598-0.603-2.396-1.806-2.396c-1.287,0-1.93,1.476-1.93,4.427
					c0,3.325,0.675,4.988,2.025,4.988h0.014c1.35-0.007,2.025-0.822,2.025-2.448v-1.01h3.393v0.765c0,3.387-1.865,5.159-5.596,5.315
					c-0.109,0.007-0.22,0.01-0.329,0.01c-3.513,0-5.269-2.516-5.269-7.549c0-4.923,1.807-7.385,5.42-7.385
					c3.402,0,5.104,1.646,5.104,4.937C109.115,53.965,109.111,54.169,109.102,54.38z"/>
				<path fill="#FFFFFF" d="M116.984,48.811c3.84,0,5.761,2.448,5.761,7.345c0,4.903-2.058,7.354-6.172,7.354
					s-6.171-2.54-6.171-7.62C110.402,51.17,112.596,48.811,116.984,48.811z M114.247,56.431c-0.009,0.177-0.014,0.347-0.014,0.51
					c0,2.563,0.803,3.846,2.408,3.846c1.706,0,2.56-1.452,2.56-4.355c0-2.904-0.794-4.356-2.381-4.356
					C115.223,52.074,114.365,53.526,114.247,56.431z"/>
				<path fill="#FFFFFF" d="M123.785,63.551c0.109-2.326,0.164-4.591,0.164-6.794c0-2.543-0.072-5.009-0.219-7.396l4.023-0.143
					l3.695,7.681c-0.037-2.639-0.137-5.338-0.302-8.1l4.229-0.041c-0.419,4.169-0.63,8.379-0.63,12.629
					c0,0.571,0.005,1.143,0.014,1.714l-3.708,0.031l-3.94-8.223c0.117,3.033,0.227,5.853,0.328,8.457L123.785,63.551z"/>
				<path fill="#FFFFFF" d="M150.484,49.157v2.877l-5.406-0.164v3.347l4.858-0.103l0.123,2.765h-4.338v2.591h5.679v2.897
					l-9.469-0.103c0.1-1.91,0.15-3.835,0.15-5.773c0-2.687-0.096-5.396-0.288-8.13C143.855,49.3,146.752,49.232,150.484,49.157z"/>
				<path fill="#FFFFFF" d="M152.769,63.551c0.11-2.326,0.165-4.591,0.165-6.794c0-2.543-0.074-5.009-0.22-7.396l4.023-0.143
					l3.694,7.681c-0.036-2.639-0.137-5.338-0.301-8.1l4.229-0.041c-0.42,4.169-0.629,8.379-0.629,12.629
					c0,0.571,0.004,1.143,0.014,1.714l-3.709,0.031l-3.941-8.223c0.119,3.033,0.229,5.853,0.328,8.457L152.769,63.551z"/>
				<path fill="#FFFFFF" d="M174.363,48.942v2.877l-5.406-0.152v3.825l4.859-0.092l0.123,2.764h-4.338v5.029l-3.791-0.133
					c0.1-1.91,0.15-3.835,0.15-5.773c0-2.687-0.096-5.396-0.287-8.13C167.735,49.089,170.632,49.018,174.363,48.942z"/>
				<path fill="#FFFFFF" d="M181.958,48.811c3.841,0,5.761,2.448,5.761,7.345c0,4.903-2.057,7.354-6.172,7.354
					c-4.113,0-6.171-2.54-6.171-7.62C175.376,51.17,177.57,48.811,181.958,48.811z M179.221,56.431
					c-0.009,0.177-0.014,0.347-0.014,0.51c0,2.563,0.803,3.846,2.408,3.846c1.707,0,2.56-1.452,2.56-4.355
					c0-2.904-0.794-4.356-2.381-4.356C180.197,52.074,179.34,53.526,179.221,56.431z"/>
				<path fill="#FFFFFF" d="M199.01,64.662c-0.466-0.523-0.968-1.077-1.506-1.662c-0.803,0.354-1.756,0.53-2.86,0.53
					c-4.114,0-6.171-2.544-6.171-7.631c0-4.719,2.193-7.079,6.582-7.079c3.84,0,5.761,2.452,5.761,7.355
					c0,2.318-0.461,4.09-1.382,5.314c0.529,0.523,1.049,1.023,1.561,1.499L199.01,64.662z M192.317,56.451
					c-0.009,0.177-0.014,0.347-0.014,0.51c0,2.563,0.803,3.846,2.409,3.846c0.227,0,0.441-0.027,0.643-0.082
					c-0.566-0.598-1.163-1.221-1.793-1.866l1.957-1.602c0.492,0.564,0.977,1.111,1.451,1.643c0.2-0.653,0.301-1.47,0.301-2.448
					c0-2.911-0.794-4.366-2.381-4.366C193.293,52.085,192.436,53.54,192.317,56.451z"/>
				<path fill="#FFFFFF" d="M212.967,48.892V58.98c0,3.108-1.906,4.662-5.72,4.662h-0.302c-3.193-0.272-4.844-1.574-4.953-3.907
					c0-4.658-0.064-8.33-0.191-11.017h3.64c-0.091,1.537-0.137,3.342-0.137,5.416c0,1.456,0.022,3.047,0.068,4.774
					c0.019,1.265,0.63,1.897,1.833,1.897c0,0.007,0.006,0.01,0.015,0.01c1.194,0,1.792-0.809,1.792-2.428l-0.068-9.405
					L212.967,48.892z"/>
				<path fill="#FFFFFF" d="M222.971,49.157v2.877l-5.406-0.164v3.347l4.859-0.103l0.123,2.765h-4.338v2.591h5.678v2.897
					l-9.469-0.103c0.1-1.91,0.15-3.835,0.15-5.773c0-2.687-0.096-5.396-0.287-8.13C216.343,49.3,219.239,49.232,222.971,49.157z"/>
				<path fill="#FFFFFF" d="M230.414,63.54c0.056-1.788,0.083-3.617,0.083-5.487c0-2.87-0.063-5.842-0.192-8.916
					c1.561-0.163,2.938-0.245,4.133-0.245c1.88,0,3.294,0.204,4.242,0.612c1.469,0.633,2.203,1.928,2.203,3.887v0.337
					c-0.091,2.148-0.743,3.524-1.956,4.126c-1.214,0.602-2.71,0.923-4.489,0.964c-0.009,0.211-0.014,0.429-0.014,0.652
					c0,1.13,0.078,2.466,0.232,4.01L230.414,63.54z M233.918,51.503l0.096,4.988c1.697-0.067,2.691-0.52,2.983-1.356
					c0.137-0.381,0.205-0.771,0.205-1.173c0-0.47-0.091-0.952-0.273-1.449c-0.274-0.728-0.958-1.091-2.053-1.091
					C234.584,51.422,234.265,51.449,233.918,51.503z"/>
				<path fill="#FFFFFF" d="M242.389,58.145l4.064-0.204c-0.055,0.421-0.082,0.802-0.082,1.143c0,1.543,0.516,2.315,1.547,2.315
					h0.055c1.249-0.027,1.874-0.523,1.874-1.489v-0.092c-0.046-1.027-1.228-2.033-3.544-3.02c-2.254-0.952-3.381-2.523-3.381-4.713
					c0-0.068,0.006-0.136,0.014-0.204c0.064-2.292,1.789-3.458,5.174-3.499h0.109c3.056,0,4.584,1.452,4.584,4.355
					c0,0.231-0.01,0.477-0.027,0.734l-3.572,0.153c0.037-0.306,0.055-0.588,0.055-0.847c0-1.217-0.396-1.826-1.189-1.826
					c-0.959,0-1.482,0.364-1.574,1.092c-0.01,0.102-0.014,0.204-0.014,0.306c0,0.605,0.242,1.17,0.725,1.693
					c0.557,0.605,1.513,1.16,2.867,1.663c1.355,0.503,2.302,1.193,2.84,2.07c0.383,0.633,0.574,1.307,0.574,2.021
					c0,0.271-0.027,0.551-0.082,0.836c-0.209,1.027-0.793,1.879-1.751,2.556s-2.244,1.046-3.858,1.106
					c-0.11,0.007-0.22,0.011-0.329,0.011c-1.469,0-2.696-0.401-3.681-1.204c-0.949-0.769-1.424-2.166-1.424-4.192
					C242.361,58.664,242.371,58.409,242.389,58.145z"/>
				<path fill="#FFFFFF" d="M258.51,63.061l-3.408,0.235c0-4.992-0.109-9.678-0.328-14.058l3.9-0.244
					C258.573,53.611,258.519,58.301,258.51,63.061z"/>
				<path fill="#FFFFFF" d="M270.497,54.38l-3.038,0.011v-0.276c0-1.598-0.602-2.396-1.807-2.396c-1.285,0-1.93,1.476-1.93,4.427
					c0,3.325,0.676,4.988,2.025,4.988h0.014c1.351-0.007,2.025-0.822,2.025-2.448v-1.01h3.395v0.765
					c0,3.387-1.866,5.159-5.598,5.315c-0.109,0.007-0.219,0.01-0.328,0.01c-3.512,0-5.269-2.516-5.269-7.549
					c0-4.923,1.807-7.385,5.419-7.385c3.402,0,5.104,1.646,5.104,4.937C270.511,53.965,270.506,54.169,270.497,54.38z"/>
				<path fill="#FFFFFF" d="M278.379,48.811c3.841,0,5.762,2.448,5.762,7.345c0,4.903-2.058,7.354-6.172,7.354
					c-4.115,0-6.172-2.54-6.172-7.62C271.797,51.17,273.99,48.811,278.379,48.811z M275.643,56.431
					c-0.01,0.177-0.014,0.347-0.014,0.51c0,2.563,0.803,3.846,2.408,3.846c1.705,0,2.559-1.452,2.559-4.355
					c0-2.904-0.793-4.356-2.381-4.356C276.618,52.074,275.761,53.526,275.643,56.431z"/>
				<path fill="#FFFFFF" d="M285.18,58.145l4.064-0.204c-0.055,0.421-0.082,0.802-0.082,1.143c0,1.543,0.516,2.315,1.547,2.315
					h0.055c1.25-0.027,1.875-0.523,1.875-1.489v-0.092c-0.046-1.027-1.228-2.033-3.545-3.02c-2.253-0.952-3.38-2.523-3.38-4.713
					c0-0.068,0.005-0.136,0.014-0.204c0.063-2.292,1.788-3.458,5.173-3.499h0.109c3.057,0,4.584,1.452,4.584,4.355
					c0,0.231-0.009,0.477-0.027,0.734l-3.571,0.153c0.036-0.306,0.055-0.588,0.055-0.847c0-1.217-0.396-1.826-1.19-1.826
					c-0.958,0-1.482,0.364-1.574,1.092c-0.009,0.102-0.014,0.204-0.014,0.306c0,0.605,0.242,1.17,0.726,1.693
					c0.557,0.605,1.513,1.16,2.867,1.663s2.302,1.193,2.839,2.07c0.384,0.633,0.575,1.307,0.575,2.021
					c0,0.271-0.027,0.551-0.082,0.836c-0.21,1.027-0.794,1.879-1.751,2.556c-0.959,0.677-2.244,1.046-3.859,1.106
					c-0.109,0.007-0.219,0.011-0.328,0.011c-1.469,0-2.696-0.401-3.682-1.204c-0.949-0.769-1.424-2.166-1.424-4.192
					C285.152,58.664,285.162,58.409,285.18,58.145z"/>
				<path fill="#FFFFFF" d="M303.846,48.811c3.842,0,5.762,2.448,5.762,7.345c0,4.903-2.057,7.354-6.172,7.354
					c-4.114,0-6.172-2.54-6.172-7.62C297.264,51.17,299.458,48.811,303.846,48.811z M301.109,56.431
					c-0.01,0.177-0.014,0.347-0.014,0.51c0,2.563,0.803,3.846,2.408,3.846c1.706,0,2.559-1.452,2.559-4.355
					c0-2.904-0.793-4.356-2.381-4.356C302.086,52.074,301.229,53.526,301.109,56.431z"/>
				<path fill="#FFFFFF" d="M321.102,54.38l-3.037,0.011v-0.276c0-1.598-0.603-2.396-1.807-2.396c-1.286,0-1.93,1.476-1.93,4.427
					c0,3.325,0.676,4.988,2.025,4.988h0.014c1.35-0.007,2.025-0.822,2.025-2.448v-1.01h3.394v0.765c0,3.387-1.866,5.159-5.597,5.315
					c-0.109,0.007-0.219,0.01-0.328,0.01c-3.513,0-5.27-2.516-5.27-7.549c0-4.923,1.807-7.385,5.42-7.385
					c3.402,0,5.104,1.646,5.104,4.937C321.115,53.965,321.111,54.169,321.102,54.38z"/>
				<path fill="#FFFFFF" d="M326.439,63.061l-3.408,0.235c0-4.992-0.109-9.678-0.328-14.058l3.9-0.244
					C326.503,53.611,326.448,58.301,326.439,63.061z"/>
				<path fill="#FFFFFF" d="M327.014,63.438c1.715-5.808,3.102-10.731,4.16-14.771l5.132-0.061c1.259,4.202,2.7,8.99,4.324,14.362
					l-3.503,0.531l-1.108-3.866h-4.256l-1.149,4.172L327.014,63.438z M335.908,56.767c-0.474-1.469-1.25-3.227-2.326-5.273
					c-0.83,1.721-1.532,3.502-2.107,5.345L335.908,56.767z"/>
				<path fill="#FFFFFF" d="M345.174,48.504c-0.164,3.544-0.246,6.58-0.246,9.109c0,1.007,0.014,1.936,0.041,2.785l6.103-0.225
					l0.096,3.326l-9.771,0.163c0.009-0.898,0.014-1.792,0.014-2.684c0-4.087-0.119-8.153-0.355-12.2L345.174,48.504z"/>
				<path fill="#FFFFFF" d="M356.777,63.438c1.715-5.808,3.102-10.731,4.16-14.771l5.132-0.061c1.259,4.202,2.7,8.99,4.324,14.362
					l-3.503,0.531l-1.108-3.866h-4.256l-1.149,4.172L356.777,63.438z M365.672,56.767c-0.474-1.469-1.25-3.227-2.326-5.273
					c-0.83,1.721-1.532,3.502-2.107,5.345L365.672,56.767z"/>
				<path fill="#FFFFFF" d="M380.041,48.504c-0.164,3.544-0.246,6.58-0.246,9.109c0,1.007,0.014,1.936,0.041,2.785l6.104-0.225
					l0.096,3.326l-9.771,0.163c0.009-0.898,0.014-1.792,0.014-2.684c0-4.087-0.118-8.153-0.356-12.2L380.041,48.504z"/>
				<path fill="#FFFFFF" d="M386.542,63.438c1.715-5.808,3.102-10.731,4.159-14.771l5.133-0.061
					c1.259,4.202,2.699,8.99,4.324,14.362l-3.504,0.531l-1.107-3.866h-4.256l-1.15,4.172L386.542,63.438z M395.437,56.767
					c-0.474-1.469-1.25-3.227-2.326-5.273c-0.83,1.721-1.532,3.502-2.107,5.345L395.437,56.767z"/>
				<path fill="#FFFFFF" d="M400.637,58.145l4.064-0.204c-0.055,0.421-0.082,0.802-0.082,1.143c0,1.543,0.516,2.315,1.547,2.315
					h0.055c1.249-0.027,1.874-0.523,1.874-1.489v-0.092c-0.046-1.027-1.228-2.033-3.544-3.02c-2.254-0.952-3.381-2.523-3.381-4.713
					c0-0.068,0.006-0.136,0.014-0.204c0.064-2.292,1.789-3.458,5.174-3.499h0.109c3.056,0,4.584,1.452,4.584,4.355
					c0,0.231-0.01,0.477-0.027,0.734l-3.572,0.153c0.037-0.306,0.055-0.588,0.055-0.847c0-1.217-0.396-1.826-1.189-1.826
					c-0.959,0-1.482,0.364-1.574,1.092c-0.01,0.102-0.014,0.204-0.014,0.306c0,0.605,0.242,1.17,0.725,1.693
					c0.557,0.605,1.513,1.16,2.867,1.663c1.355,0.503,2.302,1.193,2.84,2.07c0.383,0.633,0.574,1.307,0.574,2.021
					c0,0.271-0.027,0.551-0.082,0.836c-0.209,1.027-0.793,1.879-1.751,2.556s-2.244,1.046-3.858,1.106
					c-0.11,0.007-0.22,0.011-0.329,0.011c-1.469,0-2.696-0.401-3.681-1.204c-0.949-0.769-1.424-2.166-1.424-4.192
					C400.609,58.664,400.619,58.409,400.637,58.145z"/>
				<path fill="#FFFFFF" d="M421.082,63.397c-1.113-4.583-2.432-9.375-3.955-14.373l3.996-0.306l2.34,11.18
					c1.195-3.91,2.171-7.45,2.928-10.619l3.791,0.347c-1.916,6.169-3.344,10.722-4.283,13.659L421.082,63.397z"/>
				<path fill="#FFFFFF" d="M434.355,63.061l-3.408,0.235c0-4.992-0.109-9.678-0.328-14.058l3.9-0.244
					C434.419,53.611,434.364,58.301,434.355,63.061z M430.947,46.913c1.068-0.945,1.943-1.847,2.628-2.703l2.244,1.326
					c-0.968,0.707-2.044,1.574-3.229,2.601L430.947,46.913z"/>
				<path fill="#FFFFFF" d="M446.343,54.38l-3.038,0.011v-0.276c0-1.598-0.602-2.396-1.807-2.396c-1.285,0-1.93,1.476-1.93,4.427
					c0,3.325,0.676,4.988,2.025,4.988h0.014c1.351-0.007,2.025-0.822,2.025-2.448v-1.01h3.395v0.765
					c0,3.387-1.866,5.159-5.598,5.315c-0.109,0.007-0.219,0.01-0.328,0.01c-3.512,0-5.269-2.516-5.269-7.549
					c0-4.923,1.807-7.385,5.419-7.385c3.402,0,5.104,1.646,5.104,4.937C446.356,53.965,446.352,54.169,446.343,54.38z"/>
				<path fill="#FFFFFF" d="M447.943,51.789v-2.683c1.342,0.027,2.669,0.04,3.982,0.04c2.044,0,4.047-0.03,6.008-0.092l0.123,2.856
					h-3.448c0,4.835,0.068,8.671,0.205,11.507l-3.858,0.143c0.2-4.828,0.346-8.766,0.438-11.812L447.943,51.789z"/>
				<path fill="#FFFFFF" d="M463.106,63.061l-3.407,0.235c0-4.992-0.109-9.678-0.328-14.058l3.9-0.244
					C463.17,53.611,463.115,58.301,463.106,63.061z"/>
				<path fill="#FFFFFF" d="M469.347,48.719l3.188,10.567l2.34-9.792l6.24,0.051c-0.109,2.21-0.164,4.44-0.164,6.691
					c0,2.51,0.068,5.05,0.205,7.62l-3.982,0.204c0-2.706-0.041-6.015-0.123-9.926l-2.23,8.967l-4.242,0.215l-2.736-9.671
					l-0.055,9.793l-3.34,0.173c0.064-2.237,0.096-4.457,0.096-6.661c0-2.747-0.05-5.461-0.15-8.14L469.347,48.719z"/>
				<path fill="#FFFFFF" d="M481.567,63.438c1.715-5.808,3.102-10.731,4.159-14.771l5.133-0.061
					c1.259,4.202,2.699,8.99,4.324,14.362L491.68,63.5l-1.107-3.866h-4.256l-1.15,4.172L481.567,63.438z M490.462,56.767
					c-0.474-1.469-1.25-3.227-2.326-5.273c-0.83,1.721-1.532,3.502-2.107,5.345L490.462,56.767z"/>
				<path fill="#FFFFFF" d="M495.662,58.145l4.064-0.204c-0.055,0.421-0.082,0.802-0.082,1.143c0,1.543,0.516,2.315,1.547,2.315
					h0.055c1.249-0.027,1.874-0.523,1.874-1.489v-0.092c-0.046-1.027-1.228-2.033-3.544-3.02c-2.254-0.952-3.381-2.523-3.381-4.713
					c0-0.068,0.006-0.136,0.014-0.204c0.064-2.292,1.789-3.458,5.174-3.499h0.109c3.056,0,4.584,1.452,4.584,4.355
					c0,0.231-0.01,0.477-0.027,0.734l-3.572,0.153c0.037-0.306,0.055-0.588,0.055-0.847c0-1.217-0.396-1.826-1.189-1.826
					c-0.959,0-1.482,0.364-1.574,1.092c-0.01,0.102-0.014,0.204-0.014,0.306c0,0.605,0.242,1.17,0.725,1.693
					c0.557,0.605,1.513,1.16,2.867,1.663c1.355,0.503,2.302,1.193,2.84,2.07c0.383,0.633,0.574,1.307,0.574,2.021
					c0,0.271-0.027,0.551-0.082,0.836c-0.209,1.027-0.793,1.879-1.751,2.556s-2.244,1.046-3.858,1.106
					c-0.11,0.007-0.22,0.011-0.329,0.011c-1.469,0-2.696-0.401-3.681-1.204c-0.949-0.769-1.424-2.166-1.424-4.192
					C495.635,58.664,495.645,58.409,495.662,58.145z"/>
			</g>
		</g>
	</g>
	<g>
		<path fill-rule="evenodd" clip-rule="evenodd" fill="#81AD38" d="M87.691,46.355c0-0.1-0.002-0.199-0.006-0.299
			c-0.031-1.699-0.402-3.371-1.121-4.816c-0.275-0.584-0.594-1.141-0.971-1.656c-0.426-0.586-0.971-1.104-1.6-1.551
			c-2.744-2.264-6.467-2.85-10.291-1.504c-1.773,0.625-2.631,0.533-2.965-0.562c-0.068-0.375-0.102-0.834-0.104-1.396
			c-0.008-4.365,0.041-8.73,0.049-13.098c0-1.359-0.037-2.141-0.361-2.592c-0.346-0.76-1.08-1.055-2.307-1.035
			c-4.672,0.078-9.344,0.036-14.016,0.092c-0.248,0.004-0.471,0.014-0.678,0.029c-1.236-0.463-1.328-1.549-0.574-3.682
			c1.641-4.646,0.248-9.498-3.535-12.328c-3.4-2.543-8.592-2.615-12.068-0.168c-3.891,2.738-5.398,7.471-3.893,12.219
			c0.814,2.568,0.775,3.621-0.73,3.996c-4.266-0.029-8.531-0.045-12.795,0.02c-0.49-0.006-0.979-0.016-1.467-0.023
			c-0.391-0.008-0.736,0.016-1.047,0.07c-0.014,0-0.031,0-0.047,0c-0.084,0.002-0.178,0.031-0.277,0.074
			c-0.914,0.275-1.379,0.982-1.32,2.512c0.008,0.221,0.012,0.441,0.02,0.662c-0.057,2.049,0,4.105,0.002,6.16
			c0,2.428-0.08,4.859,0.023,7.283c0,0.26-0.002,0.494-0.008,0.701c-0.088,1.01-0.545,1.477-1.316,1.611
			c-0.41-0.008-0.939-0.064-1.639-0.141c-0.592-0.062-1.188-0.08-1.783-0.092c-0.719-0.055-1.436-0.074-2.148-0.039
			c-0.008,0.002-0.018,0.004-0.025,0.004c-1.447,0.074-2.873,0.385-4.254,1.135C1.639,39.463-0.047,42.771,0,46.258
			c0,0.033,0,0.066,0,0.098c0,0.033,0,0.066,0,0.098c-0.047,3.488,1.639,6.797,4.439,8.318c1.381,0.748,2.807,1.059,4.254,1.135
			c0.008,0.002,0.018,0.002,0.025,0.002c0.713,0.035,1.428,0.016,2.148-0.037c0.596-0.012,1.191-0.029,1.783-0.092
			c0.699-0.076,1.229-0.133,1.639-0.141c0.771,0.135,1.229,0.6,1.316,1.611c0.006,0.207,0.008,0.441,0.008,0.699
			c-0.104,2.424-0.023,4.855-0.023,7.285c-0.002,2.053-0.059,4.111-0.002,6.16c-0.008,0.221-0.012,0.439-0.02,0.66
			c-0.059,1.529,0.406,2.236,1.32,2.514c0.1,0.043,0.193,0.072,0.277,0.074c0.016,0,0.033,0,0.047,0
			c0.311,0.057,0.656,0.076,1.047,0.07c0.488-0.008,0.977-0.018,1.467-0.025c4.264,0.064,8.529,0.049,12.795,0.021
			c1.506,0.373,1.545,1.426,0.73,3.994c-1.506,4.748,0.002,9.48,3.893,12.221c3.477,2.445,8.668,2.373,12.068-0.17
			c3.783-2.83,5.176-7.68,3.535-12.326c-0.754-2.135-0.662-3.219,0.574-3.682c0.207,0.014,0.43,0.025,0.678,0.029
			c4.672,0.055,9.344,0.012,14.016,0.09c1.227,0.021,1.961-0.275,2.307-1.033c0.324-0.453,0.361-1.232,0.361-2.594
			c-0.008-4.365-0.057-8.73-0.049-13.098c0.002-0.562,0.035-1.021,0.104-1.396c0.334-1.094,1.191-1.188,2.965-0.562
			c3.824,1.346,7.547,0.76,10.291-1.504c0.629-0.445,1.174-0.963,1.6-1.549c0.377-0.516,0.695-1.072,0.971-1.656
			c0.719-1.445,1.09-3.117,1.121-4.816C87.689,46.557,87.691,46.455,87.691,46.355z"/>
		<g>
			<g>
				<path fill="#FFFFFF" d="M28.787,31.615v7.147c0,2.202-1.351,3.304-4.053,3.304h-0.213c-2.263-0.192-3.433-1.115-3.51-2.769
					c0-3.301-0.046-5.902-0.137-7.806h2.58c-0.064,1.089-0.098,2.368-0.098,3.838c0,1.031,0.017,2.158,0.049,3.383
					c0.013,0.896,0.446,1.344,1.299,1.344c0,0.005,0.004,0.008,0.01,0.008c0.848,0,1.271-0.573,1.271-1.721l-0.048-6.664
					L28.787,31.615z"/>
				<path fill="#FFFFFF" d="M31.425,34.6l0.097,1.179c0.271-0.627,0.986-0.944,2.143-0.954h0.039c1.139,0,1.914,0.332,2.328,0.997
					c0.283,0.453,0.426,1.514,0.426,3.181c0,0.819-0.035,1.787-0.106,2.905h-2.347c0.084-1.489,0.126-2.643,0.126-3.462
					c0-0.41-0.009-0.737-0.028-0.983c-0.065-0.723-0.375-1.084-0.932-1.084c-0.556,0-0.904,0.192-1.047,0.578l0.097,5.24
					l-2.278,0.015c0-2.217-0.1-4.705-0.301-7.467L31.425,34.6z"/>
				<path fill="#FFFFFF" d="M39.978,33.125c0,0.294-0.14,0.545-0.417,0.752c-0.278,0.207-0.614,0.311-1.009,0.311
					c-0.388,0-0.721-0.104-0.999-0.311c-0.277-0.207-0.416-0.458-0.416-0.752c0-0.289,0.139-0.537,0.416-0.744
					c0.278-0.207,0.611-0.311,0.999-0.311c0.395,0,0.73,0.104,1.009,0.311C39.838,32.588,39.978,32.836,39.978,33.125z
					 M37.379,42.247c-0.045-2.819-0.068-5.255-0.068-7.308l2.443-0.108c-0.077,1.966-0.116,3.92-0.116,5.862
					c0,0.521,0.003,1.038,0.01,1.554H37.379z"/>
				<path fill="#FFFFFF" d="M47.841,31.983c-0.039,1.629-0.058,3.337-0.058,5.125c0,1.628,0.016,3.324,0.048,5.088l-2.298,0.008
					l-0.078-1.106c-0.479,0.535-1.115,0.803-1.91,0.803c-1.984,0-2.977-1.133-2.977-3.397c0-0.048,0.004-0.097,0.01-0.145
					c0.039-2.27,1.021-3.404,2.947-3.404c0.078,0,0.158,0.003,0.243,0.007c0.659,0.029,1.192,0.297,1.6,0.803
					c0-1.069-0.036-2.33-0.106-3.78H47.841z M45.416,39.616l-0.048-2.501c-0.375-0.381-0.76-0.571-1.153-0.571
					c-0.162,0-0.324,0.031-0.485,0.094c-0.511,0.198-0.767,0.752-0.767,1.663c0,0.105,0.004,0.214,0.01,0.325
					c0.064,1.104,0.395,1.687,0.99,1.749c0.058,0.005,0.115,0.007,0.174,0.007C44.654,40.382,45.08,40.127,45.416,39.616z"/>
				<path fill="#FFFFFF" d="M52.359,34.578c2.127,0.087,3.189,0.885,3.189,2.393v5.132l-2.259,0.029l-0.077-0.688
					c-0.466,0.396-1.084,0.593-1.853,0.593c-0.329,0-0.685-0.038-1.066-0.115c-1.145-0.212-1.716-0.872-1.716-1.98
					c0-0.135,0.01-0.279,0.028-0.434c0.13-1.143,1.219-1.713,3.268-1.713c0.395,0,0.827,0.021,1.3,0.064v-0.838
					c0-0.68-0.288-1.02-0.863-1.02h-0.039c-0.045-0.005-0.087-0.007-0.126-0.007c-0.627,0-0.94,0.381-0.94,1.142v0.108l-2.308-0.145
					c0-1.682,1.086-2.522,3.258-2.522H52.359z M53.174,40.288v-1.271c-0.278-0.044-0.53-0.065-0.757-0.065
					c-0.588,0-0.989,0.146-1.202,0.44c-0.129,0.179-0.193,0.345-0.193,0.499c0,0.193,0.104,0.364,0.31,0.514
					c0.161,0.115,0.372,0.173,0.63,0.173C52.291,40.577,52.695,40.481,53.174,40.288z"/>
				<path fill="#FFFFFF" d="M63.655,31.983c-0.039,1.629-0.058,3.337-0.058,5.125c0,1.628,0.016,3.324,0.048,5.088l-2.298,0.008
					l-0.078-1.106c-0.479,0.535-1.115,0.803-1.91,0.803c-1.984,0-2.977-1.133-2.977-3.397c0-0.048,0.004-0.097,0.01-0.145
					c0.039-2.27,1.021-3.404,2.947-3.404c0.078,0,0.158,0.003,0.243,0.007c0.659,0.029,1.192,0.297,1.6,0.803
					c0-1.069-0.036-2.33-0.106-3.78H63.655z M61.23,39.616l-0.048-2.501c-0.375-0.381-0.76-0.571-1.153-0.571
					c-0.162,0-0.324,0.031-0.485,0.094c-0.511,0.198-0.767,0.752-0.767,1.663c0,0.105,0.004,0.214,0.01,0.325
					c0.064,1.104,0.395,1.687,0.99,1.749c0.058,0.005,0.115,0.007,0.174,0.007C60.469,40.382,60.895,40.127,61.23,39.616z"/>
			</g>
		</g>
		<g>
			<g>
				<path fill="#FFFFFF" d="M35.885,54.003c-0.059-0.531-0.088-1.023-0.088-1.475c0-1.586,0.385-2.729,1.158-3.428
					c0.986-0.895,2.246-1.431,3.778-1.608c0.546-0.062,1.081-0.093,1.604-0.093c0.938,0,1.842,0.098,2.709,0.293
					c1.354,0.31,2.377,0.921,3.066,1.833c0.558,0.762,0.837,1.736,0.837,2.923c0,0.23-0.006,0.475-0.018,0.731
					c-0.143,1.523-0.758,2.925-1.845,4.205c-1.088,1.279-2.968,3.111-5.642,5.494l7.789,0.039l-0.054,3.335
					c-3.41,0.115-7.807,0.173-13.189,0.173l-0.41-3.627c3.232-2.604,5.537-4.606,6.916-6.006c1.26-1.284,1.889-2.546,1.889-3.786
					v-0.332c-0.131-1.329-0.879-1.993-2.245-1.993H42.07c-1.188,0.026-1.782,0.832-1.782,2.418c0,0.301,0.018,0.624,0.054,0.97
					L35.885,54.003z"/>
			</g>
		</g>
	</g>
</g>
</svg>
